<?xml version="1.0" encoding="UTF-8" standalone="no"?><!DOCTYPE svg PUBLIC "-//W3C//DTD SVG 1.1//EN" "http://www.w3.org/Graphics/SVG/1.1/DTD/svg11.dtd"><svg width="100%" height="100%" viewBox="0 0 55 60" version="1.1" xmlns="http://www.w3.org/2000/svg" xmlns:xlink="http://www.w3.org/1999/xlink" xml:space="preserve" xmlns:serif="http://www.serif.com/" style="fill-rule:evenodd;clip-rule:evenodd;stroke-linejoin:round;stroke-miterlimit:2;"><g><rect x="37.05" y="42.65" width="11.4" height="6.8"/><path d="M24.118,5.649c-0.534,-0.733 -1.217,-1.1 -2.05,-1.1c-1.067,0 -1.884,0.483 -2.45,1.45c-0.467,0.8 -0.7,1.783 -0.7,2.95c-0,1.867 0.816,2.8 2.45,2.8c0.966,0 1.8,-0.4 2.5,-1.2c0.666,-0.767 1,-1.633 1,-2.6c-0,-0.833 -0.25,-1.6 -0.75,-2.3Zm-4.45,2.45c-0,-1.033 0.466,-1.55 1.4,-1.55c0.4,0 0.916,0.233 1.55,0.7c0.666,0.467 1,0.883 1,1.25c-0,0.633 -0.6,0.95 -1.8,0.95c-1.434,0 -2.15,-0.45 -2.15,-1.35Z"/><path d="M29.35,32.05c-0.733,-3.1 -1.517,-7 -2.35,-11.7c-1.067,3.7 -1.583,5.667 -1.55,5.9l2.4,12.95c-0.933,1.167 -2.533,2.15 -4.8,2.95c-2,0.733 -3.867,1.1 -5.6,1.1c-1.8,0 -3.483,-0.8 -5.05,-2.4l-0,6.85c-0,1.367 1.517,2.05 4.55,2.05c3.3,0 5.667,-0.55 7.1,-1.65c0.667,-0.533 2.15,-2.45 4.45,-5.75c0.467,1.4 0.933,2.817 1.4,4.25c0.767,1.733 1.783,2.6 3.05,2.6l4,-0l0,-6.75c-1.9,0.133 -3.15,0.067 -3.75,-0.2c-1.067,-0.5 -2.35,-3.9 -3.85,-10.2Z" style="fill:#f00;"/></g></svg>