<?xml version="1.0" encoding="UTF-8" standalone="no"?><!DOCTYPE svg PUBLIC "-//W3C//DTD SVG 1.1//EN" "http://www.w3.org/Graphics/SVG/1.1/DTD/svg11.dtd"><svg width="100%" height="100%" viewBox="0 0 50 71" version="1.1" xmlns="http://www.w3.org/2000/svg" xmlns:xlink="http://www.w3.org/1999/xlink" xml:space="preserve" xmlns:serif="http://www.serif.com/" style="fill-rule:evenodd;clip-rule:evenodd;stroke-linejoin:round;stroke-miterlimit:2;"><g><path d="M14.8,64.5c2,-1.633 3,-5.967 3,-13l-0.3,-28.45c-2.4,3.133 -3.583,5.017 -3.55,5.65l0.85,35.8Z"/><path d="M35.384,18.892l-9.25,6c-0.695,0.45 -0.893,1.38 -0.442,2.074c0.45,0.695 1.38,0.893 2.074,0.442l9.25,-6c0.695,-0.45 0.893,-1.38 0.442,-2.074c-0.45,-0.695 -1.38,-0.893 -2.074,-0.442Z"/><path d="M18.252,10.988l-9.5,7.75c-0.642,0.523 -0.738,1.469 -0.214,2.11c0.523,0.642 1.469,0.738 2.11,0.214l9.5,-7.75c0.642,-0.523 0.738,-1.469 0.214,-2.11c-0.523,-0.642 -1.469,-0.738 -2.11,-0.214Z"/><path d="M37.5,60.9c1.467,-1.667 2.2,-3.967 2.2,-6.9c0,-3.533 -0.85,-6.683 -2.55,-9.45c-1.833,-2.967 -4.35,-4.983 -7.55,-6.05c-0.267,1.033 -0.383,2.233 -0.35,3.6l0.05,4.75c1.867,0 3.833,0.8 5.9,2.4c2.167,1.7 3.25,3.483 3.25,5.35c0,0.7 -1.2,1.3 -3.6,1.8c-1.833,0.367 -3.4,0.55 -4.7,0.55c-1.767,-0 -3.533,-0.483 -5.3,-1.45c-0.233,2.433 -0.35,3.767 -0.35,4c0,1.9 0.617,3.1 1.85,3.6c0.667,0.267 2.133,0.4 4.4,0.4c2.933,0 5.183,-0.867 6.75,-2.6Z" style="fill:#f00;"/></g></svg>