<?xml version="1.0" encoding="UTF-8" standalone="no"?><!DOCTYPE svg PUBLIC "-//W3C//DTD SVG 1.1//EN" "http://www.w3.org/Graphics/SVG/1.1/DTD/svg11.dtd"><svg width="100%" height="100%" viewBox="0 0 32 64" version="1.1" xmlns="http://www.w3.org/2000/svg" xmlns:xlink="http://www.w3.org/1999/xlink" xml:space="preserve" xmlns:serif="http://www.serif.com/" style="fill-rule:evenodd;clip-rule:evenodd;stroke-linejoin:round;stroke-miterlimit:2;"><g><path d="M16.456,11.784l-10.5,8.5c-0.643,0.521 -0.743,1.466 -0.222,2.11c0.521,0.643 1.466,0.743 2.11,0.222l10.5,-8.5c0.643,-0.521 0.743,-1.466 0.222,-2.11c-0.521,-0.643 -1.466,-0.743 -2.11,-0.222Z"/><path d="M11.6,32.95c-0.267,1.033 -0.383,2.233 -0.35,3.6l0.05,4.75c1.867,0 3.833,0.8 5.9,2.4c2.167,1.7 3.25,3.483 3.25,5.35c0,0.7 -1.2,1.3 -3.6,1.8c-1.833,0.367 -3.4,0.55 -4.7,0.55c-1.767,0 -3.533,-0.483 -5.3,-1.45c-0.233,2.433 -0.35,3.767 -0.35,4c-0,1.9 0.617,3.1 1.85,3.6c0.667,0.267 2.133,0.4 4.4,0.4c2.933,-0 5.183,-0.867 6.75,-2.6c1.467,-1.667 2.2,-3.967 2.2,-6.9c0,-3.533 -0.85,-6.683 -2.55,-9.45c-1.833,-2.967 -4.35,-4.983 -7.55,-6.05Z" style="fill:#f00;"/></g></svg>