<?xml version="1.0" encoding="UTF-8" standalone="no"?><!DOCTYPE svg PUBLIC "-//W3C//DTD SVG 1.1//EN" "http://www.w3.org/Graphics/SVG/1.1/DTD/svg11.dtd"><svg width="100%" height="100%" viewBox="0 0 43 72" version="1.1" xmlns="http://www.w3.org/2000/svg" xmlns:xlink="http://www.w3.org/1999/xlink" xml:space="preserve" xmlns:serif="http://www.serif.com/" style="fill-rule:evenodd;clip-rule:evenodd;stroke-linejoin:round;stroke-miterlimit:2;"><g><path d="M26.3,15.1c-0.567,-0.467 -1,-0.8 -1.3,-1c0.7,-1.633 1.05,-2.933 1.05,-3.9c-0,-1.967 -0.75,-2.95 -2.25,-2.95c-1.067,0 -2.017,0.683 -2.85,2.05c-0.733,1.233 -1.1,2.417 -1.1,3.55c-0,0.933 0.7,1.917 2.1,2.95c-2.5,2.333 -4.867,4.1 -7.1,5.3c0.8,0.267 1.433,0.4 1.9,0.4c1.833,0 4.05,-1.6 6.65,-4.8c1.033,0.767 1.917,1.333 2.65,1.7l0.25,-3.3Zm-2.35,-2.95c0,0.3 -0.05,0.65 -0.15,1.05c-1.5,-0.867 -2.25,-1.683 -2.25,-2.45c0.133,-0.333 0.35,-0.533 0.65,-0.6c1.167,0.2 1.75,0.867 1.75,2Z"/><path d="M23.05,33.3c-0.267,1.033 -0.383,2.233 -0.35,3.6l0.05,4.75c1.867,0 3.833,0.8 5.9,2.4c2.167,1.7 3.25,3.483 3.25,5.35c0,0.7 -1.2,1.3 -3.6,1.8c-1.833,0.367 -3.4,0.55 -4.7,0.55c-1.767,0 -3.533,-0.483 -5.3,-1.45c-0.233,2.433 -0.35,3.767 -0.35,4c0,1.9 0.617,3.1 1.85,3.6c0.667,0.267 2.133,0.4 4.4,0.4c2.933,0 5.183,-0.867 6.75,-2.6c1.467,-1.667 2.2,-3.967 2.2,-6.9c0,-3.533 -0.85,-6.683 -2.55,-9.45c-1.833,-2.967 -4.35,-4.983 -7.55,-6.05Z" style="fill:#f00;"/></g></svg>