<?xml version="1.0" encoding="UTF-8" standalone="no"?><!DOCTYPE svg PUBLIC "-//W3C//DTD SVG 1.1//EN" "http://www.w3.org/Graphics/SVG/1.1/DTD/svg11.dtd"><svg width="100%" height="100%" viewBox="0 0 75 78" version="1.1" xmlns="http://www.w3.org/2000/svg" xmlns:xlink="http://www.w3.org/1999/xlink" xml:space="preserve" xmlns:serif="http://www.serif.com/" style="fill-rule:evenodd;clip-rule:evenodd;stroke-linejoin:round;stroke-miterlimit:2;"><g><path d="M33,19.75c-2.4,3.133 -3.583,5.017 -3.55,5.65l0.85,35.8c2,-1.633 3,-5.967 3,-13l-0.3,-28.45Z"/><path d="M60.5,25.4l0.85,35.8c2,-1.633 3,-5.967 3,-13l-0.3,-28.45c-2.4,3.133 -3.583,5.017 -3.55,5.65Z"/><path d="M12.45,16.35c-1.067,0 -1.883,0.483 -2.45,1.45c-0.467,0.8 -0.7,1.783 -0.7,2.95c-0,1.867 0.817,2.8 2.45,2.8c0.967,-0 1.8,-0.4 2.5,-1.2c0.667,-0.767 1,-1.633 1,-2.6c0,-0.833 -0.25,-1.6 -0.75,-2.3c-0.533,-0.733 -1.217,-1.1 -2.05,-1.1Zm-1,2c-0.933,0 -1.4,0.517 -1.4,1.55c-0,0.9 0.717,1.35 2.15,1.35l0.028,-0c1.181,-0.005 1.772,-0.322 1.772,-0.95c0,-0.367 -0.333,-0.783 -1,-1.25c-0.628,-0.463 -1.142,-0.696 -1.541,-0.7l-0.009,0Z"/><path d="M46.2,13.65c0,-0.833 -0.25,-1.6 -0.75,-2.3c-0.533,-0.733 -1.217,-1.1 -2.05,-1.1c-1.067,0 -1.883,0.483 -2.45,1.45c-0.467,0.8 -0.7,1.783 -0.7,2.95c0,1.867 0.817,2.8 2.45,2.8c0.967,0 1.8,-0.4 2.5,-1.2c0.667,-0.767 1,-1.633 1,-2.6Zm-3.8,-1.4c-0.933,0 -1.4,0.517 -1.4,1.55c-0,0.9 0.717,1.35 2.15,1.35l0.028,-0c1.181,-0.005 1.772,-0.322 1.772,-0.95c0,-0.367 -0.333,-0.783 -1,-1.25c-0.628,-0.463 -1.142,-0.696 -1.541,-0.7l-0.009,-0Z"/><path d="M64.389,65.289l-6,6c-0.585,0.586 -0.585,1.536 0,2.122c0.586,0.585 1.536,0.585 2.122,-0l6,-6c0.585,-0.586 0.585,-1.536 -0,-2.122c-0.586,-0.585 -1.536,-0.585 -2.122,0Z"/><path d="M33.675,7.505l-7.75,7.25c-0.604,0.565 -0.636,1.515 -0.07,2.12c0.565,0.604 1.515,0.636 2.12,0.07l7.75,-7.25c0.604,-0.565 0.636,-1.515 0.07,-2.12c-0.565,-0.604 -1.515,-0.636 -2.12,-0.07Z"/><path d="M51.5,43.65c-1.833,-2.967 -4.35,-4.983 -7.55,-6.05c-0.267,1.033 -0.383,2.233 -0.35,3.6l0.05,4.75c1.867,0 3.833,0.8 5.9,2.4c2.167,1.7 3.25,3.483 3.25,5.35c-0,0.7 -1.2,1.3 -3.6,1.8c-1.833,0.367 -3.4,0.55 -4.7,0.55c-1.767,-0 -3.533,-0.483 -5.3,-1.45c-0.233,2.433 -0.35,3.767 -0.35,4c-0,1.9 0.617,3.1 1.85,3.6c0.667,0.267 2.133,0.4 4.4,0.4c2.933,0 5.183,-0.867 6.75,-2.6c1.467,-1.667 2.2,-3.967 2.2,-6.9c-0,-3.533 -0.85,-6.683 -2.55,-9.45Z" style="fill:#f00;"/><path d="M13.05,42.95c1.867,0 3.833,0.8 5.9,2.4c2.167,1.7 3.25,3.483 3.25,5.35c0,0.7 -1.2,1.3 -3.6,1.8c-1.833,0.367 -3.4,0.55 -4.7,0.55c-1.767,-0 -3.533,-0.483 -5.3,-1.45c-0.233,2.433 -0.35,3.767 -0.35,4c-0,1.9 0.617,3.1 1.85,3.6c0.667,0.267 2.133,0.4 4.4,0.4c2.933,0 5.183,-0.867 6.75,-2.6c1.467,-1.667 2.2,-3.967 2.2,-6.9c0,-3.533 -0.85,-6.683 -2.55,-9.45c-1.833,-2.967 -4.35,-4.983 -7.55,-6.05c-0.267,1.033 -0.383,2.233 -0.35,3.6l0.05,4.75Z" style="fill:#f00;"/><path d="M50.25,26.7l-3.95,-4l-4,4l3.95,3.9l4,-3.9Z" style="fill:#f00;"/></g></svg>