<?xml version="1.0" encoding="UTF-8" standalone="no"?><!DOCTYPE svg PUBLIC "-//W3C//DTD SVG 1.1//EN" "http://www.w3.org/Graphics/SVG/1.1/DTD/svg11.dtd"><svg width="100%" height="100%" viewBox="0 0 19 32" version="1.1" xmlns="http://www.w3.org/2000/svg" xmlns:xlink="http://www.w3.org/1999/xlink" xml:space="preserve" xmlns:serif="http://www.serif.com/" style="fill-rule:evenodd;clip-rule:evenodd;stroke-linejoin:round;stroke-miterlimit:2;"><g><path d="M7.25,11.1c-0.2,0.733 -0.283,1.567 -0.25,2.5l0,3.3c1.3,-0 2.667,0.55 4.1,1.65c1.5,1.167 2.25,2.4 2.25,3.7c0,0.5 -0.833,0.917 -2.5,1.25c-1.267,0.267 -2.35,0.4 -3.25,0.4c-1.2,-0 -2.417,-0.35 -3.65,-1.05c-0.167,1.7 -0.25,2.633 -0.25,2.8c0,1.3 0.433,2.117 1.3,2.45c0.433,0.2 1.45,0.3 3.05,0.3c2,-0 3.55,-0.6 4.65,-1.8c1,-1.133 1.5,-2.717 1.5,-4.75c0,-2.467 -0.583,-4.65 -1.75,-6.55c-1.267,-2.033 -3,-3.433 -5.2,-4.2Z" style="fill:#f00;"/><path d="M8.85,6.25l2.75,-2.7l-2.75,-2.75l-2.75,2.75l2.75,2.7Z" style="fill:#f00;"/></g></svg>