<?xml version="1.0" encoding="UTF-8" standalone="no"?><!DOCTYPE svg PUBLIC "-//W3C//DTD SVG 1.1//EN" "http://www.w3.org/Graphics/SVG/1.1/DTD/svg11.dtd"><svg width="100%" height="100%" viewBox="0 0 78 69" version="1.1" xmlns="http://www.w3.org/2000/svg" xmlns:xlink="http://www.w3.org/1999/xlink" xml:space="preserve" xmlns:serif="http://www.serif.com/" style="fill-rule:evenodd;clip-rule:evenodd;stroke-linejoin:round;stroke-miterlimit:2;"><g><path d="M59.95,54.7c2.267,-3.3 3.4,-7.367 3.4,-12.2c-0,-1.933 -0.333,-3.8 -1,-5.6c-0.9,-2.4 -2.133,-3.6 -3.7,-3.6c-1.367,0 -2.65,1.183 -3.85,3.55c-1.067,2.1 -1.6,3.933 -1.6,5.5c0,2.667 1.067,4 3.2,4c1.633,0 3.167,-0.883 4.6,-2.65c0.367,0.8 0.55,1.55 0.55,2.25c-0,3.933 -2.8,7.05 -8.4,9.35c-4.333,1.8 -8.767,2.7 -13.3,2.7c2.2,0.867 3.717,1.433 4.55,1.7c1.533,0.433 3.133,0.65 4.8,0.65c4.6,0 8.183,-1.883 10.75,-5.65Zm-4.35,-13.4c0.5,-1.2 1.017,-2.3 1.55,-3.3c1.533,0.733 2.3,1.633 2.3,2.7c0,0.4 -0.217,0.75 -0.65,1.05c-0.5,0.3 -0.967,0.45 -1.4,0.45c-0.033,-0 -0.633,-0.3 -1.8,-0.9Z"/><path d="M61.323,13.817l-9.5,5.75c-0.708,0.428 -0.935,1.351 -0.506,2.06c0.428,0.708 1.351,0.935 2.06,0.506l9.5,-5.75c0.708,-0.428 0.935,-1.351 0.506,-2.06c-0.428,-0.708 -1.351,-0.935 -2.06,-0.506Z"/><path d="M37.613,13.294l-9.75,5.5c-0.721,0.406 -0.976,1.322 -0.569,2.043c0.406,0.721 1.322,0.976 2.043,0.569l9.75,-5.5c0.721,-0.406 0.976,-1.322 0.569,-2.043c-0.406,-0.721 -1.322,-0.976 -2.043,-0.569Z"/><path d="M13.789,4.588l-10.5,6.75c-0.697,0.448 -0.898,1.377 -0.451,2.073c0.448,0.697 1.377,0.898 2.073,0.451l10.5,-6.75c0.697,-0.448 0.898,-1.377 0.451,-2.073c-0.448,-0.697 -1.377,-0.898 -2.073,-0.451Z"/><path d="M43.05,45.1c-0,-3.533 -0.85,-6.683 -2.55,-9.45c-1.833,-2.967 -4.35,-4.983 -7.55,-6.05c-0.267,1.033 -0.383,2.233 -0.35,3.6l0.05,4.75c1.867,-0 3.833,0.8 5.9,2.4c2.167,1.7 3.25,3.483 3.25,5.35c-0,0.7 -1.2,1.3 -3.6,1.8c-1.833,0.367 -3.4,0.55 -4.7,0.55c-1.767,0 -3.533,-0.483 -5.3,-1.45c-0.233,2.433 -0.35,3.767 -0.35,4c-0,1.9 0.617,3.1 1.85,3.6c0.667,0.267 2.133,0.4 4.4,0.4c2.933,0 5.183,-0.867 6.75,-2.6c1.467,-1.667 2.2,-3.967 2.2,-6.9Z" style="fill:#f00;"/><path d="M17.8,34.9c-1.833,-2.967 -4.35,-4.983 -7.55,-6.05c-0.267,1.033 -0.383,2.233 -0.35,3.6l0.05,4.75c1.867,-0 3.833,0.8 5.9,2.4c2.167,1.7 3.25,3.483 3.25,5.35c-0,0.7 -1.2,1.3 -3.6,1.8c-1.833,0.367 -3.4,0.55 -4.7,0.55c-1.767,0 -3.533,-0.483 -5.3,-1.45c-0.233,2.433 -0.35,3.767 -0.35,4c0,1.9 0.617,3.1 1.85,3.6c0.667,0.267 2.133,0.4 4.4,0.4c2.933,0 5.183,-0.867 6.75,-2.6c1.467,-1.667 2.2,-3.967 2.2,-6.9c-0,-3.533 -0.85,-6.683 -2.55,-9.45Z" style="fill:#f00;"/><path d="M12.55,21.85l4,-3.9l-3.95,-4l-4,4l3.95,3.9Z" style="fill:#f00;"/></g></svg>