<?xml version="1.0" encoding="UTF-8" standalone="no"?><!DOCTYPE svg PUBLIC "-//W3C//DTD SVG 1.1//EN" "http://www.w3.org/Graphics/SVG/1.1/DTD/svg11.dtd"><svg width="100%" height="100%" viewBox="0 0 57 65" version="1.1" xmlns="http://www.w3.org/2000/svg" xmlns:xlink="http://www.w3.org/1999/xlink" xml:space="preserve" xmlns:serif="http://www.serif.com/" style="fill-rule:evenodd;clip-rule:evenodd;stroke-linejoin:round;stroke-miterlimit:2;"><g><path d="M15.9,12.3c-0.533,-0.733 -1.217,-1.1 -2.05,-1.1c-1.067,-0 -1.883,0.483 -2.45,1.45c-0.467,0.8 -0.7,1.783 -0.7,2.95c0,1.867 0.817,2.8 2.45,2.8c0.967,-0 1.8,-0.4 2.5,-1.2c0.667,-0.767 1,-1.633 1,-2.6c-0,-0.833 -0.25,-1.6 -0.75,-2.3Zm-3.05,0.9c-0.933,-0 -1.4,0.517 -1.4,1.55c0,0.9 0.717,1.35 2.15,1.35l0.028,-0c1.181,-0.005 1.772,-0.322 1.772,-0.95c-0,-0.367 -0.333,-0.783 -1,-1.25c-0.628,-0.463 -1.142,-0.696 -1.541,-0.7l-0.009,-0Z"/><path d="M41.185,54.775l-8.5,6c-0.676,0.477 -0.838,1.414 -0.36,2.09c0.477,0.676 1.414,0.838 2.09,0.36l8.5,-6c0.676,-0.477 0.838,-1.414 0.36,-2.09c-0.477,-0.676 -1.414,-0.838 -2.09,-0.36Z"/><path d="M33.7,45.9c0,1.9 0.617,3.1 1.85,3.6c0.667,0.267 2.133,0.4 4.4,0.4c2.933,-0 5.183,-0.867 6.75,-2.6c1.467,-1.667 2.2,-3.967 2.2,-6.9c-0,-3.533 -0.85,-6.683 -2.55,-9.45c-1.833,-2.967 -4.35,-4.983 -7.55,-6.05c-0.267,1.033 -0.383,2.233 -0.35,3.6l0.05,4.75c1.867,0 3.833,0.8 5.9,2.4c2.167,1.7 3.25,3.483 3.25,5.35c-0,0.7 -1.2,1.3 -3.6,1.8c-1.833,0.367 -3.4,0.55 -4.7,0.55c-1.767,0 -3.533,-0.483 -5.3,-1.45c-0.233,2.433 -0.35,3.767 -0.35,4Z" style="fill:#f00;"/><path d="M15.05,24.65c-0.267,1.033 -0.383,2.233 -0.35,3.6l0.05,4.75c1.867,0 3.833,0.8 5.9,2.4c2.167,1.7 3.25,3.483 3.25,5.35c-0,0.7 -1.2,1.3 -3.6,1.8c-1.833,0.367 -3.4,0.55 -4.7,0.55c-1.767,0 -3.533,-0.483 -5.3,-1.45c-0.233,2.433 -0.35,3.767 -0.35,4c0,1.9 0.617,3.1 1.85,3.6c0.667,0.267 2.133,0.4 4.4,0.4c2.933,-0 5.183,-0.867 6.75,-2.6c1.467,-1.667 2.2,-3.967 2.2,-6.9c-0,-3.533 -0.85,-6.683 -2.55,-9.45c-1.833,-2.967 -4.35,-4.983 -7.55,-6.05Z" style="fill:#f00;"/><path d="M41.1,17.9l4,-3.9l-3.95,-4l-4,4l3.95,3.9Z" style="fill:#f00;"/></g></svg>