<?xml version="1.0" encoding="UTF-8" standalone="no"?><!DOCTYPE svg PUBLIC "-//W3C//DTD SVG 1.1//EN" "http://www.w3.org/Graphics/SVG/1.1/DTD/svg11.dtd"><svg width="100%" height="100%" viewBox="0 0 43 76" version="1.1" xmlns="http://www.w3.org/2000/svg" xmlns:xlink="http://www.w3.org/1999/xlink" xml:space="preserve" xmlns:serif="http://www.serif.com/" style="fill-rule:evenodd;clip-rule:evenodd;stroke-linejoin:round;stroke-miterlimit:2;"><path d="M21.25,52.7l0.65,-0l0,-0.05c-0.212,0.027 -0.429,0.044 -0.65,0.05Z"/><path d="M10,19.95c0,8.367 0.05,13.733 0.15,16.1c0.333,8.1 1.133,12.983 2.4,14.65c1.033,1.333 2.5,2 4.4,2l2.3,-0l-0,-6.2l2.65,0l0,-0.05c-4.033,-0 -6.65,-0.783 -7.85,-2.35c-1,-1.333 -1.5,-4.133 -1.5,-8.4l-0,-20.1c-0.633,0.633 -1.25,1.25 -1.85,1.85c-0.467,0.6 -0.7,1.433 -0.7,2.5Z"/><path d="M25.8,66.25l3.7,-3.6l-3.7,-3.65l-3.65,3.65l3.65,3.6Z" style="fill:#f00;"/><path d="M27.75,40.95c0.9,1.767 1.467,3.033 1.7,3.8c-0.903,1.152 -3.42,1.735 -7.55,1.75l-2.65,0l0,6.2l2,-0c0.221,-0.006 0.438,-0.023 0.65,-0.05c3.124,-0.101 5.407,-0.768 6.85,-2c1.767,-1.5 2.65,-4.067 2.65,-7.7c0,-1.033 -0.433,-3.35 -1.3,-6.95c-0.967,2.2 -1.75,3.85 -2.35,4.95Z" style="fill:#f00;"/><path d="M24.728,8.629l-7,5c-0.674,0.482 -0.83,1.419 -0.349,2.093c0.482,0.674 1.419,0.83 2.093,0.349l7,-5c0.674,-0.482 0.83,-1.419 0.349,-2.093c-0.482,-0.674 -1.419,-0.83 -2.093,-0.349Z"/></svg>