<?xml version="1.0" encoding="UTF-8" standalone="no"?><!DOCTYPE svg PUBLIC "-//W3C//DTD SVG 1.1//EN" "http://www.w3.org/Graphics/SVG/1.1/DTD/svg11.dtd"><svg width="100%" height="100%" viewBox="0 0 24 24" version="1.1" xmlns="http://www.w3.org/2000/svg" xmlns:xlink="http://www.w3.org/1999/xlink" xml:space="preserve" xmlns:serif="http://www.serif.com/" style="fill-rule:evenodd;clip-rule:evenodd;stroke-linejoin:round;stroke-miterlimit:2;"><path d="M9.5,20.05l1.2,1.5l1.25,-1.5l-1.25,-1.5l-1.2,1.5Z" style="fill:#f00;"/><path d="M16.1,10.15c0.6,0.567 0.9,1.167 0.9,1.8c-0.4,0.567 -1.35,1.033 -2.85,1.4c-1.2,0.3 -2.267,0.45 -3.2,0.45c-1.033,-0 -1.983,-0.167 -2.85,-0.5c-1.233,-0.5 -1.85,-1.25 -1.85,-2.25c0,-0.467 0.133,-1.133 0.4,-2c-0.867,1.067 -1.3,2.117 -1.3,3.15c0,2.533 1.583,3.8 4.75,3.8c5.133,0 7.7,-1.817 7.7,-5.45c-0,-1.333 -0.35,-2.3 -1.05,-2.9c-0.1,0.6 -0.317,1.433 -0.65,2.5Z" style="fill:#f00;"/></svg>