<?xml version="1.0" encoding="UTF-8" standalone="no"?><!DOCTYPE svg PUBLIC "-//W3C//DTD SVG 1.1//EN" "http://www.w3.org/Graphics/SVG/1.1/DTD/svg11.dtd"><svg width="100%" height="100%" viewBox="0 0 90 64" version="1.1" xmlns="http://www.w3.org/2000/svg" xmlns:xlink="http://www.w3.org/1999/xlink" xml:space="preserve" xmlns:serif="http://www.serif.com/" style="fill-rule:evenodd;clip-rule:evenodd;stroke-linejoin:round;stroke-miterlimit:2;"><path d="M71.8,38.65l-0,0.05l-2.9,-0l-0,6.2l-6.9,0l0,-6.25l9.8,0Z"/><rect x="40.1" y="38.65" width="6.9" height="6.25"/><path d="M71.8,44.9l-0,-0.05c-0.261,0.027 -0.528,0.044 -0.8,0.05l0.8,0Z"/><path d="M56.3,12.6c-0,-0.833 -0.25,-1.6 -0.75,-2.3c-0.533,-0.733 -1.217,-1.1 -2.05,-1.1c-1.067,-0 -1.883,0.483 -2.45,1.45c-0.467,0.8 -0.7,1.783 -0.7,2.95c0,1.867 0.817,2.8 2.45,2.8c0.967,0 1.8,-0.4 2.5,-1.2c0.667,-0.767 1,-1.633 1,-2.6Zm-3.05,1.5c-1.433,-0 -2.15,-0.45 -2.15,-1.35c0,-1.033 0.467,-1.55 1.4,-1.55c0.4,-0 0.917,0.233 1.55,0.7c0.667,0.467 1,0.883 1,1.25c-0,0.633 -0.6,0.95 -1.8,0.95Z"/><path d="M24.7,9.1c0,-0.5 -0.183,-0.967 -0.55,-1.4c-0.367,-0.467 -0.8,-0.7 -1.3,-0.7c-0.833,0 -1.6,0.433 -2.3,1.3c-0.7,0.9 -1.05,1.75 -1.05,2.55c0,0.967 0.617,1.8 1.85,2.5c-1.2,1.233 -2.317,2.017 -3.35,2.35c0.067,-1.133 0.1,-1.833 0.1,-2.1c0,-1.967 -0.617,-2.95 -1.85,-2.95c-0.733,0 -1.317,0.333 -1.75,1c-0.367,0.567 -0.55,1.217 -0.55,1.95c0,0.367 0.083,0.817 0.25,1.35c0.167,-1.367 0.633,-2.05 1.4,-2.05c0.367,0 0.667,0.15 0.9,0.45c0.267,0.333 0.4,0.683 0.4,1.05c-0,0.567 -0.383,1.7 -1.15,3.4c1.467,-0.267 2.683,-0.717 3.65,-1.35c0.833,-0.467 1.817,-1.3 2.95,-2.5c0.567,0.433 1.4,0.967 2.5,1.6c0.033,-1.033 0.05,-1.6 0.05,-1.7c-0,-0.633 -0.367,-1.217 -1.1,-1.75c0.6,-1.333 0.9,-2.333 0.9,-3Zm-3.05,-0.35c0.767,0 1.15,0.467 1.15,1.4l-0.1,1.05c-1.167,-0.767 -1.75,-1.383 -1.75,-1.85l0.25,-0.45c0.233,-0.1 0.383,-0.15 0.45,-0.15Z"/><path d="M55.8,51.25l-3.7,3.65l3.7,3.6l3.65,-3.6l-3.65,-3.65Z" style="fill:#f00;"/><path d="M75.45,51.2l-3.65,3.65l3.65,3.6l3.7,-3.6l-3.7,-3.65Z" style="fill:#f00;"/><path d="M17.95,51l-3.7,3.65l3.7,3.6l3.65,-3.6l-3.65,-3.65Z" style="fill:#f00;"/><path d="M40.1,38.65l1.55,0c-1.825,-0.053 -3.059,-0.37 -3.7,-0.95c-0.733,-0.667 -1.25,-2.05 -1.55,-4.15c-4.467,4.467 -10.2,6.7 -17.2,6.7c-3.167,0 -6.067,-0.45 -8.7,-1.35c-3.667,-1.233 -5.5,-3.117 -5.5,-5.65c0,-1.1 0.55,-2.717 1.65,-4.85c-1.233,0.8 -2.217,1.933 -2.95,3.4c-0.767,1.467 -1.15,2.933 -1.15,4.4c-0,3.2 1.3,5.683 3.9,7.45c2.267,1.533 5.083,2.3 8.45,2.3c6.633,-0 13.317,-1.9 20.05,-5.7c1.6,3.1 3.217,4.65 4.85,4.65l0.3,0l0,-6.25Z" style="fill:#f00;"/><path d="M47,38.65l0,6.25l3.75,0c1.2,0 2.183,-0.45 2.95,-1.35c0.233,-0.267 0.833,-1.233 1.8,-2.9c1.2,1.8 1.833,2.733 1.9,2.8c0.833,0.967 1.8,1.45 2.9,1.45l1.7,0l0,-6.25l0.65,0c-2.026,-0.059 -3.259,-0.192 -3.7,-0.4c-1.167,-0.567 -1.75,-2.217 -1.75,-4.95c-0.967,0.733 -1.617,1.683 -1.95,2.85c-0.267,0.967 -0.75,1.583 -1.45,1.85c-0.91,0.37 -2.693,0.586 -5.35,0.65l-1.45,0Z" style="fill:#f00;"/><path d="M80.725,32.638c0.217,1.158 0.325,1.995 0.325,2.512c-0,3.633 -0.883,6.2 -2.65,7.7c-1.404,1.199 -3.604,1.866 -6.6,2c-0.261,0.027 -0.528,0.044 -0.8,0.05l-2.1,0l-0,-6.2l2.9,-0c3.982,-0.038 6.415,-0.621 7.3,-1.75c-0.233,-0.767 -0.8,-2.033 -1.7,-3.8c0.6,-1.1 1.383,-2.75 2.35,-4.95l0.975,4.438Z" style="fill:#f00;"/><path d="M77.55,8.7l-6,4.5c-0.662,0.497 -0.797,1.438 -0.3,2.1c0.497,0.662 1.438,0.797 2.1,0.3l6,-4.5c0.662,-0.497 0.797,-1.438 0.3,-2.1c-0.497,-0.662 -1.438,-0.797 -2.1,-0.3Z"/></svg>