<?xml version="1.0" encoding="UTF-8" standalone="no"?><!DOCTYPE svg PUBLIC "-//W3C//DTD SVG 1.1//EN" "http://www.w3.org/Graphics/SVG/1.1/DTD/svg11.dtd"><svg width="100%" height="100%" viewBox="0 0 100 98" version="1.1" xmlns="http://www.w3.org/2000/svg" xmlns:xlink="http://www.w3.org/1999/xlink" xml:space="preserve" xmlns:serif="http://www.serif.com/" style="fill-rule:evenodd;clip-rule:evenodd;stroke-linejoin:round;stroke-miterlimit:2;"><path d="M61,51.65l0,6.3c0,1.267 1.4,1.9 4.2,1.9c3.067,0 5.25,-0.5 6.55,-1.5c0.633,-0.5 2,-2.283 4.1,-5.35c0.433,1.333 0.867,2.65 1.3,3.95c0.7,1.6 1.633,2.4 2.8,2.4l1.2,0l0,-6.2l0.1,-0c-0.469,-0.032 -0.819,-0.099 -1.05,-0.2c-0.967,-0.467 -2.15,-3.6 -3.55,-9.4c-0.667,-2.867 -1.4,-6.467 -2.2,-10.8c-0.967,3.433 -1.433,5.25 -1.4,5.45l2.2,11.9c-0.867,1.1 -2.333,2.017 -4.4,2.75c-1.833,0.667 -3.55,1 -5.15,1c-1.667,0 -3.233,-0.733 -4.7,-2.2Z"/><path d="M83.65,59.35l0,-0.05c-0.219,0.029 -0.453,0.046 -0.7,0.05l0.7,0Z"/><path d="M83.65,53.15l0,-0.05c-0.266,0.02 -0.516,0.037 -0.75,0.05c0.256,0.004 0.506,0.004 0.75,-0Z"/><path d="M52.45,47.6c-0.833,-2.233 -1.983,-3.35 -3.45,-3.35c-1.233,0 -2.4,1.1 -3.5,3.3c-1,1.933 -1.5,3.617 -1.5,5.05c0,2.5 0.983,3.75 2.95,3.75c1.5,0 2.917,-0.833 4.25,-2.5c0.333,0.733 0.5,1.433 0.5,2.1c0,3.6 -2.583,6.467 -7.75,8.6c-4,1.667 -8.083,2.5 -12.25,2.5c2.033,0.8 3.433,1.317 4.2,1.55c1.4,0.4 2.867,0.6 4.4,0.6c4.233,0 7.55,-1.733 9.95,-5.2c2.067,-3.067 3.1,-6.817 3.1,-11.25c0,-1.8 -0.3,-3.517 -0.9,-5.15Zm-2.65,3.5c-0,0.367 -0.217,0.683 -0.65,0.95c-0.433,0.267 -0.85,0.4 -1.25,0.4c-0.033,0 -0.6,-0.267 -1.7,-0.8c0.467,-1.1 0.933,-2.117 1.4,-3.05c1.467,0.667 2.2,1.5 2.2,2.5Z"/><path d="M67,16c0,-1.967 -0.75,-2.95 -2.25,-2.95c-1.067,-0 -2.017,0.683 -2.85,2.05c-0.733,1.233 -1.1,2.417 -1.1,3.55c-0,0.933 0.7,1.917 2.1,2.95c-2.5,2.333 -4.867,4.1 -7.1,5.3c0.8,0.267 1.433,0.4 1.9,0.4c1.833,-0 4.05,-1.6 6.65,-4.8c1.033,0.767 1.917,1.333 2.65,1.7l0.25,-3.3c-0.567,-0.467 -1,-0.8 -1.3,-1c0.7,-1.633 1.05,-2.933 1.05,-3.9Zm-3.85,-0.05c1.167,0.2 1.75,0.867 1.75,2c0,0.3 -0.05,0.65 -0.15,1.05c-1.5,-0.867 -2.25,-1.683 -2.25,-2.45c0.133,-0.333 0.35,-0.533 0.65,-0.6Z"/><path d="M87.7,72.9l3.7,-3.6l-3.7,-3.65l-3.65,3.65l3.65,3.6Z" style="fill:#f00;"/><path d="M13.4,51.85c-1,1 -1.8,2.433 -2.4,4.3c-0.567,1.7 -0.85,3.35 -0.85,4.95c-0,2.867 0.867,5.033 2.6,6.5c1.6,1.433 3.867,2.15 6.8,2.15c3.667,0 6.733,-1.317 9.2,-3.95c2.5,-2.6 3.75,-5.733 3.75,-9.4c0,-4.767 -1.333,-8.783 -4,-12.05c-0.733,1.4 -1.45,3.35 -2.15,5.85c1.3,1.733 2.15,2.967 2.55,3.7c0.8,1.467 1.2,2.883 1.2,4.25c0,1.667 -1.317,3.083 -3.95,4.25c-2.2,0.967 -4.283,1.45 -6.25,1.45c-4.867,0 -7.3,-2.033 -7.3,-6.1c0,-0.667 0.133,-1.65 0.4,-2.95c0.267,-1.333 0.4,-2.317 0.4,-2.95Z" style="fill:#f00;"/><path d="M92.975,47.087c0.217,1.159 0.325,1.996 0.325,2.513c-0,3.633 -0.883,6.2 -2.65,7.7c-1.466,1.252 -3.799,1.919 -7,2c-0.219,0.029 -0.453,0.046 -0.7,0.05l-1.8,0l0,-6.2l2.5,-0c4.22,-0.001 6.786,-0.584 7.7,-1.75c-0.233,-0.767 -0.8,-2.033 -1.7,-3.8c0.6,-1.1 1.383,-2.75 2.35,-4.95l0.975,4.437Z" style="fill:#f00;"/><path d="M15.7,38.45l3.7,3.6l3.65,-3.6l-3.65,-3.65l-3.7,3.65Z" style="fill:#f00;"/><path d="M90.528,73.479l-7,5c-0.674,0.482 -0.83,1.419 -0.349,2.093c0.482,0.674 1.419,0.83 2.093,0.349l7,-5c0.674,-0.482 0.83,-1.419 0.349,-2.093c-0.482,-0.674 -1.419,-0.83 -2.093,-0.349Z"/><path d="M21.478,71.329l-7,5c-0.674,0.482 -0.83,1.419 -0.349,2.093c0.482,0.674 1.419,0.83 2.093,0.349l7,-5c0.674,-0.482 0.83,-1.419 0.349,-2.093c-0.482,-0.674 -1.419,-0.83 -2.093,-0.349Z"/></svg>