<?xml version="1.0" encoding="UTF-8" standalone="no"?><!DOCTYPE svg PUBLIC "-//W3C//DTD SVG 1.1//EN" "http://www.w3.org/Graphics/SVG/1.1/DTD/svg11.dtd"><svg width="100%" height="100%" viewBox="0 0 27 32" version="1.1" xmlns="http://www.w3.org/2000/svg" xmlns:xlink="http://www.w3.org/1999/xlink" xml:space="preserve" xmlns:serif="http://www.serif.com/" style="fill-rule:evenodd;clip-rule:evenodd;stroke-linejoin:round;stroke-miterlimit:2;"><path d="M21.7,7.25c-1.167,1.5 -1.733,2.4 -1.7,2.7l0.4,17c0.967,-0.767 1.45,-2.817 1.45,-6.15l-0.15,-13.55Z"/><path d="M5.75,18.2l0,-10.4c-0.3,0.333 -0.617,0.667 -0.95,1c-0.233,0.3 -0.35,0.717 -0.35,1.25c0,4.333 0.017,7.1 0.05,8.3c0.167,4.2 0.583,6.717 1.25,7.55c0.567,0.7 1.333,1.05 2.3,1.05l1.3,0l-0,-3.2l1.1,-0c-1.987,-0.026 -3.287,-0.443 -3.9,-1.25c-0.533,-0.667 -0.8,-2.1 -0.8,-4.3Z"/><path d="M15.65,21.9c0,-0.5 -0.217,-1.683 -0.65,-3.55c-0.5,1.133 -0.917,1.983 -1.25,2.55c0.5,0.9 0.8,1.55 0.9,1.95c-0.472,0.598 -1.805,0.898 -4,0.9l-1.3,0l-0,3.2l1.3,0c1.674,-0.062 2.89,-0.412 3.65,-1.05c0.9,-0.767 1.35,-2.1 1.35,-4Z" style="fill:#f00;"/><path d="M13.1,16.15l1.95,-1.85l-1.95,-1.9l-1.9,1.9l1.9,1.85Z" style="fill:#f00;"/><path d="M-198.273,4.212l-3.65,3.55c-0.297,0.289 -0.303,0.764 -0.015,1.061c0.289,0.297 0.764,0.303 1.061,0.015l3.65,-3.55c0.297,-0.289 0.303,-0.764 0.015,-1.061c-0.289,-0.297 -0.764,-0.303 -1.061,-0.015Zm210.426,-1.498l-4,2.5c-0.352,0.219 -0.458,0.682 -0.239,1.033c0.219,0.352 0.682,0.458 1.033,0.239l4,-2.5c0.352,-0.219 0.458,-0.682 0.239,-1.033c-0.219,-0.352 -0.682,-0.458 -1.033,-0.239Zm9.909,-0.433l-3.5,3c-0.314,0.269 -0.351,0.743 -0.081,1.057c0.269,0.314 0.743,0.351 1.057,0.081l3.5,-3c0.314,-0.269 0.351,-0.743 0.081,-1.057c-0.269,-0.314 -0.743,-0.351 -1.057,-0.081Z"/></svg>