<?xml version="1.0" encoding="UTF-8" standalone="no"?><!DOCTYPE svg PUBLIC "-//W3C//DTD SVG 1.1//EN" "http://www.w3.org/Graphics/SVG/1.1/DTD/svg11.dtd"><svg width="100%" height="100%" viewBox="0 0 82 74" version="1.1" xmlns="http://www.w3.org/2000/svg" xmlns:xlink="http://www.w3.org/1999/xlink" xml:space="preserve" xmlns:serif="http://www.serif.com/" style="fill-rule:evenodd;clip-rule:evenodd;stroke-linejoin:round;stroke-miterlimit:2;"><path d="M73.4,53.1c1.833,-1.5 2.75,-5.5 2.75,-12l-0.3,-26.25c-2.2,2.9 -3.3,4.633 -3.3,5.2l0.85,33.05Z"/><path d="M8.25,17.8c-0.467,0.6 -0.7,1.433 -0.7,2.5c-0,8.367 0.05,13.733 0.15,16.1c0.333,8.1 1.133,12.983 2.4,14.65c1.033,1.333 2.5,2 4.4,2l2.3,0l-0,-6.2l2.65,0l0,-0.05c-4.033,0 -6.65,-0.783 -7.85,-2.35c-1,-1.333 -1.5,-4.133 -1.5,-8.4l0,-20.1c-0.633,0.633 -1.25,1.25 -1.85,1.85Z"/><path d="M19.45,53.05l0,-0.05c-0.212,0.027 -0.429,0.044 -0.65,0.05l0.65,0Z"/><path d="M54.2,53.05l0.7,0l-0,-0.05c-0.231,0.029 -0.465,0.046 -0.7,0.05Z"/><path d="M46.1,40.95c-1.133,-0 -2.317,1.167 -3.55,3.5c-1.1,2.2 -1.65,3.967 -1.65,5.3c-0,1.667 0.8,2.717 2.4,3.15c1.467,0.233 2.95,0.467 4.45,0.7c-1.733,2.633 -3.55,4.55 -5.45,5.75c-2.133,1.367 -4.65,2.05 -7.55,2.05c-1.567,-0 -3.833,-0.133 -6.8,-0.4c2.767,2.733 5.983,4.1 9.65,4.1c3.133,0 5.833,-1.3 8.1,-3.9c1.533,-1.8 3.033,-4.517 4.5,-8.15l2.15,0l0,-5.95c-0.605,-0.012 -1.222,-0.045 -1.85,-0.1c-0.567,-1.233 -1.133,-2.467 -1.7,-3.7c-0.9,-1.567 -1.8,-2.35 -2.7,-2.35Zm0.45,5.9c0.233,0.333 0.45,1.033 0.65,2.1c-0.933,0 -2.033,-0.1 -3.3,-0.3c-0,-0.5 -0.1,-0.817 -0.3,-0.95c0.367,-0.767 0.733,-1.45 1.1,-2.05c0.967,0.433 1.583,0.833 1.85,1.2Z"/><path d="M56.25,13.4c-0.567,-0.467 -1,-0.8 -1.3,-1c0.7,-1.633 1.05,-2.933 1.05,-3.9c0,-1.967 -0.75,-2.95 -2.25,-2.95c-1.067,0 -2.017,0.683 -2.85,2.05c-0.733,1.233 -1.1,2.417 -1.1,3.55c-0,0.933 0.7,1.917 2.1,2.95c-2.5,2.333 -4.867,4.1 -7.1,5.3c0.8,0.267 1.433,0.4 1.9,0.4c1.833,0 4.05,-1.6 6.65,-4.8c1.033,0.767 1.917,1.333 2.65,1.7l0.25,-3.3Zm-2.35,-2.95c-0,0.3 -0.05,0.65 -0.15,1.05c-1.5,-0.867 -2.25,-1.683 -2.25,-2.45c0.133,-0.333 0.35,-0.533 0.65,-0.6c1.167,0.2 1.75,0.867 1.75,2Z"/><path d="M58.9,66.6l3.7,-3.6l-3.7,-3.65l-3.65,3.65l3.65,3.6Z" style="fill:#f00;"/><path d="M52.35,46.85l0,6.2l1.85,0c0.235,-0.004 0.469,-0.021 0.7,-0.05c3.175,-0.088 5.492,-0.754 6.95,-2c1.767,-1.5 2.65,-4.067 2.65,-7.7c-0,-1.033 -0.433,-3.35 -1.3,-6.95c-0.967,2.2 -1.75,3.85 -2.35,4.95c0.9,1.767 1.467,3.033 1.7,3.8c-0.967,1.233 -3.783,1.817 -8.45,1.75l-1.75,0Z" style="fill:#f00;"/><path d="M16.8,46.85l-0,6.2l2,0c0.221,-0.006 0.438,-0.023 0.65,-0.05c3.124,-0.101 5.407,-0.768 6.85,-2c1.767,-1.5 2.65,-4.067 2.65,-7.7c0,-1.033 -0.433,-3.35 -1.3,-6.95c-0.967,2.2 -1.75,3.85 -2.35,4.95c0.9,1.767 1.467,3.033 1.7,3.8c-0.903,1.152 -3.42,1.735 -7.55,1.75l-2.65,0Z" style="fill:#f00;"/><path d="M27.75,28.5l-3.7,-3.7l-3.65,3.7l3.65,3.55l3.7,-3.55Z" style="fill:#f00;"/><path d="M22.928,6.179l-7,5c-0.674,0.482 -0.83,1.419 -0.349,2.093c0.482,0.674 1.419,0.83 2.093,0.349l7,-5c0.674,-0.482 0.83,-1.419 0.349,-2.093c-0.482,-0.674 -1.419,-0.83 -2.093,-0.349Z"/><path d="M76.878,5.179l-7,5c-0.674,0.482 -0.83,1.419 -0.349,2.093c0.482,0.674 1.419,0.83 2.093,0.349l7,-5c0.674,-0.482 0.83,-1.419 0.349,-2.093c-0.482,-0.674 -1.419,-0.83 -2.093,-0.349Z"/></svg>