<?xml version="1.0" encoding="UTF-8" standalone="no"?><!DOCTYPE svg PUBLIC "-//W3C//DTD SVG 1.1//EN" "http://www.w3.org/Graphics/SVG/1.1/DTD/svg11.dtd"><svg width="100%" height="100%" viewBox="0 0 38 76" version="1.1" xmlns="http://www.w3.org/2000/svg" xmlns:xlink="http://www.w3.org/1999/xlink" xml:space="preserve" xmlns:serif="http://www.serif.com/" style="fill-rule:evenodd;clip-rule:evenodd;stroke-linejoin:round;stroke-miterlimit:2;"><path d="M20.05,52.2l9.8,-0l-0,-6.25l-9.8,-0l-0,6.25Z"/><path d="M13.15,15.1c-0.633,0.633 -1.25,1.25 -1.85,1.85c-0.467,0.6 -0.7,1.433 -0.7,2.5c-0,8.367 0.05,13.733 0.15,16.1c0.333,8.1 1.133,12.983 2.4,14.65c1.033,1.333 2.5,2 4.4,2l2.5,-0l-0,-6.25l1.85,-0c-3.695,-0.081 -6.112,-0.864 -7.25,-2.35c-1,-1.333 -1.5,-4.133 -1.5,-8.4l0,-20.1Z" style="fill:#f00;"/><path d="M14.578,6.629l-7,5c-0.674,0.482 -0.83,1.419 -0.349,2.093c0.482,0.674 1.419,0.83 2.093,0.349l7,-5c0.674,-0.482 0.83,-1.419 0.349,-2.093c-0.482,-0.674 -1.419,-0.83 -2.093,-0.349Z"/></svg>