<?xml version="1.0" encoding="UTF-8" standalone="no"?><!DOCTYPE svg PUBLIC "-//W3C//DTD SVG 1.1//EN" "http://www.w3.org/Graphics/SVG/1.1/DTD/svg11.dtd"><svg width="100%" height="100%" viewBox="0 0 73 74" version="1.1" xmlns="http://www.w3.org/2000/svg" xmlns:xlink="http://www.w3.org/1999/xlink" xml:space="preserve" xmlns:serif="http://www.serif.com/" style="fill-rule:evenodd;clip-rule:evenodd;stroke-linejoin:round;stroke-miterlimit:2;"><path d="M65.15,41.4l-0.3,-26.25c-2.2,2.9 -3.3,4.633 -3.3,5.2l0.85,33.05c1.833,-1.5 2.75,-5.5 2.75,-12Z"/><path d="M8.05,18.05c-0.467,0.6 -0.7,1.433 -0.7,2.5c-0,8.367 0.05,13.733 0.15,16.1c0.333,8.1 1.133,12.983 2.4,14.65c1.033,1.333 2.5,2 4.4,2l9.4,0l0,-6.25l-5.05,0c-3.695,-0.081 -6.112,-0.864 -7.25,-2.35c-1,-1.333 -1.5,-4.133 -1.5,-8.4l0,-20.1c-0.633,0.633 -1.25,1.25 -1.85,1.85Z"/><path d="M48.6,47.1l-2.95,0l0,6.2l-6.85,0l-0,-6.25l9.8,0l-0,0.05Z"/><path d="M48.6,53.25c-0.271,0.027 -0.554,0.044 -0.85,0.05l0.85,0l-0,-0.05Z"/><path d="M54.95,13.8c0,-0.833 -0.25,-1.6 -0.75,-2.3c-0.533,-0.733 -1.217,-1.1 -2.05,-1.1c-1.067,-0 -1.883,0.483 -2.45,1.45c-0.467,0.8 -0.7,1.783 -0.7,2.95c0,1.867 0.817,2.8 2.45,2.8c0.967,0 1.8,-0.4 2.5,-1.2c0.667,-0.767 1,-1.633 1,-2.6Zm-3.8,-1.4c0.4,-0 0.917,0.233 1.55,0.7c0.667,0.467 1,0.883 1,1.25c0,0.633 -0.6,0.95 -1.8,0.95c-1.433,0 -2.15,-0.45 -2.15,-1.35c-0,-1.033 0.467,-1.55 1.4,-1.55Z"/><path d="M32.5,66.9l3.65,-3.6l-3.65,-3.65l-3.7,3.65l3.7,3.6Z" style="fill:#f00;"/><path d="M57.475,41.037c0.217,1.159 0.325,1.996 0.325,2.513c-0,3.633 -0.883,6.2 -2.65,7.7c-1.396,1.193 -3.58,1.859 -6.55,2c-0.271,0.027 -0.554,0.044 -0.85,0.05l-2.1,0l0,-6.2l2.95,0c3.953,-0.043 6.369,-0.626 7.25,-1.75c-0.233,-0.767 -0.8,-2.033 -1.7,-3.8c0.6,-1.1 1.383,-2.75 2.35,-4.95l0.975,4.437Z" style="fill:#f00;"/><path d="M25.15,47.05l-1.45,0l0,6.25l3.75,0c1.2,0 2.183,-0.45 2.95,-1.35c0.233,-0.267 0.833,-1.233 1.8,-2.9c1.2,1.8 1.833,2.733 1.9,2.8c0.833,0.967 1.8,1.45 2.9,1.45l1.8,0l-0,-6.25l0.6,0c-2.053,-0.057 -3.303,-0.19 -3.75,-0.4c-1.167,-0.567 -1.75,-2.217 -1.75,-4.95c-0.967,0.733 -1.617,1.683 -1.95,2.85c-0.267,0.967 -0.75,1.583 -1.45,1.85c-0.91,0.37 -2.693,0.586 -5.35,0.65Z" style="fill:#f00;"/><path d="M52.9,25.05l-3.65,3.7l3.65,3.55l3.7,-3.55l-3.7,-3.7Z" style="fill:#f00;"/><path d="M33.578,7.079l-7,5c-0.674,0.482 -0.83,1.419 -0.349,2.093c0.482,0.674 1.419,0.83 2.093,0.349l7,-5c0.674,-0.482 0.83,-1.419 0.349,-2.093c-0.482,-0.674 -1.419,-0.83 -2.093,-0.349Z"/><path d="M11.578,7.079l-7,5c-0.674,0.482 -0.83,1.419 -0.349,2.093c0.482,0.674 1.419,0.83 2.093,0.349l7,-5c0.674,-0.482 0.83,-1.419 0.349,-2.093c-0.482,-0.674 -1.419,-0.83 -2.093,-0.349Z"/><path d="M65.928,6.079l-7,5c-0.674,0.482 -0.83,1.419 -0.349,2.093c0.482,0.674 1.419,0.83 2.093,0.349l7,-5c0.674,-0.482 0.83,-1.419 0.349,-2.093c-0.482,-0.674 -1.419,-0.83 -2.093,-0.349Z"/></svg>