<?xml version="1.0" encoding="UTF-8" standalone="no"?><!DOCTYPE svg PUBLIC "-//W3C//DTD SVG 1.1//EN" "http://www.w3.org/Graphics/SVG/1.1/DTD/svg11.dtd"><svg width="100%" height="100%" viewBox="0 0 44 64" version="1.1" xmlns="http://www.w3.org/2000/svg" xmlns:xlink="http://www.w3.org/1999/xlink" xml:space="preserve" xmlns:serif="http://www.serif.com/" style="fill-rule:evenodd;clip-rule:evenodd;stroke-linejoin:round;stroke-miterlimit:2;"><path d="M21.7,38.8l-2.9,0l-0,6.2l-6.9,-0l-0,-6.25l9.8,-0l0,0.05Z"/><path d="M21.7,44.95c-0.261,0.027 -0.528,0.044 -0.8,0.05l0.8,0l0,-0.05Z"/><path d="M30.625,32.737c0.217,1.159 0.325,1.996 0.325,2.513c0,3.633 -0.883,6.2 -2.65,7.7c-1.404,1.199 -3.604,1.866 -6.6,2c-0.261,0.027 -0.528,0.044 -0.8,0.05l-2.1,0l-0,-6.2l2.9,0c3.982,-0.038 6.415,-0.621 7.3,-1.75c-0.233,-0.767 -0.8,-2.033 -1.7,-3.8c0.6,-1.1 1.383,-2.75 2.35,-4.95l0.975,4.437Z" style="fill:#f00;"/><path d="M26.05,24l3.7,-3.55l-3.7,-3.7l-3.65,3.7l3.65,3.55Z" style="fill:#f00;"/><path d="M26.068,5.652l-6,4c-0.689,0.459 -0.875,1.391 -0.416,2.08c0.459,0.689 1.391,0.875 2.08,0.416l6,-4c0.689,-0.459 0.875,-1.391 0.416,-2.08c-0.459,-0.689 -1.391,-0.875 -2.08,-0.416Z"/></svg>