<?xml version="1.0" encoding="UTF-8" standalone="no"?><!DOCTYPE svg PUBLIC "-//W3C//DTD SVG 1.1//EN" "http://www.w3.org/Graphics/SVG/1.1/DTD/svg11.dtd"><svg width="100%" height="100%" viewBox="0 0 82 75" version="1.1" xmlns="http://www.w3.org/2000/svg" xmlns:xlink="http://www.w3.org/1999/xlink" xml:space="preserve" xmlns:serif="http://www.serif.com/" style="fill-rule:evenodd;clip-rule:evenodd;stroke-linejoin:round;stroke-miterlimit:2;"><path d="M41,38.65l-6.9,0l0,6.25l6.9,0l0,-6.25Z"/><path d="M65.9,38.7l-2.95,-0l0,6.2l-6.85,0l0,-6.25l9.8,0l-0,0.05Z"/><path d="M65.9,44.85c-0.271,0.027 -0.554,0.044 -0.85,0.05l0.85,0l-0,-0.05Z"/><path d="M51.05,8.85c-0,-0.833 -0.25,-1.6 -0.75,-2.3c-0.533,-0.733 -1.217,-1.1 -2.05,-1.1c-1.067,-0 -1.883,0.483 -2.45,1.45c-0.467,0.8 -0.7,1.783 -0.7,2.95c0,1.867 0.817,2.8 2.45,2.8c0.967,0 1.8,-0.4 2.5,-1.2c0.667,-0.767 1,-1.633 1,-2.6Zm-2.25,-0.7c0.667,0.467 1,0.883 1,1.25c-0,0.633 -0.6,0.95 -1.8,0.95c-1.433,-0 -2.15,-0.45 -2.15,-1.35c0,-1.033 0.467,-1.55 1.4,-1.55c0.4,-0 0.917,0.233 1.55,0.7Z"/><path d="M7.35,44.1c-0.667,2.067 -1,3.883 -1,5.45c0,6.333 3.167,9.5 9.5,9.5c4.267,0 7.717,-1.3 10.35,-3.9c2.633,-2.567 3.95,-5.983 3.95,-10.25l3.95,0l0,-6.2l-1.2,-0c-1.333,-0 -2.333,-0.2 -3,-0.6c-0.567,-0.367 -1.55,-1.4 -2.95,-3.1l-2.4,4.55c1.233,1.933 1.983,3.2 2.25,3.8c0.633,1.333 0.95,2.733 0.95,4.2c0,2 -1.2,3.5 -3.6,4.5c-1.767,0.733 -3.817,1.1 -6.15,1.1c-6.167,0 -9.25,-2.4 -9.25,-7.2c0,-0.867 0.45,-3 1.35,-6.4c-1.067,0.5 -1.983,2.017 -2.75,4.55Z" style="fill:#f00;"/><path d="M49.25,36.15c-0.267,0.967 -0.75,1.583 -1.45,1.85c-0.91,0.37 -2.693,0.586 -5.35,0.65l-1.45,0l0,6.25l3.75,0c1.2,0 2.183,-0.45 2.95,-1.35c0.233,-0.267 0.833,-1.233 1.8,-2.9c1.2,1.8 1.833,2.733 1.9,2.8c0.833,0.967 1.8,1.45 2.9,1.45l1.8,0l0,-6.25l0.6,0c-2.053,-0.057 -3.303,-0.19 -3.75,-0.4c-1.167,-0.567 -1.75,-2.217 -1.75,-4.95c-0.967,0.733 -1.617,1.683 -1.95,2.85Z" style="fill:#f00;"/><path d="M74.775,32.638c0.217,1.158 0.325,1.995 0.325,2.512c0,3.633 -0.883,6.2 -2.65,7.7c-1.396,1.193 -3.58,1.859 -6.55,2c-0.271,0.027 -0.554,0.044 -0.85,0.05l-2.1,0l0,-6.2l2.95,-0c3.953,-0.043 6.369,-0.626 7.25,-1.75c-0.233,-0.767 -0.8,-2.033 -1.7,-3.8c0.6,-1.1 1.383,-2.75 2.35,-4.95l0.975,4.438Z" style="fill:#f00;"/><path d="M18.15,26.25l-3.65,3.65l3.7,3.6l3.65,-3.6l-3.7,-3.65Z" style="fill:#f00;"/><path d="M45.65,23.15l3.65,3.6l3.7,-3.6l-3.7,-3.65l-3.65,3.65Z" style="fill:#f00;"/><path d="M66.55,20.35l3.65,3.55l3.7,-3.55l-3.7,-3.7l-3.65,3.7Z" style="fill:#f00;"/><path d="M16.964,65.373l-6.5,4c-0.705,0.433 -0.925,1.358 -0.491,2.063c0.433,0.705 1.358,0.925 2.063,0.491l6.5,-4c0.705,-0.433 0.925,-1.358 0.491,-2.063c-0.433,-0.705 -1.358,-0.925 -2.063,-0.491Z"/><path d="M15.964,61.873l-6.5,4c-0.705,0.433 -0.925,1.358 -0.491,2.063c0.433,0.705 1.358,0.925 2.063,0.491l6.5,-4c0.705,-0.433 0.925,-1.358 0.491,-2.063c-0.433,-0.705 -1.358,-0.925 -2.063,-0.491Z"/><path d="M72.068,4.402l-6,4c-0.689,0.459 -0.875,1.391 -0.416,2.08c0.459,0.689 1.391,0.875 2.08,0.416l6,-4c0.689,-0.459 0.875,-1.391 0.416,-2.08c-0.459,-0.689 -1.391,-0.875 -2.08,-0.416Z"/></svg>