<?xml version="1.0" encoding="UTF-8" standalone="no"?><!DOCTYPE svg PUBLIC "-//W3C//DTD SVG 1.1//EN" "http://www.w3.org/Graphics/SVG/1.1/DTD/svg11.dtd"><svg width="100%" height="100%" viewBox="0 0 28 25" version="1.1" xmlns="http://www.w3.org/2000/svg" xmlns:xlink="http://www.w3.org/1999/xlink" xml:space="preserve" xmlns:serif="http://www.serif.com/" style="fill-rule:evenodd;clip-rule:evenodd;stroke-linejoin:round;stroke-miterlimit:2;"><path d="M8.95,18.2c1.033,-0 1.883,-0.233 2.55,-0.7c0.167,-0.133 0.667,-0.617 1.5,-1.45c1,0.9 1.533,1.383 1.6,1.45c0.733,0.467 1.55,0.7 2.45,0.7l3.65,-0l-0,-3.15c-2.7,0 -4.3,-0.067 -4.8,-0.2c-0.967,-0.3 -1.45,-1.133 -1.45,-2.5c-0.8,0.367 -1.35,0.833 -1.65,1.4c-0.233,0.5 -0.633,0.817 -1.2,0.95c-0.933,0.233 -2.867,0.35 -5.8,0.35l0,3.15l3.15,-0Z" style="fill:#f00;"/><path d="M9.75,7.25l3.1,1.8l3.1,-1.8l-3.1,-1.9l-3.1,1.9Z" style="fill:#f00;"/></svg>