<?xml version="1.0" encoding="UTF-8" standalone="no"?><!DOCTYPE svg PUBLIC "-//W3C//DTD SVG 1.1//EN" "http://www.w3.org/Graphics/SVG/1.1/DTD/svg11.dtd"><svg width="100%" height="100%" viewBox="0 0 24 24" version="1.1" xmlns="http://www.w3.org/2000/svg" xmlns:xlink="http://www.w3.org/1999/xlink" xml:space="preserve" xmlns:serif="http://www.serif.com/" style="fill-rule:evenodd;clip-rule:evenodd;stroke-linejoin:round;stroke-miterlimit:2;"><path d="M14.25,17c-0.7,0.4 -1.383,0.6 -2.05,0.6c-1.6,-0 -2.4,-0.833 -2.4,-2.5c-0,-0.3 0.05,-0.717 0.15,-1.25c0.1,-0.533 0.15,-0.95 0.15,-1.25c-0.333,0.433 -0.6,1.033 -0.8,1.8c-0.2,0.733 -0.3,1.417 -0.3,2.05c0,1.2 0.283,2.117 0.85,2.75c0.533,0.567 1.283,0.85 2.25,0.85c1.2,-0 2.2,-0.533 3,-1.6c0.833,-1.1 1.25,-2.417 1.25,-3.95c0,-1.967 -0.433,-3.633 -1.3,-5c-0.267,0.6 -0.5,1.417 -0.7,2.45c0.4,0.733 0.667,1.25 0.8,1.55c0.267,0.6 0.4,1.183 0.4,1.75c-0,0.7 -0.433,1.283 -1.3,1.75Z" style="fill:#f00;"/><path d="M10.85,7.05l1.2,1.5l1.2,-1.5l-1.2,-1.5l-1.2,1.5Z" style="fill:#f00;"/></svg>