<?xml version="1.0" encoding="UTF-8" standalone="no"?><!DOCTYPE svg PUBLIC "-//W3C//DTD SVG 1.1//EN" "http://www.w3.org/Graphics/SVG/1.1/DTD/svg11.dtd"><svg width="100%" height="100%" viewBox="0 0 156 85" version="1.1" xmlns="http://www.w3.org/2000/svg" xmlns:xlink="http://www.w3.org/1999/xlink" xml:space="preserve" xmlns:serif="http://www.serif.com/" style="fill-rule:evenodd;clip-rule:evenodd;stroke-linejoin:round;stroke-miterlimit:2;"><g><path d="M34.1,55.45l-2.55,2.45l2.55,2.4l2.55,-2.4l-2.55,-2.45Z"/><path d="M71.5,57.7l2.5,2.4l2.55,-2.4l-2.55,-2.45l-2.5,2.45Z"/><path d="M11.4,43.3l-0.2,-17.5c-1.533,1.933 -2.283,3.083 -2.25,3.45l0.55,22.05c1.267,-1 1.9,-3.667 1.9,-8Z"/><path d="M87.55,25.8c-1.533,1.933 -2.283,3.083 -2.25,3.45l0.55,22.05c1.267,-1 1.9,-3.667 1.9,-8l-0.2,-17.5Z"/><path d="M145.7,25.8c-1.533,1.933 -2.283,3.083 -2.25,3.45l0.55,22.05c1.267,-1 1.9,-3.667 1.9,-8l-0.2,-17.5Z"/><path d="M96.05,25.8c-1.533,1.933 -2.283,3.083 -2.25,3.45l0.55,22.05c1.267,-1 1.9,-3.667 1.9,-8l-0.2,-17.5Z"/><path d="M23.7,43.15c-0.767,-0 -1.583,0.8 -2.45,2.4c-0.767,1.433 -1.15,2.6 -1.15,3.5c0,1.1 0.55,1.8 1.65,2.1c1.033,0.167 2.067,0.317 3.1,0.45c-1.2,1.767 -2.45,3.05 -3.75,3.85c-1.5,0.9 -3.25,1.35 -5.25,1.35c-1.067,-0 -2.633,-0.083 -4.7,-0.25c1.9,1.833 4.117,2.75 6.65,2.75c2.2,-0 4.083,-0.867 5.65,-2.6c1.067,-1.2 2.1,-3.017 3.1,-5.45l4.05,0c0.833,0 1.517,-0.3 2.05,-0.9c0.167,-0.167 0.583,-0.817 1.25,-1.95c0.833,1.2 1.267,1.833 1.3,1.9c0.6,0.633 1.267,0.95 2,0.95l3.65,0c0.833,0 1.517,-0.3 2.05,-0.9c0.167,-0.167 0.583,-0.817 1.25,-1.95c0.833,1.2 1.267,1.833 1.3,1.9c0.6,0.633 1.267,0.95 2,0.95l5.3,0c0.833,0 1.517,-0.3 2.05,-0.9c0.067,-0.1 0.467,-0.75 1.2,-1.95c0.4,0.633 0.933,1.233 1.6,1.8c0.833,0.7 1.533,1.05 2.1,1.05l5.95,0c1.2,0 2.35,-0.3 3.45,-0.9c0.4,-0.233 1.267,-0.85 2.6,-1.85c1,-0.733 1.867,-1.2 2.6,-1.4c0.633,-0.167 1.417,-0.267 2.35,-0.3c0.8,-0.033 1.6,-0.067 2.4,-0.1c0.5,-1.2 0.9,-2.517 1.2,-3.95c-1.967,0 -3.817,-0.317 -5.55,-0.95c-0.8,-0.333 -2.017,-0.95 -3.65,-1.85c-1.2,-0.667 -2.1,-1 -2.7,-1c-1.2,0 -2.167,0.567 -2.9,1.7c-0.467,0.7 -0.917,1.783 -1.35,3.25c0.5,-0.233 0.983,-0.467 1.45,-0.7c0.567,-0.3 1.067,-0.45 1.5,-0.45c0.6,0 1.467,0.283 2.6,0.85c0.067,0.033 0.9,0.5 2.5,1.4c-1.167,0.9 -2.167,1.5 -3,1.8c-0.7,0.233 -1.583,0.35 -2.65,0.35l-1.85,-0l0,-0.05l-2.1,0l-0,0.1c-0.049,-0.004 -0.099,-0.004 -0.15,0c-0.9,0.033 -1.517,0.05 -1.85,0.05c-1.133,0 -1.95,-0.217 -2.45,-0.65c-0.567,-0.533 -0.883,-1.517 -0.95,-2.95c-1,1.6 -1.7,2.567 -2.1,2.9c-0.467,0.4 -1.2,0.6 -2.2,0.6l-1.75,-0c-0.221,-0.008 -0.438,-0.025 -0.65,-0.05c-2.2,0 -3.5,-0.1 -3.9,-0.3c-0.833,-0.367 -1.25,-1.467 -1.25,-3.3c-0.633,0.5 -1.067,1.133 -1.3,1.9c-0.2,0.633 -0.533,1.05 -1,1.25c-0.665,0.26 -1.932,0.41 -3.8,0.45c-1.598,-0.032 -2.565,-0.132 -2.9,-0.3c-0.833,-0.367 -1.25,-1.467 -1.25,-3.3c-0.633,0.5 -1.067,1.133 -1.3,1.9c-0.2,0.633 -0.533,1.05 -1,1.25c-0.767,0.3 -2.333,0.45 -4.7,0.45l-0,0.15c-0.425,0.008 -0.858,-0.009 -1.3,-0.05c-0.4,-0.8 -0.783,-1.617 -1.15,-2.45c-0.633,-1.067 -1.267,-1.6 -1.9,-1.6Zm-1.5,5.15c0,-0.3 -0.067,-0.517 -0.2,-0.65c0.233,-0.5 0.483,-0.95 0.75,-1.35c0.667,0.3 1.083,0.567 1.25,0.8c0.167,0.233 0.317,0.7 0.45,1.4c-0.633,0 -1.383,-0.067 -2.25,-0.2Z"/><path d="M110.45,44.75c-0.633,-1.067 -1.267,-1.6 -1.9,-1.6c-0.767,-0 -1.583,0.8 -2.45,2.4c-0.767,1.433 -1.15,2.6 -1.15,3.5c0,1.1 0.55,1.8 1.65,2.1c1.033,0.167 2.067,0.317 3.1,0.45c-1.2,1.767 -2.45,3.05 -3.75,3.85c-1.5,0.9 -3.25,1.35 -5.25,1.35c-1.067,-0 -2.633,-0.083 -4.7,-0.25c1.9,1.833 4.117,2.75 6.65,2.75c2.2,-0 4.083,-0.867 5.65,-2.6c1.067,-1.2 2.1,-3.017 3.1,-5.45l4.05,0c0.833,0 1.517,-0.3 2.05,-0.9c0.167,-0.167 0.583,-0.817 1.25,-1.95c0.833,1.2 1.267,1.833 1.3,1.9c0.6,0.633 1.267,0.95 2,0.95l3,0l-0,-0.1l1.7,-0c0.767,-0 1.45,-0.383 2.05,-1.15c0.433,-0.733 0.883,-1.45 1.35,-2.15c1.267,0.8 1.967,1.233 2.1,1.3c0.867,0.467 1.65,0.7 2.35,0.7c1.1,0 1.933,-0.5 2.5,-1.5c0.467,-0.833 0.7,-1.833 0.7,-3c0,-0.933 -0.35,-2.117 -1.05,-3.55c-0.8,-1.6 -1.617,-2.4 -2.45,-2.4c-0.733,-0 -1.55,0.55 -2.45,1.65c-0.733,1.1 -1.483,2.2 -2.25,3.3c-0.9,1.3 -1.717,2.1 -2.45,2.4c-0.433,0.167 -1.717,0.25 -3.85,0.25l-0,0.05c-1.154,-0.027 -1.871,-0.111 -2.15,-0.25c-0.833,-0.367 -1.25,-1.467 -1.25,-3.3c-0.633,0.5 -1.067,1.133 -1.3,1.9c-0.2,0.633 -0.533,1.05 -1,1.25c-0.767,0.3 -2.333,0.45 -4.7,0.45l0,0.15c-0.425,0.008 -0.858,-0.009 -1.3,-0.05c-0.4,-0.8 -0.783,-1.617 -1.15,-2.45Zm-1.15,3.75c-0.633,0 -1.383,-0.067 -2.25,-0.2c0,-0.3 -0.067,-0.517 -0.2,-0.65c0.233,-0.5 0.483,-0.95 0.75,-1.35c0.667,0.3 1.083,0.567 1.25,0.8c0.167,0.233 0.317,0.7 0.45,1.4Zm26.25,-2.3l-0.75,0.2c-0.433,-0 -1.517,-0.55 -3.25,-1.65c0.733,-1.367 1.283,-2.05 1.65,-2.05c0.633,0 1.167,0.367 1.6,1.1c0.167,0.233 0.417,0.733 0.75,1.5l0,0.9Z"/><path d="M118.6,39.15l2.55,-2.4l-2.5,-2.45l-2.55,2.45l2.5,2.4Z"/><path d="M41.5,36.75l2.5,2.4l2.55,-2.4l-2.5,-2.45l-2.55,2.45Z"/><path d="M57.2,36.5l2.2,2.1l2.25,-2.15l-2.25,-2.1l-2.2,2.15Z"/><path d="M54.95,38.6l2.25,-2.1l-2.2,-2.15l-2.25,2.1l2.2,2.15Z"/><path d="M148.2,25.5c0.833,-0.4 1.25,-0.933 1.25,-1.6c0,-0.5 -0.183,-1.267 -0.55,-2.3c-0.367,-1 -0.55,-1.75 -0.55,-2.25c-0.767,0.5 -1.15,0.933 -1.15,1.3c0,0.467 0.183,1.15 0.55,2.05c0.367,0.9 0.55,1.583 0.55,2.05c-0,0.3 -0.033,0.55 -0.1,0.75Z"/><path d="M72.2,19.65c-0.733,-0 -1.3,0.333 -1.7,1c-0.3,0.5 -0.45,1.15 -0.45,1.95c-0,1.233 0.55,1.85 1.65,1.85c0.7,0 1.283,-0.25 1.75,-0.75c0.467,-0.533 0.7,-1.133 0.7,-1.8c-0,-0.533 -0.167,-1.033 -0.5,-1.5c-0.4,-0.5 -0.883,-0.75 -1.45,-0.75Zm-1.65,2.35c-0,-0.667 0.317,-1 0.95,-1c0.3,-0 0.65,0.15 1.05,0.45c0.467,0.3 0.7,0.583 0.7,0.85c0,0.4 -0.4,0.6 -1.2,0.6c-1,-0 -1.5,-0.3 -1.5,-0.9Z"/><path d="M116.1,19.9c-0.6,-0 -1.133,0.3 -1.6,0.9c-0.4,0.533 -0.6,1.05 -0.6,1.55c-0,0.433 0.383,0.867 1.15,1.3c-1.4,1.033 -2.75,1.8 -4.05,2.3c0.467,0.133 0.833,0.2 1.1,0.2c1.033,-0 2.283,-0.7 3.75,-2.1c0.6,0.333 1.1,0.583 1.5,0.75l0.15,-1.45c-0.3,-0.2 -0.533,-0.35 -0.7,-0.45c0.367,-0.7 0.55,-1.267 0.55,-1.7c0,-0.867 -0.417,-1.3 -1.25,-1.3Zm-1.25,1.55c0.067,-0.167 0.183,-0.267 0.35,-0.3c0.667,0.1 1,0.4 1,0.9c0,0.133 -0.033,0.283 -0.1,0.45c-0.833,-0.367 -1.25,-0.717 -1.25,-1.05Z"/><path d="M28.75,20.15c-0.4,0.533 -0.6,1.05 -0.6,1.55c-0,0.433 0.383,0.867 1.15,1.3c-1.4,1.033 -2.75,1.8 -4.05,2.3c0.467,0.133 0.833,0.2 1.1,0.2c1.033,-0 2.283,-0.7 3.75,-2.1c0.6,0.333 1.1,0.583 1.5,0.75l0.15,-1.45c-0.3,-0.2 -0.533,-0.35 -0.7,-0.45c0.367,-0.7 0.55,-1.267 0.55,-1.7c0,-0.867 -0.417,-1.3 -1.25,-1.3c-0.6,-0 -1.133,0.3 -1.6,0.9Zm1.7,1.25c0,0.133 -0.033,0.283 -0.1,0.45c-0.833,-0.367 -1.25,-0.717 -1.25,-1.05c0.067,-0.167 0.183,-0.267 0.35,-0.3c0.667,0.1 1,0.4 1,0.9Z"/><path d="M46.461,55.374l-4.85,3c-0.704,0.436 -0.922,1.361 -0.487,2.065c0.436,0.704 1.361,0.922 2.065,0.487l4.85,-3c0.704,-0.436 0.922,-1.361 0.487,-2.065c-0.436,-0.704 -1.361,-0.922 -2.065,-0.487Z"/><path d="M134.361,24.274l-4.85,3c-0.704,0.436 -0.922,1.361 -0.487,2.065c0.436,0.704 1.361,0.922 2.065,0.487l4.85,-3c0.704,-0.436 0.922,-1.361 0.487,-2.065c-0.436,-0.704 -1.361,-0.922 -2.065,-0.487Z"/><path d="M58.761,18.924l-4.85,3c-0.704,0.436 -0.922,1.361 -0.487,2.065c0.436,0.704 1.361,0.922 2.065,0.487l4.85,-3c0.704,-0.436 0.922,-1.361 0.487,-2.065c-0.436,-0.704 -1.361,-0.922 -2.065,-0.487Z"/></g></svg>