<?xml version="1.0" encoding="UTF-8" standalone="no"?><!DOCTYPE svg PUBLIC "-//W3C//DTD SVG 1.1//EN" "http://www.w3.org/Graphics/SVG/1.1/DTD/svg11.dtd"><svg width="100%" height="100%" viewBox="0 0 5 5" version="1.1" xmlns="http://www.w3.org/2000/svg" xmlns:xlink="http://www.w3.org/1999/xlink" xml:space="preserve" xmlns:serif="http://www.serif.com/" style="fill-rule:evenodd;clip-rule:evenodd;stroke-linejoin:round;stroke-miterlimit:2;"><path d="M2.518,1.089c-0,-0.056 0.006,-0.127 0.02,-0.215c-0.245,0.263 -0.367,0.46 -0.367,0.589c-0,0.033 0.025,0.088 0.076,0.167c0.051,0.074 0.076,0.118 0.076,0.132l-0,1.927c-0,0.042 -0.069,0.13 -0.208,0.264c-0.138,0.129 -0.231,0.194 -0.277,0.194l-0.957,-0.104c0.171,0.254 0.365,0.423 0.583,0.506c0.175,0.069 0.436,0.104 0.783,0.104c0.453,0 0.899,-0.099 1.338,-0.298c0.541,-0.245 0.812,-0.566 0.812,-0.964c-0,-0.129 -0.063,-0.245 -0.187,-0.347c-0.125,-0.097 -0.255,-0.145 -0.389,-0.145c-0.148,0 -0.365,0.088 -0.652,0.263c-0.203,0.134 -0.404,0.268 -0.603,0.402l-0.028,-1.622c0.07,-0.046 0.127,-0.123 0.174,-0.229c0.023,-0.056 0.051,-0.15 0.083,-0.284c-0.185,-0.088 -0.277,-0.201 -0.277,-0.34Zm0.908,2.344c0.097,0 0.201,0.021 0.312,0.062c0.139,0.051 0.208,0.116 0.208,0.194c0,0.107 -0.203,0.208 -0.61,0.305c-0.347,0.084 -0.603,0.125 -0.77,0.125c-0.028,0 -0.109,-0.016 -0.243,-0.048c0.435,-0.426 0.802,-0.638 1.103,-0.638Z" style="fill:#f00;fill-rule:nonzero;"/></svg>