<?xml version="1.0" encoding="UTF-8" standalone="no"?><!DOCTYPE svg PUBLIC "-//W3C//DTD SVG 1.1//EN" "http://www.w3.org/Graphics/SVG/1.1/DTD/svg11.dtd"><svg width="100%" height="100%" viewBox="0 0 50 50" version="1.1" xmlns="http://www.w3.org/2000/svg" xmlns:xlink="http://www.w3.org/1999/xlink" xml:space="preserve" xmlns:serif="http://www.serif.com/" style="fill-rule:evenodd;clip-rule:evenodd;stroke-linejoin:round;stroke-miterlimit:2;"><g><path d="M21.25,16.2c0,-0.4 0.05,-0.917 0.15,-1.55c-1.767,1.9 -2.65,3.317 -2.65,4.25c0,0.233 0.183,0.633 0.55,1.2c0.367,0.533 0.55,0.85 0.55,0.95l0,13.9c0,0.3 -0.5,0.933 -1.5,1.9c-1,0.933 -1.667,1.4 -2,1.4l-6.9,-0.75c1.233,1.833 2.633,3.05 4.2,3.65c1.267,0.5 3.15,0.75 5.65,0.75c3.267,0 6.483,-0.717 9.65,-2.15c3.9,-1.767 5.85,-4.083 5.85,-6.95c0,-0.933 -0.45,-1.767 -1.35,-2.5c-0.9,-0.7 -1.833,-1.05 -2.8,-1.05c-1.067,0 -2.633,0.633 -4.7,1.9c-1.467,0.967 -2.917,1.933 -4.35,2.9l-0.2,-11.7c0.5,-0.333 0.917,-0.883 1.25,-1.65c0.167,-0.4 0.367,-1.083 0.6,-2.05c-1.333,-0.633 -2,-1.45 -2,-2.45Zm0.35,21.85c-0.2,0 -0.783,-0.117 -1.75,-0.35c3.133,-3.067 5.783,-4.6 7.95,-4.6c0.7,0 1.45,0.15 2.25,0.45c1,0.367 1.5,0.833 1.5,1.4c-0,0.767 -1.467,1.5 -4.4,2.2c-2.5,0.6 -4.35,0.9 -5.55,0.9Zm8.5,-13.95l-2.55,-2.45l-2.55,2.45l2.55,2.4l2.55,-2.4Z" style="fill:#f00;fill-rule:nonzero;"/></g></svg>