<?xml version="1.0" encoding="UTF-8" standalone="no"?><!DOCTYPE svg PUBLIC "-//W3C//DTD SVG 1.1//EN" "http://www.w3.org/Graphics/SVG/1.1/DTD/svg11.dtd"><svg width="100%" height="100%" viewBox="0 0 40 79" version="1.1" xmlns="http://www.w3.org/2000/svg" xmlns:xlink="http://www.w3.org/1999/xlink" xml:space="preserve" xmlns:serif="http://www.serif.com/" style="fill-rule:evenodd;clip-rule:evenodd;stroke-linejoin:round;stroke-miterlimit:2;"><g><path d="M29.8,24.55c-1.533,1.933 -2.283,3.083 -2.25,3.45l0.55,22.05c1.267,-1 1.9,-3.667 1.9,-8l-0.2,-17.5Z"/><path d="M19.4,42.15c0.633,1.167 1.033,2.017 1.2,2.55c-0.624,0.749 -2.374,1.133 -5.25,1.15l-0.3,0c-2.597,-0.039 -4.297,-0.572 -5.1,-1.6c-0.7,-0.867 -1.05,-2.733 -1.05,-5.6l-0,-13.4c-0.433,0.433 -0.867,0.85 -1.3,1.25c-0.3,0.4 -0.45,0.95 -0.45,1.65c-0,5.567 0.033,9.15 0.1,10.75c0.2,5.4 0.75,8.65 1.65,9.75c0.733,0.9 1.75,1.35 3.05,1.35l3.4,0c2.171,-0.088 3.754,-0.555 4.75,-1.4c1.233,-1 1.85,-2.7 1.85,-5.1c0,-0.7 -0.317,-2.25 -0.95,-4.65c-0.633,1.467 -1.167,2.567 -1.6,3.3Z"/><path d="M18.55,36l2.55,-2.4l-2.55,-2.45l-2.55,2.45l2.55,2.4Z"/><path d="M15.811,17.574l-4.85,3c-0.704,0.436 -0.922,1.361 -0.487,2.065c0.436,0.704 1.361,0.922 2.065,0.487l4.85,-3c0.704,-0.436 0.922,-1.361 0.487,-2.065c-0.436,-0.704 -1.361,-0.922 -2.065,-0.487Z"/><path d="M30.311,17.224l-4.85,3c-0.704,0.436 -0.922,1.361 -0.487,2.065c0.436,0.704 1.361,0.922 2.065,0.487l4.85,-3c0.704,-0.436 0.922,-1.361 0.487,-2.065c-0.436,-0.704 -1.361,-0.922 -2.065,-0.487Z"/></g></svg>