<?xml version="1.0" encoding="UTF-8" standalone="no"?><!DOCTYPE svg PUBLIC "-//W3C//DTD SVG 1.1//EN" "http://www.w3.org/Graphics/SVG/1.1/DTD/svg11.dtd"><svg width="100%" height="100%" viewBox="0 0 107 79" version="1.1" xmlns="http://www.w3.org/2000/svg" xmlns:xlink="http://www.w3.org/1999/xlink" xml:space="preserve" xmlns:serif="http://www.serif.com/" style="fill-rule:evenodd;clip-rule:evenodd;stroke-linejoin:round;stroke-miterlimit:2;"><g><path d="M53.45,54.65l-2.25,2.15l2.25,2.15l2.2,-2.15l-2.2,-2.15Z"/><path d="M60.1,56.8l-2.25,-2.1l-2.2,2.1l2.2,2.15l2.25,-2.15Z"/><path d="M13.5,40.75c-0.5,0.933 -1,2.233 -1.5,3.9c0.9,1.167 1.483,1.983 1.75,2.45c0.567,1 0.85,1.95 0.85,2.85c0,1.133 -0.917,2.083 -2.75,2.85c-1.5,0.633 -2.933,0.95 -4.3,0.95c-3.367,-0 -5.05,-1.367 -5.05,-4.1c0,-0.433 0.083,-1.083 0.25,-1.95c0.2,-0.867 0.3,-1.517 0.3,-1.95c-0.7,0.667 -1.25,1.617 -1.65,2.85c-0.4,1.167 -0.6,2.267 -0.6,3.3c-0,1.933 0.6,3.383 1.8,4.35c1.1,0.967 2.667,1.45 4.7,1.45c2.533,-0 4.65,-0.883 6.35,-2.65c1.733,-1.733 2.6,-3.817 2.6,-6.25c0,-3.167 -0.917,-5.85 -2.75,-8.05Z"/><path d="M101.35,25.3c-1.533,1.933 -2.283,3.083 -2.25,3.45l0.55,22.05c1.267,-1 1.9,-3.667 1.9,-8l-0.2,-17.5Z"/><path d="M88.9,29.2c0.133,0.533 0.583,1.233 1.35,2.1c0.5,3 0.75,7.55 0.75,13.65c0,1.167 -1.133,1.733 -3.4,1.7l-0.45,-0l-0,-0.05l-1.35,0c-1.9,0 -2.85,-0.45 -2.85,-1.35c0,-0.1 0.05,-0.267 0.15,-0.5c0.1,-0.267 0.15,-0.467 0.15,-0.6c-0,-0.4 -0.1,-0.833 -0.3,-1.3c-0.433,0.833 -0.85,1.667 -1.25,2.5c-0.633,0.9 -1.383,1.35 -2.25,1.35c-1.067,-0 -1.8,-0.3 -2.2,-0.9c0.267,-1.033 0.4,-2.017 0.4,-2.95c-0.633,0.933 -1.267,1.867 -1.9,2.8c-0.667,0.7 -1.75,1.05 -3.25,1.05c-1.3,-0 -2.233,-0.2 -2.8,-0.6c-0.667,-0.467 -1,-1.3 -1,-2.5c-1.033,1.3 -1.883,2.133 -2.55,2.5c-0.6,0.333 -1.5,0.5 -2.7,0.5l-2.3,0l-0,0.05l-0.05,-0c-0.867,0.067 -1.45,0.1 -1.75,0.1c-1.133,0 -1.933,-0.217 -2.4,-0.65c-0.567,-0.533 -0.867,-1.517 -0.9,-2.95c-1.033,1.633 -1.733,2.617 -2.1,2.95c-0.467,0.367 -1.217,0.55 -2.25,0.55l-1.65,-0c-0.833,-0.033 -1.6,-0.05 -2.3,-0.05l-0,4.15l3.85,0c0.867,0 1.55,-0.3 2.05,-0.9c0.1,-0.1 0.517,-0.75 1.25,-1.95c0.367,0.633 0.9,1.233 1.6,1.8c0.8,0.7 1.5,1.05 2.1,1.05l6.5,0c0.667,0 1.517,-0.483 2.55,-1.45c0.733,0.3 1.45,0.617 2.15,0.95c0.867,0.333 1.617,0.5 2.25,0.5c1.267,0 2.567,-0.433 3.9,-1.3c0.533,0.267 1.05,0.533 1.55,0.8c0.667,0.333 1.217,0.5 1.65,0.5c0.8,0 1.6,-0.433 2.4,-1.3c1,0.867 1.667,1.3 2,1.3l5,0c1.633,0 2.817,-0.85 3.55,-2.55c0.533,-1.233 0.8,-2.767 0.8,-4.6l-0,-3.85c-0,-0.7 -0.067,-1.75 -0.2,-3.15c-0.133,-1.4 -0.2,-2.45 -0.2,-3.15c-0,-0.367 0.2,-0.933 0.6,-1.7c0.367,-0.833 0.55,-1.5 0.55,-2c-0,-0.2 -0.317,-0.617 -0.95,-1.25c-0.667,-0.633 -1,-1.183 -1,-1.65c0,-0.133 0.05,-0.367 0.15,-0.7c0.1,-0.333 0.15,-0.583 0.15,-0.75l-0.05,-0.5c-1.267,0.833 -2.283,2.267 -3.05,4.3Z"/><path d="M23.6,26c-0.433,0.433 -0.867,0.85 -1.3,1.25c-0.3,0.4 -0.45,0.95 -0.45,1.65c0,5.567 0.033,9.15 0.1,10.75c0.2,5.4 0.75,8.65 1.65,9.75c0.733,0.9 1.75,1.35 3.05,1.35l3.4,0l-0,-4.15c-2.767,0 -4.567,-0.533 -5.4,-1.6c-0.7,-0.867 -1.05,-2.733 -1.05,-5.6l0,-13.4Z"/><path d="M9.75,36.8l-2.55,-2.45l-2.55,2.45l2.55,2.4l2.55,-2.4Z"/><path d="M74,37.55l2.2,-2.1l-2.2,-2.15l-2.2,2.1l2.2,2.15Z"/><path d="M80.65,35.4l-2.2,-2.1l-2.25,2.15l2.25,2.1l2.2,-2.15Z"/><path d="M76.35,28.85l-2.2,2.1l2.2,2.2l2.2,-2.2l-2.2,-2.1Z"/><path d="M76.05,24.45c0.233,0.167 0.5,0.25 0.8,0.25c0.867,-0 1.3,-0.683 1.3,-2.05c-0,-0.333 -0.05,-0.717 -0.15,-1.15l-0.3,0.15c0,1.167 -0.283,1.75 -0.85,1.75c-0.267,-0 -0.5,-0.383 -0.7,-1.15l-0.2,0.05c-0.133,0.6 -0.233,1 -0.3,1.2c-0.2,0.5 -0.483,0.75 -0.85,0.75c-0.333,0 -0.5,-0.45 -0.5,-1.35l-0.25,0.05c-0.2,0.633 -0.3,1.033 -0.3,1.2c0,0.333 0.083,0.633 0.25,0.9c0.167,0.267 0.433,0.4 0.8,0.4c0.267,-0 0.533,-0.1 0.8,-0.3c0.267,-0.2 0.417,-0.433 0.45,-0.7Z"/><path d="M8.65,22.1c0.367,-0.7 0.55,-1.267 0.55,-1.7c0,-0.867 -0.417,-1.3 -1.25,-1.3c-0.6,0 -1.133,0.3 -1.6,0.9c-0.4,0.533 -0.6,1.05 -0.6,1.55c-0,0.433 0.383,0.867 1.15,1.3c-1.4,1.033 -2.75,1.8 -4.05,2.3c0.467,0.133 0.833,0.2 1.1,0.2c1.033,0 2.283,-0.7 3.75,-2.1c0.6,0.333 1.1,0.583 1.5,0.75l0.15,-1.45c-0.3,-0.2 -0.533,-0.35 -0.7,-0.45Zm-0.6,-0.85c-0,0.133 -0.033,0.283 -0.1,0.45c-0.833,-0.367 -1.25,-0.717 -1.25,-1.05c0.067,-0.167 0.183,-0.267 0.35,-0.3c0.667,0.1 1,0.4 1,0.9Z"/><path d="M53.3,16.8c-0.3,0.5 -0.45,1.15 -0.45,1.95c0,1.233 0.55,1.85 1.65,1.85c0.7,0 1.283,-0.25 1.75,-0.75c0.467,-0.533 0.7,-1.133 0.7,-1.8c0,-0.533 -0.167,-1.033 -0.5,-1.5c-0.4,-0.5 -0.883,-0.75 -1.45,-0.75c-0.733,0 -1.3,0.333 -1.7,1Zm1,0.35c0.3,-0 0.65,0.15 1.05,0.45c0.467,0.3 0.7,0.583 0.7,0.85c-0,0.4 -0.4,0.6 -1.2,0.6c-1,0 -1.5,-0.3 -1.5,-0.9c0,-0.667 0.317,-1 0.95,-1Z"/><path d="M31.8,22.45c-0.067,0.067 -0.167,0.217 -0.3,0.45c-0.1,0.2 -0.25,0.5 -0.45,0.9c-0.167,0.4 -0.4,0.933 -0.7,1.6c0.133,0.6 0.233,1.083 0.3,1.45c0.067,0.367 0.133,0.65 0.2,0.85c0.033,0.2 0.067,0.367 0.1,0.5c0.007,0.154 0.041,0.454 0.1,0.9c0.067,0.5 0.15,1.15 0.25,1.95c0.1,0.8 0.2,1.683 0.3,2.65c0.133,0.933 0.25,1.933 0.35,3c0.133,1.067 0.25,2.117 0.35,3.15c0.1,1.033 0.183,2.017 0.25,2.95c0.067,0.967 0.1,1.817 0.1,2.55l-2.05,1.95l-0.55,0l-0,3.4l3.9,-0.3c0.233,-0.033 0.467,-0.05 0.7,-0.05l0.9,0c0.367,0 0.783,0.017 1.25,0.05c0.467,-0 1.05,0.033 1.75,0.1c0.667,0.133 1.183,0.233 1.55,0.3c0.367,0.067 0.733,0.1 1.1,0.1c0.167,-0 0.35,-0.017 0.55,-0.05l0.7,0c0.233,-0.033 0.517,-0.05 0.85,-0.05c0.333,-0.033 0.7,-0.05 1.1,-0.05l3.35,-0l-0,-3.3l-1.35,0.15c-1.5,0.233 -2.567,0.35 -3.2,0.35c0.6,-0.4 1.15,-0.883 1.65,-1.45c0.5,-0.567 0.933,-1.133 1.3,-1.7c0.333,-0.567 0.6,-1.133 0.8,-1.7c0.2,-0.533 0.3,-1 0.3,-1.4c0,-0.4 -0.15,-0.8 -0.45,-1.2c-0.3,-0.4 -0.65,-0.75 -1.05,-1.05c-0.433,-0.333 -0.9,-0.6 -1.4,-0.8c-0.5,-0.2 -0.95,-0.3 -1.35,-0.3c-0.2,0 -0.417,0.017 -0.65,0.05c-0.2,0.067 -0.45,0.167 -0.75,0.3c-0.3,0.133 -0.65,0.333 -1.05,0.6c-0.4,0.267 -0.9,0.633 -1.5,1.1c-0.6,0.467 -1.3,1.033 -2.1,1.7c-0.833,0.667 -1.8,1.483 -2.9,2.45l-0,-2.45l-0.2,-4.4c-0.067,-0.767 -0.15,-1.583 -0.25,-2.45c-0.067,-0.867 -0.167,-1.833 -0.3,-2.9c-0.1,-1.033 -0.233,-2.2 -0.4,-3.5c0.2,-0.1 0.4,-0.283 0.6,-0.55c0.167,-0.233 0.317,-0.483 0.45,-0.75c0.133,-0.267 0.233,-0.533 0.3,-0.8c0.067,-0.267 0.117,-0.483 0.15,-0.65c-0.033,-0.233 -0.367,-0.65 -1,-1.25c-0.233,-0.2 -0.433,-0.4 -0.6,-0.6c-0.167,-0.2 -0.3,-0.4 -0.4,-0.6c-0.133,-0.167 -0.233,-0.367 -0.3,-0.6c-0.067,-0.2 -0.117,-0.433 -0.15,-0.7c-0.033,0 -0.083,0.033 -0.15,0.1Zm4.65,22.25c0.767,-0.633 1.45,-1.15 2.05,-1.55c0.6,-0.4 1.133,-0.683 1.6,-0.85c0.467,-0.167 0.867,-0.25 1.2,-0.25l0.85,0c0.467,0 0.917,0.1 1.35,0.3c0.4,0.167 0.767,0.55 1.1,1.15c-0.333,0.6 -1.683,1.333 -4.05,2.2c-1.267,0.467 -2.45,0.8 -3.55,1c-1.1,0.233 -2.167,0.35 -3.2,0.35c1,-0.933 1.883,-1.717 2.65,-2.35Z" style="fill:#f00;"/><path d="M30.611,16.624l-4.85,3c-0.704,0.436 -0.922,1.361 -0.487,2.065c0.436,0.704 1.361,0.922 2.065,0.487l4.85,-3c0.704,-0.436 0.922,-1.361 0.487,-2.065c-0.436,-0.704 -1.361,-0.922 -2.065,-0.487Z"/><path d="M101.455,15.628l-4.8,3c-0.702,0.439 -0.916,1.365 -0.477,2.067c0.439,0.702 1.365,0.916 2.067,0.477l4.8,-3c0.702,-0.439 0.916,-1.365 0.477,-2.067c-0.439,-0.702 -1.365,-0.916 -2.067,-0.477Z"/><path d="M77.711,14.974l-4.85,3c-0.704,0.436 -0.922,1.361 -0.487,2.065c0.436,0.704 1.361,0.922 2.065,0.487l4.85,-3c0.704,-0.436 0.922,-1.361 0.487,-2.065c-0.436,-0.704 -1.361,-0.922 -2.065,-0.487Z"/></g></svg>