<?xml version="1.0" encoding="UTF-8" standalone="no"?><!DOCTYPE svg PUBLIC "-//W3C//DTD SVG 1.1//EN" "http://www.w3.org/Graphics/SVG/1.1/DTD/svg11.dtd"><svg width="100%" height="100%" viewBox="0 0 88 62" version="1.1" xmlns="http://www.w3.org/2000/svg" xmlns:xlink="http://www.w3.org/1999/xlink" xml:space="preserve" xmlns:serif="http://www.serif.com/" style="fill-rule:evenodd;clip-rule:evenodd;stroke-linejoin:round;stroke-miterlimit:2;"><g><path d="M41.011,14.024l-4.85,3c-0.704,0.436 -0.922,1.361 -0.487,2.065c0.436,0.704 1.361,0.922 2.065,0.487l4.85,-3c0.704,-0.436 0.922,-1.361 0.487,-2.065c-0.436,-0.704 -1.361,-0.922 -2.065,-0.487Zm15.25,-1.15l-4.85,3c-0.704,0.436 -0.922,1.361 -0.487,2.065c0.436,0.704 1.361,0.922 2.065,0.487l4.85,-3c0.704,-0.436 0.922,-1.361 0.487,-2.065c-0.436,-0.704 -1.361,-0.922 -2.065,-0.487Zm22.15,-1l-4.85,3c-0.704,0.436 -0.922,1.361 -0.487,2.065c0.436,0.704 1.361,0.922 2.065,0.487l4.85,-3c0.704,-0.436 0.922,-1.361 0.487,-2.065c-0.436,-0.704 -1.361,-0.922 -2.065,-0.487Z"/><path d="M60.2,41.2c1.467,-0.967 2.45,-1.45 2.95,-1.45l0.4,0.2c0,3.633 1.133,5.45 3.4,5.45l3,-0l0,-4.05c-0.606,0.033 -1.156,0.05 -1.65,0.05c-2.767,-0 -4.1,-0.55 -4,-1.65l0,-0.2c1.4,-0.233 2.283,-0.533 2.65,-0.9c0.133,-1.033 0.317,-2.083 0.55,-3.15c-1.1,0.333 -2.217,0.5 -3.35,0.5c-1.5,-0 -3.333,-0.45 -5.5,-1.35c-2.133,-0.867 -3.417,-1.3 -3.85,-1.3c-1.1,-0 -2.133,0.433 -3.1,1.3c-0.967,0.867 -1.45,1.833 -1.45,2.9l0,0.55c0.633,-0.233 1.25,-0.467 1.85,-0.7c0.833,-0.3 1.45,-0.45 1.85,-0.45c1.033,-0 2.4,0.5 4.1,1.5c-1.667,1.233 -3.317,2.033 -4.95,2.4c-0.931,0.219 -2.331,0.352 -4.2,0.4l0,4.15l1.9,-0c1.533,-0 3.233,-0.483 5.1,-1.45c0.833,-0.467 2.267,-1.383 4.3,-2.75Zm-4.4,-13.25l2.55,-2.4l-2.55,-2.45l-2.55,2.45l2.55,2.4Z" style="fill:#f00;fill-rule:nonzero;"/><path d="M20.7,37.3c1.067,-0 1.867,-0.15 2.4,-0.45c0.433,-0.267 0.8,-0.733 1.1,-1.4c0.3,-0.8 0.617,-1.583 0.95,-2.35c-1.267,-0 -3.133,-0.117 -5.6,-0.35c-2.5,-0.267 -4.35,-0.4 -5.55,-0.4c-1.433,-0 -2.717,0.417 -3.85,1.25c-1.267,0.933 -1.9,2.117 -1.9,3.55l0,0.7c1,-1.333 2.1,-2 3.3,-2c0.7,-0 1.483,0.3 2.35,0.9c-2.167,2.1 -3.767,4.083 -4.8,5.95c-1.2,2.267 -1.8,4.7 -1.8,7.3c0,3.9 1,6.633 3,8.2c1.867,1.433 4.883,2.15 9.05,2.15c1.633,-0 3.2,-0.317 4.7,-0.95c1.433,-0.667 2.867,-1.317 4.3,-1.95l0,-0.55c-0.533,-0 -1.55,0.017 -3.05,0.05c-1.467,0.067 -2.617,0.1 -3.45,0.1c-3.9,-0 -6.85,-0.483 -8.85,-1.45c-2.8,-1.3 -4.2,-3.617 -4.2,-6.95c0,-3.1 1.183,-5.767 3.55,-8c2.333,-2.233 5.117,-3.35 8.35,-3.35Zm23.45,2.6c-0.167,1.067 -0.417,1.967 -0.75,2.7c0,0.067 0.333,0.617 1,1.65c0.6,0.867 0.9,1.333 0.9,1.4c0,0.967 -1.133,2.217 -3.4,3.75c-2.167,1.5 -3.8,2.25 -4.9,2.25c-0.467,-0 -1.117,-0.1 -1.95,-0.3c-0.667,-0.167 -1.317,-0.317 -1.95,-0.45c0.833,0.933 1.8,1.683 2.9,2.25c1.233,0.7 2.417,1.05 3.55,1.05c1.533,-0 3.083,-1.083 4.65,-3.25c1.4,-1.9 2.2,-3.667 2.4,-5.3c0.267,-0.167 0.567,-0.25 0.9,-0.25l1.4,-0l0,-4.15l-1.3,-0c-0.733,-0.011 -1.166,-0.028 -1.3,-0.05c-0.667,-0.133 -1.383,-0.567 -2.15,-1.3Zm-26.85,10.4l2.55,-2.4l-2.55,-2.45l-2.55,2.45l2.55,2.4Zm15.7,-30.35c-1.533,1.933 -2.283,3.083 -2.25,3.45l0.55,22.05c1.267,-1 1.9,-3.667 1.9,-8l-0.2,-17.5Zm43.75,19.05c0.9,-0 1.85,-0.367 2.85,-1.1c0.667,1 1,1.667 1,2c0,0.333 -0.55,0.65 -1.65,0.95c-0.967,0.267 -1.7,0.4 -2.2,0.4l-6.8,-0l0,4.15l5.15,-0c1.667,-0 3.183,-0.683 4.55,-2.05c1.367,-1.333 2.05,-2.817 2.05,-4.45c0,-3.567 -0.983,-6.133 -2.95,-7.7c-0.6,-0.433 -1,-0.65 -1.2,-0.65c-0.933,-0 -1.767,0.717 -2.5,2.15c-0.633,1.2 -0.95,2.317 -0.95,3.35c0,0.833 0.217,1.533 0.65,2.1c0.5,0.567 1.167,0.85 2,0.85Zm0.2,-2.55c-0.167,-0 -0.417,-0.083 -0.75,-0.25l-0.75,-0.3c0.2,-0.667 0.367,-1.083 0.5,-1.25c0.1,-0.133 0.433,-0.383 1,-0.75c0.633,0.4 1.15,0.933 1.55,1.6l0,0.55c-0.767,0.267 -1.283,0.4 -1.55,0.4Zm0.4,-9.05l2.5,-2.4l-2.5,-2.45l-2.55,2.45l2.55,2.4Zm-61.1,-13.25c-0.6,-0 -1.133,0.3 -1.6,0.9c-0.4,0.533 -0.6,1.05 -0.6,1.55c0,0.433 0.383,0.867 1.15,1.3c-1.4,1.033 -2.75,1.8 -4.05,2.3c0.467,0.133 0.833,0.2 1.1,0.2c1.033,-0 2.283,-0.7 3.75,-2.1c0.6,0.333 1.1,0.583 1.5,0.75l0.15,-1.45c-0.3,-0.2 -0.533,-0.35 -0.7,-0.45c0.367,-0.7 0.55,-1.267 0.55,-1.7c0,-0.867 -0.417,-1.3 -1.25,-1.3Zm-0.9,1.25c0.667,0.1 1,0.4 1,0.9c0,0.133 -0.033,0.283 -0.1,0.45c-0.833,-0.367 -1.25,-0.717 -1.25,-1.05c0.067,-0.167 0.183,-0.267 0.35,-0.3Z" style="fill-rule:nonzero;"/></g></svg>