<?xml version="1.0" encoding="UTF-8" standalone="no"?><!DOCTYPE svg PUBLIC "-//W3C//DTD SVG 1.1//EN" "http://www.w3.org/Graphics/SVG/1.1/DTD/svg11.dtd"><svg width="100%" height="100%" viewBox="0 0 36 58" version="1.1" xmlns="http://www.w3.org/2000/svg" xmlns:xlink="http://www.w3.org/1999/xlink" xml:space="preserve" xmlns:serif="http://www.serif.com/" style="fill-rule:evenodd;clip-rule:evenodd;stroke-linejoin:round;stroke-miterlimit:2;"><g><path d="M13.961,10.124l-4.85,3c-0.704,0.436 -0.922,1.361 -0.487,2.065c0.436,0.704 1.361,0.922 2.065,0.487l4.85,-3c0.704,-0.436 0.922,-1.361 0.487,-2.065c-0.436,-0.704 -1.361,-0.922 -2.065,-0.487Z"/><path d="M23,37.55c0.633,-0.167 1.417,-0.267 2.35,-0.3c0.8,-0.033 1.6,-0.067 2.4,-0.1c0.5,-1.2 0.9,-2.517 1.2,-3.95c-1.967,0 -3.817,-0.317 -5.55,-0.95c-0.8,-0.333 -2.017,-0.95 -3.65,-1.85c-1.2,-0.667 -2.1,-1 -2.7,-1c-1.2,0 -2.167,0.567 -2.9,1.7c-0.467,0.7 -0.917,1.783 -1.35,3.25c0.5,-0.233 0.983,-0.467 1.45,-0.7c0.567,-0.3 1.067,-0.45 1.5,-0.45c0.6,0 1.467,0.283 2.6,0.85c0.067,0.033 0.9,0.5 2.5,1.4c-1.167,0.9 -2.167,1.5 -3,1.8c-0.7,0.233 -1.583,0.35 -2.65,0.35l-1.7,0c-0.207,-0.008 -0.407,-0.025 -0.6,-0.05l-1.65,0l0,4.15l3.1,0c1.2,0 2.35,-0.3 3.45,-0.9c0.4,-0.233 1.267,-0.85 2.6,-1.85c1,-0.733 1.867,-1.2 2.6,-1.4Zm-3.55,-13.3l2.55,-2.4l-2.55,-2.45l-2.55,2.45l2.55,2.4Z" style="fill:#f00;fill-rule:nonzero;"/><path d="M5.15,18.2c-0.3,0.4 -0.45,0.95 -0.45,1.65c0,5.567 0.033,9.15 0.1,10.75c0.2,5.4 0.75,8.65 1.65,9.75c0.733,0.9 1.75,1.35 3.05,1.35l1.75,0l0,-4.15l1.65,0c-2.767,0 -4.567,-0.533 -5.4,-1.6c-0.7,-0.867 -1.05,-2.733 -1.05,-5.6l0,-13.4c-0.433,0.433 -0.867,0.85 -1.3,1.25Z" style="fill-rule:nonzero;"/></g></svg>