<?xml version="1.0" encoding="UTF-8" standalone="no"?><!DOCTYPE svg PUBLIC "-//W3C//DTD SVG 1.1//EN" "http://www.w3.org/Graphics/SVG/1.1/DTD/svg11.dtd"><svg width="100%" height="100%" viewBox="0 0 50 79" version="1.1" xmlns="http://www.w3.org/2000/svg" xmlns:xlink="http://www.w3.org/1999/xlink" xml:space="preserve" xmlns:serif="http://www.serif.com/" style="fill-rule:evenodd;clip-rule:evenodd;stroke-linejoin:round;stroke-miterlimit:2;"><g><path d="M23.2,44.313c0.15,0.491 0.367,0.87 0.65,1.137c0.467,0.433 1.267,0.65 2.4,0.65c0.3,0 0.883,-0.033 1.75,-0.1c0.034,-0.001 0.067,-0.001 0.1,0c0.385,-0.016 0.735,-0.033 1.05,-0.05l0.95,-0l0,4.15l-4.6,0c-0.6,0 -1.3,-0.35 -2.1,-1.05c-0.7,-0.567 -1.233,-1.167 -1.6,-1.8c-0.733,1.2 -1.15,1.85 -1.25,1.95c-0.5,0.6 -1.183,0.9 -2.05,0.9l-3.85,0c-0.294,0.017 -0.56,0.1 -0.8,0.25c-0.2,1.633 -1,3.4 -2.4,5.3c-1.567,2.167 -3.117,3.25 -4.65,3.25c-1.133,-0 -2.317,-0.35 -3.55,-1.05c-1.1,-0.567 -2.067,-1.317 -2.9,-2.25c0.633,0.133 1.283,0.283 1.95,0.45c0.833,0.2 1.483,0.3 1.95,0.3c1.1,0 2.733,-0.75 4.9,-2.25c2.267,-1.533 3.4,-2.783 3.4,-3.75c-0,-0.067 -0.3,-0.533 -0.9,-1.4c-0.667,-1.033 -1,-1.583 -1,-1.65c0.333,-0.733 0.583,-1.633 0.75,-2.7c0.767,0.733 1.483,1.167 2.15,1.3c0.2,0.033 1.067,0.05 2.6,0.05c0.259,0.022 0.526,0.039 0.8,0.05l1.65,0c1.033,0 1.783,-0.183 2.25,-0.55c0.367,-0.333 1.067,-1.317 2.1,-2.95l0.25,1.813Z"/><path d="M20.35,54l-2.25,2.15l2.25,2.15l2.2,-2.15l-2.2,-2.15Z"/><path d="M24.75,54.05l-2.2,2.1l2.2,2.15l2.25,-2.15l-2.25,-2.1Z"/><path d="M14.05,25.75c0.433,-0.9 0.65,-1.583 0.65,-2.05c0,-0.333 -0.133,-0.65 -0.4,-0.95c-0.267,-0.3 -0.583,-0.45 -0.95,-0.45c-0.633,0 -1.2,0.3 -1.7,0.9c-0.533,0.6 -0.8,1.167 -0.8,1.7c0,0.667 0.45,1.233 1.35,1.7c-0.867,0.833 -1.683,1.367 -2.45,1.6c0.067,-0.767 0.1,-1.233 0.1,-1.4c0,-1.367 -0.467,-2.05 -1.4,-2.05c-0.5,0 -0.917,0.233 -1.25,0.7c-0.3,0.367 -0.45,0.8 -0.45,1.3c0,0.267 0.083,0.583 0.25,0.95c0.1,-0.933 0.433,-1.4 1,-1.4c0.267,0 0.5,0.1 0.7,0.3c0.167,0.233 0.25,0.467 0.25,0.7c0,0.4 -0.283,1.183 -0.85,2.35c1.067,-0.2 1.967,-0.5 2.7,-0.9c0.6,-0.367 1.317,-0.95 2.15,-1.75c0.4,0.3 1.017,0.667 1.85,1.1c0.033,-0.7 0.05,-1.083 0.05,-1.15c0,-0.433 -0.267,-0.833 -0.8,-1.2Zm-0.75,-1.3l-0.1,0.7c-0.833,-0.533 -1.25,-0.95 -1.25,-1.25l0.15,-0.3c0.167,-0.1 0.283,-0.15 0.35,-0.15c0.567,-0 0.85,0.333 0.85,1Z"/><path d="M23.25,25.55c0.467,-0.533 0.7,-1.133 0.7,-1.8c0,-0.533 -0.167,-1.033 -0.5,-1.5c-0.4,-0.5 -0.883,-0.75 -1.45,-0.75c-0.733,0 -1.3,0.333 -1.7,1c-0.3,0.5 -0.45,1.15 -0.45,1.95c0,1.233 0.55,1.85 1.65,1.85c0.7,0 1.283,-0.25 1.75,-0.75Zm-0.9,-2.25c0.467,0.3 0.7,0.583 0.7,0.85c-0,0.4 -0.4,0.6 -1.2,0.6c-1,-0 -1.5,-0.3 -1.5,-0.9c0,-0.667 0.317,-1 0.95,-1c0.3,0 0.65,0.15 1.05,0.45Z"/><path d="M31,39.5c-0.467,0.7 -0.917,1.783 -1.35,3.25c0.5,-0.233 0.983,-0.467 1.45,-0.7c0.567,-0.3 1.067,-0.45 1.5,-0.45c0.6,0 1.467,0.283 2.6,0.85c0.067,0.033 0.9,0.5 2.5,1.4c-1.167,0.9 -2.167,1.5 -3,1.8c-0.7,0.233 -1.583,0.35 -2.65,0.35l-1.95,0l0,4.1l1.1,0c1.2,0 2.35,-0.3 3.45,-0.9c0.4,-0.233 1.267,-0.85 2.6,-1.85c1,-0.733 1.867,-1.2 2.6,-1.4c0.633,-0.167 1.417,-0.267 2.35,-0.3c0.8,-0.033 1.6,-0.067 2.4,-0.1c0.5,-1.2 0.9,-2.517 1.2,-3.95c-1.967,0 -3.817,-0.317 -5.55,-0.95c-0.8,-0.333 -2.017,-0.95 -3.65,-1.85c-1.2,-0.667 -2.1,-1 -2.7,-1c-1.2,0 -2.167,0.567 -2.9,1.7Z" style="fill:#f00;"/><path d="M28.1,45.95l0,0.05c0.385,-0.016 0.735,-0.033 1.05,-0.05l-1.05,-0Z" style="fill:#f00;"/><path d="M36.3,27.8l-2.55,2.45l2.55,2.4l2.55,-2.4l-2.55,-2.45Z" style="fill:#f00;"/><path d="M36.761,20.974l-4.85,3c-0.704,0.436 -0.922,1.361 -0.487,2.065c0.436,0.704 1.361,0.922 2.065,0.487l4.85,-3c0.704,-0.436 0.922,-1.361 0.487,-2.065c-0.436,-0.704 -1.361,-0.922 -2.065,-0.487Z"/></g></svg>