<?xml version="1.0" encoding="UTF-8" standalone="no"?><!DOCTYPE svg PUBLIC "-//W3C//DTD SVG 1.1//EN" "http://www.w3.org/Graphics/SVG/1.1/DTD/svg11.dtd"><svg width="100%" height="100%" viewBox="0 0 95 92" version="1.1" xmlns="http://www.w3.org/2000/svg" xmlns:xlink="http://www.w3.org/1999/xlink" xml:space="preserve" xmlns:serif="http://www.serif.com/" style="fill-rule:evenodd;clip-rule:evenodd;stroke-linejoin:round;stroke-miterlimit:2;"><g><path d="M67.75,42.25c0.267,3.367 0.4,6.067 0.4,8.1c0,1.733 0.333,3.033 1,3.9c0.767,0.967 2.017,1.45 3.75,1.45l0,4.15l-2.25,0c-0.867,0 -1.583,-0.433 -2.15,-1.3c-0.433,-0.8 -0.867,-1.583 -1.3,-2.35c-0.033,0.033 -0.55,0.783 -1.55,2.25c-0.633,0.933 -1.317,1.4 -2.05,1.4l-4.5,0c-0.967,0 -2.233,-0.617 -3.8,-1.85c-1.9,1.233 -3.417,1.85 -4.55,1.85l-5.6,0c-0.567,0 -1.267,-0.35 -2.1,-1.05c-0.667,-0.567 -1.2,-1.167 -1.6,-1.8c-0.733,1.2 -1.133,1.85 -1.2,1.95c-0.533,0.6 -1.217,0.9 -2.05,0.9l-5.25,0c-0.733,0 -1.4,-0.317 -2,-0.95c-0.033,-0.067 -0.467,-0.7 -1.3,-1.9c-0.667,1.133 -1.083,1.783 -1.25,1.95c-0.533,0.6 -1.217,0.9 -2.05,0.9l-2.55,0c-3.802,0.097 -5.919,0.447 -6.35,1.05c1.267,0.2 2.533,0.4 3.8,0.6c1.833,0.333 2.75,0.95 2.75,1.85c-0,0.533 -0.4,1.3 -1.2,2.3c-2.633,3.233 -6.717,4.85 -12.25,4.85c-2.467,0 -4.5,-0.433 -6.1,-1.3c-2,-1.067 -3,-2.683 -3,-4.85c0,-1.1 0.483,-2.467 1.45,-4.1c0.933,-1.6 1.9,-2.717 2.9,-3.35c-0.1,0.5 -0.517,1.483 -1.25,2.95c-0.567,1.2 -0.85,2.183 -0.85,2.95c0,1.8 0.933,3.05 2.8,3.75c1.2,0.433 2.933,0.65 5.2,0.65c1.333,0 3.1,-0.233 5.3,-0.7c2.633,-0.567 4.133,-1.217 4.5,-1.95c-0.333,-0.2 -1.1,-0.383 -2.3,-0.55c-1.267,-0.167 -2.15,-0.367 -2.65,-0.6c-0.833,-0.367 -1.25,-0.95 -1.25,-1.75c-0,-1.767 0.8,-3.217 2.4,-4.35c1.433,-1.067 3.1,-1.6 5,-1.6l2.05,-0c1.844,-0.043 3.094,-0.193 3.75,-0.45c0.467,-0.2 0.8,-0.617 1,-1.25c0.233,-0.767 0.667,-1.4 1.3,-1.9c-0,1.833 0.417,2.933 1.25,3.3c0.4,0.2 1.7,0.3 3.9,0.3c0.196,0.026 0.396,0.043 0.6,0.05l1.75,0c1,0 1.733,-0.2 2.2,-0.6c0.4,-0.333 1.1,-1.3 2.1,-2.9c0.067,1.433 0.383,2.417 0.95,2.95c0.5,0.433 1.317,0.65 2.45,0.65c0.333,0 0.95,-0.017 1.85,-0.05c0.085,-0.006 0.168,-0.023 0.25,-0.05l-0,-0.05c1.6,-0 3.117,-0.083 4.55,-0.25c-0.133,-0.7 -0.2,-1.367 -0.2,-2c0,-1.333 0.483,-2.883 1.45,-4.65c1.033,-2.033 2.167,-3.05 3.4,-3.05c0.8,-0 1.45,0.533 1.95,1.6c0.433,0.867 0.65,1.733 0.65,2.6c0,1.833 -0.567,3.567 -1.7,5.2c0.309,0.309 0.876,0.493 1.7,0.55l2.05,-0c1.251,-0.04 2.118,-0.173 2.6,-0.4c0.867,-0.4 1.3,-1.283 1.3,-2.65c-0,-1.633 -0.15,-4.083 -0.45,-7.35c-0.333,-3.3 -0.5,-5.767 -0.5,-7.4c0,-1.333 0.767,-2.583 2.3,-3.75l0.55,8.1Zm-10.45,8.65c0.3,0.4 0.45,0.767 0.45,1.1c0,0.367 -0.267,0.85 -0.8,1.45c-0.567,0.6 -1.05,0.9 -1.45,0.9c-0.233,0 -0.567,-0.2 -1,-0.6c-0.467,-0.4 -0.7,-0.75 -0.7,-1.05c-0,-0.6 0.267,-1.15 0.8,-1.65c0.533,-0.467 1.117,-0.7 1.75,-0.7c0.333,0 0.65,0.183 0.95,0.55Z"/><path d="M29.5,47.75l2.55,-2.4l-2.5,-2.45l-2.55,2.45l2.5,2.4Z"/><path d="M40.4,47.2l2.25,-2.1l-2.2,-2.15l-2.25,2.1l2.2,2.15Z"/><path d="M44.85,47.2l2.25,-2.15l-2.25,-2.1l-2.2,2.15l2.2,2.1Z"/><path d="M51.55,41.1l2.2,2.15l2.2,-2.1l-2.15,-2.15l-2.25,2.1Z"/><path d="M58.2,43.25l2.25,-2.15l-2.25,-2.1l-2.25,2.15l2.25,2.1Z"/><path d="M56.05,28.65c-0.733,-0 -1.3,0.333 -1.7,1c-0.3,0.5 -0.45,1.15 -0.45,1.95c0,1.233 0.55,1.85 1.65,1.85c0.7,-0 1.283,-0.25 1.75,-0.75c0.467,-0.533 0.7,-1.133 0.7,-1.8c0,-0.533 -0.167,-1.033 -0.5,-1.5c-0.4,-0.5 -0.883,-0.75 -1.45,-0.75Zm-0.7,1.35c0.3,-0 0.65,0.15 1.05,0.45c0.467,0.3 0.7,0.583 0.7,0.85c-0,0.4 -0.4,0.6 -1.2,0.6c-1,-0 -1.5,-0.3 -1.5,-0.9c0,-0.667 0.317,-1 0.95,-1Z"/><path d="M76.05,51.35c0.6,0 1.467,0.283 2.6,0.85c0.067,0.033 0.9,0.5 2.5,1.4c-1.167,0.9 -2.167,1.5 -3,1.8c-0.7,0.233 -1.583,0.35 -2.65,0.35l-1.7,0c-0.315,-0.012 -0.615,-0.029 -0.9,-0.05l0,4.15l1.75,0c1.2,0 2.35,-0.3 3.45,-0.9c0.4,-0.233 1.267,-0.85 2.6,-1.85c1,-0.733 1.867,-1.2 2.6,-1.4c0.633,-0.167 1.417,-0.267 2.35,-0.3c0.8,-0.033 1.6,-0.067 2.4,-0.1c0.5,-1.2 0.9,-2.517 1.2,-3.95c-1.967,0 -3.817,-0.317 -5.55,-0.95c-0.8,-0.333 -2.017,-0.95 -3.65,-1.85c-1.2,-0.667 -2.1,-1 -2.7,-1c-1.2,0 -2.167,0.567 -2.9,1.7c-0.467,0.7 -0.917,1.783 -1.35,3.25c0.5,-0.233 0.983,-0.467 1.45,-0.7c0.567,-0.3 1.067,-0.45 1.5,-0.45Z" style="fill:#f00;"/><path d="M79.75,42.4l2.55,-2.4l-2.55,-2.45l-2.55,2.45l2.55,2.4Z" style="fill:#f00;"/><path d="M30.255,65.228l-4.8,3c-0.702,0.439 -0.916,1.365 -0.477,2.067c0.439,0.702 1.365,0.916 2.067,0.477l4.8,-3c0.702,-0.439 0.916,-1.365 0.477,-2.067c-0.439,-0.702 -1.365,-0.916 -2.067,-0.477Z"/><path d="M43.661,29.874l-4.85,3c-0.704,0.436 -0.922,1.361 -0.487,2.065c0.436,0.704 1.361,0.922 2.065,0.487l4.85,-3c0.704,-0.436 0.922,-1.361 0.487,-2.065c-0.436,-0.704 -1.361,-0.922 -2.065,-0.487Z"/><path d="M80.261,28.224l-4.85,3c-0.704,0.436 -0.922,1.361 -0.487,2.065c0.436,0.704 1.361,0.922 2.065,0.487l4.85,-3c0.704,-0.436 0.922,-1.361 0.487,-2.065c-0.436,-0.704 -1.361,-0.922 -2.065,-0.487Z"/><path d="M67.561,26.874l-4.85,3c-0.704,0.436 -0.922,1.361 -0.487,2.065c0.436,0.704 1.361,0.922 2.065,0.487l4.85,-3c0.704,-0.436 0.922,-1.361 0.487,-2.065c-0.436,-0.704 -1.361,-0.922 -2.065,-0.487Z"/></g></svg>