<?xml version="1.0" encoding="UTF-8" standalone="no"?><!DOCTYPE svg PUBLIC "-//W3C//DTD SVG 1.1//EN" "http://www.w3.org/Graphics/SVG/1.1/DTD/svg11.dtd"><svg width="100%" height="100%" viewBox="0 0 69 62" version="1.1" xmlns="http://www.w3.org/2000/svg" xmlns:xlink="http://www.w3.org/1999/xlink" xml:space="preserve" xmlns:serif="http://www.serif.com/" style="fill-rule:evenodd;clip-rule:evenodd;stroke-linejoin:round;stroke-miterlimit:2;"><g><path d="M17.301,15.18l-4.85,3.05c-0.7,0.441 -0.912,1.368 -0.471,2.069c0.441,0.7 1.368,0.912 2.069,0.471l4.85,-3.05c0.7,-0.441 0.912,-1.368 0.471,-2.069c-0.441,-0.7 -1.368,-0.912 -2.069,-0.471Zm36.36,-0.506l-4.85,3c-0.704,0.436 -0.922,1.361 -0.487,2.065c0.436,0.704 1.361,0.922 2.065,0.487l4.85,-3c0.704,-0.436 0.922,-1.361 0.487,-2.065c-0.436,-0.704 -1.361,-0.922 -2.065,-0.487Zm-37.05,-2.8l-4.85,3c-0.704,0.436 -0.922,1.361 -0.487,2.065c0.436,0.704 1.361,0.922 2.065,0.487l4.85,-3c0.704,-0.436 0.922,-1.361 0.487,-2.065c-0.436,-0.704 -1.361,-0.922 -2.065,-0.487Z"/><path d="M50.3,34.1c-1.2,-0 -2.167,0.567 -2.9,1.7c-0.467,0.7 -0.917,1.783 -1.35,3.25c0.5,-0.233 0.983,-0.467 1.45,-0.7c0.567,-0.3 1.067,-0.45 1.5,-0.45c0.6,-0 1.467,0.283 2.6,0.85c0.067,0.033 0.9,0.5 2.5,1.4c-1.167,0.9 -2.167,1.5 -3,1.8c-0.7,0.233 -1.583,0.35 -2.65,0.35l-1.7,-0c-0.334,-0.013 -0.651,-0.03 -0.95,-0.05l-1.3,-0l0,4.15l3.1,-0c1.2,-0 2.35,-0.3 3.45,-0.9c0.4,-0.233 1.267,-0.85 2.6,-1.85c1,-0.733 1.867,-1.2 2.6,-1.4c0.633,-0.167 1.417,-0.267 2.35,-0.3c0.8,-0.033 1.6,-0.067 2.4,-0.1c0.5,-1.2 0.9,-2.517 1.2,-3.95c-1.967,-0 -3.817,-0.317 -5.55,-0.95c-0.8,-0.333 -2.017,-0.95 -3.65,-1.85c-1.2,-0.667 -2.1,-1 -2.7,-1Zm2.4,-5.15l2.55,-2.4l-2.55,-2.45l-2.55,2.45l2.55,2.4Z" style="fill:#f00;fill-rule:nonzero;"/><path d="M24.9,55.25l2.55,-2.4l-2.55,-2.45l-2.5,2.45l2.5,2.4Zm19.6,-13c-0.733,-0.011 -1.166,-0.028 -1.3,-0.05c-0.667,-0.133 -1.383,-0.567 -2.15,-1.3c-0.167,1.067 -0.417,1.967 -0.75,2.7c0,0.067 0.333,0.617 1,1.65c0.6,0.867 0.9,1.333 0.9,1.4c0,0.967 -1.133,2.217 -3.4,3.75c-2.167,1.5 -3.8,2.25 -4.9,2.25c-0.467,-0 -1.117,-0.1 -1.95,-0.3c-0.667,-0.167 -1.317,-0.317 -1.95,-0.45c0.833,0.933 1.8,1.683 2.9,2.25c1.233,0.7 2.417,1.05 3.55,1.05c1.533,-0 3.083,-1.083 4.65,-3.25c1.4,-1.9 2.2,-3.667 2.4,-5.3c0.267,-0.167 0.567,-0.25 0.9,-0.25l0.1,-0l0,-4.15Zm-13.35,-4.35c-1.967,0 -3.817,-0.317 -5.55,-0.95c-0.8,-0.333 -2.017,-0.95 -3.65,-1.85c-1.2,-0.667 -2.1,-1 -2.7,-1c-1.2,0 -2.167,0.567 -2.9,1.7c-0.467,0.7 -0.917,1.783 -1.35,3.25c0.5,-0.233 0.983,-0.467 1.45,-0.7c0.567,-0.3 1.067,-0.45 1.5,-0.45c0.6,0 1.467,0.283 2.6,0.85c0.067,0.033 0.9,0.5 2.5,1.4c-1.167,0.9 -2.167,1.5 -3,1.8c-0.7,0.233 -1.583,0.35 -2.65,0.35l-1.7,0c-0.207,-0.008 -0.407,-0.025 -0.6,-0.05c-2.767,0 -4.567,-0.533 -5.4,-1.6c-0.7,-0.867 -1.05,-2.733 -1.05,-5.6l0,-13.4c-0.433,0.433 -0.867,0.85 -1.3,1.25c-0.3,0.4 -0.45,0.95 -0.45,1.65c0,5.567 0.033,9.15 0.1,10.75c0.2,5.4 0.75,8.65 1.65,9.75c0.733,0.9 1.75,1.35 3.05,1.35l4.85,0c1.2,0 2.35,-0.3 3.45,-0.9c0.4,-0.233 1.267,-0.85 2.6,-1.85c1,-0.733 1.867,-1.2 2.6,-1.4c0.633,-0.167 1.417,-0.267 2.35,-0.3c0.8,-0.033 1.6,-0.067 2.4,-0.1c0.5,-1.2 0.9,-2.517 1.2,-3.95Zm13.75,4.35c0.147,0.003 0.296,0.004 0.446,0.004c0.15,0 0.301,-0.001 0.454,-0.004l-0.9,-0Zm-3.6,-25.05c-0.733,-0 -1.3,0.333 -1.7,1c-0.3,0.5 -0.45,1.15 -0.45,1.95c0,1.233 0.55,1.85 1.65,1.85c0.7,-0 1.283,-0.25 1.75,-0.75c0.467,-0.533 0.7,-1.133 0.7,-1.8c0,-0.533 -0.167,-1.033 -0.5,-1.5c-0.4,-0.5 -0.883,-0.75 -1.45,-0.75Zm-0.7,1.35c0.3,-0 0.65,0.15 1.05,0.45c0.467,0.3 0.7,0.583 0.7,0.85c0,0.4 -0.4,0.6 -1.2,0.6c-1,-0 -1.5,-0.3 -1.5,-0.9c0,-0.667 0.317,-1 0.95,-1Z" style="fill-rule:nonzero;"/></g></svg>