<?xml version="1.0" encoding="UTF-8" standalone="no"?><!DOCTYPE svg PUBLIC "-//W3C//DTD SVG 1.1//EN" "http://www.w3.org/Graphics/SVG/1.1/DTD/svg11.dtd"><svg width="100%" height="100%" viewBox="0 0 56 92" version="1.1" xmlns="http://www.w3.org/2000/svg" xmlns:xlink="http://www.w3.org/1999/xlink" xml:space="preserve" xmlns:serif="http://www.serif.com/" style="fill-rule:evenodd;clip-rule:evenodd;stroke-linejoin:round;stroke-miterlimit:2;"><g><path d="M15.1,60.55l-0.8,0.05l0.8,0l0,-0.05Z"/><path d="M7.35,37.1c-0.3,0.4 -0.45,0.95 -0.45,1.65c-0,5.567 0.033,9.15 0.1,10.75c0.2,5.4 0.75,8.65 1.65,9.75c0.733,0.9 1.75,1.35 3.05,1.35l2.6,0l-0,-3.4l0.8,-0.05l0,-0.7c-2.767,-0 -4.567,-0.533 -5.4,-1.6c-0.7,-0.867 -1.05,-2.733 -1.05,-5.6l-0,-13.4c-0.433,0.433 -0.867,0.85 -1.3,1.25Z"/><path d="M4.2,33.65c0,0.133 0.017,0.3 0.05,0.5c1.467,-1.133 2.767,-1.7 3.9,-1.7c0.9,-0 1.383,-0.017 1.45,-0.05c0.233,-0.4 0.483,-0.8 0.75,-1.2c-0.233,-0 -0.6,0.017 -1.1,0.05l-1.05,0c-1.267,0 -2.267,-0.25 -3,-0.75c0.367,-0.967 0.9,-1.45 1.6,-1.45c0.167,0 0.417,0.05 0.75,0.15c0.3,0.1 0.533,0.15 0.7,0.15c0.367,0 0.55,-0.317 0.55,-0.95c-0,-0.267 -0.117,-0.5 -0.35,-0.7c-0.2,-0.2 -0.433,-0.3 -0.7,-0.3c-0.533,-0 -1.333,0.417 -2.4,1.25c-1.133,0.867 -1.7,1.533 -1.7,2c-0,0.2 0.133,0.5 0.4,0.9c0.267,0.4 0.4,0.717 0.4,0.95c0,0.133 -0.05,0.317 -0.15,0.55c-0.067,0.267 -0.1,0.467 -0.1,0.6Z"/><path d="M9.1,18.9c-0.633,-0 -1.2,0.3 -1.7,0.9c-0.533,0.6 -0.8,1.167 -0.8,1.7c0,0.667 0.45,1.233 1.35,1.7c-0.867,0.833 -1.683,1.367 -2.45,1.6c0.067,-0.767 0.1,-1.233 0.1,-1.4c0,-1.367 -0.467,-2.05 -1.4,-2.05c-0.5,0 -0.917,0.233 -1.25,0.7c-0.3,0.367 -0.45,0.8 -0.45,1.3c0,0.267 0.083,0.583 0.25,0.95c0.1,-0.933 0.433,-1.4 1,-1.4c0.267,-0 0.5,0.1 0.7,0.3c0.167,0.233 0.25,0.467 0.25,0.7c0,0.4 -0.283,1.183 -0.85,2.35c1.067,-0.2 1.967,-0.5 2.7,-0.9c0.6,-0.367 1.317,-0.95 2.15,-1.75c0.4,0.3 1.017,0.667 1.85,1.1c0.033,-0.7 0.05,-1.083 0.05,-1.15c0,-0.433 -0.267,-0.833 -0.8,-1.2c0.433,-0.9 0.65,-1.583 0.65,-2.05c0,-0.333 -0.133,-0.65 -0.4,-0.95c-0.267,-0.3 -0.583,-0.45 -0.95,-0.45Zm-1.4,1.6l0.15,-0.3c0.167,-0.1 0.283,-0.15 0.35,-0.15c0.567,0 0.85,0.333 0.85,1l-0.1,0.7c-0.833,-0.533 -1.25,-0.95 -1.25,-1.25Z"/><path d="M16.55,32.75c-0.1,0.2 -0.25,0.5 -0.45,0.9c-0.167,0.4 -0.4,0.933 -0.7,1.6c0.133,0.6 0.233,1.083 0.3,1.45c0.067,0.367 0.133,0.65 0.2,0.85c0.033,0.2 0.067,0.367 0.1,0.5c0.007,0.154 0.04,0.454 0.1,0.9c0.067,0.5 0.15,1.15 0.25,1.95c0.1,0.8 0.2,1.683 0.3,2.65c0.133,0.933 0.25,1.933 0.35,3c0.133,1.067 0.25,2.117 0.35,3.15c0.1,1.033 0.183,2.017 0.25,2.95c0.067,0.967 0.1,1.817 0.1,2.55l-2.05,1.95l-0.55,-0l-0.8,0.05l-0,3.4l0.8,-0.05l3.9,-0.3c0.233,-0.033 0.467,-0.05 0.7,-0.05l0.9,0c0.367,0 0.783,0.017 1.25,0.05c0.467,-0 1.05,0.033 1.75,0.1c0.667,0.133 1.183,0.233 1.55,0.3c0.367,0.067 0.733,0.1 1.1,0.1c0.167,-0 0.35,-0.017 0.55,-0.05l0.7,0c0.233,-0.033 0.517,-0.05 0.85,-0.05c0.333,-0.033 0.7,-0.05 1.1,-0.05l6.7,0c1.2,0 2.35,-0.3 3.45,-0.9c0.4,-0.233 1.267,-0.85 2.6,-1.85c1,-0.733 1.867,-1.2 2.6,-1.4c0.633,-0.167 1.417,-0.267 2.35,-0.3c0.8,-0.033 1.6,-0.067 2.4,-0.1c0.5,-1.2 0.9,-2.517 1.2,-3.95c-1.967,0 -3.817,-0.317 -5.55,-0.95c-0.8,-0.333 -2.017,-0.95 -3.65,-1.85c-1.2,-0.667 -2.1,-1 -2.7,-1c-1.2,0 -2.167,0.567 -2.9,1.7c-0.467,0.7 -0.917,1.783 -1.35,3.25c0.5,-0.233 0.983,-0.467 1.45,-0.7c0.567,-0.3 1.067,-0.45 1.5,-0.45c0.6,0 1.467,0.283 2.6,0.85c0.067,0.033 0.9,0.5 2.5,1.4c-1.167,0.9 -2.167,1.5 -3,1.8c-0.7,0.233 -1.583,0.35 -2.65,0.35l-1.7,-0c-0.867,-0.033 -1.617,-0.05 -2.25,-0.05l-0,0.85l-1.6,0.15c-1.5,0.233 -2.567,0.35 -3.2,0.35c0.6,-0.4 1.15,-0.883 1.65,-1.45c0.5,-0.567 0.933,-1.133 1.3,-1.7c0.333,-0.567 0.6,-1.133 0.8,-1.7c0.2,-0.533 0.3,-1 0.3,-1.4c-0,-0.4 -0.15,-0.8 -0.45,-1.2c-0.3,-0.4 -0.65,-0.75 -1.05,-1.05c-0.433,-0.333 -0.9,-0.6 -1.4,-0.8c-0.5,-0.2 -0.95,-0.3 -1.35,-0.3c-0.2,-0 -0.417,0.017 -0.65,0.05c-0.2,0.067 -0.45,0.167 -0.75,0.3c-0.3,0.133 -0.65,0.333 -1.05,0.6c-0.4,0.267 -0.9,0.633 -1.5,1.1c-0.6,0.467 -1.3,1.033 -2.1,1.7c-0.833,0.667 -1.8,1.483 -2.9,2.45l0,-2.45l-0.2,-4.4c-0.067,-0.767 -0.15,-1.583 -0.25,-2.45c-0.067,-0.867 -0.167,-1.833 -0.3,-2.9c-0.1,-1.033 -0.233,-2.2 -0.4,-3.5c0.2,-0.1 0.4,-0.283 0.6,-0.55c0.167,-0.233 0.317,-0.483 0.45,-0.75c0.133,-0.267 0.233,-0.533 0.3,-0.8c0.067,-0.267 0.117,-0.483 0.15,-0.65c-0.033,-0.233 -0.367,-0.65 -1,-1.25c-0.233,-0.2 -0.433,-0.4 -0.6,-0.6c-0.167,-0.2 -0.3,-0.4 -0.4,-0.6c-0.133,-0.167 -0.233,-0.367 -0.3,-0.6c-0.067,-0.2 -0.117,-0.433 -0.15,-0.7c-0.033,-0 -0.083,0.033 -0.15,0.1c-0.067,0.067 -0.167,0.217 -0.3,0.45Zm10.65,19.15c0.467,-0 0.917,0.1 1.35,0.3c0.4,0.167 0.767,0.55 1.1,1.15c-0.333,0.6 -1.683,1.333 -4.05,2.2c-1.267,0.467 -2.45,0.8 -3.55,1c-1.1,0.233 -2.167,0.35 -3.2,0.35c1,-0.933 1.883,-1.717 2.65,-2.35c0.767,-0.633 1.45,-1.15 2.05,-1.55c0.6,-0.4 1.133,-0.683 1.6,-0.85c0.467,-0.167 0.867,-0.25 1.2,-0.25l0.85,-0Z" style="fill:#f00;"/><path d="M38.7,40.75l2.55,2.4l2.55,-2.4l-2.55,-2.45l-2.55,2.45Z" style="fill:#f00;"/><path d="M40.461,28.274l-4.85,3c-0.704,0.436 -0.922,1.361 -0.487,2.065c0.436,0.704 1.361,0.922 2.065,0.487l4.85,-3c0.704,-0.436 0.922,-1.361 0.487,-2.065c-0.436,-0.704 -1.361,-0.922 -2.065,-0.487Z"/><path d="M18.661,25.274l-4.85,3c-0.704,0.436 -0.922,1.361 -0.487,2.065c0.436,0.704 1.361,0.922 2.065,0.487l4.85,-3c0.704,-0.436 0.922,-1.361 0.487,-2.065c-0.436,-0.704 -1.361,-0.922 -2.065,-0.487Z"/></g></svg>