<?xml version="1.0" encoding="UTF-8" standalone="no"?><!DOCTYPE svg PUBLIC "-//W3C//DTD SVG 1.1//EN" "http://www.w3.org/Graphics/SVG/1.1/DTD/svg11.dtd"><svg width="100%" height="100%" viewBox="0 0 79 60" version="1.1" xmlns="http://www.w3.org/2000/svg" xmlns:xlink="http://www.w3.org/1999/xlink" xml:space="preserve" xmlns:serif="http://www.serif.com/" style="fill-rule:evenodd;clip-rule:evenodd;stroke-linejoin:round;stroke-miterlimit:2;"><g><path d="M41.935,35.153c-0.633,-1.067 -1.267,-1.6 -1.9,-1.6c-0.767,0 -1.583,0.8 -2.45,2.4c-0.767,1.433 -1.15,2.6 -1.15,3.5c-0,1.1 0.55,1.8 1.65,2.1c1.033,0.167 2.067,0.317 3.1,0.45c-1.2,1.767 -2.45,3.05 -3.75,3.85c-1.5,0.9 -3.25,1.35 -5.25,1.35c-1.067,0 -2.633,-0.083 -4.7,-0.25c1.9,1.833 4.117,2.75 6.65,2.75c2.2,0 4.083,-0.867 5.65,-2.6c1.067,-1.2 2.1,-3.017 3.1,-5.45l3.25,0l-0,-4.05c-0.519,0.054 -1.052,0.07 -1.6,0.05c-0.473,0.013 -0.956,-0.004 -1.45,-0.05c-0.4,-0.8 -0.783,-1.617 -1.15,-2.45Zm27.55,-18.95c-1.533,1.933 -2.283,3.083 -2.25,3.45l0.55,22.05c1.267,-1 1.9,-3.667 1.9,-8l-0.2,-17.5Zm-41.35,18.95c-0,-0.7 -0.3,-2.25 -0.9,-4.65c-0.667,1.467 -1.2,2.567 -1.6,3.3c0.633,1.167 1.033,2.017 1.2,2.55c-0.643,0.735 -2.343,1.119 -5.1,1.15l-1.4,0c-1.458,-0.029 -2.291,-0.096 -2.5,-0.2c-0.933,-0.4 -1.717,-2.1 -2.35,-5.1c-0.467,-2.367 -0.7,-4.35 -0.7,-5.95c-0.967,1.133 -1.433,1.867 -1.4,2.2l0.25,2.75c-2.133,1.1 -3.667,2.1 -4.6,3c-1.4,1.333 -2.1,2.933 -2.1,4.8c-0,0.667 0.8,1 2.4,1c1.467,0 2.517,-0.133 3.15,-0.4c0.8,-0.333 1.617,-1.05 2.45,-2.15c0.367,0.867 0.733,1.75 1.1,2.65c0.567,1.033 1.283,1.55 2.15,1.55l3.55,0l-0,-0.05c2.1,-0.08 3.633,-0.53 4.6,-1.35c1.2,-1 1.8,-2.7 1.8,-5.1Zm10.95,1.55c0.667,0.3 1.083,0.567 1.25,0.8c0.167,0.233 0.317,0.7 0.45,1.4c-0.633,0 -1.383,-0.067 -2.25,-0.2c-0,-0.3 -0.067,-0.517 -0.2,-0.65c0.233,-0.5 0.483,-0.95 0.75,-1.35Zm-27.55,-0.95c-0.433,0 -1,-0.117 -1.7,-0.35c1.433,-0.933 2.75,-1.667 3.95,-2.2c0.267,0.933 0.4,1.483 0.4,1.65c-0,0.233 -0.383,0.45 -1.15,0.65c-0.633,0.167 -1.133,0.25 -1.5,0.25Zm18.5,-11.25l-2.25,-2.1l-2.2,2.1l2.2,2.15l2.25,-2.15Zm-6.65,-2.1l-2.25,2.1l2.25,2.15l2.2,-2.15l-2.2,-2.1Zm-13.45,-6.2c-0.4,0.533 -0.6,1.05 -0.6,1.55c-0,0.433 0.383,0.867 1.15,1.3c-1.4,1.033 -2.75,1.8 -4.05,2.3c0.467,0.133 0.833,0.2 1.1,0.2c1.033,0 2.283,-0.7 3.75,-2.1c0.6,0.333 1.1,0.583 1.5,0.75l0.15,-1.45c-0.3,-0.2 -0.533,-0.35 -0.7,-0.45c0.367,-0.7 0.55,-1.267 0.55,-1.7c-0,-0.867 -0.417,-1.3 -1.25,-1.3c-0.6,0 -1.133,0.3 -1.6,0.9Zm0.35,0.65c0.067,-0.167 0.183,-0.267 0.35,-0.3c0.667,0.1 1,0.4 1,0.9c-0,0.133 -0.033,0.283 -0.1,0.45c-0.833,-0.367 -1.25,-0.717 -1.25,-1.05Zm44.4,-4.25c-0,-0.533 -0.167,-1.033 -0.5,-1.5c-0.4,-0.5 -0.883,-0.75 -1.45,-0.75c-0.733,0 -1.3,0.333 -1.7,1c-0.3,0.5 -0.45,1.15 -0.45,1.95c-0,1.233 0.55,1.85 1.65,1.85c0.7,0 1.283,-0.25 1.75,-0.75c0.467,-0.533 0.7,-1.133 0.7,-1.8Zm-2.65,-0.9c0.3,0 0.65,0.15 1.05,0.45c0.467,0.3 0.7,0.583 0.7,0.85c-0,0.4 -0.4,0.6 -1.2,0.6c-1,0 -1.5,-0.3 -1.5,-0.9c-0,-0.667 0.317,-1 0.95,-1Z" style="fill-rule:nonzero;"/><path d="M53.035,30.353c-1.2,-0.667 -2.1,-1 -2.7,-1c-1.2,0 -2.167,0.567 -2.9,1.7c-0.467,0.7 -0.917,1.783 -1.35,3.25c0.5,-0.233 0.983,-0.467 1.45,-0.7c0.567,-0.3 1.067,-0.45 1.5,-0.45c0.6,0 1.467,0.283 2.6,0.85c0.067,0.033 0.9,0.5 2.5,1.4c-1.167,0.9 -2.167,1.5 -3,1.8c-0.7,0.233 -1.583,0.35 -2.65,0.35l-1.7,0c-0.867,-0.033 -1.617,-0.05 -2.25,-0.05l-0,0.15c0.548,0.02 1.081,0.004 1.6,-0.05l-0,4.05l1.5,0c1.2,0 2.35,-0.3 3.45,-0.9c0.4,-0.233 1.267,-0.85 2.6,-1.85c1,-0.733 1.867,-1.2 2.6,-1.4c0.633,-0.167 1.417,-0.267 2.35,-0.3c0.8,-0.033 1.6,-0.067 2.4,-0.1c0.5,-1.2 0.9,-2.517 1.2,-3.95c-1.967,0 -3.817,-0.317 -5.55,-0.95c-0.8,-0.333 -2.017,-0.95 -3.65,-1.85Zm-0.3,-11l-2.55,2.45l2.55,2.4l2.55,-2.4l-2.55,-2.45Z" style="fill:#f00;fill-rule:nonzero;"/><path d="M70.296,43.177l-4.85,3c-0.704,0.436 -0.922,1.361 -0.487,2.065c0.436,0.704 1.361,0.922 2.065,0.487l4.85,-3c0.704,-0.436 0.922,-1.361 0.487,-2.065c-0.436,-0.704 -1.361,-0.922 -2.065,-0.487Zm-29.8,-33.35l-4.85,3c-0.704,0.436 -0.922,1.361 -0.487,2.065c0.436,0.704 1.361,0.922 2.065,0.487l4.85,-3c0.704,-0.436 0.922,-1.361 0.487,-2.065c-0.436,-0.704 -1.361,-0.922 -2.065,-0.487Zm-14.55,0l-4.85,3c-0.704,0.436 -0.922,1.361 -0.487,2.065c0.436,0.704 1.361,0.922 2.065,0.487l4.85,-3c0.704,-0.436 0.922,-1.361 0.487,-2.065c-0.436,-0.704 -1.361,-0.922 -2.065,-0.487Z"/></g></svg>