<?xml version="1.0" encoding="UTF-8" standalone="no"?><!DOCTYPE svg PUBLIC "-//W3C//DTD SVG 1.1//EN" "http://www.w3.org/Graphics/SVG/1.1/DTD/svg11.dtd"><svg width="100%" height="100%" viewBox="0 0 51 79" version="1.1" xmlns="http://www.w3.org/2000/svg" xmlns:xlink="http://www.w3.org/1999/xlink" xml:space="preserve" xmlns:serif="http://www.serif.com/" style="fill-rule:evenodd;clip-rule:evenodd;stroke-linejoin:round;stroke-miterlimit:2;"><g><path d="M32.35,26.8c-0,-0.133 0.05,-0.367 0.15,-0.7c0.1,-0.333 0.15,-0.583 0.15,-0.75l-0.05,-0.5c-1.267,0.833 -2.283,2.267 -3.05,4.3c0.133,0.533 0.583,1.233 1.35,2.1c0.5,3 0.75,7.55 0.75,13.65c0,1.167 -1.133,1.733 -3.4,1.7l-0.5,0l-0,-0.05l-3.05,0c-1.9,0 -3.567,0.533 -5,1.6c-1.6,1.133 -2.4,2.583 -2.4,4.35c-0,0.8 0.417,1.383 1.25,1.75c0.5,0.233 1.383,0.433 2.65,0.6c1.2,0.167 1.967,0.35 2.3,0.55c-0.367,0.733 -1.867,1.383 -4.5,1.95c-2.2,0.467 -3.967,0.7 -5.3,0.7c-2.267,-0 -4,-0.217 -5.2,-0.65c-1.867,-0.7 -2.8,-1.95 -2.8,-3.75c0,-0.767 0.283,-1.75 0.85,-2.95c0.733,-1.467 1.15,-2.45 1.25,-2.95c-1,0.633 -1.967,1.75 -2.9,3.35c-0.967,1.633 -1.45,3 -1.45,4.1c0,2.167 1,3.783 3,4.85c1.6,0.867 3.633,1.3 6.1,1.3c5.533,0 9.617,-1.617 12.25,-4.85c0.8,-1 1.2,-1.767 1.2,-2.3c-0,-0.9 -0.917,-1.517 -2.75,-1.85c-1.267,-0.2 -2.533,-0.4 -3.8,-0.6c0.437,-0.611 2.604,-0.961 6.5,-1.05l3.25,-0c1.633,-0 2.817,-0.85 3.55,-2.55c0.533,-1.233 0.8,-2.767 0.8,-4.6l-0,-3.85c-0,-0.7 -0.067,-1.75 -0.2,-3.15c-0.133,-1.4 -0.2,-2.45 -0.2,-3.15c0,-0.367 0.2,-0.933 0.6,-1.7c0.367,-0.833 0.55,-1.5 0.55,-2c-0,-0.2 -0.317,-0.617 -0.95,-1.25c-0.667,-0.633 -1,-1.183 -1,-1.65Z"/><path d="M42,25.25c-1.533,1.933 -2.283,3.083 -2.25,3.45l0.55,22.05c1.267,-1 1.9,-3.667 1.9,-8l-0.2,-17.5Z"/><path d="M43.111,53.024l-4.85,3c-0.704,0.436 -0.922,1.361 -0.487,2.065c0.436,0.704 1.361,0.922 2.065,0.487l4.85,-3c0.704,-0.436 0.922,-1.361 0.487,-2.065c-0.436,-0.704 -1.361,-0.922 -2.065,-0.487Z"/><path d="M31.605,16.478l-4.8,3c-0.702,0.439 -0.916,1.365 -0.477,2.067c0.439,0.702 1.365,0.916 2.067,0.477l4.8,-3c0.702,-0.439 0.916,-1.365 0.477,-2.067c-0.439,-0.702 -1.365,-0.916 -2.067,-0.477Z"/></g></svg>