<?xml version="1.0" encoding="UTF-8" standalone="no"?><!DOCTYPE svg PUBLIC "-//W3C//DTD SVG 1.1//EN" "http://www.w3.org/Graphics/SVG/1.1/DTD/svg11.dtd"><svg width="100%" height="100%" viewBox="0 0 89 79" version="1.1" xmlns="http://www.w3.org/2000/svg" xmlns:xlink="http://www.w3.org/1999/xlink" xml:space="preserve" xmlns:serif="http://www.serif.com/" style="fill-rule:evenodd;clip-rule:evenodd;stroke-linejoin:round;stroke-miterlimit:2;"><g><path d="M82.45,25.4c-1.533,1.933 -2.283,3.083 -2.25,3.45l0.55,22.05c1.267,-1 1.9,-3.667 1.9,-8l-0.2,-17.5Z"/><path d="M6.35,25.4c-1.533,1.933 -2.283,3.083 -2.25,3.45l0.55,22.05c1.267,-1 1.9,-3.667 1.9,-8l-0.2,-17.5Z"/><path d="M48.15,50.85l0,-0.05l-0.45,0.05l0.45,0Z"/><path d="M74.6,44.35c-0,-0.7 -0.317,-2.25 -0.95,-4.65c-0.633,1.467 -1.167,2.567 -1.6,3.3c0.633,1.167 1.033,2.017 1.2,2.55c-0.667,0.8 -2.617,1.183 -5.85,1.15l-1.2,-0l0,4.15l1.25,0c2.455,-0.018 4.222,-0.485 5.3,-1.4c1.233,-1 1.85,-2.7 1.85,-5.1Z"/><path d="M43,33.25c0.267,3.367 0.4,6.067 0.4,8.1c0,1.733 0.333,3.033 1,3.9c0.767,0.967 2.017,1.45 3.75,1.45l0,0.7l-0.45,0.05l0,3.4l-1.8,0c-0.867,0 -1.583,-0.433 -2.15,-1.3c-0.433,-0.8 -0.867,-1.583 -1.3,-2.35c-0.033,0.033 -0.55,0.783 -1.55,2.25c-0.633,0.933 -1.317,1.4 -2.05,1.4l-4.5,0c-0.967,0 -2.233,-0.617 -3.8,-1.85c-1.9,1.233 -3.417,1.85 -4.55,1.85l-4.3,0c-1,2.433 -2.033,4.25 -3.1,5.45c-1.567,1.733 -3.45,2.6 -5.65,2.6c-2.533,-0 -4.75,-0.917 -6.65,-2.75c2.067,0.167 3.633,0.25 4.7,0.25c2,-0 3.75,-0.45 5.25,-1.35c1.3,-0.8 2.55,-2.083 3.75,-3.85c-1.033,-0.133 -2.067,-0.283 -3.1,-0.45c-1.1,-0.3 -1.65,-1 -1.65,-2.1c-0,-0.9 0.383,-2.067 1.15,-3.5c0.867,-1.6 1.683,-2.4 2.45,-2.4c0.633,0 1.267,0.533 1.9,1.6c0.367,0.833 0.75,1.65 1.15,2.45c0.494,0.046 0.977,0.063 1.45,0.05l-0,-0.15c1.6,-0 3.117,-0.083 4.55,-0.25c-0.133,-0.7 -0.2,-1.367 -0.2,-2c0,-1.333 0.483,-2.883 1.45,-4.65c1.033,-2.033 2.167,-3.05 3.4,-3.05c0.8,-0 1.45,0.533 1.95,1.6c0.433,0.867 0.65,1.733 0.65,2.6c0,1.833 -0.567,3.567 -1.7,5.2c0.309,0.309 0.876,0.493 1.7,0.55l2.05,-0c1.251,-0.04 2.118,-0.173 2.6,-0.4c0.867,-0.4 1.3,-1.283 1.3,-2.65c-0,-1.633 -0.15,-4.083 -0.45,-7.35c-0.333,-3.3 -0.5,-5.767 -0.5,-7.4c0,-1.333 0.767,-2.583 2.3,-3.75l0.55,8.1Zm-23.85,13.45c0.167,0.233 0.317,0.7 0.45,1.4c-0.633,0 -1.383,-0.067 -2.25,-0.2c-0,-0.3 -0.067,-0.517 -0.2,-0.65c0.233,-0.5 0.483,-0.95 0.75,-1.35c0.667,0.3 1.083,0.567 1.25,0.8Zm13.4,-4.8c0.3,0.4 0.45,0.767 0.45,1.1c0,0.367 -0.267,0.85 -0.8,1.45c-0.567,0.6 -1.05,0.9 -1.45,0.9c-0.233,0 -0.567,-0.2 -1,-0.6c-0.467,-0.4 -0.7,-0.75 -0.7,-1.05c-0,-0.6 0.267,-1.15 0.8,-1.65c0.533,-0.467 1.117,-0.7 1.75,-0.7c0.333,0 0.65,0.183 0.95,0.55Z"/><path d="M68.65,34.45l2.55,2.4l2.55,-2.4l-2.55,-2.45l-2.55,2.45Z"/><path d="M33.45,30l-2.25,2.15l2.25,2.1l2.25,-2.15l-2.25,-2.1Z"/><path d="M31.2,32.15l-2.15,-2.15l-2.25,2.1l2.2,2.15l2.2,-2.1Z"/><path d="M70,17.85c-0.733,0 -1.3,0.333 -1.7,1c-0.3,0.5 -0.45,1.15 -0.45,1.95c-0,1.233 0.55,1.85 1.65,1.85c0.7,-0 1.283,-0.25 1.75,-0.75c0.467,-0.533 0.7,-1.133 0.7,-1.8c0,-0.533 -0.167,-1.033 -0.5,-1.5c-0.4,-0.5 -0.883,-0.75 -1.45,-0.75Zm-0.7,1.35c0.3,-0 0.65,0.15 1.05,0.45c0.467,0.3 0.7,0.583 0.7,0.85c-0,0.4 -0.4,0.6 -1.2,0.6c-1,0 -1.5,-0.3 -1.5,-0.9c-0,-0.667 0.317,-1 0.95,-1Z"/><path d="M32.5,18.4c0,-0.867 -0.417,-1.3 -1.25,-1.3c-0.6,0 -1.133,0.3 -1.6,0.9c-0.4,0.533 -0.6,1.05 -0.6,1.55c-0,0.433 0.383,0.867 1.15,1.3c-1.4,1.033 -2.75,1.8 -4.05,2.3c0.467,0.133 0.833,0.2 1.1,0.2c1.033,0 2.283,-0.7 3.75,-2.1c0.6,0.333 1.1,0.583 1.5,0.75l0.15,-1.45c-0.3,-0.2 -0.533,-0.35 -0.7,-0.45c0.367,-0.7 0.55,-1.267 0.55,-1.7Zm-1.15,0.85c-0,0.133 -0.033,0.283 -0.1,0.45c-0.833,-0.367 -1.25,-0.717 -1.25,-1.05c0.067,-0.167 0.183,-0.267 0.35,-0.3c0.667,0.1 1,0.4 1,0.9Z"/><path d="M27.4,14.3c-1.033,0.4 -1.967,0.6 -2.8,0.6c-1.6,-0 -3.083,-0.467 -4.45,-1.4c-1.167,1.667 -1.967,3.133 -2.4,4.4c0.333,-0.233 0.7,-0.617 1.1,-1.15c0.467,-0.6 0.817,-1 1.05,-1.2c1.1,0.467 1.767,0.733 2,0.8c0.567,0.167 1.283,0.25 2.15,0.25c0.967,0 2.15,-0.367 3.55,-1.1c1.567,-0.8 2.35,-1.617 2.35,-2.45c-1.6,0.767 -2.45,1.183 -2.55,1.25Z"/><path d="M50.55,23.15c-0.067,-0.2 -0.117,-0.433 -0.15,-0.7c-0.033,-0 -0.083,0.033 -0.15,0.1c-0.067,0.067 -0.167,0.217 -0.3,0.45c-0.1,0.2 -0.25,0.5 -0.45,0.9c-0.167,0.4 -0.4,0.933 -0.7,1.6c0.133,0.6 0.233,1.083 0.3,1.45c0.067,0.367 0.133,0.65 0.2,0.85c0.033,0.2 0.067,0.367 0.1,0.5c0.007,0.154 0.04,0.454 0.1,0.9c0.067,0.5 0.15,1.15 0.25,1.95c0.1,0.8 0.2,1.683 0.3,2.65c0.133,0.933 0.25,1.933 0.35,3c0.133,1.067 0.25,2.117 0.35,3.15c0.1,1.033 0.183,2.017 0.25,2.95c0.067,0.967 0.1,1.817 0.1,2.55l-2.05,1.95l-0.9,-0l-0.45,0.05l0,3.4l0.45,-0.05l4.25,-0.3c0.233,-0.033 0.467,-0.05 0.7,-0.05l0.9,-0c0.367,-0 0.783,0.017 1.25,0.05c0.467,-0 1.05,0.033 1.75,0.1c0.667,0.133 1.183,0.233 1.55,0.3c0.367,0.067 0.733,0.1 1.1,0.1c0.167,-0 0.35,-0.017 0.55,-0.05l0.7,-0c0.233,-0.033 0.517,-0.05 0.85,-0.05c0.333,-0.033 0.7,-0.05 1.1,-0.05l3.35,0l0,-3.3l-1.35,0.15c-1.5,0.233 -2.567,0.35 -3.2,0.35c0.6,-0.4 1.15,-0.883 1.65,-1.45c0.5,-0.567 0.933,-1.133 1.3,-1.7c0.333,-0.567 0.6,-1.133 0.8,-1.7c0.2,-0.533 0.3,-1 0.3,-1.4c0,-0.4 -0.15,-0.8 -0.45,-1.2c-0.3,-0.4 -0.65,-0.75 -1.05,-1.05c-0.433,-0.333 -0.9,-0.6 -1.4,-0.8c-0.5,-0.2 -0.95,-0.3 -1.35,-0.3c-0.2,-0 -0.417,0.017 -0.65,0.05c-0.2,0.067 -0.45,0.167 -0.75,0.3c-0.3,0.133 -0.65,0.333 -1.05,0.6c-0.4,0.267 -0.9,0.633 -1.5,1.1c-0.6,0.467 -1.3,1.033 -2.1,1.7c-0.833,0.667 -1.8,1.483 -2.9,2.45l-0,-2.45l-0.2,-4.4c-0.067,-0.767 -0.15,-1.583 -0.25,-2.45c-0.067,-0.867 -0.167,-1.833 -0.3,-2.9c-0.1,-1.033 -0.233,-2.2 -0.4,-3.5c0.2,-0.1 0.4,-0.283 0.6,-0.55c0.167,-0.233 0.317,-0.483 0.45,-0.75c0.133,-0.267 0.233,-0.533 0.3,-0.8c0.067,-0.267 0.117,-0.483 0.15,-0.65c-0.033,-0.233 -0.367,-0.65 -1,-1.25c-0.233,-0.2 -0.433,-0.4 -0.6,-0.6c-0.167,-0.2 -0.3,-0.4 -0.4,-0.6c-0.133,-0.167 -0.233,-0.367 -0.3,-0.6Zm8,19.25c0.467,-0.167 0.867,-0.25 1.2,-0.25l0.85,-0c0.467,-0 0.917,0.1 1.35,0.3c0.4,0.167 0.767,0.55 1.1,1.15c-0.333,0.6 -1.683,1.333 -4.05,2.2c-1.267,0.467 -2.45,0.8 -3.55,1c-1.1,0.233 -2.167,0.35 -3.2,0.35c1,-0.933 1.883,-1.717 2.65,-2.35c0.767,-0.633 1.45,-1.15 2.05,-1.55c0.6,-0.4 1.133,-0.683 1.6,-0.85Z" style="fill:#f00;"/><path d="M43.611,55.324l-4.85,3c-0.704,0.436 -0.922,1.361 -0.487,2.065c0.436,0.704 1.361,0.922 2.065,0.487l4.85,-3c0.704,-0.436 0.922,-1.361 0.487,-2.065c-0.436,-0.704 -1.361,-0.922 -2.065,-0.487Z"/><path d="M84.061,52.324l-4.85,3c-0.704,0.436 -0.922,1.361 -0.487,2.065c0.436,0.704 1.361,0.922 2.065,0.487l4.85,-3c0.704,-0.436 0.922,-1.361 0.487,-2.065c-0.436,-0.704 -1.361,-0.922 -2.065,-0.487Z"/><path d="M51.561,14.974l-4.85,3c-0.704,0.436 -0.922,1.361 -0.487,2.065c0.436,0.704 1.361,0.922 2.065,0.487l4.85,-3c0.704,-0.436 0.922,-1.361 0.487,-2.065c-0.436,-0.704 -1.361,-0.922 -2.065,-0.487Z"/></g></svg>