<?xml version="1.0" encoding="UTF-8" standalone="no"?><!DOCTYPE svg PUBLIC "-//W3C//DTD SVG 1.1//EN" "http://www.w3.org/Graphics/SVG/1.1/DTD/svg11.dtd"><svg width="100%" height="100%" viewBox="0 0 145 85" version="1.1" xmlns="http://www.w3.org/2000/svg" xmlns:xlink="http://www.w3.org/1999/xlink" xml:space="preserve" xmlns:serif="http://www.serif.com/" style="fill-rule:evenodd;clip-rule:evenodd;stroke-linejoin:round;stroke-miterlimit:2;"><g><path d="M6.1,50.25c-0.467,1.4 -0.7,2.617 -0.7,3.65c-0,4.233 2.2,6.35 6.6,6.35c2.933,0 5.317,-0.867 7.15,-2.6c1.833,-1.733 2.75,-4.017 2.75,-6.85l4.05,-0c2.352,-0.044 4.052,-0.51 5.1,-1.4c1.233,-1 1.85,-2.7 1.85,-5.1c-0,-0.7 -0.317,-2.25 -0.95,-4.65c-0.633,1.467 -1.167,2.567 -1.6,3.3c0.633,1.167 1.033,2.017 1.2,2.55c-0.649,0.779 -2.516,1.163 -5.6,1.15l-2.15,-0c-0.933,-0 -1.633,-0.133 -2.1,-0.4c-0.4,-0.233 -1.067,-0.917 -2,-2.05l-1.7,3c0.867,1.3 1.4,2.15 1.6,2.55c0.433,0.9 0.65,1.833 0.65,2.8c0,1.333 -0.833,2.333 -2.5,3c-1.233,0.5 -2.667,0.75 -4.3,0.75c-4.233,-0 -6.35,-1.6 -6.35,-4.8c0,-0.567 0.3,-1.983 0.9,-4.25c-0.733,0.333 -1.367,1.333 -1.9,3Z"/><path d="M132.65,58.35l2.2,-2.1l-2.2,-2.1l-2.2,2.05l2.2,2.15Z"/><path d="M106.6,58.35l2.25,-2.15l-2.25,-2.1l-2.2,2.15l2.2,2.1Z"/><path d="M32.1,58.35l2.25,-2.15l-2.25,-2.1l-2.2,2.15l2.2,2.1Z"/><path d="M29.9,56.25l-2.2,-2.1l-2.2,2.05l2.2,2.15l2.2,-2.1Z"/><path d="M102.2,58.35l2.2,-2.1l-2.2,-2.1l-2.2,2.05l2.2,2.15Z"/><path d="M137.05,58.35l2.25,-2.15l-2.25,-2.1l-2.2,2.15l2.2,2.1Z"/><path d="M48.15,36.7l1.5,7.95c-0.6,0.733 -1.617,1.333 -3.05,1.8c-1.267,0.467 -2.45,0.7 -3.55,0.7c-1.167,-0 -2.25,-0.5 -3.25,-1.5l-0,4.25c-0,0.833 0.967,1.25 2.9,1.25c2.1,-0 3.617,-0.333 4.55,-1c0.433,-0.333 1.367,-1.517 2.8,-3.55c0.3,0.867 0.6,1.733 0.9,2.6c0.5,1.067 1.15,1.6 1.95,1.6l4.25,-0c1.633,-0 2.817,-0.85 3.55,-2.55c0.533,-1.233 0.8,-2.767 0.8,-4.6l0,-3.85c0,-0.7 -0.067,-1.75 -0.2,-3.15c-0.133,-1.4 -0.2,-2.45 -0.2,-3.15c0,-0.367 0.2,-0.933 0.6,-1.7c0.367,-0.833 0.55,-1.5 0.55,-2c0,-0.2 -0.317,-0.617 -0.95,-1.25c-0.667,-0.633 -1,-1.183 -1,-1.65c-0,-0.133 0.05,-0.367 0.15,-0.7c0.1,-0.333 0.15,-0.583 0.15,-0.75l-0.05,-0.5c-1.267,0.833 -2.283,2.267 -3.05,4.3c0.133,0.533 0.583,1.233 1.35,2.1c0.5,3 0.75,7.55 0.75,13.65c0,1.167 -1.133,1.733 -3.4,1.7l-0.75,-0.05l-1.55,-0c-0.375,-0.02 -0.658,-0.07 -0.85,-0.15c-0.667,-0.267 -1.483,-2.35 -2.45,-6.25c-0.467,-1.9 -0.967,-4.3 -1.5,-7.2c-0.667,2.3 -0.983,3.517 -0.95,3.65Z"/><path d="M70,25.35c-1.533,1.933 -2.283,3.083 -2.25,3.45l0.55,22.05c1.267,-1 1.9,-3.667 1.9,-8l-0.2,-17.5Z"/><path d="M116.85,25.35c-1.533,1.933 -2.283,3.083 -2.25,3.45l0.55,22.05c1.267,-1 1.9,-3.667 1.9,-8l-0.2,-17.5Z"/><path d="M123.5,27.3c-0.3,0.4 -0.45,0.95 -0.45,1.65c-0,5.567 0.033,9.15 0.1,10.75c0.2,5.4 0.75,8.65 1.65,9.75c0.733,0.9 1.75,1.35 3.05,1.35l3.4,-0c2.171,-0.088 3.754,-0.555 4.75,-1.4c1.233,-1 1.85,-2.7 1.85,-5.1c-0,-0.7 -0.317,-2.25 -0.95,-4.65c-0.633,1.467 -1.167,2.567 -1.6,3.3c0.633,1.167 1.033,2.017 1.2,2.55c-0.624,0.749 -2.374,1.133 -5.25,1.15l-0.3,-0c-2.597,-0.039 -4.297,-0.572 -5.1,-1.6c-0.7,-0.867 -1.05,-2.733 -1.05,-5.6l-0,-13.4c-0.433,0.433 -0.867,0.85 -1.3,1.25Z"/><path d="M76.65,27.3c-0.3,0.4 -0.45,0.95 -0.45,1.65c0,5.567 0.033,9.15 0.1,10.75c0.2,5.4 0.75,8.65 1.65,9.75c0.733,0.9 1.75,1.35 3.05,1.35l6.7,-0c0,1.533 0.383,3.133 1.15,4.8c0.967,2.067 2.167,3.1 3.6,3.1c1.1,0 1.95,-0.7 2.55,-2.1c0.467,-1.067 0.7,-2.217 0.7,-3.45c0,-0.3 -0.033,-0.717 -0.1,-1.25c-0.067,-0.667 -0.1,-1.1 -0.1,-1.3c1.067,0.167 2.017,0.25 2.85,0.25c0.402,0 0.785,-0.017 1.15,-0.05l0.6,-0c2.533,-0 4.35,-0.467 5.45,-1.4c1.233,-1 1.85,-2.7 1.85,-5.1c0,-0.7 -0.317,-2.25 -0.95,-4.65c-0.633,1.467 -1.167,2.567 -1.6,3.3c0.633,1.167 1.033,2.017 1.2,2.55c-0.625,0.75 -2.375,1.133 -5.25,1.15l-1.8,-0l-0,0.05c-0.216,0.02 -0.45,0.037 -0.7,0.05c-1.267,0.1 -2.233,0.15 -2.9,0.15c-1.067,-0 -1.85,-0.083 -2.35,-0.25c0.867,-0.833 1.6,-1.767 2.2,-2.8c0.667,-1.2 1,-2.317 1,-3.35c-0,-2.067 -0.5,-3.467 -1.5,-4.2c-0.8,-0 -1.65,0.833 -2.55,2.5c-0.733,1.567 -1.483,3.15 -2.25,4.75c-0.9,1.767 -1.783,2.733 -2.65,2.9c-0.563,0.098 -1.529,0.165 -2.9,0.2l-0.55,-0c-2.453,-0.067 -4.069,-0.601 -4.85,-1.6c-0.7,-0.867 -1.05,-2.733 -1.05,-5.6l0,-13.4c-0.433,0.433 -0.867,0.85 -1.3,1.25Zm17.5,27.45c-0.3,0.167 -0.517,0.25 -0.65,0.25c-1,0 -1.867,-0.45 -2.6,-1.35c-0.633,-0.767 -1.067,-1.667 -1.3,-2.7c3.3,0.767 4.95,1.867 4.95,3.3c-0,0.133 -0.133,0.3 -0.4,0.5Zm0.2,-12.4c-0,1.033 -0.417,1.833 -1.25,2.4c-0.567,0.367 -1.483,0.667 -2.75,0.9c0.767,-1.567 1.2,-2.433 1.3,-2.6c0.5,-0.933 1.083,-1.717 1.75,-2.35c0.633,0.6 0.95,1.15 0.95,1.65Z"/><path d="M13.6,43.2l2.55,-2.4l-2.55,-2.45l-2.55,2.45l2.55,2.4Z"/><path d="M104.45,28.35l-0.2,0.05c-0.133,0.6 -0.233,1 -0.3,1.2c-0.2,0.5 -0.483,0.75 -0.85,0.75c-0.333,0 -0.5,-0.45 -0.5,-1.35l-0.25,0.05c-0.2,0.633 -0.3,1.033 -0.3,1.2c-0,0.333 0.083,0.633 0.25,0.9c0.167,0.267 0.433,0.4 0.8,0.4c0.267,-0 0.533,-0.1 0.8,-0.3c0.267,-0.2 0.417,-0.433 0.45,-0.7c0.233,0.167 0.5,0.25 0.8,0.25c0.867,-0 1.3,-0.683 1.3,-2.05c0,-0.333 -0.05,-0.717 -0.15,-1.15l-0.3,0.15c0,1.167 -0.283,1.75 -0.85,1.75c-0.267,0 -0.5,-0.383 -0.7,-1.15Z"/><path d="M48.7,26.2l-2.5,2.45l2.55,2.4l2.5,-2.4l-2.55,-2.45Z"/><path d="M57.6,21l-0.25,0.05c-0.2,0.633 -0.3,1.033 -0.3,1.2c-0,0.333 0.083,0.633 0.25,0.9c0.167,0.267 0.433,0.4 0.8,0.4c0.267,-0 0.533,-0.1 0.8,-0.3c0.267,-0.2 0.417,-0.433 0.45,-0.7c0.233,0.167 0.5,0.25 0.8,0.25c0.867,-0 1.3,-0.683 1.3,-2.05c0,-0.333 -0.05,-0.717 -0.15,-1.15l-0.3,0.15c0,1.167 -0.283,1.75 -0.85,1.75c-0.267,0 -0.5,-0.383 -0.7,-1.15l-0.2,0.05c-0.133,0.6 -0.233,1 -0.3,1.2c-0.2,0.5 -0.483,0.75 -0.85,0.75c-0.333,0 -0.5,-0.45 -0.5,-1.35Z"/><path d="M105.3,19.15c-0,-0.867 -0.417,-1.3 -1.25,-1.3c-0.6,0 -1.133,0.3 -1.6,0.9c-0.4,0.533 -0.6,1.05 -0.6,1.55c-0,0.433 0.383,0.867 1.15,1.3c-1.4,1.033 -2.75,1.8 -4.05,2.3c0.467,0.133 0.833,0.2 1.1,0.2c1.033,0 2.283,-0.7 3.75,-2.1c0.6,0.333 1.1,0.583 1.5,0.75l0.15,-1.45c-0.3,-0.2 -0.533,-0.35 -0.7,-0.45c0.367,-0.7 0.55,-1.267 0.55,-1.7Zm-1.15,0.85c0,0.133 -0.033,0.283 -0.1,0.45c-0.833,-0.367 -1.25,-0.717 -1.25,-1.05c0.067,-0.167 0.183,-0.267 0.35,-0.3c0.667,0.1 1,0.4 1,0.9Z"/><path d="M131.35,15.25c-1.033,0.4 -1.967,0.6 -2.8,0.6c-1.6,0 -3.083,-0.467 -4.45,-1.4c-1.167,1.667 -1.967,3.133 -2.4,4.4c0.333,-0.233 0.7,-0.617 1.1,-1.15c0.467,-0.6 0.817,-1 1.05,-1.2c1.1,0.467 1.767,0.733 2,0.8c0.567,0.167 1.283,0.25 2.15,0.25c0.967,-0 2.15,-0.367 3.55,-1.1c1.567,-0.8 2.35,-1.617 2.35,-2.45c-1.6,0.767 -2.45,1.183 -2.55,1.25Z"/><path d="M46.161,55.324l-4.85,3c-0.704,0.436 -0.922,1.361 -0.487,2.065c0.436,0.704 1.361,0.922 2.065,0.487l4.85,-3c0.704,-0.436 0.922,-1.361 0.487,-2.065c-0.436,-0.704 -1.361,-0.922 -2.065,-0.487Z"/><path d="M14.555,24.228l-4.8,3c-0.702,0.439 -0.916,1.365 -0.477,2.067c0.439,0.702 1.365,0.916 2.067,0.477l4.8,-3c0.702,-0.439 0.916,-1.365 0.477,-2.067c-0.439,-0.702 -1.365,-0.916 -2.067,-0.477Z"/><path d="M85.311,18.224l-4.85,3c-0.704,0.436 -0.922,1.361 -0.487,2.065c0.436,0.704 1.361,0.922 2.065,0.487l4.85,-3c0.704,-0.436 0.922,-1.361 0.487,-2.065c-0.436,-0.704 -1.361,-0.922 -2.065,-0.487Z"/><path d="M131.761,17.924l-4.85,3c-0.704,0.436 -0.922,1.361 -0.487,2.065c0.436,0.704 1.361,0.922 2.065,0.487l4.85,-3c0.704,-0.436 0.922,-1.361 0.487,-2.065c-0.436,-0.704 -1.361,-0.922 -2.065,-0.487Z"/><path d="M117.461,17.924l-4.85,3c-0.704,0.436 -0.922,1.361 -0.487,2.065c0.436,0.704 1.361,0.922 2.065,0.487l4.85,-3c0.704,-0.436 0.922,-1.361 0.487,-2.065c-0.436,-0.704 -1.361,-0.922 -2.065,-0.487Z"/><path d="M60.711,14.224l-4.85,3c-0.704,0.436 -0.922,1.361 -0.487,2.065c0.436,0.704 1.361,0.922 2.065,0.487l4.85,-3c0.704,-0.436 0.922,-1.361 0.487,-2.065c-0.436,-0.704 -1.361,-0.922 -2.065,-0.487Z"/></g></svg>