<?xml version="1.0" encoding="UTF-8" standalone="no"?><!DOCTYPE svg PUBLIC "-//W3C//DTD SVG 1.1//EN" "http://www.w3.org/Graphics/SVG/1.1/DTD/svg11.dtd"><svg width="100%" height="100%" viewBox="0 0 49 79" version="1.1" xmlns="http://www.w3.org/2000/svg" xmlns:xlink="http://www.w3.org/1999/xlink" xml:space="preserve" xmlns:serif="http://www.serif.com/" style="fill-rule:evenodd;clip-rule:evenodd;stroke-linejoin:round;stroke-miterlimit:2;"><g><path d="M15.65,27.45c-0.167,-0.433 -0.25,-1.267 -0.25,-2.5c-0.833,1.067 -1.55,2.617 -2.15,4.65c0.6,0.733 1.067,1.267 1.4,1.6c0.067,1.133 0.317,4.167 0.75,9.1c0.367,3.8 0.55,6.833 0.55,9.1c0,1.033 -0.75,1.867 -2.25,2.5c-1.167,0.467 -2.367,0.7 -3.6,0.7c-3.533,0 -5.3,-1.45 -5.3,-4.35c-0,-0.1 0.167,-1.333 0.5,-3.7c-0.667,0.567 -1.2,1.583 -1.6,3.05c-0.333,1.2 -0.5,2.35 -0.5,3.45c0,2.1 0.433,3.6 1.3,4.5c0.933,0.967 2.467,1.45 4.6,1.45c5.7,-0 8.55,-3.933 8.55,-11.8c-0,-3.967 -0.433,-8.15 -1.3,-12.55c0.467,-0.233 0.8,-0.8 1,-1.7c0.1,-0.733 0.2,-1.45 0.3,-2.15c-1.033,-0.133 -1.7,-0.583 -2,-1.35Z"/><path d="M37.35,35.95c-0.933,-0 -1.767,0.717 -2.5,2.15c-0.633,1.2 -0.95,2.317 -0.95,3.35c-0,0.833 0.217,1.533 0.65,2.1c0.5,0.567 1.167,0.85 2,0.85c0.9,-0 1.85,-0.367 2.85,-1.1c0.667,1 1,1.667 1,2c-0,0.333 -0.55,0.65 -1.65,0.95c-0.967,0.267 -1.7,0.4 -2.2,0.4l-5.55,-0c-2.542,-0.054 -4.209,-0.587 -5,-1.6c-0.7,-0.867 -1.05,-2.733 -1.05,-5.6l0,-13.4c-0.433,0.433 -0.867,0.85 -1.3,1.25c-0.3,0.4 -0.45,0.95 -0.45,1.65c0,5.567 0.033,9.15 0.1,10.75c0.2,5.4 0.75,8.65 1.65,9.75c0.733,0.9 1.75,1.35 3.05,1.35l6.9,0c1.667,0 3.183,-0.683 4.55,-2.05c1.367,-1.333 2.05,-2.817 2.05,-4.45c0,-3.567 -0.983,-6.133 -2.95,-7.7c-0.6,-0.433 -1,-0.65 -1.2,-0.65Zm-0.6,5.9c-0.167,0 -0.417,-0.083 -0.75,-0.25l-0.75,-0.3c0.2,-0.667 0.367,-1.083 0.5,-1.25c0.1,-0.133 0.433,-0.383 1,-0.75c0.633,0.4 1.15,0.933 1.55,1.6l-0,0.55c-0.767,0.267 -1.283,0.4 -1.55,0.4Z"/><path d="M42.1,32.05l-2.25,-2.1l-2.25,2.15l2.25,2.1l2.25,-2.15Z"/><path d="M37.6,32.1l-2.15,-2.15l-2.25,2.1l2.2,2.15l2.2,-2.1Z"/><path d="M32.511,19.624l-4.85,3c-0.704,0.436 -0.922,1.361 -0.487,2.065c0.436,0.704 1.361,0.922 2.065,0.487l4.85,-3c0.704,-0.436 0.922,-1.361 0.487,-2.065c-0.436,-0.704 -1.361,-0.922 -2.065,-0.487Z"/><path d="M14.211,18.624l-4.85,3c-0.704,0.436 -0.922,1.361 -0.487,2.065c0.436,0.704 1.361,0.922 2.065,0.487l4.85,-3c0.704,-0.436 0.922,-1.361 0.487,-2.065c-0.436,-0.704 -1.361,-0.922 -2.065,-0.487Z"/></g></svg>