<?xml version="1.0" encoding="UTF-8" standalone="no"?><!DOCTYPE svg PUBLIC "-//W3C//DTD SVG 1.1//EN" "http://www.w3.org/Graphics/SVG/1.1/DTD/svg11.dtd"><svg width="100%" height="100%" viewBox="0 0 68 85" version="1.1" xmlns="http://www.w3.org/2000/svg" xmlns:xlink="http://www.w3.org/1999/xlink" xml:space="preserve" xmlns:serif="http://www.serif.com/" style="fill-rule:evenodd;clip-rule:evenodd;stroke-linejoin:round;stroke-miterlimit:2;"><g><path d="M44.8,57.75l-2.55,-2.45l-2.55,2.45l2.55,2.4l2.55,-2.4Z"/><path d="M31.3,43.5c-1.033,1.633 -1.733,2.617 -2.1,2.95c-0.467,0.367 -1.217,0.55 -2.25,0.55l-1.65,0c-0.274,-0.011 -0.541,-0.028 -0.8,-0.05c-1.533,0 -2.4,-0.017 -2.6,-0.05c-0.667,-0.133 -1.383,-0.567 -2.15,-1.3c-0.167,1.067 -0.417,1.967 -0.75,2.7c0,0.067 0.333,0.617 1,1.65c0.6,0.867 0.9,1.333 0.9,1.4c0,0.967 -1.133,2.217 -3.4,3.75c-2.167,1.5 -3.8,2.25 -4.9,2.25c-0.467,0 -1.117,-0.1 -1.95,-0.3c-0.667,-0.167 -1.317,-0.317 -1.95,-0.45c0.833,0.933 1.8,1.683 2.9,2.25c1.233,0.7 2.417,1.05 3.55,1.05c1.533,-0 3.083,-1.083 4.65,-3.25c1.4,-1.9 2.2,-3.667 2.4,-5.3c0.24,-0.15 0.506,-0.233 0.8,-0.25l3.85,0c0.867,0 1.55,-0.3 2.05,-0.9c0.1,-0.1 0.517,-0.75 1.25,-1.95c0.367,0.633 0.9,1.233 1.6,1.8c0.8,0.7 1.5,1.05 2.1,1.05l4.9,0c0.833,0 1.517,-0.3 2.05,-0.9c0.167,-0.167 0.583,-0.817 1.25,-1.95c0.833,1.2 1.267,1.833 1.3,1.9c0.6,0.633 1.267,0.95 2,0.95l6.05,0c1.933,0 3.533,-0.717 4.8,-2.15c1.233,-1.367 1.85,-3 1.85,-4.9c-0,-1.4 -0.417,-2.65 -1.25,-3.75c-0.633,-0.867 -1.617,-1.733 -2.95,-2.6c-1.133,-0.733 -2.283,-1.467 -3.45,-2.2c0.9,-0.867 2.983,-2.083 6.25,-3.65c0.6,-0.267 2.9,-1.3 6.9,-3.1l0.75,-3.5c-2.633,0.533 -5.783,1.933 -9.45,4.2c-4.233,2.6 -6.35,4.95 -6.35,7.05c0,1.267 0.667,2.35 2,3.25c1.2,0.7 2.417,1.4 3.65,2.1c1.333,0.833 2,1.767 2,2.8c0,1.567 -2.267,2.35 -6.8,2.35l-1,0l-0,-0.05c-2.2,0 -3.5,-0.1 -3.9,-0.3c-0.833,-0.367 -1.25,-1.467 -1.25,-3.3c-0.633,0.5 -1.067,1.133 -1.3,1.9c-0.2,0.633 -0.533,1.05 -1,1.25c-0.767,0.3 -2.333,0.45 -4.7,0.45l0,0.05c-0.784,0.067 -1.318,0.1 -1.6,0.1c-1.133,0 -1.933,-0.217 -2.4,-0.65c-0.567,-0.533 -0.867,-1.517 -0.9,-2.95Z"/><path d="M28.7,59.3l2.2,-2.15l-2.2,-2.15l-2.25,2.15l2.25,2.15Z"/><path d="M35.35,57.15l-2.25,-2.1l-2.2,2.1l2.2,2.15l2.25,-2.15Z"/><path d="M23.2,27.25c0,-0.433 -0.267,-0.833 -0.8,-1.2c0.433,-0.9 0.65,-1.583 0.65,-2.05c-0,-0.333 -0.133,-0.65 -0.4,-0.95c-0.267,-0.3 -0.583,-0.45 -0.95,-0.45c-0.633,0 -1.2,0.3 -1.7,0.9c-0.533,0.6 -0.8,1.167 -0.8,1.7c0,0.667 0.45,1.233 1.35,1.7c-0.867,0.833 -1.683,1.367 -2.45,1.6c0.067,-0.767 0.1,-1.233 0.1,-1.4c0,-1.367 -0.467,-2.05 -1.4,-2.05c-0.5,-0 -0.917,0.233 -1.25,0.7c-0.3,0.367 -0.45,0.8 -0.45,1.3c-0,0.267 0.083,0.583 0.25,0.95c0.1,-0.933 0.433,-1.4 1,-1.4c0.267,0 0.5,0.1 0.7,0.3c0.167,0.233 0.25,0.467 0.25,0.7c-0,0.4 -0.283,1.183 -0.85,2.35c1.067,-0.2 1.967,-0.5 2.7,-0.9c0.6,-0.367 1.317,-0.95 2.15,-1.75c0.4,0.3 1.017,0.667 1.85,1.1c0.033,-0.7 0.05,-1.083 0.05,-1.15Zm-2.9,-3.05l0.15,-0.3c0.167,-0.1 0.283,-0.15 0.35,-0.15c0.567,-0 0.85,0.333 0.85,1l-0.1,0.7c-0.833,-0.533 -1.25,-0.95 -1.25,-1.25Z"/><path d="M44.005,62.928l-4.8,3c-0.702,0.439 -0.916,1.365 -0.477,2.067c0.439,0.702 1.365,0.916 2.067,0.477l4.8,-3c0.702,-0.439 0.916,-1.365 0.477,-2.067c-0.439,-0.702 -1.365,-0.916 -2.067,-0.477Z"/><path d="M58.111,17.224l-4.85,3c-0.704,0.436 -0.922,1.361 -0.487,2.065c0.436,0.704 1.361,0.922 2.065,0.487l4.85,-3c0.704,-0.436 0.922,-1.361 0.487,-2.065c-0.436,-0.704 -1.361,-0.922 -2.065,-0.487Z"/></g></svg>