<?xml version="1.0" encoding="UTF-8" standalone="no"?><!DOCTYPE svg PUBLIC "-//W3C//DTD SVG 1.1//EN" "http://www.w3.org/Graphics/SVG/1.1/DTD/svg11.dtd"><svg width="100%" height="100%" viewBox="0 0 45 92" version="1.1" xmlns="http://www.w3.org/2000/svg" xmlns:xlink="http://www.w3.org/1999/xlink" xml:space="preserve" xmlns:serif="http://www.serif.com/" style="fill-rule:evenodd;clip-rule:evenodd;stroke-linejoin:round;stroke-miterlimit:2;"><g><path d="M23.85,56.4l-0.85,-0c-0.933,-0 -1.633,-0.133 -2.1,-0.4c-0.4,-0.233 -1.067,-0.917 -2,-2.05l-1.7,3c0.867,1.3 1.4,2.15 1.6,2.55c0.433,0.9 0.65,1.833 0.65,2.8c0,1.333 -0.833,2.333 -2.5,3c-1.233,0.5 -2.667,0.75 -4.3,0.75c-4.233,-0 -6.35,-1.6 -6.35,-4.8c-0,-0.567 0.3,-1.983 0.9,-4.25c-0.733,0.333 -1.367,1.333 -1.9,3c-0.467,1.4 -0.7,2.617 -0.7,3.65c0,4.233 2.2,6.35 6.6,6.35c2.933,0 5.317,-0.867 7.15,-2.6c1.833,-1.733 2.75,-4.017 2.75,-6.85l4.05,-0l-0,-0.1l2.15,0c0.767,0 1.45,-0.383 2.05,-1.15c0.433,-0.733 0.883,-1.45 1.35,-2.15c1.267,0.8 1.967,1.233 2.1,1.3c0.867,0.467 1.65,0.7 2.35,0.7c1.1,-0 1.933,-0.5 2.5,-1.5c0.467,-0.833 0.7,-1.833 0.7,-3c0,-0.933 -0.35,-2.117 -1.05,-3.55c-0.8,-1.6 -1.617,-2.4 -2.45,-2.4c-0.733,-0 -1.55,0.55 -2.45,1.65c-0.733,1.1 -1.483,2.2 -2.25,3.3c-0.9,1.3 -1.717,2.1 -2.45,2.4c-0.433,0.167 -1.717,0.25 -3.85,0.25l0,0.1Zm12.25,-0.9l-0.75,0.2c-0.433,-0 -1.517,-0.55 -3.25,-1.65c0.733,-1.367 1.283,-2.05 1.65,-2.05c0.633,-0 1.167,0.367 1.6,1.1c0.167,0.233 0.417,0.733 0.75,1.5l0,0.9Z"/><path d="M15.35,50.55l-2.55,-2.45l-2.55,2.45l2.55,2.4l2.55,-2.4Z"/><path d="M11.3,36.25c-0.3,0.5 -0.45,1.15 -0.45,1.95c0,1.233 0.55,1.85 1.65,1.85c0.7,0 1.283,-0.25 1.75,-0.75c0.467,-0.533 0.7,-1.133 0.7,-1.8c0,-0.533 -0.167,-1.033 -0.5,-1.5c-0.4,-0.5 -0.883,-0.75 -1.45,-0.75c-0.733,-0 -1.3,0.333 -1.7,1Zm2.75,1.65c-0,0.4 -0.4,0.6 -1.2,0.6c-1,-0 -1.5,-0.3 -1.5,-0.9c0,-0.667 0.317,-1 0.95,-1c0.3,0 0.65,0.15 1.05,0.45c0.467,0.3 0.7,0.583 0.7,0.85Z"/><path d="M35.911,63.924l-4.85,3c-0.704,0.436 -0.922,1.361 -0.487,2.065c0.436,0.704 1.361,0.922 2.065,0.487l4.85,-3c0.704,-0.436 0.922,-1.361 0.487,-2.065c-0.436,-0.704 -1.361,-0.922 -2.065,-0.487Z"/></g></svg>