<?xml version="1.0" encoding="UTF-8" standalone="no"?><!DOCTYPE svg PUBLIC "-//W3C//DTD SVG 1.1//EN" "http://www.w3.org/Graphics/SVG/1.1/DTD/svg11.dtd"><svg width="100%" height="100%" viewBox="0 0 110 85" version="1.1" xmlns="http://www.w3.org/2000/svg" xmlns:xlink="http://www.w3.org/1999/xlink" xml:space="preserve" xmlns:serif="http://www.serif.com/" style="fill-rule:evenodd;clip-rule:evenodd;stroke-linejoin:round;stroke-miterlimit:2;"><g><path d="M26.5,46.7c-0.4,-0.233 -1.067,-0.917 -2,-2.05l-1.7,3c0.867,1.3 1.4,2.15 1.6,2.55c0.433,0.9 0.65,1.833 0.65,2.8c-0,1.333 -0.833,2.333 -2.5,3c-1.233,0.5 -2.667,0.75 -4.3,0.75c-4.233,0 -6.35,-1.6 -6.35,-4.8c-0,-0.567 0.3,-1.983 0.9,-4.25c-0.733,0.333 -1.367,1.333 -1.9,3c-0.467,1.4 -0.7,2.617 -0.7,3.65c0,4.233 2.2,6.35 6.6,6.35c2.933,0 5.317,-0.867 7.15,-2.6c1.833,-1.733 2.75,-4.017 2.75,-6.85l2.75,0l0,-4.15l-0.85,0c-0.933,0 -1.633,-0.133 -2.1,-0.4Z"/><path d="M65.95,25.8c-1.533,1.933 -2.283,3.083 -2.25,3.45l0.55,22.05c1.267,-1 1.9,-3.667 1.9,-8l-0.2,-17.5Z"/><path d="M56.55,25.9c-0,0.167 -0.05,0.417 -0.15,0.75c-0.1,0.333 -0.15,0.567 -0.15,0.7c-0,0.467 0.333,1.017 1,1.65c0.633,0.633 0.95,1.05 0.95,1.25c0,0.5 -0.183,1.167 -0.55,2c-0.4,0.767 -0.6,1.333 -0.6,1.7l0.4,6.3l0,3.85c0,1.833 -0.267,3.367 -0.8,4.6c-0.733,1.7 -1.917,2.55 -3.55,2.55l-3.25,0l0,-4.15l1.7,0l0.6,0.05c2.267,0.033 3.4,-0.533 3.4,-1.7c-0,-6.1 -0.25,-10.65 -0.75,-13.65c-0.767,-0.867 -1.217,-1.567 -1.35,-2.1c0.767,-2.033 1.783,-3.467 3.05,-4.3l0.05,0.5Z"/><path d="M83.85,46.7c-0.4,-0.233 -1.067,-0.917 -2,-2.05l-1.7,3c0.867,1.3 1.4,2.15 1.6,2.55c0.433,0.9 0.65,1.833 0.65,2.8c-0,1.333 -0.833,2.333 -2.5,3c-1.233,0.5 -2.667,0.75 -4.3,0.75c-4.233,0 -6.35,-1.6 -6.35,-4.8c-0,-0.567 0.3,-1.983 0.9,-4.25c-0.733,0.333 -1.367,1.333 -1.9,3c-0.467,1.4 -0.7,2.617 -0.7,3.65c-0,4.233 2.2,6.35 6.6,6.35c2.933,0 5.317,-0.867 7.15,-2.6c1.833,-1.733 2.75,-4.017 2.75,-6.85l4.05,0l0,-0.1l2.15,-0c0.767,-0 1.45,-0.383 2.05,-1.15c0.433,-0.733 0.883,-1.45 1.35,-2.15c1.267,0.8 1.967,1.233 2.1,1.3c0.867,0.467 1.65,0.7 2.35,0.7c1.1,0 1.933,-0.5 2.5,-1.5c0.467,-0.833 0.7,-1.833 0.7,-3c-0,-0.933 -0.35,-2.117 -1.05,-3.55c-0.8,-1.6 -1.617,-2.4 -2.45,-2.4c-0.733,-0 -1.55,0.55 -2.45,1.65c-0.733,1.1 -1.483,2.2 -2.25,3.3c-0.9,1.3 -1.717,2.1 -2.45,2.4c-0.433,0.167 -1.717,0.25 -3.85,0.25l-0,0.1l-0.85,0c-0.933,0 -1.633,-0.133 -2.1,-0.4Zm11.2,-1.95c0.733,-1.367 1.283,-2.05 1.65,-2.05c0.633,0 1.167,0.367 1.6,1.1c0.167,0.233 0.417,0.733 0.75,1.5l-0,0.9l-0.75,0.2c-0.433,-0 -1.517,-0.55 -3.25,-1.65Z"/><path d="M18.4,43.65l2.55,-2.4l-2.55,-2.45l-2.55,2.45l2.55,2.4Z"/><path d="M78.3,41.25l-2.55,-2.45l-2.55,2.45l2.55,2.4l2.55,-2.4Z"/><path d="M18.8,31.25c0.233,0.167 0.5,0.25 0.8,0.25c0.867,0 1.3,-0.683 1.3,-2.05c-0,-0.333 -0.05,-0.717 -0.15,-1.15l-0.3,0.15c0,1.167 -0.283,1.75 -0.85,1.75c-0.267,0 -0.5,-0.383 -0.7,-1.15l-0.2,0.05c-0.133,0.6 -0.233,1 -0.3,1.2c-0.2,0.5 -0.483,0.75 -0.85,0.75c-0.333,-0 -0.5,-0.45 -0.5,-1.35l-0.25,0.05c-0.2,0.633 -0.3,1.033 -0.3,1.2c0,0.333 0.083,0.633 0.25,0.9c0.167,0.267 0.433,0.4 0.8,0.4c0.267,0 0.533,-0.1 0.8,-0.3c0.267,-0.2 0.417,-0.433 0.45,-0.7Z"/><path d="M33.65,21.7c-0.333,0 -0.5,-0.45 -0.5,-1.35l-0.25,0.05c-0.2,0.633 -0.3,1.033 -0.3,1.2c0,0.333 0.083,0.633 0.25,0.9c0.167,0.267 0.433,0.4 0.8,0.4c0.267,-0 0.533,-0.1 0.8,-0.3c0.267,-0.2 0.417,-0.433 0.45,-0.7c0.233,0.167 0.5,0.25 0.8,0.25c0.867,-0 1.3,-0.683 1.3,-2.05c0,-0.333 -0.05,-0.717 -0.15,-1.15l-0.3,0.15c-0,1.167 -0.283,1.75 -0.85,1.75c-0.267,0 -0.5,-0.383 -0.7,-1.15l-0.2,0.05c-0.133,0.6 -0.233,1 -0.3,1.2c-0.2,0.5 -0.483,0.75 -0.85,0.75Z"/><path d="M32.65,28.8c-0,0.267 0.2,0.65 0.6,1.15c0.367,0.467 0.55,0.783 0.55,0.95l-0,13.75c-1.133,1.1 -2,1.917 -2.6,2.45l-1.75,0l0,4.15l20.4,0l0,-3.9c-0.272,0.041 -0.572,0.091 -0.9,0.15c-1.167,0.233 -1.95,0.333 -2.35,0.3l-0.6,-0.05c2,-2 3,-3.683 3,-5.05c0,-0.933 -0.45,-1.767 -1.35,-2.5c-0.867,-0.7 -1.8,-1.05 -2.8,-1.05c-1.133,-0 -2.733,0.633 -4.8,1.9c-1.5,0.933 -3.017,1.883 -4.55,2.85l-0.15,-11.7c0.5,-0.3 0.933,-0.85 1.3,-1.65c0.067,-0.2 0.267,-0.867 0.6,-2c-1.367,-0.633 -2.05,-1.45 -2.05,-2.45c0,-0.433 0.05,-0.967 0.15,-1.6c-0.433,0.367 -0.983,1.05 -1.65,2.05c-0.7,1.067 -1.05,1.817 -1.05,2.25Zm11.6,14.65c1.033,0.367 1.55,0.817 1.55,1.35c-0,0.833 -1.55,1.567 -4.65,2.2c-2.433,0.5 -4.333,0.75 -5.7,0.75c-0.567,-0 -1.117,-0.067 -1.65,-0.2c3.233,-3.033 5.967,-4.55 8.2,-4.55c0.667,-0 1.417,0.15 2.25,0.45Z" style="fill:#f00;"/><path d="M51.25,47.1l0.3,0c-0.084,0.006 -0.184,0.006 -0.3,0Z" style="fill:#f00;"/><path d="M44.6,32.9l-2.55,-2.45l-2.5,2.45l2.5,2.4l2.55,-2.4Z" style="fill:#f00;"/><path d="M19.611,64.324l-4.85,3c-0.704,0.436 -0.922,1.361 -0.487,2.065c0.436,0.704 1.361,0.922 2.065,0.487l4.85,-3c0.704,-0.436 0.922,-1.361 0.487,-2.065c-0.436,-0.704 -1.361,-0.922 -2.065,-0.487Z"/><path d="M99.855,58.328l-4.8,3c-0.702,0.439 -0.916,1.365 -0.477,2.067c0.439,0.702 1.365,0.916 2.067,0.477l4.8,-3c0.702,-0.439 0.916,-1.365 0.477,-2.067c-0.439,-0.702 -1.365,-0.916 -2.067,-0.477Z"/><path d="M77.311,23.574l-4.85,3c-0.704,0.436 -0.922,1.361 -0.487,2.065c0.436,0.704 1.361,0.922 2.065,0.487l4.85,-3c0.704,-0.436 0.922,-1.361 0.487,-2.065c-0.436,-0.704 -1.361,-0.922 -2.065,-0.487Z"/><path d="M36.211,11.924l-4.85,3c-0.704,0.436 -0.922,1.361 -0.487,2.065c0.436,0.704 1.361,0.922 2.065,0.487l4.85,-3c0.704,-0.436 0.922,-1.361 0.487,-2.065c-0.436,-0.704 -1.361,-0.922 -2.065,-0.487Z"/></g></svg>