<?xml version="1.0" encoding="UTF-8" standalone="no"?><!DOCTYPE svg PUBLIC "-//W3C//DTD SVG 1.1//EN" "http://www.w3.org/Graphics/SVG/1.1/DTD/svg11.dtd"><svg width="100%" height="100%" viewBox="0 0 50 79" version="1.1" xmlns="http://www.w3.org/2000/svg" xmlns:xlink="http://www.w3.org/1999/xlink" xml:space="preserve" xmlns:serif="http://www.serif.com/" style="fill-rule:evenodd;clip-rule:evenodd;stroke-linejoin:round;stroke-miterlimit:2;"><g><path d="M73.2,44.313c0.15,0.491 0.367,0.87 0.65,1.137c0.467,0.433 1.267,0.65 2.4,0.65c0.3,0 0.883,-0.033 1.75,-0.1c0.034,-0.001 0.067,-0.001 0.1,0c0.385,-0.016 0.735,-0.033 1.05,-0.05l0.95,-0l0,4.15l-4.6,0c-0.6,0 -1.3,-0.35 -2.1,-1.05c-0.7,-0.567 -1.233,-1.167 -1.6,-1.8c-0.733,1.2 -1.15,1.85 -1.25,1.95c-0.5,0.6 -1.183,0.9 -2.05,0.9l-3.85,0c-0.294,0.017 -0.56,0.1 -0.8,0.25c-0.2,1.633 -1,3.4 -2.4,5.3c-1.567,2.167 -3.117,3.25 -4.65,3.25c-1.133,-0 -2.317,-0.35 -3.55,-1.05c-1.1,-0.567 -2.067,-1.317 -2.9,-2.25c0.633,0.133 1.283,0.283 1.95,0.45c0.833,0.2 1.483,0.3 1.95,0.3c1.1,0 2.733,-0.75 4.9,-2.25c2.267,-1.533 3.4,-2.783 3.4,-3.75c-0,-0.067 -0.3,-0.533 -0.9,-1.4c-0.667,-1.033 -1,-1.583 -1,-1.65c0.333,-0.733 0.583,-1.633 0.75,-2.7c0.767,0.733 1.483,1.167 2.15,1.3c0.2,0.033 1.067,0.05 2.6,0.05c0.259,0.022 0.526,0.039 0.8,0.05l1.65,0c1.033,0 1.783,-0.183 2.25,-0.55c0.367,-0.333 1.067,-1.317 2.1,-2.95l0.25,1.813Z"/><path d="M47.35,44.05c0,-0.933 -0.35,-2.117 -1.05,-3.55c-0.8,-1.6 -1.617,-2.4 -2.45,-2.4c-0.733,0 -1.55,0.55 -2.45,1.65c-0.733,1.1 -1.483,2.2 -2.25,3.3c-0.9,1.3 -1.717,2.1 -2.45,2.4c-0.433,0.167 -1.717,0.25 -3.85,0.25l0,0.05c-1.154,-0.027 -1.871,-0.111 -2.15,-0.25c-0.833,-0.367 -1.25,-1.467 -1.25,-3.3c-0.633,0.5 -1.067,1.133 -1.3,1.9c-0.2,0.633 -0.533,1.05 -1,1.25c-0.676,0.264 -1.976,0.414 -3.9,0.45l-0.4,0c-1.366,-0.033 -2.149,-0.099 -2.35,-0.2c-0.933,-0.4 -1.717,-2.1 -2.35,-5.1c-0.467,-2.367 -0.7,-4.35 -0.7,-5.95c-0.967,1.133 -1.433,1.867 -1.4,2.2l0.25,2.75c-2.133,1.1 -3.667,2.1 -4.6,3c-1.4,1.333 -2.1,2.933 -2.1,4.8c0,0.667 0.8,1 2.4,1c1.467,0 2.517,-0.133 3.15,-0.4c0.8,-0.333 1.617,-1.05 2.45,-2.15c0.367,0.867 0.733,1.75 1.1,2.65c0.567,1.033 1.283,1.55 2.15,1.55l4.15,-0c0.833,-0 1.517,-0.3 2.05,-0.9c0.167,-0.167 0.583,-0.817 1.25,-1.95c0.833,1.2 1.267,1.833 1.3,1.9c0.6,0.633 1.267,0.95 2,0.95l3,-0l0,-0.1l1.7,0c0.767,0 1.45,-0.383 2.05,-1.15c0.433,-0.733 0.883,-1.45 1.35,-2.15c1.267,0.8 1.967,1.233 2.1,1.3c0.867,0.467 1.65,0.7 2.35,0.7c1.1,0 1.933,-0.5 2.5,-1.5c0.467,-0.833 0.7,-1.833 0.7,-3Zm-6.25,-0.6c0.733,-1.367 1.283,-2.05 1.65,-2.05c0.633,-0 1.167,0.367 1.6,1.1c0.167,0.233 0.417,0.733 0.75,1.5l0,0.9l-0.75,0.2c-0.433,0 -1.517,-0.55 -3.25,-1.65Zm-25.4,0.35c-0.633,0.167 -1.133,0.25 -1.5,0.25c-0.433,0 -1,-0.117 -1.7,-0.35c1.433,-0.933 2.75,-1.667 3.95,-2.2c0.267,0.933 0.4,1.483 0.4,1.65c0,0.233 -0.383,0.45 -1.15,0.65Z"/><path d="M28.15,37.85l2.55,-2.4l-2.5,-2.45l-2.55,2.45l2.5,2.4Z"/><path d="M15.25,26.1c0.367,-0.7 0.55,-1.267 0.55,-1.7c-0,-0.867 -0.417,-1.3 -1.25,-1.3c-0.6,0 -1.133,0.3 -1.6,0.9c-0.4,0.533 -0.6,1.05 -0.6,1.55c0,0.433 0.383,0.867 1.15,1.3c-1.4,1.033 -2.75,1.8 -4.05,2.3c0.467,0.133 0.833,0.2 1.1,0.2c1.033,0 2.283,-0.7 3.75,-2.1c0.6,0.333 1.1,0.583 1.5,0.75l0.15,-1.45c-0.3,-0.2 -0.533,-0.35 -0.7,-0.45Zm-0.6,-0.85c-0,0.133 -0.033,0.283 -0.1,0.45c-0.833,-0.367 -1.25,-0.717 -1.25,-1.05c0.067,-0.167 0.183,-0.267 0.35,-0.3c0.667,0.1 1,0.4 1,0.9Z"/><path d="M30.05,22.05c-0,-0.533 -0.167,-1.033 -0.5,-1.5c-0.4,-0.5 -0.883,-0.75 -1.45,-0.75c-0.733,0 -1.3,0.333 -1.7,1c-0.3,0.5 -0.45,1.15 -0.45,1.95c0,1.233 0.55,1.85 1.65,1.85c0.7,0 1.283,-0.25 1.75,-0.75c0.467,-0.533 0.7,-1.133 0.7,-1.8Zm-2.65,-0.9c0.3,-0 0.65,0.15 1.05,0.45c0.467,0.3 0.7,0.583 0.7,0.85c-0,0.4 -0.4,0.6 -1.2,0.6c-1,0 -1.5,-0.3 -1.5,-0.9c0,-0.667 0.317,-1 0.95,-1Z"/><path d="M45.261,53.024l-4.85,3c-0.704,0.436 -0.922,1.361 -0.487,2.065c0.436,0.704 1.361,0.922 2.065,0.487l4.85,-3c0.704,-0.436 0.922,-1.361 0.487,-2.065c-0.436,-0.704 -1.361,-0.922 -2.065,-0.487Z"/></g></svg>