<?xml version="1.0" encoding="UTF-8" standalone="no"?><!DOCTYPE svg PUBLIC "-//W3C//DTD SVG 1.1//EN" "http://www.w3.org/Graphics/SVG/1.1/DTD/svg11.dtd"><svg width="100%" height="100%" viewBox="0 0 41 92" version="1.1" xmlns="http://www.w3.org/2000/svg" xmlns:xlink="http://www.w3.org/1999/xlink" xml:space="preserve" xmlns:serif="http://www.serif.com/" style="fill-rule:evenodd;clip-rule:evenodd;stroke-linejoin:round;stroke-miterlimit:2;"><g><path d="M13.55,57.1c-0,-1.2 -0.25,-2.233 -0.75,-3.1c-0.367,-0.633 -1.067,-1.45 -2.1,-2.45l-0.95,3.45c0.533,0.6 1.067,1.183 1.6,1.75c0.7,0.833 1.05,1.483 1.05,1.95c-0,2.2 -1.667,4.1 -5,5.7c-2.833,1.333 -5.533,2 -8.1,2c2.067,1.333 4.117,2 6.15,2c2.333,-0 4.333,-1.367 6,-4.1c1.4,-2.367 2.1,-4.767 2.1,-7.2Z"/><path d="M19.5,36.85c-0.3,0.4 -0.45,0.95 -0.45,1.65c-0,5.567 0.033,9.15 0.1,10.75c0.2,5.4 0.75,8.65 1.65,9.75c0.733,0.9 1.75,1.35 3.05,1.35l3.4,0c2.171,-0.088 3.754,-0.555 4.75,-1.4c1.233,-1 1.85,-2.7 1.85,-5.1c-0,-0.7 -0.317,-2.25 -0.95,-4.65c-0.633,1.467 -1.167,2.567 -1.6,3.3c0.633,1.167 1.033,2.017 1.2,2.55c-0.624,0.749 -2.374,1.133 -5.25,1.15l-0.3,-0c-2.597,-0.039 -4.297,-0.572 -5.1,-1.6c-0.7,-0.867 -1.05,-2.733 -1.05,-5.6l-0,-13.4c-0.433,0.433 -0.867,0.85 -1.3,1.25Z"/><path d="M27.9,43.95l2.55,2.4l2.55,-2.4l-2.55,-2.45l-2.55,2.45Z"/><path d="M27.861,29.224l-4.85,3c-0.704,0.436 -0.922,1.361 -0.487,2.065c0.436,0.704 1.361,0.922 2.065,0.487l4.85,-3c0.704,-0.436 0.922,-1.361 0.487,-2.065c-0.436,-0.704 -1.361,-0.922 -2.065,-0.487Z"/><path d="M8.575,68.195l-4.85,3c-0.704,0.435 -0.922,1.361 -0.486,2.065c0.435,0.704 1.36,0.922 2.064,0.486l4.85,-3c0.704,-0.435 0.922,-1.36 0.487,-2.065c-0.436,-0.704 -1.361,-0.922 -2.065,-0.486Z"/><path d="M8.575,72.983l-4.85,3c-0.704,0.436 -0.922,1.361 -0.486,2.065c0.435,0.704 1.36,0.922 2.064,0.486l4.85,-3c0.704,-0.435 0.922,-1.36 0.487,-2.064c-0.436,-0.704 -1.361,-0.922 -2.065,-0.487Z"/></g></svg>