<?xml version="1.0" encoding="UTF-8" standalone="no"?><!DOCTYPE svg PUBLIC "-//W3C//DTD SVG 1.1//EN" "http://www.w3.org/Graphics/SVG/1.1/DTD/svg11.dtd"><svg width="100%" height="100%" viewBox="0 0 75 79" version="1.1" xmlns="http://www.w3.org/2000/svg" xmlns:xlink="http://www.w3.org/1999/xlink" xml:space="preserve" xmlns:serif="http://www.serif.com/" style="fill-rule:evenodd;clip-rule:evenodd;stroke-linejoin:round;stroke-miterlimit:2;"><g><path d="M50.8,42.2c-1.967,-0 -3.817,-0.317 -5.55,-0.95c-0.8,-0.333 -2.017,-0.95 -3.65,-1.85c-1.2,-0.667 -2.1,-1 -2.7,-1c-1.2,-0 -2.167,0.567 -2.9,1.7c-0.467,0.7 -0.917,1.783 -1.35,3.25c0.5,-0.233 0.983,-0.467 1.45,-0.7c0.567,-0.3 1.067,-0.45 1.5,-0.45c0.6,-0 1.467,0.283 2.6,0.85c0.067,0.033 0.9,0.5 2.5,1.4c-1.167,0.9 -2.167,1.5 -3,1.8c-0.7,0.233 -1.583,0.35 -2.65,0.35l-1.9,0l-0,-0.05l-2.05,0l0,0.05l-0.05,0c-0.867,0.067 -1.45,0.1 -1.75,0.1c-1.133,-0 -1.933,-0.217 -2.4,-0.65c-0.567,-0.533 -0.867,-1.517 -0.9,-2.95c-1.033,1.633 -1.733,2.617 -2.1,2.95c-0.467,0.367 -1.217,0.55 -2.25,0.55l-1.8,0l0,-0.05c-2.233,0 -3.75,-0.133 -4.55,-0.4c-0.567,-0.2 -1.067,-0.617 -1.5,-1.25c-0.567,-0.867 -1.217,-1.567 -1.95,-2.1c-0.367,0.367 -0.6,0.733 -0.7,1.1c0.067,0.167 0.067,0.283 -0,0.35c-1.833,0.467 -3.383,1.233 -4.65,2.3c-1.5,1.3 -2.25,2.783 -2.25,4.45l-0,0.5l1.55,16.05c0.267,-0.333 0.517,-0.783 0.75,-1.35c0.3,-0.667 0.433,-1.167 0.4,-1.5l-1.15,-14.2c0.633,-1.233 1.583,-1.85 2.85,-1.85l0.55,0.2c0,0.933 0.233,1.883 0.7,2.85c0.567,1.167 1.283,1.75 2.15,1.75c1.4,-0 2.1,-1.35 2.1,-4.05c1.3,0.867 2.25,1.3 2.85,1.3l4.55,-0c0.867,-0 1.55,-0.3 2.05,-0.9c0.1,-0.1 0.517,-0.75 1.25,-1.95c0.367,0.633 0.9,1.233 1.6,1.8c0.8,0.7 1.5,1.05 2.1,1.05l5.65,-0c1.2,-0 2.35,-0.3 3.45,-0.9c0.4,-0.233 1.267,-0.85 2.6,-1.85c1,-0.733 1.867,-1.2 2.6,-1.4c0.633,-0.167 1.417,-0.267 2.35,-0.3c0.8,-0.033 1.6,-0.067 2.4,-0.1c0.5,-1.2 0.9,-2.517 1.2,-3.95Z"/><path d="M44.55,59.55l2.55,-2.4l-2.55,-2.45l-2.5,2.45l2.5,2.4Z"/><path d="M27.6,56.75l-2.2,-2.15l-2.25,2.15l2.25,2.15l2.2,-2.15Z"/><path d="M32.05,56.75l-2.25,-2.1l-2.2,2.1l2.2,2.15l2.25,-2.15Z"/><path d="M63.3,44.35c-0.367,-0.633 -1.067,-1.45 -2.1,-2.45l-0.95,3.45c0.533,0.6 1.067,1.183 1.6,1.75c0.7,0.833 1.05,1.483 1.05,1.95c-0,2.2 -1.667,4.1 -5,5.7c-2.833,1.333 -5.533,2 -8.1,2c2.067,1.333 4.117,2 6.15,2c2.333,-0 4.333,-1.367 6,-4.1c1.4,-2.367 2.1,-4.767 2.1,-7.2c-0,-1.2 -0.25,-2.233 -0.75,-3.1Z"/><path d="M88.5,40.75c-0.5,0.933 -1,2.233 -1.5,3.9c0.9,1.167 1.483,1.983 1.75,2.45c0.567,1 0.85,1.95 0.85,2.85c0,1.133 -0.917,2.083 -2.75,2.85c-1.5,0.633 -2.933,0.95 -4.3,0.95c-3.367,-0 -5.05,-1.367 -5.05,-4.1c0,-0.433 0.083,-1.083 0.25,-1.95c0.2,-0.867 0.3,-1.517 0.3,-1.95c-0.7,0.667 -1.25,1.617 -1.65,2.85c-0.4,1.167 -0.6,2.267 -0.6,3.3c-0,1.933 0.6,3.383 1.8,4.35c1.1,0.967 2.667,1.45 4.7,1.45c2.533,-0 4.65,-0.883 6.35,-2.65c1.733,-1.733 2.6,-3.817 2.6,-6.25c0,-3.167 -0.917,-5.85 -2.75,-8.05Z"/><path d="M16.25,25.6c0.033,-0.7 0.05,-1.083 0.05,-1.15c-0,-0.433 -0.267,-0.833 -0.8,-1.2c0.433,-0.9 0.65,-1.583 0.65,-2.05c-0,-0.333 -0.133,-0.65 -0.4,-0.95c-0.267,-0.3 -0.583,-0.45 -0.95,-0.45c-0.633,0 -1.2,0.3 -1.7,0.9c-0.533,0.6 -0.8,1.167 -0.8,1.7c-0,0.667 0.45,1.233 1.35,1.7c-0.867,0.833 -1.683,1.367 -2.45,1.6c0.067,-0.767 0.1,-1.233 0.1,-1.4c-0,-1.367 -0.467,-2.05 -1.4,-2.05c-0.5,-0 -0.917,0.233 -1.25,0.7c-0.3,0.367 -0.45,0.8 -0.45,1.3c0,0.267 0.083,0.583 0.25,0.95c0.1,-0.933 0.433,-1.4 1,-1.4c0.267,0 0.5,0.1 0.7,0.3c0.167,0.233 0.25,0.467 0.25,0.7c-0,0.4 -0.283,1.183 -0.85,2.35c1.067,-0.2 1.967,-0.5 2.7,-0.9c0.6,-0.367 1.317,-0.95 2.15,-1.75c0.4,0.3 1.017,0.667 1.85,1.1Zm-1.5,-3.65l-0.1,0.7c-0.833,-0.533 -1.25,-0.95 -1.25,-1.25l0.15,-0.3c0.167,-0.1 0.283,-0.15 0.35,-0.15c0.567,-0 0.85,0.333 0.85,1Z"/><path d="M46.561,61.674l-4.85,3c-0.704,0.436 -0.922,1.361 -0.487,2.065c0.436,0.704 1.361,0.922 2.065,0.487l4.85,-3c0.704,-0.436 0.922,-1.361 0.487,-2.065c-0.436,-0.704 -1.361,-0.922 -2.065,-0.487Z"/><path d="M61.501,21.18l-4.85,3.05c-0.7,0.441 -0.912,1.368 -0.471,2.069c0.441,0.7 1.368,0.912 2.069,0.471l4.85,-3.05c0.7,-0.441 0.912,-1.368 0.471,-2.069c-0.441,-0.7 -1.368,-0.912 -2.069,-0.471Z"/></g></svg>