<?xml version="1.0" encoding="UTF-8" standalone="no"?><!DOCTYPE svg PUBLIC "-//W3C//DTD SVG 1.1//EN" "http://www.w3.org/Graphics/SVG/1.1/DTD/svg11.dtd"><svg width="100%" height="100%" viewBox="0 0 25 33" version="1.1" xmlns="http://www.w3.org/2000/svg" xmlns:xlink="http://www.w3.org/1999/xlink" xml:space="preserve" xmlns:serif="http://www.serif.com/" style="fill-rule:evenodd;clip-rule:evenodd;stroke-linejoin:round;stroke-miterlimit:2;"><g><path d="M22.2,16.3l-0,-2.7l-5,0l-0,2.7l5,0Z"/><path d="M14.35,10.85c-0.333,0.433 -1.083,0.7 -2.25,0.8l0,1.1c0.5,0.7 1.483,1.05 2.95,1.05c0.4,0 1,-0.033 1.8,-0.1c0.123,-0.011 0.239,-0.027 0.35,-0.05l-0,2.65l-3.15,0c-0.933,0 -1.633,-0.367 -2.1,-1.1c-0.4,-0.6 -0.6,-1.35 -0.6,-2.25c0,-0.367 0.033,-0.717 0.1,-1.05l-0.2,-0.15c-1.667,0 -3.283,0.983 -4.85,2.95c-1.467,1.833 -2.2,3.5 -2.2,5c-0,1.9 1.083,3.267 3.25,4.1c1.567,0.6 3.617,0.9 6.15,0.9c0.467,-0 1.15,-0.033 2.05,-0.1c0.933,-0.1 1.617,-0.15 2.05,-0.15l1.7,-0c-0.967,0.767 -2.233,1.383 -3.8,1.85c-1.433,0.433 -2.867,0.65 -4.3,0.65c-3.1,-0 -5.25,-0.483 -6.45,-1.45c-1.267,-1 -1.9,-2.783 -1.9,-5.35c-0,-3.2 1.55,-6.117 4.65,-8.75c-0.5,-0.233 -0.967,-0.35 -1.4,-0.35c-1.1,0 -2.083,0.567 -2.95,1.7l0,-0.3c-0.067,-1 0.317,-1.883 1.15,-2.65c0.833,-0.767 1.85,-1.15 3.05,-1.15l4.5,0.5c1.033,-0 2.1,-0.167 3.2,-0.5l-0.8,2.2Z" style="fill:#f00;"/><path d="M6.05,3.3l1.9,1.6l1.85,-1.6l-1.85,-1.55l-1.9,1.55Z" style="fill:#f00;"/></g></svg>