<?xml version="1.0" encoding="UTF-8" standalone="no"?><!DOCTYPE svg PUBLIC "-//W3C//DTD SVG 1.1//EN" "http://www.w3.org/Graphics/SVG/1.1/DTD/svg11.dtd"><svg width="100%" height="100%" viewBox="0 0 23 39" version="1.1" xmlns="http://www.w3.org/2000/svg" xmlns:xlink="http://www.w3.org/1999/xlink" xml:space="preserve" xmlns:serif="http://www.serif.com/" style="fill-rule:evenodd;clip-rule:evenodd;stroke-linejoin:round;stroke-miterlimit:2;"><g><path d="M7.25,27.2l0,-0.65l-5,0l0,3.4l4.3,-0l0,-2.75l0.7,-0Z"/><path d="M9.3,8.2c-0.033,-0.133 -0.067,-0.183 -0.1,-0.15c-0.133,0.067 -0.267,0.183 -0.4,0.35c-0.1,0.167 -0.2,0.367 -0.3,0.6c-0.067,0.233 -0.133,0.483 -0.2,0.75c-0.067,0.233 -0.117,0.483 -0.15,0.75c0.033,0.367 0.067,0.683 0.1,0.95c0.067,0.267 0.117,0.5 0.15,0.7c0.033,0.167 0.067,0.317 0.1,0.45c0.033,0.1 0.067,0.2 0.1,0.3c0.067,0.567 0.15,1.25 0.25,2.05c0.1,0.8 0.2,1.65 0.3,2.55c0.1,0.9 0.2,1.817 0.3,2.75c0.067,0.9 0.133,1.733 0.2,2.5c0.067,0.767 0.1,1.433 0.1,2c0,0.567 -0.033,0.95 -0.1,1.15c-0.233,0.233 -0.45,0.45 -0.65,0.65c-0.233,0.233 -0.467,0.45 -0.7,0.65l-1.75,-0l0,2.75l1.35,-0c0.733,-0 1.417,-0.033 2.05,-0.1c0.633,-0.067 1.25,-0.133 1.85,-0.2c0.6,-0.067 1.167,-0.15 1.7,-0.25c0.567,-0.1 1.117,-0.2 1.65,-0.3c0.433,-0.1 0.883,-0.233 1.35,-0.4c0.433,-0.167 0.867,-0.367 1.3,-0.6c0.433,-0.267 0.85,-0.55 1.25,-0.85c0.4,-0.333 0.75,-0.683 1.05,-1.05c0.267,-0.4 0.5,-0.817 0.7,-1.25c0.167,-0.433 0.25,-0.883 0.25,-1.35c0,-0.233 -0.067,-0.45 -0.2,-0.65c-0.133,-0.2 -0.317,-0.383 -0.55,-0.55c-0.2,-0.167 -0.433,-0.317 -0.7,-0.45c-0.267,-0.167 -0.517,-0.283 -0.75,-0.35c-0.267,-0.1 -0.5,-0.183 -0.7,-0.25c-0.233,-0.067 -0.417,-0.1 -0.55,-0.1c-0.367,0.033 -0.7,0.067 -1,0.1c-0.267,0 -0.533,0.05 -0.8,0.15c-0.267,0.1 -0.533,0.233 -0.8,0.4c-0.3,0.167 -0.633,0.383 -1,0.65c-0.333,0.267 -0.733,0.6 -1.2,1c-0.5,0.4 -1.067,0.9 -1.7,1.5l-0.4,0.2c0.067,-0.433 0.117,-0.833 0.15,-1.2c0,-0.333 0.017,-0.667 0.05,-1l-0,-1c-0.033,-0.333 -0.067,-0.7 -0.1,-1.1c-0.033,-0.4 -0.067,-0.85 -0.1,-1.35c-0.067,-0.5 -0.133,-1.067 -0.2,-1.7c-0.1,-0.633 -0.183,-1.35 -0.25,-2.15c-0.1,-0.8 -0.217,-1.733 -0.35,-2.8c0.1,-0.133 0.2,-0.35 0.3,-0.65c0.1,-0.3 0.183,-0.583 0.25,-0.85c0.067,-0.267 0.133,-0.483 0.2,-0.65l0.05,-0.15l-0,-0.2c-0.033,-0.067 -0.083,-0.167 -0.15,-0.3c-0.1,-0.1 -0.233,-0.25 -0.4,-0.45c-0.167,-0.167 -0.383,-0.383 -0.65,-0.65c-0.033,0.067 -0.067,0.05 -0.1,-0.05c-0,-0.133 -0.017,-0.267 -0.05,-0.4c0,-0.167 -0.017,-0.3 -0.05,-0.4Zm4.1,16.65c0.533,-0.333 1.033,-0.617 1.5,-0.85c0.5,-0.2 0.933,-0.3 1.3,-0.3c0.167,0.033 0.35,0.067 0.55,0.1c0.167,0.033 0.367,0.1 0.6,0.2c0.2,0.1 0.433,0.25 0.7,0.45c0.267,0.2 0.55,0.483 0.85,0.85c0.067,0 0.017,0.05 -0.15,0.15c-0.2,0.1 -0.483,0.217 -0.85,0.35c-0.367,0.133 -0.817,0.283 -1.35,0.45c-0.533,0.133 -1.117,0.283 -1.75,0.45c-0.667,0.133 -1.367,0.25 -2.1,0.35c-0.767,0.1 -1.533,0.167 -2.3,0.2c0.433,-0.433 0.9,-0.85 1.4,-1.25c0.533,-0.433 1.067,-0.817 1.6,-1.15Z" style="fill:#f00;"/></g></svg>