<?xml version="1.0" encoding="UTF-8" standalone="no"?><!DOCTYPE svg PUBLIC "-//W3C//DTD SVG 1.1//EN" "http://www.w3.org/Graphics/SVG/1.1/DTD/svg11.dtd"><svg width="100%" height="100%" viewBox="0 0 25 39" version="1.1" xmlns="http://www.w3.org/2000/svg" xmlns:xlink="http://www.w3.org/1999/xlink" xml:space="preserve" xmlns:serif="http://www.serif.com/" style="fill-rule:evenodd;clip-rule:evenodd;stroke-linejoin:round;stroke-miterlimit:2;"><g><path d="M6.4,29.9l-0.7,0.05l0.7,-0l-0,-0.05Z"/><path d="M5.7,27.2l0.7,-0.05l-0,-0.6l-5,0l-0,3.4l4.3,-0l-0,-2.75Z"/><path d="M19.45,29.95l5,-0l-0,-3.4l-5,0l-0,3.4Z"/><path d="M8,7.95c-0.067,-0.167 -0.133,-0.333 -0.2,-0.5c-0.033,-0.167 -0.067,-0.35 -0.1,-0.55c-0.033,-0 -0.083,0.033 -0.15,0.1c-0.033,0.033 -0.083,0.15 -0.15,0.35c-0.1,0.167 -0.217,0.417 -0.35,0.75c-0.133,0.3 -0.3,0.717 -0.5,1.25c0.067,0.5 0.133,0.9 0.2,1.2c0.033,0.267 0.067,0.5 0.1,0.7c0.066,0.164 0.099,0.281 0.1,0.35c-0,0.1 0.033,0.367 0.1,0.8c0.033,0.4 0.083,0.917 0.15,1.55c0.067,0.633 0.15,1.35 0.25,2.15c0.067,0.767 0.15,1.583 0.25,2.45c0.1,0.867 0.183,1.717 0.25,2.55c0.067,0.833 0.133,1.633 0.2,2.4c0.033,0.767 0.067,1.45 0.1,2.05l-1.55,1.6l-0.3,-0l-0.7,0.05l-0,2.75l3.5,-0.25c0.133,-0.033 0.3,-0.05 0.5,-0.05c0.2,-0.033 0.417,-0.05 0.65,-0.05c0.267,0 0.567,0.017 0.9,0.05c0.367,0.033 0.817,0.067 1.35,0.1c0.467,0.1 0.833,0.183 1.1,0.25c0.3,0.033 0.567,0.05 0.8,0.05l0.45,0c0.133,0 0.3,-0.017 0.5,-0.05l0.6,0c0.267,-0.033 0.55,-0.05 0.85,-0.05l2.55,-0l-0,-2.7l-1.1,0.1c-1.1,0.233 -1.883,0.35 -2.35,0.35c0.433,-0.333 0.833,-0.733 1.2,-1.2c0.367,-0.467 0.683,-0.917 0.95,-1.35c0.267,-0.5 0.483,-0.967 0.65,-1.4c0.133,-0.433 0.2,-0.817 0.2,-1.15c0,-0.333 -0.117,-0.667 -0.35,-1c-0.2,-0.3 -0.467,-0.583 -0.8,-0.85c-0.3,-0.267 -0.633,-0.483 -1,-0.65c-0.367,-0.133 -0.7,-0.2 -1,-0.2c-0.133,-0 -0.283,0.017 -0.45,0.05c-0.167,0.033 -0.35,0.1 -0.55,0.2c-0.233,0.133 -0.5,0.3 -0.8,0.5c-0.3,0.233 -0.667,0.533 -1.1,0.9c-0.433,0.367 -0.95,0.833 -1.55,1.4c-0.6,0.533 -1.317,1.183 -2.15,1.95l0,-1.95c-0.033,-0.6 -0.05,-1.2 -0.05,-1.8c-0.033,-0.6 -0.067,-1.2 -0.1,-1.8c-0.067,-0.633 -0.133,-1.3 -0.2,-2c-0.033,-0.7 -0.1,-1.483 -0.2,-2.35c-0.1,-0.833 -0.2,-1.767 -0.3,-2.8c0.167,-0.133 0.317,-0.283 0.45,-0.45c0.133,-0.2 0.233,-0.417 0.3,-0.65c0.1,-0.233 0.183,-0.45 0.25,-0.65c0.033,-0.2 0.067,-0.367 0.1,-0.5c-0.033,-0.2 -0.283,-0.533 -0.75,-1c-0.167,-0.2 -0.3,-0.367 -0.4,-0.5c-0.133,-0.167 -0.25,-0.333 -0.35,-0.5Zm3,17.05c0.567,-0.5 1.083,-0.9 1.55,-1.2c0.433,-0.333 0.817,-0.567 1.15,-0.7c0.333,-0.133 0.633,-0.2 0.9,-0.2l0.65,-0c0.333,-0 0.65,0.067 0.95,0.2c0.3,0.167 0.583,0.483 0.85,0.95c-0.233,0.5 -1.233,1.1 -3,1.8c-0.933,0.367 -1.8,0.633 -2.6,0.8c-0.833,0.2 -1.617,0.3 -2.35,0.3c0.7,-0.767 1.333,-1.417 1.9,-1.95Z" style="fill:#f00;"/></g></svg>