<?xml version="1.0" encoding="UTF-8" standalone="no"?><!DOCTYPE svg PUBLIC "-//W3C//DTD SVG 1.1//EN" "http://www.w3.org/Graphics/SVG/1.1/DTD/svg11.dtd"><svg width="100%" height="100%" viewBox="0 0 23 35" version="1.1" xmlns="http://www.w3.org/2000/svg" xmlns:xlink="http://www.w3.org/1999/xlink" xml:space="preserve" xmlns:serif="http://www.serif.com/" style="fill-rule:evenodd;clip-rule:evenodd;stroke-linejoin:round;stroke-miterlimit:2;"><g><rect x="1.05" y="20.85" width="3.7" height="3.4"/><path d="M9.8,2.4c-0.833,0.667 -1.533,1.85 -2.1,3.55c0.1,0.367 0.417,0.817 0.95,1.35l-0,10.55c-1.133,1.367 -2,2.367 -2.6,3l-1.3,0l-0,3.4l4.6,0c2,0 4.017,-0.783 6.05,-2.35c2.167,-1.7 3.25,-3.567 3.25,-5.6c-0,-1.767 -0.933,-2.65 -2.8,-2.65c-0.9,-0 -1.917,0.4 -3.05,1.2c-0.9,0.7 -1.817,1.4 -2.75,2.1l-0.1,-8.35c0.333,-0.2 0.633,-0.633 0.9,-1.3c0.167,-0.567 0.333,-1.117 0.5,-1.65c-0.767,-0.333 -1.233,-0.75 -1.4,-1.25c-0.1,-0.267 -0.15,-0.933 -0.15,-2Zm4.05,14.4c0.833,0 1.767,0.4 2.8,1.2c-0.867,1.9 -2.917,2.85 -6.15,2.85l-2.5,0c2.5,-2.7 4.45,-4.05 5.85,-4.05Z" style="fill:#f00;"/><path d="M14.05,7.35l-1.85,2l1.85,1.95l1.9,-1.95l-1.9,-2Z" style="fill:#f00;"/></g></svg>