<?xml version="1.0" encoding="UTF-8" standalone="no"?><!DOCTYPE svg PUBLIC "-//W3C//DTD SVG 1.1//EN" "http://www.w3.org/Graphics/SVG/1.1/DTD/svg11.dtd"><svg width="100%" height="100%" viewBox="0 0 25 35" version="1.1" xmlns="http://www.w3.org/2000/svg" xmlns:xlink="http://www.w3.org/1999/xlink" xml:space="preserve" xmlns:serif="http://www.serif.com/" style="fill-rule:evenodd;clip-rule:evenodd;stroke-linejoin:round;stroke-miterlimit:2;"><g><rect x="0.2" y="23.35" width="3.7" height="3.4"/><path d="M23.9,23.35l-5,0l-0,3.4l5,0l-0,-3.4Z"/><path d="M9.2,9.95c0.033,-0.167 0.183,-0.717 0.45,-1.65c-1.033,-0.5 -1.55,-1.167 -1.55,-2c0,-0.333 0.05,-0.75 0.15,-1.25c-0.333,0.267 -0.733,0.817 -1.2,1.65c-0.533,0.833 -0.8,1.45 -0.8,1.85c0,0.2 0.15,0.5 0.45,0.9c0.267,0.4 0.4,0.667 0.4,0.8l0,11.15c-0.833,0.867 -1.467,1.517 -1.9,1.95l-1.3,0l-0,3.4l15,0l-0,-3.2c-0.183,0.055 -0.383,0.105 -0.6,0.15c-0.867,0.2 -1.45,0.283 -1.75,0.25l-0.45,-0.05c1.467,-1.6 2.2,-2.967 2.2,-4.1c0,-0.767 -0.317,-1.45 -0.95,-2.05c-0.667,-0.567 -1.367,-0.85 -2.1,-0.85c-0.833,-0 -2.017,0.517 -3.55,1.55c-1.1,0.767 -2.217,1.533 -3.35,2.3l-0.1,-9.5c0.367,-0.233 0.683,-0.667 0.95,-1.3Zm5.6,10.45c0.767,0.3 1.15,0.667 1.15,1.1c-0,0.667 -1.133,1.267 -3.4,1.8c-1.8,0.4 -3.217,0.6 -4.25,0.6c-0.4,-0 -0.8,-0.05 -1.2,-0.15c2.367,-2.467 4.383,-3.7 6.05,-3.7c0.5,0 1.05,0.117 1.65,0.35Z" style="fill:#f00;"/><path d="M11.35,11.85l1.85,1.95l1.9,-1.95l-1.9,-2l-1.85,2Z" style="fill:#f00;"/></g></svg>