<?xml version="1.0" encoding="UTF-8" standalone="no"?><!DOCTYPE svg PUBLIC "-//W3C//DTD SVG 1.1//EN" "http://www.w3.org/Graphics/SVG/1.1/DTD/svg11.dtd"><svg width="100%" height="100%" viewBox="0 0 25 35" version="1.1" xmlns="http://www.w3.org/2000/svg" xmlns:xlink="http://www.w3.org/1999/xlink" xml:space="preserve" xmlns:serif="http://www.serif.com/" style="fill-rule:evenodd;clip-rule:evenodd;stroke-linejoin:round;stroke-miterlimit:2;"><g><path d="M24,23.35l-5,0l0,3.4l5,0l0,-3.4Z"/><path d="M7.05,6.7c-0.5,0.833 -0.75,1.45 -0.75,1.85c0,0.2 0.133,0.5 0.4,0.9c0.267,0.367 0.4,0.633 0.4,0.8l0,11.15c0,0.233 -0.367,0.733 -1.1,1.5c-0.767,0.8 -1.283,1.183 -1.55,1.15l-5.05,-0.45c1.4,2.2 3.083,3.283 5.05,3.25l14.55,-0.1l0,-3.2c-0.197,0.048 -0.414,0.098 -0.65,0.15c-0.8,0.2 -1.4,0.283 -1.8,0.25l-0.45,-0.05c1.5,-1.6 2.25,-2.967 2.25,-4.1c0,-0.767 -0.333,-1.45 -1,-2.05c-0.633,-0.567 -1.333,-0.85 -2.1,-0.85c-0.833,-0 -2.017,0.517 -3.55,1.55c-1.1,0.767 -2.2,1.533 -3.3,2.3l-0.15,-9.5c0.367,-0.233 0.683,-0.667 0.95,-1.3c0.1,-0.267 0.25,-0.817 0.45,-1.65c-1,-0.5 -1.5,-1.167 -1.5,-2c-0,-0.333 0.033,-0.75 0.1,-1.25c-0.333,0.267 -0.733,0.817 -1.2,1.65Zm1.25,17.2c-0.4,-0 -0.8,-0.05 -1.2,-0.15c2.4,-2.467 4.417,-3.7 6.05,-3.7c0.5,0 1.067,0.117 1.7,0.35c0.733,0.3 1.1,0.667 1.1,1.1c-0,0.667 -1.133,1.267 -3.4,1.8c-1.8,0.4 -3.217,0.6 -4.25,0.6Z" style="fill:#f00;"/><path d="M11.15,12.1l1.9,1.95l1.85,-1.95l-1.85,-2l-1.9,2Z" style="fill:#f00;"/></g></svg>