<?xml version="1.0" encoding="UTF-8" standalone="no"?><!DOCTYPE svg PUBLIC "-//W3C//DTD SVG 1.1//EN" "http://www.w3.org/Graphics/SVG/1.1/DTD/svg11.dtd"><svg width="100%" height="100%" viewBox="0 0 25 33" version="1.1" xmlns="http://www.w3.org/2000/svg" xmlns:xlink="http://www.w3.org/1999/xlink" xml:space="preserve" xmlns:serif="http://www.serif.com/" style="fill-rule:evenodd;clip-rule:evenodd;stroke-linejoin:round;stroke-miterlimit:2;"><g><rect x="0.2" y="21.3" width="3.7" height="3.4"/><path d="M25.3,21.3l-5,0l0,3.4l5,-0l0,-3.4Z"/><path d="M12.05,16c-1.567,-0.733 -2.517,-1.1 -2.85,-1.1c-0.8,-0 -1.567,0.35 -2.3,1.05c-0.7,0.7 -1.05,1.483 -1.05,2.35l0,0.45c0.467,-0.167 0.917,-0.35 1.35,-0.55c0.633,-0.233 1.083,-0.35 1.35,-0.35c0.8,0 1.817,0.417 3.05,1.25c-1.233,0.967 -2.45,1.6 -3.65,1.9c-0.68,0.163 -1.714,0.263 -3.1,0.3l-0.95,0l-0,3.4l2.35,-0c1.133,-0 2.383,-0.4 3.75,-1.2c0.633,-0.367 1.7,-1.1 3.2,-2.2c1.067,-0.8 1.783,-1.2 2.15,-1.2l0.3,0.15c-0,2.967 0.85,4.45 2.55,4.45l2.1,-0l0,-3.3c-0.412,0.033 -0.796,0.05 -1.15,0.05c-2.033,-0 -3.017,-0.45 -2.95,-1.35l-0,-0.15c1.033,-0.2 1.7,-0.45 2,-0.75c0.1,-0.833 0.233,-1.667 0.4,-2.5c-0.833,0.233 -1.667,0.35 -2.5,0.35c-1.1,0 -2.45,-0.35 -4.05,-1.05Z" style="fill:#f00;"/><path d="M9.95,10.5l1.85,-1.95l-1.85,-1.95l-1.9,1.95l1.9,1.95Z" style="fill:#f00;"/></g></svg>