<?xml version="1.0" encoding="UTF-8" standalone="no"?><!DOCTYPE svg PUBLIC "-//W3C//DTD SVG 1.1//EN" "http://www.w3.org/Graphics/SVG/1.1/DTD/svg11.dtd"><svg width="100%" height="100%" viewBox="0 0 5 5" version="1.1" xmlns="http://www.w3.org/2000/svg" xmlns:xlink="http://www.w3.org/1999/xlink" xml:space="preserve" xmlns:serif="http://www.serif.com/" style="fill-rule:evenodd;clip-rule:evenodd;stroke-linejoin:round;stroke-miterlimit:2;"><path d="M2.353,0.342l-0.363,0.367c-0.048,0.049 -0.048,0.128 0.001,0.177c0.049,0.048 0.128,0.048 0.177,-0.001l0.363,-0.367c0.048,-0.049 0.048,-0.128 -0.001,-0.177c-0.049,-0.048 -0.128,-0.048 -0.177,0.001Z"/><path d="M2.121,0.161l-0.363,0.367c-0.048,0.049 -0.048,0.128 0.001,0.177c0.049,0.048 0.128,0.048 0.177,-0.001l0.363,-0.367c0.048,-0.049 0.048,-0.128 -0.001,-0.177c-0.049,-0.048 -0.128,-0.048 -0.177,0.001Z"/><path d="M2.513,1.011c-0.009,0.009 -0.013,0.004 -0.013,-0.014c-0.005,-0.018 -0.01,-0.039 -0.014,-0.062c-0.005,-0.028 -0.01,-0.051 -0.014,-0.069c-0.005,-0.019 -0.012,-0.026 -0.021,-0.021c-0.023,0.009 -0.046,0.03 -0.069,0.062c-0.019,0.028 -0.037,0.06 -0.055,0.097c-0.014,0.041 -0.028,0.083 -0.042,0.124c-0.009,0.042 -0.018,0.084 -0.028,0.125c0.01,0.065 0.019,0.12 0.028,0.166c0.005,0.046 0.012,0.086 0.021,0.118c0.004,0.032 0.011,0.057 0.021,0.076c0.004,0.023 0.011,0.041 0.02,0.055c0.014,0.097 0.03,0.215 0.049,0.353c0.014,0.134 0.03,0.279 0.048,0.436c0.019,0.152 0.037,0.307 0.056,0.464c0.018,0.152 0.032,0.295 0.041,0.429c0.009,0.129 0.016,0.242 0.021,0.339c0,0.097 -0.007,0.164 -0.021,0.201c-0.041,0.037 -0.083,0.074 -0.124,0.111c-0.047,0.032 -0.09,0.066 -0.132,0.103l-0.325,0l0,0.471l0.256,0c0.134,0 0.26,-0.005 0.38,-0.014c0.12,-0.009 0.236,-0.021 0.346,-0.035c0.111,-0.013 0.22,-0.03 0.326,-0.048c0.101,-0.018 0.203,-0.035 0.304,-0.048c0.079,-0.014 0.162,-0.035 0.249,-0.063c0.083,-0.032 0.166,-0.069 0.25,-0.11c0.083,-0.042 0.161,-0.09 0.235,-0.146c0.069,-0.051 0.131,-0.11 0.187,-0.18c0.055,-0.064 0.099,-0.133 0.131,-0.207c0.032,-0.074 0.049,-0.15 0.049,-0.229c0,-0.037 -0.012,-0.074 -0.035,-0.11c-0.028,-0.033 -0.06,-0.065 -0.097,-0.097c-0.041,-0.028 -0.085,-0.053 -0.131,-0.076c-0.051,-0.028 -0.1,-0.049 -0.146,-0.063c-0.046,-0.018 -0.09,-0.032 -0.131,-0.041c-0.042,-0.009 -0.074,-0.014 -0.097,-0.014c-0.074,0 -0.138,0.005 -0.194,0.014c-0.051,0.004 -0.101,0.014 -0.152,0.027c-0.051,0.014 -0.102,0.035 -0.152,0.063c-0.051,0.027 -0.111,0.067 -0.18,0.117c-0.065,0.047 -0.141,0.104 -0.229,0.173c-0.087,0.07 -0.193,0.153 -0.318,0.25l-0.069,0.034c0.009,-0.074 0.016,-0.141 0.021,-0.201c0.004,-0.06 0.009,-0.117 0.013,-0.173c0,-0.055 -0.002,-0.113 -0.007,-0.173c0,-0.055 -0.004,-0.117 -0.013,-0.186c-0.005,-0.07 -0.012,-0.146 -0.021,-0.229c-0.009,-0.083 -0.021,-0.177 -0.035,-0.284c-0.018,-0.11 -0.034,-0.235 -0.048,-0.373c-0.019,-0.139 -0.039,-0.296 -0.062,-0.471c0.018,-0.028 0.036,-0.067 0.055,-0.118c0.018,-0.05 0.034,-0.099 0.048,-0.145c0.014,-0.046 0.026,-0.083 0.035,-0.111c0.008,-0.025 0.013,-0.034 0.014,-0.027c-0.001,-0.006 -0.003,-0.016 -0.007,-0.028c-0.005,-0.014 -0.014,-0.03 -0.028,-0.048c-0.018,-0.023 -0.041,-0.049 -0.069,-0.077c-0.032,-0.032 -0.074,-0.071 -0.125,-0.117Zm1.357,2.512c0.032,0.005 0.069,0.016 0.111,0.035c0.041,0.018 0.085,0.043 0.131,0.076c0.051,0.037 0.104,0.085 0.159,0.145c0.014,0.005 0.005,0.016 -0.027,0.035c-0.033,0.014 -0.083,0.032 -0.153,0.055c-0.069,0.023 -0.154,0.048 -0.256,0.076c-0.101,0.023 -0.212,0.049 -0.332,0.076c-0.125,0.023 -0.256,0.042 -0.394,0.056c-0.139,0.018 -0.282,0.03 -0.43,0.034c0.079,-0.069 0.169,-0.14 0.27,-0.214c0.097,-0.069 0.194,-0.134 0.291,-0.194c0.102,-0.055 0.198,-0.102 0.291,-0.138c0.087,-0.037 0.166,-0.056 0.235,-0.056c0.032,0.005 0.067,0.009 0.104,0.014Z" style="fill:#f00;fill-rule:nonzero;"/><path d="M1.178,1.149c-0.06,0.06 -0.12,0.118 -0.18,0.173c-0.042,0.056 -0.062,0.132 -0.062,0.229c0,0.77 0.004,1.266 0.013,1.488c0.028,0.747 0.104,1.197 0.229,1.349c0.101,0.125 0.242,0.187 0.422,0.187l0.36,0l0,-0.471l0.11,0l-0.111,0.001c-0.383,0 -0.521,-0.178 -0.636,-0.326c-0.097,-0.12 -0.145,-0.378 -0.145,-0.775l0,-1.855Z" style="fill-rule:nonzero;"/></svg>