<?xml version="1.0" encoding="UTF-8" standalone="no"?><!DOCTYPE svg PUBLIC "-//W3C//DTD SVG 1.1//EN" "http://www.w3.org/Graphics/SVG/1.1/DTD/svg11.dtd"><svg width="100%" height="100%" viewBox="0 0 58 92" version="1.1" xmlns="http://www.w3.org/2000/svg" xmlns:xlink="http://www.w3.org/1999/xlink" xml:space="preserve" xmlns:serif="http://www.serif.com/" style="fill-rule:evenodd;clip-rule:evenodd;stroke-linejoin:round;stroke-miterlimit:2;"><g><path d="M25.1,60.55c0.867,-0 1.55,-0.3 2.05,-0.9c0.1,-0.1 0.517,-0.75 1.25,-1.95c0.367,0.633 0.9,1.233 1.6,1.8c0.8,0.7 1.5,1.05 2.1,1.05l4.6,-0l0,-4.15c-0.567,-0 -1.267,0.017 -2.1,0.05c-0.867,0.067 -1.45,0.1 -1.75,0.1c-1.133,0 -1.933,-0.217 -2.4,-0.65c-0.567,-0.533 -0.867,-1.517 -0.9,-2.95c-1.033,1.633 -1.733,2.617 -2.1,2.95c-0.467,0.367 -1.217,0.55 -2.25,0.55l-1.65,-0c-0.274,-0.011 -0.54,-0.028 -0.8,-0.05l-2.15,-0c-0.933,-0 -1.633,-0.133 -2.1,-0.4c-0.4,-0.233 -1.067,-0.917 -2,-2.05l-1.7,3c0.867,1.3 1.4,2.15 1.6,2.55c0.433,0.9 0.65,1.833 0.65,2.8c-0,1.333 -0.833,2.333 -2.5,3c-1.233,0.5 -2.667,0.75 -4.3,0.75c-4.233,-0 -6.35,-1.6 -6.35,-4.8c-0,-0.567 0.3,-1.983 0.9,-4.25c-0.733,0.333 -1.367,1.333 -1.9,3c-0.467,1.4 -0.7,2.617 -0.7,3.65c0,4.233 2.2,6.35 6.6,6.35c2.933,0 5.317,-0.867 7.15,-2.6c1.833,-1.733 2.75,-4.017 2.75,-6.85l6.4,-0Z"/><path d="M26.95,68.75l2.2,-2.15l-2.2,-2.15l-2.25,2.15l2.25,2.15Z"/><path d="M31.35,68.75l2.25,-2.15l-2.25,-2.1l-2.2,2.1l2.2,2.15Z"/><path d="M12.95,50.55l-2.55,-2.45l-2.55,2.45l2.55,2.4l2.55,-2.4Z"/><path d="M39.2,33.75c-0.033,-0.133 -0.083,-0.183 -0.15,-0.15c-0.167,0.067 -0.333,0.217 -0.5,0.45c-0.133,0.2 -0.267,0.433 -0.4,0.7c-0.1,0.3 -0.2,0.6 -0.3,0.9c-0.067,0.3 -0.133,0.6 -0.2,0.9c0.067,0.467 0.133,0.867 0.2,1.2c0.033,0.333 0.083,0.617 0.15,0.85c0.033,0.233 0.083,0.417 0.15,0.55c0.033,0.167 0.083,0.3 0.15,0.4c0.1,0.7 0.217,1.55 0.35,2.55c0.1,0.967 0.217,2.017 0.35,3.15c0.133,1.1 0.267,2.217 0.4,3.35c0.133,1.1 0.233,2.133 0.3,3.1c0.067,0.933 0.117,1.75 0.15,2.45c0,0.7 -0.05,1.183 -0.15,1.45c-0.3,0.267 -0.6,0.533 -0.9,0.8c-0.333,0.233 -0.65,0.483 -0.95,0.75l-1.15,-0l0,3.4l0.65,-0c0.967,-0 1.883,-0.033 2.75,-0.1c0.867,-0.067 1.7,-0.15 2.5,-0.25c0.8,-0.1 1.583,-0.217 2.35,-0.35c0.733,-0.133 1.467,-0.25 2.2,-0.35c0.567,-0.1 1.167,-0.25 1.8,-0.45c0.6,-0.233 1.2,-0.5 1.8,-0.8c0.6,-0.3 1.167,-0.65 1.7,-1.05c0.5,-0.367 0.95,-0.8 1.35,-1.3c0.4,-0.467 0.717,-0.967 0.95,-1.5c0.233,-0.533 0.35,-1.083 0.35,-1.65c0,-0.267 -0.083,-0.533 -0.25,-0.8c-0.2,-0.233 -0.433,-0.467 -0.7,-0.7c-0.3,-0.2 -0.617,-0.383 -0.95,-0.55c-0.367,-0.2 -0.717,-0.35 -1.05,-0.45c-0.333,-0.133 -0.65,-0.233 -0.95,-0.3c-0.3,-0.067 -0.533,-0.1 -0.7,-0.1c-0.533,0 -1,0.033 -1.4,0.1c-0.367,0.033 -0.733,0.1 -1.1,0.2c-0.367,0.1 -0.733,0.25 -1.1,0.45c-0.367,0.2 -0.8,0.483 -1.3,0.85c-0.467,0.333 -1.017,0.75 -1.65,1.25c-0.633,0.5 -1.4,1.1 -2.3,1.8l-0.5,0.25c0.067,-0.533 0.117,-1.017 0.15,-1.45c0.033,-0.433 0.067,-0.85 0.1,-1.25c-0,-0.4 -0.017,-0.817 -0.05,-1.25c0,-0.4 -0.033,-0.85 -0.1,-1.35c-0.033,-0.5 -0.083,-1.05 -0.15,-1.65c-0.067,-0.6 -0.15,-1.283 -0.25,-2.05c-0.133,-0.8 -0.25,-1.7 -0.35,-2.7c-0.133,-1 -0.283,-2.133 -0.45,-3.4c0.133,-0.2 0.267,-0.483 0.4,-0.85c0.133,-0.367 0.25,-0.717 0.35,-1.05c0.1,-0.333 0.183,-0.6 0.25,-0.8c0.061,-0.184 0.095,-0.251 0.1,-0.2c-0.003,-0.044 -0.02,-0.11 -0.05,-0.2c-0.033,-0.1 -0.1,-0.217 -0.2,-0.35c-0.133,-0.167 -0.3,-0.35 -0.5,-0.55c-0.233,-0.233 -0.533,-0.517 -0.9,-0.85c-0.067,0.067 -0.1,0.033 -0.1,-0.1c-0.033,-0.133 -0.067,-0.283 -0.1,-0.45c-0.033,-0.2 -0.067,-0.367 -0.1,-0.5Zm13,21.05c0.1,0.033 0.033,0.117 -0.2,0.25c-0.233,0.1 -0.6,0.233 -1.1,0.4c-0.5,0.167 -1.117,0.35 -1.85,0.55c-0.733,0.167 -1.533,0.35 -2.4,0.55c-0.9,0.167 -1.85,0.3 -2.85,0.4c-1,0.133 -2.033,0.217 -3.1,0.25c0.567,-0.5 1.217,-1.017 1.95,-1.55c0.7,-0.5 1.4,-0.967 2.1,-1.4c0.733,-0.4 1.433,-0.733 2.1,-1c0.633,-0.267 1.2,-0.4 1.7,-0.4c0.233,0.033 0.483,0.067 0.75,0.1c0.233,0.033 0.5,0.117 0.8,0.25c0.3,0.133 0.617,0.317 0.95,0.55c0.367,0.267 0.75,0.617 1.15,1.05Z" style="fill:#f00;"/><path d="M44.011,65.924l-4.85,3c-0.704,0.436 -0.922,1.361 -0.487,2.065c0.436,0.704 1.361,0.922 2.065,0.487l4.85,-3c0.704,-0.436 0.922,-1.361 0.487,-2.065c-0.436,-0.704 -1.361,-0.922 -2.065,-0.487Z"/><path d="M11.749,71.457l-4.85,3c-0.704,0.436 -0.922,1.361 -0.486,2.065c0.435,0.704 1.36,0.922 2.064,0.487l4.85,-3c0.704,-0.436 0.922,-1.361 0.487,-2.065c-0.436,-0.704 -1.361,-0.922 -2.065,-0.487Z"/><path d="M12.771,75.288l-4.85,3c-0.704,0.435 -0.922,1.361 -0.487,2.065c0.436,0.704 1.361,0.922 2.065,0.486l4.85,-3c0.704,-0.435 0.922,-1.36 0.486,-2.065c-0.435,-0.704 -1.36,-0.922 -2.064,-0.486Z"/></g></svg>