<?xml version="1.0" encoding="UTF-8" standalone="no"?><!DOCTYPE svg PUBLIC "-//W3C//DTD SVG 1.1//EN" "http://www.w3.org/Graphics/SVG/1.1/DTD/svg11.dtd"><svg width="100%" height="100%" viewBox="0 0 51 60" version="1.1" xmlns="http://www.w3.org/2000/svg" xmlns:xlink="http://www.w3.org/1999/xlink" xml:space="preserve" xmlns:serif="http://www.serif.com/" style="fill-rule:evenodd;clip-rule:evenodd;stroke-linejoin:round;stroke-miterlimit:2;"><g><path d="M7.055,25.078l-4.8,3c-0.702,0.439 -0.916,1.365 -0.477,2.067c0.439,0.702 1.365,0.916 2.067,0.477l4.8,-3c0.702,-0.439 0.916,-1.365 0.477,-2.067c-0.439,-0.702 -1.365,-0.916 -2.067,-0.477Z"/><path d="M34.7,20.75c0.061,-0.184 0.095,-0.251 0.1,-0.2c-0.003,-0.044 -0.02,-0.11 -0.05,-0.2c-0.033,-0.1 -0.1,-0.217 -0.2,-0.35c-0.133,-0.167 -0.3,-0.35 -0.5,-0.55c-0.233,-0.233 -0.533,-0.517 -0.9,-0.85c-0.067,0.067 -0.1,0.033 -0.1,-0.1c-0.033,-0.133 -0.067,-0.283 -0.1,-0.45c-0.033,-0.2 -0.067,-0.367 -0.1,-0.5c-0.033,-0.133 -0.083,-0.183 -0.15,-0.15c-0.167,0.067 -0.333,0.217 -0.5,0.45c-0.133,0.2 -0.267,0.433 -0.4,0.7c-0.1,0.3 -0.2,0.6 -0.3,0.9c-0.067,0.3 -0.133,0.6 -0.2,0.9c0.067,0.467 0.133,0.867 0.2,1.2c0.033,0.333 0.083,0.617 0.15,0.85c0.033,0.233 0.083,0.417 0.15,0.55c0.033,0.167 0.083,0.3 0.15,0.4c0.1,0.7 0.217,1.55 0.35,2.55c0.1,0.967 0.217,2.017 0.35,3.15c0.133,1.1 0.267,2.217 0.4,3.35c0.133,1.1 0.233,2.133 0.3,3.1c0.067,0.933 0.117,1.75 0.15,2.45c0,0.7 -0.05,1.183 -0.15,1.45c-0.3,0.267 -0.6,0.533 -0.9,0.8c-0.333,0.233 -0.65,0.483 -0.95,0.75l-1.55,-0l0,3.4l1.05,-0c0.967,-0 1.883,-0.033 2.75,-0.1c0.867,-0.067 1.7,-0.15 2.5,-0.25c0.8,-0.1 1.583,-0.217 2.35,-0.35c0.733,-0.133 1.467,-0.25 2.2,-0.35c0.567,-0.1 1.167,-0.25 1.8,-0.45c0.6,-0.233 1.2,-0.5 1.8,-0.8c0.6,-0.3 1.167,-0.65 1.7,-1.05c0.5,-0.367 0.95,-0.8 1.35,-1.3c0.4,-0.467 0.717,-0.967 0.95,-1.5c0.233,-0.533 0.35,-1.083 0.35,-1.65c0,-0.267 -0.083,-0.533 -0.25,-0.8c-0.2,-0.233 -0.433,-0.467 -0.7,-0.7c-0.3,-0.2 -0.617,-0.383 -0.95,-0.55c-0.367,-0.2 -0.717,-0.35 -1.05,-0.45c-0.333,-0.133 -0.65,-0.233 -0.95,-0.3c-0.3,-0.067 -0.533,-0.1 -0.7,-0.1c-0.533,-0 -1,0.033 -1.4,0.1c-0.367,0.033 -0.733,0.1 -1.1,0.2c-0.367,0.1 -0.733,0.25 -1.1,0.45c-0.367,0.2 -0.8,0.483 -1.3,0.85c-0.467,0.333 -1.017,0.75 -1.65,1.25c-0.633,0.5 -1.4,1.1 -2.3,1.8l-0.5,0.25c0.067,-0.533 0.117,-1.017 0.15,-1.45c0.033,-0.433 0.067,-0.85 0.1,-1.25c0,-0.4 -0.017,-0.817 -0.05,-1.25c0,-0.4 -0.033,-0.85 -0.1,-1.35c-0.033,-0.5 -0.083,-1.05 -0.15,-1.65c-0.067,-0.6 -0.15,-1.283 -0.25,-2.05c-0.133,-0.8 -0.25,-1.7 -0.35,-2.7c-0.133,-1 -0.283,-2.133 -0.45,-3.4c0.133,-0.2 0.267,-0.483 0.4,-0.85c0.133,-0.367 0.25,-0.717 0.35,-1.05c0.1,-0.333 0.183,-0.6 0.25,-0.8Zm8,19.05c-0.733,0.167 -1.533,0.35 -2.4,0.55c-0.9,0.167 -1.85,0.3 -2.85,0.4c-1,0.133 -2.033,0.217 -3.1,0.25c0.567,-0.5 1.217,-1.017 1.95,-1.55c0.7,-0.5 1.4,-0.967 2.1,-1.4c0.733,-0.4 1.433,-0.733 2.1,-1c0.633,-0.267 1.2,-0.4 1.7,-0.4c0.233,0.033 0.483,0.067 0.75,0.1c0.233,0.033 0.5,0.117 0.8,0.25c0.3,0.133 0.617,0.317 0.95,0.55c0.367,0.267 0.75,0.617 1.15,1.05c0.1,0.033 0.033,0.117 -0.2,0.25c-0.233,0.1 -0.6,0.233 -1.1,0.4c-0.5,0.167 -1.117,0.35 -1.85,0.55Z" style="fill:#f00;fill-rule:nonzero;"/><path d="M23.85,36.25c-0.767,0 -1.583,0.8 -2.45,2.4c-0.767,1.433 -1.15,2.6 -1.15,3.5c0,1.1 0.55,1.8 1.65,2.1c1.033,0.167 2.067,0.317 3.1,0.45c-1.2,1.767 -2.45,3.05 -3.75,3.85c-1.5,0.9 -3.25,1.35 -5.25,1.35c-1.067,0 -2.633,-0.083 -4.7,-0.25c1.9,1.833 4.117,2.75 6.65,2.75c2.2,0 4.083,-0.867 5.65,-2.6c1.067,-1.2 2.1,-3.017 3.1,-5.45l3.25,0l0,-4.05c-0.967,0.1 -1.983,0.1 -3.05,0c-0.4,-0.8 -0.783,-1.617 -1.15,-2.45c-0.633,-1.067 -1.267,-1.6 -1.9,-1.6Zm-18.95,0.9c0,-0.267 0.25,-0.583 0.75,-0.95c0.467,-0.4 0.85,-0.6 1.15,-0.6c0.033,0 0.25,0.067 0.65,0.2c0.4,0.133 0.7,0.2 0.9,0.2c0.767,0 1.15,-0.333 1.15,-1c0,-0.267 -0.217,-0.533 -0.65,-0.8c-0.433,-0.267 -0.783,-0.4 -1.05,-0.4c-1.667,0 -3.4,1.35 -5.2,4.05c0,0.4 0.2,0.867 0.6,1.4c0.367,0.5 0.55,0.833 0.55,1c0,0.033 -0.083,0.217 -0.25,0.55c-0.167,0.3 -0.25,0.583 -0.25,0.85c0,0.233 0.05,0.55 0.15,0.95c2.467,-1.6 4.3,-2.4 5.5,-2.4c0.2,0 0.533,0.083 1,0.25c0.233,-0.133 0.483,-0.45 0.75,-0.95c0.167,-0.367 0.35,-0.733 0.55,-1.1l-1.9,0c-2.933,0 -4.4,-0.417 -4.4,-1.25Zm18,2.25c0.667,0.3 1.083,0.567 1.25,0.8c0.167,0.233 0.317,0.7 0.45,1.4c-0.633,0 -1.383,-0.067 -2.25,-0.2c0,-0.3 -0.067,-0.517 -0.2,-0.65c0.233,-0.5 0.483,-0.95 0.75,-1.35Zm6.95,-26.4c-0,0.433 0.383,0.867 1.15,1.3c-1.4,1.033 -2.75,1.8 -4.05,2.3c0.467,0.133 0.833,0.2 1.1,0.2c1.033,0 2.283,-0.7 3.75,-2.1c0.6,0.333 1.1,0.583 1.5,0.75l0.15,-1.45c-0.3,-0.2 -0.533,-0.35 -0.7,-0.45c0.367,-0.7 0.55,-1.267 0.55,-1.7c-0,-0.867 -0.417,-1.3 -1.25,-1.3c-0.6,0 -1.133,0.3 -1.6,0.9c-0.4,0.533 -0.6,1.05 -0.6,1.55Zm0.95,-0.9c0.067,-0.167 0.183,-0.267 0.35,-0.3c0.667,0.1 1,0.4 1,0.9c-0,0.133 -0.033,0.283 -0.1,0.45c-0.833,-0.367 -1.25,-0.717 -1.25,-1.05Zm-5.65,-6c-1.167,1.667 -1.967,3.133 -2.4,4.4c0.333,-0.233 0.7,-0.617 1.1,-1.15c0.467,-0.6 0.817,-1 1.05,-1.2c1.1,0.467 1.767,0.733 2,0.8c0.567,0.167 1.283,0.25 2.15,0.25c0.967,0 2.15,-0.367 3.55,-1.1c1.567,-0.8 2.35,-1.617 2.35,-2.45c-1.6,0.767 -2.45,1.183 -2.55,1.25c-1.033,0.4 -1.967,0.6 -2.8,0.6c-1.6,0 -3.083,-0.467 -4.45,-1.4Z" style="fill-rule:nonzero;"/></g></svg>