<?xml version="1.0" encoding="UTF-8" standalone="no"?><!DOCTYPE svg PUBLIC "-//W3C//DTD SVG 1.1//EN" "http://www.w3.org/Graphics/SVG/1.1/DTD/svg11.dtd"><svg width="100%" height="100%" viewBox="0 0 66 60" version="1.1" xmlns="http://www.w3.org/2000/svg" xmlns:xlink="http://www.w3.org/1999/xlink" xml:space="preserve" xmlns:serif="http://www.serif.com/" style="fill-rule:evenodd;clip-rule:evenodd;stroke-linejoin:round;stroke-miterlimit:2;"><g><path d="M56.605,19.728l-4.8,3c-0.702,0.439 -0.916,1.365 -0.477,2.067c0.439,0.702 1.365,0.916 2.067,0.477l4.8,-3c0.702,-0.439 0.916,-1.365 0.477,-2.067c-0.439,-0.702 -1.365,-0.916 -2.067,-0.477Zm-32.844,-9.554l-4.85,3c-0.704,0.436 -0.922,1.361 -0.487,2.065c0.436,0.704 1.361,0.922 2.065,0.487l4.85,-3c0.704,-0.436 0.922,-1.361 0.487,-2.065c-0.436,-0.704 -1.361,-0.922 -2.065,-0.487Z"/><path d="M46.9,53.55c1,0.3 2.017,0.45 3.05,0.45c2.933,0 5.233,-1.167 6.9,-3.5c1.433,-2.033 2.15,-4.533 2.15,-7.5c0,-1.2 -0.217,-2.35 -0.65,-3.45c-0.567,-1.467 -1.35,-2.2 -2.35,-2.2c-0.867,0 -1.683,0.717 -2.45,2.15c-0.667,1.3 -1,2.433 -1,3.4c0,1.667 0.667,2.5 2,2.5c1.067,0 2.05,-0.55 2.95,-1.65c0.233,0.5 0.35,0.95 0.35,1.35c0,2.433 -1.783,4.35 -5.35,5.75c-2.767,1.133 -5.6,1.7 -8.5,1.7c1.4,0.533 2.367,0.867 2.9,1Zm-3,-31.6c-1.533,1.933 -2.283,3.083 -2.25,3.45l0.55,22.05c1.267,-1 1.9,-3.667 1.9,-8l-0.2,-17.5Zm-9.35,0.1c0,0.167 -0.05,0.417 -0.15,0.75c-0.1,0.333 -0.15,0.567 -0.15,0.7c0,0.467 0.333,1.017 1,1.65c0.633,0.633 0.95,1.05 0.95,1.25c0,0.5 -0.183,1.167 -0.55,2c-0.4,0.767 -0.6,1.333 -0.6,1.7c0,0.656 0.059,1.62 0.176,2.892l0.048,0.516c0.117,1.272 0.176,2.236 0.176,2.892l0,3.85c0,1.833 -0.267,3.367 -0.8,4.6c-0.733,1.7 -1.917,2.55 -3.55,2.55l-4.15,0c-0.867,0 -1.583,-0.433 -2.15,-1.3c-0.433,-0.8 -0.867,-1.583 -1.3,-2.35c-0.033,0.033 -0.55,0.783 -1.55,2.25c-0.633,0.933 -1.317,1.4 -2.05,1.4l-4.05,0c-0.867,0 -1.583,-0.517 -2.15,-1.55c-0.367,-0.9 -0.733,-1.783 -1.1,-2.65c-0.833,1.1 -1.65,1.817 -2.45,2.15c-0.633,0.267 -1.683,0.4 -3.15,0.4c-1.6,0 -2.4,-0.333 -2.4,-1c0,-1.867 0.7,-3.467 2.1,-4.8c0.933,-0.9 2.467,-1.9 4.6,-3l-0.25,-2.75c-0.033,-0.333 0.433,-1.067 1.4,-2.2c0,1.6 0.233,3.583 0.7,5.95c0.633,3 1.417,4.7 2.35,5.1c0.203,0.102 1.003,0.168 2.4,0.2l0.3,0c1.274,-0.035 2.158,-0.168 2.65,-0.4c0.867,-0.4 1.3,-1.283 1.3,-2.65c0,-1.633 -0.15,-4.083 -0.45,-7.35c-0.333,-3.3 -0.5,-5.767 -0.5,-7.4c0,-1.333 0.767,-2.583 2.3,-3.75c0.067,1.333 0.25,4.033 0.55,8.1c0.267,3.367 0.4,6.067 0.4,8.1c0,1.733 0.333,3.033 1,3.9c0.767,0.967 2.017,1.45 3.75,1.45l0.95,0.05c2.267,0.033 3.4,-0.533 3.4,-1.7c0,-6.1 -0.25,-10.65 -0.75,-13.65c-0.767,-0.867 -1.217,-1.567 -1.35,-2.1c0.767,-2.033 1.783,-3.467 3.05,-4.3l0.05,0.5Zm-22.923,16.602c-1.909,0.596 -3.72,1.627 -5.269,3.81c-0.634,1.215 0.489,1.677 2.378,1.811c1.359,-0.094 2.505,-1.042 3.432,-2.865l-0.541,-2.756Zm43.573,4.148c-0.033,0 -0.417,-0.183 -1.15,-0.55c0.333,-0.733 0.667,-1.4 1,-2c0.967,0.433 1.45,0.983 1.45,1.65c0,0.233 -0.133,0.45 -0.4,0.65c-0.3,0.167 -0.6,0.25 -0.9,0.25Zm-46.1,-19.05c-0.4,0.533 -0.6,1.05 -0.6,1.55c0,0.433 0.383,0.867 1.15,1.3c-1.4,1.033 -2.75,1.8 -4.05,2.3c0.467,0.133 0.833,0.2 1.1,0.2c1.033,-0 2.283,-0.7 3.75,-2.1c0.6,0.333 1.1,0.583 1.5,0.75l0.15,-1.45c-0.3,-0.2 -0.533,-0.35 -0.7,-0.45c0.367,-0.7 0.55,-1.267 0.55,-1.7c0,-0.867 -0.417,-1.3 -1.25,-1.3c-0.6,-0 -1.133,0.3 -1.6,0.9Zm0.35,0.65c0.067,-0.167 0.183,-0.267 0.35,-0.3c0.667,0.1 1,0.4 1,0.9c0,0.133 -0.033,0.283 -0.1,0.45c-0.833,-0.367 -1.25,-0.717 -1.25,-1.05Zm13.45,-5.6c0.867,0 1.3,-0.683 1.3,-2.05c0,-0.333 -0.05,-0.717 -0.15,-1.15l-0.3,0.15c0,1.167 -0.283,1.75 -0.85,1.75c-0.267,0 -0.5,-0.383 -0.7,-1.15l-0.2,0.05c-0.133,0.6 -0.233,1 -0.3,1.2c-0.2,0.5 -0.483,0.75 -0.85,0.75c-0.333,0 -0.5,-0.45 -0.5,-1.35l-0.25,0.05c-0.2,0.633 -0.3,1.033 -0.3,1.2c0,0.333 0.083,0.633 0.25,0.9c0.167,0.267 0.433,0.4 0.8,0.4c0.267,0 0.533,-0.1 0.8,-0.3c0.267,-0.2 0.417,-0.433 0.45,-0.7c0.233,0.167 0.5,0.25 0.8,0.25Z" style="fill-rule:nonzero;"/></g></svg>