<?xml version="1.0" encoding="UTF-8" standalone="no"?><!DOCTYPE svg PUBLIC "-//W3C//DTD SVG 1.1//EN" "http://www.w3.org/Graphics/SVG/1.1/DTD/svg11.dtd"><svg width="100%" height="100%" viewBox="0 0 91 92" version="1.1" xmlns="http://www.w3.org/2000/svg" xmlns:xlink="http://www.w3.org/1999/xlink" xml:space="preserve" xmlns:serif="http://www.serif.com/" style="fill-rule:evenodd;clip-rule:evenodd;stroke-linejoin:round;stroke-miterlimit:2;"><g><path d="M104.55,57.1c-0,-1.2 -0.25,-2.233 -0.75,-3.1c-0.367,-0.633 -1.067,-1.45 -2.1,-2.45l-0.95,3.45c0.533,0.6 1.067,1.183 1.6,1.75c0.7,0.833 1.05,1.483 1.05,1.95c-0,2.2 -1.667,4.1 -5,5.7c-2.833,1.333 -5.533,2 -8.1,2c2.067,1.333 4.117,2 6.15,2c2.333,-0 4.333,-1.367 6,-4.1c1.4,-2.367 2.1,-4.767 2.1,-7.2Z"/><path d="M85.5,55.95c0,-1.2 -0.217,-2.35 -0.65,-3.45c-0.567,-1.467 -1.35,-2.2 -2.35,-2.2c-0.867,0 -1.683,0.717 -2.45,2.15c-0.667,1.3 -1,2.433 -1,3.4c-0,1.667 0.667,2.5 2,2.5c1.067,0 2.05,-0.55 2.95,-1.65c0.233,0.5 0.35,0.95 0.35,1.35c0,2.433 -1.783,4.35 -5.35,5.75c-2.767,1.133 -5.6,1.7 -8.5,1.7c1.4,0.533 2.367,0.867 2.9,1c1,0.3 2.017,0.45 3.05,0.45c2.933,0 5.233,-1.167 6.9,-3.5c1.433,-2.033 2.15,-4.533 2.15,-7.5Zm-3.8,-0.2c-0.033,0 -0.417,-0.183 -1.15,-0.55c0.333,-0.733 0.667,-1.4 1,-2c0.967,0.433 1.45,0.983 1.45,1.65c-0,0.233 -0.133,0.45 -0.4,0.65c-0.3,0.167 -0.6,0.25 -0.9,0.25Z"/><path d="M50.2,42.75c0.267,3.367 0.4,6.067 0.4,8.1c0,1.733 0.333,3.033 1,3.9c0.767,0.967 2.017,1.45 3.75,1.45l0,4.15l-2.25,0c-0.867,0 -1.583,-0.433 -2.15,-1.3c-0.433,-0.8 -0.867,-1.583 -1.3,-2.35c-0.033,0.033 -0.55,0.783 -1.55,2.25c-0.633,0.933 -1.317,1.4 -2.05,1.4l-4.5,0c-0.967,0 -2.233,-0.617 -3.8,-1.85c-1.9,1.233 -3.417,1.85 -4.55,1.85l-5.5,0c-0.567,0 -1.267,-0.35 -2.1,-1.05c-0.667,-0.567 -1.2,-1.167 -1.6,-1.8c-0.733,1.2 -1.133,1.85 -1.2,1.95c-0.533,0.6 -1.217,0.9 -2.05,0.9l-5.75,0c-0.867,0 -1.583,-0.517 -2.15,-1.55c-0.367,-0.9 -0.733,-1.783 -1.1,-2.65c-0.833,1.1 -1.65,1.817 -2.45,2.15c-0.633,0.267 -1.683,0.4 -3.15,0.4c-1.6,0 -2.4,-0.333 -2.4,-1c-0,-1.867 0.7,-3.467 2.1,-4.8c0.933,-0.9 2.467,-1.9 4.6,-3l-0.25,-2.75c-0.033,-0.333 0.433,-1.067 1.4,-2.2c0,1.6 0.233,3.583 0.7,5.95c0.633,3 1.417,4.7 2.35,5.1c0.267,0.133 1.567,0.2 3.9,0.2c0.18,0.027 0.363,0.043 0.55,0.05l1.75,-0c1,-0 1.733,-0.2 2.2,-0.6c0.4,-0.333 1.1,-1.3 2.1,-2.9c0.067,1.433 0.383,2.417 0.95,2.95c0.5,0.433 1.317,0.65 2.45,0.65c0.333,0 0.95,-0.017 1.85,-0.05c0.051,-0.004 0.101,-0.004 0.15,-0l-0,-0.1c1.6,-0 3.117,-0.083 4.55,-0.25c-0.133,-0.7 -0.2,-1.367 -0.2,-2c-0,-1.333 0.483,-2.883 1.45,-4.65c1.033,-2.033 2.167,-3.05 3.4,-3.05c0.8,-0 1.45,0.533 1.95,1.6c0.433,0.867 0.65,1.733 0.65,2.6c0,1.833 -0.567,3.567 -1.7,5.2c0.309,0.309 0.876,0.493 1.7,0.55l2.05,-0c1.251,-0.04 2.118,-0.173 2.6,-0.4c0.867,-0.4 1.3,-1.283 1.3,-2.65c-0,-1.633 -0.15,-4.083 -0.45,-7.35c-0.333,-3.3 -0.5,-5.767 -0.5,-7.4c0,-1.333 0.767,-2.583 2.3,-3.75l0.55,8.1Zm-13.15,8.8c0.533,-0.467 1.117,-0.7 1.75,-0.7c0.333,0 0.65,0.183 0.95,0.55c0.3,0.4 0.45,0.767 0.45,1.1c0,0.367 -0.267,0.85 -0.8,1.45c-0.567,0.6 -1.05,0.9 -1.45,0.9c-0.233,0 -0.567,-0.2 -1,-0.6c-0.467,-0.4 -0.7,-0.75 -0.7,-1.05c-0,-0.6 0.267,-1.15 0.8,-1.65Zm-28.7,2.9c-0.433,-0 -1,-0.117 -1.7,-0.35c1.433,-0.933 2.75,-1.667 3.95,-2.2c0.267,0.933 0.4,1.483 0.4,1.65c-0,0.233 -0.383,0.45 -1.15,0.65c-0.633,0.167 -1.133,0.25 -1.5,0.25Z"/><path d="M27.4,47.7l2.25,-2.15l-2.25,-2.1l-2.2,2.15l2.2,2.1Z"/><path d="M22.95,47.7l2.25,-2.1l-2.2,-2.15l-2.25,2.1l2.2,2.15Z"/><path d="M34,41.6l2.2,2.15l2.2,-2.1l-2.15,-2.15l-2.25,2.1Z"/><path d="M38.4,41.65l2.25,2.1l2.25,-2.15l-2.25,-2.1l-2.25,2.15Z"/><path d="M3.3,38.95c0.467,0.133 0.833,0.2 1.1,0.2c1.033,-0 2.283,-0.7 3.75,-2.1c0.6,0.333 1.1,0.583 1.5,0.75l0.15,-1.45c-0.3,-0.2 -0.533,-0.35 -0.7,-0.45c0.367,-0.7 0.55,-1.267 0.55,-1.7c-0,-0.867 -0.417,-1.3 -1.25,-1.3c-0.6,-0 -1.133,0.3 -1.6,0.9c-0.4,0.533 -0.6,1.05 -0.6,1.55c0,0.433 0.383,0.867 1.15,1.3c-1.4,1.033 -2.75,1.8 -4.05,2.3Zm5.2,-3.9c-0,0.133 -0.033,0.283 -0.1,0.45c-0.833,-0.367 -1.25,-0.717 -1.25,-1.05c0.067,-0.167 0.183,-0.267 0.35,-0.3c0.667,0.1 1,0.4 1,0.9Z"/><path d="M39.3,33.7c0.467,-0.533 0.7,-1.133 0.7,-1.8c-0,-0.533 -0.167,-1.033 -0.5,-1.5c-0.4,-0.5 -0.883,-0.75 -1.45,-0.75c-0.733,-0 -1.3,0.333 -1.7,1c-0.3,0.5 -0.45,1.15 -0.45,1.95c-0,1.233 0.55,1.85 1.65,1.85c0.7,-0 1.283,-0.25 1.75,-0.75Zm-0.2,-1.4c0,0.4 -0.4,0.6 -1.2,0.6c-1,-0 -1.5,-0.3 -1.5,-0.9c-0,-0.667 0.317,-1 0.95,-1c0.3,-0 0.65,0.15 1.05,0.45c0.467,0.3 0.7,0.583 0.7,0.85Z"/><path d="M57,52.3c0.567,-0.3 1.067,-0.45 1.5,-0.45c0.6,0 1.467,0.283 2.6,0.85c0.067,0.033 0.9,0.5 2.5,1.4c-1.167,0.9 -2.167,1.5 -3,1.8c-0.7,0.233 -1.583,0.35 -2.65,0.35l-1.7,0c-0.315,-0.012 -0.615,-0.029 -0.9,-0.05l0,4.15l1.75,0c1.2,0 2.35,-0.3 3.45,-0.9c0.4,-0.233 1.267,-0.85 2.6,-1.85c1,-0.733 1.867,-1.2 2.6,-1.4c0.633,-0.167 1.417,-0.267 2.35,-0.3c0.8,-0.033 1.6,-0.067 2.4,-0.1c0.5,-1.2 0.9,-2.517 1.2,-3.95c-1.967,0 -3.817,-0.317 -5.55,-0.95c-0.8,-0.333 -2.017,-0.95 -3.65,-1.85c-1.2,-0.667 -2.1,-1 -2.7,-1c-1.2,0 -2.167,0.567 -2.9,1.7c-0.467,0.7 -0.917,1.783 -1.35,3.25c0.5,-0.233 0.983,-0.467 1.45,-0.7Z" style="fill:#f00;"/><path d="M59.65,40.5l2.55,2.4l2.55,-2.4l-2.55,-2.45l-2.55,2.45Z" style="fill:#f00;"/><path d="M82.287,33.283l0.568,-0.355c0.702,-0.439 1.628,-0.225 2.067,0.477c0.439,0.702 0.225,1.628 -0.477,2.067l-0.6,0.375l-0.08,0.043l-4.13,2.538c-0.705,0.433 -1.63,0.213 -2.063,-0.493c-0.433,-0.705 -0.213,-1.63 0.493,-2.063l4.15,-2.55l0.072,-0.039Z"/><path d="M25.451,29.53l-4.85,3.05c-0.7,0.441 -0.912,1.368 -0.471,2.069c0.441,0.7 1.368,0.912 2.069,0.471l4.85,-3.05c0.7,-0.441 0.912,-1.368 0.471,-2.069c-0.441,-0.7 -1.368,-0.912 -2.069,-0.471Z"/><path d="M63.046,29.534l-4.8,3.05c-0.699,0.444 -0.906,1.372 -0.462,2.07c0.444,0.699 1.372,0.906 2.07,0.462l4.8,-3.05c0.699,-0.444 0.906,-1.372 0.462,-2.07c-0.444,-0.699 -1.372,-0.906 -2.07,-0.462Z"/><path d="M50.061,26.874l-4.85,3c-0.704,0.436 -0.922,1.361 -0.487,2.065c0.436,0.704 1.361,0.922 2.065,0.487l4.85,-3c0.704,-0.436 0.922,-1.361 0.487,-2.065c-0.436,-0.704 -1.361,-0.922 -2.065,-0.487Z"/></g></svg>