<?xml version="1.0" encoding="UTF-8" standalone="no"?><!DOCTYPE svg PUBLIC "-//W3C//DTD SVG 1.1//EN" "http://www.w3.org/Graphics/SVG/1.1/DTD/svg11.dtd"><svg width="100%" height="100%" viewBox="0 0 75 92" version="1.1" xmlns="http://www.w3.org/2000/svg" xmlns:xlink="http://www.w3.org/1999/xlink" xml:space="preserve" xmlns:serif="http://www.serif.com/" style="fill-rule:evenodd;clip-rule:evenodd;stroke-linejoin:round;stroke-miterlimit:2;"><g><path d="M35.3,56.35l-0.2,0c-1.625,-0.032 -2.808,-0.515 -3.55,-1.45c-0.667,-0.867 -1,-2.167 -1,-3.9c-0,-2.033 -0.133,-4.733 -0.4,-8.1c-0.3,-4.067 -0.483,-6.767 -0.55,-8.1c-1.533,1.167 -2.3,2.417 -2.3,3.75c-0,1.633 0.167,4.1 0.5,7.4c0.3,3.267 0.45,5.717 0.45,7.35c0,1.367 -0.433,2.25 -1.3,2.65c-0.465,0.219 -1.281,0.335 -2.45,0.35c-1.611,-0.015 -2.744,-0.131 -3.4,-0.35c-0.567,-0.2 -1.067,-0.617 -1.5,-1.25c-0.567,-0.867 -1.217,-1.567 -1.95,-2.1c-0.367,0.367 -0.6,0.733 -0.7,1.1c0.067,0.167 0.067,0.283 0,0.35c-1.833,0.467 -3.383,1.233 -4.65,2.3c-1.5,1.3 -2.25,2.783 -2.25,4.45l-0,0.5l1.55,16.05c0.267,-0.333 0.517,-0.783 0.75,-1.35c0.3,-0.667 0.433,-1.167 0.4,-1.5l-1.15,-14.2c0.633,-1.233 1.583,-1.85 2.85,-1.85l0.55,0.2c-0,0.933 0.233,1.883 0.7,2.85c0.567,1.167 1.283,1.75 2.15,1.75c1.4,0 2.1,-1.35 2.1,-4.05c1.3,0.867 2.25,1.3 2.85,1.3l3.2,0c0.733,0 1.417,-0.467 2.05,-1.4c1,-1.467 1.517,-2.217 1.55,-2.25c0.433,0.767 0.867,1.55 1.3,2.35c0.567,0.867 1.283,1.3 2.15,1.3l2.25,0l-0,-4.15Z"/><path d="M67.2,56.1c0,-1.2 -0.217,-2.35 -0.65,-3.45c-0.567,-1.467 -1.35,-2.2 -2.35,-2.2c-0.867,-0 -1.683,0.717 -2.45,2.15c-0.667,1.3 -1,2.433 -1,3.4c0,1.667 0.667,2.5 2,2.5c1.067,0 2.05,-0.55 2.95,-1.65c0.233,0.5 0.35,0.95 0.35,1.35c-0,2.433 -1.783,4.35 -5.35,5.75c-2.767,1.133 -5.6,1.7 -8.5,1.7c1.4,0.533 2.367,0.867 2.9,1c1,0.3 2.017,0.45 3.05,0.45c2.933,0 5.233,-1.167 6.9,-3.5c1.433,-2.033 2.15,-4.533 2.15,-7.5Zm-2.5,-1.1c0,0.233 -0.133,0.45 -0.4,0.65c-0.3,0.167 -0.6,0.25 -0.9,0.25c-0.033,-0 -0.417,-0.183 -1.15,-0.55c0.333,-0.733 0.667,-1.4 1,-2c0.967,0.433 1.45,0.983 1.45,1.65Z"/><path d="M19,30.25c0,-0.333 -0.133,-0.65 -0.4,-0.95c-0.267,-0.3 -0.583,-0.45 -0.95,-0.45c-0.633,0 -1.2,0.3 -1.7,0.9c-0.533,0.6 -0.8,1.167 -0.8,1.7c-0,0.667 0.45,1.233 1.35,1.7c-0.867,0.833 -1.683,1.367 -2.45,1.6c0.067,-0.767 0.1,-1.233 0.1,-1.4c-0,-1.367 -0.467,-2.05 -1.4,-2.05c-0.5,0 -0.917,0.233 -1.25,0.7c-0.3,0.367 -0.45,0.8 -0.45,1.3c-0,0.267 0.083,0.583 0.25,0.95c0.1,-0.933 0.433,-1.4 1,-1.4c0.267,0 0.5,0.1 0.7,0.3c0.167,0.233 0.25,0.467 0.25,0.7c-0,0.4 -0.283,1.183 -0.85,2.35c1.067,-0.2 1.967,-0.5 2.7,-0.9c0.6,-0.367 1.317,-0.95 2.15,-1.75c0.4,0.3 1.017,0.667 1.85,1.1c0.033,-0.7 0.05,-1.083 0.05,-1.15c-0,-0.433 -0.267,-0.833 -0.8,-1.2c0.433,-0.9 0.65,-1.583 0.65,-2.05Zm-2.75,0.2l0.15,-0.3c0.167,-0.1 0.283,-0.15 0.35,-0.15c0.567,-0 0.85,0.333 0.85,1l-0.1,0.7c-0.833,-0.533 -1.25,-0.95 -1.25,-1.25Z"/><path d="M29.85,29.9c0,-0.533 -0.167,-1.033 -0.5,-1.5c-0.4,-0.5 -0.883,-0.75 -1.45,-0.75c-0.733,-0 -1.3,0.333 -1.7,1c-0.3,0.5 -0.45,1.15 -0.45,1.95c-0,1.233 0.55,1.85 1.65,1.85c0.7,-0 1.283,-0.25 1.75,-0.75c0.467,-0.533 0.7,-1.133 0.7,-1.8Zm-3.6,0.1c0,-0.667 0.317,-1 0.95,-1c0.3,-0 0.65,0.15 1.05,0.45c0.467,0.3 0.7,0.583 0.7,0.85c0,0.4 -0.4,0.6 -1.2,0.6c-1,-0 -1.5,-0.3 -1.5,-0.9Z"/><path d="M39.2,25.7c-0.4,0.533 -0.6,1.05 -0.6,1.55c0,0.433 0.383,0.867 1.15,1.3c-1.4,1.033 -2.75,1.8 -4.05,2.3c0.467,0.133 0.833,0.2 1.1,0.2c1.033,0 2.283,-0.7 3.75,-2.1c0.6,0.333 1.1,0.583 1.5,0.75l0.15,-1.45c-0.3,-0.2 -0.533,-0.35 -0.7,-0.45c0.367,-0.7 0.55,-1.267 0.55,-1.7c-0,-0.867 -0.417,-1.3 -1.25,-1.3c-0.6,0 -1.133,0.3 -1.6,0.9Zm0.35,0.65c0.067,-0.167 0.183,-0.267 0.35,-0.3c0.667,0.1 1,0.4 1,0.9c-0,0.133 -0.033,0.283 -0.1,0.45c-0.833,-0.367 -1.25,-0.717 -1.25,-1.05Z"/><path d="M41,36.1c-0.133,-0.367 -0.2,-1.2 -0.2,-2.5c-1.133,0.833 -2.083,2.283 -2.85,4.35c0.133,0.467 0.583,1.017 1.35,1.65l-0,13c-1.567,1.667 -2.767,2.917 -3.6,3.75l-0.4,0l-0,4.15l4.9,0c2.7,0 5.417,-0.967 8.15,-2.9c2.967,-2.1 4.45,-4.4 4.45,-6.9c-0,-2.133 -1.283,-3.2 -3.85,-3.2c-1.167,0 -2.533,0.483 -4.1,1.45c-1.233,0.867 -2.467,1.717 -3.7,2.55l-0.15,-10.25c0.467,-0.233 0.867,-0.783 1.2,-1.65c0.233,-0.667 0.467,-1.333 0.7,-2c-1.033,-0.4 -1.667,-0.9 -1.9,-1.5Zm9.1,16.7c-1.2,2.367 -3.983,3.55 -8.35,3.55l-3.4,0c3.4,-3.333 6.05,-5 7.95,-5c1.133,0 2.4,0.483 3.8,1.45Z" style="fill:#f00;"/><path d="M44.05,42.15l2.5,2.4l2.55,-2.4l-2.55,-2.45l-2.5,2.45Z" style="fill:#f00;"/><path d="M64.261,29.874l-4.85,3c-0.704,0.436 -0.922,1.361 -0.487,2.065c0.436,0.704 1.361,0.922 2.065,0.487l4.85,-3c0.704,-0.436 0.922,-1.361 0.487,-2.065c-0.436,-0.704 -1.361,-0.922 -2.065,-0.487Z"/></g></svg>