<?xml version="1.0" encoding="UTF-8" standalone="no"?><!DOCTYPE svg PUBLIC "-//W3C//DTD SVG 1.1//EN" "http://www.w3.org/Graphics/SVG/1.1/DTD/svg11.dtd"><svg width="100%" height="100%" viewBox="0 0 50 50" version="1.1" xmlns="http://www.w3.org/2000/svg" xmlns:xlink="http://www.w3.org/1999/xlink" xml:space="preserve" xmlns:serif="http://www.serif.com/" style="fill-rule:evenodd;clip-rule:evenodd;stroke-linejoin:round;stroke-miterlimit:2;"><g><path d="M24.111,7.124l-4.85,3c-0.704,0.436 -0.922,1.361 -0.487,2.065c0.436,0.704 1.361,0.922 2.065,0.487l4.85,-3c0.704,-0.436 0.922,-1.361 0.487,-2.065c-0.436,-0.704 -1.361,-0.922 -2.065,-0.487Z"/><path d="M27.1,21.65c0.467,-0.233 0.867,-0.783 1.2,-1.65c0.233,-0.667 0.467,-1.333 0.7,-2c-1.033,-0.4 -1.667,-0.9 -1.9,-1.5c-0.133,-0.367 -0.2,-1.2 -0.2,-2.5c-1.133,0.833 -2.083,2.283 -2.85,4.35c0.133,0.467 0.583,1.017 1.35,1.65l0,13c-1.567,1.667 -2.767,2.917 -3.6,3.75l-1.75,0l0,4.15l6.25,0c2.7,0 5.417,-0.967 8.15,-2.9c2.967,-2.1 4.45,-4.4 4.45,-6.9c0,-2.133 -1.283,-3.2 -3.85,-3.2c-1.167,0 -2.533,0.483 -4.1,1.45c-1.233,0.867 -2.467,1.717 -3.7,2.55l-0.15,-10.25Zm0.75,15.1l-3.4,0c3.4,-3.333 6.05,-5 7.95,-5c1.133,0 2.4,0.483 3.8,1.45c-1.2,2.367 -3.983,3.55 -8.35,3.55Zm7.35,-14.2l-2.55,-2.45l-2.5,2.45l2.5,2.4l2.55,-2.4Z" style="fill:#f00;fill-rule:nonzero;"/><path d="M16.3,35.15c-0.7,-0.867 -1.05,-2.733 -1.05,-5.6l0,-13.4c-0.433,0.433 -0.867,0.85 -1.3,1.25c-0.3,0.4 -0.45,0.95 -0.45,1.65c0,5.567 0.033,9.15 0.1,10.75c0.2,5.4 0.75,8.65 1.65,9.75c0.733,0.9 1.75,1.35 3.05,1.35l1.75,0l0,-4.15l1.25,0c-2.542,-0.054 -4.209,-0.587 -5,-1.6Z" style="fill-rule:nonzero;"/></g></svg>