<?xml version="1.0" encoding="UTF-8" standalone="no"?><!DOCTYPE svg PUBLIC "-//W3C//DTD SVG 1.1//EN" "http://www.w3.org/Graphics/SVG/1.1/DTD/svg11.dtd"><svg width="100%" height="100%" viewBox="0 0 58 92" version="1.1" xmlns="http://www.w3.org/2000/svg" xmlns:xlink="http://www.w3.org/1999/xlink" xml:space="preserve" xmlns:serif="http://www.serif.com/" style="fill-rule:evenodd;clip-rule:evenodd;stroke-linejoin:round;stroke-miterlimit:2;"><g><path d="M45.2,48.3l0,2.9c1.2,-0 2.467,0.5 3.8,1.5c1.367,1.033 2.05,2.117 2.05,3.25c-0,0.467 -0.767,0.85 -2.3,1.15c-1.167,0.2 -2.167,0.3 -3,0.3c-1.1,-0 -2.233,-0.3 -3.4,-0.9c-0.133,1.5 -0.2,2.333 -0.2,2.5c-0,1.133 0.4,1.867 1.2,2.2c0.4,0.167 1.333,0.25 2.8,0.25c1.867,0 3.3,-0.533 4.3,-1.6c0.933,-1.033 1.4,-2.45 1.4,-4.25c0,-2.167 -0.533,-4.1 -1.6,-5.8c-1.167,-1.833 -2.783,-3.083 -4.85,-3.75c-0.167,0.633 -0.233,1.383 -0.2,2.25Z"/><path d="M35.35,35.2c0,0.167 -0.05,0.417 -0.15,0.75c-0.1,0.333 -0.15,0.567 -0.15,0.7c-0,0.467 0.333,1.017 1,1.65c0.633,0.633 0.95,1.05 0.95,1.25c-0,0.5 -0.183,1.167 -0.55,2c-0.4,0.767 -0.6,1.333 -0.6,1.7c0,0.7 0.067,1.75 0.2,3.15c0.133,1.4 0.2,2.45 0.2,3.15l-0,3.85c-0,1.833 -0.267,3.367 -0.8,4.6c-0.733,1.7 -1.917,2.55 -3.55,2.55l-4.55,-0c-0.767,-0 -1.567,-0.517 -2.4,-1.55c-0.333,-0.4 -0.867,-1.233 -1.6,-2.5c-1.067,1.433 -2.9,2.65 -5.5,3.65c-2.367,0.867 -4.583,1.3 -6.65,1.3c-2.133,0 -3.867,-0.367 -5.2,-1.1c-1.6,-0.933 -2.4,-2.367 -2.4,-4.3c0,-1 0.25,-2.167 0.75,-3.5c0.6,-1.5 1.3,-2.433 2.1,-2.8c-0.533,1.467 -0.8,2.783 -0.8,3.95c-0,2.733 2.867,4.1 8.6,4.1c1.4,-0 3.133,-0.467 5.2,-1.4c2.367,-1.1 3.55,-2.25 3.55,-3.45c-0,-1.833 -0.117,-4.15 -0.35,-6.95c-0.233,-2.333 -0.45,-4.667 -0.65,-7c-0,-0.367 0.333,-1 1,-1.9c0.6,-0.733 1.1,-1.283 1.5,-1.65c-0,11.833 0.483,18.45 1.45,19.85c0.4,0.6 1.083,0.967 2.05,1.1l2.4,-0l-0,0.05l0.55,-0c2.267,0.033 3.4,-0.533 3.4,-1.7c0,-6.1 -0.25,-10.65 -0.75,-13.65c-0.767,-0.867 -1.217,-1.567 -1.35,-2.1c0.767,-2.033 1.783,-3.467 3.05,-4.3l0.05,0.5Z"/><path d="M17.45,45.35c0,-0.267 -0.117,-0.533 -0.35,-0.8c-0.233,-0.267 -0.5,-0.4 -0.8,-0.4c-0.533,-0 -1.35,0.817 -2.45,2.45c-1,1.567 -1.5,2.633 -1.5,3.2c0,0.567 0.467,0.867 1.4,0.9c1.2,-0 2,0.2 2.4,0.6c-0.9,0.867 -1.867,1.3 -2.9,1.3c-0.467,0 -1.033,-0.067 -1.7,-0.2c0.4,0.5 0.733,0.833 1,1c0.3,0.167 0.767,0.25 1.4,0.25c1,-0 1.783,-0.233 2.35,-0.7c0.667,-0.5 1,-1.2 1,-2.1c-0,-0.933 -0.6,-1.517 -1.8,-1.75c-1.167,-0.233 -1.75,-0.417 -1.75,-0.55c0,-0.333 0.217,-0.717 0.65,-1.15c0.4,-0.4 0.783,-0.6 1.15,-0.6c0.267,0 0.517,0.083 0.75,0.25c0.767,-0.333 1.15,-0.9 1.15,-1.7Z"/><path d="M46.9,36.9l-2.55,2.45l2.55,2.4l2.55,-2.4l-2.55,-2.45Z"/><path d="M42.3,35.55c0.833,-0.4 1.25,-0.933 1.25,-1.6c-0,-0.5 -0.183,-1.267 -0.55,-2.3c-0.367,-1 -0.55,-1.75 -0.55,-2.25c-0.767,0.5 -1.15,0.933 -1.15,1.3c-0,0.467 0.183,1.15 0.55,2.05c0.367,0.9 0.55,1.583 0.55,2.05c-0,0.3 -0.033,0.55 -0.1,0.75Z"/><path d="M34.961,63.924l-4.85,3c-0.704,0.436 -0.922,1.361 -0.487,2.065c0.436,0.704 1.361,0.922 2.065,0.487l4.85,-3c0.704,-0.436 0.922,-1.361 0.487,-2.065c-0.436,-0.704 -1.361,-0.922 -2.065,-0.487Z"/><path d="M19.761,27.574l-4.85,3c-0.704,0.436 -0.922,1.361 -0.487,2.065c0.436,0.704 1.361,0.922 2.065,0.487l4.85,-3c0.704,-0.436 0.922,-1.361 0.487,-2.065c-0.436,-0.704 -1.361,-0.922 -2.065,-0.487Z"/></g></svg>