<?xml version="1.0" encoding="UTF-8" standalone="no"?><!DOCTYPE svg PUBLIC "-//W3C//DTD SVG 1.1//EN" "http://www.w3.org/Graphics/SVG/1.1/DTD/svg11.dtd"><svg width="100%" height="100%" viewBox="0 0 35 50" version="1.1" xmlns="http://www.w3.org/2000/svg" xmlns:xlink="http://www.w3.org/1999/xlink" xml:space="preserve" xmlns:serif="http://www.serif.com/" style="fill-rule:evenodd;clip-rule:evenodd;stroke-linejoin:round;stroke-miterlimit:2;"><g><path d="M19.461,9.124l-4.85,3c-0.704,0.436 -0.922,1.361 -0.487,2.065c0.436,0.704 1.361,0.922 2.065,0.487l4.85,-3c0.704,-0.436 0.922,-1.361 0.487,-2.065c-0.436,-0.704 -1.361,-0.922 -2.065,-0.487Z"/><path d="M23.4,35.95c0,-2.167 -0.533,-4.1 -1.6,-5.8c-1.167,-1.833 -2.783,-3.083 -4.85,-3.75c-0.167,0.633 -0.233,1.383 -0.2,2.25l0,2.9c1.2,0 2.467,0.5 3.8,1.5c1.367,1.033 2.05,2.117 2.05,3.25c0,0.467 -0.767,0.85 -2.3,1.15c-1.167,0.2 -2.167,0.3 -3,0.3c-1.1,0 -2.233,-0.3 -3.4,-0.9c-0.133,1.5 -0.2,2.333 -0.2,2.5c0,1.133 0.4,1.867 1.2,2.2c0.4,0.167 1.333,0.25 2.8,0.25c1.867,0 3.3,-0.533 4.3,-1.6c0.933,-1.033 1.4,-2.45 1.4,-4.25Zm-7.5,-16.25l2.55,2.4l2.55,-2.4l-2.55,-2.45l-2.55,2.45Z" style="fill-rule:nonzero;"/></g></svg>