<?xml version="1.0" encoding="UTF-8" standalone="no"?><!DOCTYPE svg PUBLIC "-//W3C//DTD SVG 1.1//EN" "http://www.w3.org/Graphics/SVG/1.1/DTD/svg11.dtd"><svg width="100%" height="100%" viewBox="0 0 47 79" version="1.1" xmlns="http://www.w3.org/2000/svg" xmlns:xlink="http://www.w3.org/1999/xlink" xml:space="preserve" xmlns:serif="http://www.serif.com/" style="fill-rule:evenodd;clip-rule:evenodd;stroke-linejoin:round;stroke-miterlimit:2;"><g><path d="M26.75,46.55l1.5,0c-2.189,-0.071 -3.689,-0.621 -4.5,-1.65c-0.8,-1.033 -1.433,-4.083 -1.9,-9.15c-0.233,-3.333 -0.467,-6.667 -0.7,-10c-0.3,0.233 -0.75,0.8 -1.35,1.7c-0.667,0.933 -0.983,1.517 -0.95,1.75l1.7,23.4c0.067,0.833 -0.817,1.55 -2.65,2.15c-1.433,0.467 -2.683,0.7 -3.75,0.7c-1.533,-0 -2.783,-0.283 -3.75,-0.85c-1.2,-0.667 -1.8,-1.683 -1.8,-3.05c0,-1.767 0.183,-3.4 0.55,-4.9c-0.667,0.467 -1.267,1.517 -1.8,3.15c-0.467,1.433 -0.7,2.65 -0.7,3.65c-0,2.267 0.367,3.933 1.1,5c0.9,1.267 2.483,1.9 4.75,1.9c3.367,0 5.833,-1.15 7.4,-3.45c1,-1.467 1.917,-4.083 2.75,-7.85c0.433,0.367 0.85,0.733 1.25,1.1c0.533,0.367 1.067,0.55 1.6,0.55l1.25,-0l-0,-4.15Z"/><path d="M19.65,19.6l-0.2,0.05c-0.133,0.6 -0.233,1 -0.3,1.2c-0.2,0.5 -0.483,0.75 -0.85,0.75c-0.333,0 -0.5,-0.45 -0.5,-1.35l-0.25,0.05c-0.2,0.633 -0.3,1.033 -0.3,1.2c0,0.333 0.083,0.633 0.25,0.9c0.167,0.267 0.433,0.4 0.8,0.4c0.267,0 0.533,-0.1 0.8,-0.3c0.267,-0.2 0.417,-0.433 0.45,-0.7c0.233,0.167 0.5,0.25 0.8,0.25c0.867,0 1.3,-0.683 1.3,-2.05c-0,-0.333 -0.05,-0.717 -0.15,-1.15l-0.3,0.15c0,1.167 -0.283,1.75 -0.85,1.75c-0.267,0 -0.5,-0.383 -0.7,-1.15Z"/><path d="M35,29.8c0.233,-0.667 0.467,-1.333 0.7,-2c-1.033,-0.4 -1.667,-0.9 -1.9,-1.5c-0.133,-0.367 -0.2,-1.2 -0.2,-2.5c-1.133,0.833 -2.083,2.283 -2.85,4.35c0.133,0.467 0.583,1.017 1.35,1.65l0,13c-1.567,1.667 -2.767,2.917 -3.6,3.75l-1.75,0l0,4.15l6.25,-0c2.7,-0 5.417,-0.967 8.15,-2.9c2.967,-2.1 4.45,-4.4 4.45,-6.9c-0,-2.133 -1.283,-3.2 -3.85,-3.2c-1.167,-0 -2.533,0.483 -4.1,1.45c-1.233,0.867 -2.467,1.717 -3.7,2.55l-0.15,-10.25c0.467,-0.233 0.867,-0.783 1.2,-1.65Zm4.1,11.75c1.133,0 2.4,0.483 3.8,1.45c-1.2,2.367 -3.983,3.55 -8.35,3.55l-3.4,0c3.4,-3.333 6.05,-5 7.95,-5Z" style="fill:#f00;"/><path d="M39.35,29.9l-2.5,2.45l2.5,2.4l2.55,-2.4l-2.55,-2.45Z" style="fill:#f00;"/><path d="M37.161,53.024l-4.85,3c-0.704,0.436 -0.922,1.361 -0.487,2.065c0.436,0.704 1.361,0.922 2.065,0.487l4.85,-3c0.704,-0.436 0.922,-1.361 0.487,-2.065c-0.436,-0.704 -1.361,-0.922 -2.065,-0.487Z"/><path d="M18.411,62.074l-4.85,3c-0.704,0.436 -0.922,1.361 -0.487,2.065c0.436,0.704 1.361,0.922 2.065,0.487l4.85,-3c0.704,-0.436 0.922,-1.361 0.487,-2.065c-0.436,-0.704 -1.361,-0.922 -2.065,-0.487Z"/><path d="M19.907,66.249l-4.85,3c-0.704,0.436 -0.922,1.361 -0.486,2.065c0.435,0.704 1.36,0.922 2.064,0.487l4.85,-3c0.704,-0.436 0.922,-1.361 0.487,-2.065c-0.436,-0.704 -1.361,-0.922 -2.065,-0.487Z"/></g></svg>