<?xml version="1.0" encoding="UTF-8" standalone="no"?><!DOCTYPE svg PUBLIC "-//W3C//DTD SVG 1.1//EN" "http://www.w3.org/Graphics/SVG/1.1/DTD/svg11.dtd"><svg width="100%" height="100%" viewBox="0 0 76 79" version="1.1" xmlns="http://www.w3.org/2000/svg" xmlns:xlink="http://www.w3.org/1999/xlink" xml:space="preserve" xmlns:serif="http://www.serif.com/" style="fill-rule:evenodd;clip-rule:evenodd;stroke-linejoin:round;stroke-miterlimit:2;"><path d="M34.25,27.25l0.85,33.05c1.833,-1.5 2.75,-5.5 2.75,-12l-0.3,-26.25c-2.2,2.9 -3.3,4.633 -3.3,5.2Z"/><path d="M65.95,22.05c-2.2,2.9 -3.3,4.633 -3.3,5.2l0.85,33.05c1.833,-1.5 2.75,-5.5 2.75,-12l-0.3,-26.25Z"/><path d="M53.95,41.85c-1.7,-2.767 -4.017,-4.633 -6.95,-5.6c-0.233,0.933 -0.35,2.033 -0.35,3.3l0.05,4.4c1.733,-0 3.55,0.733 5.45,2.2c2,1.567 3,3.2 3,4.9c0,0.667 -1.1,1.233 -3.3,1.7c-1.7,0.333 -3.15,0.5 -4.35,0.5c-1.633,0 -3.283,-0.45 -4.95,-1.35c-0.2,2.233 -0.3,3.467 -0.3,3.7c0,1.733 0.583,2.833 1.75,3.3c0.6,0.267 1.95,0.4 4.05,0.4c2.7,0 4.767,-0.817 6.2,-2.45c1.367,-1.5 2.05,-3.617 2.05,-6.35c-0,-3.233 -0.783,-6.117 -2.35,-8.65Z"/><path d="M49.1,29.75l3.7,-3.6l-3.65,-3.65l-3.7,3.65l3.65,3.6Z"/><path d="M69,13.8c-1.067,0.667 -1.6,1.283 -1.6,1.85c0,0.667 0.267,1.65 0.8,2.95c0.5,1.3 0.75,2.283 0.75,2.95c0,0.433 -0.067,0.8 -0.2,1.1c1.167,-0.567 1.75,-1.333 1.75,-2.3c0,-0.733 -0.25,-1.833 -0.75,-3.3c-0.5,-1.467 -0.75,-2.55 -0.75,-3.25Z"/><path d="M25.55,36.75c-0.733,1.4 -1.45,3.35 -2.15,5.85c1.3,1.733 2.15,2.967 2.55,3.7c0.8,1.467 1.2,2.883 1.2,4.25c0,1.667 -1.317,3.083 -3.95,4.25c-2.2,0.967 -4.283,1.45 -6.25,1.45c-4.867,-0 -7.3,-2.033 -7.3,-6.1c0,-0.667 0.133,-1.65 0.4,-2.95c0.267,-1.333 0.4,-2.317 0.4,-2.95c-1,1 -1.8,2.433 -2.4,4.3c-0.567,1.7 -0.85,3.35 -0.85,4.95c0,2.867 0.867,5.033 2.6,6.5c1.6,1.433 3.867,2.15 6.8,2.15c3.667,-0 6.733,-1.317 9.2,-3.95c2.5,-2.6 3.75,-5.733 3.75,-9.4c-0,-4.767 -1.333,-8.783 -4,-12.05Z" style="fill:#f00;"/><path d="M12.75,30.85l3.7,3.6l3.65,-3.6l-3.65,-3.65l-3.7,3.65Z" style="fill:#f00;"/><path d="M17.678,15.179l-7,5c-0.674,0.482 -0.83,1.419 -0.349,2.093c0.482,0.674 1.419,0.83 2.093,0.349l7,-5c0.674,-0.482 0.83,-1.419 0.349,-2.093c-0.482,-0.674 -1.419,-0.83 -2.093,-0.349Z"/><path d="M48.178,13.679l-7,5c-0.674,0.482 -0.83,1.419 -0.349,2.093c0.482,0.674 1.419,0.83 2.093,0.349l7,-5c0.674,-0.482 0.83,-1.419 0.349,-2.093c-0.482,-0.674 -1.419,-0.83 -2.093,-0.349Z"/></svg>