<?xml version="1.0" encoding="UTF-8" standalone="no"?><!DOCTYPE svg PUBLIC "-//W3C//DTD SVG 1.1//EN" "http://www.w3.org/Graphics/SVG/1.1/DTD/svg11.dtd"><svg width="100%" height="100%" viewBox="0 0 47 64" version="1.1" xmlns="http://www.w3.org/2000/svg" xmlns:xlink="http://www.w3.org/1999/xlink" xml:space="preserve" xmlns:serif="http://www.serif.com/" style="fill-rule:evenodd;clip-rule:evenodd;stroke-linejoin:round;stroke-miterlimit:2;"><rect x="3.95" y="39.25" width="6.9" height="6.25"/><path d="M25.9,39.25l0,6.25l9.8,0l0,-6.25l-9.8,0Z"/><path d="M21.55,15.85c-0,-0.833 -0.25,-1.6 -0.75,-2.3c-0.533,-0.733 -1.217,-1.1 -2.05,-1.1c-1.067,-0 -1.883,0.483 -2.45,1.45c-0.467,0.8 -0.7,1.783 -0.7,2.95c-0,1.867 0.817,2.8 2.45,2.8c0.967,0 1.8,-0.4 2.5,-1.2c0.667,-0.767 1,-1.633 1,-2.6Zm-1.25,0.55c-0,0.633 -0.6,0.95 -1.8,0.95c-1.433,-0 -2.15,-0.45 -2.15,-1.35c-0,-1.033 0.467,-1.55 1.4,-1.55c0.4,-0 0.917,0.233 1.55,0.7c0.667,0.467 1,0.883 1,1.25Z"/><path d="M23.3,55.5l-3.65,-3.65l-3.7,3.65l3.7,3.6l3.65,-3.6Z" style="fill:#f00;"/><path d="M22.8,38.85c-1.167,-0.567 -1.75,-2.217 -1.75,-4.95c-0.967,0.733 -1.617,1.683 -1.95,2.85c-0.267,0.967 -0.75,1.583 -1.45,1.85c-0.91,0.37 -2.693,0.586 -5.35,0.65l-1.45,0l-0,6.25l3.75,0c1.2,0 2.183,-0.45 2.95,-1.35c0.233,-0.267 0.833,-1.233 1.8,-2.9c1.2,1.8 1.833,2.733 1.9,2.8c0.833,0.967 1.8,1.45 2.9,1.45l1.75,0l0,-6.25l0.6,0c-2.023,-0.058 -3.256,-0.191 -3.7,-0.4Z" style="fill:#f00;"/></svg>