<?xml version="1.0" encoding="UTF-8" standalone="no"?><!DOCTYPE svg PUBLIC "-//W3C//DTD SVG 1.1//EN" "http://www.w3.org/Graphics/SVG/1.1/DTD/svg11.dtd"><svg width="100%" height="100%" viewBox="0 0 33 32" version="1.1" xmlns="http://www.w3.org/2000/svg" xmlns:xlink="http://www.w3.org/1999/xlink" xml:space="preserve" xmlns:serif="http://www.serif.com/" style="fill-rule:evenodd;clip-rule:evenodd;stroke-linejoin:round;stroke-miterlimit:2;"><path d="M16.25,22.55l-2.05,-1.85l-2.05,1.85l2.05,1.8l2.05,-1.8Z" style="fill:#f00;"/><path d="M27.65,17.6l-0,-3.15c-1.167,-0 -1.95,-0.167 -2.35,-0.5c-0.4,-0.333 -0.683,-1.033 -0.85,-2.1c-2.467,2.267 -5.65,3.4 -9.55,3.4c-1.767,-0 -3.383,-0.217 -4.85,-0.65c-2.033,-0.633 -3.05,-1.6 -3.05,-2.9c0,-0.567 0.3,-1.383 0.9,-2.45c-0.667,0.4 -1.217,0.983 -1.65,1.75c-0.4,0.733 -0.6,1.467 -0.6,2.2c-0,1.6 0.717,2.85 2.15,3.75c1.267,0.8 2.833,1.2 4.7,1.2c3.667,-0 7.383,-0.967 11.15,-2.9c0.867,1.567 1.767,2.35 2.7,2.35l1.3,0Z" style="fill:#f00;"/></svg>