<?xml version="1.0" encoding="UTF-8" standalone="no"?><!DOCTYPE svg PUBLIC "-//W3C//DTD SVG 1.1//EN" "http://www.w3.org/Graphics/SVG/1.1/DTD/svg11.dtd"><svg width="100%" height="100%" viewBox="0 0 61 79" version="1.1" xmlns="http://www.w3.org/2000/svg" xmlns:xlink="http://www.w3.org/1999/xlink" xml:space="preserve" xmlns:serif="http://www.serif.com/" style="fill-rule:evenodd;clip-rule:evenodd;stroke-linejoin:round;stroke-miterlimit:2;"><path d="M15.4,60c1.833,-1.5 2.75,-5.5 2.75,-12l-0.3,-26.25c-2.2,2.9 -3.3,4.633 -3.3,5.2l0.85,33.05Z"/><path d="M35,32.35c-0.967,3.433 -1.433,5.25 -1.4,5.45l2.2,11.9c-0.867,1.1 -2.333,2.017 -4.4,2.75c-1.833,0.667 -3.55,1 -5.15,1c-1.667,-0 -3.233,-0.733 -4.7,-2.2l-0,6.3c-0,1.267 1.4,1.9 4.2,1.9c3.067,-0 5.25,-0.5 6.55,-1.5c0.633,-0.5 2,-2.283 4.1,-5.35c0.433,1.333 0.867,2.65 1.3,3.95c0.7,1.6 1.633,2.4 2.8,2.4l1.2,-0l0,-6.2l0.1,0c-0.469,-0.032 -0.819,-0.099 -1.05,-0.2c-0.967,-0.467 -2.15,-3.6 -3.55,-9.4c-0.667,-2.867 -1.4,-6.467 -2.2,-10.8Z"/><path d="M44.2,58.95l0,-0.05c-0.219,0.029 -0.453,0.046 -0.7,0.05l0.7,-0Z"/><path d="M44.2,52.7c-0.266,0.02 -0.516,0.037 -0.75,0.05c0.256,0.004 0.506,0.004 0.75,0l0,-0.05Z"/><path d="M48.25,72.5l3.7,-3.6l-3.7,-3.65l-3.65,3.65l3.65,3.6Z" style="fill:#f00;"/><path d="M53.525,46.688c0.217,1.158 0.325,1.995 0.325,2.512c0,3.633 -0.883,6.2 -2.65,7.7c-1.466,1.252 -3.799,1.919 -7,2c-0.219,0.029 -0.453,0.046 -0.7,0.05l-1.8,-0l0,-6.2l2.5,0c4.22,-0.001 6.786,-0.584 7.7,-1.75c-0.233,-0.767 -0.8,-2.033 -1.7,-3.8c0.6,-1.1 1.383,-2.75 2.35,-4.95l0.975,4.438Z" style="fill:#f00;"/><path d="M50.928,15.179l-7,5c-0.674,0.482 -0.83,1.419 -0.349,2.093c0.482,0.674 1.419,0.83 2.093,0.349l7,-5c0.674,-0.482 0.83,-1.419 0.349,-2.093c-0.482,-0.674 -1.419,-0.83 -2.093,-0.349Z"/><path d="M34.828,15.179l-7,5c-0.674,0.482 -0.83,1.419 -0.349,2.093c0.482,0.674 1.419,0.83 2.093,0.349l7,-5c0.674,-0.482 0.83,-1.419 0.349,-2.093c-0.482,-0.674 -1.419,-0.83 -2.093,-0.349Z"/><path d="M18.828,12.929l-7,5c-0.674,0.482 -0.83,1.419 -0.349,2.093c0.482,0.674 1.419,0.83 2.093,0.349l7,-5c0.674,-0.482 0.83,-1.419 0.349,-2.093c-0.482,-0.674 -1.419,-0.83 -2.093,-0.349Z"/></svg>