<?xml version="1.0" encoding="UTF-8" standalone="no"?><!DOCTYPE svg PUBLIC "-//W3C//DTD SVG 1.1//EN" "http://www.w3.org/Graphics/SVG/1.1/DTD/svg11.dtd"><svg width="100%" height="100%" viewBox="0 0 48 76" version="1.1" xmlns="http://www.w3.org/2000/svg" xmlns:xlink="http://www.w3.org/1999/xlink" xml:space="preserve" xmlns:serif="http://www.serif.com/" style="fill-rule:evenodd;clip-rule:evenodd;stroke-linejoin:round;stroke-miterlimit:2;"><path d="M29.65,52.2l0,-0.05c-0.261,0.027 -0.528,0.044 -0.8,0.05l0.8,-0Z"/><path d="M29.65,46l-2.9,0l-0,6.2l-6.9,-0l-0,-6.25l9.8,-0l0,0.05Z"/><path d="M29.65,62.15l3.65,3.6l3.7,-3.6l-3.7,-3.65l-3.65,3.65Z" style="fill:#f00;"/><path d="M38.575,39.938c0.217,1.158 0.325,1.995 0.325,2.512c0,3.633 -0.883,6.2 -2.65,7.7c-1.404,1.199 -3.604,1.866 -6.6,2c-0.261,0.027 -0.528,0.044 -0.8,0.05l-2.1,-0l-0,-6.2l2.9,0c3.982,-0.038 6.415,-0.621 7.3,-1.75c-0.233,-0.767 -0.8,-2.033 -1.7,-3.8c0.6,-1.1 1.383,-2.75 2.35,-4.95l0.975,4.438Z" style="fill:#f00;"/><path d="M12.95,50.2c1.033,1.333 2.5,2 4.4,2l2.5,-0l-0,-6.25l1.85,-0c-3.695,-0.081 -6.112,-0.864 -7.25,-2.35c-1,-1.333 -1.5,-4.133 -1.5,-8.4l0,-20.1c-0.633,0.633 -1.25,1.25 -1.85,1.85c-0.467,0.6 -0.7,1.433 -0.7,2.5c0,8.367 0.05,13.733 0.15,16.1c0.333,8.1 1.133,12.983 2.4,14.65Z" style="fill:#f00;"/><path d="M36.578,10.379l-7,5c-0.674,0.482 -0.83,1.419 -0.349,2.093c0.482,0.674 1.419,0.83 2.093,0.349l7,-5c0.674,-0.482 0.83,-1.419 0.349,-2.093c-0.482,-0.674 -1.419,-0.83 -2.093,-0.349Z"/><path d="M14.578,6.879l-7,5c-0.674,0.482 -0.83,1.419 -0.349,2.093c0.482,0.674 1.419,0.83 2.093,0.349l7,-5c0.674,-0.482 0.83,-1.419 0.349,-2.093c-0.482,-0.674 -1.419,-0.83 -2.093,-0.349Z"/></svg>