<?xml version="1.0" encoding="UTF-8" standalone="no"?><!DOCTYPE svg PUBLIC "-//W3C//DTD SVG 1.1//EN" "http://www.w3.org/Graphics/SVG/1.1/DTD/svg11.dtd"><svg width="100%" height="100%" viewBox="0 0 81 74" version="1.1" xmlns="http://www.w3.org/2000/svg" xmlns:xlink="http://www.w3.org/1999/xlink" xml:space="preserve" xmlns:serif="http://www.serif.com/" style="fill-rule:evenodd;clip-rule:evenodd;stroke-linejoin:round;stroke-miterlimit:2;"><path d="M60.35,53.25l-0,-0.05c-0.261,0.027 -0.528,0.044 -0.8,0.05l0.8,0Z"/><path d="M60.35,47.05l-2.9,0l0,6.2l-6.9,-0l-0,-6.25l9.8,-0l-0,0.05Z"/><path d="M18.6,44.65c-1.1,2.2 -1.65,3.967 -1.65,5.3c0,1.667 0.8,2.717 2.4,3.15c1.467,0.233 2.95,0.467 4.45,0.7c-1.733,2.633 -3.55,4.55 -5.45,5.75c-2.133,1.367 -4.65,2.05 -7.55,2.05c-1.567,0 -3.833,-0.133 -6.8,-0.4c2.767,2.733 5.983,4.1 9.65,4.1c3.133,0 5.833,-1.3 8.1,-3.9c1.533,-1.8 3.033,-4.517 4.5,-8.15l12.1,0l-0,-6.25l-9.8,0l-0,0.3c-0.654,-0.008 -1.32,-0.041 -2,-0.1c-0.567,-1.233 -1.133,-2.467 -1.7,-3.7c-0.9,-1.567 -1.8,-2.35 -2.7,-2.35c-1.133,-0 -2.317,1.167 -3.55,3.5Zm4.65,4.5c-0.933,-0 -2.033,-0.1 -3.3,-0.3c0,-0.5 -0.1,-0.817 -0.3,-0.95c0.367,-0.767 0.733,-1.45 1.1,-2.05c0.967,0.433 1.583,0.833 1.85,1.2c0.233,0.333 0.45,1.033 0.65,2.1Z"/><path d="M34.8,12.45c-0,-1.967 -0.75,-2.95 -2.25,-2.95c-1.067,0 -2.017,0.683 -2.85,2.05c-0.733,1.233 -1.1,2.417 -1.1,3.55c-0,0.933 0.7,1.917 2.1,2.95c-2.5,2.333 -4.867,4.1 -7.1,5.3c0.8,0.267 1.433,0.4 1.9,0.4c1.833,0 4.05,-1.6 6.65,-4.8c1.033,0.767 1.917,1.333 2.65,1.7l0.25,-3.3c-0.567,-0.467 -1,-0.8 -1.3,-1c0.7,-1.633 1.05,-2.933 1.05,-3.9Zm-3.85,-0.05c1.167,0.2 1.75,0.867 1.75,2c0,0.3 -0.05,0.65 -0.15,1.05c-1.5,-0.867 -2.25,-1.683 -2.25,-2.45c0.133,-0.333 0.35,-0.533 0.65,-0.6Z"/><path d="M64,66.8l3.7,-3.6l-3.7,-3.65l-3.65,3.65l3.65,3.6Z" style="fill:#f00;"/><path d="M36.9,47l1.45,0l-0,6.25l0.85,0c1.2,0 2.183,-0.45 2.95,-1.35c0.233,-0.267 0.833,-1.233 1.8,-2.9c1.2,1.8 1.833,2.733 1.9,2.8c0.833,0.967 1.8,1.45 2.9,1.45l1.8,0l-0,-6.25l0.6,0c-2.053,-0.057 -3.303,-0.19 -3.75,-0.4c-1.167,-0.567 -1.75,-2.217 -1.75,-4.95c-0.967,0.733 -1.617,1.683 -1.95,2.85c-0.267,0.967 -0.75,1.583 -1.45,1.85c-0.91,0.37 -2.693,0.586 -5.35,0.65Z" style="fill:#f00;"/><path d="M69.275,40.987c0.217,1.159 0.325,1.996 0.325,2.513c-0,3.633 -0.883,6.2 -2.65,7.7c-1.404,1.199 -3.604,1.866 -6.6,2c-0.261,0.027 -0.528,0.044 -0.8,0.05l-2.1,0l0,-6.2l2.9,0c3.982,-0.038 6.415,-0.621 7.3,-1.75c-0.233,-0.767 -0.8,-2.033 -1.7,-3.8c0.6,-1.1 1.383,-2.75 2.35,-4.95l0.975,4.437Z" style="fill:#f00;"/><path d="M43.75,27.85l-3.65,3.65l3.65,3.6l3.7,-3.6l-3.7,-3.65Z" style="fill:#f00;"/><path d="M66.728,10.179l-7,5c-0.674,0.482 -0.83,1.419 -0.349,2.093c0.482,0.674 1.419,0.83 2.093,0.349l7,-5c0.674,-0.482 0.83,-1.419 0.349,-2.093c-0.482,-0.674 -1.419,-0.83 -2.093,-0.349Z"/></svg>