<?xml version="1.0" encoding="UTF-8" standalone="no"?><!DOCTYPE svg PUBLIC "-//W3C//DTD SVG 1.1//EN" "http://www.w3.org/Graphics/SVG/1.1/DTD/svg11.dtd"><svg width="100%" height="100%" viewBox="0 0 94 90" version="1.1" xmlns="http://www.w3.org/2000/svg" xmlns:xlink="http://www.w3.org/1999/xlink" xml:space="preserve" xmlns:serif="http://www.serif.com/" style="fill-rule:evenodd;clip-rule:evenodd;stroke-linejoin:round;stroke-miterlimit:2;"><path d="M49.75,43.15c-0.667,-2.867 -1.4,-6.467 -2.2,-10.8c-0.967,3.433 -1.433,5.25 -1.4,5.45l2.2,11.9c-0.867,1.1 -2.333,2.017 -4.4,2.75c-1.833,0.667 -3.55,1 -5.15,1c-1.667,-0 -3.233,-0.733 -4.7,-2.2l0,6.3c0,1.267 1.4,1.9 4.2,1.9c3.067,0 5.25,-0.5 6.55,-1.5c0.633,-0.5 2,-2.283 4.1,-5.35c0.433,1.333 0.867,2.65 1.3,3.95c0.7,1.6 1.633,2.4 2.8,2.4l1.2,0l0,-6.2c-0.418,-0.039 -0.734,-0.106 -0.95,-0.2c-0.967,-0.467 -2.15,-3.6 -3.55,-9.4Z"/><path d="M79.15,58.95l-0,-0.05c-0.261,0.027 -0.528,0.044 -0.8,0.05l0.8,-0Z"/><path d="M79.15,52.75l-2.9,0l0,6.2l-6.9,-0l0,-6.25l9.8,-0l-0,0.05Z"/><path d="M43.35,15.1c-1.067,0 -1.883,0.483 -2.45,1.45c-0.467,0.8 -0.7,1.783 -0.7,2.95c0,1.867 0.817,2.8 2.45,2.8c0.967,0 1.8,-0.4 2.5,-1.2c0.667,-0.767 1,-1.633 1,-2.6c-0,-0.833 -0.25,-1.6 -0.75,-2.3c-0.533,-0.733 -1.217,-1.1 -2.05,-1.1Zm-1,2c0.4,0 0.917,0.233 1.55,0.7c0.667,0.467 1,0.883 1,1.25c-0,0.633 -0.6,0.95 -1.8,0.95c-1.433,0 -2.15,-0.45 -2.15,-1.35c0,-1.033 0.467,-1.55 1.4,-1.55Z"/><path d="M63.05,72.55l3.65,-3.6l-3.65,-3.65l-3.7,3.65l3.7,3.6Z" style="fill:#f00;"/><path d="M82.8,72.5l3.7,-3.6l-3.7,-3.65l-3.65,3.65l3.65,3.6Z" style="fill:#f00;"/><path d="M25.4,49.45c-0.533,-0.967 -1.55,-2.2 -3.05,-3.7l-1.35,5.2c0.767,0.867 1.533,1.733 2.3,2.6c1.033,1.267 1.55,2.233 1.55,2.9c0,3.3 -2.417,6.15 -7.25,8.55c-4.1,2 -8.017,3 -11.75,3c3,2.033 5.967,3.05 8.9,3.05c3.4,0 6.283,-2.05 8.65,-6.15c2.067,-3.533 3.1,-7.133 3.1,-10.8c-0,-1.8 -0.367,-3.35 -1.1,-4.65Z" style="fill:#f00;"/><path d="M88.075,46.688c0.217,1.158 0.325,1.995 0.325,2.512c-0,3.633 -0.883,6.2 -2.65,7.7c-1.404,1.199 -3.604,1.866 -6.6,2c-0.261,0.027 -0.528,0.044 -0.8,0.05l-2.1,-0l-0,-6.2l2.9,0c3.982,-0.038 6.415,-0.621 7.3,-1.75c-0.233,-0.767 -0.8,-2.033 -1.7,-3.8c0.6,-1.1 1.383,-2.75 2.35,-4.95l0.975,4.438Z" style="fill:#f00;"/><path d="M54.25,52.7l0,6.25l3.75,-0c1.2,-0 2.183,-0.45 2.95,-1.35c0.233,-0.267 0.833,-1.233 1.8,-2.9c1.2,1.8 1.833,2.733 1.9,2.8c0.833,0.967 1.8,1.45 2.9,1.45l1.8,-0l0,-6.25l0.6,-0c-2.053,-0.057 -3.303,-0.19 -3.75,-0.4c-1.167,-0.567 -1.75,-2.217 -1.75,-4.95c-0.967,0.733 -1.617,1.683 -1.95,2.85c-0.267,0.967 -0.75,1.583 -1.45,1.85c-1.067,0.433 -3.333,0.65 -6.8,0.65Z" style="fill:#f00;"/><path d="M21.078,75.979l-7,5c-0.674,0.482 -0.83,1.419 -0.349,2.093c0.482,0.674 1.419,0.83 2.093,0.349l7,-5c0.674,-0.482 0.83,-1.419 0.349,-2.093c-0.482,-0.674 -1.419,-0.83 -2.093,-0.349Z"/><path d="M85.678,74.079l-7,5c-0.674,0.482 -0.83,1.419 -0.349,2.093c0.482,0.674 1.419,0.83 2.093,0.349l7,-5c0.674,-0.482 0.83,-1.419 0.349,-2.093c-0.482,-0.674 -1.419,-0.83 -2.093,-0.349Z"/><path d="M20.578,71.479l-7,5c-0.674,0.482 -0.83,1.419 -0.349,2.093c0.482,0.674 1.419,0.83 2.093,0.349l7,-5c0.674,-0.482 0.83,-1.419 0.349,-2.093c-0.482,-0.674 -1.419,-0.83 -2.093,-0.349Z"/><path d="M65.378,14.679l-7,5c-0.674,0.482 -0.83,1.419 -0.349,2.093c0.482,0.674 1.419,0.83 2.093,0.349l7,-5c0.674,-0.482 0.83,-1.419 0.349,-2.093c-0.482,-0.674 -1.419,-0.83 -2.093,-0.349Z"/></svg>