<?xml version="1.0" encoding="UTF-8" standalone="no"?><!DOCTYPE svg PUBLIC "-//W3C//DTD SVG 1.1//EN" "http://www.w3.org/Graphics/SVG/1.1/DTD/svg11.dtd"><svg width="100%" height="100%" viewBox="0 0 56 74" version="1.1" xmlns="http://www.w3.org/2000/svg" xmlns:xlink="http://www.w3.org/1999/xlink" xml:space="preserve" xmlns:serif="http://www.serif.com/" style="fill-rule:evenodd;clip-rule:evenodd;stroke-linejoin:round;stroke-miterlimit:2;"><path d="M32.15,45.85c-0.967,-0.167 -2,-0.8 -3.1,-1.9c-0.233,1.567 -0.6,2.933 -1.1,4.1c0.033,0.067 0.533,0.867 1.5,2.4c0.833,1.3 1.25,2.017 1.25,2.15c0,1.467 -1.617,3.333 -4.85,5.6c-3.167,2.233 -5.533,3.35 -7.1,3.35c-0.7,0 -1.65,-0.133 -2.85,-0.4c-0.933,-0.233 -1.867,-0.467 -2.8,-0.7c1.2,1.367 2.6,2.5 4.2,3.4c1.8,1 3.517,1.5 5.15,1.5c2.2,0 4.433,-1.617 6.7,-4.85c2.033,-2.833 3.2,-5.483 3.5,-7.95c0.312,-0.218 0.712,-0.335 1.2,-0.35l2.1,0l0,-6.25c-2.2,0 -3.467,-0.033 -3.8,-0.1Z"/><path d="M9.65,19.2l0.85,33.05c1.833,-1.5 2.75,-5.5 2.75,-12l-0.3,-26.25c-2.2,2.9 -3.3,4.633 -3.3,5.2Z"/><path d="M20.5,28.75c0.267,0.433 0.65,0.65 1.15,0.65c0.4,-0 0.8,-0.15 1.2,-0.45c0.4,-0.3 0.617,-0.667 0.65,-1.1c0.333,0.267 0.717,0.4 1.15,0.4c1.267,0 1.9,-1.017 1.9,-3.05c-0,-0.5 -0.083,-1.067 -0.25,-1.7l-0.4,0.15c-0,1.8 -0.417,2.7 -1.25,2.7c-0.4,0 -0.733,-0.6 -1,-1.8l-0.35,0.1c-0.167,0.9 -0.317,1.5 -0.45,1.8c-0.267,0.733 -0.65,1.1 -1.15,1.1c-0.467,0 -0.7,-0.65 -0.7,-1.95l-0.4,0.05c-0.267,0.933 -0.4,1.517 -0.4,1.75c0,0.533 0.1,0.983 0.3,1.35Z"/><path d="M40.4,65.75l3.7,-3.6l-3.7,-3.65l-3.65,3.65l3.65,3.6Z" style="fill:#f00;"/><path d="M46,42.45c0,-1.033 -0.433,-3.35 -1.3,-6.95c-0.967,2.2 -1.75,3.85 -2.35,4.95c0.9,1.767 1.467,3.033 1.7,3.8c-0.942,1.202 -3.642,1.786 -8.1,1.75l0,6.2c3.407,-0.063 5.874,-0.746 7.4,-2.05c1.767,-1.5 2.65,-4.067 2.65,-7.7Z" style="fill:#f00;"/><path d="M43.678,66.829l-7,5c-0.674,0.482 -0.83,1.419 -0.349,2.093c0.482,0.674 1.419,0.83 2.093,0.349l7,-5c0.674,-0.482 0.83,-1.419 0.349,-2.093c-0.482,-0.674 -1.419,-0.83 -2.093,-0.349Z"/><path d="M25.628,9.679l-7,5c-0.674,0.482 -0.83,1.419 -0.349,2.093c0.482,0.674 1.419,0.83 2.093,0.349l7,-5c0.674,-0.482 0.83,-1.419 0.349,-2.093c-0.482,-0.674 -1.419,-0.83 -2.093,-0.349Z"/><path d="M24.628,5.179l-7,5c-0.674,0.482 -0.83,1.419 -0.349,2.093c0.482,0.674 1.419,0.83 2.093,0.349l7,-5c0.674,-0.482 0.83,-1.419 0.349,-2.093c-0.482,-0.674 -1.419,-0.83 -2.093,-0.349Z"/></svg>