<?xml version="1.0" encoding="UTF-8" standalone="no"?><!DOCTYPE svg PUBLIC "-//W3C//DTD SVG 1.1//EN" "http://www.w3.org/Graphics/SVG/1.1/DTD/svg11.dtd"><svg width="100%" height="100%" viewBox="0 0 46 46" version="1.1" xmlns="http://www.w3.org/2000/svg" xmlns:xlink="http://www.w3.org/1999/xlink" xml:space="preserve" xmlns:serif="http://www.serif.com/" style="fill-rule:evenodd;clip-rule:evenodd;stroke-linejoin:round;stroke-miterlimit:2;"><path d="M39.45,27.05c-0.3,-0.567 -0.85,-1.317 -1.65,-2.25l-0.75,3.15c0.4,0.533 0.817,1.067 1.25,1.6c0.567,0.767 0.85,1.35 0.85,1.75c-0,2 -1.317,3.717 -3.95,5.15c-2.233,1.233 -4.367,1.85 -6.4,1.85c1.633,1.2 3.25,1.8 4.85,1.8c1.867,0 3.433,-1.233 4.7,-3.7c1.133,-2.133 1.7,-4.317 1.7,-6.55c-0,-1.067 -0.2,-2 -0.6,-2.8Z"/><path d="M17.15,19.85c-0,0.5 0.083,0.917 0.25,1.25c0.167,0.4 0.433,0.6 0.8,0.6c0.3,0 0.6,-0.133 0.9,-0.4c0.267,-0.3 0.417,-0.65 0.45,-1.05c0.267,0.233 0.55,0.35 0.85,0.35c0.9,0 1.35,-0.95 1.35,-2.85c-0,-0.5 -0.067,-1.05 -0.2,-1.65l-0.3,0.2c-0,1.667 -0.283,2.5 -0.85,2.5c-0.3,-0 -0.55,-0.55 -0.75,-1.65l-0.25,0.1c-0.133,0.833 -0.233,1.383 -0.3,1.65c-0.2,0.7 -0.483,1.05 -0.85,1.05c-0.333,0 -0.5,-0.617 -0.5,-1.85l-0.3,0.05c-0.2,0.9 -0.3,1.467 -0.3,1.7Z"/><path d="M20.15,4.75c-0.2,-0.367 -0.433,-0.55 -0.7,-0.55c-0.433,0 -0.833,0.35 -1.2,1.05c-0.367,0.667 -0.55,1.333 -0.55,2c0,0.733 0.317,1.383 0.95,1.95c-0.633,0.933 -1.217,1.533 -1.75,1.8c0.033,-0.9 0.05,-1.45 0.05,-1.65c0,-1.533 -0.333,-2.3 -1,-2.3c-0.367,-0 -0.667,0.267 -0.9,0.8c-0.2,0.433 -0.3,0.933 -0.3,1.5c-0,0.3 0.05,0.65 0.15,1.05c0.1,-1.033 0.35,-1.55 0.75,-1.55c0.2,0 0.35,0.117 0.45,0.35c0.133,0.233 0.2,0.483 0.2,0.75c-0,0.467 -0.2,1.367 -0.6,2.7c0.767,-0.233 1.417,-0.583 1.95,-1.05c0.433,-0.4 0.95,-1.05 1.55,-1.95c0.3,0.333 0.733,0.733 1.3,1.2c0.033,-0.8 0.05,-1.233 0.05,-1.3c-0,-0.5 -0.2,-0.95 -0.6,-1.35c0.333,-1.033 0.5,-1.817 0.5,-2.35c0,-0.367 -0.1,-0.733 -0.3,-1.1Zm-1.7,1.3l0.15,-0.35c0.1,-0.067 0.183,-0.1 0.25,-0.1c0.4,0 0.6,0.367 0.6,1.1l-0.05,0.8c-0.633,-0.6 -0.95,-1.083 -0.95,-1.45Z"/><path d="M17.25,41.2l2,-2.15l-2,-2.2l-2,2.2l2,2.15Z" style="fill:#f00;"/><path d="M9.8,25.95c-0,-0.667 0.233,-1.633 0.7,-2.9c-1.5,1.567 -2.25,3.1 -2.25,4.6c0,3.667 2.633,5.5 7.9,5.5c8.6,-0 12.9,-2.633 12.9,-7.9c-0,-1.933 -0.6,-3.35 -1.8,-4.25c-0.167,0.867 -0.533,2.083 -1.1,3.65c1,0.833 1.5,1.717 1.5,2.65c-0.667,0.833 -2.25,1.517 -4.75,2.05c-2,0.433 -3.767,0.65 -5.3,0.65c-1.733,-0 -3.317,-0.25 -4.75,-0.75c-2.033,-0.7 -3.05,-1.8 -3.05,-3.3Z" style="fill:#f00;"/><path d="M36.727,13.212l-3.65,3.55c-0.297,0.289 -0.303,0.764 -0.015,1.061c0.289,0.297 0.764,0.303 1.061,0.015l3.65,-3.55c0.297,-0.289 0.303,-0.764 0.015,-1.061c-0.289,-0.297 -0.764,-0.303 -1.061,-0.015Zm210.426,-1.498l-4,2.5c-0.352,0.219 -0.458,0.682 -0.239,1.033c0.219,0.352 0.682,0.458 1.033,0.239l4,-2.5c0.352,-0.219 0.458,-0.682 0.239,-1.033c-0.219,-0.352 -0.682,-0.458 -1.033,-0.239Zm9.909,-0.433l-3.5,3c-0.314,0.269 -0.351,0.743 -0.081,1.057c0.269,0.314 0.743,0.351 1.057,0.081l3.5,-3c0.314,-0.269 0.351,-0.743 0.081,-1.057c-0.269,-0.314 -0.743,-0.351 -1.057,-0.081Z"/></svg>