<?xml version="1.0" encoding="UTF-8" standalone="no"?><!DOCTYPE svg PUBLIC "-//W3C//DTD SVG 1.1//EN" "http://www.w3.org/Graphics/SVG/1.1/DTD/svg11.dtd"><svg width="100%" height="100%" viewBox="0 0 43 79" version="1.1" xmlns="http://www.w3.org/2000/svg" xmlns:xlink="http://www.w3.org/1999/xlink" xml:space="preserve" xmlns:serif="http://www.serif.com/" style="fill-rule:evenodd;clip-rule:evenodd;stroke-linejoin:round;stroke-miterlimit:2;"><path d="M34.2,58c1.833,-1.5 2.75,-5.5 2.75,-12l-0.3,-26.25c-2.2,2.9 -3.3,4.633 -3.3,5.2l0.85,33.05Z"/><path d="M14.55,21.35l-0.4,0.15c0,1.8 -0.417,2.7 -1.25,2.7c-0.4,-0 -0.733,-0.6 -1,-1.8l-0.35,0.1c-0.167,0.9 -0.317,1.5 -0.45,1.8c-0.267,0.733 -0.65,1.1 -1.15,1.1c-0.467,-0 -0.7,-0.65 -0.7,-1.95l-0.4,0.05c-0.267,0.933 -0.4,1.517 -0.4,1.75c0,0.533 0.1,0.983 0.3,1.35c0.267,0.433 0.65,0.65 1.15,0.65c0.4,-0 0.8,-0.15 1.2,-0.45c0.4,-0.3 0.617,-0.667 0.65,-1.1c0.333,0.267 0.717,0.4 1.15,0.4c1.267,0 1.9,-1.017 1.9,-3.05c-0,-0.5 -0.083,-1.067 -0.25,-1.7Z"/><path d="M6.65,52.85c0,-0.667 0.133,-1.65 0.4,-2.95c0.267,-1.333 0.4,-2.317 0.4,-2.95c-1,1 -1.8,2.433 -2.4,4.3c-0.567,1.7 -0.85,3.35 -0.85,4.95c0,2.867 0.867,5.033 2.6,6.5c1.6,1.433 3.867,2.15 6.8,2.15c3.667,0 6.733,-1.317 9.2,-3.95c2.5,-2.6 3.75,-5.733 3.75,-9.4c-0,-4.767 -1.333,-8.783 -4,-12.05c-0.733,1.4 -1.45,3.35 -2.15,5.85c1.3,1.733 2.15,2.967 2.55,3.7c0.8,1.467 1.2,2.883 1.2,4.25c0,1.667 -1.317,3.083 -3.95,4.25c-2.2,0.967 -4.283,1.45 -6.25,1.45c-4.867,-0 -7.3,-2.033 -7.3,-6.1Z" style="fill:#f00;"/><path d="M9.75,33.55l3.7,3.6l3.65,-3.6l-3.65,-3.65l-3.7,3.65Z" style="fill:#f00;"/><path d="M37.878,59.379l-7,5c-0.674,0.482 -0.83,1.419 -0.349,2.093c0.482,0.674 1.419,0.83 2.093,0.349l7,-5c0.674,-0.482 0.83,-1.419 0.349,-2.093c-0.482,-0.674 -1.419,-0.83 -2.093,-0.349Z"/><path d="M12.878,11.379l-7,5c-0.674,0.482 -0.83,1.419 -0.349,2.093c0.482,0.674 1.419,0.83 2.093,0.349l7,-5c0.674,-0.482 0.83,-1.419 0.349,-2.093c-0.482,-0.674 -1.419,-0.83 -2.093,-0.349Z"/></svg>