<?xml version="1.0" encoding="UTF-8" standalone="no"?><!DOCTYPE svg PUBLIC "-//W3C//DTD SVG 1.1//EN" "http://www.w3.org/Graphics/SVG/1.1/DTD/svg11.dtd"><svg width="100%" height="100%" viewBox="0 0 61 79" version="1.1" xmlns="http://www.w3.org/2000/svg" xmlns:xlink="http://www.w3.org/1999/xlink" xml:space="preserve" xmlns:serif="http://www.serif.com/" style="fill-rule:evenodd;clip-rule:evenodd;stroke-linejoin:round;stroke-miterlimit:2;"><path d="M47.15,59.45l-0,-0.05c-0.271,0.027 -0.554,0.044 -0.85,0.05l0.85,-0Z"/><path d="M15.55,42.45l-0,-20.1c-0.633,0.633 -1.25,1.25 -1.85,1.85c-0.467,0.6 -0.7,1.433 -0.7,2.5c-0,8.367 0.05,13.733 0.15,16.1c0.333,8.1 1.133,12.983 2.4,14.65c1.033,1.333 2.5,2 4.4,2l2.3,-0l-0,-6.25c0.576,-0 1.109,-0.017 1.6,-0.05c-3.438,-0.103 -5.705,-0.87 -6.8,-2.3c-1,-1.333 -1.5,-4.133 -1.5,-8.4Z"/><path d="M47.15,53.25l-2.95,0l0,6.2l-6.85,-0l0,-6.25l9.8,-0l-0,0.05Z"/><path d="M12.85,17.7c0.067,-1.133 0.1,-1.833 0.1,-2.1c0,-1.967 -0.617,-2.95 -1.85,-2.95c-0.733,-0 -1.317,0.333 -1.75,1c-0.367,0.567 -0.55,1.217 -0.55,1.95c-0,0.367 0.083,0.817 0.25,1.35c0.167,-1.367 0.633,-2.05 1.4,-2.05c0.367,-0 0.667,0.15 0.9,0.45c0.267,0.333 0.4,0.683 0.4,1.05c0,0.567 -0.383,1.7 -1.15,3.4c1.467,-0.267 2.683,-0.717 3.65,-1.35c0.833,-0.467 1.817,-1.3 2.95,-2.5c0.567,0.433 1.4,0.967 2.5,1.6c0.033,-1.033 0.05,-1.6 0.05,-1.7c0,-0.633 -0.367,-1.217 -1.1,-1.75c0.6,-1.333 0.9,-2.333 0.9,-3c-0,-0.5 -0.183,-0.967 -0.55,-1.4c-0.367,-0.467 -0.8,-0.7 -1.3,-0.7c-0.833,0 -1.6,0.433 -2.3,1.3c-0.7,0.9 -1.05,1.75 -1.05,2.55c0,0.967 0.617,1.8 1.85,2.5c-1.2,1.233 -2.317,2.017 -3.35,2.35Zm3.65,-6.95c0.767,0 1.15,0.467 1.15,1.4l-0.1,1.05c-1.167,-0.767 -1.75,-1.383 -1.75,-1.85l0.25,-0.45c0.233,-0.1 0.383,-0.15 0.45,-0.15Z"/><path d="M31.05,73.05l3.65,-3.6l-3.65,-3.65l-3.7,3.65l3.7,3.6Z" style="fill:#f00;"/><path d="M56.025,47.188c0.217,1.158 0.325,1.995 0.325,2.512c0,3.633 -0.883,6.2 -2.65,7.7c-1.396,1.193 -3.58,1.859 -6.55,2c-0.271,0.027 -0.554,0.044 -0.85,0.05l-2.1,-0l0,-6.2l2.95,0c3.953,-0.043 6.369,-0.626 7.25,-1.75c-0.233,-0.767 -0.8,-2.033 -1.7,-3.8c0.6,-1.1 1.383,-2.75 2.35,-4.95l0.975,4.438Z" style="fill:#f00;"/><path d="M34.2,52.8c-1.167,-0.567 -1.75,-2.217 -1.75,-4.95c-0.967,0.733 -1.617,1.683 -1.95,2.85c-0.267,0.967 -0.75,1.583 -1.45,1.85c-0.89,0.361 -2.623,0.561 -5.2,0.6c-0.491,0.033 -1.024,0.05 -1.6,0.05l-0,6.25l3.75,-0c1.2,-0 2.183,-0.45 2.95,-1.35c0.233,-0.267 0.833,-1.233 1.8,-2.9c1.2,1.8 1.833,2.733 1.9,2.8c0.833,0.967 1.8,1.45 2.9,1.45l1.8,-0l0,-6.25l0.6,-0c-2.053,-0.057 -3.303,-0.19 -3.75,-0.4Z" style="fill:#f00;"/><path d="M55.15,34.9l-3.7,-3.7l-3.65,3.7l3.65,3.55l3.7,-3.55Z" style="fill:#f00;"/><path d="M33.628,14.679l-7,5c-0.674,0.482 -0.83,1.419 -0.349,2.093c0.482,0.674 1.419,0.83 2.093,0.349l7,-5c0.674,-0.482 0.83,-1.419 0.349,-2.093c-0.482,-0.674 -1.419,-0.83 -2.093,-0.349Z"/><path d="M53.328,13.929l-7,5c-0.674,0.482 -0.83,1.419 -0.349,2.093c0.482,0.674 1.419,0.83 2.093,0.349l7,-5c0.674,-0.482 0.83,-1.419 0.349,-2.093c-0.482,-0.674 -1.419,-0.83 -2.093,-0.349Z"/></svg>