<?xml version="1.0" encoding="UTF-8" standalone="no"?><!DOCTYPE svg PUBLIC "-//W3C//DTD SVG 1.1//EN" "http://www.w3.org/Graphics/SVG/1.1/DTD/svg11.dtd"><svg width="100%" height="100%" viewBox="0 0 49 75" version="1.1" xmlns="http://www.w3.org/2000/svg" xmlns:xlink="http://www.w3.org/1999/xlink" xml:space="preserve" xmlns:serif="http://www.serif.com/" style="fill-rule:evenodd;clip-rule:evenodd;stroke-linejoin:round;stroke-miterlimit:2;"><path d="M44.2,45l0,-6.25l-9.8,0l-0,6.25l9.8,0Z"/><path d="M18.3,53.25c-6.167,0 -9.25,-2.4 -9.25,-7.2c-0,-0.867 0.45,-3 1.35,-6.4c-1.067,0.5 -1.983,2.017 -2.75,4.55c-0.667,2.067 -1,3.883 -1,5.45c-0,6.333 3.167,9.5 9.5,9.5c4.267,0 7.717,-1.3 10.35,-3.9c2.633,-2.567 3.95,-5.983 3.95,-10.25l3.95,0l-0,-6.2l-1.2,0c-1.333,0 -2.333,-0.2 -3,-0.6c-0.567,-0.367 -1.55,-1.4 -2.95,-3.1l-2.4,4.55c1.233,1.933 1.983,3.2 2.25,3.8c0.633,1.333 0.95,2.733 0.95,4.2c-0,2 -1.2,3.5 -3.6,4.5c-1.767,0.733 -3.817,1.1 -6.15,1.1Z" style="fill:#f00;"/><path d="M18.45,26.35l-3.65,3.65l3.7,3.6l3.65,-3.6l-3.7,-3.65Z" style="fill:#f00;"/><path d="M18.564,64.623l-6.5,4c-0.705,0.433 -0.925,1.358 -0.491,2.063c0.433,0.705 1.358,0.925 2.063,0.491l6.5,-4c0.705,-0.433 0.925,-1.358 0.491,-2.063c-0.433,-0.705 -1.358,-0.925 -2.063,-0.491Z"/><path d="M17.564,61.123l-6.5,4c-0.705,0.433 -0.925,1.358 -0.491,2.063c0.433,0.705 1.358,0.925 2.063,0.491l6.5,-4c0.705,-0.433 0.925,-1.358 0.491,-2.063c-0.433,-0.705 -1.358,-0.925 -2.063,-0.491Z"/></svg>