<?xml version="1.0" encoding="UTF-8" standalone="no"?><!DOCTYPE svg PUBLIC "-//W3C//DTD SVG 1.1//EN" "http://www.w3.org/Graphics/SVG/1.1/DTD/svg11.dtd"><svg width="100%" height="100%" viewBox="0 0 35 76" version="1.1" xmlns="http://www.w3.org/2000/svg" xmlns:xlink="http://www.w3.org/1999/xlink" xml:space="preserve" xmlns:serif="http://www.serif.com/" style="fill-rule:evenodd;clip-rule:evenodd;stroke-linejoin:round;stroke-miterlimit:2;"><path d="M15.85,52.2l0.8,-0l-0,-0.05c-0.261,0.027 -0.528,0.044 -0.8,0.05Z"/><path d="M16.65,46l-2.9,0l0,6.2l-6.9,-0l0,-6.25l9.8,-0l-0,0.05Z"/><path d="M15.1,8.9c-0.733,1.233 -1.1,2.417 -1.1,3.55c0,0.933 0.7,1.917 2.1,2.95c-2.5,2.333 -4.867,4.1 -7.1,5.3c0.8,0.267 1.433,0.4 1.9,0.4c1.833,0 4.05,-1.6 6.65,-4.8c1.033,0.767 1.917,1.333 2.65,1.7l0.25,-3.3c-0.567,-0.467 -1,-0.8 -1.3,-1c0.7,-1.633 1.05,-2.933 1.05,-3.9c0,-1.967 -0.75,-2.95 -2.25,-2.95c-1.067,-0 -2.017,0.683 -2.85,2.05Zm1.25,0.85c1.167,0.2 1.75,0.867 1.75,2c0,0.3 -0.05,0.65 -0.15,1.05c-1.5,-0.867 -2.25,-1.683 -2.25,-2.45c0.133,-0.333 0.35,-0.533 0.65,-0.6Z"/><path d="M25.575,39.938c0.217,1.158 0.325,1.995 0.325,2.512c-0,3.633 -0.883,6.2 -2.65,7.7c-1.404,1.199 -3.604,1.866 -6.6,2c-0.261,0.027 -0.528,0.044 -0.8,0.05l-2.1,-0l0,-6.2l2.9,0c3.982,-0.038 6.415,-0.621 7.3,-1.75c-0.233,-0.767 -0.8,-2.033 -1.7,-3.8c0.6,-1.1 1.383,-2.75 2.35,-4.95l0.975,4.438Z" style="fill:#f00;"/><path d="M17.35,27.65l3.65,3.55l3.7,-3.55l-3.7,-3.7l-3.65,3.7Z" style="fill:#f00;"/></svg>