<?xml version="1.0" encoding="UTF-8" standalone="no"?><!DOCTYPE svg PUBLIC "-//W3C//DTD SVG 1.1//EN" "http://www.w3.org/Graphics/SVG/1.1/DTD/svg11.dtd"><svg width="100%" height="100%" viewBox="0 0 33 25" version="1.1" xmlns="http://www.w3.org/2000/svg" xmlns:xlink="http://www.w3.org/1999/xlink" xml:space="preserve" xmlns:serif="http://www.serif.com/" style="fill-rule:evenodd;clip-rule:evenodd;stroke-linejoin:round;stroke-miterlimit:2;"><path d="M21.3,9.688c0.317,0.258 0.567,0.429 0.75,0.512c0.433,0.233 1.083,0.35 1.95,0.35l2,0l0,3.1l-3.8,-0c-0,2.133 -0.833,3.867 -2.5,5.2c-1.7,1.3 -3.917,1.95 -6.65,1.95c-4.067,0 -6.1,-1.6 -6.1,-4.8c-0,-0.8 0.2,-1.717 0.6,-2.75c0.533,-1.267 1.133,-2.033 1.8,-2.3c-0.567,1.7 -0.85,2.783 -0.85,3.25c0,2.4 1.967,3.6 5.9,3.6c1.5,0 2.833,-0.183 4,-0.55c1.533,-0.5 2.3,-1.25 2.3,-2.25c-0,-0.767 -0.2,-1.483 -0.6,-2.15c-0.2,-0.3 -0.7,-0.933 -1.5,-1.9l1.55,-2.3l1.15,1.038Z" style="fill:#f00;"/><path d="M14.55,7.9l2.35,-1.8l-2.35,-1.85l-2.35,1.85l2.35,1.8Z" style="fill:#f00;"/></svg>