<?xml version="1.0" encoding="UTF-8" standalone="no"?><!DOCTYPE svg PUBLIC "-//W3C//DTD SVG 1.1//EN" "http://www.w3.org/Graphics/SVG/1.1/DTD/svg11.dtd"><svg width="100%" height="100%" viewBox="0 0 56 76" version="1.1" xmlns="http://www.w3.org/2000/svg" xmlns:xlink="http://www.w3.org/1999/xlink" xml:space="preserve" xmlns:serif="http://www.serif.com/" style="fill-rule:evenodd;clip-rule:evenodd;stroke-linejoin:round;stroke-miterlimit:2;"><path d="M36.1,51.7l0.8,-0l-0,-0.05c-0.261,0.027 -0.528,0.044 -0.8,0.05Z"/><path d="M19.375,39.747c0.675,0.294 1.35,1.028 2.025,2.203c0.567,1.233 1.133,2.467 1.7,3.7c1.388,0.121 2.721,0.121 4,-0l0,-0.2l9.8,-0l-0,0.05l-2.9,0l0,6.2l-11.2,-0c-1.467,3.633 -2.967,6.35 -4.5,8.15c-2.267,2.6 -4.967,3.9 -8.1,3.9c-3.667,0 -6.883,-1.367 -9.65,-4.1c2.967,0.267 5.233,0.4 6.8,0.4c2.9,0 5.417,-0.683 7.55,-2.05c1.9,-1.2 3.717,-3.117 5.45,-5.75c-1.5,-0.233 -2.983,-0.467 -4.45,-0.7c-1.6,-0.433 -2.4,-1.483 -2.4,-3.15c0,-1.333 0.55,-3.1 1.65,-5.3c1.233,-2.333 2.417,-3.5 3.55,-3.5l0.675,0.147Zm-0.225,5.753c0.233,0.333 0.45,1.033 0.65,2.1c-0.933,0 -2.033,-0.1 -3.3,-0.3c0,-0.5 -0.1,-0.817 -0.3,-0.95c0.367,-0.767 0.733,-1.45 1.1,-2.05c0.967,0.433 1.583,0.833 1.85,1.2Z"/><path d="M28.35,8.4c-0.733,1.233 -1.1,2.417 -1.1,3.55c0,0.933 0.7,1.917 2.1,2.95c-2.5,2.333 -4.867,4.1 -7.1,5.3c0.8,0.267 1.433,0.4 1.9,0.4c1.833,-0 4.05,-1.6 6.65,-4.8c1.033,0.767 1.917,1.333 2.65,1.7l0.25,-3.3c-0.567,-0.467 -1,-0.8 -1.3,-1c0.7,-1.633 1.05,-2.933 1.05,-3.9c0,-1.967 -0.75,-2.95 -2.25,-2.95c-1.067,-0 -2.017,0.683 -2.85,2.05Zm1.25,0.85c1.167,0.2 1.75,0.867 1.75,2c0,0.3 -0.05,0.65 -0.15,1.05c-1.5,-0.867 -2.25,-1.683 -2.25,-2.45c0.133,-0.333 0.35,-0.533 0.65,-0.6Z"/><path d="M45.825,39.438c0.217,1.158 0.325,1.995 0.325,2.512c-0,3.633 -0.883,6.2 -2.65,7.7c-1.404,1.199 -3.604,1.866 -6.6,2c-0.261,0.027 -0.528,0.044 -0.8,0.05l-2.1,-0l-0,-6.2l2.9,0c3.982,-0.038 6.415,-0.621 7.3,-1.75c-0.233,-0.767 -0.8,-2.033 -1.7,-3.8c0.6,-1.1 1.383,-2.75 2.35,-4.95l0.975,4.438Z" style="fill:#f00;"/><path d="M41.25,30.7l3.7,-3.55l-3.7,-3.7l-3.65,3.7l3.65,3.55Z" style="fill:#f00;"/></svg>