<?xml version="1.0" encoding="UTF-8" standalone="no"?><!DOCTYPE svg PUBLIC "-//W3C//DTD SVG 1.1//EN" "http://www.w3.org/Graphics/SVG/1.1/DTD/svg11.dtd"><svg width="100%" height="100%" viewBox="0 0 45 76" version="1.1" xmlns="http://www.w3.org/2000/svg" xmlns:xlink="http://www.w3.org/1999/xlink" xml:space="preserve" xmlns:serif="http://www.serif.com/" style="fill-rule:evenodd;clip-rule:evenodd;stroke-linejoin:round;stroke-miterlimit:2;"><path d="M25.35,42.45c-0.9,-1.567 -1.8,-2.35 -2.7,-2.35c-1.133,0 -2.317,1.167 -3.55,3.5c-1.1,2.2 -1.65,3.967 -1.65,5.3c0,1.667 0.8,2.717 2.4,3.15c1.467,0.233 2.95,0.467 4.45,0.7c-1.733,2.633 -3.55,4.55 -5.45,5.75c-2.133,1.367 -4.65,2.05 -7.55,2.05c-1.567,0 -3.833,-0.133 -6.8,-0.4c2.767,2.733 5.983,4.1 9.65,4.1c3.133,0 5.833,-1.3 8.1,-3.9c1.533,-1.8 3.033,-4.517 4.5,-8.15l2.35,-0l0,-5.95c-0.67,-0.006 -1.353,-0.039 -2.05,-0.1c-0.567,-1.233 -1.133,-2.467 -1.7,-3.7Zm-1.6,5.65c-0.933,0 -2.033,-0.1 -3.3,-0.3c0,-0.5 -0.1,-0.817 -0.3,-0.95c0.367,-0.767 0.733,-1.45 1.1,-2.05c0.967,0.433 1.583,0.833 1.85,1.2c0.233,0.333 0.45,1.033 0.65,2.1Z"/><path d="M22.8,18.45c-0,-0.833 -0.25,-1.6 -0.75,-2.3c-0.533,-0.733 -1.217,-1.1 -2.05,-1.1c-1.067,0 -1.883,0.483 -2.45,1.45c-0.467,0.8 -0.7,1.783 -0.7,2.95c0,1.867 0.817,2.8 2.45,2.8c0.967,0 1.8,-0.4 2.5,-1.2c0.667,-0.767 1,-1.633 1,-2.6Zm-1.25,0.55c-0,0.633 -0.6,0.95 -1.8,0.95c-1.433,-0 -2.15,-0.45 -2.15,-1.35c0,-1.033 0.467,-1.55 1.4,-1.55c0.4,0 0.917,0.233 1.55,0.7c0.667,0.467 1,0.883 1,1.25Z"/><path d="M38.9,52.2l-9.8,-0l0,-6.25l9.8,-0l-0,6.25Z" style="fill:#f00;"/></svg>