<?xml version="1.0" encoding="UTF-8" standalone="no"?><!DOCTYPE svg PUBLIC "-//W3C//DTD SVG 1.1//EN" "http://www.w3.org/Graphics/SVG/1.1/DTD/svg11.dtd"><svg width="100%" height="100%" viewBox="0 0 77 74" version="1.1" xmlns="http://www.w3.org/2000/svg" xmlns:xlink="http://www.w3.org/1999/xlink" xml:space="preserve" xmlns:serif="http://www.serif.com/" style="fill-rule:evenodd;clip-rule:evenodd;stroke-linejoin:round;stroke-miterlimit:2;"><path d="M45.15,14.85c-2.2,2.9 -3.3,4.633 -3.3,5.2l0.85,33.05c1.833,-1.5 2.75,-5.5 2.75,-12l-0.3,-26.25Z"/><path d="M13.1,17.8c-0.467,0.6 -0.7,1.433 -0.7,2.5c-0,8.367 0.05,13.733 0.15,16.1c0.333,8.1 1.133,12.983 2.4,14.65c1.033,1.333 2.5,2 4.4,2l2.3,0l-0,-6.2l2.65,0l-0,-0.05c-4.033,0 -6.65,-0.783 -7.85,-2.35c-1,-1.333 -1.5,-4.133 -1.5,-8.4l0,-20.1c-0.633,0.633 -1.25,1.25 -1.85,1.85Z"/><path d="M24.3,53.05l-0,-0.05c-0.213,0.027 -0.429,0.044 -0.65,0.05l0.65,0Z"/><path d="M62.55,37.95c-1.233,-0 -2.4,1.1 -3.5,3.3c-1,1.933 -1.5,3.617 -1.5,5.05c-0,2.5 0.983,3.75 2.95,3.75c1.5,0 2.917,-0.833 4.25,-2.5c0.333,0.733 0.5,1.433 0.5,2.1c0,3.6 -2.583,6.467 -7.75,8.6c-4,1.667 -8.083,2.5 -12.25,2.5c2.033,0.8 3.433,1.317 4.2,1.55c1.4,0.4 2.867,0.6 4.4,0.6c4.233,-0 7.55,-1.733 9.95,-5.2c2.067,-3.067 3.1,-6.817 3.1,-11.25c-0,-1.8 -0.3,-3.517 -0.9,-5.15c-0.833,-2.233 -1.983,-3.35 -3.45,-3.35Zm-1.1,8.2c-0.033,-0 -0.6,-0.267 -1.7,-0.8c0.467,-1.1 0.933,-2.117 1.4,-3.05c1.467,0.667 2.2,1.5 2.2,2.5c0,0.367 -0.217,0.683 -0.65,0.95c-0.433,0.267 -0.85,0.4 -1.25,0.4Z"/><path d="M28.6,16.35c0,-0.5 -0.083,-1.067 -0.25,-1.7l-0.4,0.15c0,1.8 -0.417,2.7 -1.25,2.7c-0.4,-0 -0.733,-0.6 -1,-1.8l-0.35,0.1c-0.167,0.9 -0.317,1.5 -0.45,1.8c-0.267,0.733 -0.65,1.1 -1.15,1.1c-0.467,-0 -0.7,-0.65 -0.7,-1.95l-0.4,0.05c-0.267,0.933 -0.4,1.517 -0.4,1.75c-0,0.533 0.1,0.983 0.3,1.35c0.267,0.433 0.65,0.65 1.15,0.65c0.4,0 0.8,-0.15 1.2,-0.45c0.4,-0.3 0.617,-0.667 0.65,-1.1c0.333,0.267 0.717,0.4 1.15,0.4c1.267,-0 1.9,-1.017 1.9,-3.05Z"/><path d="M33.8,43.3c-0,-1.033 -0.433,-3.35 -1.3,-6.95c-0.967,2.2 -1.75,3.85 -2.35,4.95c0.9,1.767 1.467,3.033 1.7,3.8c-0.903,1.152 -3.42,1.735 -7.55,1.75l-2.65,0l-0,6.2l2,0c0.221,-0.006 0.437,-0.023 0.65,-0.05c3.124,-0.101 5.407,-0.768 6.85,-2c1.767,-1.5 2.65,-4.067 2.65,-7.7Z" style="fill:#f00;"/><path d="M32.6,28.5l-3.7,-3.7l-3.65,3.7l3.65,3.55l3.7,-3.55Z" style="fill:#f00;"/><path d="M46.328,52.579l-7,5c-0.674,0.482 -0.83,1.419 -0.349,2.093c0.482,0.674 1.419,0.83 2.093,0.349l7,-5c0.674,-0.482 0.83,-1.419 0.349,-2.093c-0.482,-0.674 -1.419,-0.83 -2.093,-0.349Z"/><path d="M62.478,10.179l-7,5c-0.674,0.482 -0.83,1.419 -0.349,2.093c0.482,0.674 1.419,0.83 2.093,0.349l7,-5c0.674,-0.482 0.83,-1.419 0.349,-2.093c-0.482,-0.674 -1.419,-0.83 -2.093,-0.349Z"/><path d="M26.028,4.679l-7,5c-0.674,0.482 -0.83,1.419 -0.349,2.093c0.482,0.674 1.419,0.83 2.093,0.349l7,-5c0.674,-0.482 0.83,-1.419 0.349,-2.093c-0.482,-0.674 -1.419,-0.83 -2.093,-0.349Z"/></svg>