<?xml version="1.0" encoding="UTF-8" standalone="no"?><!DOCTYPE svg PUBLIC "-//W3C//DTD SVG 1.1//EN" "http://www.w3.org/Graphics/SVG/1.1/DTD/svg11.dtd"><svg width="100%" height="100%" viewBox="0 0 79 74" version="1.1" xmlns="http://www.w3.org/2000/svg" xmlns:xlink="http://www.w3.org/1999/xlink" xml:space="preserve" xmlns:serif="http://www.serif.com/" style="fill-rule:evenodd;clip-rule:evenodd;stroke-linejoin:round;stroke-miterlimit:2;"><path d="M70.6,46.3c1.033,1.267 1.55,2.233 1.55,2.9c-0,3.3 -2.417,6.15 -7.25,8.55c-4.1,2 -8.017,3 -11.75,3c3,2.033 5.967,3.05 8.9,3.05c3.4,0 6.283,-2.05 8.65,-6.15c2.067,-3.533 3.1,-7.133 3.1,-10.8c-0,-1.8 -0.367,-3.35 -1.1,-4.65c-0.533,-0.967 -1.55,-2.2 -3.05,-3.7l-1.35,5.2c0.767,0.867 1.533,1.733 2.3,2.6Z"/><path d="M53.75,44.25c0,-3.233 -0.783,-6.117 -2.35,-8.65c-1.7,-2.767 -4.017,-4.633 -6.95,-5.6c-0.233,0.933 -0.35,2.033 -0.35,3.3l0.05,4.4c1.733,-0 3.55,0.733 5.45,2.2c2,1.567 3,3.2 3,4.9c0,0.667 -1.1,1.233 -3.3,1.7c-1.7,0.333 -3.15,0.5 -4.35,0.5c-1.633,0 -3.283,-0.45 -4.95,-1.35c-0.2,2.233 -0.3,3.467 -0.3,3.7c0,1.733 0.583,2.833 1.75,3.3c0.6,0.267 1.95,0.4 4.05,0.4c2.7,0 4.767,-0.817 6.2,-2.45c1.367,-1.5 2.05,-3.617 2.05,-6.35Z"/><path d="M21.9,51.7l0.65,-0l-0,-0.05c-0.213,0.027 -0.429,0.044 -0.65,0.05Z"/><path d="M13.2,49.7c1.033,1.333 2.5,2 4.4,2l2.3,-0l-0,-6.2l2.65,0l-0,-0.05c-4.033,-0 -6.65,-0.783 -7.85,-2.35c-1,-1.333 -1.5,-4.133 -1.5,-8.4l0,-20.1c-0.633,0.633 -1.25,1.25 -1.85,1.85c-0.467,0.6 -0.7,1.433 -0.7,2.5c-0,8.367 0.05,13.733 0.15,16.1c0.333,8.1 1.133,12.983 2.4,14.65Z"/><path d="M68.05,31.55l3.7,-3.6l-3.7,-3.65l-3.65,3.65l3.65,3.6Z"/><path d="M46.25,12.25c0,-0.833 -0.25,-1.6 -0.75,-2.3c-0.533,-0.733 -1.217,-1.1 -2.05,-1.1c-1.067,0 -1.883,0.483 -2.45,1.45c-0.467,0.8 -0.7,1.783 -0.7,2.95c-0,1.867 0.817,2.8 2.45,2.8c0.967,0 1.8,-0.4 2.5,-1.2c0.667,-0.767 1,-1.633 1,-2.6Zm-3.8,-1.4c0.4,0 0.917,0.233 1.55,0.7c0.667,0.467 1,0.883 1,1.25c0,0.633 -0.6,0.95 -1.8,0.95c-1.433,0 -2.15,-0.45 -2.15,-1.35c-0,-1.033 0.467,-1.55 1.4,-1.55Z"/><path d="M32.05,41.95c-0,-1.033 -0.433,-3.35 -1.3,-6.95c-0.967,2.2 -1.75,3.85 -2.35,4.95c0.9,1.767 1.467,3.033 1.7,3.8c-0.903,1.152 -3.42,1.735 -7.55,1.75l-2.65,0l-0,6.2l2,-0c0.221,-0.006 0.437,-0.023 0.65,-0.05c3.124,-0.101 5.407,-0.768 6.85,-2c1.767,-1.5 2.65,-4.067 2.65,-7.7Z" style="fill:#f00;"/><path d="M30.85,27.15l-3.7,-3.7l-3.65,3.7l3.65,3.55l3.7,-3.55Z" style="fill:#f00;"/><path d="M67.178,63.029l-7,5c-0.674,0.482 -0.83,1.419 -0.349,2.093c0.482,0.674 1.419,0.83 2.093,0.349l7,-5c0.674,-0.482 0.83,-1.419 0.349,-2.093c-0.482,-0.674 -1.419,-0.83 -2.093,-0.349Z"/><path d="M23.778,6.179l-7,5c-0.674,0.482 -0.83,1.419 -0.349,2.093c0.482,0.674 1.419,0.83 2.093,0.349l7,-5c0.674,-0.482 0.83,-1.419 0.349,-2.093c-0.482,-0.674 -1.419,-0.83 -2.093,-0.349Z"/></svg>