<?xml version="1.0" encoding="UTF-8" standalone="no"?><!DOCTYPE svg PUBLIC "-//W3C//DTD SVG 1.1//EN" "http://www.w3.org/Graphics/SVG/1.1/DTD/svg11.dtd"><svg width="100%" height="100%" viewBox="0 0 113 98" version="1.1" xmlns="http://www.w3.org/2000/svg" xmlns:xlink="http://www.w3.org/1999/xlink" xml:space="preserve" xmlns:serif="http://www.serif.com/" style="fill-rule:evenodd;clip-rule:evenodd;stroke-linejoin:round;stroke-miterlimit:2;"><path d="M96,36.55c-0.233,0.933 -0.35,2.033 -0.35,3.3l0.05,4.4c1.733,0 3.55,0.733 5.45,2.2c2,1.567 3,3.2 3,4.9c-0,0.667 -1.1,1.233 -3.3,1.7c-1.7,0.333 -3.15,0.5 -4.35,0.5c-1.633,-0 -3.283,-0.45 -4.95,-1.35c-0.2,2.233 -0.3,3.467 -0.3,3.7c-0,1.733 0.583,2.833 1.75,3.3c0.6,0.267 1.95,0.4 4.05,0.4c2.7,0 4.767,-0.817 6.2,-2.45c1.367,-1.5 2.05,-3.617 2.05,-6.35c-0,-3.233 -0.783,-6.117 -2.35,-8.65c-1.7,-2.767 -4.017,-4.633 -6.95,-5.6Z"/><path d="M73.35,58.25l0.65,0l-0,-0.05c-0.203,0.027 -0.419,0.044 -0.65,0.05Z"/><path d="M61.65,49.65c-1.1,2.2 -1.65,3.967 -1.65,5.3c0,1.667 0.8,2.717 2.4,3.15c1.467,0.233 2.95,0.467 4.45,0.7c-1.733,2.633 -3.55,4.55 -5.45,5.75c-2.133,1.367 -4.65,2.05 -7.55,2.05c-1.567,0 -3.833,-0.133 -6.8,-0.4c2.767,2.733 5.983,4.1 9.65,4.1c3.133,-0 5.833,-1.3 8.1,-3.9c1.533,-1.8 3.033,-4.517 4.5,-8.15l2.1,0l-0,-5.95c-0.589,-0.014 -1.189,-0.047 -1.8,-0.1c-0.567,-1.233 -1.133,-2.467 -1.7,-3.7c-0.9,-1.567 -1.8,-2.35 -2.7,-2.35c-1.133,0 -2.317,1.167 -3.55,3.5Zm1.05,3.25c0.367,-0.767 0.733,-1.45 1.1,-2.05c0.967,0.433 1.583,0.833 1.85,1.2c0.233,0.333 0.45,1.033 0.65,2.1c-0.933,0 -2.033,-0.1 -3.3,-0.3c0,-0.5 -0.1,-0.817 -0.3,-0.95Z"/><path d="M98.1,30.05l3.7,-3.6l-3.65,-3.65l-3.7,3.65l3.65,3.6Z"/><path d="M72.35,7.1c-1.067,0 -2.017,0.683 -2.85,2.05c-0.733,1.233 -1.1,2.417 -1.1,3.55c-0,0.933 0.7,1.917 2.1,2.95c-2.5,2.333 -4.867,4.1 -7.1,5.3c0.8,0.267 1.433,0.4 1.9,0.4c1.833,0 4.05,-1.6 6.65,-4.8c1.033,0.767 1.917,1.333 2.65,1.7l0.25,-3.3c-0.567,-0.467 -1,-0.8 -1.3,-1c0.7,-1.633 1.05,-2.933 1.05,-3.9c0,-1.967 -0.75,-2.95 -2.25,-2.95Zm0.15,4.9c-0,0.3 -0.05,0.65 -0.15,1.05c-1.5,-0.867 -2.25,-1.683 -2.25,-2.45c0.133,-0.333 0.35,-0.533 0.65,-0.6c1.167,0.2 1.75,0.867 1.75,2Z"/><path d="M97.75,6.6c-1.067,0 -2.017,0.683 -2.85,2.05c-0.733,1.233 -1.1,2.417 -1.1,3.55c-0,0.933 0.7,1.917 2.1,2.95c-2.5,2.333 -4.867,4.1 -7.1,5.3c0.8,0.267 1.433,0.4 1.9,0.4c1.833,0 4.05,-1.6 6.65,-4.8c1.033,0.767 1.917,1.333 2.65,1.7l0.25,-3.3c-0.567,-0.467 -1,-0.8 -1.3,-1c0.7,-1.633 1.05,-2.933 1.05,-3.9c-0,-1.967 -0.75,-2.95 -2.25,-2.95Zm-2.25,3.5c0.133,-0.333 0.35,-0.533 0.65,-0.6c1.167,0.2 1.75,0.867 1.75,2c-0,0.3 -0.05,0.65 -0.15,1.05c-1.5,-0.867 -2.25,-1.683 -2.25,-2.45Z"/><path d="M26.5,72.2l3.65,-3.6l-3.65,-3.65l-3.7,3.65l3.7,3.6Z" style="fill:#f00;"/><path d="M10.05,49.7c-0,6.1 4.833,9.15 14.5,9.15c15.7,0 23.55,-4.35 23.55,-13.05c0,-3.233 -1.083,-5.583 -3.25,-7.05c-0.333,1.433 -1.017,3.433 -2.05,6c1.867,1.367 2.8,2.833 2.8,4.4c-1.233,1.367 -4.133,2.5 -8.7,3.4c-3.667,0.7 -6.9,1.05 -9.7,1.05c-3.2,0 -6.1,-0.417 -8.7,-1.25c-3.8,-1.167 -5.7,-2.967 -5.7,-5.4c-0,-1.1 0.45,-2.717 1.35,-4.85c-2.733,2.6 -4.1,5.133 -4.1,7.6Z" style="fill:#f00;"/><path d="M71.4,52.05l-0,6.2l1.95,-0c0.231,-0.006 0.447,-0.023 0.65,-0.05c3.149,-0.094 5.449,-0.761 6.9,-2c1.767,-1.5 2.65,-4.067 2.65,-7.7c-0,-1.033 -0.433,-3.35 -1.3,-6.95c-0.967,2.2 -1.75,3.85 -2.35,4.95c0.9,1.767 1.467,3.033 1.7,3.8c-0.967,1.233 -3.783,1.817 -8.45,1.75l-1.75,-0Z" style="fill:#f00;"/><path d="M82.35,33.7l-3.7,-3.7l-3.65,3.7l3.65,3.55l3.7,-3.55Z" style="fill:#f00;"/><path d="M28.678,78.229l-7,5c-0.674,0.482 -0.83,1.419 -0.349,2.093c0.482,0.674 1.419,0.83 2.093,0.349l7,-5c0.674,-0.482 0.83,-1.419 0.349,-2.093c-0.482,-0.674 -1.419,-0.83 -2.093,-0.349Z"/><path d="M28.178,73.879l-7,5c-0.674,0.482 -0.83,1.419 -0.349,2.093c0.482,0.674 1.419,0.83 2.093,0.349l7,-5c0.674,-0.482 0.83,-1.419 0.349,-2.093c-0.482,-0.674 -1.419,-0.83 -2.093,-0.349Z"/></svg>