<svg width="100%" height="100%" viewBox="0 0 5 5" version="1.1" xmlns="http://www.w3.org/2000/svg" xmlns:xlink="http://www.w3.org/1999/xlink" xml:space="preserve" xmlns:serif="http://www.serif.com/" style="fill-rule:evenodd;clip-rule:evenodd;stroke-linejoin:round;stroke-miterlimit:2;"><path d="M3.148,0.105c-0.387,-0 -0.687,0.203 -0.9,0.61c-0.33,0.445 -0.494,0.852 -0.494,1.22c-0,0.349 0.222,0.649 0.668,0.901c-0.736,0.62 -1.482,1.162 -2.237,1.627c0.329,0.155 0.581,0.232 0.755,0.232c0.639,0 1.346,-0.484 2.121,-1.452c0.233,0.213 0.543,0.387 0.93,0.523l0.116,-1.192c-0.232,-0.193 -0.368,-0.29 -0.407,-0.29c0.213,-0.446 0.32,-0.823 0.32,-1.133c-0,-0.698 -0.291,-1.046 -0.872,-1.046Zm-0.116,1.627c0,0.077 0.01,0.126 0.029,0.145c-0.29,-0.194 -0.436,-0.378 -0.436,-0.552l0.029,-0.029c0.252,0.039 0.378,0.184 0.378,0.436Z" style="fill:#f00;fill-rule:nonzero;"/></svg>