<?xml version="1.0" encoding="UTF-8" standalone="no"?><!DOCTYPE svg PUBLIC "-//W3C//DTD SVG 1.1//EN" "http://www.w3.org/Graphics/SVG/1.1/DTD/svg11.dtd"><svg width="100%" height="100%" viewBox="0 0 5 5" version="1.1" xmlns="http://www.w3.org/2000/svg" xmlns:xlink="http://www.w3.org/1999/xlink" xml:space="preserve" xmlns:serif="http://www.serif.com/" style="fill-rule:evenodd;clip-rule:evenodd;stroke-linejoin:round;stroke-miterlimit:2;"><path d="M3.197,0.169c-0.336,0 -0.596,0.177 -0.781,0.53c-0.286,0.386 -0.429,0.739 -0.429,1.059c0,0.303 0.193,0.563 0.58,0.782c-0.639,0.538 -1.286,1.009 -1.942,1.412c0.286,0.135 0.505,0.202 0.656,0.202c0.554,0 1.168,-0.421 1.841,-1.261c0.202,0.185 0.471,0.336 0.807,0.454l0.101,-1.034c-0.202,-0.168 -0.32,-0.252 -0.354,-0.252c0.185,-0.387 0.278,-0.715 0.278,-0.984c0,-0.606 -0.253,-0.908 -0.757,-0.908Zm-0.101,1.413c0,0.066 0.009,0.109 0.026,0.126c-0.252,-0.169 -0.379,-0.329 -0.379,-0.48l0.025,-0.025c0.219,0.034 0.328,0.16 0.328,0.379Z" style="fill:#f00;fill-rule:nonzero;"/><rect x="0.352" y="4.506" width="4.296" height="0.296"/></svg>