<?xml version="1.0" encoding="UTF-8" standalone="no"?><!DOCTYPE svg PUBLIC "-//W3C//DTD SVG 1.1//EN" "http://www.w3.org/Graphics/SVG/1.1/DTD/svg11.dtd"><svg width="100%" height="100%" viewBox="0 0 18 24" version="1.1" xmlns="http://www.w3.org/2000/svg" xmlns:xlink="http://www.w3.org/1999/xlink" xml:space="preserve" xmlns:serif="http://www.serif.com/" style="fill-rule:evenodd;clip-rule:evenodd;stroke-linejoin:round;stroke-miterlimit:2;"><path d="M4.85,13.55c1.433,1.2 2.833,1.8 4.2,1.8c1.6,0 2.833,-0.933 3.7,-2.8c1.2,-1.7 1.8,-3.383 1.8,-5.05c0,-0.833 -0.167,-1.467 -0.5,-1.9c-0.267,-0.633 -0.833,-1.317 -1.7,-2.05l-0.75,2.6c0.367,0.3 0.733,0.717 1.1,1.25c0.433,0.533 0.65,0.917 0.65,1.15c0,1.4 -1.05,2.617 -3.15,3.65c-1.8,0.9 -3.583,1.35 -5.35,1.35Z" style="fill:#f00;"/></svg>