<?xml version="1.0" encoding="UTF-8" standalone="no"?><!DOCTYPE svg PUBLIC "-//W3C//DTD SVG 1.1//EN" "http://www.w3.org/Graphics/SVG/1.1/DTD/svg11.dtd"><svg width="100%" height="100%" viewBox="0 0 84 30" version="1.1" xmlns="http://www.w3.org/2000/svg" xmlns:xlink="http://www.w3.org/1999/xlink" xml:space="preserve" xmlns:serif="http://www.serif.com/" style="fill-rule:evenodd;clip-rule:evenodd;stroke-linejoin:round;stroke-miterlimit:2;"><g><path d="M71.85,13.5l0.05,2.1c0.9,-0 1.85,0.35 2.85,1.05c1.067,0.767 1.6,1.567 1.6,2.4c0,0.3 -0.583,0.567 -1.75,0.8c-0.9,0.167 -1.667,0.25 -2.3,0.25c-0.867,-0 -1.733,-0.217 -2.6,-0.65c-0.1,1.067 -0.15,1.65 -0.15,1.75c0,0.833 0.3,1.367 0.9,1.6c0.3,0.133 1.017,0.2 2.15,0.2c1.433,0 2.517,-0.383 3.25,-1.15c0.733,-0.733 1.1,-1.767 1.1,-3.1c-0,-1.567 -0.417,-2.967 -1.25,-4.2c-0.9,-1.3 -2.117,-2.183 -3.65,-2.65c-0.133,0.433 -0.2,0.967 -0.2,1.6Z"/><path d="M16.75,10.6c-0.133,0.5 -0.183,1.067 -0.15,1.7l0,2.2c0.867,0 1.767,0.367 2.7,1.1c0.967,0.767 1.45,1.583 1.45,2.45c0,0.333 -0.533,0.617 -1.6,0.85c-0.833,0.167 -1.55,0.25 -2.15,0.25c-0.8,0 -1.6,-0.233 -2.4,-0.7c-0.1,1.133 -0.15,1.767 -0.15,1.9c-0,0.867 0.267,1.417 0.8,1.65c0.3,0.1 0.967,0.15 2,0.15c1.333,0 2.35,-0.4 3.05,-1.2c0.667,-0.767 1,-1.817 1,-3.15c0,-1.633 -0.383,-3.1 -1.15,-4.4c-0.833,-1.367 -1.967,-2.3 -3.4,-2.8Z"/><path d="M48.75,24.2c0.933,-0.7 1.4,-2.583 1.4,-5.65l-0.1,-12.35c-1.167,1.367 -1.75,2.183 -1.75,2.45l0.45,15.55Z" style="fill:#f00;"/><path d="M11.6,4.9c-1.167,1.367 -1.75,2.183 -1.75,2.45l0.45,15.55c0.933,-0.7 1.4,-2.583 1.4,-5.65l-0.1,-12.35Z" style="fill:#f00;"/><path d="M72.609,5.159l-4.35,2.8c-0.464,0.299 -0.599,0.918 -0.3,1.382c0.299,0.464 0.918,0.599 1.382,0.3l4.35,-2.8c0.464,-0.299 0.599,-0.918 0.3,-1.382c-0.299,-0.464 -0.918,-0.599 -1.382,-0.3Z" style="fill:#f00;"/><path d="M19.228,1.38l-5,3.4c-0.342,0.233 -0.431,0.699 -0.198,1.042c0.233,0.342 0.699,0.431 1.042,0.198l5,-3.4c0.342,-0.233 0.431,-0.699 0.198,-1.042c-0.233,-0.342 -0.699,-0.431 -1.042,-0.198Z" style="fill:#f00;"/><path d="M35.15,16.166l-5.672,-0l-0,-0.985l5.672,0l-0,0.985Zm-0,2.607l-5.672,0l-0,-0.984l5.672,-0l-0,0.984Z" style="fill-rule:nonzero;"/><path d="M62.489,19.828l-0,-2.356l-2.338,0l-0,-0.984l2.338,-0l-0,-2.338l0.996,-0l-0,2.338l2.338,-0l-0,0.984l-2.338,0l-0,2.356l-0.996,-0Z" style="fill-rule:nonzero;"/></g></svg>