<?xml version="1.0" encoding="UTF-8" standalone="no"?><!DOCTYPE svg PUBLIC "-//W3C//DTD SVG 1.1//EN" "http://www.w3.org/Graphics/SVG/1.1/DTD/svg11.dtd"><svg width="100%" height="100%" viewBox="0 0 23 30" version="1.1" xmlns="http://www.w3.org/2000/svg" xmlns:xlink="http://www.w3.org/1999/xlink" xml:space="preserve" xmlns:serif="http://www.serif.com/" style="fill-rule:evenodd;clip-rule:evenodd;stroke-linejoin:round;stroke-miterlimit:2;"><path d="M11.55,19c0.9,0 1.85,0.4 2.85,1.2c1.067,0.8 1.6,1.65 1.6,2.55c0,0.367 -0.583,0.667 -1.75,0.9c-0.9,0.2 -1.667,0.3 -2.3,0.3c-0.833,-0 -1.683,-0.25 -2.55,-0.75c-0.1,1.2 -0.15,1.85 -0.15,1.95c0,0.933 0.3,1.517 0.9,1.75c0.3,0.133 1,0.2 2.1,0.2c1.4,0 2.483,-0.417 3.25,-1.25c0.7,-0.8 1.05,-1.917 1.05,-3.35c0,-1.733 -0.4,-3.267 -1.2,-4.6c-0.9,-1.433 -2.117,-2.417 -3.65,-2.95c-0.133,0.5 -0.183,1.083 -0.15,1.75l0,2.3Z"/><path d="M14.75,9.65l-1.9,-1.95l-1.95,1.95l1.9,1.9l1.95,-1.9Z"/><path d="M9.1,8.8c0,0.367 -0.05,0.667 -0.15,0.9c0.767,-0.467 1.15,-1.117 1.15,-1.95c0,-0.633 -0.167,-1.567 -0.5,-2.8c-0.333,-1.267 -0.5,-2.2 -0.5,-2.8c-0.667,0.6 -1,1.133 -1,1.6c0,0.567 0.167,1.4 0.5,2.5c0.333,1.133 0.5,1.983 0.5,2.55Z" style="fill:#f00;"/></svg>