<?xml version="1.0" encoding="UTF-8" standalone="no"?><!DOCTYPE svg PUBLIC "-//W3C//DTD SVG 1.1//EN" "http://www.w3.org/Graphics/SVG/1.1/DTD/svg11.dtd"><svg width="100%" height="100%" viewBox="0 0 93 52" version="1.1" xmlns="http://www.w3.org/2000/svg" xmlns:xlink="http://www.w3.org/1999/xlink" xml:space="preserve" xmlns:serif="http://www.serif.com/" style="fill-rule:evenodd;clip-rule:evenodd;stroke-linejoin:round;stroke-miterlimit:2;"><g><path d="M84.45,34.8c0,0.4 -0.567,0.733 -1.7,1c-0.867,0.233 -1.617,0.35 -2.25,0.35c-0.833,-0 -1.667,-0.283 -2.5,-0.85c-0.1,1.367 -0.15,2.117 -0.15,2.25c0,1.033 0.283,1.7 0.85,2c0.333,0.133 1.033,0.2 2.1,0.2c1.4,-0 2.467,-0.483 3.2,-1.45c0.7,-0.9 1.05,-2.167 1.05,-3.8c-0,-1.967 -0.4,-3.717 -1.2,-5.25c-0.867,-1.633 -2.067,-2.75 -3.6,-3.35c-0.1,0.567 -0.15,1.233 -0.15,2l0,2.65c0.9,0 1.833,0.433 2.8,1.3c1.033,0.933 1.55,1.917 1.55,2.95Z"/><path d="M20.1,26.95l0,2.65c0.9,0 1.833,0.433 2.8,1.3c1.033,0.933 1.55,1.917 1.55,2.95c0,0.4 -0.567,0.733 -1.7,1c-0.867,0.233 -1.617,0.35 -2.25,0.35c-0.833,-0 -1.667,-0.283 -2.5,-0.85c-0.1,1.367 -0.15,2.117 -0.15,2.25c0,1.033 0.283,1.7 0.85,2c0.333,0.133 1.033,0.2 2.1,0.2c1.4,0 2.467,-0.483 3.2,-1.45c0.7,-0.9 1.05,-2.167 1.05,-3.8c-0,-1.967 -0.4,-3.717 -1.2,-5.25c-0.867,-1.633 -2.067,-2.75 -3.6,-3.35c-0.1,0.567 -0.15,1.233 -0.15,2Z"/><path d="M79.9,15c-0.367,0 -0.7,0.383 -1,1.15c-0.267,0.667 -0.4,1.317 -0.4,1.95c0,0.533 0.25,1.083 0.75,1.65c-0.9,1.3 -1.733,2.283 -2.5,2.95c0.267,0.133 0.483,0.2 0.65,0.2c0.667,-0 1.45,-0.883 2.35,-2.65c0.367,0.4 0.683,0.717 0.95,0.95l0.1,-1.85c-0.2,-0.233 -0.35,-0.417 -0.45,-0.55c0.233,-0.9 0.35,-1.617 0.35,-2.15c0,-1.1 -0.267,-1.65 -0.8,-1.65Zm-0.8,1.95c0.033,-0.2 0.117,-0.317 0.25,-0.35c0.4,0.133 0.6,0.517 0.6,1.15c0,0.133 -0.017,0.317 -0.05,0.55c-0.533,-0.467 -0.8,-0.917 -0.8,-1.35Z"/><path d="M20.7,15.6c0,-1.1 -0.267,-1.65 -0.8,-1.65c-0.367,-0 -0.7,0.383 -1,1.15c-0.267,0.667 -0.4,1.317 -0.4,1.95c0,0.533 0.25,1.083 0.75,1.65c-0.9,1.3 -1.733,2.283 -2.5,2.95c0.267,0.133 0.483,0.2 0.65,0.2c0.667,0 1.45,-0.883 2.35,-2.65c0.367,0.4 0.683,0.717 0.95,0.95l0.1,-1.85c-0.2,-0.233 -0.35,-0.417 -0.45,-0.55c0.233,-0.9 0.35,-1.617 0.35,-2.15Zm-0.75,1.1c0,0.133 -0.017,0.317 -0.05,0.55c-0.533,-0.467 -0.8,-0.917 -0.8,-1.35c0.033,-0.2 0.117,-0.317 0.25,-0.35c0.4,0.133 0.6,0.517 0.6,1.15Z"/><path d="M12.75,26.15c-0.667,-0 -1.283,0.683 -1.85,2.05c-0.533,1.233 -0.8,2.3 -0.8,3.2c0,1.533 0.517,2.3 1.55,2.3c0.8,-0 1.567,-0.517 2.3,-1.55c0.167,0.467 0.25,0.9 0.25,1.3c0,2.267 -1.383,4.067 -4.15,5.4c-2.133,1.033 -4.317,1.55 -6.55,1.55c1.1,0.5 1.85,0.833 2.25,1c0.767,0.233 1.55,0.35 2.35,0.35c2.267,0 4.033,-1.083 5.3,-3.25c1.133,-1.9 1.7,-4.25 1.7,-7.05c0,-1.1 -0.167,-2.167 -0.5,-3.2c-0.433,-1.4 -1.05,-2.1 -1.85,-2.1Zm0.1,4.9c-0.233,0.167 -0.467,0.25 -0.7,0.25l-0.9,-0.5c0.267,-0.7 0.517,-1.333 0.75,-1.9c0.8,0.4 1.2,0.917 1.2,1.55c0,0.233 -0.117,0.433 -0.35,0.6Z" style="fill:#f00;"/><path d="M55.5,31.5c0.167,0.467 0.25,0.9 0.25,1.3c0,2.267 -1.383,4.067 -4.15,5.4c-2.133,1.033 -4.317,1.55 -6.55,1.55c1.1,0.5 1.85,0.833 2.25,1c0.767,0.233 1.55,0.35 2.35,0.35c2.267,0 4.033,-1.083 5.3,-3.25c1.133,-1.9 1.7,-4.25 1.7,-7.05c-0,-1.1 -0.167,-2.167 -0.5,-3.2c-0.433,-1.4 -1.05,-2.1 -1.85,-2.1c-0.667,0 -1.283,0.683 -1.85,2.05c-0.533,1.233 -0.8,2.3 -0.8,3.2c-0,1.533 0.517,2.3 1.55,2.3c0.8,0 1.567,-0.517 2.3,-1.55Zm-0.75,-1.7c0,0.233 -0.117,0.433 -0.35,0.6c-0.233,0.167 -0.467,0.25 -0.7,0.25l-0.9,-0.5c0.267,-0.7 0.517,-1.333 0.75,-1.9c0.8,0.4 1.2,0.917 1.2,1.55Z" style="fill:#f00;"/><path d="M38.786,31.43l-5.672,-0l-0,-0.985l5.672,0l-0,0.985Zm-0,2.607l-5.672,0l-0,-0.984l5.672,-0l-0,0.984Z" style="fill-rule:nonzero;"/><path d="M66.125,35.092l-0,-2.356l-2.338,0l-0,-0.984l2.338,-0l-0,-2.338l0.996,-0l-0,2.338l2.338,-0l-0,0.984l-2.338,0l-0,2.356l-0.996,-0Z" style="fill-rule:nonzero;"/></g></svg>