<?xml version="1.0" encoding="UTF-8" standalone="no"?><!DOCTYPE svg PUBLIC "-//W3C//DTD SVG 1.1//EN" "http://www.w3.org/Graphics/SVG/1.1/DTD/svg11.dtd"><svg width="100%" height="100%" viewBox="0 0 54 61" version="1.1" xmlns="http://www.w3.org/2000/svg" xmlns:xlink="http://www.w3.org/1999/xlink" xml:space="preserve" xmlns:serif="http://www.serif.com/" style="fill-rule:evenodd;clip-rule:evenodd;stroke-linejoin:round;stroke-miterlimit:2;"><path d="M12.7,53.7c1.367,0.333 2.783,0.5 4.25,0.5c4.1,-0 7.283,-1.433 9.55,-4.3c2,-2.5 3,-5.567 3,-9.2c-0,-1.467 -0.283,-2.883 -0.85,-4.25c-0.8,-1.833 -1.9,-2.75 -3.3,-2.75c-1.2,-0 -2.333,0.9 -3.4,2.7c-0.933,1.6 -1.4,2.983 -1.4,4.15c-0,2.033 0.933,3.05 2.8,3.05c1.467,0 2.833,-0.667 4.1,-2c0.333,0.6 0.5,1.167 0.5,1.7c0,2.967 -2.483,5.317 -7.45,7.05c-3.867,1.367 -7.817,2.05 -11.85,2.05c1.967,0.667 3.317,1.1 4.05,1.3Zm13.4,-14.35c0,0.3 -0.2,0.55 -0.6,0.75c-0.433,0.233 -0.85,0.35 -1.25,0.35c-0.033,-0 -0.567,-0.217 -1.6,-0.65c0.467,-0.933 0.917,-1.767 1.35,-2.5c1.4,0.533 2.1,1.217 2.1,2.05Z"/><path d="M38.2,21.1c-2.133,2.367 -3.2,3.8 -3.2,4.3l0.8,27.1c1.767,-1.233 2.65,-4.517 2.65,-9.85l-0.25,-21.55Z" style="fill:#f00;"/><path d="M10.7,23.5l0.8,27.1c1.767,-1.233 2.65,-4.517 2.65,-9.85l-0.25,-21.55c-2.133,2.367 -3.2,3.8 -3.2,4.3Z" style="fill:#f00;"/><path d="M38.35,18.55c0,0.333 -0.083,0.617 -0.25,0.85c1.3,-0.433 1.95,-1.033 1.95,-1.8c-0,-0.6 -0.267,-1.467 -0.8,-2.6c-0.567,-1.133 -0.85,-1.983 -0.85,-2.55c-1.2,0.533 -1.8,1.017 -1.8,1.45c0,0.533 0.3,1.3 0.9,2.3c0.567,1.033 0.85,1.817 0.85,2.35Z" style="fill:#f00;"/><path d="M26.989,14.907l-9.35,5.5c-0.713,0.42 -0.952,1.34 -0.532,2.054c0.42,0.713 1.34,0.952 2.054,0.532l9.35,-5.5c0.713,-0.42 0.952,-1.34 0.532,-2.054c-0.42,-0.713 -1.34,-0.952 -2.054,-0.532Z"/></svg>