<?xml version="1.0" encoding="UTF-8" standalone="no"?><!DOCTYPE svg PUBLIC "-//W3C//DTD SVG 1.1//EN" "http://www.w3.org/Graphics/SVG/1.1/DTD/svg11.dtd"><svg width="100%" height="100%" viewBox="0 0 77 70" version="1.1" xmlns="http://www.w3.org/2000/svg" xmlns:xlink="http://www.w3.org/1999/xlink" xml:space="preserve" xmlns:serif="http://www.serif.com/" style="fill-rule:evenodd;clip-rule:evenodd;stroke-linejoin:round;stroke-miterlimit:2;"><path d="M30.45,39.15c-1.633,-2.433 -3.85,-4.083 -6.65,-4.95c-0.233,0.833 -0.333,1.817 -0.3,2.95l0.05,3.85c1.633,0 3.367,0.667 5.2,2c1.9,1.4 2.85,2.85 2.85,4.35c0,0.6 -1.067,1.1 -3.2,1.5c-1.6,0.3 -2.967,0.45 -4.1,0.45c-1.567,-0 -3.133,-0.4 -4.7,-1.2c-0.2,1.967 -0.3,3.05 -0.3,3.25c-0,1.567 0.55,2.55 1.65,2.95c0.567,0.233 1.85,0.35 3.85,0.35c2.567,-0 4.533,-0.717 5.9,-2.15c1.3,-1.333 1.95,-3.217 1.95,-5.65c-0,-2.867 -0.733,-5.433 -2.2,-7.7Z"/><path d="M12.15,23.9l0.75,29.3c1.767,-1.333 2.65,-4.883 2.65,-10.65l-0.25,-23.25c-2.133,2.567 -3.183,4.1 -3.15,4.6Z"/><path d="M42.55,16.1c-2.133,2.567 -3.183,4.1 -3.15,4.6l0.75,29.3c1.767,-1.333 2.65,-4.883 2.65,-10.65l-0.25,-23.25Z"/><path d="M68.55,34.7c-0.767,-1.967 -1.85,-2.95 -3.25,-2.95c-1.2,-0 -2.317,0.983 -3.35,2.95c-0.967,1.7 -1.45,3.183 -1.45,4.45c0,2.2 0.933,3.3 2.8,3.3c1.467,0 2.817,-0.733 4.05,-2.2c0.333,0.667 0.5,1.283 0.5,1.85c0,3.233 -2.45,5.783 -7.35,7.65c-3.833,1.467 -7.75,2.2 -11.75,2.2c1.933,0.733 3.267,1.2 4,1.4c1.367,0.367 2.783,0.55 4.25,0.55c4.033,-0 7.183,-1.55 9.45,-4.65c1.967,-2.7 2.95,-6.017 2.95,-9.95c-0,-1.6 -0.283,-3.133 -0.85,-4.6Zm-3.15,4c-0.4,0.233 -0.8,0.35 -1.2,0.35c-0.033,-0 -0.567,-0.233 -1.6,-0.7c0.467,-1 0.917,-1.9 1.35,-2.7c1.367,0.6 2.05,1.333 2.05,2.2c0,0.333 -0.2,0.617 -0.6,0.85Z"/><path d="M25.85,28.45l3.5,-3.15l-3.5,-3.3l-3.5,3.3l3.5,3.15Z"/><path d="M43.856,50.674l-5.3,5.65c-0.566,0.604 -0.536,1.554 0.068,2.12c0.604,0.566 1.554,0.536 2.12,-0.068l5.3,-5.65c0.566,-0.604 0.536,-1.554 -0.068,-2.12c-0.604,-0.566 -1.554,-0.536 -2.12,0.068Z"/><path d="M65.989,12.388l-9.25,5.95c-0.697,0.448 -0.898,1.377 -0.451,2.073c0.448,0.697 1.377,0.898 2.073,0.451l9.25,-5.95c0.697,-0.448 0.898,-1.377 0.451,-2.073c-0.448,-0.697 -1.377,-0.898 -2.073,-0.451Z"/><path d="M27.489,10.788l-9.25,5.95c-0.697,0.448 -0.898,1.377 -0.451,2.073c0.448,0.697 1.377,0.898 2.073,0.451l9.25,-5.95c0.697,-0.448 0.898,-1.377 0.451,-2.073c-0.448,-0.697 -1.377,-0.898 -2.073,-0.451Z"/></svg>