<?xml version="1.0" encoding="UTF-8" standalone="no"?><!DOCTYPE svg PUBLIC "-//W3C//DTD SVG 1.1//EN" "http://www.w3.org/Graphics/SVG/1.1/DTD/svg11.dtd"><svg width="100%" height="100%" viewBox="0 0 39 73" version="1.1" xmlns="http://www.w3.org/2000/svg" xmlns:xlink="http://www.w3.org/1999/xlink" xml:space="preserve" xmlns:serif="http://www.serif.com/" style="fill-rule:evenodd;clip-rule:evenodd;stroke-linejoin:round;stroke-miterlimit:2;"><path d="M28.95,44.15l-0.25,-23.25c-2.133,2.567 -3.183,4.1 -3.15,4.6l0.75,29.3c1.767,-1.333 2.65,-4.883 2.65,-10.65Z"/><path d="M29.25,12.65c0.6,-1.367 0.9,-2.45 0.9,-3.25c0,-1.6 -0.65,-2.4 -1.95,-2.4c-0.933,0 -1.767,0.567 -2.5,1.7c-0.633,1 -0.95,1.967 -0.95,2.9c0,0.767 0.6,1.567 1.8,2.4c-2.2,1.9 -4.283,3.35 -6.25,4.35c0.7,0.2 1.267,0.3 1.7,0.3c1.6,-0 3.533,-1.3 5.8,-3.9c0.933,0.6 1.717,1.067 2.35,1.4l0.25,-2.7c-0.5,-0.367 -0.883,-0.633 -1.15,-0.8Zm-0.9,-1.6c-0,0.233 -0.05,0.5 -0.15,0.8c-1.3,-0.667 -1.95,-1.333 -1.95,-2c0.067,-0.267 0.25,-0.433 0.55,-0.5c1.033,0.167 1.55,0.733 1.55,1.7Z"/><path d="M13.05,46.5c-0,2.2 0.933,3.3 2.8,3.3c1.467,0 2.817,-0.733 4.05,-2.2c0.333,0.667 0.5,1.283 0.5,1.85c0,3.233 -2.45,5.783 -7.35,7.65c-3.833,1.467 -7.75,2.2 -11.75,2.2c1.933,0.733 3.267,1.2 4,1.4c1.367,0.367 2.783,0.55 4.25,0.55c4.033,0 7.183,-1.55 9.45,-4.65c1.967,-2.7 2.95,-6.017 2.95,-9.95c0,-1.6 -0.283,-3.133 -0.85,-4.6c-0.767,-1.967 -1.85,-2.95 -3.25,-2.95c-1.2,0 -2.317,0.983 -3.35,2.95c-0.967,1.7 -1.45,3.183 -1.45,4.45Zm4.9,-0.45c-0.4,0.233 -0.8,0.35 -1.2,0.35c-0.033,-0 -0.567,-0.233 -1.6,-0.7c0.467,-1 0.917,-1.9 1.35,-2.7c1.367,0.6 2.05,1.333 2.05,2.2c-0,0.333 -0.2,0.617 -0.6,0.85Z" style="fill:#f00;"/></svg>