<?xml version="1.0" encoding="UTF-8" standalone="no"?><!DOCTYPE svg PUBLIC "-//W3C//DTD SVG 1.1//EN" "http://www.w3.org/Graphics/SVG/1.1/DTD/svg11.dtd"><svg width="100%" height="100%" viewBox="0 0 49 53" version="1.1" xmlns="http://www.w3.org/2000/svg" xmlns:xlink="http://www.w3.org/1999/xlink" xml:space="preserve" xmlns:serif="http://www.serif.com/" style="fill-rule:evenodd;clip-rule:evenodd;stroke-linejoin:round;stroke-miterlimit:2;"><path d="M19.3,35.95c0.733,0.6 1.5,1.35 2.3,2.25c0.9,0.967 1.35,1.667 1.35,2.1c0,2.5 -2.2,4.683 -6.6,6.55c-3.8,1.6 -7.567,2.4 -11.3,2.4c3.033,2.133 5.983,3.2 8.85,3.2c3.4,-0 6,-1.65 7.8,-4.95c2.5,-3.067 3.75,-6.1 3.75,-9.1c0,-1.5 -0.333,-2.633 -1,-3.4c-0.567,-1.167 -1.767,-2.4 -3.6,-3.7l-1.55,4.65Z"/><path d="M38.45,33.6c1.933,1.3 2.9,2.65 2.9,4.05c0,0.533 -1.067,1 -3.2,1.4c-1.633,0.267 -3.033,0.4 -4.2,0.4c-1.567,-0 -3.15,-0.367 -4.75,-1.1c-0.2,1.833 -0.3,2.85 -0.3,3.05c-0,1.4 0.55,2.3 1.65,2.7c0.6,0.2 1.917,0.3 3.95,0.3c2.6,0 4.583,-0.667 5.95,-2c1.333,-1.233 2,-2.967 2,-5.2c0,-2.667 -0.767,-5.05 -2.3,-7.15c-1.6,-2.233 -3.833,-3.75 -6.7,-4.55c-0.233,0.767 -0.333,1.667 -0.3,2.7l0.05,3.6c1.667,0 3.417,0.6 5.25,1.8Z"/><path d="M22.341,19.087l-7.1,4.55c-0.697,0.447 -0.901,1.375 -0.454,2.072c0.447,0.697 1.375,0.901 2.072,0.454l7.1,-4.55c0.697,-0.447 0.901,-1.375 0.454,-2.072c-0.447,-0.697 -1.375,-0.901 -2.072,-0.454Z"/><path d="M38.622,10.288l-8.2,4.55c-0.724,0.402 -0.985,1.316 -0.584,2.04c0.402,0.724 1.316,0.985 2.04,0.584l8.2,-4.55c0.724,-0.402 0.985,-1.316 0.584,-2.04c-0.402,-0.724 -1.316,-0.985 -2.04,-0.584Z"/></svg>