<?xml version="1.0" encoding="UTF-8" standalone="no"?><!DOCTYPE svg PUBLIC "-//W3C//DTD SVG 1.1//EN" "http://www.w3.org/Graphics/SVG/1.1/DTD/svg11.dtd"><svg width="100%" height="100%" viewBox="0 0 47 73" version="1.1" xmlns="http://www.w3.org/2000/svg" xmlns:xlink="http://www.w3.org/1999/xlink" xml:space="preserve" xmlns:serif="http://www.serif.com/" style="fill-rule:evenodd;clip-rule:evenodd;stroke-linejoin:round;stroke-miterlimit:2;"><path d="M19.65,41.3l-1.5,5.05c0.7,0.6 1.45,1.4 2.25,2.4c0.9,1.033 1.35,1.783 1.35,2.25c-0,2.733 -2.183,5.083 -6.55,7.05c-3.767,1.733 -7.5,2.6 -11.2,2.6c3,2.3 5.933,3.45 8.8,3.45c3.333,0 5.9,-1.783 7.7,-5.35c2.467,-3.267 3.7,-6.533 3.7,-9.8c0,-1.6 -0.333,-2.833 -1,-3.7c-0.533,-1.233 -1.717,-2.55 -3.55,-3.95Z"/><path d="M32.15,35c-0.233,0.833 -0.333,1.817 -0.3,2.95l0.05,3.85c1.633,0 3.367,0.667 5.2,2c1.9,1.4 2.85,2.85 2.85,4.35c0,0.6 -1.067,1.1 -3.2,1.5c-1.6,0.3 -2.967,0.45 -4.1,0.45c-1.567,0 -3.133,-0.4 -4.7,-1.2c-0.2,1.967 -0.3,3.05 -0.3,3.25c-0,1.567 0.55,2.55 1.65,2.95c0.567,0.233 1.85,0.35 3.85,0.35c2.567,-0 4.533,-0.717 5.9,-2.15c1.3,-1.333 1.95,-3.217 1.95,-5.65c0,-2.867 -0.733,-5.433 -2.2,-7.7c-1.633,-2.433 -3.85,-4.083 -6.65,-4.95Z"/><path d="M17.25,30.95l-0.3,0.1c-0.167,0.733 -0.3,1.217 -0.4,1.45c-0.233,0.6 -0.583,0.9 -1.05,0.9c-0.4,-0 -0.6,-0.533 -0.6,-1.6l-0.35,0.05c-0.233,0.767 -0.35,1.25 -0.35,1.45c0,0.433 0.1,0.8 0.3,1.1c0.2,0.367 0.517,0.55 0.95,0.55c0.367,-0 0.733,-0.133 1.1,-0.4c0.333,-0.233 0.517,-0.533 0.55,-0.9c0.3,0.2 0.633,0.3 1,0.3c1.133,-0 1.7,-0.817 1.7,-2.45c-0,-0.433 -0.083,-0.9 -0.25,-1.4l-0.35,0.15c0,1.433 -0.367,2.15 -1.1,2.15c-0.333,-0 -0.617,-0.483 -0.85,-1.45Z"/><path d="M34.45,16.05c0,-1.6 -0.65,-2.4 -1.95,-2.4c-0.933,-0 -1.767,0.567 -2.5,1.7c-0.633,1 -0.95,1.967 -0.95,2.9c-0,0.767 0.6,1.567 1.8,2.4c-2.2,1.9 -4.283,3.35 -6.25,4.35c0.7,0.2 1.267,0.3 1.7,0.3c1.6,0 3.533,-1.3 5.8,-3.9c0.933,0.6 1.717,1.067 2.35,1.4l0.25,-2.7c-0.5,-0.367 -0.883,-0.633 -1.15,-0.8c0.6,-1.367 0.9,-2.45 0.9,-3.25Zm-3.35,-0.05c1.033,0.167 1.55,0.733 1.55,1.7c-0,0.233 -0.05,0.5 -0.15,0.8c-1.3,-0.667 -1.95,-1.333 -1.95,-2c0.067,-0.267 0.25,-0.433 0.55,-0.5Z"/><path d="M8.7,20.15c0,0.3 0.1,0.667 0.3,1.1c0.133,-1.1 0.517,-1.65 1.15,-1.65c0.333,0 0.617,0.117 0.85,0.35c0.233,0.267 0.35,0.55 0.35,0.85c0,0.467 -0.35,1.4 -1.05,2.8c1.3,-0.233 2.383,-0.6 3.25,-1.1c0.7,-0.4 1.567,-1.083 2.6,-2.05c0.467,0.333 1.183,0.767 2.15,1.3c0.033,-0.833 0.05,-1.3 0.05,-1.4c0,-0.5 -0.317,-0.967 -0.95,-1.4c0.533,-1.1 0.8,-1.917 0.8,-2.45c0,-0.433 -0.167,-0.833 -0.5,-1.2c-0.333,-0.367 -0.7,-0.55 -1.1,-0.55c-0.733,-0 -1.417,0.367 -2.05,1.1c-0.633,0.7 -0.95,1.383 -0.95,2.05c0,0.8 0.55,1.483 1.65,2.05c-1.067,1 -2.05,1.633 -2.95,1.9c0.067,-0.933 0.1,-1.5 0.1,-1.7c-0,-1.6 -0.55,-2.4 -1.65,-2.4c-0.633,-0 -1.133,0.267 -1.5,0.8c-0.367,0.467 -0.55,1 -0.55,1.6Zm7.85,-2.8l-0.1,0.85c-1.033,-0.633 -1.55,-1.133 -1.55,-1.5l0.2,-0.4c0.2,-0.067 0.35,-0.1 0.45,-0.1c0.667,-0 1,0.383 1,1.15Z"/></svg>