<?xml version="1.0" encoding="UTF-8" standalone="no"?><!DOCTYPE svg PUBLIC "-//W3C//DTD SVG 1.1//EN" "http://www.w3.org/Graphics/SVG/1.1/DTD/svg11.dtd"><svg width="100%" height="100%" viewBox="0 0 54 53" version="1.1" xmlns="http://www.w3.org/2000/svg" xmlns:xlink="http://www.w3.org/1999/xlink" xml:space="preserve" xmlns:serif="http://www.serif.com/" style="fill-rule:evenodd;clip-rule:evenodd;stroke-linejoin:round;stroke-miterlimit:2;"><path d="M35.95,31.05l-1.55,4.65c0.733,0.6 1.5,1.35 2.3,2.25c0.9,0.967 1.35,1.667 1.35,2.1c-0,2.5 -2.2,4.683 -6.6,6.55c-3.8,1.6 -7.567,2.4 -11.3,2.4c3.033,2.133 5.983,3.2 8.85,3.2c3.4,-0 6,-1.65 7.8,-4.95c2.5,-3.067 3.75,-6.1 3.75,-9.1c-0,-1.5 -0.333,-2.633 -1,-3.4c-0.567,-1.167 -1.767,-2.4 -3.6,-3.7Z"/><path d="M24.55,34c-0,-1.5 -0.333,-2.633 -1,-3.4c-0.567,-1.167 -1.767,-2.4 -3.6,-3.7l-1.55,4.65c0.733,0.6 1.5,1.35 2.3,2.25c0.9,0.967 1.35,1.667 1.35,2.1c-0,2.5 -2.2,4.683 -6.6,6.55c-3.8,1.6 -7.567,2.4 -11.3,2.4c3.033,2.133 5.983,3.2 8.85,3.2c3.4,0 6,-1.65 7.8,-4.95c2.5,-3.067 3.75,-6.1 3.75,-9.1Z"/><path d="M34.65,26.25l3.95,-3.3l-3.9,-3.35l-3.95,3.35l3.9,3.3Z"/><path d="M21.441,14.737l-7.1,4.55c-0.697,0.447 -0.901,1.375 -0.454,2.072c0.447,0.697 1.375,0.901 2.072,0.454l7.1,-4.55c0.697,-0.447 0.901,-1.375 0.454,-2.072c-0.447,-0.697 -1.375,-0.901 -2.072,-0.454Z"/><path d="M35.147,7.433l-7.1,4.5c-0.699,0.443 -0.907,1.371 -0.464,2.07c0.443,0.699 1.371,0.907 2.07,0.464l7.1,-4.5c0.699,-0.443 0.907,-1.371 0.464,-2.07c-0.443,-0.699 -1.371,-0.907 -2.07,-0.464Z"/></svg>