<?xml version="1.0" encoding="UTF-8" standalone="no"?><!DOCTYPE svg PUBLIC "-//W3C//DTD SVG 1.1//EN" "http://www.w3.org/Graphics/SVG/1.1/DTD/svg11.dtd"><svg width="100%" height="100%" viewBox="0 0 33 41" version="1.1" xmlns="http://www.w3.org/2000/svg" xmlns:xlink="http://www.w3.org/1999/xlink" xml:space="preserve" xmlns:serif="http://www.serif.com/" style="fill-rule:evenodd;clip-rule:evenodd;stroke-linejoin:round;stroke-miterlimit:2;"><g><path d="M21.65,10.85c-0.967,0 -2.25,-0.083 -3.85,-0.25c-1.633,-0.167 -2.833,-0.25 -3.6,-0.25c-1,0 -1.9,0.3 -2.7,0.9c-0.867,0.667 -1.3,1.517 -1.3,2.55l0,0.7c0.9,-0.9 1.7,-1.35 2.4,-1.35c0.4,0 0.833,0.15 1.3,0.45c-1.367,1.3 -2.4,2.583 -3.1,3.85c-0.8,1.567 -1.2,3.25 -1.2,5.05c0,2.7 0.683,4.6 2.05,5.7c1.233,1 3.233,1.5 6,1.5c1.1,0 2.15,-0.217 3.15,-0.65c0.967,-0.467 1.95,-0.933 2.95,-1.4l0,-0.75c-0.467,0 -1.183,0.033 -2.15,0.1c-0.933,0.033 -1.7,0.05 -2.3,0.05c-2.5,-0 -4.4,-0.317 -5.7,-0.95c-1.7,-0.867 -2.55,-2.367 -2.55,-4.5c-0,-2.033 0.733,-3.783 2.2,-5.25c1.5,-1.5 3.267,-2.25 5.3,-2.25c0.733,-0 1.317,-0.15 1.75,-0.45c0.267,-0.1 0.517,-0.417 0.75,-0.95c0.167,-0.433 0.367,-1.05 0.6,-1.85Z" style="fill:#f00;"/><path d="M18.2,21.05l-1.85,-1.85l-1.9,1.85l1.9,1.85l1.85,-1.85Z" style="fill:#f00;"/></g></svg>