<?xml version="1.0" encoding="UTF-8" standalone="no"?><!DOCTYPE svg PUBLIC "-//W3C//DTD SVG 1.1//EN" "http://www.w3.org/Graphics/SVG/1.1/DTD/svg11.dtd"><svg width="100%" height="100%" viewBox="0 0 33 29" version="1.1" xmlns="http://www.w3.org/2000/svg" xmlns:xlink="http://www.w3.org/1999/xlink" xml:space="preserve" xmlns:serif="http://www.serif.com/" style="fill-rule:evenodd;clip-rule:evenodd;stroke-linejoin:round;stroke-miterlimit:2;"><g><path d="M22.25,10.75c-0.433,-1.367 -1,-2.05 -1.7,-2.05c-0.6,0 -1.2,0.567 -1.8,1.7c-0.533,1 -0.8,1.817 -0.8,2.45c0,0.567 0.167,1.017 0.5,1.35c0.3,0.333 0.733,0.5 1.3,0.5c0.6,0 1.133,-0.25 1.6,-0.75c0.067,0.167 0.1,0.417 0.1,0.75c0,0.633 -1.25,1.217 -3.75,1.75c-1.833,0.367 -3.367,0.55 -4.6,0.55c-1.467,0 -2.883,-0.2 -4.25,-0.6c-1.467,-0.5 -2.2,-1.267 -2.2,-2.3c-0,-0.167 0.1,-0.517 0.3,-1.05c0.167,-0.533 0.317,-1 0.45,-1.4c-0.8,0.167 -1.417,0.7 -1.85,1.6c-0.367,0.733 -0.55,1.45 -0.55,2.15c-0,2.967 2.3,4.45 6.9,4.45c3.1,0 5.483,-0.367 7.15,-1.1c2.467,-1.133 3.7,-3.083 3.7,-5.85c-0,-0.767 -0.167,-1.483 -0.5,-2.15Zm-1.8,0.85c0.167,0.167 0.25,0.317 0.25,0.45c0,0.3 -0.183,0.45 -0.55,0.45c-0.167,0 -0.35,-0.083 -0.55,-0.25c0.067,0.033 0,-0.083 -0.2,-0.35c0.367,-0.367 0.583,-0.55 0.65,-0.55c0.133,0 0.267,0.083 0.4,0.25Z" style="fill:#f00;"/><path d="M21.55,5.65l-1.9,-1.85l-1.85,1.85l1.9,1.85l1.85,-1.85Z" style="fill:#f00;"/></g></svg>