<?xml version="1.0" encoding="UTF-8" standalone="no"?><!DOCTYPE svg PUBLIC "-//W3C//DTD SVG 1.1//EN" "http://www.w3.org/Graphics/SVG/1.1/DTD/svg11.dtd"><svg width="100%" height="100%" viewBox="0 0 46 47" version="1.1" xmlns="http://www.w3.org/2000/svg" xmlns:xlink="http://www.w3.org/1999/xlink" xml:space="preserve" xmlns:serif="http://www.serif.com/" style="fill-rule:evenodd;clip-rule:evenodd;stroke-linejoin:round;stroke-miterlimit:2;"><g><path d="M34.6,19.9c0.267,-0.467 0.4,-0.85 0.4,-1.15c0,-0.1 -0.2,-0.333 -0.6,-0.7c-0.4,-0.367 -0.6,-0.683 -0.6,-0.95c-0,-0.1 0.033,-0.233 0.1,-0.4c0.067,-0.2 0.083,-0.35 0.05,-0.45l0,-0.3c-0.8,0.5 -1.433,1.333 -1.9,2.5c0.067,0.3 0.35,0.7 0.85,1.2c0.3,1.733 0.45,4.367 0.45,7.9c-0,0.667 -0.7,0.983 -2.1,0.95l-0.4,-0l-0,2.4l1,-0c1,-0 1.733,-0.5 2.2,-1.5c0.3,-0.7 0.45,-1.583 0.45,-2.65l-0,-2.2c-0,-0.4 -0.033,-1.017 -0.1,-1.85c-0.1,-0.8 -0.15,-1.4 -0.15,-1.8c-0,-0.2 0.117,-0.533 0.35,-1Z" style="fill:#f00;"/><path d="M39.75,16.2c-0.933,1.1 -1.4,1.767 -1.4,2l0.35,12.7c0.767,-0.567 1.15,-2.1 1.15,-4.6l-0.1,-10.1Z"/><path d="M9.45,26.95c0.067,0.1 0.067,0.183 0,0.25c-1.1,0.233 -2.05,0.667 -2.85,1.3c-0.9,0.733 -1.35,1.583 -1.35,2.55l-0,0.3l0.95,9.3c0.133,-0.2 0.283,-0.467 0.45,-0.8c0.167,-0.367 0.25,-0.65 0.25,-0.85l-0.7,-8.2c0.367,-0.7 0.95,-1.05 1.75,-1.05l0.35,0.1c-0,0.533 0.133,1.083 0.4,1.65c0.367,0.667 0.8,1 1.3,1c0.867,-0 1.3,-0.783 1.3,-2.35c0.8,0.5 1.383,0.75 1.75,0.75l3.65,-0c0,0.9 0.233,1.833 0.7,2.8c0.6,1.167 1.333,1.75 2.2,1.75c0.667,0 1.183,-0.4 1.55,-1.2c0.3,-0.6 0.45,-1.267 0.45,-2c-0,-0.167 -0.017,-0.4 -0.05,-0.7c-0.033,-0.4 -0.067,-0.65 -0.1,-0.75c0.667,0.1 1.267,0.15 1.8,0.15c0.308,0 0.608,-0.017 0.9,-0.05l0.95,-0c0.467,-0 0.9,-0.267 1.3,-0.8l0.9,-1.3c0.267,0.433 0.533,0.883 0.8,1.35c0.367,0.5 0.817,0.75 1.35,0.75l1.4,-0l-0,-2.4l-0.15,0c-1.018,-0.022 -1.751,-0.305 -2.2,-0.85c-0.4,-0.5 -0.6,-1.25 -0.6,-2.25c0,-1.167 -0.083,-2.717 -0.25,-4.65c-0.2,-2.367 -0.317,-3.933 -0.35,-4.7c-0.933,0.667 -1.4,1.383 -1.4,2.15c0,0.933 0.1,2.367 0.3,4.3c0.2,1.9 0.3,3.317 0.3,4.25c0,0.767 -0.267,1.267 -0.8,1.5c-0.367,0.167 -1.033,0.25 -2,0.25c-0.152,0.026 -0.319,0.042 -0.5,0.05c-0.8,0.067 -1.4,0.1 -1.8,0.1c-0.633,-0 -1.117,-0.05 -1.45,-0.15c0.533,-0.5 0.983,-1.033 1.35,-1.6c0.433,-0.7 0.65,-1.35 0.65,-1.95c0,-1.2 -0.317,-2.017 -0.95,-2.45c-0.5,-0 -1.017,0.483 -1.55,1.45c-0.467,0.933 -0.917,1.85 -1.35,2.75c-0.567,1.033 -1.117,1.6 -1.65,1.7c-0.324,0.046 -0.874,0.08 -1.65,0.1l-0.65,-0c-1.012,-0.026 -1.729,-0.11 -2.15,-0.25c-0.333,-0.1 -0.633,-0.333 -0.9,-0.7c-0.333,-0.5 -0.733,-0.9 -1.2,-1.2c-0.233,0.2 -0.383,0.4 -0.45,0.6Zm11.45,5.95c0,0.067 -0.083,0.167 -0.25,0.3c-0.167,0.1 -0.3,0.15 -0.4,0.15c-0.6,0 -1.133,-0.267 -1.6,-0.8c-0.4,-0.433 -0.667,-0.95 -0.8,-1.55c2.033,0.433 3.05,1.067 3.05,1.9Zm-2.6,-4.95c0.467,-0.933 0.733,-1.45 0.8,-1.55c0.3,-0.533 0.667,-0.983 1.1,-1.35c0.4,0.367 0.6,0.683 0.6,0.95c-0,0.6 -0.267,1.067 -0.8,1.4c-0.333,0.2 -0.9,0.383 -1.7,0.55Z"/><path d="M9.15,15.7c-0.233,0 -0.433,-0.367 -0.6,-1.1l-0.2,0.05c-0.1,0.533 -0.183,0.9 -0.25,1.1c-0.167,0.467 -0.4,0.7 -0.7,0.7c-0.267,0 -0.4,-0.4 -0.4,-1.2l-0.25,-0c-0.133,0.567 -0.2,0.933 -0.2,1.1c-0,0.333 0.067,0.6 0.2,0.8c0.133,0.267 0.35,0.4 0.65,0.4c0.233,-0 0.467,-0.083 0.7,-0.25c0.2,-0.2 0.317,-0.433 0.35,-0.7c0.2,0.167 0.433,0.25 0.7,0.25c0.733,0 1.1,-0.617 1.1,-1.85c0,-0.333 -0.05,-0.683 -0.15,-1.05l-0.25,0.1c-0,1.1 -0.233,1.65 -0.7,1.65Z"/><path d="M27.05,12.2c-0,-0.333 -0.05,-0.683 -0.15,-1.05l-0.25,0.1c0,1.1 -0.233,1.65 -0.7,1.65c-0.233,-0 -0.433,-0.367 -0.6,-1.1l-0.2,0.05c-0.1,0.533 -0.183,0.9 -0.25,1.1c-0.167,0.467 -0.4,0.7 -0.7,0.7c-0.267,-0 -0.4,-0.4 -0.4,-1.2l-0.25,0c-0.133,0.567 -0.2,0.933 -0.2,1.1c-0,0.333 0.067,0.6 0.2,0.8c0.133,0.267 0.35,0.4 0.65,0.4c0.233,-0 0.467,-0.083 0.7,-0.25c0.2,-0.2 0.317,-0.433 0.35,-0.7c0.2,0.167 0.433,0.25 0.7,0.25c0.733,-0 1.1,-0.617 1.1,-1.85Z"/><path d="M18.8,12.15c-0,-0.8 -0.383,-1.2 -1.15,-1.2c-0.567,0 -1.067,0.283 -1.5,0.85c-0.4,0.5 -0.6,0.967 -0.6,1.4c-0,0.4 0.367,0.8 1.1,1.2c-1.3,0.967 -2.533,1.683 -3.7,2.15c0.4,0.133 0.733,0.2 1,0.2c0.967,0 2.117,-0.65 3.45,-1.95c0.567,0.3 1.033,0.533 1.4,0.7l0.15,-1.35c-0.3,-0.2 -0.533,-0.333 -0.7,-0.4c0.367,-0.7 0.55,-1.233 0.55,-1.6Zm-2,-0.05c0.6,0.1 0.9,0.383 0.9,0.85c0,0.1 -0.017,0.233 -0.05,0.4c-0.8,-0.333 -1.2,-0.667 -1.2,-1c0.067,-0.133 0.183,-0.217 0.35,-0.25Z"/><path d="M41.28,8.629c0.232,-0.149 0.541,-0.082 0.691,0.151c0.149,0.232 0.082,0.541 -0.151,0.691c0,-0 -4.2,2.7 -4.2,2.7l-0.022,0.013l-0.022,0.012l-0.023,0.011l-0.023,0.01l-0.023,0.008l-0.024,0.007l-0.024,0.006l-0.024,0.005l-0.024,0.003l-0.024,0.003l-0.024,0.001l-0.024,-0l-0.024,-0.001l-0.024,-0.002l-0.024,-0.004l-0.023,-0.004l-0.024,-0.006l-0.023,-0.007l-0.022,-0.008l-0.023,-0.009l-0.021,-0.01l-0.022,-0.011l-0.021,-0.012l-0.02,-0.013l-0.02,-0.014l-0.019,-0.016l-0.019,-0.016l-0.018,-0.017l-0.017,-0.019l-0.016,-0.019l-0.015,-0.02l-0.015,-0.022l-0.013,-0.022l-0.012,-0.022l-0.011,-0.023l-0.01,-0.023l-0.008,-0.023l-0.007,-0.024l-0.006,-0.024l-0.005,-0.024l-0.003,-0.024l-0.003,-0.024l-0.001,-0.024l0,-0.024l0.001,-0.024l0.002,-0.024l0.004,-0.024l0.004,-0.023l0.006,-0.024l0.007,-0.023l0.008,-0.022l0.009,-0.023l0.01,-0.021l0.011,-0.022l0.012,-0.021l0.013,-0.02l0.014,-0.02l0.016,-0.019l0.016,-0.019l0.017,-0.018l0.019,-0.017l0.019,-0.016l0.02,-0.015l0.022,-0.015l4.2,-2.7Z"/><path d="M26.98,8.129l0.54,0.842c0,-0 -4.2,2.7 -4.2,2.7c-0.232,0.149 -0.541,0.082 -0.691,-0.151c-0.149,-0.232 -0.082,-0.541 0.151,-0.691l4.2,-2.7Z"/></g></svg>