<?xml version="1.0" encoding="UTF-8" standalone="no"?><!DOCTYPE svg PUBLIC "-//W3C//DTD SVG 1.1//EN" "http://www.w3.org/Graphics/SVG/1.1/DTD/svg11.dtd"><svg width="100%" height="100%" viewBox="0 0 50 47" version="1.1" xmlns="http://www.w3.org/2000/svg" xmlns:xlink="http://www.w3.org/1999/xlink" xml:space="preserve" xmlns:serif="http://www.serif.com/" style="fill-rule:evenodd;clip-rule:evenodd;stroke-linejoin:round;stroke-miterlimit:2;"><g><path d="M27.55,16.25l-0,-0.3c-0.8,0.5 -1.433,1.333 -1.9,2.5c0.067,0.3 0.35,0.7 0.85,1.2c0.3,1.733 0.45,4.367 0.45,7.9c0,0.667 -0.7,0.983 -2.1,0.95l-0.5,0l-0,2.4l1.1,-0c1,-0 1.733,-0.5 2.2,-1.5c0.3,-0.7 0.45,-1.583 0.45,-2.65l-0,-2.2c-0,-0.4 -0.033,-1.017 -0.1,-1.85c-0.1,-0.8 -0.15,-1.4 -0.15,-1.8c-0,-0.2 0.117,-0.533 0.35,-1c0.267,-0.467 0.4,-0.85 0.4,-1.15c-0,-0.1 -0.2,-0.333 -0.6,-0.7c-0.4,-0.367 -0.6,-0.683 -0.6,-0.95c0,-0.1 0.033,-0.233 0.1,-0.4c0.067,-0.2 0.083,-0.35 0.05,-0.45Z" style="fill:#f00;"/><path d="M33.3,16.2c-0.933,1.1 -1.4,1.767 -1.4,2l0.35,12.7c0.767,-0.567 1.15,-2.1 1.15,-4.6l-0.1,-10.1Z"/><path d="M14,22c-0.567,0.667 -0.85,1.083 -0.85,1.25l0.15,1.6c-1.3,0.633 -2.25,1.217 -2.85,1.75c-0.833,0.767 -1.25,1.683 -1.25,2.75c0,0.4 0.483,0.6 1.45,0.6c0.933,0 1.583,-0.083 1.95,-0.25c0.5,-0.167 1,-0.583 1.5,-1.25c0.233,0.533 0.467,1.05 0.7,1.55c0.333,0.6 0.767,0.9 1.3,0.9l2.5,-0c0.467,-0 0.9,-0.267 1.3,-0.8l0.9,-1.3c0.267,0.433 0.533,0.883 0.8,1.35c0.367,0.5 0.817,0.75 1.35,0.75l1.4,-0l-0,-2.4l-0.1,-0c-1.049,-0.02 -1.799,-0.303 -2.25,-0.85c-0.4,-0.5 -0.6,-1.25 -0.6,-2.25c0,-1.167 -0.083,-2.717 -0.25,-4.65c-0.2,-2.367 -0.317,-3.933 -0.35,-4.7c-0.933,0.667 -1.4,1.383 -1.4,2.15c0,0.933 0.1,2.367 0.3,4.3c0.2,1.9 0.3,3.317 0.3,4.25c0,0.767 -0.267,1.267 -0.8,1.5c-0.322,0.146 -0.872,0.23 -1.65,0.25l-0.35,0c-0.749,-0.02 -1.183,-0.053 -1.3,-0.1c-0.567,-0.233 -1.05,-1.217 -1.45,-2.95c-0.3,-1.367 -0.45,-2.517 -0.45,-3.45Zm-0.35,4.95c0,0.167 -0.233,0.3 -0.7,0.4c-0.4,0.1 -0.717,0.15 -0.95,0.15c-0.267,0 -0.617,-0.067 -1.05,-0.2c0.9,-0.533 1.717,-0.95 2.45,-1.25c0.167,0.533 0.25,0.833 0.25,0.9Z"/><path d="M12.95,15.95c0,-0.8 -0.383,-1.2 -1.15,-1.2c-0.567,-0 -1.067,0.283 -1.5,0.85c-0.4,0.5 -0.6,0.967 -0.6,1.4c0,0.4 0.367,0.8 1.1,1.2c-1.3,0.967 -2.533,1.683 -3.7,2.15c0.4,0.133 0.733,0.2 1,0.2c0.967,-0 2.117,-0.65 3.45,-1.95c0.567,0.3 1.033,0.533 1.4,0.7l0.15,-1.35c-0.3,-0.2 -0.533,-0.333 -0.7,-0.4c0.367,-0.7 0.55,-1.233 0.55,-1.6Zm-2.35,0.2c0.067,-0.133 0.183,-0.217 0.35,-0.25c0.6,0.1 0.9,0.383 0.9,0.85c-0,0.1 -0.017,0.233 -0.05,0.4c-0.8,-0.333 -1.2,-0.667 -1.2,-1Z"/><path d="M18.8,13.35l-0.25,0c-0.133,0.567 -0.2,0.933 -0.2,1.1c-0,0.333 0.067,0.6 0.2,0.8c0.133,0.267 0.35,0.4 0.65,0.4c0.233,-0 0.467,-0.083 0.7,-0.25c0.2,-0.2 0.317,-0.433 0.35,-0.7c0.2,0.167 0.433,0.25 0.7,0.25c0.733,0 1.1,-0.617 1.1,-1.85c-0,-0.333 -0.05,-0.683 -0.15,-1.05l-0.25,0.1c0,1.1 -0.233,1.65 -0.7,1.65c-0.233,-0 -0.433,-0.367 -0.6,-1.1l-0.2,0.05c-0.1,0.533 -0.183,0.9 -0.25,1.1c-0.167,0.467 -0.4,0.7 -0.7,0.7c-0.267,-0 -0.4,-0.4 -0.4,-1.2Z"/></g></svg>