<?xml version="1.0" encoding="UTF-8" standalone="no"?><!DOCTYPE svg PUBLIC "-//W3C//DTD SVG 1.1//EN" "http://www.w3.org/Graphics/SVG/1.1/DTD/svg11.dtd"><svg width="100%" height="100%" viewBox="0 0 60 94" version="1.1" xmlns="http://www.w3.org/2000/svg" xmlns:xlink="http://www.w3.org/1999/xlink" xml:space="preserve" xmlns:serif="http://www.serif.com/" style="fill-rule:evenodd;clip-rule:evenodd;stroke-linejoin:round;stroke-miterlimit:2;"><g><path d="M43.95,69.25l2.95,2.95l2.95,-2.95l-2.95,-3l-2.95,3Z" style="fill:#f00;"/><path d="M47.65,49.7c-0.9,-0.367 -2.3,-1.117 -4.2,-2.25c-1.367,-0.8 -2.417,-1.2 -3.15,-1.2c-1.367,0 -2.483,0.7 -3.35,2.1c-0.533,0.833 -1.05,2.15 -1.55,3.95c0.567,-0.3 1.117,-0.583 1.65,-0.85c0.7,-0.367 1.283,-0.55 1.75,-0.55c0.7,0 1.717,0.35 3.05,1.05c0.033,0.033 0.983,0.6 2.85,1.7c-1.333,1.1 -2.467,1.833 -3.4,2.2c-0.833,0.333 -1.867,0.5 -3.1,0.5c-0.333,-0 -1,-0.017 -2,-0.05c-0.241,-0.008 -0.474,-0.025 -0.7,-0.05l0,5.1l1.7,-0c1.4,-0 2.733,-0.367 4,-1.1c0.467,-0.267 1.467,-1.017 3,-2.25c1.133,-0.933 2.133,-1.517 3,-1.75c0.733,-0.2 1.65,-0.333 2.75,-0.4c0.933,-0.033 1.867,-0.05 2.8,-0.05c0.567,-1.5 1.017,-3.133 1.35,-4.9c-2.3,-0 -4.45,-0.4 -6.45,-1.2Z" style="fill:#f00;"/><path d="M28,30.9c-0.5,0.533 -0.983,1.05 -1.45,1.55c-0.4,0.5 -0.6,1.183 -0.6,2.05c0,6.867 0.05,11.267 0.15,13.2c0.233,6.633 0.867,10.633 1.9,12c0.833,1.1 2,1.65 3.5,1.65l4,-0l0,-5.1c-3.233,0 -5.333,-0.65 -6.3,-1.95c-0.8,-1.1 -1.2,-3.4 -1.2,-6.9l0,-16.5Z"/><path d="M15.95,48.85c-0.5,-0.333 -0.917,-0.5 -1.25,-0.5c-1.933,-0 -3.917,1.667 -5.95,5c0,0.5 0.217,1.067 0.65,1.7c0.433,0.667 0.65,1.1 0.65,1.3c-0,0.033 -0.1,0.25 -0.3,0.65c-0.2,0.367 -0.3,0.7 -0.3,1c0,0.3 0.067,0.7 0.2,1.2c2.833,-1.967 4.95,-2.95 6.35,-2.95c0.267,0 0.65,0.1 1.15,0.3c0.267,-0.133 0.567,-0.517 0.9,-1.15c0.2,-0.467 0.4,-0.933 0.6,-1.4l-2.2,0c-3.367,0 -5.05,-0.483 -5.05,-1.45c-0,-0.367 0.283,-0.783 0.85,-1.25c0.533,-0.467 0.983,-0.7 1.35,-0.7c0.033,0 0.283,0.083 0.75,0.25c0.433,0.167 0.783,0.25 1.05,0.25c0.867,0 1.3,-0.417 1.3,-1.25c0,-0.333 -0.25,-0.667 -0.75,-1Z"/><path d="M26.5,21.6c0.433,-0.267 0.883,-0.733 1.35,-1.4c0.533,-0.733 0.917,-1.217 1.15,-1.45c1.3,0.567 2.083,0.883 2.35,0.95c0.633,0.2 1.467,0.3 2.5,0.3c1.133,-0 2.517,-0.45 4.15,-1.35c1.8,-1 2.7,-2 2.7,-3c-1.867,0.967 -2.867,1.467 -3,1.5c-1.167,0.533 -2.233,0.8 -3.2,0.8c-1.867,-0 -3.6,-0.583 -5.2,-1.75c-1.333,2.033 -2.267,3.833 -2.8,5.4Z"/><path d="M14.423,35.348l-5.6,3.7c-0.691,0.457 -0.881,1.388 -0.425,2.079c0.457,0.691 1.388,0.881 2.079,0.425l5.6,-3.7c0.691,-0.457 0.881,-1.388 0.425,-2.079c-0.457,-0.691 -1.388,-0.881 -2.079,-0.425Z"/><path d="M40.473,20.748l-5.6,3.7c-0.691,0.457 -0.881,1.388 -0.425,2.079c0.457,0.691 1.388,0.881 2.079,0.425l5.6,-3.7c0.691,-0.457 0.881,-1.388 0.425,-2.079c-0.457,-0.691 -1.388,-0.881 -2.079,-0.425Z"/></g></svg>