<?xml version="1.0" encoding="UTF-8" standalone="no"?><!DOCTYPE svg PUBLIC "-//W3C//DTD SVG 1.1//EN" "http://www.w3.org/Graphics/SVG/1.1/DTD/svg11.dtd"><svg width="100%" height="100%" viewBox="0 0 64 94" version="1.1" xmlns="http://www.w3.org/2000/svg" xmlns:xlink="http://www.w3.org/1999/xlink" xml:space="preserve" xmlns:serif="http://www.serif.com/" style="fill-rule:evenodd;clip-rule:evenodd;stroke-linejoin:round;stroke-miterlimit:2;"><g><path d="M49.25,69.25l2.95,2.95l2.95,-2.95l-2.95,-3l-2.95,3Z" style="fill:#f00;"/><path d="M59.4,50.9c-2.3,0 -4.45,-0.4 -6.45,-1.2c-0.9,-0.367 -2.3,-1.117 -4.2,-2.25c-1.367,-0.8 -2.417,-1.2 -3.15,-1.2c-1.367,0 -2.483,0.7 -3.35,2.1c-0.533,0.833 -1.05,2.15 -1.55,3.95c0.567,-0.3 1.117,-0.583 1.65,-0.85c0.7,-0.367 1.283,-0.55 1.75,-0.55c0.7,0 1.717,0.35 3.05,1.05c0.033,0.033 0.983,0.6 2.85,1.7c-1.333,1.1 -2.467,1.833 -3.4,2.2c-0.833,0.333 -1.867,0.5 -3.1,0.5c-0.333,-0 -1,-0.017 -2,-0.05c-0.276,-0.009 -0.543,-0.026 -0.8,-0.05l0,5.1l1.8,-0c1.4,-0 2.733,-0.367 4,-1.1c0.467,-0.267 1.467,-1.017 3,-2.25c1.133,-0.933 2.133,-1.517 3,-1.75c0.733,-0.2 1.65,-0.333 2.75,-0.4c0.933,-0.033 1.867,-0.05 2.8,-0.05c0.567,-1.5 1.017,-3.133 1.35,-4.9Z" style="fill:#f00;"/><path d="M38.9,56.25l-0,0.05c0.404,0.016 0.904,-0.001 1.5,-0.05l-1.5,0Z" style="fill:#f00;"/><path d="M32.2,44l1.75,9.8c-0.7,0.867 -1.867,1.617 -3.5,2.25c-1.5,0.533 -2.883,0.8 -4.15,0.8c-1.333,0 -2.583,-0.6 -3.75,-1.8l-0,5.15c-0,1.033 1.117,1.55 3.35,1.55c2.467,0 4.217,-0.417 5.25,-1.25c0.5,-0.4 1.6,-1.85 3.3,-4.35c0.333,1.1 0.667,2.183 1,3.25c0.6,1.3 1.35,1.95 2.25,1.95l3,0l0,-5.1c-0.102,0.007 -0.202,0.007 -0.3,0c-0.596,0.049 -1.096,0.066 -1.5,0.05c-0.454,-0.035 -0.787,-0.102 -1,-0.2c-0.767,-0.367 -1.7,-2.933 -2.8,-7.7c-0.567,-2.333 -1.15,-5.3 -1.75,-8.9c-0.8,2.833 -1.183,4.333 -1.15,4.5Z"/><path d="M16.4,53.8c-0,-1.467 -0.317,-2.7 -0.95,-3.7c-0.433,-0.633 -1.2,-1.433 -2.3,-2.4c-1.233,-1.033 -2.117,-1.883 -2.65,-2.55c-0.767,1.833 -1.15,3.233 -1.15,4.2c0,0.133 0.033,0.333 0.1,0.6c0.067,0.267 0.117,0.45 0.15,0.55c-1.333,2.733 -2,4.967 -2,6.7c0,2.767 1.1,4.15 3.3,4.15c1.8,-0 3.2,-0.833 4.2,-2.5c0.867,-1.433 1.3,-3.117 1.3,-5.05Zm-6.85,0.8c-0,-1.2 0.45,-2.25 1.35,-3.15c2.5,1.867 3.75,3.017 3.75,3.45c-0,0.4 -0.45,0.833 -1.35,1.3c-0.867,0.433 -1.517,0.65 -1.95,0.65c-1.2,-0 -1.8,-0.75 -1.8,-2.25Z"/><path d="M32.8,32.85c-0,-0.433 -0.067,-0.9 -0.2,-1.4l-0.35,0.1c0,1.467 -0.333,2.2 -1,2.2c-0.3,-0 -0.567,-0.483 -0.8,-1.45l-0.25,0.1c-0.133,0.733 -0.25,1.217 -0.35,1.45c-0.233,0.6 -0.55,0.9 -0.95,0.9c-0.367,-0 -0.55,-0.533 -0.55,-1.6l-0.35,0.05c-0.2,0.767 -0.3,1.25 -0.3,1.45c0,0.433 0.083,0.8 0.25,1.1c0.2,0.367 0.5,0.55 0.9,0.55c0.333,0 0.667,-0.133 1,-0.4c0.3,-0.233 0.467,-0.533 0.5,-0.9c0.267,0.2 0.567,0.3 0.9,0.3c1.033,0 1.55,-0.817 1.55,-2.45Z"/><path d="M9.4,27.6c-0,0.5 0.45,1.033 1.35,1.6c-1.633,1.233 -3.183,2.183 -4.65,2.85c0.5,0.133 0.917,0.2 1.25,0.2c1.2,-0 2.65,-0.867 4.35,-2.6c0.667,0.4 1.25,0.717 1.75,0.95l0.15,-1.8c-0.367,-0.233 -0.65,-0.4 -0.85,-0.5c0.467,-0.9 0.7,-1.617 0.7,-2.15c0,-1.033 -0.5,-1.55 -1.5,-1.55c-0.7,-0 -1.317,0.367 -1.85,1.1c-0.467,0.633 -0.7,1.267 -0.7,1.9Zm1.1,-1.15c0.067,-0.167 0.2,-0.267 0.4,-0.3c0.767,0.1 1.15,0.45 1.15,1.05c-0,0.167 -0.033,0.35 -0.1,0.55c-0.967,-0.433 -1.45,-0.867 -1.45,-1.3Z"/><path d="M29.2,22.15c-0.7,0 -1.317,0.367 -1.85,1.1c-0.467,0.633 -0.7,1.267 -0.7,1.9c-0,0.5 0.45,1.033 1.35,1.6c-1.633,1.233 -3.183,2.183 -4.65,2.85c0.5,0.133 0.917,0.2 1.25,0.2c1.2,0 2.65,-0.867 4.35,-2.6c0.667,0.4 1.25,0.717 1.75,0.95l0.15,-1.8c-0.367,-0.233 -0.65,-0.4 -0.85,-0.5c0.467,-0.9 0.7,-1.617 0.7,-2.15c0,-1.033 -0.5,-1.55 -1.5,-1.55Zm-1.45,1.85c0.067,-0.167 0.2,-0.267 0.4,-0.3c0.767,0.1 1.15,0.45 1.15,1.05c-0,0.167 -0.033,0.35 -0.1,0.55c-0.967,-0.433 -1.45,-0.867 -1.45,-1.3Z"/><path d="M47.223,20.748l-5.6,3.7c-0.691,0.457 -0.881,1.388 -0.425,2.079c0.457,0.691 1.388,0.881 2.079,0.425l5.6,-3.7c0.691,-0.457 0.881,-1.388 0.425,-2.079c-0.457,-0.691 -1.388,-0.881 -2.079,-0.425Z"/></g></svg>