<?xml version="1.0" encoding="UTF-8" standalone="no"?><!DOCTYPE svg PUBLIC "-//W3C//DTD SVG 1.1//EN" "http://www.w3.org/Graphics/SVG/1.1/DTD/svg11.dtd"><svg width="100%" height="100%" viewBox="0 0 85 94" version="1.1" xmlns="http://www.w3.org/2000/svg" xmlns:xlink="http://www.w3.org/1999/xlink" xml:space="preserve" xmlns:serif="http://www.serif.com/" style="fill-rule:evenodd;clip-rule:evenodd;stroke-linejoin:round;stroke-miterlimit:2;"><g><path d="M68.65,69.25l2.95,2.95l2.95,-2.95l-2.95,-3l-2.95,3Z" style="fill:#f00;"/><path d="M72.35,49.7c-0.9,-0.367 -2.3,-1.117 -4.2,-2.25c-1.367,-0.8 -2.417,-1.2 -3.15,-1.2c-1.367,0 -2.483,0.7 -3.35,2.1c-0.533,0.833 -1.05,2.15 -1.55,3.95c0.567,-0.3 1.117,-0.583 1.65,-0.85c0.7,-0.367 1.283,-0.55 1.75,-0.55c0.7,0 1.717,0.35 3.05,1.05c0.033,0.033 0.983,0.6 2.85,1.7c-1.333,1.1 -2.467,1.833 -3.4,2.2c-0.833,0.333 -1.867,0.5 -3.1,0.5c-0.333,-0 -1,-0.017 -2,-0.05c-0.223,-0.007 -0.44,-0.024 -0.65,-0.05l0,4.85c-0.404,0.109 -0.837,0.192 -1.3,0.25l2.95,-0c1.4,-0 2.733,-0.367 4,-1.1c0.467,-0.267 1.467,-1.017 3,-2.25c1.133,-0.933 2.133,-1.517 3,-1.75c0.733,-0.2 1.65,-0.333 2.75,-0.4c0.933,-0.033 1.867,-0.05 2.8,-0.05c0.567,-1.5 1.017,-3.133 1.35,-4.9c-2.3,-0 -4.45,-0.4 -6.45,-1.2Z" style="fill:#f00;"/><path d="M58.3,56.25l-0,0.1c0.573,-0.041 1.04,-0.074 1.4,-0.1l-1.4,0Z" style="fill:#f00;"/><path d="M50.25,46.6c-0.867,1.933 -1.733,3.883 -2.6,5.85c-1.033,2.167 -2.05,3.35 -3.05,3.55c-0.712,0.132 -1.962,0.215 -3.75,0.25l-1,0c-1.67,-0.048 -2.703,-0.165 -3.1,-0.35c-0.933,-0.467 -1.4,-1.817 -1.4,-4.05c-0.733,0.6 -1.25,1.367 -1.55,2.3c-0.2,0.8 -0.567,1.317 -1.1,1.55c-0.758,0.309 -2.174,0.475 -4.25,0.5c-1.921,-0.022 -3.271,-0.172 -4.05,-0.45c-0.667,-0.233 -1.25,-0.75 -1.75,-1.55c-0.667,-1.033 -1.417,-1.883 -2.25,-2.55c-0.433,0.433 -0.717,0.867 -0.85,1.3c0.1,0.233 0.1,0.4 -0,0.5c-2.1,0.533 -3.883,1.467 -5.35,2.8c-1.767,1.567 -2.65,3.383 -2.65,5.45c-0,0.2 0.017,0.417 0.05,0.65l1.75,19.7c0.3,-0.4 0.6,-0.95 0.9,-1.65c0.333,-0.8 0.483,-1.417 0.45,-1.85l-1.35,-17.45c0.733,-1.5 1.85,-2.25 3.35,-2.25l0.6,0.25c-0,1.133 0.283,2.3 0.85,3.5c0.633,1.4 1.45,2.1 2.45,2.1c1.633,0 2.45,-1.65 2.45,-4.95c1.5,1.067 2.6,1.6 3.3,1.6l3.85,0c0.967,0 1.767,-0.367 2.4,-1.1c0.167,-0.233 0.633,-1.033 1.4,-2.4c0.967,1.5 1.483,2.283 1.55,2.35c0.667,0.767 1.433,1.15 2.3,1.15l7.2,0c-0,1.9 0.45,3.867 1.35,5.9c1.1,2.533 2.483,3.8 4.15,3.8c1.233,0 2.217,-0.85 2.95,-2.55c0.533,-1.333 0.8,-2.75 0.8,-4.25c-0,-0.4 -0.033,-0.917 -0.1,-1.55c-0.067,-0.8 -0.117,-1.333 -0.15,-1.6c1.233,0.233 2.35,0.35 3.35,0.35c0.552,0 1.069,-0.033 1.55,-0.1c0.463,-0.058 0.896,-0.141 1.3,-0.25l0,-4.85l-0.55,0c-0.36,0.026 -0.827,0.059 -1.4,0.1c-0.289,0.01 -0.606,0.027 -0.95,0.05c-1.5,0.1 -2.633,0.15 -3.4,0.15c-1.233,0 -2.15,-0.1 -2.75,-0.3c1,-1.033 1.85,-2.183 2.55,-3.45c0.8,-1.5 1.2,-2.867 1.2,-4.1c0,-2.533 -0.583,-4.267 -1.75,-5.2c-0.933,0 -1.917,1.033 -2.95,3.1Zm-3,14.95c3.8,0.933 5.7,2.283 5.7,4.05c0,0.167 -0.15,0.367 -0.45,0.6c-0.333,0.2 -0.583,0.3 -0.75,0.3c-1.167,0 -2.167,-0.55 -3,-1.65c-0.767,-0.933 -1.267,-2.033 -1.5,-3.3Zm0.85,-6.5c0.9,-1.933 1.4,-3.017 1.5,-3.25c0.567,-1.1 1.25,-2.05 2.05,-2.85c0.733,0.733 1.1,1.4 1.1,2c0,1.3 -0.483,2.283 -1.45,2.95c-0.667,0.467 -1.733,0.85 -3.2,1.15Z"/><path d="M30.95,43.55l2.9,2.9l2.95,-2.9l-2.9,-3.05l-2.95,3.05Z"/><path d="M35.95,32c0,-0.433 -0.067,-0.9 -0.2,-1.4l-0.35,0.1c-0,1.467 -0.333,2.2 -1,2.2c-0.3,0 -0.567,-0.483 -0.8,-1.45l-0.25,0.1c-0.133,0.733 -0.25,1.217 -0.35,1.45c-0.233,0.6 -0.55,0.9 -0.95,0.9c-0.367,0 -0.55,-0.533 -0.55,-1.6l-0.35,0.05c-0.2,0.767 -0.3,1.25 -0.3,1.45c0,0.433 0.083,0.8 0.25,1.1c0.2,0.367 0.5,0.55 0.9,0.55c0.333,-0 0.667,-0.133 1,-0.4c0.3,-0.233 0.467,-0.533 0.5,-0.9c0.267,0.2 0.567,0.3 0.9,0.3c1.033,-0 1.55,-0.817 1.55,-2.45Z"/><path d="M18.35,27.5c-0.7,0 -1.317,0.367 -1.85,1.1c-0.467,0.633 -0.7,1.267 -0.7,1.9c-0,0.5 0.45,1.033 1.35,1.6c-1.633,1.233 -3.183,2.183 -4.65,2.85c0.5,0.133 0.917,0.2 1.25,0.2c1.2,0 2.65,-0.867 4.35,-2.6c0.667,0.4 1.25,0.717 1.75,0.95l0.15,-1.8c-0.367,-0.233 -0.65,-0.4 -0.85,-0.5c0.467,-0.9 0.7,-1.617 0.7,-2.15c0,-1.033 -0.5,-1.55 -1.5,-1.55Zm-1.05,1.55c0.767,0.1 1.15,0.45 1.15,1.05c0,0.167 -0.033,0.35 -0.1,0.55c-0.967,-0.433 -1.45,-0.867 -1.45,-1.3c0.067,-0.167 0.2,-0.267 0.4,-0.3Z"/><path d="M67.523,20.748l-5.6,3.7c-0.691,0.457 -0.881,1.388 -0.425,2.079c0.457,0.691 1.388,0.881 2.079,0.425l5.6,-3.7c0.691,-0.457 0.881,-1.388 0.425,-2.079c-0.457,-0.691 -1.388,-0.881 -2.079,-0.425Z"/><path d="M51.123,20.748l-5.6,3.7c-0.691,0.457 -0.881,1.388 -0.425,2.079c0.457,0.691 1.388,0.881 2.079,0.425l5.6,-3.7c0.691,-0.457 0.881,-1.388 0.425,-2.079c-0.457,-0.691 -1.388,-0.881 -2.079,-0.425Z"/><path d="M35.473,20.748l-5.6,3.7c-0.691,0.457 -0.881,1.388 -0.425,2.079c0.457,0.691 1.388,0.881 2.079,0.425l5.6,-3.7c0.691,-0.457 0.881,-1.388 0.425,-2.079c-0.457,-0.691 -1.388,-0.881 -2.079,-0.425Z"/></g></svg>