<?xml version="1.0" encoding="UTF-8" standalone="no"?><!DOCTYPE svg PUBLIC "-//W3C//DTD SVG 1.1//EN" "http://www.w3.org/Graphics/SVG/1.1/DTD/svg11.dtd"><svg width="100%" height="100%" viewBox="0 0 51 105" version="1.1" xmlns="http://www.w3.org/2000/svg" xmlns:xlink="http://www.w3.org/1999/xlink" xml:space="preserve" xmlns:serif="http://www.serif.com/" style="fill-rule:evenodd;clip-rule:evenodd;stroke-linejoin:round;stroke-miterlimit:2;"><g><path d="M40.9,79.15l2.95,-2.95l-2.95,-3l-2.95,3l2.95,2.95Z" style="fill:#f00;"/><path d="M31.05,58.4c0.7,-0.367 1.283,-0.55 1.75,-0.55c0.7,0 1.717,0.35 3.05,1.05c0.033,0.033 0.983,0.6 2.85,1.7c-1.333,1.1 -2.467,1.833 -3.4,2.2c-0.833,0.333 -1.867,0.5 -3.1,0.5c-0.333,0 -1,-0.017 -2,-0.05c-0.102,-0.003 -0.202,-0.003 -0.3,-0c-0.874,-0.033 -1.641,-0.05 -2.3,-0.05l0,5.1l3.6,0c1.4,0 2.733,-0.367 4,-1.1c0.467,-0.267 1.467,-1.017 3,-2.25c1.133,-0.933 2.133,-1.517 3,-1.75c0.733,-0.2 1.65,-0.333 2.75,-0.4c0.933,-0.033 1.867,-0.05 2.8,-0.05c0.567,-1.5 1.017,-3.133 1.35,-4.9c-2.3,0 -4.45,-0.4 -6.45,-1.2c-0.9,-0.367 -2.3,-1.117 -4.2,-2.25c-1.367,-0.8 -2.417,-1.2 -3.15,-1.2c-1.367,-0 -2.483,0.7 -3.35,2.1c-0.533,0.833 -1.05,2.15 -1.55,3.95c0.567,-0.3 1.117,-0.583 1.65,-0.85Z" style="fill:#f00;"/><path d="M29.9,63.25l-0,-0.05c-2.833,-0 -4.75,-0.683 -5.75,-2.05c-0.933,-1.233 -1.683,-4.967 -2.25,-11.2c-0.233,-4.1 -0.5,-8.2 -0.8,-12.3c-0.3,0.267 -0.817,0.95 -1.55,2.05c-0.733,1.167 -1.1,1.9 -1.1,2.2l2,28.75c0.067,1 -0.95,1.867 -3.05,2.6c-1.7,0.6 -3.15,0.9 -4.35,0.9c-1.8,-0 -3.267,-0.35 -4.4,-1.05c-1.367,-0.833 -2.05,-2.1 -2.05,-3.8c0,-2.133 0.2,-4.133 0.6,-6c-0.767,0.567 -1.45,1.867 -2.05,3.9c-0.533,1.767 -0.8,3.25 -0.8,4.45c0,2.8 0.433,4.85 1.3,6.15c1.033,1.6 2.85,2.4 5.45,2.4c3.9,-0 6.767,-1.433 8.6,-4.3c1.167,-1.8 2.217,-5.017 3.15,-9.65c0.5,0.467 1,0.917 1.5,1.35c0.6,0.467 1.2,0.7 1.8,0.7l1.45,-0l0,-5.1c0.659,-0 1.426,0.017 2.3,0.05Z"/><path d="M19.1,29.75l-0.25,0.1c-0.133,0.733 -0.25,1.217 -0.35,1.45c-0.233,0.6 -0.55,0.9 -0.95,0.9c-0.367,-0 -0.55,-0.533 -0.55,-1.6l-0.35,0.05c-0.2,0.767 -0.3,1.25 -0.3,1.45c0,0.433 0.083,0.8 0.25,1.1c0.2,0.367 0.5,0.55 0.9,0.55c0.333,0 0.667,-0.133 1,-0.4c0.3,-0.233 0.467,-0.533 0.5,-0.9c0.267,0.2 0.567,0.3 0.9,0.3c1.033,0 1.55,-0.817 1.55,-2.45c0,-0.433 -0.067,-0.9 -0.2,-1.4l-0.35,0.1c-0,1.467 -0.333,2.2 -1,2.2c-0.3,-0 -0.567,-0.483 -0.8,-1.45Z"/><path d="M37.423,28.298l-5.6,3.7c-0.691,0.457 -0.881,1.388 -0.425,2.079c0.457,0.691 1.388,0.881 2.079,0.425l5.6,-3.7c0.691,-0.457 0.881,-1.388 0.425,-2.079c-0.457,-0.691 -1.388,-0.881 -2.079,-0.425Z"/><path d="M20.431,21.343l-5.6,3.65c-0.694,0.452 -0.89,1.383 -0.438,2.076c0.452,0.694 1.383,0.89 2.076,0.438l5.6,-3.65c0.694,-0.452 0.89,-1.383 0.438,-2.076c-0.452,-0.694 -1.383,-0.89 -2.076,-0.438Z"/></g></svg>