<?xml version="1.0" encoding="UTF-8" standalone="no"?><!DOCTYPE svg PUBLIC "-//W3C//DTD SVG 1.1//EN" "http://www.w3.org/Graphics/SVG/1.1/DTD/svg11.dtd"><svg width="100%" height="100%" viewBox="0 0 89 105" version="1.1" xmlns="http://www.w3.org/2000/svg" xmlns:xlink="http://www.w3.org/1999/xlink" xml:space="preserve" xmlns:serif="http://www.serif.com/" style="fill-rule:evenodd;clip-rule:evenodd;stroke-linejoin:round;stroke-miterlimit:2;"><g><path d="M77.2,79.15l2.95,-2.95l-2.95,-3l-2.95,3l2.95,2.95Z" style="fill:#f00;"/><path d="M84.4,57.85c-2.3,0 -4.45,-0.4 -6.45,-1.2c-0.9,-0.367 -2.3,-1.117 -4.2,-2.25c-1.367,-0.8 -2.417,-1.2 -3.15,-1.2c-1.367,-0 -2.483,0.7 -3.35,2.1c-0.533,0.833 -1.05,2.15 -1.55,3.95c0.567,-0.3 1.117,-0.583 1.65,-0.85c0.7,-0.367 1.283,-0.55 1.75,-0.55c0.7,0 1.717,0.35 3.05,1.05c0.033,0.033 0.983,0.6 2.85,1.7c-1.333,1.1 -2.467,1.833 -3.4,2.2c-0.833,0.333 -1.867,0.5 -3.1,0.5c-0.333,0 -1,-0.017 -2,-0.05c-0.313,-0.01 -0.613,-0.027 -0.9,-0.05l-1.7,-0l-0,5.1l3.6,0c1.4,0 2.733,-0.367 4,-1.1c0.467,-0.267 1.467,-1.017 3,-2.25c1.133,-0.933 2.133,-1.517 3,-1.75c0.733,-0.2 1.65,-0.333 2.75,-0.4c0.933,-0.033 1.867,-0.05 2.8,-0.05c0.567,-1.5 1.017,-3.133 1.35,-4.9Z" style="fill:#f00;"/><path d="M40.8,47.8c0.767,0 1.633,-0.15 2.6,-0.45c5.167,3.9 8.167,8.167 9,12.8c-0.533,1.367 -2.25,3.283 -5.15,5.75c-2.667,2.267 -4.833,3.8 -6.5,4.6c5.467,0 9.383,-1.6 11.75,-4.8c1.767,-2.4 3.1,-6.567 4,-12.5c-0.033,0.7 -0.05,1.433 -0.05,2.2c0,3.333 0.3,6.083 0.9,8.25c0.867,3.1 2.317,4.65 4.35,4.65l2.2,0l-0,-5.1l1.7,-0c-1.8,-0 -2.983,-0.1 -3.55,-0.3c-2.567,-0.867 -3.85,-6.833 -3.85,-17.9c0,-1.533 0.033,-3.167 0.1,-4.9l0.05,-2.5c-1.7,1.867 -2.783,3.15 -3.25,3.85c0,4.833 -0.05,7.833 -0.15,9c-0.2,2.333 -0.75,5.05 -1.65,8.15c-0.667,-2.8 -1.183,-4.6 -1.55,-5.4c-1,-2.233 -2.9,-4.867 -5.7,-7.9c-3.2,-3.467 -5.733,-5.2 -7.6,-5.2c-0.533,0 -0.983,0.35 -1.35,1.05c-0.367,0.6 -0.55,1.183 -0.55,1.75c-0,3.267 1.417,4.9 4.25,4.9Z"/><path d="M35.2,44.9c0.467,-0.967 0.7,-1.783 0.7,-2.45c-0,-0.233 -0.383,-0.733 -1.15,-1.5c-0.767,-0.767 -1.15,-1.45 -1.15,-2.05c0,-0.167 0.067,-0.45 0.2,-0.85c0.133,-0.4 0.183,-0.717 0.15,-0.95l0,-0.6c-1.5,1.033 -2.7,2.8 -3.6,5.3c0.167,0.667 0.7,1.533 1.6,2.6c0.567,3.7 0.85,9.283 0.85,16.75c-0,1.467 -1.317,2.167 -3.95,2.1l-0.55,0l-0,-0.05c-2.667,-0 -4.183,-0.083 -4.55,-0.25c-1.067,-0.467 -1.95,-2.55 -2.65,-6.25c-0.567,-2.9 -0.85,-5.35 -0.85,-7.35c-1.1,1.433 -1.65,2.35 -1.65,2.75l0.3,3.4c-2.467,1.333 -4.25,2.55 -5.35,3.65c-1.567,1.633 -2.35,3.583 -2.35,5.85c0,0.833 0.917,1.25 2.75,1.25c1.7,0 2.917,-0.15 3.65,-0.45c0.933,-0.433 1.883,-1.333 2.85,-2.7c0.4,1.1 0.817,2.2 1.25,3.3c0.633,1.267 1.467,1.9 2.5,1.9l5.75,0c1.9,0 3.283,-1.05 4.15,-3.15c0.6,-1.5 0.9,-3.383 0.9,-5.65l-0,-4.75c-0,-0.867 -0.067,-2.15 -0.2,-3.85c-0.2,-1.733 -0.3,-3.033 -0.3,-3.9c-0,-0.433 0.233,-1.133 0.7,-2.1Zm-16.95,15.85c-0.767,0.2 -1.367,0.3 -1.8,0.3c-0.5,0 -1.15,-0.133 -1.95,-0.4c1.667,-1.167 3.2,-2.067 4.6,-2.7c0.3,1.133 0.45,1.8 0.45,2c-0,0.3 -0.433,0.567 -1.3,0.8Z"/><path d="M12.45,45.05c0.5,0.133 0.917,0.2 1.25,0.2c1.2,-0 2.65,-0.867 4.35,-2.6c0.667,0.4 1.25,0.717 1.75,0.95l0.15,-1.8c-0.367,-0.233 -0.65,-0.4 -0.85,-0.5c0.467,-0.9 0.7,-1.617 0.7,-2.15c-0,-1.033 -0.5,-1.55 -1.5,-1.55c-0.7,0 -1.317,0.367 -1.85,1.1c-0.467,0.633 -0.7,1.267 -0.7,1.9c0,0.5 0.45,1.033 1.35,1.6c-1.633,1.233 -3.183,2.183 -4.65,2.85Zm4.4,-5.6c0.067,-0.167 0.2,-0.267 0.4,-0.3c0.767,0.1 1.15,0.45 1.15,1.05c-0,0.167 -0.033,0.35 -0.1,0.55c-0.967,-0.433 -1.45,-0.867 -1.45,-1.3Z"/><path d="M31.55,25.75c-0.7,0 -1.317,0.367 -1.85,1.1c-0.467,0.633 -0.7,1.267 -0.7,1.9c0,0.5 0.45,1.033 1.35,1.6c-1.633,1.233 -3.183,2.183 -4.65,2.85c0.5,0.133 0.917,0.2 1.25,0.2c1.2,-0 2.65,-0.867 4.35,-2.6c0.667,0.4 1.25,0.717 1.75,0.95l0.15,-1.8c-0.367,-0.233 -0.65,-0.4 -0.85,-0.5c0.467,-0.9 0.7,-1.617 0.7,-2.15c-0,-1.033 -0.5,-1.55 -1.5,-1.55Zm0.1,2.6c-0,0.167 -0.033,0.35 -0.1,0.55c-0.967,-0.433 -1.45,-0.867 -1.45,-1.3c0.067,-0.167 0.2,-0.267 0.4,-0.3c0.767,0.1 1.15,0.45 1.15,1.05Z"/><path d="M49.928,21.995l-5.65,3.7c-0.692,0.454 -0.886,1.384 -0.433,2.077c0.454,0.692 1.384,0.886 2.077,0.433l5.65,-3.7c0.692,-0.454 0.886,-1.384 0.433,-2.077c-0.454,-0.692 -1.384,-0.886 -2.077,-0.433Z"/><path d="M73.523,21.998l-5.6,3.7c-0.691,0.457 -0.881,1.388 -0.425,2.079c0.457,0.691 1.388,0.881 2.079,0.425l5.6,-3.7c0.691,-0.457 0.881,-1.388 0.425,-2.079c-0.457,-0.691 -1.388,-0.881 -2.079,-0.425Z"/></g></svg>