<?xml version="1.0" encoding="UTF-8" standalone="no"?><!DOCTYPE svg PUBLIC "-//W3C//DTD SVG 1.1//EN" "http://www.w3.org/Graphics/SVG/1.1/DTD/svg11.dtd"><svg width="100%" height="100%" viewBox="0 0 98 94" version="1.1" xmlns="http://www.w3.org/2000/svg" xmlns:xlink="http://www.w3.org/1999/xlink" xml:space="preserve" xmlns:serif="http://www.serif.com/" style="fill-rule:evenodd;clip-rule:evenodd;stroke-linejoin:round;stroke-miterlimit:2;"><g><path d="M83.2,72.2l2.95,-2.95l-2.95,-3l-2.95,3l2.95,2.95Z" style="fill:#f00;"/><path d="M69.9,61.2l-0,0.15l3.6,-0c1.4,-0 2.733,-0.367 4,-1.1c0.467,-0.267 1.467,-1.017 3,-2.25c1.133,-0.933 2.133,-1.517 3,-1.75c0.733,-0.2 1.65,-0.333 2.75,-0.4c0.933,-0.033 1.867,-0.05 2.8,-0.05c0.567,-1.5 1.017,-3.133 1.35,-4.9c-2.3,0 -4.45,-0.4 -6.45,-1.2c-0.9,-0.367 -2.3,-1.117 -4.2,-2.25c-1.367,-0.8 -2.417,-1.2 -3.15,-1.2c-1.367,0 -2.483,0.7 -3.35,2.1c-0.533,0.833 -1.05,2.15 -1.55,3.95c0.567,-0.3 1.117,-0.583 1.65,-0.85c0.7,-0.367 1.283,-0.55 1.75,-0.55c0.7,0 1.717,0.35 3.05,1.05c0.033,0.033 0.983,0.6 2.85,1.7c-1.333,1.1 -2.467,1.833 -3.4,2.2c-0.833,0.333 -1.867,0.5 -3.1,0.5c-0.333,-0 -1,-0.017 -2,-0.05c-0.35,-0.012 -0.683,-0.028 -1,-0.05l0,4.95l-1.6,-0Z" style="fill:#f00;"/><path d="M42.1,71.4l2.55,-2.6l-2.55,-2.65l-2.6,2.6l2.6,2.65Z"/><path d="M47.2,71.4l2.65,-2.6l-2.65,-2.6l-2.55,2.6l2.55,2.6Z"/><path d="M16.6,48.55c-2.467,1.333 -4.25,2.55 -5.35,3.65c-1.567,1.633 -2.35,3.583 -2.35,5.85c-0,0.833 0.917,1.25 2.75,1.25c1.7,0 2.917,-0.15 3.65,-0.45c0.933,-0.433 1.883,-1.333 2.85,-2.7c0.4,1.1 0.817,2.2 1.25,3.3c0.633,1.267 1.467,1.9 2.5,1.9l4.65,0c0.867,0 1.667,-0.583 2.4,-1.75c1.167,-1.8 1.767,-2.717 1.8,-2.75c0.5,0.967 0.983,1.933 1.45,2.9c0.7,1.067 1.533,1.6 2.5,1.6l5.3,0c1,0 1.8,-0.367 2.4,-1.1c0.067,-0.1 0.533,-0.9 1.4,-2.4c0.433,0.767 1.05,1.517 1.85,2.25c0.933,0.833 1.75,1.25 2.45,1.25l5.3,0l-0,-0.15l1.8,-0c0.433,-0 0.85,-0.233 1.25,-0.7c0.333,-0.433 0.65,-0.867 0.95,-1.3c2.067,2.1 4.05,3.15 5.95,3.15c0.767,0 1.283,-0.25 1.55,-0.75c0.4,-0.733 0.683,-1.167 0.85,-1.3c1.033,0.6 1.767,0.9 2.2,0.9l3.55,-0l0,-5.1c-2.4,0 -4.2,-0.5 -5.4,-1.5c-0.433,-0.333 -1.133,-1.25 -2.1,-2.75c-0.633,-0.967 -1.45,-1.45 -2.45,-1.45c-0.8,0 -1.867,0.833 -3.2,2.5c-1.433,1.8 -2.533,2.8 -3.3,3c-0.6,0.133 -1.95,0.2 -4.05,0.2l0,0.25c-1,0.033 -1.683,0.05 -2.05,0.05c-1.3,0 -2.217,-0.267 -2.75,-0.8c-0.667,-0.633 -1.033,-1.817 -1.1,-3.55c-1.167,1.967 -1.967,3.15 -2.4,3.55c-0.533,0.5 -1.4,0.75 -2.6,0.75c-0.267,0 -0.9,-0.017 -1.9,-0.05c-0.293,-0.01 -0.577,-0.026 -0.85,-0.05c-2.033,0 -3.483,-0.6 -4.35,-1.8c-0.767,-1.033 -1.15,-2.633 -1.15,-4.8c0,-2.467 -0.167,-5.767 -0.5,-9.9c-0.333,-5.033 -0.533,-8.367 -0.6,-10c-1.8,1.433 -2.7,2.967 -2.7,4.6c-0,2 0.2,5.033 0.6,9.1c0.367,4.033 0.55,7.05 0.55,9.05c0,1.667 -0.517,2.75 -1.55,3.25c-0.577,0.289 -1.594,0.455 -3.05,0.5c-1.803,-0.032 -2.853,-0.115 -3.15,-0.25c-1.067,-0.467 -1.95,-2.55 -2.65,-6.25c-0.567,-2.9 -0.85,-5.35 -0.85,-7.35c-1.1,1.433 -1.65,2.35 -1.65,2.75l0.3,3.4Zm44.75,4.1c0.5,0.633 0.9,1.4 1.2,2.3c0.4,1.233 0.6,1.9 0.6,2l-0,0.9c-0.7,-0.3 -1.433,-0.7 -2.2,-1.2c-1.067,-0.667 -1.6,-1.2 -1.6,-1.6c0,-0.3 0.667,-1.1 2,-2.4Zm-44.55,-1.65c0.3,1.133 0.45,1.8 0.45,2c0,0.3 -0.433,0.567 -1.3,0.8c-0.767,0.2 -1.367,0.3 -1.8,0.3c-0.5,-0 -1.15,-0.133 -1.95,-0.4c1.667,-1.167 3.2,-2.067 4.6,-2.7Z"/><path d="M16.05,37l2.55,2.65l2.6,-2.65l-2.6,-2.6l-2.55,2.6Z"/><path d="M13.5,39.6l2.55,-2.6l-2.55,-2.6l-2.6,2.6l2.6,2.6Z"/><path d="M19.45,22.7c0,-0.433 -0.15,-0.833 -0.45,-1.2c-0.333,-0.4 -0.7,-0.6 -1.1,-0.6c-0.733,0 -1.4,0.383 -2,1.15c-0.6,0.7 -0.9,1.4 -0.9,2.1c0,0.8 0.533,1.5 1.6,2.1c-1.033,1 -2,1.65 -2.9,1.95c0.1,-0.967 0.15,-1.55 0.15,-1.75c0,-1.633 -0.533,-2.45 -1.6,-2.45c-0.633,0 -1.133,0.267 -1.5,0.8c-0.333,0.467 -0.5,1 -0.5,1.6c0,0.333 0.083,0.717 0.25,1.15c0.167,-1.133 0.567,-1.7 1.2,-1.7c0.3,-0 0.567,0.133 0.8,0.4c0.2,0.267 0.3,0.55 0.3,0.85c-0,0.467 -0.333,1.417 -1,2.85c1.267,-0.233 2.317,-0.6 3.15,-1.1c0.7,-0.433 1.533,-1.133 2.5,-2.1c0.467,0.333 1.167,0.767 2.1,1.3c0.033,-0.867 0.05,-1.333 0.05,-1.4c0,-0.533 -0.3,-1.017 -0.9,-1.45c0.5,-1.133 0.75,-1.967 0.75,-2.5Zm-3.2,0.2l0.2,-0.4c0.2,-0.067 0.333,-0.1 0.4,-0.1c0.667,0 1,0.383 1,1.15l-0.1,0.9c-1,-0.667 -1.5,-1.183 -1.5,-1.55Z"/><path d="M62.673,68.348l-5.6,3.7c-0.691,0.457 -0.881,1.388 -0.425,2.079c0.457,0.691 1.388,0.881 2.079,0.425l5.6,-3.7c0.691,-0.457 0.881,-1.388 0.425,-2.079c-0.457,-0.691 -1.388,-0.881 -2.079,-0.425Z"/><path d="M31.023,20.748l-5.6,3.7c-0.691,0.457 -0.881,1.388 -0.425,2.079c0.457,0.691 1.388,0.881 2.079,0.425l5.6,-3.7c0.691,-0.457 0.881,-1.388 0.425,-2.079c-0.457,-0.691 -1.388,-0.881 -2.079,-0.425Z"/><path d="M77.473,20.748l-5.6,3.7c-0.691,0.457 -0.881,1.388 -0.425,2.079c0.457,0.691 1.388,0.881 2.079,0.425l5.6,-3.7c0.691,-0.457 0.881,-1.388 0.425,-2.079c-0.457,-0.691 -1.388,-0.881 -2.079,-0.425Z"/></g></svg>