<?xml version="1.0" encoding="UTF-8" standalone="no"?><!DOCTYPE svg PUBLIC "-//W3C//DTD SVG 1.1//EN" "http://www.w3.org/Graphics/SVG/1.1/DTD/svg11.dtd"><svg width="100%" height="100%" viewBox="0 0 87 99" version="1.1" xmlns="http://www.w3.org/2000/svg" xmlns:xlink="http://www.w3.org/1999/xlink" xml:space="preserve" xmlns:serif="http://www.serif.com/" style="fill-rule:evenodd;clip-rule:evenodd;stroke-linejoin:round;stroke-miterlimit:2;"><g><path d="M72.2,71.6l-2.95,3l2.95,2.95l2.95,-2.95l-2.95,-3Z" style="fill:#f00;"/><path d="M78.05,61.15c0.567,-1.5 1.017,-3.133 1.35,-4.9c-2.3,0 -4.45,-0.4 -6.45,-1.2c-0.9,-0.367 -2.3,-1.117 -4.2,-2.25c-1.367,-0.8 -2.417,-1.2 -3.15,-1.2c-1.367,0 -2.483,0.7 -3.35,2.1c-0.533,0.833 -1.05,2.15 -1.55,3.95c0.567,-0.3 1.117,-0.583 1.65,-0.85c0.7,-0.367 1.283,-0.55 1.75,-0.55c0.7,0 1.717,0.35 3.05,1.05c0.033,0.033 0.983,0.6 2.85,1.7c-1.333,1.1 -2.467,1.833 -3.4,2.2c-0.833,0.333 -1.867,0.5 -3.1,0.5c-0.333,0 -1,-0.017 -2,-0.05c-0.405,-0.014 -0.789,-0.03 -1.15,-0.05l0,5.1l2.15,0c1.4,0 2.733,-0.367 4,-1.1c0.467,-0.267 1.467,-1.017 3,-2.25c1.133,-0.933 2.133,-1.517 3,-1.75c0.733,-0.2 1.65,-0.333 2.75,-0.4c0.933,-0.033 1.867,-0.05 2.8,-0.05Z" style="fill:#f00;"/><path d="M44.3,74c-0.767,-0.167 -1.533,-0.35 -2.3,-0.55c0.967,1.133 2.1,2.067 3.4,2.8c1.433,0.833 2.8,1.25 4.1,1.25c1.767,0 3.567,-1.333 5.4,-4c1.6,-2.333 2.517,-4.5 2.75,-6.5c0.3,-0.2 0.65,-0.3 1.05,-0.3l1.65,0l0,-5.1c-1.8,0 -2.817,-0.033 -3.05,-0.1c-0.767,-0.133 -1.6,-0.65 -2.5,-1.55c-0.167,1.3 -0.45,2.417 -0.85,3.35c0,0.033 0.4,0.683 1.2,1.95c0.667,1.067 1,1.65 1,1.75c-0,1.2 -1.317,2.75 -3.95,4.65c-2.5,1.8 -4.383,2.7 -5.65,2.7c-0.567,0 -1.317,-0.117 -2.25,-0.35Z"/><path d="M41.9,35.4c-1.767,2.367 -2.65,3.783 -2.65,4.25l0.7,27.1c1.467,-1.233 2.2,-4.517 2.2,-9.85l-0.25,-21.5Z"/><path d="M14.9,64.2c0.867,-1.433 1.3,-3.117 1.3,-5.05c0,-1.467 -0.317,-2.7 -0.95,-3.7c-0.433,-0.633 -1.2,-1.433 -2.3,-2.4c-1.233,-1.033 -2.117,-1.883 -2.65,-2.55c-0.767,1.833 -1.15,3.233 -1.15,4.2c-0,0.133 0.033,0.333 0.1,0.6c0.067,0.267 0.117,0.45 0.15,0.55c-1.333,2.733 -2,4.967 -2,6.7c-0,2.767 1.1,4.15 3.3,4.15c1.8,0 3.2,-0.833 4.2,-2.5Zm-5.55,-4.25c0,-1.2 0.45,-2.25 1.35,-3.15c2.5,1.867 3.75,3.017 3.75,3.45c0,0.4 -0.45,0.833 -1.35,1.3c-0.867,0.433 -1.517,0.65 -1.95,0.65c-1.2,0 -1.8,-0.75 -1.8,-2.25Z"/><path d="M32.15,57.05c-0.667,-1.833 -1.583,-2.75 -2.75,-2.75c-1,-0 -1.933,0.9 -2.8,2.7c-0.8,1.6 -1.2,2.983 -1.2,4.15c-0,2.033 0.783,3.05 2.35,3.05c1.2,0 2.333,-0.667 3.4,-2c0.267,0.6 0.4,1.167 0.4,1.7c-0,2.967 -2.067,5.317 -6.2,7.05c-3.2,1.367 -6.483,2.05 -9.85,2.05c1.633,0.667 2.767,1.1 3.4,1.3c1.133,0.333 2.317,0.5 3.55,0.5c3.367,-0 6,-1.433 7.9,-4.3c1.667,-2.5 2.5,-5.567 2.5,-9.2c0,-1.467 -0.233,-2.883 -0.7,-4.25Zm-3.65,4c-0.033,-0 -0.483,-0.217 -1.35,-0.65c0.367,-0.933 0.75,-1.767 1.15,-2.5c1.133,0.533 1.7,1.217 1.7,2.05c0,0.3 -0.167,0.55 -0.5,0.75c-0.333,0.233 -0.667,0.35 -1,0.35Z"/><path d="M54.25,48l-2.95,3l2.9,2.95l2.95,-2.95l-2.9,-3Z"/><path d="M31.7,44.65l-1.25,-0c-0.567,0.033 -0.983,0.05 -1.25,0.05c-1.467,0 -2.617,-0.317 -3.45,-0.95c0.433,-1.2 1.05,-1.8 1.85,-1.8c0.167,0 0.45,0.067 0.85,0.2c0.367,0.133 0.65,0.2 0.85,0.2c0.4,0 0.6,-0.4 0.6,-1.2c-0,-0.333 -0.133,-0.617 -0.4,-0.85c-0.233,-0.267 -0.517,-0.4 -0.85,-0.4c-0.6,-0 -1.533,0.533 -2.8,1.6c-1.267,1.033 -1.9,1.85 -1.9,2.45c0,0.2 0.15,0.567 0.45,1.1c0.3,0.5 0.45,0.883 0.45,1.15c0,0.133 -0.05,0.367 -0.15,0.7c-0.1,0.333 -0.15,0.583 -0.15,0.75c-0,0.133 0.017,0.333 0.05,0.6c1.733,-1.4 3.25,-2.1 4.55,-2.1c1.067,-0 1.617,-0.033 1.65,-0.1c0.3,-0.467 0.6,-0.933 0.9,-1.4Z"/><path d="M13.25,34.2c-0.7,0 -1.317,0.367 -1.85,1.1c-0.467,0.633 -0.7,1.267 -0.7,1.9c0,0.5 0.45,1.033 1.35,1.6c-1.633,1.233 -3.183,2.183 -4.65,2.85c0.5,0.133 0.917,0.2 1.25,0.2c1.2,0 2.65,-0.867 4.35,-2.6c0.667,0.4 1.25,0.717 1.75,0.95l0.15,-1.8c-0.367,-0.233 -0.65,-0.4 -0.85,-0.5c0.467,-0.9 0.7,-1.617 0.7,-2.15c0,-1.033 -0.5,-1.55 -1.5,-1.55Zm0,3.15c-0.967,-0.433 -1.45,-0.867 -1.45,-1.3c0.067,-0.167 0.2,-0.267 0.4,-0.3c0.767,0.1 1.15,0.45 1.15,1.05c0,0.167 -0.033,0.35 -0.1,0.55Z"/><path d="M21.85,37.55c0.5,0.133 0.917,0.2 1.25,0.2c1.2,-0 2.65,-0.867 4.35,-2.6c0.667,0.4 1.25,0.717 1.75,0.95l0.15,-1.8c-0.367,-0.233 -0.65,-0.4 -0.85,-0.5c0.467,-0.9 0.7,-1.617 0.7,-2.15c0,-1.033 -0.5,-1.55 -1.5,-1.55c-0.7,0 -1.317,0.367 -1.85,1.1c-0.467,0.633 -0.7,1.267 -0.7,1.9c-0,0.5 0.45,1.033 1.35,1.6c-1.633,1.233 -3.183,2.183 -4.65,2.85Zm4.8,-5.9c0.767,0.1 1.15,0.45 1.15,1.05c-0,0.167 -0.033,0.35 -0.1,0.55c-0.967,-0.433 -1.45,-0.867 -1.45,-1.3c0.067,-0.167 0.2,-0.267 0.4,-0.3Z"/><path d="M49.6,25.6c1.8,-1 2.7,-2 2.7,-3c-1.867,0.967 -2.867,1.467 -3,1.5c-1.167,0.533 -2.233,0.8 -3.2,0.8c-1.867,-0 -3.6,-0.583 -5.2,-1.75c-1.333,2.033 -2.267,3.833 -2.8,5.4c0.433,-0.267 0.883,-0.733 1.35,-1.4c0.533,-0.733 0.917,-1.217 1.15,-1.45c1.3,0.567 2.083,0.883 2.35,0.95c0.633,0.2 1.467,0.3 2.5,0.3c1.133,0 2.517,-0.45 4.15,-1.35Z"/><path d="M66.828,28.645l-5.65,3.7c-0.692,0.454 -0.886,1.384 -0.433,2.077c0.454,0.692 1.384,0.886 2.077,0.433l5.65,-3.7c0.692,-0.454 0.886,-1.384 0.433,-2.077c-0.454,-0.692 -1.384,-0.886 -2.077,-0.433Z"/><path d="M50.723,28.648l-5.6,3.7c-0.691,0.457 -0.881,1.388 -0.425,2.079c0.457,0.691 1.388,0.881 2.079,0.425l5.6,-3.7c0.691,-0.457 0.881,-1.388 0.425,-2.079c-0.457,-0.691 -1.388,-0.881 -2.079,-0.425Z"/></g></svg>