<?xml version="1.0" encoding="UTF-8" standalone="no"?><!DOCTYPE svg PUBLIC "-//W3C//DTD SVG 1.1//EN" "http://www.w3.org/Graphics/SVG/1.1/DTD/svg11.dtd"><svg width="100%" height="100%" viewBox="0 0 68 105" version="1.1" xmlns="http://www.w3.org/2000/svg" xmlns:xlink="http://www.w3.org/1999/xlink" xml:space="preserve" xmlns:serif="http://www.serif.com/" style="fill-rule:evenodd;clip-rule:evenodd;stroke-linejoin:round;stroke-miterlimit:2;"><g><path d="M60.95,79.15l2.95,-2.95l-2.95,-3l-2.95,3l2.95,2.95Z" style="fill:#f00;"/><path d="M43.669,51.072c0.637,0.244 1.181,0.853 1.631,1.828c0.467,1.067 0.7,2.15 0.7,3.25c-0,2.233 -0.65,4.35 -1.95,6.35c0.367,0.396 1.034,0.629 2,0.7l3.3,-0c0.287,0.023 0.587,0.04 0.9,0.05c1,0.033 1.667,0.05 2,0.05c1.233,0 2.267,-0.167 3.1,-0.5c0.933,-0.367 2.067,-1.1 3.4,-2.2c-1.867,-1.1 -2.817,-1.667 -2.85,-1.7c-1.333,-0.7 -2.35,-1.05 -3.05,-1.05c-0.467,0 -1.05,0.183 -1.75,0.55c-0.533,0.267 -1.083,0.55 -1.65,0.85c0.5,-1.8 1.017,-3.117 1.55,-3.95c0.867,-1.4 1.983,-2.1 3.35,-2.1c0.733,-0 1.783,0.4 3.15,1.2c1.9,1.133 3.3,1.883 4.2,2.25c2,0.8 4.15,1.2 6.45,1.2c-0.333,1.767 -0.783,3.4 -1.35,4.9c-0.933,0 -1.867,0.017 -2.8,0.05c-1.1,0.067 -2.017,0.2 -2.75,0.4c-0.867,0.233 -1.867,0.817 -3,1.75c-1.533,1.233 -2.533,1.983 -3,2.25c-1.267,0.733 -2.6,1.1 -4,1.1l-6.15,0c-1.1,0 -2.567,-0.75 -4.4,-2.25c-2.2,1.5 -3.95,2.25 -5.25,2.25l-3.1,0l0,-5.1c0.385,0 0.768,-0.017 1.15,-0.05c1.443,-0.008 2.827,-0.091 4.15,-0.25c-0.167,-0.9 -0.25,-1.733 -0.25,-2.5c-0,-1.633 0.55,-3.533 1.65,-5.7c1.233,-2.5 2.55,-3.75 3.95,-3.75l0.669,0.122Zm-3.769,6.428c0.633,-0.6 1.317,-0.9 2.05,-0.9c0.367,0 0.733,0.233 1.1,0.7c0.333,0.467 0.5,0.917 0.5,1.35c-0,0.433 -0.317,1.033 -0.95,1.8c-0.667,0.733 -1.217,1.1 -1.65,1.1c-0.267,0 -0.667,-0.25 -1.2,-0.75c-0.533,-0.5 -0.8,-0.933 -0.8,-1.3c0,-0.733 0.317,-1.4 0.95,-2Z" style="fill:#f00;"/><path d="M43.85,43.2l-2.95,-3l-2.95,3l2.95,2.95l2.95,-2.95Z" style="fill:#f00;"/><path d="M26.75,54.35l0,-16.5c-0.5,0.533 -0.983,1.05 -1.45,1.55c-0.4,0.5 -0.6,1.183 -0.6,2.05c0,6.867 0.05,11.267 0.15,13.2c0.233,6.633 0.867,10.633 1.9,12c0.833,1.1 2,1.65 3.5,1.65l2.1,0l0,-5.1c0.385,-0 0.768,-0.017 1.15,-0.05c-2.811,-0.071 -4.661,-0.705 -5.55,-1.9c-0.8,-1.1 -1.2,-3.4 -1.2,-6.9Z"/><path d="M14.7,55.8c-0.5,-0.333 -0.917,-0.5 -1.25,-0.5c-1.933,0 -3.917,1.667 -5.95,5c-0,0.5 0.217,1.067 0.65,1.7c0.433,0.667 0.65,1.1 0.65,1.3c-0,0.033 -0.1,0.25 -0.3,0.65c-0.2,0.367 -0.3,0.7 -0.3,1c0,0.3 0.067,0.7 0.2,1.2c2.833,-1.967 4.95,-2.95 6.35,-2.95c0.267,-0 0.65,0.1 1.15,0.3c0.267,-0.133 0.567,-0.517 0.9,-1.15c0.2,-0.467 0.4,-0.933 0.6,-1.4l-2.2,-0c-3.367,-0 -5.05,-0.483 -5.05,-1.45c-0,-0.367 0.283,-0.783 0.85,-1.25c0.533,-0.467 0.983,-0.7 1.35,-0.7c0.033,0 0.283,0.083 0.75,0.25c0.433,0.167 0.783,0.25 1.05,0.25c0.867,0 1.3,-0.417 1.3,-1.25c0,-0.333 -0.25,-0.667 -0.75,-1Z"/><path d="M54.05,31.35c-0.467,0.633 -0.7,1.267 -0.7,1.9c0,0.5 0.45,1.033 1.35,1.6c-1.633,1.233 -3.183,2.183 -4.65,2.85c0.5,0.133 0.917,0.2 1.25,0.2c1.2,-0 2.65,-0.867 4.35,-2.6c0.667,0.4 1.25,0.717 1.75,0.95l0.15,-1.8c-0.367,-0.233 -0.65,-0.4 -0.85,-0.5c0.467,-0.9 0.7,-1.617 0.7,-2.15c-0,-1.033 -0.5,-1.55 -1.5,-1.55c-0.7,-0 -1.317,0.367 -1.85,1.1Zm1.95,1.5c-0,0.167 -0.033,0.35 -0.1,0.55c-0.967,-0.433 -1.45,-0.867 -1.45,-1.3c0.067,-0.167 0.2,-0.267 0.4,-0.3c0.767,0.1 1.15,0.45 1.15,1.05Z"/><path d="M26.35,26.1c0.533,-0.733 0.917,-1.217 1.15,-1.45c1.3,0.567 2.083,0.883 2.35,0.95c0.633,0.2 1.467,0.3 2.5,0.3c1.133,-0 2.517,-0.45 4.15,-1.35c1.8,-1 2.7,-2 2.7,-3c-1.867,0.967 -2.867,1.467 -3,1.5c-1.167,0.533 -2.233,0.8 -3.2,0.8c-1.867,0 -3.6,-0.583 -5.2,-1.75c-1.333,2.033 -2.267,3.833 -2.8,5.4c0.433,-0.267 0.883,-0.733 1.35,-1.4Z"/><path d="M8.023,49.283c-0.559,0.084 -1.142,-0.153 -1.475,-0.656c-0.456,-0.691 -0.266,-1.622 0.425,-2.079l5.6,-3.7c0.691,-0.456 1.622,-0.266 2.079,0.425c0.456,0.691 0.266,1.622 -0.425,2.079l-0.25,0.165c0.559,-0.084 1.142,0.153 1.475,0.656c0.456,0.691 0.266,1.622 -0.425,2.079l-5.6,3.7c-0.691,0.456 -1.622,0.266 -2.079,-0.425c-0.456,-0.691 -0.266,-1.622 0.425,-2.079l0.25,-0.165Z"/><path d="M37.873,26.648l-5.6,3.7c-0.691,0.457 -0.881,1.388 -0.425,2.079c0.457,0.691 1.388,0.881 2.079,0.425l5.6,-3.7c0.691,-0.457 0.881,-1.388 0.425,-2.079c-0.457,-0.691 -1.388,-0.881 -2.079,-0.425Z"/></g></svg>