<?xml version="1.0" encoding="UTF-8" standalone="no"?><!DOCTYPE svg PUBLIC "-//W3C//DTD SVG 1.1//EN" "http://www.w3.org/Graphics/SVG/1.1/DTD/svg11.dtd"><svg width="100%" height="100%" viewBox="0 0 121 95" version="1.1" xmlns="http://www.w3.org/2000/svg" xmlns:xlink="http://www.w3.org/1999/xlink" xml:space="preserve" xmlns:serif="http://www.serif.com/" style="fill-rule:evenodd;clip-rule:evenodd;stroke-linejoin:round;stroke-miterlimit:2;"><g><path d="M103.1,70l-2.95,-3l-2.95,3l2.95,2.95l2.95,-2.95Z" style="fill:#f00;"/><path d="M90.2,49.1c-0.533,0.833 -1.05,2.15 -1.55,3.95c0.567,-0.3 1.117,-0.583 1.65,-0.85c0.7,-0.367 1.283,-0.55 1.75,-0.55c0.7,-0 1.717,0.35 3.05,1.05c0.033,0.033 0.983,0.6 2.85,1.7c-1.333,1.1 -2.467,1.833 -3.4,2.2c-0.833,0.333 -1.867,0.5 -3.1,0.5c-0.333,0 -1,-0.017 -2,-0.05c-0.241,-0.008 -0.474,-0.025 -0.7,-0.05l0,5.1l1.7,0c1.4,0 2.733,-0.367 4,-1.1c0.467,-0.267 1.467,-1.017 3,-2.25c1.133,-0.933 2.133,-1.517 3,-1.75c0.733,-0.2 1.65,-0.333 2.75,-0.4c0.933,-0.033 1.867,-0.05 2.8,-0.05c0.567,-1.5 1.017,-3.133 1.35,-4.9c-2.3,-0 -4.45,-0.4 -6.45,-1.2c-0.9,-0.367 -2.3,-1.117 -4.2,-2.25c-1.367,-0.8 -2.417,-1.2 -3.15,-1.2c-1.367,-0 -2.483,0.7 -3.35,2.1Z" style="fill:#f00;"/><path d="M48.55,70.25l2.9,2.95l2.95,-2.95l-2.95,-3l-2.9,3Z"/><path d="M71.85,54.1c-0.7,-1.3 -1.417,-1.95 -2.15,-1.95c-0.9,-0 -1.85,0.967 -2.85,2.9c-0.9,1.8 -1.35,3.25 -1.35,4.35c-0,1.367 0.65,2.233 1.95,2.6c1.2,0.167 2.383,0.35 3.55,0.55c-1.4,2.133 -2.85,3.7 -4.35,4.7c-1.733,1.133 -3.75,1.7 -6.05,1.7c-1.267,-0 -3.083,-0.1 -5.45,-0.3c2.233,2.233 4.8,3.35 7.7,3.35c2.533,0 4.7,-1.067 6.5,-3.2c1.267,-1.5 2.483,-3.733 3.65,-6.7l4.65,0c0.967,0 1.767,-0.367 2.4,-1.1c0.167,-0.233 0.633,-1.033 1.4,-2.4c0.967,1.5 1.483,2.283 1.55,2.35c0.667,0.767 1.433,1.15 2.3,1.15l3.45,0l-0,-5.1c-2.533,0 -4.05,-0.117 -4.55,-0.35c-0.933,-0.467 -1.4,-1.817 -1.4,-4.05c-0.733,0.6 -1.25,1.367 -1.55,2.3c-0.2,0.8 -0.567,1.317 -1.1,1.55c-0.9,0.367 -2.733,0.55 -5.5,0.55l-0,0.2c-0.47,-0.014 -0.954,-0.048 -1.45,-0.1c-0.433,-1 -0.883,-2 -1.35,-3Zm-1.8,2.9c0.2,0.267 0.367,0.833 0.5,1.7c-0.733,0 -1.617,-0.067 -2.65,-0.2c-0,-0.4 -0.067,-0.667 -0.2,-0.8c0.3,-0.6 0.6,-1.15 0.9,-1.65c0.767,0.367 1.25,0.683 1.45,0.95Z"/><path d="M38.4,47.35c-0.867,1.933 -1.733,3.883 -2.6,5.85c-1.033,2.167 -2.05,3.35 -3.05,3.55c-0.681,0.126 -1.864,0.209 -3.55,0.25l-0.45,0c-2.051,-0.042 -3.485,-0.209 -4.3,-0.5c-0.667,-0.233 -1.25,-0.75 -1.75,-1.55c-0.667,-1.033 -1.417,-1.883 -2.25,-2.55c-0.433,0.433 -0.717,0.867 -0.85,1.3c0.1,0.233 0.1,0.4 0,0.5c-2.1,0.533 -3.883,1.467 -5.35,2.8c-1.767,1.567 -2.65,3.383 -2.65,5.45c0,0.2 0.017,0.417 0.05,0.65l1.75,19.7c0.3,-0.4 0.6,-0.95 0.9,-1.65c0.333,-0.8 0.483,-1.417 0.45,-1.85l-1.35,-17.45c0.733,-1.5 1.85,-2.25 3.35,-2.25l0.6,0.25c0,1.133 0.283,2.3 0.85,3.5c0.633,1.4 1.45,2.1 2.45,2.1c1.633,0 2.45,-1.65 2.45,-4.95c1.5,1.067 2.6,1.6 3.3,1.6l6.8,0c0,1.9 0.45,3.867 1.35,5.9c1.1,2.533 2.483,3.8 4.15,3.8c1.233,0 2.217,-0.85 2.95,-2.55c0.533,-1.333 0.8,-2.75 0.8,-4.25c0,-0.4 -0.033,-0.917 -0.1,-1.55c-0.067,-0.8 -0.117,-1.333 -0.15,-1.6c1.233,0.233 2.35,0.35 3.35,0.35c0.552,0 1.069,-0.033 1.55,-0.1l0.4,0c2.933,0 5.05,-0.567 6.35,-1.7c1.4,-1.233 2.1,-3.333 2.1,-6.3c0,-0.833 -0.35,-2.733 -1.05,-5.7c-0.767,1.833 -1.383,3.183 -1.85,4.05c0.7,1.433 1.15,2.483 1.35,3.15c-0.742,0.928 -2.742,1.394 -6,1.4l-2.2,0l0,0.1c-0.219,0.016 -0.452,0.033 -0.7,0.05c-1.5,0.1 -2.633,0.15 -3.4,0.15c-1.233,0 -2.15,-0.1 -2.75,-0.3c1,-1.033 1.85,-2.183 2.55,-3.45c0.8,-1.5 1.2,-2.867 1.2,-4.1c0,-2.533 -0.583,-4.267 -1.75,-5.2c-0.933,0 -1.917,1.033 -2.95,3.1Zm-3,14.95c3.8,0.933 5.7,2.283 5.7,4.05c0,0.167 -0.15,0.367 -0.45,0.6c-0.333,0.2 -0.583,0.3 -0.75,0.3c-1.167,0 -2.167,-0.55 -3,-1.65c-0.767,-0.933 -1.267,-2.033 -1.5,-3.3Zm4.4,-12.6c0.733,0.733 1.1,1.4 1.1,2c-0,1.3 -0.483,2.283 -1.45,2.95c-0.667,0.467 -1.733,0.85 -3.2,1.15c0.9,-1.933 1.4,-3.017 1.5,-3.25c0.567,-1.1 1.25,-2.05 2.05,-2.85Z"/><path d="M78.4,44.3l2.9,2.9l2.95,-2.9l-2.9,-3.05l-2.95,3.05Z"/><path d="M20.6,40c0.567,-0.633 0.85,-1.35 0.85,-2.15c0,-0.7 -0.2,-1.317 -0.6,-1.85c-0.467,-0.6 -1.017,-0.9 -1.65,-0.9c-0.867,0 -1.517,0.383 -1.95,1.15c-0.4,0.667 -0.6,1.467 -0.6,2.4c-0,1.533 0.65,2.3 1.95,2.3c0.8,-0 1.467,-0.317 2,-0.95Zm-0.2,-1.7c-0,0.533 -0.467,0.8 -1.4,0.8c-1.167,0 -1.75,-0.383 -1.75,-1.15c-0,-0.833 0.367,-1.25 1.1,-1.25c0.333,0 0.75,0.183 1.25,0.55c0.533,0.4 0.8,0.75 0.8,1.05Z"/><path d="M41.85,28.2c0,-1.033 -0.5,-1.55 -1.5,-1.55c-0.7,-0 -1.317,0.367 -1.85,1.1c-0.467,0.633 -0.7,1.267 -0.7,1.9c-0,0.5 0.45,1.033 1.35,1.6c-1.633,1.233 -3.183,2.183 -4.65,2.85c0.5,0.133 0.917,0.2 1.25,0.2c1.2,0 2.65,-0.867 4.35,-2.6c0.667,0.4 1.25,0.717 1.75,0.95l0.15,-1.8c-0.367,-0.233 -0.65,-0.4 -0.85,-0.5c0.467,-0.9 0.7,-1.617 0.7,-2.15Zm-2.55,-0c0.767,0.1 1.15,0.45 1.15,1.05c0,0.167 -0.033,0.35 -0.1,0.55c-0.967,-0.433 -1.45,-0.867 -1.45,-1.3c0.067,-0.167 0.2,-0.267 0.4,-0.3Z"/><path d="M54.3,27.75c-0,-1.033 -0.5,-1.55 -1.5,-1.55c-0.7,-0 -1.317,0.367 -1.85,1.1c-0.467,0.633 -0.7,1.267 -0.7,1.9c0,0.5 0.45,1.033 1.35,1.6c-1.633,1.233 -3.183,2.183 -4.65,2.85c0.5,0.133 0.917,0.2 1.25,0.2c1.2,0 2.65,-0.867 4.35,-2.6c0.667,0.4 1.25,0.717 1.75,0.95l0.15,-1.8c-0.367,-0.233 -0.65,-0.4 -0.85,-0.5c0.467,-0.9 0.7,-1.617 0.7,-2.15Zm-1.4,1.05c-0,0.167 -0.033,0.35 -0.1,0.55c-0.967,-0.433 -1.45,-0.867 -1.45,-1.3c0.067,-0.167 0.2,-0.267 0.4,-0.3c0.767,0.1 1.15,0.45 1.15,1.05Z"/><path d="M77.4,26.5c-0.467,0.633 -0.7,1.267 -0.7,1.9c0,0.5 0.45,1.033 1.35,1.6c-1.633,1.233 -3.183,2.183 -4.65,2.85c0.5,0.133 0.917,0.2 1.25,0.2c1.2,0 2.65,-0.867 4.35,-2.6c0.667,0.4 1.25,0.717 1.75,0.95l0.15,-1.8c-0.367,-0.233 -0.65,-0.4 -0.85,-0.5c0.467,-0.9 0.7,-1.617 0.7,-2.15c0,-1.033 -0.5,-1.55 -1.5,-1.55c-0.7,-0 -1.317,0.367 -1.85,1.1Zm1.95,1.5c0,0.167 -0.033,0.35 -0.1,0.55c-0.967,-0.433 -1.45,-0.867 -1.45,-1.3c0.067,-0.167 0.2,-0.267 0.4,-0.3c0.767,0.1 1.15,0.45 1.15,1.05Z"/><path d="M96.45,24.6c-0.7,0 -1.317,0.367 -1.85,1.1c-0.467,0.633 -0.7,1.267 -0.7,1.9c0,0.5 0.45,1.033 1.35,1.6c-1.633,1.233 -3.183,2.183 -4.65,2.85c0.5,0.133 0.917,0.2 1.25,0.2c1.2,-0 2.65,-0.867 4.35,-2.6c0.667,0.4 1.25,0.717 1.75,0.95l0.15,-1.8c-0.367,-0.233 -0.65,-0.4 -0.85,-0.5c0.467,-0.9 0.7,-1.617 0.7,-2.15c0,-1.033 -0.5,-1.55 -1.5,-1.55Zm-1.05,1.55c0.767,0.1 1.15,0.45 1.15,1.05c-0,0.167 -0.033,0.35 -0.1,0.55c-0.967,-0.433 -1.45,-0.867 -1.45,-1.3c0.067,-0.167 0.2,-0.267 0.4,-0.3Z"/></g></svg>