<?xml version="1.0" encoding="UTF-8" standalone="no"?><!DOCTYPE svg PUBLIC "-//W3C//DTD SVG 1.1//EN" "http://www.w3.org/Graphics/SVG/1.1/DTD/svg11.dtd"><svg width="100%" height="100%" viewBox="0 0 84 80" version="1.1" xmlns="http://www.w3.org/2000/svg" xmlns:xlink="http://www.w3.org/1999/xlink" xml:space="preserve" xmlns:serif="http://www.serif.com/" style="fill-rule:evenodd;clip-rule:evenodd;stroke-linejoin:round;stroke-miterlimit:2;"><g><path d="M68.45,66.7l2.95,-2.95l-2.95,-3l-2.95,3l2.95,2.95Z" style="fill:#f00;"/><path d="M74.3,50.3c0.567,-1.5 1.017,-3.133 1.35,-4.9c-2.3,-0 -4.45,-0.4 -6.45,-1.2c-0.9,-0.367 -2.3,-1.117 -4.2,-2.25c-1.367,-0.8 -2.417,-1.2 -3.15,-1.2c-1.367,0 -2.483,0.7 -3.35,2.1c-0.533,0.833 -1.05,2.15 -1.55,3.95c0.567,-0.3 1.117,-0.583 1.65,-0.85c0.7,-0.367 1.283,-0.55 1.75,-0.55c0.7,-0 1.717,0.35 3.05,1.05c0.033,0.033 0.983,0.6 2.85,1.7c-1.333,1.1 -2.467,1.833 -3.4,2.2c-0.833,0.333 -1.867,0.5 -3.1,0.5c-0.333,0 -1,-0.017 -2,-0.05c-0.368,-0.012 -0.718,-0.029 -1.05,-0.05l-1.55,-0l-0,5.1l3.6,0c1.4,0 2.733,-0.367 4,-1.1c0.467,-0.267 1.467,-1.017 3,-2.25c1.133,-0.933 2.133,-1.517 3,-1.75c0.733,-0.2 1.65,-0.333 2.75,-0.4c0.933,-0.033 1.867,-0.05 2.8,-0.05Z" style="fill:#f00;"/><path d="M9.5,44.8c-0.633,1.333 -0.95,2.6 -0.95,3.8c-0,5.167 3.967,7.75 11.9,7.75c5.467,0 9.667,-0.683 12.6,-2.05c4.2,-1.933 6.3,-5.35 6.3,-10.25c0,-1.333 -0.283,-2.783 -0.85,-4.35c-0.7,-1.967 -1.583,-2.95 -2.65,-2.95c-0.933,0 -1.9,0.967 -2.9,2.9c-0.9,1.767 -1.35,3.2 -1.35,4.3c0,0.9 0.25,1.617 0.75,2.15c0.5,0.533 1.183,0.8 2.05,0.8c1,-0 1.983,-0.45 2.95,-1.35c0.3,0.467 0.45,1.067 0.45,1.8c-0,1.333 -2.233,2.467 -6.7,3.4c-3.467,0.733 -6.317,1.1 -8.55,1.1c-2.6,0 -4.983,-0.35 -7.15,-1.05c-3.1,-1 -4.65,-2.533 -4.65,-4.6c-0,-0.333 0.167,-1 0.5,-2c0.333,-1 0.617,-1.683 0.85,-2.05c-1,0.267 -1.867,1.15 -2.6,2.65Zm25.45,-3.95c0.333,0 0.667,0.183 1,0.55c0.367,0.367 0.55,0.733 0.55,1.1c0,0.833 -0.45,1.25 -1.35,1.25c-0.433,0 -0.783,-0.167 -1.05,-0.5c-0.1,-0.067 -0.333,-0.433 -0.7,-1.1c0.8,-0.867 1.317,-1.3 1.55,-1.3Z" style="fill:#f00;"/><path d="M34.3,33.8l2.9,-2.95l-2.9,-3l-2.95,3l2.95,2.95Z" style="fill:#f00;"/><path d="M51.15,49.1c-0.167,1.3 -0.45,2.417 -0.85,3.35c-0,0.033 0.4,0.683 1.2,1.95c0.667,1.067 1,1.65 1,1.75c0,1.2 -1.317,2.75 -3.95,4.65c-2.5,1.8 -4.383,2.7 -5.65,2.7c-0.567,-0 -1.317,-0.117 -2.25,-0.35c-0.767,-0.167 -1.533,-0.35 -2.3,-0.55c0.967,1.133 2.1,2.067 3.4,2.8c1.433,0.833 2.8,1.25 4.1,1.25c1.767,-0 3.567,-1.333 5.4,-4c1.6,-2.333 2.517,-4.5 2.75,-6.5c0.3,-0.2 0.65,-0.3 1.05,-0.3l0.1,0l-0,-5.1l1.55,-0c-1.8,-0 -2.817,-0.033 -3.05,-0.1c-0.767,-0.133 -1.6,-0.65 -2.5,-1.55Z"/><path d="M50,21.9c-0.7,0 -1.317,0.367 -1.85,1.1c-0.467,0.633 -0.7,1.267 -0.7,1.9c0,0.5 0.45,1.033 1.35,1.6c-1.633,1.233 -3.183,2.183 -4.65,2.85c0.5,0.133 0.917,0.2 1.25,0.2c1.2,0 2.65,-0.867 4.35,-2.6c0.667,0.4 1.25,0.717 1.75,0.95l0.15,-1.8c-0.367,-0.233 -0.65,-0.4 -0.85,-0.5c0.467,-0.9 0.7,-1.617 0.7,-2.15c0,-1.033 -0.5,-1.55 -1.5,-1.55Zm0.1,2.6c0,0.167 -0.033,0.35 -0.1,0.55c-0.967,-0.433 -1.45,-0.867 -1.45,-1.3c0.067,-0.167 0.2,-0.267 0.4,-0.3c0.767,0.1 1.15,0.45 1.15,1.05Z"/><path d="M60.6,19.7c-0.467,0.633 -0.7,1.267 -0.7,1.9c-0,0.5 0.45,1.033 1.35,1.6c-1.633,1.233 -3.183,2.183 -4.65,2.85c0.5,0.133 0.917,0.2 1.25,0.2c1.2,0 2.65,-0.867 4.35,-2.6c0.667,0.4 1.25,0.717 1.75,0.95l0.15,-1.8c-0.367,-0.233 -0.65,-0.4 -0.85,-0.5c0.467,-0.9 0.7,-1.617 0.7,-2.15c0,-1.033 -0.5,-1.55 -1.5,-1.55c-0.7,-0 -1.317,0.367 -1.85,1.1Zm0.8,0.45c0.767,0.1 1.15,0.45 1.15,1.05c-0,0.167 -0.033,0.35 -0.1,0.55c-0.967,-0.433 -1.45,-0.867 -1.45,-1.3c0.067,-0.167 0.2,-0.267 0.4,-0.3Z"/><path d="M30.237,64.857c-0.053,0.008 -6.059,3.779 -6.112,3.781c-0.024,0.001 -0.048,0.002 -0.072,0.001c-0.484,-0.002 -0.957,-0.239 -1.244,-0.672c-0.456,-0.691 -0.266,-1.622 0.425,-2.079l5.6,-3.7c0.69,-0.456 1.622,-0.266 2.078,0.425c0.456,0.691 0.266,1.622 -0.425,2.078l-0.25,0.166c0.559,-0.084 1.143,0.153 1.475,0.656c0.456,0.691 0.266,1.622 -0.425,2.078l-5.6,3.7c-0.69,0.457 -1.622,0.266 -2.078,-0.424c-0.456,-0.691 -0.266,-1.622 0.425,-2.079l6.208,-3.932l-0.005,0.001Z"/></g></svg>