<?xml version="1.0" encoding="UTF-8" standalone="no"?><!DOCTYPE svg PUBLIC "-//W3C//DTD SVG 1.1//EN" "http://www.w3.org/Graphics/SVG/1.1/DTD/svg11.dtd"><svg width="100%" height="100%" viewBox="0 0 90 94" version="1.1" xmlns="http://www.w3.org/2000/svg" xmlns:xlink="http://www.w3.org/1999/xlink" xml:space="preserve" xmlns:serif="http://www.serif.com/" style="fill-rule:evenodd;clip-rule:evenodd;stroke-linejoin:round;stroke-miterlimit:2;"><g><path d="M46.45,72.5l2.95,-2.95l-2.95,-3l-2.95,3l2.95,2.95Z" style="fill:#f00;"/><path d="M41.4,46.5c-1.267,0 -2.467,0.55 -3.6,1.65c-1.1,1.033 -1.65,2.217 -1.65,3.55l-0,0.65c0.7,-0.267 1.417,-0.533 2.15,-0.8c0.933,-0.367 1.633,-0.55 2.1,-0.55c1.233,0 2.817,0.617 4.75,1.85c-1.933,1.5 -3.833,2.483 -5.7,2.95c-1.095,0.246 -2.728,0.396 -4.9,0.45l0.5,-0l-0,5.1l1.75,-0c1.733,-0 3.683,-0.6 5.85,-1.8c0.967,-0.533 2.633,-1.65 5,-3.35c1.7,-1.233 2.833,-1.85 3.4,-1.85l0.5,0.25c-0,4.5 1.3,6.75 3.9,6.75l3.5,-0l0,-5c-0.719,0.067 -1.369,0.1 -1.95,0.1c-3.2,-0 -4.75,-0.683 -4.65,-2.05l0.05,-0.25c1.6,-0.3 2.617,-0.667 3.05,-1.1c0.167,-1.267 0.4,-2.55 0.7,-3.85c-1.333,0.4 -2.65,0.6 -3.95,0.6c-1.733,0 -3.85,-0.55 -6.35,-1.65c-2.467,-1.1 -3.95,-1.65 -4.45,-1.65Z" style="fill:#f00;"/><path d="M75.65,61.4c1.467,-1.233 2.2,-4.517 2.2,-9.85l-0.25,-21.5c-1.767,2.367 -2.65,3.783 -2.65,4.25l0.7,27.1Z"/><path d="M66.7,30.15l0,-0.6c-1.5,1.033 -2.7,2.8 -3.6,5.3c0.167,0.667 0.7,1.533 1.6,2.6c0.567,3.7 0.85,9.283 0.85,16.75c-0,1.467 -1.317,2.167 -3.95,2.1l-0.85,-0.05l-1.8,-0l0,5.1l3.75,-0c1.9,-0 3.283,-1.05 4.15,-3.15c0.6,-1.5 0.9,-3.383 0.9,-5.65l0,-4.75c0,-0.867 -0.067,-2.15 -0.2,-3.85c-0.2,-1.733 -0.3,-3.033 -0.3,-3.9c0,-0.433 0.233,-1.133 0.7,-2.1c0.467,-0.967 0.7,-1.783 0.7,-2.45c-0,-0.233 -0.383,-0.733 -1.15,-1.5c-0.767,-0.767 -1.15,-1.45 -1.15,-2.05c0,-0.167 0.067,-0.45 0.2,-0.85c0.133,-0.4 0.183,-0.717 0.15,-0.95Z"/><path d="M13.55,45.15l0.3,3.4c-2.467,1.333 -4.25,2.55 -5.35,3.65c-1.567,1.633 -2.35,3.583 -2.35,5.85c-0,0.833 0.917,1.25 2.75,1.25c1.7,0 2.917,-0.15 3.65,-0.45c0.933,-0.433 1.883,-1.333 2.85,-2.7c0.4,1.1 0.817,2.2 1.25,3.3c0.633,1.267 1.467,1.9 2.5,1.9l4.8,0c0.967,0 1.767,-0.367 2.4,-1.1c0.167,-0.233 0.633,-1.033 1.4,-2.4c0.967,1.5 1.483,2.283 1.55,2.35c0.667,0.767 1.433,1.15 2.3,1.15l3.45,0l-0,-5.1l-1.5,0c-1.64,-0.05 -2.657,-0.166 -3.05,-0.35c-0.933,-0.467 -1.4,-1.817 -1.4,-4.05c-0.733,0.6 -1.25,1.367 -1.55,2.3c-0.2,0.8 -0.567,1.317 -1.1,1.55c-0.79,0.322 -2.307,0.505 -4.55,0.55l-0.45,0c-1.56,-0.042 -2.476,-0.126 -2.75,-0.25c-1.067,-0.467 -1.95,-2.55 -2.65,-6.25c-0.567,-2.9 -0.85,-5.35 -0.85,-7.35c-1.1,1.433 -1.65,2.35 -1.65,2.75Zm0.95,7.85c0,0.3 -0.433,0.567 -1.3,0.8c-0.767,0.2 -1.367,0.3 -1.8,0.3c-0.5,0 -1.15,-0.133 -1.95,-0.4c1.667,-1.167 3.2,-2.067 4.6,-2.7c0.3,1.133 0.45,1.8 0.45,2Z"/><path d="M27.6,46.45l2.95,-2.9l-2.9,-3.05l-2.95,3.05l2.9,2.9Z"/><path d="M15.85,39.65l2.6,-2.65l-2.6,-2.6l-2.55,2.6l2.55,2.65Z"/><path d="M10.75,34.4l-2.6,2.6l2.6,2.6l2.55,-2.6l-2.55,-2.6Z"/><path d="M29.4,30.2l-0.35,0.1c-0,1.467 -0.333,2.2 -1,2.2c-0.3,0 -0.567,-0.483 -0.8,-1.45l-0.25,0.1c-0.133,0.733 -0.25,1.217 -0.35,1.45c-0.233,0.6 -0.55,0.9 -0.95,0.9c-0.367,0 -0.55,-0.533 -0.55,-1.6l-0.35,0.05c-0.2,0.767 -0.3,1.25 -0.3,1.45c0,0.433 0.083,0.8 0.25,1.1c0.2,0.367 0.5,0.55 0.9,0.55c0.333,0 0.667,-0.133 1,-0.4c0.3,-0.233 0.467,-0.533 0.5,-0.9c0.267,0.2 0.567,0.3 0.9,0.3c1.033,0 1.55,-0.817 1.55,-2.45c0,-0.433 -0.067,-0.9 -0.2,-1.4Z"/><path d="M65.7,20.85c-0.867,-0 -1.517,0.383 -1.95,1.15c-0.4,0.667 -0.6,1.467 -0.6,2.4c-0,1.533 0.65,2.3 1.95,2.3c0.8,-0 1.467,-0.317 2,-0.95c0.567,-0.633 0.85,-1.35 0.85,-2.15c0,-0.7 -0.2,-1.317 -0.6,-1.85c-0.467,-0.6 -1.017,-0.9 -1.65,-0.9Zm0.4,2.15c0.533,0.4 0.8,0.75 0.8,1.05c-0,0.533 -0.467,0.8 -1.4,0.8c-1.167,-0 -1.75,-0.383 -1.75,-1.15c0,-0.833 0.367,-1.25 1.1,-1.25c0.333,-0 0.75,0.183 1.25,0.55Z"/><path d="M13.85,26.9l0.15,-1.8c-0.367,-0.233 -0.65,-0.4 -0.85,-0.5c0.467,-0.9 0.7,-1.617 0.7,-2.15c0,-1.033 -0.5,-1.55 -1.5,-1.55c-0.7,0 -1.317,0.367 -1.85,1.1c-0.467,0.633 -0.7,1.267 -0.7,1.9c-0,0.5 0.45,1.033 1.35,1.6c-1.633,1.233 -3.183,2.183 -4.65,2.85c0.5,0.133 0.917,0.2 1.25,0.2c1.2,0 2.65,-0.867 4.35,-2.6c0.667,0.4 1.25,0.717 1.75,0.95Zm-1.4,-3.4c0,0.167 -0.033,0.35 -0.1,0.55c-0.967,-0.433 -1.45,-0.867 -1.45,-1.3c0.067,-0.167 0.2,-0.267 0.4,-0.3c0.767,0.1 1.15,0.45 1.15,1.05Z"/><path d="M28.786,20.79l-5.65,3.65c-0.695,0.449 -0.895,1.379 -0.446,2.074c0.449,0.695 1.379,0.895 2.074,0.446l5.65,-3.65c0.695,-0.449 0.895,-1.379 0.446,-2.074c-0.449,-0.695 -1.379,-0.895 -2.074,-0.446Z"/><path d="M43.181,20.793l-5.6,3.65c-0.694,0.452 -0.89,1.383 -0.438,2.076c0.452,0.694 1.383,0.89 2.076,0.438l5.6,-3.65c0.694,-0.452 0.89,-1.383 0.438,-2.076c-0.452,-0.694 -1.383,-0.89 -2.076,-0.438Z"/><path d="M78.423,20.598l-5.6,3.7c-0.691,0.457 -0.881,1.388 -0.425,2.079c0.457,0.691 1.388,0.881 2.079,0.425l5.6,-3.7c0.691,-0.457 0.881,-1.388 0.425,-2.079c-0.457,-0.691 -1.388,-0.881 -2.079,-0.425Z"/></g></svg>