<?xml version="1.0" encoding="UTF-8" standalone="no"?><!DOCTYPE svg PUBLIC "-//W3C//DTD SVG 1.1//EN" "http://www.w3.org/Graphics/SVG/1.1/DTD/svg11.dtd"><svg width="100%" height="100%" viewBox="0 0 62 94" version="1.1" xmlns="http://www.w3.org/2000/svg" xmlns:xlink="http://www.w3.org/1999/xlink" xml:space="preserve" xmlns:serif="http://www.serif.com/" style="fill-rule:evenodd;clip-rule:evenodd;stroke-linejoin:round;stroke-miterlimit:2;"><g><path d="M53.15,53.35c0,-4.4 -1.133,-7.55 -3.4,-9.45c-0.7,-0.533 -1.167,-0.8 -1.4,-0.8c-1.1,-0 -2.067,0.867 -2.9,2.6c-0.733,1.5 -1.1,2.883 -1.1,4.15c-0,1.033 0.267,1.883 0.8,2.55c0.533,0.733 1.3,1.1 2.3,1.1c1.033,0 2.133,-0.467 3.3,-1.4c0.733,1.233 1.1,2.067 1.1,2.5c-0,0.4 -0.633,0.783 -1.9,1.15c-1.1,0.333 -1.933,0.5 -2.5,0.5l-5.95,0l0,5.1l4,-0c1.933,-0 3.7,-0.833 5.3,-2.5c1.567,-1.667 2.35,-3.5 2.35,-5.5Zm-6.65,-5.2c0.133,-0.2 0.533,-0.517 1.2,-0.95c0.7,0.5 1.283,1.167 1.75,2l0,0.65c-0.867,0.3 -1.45,0.45 -1.75,0.45c-0.233,0 -0.533,-0.083 -0.9,-0.25l-0.85,-0.4c0.2,-0.8 0.383,-1.3 0.55,-1.5Z" style="fill:#f00;"/><path d="M45.15,36.25l2.95,2.95l2.95,-2.95l-2.95,-3l-2.95,3Z" style="fill:#f00;"/><path d="M22.3,49.05c-0.6,1.167 -1.167,2.767 -1.7,4.8c1.033,1.433 1.7,2.433 2,3c0.667,1.233 1,2.4 1,3.5c-0,1.4 -1.067,2.567 -3.2,3.5c-1.767,0.8 -3.433,1.2 -5,1.2c-3.9,0 -5.85,-1.683 -5.85,-5.05c-0,-0.533 0.117,-1.333 0.35,-2.4c0.2,-1.067 0.3,-1.867 0.3,-2.4c-0.8,0.833 -1.433,2.017 -1.9,3.55c-0.467,1.4 -0.7,2.733 -0.7,4c-0,2.367 0.7,4.167 2.1,5.4c1.267,1.133 3.067,1.7 5.4,1.7c2.933,-0 5.4,-1.067 7.4,-3.2c2,-2.133 3,-4.7 3,-7.7c0,-3.9 -1.067,-7.2 -3.2,-9.9Z"/><path d="M34,30.9c-0.5,0.533 -0.983,1.05 -1.45,1.55c-0.4,0.5 -0.6,1.183 -0.6,2.05c0,6.867 0.05,11.267 0.15,13.2c0.233,6.633 0.867,10.633 1.9,12c0.833,1.1 2,1.65 3.5,1.65l4,-0l0,-5.1l-0.5,0c-2.949,-0.067 -4.883,-0.717 -5.8,-1.95c-0.8,-1.1 -1.2,-3.4 -1.2,-6.9l0,-16.5Z"/><path d="M15,47.15l2.95,-2.95l-2.95,-3l-2.95,3l2.95,2.95Z"/><path d="M15.45,33.75c-0.3,0 -0.567,-0.483 -0.8,-1.45l-0.25,0.1c-0.133,0.733 -0.25,1.217 -0.35,1.45c-0.233,0.6 -0.55,0.9 -0.95,0.9c-0.367,0 -0.55,-0.533 -0.55,-1.6l-0.35,0.05c-0.2,0.767 -0.3,1.25 -0.3,1.45c0,0.433 0.083,0.8 0.25,1.1c0.2,0.367 0.5,0.55 0.9,0.55c0.333,0 0.667,-0.133 1,-0.4c0.3,-0.233 0.467,-0.533 0.5,-0.9c0.267,0.2 0.567,0.3 0.9,0.3c1.033,0 1.55,-0.817 1.55,-2.45c0,-0.433 -0.067,-0.9 -0.2,-1.4l-0.35,0.1c0,1.467 -0.333,2.2 -1,2.2Z"/><path d="M37.373,67.948l-5.6,3.7c-0.691,0.457 -0.881,1.388 -0.425,2.079c0.457,0.691 1.388,0.881 2.079,0.425l5.6,-3.7c0.691,-0.457 0.881,-1.388 0.425,-2.079c-0.457,-0.691 -1.388,-0.881 -2.079,-0.425Z"/><path d="M49.428,20.745l-5.65,3.7c-0.692,0.454 -0.886,1.384 -0.433,2.077c0.454,0.692 1.384,0.886 2.077,0.433l5.65,-3.7c0.692,-0.454 0.886,-1.384 0.433,-2.077c-0.454,-0.692 -1.384,-0.886 -2.077,-0.433Z"/><path d="M16.178,20.745l-5.65,3.7c-0.692,0.454 -0.886,1.384 -0.433,2.077c0.454,0.692 1.384,0.886 2.077,0.433l5.65,-3.7c0.692,-0.454 0.886,-1.384 0.433,-2.077c-0.454,-0.692 -1.384,-0.886 -2.077,-0.433Z"/></g></svg>