<?xml version="1.0" encoding="UTF-8" standalone="no"?><!DOCTYPE svg PUBLIC "-//W3C//DTD SVG 1.1//EN" "http://www.w3.org/Graphics/SVG/1.1/DTD/svg11.dtd"><svg width="100%" height="100%" viewBox="0 0 77 95" version="1.1" xmlns="http://www.w3.org/2000/svg" xmlns:xlink="http://www.w3.org/1999/xlink" xml:space="preserve" xmlns:serif="http://www.serif.com/" style="fill-rule:evenodd;clip-rule:evenodd;stroke-linejoin:round;stroke-miterlimit:2;"><g><path d="M43.95,70.7l-2.95,-3l-2.95,3l2.95,2.95l2.95,-2.95Z" style="fill:#f00;"/><path d="M34.95,52.15c1.233,-0 2.817,0.617 4.75,1.85c-1.933,1.5 -3.833,2.483 -5.7,2.95c-1.094,0.246 -2.728,0.396 -4.9,0.45l-1.5,-0l0,5.1l3.75,-0c1.733,-0 3.683,-0.6 5.85,-1.8c0.967,-0.533 2.633,-1.65 5,-3.35c1.7,-1.233 2.833,-1.85 3.4,-1.85l0.5,0.25c0,4.5 1.3,6.75 3.9,6.75l9.45,-0c1.933,-0 3.7,-0.833 5.3,-2.5c1.567,-1.667 2.35,-3.5 2.35,-5.5c0,-4.4 -1.133,-7.55 -3.4,-9.45c-0.7,-0.533 -1.167,-0.8 -1.4,-0.8c-1.1,-0 -2.067,0.867 -2.9,2.6c-0.733,1.5 -1.1,2.883 -1.1,4.15c-0,1.033 0.267,1.883 0.8,2.55c0.533,0.733 1.3,1.1 2.3,1.1c1.033,-0 2.133,-0.467 3.3,-1.4c0.733,1.233 1.1,2.067 1.1,2.5c-0,0.4 -0.633,0.783 -1.9,1.15c-1.1,0.333 -1.933,0.5 -2.5,0.5l-7.9,-0l0,0.1c-0.719,0.067 -1.369,0.1 -1.95,0.1c-3.2,0 -4.75,-0.683 -4.65,-2.05l0.05,-0.25c1.6,-0.3 2.617,-0.667 3.05,-1.1c0.167,-1.267 0.4,-2.55 0.7,-3.85c-1.333,0.4 -2.65,0.6 -3.95,0.6c-1.733,-0 -3.85,-0.55 -6.35,-1.65c-2.467,-1.1 -3.95,-1.65 -4.45,-1.65c-1.267,-0 -2.467,0.55 -3.6,1.65c-1.1,1.033 -1.65,2.217 -1.65,3.55l0,0.65c0.7,-0.267 1.417,-0.533 2.15,-0.8c0.933,-0.367 1.633,-0.55 2.1,-0.55Zm24.95,-1.35c0.2,-0.8 0.383,-1.3 0.55,-1.5c0.133,-0.2 0.533,-0.517 1.2,-0.95c0.7,0.5 1.283,1.167 1.75,2l0,0.65c-0.867,0.3 -1.45,0.45 -1.75,0.45c-0.233,-0 -0.533,-0.083 -0.9,-0.25l-0.85,-0.4Z" style="fill:#f00;"/><path d="M59.1,37.4l2.95,2.95l2.95,-2.95l-2.95,-3l-2.95,3Z" style="fill:#f00;"/><path d="M27.6,57.4c-0.876,-0.022 -1.393,-0.055 -1.55,-0.1c-0.767,-0.133 -1.6,-0.65 -2.5,-1.55c-0.167,1.3 -0.45,2.417 -0.85,3.35c0,0.033 0.4,0.683 1.2,1.95c0.667,1.067 1,1.65 1,1.75c-0,1.2 -1.317,2.75 -3.95,4.65c-2.5,1.8 -4.383,2.7 -5.65,2.7c-0.567,-0 -1.317,-0.117 -2.25,-0.35c-0.767,-0.167 -1.533,-0.35 -2.3,-0.55c0.967,1.133 2.1,2.067 3.4,2.8c1.433,0.833 2.8,1.25 4.1,1.25c1.767,0 3.567,-1.333 5.4,-4c1.6,-2.333 2.517,-4.5 2.75,-6.5c0.3,-0.2 0.65,-0.3 1.05,-0.3l0.15,-0l0,-5.1Z"/><path d="M40.8,34.95c-0,-0.7 -0.2,-1.317 -0.6,-1.85c-0.467,-0.6 -1.017,-0.9 -1.65,-0.9c-0.867,-0 -1.517,0.383 -1.95,1.15c-0.4,0.667 -0.6,1.467 -0.6,2.4c0,1.533 0.65,2.3 1.95,2.3c0.8,0 1.467,-0.317 2,-0.95c0.567,-0.633 0.85,-1.35 0.85,-2.15Zm-4.2,0.1c0,-0.833 0.367,-1.25 1.1,-1.25c0.333,0 0.75,0.183 1.25,0.55c0.533,0.4 0.8,0.75 0.8,1.05c0,0.533 -0.467,0.8 -1.4,0.8c-1.167,0 -1.75,-0.383 -1.75,-1.15Z"/><path d="M21.444,76.691c-0.053,0.008 -6.059,3.779 -6.112,3.781c-0.024,0.001 -0.048,0.002 -0.072,0.002c-0.483,-0.003 -0.957,-0.239 -1.244,-0.673c-0.456,-0.691 -0.266,-1.622 0.425,-2.078l5.6,-3.7c0.691,-0.457 1.622,-0.267 2.078,0.424c0.457,0.691 0.266,1.622 -0.424,2.079l-0.251,0.165c0.559,-0.084 1.143,0.154 1.475,0.656c0.457,0.691 0.266,1.622 -0.424,2.079l-5.6,3.7c-0.691,0.456 -1.622,0.266 -2.079,-0.425c-0.456,-0.691 -0.266,-1.622 0.425,-2.078l6.208,-3.933l-0.005,0.001Z"/><path d="M63.223,24.248l-5.6,3.7c-0.691,0.457 -0.881,1.388 -0.425,2.079c0.457,0.691 1.388,0.881 2.079,0.425l5.6,-3.7c0.691,-0.457 0.881,-1.388 0.425,-2.079c-0.457,-0.691 -1.388,-0.881 -2.079,-0.425Z"/></g></svg>