<?xml version="1.0" encoding="UTF-8" standalone="no"?><!DOCTYPE svg PUBLIC "-//W3C//DTD SVG 1.1//EN" "http://www.w3.org/Graphics/SVG/1.1/DTD/svg11.dtd"><svg width="100%" height="100%" viewBox="0 0 105 95" version="1.1" xmlns="http://www.w3.org/2000/svg" xmlns:xlink="http://www.w3.org/1999/xlink" xml:space="preserve" xmlns:serif="http://www.serif.com/" style="fill-rule:evenodd;clip-rule:evenodd;stroke-linejoin:round;stroke-miterlimit:2;"><g><path d="M93.6,44.65c-0.7,-0.533 -1.167,-0.8 -1.4,-0.8c-1.1,0 -2.067,0.867 -2.9,2.6c-0.733,1.5 -1.1,2.883 -1.1,4.15c0,1.033 0.267,1.883 0.8,2.55c0.533,0.733 1.3,1.1 2.3,1.1c1.033,0 2.133,-0.467 3.3,-1.4c0.733,1.233 1.1,2.067 1.1,2.5c0,0.4 -0.633,0.783 -1.9,1.15c-1.1,0.333 -1.933,0.5 -2.5,0.5l-5.8,0l0,5.1l3.85,0c1.933,0 3.7,-0.833 5.3,-2.5c1.567,-1.667 2.35,-3.5 2.35,-5.5c0,-4.4 -1.133,-7.55 -3.4,-9.45Zm-3.8,5.75c0.2,-0.8 0.383,-1.3 0.55,-1.5c0.133,-0.2 0.533,-0.517 1.2,-0.95c0.7,0.5 1.283,1.167 1.75,2l-0,0.65c-0.867,0.3 -1.45,0.45 -1.75,0.45c-0.233,0 -0.533,-0.083 -0.9,-0.25l-0.85,-0.4Z" style="fill:#f00;"/><path d="M29.15,50.2c-0,0.9 0.25,1.617 0.75,2.15c0.5,0.533 1.183,0.8 2.05,0.8c1,-0 1.983,-0.45 2.95,-1.35c0.3,0.467 0.45,1.067 0.45,1.8c0,1.333 -2.233,2.467 -6.7,3.4c-3.467,0.733 -6.317,1.1 -8.55,1.1c-2.6,0 -4.983,-0.35 -7.15,-1.05c-3.1,-1 -4.65,-2.533 -4.65,-4.6c-0,-0.333 0.167,-1 0.5,-2c0.333,-1 0.617,-1.683 0.85,-2.05c-1,0.267 -1.867,1.15 -2.6,2.65c-0.633,1.333 -0.95,2.6 -0.95,3.8c0,5.167 3.967,7.75 11.9,7.75c5.467,0 9.667,-0.683 12.6,-2.05c4.2,-1.933 6.3,-5.35 6.3,-10.25c-0,-1.333 -0.283,-2.783 -0.85,-4.35c-0.7,-1.967 -1.583,-2.95 -2.65,-2.95c-0.933,0 -1.9,0.967 -2.9,2.9c-0.9,1.767 -1.35,3.2 -1.35,4.3Zm3.35,-3.1c0.333,0 0.667,0.183 1,0.55c0.367,0.367 0.55,0.733 0.55,1.1c-0,0.833 -0.45,1.25 -1.35,1.25c-0.433,0 -0.783,-0.167 -1.05,-0.5c-0.1,-0.067 -0.333,-0.433 -0.7,-1.1c0.8,-0.867 1.317,-1.3 1.55,-1.3Z" style="fill:#f00;"/><path d="M31.85,40.05l2.9,-2.95l-2.9,-3l-2.95,3l2.95,2.95Z" style="fill:#f00;"/><path d="M91.95,39.95l2.95,-2.95l-2.95,-3l-2.95,3l2.95,2.95Z" style="fill:#f00;"/><path d="M52.4,54.1c-0.7,-1.3 -1.417,-1.95 -2.15,-1.95c-0.9,-0 -1.85,0.967 -2.85,2.9c-0.9,1.8 -1.35,3.25 -1.35,4.35c-0,1.367 0.65,2.233 1.95,2.6c1.2,0.167 2.383,0.35 3.55,0.55c-1.4,2.133 -2.85,3.7 -4.35,4.7c-1.733,1.133 -3.75,1.7 -6.05,1.7c-1.267,-0 -3.083,-0.1 -5.45,-0.3c2.233,2.233 4.8,3.35 7.7,3.35c2.533,0 4.7,-1.067 6.5,-3.2c1.267,-1.5 2.483,-3.733 3.65,-6.7l6.45,0c0.767,0 1.75,-0.6 2.95,-1.8c0.833,0.4 1.667,0.783 2.5,1.15c0.967,0.433 1.817,0.65 2.55,0.65c1.5,0 3,-0.533 4.5,-1.6c0.633,0.333 1.25,0.667 1.85,1c0.767,0.4 1.4,0.6 1.9,0.6c0.933,0 1.867,-0.533 2.8,-1.6c1.167,1.067 1.933,1.6 2.3,1.6l4.15,0l0,-5.1l-1.85,0c-2,-0.047 -3,-0.597 -3,-1.65c-0,-0.1 0.067,-0.317 0.2,-0.65c0.1,-0.333 0.15,-0.567 0.15,-0.7c-0,-0.467 -0.117,-1 -0.35,-1.6c-0.5,1.033 -0.983,2.05 -1.45,3.05c-0.733,1.1 -1.6,1.65 -2.6,1.65c-1.267,0 -2.117,-0.367 -2.55,-1.1c0.3,-1.267 0.45,-2.467 0.45,-3.6c-0.7,1.133 -1.417,2.283 -2.15,3.45c-0.8,0.833 -2.067,1.25 -3.8,1.25c-1.5,0 -2.583,-0.233 -3.25,-0.7c-0.767,-0.567 -1.15,-1.6 -1.15,-3.1c-1.2,1.6 -2.183,2.633 -2.95,3.1c-0.7,0.4 -1.733,0.6 -3.1,0.6l-2.7,0l-0,0.2c-0.533,-0.007 -1.083,-0.04 -1.65,-0.1c-0.433,-1 -0.883,-2 -1.35,-3Zm-3.25,1.95c0.767,0.367 1.25,0.683 1.45,0.95c0.2,0.267 0.367,0.833 0.5,1.7c-0.733,-0 -1.617,-0.067 -2.65,-0.2c0,-0.4 -0.067,-0.667 -0.2,-0.8c0.3,-0.6 0.6,-1.15 0.9,-1.65Z"/><path d="M51.95,35.4c0,-0.7 -0.2,-1.317 -0.6,-1.85c-0.467,-0.6 -1.017,-0.9 -1.65,-0.9c-0.867,-0 -1.517,0.383 -1.95,1.15c-0.4,0.667 -0.6,1.467 -0.6,2.4c-0,1.533 0.65,2.3 1.95,2.3c0.8,0 1.467,-0.317 2,-0.95c0.567,-0.633 0.85,-1.35 0.85,-2.15Z"/><path d="M47.75,35.5c0,-0.833 0.367,-1.25 1.1,-1.25c0.333,0 0.75,0.183 1.25,0.55c0.533,0.4 0.8,0.75 0.8,1.05c-0,0.533 -0.467,0.8 -1.4,0.8c-1.167,-0 -1.75,-0.383 -1.75,-1.15Z"/><path d="M72.423,23.048l-5.6,3.7c-0.691,0.457 -0.881,1.388 -0.425,2.079c0.457,0.691 1.388,0.881 2.079,0.425l5.6,-3.7c0.691,-0.457 0.881,-1.388 0.425,-2.079c-0.457,-0.691 -1.388,-0.881 -2.079,-0.425Z"/><path d="M31.573,23.048l-5.6,3.7c-0.691,0.457 -0.881,1.388 -0.425,2.079c0.457,0.691 1.388,0.881 2.079,0.425l5.6,-3.7c0.691,-0.457 0.881,-1.388 0.425,-2.079c-0.457,-0.691 -1.388,-0.881 -2.079,-0.425Z"/><path d="M92.873,21.548l-5.6,3.7c-0.691,0.457 -0.881,1.388 -0.425,2.079c0.457,0.691 1.388,0.881 2.079,0.425l5.6,-3.7c0.691,-0.457 0.881,-1.388 0.425,-2.079c-0.457,-0.691 -1.388,-0.881 -2.079,-0.425Z"/></g></svg>