<?xml version="1.0" encoding="UTF-8" standalone="no"?><!DOCTYPE svg PUBLIC "-//W3C//DTD SVG 1.1//EN" "http://www.w3.org/Graphics/SVG/1.1/DTD/svg11.dtd"><svg width="100%" height="100%" viewBox="0 0 97 99" version="1.1" xmlns="http://www.w3.org/2000/svg" xmlns:xlink="http://www.w3.org/1999/xlink" xml:space="preserve" xmlns:serif="http://www.serif.com/" style="fill-rule:evenodd;clip-rule:evenodd;stroke-linejoin:round;stroke-miterlimit:2;"><g><path d="M47.1,71.6l-2.95,3l2.95,2.95l2.95,-2.95l-2.95,-3Z" style="fill:#f00;"/><path d="M52.95,61.15c0.567,-1.5 1.017,-3.133 1.35,-4.9c-2.3,0 -4.45,-0.4 -6.45,-1.2c-0.9,-0.367 -2.3,-1.117 -4.2,-2.25c-1.367,-0.8 -2.417,-1.2 -3.15,-1.2c-1.367,0 -2.483,0.7 -3.35,2.1c-0.533,0.833 -1.05,2.15 -1.55,3.95c0.567,-0.3 1.117,-0.583 1.65,-0.85c0.7,-0.367 1.283,-0.55 1.75,-0.55c0.7,0 1.717,0.35 3.05,1.05c0.033,0.033 0.983,0.6 2.85,1.7c-1.333,1.1 -2.467,1.833 -3.4,2.2c-0.833,0.333 -1.867,0.5 -3.1,0.5c-0.333,0 -1,-0.017 -2,-0.05c-0.276,-0.009 -0.543,-0.026 -0.8,-0.05l0,5.1l1.8,0c1.4,0 2.733,-0.367 4,-1.1c0.467,-0.267 1.467,-1.017 3,-2.25c1.133,-0.933 2.133,-1.517 3,-1.75c0.733,-0.2 1.65,-0.333 2.75,-0.4c0.933,-0.033 1.867,-0.05 2.8,-0.05Z" style="fill:#f00;"/><path d="M33.8,61.6l-0,0.05c0.404,0.016 0.904,-0.001 1.5,-0.05l-1.5,0Z" style="fill:#f00;"/><path d="M82.7,49.25c-0.7,-0.533 -1.167,-0.8 -1.4,-0.8c-1.1,0 -2.067,0.867 -2.9,2.6c-0.733,1.5 -1.1,2.883 -1.1,4.15c-0,1.033 0.267,1.883 0.8,2.55c0.533,0.733 1.3,1.1 2.3,1.1c1.033,0 2.133,-0.467 3.3,-1.4c0.733,1.233 1.1,2.067 1.1,2.5c-0,0.4 -0.633,0.783 -1.9,1.15c-1.1,0.333 -1.933,0.5 -2.5,0.5l-7.9,0l0,5.1l5.95,0c1.933,0 3.7,-0.833 5.3,-2.5c1.567,-1.667 2.35,-3.5 2.35,-5.5c0,-4.4 -1.133,-7.55 -3.4,-9.45Zm-0.3,5.3l0,0.65c-0.867,0.3 -1.45,0.45 -1.75,0.45c-0.233,-0 -0.533,-0.083 -0.9,-0.25l-0.85,-0.4c0.2,-0.8 0.383,-1.3 0.55,-1.5c0.133,-0.2 0.533,-0.517 1.2,-0.95c0.7,0.5 1.283,1.167 1.75,2Z" style="fill:#f00;"/><path d="M84,41.6l-2.95,-3l-2.95,3l2.95,2.95l2.95,-2.95Z" style="fill:#f00;"/><path d="M28.25,44.85c-0.8,2.833 -1.183,4.333 -1.15,4.5l1.75,9.8c-0.7,0.867 -1.867,1.617 -3.5,2.25c-1.5,0.533 -2.883,0.8 -4.15,0.8c-1.333,0 -2.583,-0.6 -3.75,-1.8l0,5.15c0,1.033 1.117,1.55 3.35,1.55c2.467,0 4.217,-0.417 5.25,-1.25c0.5,-0.4 1.6,-1.85 3.3,-4.35c0.333,1.1 0.667,2.183 1,3.25c0.6,1.3 1.35,1.95 2.25,1.95l3,0l0,-5.1c-0.102,0.007 -0.202,0.007 -0.3,0c-0.596,0.049 -1.096,0.066 -1.5,0.05c-0.454,-0.035 -0.787,-0.102 -1,-0.2c-0.767,-0.367 -1.7,-2.933 -2.8,-7.7c-0.567,-2.333 -1.15,-5.3 -1.75,-8.9Z"/><path d="M10.55,35.4c-1.767,2.367 -2.65,3.783 -2.65,4.25l0.7,27.1c1.467,-1.233 2.2,-4.517 2.2,-9.85l-0.25,-21.5Z"/><path d="M52.75,73.25c2.233,2.233 4.8,3.35 7.7,3.35c2.533,0 4.7,-1.067 6.5,-3.2c1.267,-1.5 2.483,-3.733 3.65,-6.7l1.9,0l-0,-4.9c-0.549,-0.005 -1.115,-0.039 -1.7,-0.1c-0.433,-1 -0.883,-2 -1.35,-3c-0.7,-1.3 -1.417,-1.95 -2.15,-1.95c-0.9,0 -1.85,0.967 -2.85,2.9c-0.9,1.8 -1.35,3.25 -1.35,4.35c0,1.367 0.65,2.233 1.95,2.6c1.2,0.167 2.383,0.35 3.55,0.55c-1.4,2.133 -2.85,3.7 -4.35,4.7c-1.733,1.133 -3.75,1.7 -6.05,1.7c-1.267,-0 -3.083,-0.1 -5.45,-0.3Zm14.9,-11.65c0.2,0.267 0.367,0.833 0.5,1.7c-0.733,-0 -1.617,-0.067 -2.65,-0.2c-0,-0.4 -0.067,-0.667 -0.2,-0.8c0.3,-0.6 0.6,-1.15 0.9,-1.65c0.767,0.367 1.25,0.683 1.45,0.95Z"/><path d="M66.623,32.298l-5.6,3.7c-0.691,0.457 -0.881,1.388 -0.425,2.079c0.457,0.691 1.388,0.881 2.079,0.425l5.6,-3.7c0.691,-0.457 0.881,-1.388 0.425,-2.079c-0.457,-0.691 -1.388,-0.881 -2.079,-0.425Z"/><path d="M40.981,28.643l-5.6,3.65c-0.694,0.452 -0.89,1.383 -0.438,2.076c0.452,0.694 1.383,0.89 2.076,0.438l5.6,-3.65c0.694,-0.452 0.89,-1.383 0.438,-2.076c-0.452,-0.694 -1.383,-0.89 -2.076,-0.438Z"/><path d="M20.581,28.643l-5.6,3.65c-0.694,0.452 -0.89,1.383 -0.438,2.076c0.452,0.694 1.383,0.89 2.076,0.438l5.6,-3.65c0.694,-0.452 0.89,-1.383 0.438,-2.076c-0.452,-0.694 -1.383,-0.89 -2.076,-0.438Z"/><path d="M81.481,26.593l-5.6,3.65c-0.694,0.452 -0.89,1.383 -0.438,2.076c0.452,0.694 1.383,0.89 2.076,0.438l5.6,-3.65c0.694,-0.452 0.89,-1.383 0.438,-2.076c-0.452,-0.694 -1.383,-0.89 -2.076,-0.438Z"/></g></svg>