<?xml version="1.0" encoding="UTF-8" standalone="no"?><!DOCTYPE svg PUBLIC "-//W3C//DTD SVG 1.1//EN" "http://www.w3.org/Graphics/SVG/1.1/DTD/svg11.dtd"><svg width="100%" height="100%" viewBox="0 0 54 95" version="1.1" xmlns="http://www.w3.org/2000/svg" xmlns:xlink="http://www.w3.org/1999/xlink" xml:space="preserve" xmlns:serif="http://www.serif.com/" style="fill-rule:evenodd;clip-rule:evenodd;stroke-linejoin:round;stroke-miterlimit:2;"><g><path d="M35.8,51c-0,1.033 0.267,1.883 0.8,2.55c0.533,0.733 1.3,1.1 2.3,1.1c1.033,-0 2.133,-0.467 3.3,-1.4c0.733,1.233 1.1,2.067 1.1,2.5c-0,0.4 -0.633,0.783 -1.9,1.15c-1.1,0.333 -1.933,0.5 -2.5,0.5l-7.9,-0l0,5.1l5.95,0c1.933,0 3.7,-0.833 5.3,-2.5c1.567,-1.667 2.35,-3.5 2.35,-5.5c0,-4.4 -1.133,-7.55 -3.4,-9.45c-0.7,-0.533 -1.167,-0.8 -1.4,-0.8c-1.1,0 -2.067,0.867 -2.9,2.6c-0.733,1.5 -1.1,2.883 -1.1,4.15Zm1.6,-0.2c0.2,-0.8 0.383,-1.3 0.55,-1.5c0.133,-0.2 0.533,-0.517 1.2,-0.95c0.7,0.5 1.283,1.167 1.75,2l-0,0.65c-0.867,0.3 -1.45,0.45 -1.75,0.45c-0.233,-0 -0.533,-0.083 -0.9,-0.25l-0.85,-0.4Z" style="fill:#f00;"/><path d="M42.5,37.4l-2.95,-3l-2.95,3l2.95,2.95l2.95,-2.95Z" style="fill:#f00;"/><path d="M31.1,66.8c0,-1.1 -1.067,-1.867 -3.2,-2.3c-1.467,-0.233 -2.933,-0.467 -4.4,-0.7c0.494,-0.756 2.994,-1.189 7.5,-1.3l0,-5.1l-1.4,-0c-2.2,-0 -4.133,0.65 -5.8,1.95c-1.867,1.433 -2.8,3.233 -2.8,5.4c0,0.967 0.5,1.683 1.5,2.15c0.567,0.267 1.583,0.5 3.05,0.7c1.4,0.2 2.3,0.433 2.7,0.7c-0.433,0.867 -2.183,1.65 -5.25,2.35c-2.533,0.6 -4.583,0.9 -6.15,0.9c-2.633,0 -4.633,-0.267 -6,-0.8c-2.167,-0.833 -3.25,-2.367 -3.25,-4.6c0,-0.933 0.333,-2.15 1,-3.65c0.833,-1.8 1.317,-3 1.45,-3.6c-1.167,0.767 -2.3,2.133 -3.4,4.1c-1.1,2 -1.65,3.683 -1.65,5.05c0,2.667 1.15,4.65 3.45,5.95c1.867,1.067 4.217,1.6 7.05,1.6c6.4,0 11.133,-1.983 14.2,-5.95c0.933,-1.233 1.4,-2.183 1.4,-2.85Z"/><path d="M41.473,70.298l-5.6,3.7c-0.691,0.457 -0.881,1.388 -0.425,2.079c0.457,0.691 1.388,0.881 2.079,0.425l5.6,-3.7c0.691,-0.457 0.881,-1.388 0.425,-2.079c-0.457,-0.691 -1.388,-0.881 -2.079,-0.425Z"/></g></svg>