<?xml version="1.0" encoding="UTF-8" standalone="no"?><!DOCTYPE svg PUBLIC "-//W3C//DTD SVG 1.1//EN" "http://www.w3.org/Graphics/SVG/1.1/DTD/svg11.dtd"><svg width="100%" height="100%" viewBox="0 0 53 94" version="1.1" xmlns="http://www.w3.org/2000/svg" xmlns:xlink="http://www.w3.org/1999/xlink" xml:space="preserve" xmlns:serif="http://www.serif.com/" style="fill-rule:evenodd;clip-rule:evenodd;stroke-linejoin:round;stroke-miterlimit:2;"><g><path d="M33.95,56.25l0,0.1c0.801,-0.057 1.485,-0.09 2.05,-0.1l-2.05,0Z" style="fill:#f00;"/><path d="M44.15,43.9c-0.7,-0.533 -1.167,-0.8 -1.4,-0.8c-1.1,-0 -2.067,0.867 -2.9,2.6c-0.733,1.5 -1.1,2.883 -1.1,4.15c0,1.033 0.267,1.883 0.8,2.55c0.533,0.733 1.3,1.1 2.3,1.1c1.033,0 2.133,-0.467 3.3,-1.4c0.733,1.233 1.1,2.067 1.1,2.5c0,0.4 -0.633,0.783 -1.9,1.15c-1.1,0.333 -1.933,0.5 -2.5,0.5l-5.55,0l-0,5.1l3.6,-0c1.933,-0 3.7,-0.833 5.3,-2.5c1.567,-1.667 2.35,-3.5 2.35,-5.5c-0,-4.4 -1.133,-7.55 -3.4,-9.45Zm-3.25,4.25c0.133,-0.2 0.533,-0.517 1.2,-0.95c0.7,0.5 1.283,1.167 1.75,2l0,0.65c-0.867,0.3 -1.45,0.45 -1.75,0.45c-0.233,0 -0.533,-0.083 -0.9,-0.25l-0.85,-0.4c0.2,-0.8 0.383,-1.3 0.55,-1.5Z" style="fill:#f00;"/><path d="M39.55,36.25l2.95,2.95l2.95,-2.95l-2.95,-3l-2.95,3Z" style="fill:#f00;"/><path d="M25,71.4l2.55,-2.6l-2.55,-2.65l-2.6,2.6l2.6,2.65Z"/><path d="M30.1,71.4l2.65,-2.6l-2.65,-2.6l-2.55,2.6l2.55,2.6Z"/><path d="M11.05,45.15l0.3,3.4c-2.467,1.333 -4.25,2.55 -5.35,3.65c-1.567,1.633 -2.35,3.583 -2.35,5.85c-0,0.833 0.917,1.25 2.75,1.25c1.7,0 2.917,-0.15 3.65,-0.45c0.933,-0.433 1.883,-1.333 2.85,-2.7c0.4,1.1 0.817,2.2 1.25,3.3c0.633,1.267 1.467,1.9 2.5,1.9l6.25,0c1,0 1.8,-0.367 2.4,-1.1c0.067,-0.1 0.533,-0.9 1.4,-2.4c0.433,0.767 1.05,1.517 1.85,2.25c0.933,0.833 1.75,1.25 2.45,1.25l5.3,0l-0,-5.1l-0.3,0c-0.565,0.01 -1.249,0.043 -2.05,0.1l-0.05,0c-1,0.033 -1.683,0.05 -2.05,0.05c-1.3,0 -2.217,-0.267 -2.75,-0.8c-0.667,-0.633 -1.033,-1.817 -1.1,-3.55c-1.167,1.967 -1.967,3.15 -2.4,3.55c-0.533,0.5 -1.4,0.75 -2.6,0.75c-0.267,0 -0.9,-0.017 -1.9,-0.05c-0.118,-0.004 -0.235,-0.004 -0.35,0l-0,-0.05c-2.667,0 -4.183,-0.083 -4.55,-0.25c-1.067,-0.467 -1.95,-2.55 -2.65,-6.25c-0.567,-2.9 -0.85,-5.35 -0.85,-7.35c-1.1,1.433 -1.65,2.35 -1.65,2.75Zm0.5,5.85c0.3,1.133 0.45,1.8 0.45,2c-0,0.3 -0.433,0.567 -1.3,0.8c-0.767,0.2 -1.367,0.3 -1.8,0.3c-0.5,0 -1.15,-0.133 -1.95,-0.4c1.667,-1.167 3.2,-2.067 4.6,-2.7Z"/><path d="M44.131,68.393l-5.6,3.65c-0.694,0.452 -0.89,1.383 -0.438,2.076c0.452,0.694 1.383,0.89 2.076,0.438l5.6,-3.65c0.694,-0.452 0.89,-1.383 0.438,-2.076c-0.452,-0.694 -1.383,-0.89 -2.076,-0.438Z"/><path d="M9.678,67.945l-5.65,3.7c-0.692,0.454 -0.886,1.384 -0.433,2.077c0.454,0.692 1.384,0.886 2.077,0.433l5.65,-3.7c0.692,-0.454 0.886,-1.384 0.433,-2.077c-0.454,-0.692 -1.384,-0.886 -2.077,-0.433Z"/></g></svg>