<?xml version="1.0" encoding="UTF-8" standalone="no"?><!DOCTYPE svg PUBLIC "-//W3C//DTD SVG 1.1//EN" "http://www.w3.org/Graphics/SVG/1.1/DTD/svg11.dtd"><svg width="100%" height="100%" viewBox="0 0 78 99" version="1.1" xmlns="http://www.w3.org/2000/svg" xmlns:xlink="http://www.w3.org/1999/xlink" xml:space="preserve" xmlns:serif="http://www.serif.com/" style="fill-rule:evenodd;clip-rule:evenodd;stroke-linejoin:round;stroke-miterlimit:2;"><g><path d="M55.45,61.6l0,0.1c0.801,-0.057 1.485,-0.09 2.05,-0.1l-2.05,0Z" style="fill:#f00;"/><path d="M65.65,49.25c-0.7,-0.533 -1.167,-0.8 -1.4,-0.8c-1.1,0 -2.067,0.867 -2.9,2.6c-0.733,1.5 -1.1,2.883 -1.1,4.15c0,1.033 0.267,1.883 0.8,2.55c0.533,0.733 1.3,1.1 2.3,1.1c1.033,0 2.133,-0.467 3.3,-1.4c0.733,1.233 1.1,2.067 1.1,2.5c0,0.4 -0.633,0.783 -1.9,1.15c-1.1,0.333 -1.933,0.5 -2.5,0.5l-5.55,0l-0,5.1l3.6,0c1.933,0 3.7,-0.833 5.3,-2.5c1.567,-1.667 2.35,-3.5 2.35,-5.5c-0,-4.4 -1.133,-7.55 -3.4,-9.45Zm-0.3,5.95c-0.867,0.3 -1.45,0.45 -1.75,0.45c-0.233,-0 -0.533,-0.083 -0.9,-0.25l-0.85,-0.4c0.2,-0.8 0.383,-1.3 0.55,-1.5c0.133,-0.2 0.533,-0.517 1.2,-0.95c0.7,0.5 1.283,1.167 1.75,2l0,0.65Z" style="fill:#f00;"/><path d="M66.95,41.6l-2.95,-3l-2.95,3l2.95,2.95l2.95,-2.95Z" style="fill:#f00;"/><path d="M43.9,74.1l2.6,2.65l2.55,-2.6l-2.55,-2.65l-2.6,2.6Z"/><path d="M51.6,76.75l2.65,-2.6l-2.65,-2.6l-2.55,2.6l2.55,2.6Z"/><path d="M14.2,37.8c-0.4,0.5 -0.6,1.183 -0.6,2.05c0,6.867 0.05,11.267 0.15,13.2c0.233,6.633 0.867,10.633 1.9,12c0.833,1.1 2,1.65 3.5,1.65l7.8,0c0,1.9 0.45,3.867 1.35,5.9c1.1,2.533 2.483,3.8 4.15,3.8c1.233,-0 2.217,-0.85 2.95,-2.55c0.533,-1.333 0.8,-2.75 0.8,-4.25c0,-0.4 -0.033,-0.917 -0.1,-1.55c-0.067,-0.8 -0.117,-1.333 -0.15,-1.6c1.233,0.233 2.35,0.35 3.35,0.35c0.552,-0 1.069,-0.033 1.55,-0.1l3.55,0c1,0 1.8,-0.367 2.4,-1.1c0.067,-0.1 0.533,-0.9 1.4,-2.4c0.433,0.767 1.05,1.517 1.85,2.25c0.933,0.833 1.75,1.25 2.45,1.25l5.3,0l-0,-5.1l-0.3,-0c-0.565,0.01 -1.249,0.043 -2.05,0.1l-0.05,0c-1,0.033 -1.683,0.05 -2.05,0.05c-1.3,-0 -2.217,-0.267 -2.75,-0.8c-0.667,-0.633 -1.033,-1.817 -1.1,-3.55c-1.167,1.967 -1.967,3.15 -2.4,3.55c-0.533,0.5 -1.4,0.75 -2.6,0.75c-0.267,0 -0.9,-0.017 -1.9,-0.05c-0.153,-0.005 -0.303,-0.022 -0.45,-0.05l-2.2,-0l0,0.1c-0.219,0.016 -0.452,0.033 -0.7,0.05c-1.5,0.1 -2.633,0.15 -3.4,0.15c-1.233,-0 -2.15,-0.1 -2.75,-0.3c1,-1.033 1.85,-2.183 2.55,-3.45c0.8,-1.5 1.2,-2.867 1.2,-4.1c0,-2.533 -0.583,-4.267 -1.75,-5.2c-0.933,-0 -1.917,1.033 -2.95,3.1c-0.867,1.933 -1.733,3.883 -2.6,5.85c-1.033,2.167 -2.05,3.35 -3.05,3.55c-0.697,0.129 -1.93,0.212 -3.7,0.25l-0.3,-0c-2.863,-0.084 -4.746,-0.734 -5.65,-1.95c-0.8,-1.1 -1.2,-3.4 -1.2,-6.9l-0,-16.5c-0.5,0.533 -0.983,1.05 -1.45,1.55Zm16.45,32.4c-0.767,-0.933 -1.267,-2.033 -1.5,-3.3c3.8,0.933 5.7,2.283 5.7,4.05c0,0.167 -0.15,0.367 -0.45,0.6c-0.333,0.2 -0.583,0.3 -0.75,0.3c-1.167,-0 -2.167,-0.55 -3,-1.65Zm-0.65,-9.8c0.9,-1.933 1.4,-3.017 1.5,-3.25c0.567,-1.1 1.25,-2.05 2.05,-2.85c0.733,0.733 1.1,1.4 1.1,2c-0,1.3 -0.483,2.283 -1.45,2.95c-0.667,0.467 -1.733,0.85 -3.2,1.15Z"/><path d="M65.323,76.098l-5.6,3.7c-0.691,0.457 -0.881,1.388 -0.425,2.079c0.457,0.691 1.388,0.881 2.079,0.425l5.6,-3.7c0.691,-0.457 0.881,-1.388 0.425,-2.079c-0.457,-0.691 -1.388,-0.881 -2.079,-0.425Z"/><path d="M27.286,28.64l-5.65,3.65c-0.695,0.449 -0.895,1.379 -0.446,2.074c0.449,0.695 1.379,0.895 2.074,0.446l5.65,-3.65c0.695,-0.449 0.895,-1.379 0.446,-2.074c-0.449,-0.695 -1.379,-0.895 -2.074,-0.446Z"/></g></svg>