<?xml version="1.0" encoding="UTF-8" standalone="no"?><!DOCTYPE svg PUBLIC "-//W3C//DTD SVG 1.1//EN" "http://www.w3.org/Graphics/SVG/1.1/DTD/svg11.dtd"><svg width="100%" height="100%" viewBox="0 0 65 80" version="1.1" xmlns="http://www.w3.org/2000/svg" xmlns:xlink="http://www.w3.org/1999/xlink" xml:space="preserve" xmlns:serif="http://www.serif.com/" style="fill-rule:evenodd;clip-rule:evenodd;stroke-linejoin:round;stroke-miterlimit:2;"><g><path d="M23,48.05c-0.433,-0.8 -1.25,-1.817 -2.45,-3.05l-1.1,4.3c0.6,0.7 1.217,1.417 1.85,2.15c0.833,1.033 1.25,1.817 1.25,2.35c-0,2.7 -1.933,5.033 -5.8,7c-3.3,1.667 -6.433,2.5 -9.4,2.5c2.4,1.633 4.783,2.45 7.15,2.45c2.7,0 5,-1.667 6.9,-5c1.633,-2.933 2.45,-5.9 2.45,-8.9c0,-1.467 -0.283,-2.733 -0.85,-3.8Z"/><path d="M32.25,41.9c0,3.5 0.4,5.8 1.2,6.9c0.874,1.175 2.674,1.808 5.4,1.9c1.967,-0.051 2.95,-0.335 2.95,-0.85l-0.5,-2.5c-0,-0.767 0.233,-1.7 0.7,-2.8c0.467,-1.067 0.967,-1.883 1.5,-2.45c-0.033,-0.133 -0.15,-0.317 -0.35,-0.55c-0.2,-0.233 -0.3,-0.433 -0.3,-0.6c0,-0.5 0.267,-1.383 0.8,-2.65c0.567,-1.4 1.033,-2.1 1.4,-2.1c2.1,1.533 4.033,3.183 5.8,4.95c2.6,2.6 3.9,4.683 3.9,6.25c0,2.233 -0.133,3.683 -0.4,4.35c-0.5,1.2 -1.667,1.8 -3.5,1.8c-1.133,0 -2.967,-0.3 -5.5,-0.9c-1.967,2.133 -3.6,3.2 -4.9,3.2l-4.7,0c-1.5,0 -2.667,-0.55 -3.5,-1.65c-1.033,-1.367 -1.667,-5.367 -1.9,-12c-0.1,-1.933 -0.15,-6.333 -0.15,-13.2c0,-0.867 0.2,-1.55 0.6,-2.05c0.467,-0.5 0.95,-1.017 1.45,-1.55l-0,16.5Zm16.3,2.65c0.767,0.4 1.667,1.133 2.7,2.2c1.1,1.167 1.75,2.1 1.95,2.8l-0.45,0.45c-0.333,-0.233 -1.033,-0.433 -2.1,-0.6c-0.767,-0.1 -1.533,-0.2 -2.3,-0.3c0.433,-1.133 0.65,-2.033 0.65,-2.7c-0,-0.6 -0.15,-1.217 -0.45,-1.85Zm-5.7,2.5c0.2,-0.667 0.517,-1.283 0.95,-1.85c0.8,-0.967 1.217,-1.483 1.25,-1.55c0.6,0.233 1.133,0.617 1.6,1.15c0.567,0.6 0.85,1.2 0.85,1.8c-0,0.333 -0.283,0.65 -0.85,0.95c-0.467,0.267 -0.9,0.4 -1.3,0.4c-0.567,-0 -1.4,-0.3 -2.5,-0.9Z"/><path d="M19.637,69.035c-0.053,0.008 -6.059,3.779 -6.113,3.782c-0.023,0.001 -0.047,0.001 -0.071,0.001c-0.484,-0.003 -0.958,-0.239 -1.244,-0.673c-0.457,-0.691 -0.266,-1.622 0.424,-2.078l5.6,-3.7c0.691,-0.457 1.622,-0.266 2.079,0.424c0.456,0.691 0.266,1.622 -0.425,2.079l-0.25,0.165c0.559,-0.084 1.143,0.154 1.475,0.656c0.456,0.691 0.266,1.622 -0.425,2.079l-5.6,3.7c-0.691,0.456 -1.622,0.266 -2.078,-0.425c-0.457,-0.691 -0.266,-1.622 0.424,-2.078l6.209,-3.932l-0.005,0Z"/><path d="M42.823,13.948l-5.6,3.7c-0.691,0.457 -0.881,1.388 -0.425,2.079c0.457,0.691 1.388,0.881 2.079,0.425l5.6,-3.7c0.691,-0.457 0.881,-1.388 0.425,-2.079c-0.457,-0.691 -1.388,-0.881 -2.079,-0.425Z"/></g></svg>