<?xml version="1.0" encoding="UTF-8" standalone="no"?><!DOCTYPE svg PUBLIC "-//W3C//DTD SVG 1.1//EN" "http://www.w3.org/Graphics/SVG/1.1/DTD/svg11.dtd"><svg width="100%" height="100%" viewBox="0 0 90 95" version="1.1" xmlns="http://www.w3.org/2000/svg" xmlns:xlink="http://www.w3.org/1999/xlink" xml:space="preserve" xmlns:serif="http://www.serif.com/" style="fill-rule:evenodd;clip-rule:evenodd;stroke-linejoin:round;stroke-miterlimit:2;"><g><path d="M54.45,67.3l-2.95,3l2.95,2.95l2.95,-2.95l-2.95,-3Z" style="fill:#f00;"/><path d="M44.15,52.45l-0,0.65c0.7,-0.267 1.417,-0.533 2.15,-0.8c0.933,-0.367 1.633,-0.55 2.1,-0.55c1.233,-0 2.817,0.617 4.75,1.85c-1.933,1.5 -3.833,2.483 -5.7,2.95c-1.087,0.245 -2.704,0.395 -4.85,0.45l0,5.1l2.2,0c1.733,0 3.683,-0.6 5.85,-1.8c0.967,-0.533 2.633,-1.65 5,-3.35c1.7,-1.233 2.833,-1.85 3.4,-1.85l0.5,0.25c-0,4.5 1.3,6.75 3.9,6.75l3.3,0l0,-4.95c-0.64,0.033 -1.223,0.05 -1.75,0.05c-3.2,-0 -4.75,-0.683 -4.65,-2.05l0.05,-0.25c1.6,-0.3 2.617,-0.667 3.05,-1.1c0.167,-1.267 0.4,-2.55 0.7,-3.85c-1.333,0.4 -2.65,0.6 -3.95,0.6c-1.733,0 -3.85,-0.55 -6.35,-1.65c-2.467,-1.1 -3.95,-1.65 -4.45,-1.65c-1.267,-0 -2.467,0.55 -3.6,1.65c-1.1,1.033 -1.65,2.217 -1.65,3.55Z" style="fill:#f00;"/><path d="M22.15,54.25c-1.767,-1.2 -3.05,-1.8 -3.85,-1.8c-1.133,-0 -2.117,0.567 -2.95,1.7c-0.7,0.867 -1.217,1.967 -1.55,3.3c0.9,-0.5 1.65,-0.75 2.25,-0.75c0.967,-0 1.9,0.617 2.8,1.85c-2.4,0.433 -4.133,1 -5.2,1.7c-1.567,1.033 -2.35,2.583 -2.35,4.65c-0,0.267 0.017,0.55 0.05,0.85l1.55,17.55c0.6,-0.933 0.9,-2.217 0.9,-3.85l-0.1,-16.3c0,-0.233 0.083,-0.483 0.25,-0.75c0.2,-0.333 0.4,-0.5 0.6,-0.5c3.7,-0 6.017,0.083 6.95,0.25c0.567,0.067 0.95,0.067 1.15,-0c1.467,-3.3 2.2,-4.983 2.2,-5.05c0,-0.667 -0.9,-1.617 -2.7,-2.85Z"/><path d="M38.35,56.412c0.417,0.259 0.817,0.421 1.2,0.488c0.155,0.044 0.655,0.077 1.5,0.1l1.55,0l0,5.1l-1.65,0c-0.4,0 -0.75,0.1 -1.05,0.3c-0.233,2 -1.15,4.167 -2.75,6.5c-1.833,2.667 -3.633,4 -5.4,4c-1.3,-0 -2.667,-0.417 -4.1,-1.25c-1.3,-0.733 -2.433,-1.667 -3.4,-2.8c0.767,0.2 1.533,0.383 2.3,0.55c0.933,0.233 1.683,0.35 2.25,0.35c1.267,0 3.15,-0.9 5.65,-2.7c2.633,-1.9 3.95,-3.45 3.95,-4.65c-0,-0.1 -0.333,-0.683 -1,-1.75c-0.8,-1.267 -1.2,-1.917 -1.2,-1.95c0.4,-0.933 0.683,-2.05 0.85,-3.35l1.3,1.062Z"/><path d="M75.6,71.4l2.6,-2.65l-2.6,-2.6l-2.55,2.65l2.55,2.6Z"/><path d="M70.5,71.4l2.55,-2.6l-2.55,-2.6l-2.6,2.55l2.6,2.65Z"/><path d="M75.45,48.4c-0.767,1.833 -1.383,3.183 -1.85,4.05c0.7,1.433 1.15,2.483 1.35,3.15c-0.756,0.945 -2.823,1.412 -6.2,1.4l-2,0l0,5.1l2,0c2.573,-0.092 4.456,-0.659 5.65,-1.7c1.4,-1.233 2.1,-3.333 2.1,-6.3c0,-0.833 -0.35,-2.733 -1.05,-5.7Z"/><path d="M51.65,31.9c-0.467,-0.6 -1.017,-0.9 -1.65,-0.9c-0.867,-0 -1.517,0.383 -1.95,1.15c-0.4,0.667 -0.6,1.467 -0.6,2.4c0,1.533 0.65,2.3 1.95,2.3c0.8,0 1.467,-0.317 2,-0.95c0.567,-0.633 0.85,-1.35 0.85,-2.15c0,-0.7 -0.2,-1.317 -0.6,-1.85Zm-1.25,1.25c0.533,0.4 0.8,0.75 0.8,1.05c0,0.533 -0.467,0.8 -1.4,0.8c-1.167,0 -1.75,-0.383 -1.75,-1.15c-0,-0.833 0.367,-1.25 1.1,-1.25c0.333,0 0.75,0.183 1.25,0.55Z"/><path d="M18.65,28.25c-0.7,0 -1.317,0.367 -1.85,1.1c-0.467,0.633 -0.7,1.267 -0.7,1.9c0,0.5 0.45,1.033 1.35,1.6c-1.633,1.233 -3.183,2.183 -4.65,2.85c0.5,0.133 0.917,0.2 1.25,0.2c1.2,-0 2.65,-0.867 4.35,-2.6c0.667,0.4 1.25,0.717 1.75,0.95l0.15,-1.8c-0.367,-0.233 -0.65,-0.4 -0.85,-0.5c0.467,-0.9 0.7,-1.617 0.7,-2.15c-0,-1.033 -0.5,-1.55 -1.5,-1.55Zm-1.05,1.55c0.767,0.1 1.15,0.45 1.15,1.05c0,0.167 -0.033,0.35 -0.1,0.55c-0.967,-0.433 -1.45,-0.867 -1.45,-1.3c0.067,-0.167 0.2,-0.267 0.4,-0.3Z"/><path d="M36.273,75.248l-5.6,3.7c-0.691,0.457 -0.881,1.388 -0.425,2.079c0.457,0.691 1.388,0.881 2.079,0.425l5.6,-3.7c0.691,-0.457 0.881,-1.388 0.425,-2.079c-0.457,-0.691 -1.388,-0.881 -2.079,-0.425Z"/><path d="M71.523,24.248l-5.6,3.7c-0.691,0.457 -0.881,1.388 -0.425,2.079c0.457,0.691 1.388,0.881 2.079,0.425l5.6,-3.7c0.691,-0.457 0.881,-1.388 0.425,-2.079c-0.457,-0.691 -1.388,-0.881 -2.079,-0.425Z"/></g></svg>