<?xml version="1.0" encoding="UTF-8" standalone="no"?><!DOCTYPE svg PUBLIC "-//W3C//DTD SVG 1.1//EN" "http://www.w3.org/Graphics/SVG/1.1/DTD/svg11.dtd"><svg width="100%" height="100%" viewBox="0 0 53 105" version="1.1" xmlns="http://www.w3.org/2000/svg" xmlns:xlink="http://www.w3.org/1999/xlink" xml:space="preserve" xmlns:serif="http://www.serif.com/" style="fill-rule:evenodd;clip-rule:evenodd;stroke-linejoin:round;stroke-miterlimit:2;"><g><path d="M48.8,41l0.85,-4.3c-3.067,0.633 -6.717,2.35 -10.95,5.15c-4.9,3.233 -7.35,6.133 -7.35,8.7c0,1.533 0.767,2.867 2.3,4c1.4,0.833 2.817,1.683 4.25,2.55c1.533,1.033 2.3,2.2 2.3,3.5c0,1.933 -2.617,2.9 -7.85,2.9l-0.85,0l0,-0.1c-2.833,-0 -4.75,-0.683 -5.75,-2.05c-0.933,-1.233 -1.683,-4.967 -2.25,-11.2c-0.233,-4.1 -0.5,-8.2 -0.8,-12.3c-0.3,0.267 -0.817,0.95 -1.55,2.05c-0.733,1.167 -1.1,1.9 -1.1,2.2l2,28.75c0.067,1 -0.95,1.867 -3.05,2.6c-1.7,0.6 -3.15,0.9 -4.35,0.9c-1.8,0 -3.267,-0.35 -4.4,-1.05c-1.367,-0.833 -2.05,-2.1 -2.05,-3.8c0,-2.133 0.2,-4.133 0.6,-6c-0.767,0.567 -1.45,1.867 -2.05,3.9c-0.533,1.767 -0.8,3.25 -0.8,4.45c0,2.8 0.433,4.85 1.3,6.15c1.033,1.6 2.85,2.4 5.45,2.4c3.9,-0 6.767,-1.433 8.6,-4.3c1.167,-1.8 2.217,-5.017 3.15,-9.65c0.5,0.467 1,0.917 1.5,1.35c0.6,0.467 1.2,0.7 1.8,0.7l6.95,-0c2.233,-0 4.1,-0.883 5.6,-2.65c1.4,-1.667 2.1,-3.683 2.1,-6.05c-0,-1.7 -0.483,-3.233 -1.45,-4.6c-0.733,-1.033 -1.867,-2.1 -3.4,-3.2c-1.333,-0.867 -2.667,-1.75 -4,-2.65c1.067,-1.067 3.483,-2.567 7.25,-4.5c0.7,-0.367 3.367,-1.65 8,-3.85Z"/><path d="M20.95,30.15l-0.25,0.1c-0.133,0.733 -0.25,1.217 -0.35,1.45c-0.233,0.6 -0.55,0.9 -0.95,0.9c-0.367,0 -0.55,-0.533 -0.55,-1.6l-0.35,0.05c-0.2,0.767 -0.3,1.25 -0.3,1.45c0,0.433 0.083,0.8 0.25,1.1c0.2,0.367 0.5,0.55 0.9,0.55c0.333,-0 0.667,-0.133 1,-0.4c0.3,-0.233 0.467,-0.533 0.5,-0.9c0.267,0.2 0.567,0.3 0.9,0.3c1.033,-0 1.55,-0.817 1.55,-2.45c-0,-0.433 -0.067,-0.9 -0.2,-1.4l-0.35,0.1c0,1.467 -0.333,2.2 -1,2.2c-0.3,0 -0.567,-0.483 -0.8,-1.45Z"/><path d="M33.15,30c-0,0.5 0.45,1.033 1.35,1.6c-1.633,1.233 -3.183,2.183 -4.65,2.85c0.5,0.133 0.917,0.2 1.25,0.2c1.2,-0 2.65,-0.867 4.35,-2.6c0.667,0.4 1.25,0.717 1.75,0.95l0.15,-1.8c-0.367,-0.233 -0.65,-0.4 -0.85,-0.5c0.467,-0.9 0.7,-1.617 0.7,-2.15c0,-1.033 -0.5,-1.55 -1.5,-1.55c-0.7,-0 -1.317,0.367 -1.85,1.1c-0.467,0.633 -0.7,1.267 -0.7,1.9Zm1.1,-1.15c0.067,-0.167 0.2,-0.267 0.4,-0.3c0.767,0.1 1.15,0.45 1.15,1.05c-0,0.167 -0.033,0.35 -0.1,0.55c-0.967,-0.433 -1.45,-0.867 -1.45,-1.3Z"/><path d="M20.878,82.745l-5.65,3.7c-0.692,0.454 -0.886,1.384 -0.433,2.077c0.454,0.692 1.384,0.886 2.077,0.433l5.65,-3.7c0.692,-0.454 0.886,-1.384 0.433,-2.077c-0.454,-0.692 -1.384,-0.886 -2.077,-0.433Z"/></g></svg>