<?xml version="1.0" encoding="UTF-8" standalone="no"?><!DOCTYPE svg PUBLIC "-//W3C//DTD SVG 1.1//EN" "http://www.w3.org/Graphics/SVG/1.1/DTD/svg11.dtd"><svg width="100%" height="100%" viewBox="0 0 76 105" version="1.1" xmlns="http://www.w3.org/2000/svg" xmlns:xlink="http://www.w3.org/1999/xlink" xml:space="preserve" xmlns:serif="http://www.serif.com/" style="fill-rule:evenodd;clip-rule:evenodd;stroke-linejoin:round;stroke-miterlimit:2;"><g><path d="M65.35,42.55c-0,-0.233 -0.383,-0.733 -1.15,-1.5c-0.767,-0.767 -1.15,-1.45 -1.15,-2.05c-0,-0.167 0.067,-0.45 0.2,-0.85c0.133,-0.4 0.183,-0.717 0.15,-0.95l0,-0.6c-1.5,1.033 -2.7,2.8 -3.6,5.3c0.167,0.667 0.7,1.533 1.6,2.6c0.567,3.7 0.85,9.283 0.85,16.75c0,1.467 -1.317,2.167 -3.95,2.1l-0.25,0l-0,-0.05l-2.4,0l0,0.1c-1,0.033 -1.683,0.05 -2.05,0.05c-1.3,-0 -2.217,-0.267 -2.75,-0.8c-0.667,-0.633 -1.033,-1.817 -1.1,-3.55c-1.167,1.967 -1.967,3.15 -2.4,3.55c-0.533,0.5 -1.4,0.75 -2.6,0.75c-0.267,-0 -0.9,-0.017 -1.9,-0.05c-0.223,-0.007 -0.439,-0.024 -0.65,-0.05c-1.367,0 -2.217,-0.017 -2.55,-0.05c-1.233,-0.167 -1.85,-0.6 -1.85,-1.3c-0,-0.3 0.033,-0.7 0.1,-1.2c0.1,-0.533 0.15,-0.933 0.15,-1.2c-0,-0.3 -0.033,-0.583 -0.1,-0.85c-0.533,1 -1.05,2 -1.55,3c-0.767,1.133 -1.617,1.7 -2.55,1.7c-1,-0 -1.85,-0.4 -2.55,-1.2c0.3,-0.867 0.45,-2.033 0.45,-3.5c-0.767,1.167 -1.533,2.35 -2.3,3.55c-0.867,0.933 -2.15,1.4 -3.85,1.4c-1.133,-0 -2.15,-0.367 -3.05,-1.1c-0.833,-0.7 -1.433,-1.6 -1.8,-2.7c-0.9,1.8 -1.633,3.15 -2.2,4.05c1.633,2.8 2.45,5.35 2.45,7.65c0,1.167 -1.15,2.133 -3.45,2.9c-1.833,0.633 -3.483,0.95 -4.95,0.95c-5.167,-0 -7.75,-2.033 -7.75,-6.1c-0,-0.8 0.383,-2.6 1.15,-5.4c-0.867,0.767 -1.583,2.067 -2.15,3.9c-0.467,1.6 -0.7,3.117 -0.7,4.55c0,2.833 0.5,4.9 1.5,6.2c1.133,1.467 3.033,2.2 5.7,2.2c3.933,-0 6.917,-1.233 8.95,-3.7c1.733,-2.067 2.883,-5.167 3.45,-9.3c1,0.567 1.9,0.85 2.7,0.85c1.367,0 2.767,-0.517 4.2,-1.55c0.1,0 0.733,0.25 1.9,0.75c0.867,0.4 1.45,0.6 1.75,0.6c0.967,-0 1.933,-0.533 2.9,-1.6c1.1,1.067 1.9,1.6 2.4,1.6l6.05,-0c1,-0 1.8,-0.367 2.4,-1.1c0.067,-0.1 0.533,-0.9 1.4,-2.4c0.433,0.767 1.05,1.517 1.85,2.25c0.933,0.833 1.75,1.25 2.45,1.25l6.65,-0c1.9,-0 3.283,-1.05 4.15,-3.15c0.6,-1.5 0.9,-3.383 0.9,-5.65l0,-4.75c0,-0.867 -0.067,-2.15 -0.2,-3.85c-0.2,-1.733 -0.3,-3.033 -0.3,-3.9c0,-0.433 0.233,-1.133 0.7,-2.1c0.467,-0.967 0.7,-1.783 0.7,-2.45Z"/><path d="M51.85,78.45l2.65,-2.6l-2.65,-2.6l-2.55,2.6l2.55,2.6Z"/><path d="M49.3,75.85l-2.55,-2.65l-2.6,2.6l2.6,2.65l2.55,-2.6Z"/><path d="M48.4,30.5c-0.867,0 -1.517,0.383 -1.95,1.15c-0.4,0.667 -0.6,1.467 -0.6,2.4c-0,1.533 0.65,2.3 1.95,2.3c0.8,0 1.467,-0.317 2,-0.95c0.567,-0.633 0.85,-1.35 0.85,-2.15c0,-0.7 -0.2,-1.317 -0.6,-1.85c-0.467,-0.6 -1.017,-0.9 -1.65,-0.9Zm-1.95,2.85c0,-0.833 0.367,-1.25 1.1,-1.25c0.333,0 0.75,0.183 1.25,0.55c0.533,0.4 0.8,0.75 0.8,1.05c-0,0.533 -0.467,0.8 -1.4,0.8c-1.167,0 -1.75,-0.383 -1.75,-1.15Z"/><path d="M29.073,28.298l-5.6,3.7c-0.691,0.457 -0.881,1.388 -0.425,2.079c0.457,0.691 1.388,0.881 2.079,0.425l5.6,-3.7c0.691,-0.457 0.881,-1.388 0.425,-2.079c-0.457,-0.691 -1.388,-0.881 -2.079,-0.425Z"/><path d="M62.331,26.693l-5.6,3.65c-0.694,0.452 -0.89,1.383 -0.438,2.076c0.452,0.694 1.383,0.89 2.076,0.438l5.6,-3.65c0.694,-0.452 0.89,-1.383 0.438,-2.076c-0.452,-0.694 -1.383,-0.89 -2.076,-0.438Z"/></g></svg>