<?xml version="1.0" encoding="UTF-8" standalone="no"?><!DOCTYPE svg PUBLIC "-//W3C//DTD SVG 1.1//EN" "http://www.w3.org/Graphics/SVG/1.1/DTD/svg11.dtd"><svg width="100%" height="100%" viewBox="0 0 148 80" version="1.1" xmlns="http://www.w3.org/2000/svg" xmlns:xlink="http://www.w3.org/1999/xlink" xml:space="preserve" xmlns:serif="http://www.serif.com/" style="fill-rule:evenodd;clip-rule:evenodd;stroke-linejoin:round;stroke-miterlimit:2;"><g><path d="M71.35,37.6c-1.1,-0 -2.067,0.867 -2.9,2.6c-0.733,1.5 -1.1,2.883 -1.1,4.15c0,1.033 0.267,1.883 0.8,2.55c0.533,0.733 1.3,1.1 2.3,1.1c1.033,0 2.133,-0.467 3.3,-1.4c0.733,1.233 1.1,2.067 1.1,2.5c0,0.4 -0.633,0.783 -1.9,1.15c-1.1,0.333 -1.933,0.5 -2.5,0.5l-6.4,0l-0,5.1l4.45,0c1.933,0 3.7,-0.833 5.3,-2.5c1.567,-1.667 2.35,-3.5 2.35,-5.5c0,-4.4 -1.133,-7.55 -3.4,-9.45c-0.7,-0.533 -1.167,-0.8 -1.4,-0.8Zm1.1,6.75c-0.867,0.3 -1.45,0.45 -1.75,0.45c-0.233,0 -0.533,-0.083 -0.9,-0.25l-0.85,-0.4c0.2,-0.8 0.383,-1.3 0.55,-1.5c0.133,-0.2 0.533,-0.517 1.2,-0.95c0.7,0.5 1.283,1.167 1.75,2l0,0.65Z" style="fill:#f00;"/><path d="M68.15,30.75l2.95,2.95l2.95,-2.95l-2.95,-3l-2.95,3Z" style="fill:#f00;"/><path d="M44.5,47.85c0,-0.833 -0.35,-2.733 -1.05,-5.7c-0.767,1.833 -1.383,3.183 -1.85,4.05c0.7,1.433 1.15,2.483 1.35,3.15c-0.8,1 -3.067,1.467 -6.8,1.4l-1.4,0l-0,0.05l-0.8,0c-1.067,0 -1.867,-0.167 -2.4,-0.5c-0.467,-0.333 -1.25,-1.2 -2.35,-2.6l-1.95,3.75c1,1.6 1.617,2.633 1.85,3.1c0.5,1.1 0.75,2.25 0.75,3.45c0,1.633 -0.967,2.867 -2.9,3.7c-1.433,0.6 -3.083,0.9 -4.95,0.9c-4.933,0 -7.4,-1.967 -7.4,-5.9c0,-0.7 0.367,-2.45 1.1,-5.25c-0.867,0.433 -1.6,1.683 -2.2,3.75c-0.533,1.7 -0.8,3.183 -0.8,4.45c0,5.2 2.533,7.8 7.6,7.8c3.4,-0 6.15,-1.067 8.25,-3.2c2.133,-2.1 3.2,-4.9 3.2,-8.4l4.75,0c2.701,-0.059 4.667,-0.626 5.9,-1.7c1.4,-1.233 2.1,-3.333 2.1,-6.3Z"/><path d="M61,50.65c-0.767,-0.133 -1.6,-0.65 -2.5,-1.55c-0.167,1.3 -0.45,2.417 -0.85,3.35c-0,0.033 0.4,0.683 1.2,1.95c0.667,1.067 1,1.65 1,1.75c0,1.2 -1.317,2.75 -3.95,4.65c-2.5,1.8 -4.383,2.7 -5.65,2.7c-0.567,-0 -1.317,-0.117 -2.25,-0.35c-0.66,-0.143 -1.326,-0.31 -2,-0.5l0.2,-0.15l-2.6,-2.6l-2.55,2.65l2.55,2.6l2.3,-2.35c0.917,1.047 1.983,1.914 3.2,2.6c1.433,0.833 2.8,1.25 4.1,1.25c1.767,-0 3.567,-1.333 5.4,-4c1.6,-2.333 2.517,-4.5 2.75,-6.5c0.3,-0.2 0.65,-0.3 1.05,-0.3l1.65,0l-0,-5.1l-1.5,-0c-0.876,-0.022 -1.393,-0.055 -1.55,-0.1Z"/><path d="M35.9,62.5l2.6,2.65l2.55,-2.6l-2.55,-2.6l-2.6,2.55Z"/><path d="M122.9,34.25c-0.333,-5.033 -0.533,-8.367 -0.6,-10c-1.8,1.433 -2.7,2.967 -2.7,4.6c-0,2 0.2,5.033 0.6,9.1c0.367,4.033 0.55,7.05 0.55,9.05c0,1.667 -0.517,2.75 -1.55,3.25c-0.563,0.281 -1.546,0.448 -2.95,0.5c-1.123,-0.033 -1.873,-0.1 -2.25,-0.2c-0.067,0 -3.2,-2.2 -9.4,-6.6c-6.533,-4.567 -10.4,-7.217 -11.6,-7.95c1.933,-1.733 4.7,-3.517 8.3,-5.35c2.967,-1.5 5.917,-3.017 8.85,-4.55c0.433,-1.8 0.733,-3.167 0.9,-4.1c-1.867,0.667 -5.167,2.3 -9.9,4.9c-5.2,2.9 -8.05,4.883 -8.55,5.95c-0.433,0.867 -0.65,2.133 -0.65,3.8c0,1.5 0.733,2.933 2.2,4.3c1.4,1.067 2.783,2.117 4.15,3.15c1.467,1.167 2.2,2.267 2.2,3.3c0,2.267 -2.6,3.4 -7.8,3.4l-0.6,0l-0,-0.05c-3.233,0 -5.333,-0.65 -6.3,-1.95c-0.8,-1.1 -1.2,-3.4 -1.2,-6.9l-0,-16.5c-0.5,0.533 -0.983,1.05 -1.45,1.55c-0.4,0.5 -0.6,1.183 -0.6,2.05c-0,6.867 0.05,11.267 0.15,13.2c0.233,6.633 0.867,10.633 1.9,12c0.833,1.1 2,1.65 3.5,1.65l6.7,0c2.367,0 4.233,-1.117 5.6,-3.35c0.8,-1.267 1.65,-3.45 2.55,-6.55c6.233,6.6 9.833,9.9 10.8,9.9l4.35,0c0.867,0 1.667,-0.583 2.4,-1.75c1.167,-1.8 1.767,-2.717 1.8,-2.75c0.5,0.967 0.983,1.933 1.45,2.9c0.7,1.067 1.533,1.6 2.5,1.6l4.8,0c1.9,0 3.283,-1.05 4.15,-3.15c0.6,-1.5 0.9,-3.383 0.9,-5.65l-0,-4.75c-0,-0.867 -0.067,-2.15 -0.2,-3.85c-0.2,-1.733 -0.3,-3.033 -0.3,-3.9c-0,-0.433 0.233,-1.133 0.7,-2.1c0.467,-0.967 0.7,-1.783 0.7,-2.45c0,-0.233 -0.383,-0.733 -1.15,-1.5c-0.767,-0.767 -1.15,-1.45 -1.15,-2.05c0,-0.167 0.067,-0.45 0.2,-0.85c0.133,-0.4 0.183,-0.717 0.15,-0.95l-0,-0.6c-1.5,1.033 -2.7,2.8 -3.6,5.3c0.167,0.667 0.7,1.533 1.6,2.6c0.567,3.7 0.85,9.283 0.85,16.75c0,1.467 -1.317,2.167 -3.95,2.1l-1.05,-0.05c-2.033,0 -3.483,-0.6 -4.35,-1.8c-0.767,-1.033 -1.15,-2.633 -1.15,-4.8c0,-2.467 -0.167,-5.767 -0.5,-9.9Z"/><path d="M25.1,43.55l-2.95,-3l-2.95,3l2.95,2.95l2.95,-2.95Z"/><path d="M120.95,14.6c-0.867,-0 -1.517,0.383 -1.95,1.15c-0.4,0.667 -0.6,1.467 -0.6,2.4c0,1.533 0.65,2.3 1.95,2.3c0.8,-0 1.467,-0.317 2,-0.95c0.567,-0.633 0.85,-1.35 0.85,-2.15c0,-0.7 -0.2,-1.317 -0.6,-1.85c-0.467,-0.6 -1.017,-0.9 -1.65,-0.9Zm-0.85,1.6c0.333,-0 0.75,0.183 1.25,0.55c0.533,0.4 0.8,0.75 0.8,1.05c0,0.533 -0.467,0.8 -1.4,0.8c-1.167,-0 -1.75,-0.383 -1.75,-1.15c0,-0.833 0.367,-1.25 1.1,-1.25Z"/><path d="M57.973,68.748l-5.6,3.7c-0.691,0.457 -0.881,1.388 -0.425,2.079c0.457,0.691 1.388,0.881 2.079,0.425l5.6,-3.7c0.691,-0.457 0.881,-1.388 0.425,-2.079c-0.457,-0.691 -1.388,-0.881 -2.079,-0.425Z"/><path d="M135.273,62.998l-5.6,3.7c-0.691,0.457 -0.881,1.388 -0.425,2.079c0.457,0.691 1.388,0.881 2.079,0.425l5.6,-3.7c0.691,-0.457 0.881,-1.388 0.425,-2.079c-0.457,-0.691 -1.388,-0.881 -2.079,-0.425Z"/><path d="M72.773,62.998l-5.6,3.7c-0.691,0.457 -0.881,1.388 -0.425,2.079c0.457,0.691 1.388,0.881 2.079,0.425l5.6,-3.7c0.691,-0.457 0.881,-1.388 0.425,-2.079c-0.457,-0.691 -1.388,-0.881 -2.079,-0.425Z"/><path d="M23.623,17.648l-5.6,3.7c-0.691,0.457 -0.881,1.388 -0.425,2.079c0.457,0.691 1.388,0.881 2.079,0.425l5.6,-3.7c0.691,-0.457 0.881,-1.388 0.425,-2.079c-0.457,-0.691 -1.388,-0.881 -2.079,-0.425Z"/><path d="M94.173,13.548l-5.6,3.7c-0.691,0.457 -0.881,1.388 -0.425,2.079c0.457,0.691 1.388,0.881 2.079,0.425l5.6,-3.7c0.691,-0.457 0.881,-1.388 0.425,-2.079c-0.457,-0.691 -1.388,-0.881 -2.079,-0.425Z"/></g></svg>