<?xml version="1.0" encoding="UTF-8" standalone="no"?><!DOCTYPE svg PUBLIC "-//W3C//DTD SVG 1.1//EN" "http://www.w3.org/Graphics/SVG/1.1/DTD/svg11.dtd"><svg width="100%" height="100%" viewBox="0 0 50 105" version="1.1" xmlns="http://www.w3.org/2000/svg" xmlns:xlink="http://www.w3.org/1999/xlink" xml:space="preserve" xmlns:serif="http://www.serif.com/" style="fill-rule:evenodd;clip-rule:evenodd;stroke-linejoin:round;stroke-miterlimit:2;"><g><path d="M30.25,56.6c0,-2.467 -0.167,-5.767 -0.5,-9.9c-0.333,-5.033 -0.533,-8.367 -0.6,-10c-1.8,1.433 -2.7,2.967 -2.7,4.6c0,2 0.2,5.033 0.6,9.1c0.367,4.033 0.55,7.05 0.55,9.05c0,1.667 -0.517,2.75 -1.55,3.25c-0.577,0.289 -1.594,0.455 -3.05,0.5c-1.803,-0.032 -2.853,-0.115 -3.15,-0.25c-1.067,-0.467 -1.95,-2.55 -2.65,-6.25c-0.567,-2.9 -0.85,-5.35 -0.85,-7.35c-1.1,1.433 -1.65,2.35 -1.65,2.75l0.3,3.4c-2.467,1.333 -4.25,2.55 -5.35,3.65c-1.567,1.633 -2.35,3.583 -2.35,5.85c-0,0.833 0.917,1.25 2.75,1.25c1.7,0 2.917,-0.15 3.65,-0.45c0.933,-0.433 1.883,-1.333 2.85,-2.7c0.4,1.1 0.817,2.2 1.25,3.3c0.633,1.267 1.467,1.9 2.5,1.9l4.65,0c0.867,0 1.667,-0.583 2.4,-1.75c1.167,-1.8 1.767,-2.717 1.8,-2.75c0.5,0.967 0.983,1.933 1.45,2.9c0.7,1.067 1.533,1.6 2.5,1.6l4.8,0c1.9,0 3.283,-1.05 4.15,-3.15c0.6,-1.5 0.9,-3.383 0.9,-5.65l0,-4.75c0,-0.867 -0.067,-2.15 -0.2,-3.85c-0.2,-1.733 -0.3,-3.033 -0.3,-3.9c0,-0.433 0.233,-1.133 0.7,-2.1c0.467,-0.967 0.7,-1.783 0.7,-2.45c0,-0.233 -0.383,-0.733 -1.15,-1.5c-0.767,-0.767 -1.15,-1.45 -1.15,-2.05c-0,-0.167 0.067,-0.45 0.2,-0.85c0.133,-0.4 0.183,-0.717 0.15,-0.95l-0,-0.6c-1.5,1.033 -2.7,2.8 -3.6,5.3c0.167,0.667 0.7,1.533 1.6,2.6c0.567,3.7 0.85,9.283 0.85,16.75c-0,1.467 -1.317,2.167 -3.95,2.1l-1.05,-0.05c-2.033,0 -3.483,-0.6 -4.35,-1.8c-0.767,-1.033 -1.15,-2.633 -1.15,-4.8Zm-17.7,4.45c-0.5,0 -1.15,-0.133 -1.95,-0.4c1.667,-1.167 3.2,-2.067 4.6,-2.7c0.3,1.133 0.45,1.8 0.45,2c-0,0.3 -0.433,0.567 -1.3,0.8c-0.767,0.2 -1.367,0.3 -1.8,0.3Z"/><path d="M25.25,30.15l-0.35,0.05c-0.2,0.767 -0.3,1.25 -0.3,1.45c0,0.433 0.083,0.8 0.25,1.1c0.2,0.367 0.5,0.55 0.9,0.55c0.333,0 0.667,-0.133 1,-0.4c0.3,-0.233 0.467,-0.533 0.5,-0.9c0.267,0.2 0.567,0.3 0.9,0.3c1.033,0 1.55,-0.817 1.55,-2.45c0,-0.433 -0.067,-0.9 -0.2,-1.4l-0.35,0.1c-0,1.467 -0.333,2.2 -1,2.2c-0.3,0 -0.567,-0.483 -0.8,-1.45l-0.25,0.1c-0.133,0.733 -0.25,1.217 -0.35,1.45c-0.233,0.6 -0.55,0.9 -0.95,0.9c-0.367,0 -0.55,-0.533 -0.55,-1.6Z"/><path d="M42.478,73.395l-5.65,3.7c-0.692,0.454 -0.886,1.384 -0.433,2.077c0.454,0.692 1.384,0.886 2.077,0.433l5.65,-3.7c0.692,-0.454 0.886,-1.384 0.433,-2.077c-0.454,-0.692 -1.384,-0.886 -2.077,-0.433Z"/><path d="M14.078,73.395l-5.65,3.7c-0.692,0.454 -0.886,1.384 -0.433,2.077c0.454,0.692 1.384,0.886 2.077,0.433l5.65,-3.7c0.692,-0.454 0.886,-1.384 0.433,-2.077c-0.454,-0.692 -1.384,-0.886 -2.077,-0.433Z"/><path d="M28.481,19.293l-5.6,3.65c-0.694,0.452 -0.89,1.383 -0.438,2.076c0.452,0.694 1.383,0.89 2.076,0.438l5.6,-3.65c0.694,-0.452 0.89,-1.383 0.438,-2.076c-0.452,-0.694 -1.383,-0.89 -2.076,-0.438Z"/></g></svg>