<?xml version="1.0" encoding="UTF-8" standalone="no"?><!DOCTYPE svg PUBLIC "-//W3C//DTD SVG 1.1//EN" "http://www.w3.org/Graphics/SVG/1.1/DTD/svg11.dtd"><svg width="100%" height="100%" viewBox="0 0 92 80" version="1.1" xmlns="http://www.w3.org/2000/svg" xmlns:xlink="http://www.w3.org/1999/xlink" xml:space="preserve" xmlns:serif="http://www.serif.com/" style="fill-rule:evenodd;clip-rule:evenodd;stroke-linejoin:round;stroke-miterlimit:2;"><g><path d="M1.7,56.55c0,2.933 0.717,5.183 2.15,6.75c1.433,1.633 3.567,2.45 6.4,2.45c3.033,0 6.25,-1 9.65,-3c3.9,-2.267 5.85,-4.817 5.85,-7.65c0,-1.433 -0.783,-2.417 -2.35,-2.95c-1.433,-0.267 -2.867,-0.533 -4.3,-0.8c-1.567,-0.333 -2.35,-0.95 -2.35,-1.85c0,-0.967 0.833,-2.133 2.5,-3.5c1.467,-1.167 2.767,-1.933 3.9,-2.3c0.467,0.233 0.783,0.433 0.95,0.6c0.067,0.067 0.333,0.333 0.8,0.8c0.333,-0.7 0.65,-1.383 0.95,-2.05c0.367,-0.833 0.55,-1.583 0.55,-2.25c0,-0.333 -0.117,-0.75 -0.35,-1.25l-0.85,-0.55c-2.1,-0 -4.35,1.617 -6.75,4.85c-2.333,3.067 -3.5,5.733 -3.5,8c0,1.333 0.5,2.317 1.5,2.95c0.733,0.5 1.833,0.817 3.3,0.95c1.2,0.033 2.4,0.067 3.6,0.1c-0.7,1.333 -2.517,2.517 -5.45,3.55c-2.567,0.967 -4.75,1.45 -6.55,1.45c-4.967,0 -7.45,-2.217 -7.45,-6.65c0,-1.233 0.367,-3.15 1.1,-5.75c-0.9,0.433 -1.7,1.633 -2.4,3.6c-0.6,1.7 -0.9,3.2 -0.9,4.5Z"/><path d="M42.35,47.85c-0.7,-1.3 -1.417,-1.95 -2.15,-1.95c-0.9,-0 -1.85,0.967 -2.85,2.9c-0.9,1.8 -1.35,3.25 -1.35,4.35c0,1.367 0.65,2.233 1.95,2.6c1.2,0.167 2.383,0.35 3.55,0.55c-1.4,2.133 -2.85,3.7 -4.35,4.7c-1.733,1.133 -3.75,1.7 -6.05,1.7c-1.267,-0 -3.083,-0.1 -5.45,-0.3c2.233,2.233 4.8,3.35 7.7,3.35c2.533,0 4.7,-1.067 6.5,-3.2c1.267,-1.5 2.483,-3.733 3.65,-6.7l6.5,0c1,0 1.8,-0.367 2.4,-1.1c0.1,-0.1 0.567,-0.9 1.4,-2.4c0.467,0.767 1.083,1.517 1.85,2.25c0.967,0.833 1.783,1.25 2.45,1.25l5.7,0l-0,-0.15l1.55,-0c0.9,-0 1.7,-0.467 2.4,-1.4c0.5,-0.9 1.017,-1.783 1.55,-2.65c1.467,1 2.283,1.533 2.45,1.6c1,0.567 1.9,0.85 2.7,0.85c1.267,0 2.233,-0.617 2.9,-1.85c0.533,-1 0.8,-2.217 0.8,-3.65c0,-1.133 -0.4,-2.583 -1.2,-4.35c-0.933,-2 -1.883,-3 -2.85,-3c-0.867,0 -1.8,0.7 -2.8,2.1c-0.9,1.333 -1.783,2.683 -2.65,4.05c-1.033,1.6 -1.983,2.567 -2.85,2.9c-0.5,0.2 -1.983,0.3 -4.45,0.3l-0,0.25c-0.033,-0.002 -0.066,-0.002 -0.1,0c-1.067,0.067 -1.8,0.1 -2.2,0.1c-1.3,-0 -2.233,-0.267 -2.8,-0.8c-0.667,-0.667 -1.033,-1.867 -1.1,-3.6c-1.167,1.933 -1.983,3.117 -2.45,3.55c-0.533,0.5 -1.383,0.75 -2.55,0.75c-0.3,0 -0.983,-0.017 -2.05,-0.05c-1.067,-0.033 -2.033,-0.05 -2.9,-0.05l0,0.2c-0.486,-0.013 -0.986,-0.046 -1.5,-0.1c-0.433,-1 -0.883,-2 -1.35,-3Zm-3.25,1.95c0.767,0.367 1.25,0.683 1.45,0.95c0.2,0.267 0.367,0.833 0.5,1.7c-0.733,-0 -1.617,-0.067 -2.65,-0.2c0,-0.4 -0.067,-0.667 -0.2,-0.8c0.3,-0.6 0.6,-1.15 0.9,-1.65Zm31.8,-1.95c0.867,-1.667 1.5,-2.5 1.9,-2.5c0.767,0 1.4,0.45 1.9,1.35c0.167,0.267 0.45,0.867 0.85,1.8l-0,1.15c-0.567,0.133 -0.867,0.2 -0.9,0.2c-0.5,0 -1.75,-0.667 -3.75,-2Z"/><path d="M56.7,39.45l2.6,-2.65l-2.6,-2.55l-2.55,2.55l-2.55,-2.55l-2.6,2.55l2.6,2.65l2.5,-2.65l2.6,2.65Z"/><path d="M51.75,31.35l2.55,2.65l2.55,-2.65l-2.55,-2.6l-2.55,2.6Z"/><path d="M52.35,18.6c-0.4,0.667 -0.6,1.467 -0.6,2.4c0,1.533 0.65,2.3 1.95,2.3c0.8,0 1.467,-0.317 2,-0.95c0.567,-0.633 0.85,-1.35 0.85,-2.15c-0,-0.7 -0.2,-1.317 -0.6,-1.85c-0.467,-0.6 -1.017,-0.9 -1.65,-0.9c-0.867,-0 -1.517,0.383 -1.95,1.15Zm2.35,1c0.533,0.4 0.8,0.75 0.8,1.05c0,0.533 -0.467,0.8 -1.4,0.8c-1.167,-0 -1.75,-0.383 -1.75,-1.15c-0,-0.833 0.367,-1.25 1.1,-1.25c0.333,0 0.75,0.183 1.25,0.55Z"/><path d="M36.12,18.398c-0.053,0.008 -6.059,3.779 -6.112,3.781c-0.024,0.001 -0.048,0.002 -0.072,0.001c-0.484,-0.002 -0.958,-0.239 -1.244,-0.672c-0.456,-0.691 -0.266,-1.622 0.425,-2.079l5.6,-3.7c0.69,-0.456 1.622,-0.266 2.078,0.425c0.456,0.691 0.266,1.622 -0.425,2.078l-0.25,0.166c0.559,-0.084 1.143,0.153 1.475,0.656c0.456,0.691 0.266,1.622 -0.425,2.078l-5.6,3.7c-0.69,0.457 -1.622,0.266 -2.078,-0.424c-0.456,-0.691 -0.266,-1.622 0.425,-2.079l6.208,-3.932l-0.005,0.001Z"/><path d="M75.423,13.548l-5.6,3.7c-0.691,0.457 -0.881,1.388 -0.425,2.079c0.457,0.691 1.388,0.881 2.079,0.425l5.6,-3.7c0.691,-0.457 0.881,-1.388 0.425,-2.079c-0.457,-0.691 -1.388,-0.881 -2.079,-0.425Z"/></g></svg>