<?xml version="1.0" encoding="UTF-8" standalone="no"?><!DOCTYPE svg PUBLIC "-//W3C//DTD SVG 1.1//EN" "http://www.w3.org/Graphics/SVG/1.1/DTD/svg11.dtd"><svg width="100%" height="100%" viewBox="0 0 49 105" version="1.1" xmlns="http://www.w3.org/2000/svg" xmlns:xlink="http://www.w3.org/1999/xlink" xml:space="preserve" xmlns:serif="http://www.serif.com/" style="fill-rule:evenodd;clip-rule:evenodd;stroke-linejoin:round;stroke-miterlimit:2;"><g><path d="M42.1,56.9c-0.933,-2 -1.883,-3 -2.85,-3c-0.867,-0 -1.8,0.7 -2.8,2.1c-0.9,1.333 -1.783,2.683 -2.65,4.05c-1.033,1.6 -1.983,2.567 -2.85,2.9c-0.5,0.2 -1.983,0.3 -4.45,0.3l-0,0.2l-1,-0c-1.067,-0 -1.867,-0.167 -2.4,-0.5c-0.467,-0.333 -1.25,-1.2 -2.35,-2.6l-1.95,3.75c1,1.6 1.617,2.633 1.85,3.1c0.5,1.1 0.75,2.25 0.75,3.45c-0,1.633 -0.967,2.867 -2.9,3.7c-1.433,0.6 -3.083,0.9 -4.95,0.9c-4.933,0 -7.4,-1.967 -7.4,-5.9c-0,-0.7 0.367,-2.45 1.1,-5.25c-0.867,0.433 -1.6,1.683 -2.2,3.75c-0.533,1.7 -0.8,3.183 -0.8,4.45c-0,5.2 2.533,7.8 7.6,7.8c3.4,0 6.15,-1.067 8.25,-3.2c2.133,-2.1 3.2,-4.9 3.2,-8.4l4.75,0l-0,-0.15l2.45,0c0.9,0 1.7,-0.467 2.4,-1.4c0.5,-0.9 1.017,-1.783 1.55,-2.65c1.467,1 2.283,1.533 2.45,1.6c1,0.567 1.9,0.85 2.7,0.85c1.267,0 2.233,-0.617 2.9,-1.85c0.533,-1 0.8,-2.217 0.8,-3.65c-0,-1.133 -0.4,-2.583 -1.2,-4.35Zm-1.4,4.25l0,1.15c-0.567,0.133 -0.867,0.2 -0.9,0.2c-0.5,0 -1.75,-0.667 -3.75,-2c0.867,-1.667 1.5,-2.5 1.9,-2.5c0.767,0 1.4,0.45 1.9,1.35c0.167,0.267 0.45,0.867 0.85,1.8Z"/><path d="M16.65,56.2l-2.95,-3l-2.95,3l2.95,2.95l2.95,-2.95Z"/><path d="M11.65,30.85c-0.4,0.667 -0.6,1.467 -0.6,2.4c-0,1.533 0.65,2.3 1.95,2.3c0.8,0 1.467,-0.317 2,-0.95c0.567,-0.633 0.85,-1.35 0.85,-2.15c0,-0.7 -0.2,-1.317 -0.6,-1.85c-0.467,-0.6 -1.017,-0.9 -1.65,-0.9c-0.867,-0 -1.517,0.383 -1.95,1.15Zm3.15,2.05c-0,0.533 -0.467,0.8 -1.4,0.8c-1.167,0 -1.75,-0.383 -1.75,-1.15c-0,-0.833 0.367,-1.25 1.1,-1.25c0.333,0 0.75,0.183 1.25,0.55c0.533,0.4 0.8,0.75 0.8,1.05Z"/><path d="M41.373,75.898l-5.6,3.7c-0.691,0.457 -0.881,1.388 -0.425,2.079c0.457,0.691 1.388,0.881 2.079,0.425l5.6,-3.7c0.691,-0.457 0.881,-1.388 0.425,-2.079c-0.457,-0.691 -1.388,-0.881 -2.079,-0.425Z"/></g></svg>