<?xml version="1.0" encoding="UTF-8" standalone="no"?><!DOCTYPE svg PUBLIC "-//W3C//DTD SVG 1.1//EN" "http://www.w3.org/Graphics/SVG/1.1/DTD/svg11.dtd"><svg width="100%" height="100%" viewBox="0 0 73 99" version="1.1" xmlns="http://www.w3.org/2000/svg" xmlns:xlink="http://www.w3.org/1999/xlink" xml:space="preserve" xmlns:serif="http://www.serif.com/" style="fill-rule:evenodd;clip-rule:evenodd;stroke-linejoin:round;stroke-miterlimit:2;"><g><path d="M43.15,35.1c-1.8,1.433 -2.7,2.967 -2.7,4.6c0,2 0.2,5.033 0.6,9.1c0.367,4.033 0.55,7.05 0.55,9.05c-0,1.667 -0.517,2.75 -1.55,3.25c-0.667,0.333 -1.917,0.5 -3.75,0.5c-0.358,-0.005 -0.608,-0.022 -0.75,-0.05c-1.1,-0.133 -1.883,-0.583 -2.35,-1.35c-1.1,-1.7 -1.65,-9.817 -1.65,-24.35c-0.5,0.433 -1.083,1.117 -1.75,2.05c-0.8,1.067 -1.183,1.833 -1.15,2.3c0.233,2.867 0.467,5.733 0.7,8.6c0.267,3.467 0.4,6.333 0.4,8.6c0,1.433 -1.367,2.833 -4.1,4.2c-2.367,1.167 -4.367,1.75 -6,1.75c-6.633,0 -9.95,-1.7 -9.95,-5.1c0,-1.4 0.3,-3.017 0.9,-4.85c-0.9,0.433 -1.7,1.583 -2.4,3.45c-0.6,1.633 -0.9,3.083 -0.9,4.35c-0,2.333 0.933,4.083 2.8,5.25c1.533,0.933 3.533,1.4 6,1.4c2.4,0 4.967,-0.55 7.7,-1.65c3.033,-1.233 5.167,-2.717 6.4,-4.45c0.833,1.533 1.45,2.55 1.85,3.05c0.933,1.267 1.867,1.9 2.8,1.9l4.1,0c0.867,0 1.667,-0.583 2.4,-1.75c1.167,-1.8 1.767,-2.717 1.8,-2.75c0.5,0.967 0.983,1.933 1.45,2.9c0.7,1.067 1.533,1.6 2.5,1.6l2.65,0l0,-0.15l2.4,-0c0.9,-0 1.7,-0.467 2.4,-1.4c0.5,-0.9 1.017,-1.783 1.55,-2.65c1.467,1 2.283,1.533 2.45,1.6c1,0.567 1.9,0.85 2.7,0.85c1.267,0 2.233,-0.617 2.9,-1.85c0.533,-1 0.8,-2.217 0.8,-3.65c0,-1.133 -0.4,-2.583 -1.2,-4.35c-0.933,-2 -1.883,-3 -2.85,-3c-0.867,0 -1.8,0.7 -2.8,2.1c-0.9,1.333 -1.783,2.683 -2.65,4.05c-1.033,1.6 -1.983,2.567 -2.85,2.9c-0.5,0.2 -1.983,0.3 -4.45,0.3c-1.214,-0.243 -2.131,-0.793 -2.75,-1.65c-0.767,-1.033 -1.15,-2.633 -1.15,-4.8c0,-2.467 -0.167,-5.767 -0.5,-9.9c-0.333,-5.033 -0.533,-8.367 -0.6,-10Zm16.45,21.1c0.767,0 1.4,0.45 1.9,1.35c0.167,0.267 0.45,0.867 0.85,1.8l-0,1.15c-0.567,0.133 -0.867,0.2 -0.9,0.2c-0.5,0 -1.75,-0.667 -3.75,-2c0.867,-1.667 1.5,-2.5 1.9,-2.5Z"/><path d="M22.95,47c-0.267,-0.3 -0.567,-0.45 -0.9,-0.45c-0.633,-0 -1.583,1 -2.85,3c-1.2,1.933 -1.8,3.25 -1.8,3.95c0,0.7 0.55,1.05 1.65,1.05c1.4,0.033 2.333,0.283 2.8,0.75c-1.067,1.067 -2.183,1.6 -3.35,1.6c-0.567,-0 -1.217,-0.083 -1.95,-0.25c0.467,0.667 0.833,1.083 1.1,1.25c0.367,0.233 0.917,0.35 1.65,0.35c1.133,0 2.05,-0.283 2.75,-0.85c0.733,-0.633 1.1,-1.517 1.1,-2.65c0,-1.133 -0.683,-1.833 -2.05,-2.1c-1.367,-0.3 -2.05,-0.55 -2.05,-0.75c-0,-0.4 0.25,-0.85 0.75,-1.35c0.5,-0.5 0.95,-0.75 1.35,-0.75c0.3,-0 0.6,0.117 0.9,0.35c0.867,-0.467 1.3,-1.183 1.3,-2.15c-0,-0.333 -0.133,-0.667 -0.4,-1Z"/><path d="M57.35,28.3c-0.467,0.633 -0.7,1.267 -0.7,1.9c0,0.5 0.45,1.033 1.35,1.6c-1.633,1.233 -3.183,2.183 -4.65,2.85c0.5,0.133 0.917,0.2 1.25,0.2c1.2,0 2.65,-0.867 4.35,-2.6c0.667,0.4 1.25,0.717 1.75,0.95l0.15,-1.8c-0.367,-0.233 -0.65,-0.4 -0.85,-0.5c0.467,-0.9 0.7,-1.617 0.7,-2.15c0,-1.033 -0.5,-1.55 -1.5,-1.55c-0.7,0 -1.317,0.367 -1.85,1.1Zm1.95,1.5c-0,0.167 -0.033,0.35 -0.1,0.55c-0.967,-0.433 -1.45,-0.867 -1.45,-1.3c0.067,-0.167 0.2,-0.267 0.4,-0.3c0.767,0.1 1.15,0.45 1.15,1.05Z"/><path d="M41.6,26.25c-0.867,0 -1.517,0.383 -1.95,1.15c-0.4,0.667 -0.6,1.467 -0.6,2.4c-0,1.533 0.65,2.3 1.95,2.3c0.8,0 1.467,-0.317 2,-0.95c0.567,-0.633 0.85,-1.35 0.85,-2.15c-0,-0.7 -0.2,-1.317 -0.6,-1.85c-0.467,-0.6 -1.017,-0.9 -1.65,-0.9Zm0.4,2.15c0.533,0.4 0.8,0.75 0.8,1.05c-0,0.533 -0.467,0.8 -1.4,0.8c-1.167,0 -1.75,-0.383 -1.75,-1.15c0,-0.833 0.367,-1.25 1.1,-1.25c0.333,0 0.75,0.183 1.25,0.55Z"/><path d="M22.435,75.091c-0.053,0.008 -6.059,3.779 -6.112,3.782c-0.024,0.001 -0.048,0.001 -0.072,0.001c-0.483,-0.003 -0.957,-0.239 -1.244,-0.673c-0.456,-0.691 -0.266,-1.622 0.425,-2.078l5.6,-3.7c0.691,-0.457 1.622,-0.266 2.078,0.424c0.457,0.691 0.266,1.622 -0.424,2.079l-0.251,0.165c0.559,-0.084 1.143,0.154 1.475,0.656c0.457,0.691 0.266,1.622 -0.424,2.079l-5.6,3.7c-0.691,0.456 -1.622,0.266 -2.079,-0.425c-0.456,-0.691 -0.266,-1.622 0.425,-2.078l6.208,-3.933l-0.005,0.001Z"/></g></svg>