<?xml version="1.0" encoding="UTF-8" standalone="no"?><!DOCTYPE svg PUBLIC "-//W3C//DTD SVG 1.1//EN" "http://www.w3.org/Graphics/SVG/1.1/DTD/svg11.dtd"><svg width="100%" height="100%" viewBox="0 0 59 80" version="1.1" xmlns="http://www.w3.org/2000/svg" xmlns:xlink="http://www.w3.org/1999/xlink" xml:space="preserve" xmlns:serif="http://www.serif.com/" style="fill-rule:evenodd;clip-rule:evenodd;stroke-linejoin:round;stroke-miterlimit:2;"><g><path d="M11.15,41.9c-0,3.5 0.4,5.8 1.2,6.9c0.887,1.193 2.72,1.826 5.5,1.9c1.453,-0.009 2.836,-0.092 4.15,-0.25c-0.167,-0.9 -0.25,-1.733 -0.25,-2.5c0,-1.633 0.55,-3.533 1.65,-5.7c1.233,-2.5 2.55,-3.75 3.95,-3.75c0.933,0 1.7,0.65 2.3,1.95c0.467,1.067 0.7,2.15 0.7,3.25c0,2.233 -0.65,4.35 -1.95,6.35c0.367,0.396 1.034,0.629 2,0.7l2.2,0c1.998,-0.041 3.232,-0.207 3.7,-0.5c0.4,-0.267 1.233,-1.483 2.5,-3.65c0.067,0.833 0.15,1.667 0.25,2.5c0.133,0.8 0.4,1.35 0.8,1.65c0.5,0.4 1.35,0.6 2.55,0.6c1.667,0 3.017,-0.583 4.05,-1.75c0.9,-1.2 1.8,-2.417 2.7,-3.65c-0.033,0.2 -0.083,0.6 -0.15,1.2c-0.067,0.5 -0.1,0.9 -0.1,1.2c-0,1.533 1.167,2.3 3.5,2.3c0.367,-0 0.733,-0.083 1.1,-0.25l0.35,-0.8c0,-0.267 -0.25,-1 -0.75,-2.2c0.267,-0.667 0.783,-1.75 1.55,-3.25c0.333,1.167 0.5,1.9 0.5,2.2c-0,1.833 -0.233,3.617 -0.7,5.35c-0.667,2.467 -1.633,3.7 -2.9,3.7c-0.4,-0 -1.05,-0.283 -1.95,-0.85c-0.667,-0.4 -1.333,-0.8 -2,-1.2c-1.633,1.667 -3.317,2.5 -5.05,2.5c-0.733,0 -1.583,-0.2 -2.55,-0.6c-0.767,-0.4 -1.55,-0.8 -2.35,-1.2c-1.433,1.2 -2.367,1.8 -2.8,1.8l-5.4,0c-1.1,0 -2.567,-0.75 -4.4,-2.25c-2.2,1.5 -3.95,2.25 -5.25,2.25l-5.15,0c-1.5,0 -2.667,-0.55 -3.5,-1.65c-1.033,-1.367 -1.667,-5.367 -1.9,-12c-0.1,-1.933 -0.15,-6.333 -0.15,-13.2c0,-0.867 0.2,-1.55 0.6,-2.05c0.467,-0.5 0.95,-1.017 1.45,-1.55l-0,16.5Zm15.15,2.25c0.367,-0 0.733,0.233 1.1,0.7c0.333,0.467 0.5,0.917 0.5,1.35c-0,0.433 -0.317,1.033 -0.95,1.8c-0.667,0.733 -1.217,1.1 -1.65,1.1c-0.267,0 -0.667,-0.25 -1.2,-0.75c-0.533,-0.5 -0.8,-0.933 -0.8,-1.3c-0,-0.733 0.317,-1.4 0.95,-2c0.633,-0.6 1.317,-0.9 2.05,-0.9Z"/><path d="M44.3,39.85l2.55,-2.6l-2.55,-2.65l-2.5,2.55l2.5,2.7Z"/><path d="M46.85,37.25l2.6,2.55l2.6,-2.65l-2.6,-2.55l-2.6,2.65Z"/><path d="M49.6,31.75l-2.6,-2.6l-2.5,2.6l2.5,2.65l2.6,-2.65Z"/><path d="M25.25,33.7l2.95,-2.95l-2.95,-3l-2.95,3l2.95,2.95Z"/><path d="M22.023,13.948l-5.6,3.7c-0.691,0.457 -0.881,1.388 -0.425,2.079c0.457,0.691 1.388,0.881 2.079,0.425l5.6,-3.7c0.691,-0.457 0.881,-1.388 0.425,-2.079c-0.457,-0.691 -1.388,-0.881 -2.079,-0.425Z"/><path d="M46.873,13.548l-5.6,3.7c-0.691,0.457 -0.881,1.388 -0.425,2.079c0.457,0.691 1.388,0.881 2.079,0.425l5.6,-3.7c0.691,-0.457 0.881,-1.388 0.425,-2.079c-0.457,-0.691 -1.388,-0.881 -2.079,-0.425Z"/></g></svg>