<?xml version="1.0" encoding="UTF-8" standalone="no"?><!DOCTYPE svg PUBLIC "-//W3C//DTD SVG 1.1//EN" "http://www.w3.org/Graphics/SVG/1.1/DTD/svg11.dtd"><svg width="100%" height="100%" viewBox="0 0 36 36" version="1.1" xmlns="http://www.w3.org/2000/svg" xmlns:xlink="http://www.w3.org/1999/xlink" xml:space="preserve" xmlns:serif="http://www.serif.com/" style="fill-rule:evenodd;clip-rule:evenodd;stroke-linejoin:round;stroke-miterlimit:2;"><g><path d="M18.45,20.05c-0.333,-0.433 -0.5,-1 -0.5,-1.7c0,-0.833 0.25,-1.75 0.75,-2.75c0.567,-1.133 1.217,-1.7 1.95,-1.7c0.167,0 0.467,0.183 0.9,0.55c1.567,1.233 2.35,3.3 2.35,6.2c0,1.333 -0.533,2.55 -1.6,3.65c-1.067,1.1 -2.267,1.65 -3.6,1.65l-4,0l0,-3.4l5.35,0c0.367,0 0.917,-0.1 1.65,-0.3c0.867,-0.267 1.3,-0.517 1.3,-0.75c0,-0.3 -0.25,-0.85 -0.75,-1.65c-0.8,0.6 -1.533,0.9 -2.2,0.9c-0.667,0 -1.2,-0.233 -1.6,-0.7Zm1.75,-1.4c0.2,0 0.6,-0.1 1.2,-0.3l0,-0.4c-0.333,-0.567 -0.733,-1.017 -1.2,-1.35c-0.433,0.3 -0.7,0.517 -0.8,0.65c-0.1,0.1 -0.233,0.417 -0.4,0.95l0.6,0.3c0.233,0.1 0.433,0.15 0.6,0.15Z" style="fill:#f00;"/><path d="M18.5,9.35l2,2l1.95,-2l-1.95,-1.95l-2,1.95Z" style="fill:#f00;"/><rect x="10.85" y="22.55" width="3.85" height="3.4"/></g></svg>