<?xml version="1.0" encoding="UTF-8" standalone="no"?><!DOCTYPE svg PUBLIC "-//W3C//DTD SVG 1.1//EN" "http://www.w3.org/Graphics/SVG/1.1/DTD/svg11.dtd"><svg width="100%" height="100%" viewBox="0 0 42 36" version="1.1" xmlns="http://www.w3.org/2000/svg" xmlns:xlink="http://www.w3.org/1999/xlink" xml:space="preserve" xmlns:serif="http://www.serif.com/" style="fill-rule:evenodd;clip-rule:evenodd;stroke-linejoin:round;stroke-miterlimit:2;"><g><path d="M25.55,17.1c0.3,0.7 0.45,1.417 0.45,2.15c-0,1.467 -0.433,2.867 -1.3,4.2c0.253,0.224 0.686,0.358 1.3,0.4l1.1,0l-0,3.4l-1.7,0c-0.733,0 -1.717,-0.5 -2.95,-1.5c-1.5,1 -2.683,1.5 -3.55,1.5l-2.1,0l-0,-3.4l0.7,0c0.983,-0.019 1.933,-0.069 2.85,-0.15c-0.1,-0.6 -0.15,-1.15 -0.15,-1.65c-0,-1.1 0.367,-2.367 1.1,-3.8c0.833,-1.633 1.733,-2.45 2.7,-2.45c0.633,0 1.15,0.433 1.55,1.3Zm-1.55,2.9c-0.233,-0.333 -0.483,-0.5 -0.75,-0.5c-0.467,-0 -0.917,0.2 -1.35,0.6c-0.433,0.4 -0.65,0.85 -0.65,1.35c-0,0.233 0.183,0.517 0.55,0.85c0.333,0.333 0.6,0.5 0.8,0.5c0.3,-0 0.667,-0.25 1.1,-0.75c0.433,-0.5 0.65,-0.9 0.65,-1.2c-0,-0.267 -0.117,-0.55 -0.35,-0.85Z" style="fill:#f00;"/><path d="M22.6,12.65l1.95,-2l-1.95,-1.95l-2,1.95l2,2Z" style="fill:#f00;"/><rect x="27.1" y="23.85" width="5.25" height="3.4"/><rect x="12.95" y="23.85" width="3.85" height="3.4"/></g></svg>