<?xml version="1.0" encoding="UTF-8" standalone="no"?><!DOCTYPE svg PUBLIC "-//W3C//DTD SVG 1.1//EN" "http://www.w3.org/Graphics/SVG/1.1/DTD/svg11.dtd"><svg width="100%" height="100%" viewBox="0 0 42 36" version="1.1" xmlns="http://www.w3.org/2000/svg" xmlns:xlink="http://www.w3.org/1999/xlink" xml:space="preserve" xmlns:serif="http://www.serif.com/" style="fill-rule:evenodd;clip-rule:evenodd;stroke-linejoin:round;stroke-miterlimit:2;"><g><path d="M28.15,17.25c0.267,0.7 0.4,1.367 0.4,2c-0,1.467 -0.583,2.883 -1.75,4.25c0.467,0.3 1.1,0.45 1.9,0.45l0.25,0l-0,3.3l-1.4,0c-0.467,0 -1,-0.2 -1.6,-0.6c-0.467,-0.333 -0.933,-0.683 -1.4,-1.05c-3.767,1.6 -7.167,2.4 -10.2,2.4c-2,0 -3.667,-0.367 -5,-1.1c-1.667,-0.933 -2.5,-2.3 -2.5,-4.1c-0,-0.833 0.167,-1.683 0.5,-2.55c0.4,-1.033 0.917,-1.683 1.55,-1.95c-0.5,1.4 -0.75,2.267 -0.75,2.6c-0,1.433 0.917,2.5 2.75,3.2c1.3,0.5 2.817,0.75 4.55,0.75c1.833,0 4.367,-0.35 7.6,-1.05c-0,-0.133 -0.05,-0.45 -0.15,-0.95c-0.067,-0.4 -0.1,-0.717 -0.1,-0.95c-0,-1.1 0.4,-2.333 1.2,-3.7c0.9,-1.533 1.85,-2.3 2.85,-2.3c0.533,0 0.967,0.45 1.3,1.35Zm-1.65,2.65c-0.3,-0.267 -0.617,-0.4 -0.95,-0.4c-0.333,-0 -0.717,0.233 -1.15,0.7c-0.467,0.467 -0.7,0.85 -0.7,1.15c-0,0.2 0.2,0.483 0.6,0.85c0.4,0.4 0.683,0.6 0.85,0.6c0.2,-0 0.55,-0.267 1.05,-0.8c0.5,-0.533 0.75,-0.917 0.75,-1.15c-0,-0.333 -0.15,-0.65 -0.45,-0.95Z" style="fill:#f00;"/><path d="M23.15,10.9l2,2l1.95,-2l-1.95,-1.95l-2,1.95Z" style="fill:#f00;"/><rect x="28.95" y="23.85" width="5.25" height="3.4"/></g></svg>