<?xml version="1.0" encoding="UTF-8" standalone="no"?><!DOCTYPE svg PUBLIC "-//W3C//DTD SVG 1.1//EN" "http://www.w3.org/Graphics/SVG/1.1/DTD/svg11.dtd"><svg width="100%" height="100%" viewBox="0 0 42 37" version="1.1" xmlns="http://www.w3.org/2000/svg" xmlns:xlink="http://www.w3.org/1999/xlink" xml:space="preserve" xmlns:serif="http://www.serif.com/" style="fill-rule:evenodd;clip-rule:evenodd;stroke-linejoin:round;stroke-miterlimit:2;"><g><path d="M15.15,13.15l-0,0.3c0.933,-1.4 1.967,-2.1 3.1,-2.1c0.467,0 0.967,0.15 1.5,0.45c-3.267,3.267 -4.9,6.883 -4.9,10.85c0,3.233 0.667,5.467 2,6.7c1.267,1.167 3.55,1.75 6.85,1.75c1.533,0 3.05,-0.25 4.55,-0.75c1.633,-0.567 2.967,-1.35 4,-2.35l-1.8,0c-0.467,0 -1.183,0.067 -2.15,0.2c-0.967,0.1 -1.7,0.15 -2.2,0.15c-2.7,0 -4.867,-0.367 -6.5,-1.1c-2.3,-1.067 -3.45,-2.767 -3.45,-5.1c-0,-1.867 0.783,-3.933 2.35,-6.2c1.667,-2.467 3.367,-3.7 5.1,-3.7l0.25,0.2c-0.067,0.4 -0.1,0.833 -0.1,1.3c-0,1.1 0.2,2.033 0.6,2.8c0.533,0.9 1.283,1.35 2.25,1.35l3.35,-0l-0,-3.3c-0.126,0.016 -0.259,0.032 -0.4,0.05c-0.833,0.067 -1.467,0.1 -1.9,0.1c-1.567,0 -2.617,-0.433 -3.15,-1.3l-0,-1.35c1.233,-0.133 2.033,-0.467 2.4,-1c0.167,-0.2 0.45,-1.1 0.85,-2.7c-1.133,0.4 -2.267,0.6 -3.4,0.6c-0.533,0 -1.333,-0.1 -2.4,-0.3c-1.067,-0.2 -1.85,-0.3 -2.35,-0.3c-1.3,-0 -2.383,0.467 -3.25,1.4c-0.867,0.933 -1.267,2.05 -1.2,3.35Z" style="fill:#f00;"/><path d="M21.45,19.4l-2,2l2,1.95l2,-1.95l-2,-2Z" style="fill:#f00;"/><path d="M29.95,14.5l-0,3.4l5.25,-0l-0,-3.4l-5.25,0Z"/></g></svg>