<?xml version="1.0" encoding="UTF-8" standalone="no"?><!DOCTYPE svg PUBLIC "-//W3C//DTD SVG 1.1//EN" "http://www.w3.org/Graphics/SVG/1.1/DTD/svg11.dtd"><svg width="100%" height="100%" viewBox="0 0 42 37" version="1.1" xmlns="http://www.w3.org/2000/svg" xmlns:xlink="http://www.w3.org/1999/xlink" xml:space="preserve" xmlns:serif="http://www.serif.com/" style="fill-rule:evenodd;clip-rule:evenodd;stroke-linejoin:round;stroke-miterlimit:2;"><g><path d="M23.15,29.6l2,-1.95l-2,-1.95l-2,1.95l2,1.95Z" style="fill:#f00;"/><path d="M15.15,18.85l-1.05,0l0,3.4l2.5,0c1.2,0 2.533,-0.4 4,-1.2c0.633,-0.367 1.75,-1.1 3.35,-2.2c1.167,-0.8 1.933,-1.2 2.3,-1.2l0.35,0.15c0,2.967 0.883,4.45 2.65,4.45l2.3,0l0,-3.3c-0.46,0.033 -0.876,0.05 -1.25,0.05c-2.167,0 -3.217,-0.45 -3.15,-1.35l-0,-0.15c1.1,-0.2 1.8,-0.45 2.1,-0.75c0.1,-0.833 0.25,-1.667 0.45,-2.5c-0.9,0.233 -1.783,0.35 -2.65,0.35c-1.2,0 -2.633,-0.35 -4.3,-1.05c-1.667,-0.733 -2.667,-1.1 -3,-1.1c-0.867,-0 -1.683,0.35 -2.45,1.05c-0.733,0.7 -1.1,1.483 -1.1,2.35l-0,0.45c0.467,-0.167 0.95,-0.35 1.45,-0.55c0.633,-0.233 1.1,-0.35 1.4,-0.35c0.833,-0 1.9,0.417 3.2,1.25c-1.3,0.967 -2.583,1.6 -3.85,1.9c-0.731,0.162 -1.815,0.263 -3.25,0.3Z" style="fill:#f00;"/><rect x="10.25" y="18.85" width="3.85" height="3.4"/><path d="M31.55,18.85l0,3.4l5.25,0l0,-3.4l-5.25,0Z"/></g></svg>