<?xml version="1.0" encoding="UTF-8" standalone="no"?><!DOCTYPE svg PUBLIC "-//W3C//DTD SVG 1.1//EN" "http://www.w3.org/Graphics/SVG/1.1/DTD/svg11.dtd"><svg width="100%" height="100%" viewBox="0 0 36 37" version="1.1" xmlns="http://www.w3.org/2000/svg" xmlns:xlink="http://www.w3.org/1999/xlink" xml:space="preserve" xmlns:serif="http://www.serif.com/" style="fill-rule:evenodd;clip-rule:evenodd;stroke-linejoin:round;stroke-miterlimit:2;"><g><path d="M21.7,27.4l1.95,-1.95l-1.95,-1.95l-2,1.95l2,1.95Z" style="fill:#f00;"/><path d="M13.9,14.25c0.4,-0.167 0.783,-0.35 1.15,-0.55c0.433,-0.233 0.817,-0.35 1.15,-0.35c0.5,0 1.183,0.233 2.05,0.7c0.033,0.033 0.683,0.4 1.95,1.1c-0.9,0.733 -1.667,1.217 -2.3,1.45c-0.567,0.233 -1.267,0.35 -2.1,0.35c-0.233,-0 -0.683,-0.017 -1.35,-0.05c-0.119,-0.006 -0.236,-0.023 -0.35,-0.05l-1.4,0l-0,3.4l2.45,0c0.933,0 1.817,-0.25 2.65,-0.75c0.333,-0.167 1.017,-0.65 2.05,-1.45c0.767,-0.633 1.45,-1.033 2.05,-1.2c0.5,-0.133 1.117,-0.217 1.85,-0.25c0.6,0 1.233,-0.017 1.9,-0.05c0.367,-0.967 0.667,-2.033 0.9,-3.2c-1.533,0 -2.983,-0.267 -4.35,-0.8c-0.633,-0.233 -1.583,-0.733 -2.85,-1.5c-0.933,-0.533 -1.65,-0.8 -2.15,-0.8c-0.933,0 -1.683,0.467 -2.25,1.4c-0.333,0.567 -0.683,1.433 -1.05,2.6Z" style="fill:#f00;"/><rect x="8.85" y="16.85" width="3.85" height="3.4"/></g></svg>