<?xml version="1.0" encoding="UTF-8" standalone="no"?><!DOCTYPE svg PUBLIC "-//W3C//DTD SVG 1.1//EN" "http://www.w3.org/Graphics/SVG/1.1/DTD/svg11.dtd"><svg width="100%" height="100%" viewBox="0 0 119 95" version="1.1" xmlns="http://www.w3.org/2000/svg" xmlns:xlink="http://www.w3.org/1999/xlink" xml:space="preserve" xmlns:serif="http://www.serif.com/" style="fill-rule:evenodd;clip-rule:evenodd;stroke-linejoin:round;stroke-miterlimit:2;"><g><path d="M69.7,73.25l2.95,-2.95l-2.95,-3l-2.95,3l2.95,2.95Z" style="fill:#f00;"/><path d="M63.65,51.75c1.233,0 2.817,0.617 4.75,1.85c-1.933,1.5 -3.833,2.483 -5.7,2.95c-1.138,0.256 -2.871,0.406 -5.2,0.45l-1.2,-0l-0,5.1l3.75,0c1.733,0 3.683,-0.6 5.85,-1.8c0.967,-0.533 2.633,-1.65 5,-3.35c1.7,-1.233 2.833,-1.85 3.4,-1.85l0.5,0.25c-0,4.5 1.3,6.75 3.9,6.75l3.25,0l0,-4.95c-0.62,0.033 -1.187,0.05 -1.7,0.05c-3.2,-0 -4.75,-0.683 -4.65,-2.05l0.05,-0.25c1.6,-0.3 2.617,-0.667 3.05,-1.1c0.167,-1.267 0.4,-2.55 0.7,-3.85c-1.333,0.4 -2.65,0.6 -3.95,0.6c-1.733,0 -3.85,-0.55 -6.35,-1.65c-2.467,-1.1 -3.95,-1.65 -4.45,-1.65c-1.267,-0 -2.467,0.55 -3.6,1.65c-1.1,1.033 -1.65,2.217 -1.65,3.55l0,0.65c0.7,-0.267 1.417,-0.533 2.15,-0.8c0.933,-0.367 1.633,-0.55 2.1,-0.55Z" style="fill:#f00;"/><path d="M37.45,43.85c-1.1,0 -2.067,0.867 -2.9,2.6c-0.733,1.5 -1.1,2.883 -1.1,4.15c0,1.033 0.267,1.883 0.8,2.55c0.533,0.733 1.3,1.1 2.3,1.1c1.033,0 2.133,-0.467 3.3,-1.4c0.733,1.233 1.1,2.067 1.1,2.5c0,0.4 -0.633,0.783 -1.9,1.15c-1.1,0.333 -1.933,0.5 -2.5,0.5l-7.9,0l0,5.1l5.95,0c1.933,0 3.7,-0.833 5.3,-2.5c1.567,-1.667 2.35,-3.5 2.35,-5.5c0,-4.4 -1.133,-7.55 -3.4,-9.45c-0.7,-0.533 -1.167,-0.8 -1.4,-0.8Zm-1.55,6.95l-0.85,-0.4c0.2,-0.8 0.383,-1.3 0.55,-1.5c0.133,-0.2 0.533,-0.517 1.2,-0.95c0.7,0.5 1.283,1.167 1.75,2l-0,0.65c-0.867,0.3 -1.45,0.45 -1.75,0.45c-0.233,0 -0.533,-0.083 -0.9,-0.25Z" style="fill:#f00;"/><path d="M37.2,39.95l2.95,-2.95l-2.95,-3l-2.95,3l2.95,2.95Z" style="fill:#f00;"/><path d="M28.75,66.4c0,-1.1 -1.067,-1.867 -3.2,-2.3c-1.467,-0.233 -2.933,-0.467 -4.4,-0.7c0.494,-0.756 2.994,-1.189 7.5,-1.3l0,-5.1l-1.4,-0c-2.2,-0 -4.133,0.65 -5.8,1.95c-1.867,1.433 -2.8,3.233 -2.8,5.4c0,0.967 0.5,1.683 1.5,2.15c0.567,0.267 1.583,0.5 3.05,0.7c1.4,0.2 2.3,0.433 2.7,0.7c-0.433,0.867 -2.183,1.65 -5.25,2.35c-2.533,0.6 -4.583,0.9 -6.15,0.9c-2.633,-0 -4.633,-0.267 -6,-0.8c-2.167,-0.833 -3.25,-2.367 -3.25,-4.6c0,-0.933 0.333,-2.15 1,-3.65c0.833,-1.8 1.317,-3 1.45,-3.6c-1.167,0.767 -2.3,2.133 -3.4,4.1c-1.1,2 -1.65,3.683 -1.65,5.05c0,2.667 1.15,4.65 3.45,5.95c1.867,1.067 4.217,1.6 7.05,1.6c6.4,-0 11.133,-1.983 14.2,-5.95c0.933,-1.233 1.4,-2.183 1.4,-2.85Z"/><path d="M107.388,52.05c0.174,0.95 0.262,1.633 0.262,2.05c0,2.967 -0.7,5.067 -2.1,6.3c-1.065,0.953 -2.732,1.503 -5,1.65l-0,0.05l-5.7,0c-0.667,0 -1.483,-0.417 -2.45,-1.25c-0.767,-0.733 -1.383,-1.483 -1.85,-2.25c-0.833,1.5 -1.3,2.3 -1.4,2.4c-0.6,0.733 -1.4,1.1 -2.4,1.1l-4.8,0l0,-5.1l2.05,0c0.276,0.024 0.559,0.041 0.85,0.05c1.067,0.033 1.75,0.05 2.05,0.05c1.167,0 2.017,-0.25 2.55,-0.75c0.467,-0.433 1.283,-1.617 2.45,-3.55c0.067,1.733 0.433,2.933 1.1,3.6c0.567,0.533 1.5,0.8 2.8,0.8c0.394,0 1.11,-0.033 2.15,-0.1l0,-0.1l2.6,0c3.023,-0.045 4.89,-0.512 5.6,-1.4c-0.2,-0.667 -0.667,-1.717 -1.4,-3.15c0.467,-0.867 1.083,-2.217 1.85,-4.05l0.788,3.65Z"/><path d="M49.25,33.2c-0.4,0.5 -0.6,1.183 -0.6,2.05c0,6.867 0.05,11.267 0.15,13.2c0.233,6.633 0.867,10.633 1.9,12c0.833,1.1 2,1.65 3.5,1.65l2.1,0l-0,-5.1l1.2,0c-2.834,-0.091 -4.701,-0.741 -5.6,-1.95c-0.8,-1.1 -1.2,-3.4 -1.2,-6.9l0,-16.5c-0.5,0.533 -0.983,1.05 -1.45,1.55Z"/><path d="M89.35,46.55l2.6,-2.6l-2.55,-2.65l-2.6,2.6l2.55,2.65Z"/><path d="M94.45,46.55l2.65,-2.65l-2.6,-2.6l-2.55,2.65l2.5,2.6Z"/><path d="M102.15,38.4l-2.55,2.6l2.55,2.65l2.55,-2.6l-2.55,-2.65Z"/><path d="M107.25,38.4l-2.55,2.65l2.55,2.6l2.6,-2.65l-2.6,-2.6Z"/><path d="M34.778,23.045l-5.65,3.7c-0.692,0.454 -0.886,1.384 -0.433,2.077c0.454,0.692 1.384,0.886 2.077,0.433l5.65,-3.7c0.692,-0.454 0.886,-1.384 0.433,-2.077c-0.454,-0.692 -1.384,-0.886 -2.077,-0.433Z"/><path d="M62.578,23.045l-5.65,3.7c-0.692,0.454 -0.886,1.384 -0.433,2.077c0.454,0.692 1.384,0.886 2.077,0.433l5.65,-3.7c0.692,-0.454 0.886,-1.384 0.433,-2.077c-0.454,-0.692 -1.384,-0.886 -2.077,-0.433Z"/><path d="M104.486,20.59l-5.65,3.65c-0.695,0.449 -0.895,1.379 -0.446,2.074c0.449,0.695 1.379,0.895 2.074,0.446l5.65,-3.65c0.695,-0.449 0.895,-1.379 0.446,-2.074c-0.449,-0.695 -1.379,-0.895 -2.074,-0.446Z"/><path d="M92.031,20.593l-5.6,3.65c-0.694,0.452 -0.89,1.383 -0.438,2.076c0.452,0.694 1.383,0.89 2.076,0.438l5.6,-3.65c0.694,-0.452 0.89,-1.383 0.438,-2.076c-0.452,-0.694 -1.383,-0.89 -2.076,-0.438Z"/></g></svg>