<?xml version="1.0" encoding="UTF-8" standalone="no"?><!DOCTYPE svg PUBLIC "-//W3C//DTD SVG 1.1//EN" "http://www.w3.org/Graphics/SVG/1.1/DTD/svg11.dtd"><svg width="100%" height="100%" viewBox="0 0 54 94" version="1.1" xmlns="http://www.w3.org/2000/svg" xmlns:xlink="http://www.w3.org/1999/xlink" xml:space="preserve" xmlns:serif="http://www.serif.com/" style="fill-rule:evenodd;clip-rule:evenodd;stroke-linejoin:round;stroke-miterlimit:2;"><g><path d="M32.65,49.55c0,-1.333 -0.283,-2.783 -0.85,-4.35c-0.7,-1.967 -1.583,-2.95 -2.65,-2.95c-0.933,0 -1.9,0.967 -2.9,2.9c-0.9,1.767 -1.35,3.2 -1.35,4.3c0,0.9 0.25,1.617 0.75,2.15c0.5,0.533 1.183,0.8 2.05,0.8c1,0 1.983,-0.45 2.95,-1.35c0.3,0.467 0.45,1.067 0.45,1.8c-0,1.333 -2.233,2.467 -6.7,3.4c-3.467,0.733 -6.317,1.1 -8.55,1.1c-2.6,0 -4.983,-0.35 -7.15,-1.05c-3.1,-1 -4.65,-2.533 -4.65,-4.6c-0,-0.333 0.167,-1 0.5,-2c0.333,-1 0.617,-1.683 0.85,-2.05c-1,0.267 -1.867,1.15 -2.6,2.65c-0.633,1.333 -0.95,2.6 -0.95,3.8c-0,5.167 3.967,7.75 11.9,7.75c5.467,0 9.667,-0.683 12.6,-2.05c4.2,-1.933 6.3,-5.35 6.3,-10.25Zm-2.85,-1.55c-0,0.833 -0.45,1.25 -1.35,1.25c-0.433,0 -0.783,-0.167 -1.05,-0.5c-0.1,-0.067 -0.333,-0.433 -0.7,-1.1c0.8,-0.867 1.317,-1.3 1.55,-1.3c0.333,0 0.667,0.183 1,0.55c0.367,0.367 0.55,0.733 0.55,1.1Z" style="fill:#f00;"/><path d="M27.6,33.35l-2.95,3l2.95,2.95l2.9,-2.95l-2.9,-3Z" style="fill:#f00;"/><path d="M39.45,61.4c1.467,-1.233 2.2,-4.517 2.2,-9.85l-0.25,-21.5c-1.767,2.367 -2.65,3.783 -2.65,4.25l0.7,27.1Z"/><path d="M27.9,27.2c-0.3,-0 -0.567,-0.483 -0.8,-1.45l-0.25,0.1c-0.133,0.733 -0.25,1.217 -0.35,1.45c-0.233,0.6 -0.55,0.9 -0.95,0.9c-0.367,-0 -0.55,-0.533 -0.55,-1.6l-0.35,0.05c-0.2,0.767 -0.3,1.25 -0.3,1.45c-0,0.433 0.083,0.8 0.25,1.1c0.2,0.367 0.5,0.55 0.9,0.55c0.333,0 0.667,-0.133 1,-0.4c0.3,-0.233 0.467,-0.533 0.5,-0.9c0.267,0.2 0.567,0.3 0.9,0.3c1.033,-0 1.55,-0.817 1.55,-2.45c0,-0.433 -0.067,-0.9 -0.2,-1.4l-0.35,0.1c0,1.467 -0.333,2.2 -1,2.2Z"/><path d="M35.65,26.3c0.5,0.133 0.917,0.2 1.25,0.2c1.2,0 2.65,-0.867 4.35,-2.6c0.667,0.4 1.25,0.717 1.75,0.95l0.15,-1.8c-0.367,-0.233 -0.65,-0.4 -0.85,-0.5c0.467,-0.9 0.7,-1.617 0.7,-2.15c0,-1.033 -0.5,-1.55 -1.5,-1.55c-0.7,-0 -1.317,0.367 -1.85,1.1c-0.467,0.633 -0.7,1.267 -0.7,1.9c0,0.5 0.45,1.033 1.35,1.6c-1.633,1.233 -3.183,2.183 -4.65,2.85Zm4.4,-5.6c0.067,-0.167 0.2,-0.267 0.4,-0.3c0.767,0.1 1.15,0.45 1.15,1.05c-0,0.167 -0.033,0.35 -0.1,0.55c-0.967,-0.433 -1.45,-0.867 -1.45,-1.3Z"/><path d="M28.426,70.617c-0.052,0.008 -6.059,3.779 -6.112,3.781c-0.024,0.001 -0.047,0.002 -0.071,0.002c-0.484,-0.003 -0.958,-0.239 -1.245,-0.673c-0.456,-0.691 -0.266,-1.622 0.425,-2.079l5.6,-3.7c0.691,-0.456 1.622,-0.266 2.079,0.425c0.456,0.691 0.266,1.622 -0.425,2.079l-0.25,0.165c0.559,-0.084 1.142,0.153 1.475,0.656c0.456,0.691 0.266,1.622 -0.425,2.079l-5.6,3.7c-0.691,0.456 -1.622,0.266 -2.079,-0.425c-0.456,-0.691 -0.266,-1.622 0.425,-2.079l6.209,-3.932l-0.006,0.001Z"/></g></svg>