<?xml version="1.0" encoding="UTF-8" standalone="no"?><!DOCTYPE svg PUBLIC "-//W3C//DTD SVG 1.1//EN" "http://www.w3.org/Graphics/SVG/1.1/DTD/svg11.dtd"><svg width="100%" height="100%" viewBox="0 0 73 99" version="1.1" xmlns="http://www.w3.org/2000/svg" xmlns:xlink="http://www.w3.org/1999/xlink" xml:space="preserve" xmlns:serif="http://www.serif.com/" style="fill-rule:evenodd;clip-rule:evenodd;stroke-linejoin:round;stroke-miterlimit:2;"><g><path d="M46,35.5c0.033,0.233 -0.017,0.55 -0.15,0.95c-0.133,0.4 -0.2,0.683 -0.2,0.85c-0,0.6 0.383,1.283 1.15,2.05c0.767,0.767 1.15,1.267 1.15,1.5c0,0.667 -0.233,1.483 -0.7,2.45c-0.467,0.967 -0.7,1.667 -0.7,2.1c-0,0.867 0.1,2.167 0.3,3.9c0.133,1.7 0.2,2.983 0.2,3.85l-0,4.75c-0,2.267 -0.3,4.15 -0.9,5.65c-0.867,2.1 -2.25,3.15 -4.15,3.15l-5.2,0c-0.933,0 -1.867,-0.633 -2.8,-1.9c-0.4,-0.5 -1.017,-1.517 -1.85,-3.05c-1.233,1.733 -3.367,3.217 -6.4,4.45c-2.733,1.1 -5.3,1.65 -7.7,1.65c-2.467,0 -4.467,-0.467 -6,-1.4c-1.867,-1.167 -2.8,-2.917 -2.8,-5.25c0,-1.267 0.3,-2.717 0.9,-4.35c0.7,-1.867 1.5,-3.017 2.4,-3.45c-0.6,1.833 -0.9,3.45 -0.9,4.85c-0,3.4 3.317,5.1 9.95,5.1c1.633,0 3.633,-0.583 6,-1.75c2.733,-1.367 4.1,-2.767 4.1,-4.2c0,-2.267 -0.133,-5.133 -0.4,-8.6c-0.233,-2.867 -0.467,-5.733 -0.7,-8.6c-0.033,-0.467 0.35,-1.233 1.15,-2.3c0.667,-0.933 1.25,-1.617 1.75,-2.05c0,14.533 0.55,22.65 1.65,24.35c0.467,0.767 1.25,1.217 2.35,1.35c0.142,0.028 0.392,0.045 0.75,0.05l2.05,0l-0,0.05l0.6,-0c2.633,0.067 3.95,-0.633 3.95,-2.1c0,-7.467 -0.283,-13.05 -0.85,-16.75c-0.9,-1.067 -1.433,-1.933 -1.6,-2.6c0.9,-2.5 2.1,-4.267 3.6,-5.3l0,0.6Z"/><path d="M57.7,48.9c-0.2,0.767 -0.3,1.667 -0.3,2.7l0.05,3.6c1.4,0 2.867,0.617 4.4,1.85c1.6,1.267 2.4,2.6 2.4,4c0,0.567 -0.9,1.033 -2.7,1.4c-1.333,0.267 -2.483,0.4 -3.45,0.4c-1.3,0 -2.617,-0.367 -3.95,-1.1c-0.167,1.833 -0.25,2.85 -0.25,3.05c0,1.4 0.45,2.3 1.35,2.7c0.5,0.2 1.6,0.3 3.3,0.3c2.133,-0 3.783,-0.667 4.95,-2c1.1,-1.233 1.65,-2.967 1.65,-5.2c0,-2.667 -0.633,-5.033 -1.9,-7.1c-1.333,-2.267 -3.183,-3.8 -5.55,-4.6Z"/><path d="M25.3,48c-0,-0.333 -0.133,-0.667 -0.4,-1c-0.267,-0.3 -0.567,-0.45 -0.9,-0.45c-0.633,-0 -1.583,1 -2.85,3c-1.2,1.933 -1.8,3.25 -1.8,3.95c0,0.7 0.55,1.05 1.65,1.05c1.4,0.033 2.333,0.283 2.8,0.75c-1.067,1.067 -2.183,1.6 -3.35,1.6c-0.567,-0 -1.217,-0.083 -1.95,-0.25c0.467,0.667 0.833,1.083 1.1,1.25c0.367,0.233 0.917,0.35 1.65,0.35c1.133,0 2.05,-0.283 2.75,-0.85c0.733,-0.633 1.1,-1.517 1.1,-2.65c0,-1.133 -0.683,-1.833 -2.05,-2.1c-1.367,-0.3 -2.05,-0.55 -2.05,-0.75c0,-0.4 0.25,-0.85 0.75,-1.35c0.5,-0.5 0.95,-0.75 1.35,-0.75c0.3,-0 0.6,0.117 0.9,0.35c0.867,-0.467 1.3,-1.183 1.3,-2.15Z"/><path d="M59.4,43.6l2.95,-2.95l-2.95,-3.05l-2.95,3.05l2.95,2.95Z"/><path d="M54.8,28.338c0.1,0.458 0.25,0.995 0.45,1.612c0.433,1.267 0.65,2.2 0.65,2.8c0,0.833 -0.483,1.483 -1.45,1.95c0.1,-0.233 0.15,-0.533 0.15,-0.9c-0,-0.283 -0.054,-0.633 -0.163,-1.05l-0.974,-2.9c-0.109,-0.417 -0.163,-0.767 -0.163,-1.05c-0,-0.5 0.45,-1.033 1.35,-1.6l0.15,1.138Z"/><path d="M46.273,75.298l-5.6,3.7c-0.691,0.457 -0.881,1.388 -0.425,2.079c0.457,0.691 1.388,0.881 2.079,0.425l5.6,-3.7c0.691,-0.457 0.881,-1.388 0.425,-2.079c-0.457,-0.691 -1.388,-0.881 -2.079,-0.425Z"/><path d="M26.036,26.59l-5.65,3.65c-0.695,0.449 -0.895,1.379 -0.446,2.074c0.449,0.695 1.379,0.895 2.074,0.446l5.65,-3.65c0.695,-0.449 0.895,-1.379 0.446,-2.074c-0.449,-0.695 -1.379,-0.895 -2.074,-0.446Z"/></g></svg>