<?xml version="1.0" encoding="UTF-8" standalone="no"?><!DOCTYPE svg PUBLIC "-//W3C//DTD SVG 1.1//EN" "http://www.w3.org/Graphics/SVG/1.1/DTD/svg11.dtd"><svg width="100%" height="100%" viewBox="0 0 83 105" version="1.1" xmlns="http://www.w3.org/2000/svg" xmlns:xlink="http://www.w3.org/1999/xlink" xml:space="preserve" xmlns:serif="http://www.serif.com/" style="fill-rule:evenodd;clip-rule:evenodd;stroke-linejoin:round;stroke-miterlimit:2;"><g><path d="M-24.331,51.072c0.637,0.244 1.181,0.853 1.631,1.828c0.467,1.067 0.7,2.15 0.7,3.25c0,2.233 -0.65,4.35 -1.95,6.35c0.367,0.396 1.034,0.629 2,0.7l3.3,-0c0.287,0.023 0.587,0.04 0.9,0.05c1,0.033 1.667,0.05 2,0.05c1.233,0 2.267,-0.167 3.1,-0.5c0.933,-0.367 2.067,-1.1 3.4,-2.2c-1.867,-1.1 -2.817,-1.667 -2.85,-1.7c-1.333,-0.7 -2.35,-1.05 -3.05,-1.05c-0.467,0 -1.05,0.183 -1.75,0.55c-0.533,0.267 -1.083,0.55 -1.65,0.85c0.5,-1.8 1.017,-3.117 1.55,-3.95c0.867,-1.4 1.983,-2.1 3.35,-2.1c0.733,-0 1.783,0.4 3.15,1.2c1.9,1.133 3.3,1.883 4.2,2.25c2,0.8 4.15,1.2 6.45,1.2c-0.333,1.767 -0.783,3.4 -1.35,4.9c-0.933,0 -1.867,0.017 -2.8,0.05c-1.1,0.067 -2.017,0.2 -2.75,0.4c-0.867,0.233 -1.867,0.817 -3,1.75c-1.533,1.233 -2.533,1.983 -3,2.25c-1.267,0.733 -2.6,1.1 -4,1.1l-6.15,0c-1.1,0 -2.567,-0.75 -4.4,-2.25c-2.2,1.5 -3.95,2.25 -5.25,2.25l-3.1,0l0,-5.1c0.385,0 0.768,-0.017 1.15,-0.05c1.443,-0.008 2.827,-0.091 4.15,-0.25c-0.167,-0.9 -0.25,-1.733 -0.25,-2.5c-0,-1.633 0.55,-3.533 1.65,-5.7c1.233,-2.5 2.55,-3.75 3.95,-3.75l0.669,0.122Zm-3.769,6.428c0.633,-0.6 1.317,-0.9 2.05,-0.9c0.367,0 0.733,0.233 1.1,0.7c0.333,0.467 0.5,0.917 0.5,1.35c-0,0.433 -0.317,1.033 -0.95,1.8c-0.667,0.733 -1.217,1.1 -1.65,1.1c-0.267,0 -0.667,-0.25 -1.2,-0.75c-0.533,-0.5 -0.8,-0.933 -0.8,-1.3c0,-0.733 0.317,-1.4 0.95,-2Z" style="fill:#f00;"/><path d="M70.95,73.45c-3.3,1.667 -6.433,2.5 -9.4,2.5c2.4,1.633 4.783,2.45 7.15,2.45c2.7,-0 5,-1.667 6.9,-5c1.633,-2.933 2.45,-5.9 2.45,-8.9c-0,-1.467 -0.283,-2.733 -0.85,-3.8c-0.433,-0.8 -1.25,-1.817 -2.45,-3.05l-1.1,4.3c0.6,0.7 1.217,1.417 1.85,2.15c0.833,1.033 1.25,1.817 1.25,2.35c-0,2.7 -1.933,5.033 -5.8,7Z"/><path d="M46.6,50.55c-0,1.533 0.767,2.867 2.3,4c1.4,0.833 2.817,1.683 4.25,2.55c1.533,1.033 2.3,2.2 2.3,3.5c0,1.933 -2.617,2.9 -7.85,2.9c-0.6,0 -1.267,-0.017 -2,-0.05l-1.15,-0.05l0,0.2c-0.533,-0.007 -1.083,-0.04 -1.65,-0.1c-0.433,-1 -0.883,-2 -1.35,-3c-0.7,-1.3 -1.417,-1.95 -2.15,-1.95c-0.9,0 -1.85,0.967 -2.85,2.9c-0.9,1.8 -1.35,3.25 -1.35,4.35c-0,1.367 0.65,2.233 1.95,2.6c1.2,0.167 2.383,0.35 3.55,0.55c-1.4,2.133 -2.85,3.7 -4.35,4.7c-1.733,1.133 -3.75,1.7 -6.05,1.7c-1.267,0 -3.083,-0.1 -5.45,-0.3c2.233,2.233 4.8,3.35 7.7,3.35c2.533,-0 4.7,-1.067 6.5,-3.2c1.267,-1.5 2.483,-3.733 3.65,-6.7l7.35,0c2.233,0 4.1,-0.883 5.6,-2.65c1.4,-1.667 2.1,-3.683 2.1,-6.05c0,-1.7 -0.483,-3.233 -1.45,-4.6c-0.733,-1.033 -1.867,-2.1 -3.4,-3.2c-1.333,-0.867 -2.667,-1.75 -4,-2.65c1.067,-1.067 3.483,-2.567 7.25,-4.5c0.7,-0.367 3.367,-1.65 8,-3.85l0.85,-4.3c-3.067,0.633 -6.717,2.35 -10.95,5.15c-4.9,3.233 -7.35,6.133 -7.35,8.7Zm-9.3,13.55c0.3,-0.6 0.6,-1.15 0.9,-1.65c0.767,0.367 1.25,0.683 1.45,0.95c0.2,0.267 0.367,0.833 0.5,1.7c-0.733,0 -1.617,-0.067 -2.65,-0.2c0,-0.4 -0.067,-0.667 -0.2,-0.8Z"/><path d="M18.65,57.1c0.067,0.267 0.1,0.45 0.1,0.55c-1.333,2.733 -2,4.967 -2,6.7c-0,2.767 1.1,4.15 3.3,4.15c1.8,0 3.217,-0.833 4.25,-2.5c0.867,-1.433 1.3,-3.117 1.3,-5.05c-0,-1.467 -0.333,-2.7 -1,-3.7c-0.4,-0.633 -1.167,-1.433 -2.3,-2.4c-1.233,-1.033 -2.117,-1.883 -2.65,-2.55c-0.767,1.833 -1.15,3.233 -1.15,4.2c-0,0.133 0.05,0.333 0.15,0.6Zm5.15,4.95c-0,0.4 -0.45,0.833 -1.35,1.3c-0.833,0.433 -1.483,0.65 -1.95,0.65c-1.167,-0 -1.75,-0.75 -1.75,-2.25c-0,-1.2 0.45,-2.25 1.35,-3.15c2.467,1.867 3.7,3.017 3.7,3.45Z"/><path d="M73.45,51.95l2.95,-2.9l-2.9,-3.05l-2.95,3.05l2.9,2.9Z"/><path d="M25.1,46.05l-2.6,-2.55l-2.55,2.6l2.55,2.6l2.6,-2.65Z"/><path d="M19.95,46.1l-2.55,-2.6l-2.6,2.55l2.6,2.65l2.55,-2.6Z"/><path d="M45.6,40.25c0.967,-0.467 1.45,-1.117 1.45,-1.95c-0,-0.6 -0.217,-1.533 -0.65,-2.8c-0.4,-1.233 -0.6,-2.15 -0.6,-2.75c-0.9,0.567 -1.35,1.1 -1.35,1.6c0,0.567 0.217,1.4 0.65,2.5c0.433,1.1 0.65,1.933 0.65,2.5c0,0.367 -0.05,0.667 -0.15,0.9Z"/><path d="M23.95,33.1c0,-0.433 -0.15,-0.833 -0.45,-1.2c-0.333,-0.4 -0.7,-0.6 -1.1,-0.6c-0.733,0 -1.4,0.383 -2,1.15c-0.6,0.7 -0.9,1.4 -0.9,2.1c0,0.8 0.533,1.5 1.6,2.1c-1.033,1 -2,1.65 -2.9,1.95c0.1,-0.967 0.15,-1.55 0.15,-1.75c-0,-1.633 -0.533,-2.45 -1.6,-2.45c-0.633,-0 -1.133,0.267 -1.5,0.8c-0.333,0.467 -0.5,1 -0.5,1.6c0,0.333 0.083,0.717 0.25,1.15c0.167,-1.133 0.567,-1.7 1.2,-1.7c0.3,0 0.567,0.133 0.8,0.4c0.2,0.267 0.3,0.55 0.3,0.85c-0,0.467 -0.333,1.417 -1,2.85c1.267,-0.233 2.317,-0.6 3.15,-1.1c0.7,-0.433 1.533,-1.133 2.5,-2.1c0.467,0.333 1.167,0.767 2.1,1.3c0.033,-0.867 0.05,-1.333 0.05,-1.4c-0,-0.533 -0.3,-1.017 -0.9,-1.45c0.5,-1.133 0.75,-1.967 0.75,-2.5Zm-3.2,0.2l0.2,-0.4c0.2,-0.067 0.333,-0.1 0.4,-0.1c0.667,0 1,0.383 1,1.15l-0.1,0.9c-1,-0.667 -1.5,-1.183 -1.5,-1.55Z"/><path d="M74.886,28.34l-5.65,3.65c-0.695,0.449 -0.895,1.379 -0.446,2.074c0.449,0.695 1.379,0.895 2.074,0.446l5.65,-3.65c0.695,-0.449 0.895,-1.379 0.446,-2.074c-0.449,-0.695 -1.379,-0.895 -2.074,-0.446Z"/></g></svg>