<?xml version="1.0" encoding="UTF-8" standalone="no"?><!DOCTYPE svg PUBLIC "-//W3C//DTD SVG 1.1//EN" "http://www.w3.org/Graphics/SVG/1.1/DTD/svg11.dtd"><svg width="100%" height="100%" viewBox="0 0 89 32" version="1.1" xmlns="http://www.w3.org/2000/svg" xmlns:xlink="http://www.w3.org/1999/xlink" xml:space="preserve" xmlns:serif="http://www.serif.com/" style="fill-rule:evenodd;clip-rule:evenodd;stroke-linejoin:round;stroke-miterlimit:2;"><g><path d="M22.253,14.695c0.2,-0.467 0.3,-0.9 0.3,-1.3c0,-0.2 -0.067,-0.433 -0.2,-0.7l-0.5,-0.3c-1.267,-0 -2.633,0.917 -4.1,2.75c-1.367,1.8 -2.05,3.35 -2.05,4.65c0,0.767 0.283,1.333 0.85,1.7c0.467,0.267 1.133,0.45 2,0.55c0.733,-0 1.45,0.017 2.15,0.05c-0.4,0.767 -1.483,1.45 -3.25,2.05c-1.567,0.567 -2.883,0.85 -3.95,0.85c-2.967,-0 -4.45,-1.283 -4.45,-3.85c0,-0.733 0.217,-1.833 0.65,-3.3c-0.567,0.233 -1.05,0.917 -1.45,2.05c-0.367,1 -0.55,1.867 -0.55,2.6c0,1.7 0.433,3 1.3,3.9c0.867,0.933 2.15,1.4 3.85,1.4c1.833,-0 3.767,-0.567 5.8,-1.7c2.333,-1.333 3.5,-2.817 3.5,-4.45c0,-0.833 -0.467,-1.4 -1.4,-1.7c-0.867,-0.133 -1.733,-0.283 -2.6,-0.45c-0.933,-0.167 -1.4,-0.517 -1.4,-1.05c0,-0.567 0.5,-1.25 1.5,-2.05c0.9,-0.667 1.683,-1.1 2.35,-1.3c0.267,0.133 0.467,0.233 0.6,0.3c0.033,0.067 0.183,0.233 0.45,0.5c0.2,-0.4 0.4,-0.8 0.6,-1.2Z" style="fill:#f00;"/><path d="M61.353,13.045c0,-0.2 -0.067,-0.433 -0.2,-0.7l-0.4,-0.3c-1.067,-0 -2.2,0.883 -3.4,2.65c-1.167,1.667 -1.75,3.117 -1.75,4.35c0,0.733 0.25,1.283 0.75,1.65c0.367,0.267 0.917,0.433 1.65,0.5c0.6,-0 1.2,0.017 1.8,0.05c-0.333,0.733 -1.25,1.383 -2.75,1.95c-1.3,0.533 -2.4,0.8 -3.3,0.8c-2.5,-0 -3.75,-1.217 -3.75,-3.65c0,-0.667 0.183,-1.717 0.55,-3.15c-0.433,0.267 -0.833,0.933 -1.2,2c-0.3,0.933 -0.45,1.75 -0.45,2.45c0,1.6 0.367,2.817 1.1,3.65c0.7,0.9 1.767,1.35 3.2,1.35c1.533,-0 3.167,-0.55 4.9,-1.65c1.933,-1.233 2.9,-2.617 2.9,-4.15c0,-0.8 -0.383,-1.333 -1.15,-1.6c-0.733,-0.167 -1.467,-0.317 -2.2,-0.45c-0.767,-0.167 -1.15,-0.517 -1.15,-1.05c0,-0.5 0.417,-1.133 1.25,-1.9c0.733,-0.633 1.383,-1.05 1.95,-1.25c0.233,0.133 0.4,0.25 0.5,0.35c0.033,0.033 0.167,0.167 0.4,0.4c0.167,-0.367 0.333,-0.733 0.5,-1.1c0.167,-0.467 0.25,-0.867 0.25,-1.2Z"/><path d="M78.203,15.095c-0.9,-1.233 -2.15,-2.067 -3.75,-2.5c-0.1,0.4 -0.15,0.883 -0.15,1.45l0,1.95c0.933,-0 1.917,0.333 2.95,1c1.067,0.7 1.6,1.433 1.6,2.2c0,0.3 -0.6,0.55 -1.8,0.75c-0.9,0.167 -1.667,0.25 -2.3,0.25c-0.867,-0 -1.75,-0.2 -2.65,-0.6c-0.1,1 -0.15,1.55 -0.15,1.65c0,0.767 0.3,1.267 0.9,1.5c0.333,0.1 1.067,0.15 2.2,0.15c1.433,-0 2.533,-0.367 3.3,-1.1c0.733,-0.667 1.1,-1.617 1.1,-2.85c0,-1.433 -0.417,-2.717 -1.25,-3.85Z"/><path d="M28.503,11.845c-0.133,0.433 -0.2,0.95 -0.2,1.55l0.05,2.05c0.833,-0 1.717,0.35 2.65,1.05c0.933,0.767 1.4,1.55 1.4,2.35c0,0.3 -0.533,0.567 -1.6,0.8c-0.8,0.167 -1.483,0.25 -2.05,0.25c-0.8,-0 -1.6,-0.217 -2.4,-0.65c-0.1,1.033 -0.15,1.617 -0.15,1.75c0,0.8 0.283,1.317 0.85,1.55c0.267,0.133 0.917,0.2 1.95,0.2c1.3,-0 2.3,-0.383 3,-1.15c0.633,-0.733 0.95,-1.733 0.95,-3c0,-1.533 -0.367,-2.917 -1.1,-4.15c-0.833,-1.267 -1.95,-2.133 -3.35,-2.6Z"/><path d="M25.931,2.24l-4.35,2.85c-0.692,0.454 -0.886,1.384 -0.433,2.077c0.454,0.692 1.385,0.886 2.077,0.433l4.35,-2.85c0.693,-0.454 0.887,-1.385 0.433,-2.077c-0.454,-0.693 -1.384,-0.887 -2.077,-0.433Z"/><path d="M41.576,16.27l-5.672,-0l0,-0.985l5.672,0l0,0.985Zm0,2.607l-5.672,0l0,-0.984l5.672,-0l0,0.984Z" style="fill-rule:nonzero;"/><path d="M66.92,20.204l0,-2.356l-2.338,0l0,-0.984l2.338,-0l0,-2.338l0.996,0l0,2.338l2.338,-0l0,0.984l-2.338,0l0,2.356l-0.996,-0Z" style="fill-rule:nonzero;"/><path d="M75.658,5.141l-3.65,2.7c-0.443,0.328 -0.537,0.955 -0.209,1.399c0.328,0.443 0.955,0.537 1.399,0.209l3.65,-2.7c0.444,-0.328 0.537,-0.955 0.209,-1.399c-0.328,-0.444 -0.955,-0.537 -1.399,-0.209Z"/></g></svg>