<?xml version="1.0" encoding="UTF-8" standalone="no"?><!DOCTYPE svg PUBLIC "-//W3C//DTD SVG 1.1//EN" "http://www.w3.org/Graphics/SVG/1.1/DTD/svg11.dtd"><svg width="100%" height="100%" viewBox="0 0 87 73" version="1.1" xmlns="http://www.w3.org/2000/svg" xmlns:xlink="http://www.w3.org/1999/xlink" xml:space="preserve" xmlns:serif="http://www.serif.com/" style="fill-rule:evenodd;clip-rule:evenodd;stroke-linejoin:round;stroke-miterlimit:2;"><g><path d="M49.4,58.5l2.8,2.7l2.9,-2.75l-2.85,-2.7l-2.85,2.75Z" style="fill:#f00;"/><path d="M46.55,55.75l-2.9,2.7l2.85,2.75l2.9,-2.7l-2.85,-2.75Z" style="fill:#f00;"/><path d="M49.95,41.45c0.833,1.5 1.35,2.583 1.55,3.25c-0.835,0.996 -3.202,1.496 -7.1,1.5l-2.05,-0l-0,5.3l2.05,0c2.956,-0.073 5.106,-0.656 6.45,-1.75c1.567,-1.3 2.35,-3.5 2.35,-6.6c0,-0.867 -0.383,-2.85 -1.15,-5.95c-0.867,1.9 -1.567,3.317 -2.1,4.25Z" style="fill:#f00;"/><path d="M65.25,56.7c-3.667,1.7 -7.167,2.55 -10.5,2.55c2.667,1.733 5.317,2.6 7.95,2.6c3.033,0 5.617,-1.75 7.75,-5.25c1.833,-3.033 2.75,-6.117 2.75,-9.25c0,-1.533 -0.317,-2.867 -0.95,-4c-0.5,-0.8 -1.417,-1.85 -2.75,-3.15l-1.25,4.45c0.7,0.733 1.4,1.483 2.1,2.25c0.9,1.067 1.35,1.883 1.35,2.45c0,2.833 -2.15,5.283 -6.45,7.35Z"/><path d="M23.9,47.55c-2.833,0 -5.417,-0.383 -7.75,-1.15c-3.3,-1.067 -4.95,-2.683 -4.95,-4.85c0,-0.967 0.483,-2.367 1.45,-4.2c-1.1,0.7 -1.983,1.683 -2.65,2.95c-0.667,1.233 -1,2.483 -1,3.75c-0,2.733 1.167,4.867 3.5,6.4c2.033,1.3 4.55,1.95 7.55,1.95c5.933,-0 11.9,-1.617 17.9,-4.85c1.433,2.633 2.883,3.95 4.35,3.95l0.05,-0l-0,-5.3l2.05,-0l0,-0.05c-1.867,-0 -3.117,-0.283 -3.75,-0.85c-0.633,-0.533 -1.083,-1.717 -1.35,-3.55c-4,3.867 -9.133,5.8 -15.4,5.8Z"/><path d="M26.65,32.55l-2.8,-2.75l-2.9,2.7l2.85,2.75l2.85,-2.7Z"/><path d="M32.45,32.5l-2.9,-2.7l-2.9,2.75l2.85,2.7l2.95,-2.75Z"/><path d="M68.1,28l-3.3,3.15l3.25,3.1l3.3,-3.1l-3.25,-3.15Z"/><path d="M46.35,16c-0.967,0 -1.7,0.417 -2.2,1.25c-0.433,0.667 -0.65,1.5 -0.65,2.5c0,1.6 0.733,2.4 2.2,2.4c0.867,0 1.6,-0.333 2.2,-1c0.633,-0.667 0.95,-1.417 0.95,-2.25c-0,-0.7 -0.233,-1.35 -0.7,-1.95c-0.467,-0.633 -1.067,-0.95 -1.8,-0.95Zm-0.95,1.7c0.367,-0 0.833,0.2 1.4,0.6c0.6,0.4 0.9,0.767 0.9,1.1c0,0.533 -0.533,0.8 -1.6,0.8c-1.267,-0 -1.9,-0.4 -1.9,-1.2c0,-0.867 0.4,-1.3 1.2,-1.3Z"/><path d="M20.75,11.1c-0.633,-0 -1.15,0.283 -1.55,0.85c-0.333,0.467 -0.5,1.017 -0.5,1.65c0,0.3 0.083,0.683 0.25,1.15c0.167,-1.167 0.567,-1.75 1.2,-1.75c0.333,0 0.617,0.133 0.85,0.4c0.233,0.267 0.35,0.567 0.35,0.9c-0,0.467 -0.35,1.433 -1.05,2.9c1.333,-0.233 2.433,-0.617 3.3,-1.15c0.733,-0.4 1.617,-1.117 2.65,-2.15c0.467,0.367 1.2,0.817 2.2,1.35c0.033,-0.867 0.05,-1.35 0.05,-1.45c0,-0.533 -0.317,-1.017 -0.95,-1.45c0.533,-1.167 0.8,-2.033 0.8,-2.6c-0,-0.433 -0.167,-0.833 -0.5,-1.2c-0.333,-0.4 -0.717,-0.6 -1.15,-0.6c-0.767,-0 -1.467,0.383 -2.1,1.15c-0.633,0.733 -0.95,1.45 -0.95,2.15c0,0.833 0.55,1.55 1.65,2.15c-1.067,1.033 -2.067,1.7 -3,2c0.1,-0.967 0.15,-1.567 0.15,-1.8c0,-1.667 -0.567,-2.5 -1.7,-2.5Zm4.45,-1.5c0.2,-0.1 0.333,-0.15 0.4,-0.15c0.667,-0 1,0.4 1,1.2l-0.05,0.9c-1.067,-0.667 -1.6,-1.183 -1.6,-1.55l0.25,-0.4Z"/><path d="M68.091,8.756l-5.8,3.4c-0.714,0.419 -0.954,1.338 -0.535,2.053c0.419,0.714 1.338,0.954 2.053,0.535l5.8,-3.4c0.714,-0.419 0.954,-1.338 0.535,-2.053c-0.419,-0.714 -1.338,-0.954 -2.053,-0.535Z"/></g></svg>