<?xml version="1.0" encoding="UTF-8" standalone="no"?><!DOCTYPE svg PUBLIC "-//W3C//DTD SVG 1.1//EN" "http://www.w3.org/Graphics/SVG/1.1/DTD/svg11.dtd"><svg width="100%" height="100%" viewBox="0 0 124 79" version="1.1" xmlns="http://www.w3.org/2000/svg" xmlns:xlink="http://www.w3.org/1999/xlink" xml:space="preserve" xmlns:serif="http://www.serif.com/" style="fill-rule:evenodd;clip-rule:evenodd;stroke-linejoin:round;stroke-miterlimit:2;"><g><path d="M34,46.15c1.533,-1.233 2.883,-2.033 4.05,-2.4c0.5,0.2 0.85,0.383 1.05,0.55c0.067,0.067 0.333,0.35 0.8,0.85c0.333,-0.733 0.683,-1.45 1.05,-2.15c0.367,-0.867 0.55,-1.65 0.55,-2.35c0,-0.367 -0.133,-0.817 -0.4,-1.35l-0.85,-0.55c-2.233,0 -4.6,1.7 -7.1,5.1c-2.433,3.267 -3.65,6.083 -3.65,8.45c0,1.433 0.517,2.483 1.55,3.15c0.8,0.5 1.967,0.833 3.5,1c1.233,0.033 2.483,0.067 3.75,0.1c-0.733,1.4 -2.633,2.667 -5.7,3.8c-2.7,1 -4.983,1.5 -6.85,1.5c-5.2,0 -7.8,-2.35 -7.8,-7.05c0,-1.3 0.367,-3.317 1.1,-6.05c-0.933,0.467 -1.767,1.733 -2.5,3.8c-0.6,1.8 -0.9,3.383 -0.9,4.75c-0,3.1 0.733,5.483 2.2,7.15c1.533,1.733 3.783,2.6 6.75,2.6c3.167,-0 6.533,-1.067 10.1,-3.2c4.067,-2.4 6.1,-5.1 6.1,-8.1c-0,-1.533 -0.817,-2.567 -2.45,-3.1c-1.5,-0.3 -3.017,-0.583 -4.55,-0.85c-1.633,-0.333 -2.45,-1 -2.45,-2c0,-1 0.883,-2.217 2.65,-3.65Z" style="fill:#f00;"/><path d="M114.2,66.4l2.75,-2.8l-2.75,-2.75l-2.65,2.75l2.65,2.8Z" style="fill:#f00;"/><path d="M108.85,66.4l2.7,-2.8l-2.7,-2.7l-2.7,2.7l2.7,2.8Z" style="fill:#f00;"/><path d="M112.1,46.35c0.767,1.533 1.233,2.633 1.4,3.3c-0.718,0.957 -2.685,1.457 -5.9,1.5l0,5.35c2.401,-0.143 4.185,-0.727 5.35,-1.75c1.467,-1.3 2.2,-3.517 2.2,-6.65c-0,-0.9 -0.367,-2.9 -1.1,-6c-0.8,1.9 -1.45,3.317 -1.95,4.25Z" style="fill:#f00;"/><path d="M104.95,51.25c0.69,-0.043 1.29,-0.076 1.8,-0.1l-1.8,-0l0,0.1Z" style="fill:#f00;"/><path d="M57.45,48.3c-0.467,-0.833 -1.333,-1.9 -2.6,-3.2l-1.15,4.5c0.667,0.767 1.317,1.533 1.95,2.3c0.867,1.067 1.3,1.9 1.3,2.5c0,2.867 -2.033,5.333 -6.1,7.4c-3.433,1.733 -6.7,2.6 -9.8,2.6c2.5,1.767 4.983,2.65 7.45,2.65c2.867,-0 5.283,-1.783 7.25,-5.35c1.733,-3.067 2.6,-6.183 2.6,-9.35c0,-1.567 -0.3,-2.917 -0.9,-4.05Z"/><path d="M67.8,23.45c-1.867,2.5 -2.783,4 -2.75,4.5l0.7,28.65c1.533,-1.3 2.3,-4.767 2.3,-10.4l-0.25,-22.75Z"/><path d="M107.6,51.15l-0.85,-0c-0.51,0.024 -1.11,0.057 -1.8,0.1l-0.05,0c-1.1,0.067 -1.85,0.1 -2.25,0.1c-1.367,0 -2.35,-0.283 -2.95,-0.85c-0.7,-0.667 -1.083,-1.933 -1.15,-3.8c-1.233,2.067 -2.083,3.317 -2.55,3.75c-0.567,0.533 -1.467,0.8 -2.7,0.8c-0.3,0 -1,-0.017 -2.1,-0.05c-1.133,-0.033 -2.15,-0.05 -3.05,-0.05l-0,0.2c-0.49,0.006 -0.99,-0.011 -1.5,-0.05c-0.467,-1.067 -0.933,-2.133 -1.4,-3.2c-0.767,-1.367 -1.533,-2.05 -2.3,-2.05c-0.933,-0 -1.917,1.017 -2.95,3.05c-0.933,1.9 -1.4,3.433 -1.4,4.6c0,1.433 0.667,2.35 2,2.75c1.267,0.167 2.517,0.35 3.75,0.55c-1.467,2.3 -3,3.967 -4.6,5c-1.8,1.2 -3.9,1.8 -6.3,1.8c-1.333,-0 -3.233,-0.117 -5.7,-0.35c2.3,2.367 4.983,3.55 8.05,3.55c2.667,0 4.933,-1.133 6.8,-3.4c1.3,-1.567 2.567,-3.917 3.8,-7.05l6.8,-0c1.033,-0 1.867,-0.383 2.5,-1.15c0.067,-0.133 0.55,-0.983 1.45,-2.55c0.467,0.8 1.117,1.583 1.95,2.35c1,0.9 1.85,1.35 2.55,1.35l5.95,-0l0,-5.4Zm-24.25,-0c0.167,0.3 0.35,0.9 0.55,1.8c-0.8,0 -1.733,-0.067 -2.8,-0.2c0,-0.433 -0.083,-0.717 -0.25,-0.85c0.333,-0.667 0.65,-1.25 0.95,-1.75c0.8,0.367 1.317,0.7 1.55,1Z"/><path d="M98.6,37.35l-2.7,-2.75l-2.7,2.75l2.7,2.75l2.7,-2.75Z"/><path d="M104,37.35l-2.75,-2.75l-2.65,2.75l2.65,2.75l2.75,-2.75Z"/><path d="M44.339,19.288l-5.45,3.5c-0.696,0.447 -0.898,1.376 -0.451,2.073c0.447,0.696 1.376,0.898 2.073,0.451l5.45,-3.5c0.696,-0.447 0.898,-1.376 0.451,-2.073c-0.447,-0.696 -1.376,-0.898 -2.073,-0.451Z"/><path d="M112.895,14.935l-5.5,3.5c-0.699,0.444 -0.905,1.372 -0.46,2.07c0.444,0.699 1.372,0.905 2.07,0.46l5.5,-3.5c0.699,-0.444 0.905,-1.372 0.46,-2.07c-0.444,-0.699 -1.372,-0.905 -2.07,-0.46Z"/><path d="M99.589,14.938l-5.45,3.5c-0.696,0.447 -0.898,1.376 -0.451,2.073c0.447,0.696 1.376,0.898 2.073,0.451l5.45,-3.5c0.696,-0.447 0.898,-1.376 0.451,-2.073c-0.447,-0.696 -1.376,-0.898 -2.073,-0.451Z"/><path d="M77.789,14.938l-5.45,3.5c-0.696,0.447 -0.898,1.376 -0.451,2.073c0.447,0.696 1.376,0.898 2.073,0.451l5.45,-3.5c0.696,-0.447 0.898,-1.376 0.451,-2.073c-0.447,-0.696 -1.376,-0.898 -2.073,-0.451Z"/></g></svg>