<?xml version="1.0" encoding="UTF-8" standalone="no"?><!DOCTYPE svg PUBLIC "-//W3C//DTD SVG 1.1//EN" "http://www.w3.org/Graphics/SVG/1.1/DTD/svg11.dtd"><svg width="100%" height="100%" viewBox="0 0 86 67" version="1.1" xmlns="http://www.w3.org/2000/svg" xmlns:xlink="http://www.w3.org/1999/xlink" xml:space="preserve" xmlns:serif="http://www.serif.com/" style="fill-rule:evenodd;clip-rule:evenodd;stroke-linejoin:round;stroke-miterlimit:2;"><g><path d="M45.4,53.25l2.9,2.75l2.8,-2.7l2.85,2.7l2.95,-2.75l-2.95,-2.7l-2.8,2.75l-2.85,-2.75l-2.9,2.7Z" style="fill:#f00;"/><path d="M60.85,45.5l0,-0.05c-0.346,0.025 -0.713,0.042 -1.1,0.05l1.1,0Z" style="fill:#f00;"/><path d="M48.95,39.5c-0.6,0.5 -1.583,0.75 -2.95,0.75c-0.267,0 -0.967,-0.017 -2.1,-0.05c-0.327,-0.01 -0.644,-0.027 -0.95,-0.05l-2,0l0,5.35l4.95,-0c1.1,-0 1.983,-0.383 2.65,-1.15c0.1,-0.1 0.633,-0.933 1.6,-2.5c0.467,0.8 1.15,1.583 2.05,2.35c1.067,0.867 1.983,1.3 2.75,1.3l3,-0l0,-5.25c-0.991,0.067 -1.675,0.1 -2.05,0.1c-1.467,-0 -2.5,-0.283 -3.1,-0.85c-0.7,-0.667 -1.083,-1.917 -1.15,-3.75c-1.333,2.1 -2.233,3.35 -2.7,3.75Z" style="fill:#f00;"/><path d="M60.85,40.2l-1.8,-0c0.705,-0.033 1.305,-0.05 1.8,-0.05l0,0.05Z" style="fill:#f00;"/><path d="M63.85,57.1l3.25,-3.1l-3.25,-3.1l-3.3,3.1l3.3,3.1Z"/><path d="M8.55,34.3c-0.667,1.233 -1,2.483 -1,3.75c-0,2.733 1.167,4.867 3.5,6.4c2.033,1.3 4.55,1.95 7.55,1.95c5.933,0 11.9,-1.617 17.9,-4.85c1.433,2.633 2.883,3.95 4.35,3.95l0.1,-0l0,-5.35l2,0c-1.867,0 -3.117,-0.283 -3.75,-0.85c-0.633,-0.533 -1.083,-1.717 -1.35,-3.55c-4,3.867 -9.133,5.8 -15.4,5.8c-2.833,0 -5.417,-0.383 -7.75,-1.15c-3.3,-1.067 -4.95,-2.683 -4.95,-4.85c-0,-0.967 0.483,-2.367 1.45,-4.2c-1.1,0.7 -1.983,1.683 -2.65,2.95Z"/><path d="M57.95,40.2l0,5.3l1.8,0c0.387,-0.008 0.754,-0.025 1.1,-0.05c2.522,-0.147 4.388,-0.714 5.6,-1.7c1.567,-1.3 2.35,-3.5 2.35,-6.6c-0,-0.867 -0.383,-2.85 -1.15,-5.95c-0.867,1.9 -1.567,3.317 -2.1,4.25c0.833,1.5 1.35,2.583 1.55,3.25c-0.773,0.921 -2.856,1.421 -6.25,1.5l-2.9,-0Z"/><path d="M25.2,26.55l-2.8,-2.75l-2.9,2.7l2.85,2.75l2.85,-2.7Z"/><path d="M28.1,23.8l-2.9,2.75l2.85,2.7l2.95,-2.75l-2.9,-2.7Z"/><path d="M49.2,6.2c-0.967,-0 -1.7,0.417 -2.2,1.25c-0.433,0.667 -0.65,1.5 -0.65,2.5c0,1.6 0.733,2.4 2.2,2.4c0.867,-0 1.6,-0.333 2.2,-1c0.633,-0.667 0.95,-1.417 0.95,-2.25c0,-0.7 -0.233,-1.35 -0.7,-1.95c-0.467,-0.633 -1.067,-0.95 -1.8,-0.95Zm-2.15,3c-0,-0.867 0.4,-1.3 1.2,-1.3c0.367,0 0.833,0.2 1.4,0.6c0.6,0.4 0.9,0.767 0.9,1.1c-0,0.533 -0.533,0.8 -1.6,0.8c-1.267,0 -1.9,-0.4 -1.9,-1.2Z"/><path d="M16.45,13.15c0.567,0.167 1.033,0.25 1.4,0.25c1.367,0 3,-1.1 4.9,-3.3c0.767,0.533 1.433,0.933 2,1.2l0.2,-2.3c-0.433,-0.3 -0.767,-0.517 -1,-0.65c0.533,-1.167 0.8,-2.067 0.8,-2.7c0,-1.367 -0.567,-2.05 -1.7,-2.05c-0.767,-0 -1.467,0.483 -2.1,1.45c-0.533,0.833 -0.8,1.633 -0.8,2.4c-0,0.667 0.517,1.35 1.55,2.05c-1.867,1.6 -3.617,2.817 -5.25,3.65Zm6.75,-6.15c0,0.2 -0.05,0.433 -0.15,0.7c-1.067,-0.6 -1.6,-1.167 -1.6,-1.7c0.067,-0.233 0.217,-0.367 0.45,-0.4c0.867,0.133 1.3,0.6 1.3,1.4Z"/><path d="M64.783,3.411l-5.8,3.45c-0.711,0.423 -0.945,1.344 -0.522,2.056c0.423,0.711 1.344,0.945 2.056,0.522l5.8,-3.45c0.711,-0.423 0.945,-1.344 0.522,-2.056c-0.423,-0.711 -1.344,-0.945 -2.056,-0.522Z"/></g></svg>