<?xml version="1.0" encoding="UTF-8" standalone="no"?><!DOCTYPE svg PUBLIC "-//W3C//DTD SVG 1.1//EN" "http://www.w3.org/Graphics/SVG/1.1/DTD/svg11.dtd"><svg width="100%" height="100%" viewBox="0 0 86 67" version="1.1" xmlns="http://www.w3.org/2000/svg" xmlns:xlink="http://www.w3.org/1999/xlink" xml:space="preserve" xmlns:serif="http://www.serif.com/" style="fill-rule:evenodd;clip-rule:evenodd;stroke-linejoin:round;stroke-miterlimit:2;"><g><path d="M7.6,46.6c0,3.067 0.8,5.433 2.4,7.1c1.6,1.7 3.983,2.55 7.15,2.55c3.367,0 6.967,-1.05 10.8,-3.15c4.3,-2.367 6.45,-5.033 6.45,-8c0,-1.5 -0.85,-2.517 -2.55,-3.05c-1.633,-0.267 -3.25,-0.55 -4.85,-0.85c-1.767,-0.333 -2.65,-0.983 -2.65,-1.95c0,-1 0.95,-2.217 2.85,-3.65c1.633,-1.2 3.067,-1.983 4.3,-2.35c0.533,0.233 0.9,0.417 1.1,0.55c0.1,0.067 0.383,0.35 0.85,0.85c0.4,-0.7 0.767,-1.417 1.1,-2.15c0.4,-0.833 0.6,-1.6 0.6,-2.3c0,-0.367 -0.133,-0.817 -0.4,-1.35l-0.95,-0.55c-2.333,0 -4.833,1.683 -7.5,5.05c-2.6,3.233 -3.9,6.017 -3.9,8.35c-0,1.433 0.55,2.467 1.65,3.1c0.833,0.533 2.067,0.867 3.7,1c1.333,0.033 2.667,0.067 4,0.1c-0.767,1.367 -2.8,2.617 -6.1,3.75c-2.867,0.967 -5.283,1.45 -7.25,1.45c-5.567,-0 -8.35,-2.317 -8.35,-6.95c-0,-1.267 0.417,-3.267 1.25,-6c-1.033,0.5 -1.933,1.767 -2.7,3.8c-0.667,1.767 -1,3.317 -1,4.65Z" style="fill:#f00;"/><path d="M56.55,57.5l3.25,-3.1l-3.25,-3.1l-3.3,3.1l3.3,3.1Z"/><path d="M44.65,14.15c-0.567,0.533 -1.117,1.05 -1.65,1.55c-0.4,0.533 -0.6,1.25 -0.6,2.15c0,7.167 0.033,11.767 0.1,13.8c0.3,6.933 1.017,11.1 2.15,12.5c0.933,1.167 2.25,1.75 3.95,1.75l4.4,0l0,-0.05c2.802,-0.077 4.852,-0.643 6.15,-1.7c1.567,-1.3 2.35,-3.5 2.35,-6.6c0,-0.867 -0.383,-2.85 -1.15,-5.95c-0.867,1.9 -1.567,3.317 -2.1,4.25c0.833,1.5 1.35,2.583 1.55,3.25c-0.813,0.97 -3.08,1.47 -6.8,1.5l0,-0.05c-3.6,0 -5.933,-0.667 -7,-2c-0.9,-1.133 -1.35,-3.533 -1.35,-7.2l0,-17.2Z"/><path d="M21.75,21.85c0.3,0.2 0.633,0.3 1,0.3c1.133,0 1.7,-0.85 1.7,-2.55c0,-0.467 -0.083,-0.967 -0.25,-1.5l-0.35,0.15c0,1.533 -0.367,2.3 -1.1,2.3c-0.367,0 -0.667,-0.517 -0.9,-1.55l-0.3,0.1c-0.167,0.767 -0.3,1.283 -0.4,1.55c-0.233,0.633 -0.583,0.95 -1.05,0.95c-0.433,-0 -0.65,-0.567 -0.65,-1.7l-0.35,0.05c-0.233,0.8 -0.35,1.3 -0.35,1.5c0,0.467 0.1,0.85 0.3,1.15c0.233,0.367 0.567,0.55 1,0.55c0.367,0 0.733,-0.117 1.1,-0.35c0.333,-0.267 0.533,-0.583 0.6,-0.95Z"/><path d="M21.688,59.008l-5.85,3.45c-0.713,0.42 -0.951,1.341 -0.53,2.054c0.42,0.713 1.341,0.951 2.054,0.53l5.85,-3.45c0.713,-0.42 0.951,-1.341 0.53,-2.054c-0.42,-0.713 -1.341,-0.951 -2.054,-0.53Z"/><path d="M59.633,59.011l-5.8,3.45c-0.711,0.423 -0.945,1.344 -0.522,2.056c0.423,0.711 1.344,0.945 2.056,0.522l5.8,-3.45c0.711,-0.423 0.945,-1.344 0.522,-2.056c-0.423,-0.711 -1.344,-0.945 -2.056,-0.522Z"/><path d="M45.291,3.506l-5.8,3.4c-0.714,0.419 -0.954,1.338 -0.535,2.053c0.419,0.714 1.338,0.954 2.053,0.535l5.8,-3.4c0.714,-0.419 0.954,-1.338 0.535,-2.053c-0.419,-0.714 -1.338,-0.954 -2.053,-0.535Z"/></g></svg>