<?xml version="1.0" encoding="UTF-8" standalone="no"?><!DOCTYPE svg PUBLIC "-//W3C//DTD SVG 1.1//EN" "http://www.w3.org/Graphics/SVG/1.1/DTD/svg11.dtd"><svg width="100%" height="100%" viewBox="0 0 80 77" version="1.1" xmlns="http://www.w3.org/2000/svg" xmlns:xlink="http://www.w3.org/1999/xlink" xml:space="preserve" xmlns:serif="http://www.serif.com/" style="fill-rule:evenodd;clip-rule:evenodd;stroke-linejoin:round;stroke-miterlimit:2;"><g><path d="M31.7,56.95l-2.85,-2.75l-2.9,2.7l2.85,2.75l2.9,-2.7Z" style="fill:#f00;"/><path d="M65.3,59.65l2.9,-2.75l-2.85,-2.7l-2.85,2.75l2.8,2.7Z" style="fill:#f00;"/><path d="M59.6,59.65l2.9,-2.7l-2.85,-2.75l-2.9,2.7l2.85,2.75Z" style="fill:#f00;"/><path d="M37.2,57.05l0.2,-0.15l-2.85,-2.7l-2.85,2.75l2.8,2.7l2.6,-2.5c-0.047,-0.041 -0.097,-0.091 -0.15,-0.15c0.09,0.022 0.173,0.038 0.25,0.05Z" style="fill:#f00;"/><path d="M65.15,35.65c-0.867,1.9 -1.567,3.317 -2.1,4.25c0.833,1.5 1.35,2.583 1.55,3.25c-0.846,1.008 -3.262,1.508 -7.25,1.5l-1.9,-0l0,5.3l1.9,-0c3.033,-0.054 5.233,-0.638 6.6,-1.75c1.567,-1.3 2.35,-3.5 2.35,-6.6c-0,-0.867 -0.383,-2.85 -1.15,-5.95Z" style="fill:#f00;"/><path d="M34.35,35.65c-0.867,1.9 -1.567,3.317 -2.1,4.25c0.833,1.5 1.35,2.583 1.55,3.25c-0.821,0.978 -3.121,1.478 -6.9,1.5l-2.25,-0l-0,5.3l2.25,-0c2.853,-0.098 4.937,-0.681 6.25,-1.75c1.567,-1.3 2.35,-3.5 2.35,-6.6c0,-0.867 -0.383,-2.85 -1.15,-5.95Z" style="fill:#f00;"/><path d="M52.612,44.012c0.459,0.275 0.905,0.455 1.338,0.538c0.267,0.033 1.4,0.05 3.4,0.05l0,0.05l-1.9,-0l0,5.3c-0.424,0.014 -0.791,0.114 -1.1,0.3c-0.267,2.1 -1.3,4.367 -3.1,6.8c-2,2.8 -4,4.2 -6,4.2c-1.433,0 -2.967,-0.45 -4.6,-1.35c-1.331,-0.697 -2.514,-1.614 -3.55,-2.75c-0.047,-0.041 -0.097,-0.091 -0.15,-0.15c0.09,0.022 0.173,0.038 0.25,0.05c0.757,0.188 1.507,0.372 2.25,0.55c1.067,0.233 1.9,0.35 2.5,0.35c1.433,0 3.55,-0.95 6.35,-2.85c2.9,-1.967 4.35,-3.583 4.35,-4.85c-0,-0.1 -0.367,-0.7 -1.1,-1.8c-0.867,-1.3 -1.317,-1.983 -1.35,-2.05c0.433,-1 0.767,-2.167 1,-3.5l1.412,1.113Z"/><path d="M20.65,36.4c-0.6,-2.433 -1.25,-5.517 -1.95,-9.25c-0.867,2.933 -1.283,4.5 -1.25,4.7l1.95,10.2c-0.767,0.933 -2.067,1.717 -3.9,2.35c-1.667,0.567 -3.217,0.85 -4.65,0.85c-1.467,0 -2.85,-0.633 -4.15,-1.9l0,5.4c0,1.067 1.25,1.6 3.75,1.6c2.7,0 4.65,-0.417 5.85,-1.25c0.533,-0.433 1.75,-1.95 3.65,-4.55c0.4,1.1 0.783,2.217 1.15,3.35c0.633,1.367 1.467,2.05 2.5,2.05l1.05,-0l-0,-5.3l2.25,-0l-0,-0.05c-1.567,0.1 -2.6,0.05 -3.1,-0.15c-0.867,-0.367 -1.917,-3.05 -3.15,-8.05Z"/><path d="M58.2,13.1c-0.533,0.833 -0.8,1.633 -0.8,2.4c-0,0.667 0.517,1.35 1.55,2.05c-1.867,1.6 -3.617,2.817 -5.25,3.65c0.567,0.167 1.033,0.25 1.4,0.25c1.367,-0 3,-1.1 4.9,-3.3c0.767,0.533 1.433,0.933 2,1.2l0.2,-2.3c-0.433,-0.3 -0.767,-0.517 -1,-0.65c0.533,-1.167 0.8,-2.067 0.8,-2.7c0,-1.367 -0.567,-2.05 -1.7,-2.05c-0.767,-0 -1.467,0.483 -2.1,1.45Zm0.5,0.95c0.067,-0.233 0.217,-0.367 0.45,-0.4c0.867,0.133 1.3,0.6 1.3,1.4c0,0.2 -0.05,0.433 -0.15,0.7c-1.067,-0.6 -1.6,-1.167 -1.6,-1.7Z"/><path d="M19.1,12.4c0,-1.367 -0.567,-2.05 -1.7,-2.05c-0.767,0 -1.467,0.483 -2.1,1.45c-0.533,0.833 -0.8,1.633 -0.8,2.4c-0,0.667 0.517,1.35 1.55,2.05c-1.867,1.6 -3.617,2.817 -5.25,3.65c0.567,0.167 1.033,0.25 1.4,0.25c1.367,-0 3,-1.1 4.9,-3.3c0.767,0.533 1.433,0.933 2,1.2l0.2,-2.3c-0.433,-0.3 -0.767,-0.517 -1,-0.65c0.533,-1.167 0.8,-2.067 0.8,-2.7Zm-1.55,1.35c-0,0.2 -0.05,0.433 -0.15,0.7c-1.067,-0.6 -1.6,-1.167 -1.6,-1.7c0.067,-0.233 0.217,-0.367 0.45,-0.4c0.867,0.133 1.3,0.6 1.3,1.4Z"/><path d="M46.433,62.111l-5.8,3.45c-0.711,0.423 -0.945,1.344 -0.522,2.056c0.423,0.711 1.344,0.945 2.056,0.522l5.8,-3.45c0.711,-0.423 0.945,-1.344 0.522,-2.056c-0.423,-0.711 -1.344,-0.945 -2.056,-0.522Z"/></g></svg>