<?xml version="1.0" encoding="UTF-8" standalone="no"?><!DOCTYPE svg PUBLIC "-//W3C//DTD SVG 1.1//EN" "http://www.w3.org/Graphics/SVG/1.1/DTD/svg11.dtd"><svg width="100%" height="100%" viewBox="0 0 87 67" version="1.1" xmlns="http://www.w3.org/2000/svg" xmlns:xlink="http://www.w3.org/1999/xlink" xml:space="preserve" xmlns:serif="http://www.serif.com/" style="fill-rule:evenodd;clip-rule:evenodd;stroke-linejoin:round;stroke-miterlimit:2;"><g><path d="M58.6,57.6l3.25,-3.1l-3.25,-3.1l-3.3,3.1l3.3,3.1Z"/><path d="M61.2,44.25c1.567,-1.3 2.35,-3.5 2.35,-6.6c-0,-0.867 -0.383,-2.85 -1.15,-5.95c-0.867,1.9 -1.567,3.317 -2.1,4.25c0.833,1.5 1.35,2.583 1.55,3.25c-0.806,0.961 -3.039,1.461 -6.7,1.5l-0,-0.05c-2.833,0 -4.5,-0.117 -5,-0.35c-1.067,-0.5 -1.6,-1.917 -1.6,-4.25c-0.833,0.633 -1.4,1.45 -1.7,2.45c-0.267,0.833 -0.7,1.367 -1.3,1.6c-0.816,0.309 -2.399,0.476 -4.75,0.5c-1.48,-0.038 -2.496,-0.305 -3.05,-0.8c-0.633,-0.533 -1.083,-1.717 -1.35,-3.55c-4,3.867 -9.133,5.8 -15.4,5.8c-2.833,0 -5.417,-0.383 -7.75,-1.15c-3.3,-1.067 -4.95,-2.683 -4.95,-4.85c-0,-0.967 0.483,-2.367 1.45,-4.2c-1.1,0.7 -1.983,1.683 -2.65,2.95c-0.667,1.233 -1,2.483 -1,3.75c0,2.733 1.167,4.867 3.5,6.4c2.033,1.3 4.55,1.95 7.55,1.95c5.933,-0 11.9,-1.617 17.9,-4.85c1.433,2.633 2.883,3.95 4.35,3.95l3.4,-0c1.067,-0 1.95,-0.383 2.65,-1.15c0.2,-0.233 0.733,-1.067 1.6,-2.5c1.067,1.567 1.633,2.383 1.7,2.45c0.767,0.8 1.633,1.2 2.6,1.2l3.8,-0l-0,-0.05c2.751,-0.089 4.767,-0.656 6.05,-1.7Z"/><path d="M50.15,27.4l-3.25,-3.15l-3.3,3.15l3.3,3.05l3.25,-3.05Z"/><path d="M29.55,27l-2.9,-2.7l-2.9,2.75l2.85,2.7l2.95,-2.75Z"/><path d="M23.75,27.05l-2.8,-2.75l-2.9,2.7l2.85,2.75l2.85,-2.7Z"/><path d="M43.95,10.65c0,1.6 0.733,2.4 2.2,2.4c0.867,0 1.6,-0.333 2.2,-1c0.633,-0.667 0.95,-1.417 0.95,-2.25c-0,-0.7 -0.233,-1.35 -0.7,-1.95c-0.467,-0.633 -1.067,-0.95 -1.8,-0.95c-0.967,0 -1.7,0.417 -2.2,1.25c-0.433,0.667 -0.65,1.5 -0.65,2.5Z"/><path d="M44.65,9.9c-0,-0.867 0.4,-1.3 1.2,-1.3c0.367,-0 0.833,0.2 1.4,0.6c0.6,0.4 0.9,0.767 0.9,1.1c-0,0.533 -0.533,0.8 -1.6,0.8c-1.267,-0 -1.9,-0.4 -1.9,-1.2Z"/><path d="M60.683,60.211l-5.8,3.45c-0.711,0.423 -0.945,1.344 -0.522,2.056c0.423,0.711 1.344,0.945 2.056,0.522l5.8,-3.45c0.711,-0.423 0.945,-1.344 0.522,-2.056c-0.423,-0.711 -1.344,-0.945 -2.056,-0.522Z"/><path d="M21.683,58.511l-5.8,3.45c-0.711,0.423 -0.945,1.344 -0.522,2.056c0.423,0.711 1.344,0.945 2.056,0.522l5.8,-3.45c0.711,-0.423 0.945,-1.344 0.522,-2.056c-0.423,-0.711 -1.344,-0.945 -2.056,-0.522Z"/><path d="M20.778,54.514l-5.75,3.45c-0.71,0.426 -0.94,1.348 -0.514,2.058c0.426,0.71 1.348,0.94 2.058,0.514l5.75,-3.45c0.71,-0.426 0.94,-1.348 0.514,-2.058c-0.426,-0.71 -1.348,-0.94 -2.058,-0.514Z"/></g></svg>