<?xml version="1.0" encoding="UTF-8" standalone="no"?><!DOCTYPE svg PUBLIC "-//W3C//DTD SVG 1.1//EN" "http://www.w3.org/Graphics/SVG/1.1/DTD/svg11.dtd"><svg width="100%" height="100%" viewBox="0 0 41 67" version="1.1" xmlns="http://www.w3.org/2000/svg" xmlns:xlink="http://www.w3.org/1999/xlink" xml:space="preserve" xmlns:serif="http://www.serif.com/" style="fill-rule:evenodd;clip-rule:evenodd;stroke-linejoin:round;stroke-miterlimit:2;"><g><path d="M21.3,51.75l2.9,-2.7l-2.85,-2.75l-2.9,2.7l2.85,2.75Z" style="fill:#f00;"/><path d="M27.05,46.3l-2.85,2.75l2.8,2.7l2.9,-2.75l-2.85,-2.7Z" style="fill:#f00;"/><path d="M27.712,31.563c0.192,0.991 0.288,1.704 0.288,2.137c0,3.1 -0.783,5.3 -2.35,6.6c-1.259,1.025 -3.226,1.592 -5.9,1.7c-0.231,0.027 -0.464,0.044 -0.7,0.05l-1.9,0l0,-5.3l2.6,-0c3.572,-0.052 5.755,-0.552 6.55,-1.5c-0.2,-0.667 -0.717,-1.75 -1.55,-3.25c0.533,-0.933 1.233,-2.35 2.1,-4.25l0.862,3.812Z" style="fill:#f00;"/><path d="M17.15,36.75l2.6,0l-0,-0.05l-8.75,-0l-0,5.35l6.15,0l0,-5.3Z"/><path d="M19.75,42.05l0,-0.05c-0.231,0.027 -0.464,0.044 -0.7,0.05l0.7,0Z"/><path d="M23.241,6.406l-5.8,3.4c-0.714,0.419 -0.954,1.338 -0.535,2.053c0.419,0.714 1.338,0.954 2.053,0.535l5.8,-3.4c0.714,-0.419 0.954,-1.338 0.535,-2.053c-0.419,-0.714 -1.338,-0.954 -2.053,-0.535Z"/></g></svg>