<?xml version="1.0" encoding="UTF-8" standalone="no"?><!DOCTYPE svg PUBLIC "-//W3C//DTD SVG 1.1//EN" "http://www.w3.org/Graphics/SVG/1.1/DTD/svg11.dtd"><svg width="100%" height="100%" viewBox="0 0 58 72" version="1.1" xmlns="http://www.w3.org/2000/svg" xmlns:xlink="http://www.w3.org/1999/xlink" xml:space="preserve" xmlns:serif="http://www.serif.com/" style="fill-rule:evenodd;clip-rule:evenodd;stroke-linejoin:round;stroke-miterlimit:2;"><g><path d="M27.45,39.15c-2.6,3.233 -3.9,6.017 -3.9,8.35c-0,1.433 0.55,2.467 1.65,3.1c0.833,0.533 2.067,0.867 3.7,1c1.333,0.033 2.667,0.067 4,0.1c-0.767,1.367 -2.8,2.617 -6.1,3.75c-2.867,0.967 -5.283,1.45 -7.25,1.45c-5.567,-0 -8.35,-2.317 -8.35,-6.95c0,-1.267 0.417,-3.267 1.25,-6c-1.033,0.5 -1.933,1.767 -2.7,3.8c-0.667,1.767 -1,3.317 -1,4.65c0,3.067 0.8,5.433 2.4,7.1c1.6,1.7 3.983,2.55 7.15,2.55c3.367,0 6.967,-1.05 10.8,-3.15c4.3,-2.367 6.45,-5.033 6.45,-8c-0,-1.5 -0.85,-2.517 -2.55,-3.05c-1.633,-0.267 -3.25,-0.55 -4.85,-0.85c-1.767,-0.333 -2.65,-0.983 -2.65,-1.95c0,-1 0.95,-2.217 2.85,-3.65c1.633,-1.2 3.067,-1.983 4.3,-2.35c0.533,0.233 0.9,0.417 1.1,0.55c0.1,0.067 0.383,0.35 0.85,0.85c0.4,-0.7 0.767,-1.417 1.1,-2.15c0.4,-0.833 0.6,-1.6 0.6,-2.3c-0,-0.367 -0.133,-0.817 -0.4,-1.35l-0.95,-0.55c-2.333,0 -4.833,1.683 -7.5,5.05Z" style="fill:#f00;"/><path d="M46.55,19c-2,2.467 -2.983,3.95 -2.95,4.45l0.75,28.3c1.633,-1.3 2.45,-4.733 2.45,-10.3l-0.25,-22.45Z"/><path d="M47.333,55.761l-5.8,3.45c-0.711,0.423 -0.945,1.344 -0.522,2.056c0.423,0.711 1.344,0.945 2.056,0.522l5.8,-3.45c0.711,-0.423 0.945,-1.344 0.522,-2.056c-0.423,-0.711 -1.344,-0.945 -2.056,-0.522Z"/></g></svg>