<?xml version="1.0" encoding="UTF-8" standalone="no"?><!DOCTYPE svg PUBLIC "-//W3C//DTD SVG 1.1//EN" "http://www.w3.org/Graphics/SVG/1.1/DTD/svg11.dtd"><svg width="100%" height="100%" viewBox="0 0 100 77" version="1.1" xmlns="http://www.w3.org/2000/svg" xmlns:xlink="http://www.w3.org/1999/xlink" xml:space="preserve" xmlns:serif="http://www.serif.com/" style="fill-rule:evenodd;clip-rule:evenodd;stroke-linejoin:round;stroke-miterlimit:2;"><g><path d="M29.05,60l2.9,-2.75l-0.25,-0.2c-0.102,-0.05 -0.218,-0.1 -0.35,-0.15l0.2,-0l-2.45,-2.35l-2.85,2.75l2.8,2.7Z" style="fill:#f00;"/><path d="M85.4,60l2.9,-2.75l-2.85,-2.7l-2.85,2.75l2.8,2.7Z" style="fill:#f00;"/><path d="M79.7,60l2.9,-2.7l-2.85,-2.75l-2.9,2.7l2.85,2.75Z" style="fill:#f00;"/><path d="M26.25,57.3l-2.85,-2.75l-2.9,2.7l2.85,2.75l2.9,-2.7Z" style="fill:#f00;"/><path d="M85.25,36c-0.867,1.9 -1.567,3.317 -2.1,4.25c0.833,1.5 1.35,2.583 1.55,3.25c-0.824,0.983 -3.141,1.483 -6.95,1.5l0,5.3c2.879,-0.091 4.979,-0.675 6.3,-1.75c1.567,-1.3 2.35,-3.5 2.35,-6.6c-0,-0.867 -0.383,-2.85 -1.15,-5.95Z" style="fill:#f00;"/><path d="M11.55,20.1c-0.4,0.533 -0.6,1.25 -0.6,2.15c0,7.167 0.033,11.767 0.1,13.8c0.3,6.933 1.017,11.1 2.15,12.5c0.933,1.167 2.25,1.75 3.95,1.75l4.4,0l-0,-0.05c2.802,-0.077 4.852,-0.643 6.15,-1.7c1.567,-1.3 2.35,-3.5 2.35,-6.6c-0,-0.867 -0.383,-2.85 -1.15,-5.95c-0.867,1.9 -1.567,3.317 -2.1,4.25c0.833,1.5 1.35,2.583 1.55,3.25c-0.813,0.97 -3.08,1.47 -6.8,1.5l-0,-0.05c-3.6,-0 -5.933,-0.667 -7,-2c-0.9,-1.133 -1.35,-3.533 -1.35,-7.2l0,-17.2c-0.567,0.533 -1.117,1.05 -1.65,1.55Z" style="fill:#f00;"/><path d="M69.55,27.5c-0.867,2.933 -1.283,4.5 -1.25,4.7l1.95,10.2c-0.767,0.933 -2.067,1.717 -3.9,2.35c-1.667,0.567 -3.217,0.85 -4.65,0.85c-1.467,0 -2.85,-0.633 -4.15,-1.9l-0,5.4c-0,1.067 1.25,1.6 3.75,1.6c2.7,-0 4.65,-0.417 5.85,-1.25c0.533,-0.433 1.75,-1.95 3.65,-4.55c0.4,1.1 0.783,2.217 1.15,3.35c0.633,1.367 1.467,2.05 2.5,2.05l3.3,0l0,-5.35c-1.567,0.1 -2.6,0.05 -3.1,-0.15c-0.867,-0.367 -1.917,-3.05 -3.15,-8.05c-0.6,-2.433 -1.25,-5.517 -1.95,-9.25Z"/><path d="M50.7,44.65c0,-1.533 -0.267,-3 -0.8,-4.4c-0.733,-1.9 -1.75,-2.85 -3.05,-2.85c-1.133,-0 -2.183,0.933 -3.15,2.8c-0.867,1.633 -1.3,3.067 -1.3,4.3c-0,2.133 0.867,3.2 2.6,3.2c1.367,-0 2.633,-0.7 3.8,-2.1c0.3,0.633 0.45,1.217 0.45,1.75c-0,3.133 -2.3,5.6 -6.9,7.4c-3.498,1.406 -7.098,2.123 -10.8,2.15l-0.2,-0c0.132,0.05 0.248,0.1 0.35,0.15c1.648,0.614 2.781,1.014 3.4,1.2c1.267,0.333 2.583,0.5 3.95,0.5c3.8,0 6.767,-1.5 8.9,-4.5c1.833,-2.6 2.75,-5.8 2.75,-9.6Zm-3.15,-1.4c-0,0.3 -0.2,0.567 -0.6,0.8c-0.367,0.233 -0.733,0.35 -1.1,0.35c-0.033,-0 -0.533,-0.233 -1.5,-0.7c0.433,-0.967 0.85,-1.833 1.25,-2.6c1.3,0.567 1.95,1.283 1.95,2.15Z"/><path d="M24.2,21.35c0,-0.467 -0.083,-0.967 -0.25,-1.5l-0.35,0.15c0,1.533 -0.367,2.3 -1.1,2.3c-0.367,0 -0.667,-0.517 -0.9,-1.55l-0.3,0.1c-0.167,0.767 -0.3,1.283 -0.4,1.55c-0.233,0.633 -0.583,0.95 -1.05,0.95c-0.433,0 -0.65,-0.567 -0.65,-1.7l-0.35,0.05c-0.233,0.8 -0.35,1.3 -0.35,1.5c0,0.467 0.1,0.85 0.3,1.15c0.233,0.367 0.567,0.55 1,0.55c0.367,-0 0.733,-0.117 1.1,-0.35c0.333,-0.267 0.533,-0.583 0.6,-0.95c0.3,0.2 0.633,0.3 1,0.3c1.133,-0 1.7,-0.85 1.7,-2.55Z"/><path d="M45.091,59.056l-5.8,3.4c-0.714,0.419 -0.954,1.338 -0.535,2.053c0.419,0.714 1.338,0.954 2.053,0.535l5.8,-3.4c0.714,-0.419 0.954,-1.338 0.535,-2.053c-0.419,-0.714 -1.338,-0.954 -2.053,-0.535Z"/><path d="M23.183,10.661l-5.8,3.45c-0.711,0.423 -0.945,1.344 -0.522,2.056c0.423,0.711 1.344,0.945 2.056,0.522l5.8,-3.45c0.711,-0.423 0.945,-1.344 0.522,-2.056c-0.423,-0.711 -1.344,-0.945 -2.056,-0.522Z"/><path d="M22.278,6.664l-5.75,3.45c-0.71,0.426 -0.94,1.348 -0.514,2.058c0.426,0.71 1.348,0.94 2.058,0.514l5.75,-3.45c0.71,-0.426 0.94,-1.348 0.514,-2.058c-0.426,-0.71 -1.348,-0.94 -2.058,-0.514Z"/><path d="M83.546,7.253l-5.85,3.4c-0.716,0.416 -0.959,1.335 -0.543,2.051c0.416,0.716 1.335,0.959 2.051,0.543l5.85,-3.4c0.716,-0.416 0.959,-1.335 0.543,-2.051c-0.416,-0.716 -1.335,-0.959 -2.051,-0.543Z"/><path d="M66.041,7.256l-5.8,3.4c-0.714,0.419 -0.954,1.338 -0.535,2.053c0.419,0.714 1.338,0.954 2.053,0.535l5.8,-3.4c0.714,-0.419 0.954,-1.338 0.535,-2.053c-0.419,-0.714 -1.338,-0.954 -2.053,-0.535Z"/></g></svg>