<?xml version="1.0" encoding="UTF-8" standalone="no"?><!DOCTYPE svg PUBLIC "-//W3C//DTD SVG 1.1//EN" "http://www.w3.org/Graphics/SVG/1.1/DTD/svg11.dtd"><svg width="100%" height="100%" viewBox="0 0 58 67" version="1.1" xmlns="http://www.w3.org/2000/svg" xmlns:xlink="http://www.w3.org/1999/xlink" xml:space="preserve" xmlns:serif="http://www.serif.com/" style="fill-rule:evenodd;clip-rule:evenodd;stroke-linejoin:round;stroke-miterlimit:2;"><g><path d="M8.8,42.55c-1.267,2.1 -1.9,3.867 -1.9,5.3c0,2.767 1.3,4.833 3.9,6.2c2.067,1.1 4.683,1.65 7.85,1.65c7.133,-0 12.417,-2.067 15.85,-6.2c1.033,-1.267 1.55,-2.25 1.55,-2.95c-0,-1.133 -1.183,-1.933 -3.55,-2.4c-1.633,-0.233 -3.283,-0.483 -4.95,-0.75c0.58,-0.782 3.363,-1.232 8.35,-1.35l0,-5.35l-1.55,-0c-2.433,-0 -4.583,0.683 -6.45,2.05c-2.067,1.5 -3.1,3.383 -3.1,5.65c-0,1 0.55,1.75 1.65,2.25c0.633,0.267 1.767,0.517 3.4,0.75c1.533,0.2 2.533,0.433 3,0.7c-0.467,0.9 -2.417,1.733 -5.85,2.5c-2.833,0.6 -5.117,0.9 -6.85,0.9c-2.933,0 -5.167,-0.283 -6.7,-0.85c-2.4,-0.867 -3.6,-2.467 -3.6,-4.8c-0,-0.967 0.367,-2.233 1.1,-3.8c0.9,-1.867 1.433,-3.117 1.6,-3.75c-1.3,0.8 -2.55,2.217 -3.75,4.25Z" style="fill:#f00;"/><rect x="35.9" y="36.7" width="8.75" height="5.35"/><path d="M19.55,13.5c0.333,0 0.617,0.133 0.85,0.4c0.233,0.267 0.35,0.567 0.35,0.9c-0,0.467 -0.35,1.433 -1.05,2.9c1.333,-0.233 2.433,-0.617 3.3,-1.15c0.733,-0.4 1.617,-1.117 2.65,-2.15c0.467,0.367 1.2,0.817 2.2,1.35c0.033,-0.867 0.05,-1.35 0.05,-1.45c0,-0.533 -0.317,-1.017 -0.95,-1.45c0.533,-1.167 0.8,-2.033 0.8,-2.6c-0,-0.433 -0.167,-0.833 -0.5,-1.2c-0.333,-0.4 -0.717,-0.6 -1.15,-0.6c-0.767,-0 -1.467,0.383 -2.1,1.15c-0.633,0.733 -0.95,1.45 -0.95,2.15c-0,0.833 0.55,1.55 1.65,2.15c-1.067,1.033 -2.067,1.7 -3,2c0.1,-0.967 0.15,-1.567 0.15,-1.8c-0,-1.667 -0.567,-2.5 -1.7,-2.5c-0.633,-0 -1.15,0.283 -1.55,0.85c-0.333,0.467 -0.5,1.017 -0.5,1.65c-0,0.3 0.083,0.683 0.25,1.15c0.167,-1.167 0.567,-1.75 1.2,-1.75Zm5.45,-3.55c-0.067,-0 -0.2,0.05 -0.4,0.15l-0.25,0.4c-0,0.367 0.533,0.883 1.6,1.55l0.05,-0.9c-0,-0.797 -0.331,-1.197 -0.992,-1.2l-0.008,-0Z"/></g></svg>