<?xml version="1.0" encoding="UTF-8" standalone="no"?><!DOCTYPE svg PUBLIC "-//W3C//DTD SVG 1.1//EN" "http://www.w3.org/Graphics/SVG/1.1/DTD/svg11.dtd"><svg width="100%" height="100%" viewBox="0 0 70 89" version="1.1" xmlns="http://www.w3.org/2000/svg" xmlns:xlink="http://www.w3.org/1999/xlink" xml:space="preserve" xmlns:serif="http://www.serif.com/" style="fill-rule:evenodd;clip-rule:evenodd;stroke-linejoin:round;stroke-miterlimit:2;"><g><path d="M7.1,61.2c0,3.1 0.733,5.483 2.2,7.15c1.533,1.733 3.783,2.6 6.75,2.6c3.167,0 6.533,-1.067 10.1,-3.2c4.067,-2.4 6.1,-5.1 6.1,-8.1c0,-1.533 -0.817,-2.567 -2.45,-3.1c-1.5,-0.3 -3.017,-0.583 -4.55,-0.85c-1.633,-0.333 -2.45,-1 -2.45,-2c-0,-1 0.883,-2.217 2.65,-3.65c1.533,-1.233 2.883,-2.033 4.05,-2.4c0.5,0.2 0.85,0.383 1.05,0.55c0.067,0.067 0.333,0.35 0.8,0.85c0.333,-0.733 0.683,-1.45 1.05,-2.15c0.367,-0.867 0.55,-1.65 0.55,-2.35c0,-0.367 -0.133,-0.817 -0.4,-1.35l-0.85,-0.55c-2.233,-0 -4.6,1.7 -7.1,5.1c-2.433,3.267 -3.65,6.083 -3.65,8.45c0,1.433 0.517,2.483 1.55,3.15c0.8,0.5 1.967,0.833 3.5,1c1.233,0.033 2.483,0.067 3.75,0.1c-0.733,1.4 -2.633,2.667 -5.7,3.8c-2.7,1 -4.983,1.5 -6.85,1.5c-5.2,0 -7.8,-2.35 -7.8,-7.05c-0,-1.3 0.367,-3.317 1.1,-6.05c-0.933,0.467 -1.767,1.733 -2.5,3.8c-0.6,1.8 -0.9,3.383 -0.9,4.75Z" style="fill:#f00;"/><path d="M57.9,60.5c1.533,-1.3 2.3,-4.767 2.3,-10.4l-0.25,-22.75c-1.867,2.5 -2.783,4 -2.75,4.5l0.7,28.65Z"/><path d="M46.85,47.35c-1.067,0 -2.05,0.95 -2.95,2.85c-0.833,1.7 -1.25,3.167 -1.25,4.4c-0,2.167 0.817,3.25 2.45,3.25c1.267,0 2.45,-0.733 3.55,-2.2c0.3,0.667 0.45,1.283 0.45,1.85c0,3.133 -2.167,5.617 -6.5,7.45c-3.367,1.433 -6.8,2.15 -10.3,2.15c1.7,0.7 2.867,1.167 3.5,1.4c1.2,0.333 2.45,0.5 3.75,0.5c3.533,-0 6.3,-1.517 8.3,-4.55c1.733,-2.633 2.6,-5.883 2.6,-9.75c0,-1.533 -0.25,-3.017 -0.75,-4.45c-0.667,-1.933 -1.617,-2.9 -2.85,-2.9Zm0.65,5.95c0,0.333 -0.183,0.617 -0.55,0.85c-0.367,0.233 -0.717,0.35 -1.05,0.35c-0.033,-0 -0.5,-0.233 -1.4,-0.7c0.4,-1 0.783,-1.883 1.15,-2.65c1.233,0.567 1.85,1.283 1.85,2.15Z"/><path d="M61.2,25.4c0.833,-0.433 1.25,-1 1.25,-1.7c0,-0.567 -0.183,-1.383 -0.55,-2.45c-0.333,-1.1 -0.5,-1.917 -0.5,-2.45c-0.733,0.5 -1.1,0.967 -1.1,1.4c-0,0.5 0.167,1.233 0.5,2.2c0.367,0.967 0.55,1.7 0.55,2.2c0,0.3 -0.05,0.567 -0.15,0.8Z"/><path d="M38.548,18.383l-5.45,3.45c-0.7,0.442 -0.908,1.37 -0.465,2.069c0.442,0.7 1.37,0.908 2.069,0.465l5.45,-3.45c0.7,-0.442 0.908,-1.37 0.465,-2.069c-0.442,-0.7 -1.37,-0.908 -2.069,-0.465Z"/></g></svg>