<?xml version="1.0" encoding="UTF-8" standalone="no"?><!DOCTYPE svg PUBLIC "-//W3C//DTD SVG 1.1//EN" "http://www.w3.org/Graphics/SVG/1.1/DTD/svg11.dtd"><svg width="100%" height="100%" viewBox="0 0 71 79" version="1.1" xmlns="http://www.w3.org/2000/svg" xmlns:xlink="http://www.w3.org/1999/xlink" xml:space="preserve" xmlns:serif="http://www.serif.com/" style="fill-rule:evenodd;clip-rule:evenodd;stroke-linejoin:round;stroke-miterlimit:2;"><g><path d="M22.2,58.6l-2.7,2.75l2.7,2.8l2.65,-2.75l2.7,2.75l2.75,-2.8l-2.75,-2.75l-2.65,2.8l-2.7,-2.8Z" style="fill:#f00;"/><path d="M8.2,22.95c-0.4,0.533 -0.6,1.25 -0.6,2.15c-0,7.267 0.033,11.917 0.1,13.95c0.267,7.033 0.95,11.267 2.05,12.7c0.867,1.167 2.083,1.75 3.65,1.75l6.6,0c1.033,0 1.867,-0.383 2.5,-1.15c0.1,-0.133 0.583,-0.983 1.45,-2.55c0.467,0.8 1.117,1.583 1.95,2.35c1,0.9 1.85,1.35 2.55,1.35l2.85,-0l-0,-5.3c-0.926,0.067 -1.576,0.1 -1.95,0.1c-1.333,-0 -2.283,-0.283 -2.85,-0.85c-0.7,-0.667 -1.083,-1.933 -1.15,-3.8c-1.233,2.1 -2.067,3.35 -2.5,3.75c-0.567,0.533 -1.483,0.8 -2.75,0.8c-0.267,0 -0.933,-0.017 -2,-0.05c-0.187,-0.006 -0.371,-0.023 -0.55,-0.05c-3.367,0 -5.55,-0.683 -6.55,-2.05c-0.833,-1.167 -1.25,-3.6 -1.25,-7.3l0,-17.4c-0.533,0.533 -1.05,1.067 -1.55,1.6Z" style="fill:#f00;"/><path d="M34.05,53.5l-0,-0.05c-0.334,0.025 -0.684,0.042 -1.05,0.05l1.05,0Z" style="fill:#f00;"/><path d="M39.9,62.1l-3.1,-3.15l-3.05,3.15l3.05,3.15l3.1,-3.15Z"/><path d="M67.75,45.25c-0.467,-0.833 -1.333,-1.9 -2.6,-3.2l-1.15,4.5c0.667,0.767 1.317,1.533 1.95,2.3c0.867,1.067 1.3,1.9 1.3,2.5c0,2.867 -2.033,5.333 -6.1,7.4c-3.433,1.733 -6.7,2.6 -9.8,2.6c2.5,1.767 4.983,2.65 7.45,2.65c2.867,0 5.283,-1.783 7.25,-5.35c1.733,-3.067 2.6,-6.183 2.6,-9.35c0,-1.567 -0.3,-2.917 -0.9,-4.05Z"/><path d="M51,20.4c-1.867,2.5 -2.783,4 -2.75,4.5l0.7,28.65c1.533,-1.3 2.3,-4.767 2.3,-10.4l-0.25,-22.75Z"/><path d="M41.5,45.05c0,-0.9 -0.367,-2.9 -1.1,-6c-0.8,1.9 -1.45,3.317 -1.95,4.25c0.767,1.533 1.233,2.633 1.4,3.3c-0.711,0.947 -2.644,1.447 -5.8,1.5l-2.75,0l-0,5.4l1.7,0c0.366,-0.008 0.716,-0.025 1.05,-0.05c2.351,-0.158 4.101,-0.741 5.25,-1.75c1.467,-1.3 2.2,-3.517 2.2,-6.65Z"/><path d="M38.398,66.533l-5.45,3.45c-0.7,0.442 -0.908,1.37 -0.465,2.069c0.442,0.7 1.37,0.908 2.069,0.465l5.45,-3.45c0.7,-0.442 0.908,-1.37 0.465,-2.069c-0.442,-0.7 -1.37,-0.908 -2.069,-0.465Z"/><path d="M60.489,13.188l-5.45,3.5c-0.696,0.447 -0.898,1.376 -0.451,2.073c0.447,0.696 1.376,0.898 2.073,0.451l5.45,-3.5c0.696,-0.447 0.898,-1.376 0.451,-2.073c-0.447,-0.696 -1.376,-0.898 -2.073,-0.451Z"/><path d="M19.139,13.188l-5.45,3.5c-0.696,0.447 -0.898,1.376 -0.451,2.073c0.447,0.696 1.376,0.898 2.073,0.451l5.45,-3.5c0.696,-0.447 0.898,-1.376 0.451,-2.073c-0.447,-0.696 -1.376,-0.898 -2.073,-0.451Z"/></g></svg>