<?xml version="1.0" encoding="UTF-8" standalone="no"?><!DOCTYPE svg PUBLIC "-//W3C//DTD SVG 1.1//EN" "http://www.w3.org/Graphics/SVG/1.1/DTD/svg11.dtd"><svg width="100%" height="100%" viewBox="0 0 85 73" version="1.1" xmlns="http://www.w3.org/2000/svg" xmlns:xlink="http://www.w3.org/1999/xlink" xml:space="preserve" xmlns:serif="http://www.serif.com/" style="fill-rule:evenodd;clip-rule:evenodd;stroke-linejoin:round;stroke-miterlimit:2;"><g><path d="M34.85,35.4l-0.95,-0.55c-2.333,-0 -4.833,1.683 -7.5,5.05c-2.6,3.233 -3.9,6.017 -3.9,8.35c0,1.433 0.55,2.467 1.65,3.1c0.833,0.533 2.067,0.867 3.7,1c1.333,0.033 2.667,0.067 4,0.1c-0.767,1.367 -2.8,2.617 -6.1,3.75c-2.867,0.967 -5.283,1.45 -7.25,1.45c-5.567,-0 -8.35,-2.317 -8.35,-6.95c0,-1.267 0.417,-3.267 1.25,-6c-1.033,0.5 -1.933,1.767 -2.7,3.8c-0.667,1.767 -1,3.317 -1,4.65c0,3.067 0.8,5.433 2.4,7.1c1.6,1.7 3.983,2.55 7.15,2.55c3.367,0 6.967,-1.05 10.8,-3.15c4.3,-2.367 6.45,-5.033 6.45,-8c0,-1.5 -0.85,-2.517 -2.55,-3.05c-1.633,-0.267 -3.25,-0.55 -4.85,-0.85c-1.767,-0.333 -2.65,-0.983 -2.65,-1.95c0,-1 0.95,-2.217 2.85,-3.65c1.633,-1.2 3.067,-1.983 4.3,-2.35c0.533,0.233 0.9,0.417 1.1,0.55c0.1,0.067 0.383,0.35 0.85,0.85c0.4,-0.7 0.767,-1.417 1.1,-2.15c0.4,-0.833 0.6,-1.6 0.6,-2.3c-0,-0.367 -0.133,-0.817 -0.4,-1.35Z" style="fill:#f00;"/><path d="M64.35,62.15l2.9,-2.7l-2.85,-2.75l-2.9,2.7l2.85,2.75Z" style="fill:#f00;"/><path d="M70.05,62.15l2.9,-2.75l-2.85,-2.7l-2.85,2.75l2.8,2.7Z" style="fill:#f00;"/><path d="M67.8,42.4c0.833,1.5 1.35,2.583 1.55,3.25c-0.821,0.978 -3.121,1.478 -6.9,1.5l-2.25,-0l0,5.3l2.25,-0c2.853,-0.098 4.937,-0.681 6.25,-1.75c1.567,-1.3 2.35,-3.5 2.35,-6.6c-0,-0.867 -0.383,-2.85 -1.15,-5.95c-0.867,1.9 -1.567,3.317 -2.1,4.25Z" style="fill:#f00;"/><path d="M54.25,29.65c-0.867,2.933 -1.283,4.5 -1.25,4.7l1.95,10.2c-0.767,0.933 -2.067,1.717 -3.9,2.35c-1.667,0.567 -3.217,0.85 -4.65,0.85c-1.467,-0 -2.85,-0.633 -4.15,-1.9l-0,5.4c-0,1.067 1.25,1.6 3.75,1.6c2.7,0 4.65,-0.417 5.85,-1.25c0.533,-0.433 1.75,-1.95 3.65,-4.55c0.4,1.1 0.783,2.217 1.15,3.35c0.633,1.367 1.467,2.05 2.5,2.05l1.05,-0l0,-5.3l2.25,-0l0,-0.05c-1.567,0.1 -2.6,0.05 -3.1,-0.15c-0.867,-0.367 -1.917,-3.05 -3.15,-8.05c-0.6,-2.433 -1.25,-5.517 -1.95,-9.25Z"/><path d="M23,23.85l-0.35,0.15c0,1.533 -0.367,2.3 -1.1,2.3c-0.367,0 -0.667,-0.517 -0.9,-1.55l-0.3,0.1c-0.167,0.767 -0.3,1.283 -0.4,1.55c-0.233,0.633 -0.583,0.95 -1.05,0.95c-0.433,-0 -0.65,-0.567 -0.65,-1.7l-0.35,0.05c-0.233,0.8 -0.35,1.3 -0.35,1.5c-0,0.467 0.1,0.85 0.3,1.15c0.233,0.367 0.567,0.55 1,0.55c0.367,0 0.733,-0.117 1.1,-0.35c0.333,-0.267 0.533,-0.583 0.6,-0.95c0.3,0.2 0.633,0.3 1,0.3c1.133,0 1.7,-0.85 1.7,-2.55c0,-0.467 -0.083,-0.967 -0.25,-1.5Z"/><path d="M48.791,8.756l-5.8,3.4c-0.714,0.419 -0.954,1.338 -0.535,2.053c0.419,0.714 1.338,0.954 2.053,0.535l5.8,-3.4c0.714,-0.419 0.954,-1.338 0.535,-2.053c-0.419,-0.714 -1.338,-0.954 -2.053,-0.535Z"/><path d="M21.941,8.756l-5.8,3.4c-0.714,0.419 -0.954,1.338 -0.535,2.053c0.419,0.714 1.338,0.954 2.053,0.535l5.8,-3.4c0.714,-0.419 0.954,-1.338 0.535,-2.053c-0.419,-0.714 -1.338,-0.954 -2.053,-0.535Z"/><path d="M66.941,8.256l-5.8,3.4c-0.714,0.419 -0.954,1.338 -0.535,2.053c0.419,0.714 1.338,0.954 2.053,0.535l5.8,-3.4c0.714,-0.419 0.954,-1.338 0.535,-2.053c-0.419,-0.714 -1.338,-0.954 -2.053,-0.535Z"/></g></svg>