<?xml version="1.0" encoding="UTF-8" standalone="no"?><!DOCTYPE svg PUBLIC "-//W3C//DTD SVG 1.1//EN" "http://www.w3.org/Graphics/SVG/1.1/DTD/svg11.dtd"><svg width="100%" height="100%" viewBox="0 0 98 77" version="1.1" xmlns="http://www.w3.org/2000/svg" xmlns:xlink="http://www.w3.org/1999/xlink" xml:space="preserve" xmlns:serif="http://www.serif.com/" style="fill-rule:evenodd;clip-rule:evenodd;stroke-linejoin:round;stroke-miterlimit:2;"><g><path d="M27.35,46.95c-2.067,1.5 -3.1,3.383 -3.1,5.65c0,1 0.55,1.75 1.65,2.25c0.633,0.267 1.767,0.517 3.4,0.75c1.533,0.2 2.533,0.433 3,0.7c-0.467,0.9 -2.417,1.733 -5.85,2.5c-2.833,0.6 -5.117,0.9 -6.85,0.9c-2.933,-0 -5.167,-0.283 -6.7,-0.85c-2.4,-0.867 -3.6,-2.467 -3.6,-4.8c-0,-0.967 0.367,-2.233 1.1,-3.8c0.9,-1.867 1.433,-3.117 1.6,-3.75c-1.3,0.8 -2.55,2.217 -3.75,4.25c-1.267,2.1 -1.9,3.867 -1.9,5.3c0,2.767 1.3,4.833 3.9,6.2c2.067,1.1 4.683,1.65 7.85,1.65c7.133,-0 12.417,-2.067 15.85,-6.2c1.033,-1.267 1.55,-2.25 1.55,-2.95c0,-1.133 -1.183,-1.933 -3.55,-2.4c-1.633,-0.233 -3.283,-0.483 -4.95,-0.75c0.586,-0.791 3.419,-1.241 8.5,-1.35l-0.35,0l-0,-5.3l2.6,-0l0,-0.05l-3.95,-0c-2.433,-0 -4.583,0.683 -6.45,2.05Z" style="fill:#f00;"/><path d="M37.05,50.25l0.7,0l-0,-0.05c-0.231,0.027 -0.464,0.044 -0.7,0.05Z" style="fill:#f00;"/><path d="M87.9,17.55c-2,2.467 -2.983,3.95 -2.95,4.45l0.75,28.3c1.633,-1.3 2.45,-4.733 2.45,-10.3l-0.25,-22.45Z"/><path d="M44.85,35.95c-0.867,1.9 -1.567,3.317 -2.1,4.25c0.833,1.5 1.35,2.583 1.55,3.25c-0.795,0.948 -2.978,1.448 -6.55,1.5l-2.6,-0l-0,5.3l1.9,0c0.236,-0.006 0.469,-0.023 0.7,-0.05c2.674,-0.108 4.641,-0.675 5.9,-1.7c1.567,-1.3 2.35,-3.5 2.35,-6.6c0,-0.867 -0.383,-2.85 -1.15,-5.95Z"/><path d="M76.5,35.95c-0.833,1.9 -1.517,3.317 -2.05,4.25c0.8,1.5 1.317,2.583 1.55,3.25c-0.9,1.033 -3.433,1.533 -7.6,1.5l-1.55,-0l0,0.2c-0.507,-0.015 -1.023,-0.049 -1.55,-0.1c-0.5,-1.033 -1,-2.083 -1.5,-3.15c-0.8,-1.333 -1.617,-2 -2.45,-2c-1,-0 -2.05,1 -3.15,3c-1,1.867 -1.5,3.367 -1.5,4.5c0,1.433 0.717,2.35 2.15,2.75c1.333,0.167 2.667,0.35 4,0.55c-1.567,2.267 -3.2,3.917 -4.9,4.95c-1.9,1.167 -4.15,1.75 -6.75,1.75c-1.4,-0 -3.417,-0.117 -6.05,-0.35c2.467,2.367 5.333,3.55 8.6,3.55c2.833,0 5.25,-1.117 7.25,-3.35c1.367,-1.567 2.717,-3.9 4.05,-7l4.15,0l0,-0.05c2.808,-0.082 4.858,-0.649 6.15,-1.7c1.567,-1.3 2.35,-3.5 2.35,-6.6c0,-0.867 -0.4,-2.85 -1.2,-5.95Zm-14.75,9c0.2,0.267 0.4,0.85 0.6,1.75c-0.833,-0 -1.817,-0.067 -2.95,-0.2c-0,-0.433 -0.083,-0.717 -0.25,-0.85c0.333,-0.633 0.65,-1.217 0.95,-1.75c0.867,0.4 1.417,0.75 1.65,1.05Z"/><path d="M41.65,32.3l3.3,-3.1l-3.3,-3.15l-3.3,3.15l3.3,3.1Z"/><path d="M71.55,30.95l2.85,-2.7l-2.85,-2.7l-2.9,2.65l2.9,2.75Z"/><path d="M77.25,30.95l2.9,-2.75l-2.9,-2.65l-2.85,2.7l2.85,2.7Z"/><path d="M91.3,15.25c-0,-0.567 -0.183,-1.383 -0.55,-2.45c-0.4,-1.067 -0.6,-1.867 -0.6,-2.4c-0.767,0.5 -1.15,0.967 -1.15,1.4c0,0.467 0.183,1.183 0.55,2.15c0.4,0.967 0.6,1.683 0.6,2.15c0,0.333 -0.05,0.617 -0.15,0.85c0.867,-0.433 1.3,-1 1.3,-1.7Z"/><path d="M73.6,10.15c0,-1.367 -0.567,-2.05 -1.7,-2.05c-0.767,0 -1.467,0.483 -2.1,1.45c-0.533,0.833 -0.8,1.633 -0.8,2.4c-0,0.667 0.517,1.35 1.55,2.05c-1.867,1.6 -3.617,2.817 -5.25,3.65c0.567,0.167 1.033,0.25 1.4,0.25c1.367,-0 3,-1.1 4.9,-3.3c0.767,0.533 1.433,0.933 2,1.2l0.2,-2.3c-0.433,-0.3 -0.767,-0.517 -1,-0.65c0.533,-1.167 0.8,-2.067 0.8,-2.7Zm-2.85,-0.05c0.867,0.133 1.3,0.6 1.3,1.4c-0,0.2 -0.05,0.433 -0.15,0.7c-1.067,-0.6 -1.6,-1.167 -1.6,-1.7c0.067,-0.233 0.217,-0.367 0.45,-0.4Z"/><path d="M40.491,57.306l-5.8,3.4c-0.714,0.419 -0.954,1.338 -0.535,2.053c0.419,0.714 1.338,0.954 2.053,0.535l5.8,-3.4c0.714,-0.419 0.954,-1.338 0.535,-2.053c-0.419,-0.714 -1.338,-0.954 -2.053,-0.535Z"/></g></svg>