<?xml version="1.0" encoding="UTF-8" standalone="no"?><!DOCTYPE svg PUBLIC "-//W3C//DTD SVG 1.1//EN" "http://www.w3.org/Graphics/SVG/1.1/DTD/svg11.dtd"><svg width="100%" height="100%" viewBox="0 0 65 89" version="1.1" xmlns="http://www.w3.org/2000/svg" xmlns:xlink="http://www.w3.org/1999/xlink" xml:space="preserve" xmlns:serif="http://www.serif.com/" style="fill-rule:evenodd;clip-rule:evenodd;stroke-linejoin:round;stroke-miterlimit:2;"><g><path d="M19.55,67.15c-2.733,-0 -4.817,-0.283 -6.25,-0.85c-2.267,-0.867 -3.4,-2.483 -3.4,-4.85c-0,-1 0.35,-2.283 1.05,-3.85c0.833,-1.9 1.333,-3.167 1.5,-3.8c-1.233,0.8 -2.417,2.25 -3.55,4.35c-1.167,2.1 -1.75,3.867 -1.75,5.3c-0,2.833 1.217,4.933 3.65,6.3c1.933,1.133 4.383,1.7 7.35,1.7c6.7,0 11.65,-2.1 14.85,-6.3c1,-1.3 1.5,-2.3 1.5,-3c0,-1.167 -1.117,-1.967 -3.35,-2.4c-1.533,-0.267 -3.067,-0.517 -4.6,-0.75c0.538,-0.837 3.288,-1.304 8.25,-1.4l-0.6,0l0,-5.4l-1.3,0c-2.267,0 -4.3,0.683 -6.1,2.05c-1.9,1.5 -2.85,3.4 -2.85,5.7c0,1.033 0.5,1.8 1.5,2.3c0.6,0.267 1.683,0.517 3.25,0.75c1.433,0.233 2.367,0.483 2.8,0.75c-0.467,0.9 -2.3,1.733 -5.5,2.5c-2.667,0.6 -4.817,0.9 -6.45,0.9Z" style="fill:#f00;"/><path d="M52.15,63.05l-3.05,3.15l3.05,3.15l3.1,-3.15l-3.1,-3.15Z"/><path d="M55.2,50.7c-0.744,0.992 -2.827,1.492 -6.25,1.5l-1.55,0c-1.739,-0.049 -2.806,-0.166 -3.2,-0.35c-0.967,-0.5 -1.45,-1.933 -1.45,-4.3c-0.8,0.633 -1.35,1.45 -1.65,2.45c-0.233,0.833 -0.633,1.383 -1.2,1.65c-0.769,0.313 -2.269,0.497 -4.5,0.55l-1.2,0l0,5.4l3.15,0c1,0 1.833,-0.4 2.5,-1.2c0.167,-0.2 0.65,-1.033 1.45,-2.5c1.033,1.567 1.567,2.383 1.6,2.45c0.7,0.833 1.517,1.25 2.45,1.25l3.6,0l0,-0.05c2.579,-0.094 4.479,-0.678 5.7,-1.75c1.467,-1.3 2.2,-3.517 2.2,-6.65c0,-0.9 -0.367,-2.9 -1.1,-6c-0.8,1.9 -1.45,3.317 -1.95,4.25c0.767,1.533 1.233,2.633 1.4,3.3Z"/><path d="M41.2,35.55l-3.1,3.2l3.05,3.1l3.1,-3.1l-3.05,-3.2Z"/><path d="M25.048,16.233l-5.45,3.45c-0.7,0.442 -0.908,1.37 -0.465,2.069c0.442,0.7 1.37,0.908 2.069,0.465l5.45,-3.45c0.7,-0.442 0.908,-1.37 0.465,-2.069c-0.442,-0.7 -1.37,-0.908 -2.069,-0.465Z"/><path d="M55.089,15.338l-5.45,3.5c-0.696,0.447 -0.898,1.376 -0.451,2.073c0.447,0.696 1.376,0.898 2.073,0.451l5.45,-3.5c0.696,-0.447 0.898,-1.376 0.451,-2.073c-0.447,-0.696 -1.376,-0.898 -2.073,-0.451Z"/></g></svg>