<?xml version="1.0" encoding="UTF-8" standalone="no"?><!DOCTYPE svg PUBLIC "-//W3C//DTD SVG 1.1//EN" "http://www.w3.org/Graphics/SVG/1.1/DTD/svg11.dtd"><svg width="100%" height="100%" viewBox="0 0 67 89" version="1.1" xmlns="http://www.w3.org/2000/svg" xmlns:xlink="http://www.w3.org/1999/xlink" xml:space="preserve" xmlns:serif="http://www.serif.com/" style="fill-rule:evenodd;clip-rule:evenodd;stroke-linejoin:round;stroke-miterlimit:2;"><g><path d="M35.3,50.7l-1.3,0c-2.267,0 -4.3,0.683 -6.1,2.05c-1.9,1.5 -2.85,3.4 -2.85,5.7c-0,1.033 0.5,1.8 1.5,2.3c0.6,0.267 1.683,0.517 3.25,0.75c1.433,0.233 2.367,0.483 2.8,0.75c-0.467,0.9 -2.3,1.733 -5.5,2.5c-2.667,0.6 -4.817,0.9 -6.45,0.9c-2.733,-0 -4.817,-0.283 -6.25,-0.85c-2.267,-0.867 -3.4,-2.483 -3.4,-4.85c-0,-1 0.35,-2.283 1.05,-3.85c0.833,-1.9 1.333,-3.167 1.5,-3.8c-1.233,0.8 -2.417,2.25 -3.55,4.35c-1.167,2.1 -1.75,3.867 -1.75,5.3c-0,2.833 1.217,4.933 3.65,6.3c1.933,1.133 4.383,1.7 7.35,1.7c6.7,0 11.65,-2.1 14.85,-6.3c1,-1.3 1.5,-2.3 1.5,-3c0,-1.167 -1.117,-1.967 -3.35,-2.4c-1.533,-0.267 -3.067,-0.517 -4.6,-0.75c0.538,-0.837 3.288,-1.304 8.25,-1.4l-0.6,0l-0,-5.4Z" style="fill:#f00;"/><path d="M54.5,64.7l3.05,3.15l3.1,-3.15l-3.1,-3.15l-3.05,3.15Z"/><path d="M54.75,50.7c3.186,-0.048 5.136,-0.548 5.85,-1.5c-0.167,-0.667 -0.633,-1.767 -1.4,-3.3c0.5,-0.933 1.15,-2.35 1.95,-4.25c0.733,3.1 1.1,5.1 1.1,6c-0,3.133 -0.733,5.35 -2.2,6.65c-1.157,1.016 -2.924,1.599 -5.3,1.75l-0,0.05l-5.95,0c-0.7,0 -1.55,-0.45 -2.55,-1.35c-0.833,-0.767 -1.483,-1.55 -1.95,-2.35c-0.9,1.567 -1.383,2.417 -1.45,2.55c-0.633,0.767 -1.467,1.15 -2.5,1.15l-5.05,0l-0,-5.4l2.4,0c0.212,0.027 0.429,0.043 0.65,0.05c1.1,0.033 1.8,0.05 2.1,0.05c1.233,-0 2.133,-0.267 2.7,-0.8c0.467,-0.433 1.317,-1.683 2.55,-3.75c0.067,1.867 0.45,3.133 1.15,3.8c0.6,0.567 1.583,0.85 2.95,0.85c0.4,-0 1.15,-0.033 2.25,-0.1l-0,-0.1l2.7,0Z"/><path d="M47.3,33.25l-2.65,2.75l-2.7,-2.75l-2.65,2.7l2.7,2.8l2.6,-2.75l2.7,2.75l2.75,-2.8l-2.75,-2.7Z"/><path d="M44.8,33l2.7,-2.8l-2.7,-2.75l-2.65,2.75l2.65,2.8Z"/><path d="M44.35,19.6c0,-0.467 -0.067,-0.967 -0.2,-1.5l-0.35,0.15c-0,1.533 -0.333,2.3 -1,2.3c-0.333,-0 -0.617,-0.517 -0.85,-1.55l-0.3,0.1c-0.133,0.767 -0.25,1.283 -0.35,1.55c-0.233,0.633 -0.567,0.95 -1,0.95c-0.4,0 -0.6,-0.567 -0.6,-1.7l-0.3,0.05c-0.233,0.8 -0.35,1.317 -0.35,1.55c-0,0.467 0.083,0.85 0.25,1.15c0.233,0.367 0.55,0.55 0.95,0.55c0.367,0 0.717,-0.133 1.05,-0.4c0.3,-0.267 0.483,-0.583 0.55,-0.95c0.267,0.233 0.583,0.35 0.95,0.35c1.033,0 1.55,-0.867 1.55,-2.6Z"/><path d="M58.798,11.883l-5.45,3.45c-0.7,0.442 -0.908,1.37 -0.465,2.069c0.442,0.7 1.37,0.908 2.069,0.465l5.45,-3.45c0.7,-0.442 0.908,-1.37 0.465,-2.069c-0.442,-0.7 -1.37,-0.908 -2.069,-0.465Z"/><path d="M42.498,11.433l-5.45,3.45c-0.7,0.442 -0.908,1.37 -0.465,2.069c0.442,0.7 1.37,0.908 2.069,0.465l5.45,-3.45c0.7,-0.442 0.908,-1.37 0.465,-2.069c-0.442,-0.7 -1.37,-0.908 -2.069,-0.465Z"/></g></svg>