<?xml version="1.0" encoding="UTF-8" standalone="no"?><!DOCTYPE svg PUBLIC "-//W3C//DTD SVG 1.1//EN" "http://www.w3.org/Graphics/SVG/1.1/DTD/svg11.dtd"><svg width="100%" height="100%" viewBox="0 0 97 89" version="1.1" xmlns="http://www.w3.org/2000/svg" xmlns:xlink="http://www.w3.org/1999/xlink" xml:space="preserve" xmlns:serif="http://www.serif.com/" style="fill-rule:evenodd;clip-rule:evenodd;stroke-linejoin:round;stroke-miterlimit:2;"><g><path d="M49.45,63.95c-0.06,-0.081 -0.126,-0.164 -0.2,-0.25c0.121,0.03 0.238,0.064 0.35,0.1l0.2,-0.2l-2.75,-2.75l-2.65,2.75l2.65,2.8l2.4,-2.45Z" style="fill:#f00;"/><path d="M39,63.6l2.7,2.8l2.7,-2.8l-2.7,-2.7l-2.7,2.7Z" style="fill:#f00;"/><path d="M44.95,46.35c0.767,1.533 1.233,2.633 1.4,3.3c-0.772,1.03 -2.989,1.53 -6.65,1.5l-1.9,-0l-0,5.4l1.9,-0c2.783,-0.073 4.816,-0.673 6.1,-1.8c1.467,-1.3 2.2,-3.517 2.2,-6.65c-0,-0.9 -0.367,-2.9 -1.1,-6c-0.8,1.9 -1.45,3.317 -1.95,4.25Z" style="fill:#f00;"/><path d="M22.5,65l-3.1,-3.15l-3.1,3.15l3.1,3.15l3.1,-3.15Z"/><path d="M62.65,49.4c-0.2,1.367 -0.5,2.55 -0.9,3.55c0,0.067 0.417,0.767 1.25,2.1c0.7,1.1 1.05,1.717 1.05,1.85c-0,1.267 -1.367,2.883 -4.1,4.85c-2.633,1.933 -4.617,2.9 -5.95,2.9c-0.6,-0 -1.4,-0.117 -2.4,-0.35c-0.651,-0.17 -1.317,-0.336 -2,-0.5c-0.112,-0.036 -0.229,-0.07 -0.35,-0.1c0.074,0.086 0.14,0.169 0.2,0.25c0.995,1.088 2.112,1.988 3.35,2.7c1.5,0.867 2.933,1.3 4.3,1.3c1.867,0 3.75,-1.4 5.65,-4.2c1.667,-2.467 2.633,-4.767 2.9,-6.9c0.265,-0.177 0.581,-0.277 0.95,-0.3l5.05,-0c1.033,-0 1.867,-0.383 2.5,-1.15c0.067,-0.133 0.55,-0.983 1.45,-2.55c0.467,0.8 1.117,1.583 1.95,2.35c1,0.9 1.85,1.35 2.55,1.35l5.95,-0l-0,-0.05c2.377,-0.156 4.127,-0.739 5.25,-1.75c1.467,-1.3 2.2,-3.517 2.2,-6.65c0,-0.9 -0.367,-2.9 -1.1,-6c-0.8,1.9 -1.45,3.317 -1.95,4.25c0.767,1.533 1.25,2.633 1.45,3.3c-0.74,0.947 -2.69,1.447 -5.85,1.5l-2.7,-0l0,0.1c-1.1,0.067 -1.85,0.1 -2.25,0.1c-1.367,0 -2.35,-0.283 -2.95,-0.85c-0.7,-0.667 -1.083,-1.933 -1.15,-3.8c-1.233,2.067 -2.083,3.317 -2.55,3.75c-0.567,0.533 -1.467,0.8 -2.7,0.8c-0.3,-0 -1,-0.017 -2.1,-0.05c-0.416,-0.012 -0.816,-0.029 -1.2,-0.05c-1.867,-0 -2.933,-0.033 -3.2,-0.1c-0.8,-0.167 -1.667,-0.717 -2.6,-1.65Z"/><path d="M7.45,45.2c-0.633,1.267 -0.95,2.533 -0.95,3.8c0,2.767 1.1,4.917 3.3,6.45c1.9,1.333 4.25,2 7.05,2c5.567,0 11.167,-1.633 16.8,-4.9c1.333,2.667 2.7,4 4.1,4l0.05,-0l-0,-5.4l1.5,-0c-1.544,-0.044 -2.577,-0.327 -3.1,-0.85c-0.6,-0.567 -1.033,-1.767 -1.3,-3.6c-3.733,3.9 -8.55,5.85 -14.45,5.85c-2.633,-0 -5.05,-0.4 -7.25,-1.2c-3.1,-1.067 -4.65,-2.7 -4.65,-4.9c-0,-0.967 0.45,-2.383 1.35,-4.25c-1,0.733 -1.817,1.733 -2.45,3Z"/><path d="M78.6,39.2l2.75,-2.8l-2.75,-2.7l-2.65,2.75l-2.7,-2.75l-2.65,2.7l2.7,2.8l2.6,-2.75l2.7,2.75Z"/><path d="M93.1,31.5l-2.7,2.8l2.7,2.7l2.7,-2.75l-2.7,-2.75Z"/><path d="M90.4,34.3l-2.65,-2.8l-2.7,2.75l2.7,2.75l2.65,-2.7Z"/><path d="M76.1,33.45l2.7,-2.8l-2.7,-2.75l-2.65,2.75l2.65,2.8Z"/><path d="M59.398,68.283l-5.45,3.45c-0.7,0.442 -0.908,1.37 -0.465,2.069c0.442,0.7 1.37,0.908 2.069,0.465l5.45,-3.45c0.7,-0.442 0.908,-1.37 0.465,-2.069c-0.442,-0.7 -1.37,-0.908 -2.069,-0.465Z"/><path d="M22.498,17.133l-5.45,3.45c-0.7,0.442 -0.908,1.37 -0.465,2.069c0.442,0.7 1.37,0.908 2.069,0.465l5.45,-3.45c0.7,-0.442 0.908,-1.37 0.465,-2.069c-0.442,-0.7 -1.37,-0.908 -2.069,-0.465Z"/><path d="M91.248,11.483l-5.45,3.45c-0.7,0.442 -0.908,1.37 -0.465,2.069c0.442,0.7 1.37,0.908 2.069,0.465l5.45,-3.45c0.7,-0.442 0.908,-1.37 0.465,-2.069c-0.442,-0.7 -1.37,-0.908 -2.069,-0.465Z"/></g></svg>