<?xml version="1.0" encoding="UTF-8" standalone="no"?><!DOCTYPE svg PUBLIC "-//W3C//DTD SVG 1.1//EN" "http://www.w3.org/Graphics/SVG/1.1/DTD/svg11.dtd"><svg width="100%" height="100%" viewBox="0 0 61 79" version="1.1" xmlns="http://www.w3.org/2000/svg" xmlns:xlink="http://www.w3.org/1999/xlink" xml:space="preserve" xmlns:serif="http://www.serif.com/" style="fill-rule:evenodd;clip-rule:evenodd;stroke-linejoin:round;stroke-miterlimit:2;"><g><path d="M14.15,62.65c-2.267,-0.867 -3.4,-2.483 -3.4,-4.85c0,-1 0.35,-2.283 1.05,-3.85c0.833,-1.9 1.333,-3.167 1.5,-3.8c-1.233,0.8 -2.417,2.25 -3.55,4.35c-1.167,2.1 -1.75,3.867 -1.75,5.3c0,2.833 1.217,4.933 3.65,6.3c1.933,1.133 4.383,1.7 7.35,1.7c6.7,-0 11.65,-2.1 14.85,-6.3c1,-1.3 1.5,-2.3 1.5,-3c0,-1.167 -1.117,-1.967 -3.35,-2.4c-1.533,-0.267 -3.067,-0.517 -4.6,-0.75c0.541,-0.841 3.307,-1.308 8.3,-1.4l-0.65,0l-0,-5.4l-1.3,-0c-2.267,-0 -4.3,0.683 -6.1,2.05c-1.9,1.5 -2.85,3.4 -2.85,5.7c-0,1.033 0.5,1.8 1.5,2.3c0.6,0.267 1.683,0.517 3.25,0.75c1.433,0.233 2.367,0.483 2.8,0.75c-0.467,0.9 -2.3,1.733 -5.5,2.5c-2.667,0.6 -4.817,0.9 -6.45,0.9c-2.733,0 -4.817,-0.283 -6.25,-0.85Z" style="fill:#f00;"/><path d="M36.8,53.95l0.65,0l0,-0.05c-0.211,0.027 -0.428,0.044 -0.65,0.05Z" style="fill:#f00;"/><path d="M54.75,20.85c-1.867,2.5 -2.783,4 -2.75,4.5l0.7,28.65c1.533,-1.3 2.3,-4.767 2.3,-10.4l-0.25,-22.75Z"/><path d="M37.45,48.55l-2.4,-0l-0,5.4l1.75,0c0.222,-0.006 0.439,-0.023 0.65,-0.05c2.528,-0.108 4.395,-0.692 5.6,-1.75c1.467,-1.3 2.2,-3.517 2.2,-6.65c-0,-0.9 -0.367,-2.9 -1.1,-6c-0.8,1.9 -1.45,3.317 -1.95,4.25c0.767,1.533 1.233,2.633 1.4,3.3c-0.736,0.982 -2.786,1.482 -6.15,1.5Z"/><path d="M41.15,35.75l3.05,-3.1l-3.05,-3.2l-3.1,3.2l3.1,3.1Z"/><path d="M38.4,23.45c-0.233,0.8 -0.35,1.317 -0.35,1.55c-0,0.467 0.083,0.85 0.25,1.15c0.233,0.367 0.55,0.55 0.95,0.55c0.367,0 0.717,-0.133 1.05,-0.4c0.3,-0.267 0.483,-0.583 0.55,-0.95c0.267,0.233 0.583,0.35 0.95,0.35c1.033,0 1.55,-0.867 1.55,-2.6c0,-0.467 -0.067,-0.967 -0.2,-1.5l-0.35,0.15c-0,1.533 -0.333,2.3 -1,2.3c-0.333,-0 -0.617,-0.517 -0.85,-1.55l-0.3,0.1c-0.133,0.767 -0.25,1.283 -0.35,1.55c-0.233,0.633 -0.567,0.95 -1,0.95c-0.4,0 -0.6,-0.567 -0.6,-1.7l-0.3,0.05Z"/><path d="M40.639,59.588l-5.45,3.5c-0.696,0.447 -0.898,1.376 -0.451,2.073c0.447,0.696 1.376,0.898 2.073,0.451l5.45,-3.5c0.696,-0.447 0.898,-1.376 0.451,-2.073c-0.447,-0.696 -1.376,-0.898 -2.073,-0.451Z"/><path d="M55.339,56.988l-5.45,3.5c-0.696,0.447 -0.898,1.376 -0.451,2.073c0.447,0.696 1.376,0.898 2.073,0.451l5.45,-3.5c0.696,-0.447 0.898,-1.376 0.451,-2.073c-0.447,-0.696 -1.376,-0.898 -2.073,-0.451Z"/></g></svg>