<?xml version="1.0" encoding="UTF-8" standalone="no"?><!DOCTYPE svg PUBLIC "-//W3C//DTD SVG 1.1//EN" "http://www.w3.org/Graphics/SVG/1.1/DTD/svg11.dtd"><svg width="100%" height="100%" viewBox="0 0 109 79" version="1.1" xmlns="http://www.w3.org/2000/svg" xmlns:xlink="http://www.w3.org/1999/xlink" xml:space="preserve" xmlns:serif="http://www.serif.com/" style="fill-rule:evenodd;clip-rule:evenodd;stroke-linejoin:round;stroke-miterlimit:2;"><g><path d="M43.05,67.5l3.1,-3.15l-3.1,-3.15l-3.05,3.15l3.05,3.15Z"/><path d="M62.95,56.35c0,2.5 0.717,4.383 2.15,5.65c1.333,1.233 3.233,1.85 5.7,1.85c3.067,0 5.633,-1.133 7.7,-3.4c2.1,-2.267 3.15,-4.983 3.15,-8.15c-0,-4.133 -1.117,-7.617 -3.35,-10.45c-0.6,1.2 -1.2,2.9 -1.8,5.1c1.1,1.5 1.817,2.55 2.15,3.15c0.667,1.3 1,2.533 1,3.7c-0,1.467 -1.117,2.7 -3.35,3.7c-1.833,0.833 -3.567,1.25 -5.2,1.25c-4.1,-0 -6.15,-1.767 -6.15,-5.3c0,-0.6 0.117,-1.45 0.35,-2.55c0.233,-1.133 0.35,-1.983 0.35,-2.55c-0.833,0.867 -1.5,2.117 -2,3.75c-0.467,1.467 -0.7,2.883 -0.7,4.25Z"/><path d="M15.3,22.6c-1.867,2.5 -2.783,4 -2.75,4.5l0.7,28.65c1.533,-1.3 2.3,-4.767 2.3,-10.4l-0.25,-22.75Z"/><path d="M91.25,21.75c-1.867,2.5 -2.783,4 -2.75,4.5l0.7,28.65c1.533,-1.3 2.3,-4.767 2.3,-10.4l-0.25,-22.75Z"/><path d="M34.15,50.45c-0.467,-1.067 -0.933,-2.133 -1.4,-3.2c-0.767,-1.367 -1.533,-2.05 -2.3,-2.05c-0.933,0 -1.917,1.017 -2.95,3.05c-0.933,1.9 -1.4,3.433 -1.4,4.6c0,1.433 0.667,2.35 2,2.75c1.267,0.167 2.517,0.35 3.75,0.55c-1.467,2.3 -3,3.967 -4.6,5c-1.8,1.2 -3.9,1.8 -6.3,1.8c-1.333,0 -3.233,-0.117 -5.7,-0.35c2.3,2.367 4.983,3.55 8.05,3.55c2.667,-0 4.933,-1.133 6.8,-3.4c1.3,-1.567 2.567,-3.917 3.8,-7.05l4.95,0c1,0 1.833,-0.4 2.5,-1.2c0.167,-0.2 0.65,-1.033 1.45,-2.5c1.033,1.567 1.567,2.383 1.6,2.45c0.7,0.833 1.517,1.25 2.45,1.25l3.6,0l0,-0.05c2.581,-0.1 4.465,-0.683 5.65,-1.75c1.467,-1.3 2.2,-3.517 2.2,-6.65c-0,-0.9 -0.367,-2.9 -1.1,-6c-0.8,1.9 -1.45,3.317 -1.95,4.25c0.767,1.533 1.25,2.633 1.45,3.3c-0.771,0.987 -2.854,1.487 -6.25,1.5l-1.6,-0c-1.708,-0.05 -2.758,-0.167 -3.15,-0.35c-0.967,-0.5 -1.45,-1.933 -1.45,-4.3c-0.8,0.633 -1.35,1.45 -1.65,2.45c-0.233,0.833 -0.633,1.383 -1.2,1.65c-0.9,0.367 -2.8,0.55 -5.7,0.55l0,0.2c-0.506,0.007 -1.022,-0.009 -1.55,-0.05Zm-4.85,-1.15c0.8,0.367 1.317,0.7 1.55,1c0.167,0.3 0.35,0.9 0.55,1.8c-0.8,0 -1.733,-0.067 -2.8,-0.2c0,-0.433 -0.083,-0.717 -0.25,-0.85c0.333,-0.667 0.65,-1.25 0.95,-1.75Z"/><path d="M73.75,36.7l-3.1,-3.15l-3.05,3.15l3.05,3.15l3.1,-3.15Z"/><path d="M57.9,36.15l2.7,-2.75l-2.7,-2.75l-2.7,2.8l2.7,2.7Z"/><path d="M55.2,33.45l-2.65,-2.8l-2.7,2.75l2.7,2.75l2.65,-2.7Z"/><path d="M67.75,22.75c0,1.633 0.683,2.45 2.05,2.45c0.8,0 1.483,-0.333 2.05,-1c0.567,-0.667 0.85,-1.433 0.85,-2.3c0,-0.733 -0.2,-1.383 -0.6,-1.95c-0.467,-0.633 -1.033,-0.95 -1.7,-0.95c-0.9,0 -1.6,0.417 -2.1,1.25c-0.367,0.667 -0.55,1.5 -0.55,2.5Zm1.75,-2.05c0.367,0 0.8,0.2 1.3,0.6c0.567,0.4 0.85,0.767 0.85,1.1c-0,0.533 -0.5,0.8 -1.5,0.8c-1.2,0 -1.8,-0.4 -1.8,-1.2c0,-0.867 0.383,-1.3 1.15,-1.3Z"/><path d="M31.35,26.4c1.3,-0 2.833,-1.117 4.6,-3.35c0.733,0.533 1.35,0.933 1.85,1.2l0.2,-2.3c-0.4,-0.3 -0.7,-0.517 -0.9,-0.65c0.467,-1.167 0.7,-2.083 0.7,-2.75c-0,-1.367 -0.517,-2.05 -1.55,-2.05c-0.733,0 -1.383,0.467 -1.95,1.4c-0.5,0.867 -0.75,1.7 -0.75,2.5c-0,0.667 0.483,1.35 1.45,2.05c-1.767,1.633 -3.417,2.867 -4.95,3.7c0.533,0.167 0.967,0.25 1.3,0.25Zm3.35,-7.5c0.067,-0.233 0.217,-0.367 0.45,-0.4c0.8,0.133 1.2,0.6 1.2,1.4c0,0.2 -0.033,0.433 -0.1,0.7c-1.033,-0.567 -1.55,-1.133 -1.55,-1.7Z"/><path d="M15.489,14.938l-5.45,3.5c-0.696,0.447 -0.898,1.376 -0.451,2.073c0.447,0.696 1.376,0.898 2.073,0.451l5.45,-3.5c0.696,-0.447 0.898,-1.376 0.451,-2.073c-0.447,-0.696 -1.376,-0.898 -2.073,-0.451Z"/><path d="M92.153,13.229l-5.5,3.45c-0.701,0.44 -0.914,1.367 -0.474,2.068c0.44,0.701 1.367,0.914 2.068,0.474l5.5,-3.45c0.701,-0.44 0.914,-1.367 0.474,-2.068c-0.44,-0.701 -1.367,-0.914 -2.068,-0.474Z"/><path d="M54.598,13.233l-5.45,3.45c-0.7,0.442 -0.908,1.37 -0.465,2.069c0.442,0.7 1.37,0.908 2.069,0.465l5.45,-3.45c0.7,-0.442 0.908,-1.37 0.465,-2.069c-0.442,-0.7 -1.37,-0.908 -2.069,-0.465Z"/></g></svg>