<?xml version="1.0" encoding="UTF-8" standalone="no"?><!DOCTYPE svg PUBLIC "-//W3C//DTD SVG 1.1//EN" "http://www.w3.org/Graphics/SVG/1.1/DTD/svg11.dtd"><svg width="100%" height="100%" viewBox="0 0 37 30" version="1.1" xmlns="http://www.w3.org/2000/svg" xmlns:xlink="http://www.w3.org/1999/xlink" xml:space="preserve" xmlns:serif="http://www.serif.com/" style="fill-rule:evenodd;clip-rule:evenodd;stroke-linejoin:round;stroke-miterlimit:2;"><g><path d="M35.2,11.9l-0,-4.05l-3.85,-0c-2.4,-0 -4.533,0.517 -6.4,1.55c-2.033,1.133 -3.05,2.55 -3.05,4.25c-0,0.8 0.533,1.383 1.6,1.75c0.633,0.2 1.767,0.383 3.4,0.55c1.533,0.167 2.517,0.35 2.95,0.55c-0.467,0.7 -2.383,1.333 -5.75,1.9c-2.8,0.433 -5.067,0.65 -6.8,0.65c-2.867,0 -5.067,-0.2 -6.6,-0.6c-2.367,-0.667 -3.55,-1.883 -3.55,-3.65c-0,-0.767 0.367,-1.733 1.1,-2.9c0.9,-1.433 1.417,-2.383 1.55,-2.85c-1.267,0.6 -2.5,1.683 -3.7,3.25c-1.233,1.6 -1.85,2.933 -1.85,4c0,2.133 1.283,3.717 3.85,4.75c2.033,0.833 4.617,1.25 7.75,1.25c7.033,0 12.233,-1.567 15.6,-4.7c1.067,-1 1.6,-1.75 1.6,-2.25c0,-0.9 -1.183,-1.517 -3.55,-1.85c-1.633,-0.2 -3.25,-0.383 -4.85,-0.55c0.633,-0.7 4.15,-1.05 10.55,-1.05Z" style="fill:#f00;"/></g></svg>