<?xml version="1.0" encoding="UTF-8" standalone="no"?><!DOCTYPE svg PUBLIC "-//W3C//DTD SVG 1.1//EN" "http://www.w3.org/Graphics/SVG/1.1/DTD/svg11.dtd"><svg width="100%" height="100%" viewBox="0 0 20 20" version="1.1" xmlns="http://www.w3.org/2000/svg" xmlns:xlink="http://www.w3.org/1999/xlink" xml:space="preserve" xmlns:serif="http://www.serif.com/" style="fill-rule:evenodd;clip-rule:evenodd;stroke-linejoin:round;stroke-miterlimit:2;"><g><path d="M4.899,12.234l0,-5.092l2.251,-2.251l5.048,-0l2.279,2.279l0,5.037l-2.279,2.279l-5.048,-0l-2.251,-2.252Z" style="fill:#00ad68;"/><path d="M2.605,12.293l-0,-1.582l-0.165,-0.165l0.082,-0.082l-0,-0l-0.083,0.082l-0.857,-0.858l3.685,-3.685l0.083,0.082l-0.083,-0.082l1.814,-1.814l-1.582,0l-1.023,1.023l-0.082,-0.082l0.082,0.082l-4.476,4.476l1.649,1.649l-0.083,0.082l0,0l0.083,-0.082l0.956,0.956Z" style="fill:#a0aec0;fill-rule:nonzero;"/><path d="M16.772,8.665l1.023,1.023l-4.391,4.391l-0.082,-0.083l0.082,0.083l-1.109,1.108l1.277,0l0.305,0l0.318,-0.317l0.082,0.082l-0.082,-0.082l5.181,-5.182l-2.604,-2.604l-0,1.581Z" style="fill:#a0aec0;fill-rule:nonzero;"/><path d="M8.715,2.555l0.082,0.082l-0.082,-0.082l0.973,-0.973l4.574,4.574l-0.082,0.082l0.082,-0.082l0.925,0.925l0,-1.582l-0.134,-0.134l0.082,-0.083l-0.082,0.083l-5.365,-5.365l-1.764,1.764l-0.082,-0.082l0.082,0.082l-0.841,0.841l1.582,-0l0.05,-0.05Z" style="fill:#a0aec0;fill-rule:nonzero;"/><path d="M11.711,16.772l-1,-0l-0.448,0.447l-0.082,-0.082l0.082,0.082l-0.575,0.576l-5.499,-5.499l0,1.581l5.499,5.499l1.366,-1.366l0.083,0.083l-0.083,-0.083l1.239,-1.238l-0.564,-0l-0.018,-0Z" style="fill:#a0aec0;fill-rule:nonzero;"/><path d="M12.855,2.838l1.119,1.118l1.446,0l0,1.447l0,0.164l0,0.165l0,1.582l0,0.165l0,0.164l0,2.055l0,0.164l0,1.871l1.119,-1.118l-0,-7.777l-3.684,-0Z" style="fill:#00ad68;fill-rule:nonzero;"/><path d="M15.42,15.42l-7.777,0l1.119,1.119l3.035,-0l0.165,-0l0.564,-0l0.164,-0l0.165,-0l3.684,-0l-0,-3.684l-1.119,1.119l0,1.446Z" style="fill:#00ad68;fill-rule:nonzero;"/><path d="M3.956,3.956l1.447,0l0.164,0l0.165,0l6.001,0l-1.119,-1.118l-7.776,-0l-0,3.683l1.118,-1.118l0,-1.447Z" style="fill:#00ad68;fill-rule:nonzero;"/><path d="M3.956,15.42l0,-7.777l-1.118,1.119l-0,7.777l3.683,-0l-1.118,-1.119l-1.447,0Z" style="fill:#00ad68;fill-rule:nonzero;"/><g><rect x="6.208" y="11.296" width="5.651" height="0.428" style="fill:#fff;"/><rect x="6.874" y="11.899" width="4.542" height="0.396" style="fill:#fff;"/><rect x="9.118" y="7.024" width="1.402" height="0.284" style="fill:#d81813;"/><path d="M10.576,7.364l0,-0.397l-1.515,0l0,0.397l1.515,0Zm-1.402,-0.284l0,0.171l1.289,0l0,-0.171l-1.289,0Z" style="fill:#d81813;"/><path d="M9.037,8.095c0.063,0.569 0.25,0.816 0.79,0.93c0.408,-0.134 0.789,-0.362 0.784,-0.93" style="fill:#fff;"/><path d="M10.52,9.36c0.236,0.668 0.088,1.346 -0,2.042l1.242,-0c-0.052,-0.876 -0.488,-1.545 -1.242,-2.042Z" style="fill:#fff;"/><path d="M9.157,9.025c-0.493,0.084 -0.945,0.306 -1.337,0.728c-0.335,0.534 -0.515,1.148 -0.545,1.649l3.245,-0c-0.187,-0.704 -0.517,-1.314 -1.158,-1.649c-0.177,-0.254 -0.245,-0.496 -0.205,-0.728Z" style="fill:#fff;"/><path d="M10.245,5.751c0.124,-0.003 0.248,0.005 0.372,0.025c1.499,0.232 2.467,2.022 2.161,3.994c-0.306,1.971 -1.772,3.383 -3.271,3.15c-0.124,-0.019 -0.245,-0.049 -0.362,-0.089c1.363,-0.03 2.619,-1.367 2.9,-3.175c0.281,-1.808 -0.51,-3.463 -1.8,-3.905Z" style="fill:#fff;"/><rect x="8.897" y="7.308" width="1.86" height="0.787" style="fill:#fff;"/><path d="M10.814,7.251l-1.973,0l-0,0.901l1.973,-0l0,-0.901Z" style="fill:#fff;"/></g></g></svg>