<?xml version="1.0" encoding="UTF-8" standalone="no"?><!DOCTYPE svg PUBLIC "-//W3C//DTD SVG 1.1//EN" "http://www.w3.org/Graphics/SVG/1.1/DTD/svg11.dtd"><svg width="100%" height="100%" viewBox="0 0 30 19" version="1.1" xmlns="http://www.w3.org/2000/svg" xmlns:xlink="http://www.w3.org/1999/xlink" xml:space="preserve" xmlns:serif="http://www.serif.com/" style="fill-rule:evenodd;clip-rule:evenodd;stroke-linejoin:round;stroke-miterlimit:2;"><g><path d="M13.9,3.3c-0.567,1.133 -0.85,2.117 -0.85,2.95c0,1.467 0.567,2.2 1.7,2.2c0.867,0 1.683,-0.483 2.45,-1.45c0.2,0.433 0.3,0.833 0.3,1.2c0,2.133 -1.5,3.817 -4.5,5.05c-2.333,0.967 -4.717,1.45 -7.15,1.45c1.167,0.467 1.983,0.767 2.45,0.9c0.833,0.233 1.683,0.35 2.55,0.35c2.5,0 4.433,-1.017 5.8,-3.05c1.233,-1.767 1.85,-3.95 1.85,-6.55c0,-1.033 -0.183,-2.05 -0.55,-3.05c-0.467,-1.267 -1.133,-1.9 -2,-1.9c-0.733,0 -1.417,0.633 -2.05,1.9Zm0.4,2.4c0.3,-0.667 0.583,-1.25 0.85,-1.75c0.833,0.367 1.25,0.85 1.25,1.45c0,0.2 -0.117,0.383 -0.35,0.55c-0.267,0.133 -0.517,0.2 -0.75,0.2c-0.033,0 -0.367,-0.15 -1,-0.45Z" style="fill:#f00;fill-rule:nonzero;"/></g></svg>