<?xml version="1.0" encoding="UTF-8" standalone="no"?><!DOCTYPE svg PUBLIC "-//W3C//DTD SVG 1.1//EN" "http://www.w3.org/Graphics/SVG/1.1/DTD/svg11.dtd"><svg width="100%" height="100%" viewBox="0 0 26 19" version="1.1" xmlns="http://www.w3.org/2000/svg" xmlns:xlink="http://www.w3.org/1999/xlink" xml:space="preserve" xmlns:serif="http://www.serif.com/" style="fill-rule:evenodd;clip-rule:evenodd;stroke-linejoin:round;stroke-miterlimit:2;"><g><rect x="16.353" y="5.407" width="5.75" height="3.65" style="fill-rule:nonzero;"/><path d="M10.553,4.057c-0.667,1.267 -1,2.283 -1,3.05c-0,1 0.467,1.617 1.4,1.85c0.867,0.133 1.733,0.267 2.6,0.4c-1,1.533 -2.05,2.65 -3.15,3.35c-1.267,0.833 -2.75,1.25 -4.45,1.25c-0.9,-0 -2.217,-0.083 -3.95,-0.25c1.6,1.6 3.467,2.4 5.6,2.4c1.867,-0 3.45,-0.767 4.75,-2.3c0.9,-1.033 1.783,-2.617 2.65,-4.75l1.35,-0l-0,-3.5c-0.387,0.011 -0.787,-0.006 -1.2,-0.05c-0.3,-0.7 -0.617,-1.417 -0.95,-2.15c-0.533,-0.933 -1.067,-1.4 -1.6,-1.4c-0.667,-0 -1.35,0.7 -2.05,2.1Zm2.7,2.6c-0.533,-0 -1.183,-0.05 -1.95,-0.15c-0,-0.3 -0.05,-0.5 -0.15,-0.6c0.2,-0.433 0.417,-0.833 0.65,-1.2c0.567,0.267 0.917,0.5 1.05,0.7c0.133,0.2 0.267,0.617 0.4,1.25Z" style="fill:#f00;fill-rule:nonzero;"/></g></svg>