<?xml version="1.0" encoding="UTF-8" standalone="no"?><!DOCTYPE svg PUBLIC "-//W3C//DTD SVG 1.1//EN" "http://www.w3.org/Graphics/SVG/1.1/DTD/svg11.dtd"><svg width="100%" height="100%" viewBox="0 0 94 68" version="1.1" xmlns="http://www.w3.org/2000/svg" xmlns:xlink="http://www.w3.org/1999/xlink" xml:space="preserve" xmlns:serif="http://www.serif.com/" style="fill-rule:evenodd;clip-rule:evenodd;stroke-linejoin:round;stroke-miterlimit:2;"><g><path d="M70.05,60.65l2.45,-2.8l-2.45,-2.85l-2.5,2.85l2.5,2.8Z"/><path d="M25.25,46.85c0.033,0.067 0.367,0.7 1,1.9c0.567,1 0.85,1.55 0.85,1.65c0,1.133 -1.1,2.6 -3.3,4.4c-2.1,1.733 -3.7,2.6 -4.8,2.6c-0.467,-0 -1.1,-0.117 -1.9,-0.35c-0.633,-0.167 -1.267,-0.35 -1.9,-0.55c0.833,1.1 1.783,1.983 2.85,2.65c1.233,0.8 2.383,1.2 3.45,1.2c1.5,0 3.017,-1.25 4.55,-3.75c1.367,-2.233 2.15,-4.317 2.35,-6.25c0.212,-0.151 0.478,-0.235 0.8,-0.25l3.75,0c0.833,0 1.5,-0.35 2,-1.05c0.067,-0.1 0.467,-0.85 1.2,-2.25c0.367,0.7 0.883,1.4 1.55,2.1c0.8,0.8 1.483,1.2 2.05,1.2l4.5,0l0,-4.85l-0.4,-0c-0.462,0.016 -1.012,0.049 -1.65,0.1c-0.833,0.033 -1.4,0.05 -1.7,0.05c-1.1,-0 -1.883,-0.25 -2.35,-0.75c-0.533,-0.6 -0.833,-1.733 -0.9,-3.4c-1,1.9 -1.667,3.033 -2,3.4c-0.467,0.467 -1.217,0.7 -2.25,0.7c-0.2,0 -0.717,-0.017 -1.55,-0.05c-0.276,-0.011 -0.543,-0.028 -0.8,-0.05c-1.5,-0 -2.35,-0.033 -2.55,-0.1c-0.667,-0.133 -1.367,-0.617 -2.1,-1.45c-0.167,1.2 -0.417,2.25 -0.75,3.15Z"/><path d="M41.25,57.15l-2.2,-2.45l-2.15,2.5l-2.15,-2.5l-2.2,2.45l2.2,2.5l2.1,-2.45l2.15,2.45l2.25,-2.5Z"/><path d="M15.15,20.4c-1.5,2.233 -2.25,3.583 -2.25,4.05l0.55,25.7c1.233,-1.167 1.85,-4.283 1.85,-9.35l-0.15,-20.4Z"/><path d="M73.575,40.55c0.15,0.9 0.225,1.55 0.225,1.95c-0,2.833 -0.583,4.833 -1.75,6c-0.961,0.932 -2.445,1.449 -4.45,1.55c-0.217,0.029 -0.45,0.046 -0.7,0.05l-1.3,0l0,-4.85l2,0c2.659,-0.019 4.292,-0.469 4.9,-1.35c-0.167,-0.6 -0.55,-1.583 -1.15,-2.95c0.4,-0.833 0.917,-2.117 1.55,-3.85l0.675,3.45Z"/><path d="M60.1,45.4c-1.067,-0 -1.783,-0.367 -2.15,-1.1c0.233,-1.167 0.35,-2.3 0.35,-3.4c-0.6,1.1 -1.2,2.183 -1.8,3.25c-0.667,0.833 -1.733,1.25 -3.2,1.25c-1.267,-0 -2.183,-0.233 -2.75,-0.7c-0.633,-0.533 -0.95,-1.517 -0.95,-2.95c-1.033,1.533 -1.867,2.517 -2.5,2.95c-0.6,0.367 -1.467,0.55 -2.6,0.55l-0.25,0l0,4.85l1.85,0c0.633,0 1.45,-0.567 2.45,-1.7c0.7,0.367 1.4,0.733 2.1,1.1c0.833,0.4 1.567,0.6 2.2,0.6c1.233,0 2.5,-0.5 3.8,-1.5c0.5,0.333 1.017,0.65 1.55,0.95c0.633,0.367 1.167,0.55 1.6,0.55c0.767,0 1.55,-0.5 2.35,-1.5c0.967,1 1.6,1.5 1.9,1.5l1.55,0l0,-4.85l0.5,0c-1.733,-0.031 -2.6,-0.548 -2.6,-1.55c-0,-0.1 0.05,-0.3 0.15,-0.6c0.1,-0.333 0.15,-0.567 0.15,-0.7c-0,-0.433 -0.1,-0.933 -0.3,-1.5c-0.433,0.967 -0.85,1.933 -1.25,2.9c-0.6,1.067 -1.317,1.6 -2.15,1.6Z" style="fill:#f00;"/><path d="M66.9,50.1l0.7,0l0,-0.05c-0.217,0.029 -0.45,0.046 -0.7,0.05Z" style="fill:#f00;"/><path d="M42.2,45.35c0.638,-0.051 1.188,-0.084 1.65,-0.1l-1.65,0l0,0.1Z" style="fill:#f00;"/><path d="M52.6,32.2l2.15,2.5l2.2,-2.45l-2.2,-2.5l-2.15,2.45Z" style="fill:#f00;"/><path d="M56.95,32.25l2.15,2.45l2.15,-2.5l-2.15,-2.45l-2.15,2.5Z" style="fill:#f00;"/><path d="M57.05,29.55l2.15,-2.55l-2.15,-2.45l-2.15,2.45l2.15,2.55Z" style="fill:#f00;"/><path d="M58.102,56.248l-4.75,3.55c-0.663,0.496 -0.799,1.437 -0.304,2.1c0.496,0.663 1.437,0.799 2.1,0.304l4.75,-3.55c0.663,-0.496 0.799,-1.437 0.304,-2.1c-0.496,-0.663 -1.437,-0.799 -2.1,-0.304Z"/><path d="M20.032,21.94c-0.398,-0.045 -0.777,-0.248 -1.035,-0.594c-0.495,-0.664 -0.357,-1.605 0.307,-2.099l4.7,-3.5c0.664,-0.495 1.605,-0.357 2.099,0.307c0.495,0.664 0.357,1.605 -0.307,2.099l-0.071,0.053c0.416,0.034 0.816,0.242 1.083,0.604c0.491,0.667 0.348,1.606 -0.318,2.098l-4.75,3.5c-0.667,0.491 -1.606,0.348 -2.098,-0.318c-0.491,-0.667 -0.348,-1.606 0.318,-2.098l0.072,-0.052Z"/><path d="M70.16,16.942l-4.75,3.5c-0.666,0.492 -0.809,1.431 -0.318,2.098c0.492,0.666 1.431,0.809 2.098,0.318l4.75,-3.5c0.666,-0.492 0.809,-1.431 0.318,-2.098c-0.492,-0.666 -1.431,-0.809 -2.098,-0.318Z"/></g></svg>