<?xml version="1.0" encoding="UTF-8" standalone="no"?><!DOCTYPE svg PUBLIC "-//W3C//DTD SVG 1.1//EN" "http://www.w3.org/Graphics/SVG/1.1/DTD/svg11.dtd"><svg width="100%" height="100%" viewBox="0 0 91 68" version="1.1" xmlns="http://www.w3.org/2000/svg" xmlns:xlink="http://www.w3.org/1999/xlink" xml:space="preserve" xmlns:serif="http://www.serif.com/" style="fill-rule:evenodd;clip-rule:evenodd;stroke-linejoin:round;stroke-miterlimit:2;"><g><path d="M65.85,61.1l2.45,-2.8l-2.45,-2.85l-2.5,2.85l2.5,2.8Z"/><path d="M39.3,45.7l-1.05,-0c-0.852,-0.017 -1.352,-0.051 -1.5,-0.1c-0.667,-0.133 -1.367,-0.617 -2.1,-1.45c-0.167,1.2 -0.417,2.25 -0.75,3.15c0.033,0.067 0.367,0.7 1,1.9c0.567,1 0.85,1.55 0.85,1.65c-0,1.133 -1.1,2.6 -3.3,4.4c-2.1,1.733 -3.7,2.6 -4.8,2.6c-0.467,0 -1.1,-0.117 -1.9,-0.35c-0.633,-0.167 -1.267,-0.35 -1.9,-0.55c0.833,1.1 1.783,1.983 2.85,2.65c1.233,0.8 2.383,1.2 3.45,1.2c1.5,0 3.017,-1.25 4.55,-3.75c1.367,-2.233 2.15,-4.317 2.35,-6.25c0.233,-0.167 0.533,-0.25 0.9,-0.25l1.35,0l-0,-4.85Z"/><path d="M23.5,37.55c-0.633,1.733 -1.15,3.017 -1.55,3.85c0.6,1.367 0.983,2.35 1.15,2.95c-0.623,0.903 -2.323,1.353 -5.1,1.35c-2.733,-0 -4.5,-0.617 -5.3,-1.85c-0.667,-1.033 -1,-3.217 -1,-6.55l0,-15.65c-0.433,0.5 -0.85,0.983 -1.25,1.45c-0.333,0.5 -0.5,1.15 -0.5,1.95c0,6.533 0.033,10.717 0.1,12.55c0.233,6.3 0.783,10.1 1.65,11.4c0.7,1.033 1.683,1.55 2.95,1.55l3.35,0l0,-0.05c2.107,-0.07 3.657,-0.587 4.65,-1.55c1.167,-1.167 1.75,-3.167 1.75,-6c-0,-0.8 -0.3,-2.6 -0.9,-5.4Z"/><path d="M68.7,37.55c-0.633,1.733 -1.15,3.017 -1.55,3.85c0.6,1.367 0.983,2.35 1.15,2.95c-0.608,0.881 -2.241,1.331 -4.9,1.35l-2,-0l-0,4.85l1.3,0c0.25,-0.004 0.483,-0.021 0.7,-0.05c2.005,-0.101 3.489,-0.618 4.45,-1.55c1.167,-1.167 1.75,-3.167 1.75,-6c0,-0.8 -0.3,-2.6 -0.9,-5.4Z"/><path d="M21.1,34.2l2.5,-2.75l-2.5,-2.9l-2.45,2.9l2.45,2.75Z"/><path d="M33.1,24.7c-0.333,0.6 -0.5,1.367 -0.5,2.3c0,1.433 0.55,2.15 1.65,2.15c0.667,-0 1.217,-0.3 1.65,-0.9c0.467,-0.6 0.7,-1.283 0.7,-2.05c0,-0.633 -0.167,-1.217 -0.5,-1.75c-0.367,-0.6 -0.817,-0.9 -1.35,-0.9c-0.733,0 -1.283,0.383 -1.65,1.15Zm0,1.6c0,-0.8 0.317,-1.2 0.95,-1.2c0.267,0 0.617,0.183 1.05,0.55c0.433,0.367 0.65,0.7 0.65,1c0,0.467 -0.4,0.7 -1.2,0.7c-0.967,0 -1.45,-0.35 -1.45,-1.05Z"/><path d="M54.1,17.15l-0.25,0.15c0,1.367 -0.283,2.05 -0.85,2.05c-0.267,0 -0.483,-0.45 -0.65,-1.35l-0.25,0.05c-0.1,0.7 -0.2,1.167 -0.3,1.4c-0.167,0.567 -0.433,0.85 -0.8,0.85c-0.3,0 -0.45,-0.5 -0.45,-1.5l-0.3,0.05c-0.167,0.7 -0.25,1.15 -0.25,1.35c-0,0.433 0.067,0.783 0.2,1.05c0.2,0.333 0.467,0.5 0.8,0.5c0.267,-0 0.533,-0.117 0.8,-0.35c0.267,-0.233 0.417,-0.517 0.45,-0.85c0.233,0.2 0.483,0.3 0.75,0.3c0.867,0 1.3,-0.783 1.3,-2.35c-0,-0.4 -0.067,-0.85 -0.2,-1.35Z"/><path d="M39.3,45.7l-0,4.85l2.6,0c0.633,0 1.45,-0.567 2.45,-1.7c0.7,0.367 1.4,0.733 2.1,1.1c0.833,0.4 1.567,0.6 2.2,0.6c1.233,0 2.5,-0.5 3.8,-1.5c0.5,0.333 1.017,0.65 1.55,0.95c0.633,0.367 1.167,0.55 1.6,0.55c0.767,0 1.55,-0.5 2.35,-1.5c0.967,1 1.6,1.5 1.9,1.5l1.55,0l-0,-4.85l0.5,-0c-1.733,-0.031 -2.6,-0.548 -2.6,-1.55c-0,-0.1 0.05,-0.3 0.15,-0.6c0.1,-0.333 0.15,-0.567 0.15,-0.7c0,-0.433 -0.1,-0.933 -0.3,-1.5c-0.433,0.967 -0.85,1.933 -1.25,2.9c-0.6,1.067 -1.317,1.6 -2.15,1.6c-1.067,0 -1.783,-0.367 -2.15,-1.1c0.233,-1.167 0.35,-2.3 0.35,-3.4c-0.6,1.1 -1.2,2.183 -1.8,3.25c-0.667,0.833 -1.733,1.25 -3.2,1.25c-1.267,0 -2.183,-0.233 -2.75,-0.7c-0.633,-0.533 -0.95,-1.517 -0.95,-2.95c-1.033,1.533 -1.867,2.517 -2.5,2.95c-0.6,0.367 -1.467,0.55 -2.6,0.55l-1,-0Z" style="fill:#f00;"/><path d="M63.4,50.5c-0.217,0.029 -0.45,0.046 -0.7,0.05l0.7,0l-0,-0.05Z" style="fill:#f00;"/><path d="M50.55,35.15l2.2,-2.45l-2.2,-2.5l-2.15,2.45l2.15,2.5Z" style="fill:#f00;"/><path d="M52.75,32.7l2.15,2.45l2.15,-2.5l-2.15,-2.45l-2.15,2.5Z" style="fill:#f00;"/><path d="M52.85,25l-2.15,2.45l2.15,2.55l2.15,-2.55l-2.15,-2.45Z" style="fill:#f00;"/><path d="M52.71,56.342l-4.75,3.5c-0.666,0.492 -0.809,1.431 -0.318,2.098c0.492,0.666 1.431,0.809 2.098,0.318l4.75,-3.5c0.666,-0.492 0.809,-1.431 0.318,-2.098c-0.492,-0.666 -1.431,-0.809 -2.098,-0.318Z"/><path d="M66.504,16.647l-4.7,3.5c-0.664,0.494 -0.802,1.435 -0.307,2.099c0.494,0.664 1.435,0.802 2.099,0.307l4.7,-3.5c0.664,-0.494 0.802,-1.435 0.307,-2.099c-0.494,-0.664 -1.435,-0.802 -2.099,-0.307Z"/><path d="M19.604,16.247l-4.7,3.5c-0.664,0.494 -0.802,1.435 -0.307,2.099c0.494,0.664 1.435,0.802 2.099,0.307l4.7,-3.5c0.664,-0.494 0.802,-1.435 0.307,-2.099c-0.494,-0.664 -1.435,-0.802 -2.099,-0.307Z"/></g></svg>