<?xml version="1.0" encoding="UTF-8" standalone="no"?><!DOCTYPE svg PUBLIC "-//W3C//DTD SVG 1.1//EN" "http://www.w3.org/Graphics/SVG/1.1/DTD/svg11.dtd"><svg width="100%" height="100%" viewBox="0 0 110 68" version="1.1" xmlns="http://www.w3.org/2000/svg" xmlns:xlink="http://www.w3.org/1999/xlink" xml:space="preserve" xmlns:serif="http://www.serif.com/" style="fill-rule:evenodd;clip-rule:evenodd;stroke-linejoin:round;stroke-miterlimit:2;"><g><path d="M73.85,59.4l2.45,-2.85l-2.45,-2.8l-2.5,2.8l2.5,2.85Z"/><path d="M82.35,59.35l2.45,-2.8l-2.45,-2.85l-2.5,2.85l2.5,2.8Z"/><path d="M45.75,43.95l-1.05,-0c-0.852,-0.017 -1.352,-0.051 -1.5,-0.1c-0.667,-0.133 -1.367,-0.617 -2.1,-1.45c-0.167,1.2 -0.417,2.25 -0.75,3.15c0.033,0.067 0.367,0.7 1,1.9c0.567,1 0.85,1.55 0.85,1.65c0,1.133 -1.1,2.6 -3.3,4.4c-2.1,1.733 -3.7,2.6 -4.8,2.6c-0.467,0 -1.1,-0.117 -1.9,-0.35c-0.633,-0.167 -1.267,-0.35 -1.9,-0.55c0.833,1.1 1.783,1.983 2.85,2.65c1.233,0.8 2.383,1.2 3.45,1.2c1.5,0 3.017,-1.25 4.55,-3.75c1.367,-2.233 2.15,-4.317 2.35,-6.25c0.233,-0.167 0.533,-0.25 0.9,-0.25l1.35,0l-0,-4.85Z"/><path d="M24.75,39.45c1.233,-1.1 2.333,-1.817 3.3,-2.15c0.4,0.2 0.667,0.367 0.8,0.5c0.067,0.067 0.283,0.333 0.65,0.8c0.3,-0.667 0.583,-1.317 0.85,-1.95c0.3,-0.8 0.45,-1.517 0.45,-2.15c-0,-0.333 -0.1,-0.733 -0.3,-1.2l-0.75,-0.5c-1.767,0 -3.667,1.533 -5.7,4.6c-1.933,2.933 -2.9,5.467 -2.9,7.6c-0,1.267 0.417,2.2 1.25,2.8c0.633,0.467 1.567,0.767 2.8,0.9c1,0.033 2,0.067 3,0.1c-0.567,1.267 -2.1,2.4 -4.6,3.4c-2.167,0.9 -4,1.35 -5.5,1.35c-4.167,0 -6.25,-2.117 -6.25,-6.35c0,-1.167 0.3,-2.967 0.9,-5.4c-0.767,0.4 -1.433,1.533 -2,3.4c-0.5,1.633 -0.75,3.05 -0.75,4.25c-0,2.8 0.583,4.95 1.75,6.45c1.233,1.533 3.05,2.3 5.45,2.3c2.533,-0 5.233,-0.95 8.1,-2.85c3.3,-2.167 4.95,-4.6 4.95,-7.3c-0,-1.333 -0.667,-2.25 -2,-2.75c-1.2,-0.267 -2.417,-0.517 -3.65,-0.75c-1.3,-0.3 -1.95,-0.9 -1.95,-1.8c-0,-0.9 0.7,-2 2.1,-3.3Z"/><path d="M85.875,39.25c0.15,0.9 0.225,1.55 0.225,1.95c0,2.833 -0.583,4.833 -1.75,6c-0.985,0.955 -2.518,1.472 -4.6,1.55l0,0.05l-2.85,0c-0.767,0 -1.433,-0.367 -2,-1.1c-0.033,-0.067 -0.45,-0.8 -1.25,-2.2c-0.667,1.3 -1.067,2.05 -1.2,2.25c-0.533,0.7 -1.2,1.05 -2,1.05l-2.55,0l-0,-4.85l0.95,0c1.802,-0.047 3.019,-0.213 3.65,-0.5c0.467,-0.233 0.783,-0.717 0.95,-1.45c0.233,-0.9 0.667,-1.65 1.3,-2.25c-0,2.133 0.4,3.417 1.2,3.85c0.337,0.196 1.287,0.313 2.85,0.35l0.95,0c2.747,-0.002 4.431,-0.452 5.05,-1.35c-0.167,-0.6 -0.55,-1.583 -1.15,-2.95c0.4,-0.833 0.917,-2.117 1.55,-3.85l0.675,3.45Z"/><path d="M74.6,22.85c-0.333,-0.233 -0.583,-0.4 -0.75,-0.5c0.4,-0.833 0.6,-1.5 0.6,-2c0,-1 -0.417,-1.5 -1.25,-1.5c-0.6,0 -1.117,0.35 -1.55,1.05c-0.433,0.633 -0.65,1.233 -0.65,1.8c0,0.5 0.4,1.017 1.2,1.55c-1.4,1.167 -2.717,2.067 -3.95,2.7c0.433,0.133 0.783,0.2 1.05,0.2c1.033,-0 2.25,-0.817 3.65,-2.45c0.567,0.367 1.067,0.65 1.5,0.85l0.15,-1.7Zm-1.3,-1.5c-0,0.167 -0.033,0.35 -0.1,0.55c-0.833,-0.433 -1.25,-0.85 -1.25,-1.25c0.067,-0.167 0.183,-0.267 0.35,-0.3c0.667,0.1 1,0.433 1,1Z"/><path d="M60.9,17.25c-0,-0.633 -0.167,-1.217 -0.5,-1.75c-0.367,-0.6 -0.817,-0.9 -1.35,-0.9c-0.733,0 -1.283,0.383 -1.65,1.15c-0.333,0.6 -0.5,1.367 -0.5,2.3c-0,1.433 0.55,2.15 1.65,2.15c0.667,-0 1.217,-0.3 1.65,-0.9c0.467,-0.6 0.7,-1.283 0.7,-2.05Zm-3.5,0.1c-0,-0.8 0.317,-1.2 0.95,-1.2c0.267,-0 0.617,0.183 1.05,0.55c0.433,0.367 0.65,0.7 0.65,1c-0,0.467 -0.4,0.7 -1.2,0.7c-0.967,-0 -1.45,-0.35 -1.45,-1.05Z"/><path d="M65.9,41.8c0.1,-0.333 0.15,-0.567 0.15,-0.7c-0,-0.433 -0.1,-0.933 -0.3,-1.5c-0.433,0.967 -0.85,1.933 -1.25,2.9c-0.6,1.067 -1.317,1.6 -2.15,1.6c-1.067,0 -1.783,-0.367 -2.15,-1.1c0.233,-1.167 0.35,-2.3 0.35,-3.4c-0.6,1.1 -1.2,2.183 -1.8,3.25c-0.667,0.833 -1.733,1.25 -3.2,1.25c-1.267,0 -2.183,-0.233 -2.75,-0.7c-0.633,-0.533 -0.95,-1.517 -0.95,-2.95c-1.033,1.533 -1.867,2.517 -2.5,2.95c-0.6,0.367 -1.467,0.55 -2.6,0.55l-1,-0l-0,4.85l2.6,0c0.633,0 1.45,-0.567 2.45,-1.7c0.7,0.367 1.4,0.733 2.1,1.1c0.833,0.4 1.567,0.6 2.2,0.6c1.233,0 2.5,-0.5 3.8,-1.5c0.5,0.333 1.017,0.65 1.55,0.95c0.633,0.367 1.167,0.55 1.6,0.55c0.767,0 1.55,-0.5 2.35,-1.5c0.967,1 1.6,1.5 1.9,1.5l1.6,0l-0,-4.85l0.4,-0c-1.7,-0.035 -2.55,-0.552 -2.55,-1.55c-0,-0.1 0.05,-0.3 0.15,-0.6Z" style="fill:#f00;"/><path d="M59.2,30.95l2.15,2.45l2.15,-2.5l-2.15,-2.45l-2.15,2.5Z" style="fill:#f00;"/><path d="M54.85,30.9l2.15,2.5l2.2,-2.45l-2.2,-2.5l-2.15,2.45Z" style="fill:#f00;"/><path d="M61.45,25.7l-2.15,-2.45l-2.15,2.45l2.15,2.55l2.15,-2.55Z" style="fill:#f00;"/><path d="M84.754,61.397l-4.7,3.5c-0.664,0.494 -0.802,1.435 -0.307,2.099c0.494,0.664 1.435,0.802 2.099,0.307l4.7,-3.5c0.664,-0.494 0.802,-1.435 0.307,-2.099c-0.494,-0.664 -1.435,-0.802 -2.099,-0.307Z"/><path d="M35.954,18.997l-4.7,3.5c-0.664,0.494 -0.802,1.435 -0.307,2.099c0.494,0.664 1.435,0.802 2.099,0.307l4.7,-3.5c0.664,-0.494 0.802,-1.435 0.307,-2.099c-0.494,-0.664 -1.435,-0.802 -2.099,-0.307Z"/></g></svg>