<?xml version="1.0" encoding="UTF-8" standalone="no"?><!DOCTYPE svg PUBLIC "-//W3C//DTD SVG 1.1//EN" "http://www.w3.org/Graphics/SVG/1.1/DTD/svg11.dtd"><svg width="100%" height="100%" viewBox="0 0 66 87" version="1.1" xmlns="http://www.w3.org/2000/svg" xmlns:xlink="http://www.w3.org/1999/xlink" xml:space="preserve" xmlns:serif="http://www.serif.com/" style="fill-rule:evenodd;clip-rule:evenodd;stroke-linejoin:round;stroke-miterlimit:2;"><g><path d="M50.7,61l2.5,2.8l2.45,-2.8l-2.45,-2.85l-2.5,2.85Z"/><path d="M21.15,50c0.033,0.067 0.367,0.7 1,1.9c0.567,1 0.85,1.55 0.85,1.65c-0,1.133 -1.1,2.6 -3.3,4.4c-2.1,1.733 -3.7,2.6 -4.8,2.6c-0.467,0 -1.1,-0.117 -1.9,-0.35c-0.633,-0.167 -1.267,-0.35 -1.9,-0.55c0.833,1.1 1.783,1.983 2.85,2.65c1.233,0.8 2.383,1.2 3.45,1.2c1.5,0 3.017,-1.25 4.55,-3.75c1.367,-2.233 2.15,-4.317 2.35,-6.25c0.233,-0.167 0.533,-0.25 0.9,-0.25l0.1,0l-0,-4.85c-0.732,-0.022 -1.165,-0.055 -1.3,-0.1c-0.667,-0.133 -1.367,-0.617 -2.1,-1.45c-0.167,1.2 -0.417,2.25 -0.75,3.15Z"/><path d="M56.95,45.65c0,-0.8 -0.3,-2.6 -0.9,-5.4c-0.633,1.733 -1.15,3.017 -1.55,3.85c0.6,1.367 0.983,2.35 1.15,2.95c-0.612,0.887 -2.262,1.337 -4.95,1.35l-1.95,0l0,4.85l1.3,-0c0.228,-0.004 0.445,-0.021 0.65,-0.05c2.031,-0.093 3.531,-0.61 4.5,-1.55c1.167,-1.167 1.75,-3.167 1.75,-6Z"/><path d="M23.15,37.85c-0,-0.4 -0.067,-0.85 -0.2,-1.35l-0.25,0.15c0,1.367 -0.283,2.05 -0.85,2.05c-0.267,-0 -0.483,-0.45 -0.65,-1.35l-0.25,0.05c-0.1,0.7 -0.2,1.167 -0.3,1.4c-0.167,0.567 -0.433,0.85 -0.8,0.85c-0.3,0 -0.45,-0.5 -0.45,-1.5l-0.3,0.05c-0.167,0.7 -0.25,1.15 -0.25,1.35c0,0.433 0.067,0.783 0.2,1.05c0.2,0.333 0.467,0.5 0.8,0.5c0.267,0 0.533,-0.117 0.8,-0.35c0.267,-0.233 0.417,-0.517 0.45,-0.85c0.233,0.2 0.483,0.3 0.75,0.3c0.867,0 1.3,-0.783 1.3,-2.35Z"/><path d="M46.6,46.85c0,-0.1 0.05,-0.3 0.15,-0.6c0.1,-0.333 0.15,-0.567 0.15,-0.7c-0,-0.433 -0.1,-0.933 -0.3,-1.5c-0.433,0.967 -0.85,1.933 -1.25,2.9c-0.6,1.067 -1.317,1.6 -2.15,1.6c-1.067,0 -1.783,-0.367 -2.15,-1.1c0.233,-1.167 0.35,-2.3 0.35,-3.4c-0.6,1.1 -1.2,2.183 -1.8,3.25c-0.667,0.833 -1.733,1.25 -3.2,1.25c-1.267,0 -2.183,-0.233 -2.75,-0.7c-0.633,-0.533 -0.95,-1.517 -0.95,-2.95c-1.033,1.533 -1.867,2.517 -2.5,2.95c-0.6,0.367 -1.467,0.55 -2.6,0.55l-2.3,0l-0,4.85l3.9,0c0.633,0 1.45,-0.567 2.45,-1.7c0.7,0.367 1.4,0.733 2.1,1.1c0.833,0.4 1.567,0.6 2.2,0.6c1.233,0 2.5,-0.5 3.8,-1.5c0.5,0.333 1.017,0.65 1.55,0.95c0.633,0.367 1.167,0.55 1.6,0.55c0.767,0 1.55,-0.5 2.35,-1.5c0.967,1 1.6,1.5 1.9,1.5l1.6,0l0,-4.85l0.35,0c-1.667,-0.043 -2.5,-0.56 -2.5,-1.55Z" style="fill:#f00;"/><path d="M50.05,53.25l0.65,0l0,-0.05c-0.205,0.029 -0.422,0.046 -0.65,0.05Z" style="fill:#f00;"/><path d="M35.7,35.35l2.15,2.5l2.2,-2.45l-2.2,-2.5l-2.15,2.45Z" style="fill:#f00;"/><path d="M40.05,35.4l2.15,2.45l2.15,-2.5l-2.15,-2.45l-2.15,2.5Z" style="fill:#f00;"/><path d="M42.3,30.15l-2.15,-2.45l-2.15,2.45l2.15,2.55l2.15,-2.55Z" style="fill:#f00;"/><path d="M14.532,70.94c-0.398,-0.045 -0.777,-0.248 -1.035,-0.594c-0.495,-0.664 -0.357,-1.605 0.307,-2.099l4.7,-3.5c0.664,-0.495 1.605,-0.357 2.099,0.307c0.495,0.664 0.357,1.605 -0.307,2.099l-0.071,0.053c0.416,0.034 0.816,0.242 1.083,0.604c0.491,0.667 0.348,1.606 -0.318,2.098l-4.75,3.5c-0.667,0.491 -1.606,0.348 -2.098,-0.318c-0.491,-0.667 -0.348,-1.606 0.318,-2.098l0.072,-0.052Z"/><path d="M54.96,64.142l-4.75,3.5c-0.666,0.492 -0.809,1.431 -0.318,2.098c0.492,0.666 1.431,0.809 2.098,0.318l4.75,-3.5c0.666,-0.492 0.809,-1.431 0.318,-2.098c-0.492,-0.666 -1.431,-0.809 -2.098,-0.318Z"/><path d="M40.754,18.247l-4.7,3.5c-0.664,0.494 -0.802,1.435 -0.307,2.099c0.494,0.664 1.435,0.802 2.099,0.307l4.7,-3.5c0.664,-0.494 0.802,-1.435 0.307,-2.099c-0.494,-0.664 -1.435,-0.802 -2.099,-0.307Z"/></g></svg>