<?xml version="1.0" encoding="UTF-8" standalone="no"?><!DOCTYPE svg PUBLIC "-//W3C//DTD SVG 1.1//EN" "http://www.w3.org/Graphics/SVG/1.1/DTD/svg11.dtd"><svg width="100%" height="100%" viewBox="0 0 26 36" version="1.1" xmlns="http://www.w3.org/2000/svg" xmlns:xlink="http://www.w3.org/1999/xlink" xml:space="preserve" xmlns:serif="http://www.serif.com/" style="fill-rule:evenodd;clip-rule:evenodd;stroke-linejoin:round;stroke-miterlimit:2;"><g><path d="M19.85,19.8l-0.1,0.1l-0.4,0.1c-0.767,-0 -1.267,-0.2 -1.5,-0.6c0.133,-0.4 0.2,-0.867 0.2,-1.4c-0.633,0.567 -1.15,1.117 -1.55,1.65c-0.4,0.433 -0.967,0.65 -1.7,0.65c-0.6,-0 -1.067,-0.133 -1.4,-0.4c-0.267,-0.2 -0.6,-0.633 -1,-1.3c-0.333,0.633 -0.717,1.3 -1.15,2c0.7,0.967 1.05,2.1 1.05,3.4c-0,0.467 -0.433,0.85 -1.3,1.15c-0.733,0.267 -1.433,0.4 -2.1,0.4c-2.233,0 -3.35,-0.85 -3.35,-2.55c-0,-0.467 0.167,-1.333 0.5,-2.6c-0.633,0.4 -1.083,1.033 -1.35,1.9c-0.2,0.7 -0.3,1.383 -0.3,2.05c-0,2.5 1.233,3.75 3.7,3.75c1.7,0 3.017,-0.55 3.95,-1.65c0.9,-1.033 1.35,-2.367 1.35,-4c0.5,0.167 1,0.25 1.5,0.25c0.567,0 1.017,-0.117 1.35,-0.35c0.3,-0.233 0.6,-0.467 0.9,-0.7c0.033,0.033 0.267,0.183 0.7,0.45c0.367,0.233 0.7,0.35 1,0.35c0.7,0 1.233,-0.583 1.6,-1.75c0.233,-0.8 0.35,-1.633 0.35,-2.5c-0,-0.2 -0.183,-0.55 -0.55,-1.05c-0.233,0.533 -0.483,1.033 -0.75,1.5c0.133,0.567 0.25,0.95 0.35,1.15Z" style="fill:#f00;"/><path d="M18.2,12.9l-1.15,1.2l-1.2,-1.2l-1.35,1.3l1.35,1.4l1.2,-1.2l1.15,1.2l1.4,-1.4l-1.4,-1.3Z" style="fill:#f00;"/><path d="M17.1,10.45l-1.35,1.3l1.35,1.4l1.4,-1.35l-1.4,-1.35Z" style="fill:#f00;"/></g></svg>