<?xml version="1.0" encoding="UTF-8" standalone="no"?><!DOCTYPE svg PUBLIC "-//W3C//DTD SVG 1.1//EN" "http://www.w3.org/Graphics/SVG/1.1/DTD/svg11.dtd"><svg width="100%" height="100%" viewBox="0 0 115 68" version="1.1" xmlns="http://www.w3.org/2000/svg" xmlns:xlink="http://www.w3.org/1999/xlink" xml:space="preserve" xmlns:serif="http://www.serif.com/" style="fill-rule:evenodd;clip-rule:evenodd;stroke-linejoin:round;stroke-miterlimit:2;"><g><path d="M92.75,48.25c0,-1.367 -0.25,-2.567 -0.75,-3.6c-0.367,-0.733 -1.05,-1.7 -2.05,-2.9l-0.95,4.05c0.533,0.7 1.067,1.383 1.6,2.05c0.667,1 1,1.75 1,2.25c-0,2.567 -1.617,4.783 -4.85,6.65c-2.767,1.567 -5.417,2.35 -7.95,2.35c2.033,1.567 4.05,2.35 6.05,2.35c2.267,-0 4.2,-1.583 5.8,-4.75c1.4,-2.767 2.1,-5.583 2.1,-8.45Z"/><path d="M27.85,23.05c-0.3,0.3 -0.7,0.867 -1.2,1.7c-0.567,0.867 -0.85,1.45 -0.85,1.75c-0,1.967 0.033,4.883 0.1,8.75c0.067,3.9 0.1,6.817 0.1,8.75c-0,1.433 -1.4,2.65 -4.2,3.65c-2.267,0.833 -4.233,1.25 -5.9,1.25c-4.5,-0 -6.75,-1.567 -6.75,-4.7c0,-1.667 0.25,-3.217 0.75,-4.65c-0.733,0.367 -1.4,1.45 -2,3.25c-0.533,1.567 -0.8,2.917 -0.8,4.05c-0,4.233 2.383,6.35 7.15,6.35c2.367,-0 5.133,-0.867 8.3,-2.6c3.633,-2 5.45,-4.2 5.45,-6.6c-0,-2.333 -0.017,-5.817 -0.05,-10.45c-0.067,-4.667 -0.1,-8.167 -0.1,-10.5Z"/><path d="M100.35,22.35c-1.5,2.233 -2.25,3.583 -2.25,4.05l0.55,25.7c1.233,-1.167 1.85,-4.283 1.85,-9.35l-0.15,-20.4Z"/><path d="M55.85,22.1c-1.467,1.333 -2.2,2.783 -2.2,4.35c0,1.9 0.15,4.767 0.45,8.6c0.333,3.833 0.5,6.7 0.5,8.6c-0,1.567 -0.433,2.6 -1.3,3.1c-0.481,0.254 -1.331,0.404 -2.55,0.45c-1.502,-0.04 -2.419,-0.157 -2.75,-0.35c-0.8,-0.433 -1.2,-1.717 -1.2,-3.85c-0.633,0.6 -1.067,1.35 -1.3,2.25c-0.167,0.733 -0.483,1.217 -0.95,1.45c-0.61,0.277 -1.777,0.427 -3.5,0.45c-2.336,-0.074 -3.87,-0.674 -4.6,-1.8c-0.667,-1.033 -1,-3.217 -1,-6.55l0,-15.65c-0.433,0.5 -0.85,0.983 -1.25,1.45c-0.333,0.5 -0.5,1.15 -0.5,1.95c0,6.533 0.033,10.717 0.1,12.55c0.233,6.3 0.783,10.1 1.65,11.4c0.7,1.033 1.683,1.55 2.95,1.55l4.1,-0c0.8,-0 1.467,-0.35 2,-1.05c0.133,-0.2 0.533,-0.95 1.2,-2.25c0.8,1.4 1.217,2.133 1.25,2.2c0.567,0.733 1.233,1.1 2,1.1l3.4,-0c0.733,-0 1.417,-0.55 2.05,-1.65c0.933,-1.7 1.417,-2.567 1.45,-2.6c0.433,0.9 0.85,1.8 1.25,2.7c0.6,1.033 1.317,1.55 2.15,1.55l2.2,-0l0,-4.85c-0.167,-0 -0.333,-0.017 -0.5,-0.05c-1.442,-0.078 -2.509,-0.628 -3.2,-1.65c-0.633,-1 -0.95,-2.517 -0.95,-4.55c-0,-2.367 -0.133,-5.5 -0.4,-9.4c-0.3,-4.767 -0.483,-7.917 -0.55,-9.45Z"/><path d="M20.6,34.3c-0,-0.3 -0.117,-0.617 -0.35,-0.95c-0.2,-0.3 -0.45,-0.45 -0.75,-0.45c-0.533,-0 -1.317,0.95 -2.35,2.85c-1.033,1.833 -1.55,3.083 -1.55,3.75c-0,0.667 0.467,1.017 1.4,1.05c1.167,0 1.95,0.233 2.35,0.7c-0.9,1 -1.833,1.5 -2.8,1.5c-0.467,0 -1.017,-0.067 -1.65,-0.2c0.367,0.6 0.683,0.983 0.95,1.15c0.3,0.2 0.75,0.3 1.35,0.3c0.967,0 1.733,-0.267 2.3,-0.8c0.633,-0.567 0.95,-1.4 0.95,-2.5c0,-1.067 -0.567,-1.733 -1.7,-2c-1.167,-0.267 -1.75,-0.5 -1.75,-0.7c0,-0.367 0.217,-0.783 0.65,-1.25c0.4,-0.5 0.767,-0.75 1.1,-0.75c0.267,0 0.517,0.117 0.75,0.35c0.733,-0.433 1.1,-1.117 1.1,-2.05Z"/><path d="M45.55,37.95l2.5,-2.8l-2.5,-2.85l-2.45,2.85l2.45,2.8Z"/><path d="M88.35,25.1c-0.733,0 -1.283,0.383 -1.65,1.15c-0.333,0.6 -0.5,1.367 -0.5,2.3c0,1.433 0.55,2.15 1.65,2.15c0.667,-0 1.217,-0.3 1.65,-0.9c0.467,-0.6 0.7,-1.283 0.7,-2.05c0,-0.633 -0.167,-1.217 -0.5,-1.75c-0.367,-0.6 -0.817,-0.9 -1.35,-0.9Zm-1.65,2.75c0,-0.8 0.317,-1.2 0.95,-1.2c0.267,-0 0.617,0.183 1.05,0.55c0.433,0.367 0.65,0.7 0.65,1c-0,0.467 -0.4,0.7 -1.2,0.7c-0.967,-0 -1.45,-0.35 -1.45,-1.05Z"/><path d="M56.75,16.05c0,-0.633 -0.167,-1.217 -0.5,-1.75c-0.367,-0.6 -0.817,-0.9 -1.35,-0.9c-0.733,-0 -1.283,0.383 -1.65,1.15c-0.333,0.6 -0.5,1.367 -0.5,2.3c0,1.433 0.55,2.15 1.65,2.15c0.667,0 1.217,-0.3 1.65,-0.9c0.467,-0.6 0.7,-1.283 0.7,-2.05Zm-0.85,0.45c0,0.467 -0.4,0.7 -1.2,0.7c-0.967,-0 -1.45,-0.35 -1.45,-1.05c0,-0.8 0.317,-1.2 0.95,-1.2c0.267,-0 0.617,0.183 1.05,0.55c0.433,0.367 0.65,0.7 0.65,1Z"/><path d="M79.05,48.1c0.4,-1.633 0.6,-3.317 0.6,-5.05c0,-0.3 -0.15,-1 -0.45,-2.1c-0.633,1.433 -1.067,2.45 -1.3,3.05c0.4,1.133 0.6,1.833 0.6,2.1l-0.25,0.75c-0.333,0.167 -0.633,0.25 -0.9,0.25c-2,0 -3,-0.717 -3,-2.15c-0,-0.3 0.033,-0.683 0.1,-1.15c0.067,-0.567 0.1,-0.95 0.1,-1.15c-0.733,1.167 -1.483,2.317 -2.25,3.45c-0.867,1.133 -2,1.7 -3.4,1.7c-1.033,0 -1.75,-0.2 -2.15,-0.6c-0.367,-0.267 -0.583,-0.783 -0.65,-1.55c-0.1,-0.767 -0.183,-1.55 -0.25,-2.35c-1.067,2.033 -1.767,3.167 -2.1,3.4c-0.382,0.273 -1.315,0.423 -2.8,0.45c0.167,0.033 0.333,0.05 0.5,0.05l0,4.85l1.05,0c0.4,0 1.2,-0.567 2.4,-1.7c0.667,0.367 1.317,0.733 1.95,1.1c0.8,0.4 1.517,0.6 2.15,0.6c1.467,0 2.9,-0.783 4.3,-2.35c0.533,0.367 1.083,0.75 1.65,1.15c0.767,0.533 1.317,0.8 1.65,0.8c1.067,-0 1.883,-1.183 2.45,-3.55Z" style="fill:#f00;"/><path d="M73.202,17.748l-4.75,3.55c-0.663,0.496 -0.799,1.437 -0.304,2.1c0.496,0.663 1.437,0.799 2.1,0.304l4.75,-3.55c0.663,-0.496 0.799,-1.437 0.304,-2.1c-0.496,-0.663 -1.437,-0.799 -2.1,-0.304Z"/><path d="M20.904,15.447l-4.7,3.5c-0.664,0.494 -0.802,1.435 -0.307,2.099c0.494,0.664 1.435,0.802 2.099,0.307l4.7,-3.5c0.664,-0.494 0.802,-1.435 0.307,-2.099c-0.494,-0.664 -1.435,-0.802 -2.099,-0.307Z"/><path d="M100.504,15.447l-4.7,3.5c-0.664,0.494 -0.802,1.435 -0.307,2.099c0.494,0.664 1.435,0.802 2.099,0.307l4.7,-3.5c0.664,-0.494 0.802,-1.435 0.307,-2.099c-0.494,-0.664 -1.435,-0.802 -2.099,-0.307Z"/><path d="M43.51,15.442l-4.75,3.5c-0.666,0.492 -0.809,1.431 -0.318,2.098c0.492,0.666 1.431,0.809 2.098,0.318l4.75,-3.5c0.666,-0.492 0.809,-1.431 0.318,-2.098c-0.492,-0.666 -1.431,-0.809 -2.098,-0.318Z"/></g></svg>