<?xml version="1.0" encoding="UTF-8" standalone="no"?><!DOCTYPE svg PUBLIC "-//W3C//DTD SVG 1.1//EN" "http://www.w3.org/Graphics/SVG/1.1/DTD/svg11.dtd"><svg width="100%" height="100%" viewBox="0 0 72 78" version="1.1" xmlns="http://www.w3.org/2000/svg" xmlns:xlink="http://www.w3.org/1999/xlink" xml:space="preserve" xmlns:serif="http://www.serif.com/" style="fill-rule:evenodd;clip-rule:evenodd;stroke-linejoin:round;stroke-miterlimit:2;"><g><path d="M14.7,39.75c0.533,0.7 1.067,1.383 1.6,2.05c0.667,1 1,1.75 1,2.25c-0,2.567 -1.617,4.783 -4.85,6.65c-2.767,1.567 -5.417,2.35 -7.95,2.35c2.033,1.567 4.05,2.35 6.05,2.35c2.267,-0 4.2,-1.583 5.8,-4.75c1.4,-2.767 2.1,-5.583 2.1,-8.45c0,-1.367 -0.25,-2.567 -0.75,-3.6c-0.367,-0.733 -1.05,-1.7 -2.05,-2.9l-0.95,4.05Z"/><path d="M56.9,16.3c-1.5,2.233 -2.25,3.583 -2.25,4.05l0.55,25.7c1.233,-1.167 1.85,-4.283 1.85,-9.35l-0.15,-20.4Z"/><path d="M24.25,18.55c-0.333,0.5 -0.5,1.15 -0.5,1.95c0,6.533 0.033,10.717 0.1,12.55c0.233,6.3 0.783,10.1 1.65,11.4c0.7,1.033 1.683,1.55 2.95,1.55l3.35,0l-0,-4.85c-0.271,0 -0.537,-0.017 -0.8,-0.05c-2.279,-0.089 -3.779,-0.689 -4.5,-1.8c-0.667,-1.033 -1,-3.217 -1,-6.55l0,-15.65c-0.433,0.5 -0.85,0.983 -1.25,1.45Z"/><path d="M35.85,37.25c-1.067,2.033 -1.767,3.167 -2.1,3.4c-0.377,0.27 -1.294,0.42 -2.75,0.45c0.263,0.033 0.529,0.05 0.8,0.05l-0,4.85l0.7,0c0.4,0 1.2,-0.567 2.4,-1.7c0.667,0.367 1.317,0.733 1.95,1.1c0.8,0.4 1.517,0.6 2.15,0.6c1.467,0 2.9,-0.783 4.3,-2.35c0.533,0.367 1.083,0.75 1.65,1.15c0.767,0.533 1.317,0.8 1.65,0.8c1.067,0 1.883,-1.183 2.45,-3.55c0.4,-1.633 0.6,-3.317 0.6,-5.05c0,-0.3 -0.15,-1 -0.45,-2.1c-0.633,1.433 -1.067,2.45 -1.3,3.05c0.4,1.133 0.6,1.833 0.6,2.1l-0.25,0.75c-0.333,0.167 -0.633,0.25 -0.9,0.25c-2,0 -3,-0.717 -3,-2.15c-0,-0.3 0.033,-0.683 0.1,-1.15c0.067,-0.567 0.1,-0.95 0.1,-1.15c-0.733,1.167 -1.483,2.317 -2.25,3.45c-0.867,1.133 -2,1.7 -3.4,1.7c-1.033,-0 -1.75,-0.2 -2.15,-0.6c-0.367,-0.267 -0.583,-0.783 -0.65,-1.55c-0.1,-0.767 -0.183,-1.55 -0.25,-2.35Z" style="fill:#f00;"/><path d="M42.65,28.3l-2.15,-2.45l-2.15,2.4l2.15,2.55l2.15,-2.5Z" style="fill:#f00;"/><path d="M47,28.25l-2.2,-2.4l-2.15,2.45l2.15,2.5l2.2,-2.55Z" style="fill:#f00;"/><path d="M42.75,20.65l-2.1,2.45l2.1,2.55l2.2,-2.55l-2.2,-2.45Z" style="fill:#f00;"/><path d="M16.16,24.642l-4.75,3.5c-0.666,0.492 -0.809,1.431 -0.318,2.098c0.492,0.666 1.431,0.809 2.098,0.318l4.75,-3.5c0.666,-0.492 0.809,-1.431 0.318,-2.098c-0.492,-0.666 -1.431,-0.809 -2.098,-0.318Z"/><path d="M35.41,11.442l-4.75,3.5c-0.666,0.492 -0.809,1.431 -0.318,2.098c0.492,0.666 1.431,0.809 2.098,0.318l4.75,-3.5c0.666,-0.492 0.809,-1.431 0.318,-2.098c-0.492,-0.666 -1.431,-0.809 -2.098,-0.318Z"/><path d="M57.01,8.992l-4.75,3.5c-0.666,0.492 -0.809,1.431 -0.318,2.098c0.492,0.666 1.431,0.809 2.098,0.318l4.75,-3.5c0.666,-0.492 0.809,-1.431 0.318,-2.098c-0.492,-0.666 -1.431,-0.809 -2.098,-0.318Z"/></g></svg>