<?xml version="1.0" encoding="UTF-8" standalone="no"?><!DOCTYPE svg PUBLIC "-//W3C//DTD SVG 1.1//EN" "http://www.w3.org/Graphics/SVG/1.1/DTD/svg11.dtd"><svg width="100%" height="100%" viewBox="0 0 86 87" version="1.1" xmlns="http://www.w3.org/2000/svg" xmlns:xlink="http://www.w3.org/1999/xlink" xml:space="preserve" xmlns:serif="http://www.serif.com/" style="fill-rule:evenodd;clip-rule:evenodd;stroke-linejoin:round;stroke-miterlimit:2;"><g><path d="M66.8,26.75c-1.5,2.233 -2.25,3.583 -2.25,4.05l0.55,25.7c1.233,-1.167 1.85,-4.283 1.85,-9.35l-0.15,-20.4Z"/><path d="M34.15,29c-0.333,0.5 -0.5,1.15 -0.5,1.95c-0,6.533 0.033,10.717 0.1,12.55c0.233,6.3 0.783,10.1 1.65,11.4c0.7,1.033 1.683,1.55 2.95,1.55l3.35,-0l0,-4.85c-0.271,0 -0.537,-0.017 -0.8,-0.05c-2.279,-0.089 -3.779,-0.689 -4.5,-1.8c-0.667,-1.033 -1,-3.217 -1,-6.55l-0,-15.65c-0.433,0.5 -0.85,0.983 -1.25,1.45Z"/><path d="M23.25,46.25c0.033,0 0.25,0.083 0.65,0.25c0.367,0.133 0.65,0.2 0.85,0.2c0.733,-0 1.1,-0.4 1.1,-1.2c0,-0.3 -0.217,-0.6 -0.65,-0.9c-0.4,-0.333 -0.733,-0.5 -1,-0.5c-1.633,-0 -3.317,1.583 -5.05,4.75c-0,0.467 0.183,1.017 0.55,1.65c0.367,0.6 0.55,1 0.55,1.2c-0,0.033 -0.083,0.233 -0.25,0.6c-0.167,0.367 -0.25,0.7 -0.25,1c-0,0.267 0.05,0.633 0.15,1.1c2.4,-1.867 4.183,-2.8 5.35,-2.8c0.233,-0 0.567,0.083 1,0.25c0.233,-0.1 0.483,-0.45 0.75,-1.05c0.167,-0.433 0.333,-0.867 0.5,-1.3l-1.85,-0c-2.833,-0 -4.25,-0.467 -4.25,-1.4c-0,-0.333 0.233,-0.717 0.7,-1.15c0.467,-0.467 0.85,-0.7 1.15,-0.7Z"/><path d="M42.6,19c1.533,-0.933 2.3,-1.883 2.3,-2.85c-1.567,0.9 -2.4,1.383 -2.5,1.45c-1,0.5 -1.9,0.75 -2.7,0.75c-1.567,-0 -3.033,-0.567 -4.4,-1.7c-1.133,1.933 -1.917,3.65 -2.35,5.15c0.367,-0.267 0.75,-0.7 1.15,-1.3c0.433,-0.733 0.767,-1.2 1,-1.4c1.067,0.533 1.7,0.833 1.9,0.9c0.567,0.2 1.283,0.3 2.15,0.3c0.933,0 2.083,-0.433 3.45,-1.3Z"/><path d="M45.75,47.7c-1.067,2.033 -1.767,3.167 -2.1,3.4c-0.377,0.27 -1.294,0.42 -2.75,0.45c0.263,0.033 0.529,0.05 0.8,0.05l0,4.85l0.7,-0c0.4,-0 1.2,-0.567 2.4,-1.7c0.667,0.367 1.317,0.733 1.95,1.1c0.8,0.4 1.517,0.6 2.15,0.6c1.467,-0 2.9,-0.783 4.3,-2.35c0.533,0.367 1.083,0.75 1.65,1.15c0.767,0.533 1.317,0.8 1.65,0.8c1.067,0 1.883,-1.183 2.45,-3.55c0.4,-1.633 0.6,-3.317 0.6,-5.05c-0,-0.3 -0.15,-1 -0.45,-2.1c-0.633,1.433 -1.067,2.45 -1.3,3.05c0.4,1.133 0.6,1.833 0.6,2.1l-0.25,0.75c-0.333,0.167 -0.633,0.25 -0.9,0.25c-2,0 -3,-0.717 -3,-2.15c0,-0.3 0.033,-0.683 0.1,-1.15c0.067,-0.567 0.1,-0.95 0.1,-1.15c-0.733,1.167 -1.483,2.317 -2.25,3.45c-0.867,1.133 -2,1.7 -3.4,1.7c-1.033,-0 -1.75,-0.2 -2.15,-0.6c-0.367,-0.267 -0.583,-0.783 -0.65,-1.55c-0.1,-0.767 -0.183,-1.55 -0.25,-2.35Z" style="fill:#f00;"/><path d="M52.55,38.75l-2.15,-2.45l-2.15,2.4l2.15,2.55l2.15,-2.5Z" style="fill:#f00;"/><path d="M56.9,38.7l-2.2,-2.4l-2.15,2.45l2.15,2.5l2.2,-2.55Z" style="fill:#f00;"/><path d="M54.85,33.55l-2.2,-2.45l-2.1,2.45l2.1,2.55l2.2,-2.55Z" style="fill:#f00;"/><path d="M24.004,35.747l-4.7,3.5c-0.664,0.494 -0.802,1.435 -0.307,2.099c0.494,0.664 1.435,0.802 2.099,0.307l4.7,-3.5c0.664,-0.494 0.802,-1.435 0.307,-2.099c-0.494,-0.664 -1.435,-0.802 -2.099,-0.307Z"/><path d="M45.904,21.347l-4.7,3.5c-0.664,0.494 -0.802,1.435 -0.307,2.099c0.494,0.664 1.435,0.802 2.099,0.307l4.7,-3.5c0.664,-0.494 0.802,-1.435 0.307,-2.099c-0.494,-0.664 -1.435,-0.802 -2.099,-0.307Z"/><path d="M67.154,19.397l-4.7,3.5c-0.664,0.494 -0.802,1.435 -0.307,2.099c0.494,0.664 1.435,0.802 2.099,0.307l4.7,-3.5c0.664,-0.494 0.802,-1.435 0.307,-2.099c-0.494,-0.664 -1.435,-0.802 -2.099,-0.307Z"/></g></svg>