<?xml version="1.0" encoding="UTF-8" standalone="no"?><!DOCTYPE svg PUBLIC "-//W3C//DTD SVG 1.1//EN" "http://www.w3.org/Graphics/SVG/1.1/DTD/svg11.dtd"><svg width="100%" height="100%" viewBox="0 0 50 78" version="1.1" xmlns="http://www.w3.org/2000/svg" xmlns:xlink="http://www.w3.org/1999/xlink" xml:space="preserve" xmlns:serif="http://www.serif.com/" style="fill-rule:evenodd;clip-rule:evenodd;stroke-linejoin:round;stroke-miterlimit:2;"><g><path d="M30.05,17.55l-0,-0.55c-1.267,0.967 -2.267,2.633 -3,5c0.1,0.633 0.533,1.45 1.3,2.45c0.5,3.533 0.75,8.85 0.75,15.95c0,1.367 -1.117,2.017 -3.35,1.95l-0.45,-0l-0,-0.05l-3,0c-1.833,0 -3.467,0.617 -4.9,1.85c-1.533,1.367 -2.3,3.067 -2.3,5.1c0,0.933 0.417,1.617 1.25,2.05c0.467,0.267 1.333,0.5 2.6,0.7c1.133,0.2 1.867,0.417 2.2,0.65c-0.333,0.833 -1.8,1.583 -4.4,2.25c-2.133,0.533 -3.867,0.8 -5.2,0.8c-2.2,-0 -3.883,-0.25 -5.05,-0.75c-1.8,-0.8 -2.7,-2.25 -2.7,-4.35c-0,-0.9 0.283,-2.05 0.85,-3.45c0.667,-1.7 1.067,-2.85 1.2,-3.45c-0.967,0.767 -1.917,2.067 -2.85,3.9c-0.933,1.9 -1.4,3.5 -1.4,4.8c0,2.533 0.983,4.433 2.95,5.7c1.533,0.967 3.5,1.45 5.9,1.45c5.4,0 9.383,-1.867 11.95,-5.6c0.8,-1.167 1.2,-2.067 1.2,-2.7c0,-1.033 -0.9,-1.767 -2.7,-2.2c-1.233,-0.233 -2.467,-0.45 -3.7,-0.65c0.422,-0.754 2.672,-1.171 6.75,-1.25l2.75,0c1.6,0 2.75,-1 3.45,-3c0.533,-1.433 0.8,-3.217 0.8,-5.35l0,-4.5c0,-0.833 -0.067,-2.067 -0.2,-3.7c-0.167,-1.6 -0.25,-2.817 -0.25,-3.65c-0,-0.4 0.2,-1.067 0.6,-2c0.4,-0.933 0.6,-1.7 0.6,-2.3c0,-0.233 -0.317,-0.717 -0.95,-1.45c-0.667,-0.733 -1,-1.383 -1,-1.95c-0,-0.167 0.05,-0.433 0.15,-0.8c0.133,-0.4 0.183,-0.7 0.15,-0.9Z"/><path d="M39.25,17.45c-1.5,2.233 -2.25,3.583 -2.25,4.05l0.55,25.7c1.233,-1.167 1.85,-4.283 1.85,-9.35l-0.15,-20.4Z"/><path d="M39.61,48.742l-4.75,3.5c-0.666,0.492 -0.809,1.431 -0.318,2.098c0.492,0.666 1.431,0.809 2.098,0.318l4.75,-3.5c0.666,-0.492 0.809,-1.431 0.318,-2.098c-0.492,-0.666 -1.431,-0.809 -2.098,-0.318Z"/><path d="M25.104,10.347l-4.7,3.5c-0.664,0.494 -0.802,1.435 -0.307,2.099c0.494,0.664 1.435,0.802 2.099,0.307l4.7,-3.5c0.664,-0.494 0.802,-1.435 0.307,-2.099c-0.494,-0.664 -1.435,-0.802 -2.099,-0.307Z"/></g></svg>