<?xml version="1.0" encoding="UTF-8" standalone="no"?><!DOCTYPE svg PUBLIC "-//W3C//DTD SVG 1.1//EN" "http://www.w3.org/Graphics/SVG/1.1/DTD/svg11.dtd"><svg width="100%" height="100%" viewBox="0 0 71 78" version="1.1" xmlns="http://www.w3.org/2000/svg" xmlns:xlink="http://www.w3.org/1999/xlink" xml:space="preserve" xmlns:serif="http://www.serif.com/" style="fill-rule:evenodd;clip-rule:evenodd;stroke-linejoin:round;stroke-miterlimit:2;"><g><path d="M54.15,16.75c-1.5,2.233 -2.25,3.583 -2.25,4.05l0.55,25.7c1.233,-1.167 1.85,-4.283 1.85,-9.35l-0.15,-20.4Z"/><path d="M46.225,36.9c0.15,0.9 0.225,1.55 0.225,1.95c0,2.833 -0.583,4.833 -1.75,6c-1.016,0.986 -2.616,1.519 -4.8,1.6l-1.65,-0l-0,-4.85l1.65,-0c2.866,0.02 4.616,-0.43 5.25,-1.35c-0.167,-0.6 -0.55,-1.583 -1.15,-2.95c0.4,-0.833 0.917,-2.117 1.55,-3.85l0.675,3.45Z"/><path d="M43.15,30.1l2.5,-2.75l-2.5,-2.9l-2.45,2.9l2.45,2.75Z"/><path d="M29.25,18.5c-0.3,-0.367 -0.617,-0.55 -0.95,-0.55c-0.6,-0 -1.15,0.35 -1.65,1.05c-0.533,0.7 -0.8,1.383 -0.8,2.05c0,0.733 0.45,1.4 1.35,2c-0.867,0.933 -1.667,1.533 -2.4,1.8c0.067,-0.9 0.1,-1.45 0.1,-1.65c-0,-1.567 -0.45,-2.35 -1.35,-2.35c-0.5,-0 -0.917,0.267 -1.25,0.8c-0.267,0.467 -0.4,0.983 -0.4,1.55c-0,0.3 0.067,0.65 0.2,1.05c0.133,-1.067 0.45,-1.6 0.95,-1.6c0.3,0 0.533,0.133 0.7,0.4c0.167,0.233 0.25,0.5 0.25,0.8c-0,0.433 -0.267,1.333 -0.8,2.7c1.033,-0.233 1.917,-0.583 2.65,-1.05c0.567,-0.4 1.267,-1.067 2.1,-2c0.367,0.333 0.95,0.75 1.75,1.25c0.033,-0.833 0.05,-1.283 0.05,-1.35c-0,-0.5 -0.25,-0.967 -0.75,-1.4c0.433,-1.033 0.65,-1.817 0.65,-2.35c-0,-0.4 -0.133,-0.783 -0.4,-1.15Zm-1.8,0.85c0.533,-0 0.8,0.367 0.8,1.1l-0.05,0.85c-0.867,-0.6 -1.3,-1.083 -1.3,-1.45l0.2,-0.35c0.167,-0.1 0.283,-0.15 0.35,-0.15Z"/><path d="M44.2,17.1c0,-0.633 -0.167,-1.217 -0.5,-1.75c-0.367,-0.6 -0.817,-0.9 -1.35,-0.9c-0.733,-0 -1.283,0.383 -1.65,1.15c-0.333,0.6 -0.5,1.367 -0.5,2.3c0,1.433 0.55,2.15 1.65,2.15c0.667,0 1.217,-0.3 1.65,-0.9c0.467,-0.6 0.7,-1.283 0.7,-2.05Zm-2.55,-1.1c0.267,0 0.617,0.183 1.05,0.55c0.433,0.367 0.65,0.7 0.65,1c0,0.467 -0.4,0.7 -1.2,0.7c-0.967,0 -1.45,-0.35 -1.45,-1.05c0,-0.8 0.317,-1.2 0.95,-1.2Z"/><path d="M21.85,38.3c-0.767,1.733 -1.383,3.017 -1.85,3.85c1.367,2.667 2.05,5.1 2.05,7.3c-0,1.1 -0.967,2.017 -2.9,2.75c-1.533,0.6 -2.933,0.9 -4.2,0.9c-4.333,0 -6.5,-1.933 -6.5,-5.8c0,-0.733 0.317,-2.433 0.95,-5.1c-0.733,0.7 -1.333,1.933 -1.8,3.7c-0.4,1.5 -0.6,2.933 -0.6,4.3c-0,2.7 0.433,4.667 1.3,5.9c0.933,1.4 2.533,2.1 4.8,2.1c3.3,-0 5.817,-1.183 7.55,-3.55c1.433,-1.967 2.4,-4.9 2.9,-8.8c0.833,0.533 1.583,0.8 2.25,0.8c1.167,0 2.35,-0.5 3.55,-1.5c0.1,0.033 0.633,0.283 1.6,0.75c0.733,0.367 1.233,0.55 1.5,0.55c0.8,-0 1.6,-0.5 2.4,-1.5c0.933,1 1.617,1.5 2.05,1.5l1.35,-0l0,-4.85l0.6,-0c-0.54,-0.012 -0.907,-0.029 -1.1,-0.05c-1.033,-0.167 -1.55,-0.567 -1.55,-1.2c0,-0.3 0.033,-0.7 0.1,-1.2c0.067,-0.5 0.1,-0.867 0.1,-1.1c-0,-0.267 -0.017,-0.533 -0.05,-0.8c-0.433,0.933 -0.883,1.883 -1.35,2.85c-0.633,1.1 -1.333,1.65 -2.1,1.65c-0.867,0 -1.583,-0.4 -2.15,-1.2c0.233,-0.8 0.35,-1.9 0.35,-3.3c-0.633,1.1 -1.283,2.217 -1.95,3.35c-0.7,0.9 -1.783,1.35 -3.25,1.35c-0.933,-0 -1.767,-0.35 -2.5,-1.05c-0.733,-0.667 -1.25,-1.533 -1.55,-2.6Z" style="fill:#f00;"/><path d="M54.76,48.792l-4.75,3.5c-0.666,0.492 -0.809,1.431 -0.318,2.098c0.492,0.666 1.431,0.809 2.098,0.318l4.75,-3.5c0.666,-0.492 0.809,-1.431 0.318,-2.098c-0.492,-0.666 -1.431,-0.809 -2.098,-0.318Z"/></g></svg>