<?xml version="1.0" encoding="UTF-8" standalone="no"?><!DOCTYPE svg PUBLIC "-//W3C//DTD SVG 1.1//EN" "http://www.w3.org/Graphics/SVG/1.1/DTD/svg11.dtd"><svg width="100%" height="100%" viewBox="0 0 106 72" version="1.1" xmlns="http://www.w3.org/2000/svg" xmlns:xlink="http://www.w3.org/1999/xlink" xml:space="preserve" xmlns:serif="http://www.serif.com/" style="fill-rule:evenodd;clip-rule:evenodd;stroke-linejoin:round;stroke-miterlimit:2;"><g><path d="M45.15,42.2c0.6,1.367 0.983,2.35 1.15,2.95c-0.593,0.86 -2.16,1.31 -4.7,1.35l-2.2,-0l-0,0.1c-0.752,0.033 -1.268,0.05 -1.55,0.05c-1.1,-0 -1.883,-0.25 -2.35,-0.75c-0.533,-0.6 -0.833,-1.733 -0.9,-3.4c-1,1.9 -1.667,3.033 -2,3.4c-0.467,0.467 -1.217,0.7 -2.25,0.7c-0.2,0 -0.717,-0.017 -1.55,-0.05c-0.034,-0.001 -0.067,-0.001 -0.1,-0l0,-0.05c-2.4,-0 -4.033,-0.633 -4.9,-1.9c-0.767,-1.2 -1.383,-4.767 -1.85,-10.7c-0.233,-3.867 -0.467,-7.75 -0.7,-11.65c-0.267,0.267 -0.7,0.917 -1.3,1.95c-0.633,1.1 -0.933,1.8 -0.9,2.1l1.65,27.3c0.067,0.933 -0.783,1.75 -2.55,2.45c-1.433,0.567 -2.65,0.85 -3.65,0.85c-1.533,-0 -2.783,-0.317 -3.75,-0.95c-1.167,-0.8 -1.75,-2.017 -1.75,-3.65c0,-2.033 0.183,-3.917 0.55,-5.65c-0.633,0.533 -1.2,1.75 -1.7,3.65c-0.467,1.7 -0.7,3.117 -0.7,4.25c-0,2.667 0.367,4.617 1.1,5.85c0.867,1.467 2.4,2.2 4.6,2.2c3.267,0 5.683,-1.35 7.25,-4.05c0.967,-1.7 1.85,-4.75 2.65,-9.15c0.4,0.433 0.817,0.867 1.25,1.3c0.5,0.433 1,0.65 1.5,0.65l4.8,0c0.833,0 1.5,-0.35 2,-1.05c0.067,-0.1 0.467,-0.85 1.2,-2.25c0.367,0.7 0.883,1.4 1.55,2.1c0.8,0.8 1.483,1.2 2.05,1.2l4.5,-0l0,-0.05c1.904,-0.132 3.321,-0.649 4.25,-1.55c1.167,-1.167 1.75,-3.167 1.75,-6c0,-0.8 -0.3,-2.6 -0.9,-5.4c-0.633,1.733 -1.15,3.017 -1.55,3.85Z"/><path d="M67.225,45.938c0.35,0.241 0.692,0.395 1.025,0.462c0.136,0.045 0.57,0.079 1.3,0.1l1.25,-0l-0,4.85l-1.4,0c-0.344,0.008 -0.627,0.091 -0.85,0.25c-0.2,1.933 -0.983,4.017 -2.35,6.25c-1.533,2.5 -3.05,3.75 -4.55,3.75c-1.067,0 -2.217,-0.4 -3.45,-1.2c-1.067,-0.667 -2.017,-1.55 -2.85,-2.65c0.633,0.2 1.267,0.383 1.9,0.55c0.8,0.233 1.433,0.35 1.9,0.35c1.1,-0 2.7,-0.867 4.8,-2.6c2.2,-1.8 3.3,-3.267 3.3,-4.4c0,-0.1 -0.283,-0.65 -0.85,-1.65c-0.633,-1.2 -0.967,-1.833 -1,-1.9c0.333,-0.9 0.583,-1.95 0.75,-3.15l1.075,0.987Z"/><path d="M36.35,60.9l2.25,-2.5l-2.2,-2.45l-2.15,2.5l-2.15,-2.5l-2.2,2.45l2.2,2.5l2.1,-2.45l2.15,2.45Z"/><path d="M53.6,51.4c1.233,-1.167 1.85,-4.283 1.85,-9.35l-0.15,-20.4c-1.5,2.233 -2.25,3.583 -2.25,4.05l0.55,25.7Z"/><path d="M96.45,42.05l-0.15,-20.4c-1.5,2.233 -2.25,3.583 -2.25,4.05l0.55,25.7c1.233,-1.167 1.85,-4.283 1.85,-9.35Z"/><path d="M47.15,26.3c-0.233,-0.267 -0.483,-0.4 -0.75,-0.4c-0.5,-0 -1.283,0.5 -2.35,1.5c-1.067,1 -1.6,1.783 -1.6,2.35c0,0.2 0.117,0.55 0.35,1.05c0.267,0.467 0.4,0.833 0.4,1.1c0,0.133 -0.033,0.35 -0.1,0.65c-0.1,0.3 -0.15,0.533 -0.15,0.7c0,0.133 0.017,0.333 0.05,0.6c1.467,-1.333 2.733,-2 3.8,-2c0.9,0 1.383,-0.033 1.45,-0.1c0.233,-0.433 0.467,-0.883 0.7,-1.35c-0.233,-0 -0.583,0.017 -1.05,0.05l-1.05,-0c-1.233,-0 -2.2,-0.3 -2.9,-0.9c0.367,-1.133 0.883,-1.7 1.55,-1.7c0.167,0 0.4,0.067 0.7,0.2c0.333,0.1 0.567,0.15 0.7,0.15c0.367,-0 0.55,-0.367 0.55,-1.1c0,-0.3 -0.1,-0.567 -0.3,-0.8Z"/><path d="M82.85,26.2c-0.367,-0.6 -0.817,-0.9 -1.35,-0.9c-0.733,0 -1.283,0.383 -1.65,1.15c-0.333,0.6 -0.5,1.367 -0.5,2.3c0,1.433 0.55,2.15 1.65,2.15c0.667,-0 1.217,-0.3 1.65,-0.9c0.467,-0.6 0.7,-1.283 0.7,-2.05c0,-0.633 -0.167,-1.217 -0.5,-1.75Zm-2.05,0.65c0.267,0 0.617,0.183 1.05,0.55c0.433,0.367 0.65,0.7 0.65,1c-0,0.467 -0.4,0.7 -1.2,0.7c-0.967,0 -1.45,-0.35 -1.45,-1.05c0,-0.8 0.317,-1.2 0.95,-1.2Z"/><path d="M57.25,17.1c0.933,0 2.083,-0.433 3.45,-1.3c1.533,-0.933 2.3,-1.883 2.3,-2.85c-1.567,0.9 -2.4,1.383 -2.5,1.45c-1,0.5 -1.9,0.75 -2.7,0.75c-1.567,-0 -3.033,-0.567 -4.4,-1.7c-1.133,1.933 -1.917,3.65 -2.35,5.15c0.367,-0.267 0.75,-0.7 1.15,-1.3c0.433,-0.733 0.767,-1.2 1,-1.4c1.067,0.533 1.7,0.833 1.9,0.9c0.567,0.2 1.283,0.3 2.15,0.3Z"/><path d="M69.85,46.5l0.95,0l-0,4.85l1.05,0c0.4,0 1.2,-0.567 2.4,-1.7c0.667,0.367 1.317,0.733 1.95,1.1c0.8,0.4 1.517,0.6 2.15,0.6c1.467,0 2.9,-0.783 4.3,-2.35c0.533,0.367 1.083,0.75 1.65,1.15c0.767,0.533 1.317,0.8 1.65,0.8c1.067,0 1.883,-1.183 2.45,-3.55c0.4,-1.633 0.6,-3.317 0.6,-5.05c-0,-0.3 -0.15,-1 -0.45,-2.1c-0.633,1.433 -1.067,2.45 -1.3,3.05c0.4,1.133 0.6,1.833 0.6,2.1l-0.25,0.75c-0.333,0.167 -0.633,0.25 -0.9,0.25c-2,-0 -3,-0.717 -3,-2.15c0,-0.3 0.033,-0.683 0.1,-1.15c0.067,-0.567 0.1,-0.95 0.1,-1.15c-0.733,1.167 -1.483,2.317 -2.25,3.45c-0.867,1.133 -2,1.7 -3.4,1.7c-1.033,0 -1.75,-0.2 -2.15,-0.6c-0.367,-0.267 -0.583,-0.783 -0.65,-1.55c-0.1,-0.767 -0.183,-1.55 -0.25,-2.35c-1.067,2.033 -1.767,3.167 -2.1,3.4c-0.419,0.299 -1.502,0.466 -3.25,0.5Z" style="fill:#f00;"/><path d="M47.804,55.747l-4.7,3.5c-0.664,0.494 -0.802,1.435 -0.307,2.099c0.494,0.664 1.435,0.802 2.099,0.307l4.7,-3.5c0.664,-0.494 0.802,-1.435 0.307,-2.099c-0.494,-0.664 -1.435,-0.802 -2.099,-0.307Z"/><path d="M97.054,52.647l-4.7,3.5c-0.664,0.494 -0.802,1.435 -0.307,2.099c0.494,0.664 1.435,0.802 2.099,0.307l4.7,-3.5c0.664,-0.494 0.802,-1.435 0.307,-2.099c-0.494,-0.664 -1.435,-0.802 -2.099,-0.307Z"/><path d="M63.51,17.592l-4.75,3.5c-0.666,0.492 -0.809,1.431 -0.318,2.098c0.492,0.666 1.431,0.809 2.098,0.318l4.75,-3.5c0.666,-0.492 0.809,-1.431 0.318,-2.098c-0.492,-0.666 -1.431,-0.809 -2.098,-0.318Z"/><path d="M15.76,17.592l-4.75,3.5c-0.666,0.492 -0.809,1.431 -0.318,2.098c0.492,0.666 1.431,0.809 2.098,0.318l4.75,-3.5c0.666,-0.492 0.809,-1.431 0.318,-2.098c-0.492,-0.666 -1.431,-0.809 -2.098,-0.318Z"/></g></svg>