<?xml version="1.0" encoding="UTF-8" standalone="no"?><!DOCTYPE svg PUBLIC "-//W3C//DTD SVG 1.1//EN" "http://www.w3.org/Graphics/SVG/1.1/DTD/svg11.dtd"><svg width="100%" height="100%" viewBox="0 0 85 72" version="1.1" xmlns="http://www.w3.org/2000/svg" xmlns:xlink="http://www.w3.org/1999/xlink" xml:space="preserve" xmlns:serif="http://www.serif.com/" style="fill-rule:evenodd;clip-rule:evenodd;stroke-linejoin:round;stroke-miterlimit:2;"><g><path d="M12.7,54.75c0,-0.9 0.283,-2.05 0.85,-3.45c0.667,-1.7 1.067,-2.85 1.2,-3.45c-0.967,0.767 -1.917,2.067 -2.85,3.9c-0.933,1.9 -1.4,3.5 -1.4,4.8c0,2.533 0.983,4.433 2.95,5.7c1.533,0.967 3.5,1.45 5.9,1.45c5.4,0 9.383,-1.867 11.95,-5.6c0.8,-1.167 1.2,-2.067 1.2,-2.7c-0,-1.033 -0.9,-1.767 -2.7,-2.2c-1.233,-0.233 -2.467,-0.45 -3.7,-0.65c0.418,-0.747 2.635,-1.164 6.65,-1.25l2.05,-0c0.8,-0 1.467,-0.35 2,-1.05c0.133,-0.2 0.533,-0.95 1.2,-2.25c0.8,1.4 1.217,2.133 1.25,2.2c0.567,0.733 1.233,1.1 2,1.1l2.85,-0l-0,-0.05c2.082,-0.078 3.615,-0.595 4.6,-1.55c1.167,-1.167 1.75,-3.167 1.75,-6c0,-0.8 -0.3,-2.6 -0.9,-5.4c-0.633,1.733 -1.15,3.017 -1.55,3.85c0.6,1.367 0.983,2.35 1.15,2.95c-0.619,0.898 -2.303,1.348 -5.05,1.35l-0.95,0c-1.563,-0.037 -2.513,-0.154 -2.85,-0.35c-0.8,-0.433 -1.2,-1.717 -1.2,-3.85c-0.633,0.6 -1.067,1.35 -1.3,2.25c-0.167,0.733 -0.483,1.217 -0.95,1.45c-0.626,0.284 -1.842,0.451 -3.65,0.5l-2,0c-1.833,0 -3.467,0.617 -4.9,1.85c-1.533,1.367 -2.3,3.067 -2.3,5.1c-0,0.933 0.417,1.617 1.25,2.05c0.467,0.267 1.333,0.5 2.6,0.7c1.133,0.2 1.867,0.417 2.2,0.65c-0.333,0.833 -1.8,1.583 -4.4,2.25c-2.133,0.533 -3.867,0.8 -5.2,0.8c-2.2,0 -3.883,-0.25 -5.05,-0.75c-1.8,-0.8 -2.7,-2.25 -2.7,-4.35Z"/><path d="M49.15,59.05l-2.45,-2.85l-2.5,2.85l2.5,2.8l2.45,-2.8Z"/><path d="M69.55,55.15l-2.15,2.5l2.15,2.5l2.2,-2.55l-2.2,-2.45Z"/><path d="M65.25,60.15l2.15,-2.5l-2.15,-2.45l-2.15,2.4l2.15,2.55Z"/><path d="M55.85,25.8c-0,6.533 0.033,10.717 0.1,12.55c0.233,6.3 0.783,10.1 1.65,11.4c0.7,1.033 1.683,1.55 2.95,1.55l3.35,-0l0,-0.05c2.107,-0.07 3.657,-0.587 4.65,-1.55c1.167,-1.167 1.75,-3.167 1.75,-6c-0,-0.8 -0.3,-2.6 -0.9,-5.4c-0.633,1.733 -1.15,3.017 -1.55,3.85c0.6,1.367 0.983,2.35 1.15,2.95c-0.623,0.903 -2.323,1.353 -5.1,1.35c-2.733,0 -4.5,-0.617 -5.3,-1.85c-0.667,-1.033 -1,-3.217 -1,-6.55l-0,-15.65c-0.433,0.5 -0.85,0.983 -1.25,1.45c-0.333,0.5 -0.5,1.15 -0.5,1.95Z"/><path d="M40.35,34.4l-2.5,-2.85l-2.45,2.85l2.45,2.8l2.5,-2.8Z"/><path d="M32.9,23.05c-1.567,0.9 -2.4,1.383 -2.5,1.45c-1,0.5 -1.9,0.75 -2.7,0.75c-1.567,0 -3.033,-0.567 -4.4,-1.7c-1.133,1.933 -1.917,3.65 -2.35,5.15c0.367,-0.267 0.75,-0.7 1.15,-1.3c0.433,-0.733 0.767,-1.2 1,-1.4c1.067,0.533 1.7,0.833 1.9,0.9c0.567,0.2 1.283,0.3 2.15,0.3c0.933,-0 2.083,-0.433 3.45,-1.3c1.533,-0.933 2.3,-1.883 2.3,-2.85Z"/><path d="M36.604,59.197l-4.7,3.5c-0.664,0.494 -0.802,1.435 -0.307,2.099c0.494,0.664 1.435,0.802 2.099,0.307l4.7,-3.5c0.664,-0.494 0.802,-1.435 0.307,-2.099c-0.494,-0.664 -1.435,-0.802 -2.099,-0.307Z"/><path d="M47.91,15.992l-4.75,3.5c-0.666,0.492 -0.809,1.431 -0.318,2.098c0.492,0.666 1.431,0.809 2.098,0.318l4.75,-3.5c0.666,-0.492 0.809,-1.431 0.318,-2.098c-0.492,-0.666 -1.431,-0.809 -2.098,-0.318Z"/><path d="M65.66,15.192l-4.75,3.5c-0.666,0.492 -0.809,1.431 -0.318,2.098c0.492,0.666 1.431,0.809 2.098,0.318l4.75,-3.5c0.666,-0.492 0.809,-1.431 0.318,-2.098c-0.492,-0.666 -1.431,-0.809 -2.098,-0.318Z"/></g></svg>