<?xml version="1.0" encoding="UTF-8" standalone="no"?><!DOCTYPE svg PUBLIC "-//W3C//DTD SVG 1.1//EN" "http://www.w3.org/Graphics/SVG/1.1/DTD/svg11.dtd"><svg width="100%" height="100%" viewBox="0 0 86 72" version="1.1" xmlns="http://www.w3.org/2000/svg" xmlns:xlink="http://www.w3.org/1999/xlink" xml:space="preserve" xmlns:serif="http://www.serif.com/" style="fill-rule:evenodd;clip-rule:evenodd;stroke-linejoin:round;stroke-miterlimit:2;"><g><path d="M60.1,57.7l-2.15,-2.45l-2.15,2.4l2.15,2.55l2.15,-2.5Z"/><path d="M64.45,57.65l-2.2,-2.45l-2.15,2.5l2.15,2.5l2.2,-2.55Z"/><path d="M62.775,41.8c0.15,0.9 0.225,1.55 0.225,1.95c0,2.833 -0.583,4.833 -1.75,6c-0.929,0.901 -2.346,1.418 -4.25,1.55l0,0.05l-4.5,0c-0.567,0 -1.25,-0.4 -2.05,-1.2c-0.667,-0.7 -1.183,-1.4 -1.55,-2.1c-0.733,1.4 -1.133,2.15 -1.2,2.25c-0.5,0.7 -1.167,1.05 -2,1.05l-3.75,0l0,-4.85l0.65,0c0.421,0.009 0.871,0.026 1.35,0.05c0.082,-0.003 0.166,-0.003 0.25,-0c0.833,0.033 1.35,0.05 1.55,0.05c1.033,0 1.783,-0.233 2.25,-0.7c0.333,-0.367 1,-1.5 2,-3.4c0.067,1.667 0.367,2.8 0.9,3.4c0.467,0.5 1.25,0.75 2.35,0.75c0.282,-0 0.798,-0.017 1.55,-0.05l-0,-0.1l2.2,0c2.541,-0.041 4.108,-0.491 4.7,-1.35c-0.167,-0.6 -0.55,-1.583 -1.15,-2.95c0.4,-0.833 0.917,-2.117 1.55,-3.85l0.675,3.45Z"/><path d="M18.55,46.7c-0.456,0.013 -0.923,-0.004 -1.4,-0.05c-0.367,-0.967 -0.75,-1.917 -1.15,-2.85c-0.6,-1.267 -1.2,-1.9 -1.8,-1.9c-0.767,-0 -1.567,0.917 -2.4,2.75c-0.767,1.7 -1.15,3.083 -1.15,4.15c0,1.3 0.55,2.117 1.65,2.45c1,0.167 2,0.333 3,0.5c-1.167,2.067 -2.4,3.567 -3.7,4.5c-1.433,1.067 -3.133,1.6 -5.1,1.6c-1.033,0 -2.55,-0.1 -4.55,-0.3c1.867,2.133 4.033,3.2 6.5,3.2c2.133,-0 3.95,-1.017 5.45,-3.05c1.033,-1.4 2.05,-3.517 3.05,-6.35l1.6,0l-0,-4.65Zm-4.05,-0.2c0.133,0.267 0.267,0.817 0.4,1.65c-0.6,-0 -1.333,-0.083 -2.2,-0.25c0,-0.367 -0.067,-0.617 -0.2,-0.75c0.267,-0.567 0.517,-1.083 0.75,-1.55c0.633,0.333 1.05,0.633 1.25,0.9Z"/><path d="M51.4,26.3c-0.2,-0.267 -0.433,-0.4 -0.7,-0.4c-0.5,-0 -1.283,0.5 -2.35,1.5c-1.067,1 -1.6,1.783 -1.6,2.35c0,0.2 0.117,0.55 0.35,1.05c0.267,0.467 0.4,0.833 0.4,1.1c0,0.133 -0.033,0.35 -0.1,0.65c-0.1,0.3 -0.15,0.533 -0.15,0.7c0,0.133 0.017,0.333 0.05,0.6c1.467,-1.333 2.733,-2 3.8,-2c0.9,0 1.367,-0.033 1.4,-0.1c0.267,-0.433 0.517,-0.883 0.75,-1.35c-0.233,-0 -0.583,0.017 -1.05,0.05l-1.05,-0c-1.233,-0 -2.217,-0.3 -2.95,-0.9c0.4,-1.133 0.933,-1.7 1.6,-1.7c0.167,0 0.4,0.067 0.7,0.2c0.3,0.1 0.533,0.15 0.7,0.15c0.333,-0 0.5,-0.367 0.5,-1.1c0,-0.3 -0.1,-0.567 -0.3,-0.8Z"/><path d="M27,20.9c0,-1 -0.417,-1.5 -1.25,-1.5c-0.6,-0 -1.117,0.35 -1.55,1.05c-0.433,0.633 -0.65,1.233 -0.65,1.8c-0,0.5 0.4,1.017 1.2,1.55c-1.4,1.167 -2.717,2.067 -3.95,2.7c0.433,0.133 0.783,0.2 1.05,0.2c1.033,-0 2.25,-0.817 3.65,-2.45c0.567,0.367 1.067,0.65 1.5,0.85l0.15,-1.7c-0.333,-0.233 -0.583,-0.4 -0.75,-0.5c0.4,-0.833 0.6,-1.5 0.6,-2Zm-1.15,1c-0,0.167 -0.033,0.35 -0.1,0.55c-0.833,-0.433 -1.25,-0.85 -1.25,-1.25c0.067,-0.167 0.183,-0.267 0.35,-0.3c0.667,0.1 1,0.433 1,1Z"/><path d="M18.55,46.5l-0,4.85l3.9,0c0.633,0 1.45,-0.567 2.45,-1.7c0.7,0.367 1.4,0.733 2.1,1.1c0.833,0.4 1.567,0.6 2.2,0.6c1.233,0 2.5,-0.5 3.8,-1.5c0.5,0.333 1.017,0.65 1.55,0.95c0.633,0.367 1.167,0.55 1.6,0.55c0.767,0 1.55,-0.5 2.35,-1.5c0.967,1 1.6,1.5 1.9,1.5l1.55,0l0,-4.85l0.45,0c-1.7,-0.032 -2.55,-0.549 -2.55,-1.55c-0,-0.1 0.05,-0.3 0.15,-0.6c0.1,-0.333 0.15,-0.567 0.15,-0.7c0,-0.433 -0.1,-0.933 -0.3,-1.5c-0.433,0.967 -0.85,1.933 -1.25,2.9c-0.6,1.067 -1.317,1.6 -2.15,1.6c-1.067,-0 -1.783,-0.367 -2.15,-1.1c0.233,-1.167 0.35,-2.3 0.35,-3.4c-0.6,1.1 -1.2,2.183 -1.8,3.25c-0.667,0.833 -1.733,1.25 -3.2,1.25c-1.267,-0 -2.183,-0.233 -2.75,-0.7c-0.633,-0.533 -0.95,-1.517 -0.95,-2.95c-1.033,1.533 -1.867,2.517 -2.5,2.95c-0.6,0.367 -1.467,0.55 -2.6,0.55l-2.3,0Z" style="fill:#f00;"/><path d="M42.6,46.5c0.421,0.009 0.871,0.026 1.35,0.05l0,-0.05l-1.35,0Z" style="fill:#f00;"/><path d="M50.504,55.747l-4.7,3.5c-0.664,0.494 -0.802,1.435 -0.307,2.099c0.494,0.664 1.435,0.802 2.099,0.307l4.7,-3.5c0.664,-0.494 0.802,-1.435 0.307,-2.099c-0.494,-0.664 -1.435,-0.802 -2.099,-0.307Z"/><path d="M61.304,16.047l-4.7,3.5c-0.664,0.494 -0.802,1.435 -0.307,2.099c0.494,0.664 1.435,0.802 2.099,0.307l4.7,-3.5c0.664,-0.494 0.802,-1.435 0.307,-2.099c-0.494,-0.664 -1.435,-0.802 -2.099,-0.307Z"/></g></svg>