<?xml version="1.0" encoding="UTF-8" standalone="no"?><!DOCTYPE svg PUBLIC "-//W3C//DTD SVG 1.1//EN" "http://www.w3.org/Graphics/SVG/1.1/DTD/svg11.dtd"><svg width="100%" height="100%" viewBox="0 0 83 64" version="1.1" xmlns="http://www.w3.org/2000/svg" xmlns:xlink="http://www.w3.org/1999/xlink" xml:space="preserve" xmlns:serif="http://www.serif.com/" style="fill-rule:evenodd;clip-rule:evenodd;stroke-linejoin:round;stroke-miterlimit:2;"><g><path d="M69.45,36.4c0,-0.8 -0.3,-2.6 -0.9,-5.4c-0.633,1.733 -1.15,3.017 -1.55,3.85c0.6,1.367 0.983,2.35 1.15,2.95c-0.649,0.941 -2.465,1.391 -5.45,1.35l-1.15,-0c-0.792,-0.02 -1.259,-0.053 -1.4,-0.1c-0.667,-0.133 -1.367,-0.617 -2.1,-1.45c-0.167,1.2 -0.417,2.25 -0.75,3.15c0.033,0.067 0.367,0.7 1,1.9c0.567,1 0.85,1.55 0.85,1.65c-0,1.133 -1.1,2.6 -3.3,4.4c-2.1,1.733 -3.7,2.6 -4.8,2.6c-0.467,0 -1.1,-0.117 -1.9,-0.35c-0.633,-0.167 -1.267,-0.35 -1.9,-0.55c0.833,1.1 1.783,1.983 2.85,2.65c1.233,0.8 2.383,1.2 3.45,1.2c1.5,0 3.017,-1.25 4.55,-3.75c1.367,-2.233 2.15,-4.317 2.35,-6.25c0.212,-0.151 0.478,-0.235 0.8,-0.25l1.45,0c2.286,-0.051 3.953,-0.585 5,-1.6c1.167,-1.167 1.75,-3.167 1.75,-6Z"/><path d="M64.4,47.9l-2.15,2.4l2.15,2.55l2.15,-2.5l-2.15,-2.45Z"/><path d="M68.7,47.85l-2.15,2.5l2.15,2.5l2.2,-2.55l-2.2,-2.45Z"/><path d="M19.7,36.9c0.867,1.333 1.433,2.283 1.7,2.85c0.533,1.133 0.8,2.233 0.8,3.3c0,1.3 -0.9,2.4 -2.7,3.3c-1.467,0.767 -2.85,1.15 -4.15,1.15c-3.3,0 -4.95,-1.583 -4.95,-4.75c-0,-0.533 0.083,-1.3 0.25,-2.3c0.2,-1.033 0.3,-1.8 0.3,-2.3c-0.667,0.8 -1.217,1.917 -1.65,3.35c-0.367,1.333 -0.55,2.617 -0.55,3.85c0,2.233 0.583,3.933 1.75,5.1c1.067,1.1 2.6,1.65 4.6,1.65c2.467,0 4.533,-1.017 6.2,-3.05c1.667,-2.033 2.5,-4.483 2.5,-7.35c-0,-3.7 -0.9,-6.817 -2.7,-9.35c-0.467,1.067 -0.933,2.583 -1.4,4.55Z"/><path d="M35.45,34.55c-0.767,0 -1.567,0.917 -2.4,2.75c-0.767,1.7 -1.15,3.083 -1.15,4.15c-0,1.3 0.55,2.117 1.65,2.45c1,0.167 2,0.333 3,0.5c-1.167,2.067 -2.4,3.567 -3.7,4.5c-1.433,1.067 -3.133,1.6 -5.1,1.6c-1.033,-0 -2.55,-0.1 -4.55,-0.3c1.867,2.133 4.033,3.2 6.5,3.2c2.133,-0 3.95,-1.017 5.45,-3.05c1.033,-1.4 2.05,-3.517 3.05,-6.35l3.15,-0l0,-0.05c2.132,-0.063 3.699,-0.579 4.7,-1.55c1.167,-1.167 1.75,-3.167 1.75,-6c-0,-0.8 -0.3,-2.6 -0.9,-5.4c-0.633,1.733 -1.15,3.017 -1.55,3.85c0.6,1.367 0.983,2.35 1.15,2.95c-0.667,0.967 -2.567,1.417 -5.7,1.35l-1.2,-0l0,0.2c-0.392,0.006 -0.792,-0.011 -1.2,-0.05c-0.367,-0.967 -0.75,-1.917 -1.15,-2.85c-0.6,-1.267 -1.2,-1.9 -1.8,-1.9Zm-0.95,3.7c0.633,0.333 1.05,0.633 1.25,0.9c0.133,0.267 0.267,0.817 0.4,1.65c-0.6,-0 -1.333,-0.083 -2.2,-0.25c0,-0.367 -0.067,-0.617 -0.2,-0.75c0.267,-0.567 0.517,-1.083 0.75,-1.55Z"/><path d="M14.95,30.55l2.5,-2.8l-2.5,-2.85l-2.45,2.85l2.45,2.8Z"/><path d="M44.9,25.85l-2.15,-2.45l-2.15,2.4l2.15,2.55l2.15,-2.5Z"/><path d="M49.25,25.8l-2.2,-2.4l-2.15,2.45l2.15,2.5l2.2,-2.55Z"/><path d="M47.2,20.65l-2.15,-2.45l-2.15,2.45l2.1,2.55l2.2,-2.55Z"/><path d="M42.75,12.4c-0.333,-0.233 -0.583,-0.4 -0.75,-0.5c0.4,-0.833 0.6,-1.5 0.6,-2c0,-1 -0.417,-1.5 -1.25,-1.5c-0.6,-0 -1.117,0.35 -1.55,1.05c-0.433,0.633 -0.65,1.233 -0.65,1.8c-0,0.5 0.4,1.017 1.2,1.55c-1.4,1.167 -2.717,2.067 -3.95,2.7c0.433,0.133 0.783,0.2 1.05,0.2c1.033,-0 2.25,-0.817 3.65,-2.45c0.567,0.367 1.067,0.65 1.5,0.85l0.15,-1.7Zm-2.65,-2.2c0.067,-0.167 0.183,-0.267 0.35,-0.3c0.667,0.1 1,0.433 1,1c0,0.167 -0.033,0.35 -0.1,0.55c-0.833,-0.433 -1.25,-0.85 -1.25,-1.25Z"/><path d="M56.304,57.197l-4.7,3.5c-0.664,0.494 -0.802,1.435 -0.307,2.099c0.494,0.664 1.435,0.802 2.099,0.307l4.7,-3.5c0.664,-0.494 0.802,-1.435 0.307,-2.099c-0.494,-0.664 -1.435,-0.802 -2.099,-0.307Z"/><path d="M15.604,10.097l-4.7,3.5c-0.664,0.494 -0.802,1.435 -0.307,2.099c0.494,0.664 1.435,0.802 2.099,0.307l4.7,-3.5c0.664,-0.494 0.802,-1.435 0.307,-2.099c-0.494,-0.664 -1.435,-0.802 -2.099,-0.307Z"/><path d="M64.11,10.092l-4.75,3.5c-0.666,0.492 -0.809,1.431 -0.318,2.098c0.492,0.666 1.431,0.809 2.098,0.318l4.75,-3.5c0.666,-0.492 0.809,-1.431 0.318,-2.098c-0.492,-0.666 -1.431,-0.809 -2.098,-0.318Z"/></g></svg>