<?xml version="1.0" encoding="UTF-8" standalone="no"?><!DOCTYPE svg PUBLIC "-//W3C//DTD SVG 1.1//EN" "http://www.w3.org/Graphics/SVG/1.1/DTD/svg11.dtd"><svg width="100%" height="100%" viewBox="0 0 59 75" version="1.1" xmlns="http://www.w3.org/2000/svg" xmlns:xlink="http://www.w3.org/1999/xlink" xml:space="preserve" xmlns:serif="http://www.serif.com/" style="fill-rule:evenodd;clip-rule:evenodd;stroke-linejoin:round;stroke-miterlimit:2;"><g><path d="M15.6,39.25c-0.167,1.2 -0.417,2.25 -0.75,3.15c0.033,0.067 0.367,0.7 1,1.9c0.567,1 0.85,1.55 0.85,1.65c0,1.133 -1.1,2.6 -3.3,4.4c-2.1,1.733 -3.7,2.6 -4.8,2.6c-0.467,-0 -1.1,-0.117 -1.9,-0.35c-0.633,-0.167 -1.267,-0.35 -1.9,-0.55c0.833,1.1 1.783,1.983 2.85,2.65c1.233,0.8 2.383,1.2 3.45,1.2c1.5,-0 3.017,-1.25 4.55,-3.75c1.367,-2.233 2.15,-4.317 2.35,-6.25c0.233,-0.167 0.533,-0.25 0.9,-0.25l0.1,0l0,-4.85c-0.732,-0.022 -1.165,-0.055 -1.3,-0.1c-0.667,-0.133 -1.367,-0.617 -2.1,-1.45Z"/><path d="M52.05,51.95l-2.2,-2.45l-2.15,2.5l2.15,2.5l2.2,-2.55Z"/><path d="M47.7,52l-2.15,-2.45l-2.15,2.4l2.15,2.55l2.15,-2.5Z"/><path d="M50.375,36.1c0.15,0.9 0.225,1.55 0.225,1.95c-0,2.833 -0.583,4.833 -1.75,6c-0.961,0.932 -2.445,1.449 -4.45,1.55c-0.217,0.029 -0.45,0.046 -0.7,0.05l-1.3,0l0,-4.85l2,0c2.659,-0.019 4.292,-0.469 4.9,-1.35c-0.167,-0.6 -0.55,-1.583 -1.15,-2.95c0.4,-0.833 0.917,-2.117 1.55,-3.85l0.675,3.45Z"/><path d="M31.45,29.4l-0.3,0.05c-0.167,0.7 -0.25,1.15 -0.25,1.35c0,0.433 0.067,0.783 0.2,1.05c0.2,0.333 0.467,0.5 0.8,0.5c0.267,-0 0.533,-0.117 0.8,-0.35c0.267,-0.233 0.417,-0.517 0.45,-0.85c0.233,0.2 0.483,0.3 0.75,0.3c0.867,-0 1.3,-0.783 1.3,-2.35c0,-0.4 -0.067,-0.85 -0.2,-1.35l-0.25,0.15c0,1.367 -0.283,2.05 -0.85,2.05c-0.267,-0 -0.483,-0.45 -0.65,-1.35l-0.25,0.05c-0.1,0.7 -0.2,1.167 -0.3,1.4c-0.167,0.567 -0.433,0.85 -0.8,0.85c-0.3,0 -0.45,-0.5 -0.45,-1.5Z"/><path d="M13,25.75c-0.333,0.6 -0.5,1.367 -0.5,2.3c0,1.433 0.55,2.15 1.65,2.15c0.667,-0 1.217,-0.3 1.65,-0.9c0.467,-0.6 0.7,-1.283 0.7,-2.05c0,-0.633 -0.167,-1.217 -0.5,-1.75c-0.367,-0.6 -0.817,-0.9 -1.35,-0.9c-0.733,-0 -1.283,0.383 -1.65,1.15Zm2.65,1.95c0,0.467 -0.4,0.7 -1.2,0.7c-0.967,0 -1.45,-0.35 -1.45,-1.05c-0,-0.8 0.317,-1.2 0.95,-1.2c0.267,0 0.617,0.183 1.05,0.55c0.433,0.367 0.65,0.7 0.65,1Z"/><path d="M33.3,39.7c-0.667,0.833 -1.733,1.25 -3.2,1.25c-1.267,-0 -2.183,-0.233 -2.75,-0.7c-0.633,-0.533 -0.95,-1.517 -0.95,-2.95c-1.033,1.533 -1.867,2.517 -2.5,2.95c-0.6,0.367 -1.467,0.55 -2.6,0.55l-2.3,0l0,4.85l3.9,0c0.633,0 1.45,-0.567 2.45,-1.7c0.7,0.367 1.4,0.733 2.1,1.1c0.833,0.4 1.567,0.6 2.2,0.6c1.233,0 2.5,-0.5 3.8,-1.5c0.5,0.333 1.017,0.65 1.55,0.95c0.633,0.367 1.167,0.55 1.6,0.55c0.767,0 1.55,-0.5 2.35,-1.5c0.967,1 1.6,1.5 1.9,1.5l1.55,0l0,-4.85l0.5,0c-1.733,-0.031 -2.6,-0.548 -2.6,-1.55c-0,-0.1 0.05,-0.3 0.15,-0.6c0.1,-0.333 0.15,-0.567 0.15,-0.7c-0,-0.433 -0.1,-0.933 -0.3,-1.5c-0.433,0.967 -0.85,1.933 -1.25,2.9c-0.6,1.067 -1.317,1.6 -2.15,1.6c-1.067,-0 -1.783,-0.367 -2.15,-1.1c0.233,-1.167 0.35,-2.3 0.35,-3.4c-0.6,1.1 -1.2,2.183 -1.8,3.25Z" style="fill:#f00;"/><path d="M43.7,45.65l0.7,0l0,-0.05c-0.217,0.029 -0.45,0.046 -0.7,0.05Z" style="fill:#f00;"/><path d="M33.254,51.497l-4.7,3.5c-0.664,0.494 -0.802,1.435 -0.307,2.099c0.494,0.664 1.435,0.802 2.099,0.307l4.7,-3.5c0.664,-0.494 0.802,-1.435 0.307,-2.099c-0.494,-0.664 -1.435,-0.802 -2.099,-0.307Z"/><path d="M49.104,14.947l-4.7,3.5c-0.664,0.494 -0.802,1.435 -0.307,2.099c0.494,0.664 1.435,0.802 2.099,0.307l4.7,-3.5c0.664,-0.494 0.802,-1.435 0.307,-2.099c-0.494,-0.664 -1.435,-0.802 -2.099,-0.307Z"/></g></svg>