<?xml version="1.0" encoding="UTF-8" standalone="no"?><!DOCTYPE svg PUBLIC "-//W3C//DTD SVG 1.1//EN" "http://www.w3.org/Graphics/SVG/1.1/DTD/svg11.dtd"><svg width="100%" height="100%" viewBox="0 0 73 70" version="1.1" xmlns="http://www.w3.org/2000/svg" xmlns:xlink="http://www.w3.org/1999/xlink" xml:space="preserve" xmlns:serif="http://www.serif.com/" style="fill-rule:evenodd;clip-rule:evenodd;stroke-linejoin:round;stroke-miterlimit:2;"><g><path d="M6.65,43.55c-0,-1.333 0.25,-2.867 0.75,-4.6c-0.767,0.4 -1.433,1.483 -2,3.25c-0.5,1.567 -0.75,2.933 -0.75,4.1c-0,2.233 0.783,3.9 2.35,5c1.3,0.9 2.983,1.35 5.05,1.35c2,-0 4.15,-0.533 6.45,-1.6c2.567,-1.133 4.383,-2.533 5.45,-4.2c0.7,1.467 1.2,2.433 1.5,2.9c0.8,1.2 1.583,1.8 2.35,1.8l3,-0l-0,-0.05c2.056,-0.086 3.573,-0.602 4.55,-1.55c1.167,-1.167 1.75,-3.167 1.75,-6c0,-0.8 -0.3,-2.6 -0.9,-5.4c-0.633,1.733 -1.15,3.017 -1.55,3.85c0.6,1.367 0.983,2.35 1.15,2.95c-0.615,0.892 -2.282,1.342 -5,1.35l-2.4,0c-0.9,-0.167 -1.55,-0.6 -1.95,-1.3c-0.933,-1.633 -1.4,-9.35 -1.4,-23.15c-0.433,0.4 -0.933,1.05 -1.5,1.95c-0.667,1.033 -0.983,1.767 -0.95,2.2c0.2,2.733 0.4,5.45 0.6,8.15c0.233,3.3 0.35,6.017 0.35,8.15c-0,1.4 -1.15,2.733 -3.45,4c-2,1.1 -3.7,1.65 -5.1,1.65c-5.567,0 -8.35,-1.6 -8.35,-4.8Z"/><path d="M44.25,22.65c-0.433,0.5 -0.85,0.983 -1.25,1.45c-0.333,0.5 -0.5,1.15 -0.5,1.95c0,6.533 0.033,10.717 0.1,12.55c0.233,6.3 0.783,10.1 1.65,11.4c0.7,1.033 1.683,1.55 2.95,1.55l6.35,-0c1.9,-0 3.467,-0.833 4.7,-2.5c1.167,-1.6 1.75,-3.517 1.75,-5.75c-0,-1.6 -0.4,-3.05 -1.2,-4.35c-0.6,-1 -1.55,-2.017 -2.85,-3.05c-1.1,-0.833 -2.217,-1.683 -3.35,-2.55c0.867,-1 2.883,-2.417 6.05,-4.25c0.6,-0.333 2.867,-1.55 6.8,-3.65l0.7,-4.05c-2.6,0.6 -5.683,2.217 -9.25,4.85c-4.1,3.067 -6.15,5.833 -6.15,8.3c-0,1.433 0.633,2.683 1.9,3.75c1.2,0.8 2.4,1.617 3.6,2.45c1.267,0.967 1.9,2.067 1.9,3.3c-0,1.833 -2.2,2.75 -6.6,2.75c-0.308,-0 -0.641,-0.017 -1,-0.05l-0,-0.05c-2.733,0 -4.5,-0.617 -5.3,-1.85c-0.667,-1.033 -1,-3.217 -1,-6.55l-0,-15.65Z"/><path d="M18.15,33.8c-0,-0.3 -0.117,-0.617 -0.35,-0.95c-0.233,-0.3 -0.483,-0.45 -0.75,-0.45c-0.533,-0 -1.333,0.95 -2.4,2.85c-1,1.833 -1.5,3.083 -1.5,3.75c-0,0.667 0.467,1.017 1.4,1.05c1.167,-0 1.933,0.233 2.3,0.7c-0.867,1 -1.8,1.5 -2.8,1.5c-0.467,0 -1.017,-0.067 -1.65,-0.2c0.4,0.6 0.717,0.983 0.95,1.15c0.3,0.2 0.767,0.3 1.4,0.3c0.967,0 1.733,-0.267 2.3,-0.8c0.633,-0.567 0.95,-1.4 0.95,-2.5c0,-1.067 -0.583,-1.733 -1.75,-2c-1.133,-0.267 -1.7,-0.5 -1.7,-0.7c-0,-0.367 0.2,-0.783 0.6,-1.25c0.433,-0.5 0.817,-0.75 1.15,-0.75c0.233,0 0.483,0.117 0.75,0.35c0.733,-0.433 1.1,-1.117 1.1,-2.05Z"/><path d="M36.3,32.45l-2.5,-2.9l-2.45,2.9l2.45,2.75l2.5,-2.75Z"/><path d="M31.2,25.4c0.2,0.333 0.467,0.5 0.8,0.5c0.267,-0 0.533,-0.117 0.8,-0.35c0.267,-0.233 0.417,-0.517 0.45,-0.85c0.233,0.2 0.483,0.3 0.75,0.3c0.867,0 1.3,-0.783 1.3,-2.35c-0,-0.4 -0.067,-0.85 -0.2,-1.35l-0.25,0.15c0,1.367 -0.283,2.05 -0.85,2.05c-0.267,0 -0.483,-0.45 -0.65,-1.35l-0.25,0.05c-0.1,0.7 -0.2,1.167 -0.3,1.4c-0.167,0.567 -0.433,0.85 -0.8,0.85c-0.3,0 -0.45,-0.5 -0.45,-1.5l-0.3,0.05c-0.167,0.7 -0.25,1.15 -0.25,1.35c0,0.433 0.067,0.783 0.2,1.05Z"/><path d="M44.854,14.147l-4.7,3.5c-0.664,0.494 -0.802,1.435 -0.307,2.099c0.494,0.664 1.435,0.802 2.099,0.307l4.7,-3.5c0.664,-0.494 0.802,-1.435 0.307,-2.099c-0.494,-0.664 -1.435,-0.802 -2.099,-0.307Z"/><path d="M57.71,14.142l-4.75,3.5c-0.666,0.492 -0.809,1.431 -0.318,2.098c0.492,0.666 1.431,0.809 2.098,0.318l4.75,-3.5c0.666,-0.492 0.809,-1.431 0.318,-2.098c-0.492,-0.666 -1.431,-0.809 -2.098,-0.318Z"/><path d="M17.71,13.342l-4.75,3.5c-0.666,0.492 -0.809,1.431 -0.318,2.098c0.492,0.666 1.431,0.809 2.098,0.318l4.75,-3.5c0.666,-0.492 0.809,-1.431 0.318,-2.098c-0.492,-0.666 -1.431,-0.809 -2.098,-0.318Z"/><path d="M34.404,12.597l-4.7,3.5c-0.664,0.494 -0.802,1.435 -0.307,2.099c0.494,0.664 1.435,0.802 2.099,0.307l4.7,-3.5c0.664,-0.494 0.802,-1.435 0.307,-2.099c-0.494,-0.664 -1.435,-0.802 -2.099,-0.307Z"/></g></svg>