<?xml version="1.0" encoding="UTF-8" standalone="no"?><!DOCTYPE svg PUBLIC "-//W3C//DTD SVG 1.1//EN" "http://www.w3.org/Graphics/SVG/1.1/DTD/svg11.dtd"><svg width="100%" height="100%" viewBox="0 0 74 64" version="1.1" xmlns="http://www.w3.org/2000/svg" xmlns:xlink="http://www.w3.org/1999/xlink" xml:space="preserve" xmlns:serif="http://www.serif.com/" style="fill-rule:evenodd;clip-rule:evenodd;stroke-linejoin:round;stroke-miterlimit:2;"><g><path d="M66.65,18.3l0.7,-4.05c-2.6,0.6 -5.683,2.217 -9.25,4.85c-4.1,3.067 -6.15,5.833 -6.15,8.3c0,1.433 0.633,2.683 1.9,3.75c1.2,0.8 2.4,1.617 3.6,2.45c1.267,0.967 1.9,2.067 1.9,3.3c0,1.833 -2.2,2.75 -6.6,2.75l-0.6,-0l-0,-0.1c-0.305,0 -0.672,0.017 -1.1,0.05l-0.15,0c-0.503,-0.033 -0.77,-0.05 -0.8,-0.05l0,0.1c-0.033,-0.002 -0.066,-0.002 -0.1,-0c-0.9,0.067 -1.517,0.1 -1.85,0.1c-1.1,0 -1.883,-0.25 -2.35,-0.75c-0.567,-0.633 -0.867,-1.783 -0.9,-3.45c-1,1.867 -1.683,3 -2.05,3.4c-0.5,0.467 -1.233,0.7 -2.2,0.7c-0.233,-0 -0.8,-0.017 -1.7,-0.05c-0.084,-0.003 -0.167,-0.003 -0.25,0l0,-0.05l-2.2,0l0,0.1c-0.752,0.033 -1.268,0.05 -1.55,0.05c-1.1,-0 -1.883,-0.25 -2.35,-0.75c-0.533,-0.6 -0.833,-1.733 -0.9,-3.4c-1,1.9 -1.667,3.033 -2,3.4c-0.467,0.467 -1.217,0.7 -2.25,0.7c-0.2,-0 -0.717,-0.017 -1.55,-0.05c-0.276,-0.011 -0.543,-0.028 -0.8,-0.05c-1.5,0 -2.35,-0.033 -2.55,-0.1c-0.667,-0.133 -1.367,-0.617 -2.1,-1.45c-0.167,1.2 -0.417,2.25 -0.75,3.15c0.033,0.067 0.367,0.7 1,1.9c0.567,1 0.85,1.55 0.85,1.65c-0,1.133 -1.1,2.6 -3.3,4.4c-2.1,1.733 -3.7,2.6 -4.8,2.6c-0.467,-0 -1.1,-0.117 -1.9,-0.35c-0.633,-0.167 -1.267,-0.35 -1.9,-0.55c0.833,1.1 1.783,1.983 2.85,2.65c1.233,0.8 2.383,1.2 3.45,1.2c1.5,-0 3.017,-1.25 4.55,-3.75c1.367,-2.233 2.15,-4.317 2.35,-6.25c0.212,-0.151 0.478,-0.235 0.8,-0.25l3.75,-0c0.833,-0 1.5,-0.35 2,-1.05c0.067,-0.1 0.467,-0.85 1.2,-2.25c0.367,0.7 0.883,1.4 1.55,2.1c0.8,0.8 1.483,1.2 2.05,1.2l6.35,-0c0.833,-0 1.5,-0.35 2,-1.05c0.1,-0.1 0.5,-0.85 1.2,-2.25c0.367,0.7 0.883,1.4 1.55,2.1c0.8,0.8 1.483,1.2 2.05,1.2l7.4,-0c1.9,-0 3.467,-0.833 4.7,-2.5c1.167,-1.6 1.75,-3.517 1.75,-5.75c0,-1.6 -0.4,-3.05 -1.2,-4.35c-0.6,-1 -1.55,-2.017 -2.85,-3.05c-1.1,-0.833 -2.217,-1.683 -3.35,-2.55c0.867,-1 2.883,-2.417 6.05,-4.25c0.6,-0.333 2.867,-1.55 6.8,-3.65Z"/><path d="M33.5,49l-2.15,2.5l-2.15,-2.5l-2.2,2.45l2.2,2.5l2.1,-2.45l2.15,2.45l2.25,-2.5l-2.2,-2.45Z"/><path d="M9.6,14.7c-1.5,2.233 -2.25,3.583 -2.25,4.05l0.55,25.7c1.233,-1.167 1.85,-4.283 1.85,-9.35l-0.15,-20.4Z"/><path d="M41.85,23.9l-2.15,2.4l2.2,2.5l2.1,-2.45l-2.15,-2.45Z"/><path d="M46.15,23.9l-2.15,2.45l2.15,2.45l2.2,-2.5l-2.2,-2.4Z"/><path d="M46.3,21.15l-2.15,-2.45l-2.15,2.45l2.15,2.55l2.15,-2.55Z"/><path d="M45.304,51.747l-4.7,3.5c-0.664,0.494 -0.802,1.435 -0.307,2.099c0.494,0.664 1.435,0.802 2.099,0.307l4.7,-3.5c0.664,-0.494 0.802,-1.435 0.307,-2.099c-0.494,-0.664 -1.435,-0.802 -2.099,-0.307Z"/><path d="M13.682,14.29c-0.398,-0.045 -0.777,-0.248 -1.035,-0.594c-0.495,-0.664 -0.357,-1.605 0.307,-2.099l4.7,-3.5c0.664,-0.495 1.605,-0.357 2.099,0.307c0.495,0.664 0.357,1.605 -0.307,2.099l-0.071,0.053c0.416,0.034 0.816,0.242 1.083,0.604c0.491,0.667 0.348,1.606 -0.318,2.098l-4.75,3.5c-0.667,0.491 -1.606,0.348 -2.098,-0.318c-0.491,-0.667 -0.348,-1.606 0.318,-2.098l0.072,-0.052Z"/><path d="M56.454,8.147l-4.7,3.5c-0.664,0.494 -0.802,1.435 -0.307,2.099c0.494,0.664 1.435,0.802 2.099,0.307l4.7,-3.5c0.664,-0.494 0.802,-1.435 0.307,-2.099c-0.494,-0.664 -1.435,-0.802 -2.099,-0.307Z"/></g></svg>