<?xml version="1.0" encoding="UTF-8" standalone="no"?><!DOCTYPE svg PUBLIC "-//W3C//DTD SVG 1.1//EN" "http://www.w3.org/Graphics/SVG/1.1/DTD/svg11.dtd"><svg width="100%" height="100%" viewBox="0 0 80 78" version="1.1" xmlns="http://www.w3.org/2000/svg" xmlns:xlink="http://www.w3.org/1999/xlink" xml:space="preserve" xmlns:serif="http://www.serif.com/" style="fill-rule:evenodd;clip-rule:evenodd;stroke-linejoin:round;stroke-miterlimit:2;"><g><path d="M38.65,18.05c0.033,0.2 -0.017,0.5 -0.15,0.9c-0.1,0.367 -0.15,0.633 -0.15,0.8c0,0.567 0.333,1.217 1,1.95c0.633,0.733 0.95,1.217 0.95,1.45c-0,0.6 -0.2,1.367 -0.6,2.3c-0.4,0.933 -0.6,1.6 -0.6,2c0,0.833 0.083,2.05 0.25,3.65c0.133,1.633 0.2,2.867 0.2,3.7l-0,4.5c-0,2.133 -0.267,3.917 -0.8,5.35c-0.7,2 -1.85,3 -3.45,3l-4.45,0c-0.767,0 -1.55,-0.6 -2.35,-1.8c-0.3,-0.467 -0.8,-1.433 -1.5,-2.9c-1.067,1.667 -2.883,3.067 -5.45,4.2c-2.3,1.067 -4.45,1.6 -6.45,1.6c-2.067,-0 -3.75,-0.45 -5.05,-1.35c-1.567,-1.1 -2.35,-2.767 -2.35,-5c0,-1.167 0.25,-2.533 0.75,-4.1c0.567,-1.767 1.233,-2.85 2,-3.25c-0.5,1.733 -0.75,3.267 -0.75,4.6c0,3.2 2.783,4.8 8.35,4.8c1.4,-0 3.1,-0.55 5.1,-1.65c2.3,-1.267 3.45,-2.6 3.45,-4c0,-2.133 -0.117,-4.85 -0.35,-8.15c-0.2,-2.7 -0.4,-5.417 -0.6,-8.15c-0.033,-0.433 0.283,-1.167 0.95,-2.2c0.567,-0.9 1.067,-1.55 1.5,-1.95c0,13.8 0.467,21.517 1.4,23.15c0.4,0.7 1.05,1.133 1.95,1.3l2.4,0l0,0.05l0.5,-0c2.233,0.067 3.35,-0.583 3.35,-1.95c0,-7.1 -0.25,-12.417 -0.75,-15.95c-0.767,-1 -1.2,-1.817 -1.3,-2.45c0.733,-2.367 1.733,-4.033 3,-5l-0,0.55Z"/><path d="M53.45,31.2l1.5,9.25c-0.6,0.867 -1.583,1.583 -2.95,2.15c-1.267,0.5 -2.433,0.75 -3.5,0.75c-1.133,-0 -2.183,-0.567 -3.15,-1.7l0,4.9c0,1 0.933,1.5 2.8,1.5c2.067,0 3.55,-0.4 4.45,-1.2c0.4,-0.367 1.317,-1.75 2.75,-4.15c0.3,1.033 0.583,2.067 0.85,3.1c0.5,1.233 1.133,1.85 1.9,1.85l5.6,0c1.9,0 3.467,-0.833 4.7,-2.5c1.167,-1.6 1.75,-3.517 1.75,-5.75c-0,-1.6 -0.4,-3.05 -1.2,-4.35c-0.6,-1 -1.55,-2.017 -2.85,-3.05c-1.1,-0.833 -2.217,-1.683 -3.35,-2.55c0.867,-1 2.883,-2.417 6.05,-4.25c0.6,-0.333 2.867,-1.55 6.8,-3.65l0.7,-4.05c-2.6,0.6 -5.683,2.217 -9.25,4.85c-4.1,3.067 -6.15,5.833 -6.15,8.3c-0,1.433 0.633,2.683 1.9,3.75c1.2,0.8 2.4,1.617 3.6,2.45c1.267,0.967 1.9,2.067 1.9,3.3c-0,1.833 -2.2,2.75 -6.6,2.75c-0.336,0 -0.703,-0.017 -1.1,-0.05l0,-0.05c-0.211,0.018 -0.411,0.035 -0.6,0.05l-0.15,-0c-0.502,-0.033 -0.769,-0.05 -0.8,-0.05c-0.333,-0.009 -0.583,-0.059 -0.75,-0.15c-0.667,-0.333 -1.467,-2.767 -2.4,-7.3c-0.467,-2.233 -0.967,-5.033 -1.5,-8.4c-0.633,2.667 -0.95,4.083 -0.95,4.25Z"/><path d="M21.2,29.9c0,-0.3 -0.117,-0.617 -0.35,-0.95c-0.233,-0.3 -0.483,-0.45 -0.75,-0.45c-0.533,-0 -1.333,0.95 -2.4,2.85c-1,1.833 -1.5,3.083 -1.5,3.75c0,0.667 0.467,1.017 1.4,1.05c1.167,0 1.933,0.233 2.3,0.7c-0.867,1 -1.8,1.5 -2.8,1.5c-0.467,-0 -1.017,-0.067 -1.65,-0.2c0.4,0.6 0.717,0.983 0.95,1.15c0.3,0.2 0.767,0.3 1.4,0.3c0.967,-0 1.733,-0.267 2.3,-0.8c0.633,-0.567 0.95,-1.4 0.95,-2.5c-0,-1.067 -0.583,-1.733 -1.75,-2c-1.133,-0.267 -1.7,-0.5 -1.7,-0.7c0,-0.367 0.2,-0.783 0.6,-1.25c0.433,-0.5 0.817,-0.75 1.15,-0.75c0.233,-0 0.483,0.117 0.75,0.35c0.733,-0.433 1.1,-1.117 1.1,-2.05Z"/><path d="M54.05,24.6l2.45,-2.8l-2.45,-2.85l-2.5,2.85l2.5,2.8Z"/><path d="M49.3,14.7c-0,-0.6 -0.183,-1.5 -0.55,-2.7c-0.333,-1.167 -0.5,-2.033 -0.5,-2.6c-0.767,0.533 -1.15,1.033 -1.15,1.5c0,0.533 0.183,1.317 0.55,2.35c0.367,1.067 0.55,1.867 0.55,2.4c0,0.333 -0.05,0.633 -0.15,0.9c0.833,-0.467 1.25,-1.083 1.25,-1.85Z"/><path d="M38.604,50.347l-4.7,3.5c-0.664,0.494 -0.802,1.435 -0.307,2.099c0.494,0.664 1.435,0.802 2.099,0.307l4.7,-3.5c0.664,-0.494 0.802,-1.435 0.307,-2.099c-0.494,-0.664 -1.435,-0.802 -2.099,-0.307Z"/><path d="M18.86,12.542l-4.75,3.5c-0.666,0.492 -0.809,1.431 -0.318,2.098c0.492,0.666 1.431,0.809 2.098,0.318l4.75,-3.5c0.666,-0.492 0.809,-1.431 0.318,-2.098c-0.492,-0.666 -1.431,-0.809 -2.098,-0.318Z"/><path d="M67.46,10.292l-4.75,3.5c-0.666,0.492 -0.809,1.431 -0.318,2.098c0.492,0.666 1.431,0.809 2.098,0.318l4.75,-3.5c0.666,-0.492 0.809,-1.431 0.318,-2.098c-0.492,-0.666 -1.431,-0.809 -2.098,-0.318Z"/></g></svg>