<?xml version="1.0" encoding="UTF-8" standalone="no"?><!DOCTYPE svg PUBLIC "-//W3C//DTD SVG 1.1//EN" "http://www.w3.org/Graphics/SVG/1.1/DTD/svg11.dtd"><svg width="100%" height="100%" viewBox="0 0 33 72" version="1.1" xmlns="http://www.w3.org/2000/svg" xmlns:xlink="http://www.w3.org/1999/xlink" xml:space="preserve" xmlns:serif="http://www.serif.com/" style="fill-rule:evenodd;clip-rule:evenodd;stroke-linejoin:round;stroke-miterlimit:2;"><g><path d="M21.6,24.3c0,-0.5 0.05,-1.117 0.15,-1.85c-1.233,1.167 -2.1,2.833 -2.6,5c0.067,0.267 0.283,0.717 0.65,1.35c0.333,0.533 0.5,0.9 0.5,1.1c-0,0.833 -0.183,2.5 -0.55,5c-0.367,2.633 -0.667,4.183 -0.9,4.65c-3.333,-5.4 -5.167,-8.35 -5.5,-8.85c-2.933,-4.2 -5.15,-6.3 -6.65,-6.3c-0.533,-0 -0.967,0.283 -1.3,0.85c-0.3,0.5 -0.45,1.1 -0.45,1.8c0,1.167 0.333,2.267 1,3.3c0.7,1.167 1.533,1.75 2.5,1.75c0.467,0 0.8,-0.1 1,-0.3c0.367,-0.333 0.6,-0.533 0.7,-0.6c0.733,0.533 2.1,2.25 4.1,5.15c1.533,2.2 2.767,4.083 3.7,5.65c-0.367,0.8 -0.95,1.75 -1.75,2.85c-0.9,1.233 -1.617,2.033 -2.15,2.4l-1.65,-0.65l-0,4.6c1.1,0.4 2.567,0.6 4.4,0.6c1.667,-0 2.75,-0.267 3.25,-0.8c0.567,-0.567 0.85,-1.817 0.85,-3.75c-0,-2.433 -0.433,-4.35 -1.3,-5.75c0.367,-1.2 0.7,-3 1,-5.4c0.267,-2.4 0.55,-4.083 0.85,-5.05l0.3,0.35c0.533,-0.333 0.95,-0.967 1.25,-1.9c0.1,-0.233 0.3,-1.017 0.6,-2.35c-1.333,-0.733 -2,-1.683 -2,-2.85Z"/><path d="M19.6,46.2l-0.15,0.85c-1.8,0.133 -2.85,0.2 -3.15,0.2c1.2,-1.267 2,-2.467 2.4,-3.6c0.033,0.133 0.2,0.6 0.5,1.4c0.267,0.733 0.4,1.117 0.4,1.15Z"/><path d="M16.56,14.092l-4.75,3.5c-0.666,0.492 -0.809,1.431 -0.318,2.098c0.492,0.666 1.431,0.809 2.098,0.318l4.75,-3.5c0.666,-0.492 0.809,-1.431 0.318,-2.098c-0.492,-0.666 -1.431,-0.809 -2.098,-0.318Z"/></g></svg>