<?xml version="1.0" encoding="UTF-8" standalone="no"?><!DOCTYPE svg PUBLIC "-//W3C//DTD SVG 1.1//EN" "http://www.w3.org/Graphics/SVG/1.1/DTD/svg11.dtd"><svg width="100%" height="100%" viewBox="0 0 67 64" version="1.1" xmlns="http://www.w3.org/2000/svg" xmlns:xlink="http://www.w3.org/1999/xlink" xml:space="preserve" xmlns:serif="http://www.serif.com/" style="fill-rule:evenodd;clip-rule:evenodd;stroke-linejoin:round;stroke-miterlimit:2;"><g><path d="M6.35,17.75c-0.333,0.5 -0.5,1.15 -0.5,1.95c-0,6.533 0.033,10.717 0.1,12.55c0.233,6.3 0.783,10.1 1.65,11.4c0.7,1.033 1.683,1.55 2.95,1.55l1.45,-0l0,-4.85c0.402,0 0.769,-0.017 1.1,-0.05c-2.279,-0.089 -3.779,-0.689 -4.5,-1.8c-0.667,-1.033 -1,-3.217 -1,-6.55l-0,-15.65c-0.433,0.5 -0.85,0.983 -1.25,1.45Z"/><path d="M38.45,16.3c-0.433,0.5 -0.85,0.983 -1.25,1.45c-0.333,0.5 -0.5,1.15 -0.5,1.95c0,6.533 0.033,10.717 0.1,12.55c0.233,6.3 0.783,10.1 1.65,11.4c0.7,1.033 1.683,1.55 2.95,1.55l3.35,-0l-0,-0.05c2.107,-0.07 3.657,-0.587 4.65,-1.55c1.167,-1.167 1.75,-3.167 1.75,-6c0,-0.8 -0.3,-2.6 -0.9,-5.4c-0.633,1.733 -1.15,3.017 -1.55,3.85c0.6,1.367 0.983,2.35 1.15,2.95c-0.623,0.903 -2.323,1.353 -5.1,1.35c-2.733,0 -4.5,-0.617 -5.3,-1.85c-0.667,-1.033 -1,-3.217 -1,-6.55l0,-15.65Z"/><path d="M47.85,23.2l-2.45,2.9l2.45,2.75l2.5,-2.75l-2.5,-2.9Z"/><path d="M30.6,39.25l-0.25,0.75c-0.333,0.167 -0.633,0.25 -0.9,0.25c-2,0 -3,-0.717 -3,-2.15c0,-0.3 0.033,-0.683 0.1,-1.15c0.067,-0.567 0.1,-0.95 0.1,-1.15c-0.733,1.167 -1.483,2.317 -2.25,3.45c-0.867,1.133 -2,1.7 -3.4,1.7c-1.033,-0 -1.75,-0.2 -2.15,-0.6c-0.367,-0.267 -0.583,-0.783 -0.65,-1.55c-0.1,-0.767 -0.183,-1.55 -0.25,-2.35c-1.067,2.033 -1.767,3.167 -2.1,3.4c-0.377,0.27 -1.294,0.42 -2.75,0.45c-0.331,0.033 -0.698,0.05 -1.1,0.05l-0,4.85l2.6,-0c0.4,-0 1.2,-0.567 2.4,-1.7c0.667,0.367 1.317,0.733 1.95,1.1c0.8,0.4 1.517,0.6 2.15,0.6c1.467,-0 2.9,-0.783 4.3,-2.35c0.533,0.367 1.083,0.75 1.65,1.15c0.767,0.533 1.317,0.8 1.65,0.8c1.067,0 1.883,-1.183 2.45,-3.55c0.4,-1.633 0.6,-3.317 0.6,-5.05c-0,-0.3 -0.15,-1 -0.45,-2.1c-0.633,1.433 -1.067,2.45 -1.3,3.05c0.4,1.133 0.6,1.833 0.6,2.1Z" style="fill:#f00;"/><path d="M13.725,15.094c-0.416,-0.034 -0.816,-0.242 -1.083,-0.604c-0.491,-0.667 -0.348,-1.606 0.318,-2.098l4.75,-3.5c0.667,-0.491 1.606,-0.348 2.098,0.318c0.491,0.667 0.348,1.606 -0.318,2.098l-0.072,0.052c0.398,0.045 0.777,0.248 1.035,0.594c0.495,0.664 0.357,1.605 -0.307,2.099l-4.7,3.5c-0.664,0.495 -1.605,0.357 -2.099,-0.307c-0.495,-0.664 -0.357,-1.605 0.307,-2.099l0.071,-0.053Z"/><path d="M46.704,8.947l-4.7,3.5c-0.664,0.494 -0.802,1.435 -0.307,2.099c0.494,0.664 1.435,0.802 2.099,0.307l4.7,-3.5c0.664,-0.494 0.802,-1.435 0.307,-2.099c-0.494,-0.664 -1.435,-0.802 -2.099,-0.307Z"/></g></svg>