<?xml version="1.0" encoding="UTF-8" standalone="no"?><!DOCTYPE svg PUBLIC "-//W3C//DTD SVG 1.1//EN" "http://www.w3.org/Graphics/SVG/1.1/DTD/svg11.dtd"><svg width="100%" height="100%" viewBox="0 0 52 75" version="1.1" xmlns="http://www.w3.org/2000/svg" xmlns:xlink="http://www.w3.org/1999/xlink" xml:space="preserve" xmlns:serif="http://www.serif.com/" style="fill-rule:evenodd;clip-rule:evenodd;stroke-linejoin:round;stroke-miterlimit:2;"><g><path d="M18.3,53.7l-2.5,-2.85l-2.45,2.85l2.45,2.8l2.5,-2.8Z"/><path d="M43.9,41.85c0,-1.367 -0.25,-2.567 -0.75,-3.6c-0.367,-0.733 -1.05,-1.7 -2.05,-2.9l-0.95,4.05c0.533,0.7 1.067,1.383 1.6,2.05c0.667,1 1,1.75 1,2.25c0,2.567 -1.617,4.783 -4.85,6.65c-2.767,1.567 -5.417,2.35 -7.95,2.35c2.033,1.567 4.05,2.35 6.05,2.35c2.267,0 4.2,-1.583 5.8,-4.75c1.4,-2.767 2.1,-5.583 2.1,-8.45Z"/><path d="M16.3,42.05c-2.167,0 -4.133,-0.333 -5.9,-1c-2.533,-0.9 -3.8,-2.3 -3.8,-4.2c-0,-0.867 0.283,-2.117 0.85,-3.75c-1.833,2 -2.75,3.967 -2.75,5.9c0,4.733 3.267,7.1 9.8,7.1c10.6,-0 15.9,-3.383 15.9,-10.15c0,-2.533 -0.733,-4.367 -2.2,-5.5c-0.2,1.133 -0.65,2.7 -1.35,4.7c1.233,1.067 1.85,2.2 1.85,3.4c-0.833,1.067 -2.783,1.95 -5.85,2.65c-2.5,0.567 -4.683,0.85 -6.55,0.85Z"/><path d="M18.2,26.8c0,-0.4 -0.067,-0.85 -0.2,-1.35l-0.25,0.15c0,1.367 -0.283,2.05 -0.85,2.05c-0.267,0 -0.483,-0.45 -0.65,-1.35l-0.25,0.05c-0.1,0.7 -0.2,1.167 -0.3,1.4c-0.167,0.567 -0.433,0.85 -0.8,0.85c-0.3,-0 -0.45,-0.5 -0.45,-1.5l-0.3,0.05c-0.167,0.7 -0.25,1.15 -0.25,1.35c0,0.433 0.067,0.783 0.2,1.05c0.2,0.333 0.467,0.5 0.8,0.5c0.267,0 0.533,-0.117 0.8,-0.35c0.267,-0.233 0.417,-0.517 0.45,-0.85c0.233,0.2 0.483,0.3 0.75,0.3c0.867,0 1.3,-0.783 1.3,-2.35Z"/><path d="M17.604,58.547l-4.7,3.5c-0.664,0.494 -0.802,1.435 -0.307,2.099c0.494,0.664 1.435,0.802 2.099,0.307l4.7,-3.5c0.664,-0.494 0.802,-1.435 0.307,-2.099c-0.494,-0.664 -1.435,-0.802 -2.099,-0.307Z"/><path d="M41.26,20.042l-4.75,3.5c-0.666,0.492 -0.809,1.431 -0.318,2.098c0.492,0.666 1.431,0.809 2.098,0.318l4.75,-3.5c0.666,-0.492 0.809,-1.431 0.318,-2.098c-0.492,-0.666 -1.431,-0.809 -2.098,-0.318Z"/></g></svg>