<?xml version="1.0" encoding="UTF-8" standalone="no"?><!DOCTYPE svg PUBLIC "-//W3C//DTD SVG 1.1//EN" "http://www.w3.org/Graphics/SVG/1.1/DTD/svg11.dtd"><svg width="100%" height="100%" viewBox="0 0 83 70" version="1.1" xmlns="http://www.w3.org/2000/svg" xmlns:xlink="http://www.w3.org/1999/xlink" xml:space="preserve" xmlns:serif="http://www.serif.com/" style="fill-rule:evenodd;clip-rule:evenodd;stroke-linejoin:round;stroke-miterlimit:2;"><g><path d="M28.25,58.8l2.25,-2.5l-2.2,-2.45l-2.15,2.5l-2.15,-2.5l-2.2,2.45l2.2,2.5l2.1,-2.45l2.15,2.45Z"/><path d="M62.05,53.9c1.4,-2.767 2.1,-5.583 2.1,-8.45c-0,-1.367 -0.25,-2.567 -0.75,-3.6c-0.367,-0.733 -1.05,-1.7 -2.05,-2.9l-0.95,4.05c0.533,0.7 1.067,1.383 1.6,2.05c0.667,1 1,1.75 1,2.25c-0,2.567 -1.617,4.783 -4.85,6.65c-2.767,1.567 -5.417,2.35 -7.95,2.35c2.033,1.567 4.05,2.35 6.05,2.35c2.267,-0 4.2,-1.583 5.8,-4.75Z"/><path d="M13.95,28.55c-0.633,2.667 -0.95,4.083 -0.95,4.25l1.5,9.25c-0.6,0.867 -1.583,1.583 -2.95,2.15c-1.267,0.5 -2.433,0.75 -3.5,0.75c-1.133,0 -2.183,-0.567 -3.15,-1.7l-0,4.9c-0,1 0.933,1.5 2.8,1.5c2.067,-0 3.55,-0.4 4.45,-1.2c0.4,-0.367 1.317,-1.75 2.75,-4.15c0.3,1.033 0.583,2.067 0.85,3.1c0.5,1.233 1.133,1.85 1.9,1.85l4.55,0c0.833,0 1.5,-0.35 2,-1.05c0.067,-0.1 0.467,-0.85 1.2,-2.25c0.367,0.7 0.883,1.4 1.55,2.1c0.8,0.8 1.483,1.2 2.05,1.2l4.5,0l0,-4.85c-0.533,-0 -1.217,0.033 -2.05,0.1c-0.068,0.003 -0.135,0.003 -0.2,0c-0.725,0.033 -1.225,0.05 -1.5,0.05c-1.1,-0 -1.883,-0.25 -2.35,-0.75c-0.533,-0.6 -0.833,-1.733 -0.9,-3.4c-1,1.9 -1.667,3.033 -2,3.4c-0.467,0.467 -1.217,0.7 -2.25,0.7c-0.2,0 -0.717,-0.017 -1.55,-0.05c-0.188,-0.008 -0.371,-0.024 -0.55,-0.05l-1.7,-0c-0.259,-0.023 -0.459,-0.073 -0.6,-0.15c-0.667,-0.333 -1.467,-2.767 -2.4,-7.3c-0.467,-2.233 -0.967,-5.033 -1.5,-8.4Z"/><path d="M7.9,18.15c-0.5,-0 -0.917,0.267 -1.25,0.8c-0.267,0.467 -0.4,0.983 -0.4,1.55c0,0.3 0.067,0.65 0.2,1.05c0.133,-1.067 0.45,-1.6 0.95,-1.6c0.3,0 0.533,0.133 0.7,0.4c0.167,0.233 0.25,0.5 0.25,0.8c0,0.433 -0.267,1.333 -0.8,2.7c1.033,-0.233 1.917,-0.583 2.65,-1.05c0.567,-0.4 1.267,-1.067 2.1,-2c0.367,0.333 0.95,0.75 1.75,1.25c0.033,-0.833 0.05,-1.283 0.05,-1.35c0,-0.5 -0.25,-0.967 -0.75,-1.4c0.433,-1.033 0.65,-1.817 0.65,-2.35c0,-0.4 -0.133,-0.783 -0.4,-1.15c-0.3,-0.367 -0.617,-0.55 -0.95,-0.55c-0.6,0 -1.15,0.35 -1.65,1.05c-0.533,0.7 -0.8,1.383 -0.8,2.05c0,0.733 0.45,1.4 1.35,2c-0.867,0.933 -1.667,1.533 -2.4,1.8c0.067,-0.9 0.1,-1.45 0.1,-1.65c0,-1.567 -0.45,-2.35 -1.35,-2.35Zm4.7,-0.4l-0.05,0.85c-0.867,-0.6 -1.3,-1.083 -1.3,-1.45l0.2,-0.35c0.167,-0.1 0.283,-0.15 0.35,-0.15c0.533,-0 0.8,0.367 0.8,1.1Z"/><path d="M49.25,41.2c0.4,1.133 0.6,1.833 0.6,2.1l-0.25,0.75c-0.333,0.167 -0.633,0.25 -0.9,0.25c-2,-0 -3,-0.717 -3,-2.15c0,-0.3 0.033,-0.683 0.1,-1.15c0.067,-0.567 0.1,-0.95 0.1,-1.15c-0.733,1.167 -1.483,2.317 -2.25,3.45c-0.867,1.133 -2,1.7 -3.4,1.7c-1.033,-0 -1.75,-0.2 -2.15,-0.6c-0.367,-0.267 -0.583,-0.783 -0.65,-1.55c-0.1,-0.767 -0.183,-1.55 -0.25,-2.35c-1.067,2.033 -1.767,3.167 -2.1,3.4c-0.467,0.333 -1.75,0.5 -3.85,0.5l-0,0.1c0.065,0.003 0.132,0.003 0.2,-0c0.833,-0.067 1.517,-0.1 2.05,-0.1l-0,4.85l0.35,-0c0.4,-0 1.2,-0.567 2.4,-1.7c0.667,0.367 1.317,0.733 1.95,1.1c0.8,0.4 1.517,0.6 2.15,0.6c1.467,-0 2.9,-0.783 4.3,-2.35c0.533,0.367 1.083,0.75 1.65,1.15c0.767,0.533 1.317,0.8 1.65,0.8c1.067,0 1.883,-1.183 2.45,-3.55c0.4,-1.633 0.6,-3.317 0.6,-5.05c-0,-0.3 -0.15,-1 -0.45,-2.1c-0.633,1.433 -1.067,2.45 -1.3,3.05Z" style="fill:#f00;"/><path d="M46.15,29.1l-2.15,2.45l2.15,2.5l2.2,-2.55l-2.2,-2.4Z" style="fill:#f00;"/><path d="M44,31.55l-2.15,-2.45l-2.15,2.4l2.15,2.55l2.15,-2.5Z" style="fill:#f00;"/><path d="M42,26.35l2.1,2.55l2.2,-2.55l-2.2,-2.45l-2.1,2.45Z" style="fill:#f00;"/><path d="M45.454,55.047l-4.7,3.5c-0.664,0.494 -0.802,1.435 -0.307,2.099c0.494,0.664 1.435,0.802 2.099,0.307l4.7,-3.5c0.664,-0.494 0.802,-1.435 0.307,-2.099c-0.494,-0.664 -1.435,-0.802 -2.099,-0.307Z"/><path d="M61.01,17.292l-4.75,3.5c-0.666,0.492 -0.809,1.431 -0.318,2.098c0.492,0.666 1.431,0.809 2.098,0.318l4.75,-3.5c0.666,-0.492 0.809,-1.431 0.318,-2.098c-0.492,-0.666 -1.431,-0.809 -2.098,-0.318Z"/></g></svg>