<?xml version="1.0" encoding="UTF-8" standalone="no"?><!DOCTYPE svg PUBLIC "-//W3C//DTD SVG 1.1//EN" "http://www.w3.org/Graphics/SVG/1.1/DTD/svg11.dtd"><svg width="100%" height="100%" viewBox="0 0 88 70" version="1.1" xmlns="http://www.w3.org/2000/svg" xmlns:xlink="http://www.w3.org/1999/xlink" xml:space="preserve" xmlns:serif="http://www.serif.com/" style="fill-rule:evenodd;clip-rule:evenodd;stroke-linejoin:round;stroke-miterlimit:2;"><g><path d="M64.75,55.05c1.4,-2.767 2.1,-5.583 2.1,-8.45c0,-1.367 -0.25,-2.567 -0.75,-3.6c-0.367,-0.733 -1.05,-1.7 -2.05,-2.9l-0.95,4.05c0.533,0.7 1.067,1.383 1.6,2.05c0.667,1 1,1.75 1,2.25c0,2.567 -1.617,4.783 -4.85,6.65c-2.767,1.567 -5.417,2.35 -7.95,2.35c2.033,1.567 4.05,2.35 6.05,2.35c2.267,-0 4.2,-1.583 5.8,-4.75Z"/><path d="M16.1,20.25c-0.833,1.233 -1.533,3.05 -2.1,5.45c0.567,0.8 1.017,1.4 1.35,1.8c0.067,1.333 0.317,4.867 0.75,10.6c0.333,4.467 0.5,8.033 0.5,10.7c0,1.2 -0.717,2.167 -2.15,2.9c-1.167,0.533 -2.35,0.8 -3.55,0.8c-3.433,0 -5.15,-1.683 -5.15,-5.05c0,-0.133 0.167,-1.583 0.5,-4.35c-0.667,0.667 -1.2,1.85 -1.6,3.55c-0.333,1.4 -0.5,2.75 -0.5,4.05c-0,2.433 0.433,4.183 1.3,5.25c0.933,1.133 2.433,1.7 4.5,1.7c5.567,-0 8.35,-4.6 8.35,-13.8c-0,-4.633 -0.433,-9.5 -1.3,-14.6c0.467,-0.3 0.8,-0.967 1,-2c0.1,-0.867 0.2,-1.717 0.3,-2.55c-1.033,-0.133 -1.7,-0.65 -2,-1.55c-0.133,-0.5 -0.2,-1.467 -0.2,-2.9Z"/><path d="M27.5,43.7c-0.767,1.7 -1.15,3.083 -1.15,4.15c0,1.3 0.55,2.117 1.65,2.45c1,0.167 2,0.333 3,0.5c-1.167,2.067 -2.4,3.567 -3.7,4.5c-1.433,1.067 -3.133,1.6 -5.1,1.6c-1.033,-0 -2.55,-0.1 -4.55,-0.3c1.867,2.133 4.033,3.2 6.5,3.2c2.133,-0 3.95,-1.017 5.45,-3.05c1.033,-1.4 2.05,-3.517 3.05,-6.35l3.15,-0l-0,-4.7c-0.581,0.062 -1.181,0.079 -1.8,0.05c-0.376,0.004 -0.76,-0.012 -1.15,-0.05c-0.367,-0.967 -0.75,-1.917 -1.15,-2.85c-0.6,-1.267 -1.2,-1.9 -1.8,-1.9c-0.767,0 -1.567,0.917 -2.4,2.75Zm0.9,3.25c-0,-0.367 -0.067,-0.617 -0.2,-0.75c0.267,-0.567 0.517,-1.083 0.75,-1.55c0.633,0.333 1.05,0.633 1.25,0.9c0.133,0.267 0.267,0.817 0.4,1.65c-0.6,0 -1.333,-0.083 -2.2,-0.25Z"/><path d="M45.95,18.25c0,-1 -0.417,-1.5 -1.25,-1.5c-0.6,0 -1.117,0.35 -1.55,1.05c-0.433,0.633 -0.65,1.233 -0.65,1.8c-0,0.5 0.4,1.017 1.2,1.55c-1.4,1.167 -2.717,2.067 -3.95,2.7c0.433,0.133 0.783,0.2 1.05,0.2c1.033,-0 2.25,-0.817 3.65,-2.45c0.567,0.367 1.067,0.65 1.5,0.85l0.15,-1.7c-0.333,-0.233 -0.583,-0.4 -0.75,-0.5c0.4,-0.833 0.6,-1.5 0.6,-2Zm-1.15,1c-0,0.167 -0.033,0.35 -0.1,0.55c-0.833,-0.433 -1.25,-0.85 -1.25,-1.25c0.067,-0.167 0.183,-0.267 0.35,-0.3c0.667,0.1 1,0.433 1,1Z"/><path d="M11.3,11.75c-0.6,0 -1.15,0.35 -1.65,1.05c-0.533,0.7 -0.8,1.383 -0.8,2.05c0,0.733 0.45,1.4 1.35,2c-0.867,0.933 -1.667,1.533 -2.4,1.8c0.067,-0.9 0.1,-1.45 0.1,-1.65c-0,-1.567 -0.45,-2.35 -1.35,-2.35c-0.5,-0 -0.917,0.267 -1.25,0.8c-0.267,0.467 -0.4,0.983 -0.4,1.55c-0,0.3 0.067,0.65 0.2,1.05c0.133,-1.067 0.45,-1.6 0.95,-1.6c0.3,0 0.533,0.133 0.7,0.4c0.167,0.233 0.25,0.5 0.25,0.8c0,0.433 -0.267,1.333 -0.8,2.7c1.033,-0.233 1.917,-0.583 2.65,-1.05c0.567,-0.4 1.267,-1.067 2.1,-2c0.367,0.333 0.95,0.75 1.75,1.25c0.033,-0.833 0.05,-1.283 0.05,-1.35c0,-0.5 -0.25,-0.967 -0.75,-1.4c0.433,-1.033 0.65,-1.817 0.65,-2.35c-0,-0.4 -0.133,-0.783 -0.4,-1.15c-0.3,-0.367 -0.617,-0.55 -0.95,-0.55Zm-1.2,1.55c0.167,-0.1 0.283,-0.15 0.35,-0.15c0.533,-0 0.8,0.367 0.8,1.1l-0.05,0.85c-0.867,-0.6 -1.3,-1.083 -1.3,-1.45l0.2,-0.35Z"/><path d="M48.45,43.3c0,-0.3 0.033,-0.683 0.1,-1.15c0.067,-0.567 0.1,-0.95 0.1,-1.15c-0.733,1.167 -1.483,2.317 -2.25,3.45c-0.867,1.133 -2,1.7 -3.4,1.7c-1.033,-0 -1.75,-0.2 -2.15,-0.6c-0.367,-0.267 -0.583,-0.783 -0.65,-1.55c-0.1,-0.767 -0.183,-1.55 -0.25,-2.35c-1.067,2.033 -1.767,3.167 -2.1,3.4c-0.467,0.333 -1.75,0.5 -3.85,0.5l-0,0.2c0.619,0.029 1.219,0.012 1.8,-0.05l-0,4.7l0.8,-0c0.4,-0 1.2,-0.567 2.4,-1.7c0.667,0.367 1.317,0.733 1.95,1.1c0.8,0.4 1.517,0.6 2.15,0.6c1.467,-0 2.9,-0.783 4.3,-2.35c0.533,0.367 1.083,0.75 1.65,1.15c0.767,0.533 1.317,0.8 1.65,0.8c1.067,-0 1.883,-1.183 2.45,-3.55c0.4,-1.633 0.6,-3.317 0.6,-5.05c0,-0.3 -0.15,-1 -0.45,-2.1c-0.633,1.433 -1.067,2.45 -1.3,3.05c0.4,1.133 0.6,1.833 0.6,2.1l-0.25,0.75c-0.333,0.167 -0.633,0.25 -0.9,0.25c-2,0 -3,-0.717 -3,-2.15Z" style="fill:#f00;"/><path d="M63.654,17.297l-4.7,3.5c-0.664,0.494 -0.802,1.435 -0.307,2.099c0.494,0.664 1.435,0.802 2.099,0.307l4.7,-3.5c0.664,-0.494 0.802,-1.435 0.307,-2.099c-0.494,-0.664 -1.435,-0.802 -2.099,-0.307Z"/></g></svg>