<?xml version="1.0" encoding="UTF-8" standalone="no"?><!DOCTYPE svg PUBLIC "-//W3C//DTD SVG 1.1//EN" "http://www.w3.org/Graphics/SVG/1.1/DTD/svg11.dtd"><svg width="100%" height="100%" viewBox="0 0 71 78" version="1.1" xmlns="http://www.w3.org/2000/svg" xmlns:xlink="http://www.w3.org/1999/xlink" xml:space="preserve" xmlns:serif="http://www.serif.com/" style="fill-rule:evenodd;clip-rule:evenodd;stroke-linejoin:round;stroke-miterlimit:2;"><g><path d="M59,36.5l-0.95,4.05c0.533,0.7 1.067,1.383 1.6,2.05c0.667,1 1,1.75 1,2.25c-0,2.567 -1.617,4.783 -4.85,6.65c-2.767,1.567 -5.417,2.35 -7.95,2.35c2.033,1.567 4.05,2.35 6.05,2.35c2.267,-0 4.2,-1.583 5.8,-4.75c1.4,-2.767 2.1,-5.583 2.1,-8.45c-0,-1.367 -0.25,-2.567 -0.75,-3.6c-0.367,-0.733 -1.05,-1.7 -2.05,-2.9Z"/><path d="M43.75,53.15l-2.15,-2.45l-2.15,2.4l2.15,2.55l2.15,-2.5Z"/><path d="M48.1,53.1l-2.2,-2.45l-2.15,2.5l2.15,2.5l2.2,-2.55Z"/><path d="M46.425,37.25c0.15,0.9 0.225,1.55 0.225,1.95c-0,2.833 -0.583,4.833 -1.75,6c-1.024,0.993 -2.641,1.527 -4.85,1.6l-1.6,0l0,-4.85l1.6,-0c2.896,0.025 4.662,-0.425 5.3,-1.35c-0.167,-0.6 -0.55,-1.583 -1.15,-2.95c0.4,-0.833 0.917,-2.117 1.55,-3.85l0.675,3.45Z"/><path d="M7.75,46.25c-0.4,1.5 -0.6,2.933 -0.6,4.3c-0,2.7 0.433,4.667 1.3,5.9c0.933,1.4 2.533,2.1 4.8,2.1c3.3,0 5.817,-1.183 7.55,-3.55c1.433,-1.967 2.4,-4.9 2.9,-8.8c0.833,0.533 1.583,0.8 2.25,0.8c1.167,0 2.35,-0.5 3.55,-1.5c0.1,0.033 0.633,0.283 1.6,0.75c0.733,0.367 1.233,0.55 1.5,0.55c0.8,0 1.6,-0.5 2.4,-1.5c0.933,1 1.617,1.5 2.05,1.5l1.4,0l0,-4.85l0.6,-0c-0.568,-0.011 -0.951,-0.028 -1.15,-0.05c-1.033,-0.167 -1.55,-0.567 -1.55,-1.2c0,-0.3 0.033,-0.7 0.1,-1.2c0.067,-0.5 0.1,-0.867 0.1,-1.1c-0,-0.267 -0.017,-0.533 -0.05,-0.8c-0.433,0.933 -0.883,1.883 -1.35,2.85c-0.633,1.1 -1.333,1.65 -2.1,1.65c-0.867,0 -1.583,-0.4 -2.15,-1.2c0.233,-0.8 0.35,-1.9 0.35,-3.3c-0.633,1.1 -1.283,2.217 -1.95,3.35c-0.7,0.9 -1.783,1.35 -3.25,1.35c-0.933,0 -1.767,-0.35 -2.5,-1.05c-0.733,-0.667 -1.25,-1.533 -1.55,-2.6c-0.767,1.733 -1.383,3.017 -1.85,3.85c1.367,2.667 2.05,5.1 2.05,7.3c0,1.1 -0.967,2.017 -2.9,2.75c-1.533,0.6 -2.933,0.9 -4.2,0.9c-4.333,-0 -6.5,-1.933 -6.5,-5.8c0,-0.733 0.317,-2.433 0.95,-5.1c-0.733,0.7 -1.333,1.933 -1.8,3.7Z" style="fill:#f00;"/><path d="M33.45,28.8l-2.2,-2.45l-2.15,2.5l2.15,2.45l2.2,-2.5Z" style="fill:#f00;"/><path d="M29.1,28.85l-2.15,-2.5l-2.15,2.45l2.2,2.5l2.1,-2.45Z" style="fill:#f00;"/><path d="M31.4,23.65l-2.15,-2.5l-2.15,2.5l2.15,2.5l2.15,-2.5Z" style="fill:#f00;"/><path d="M56.954,57.697l-4.7,3.5c-0.664,0.494 -0.802,1.435 -0.307,2.099c0.494,0.664 1.435,0.802 2.099,0.307l4.7,-3.5c0.664,-0.494 0.802,-1.435 0.307,-2.099c-0.494,-0.664 -1.435,-0.802 -2.099,-0.307Z"/><path d="M22.266,60.388c-0.395,-0.048 -0.769,-0.253 -1.024,-0.598c-0.491,-0.667 -0.348,-1.606 0.318,-2.098l4.75,-3.5c0.667,-0.491 1.606,-0.348 2.098,0.318c0.491,0.667 0.348,1.606 -0.318,2.098l-0.014,0.01c0.377,0.057 0.732,0.257 0.977,0.586c0.495,0.664 0.357,1.605 -0.307,2.099l-4.7,3.5c-0.664,0.495 -1.605,0.357 -2.099,-0.307c-0.495,-0.664 -0.357,-1.605 0.307,-2.099l0.012,-0.009Z"/></g></svg>