<?xml version="1.0" encoding="UTF-8" standalone="no"?><!DOCTYPE svg PUBLIC "-//W3C//DTD SVG 1.1//EN" "http://www.w3.org/Graphics/SVG/1.1/DTD/svg11.dtd"><svg width="100%" height="100%" viewBox="0 0 75 78" version="1.1" xmlns="http://www.w3.org/2000/svg" xmlns:xlink="http://www.w3.org/1999/xlink" xml:space="preserve" xmlns:serif="http://www.serif.com/" style="fill-rule:evenodd;clip-rule:evenodd;stroke-linejoin:round;stroke-miterlimit:2;"><g><path d="M33.2,42.35c-2.4,-0 -4.033,-0.633 -4.9,-1.9c-0.767,-1.2 -1.383,-4.767 -1.85,-10.7c-0.233,-3.867 -0.467,-7.75 -0.7,-11.65c-0.267,0.267 -0.7,0.917 -1.3,1.95c-0.633,1.1 -0.933,1.8 -0.9,2.1l1.65,27.3c0.067,0.933 -0.783,1.75 -2.55,2.45c-1.433,0.567 -2.65,0.85 -3.65,0.85c-1.533,-0 -2.783,-0.317 -3.75,-0.95c-1.167,-0.8 -1.75,-2.017 -1.75,-3.65c-0,-2.033 0.183,-3.917 0.55,-5.65c-0.633,0.533 -1.2,1.75 -1.7,3.65c-0.467,1.7 -0.7,3.117 -0.7,4.25c-0,2.667 0.367,4.617 1.1,5.85c0.867,1.467 2.4,2.2 4.6,2.2c3.267,-0 5.683,-1.35 7.25,-4.05c0.967,-1.7 1.85,-4.75 2.65,-9.15c0.4,0.433 0.817,0.867 1.25,1.3c0.5,0.433 1,0.65 1.5,0.65l3.2,-0l0,-0.05c1.929,-0.124 3.363,-0.641 4.3,-1.55c1.167,-1.167 1.75,-3.167 1.75,-6c0,-0.8 -0.3,-2.6 -0.9,-5.4c-0.633,1.733 -1.15,3.017 -1.55,3.85c0.6,1.367 0.983,2.35 1.15,2.95c-0.596,0.865 -2.18,1.315 -4.75,1.35Z"/><path d="M45.15,19.75c-0.333,0.5 -0.5,1.15 -0.5,1.95c-0,6.533 0.033,10.717 0.1,12.55c0.233,6.3 0.783,10.1 1.65,11.4c0.7,1.033 1.683,1.55 2.95,1.55l3.35,-0l0,-4.85c-0.271,0 -0.537,-0.017 -0.8,-0.05c-2.279,-0.089 -3.779,-0.689 -4.5,-1.8c-0.667,-1.033 -1,-3.217 -1,-6.55l-0,-15.65c-0.433,0.5 -0.85,0.983 -1.25,1.45Z"/><path d="M39.1,22.95c0,-0.3 -0.1,-0.567 -0.3,-0.8c-0.233,-0.267 -0.483,-0.4 -0.75,-0.4c-0.5,0 -1.283,0.5 -2.35,1.5c-1.067,1 -1.6,1.783 -1.6,2.35c0,0.2 0.117,0.55 0.35,1.05c0.267,0.467 0.4,0.833 0.4,1.1c0,0.133 -0.033,0.35 -0.1,0.65c-0.1,0.3 -0.15,0.533 -0.15,0.7c0,0.133 0.017,0.333 0.05,0.6c1.467,-1.333 2.733,-2 3.8,-2c0.9,-0 1.383,-0.033 1.45,-0.1c0.233,-0.433 0.467,-0.883 0.7,-1.35c-0.233,0 -0.583,0.017 -1.05,0.05l-1.05,0c-1.233,0 -2.2,-0.3 -2.9,-0.9c0.367,-1.133 0.883,-1.7 1.55,-1.7c0.167,-0 0.4,0.067 0.7,0.2c0.333,0.1 0.567,0.15 0.7,0.15c0.367,0 0.55,-0.367 0.55,-1.1Z"/><path d="M16.3,16.15c-0,-1.567 -0.45,-2.35 -1.35,-2.35c-0.5,0 -0.917,0.267 -1.25,0.8c-0.267,0.467 -0.4,0.983 -0.4,1.55c-0,0.3 0.067,0.65 0.2,1.05c0.133,-1.067 0.45,-1.6 0.95,-1.6c0.3,-0 0.533,0.133 0.7,0.4c0.167,0.233 0.25,0.5 0.25,0.8c-0,0.433 -0.267,1.333 -0.8,2.7c1.033,-0.233 1.917,-0.583 2.65,-1.05c0.567,-0.4 1.267,-1.067 2.1,-2c0.367,0.333 0.95,0.75 1.75,1.25c0.033,-0.833 0.05,-1.283 0.05,-1.35c-0,-0.5 -0.25,-0.967 -0.75,-1.4c0.433,-1.033 0.65,-1.817 0.65,-2.35c-0,-0.4 -0.133,-0.783 -0.4,-1.15c-0.3,-0.367 -0.617,-0.55 -0.95,-0.55c-0.6,0 -1.15,0.35 -1.65,1.05c-0.533,0.7 -0.8,1.383 -0.8,2.05c0,0.733 0.45,1.4 1.35,2c-0.867,0.933 -1.667,1.533 -2.4,1.8c0.067,-0.9 0.1,-1.45 0.1,-1.65Zm3.35,-2.75l-0.05,0.85c-0.867,-0.6 -1.3,-1.083 -1.3,-1.45l0.2,-0.35c0.167,-0.1 0.283,-0.15 0.35,-0.15c0.533,0 0.8,0.367 0.8,1.1Z"/><path d="M51.6,9.05c-1,0.5 -1.9,0.75 -2.7,0.75c-1.567,0 -3.033,-0.567 -4.4,-1.7c-1.133,1.933 -1.917,3.65 -2.35,5.15c0.367,-0.267 0.75,-0.7 1.15,-1.3c0.433,-0.733 0.767,-1.2 1,-1.4c1.067,0.533 1.7,0.833 1.9,0.9c0.567,0.2 1.283,0.3 2.15,0.3c0.933,-0 2.083,-0.433 3.45,-1.3c1.533,-0.933 2.3,-1.883 2.3,-2.85c-1.567,0.9 -2.4,1.383 -2.5,1.45Z"/><path d="M70.55,38.2c-0,-0.3 -0.15,-1 -0.45,-2.1c-0.633,1.433 -1.067,2.45 -1.3,3.05c0.4,1.133 0.6,1.833 0.6,2.1l-0.25,0.75c-0.333,0.167 -0.633,0.25 -0.9,0.25c-2,0 -3,-0.717 -3,-2.15c0,-0.3 0.033,-0.683 0.1,-1.15c0.067,-0.567 0.1,-0.95 0.1,-1.15c-0.733,1.167 -1.483,2.317 -2.25,3.45c-0.867,1.133 -2,1.7 -3.4,1.7c-1.033,-0 -1.75,-0.2 -2.15,-0.6c-0.367,-0.267 -0.583,-0.783 -0.65,-1.55c-0.1,-0.767 -0.183,-1.55 -0.25,-2.35c-1.067,2.033 -1.767,3.167 -2.1,3.4c-0.377,0.27 -1.294,0.42 -2.75,0.45c0.263,0.033 0.529,0.05 0.8,0.05l0,4.85l0.7,-0c0.4,-0 1.2,-0.567 2.4,-1.7c0.667,0.367 1.317,0.733 1.95,1.1c0.8,0.4 1.517,0.6 2.15,0.6c1.467,-0 2.9,-0.783 4.3,-2.35c0.533,0.367 1.083,0.75 1.65,1.15c0.767,0.533 1.317,0.8 1.65,0.8c1.067,0 1.883,-1.183 2.45,-3.55c0.4,-1.633 0.6,-3.317 0.6,-5.05Z" style="fill:#f00;"/><path d="M38.36,50.342l-4.75,3.5c-0.666,0.492 -0.809,1.431 -0.318,2.098c0.492,0.666 1.431,0.809 2.098,0.318l4.75,-3.5c0.666,-0.492 0.809,-1.431 0.318,-2.098c-0.492,-0.666 -1.431,-0.809 -2.098,-0.318Z"/><path d="M56.91,12.492l-4.75,3.5c-0.666,0.492 -0.809,1.431 -0.318,2.098c0.492,0.666 1.431,0.809 2.098,0.318l4.75,-3.5c0.666,-0.492 0.809,-1.431 0.318,-2.098c-0.492,-0.666 -1.431,-0.809 -2.098,-0.318Z"/></g></svg>