<?xml version="1.0" encoding="UTF-8" standalone="no"?><!DOCTYPE svg PUBLIC "-//W3C//DTD SVG 1.1//EN" "http://www.w3.org/Graphics/SVG/1.1/DTD/svg11.dtd"><svg width="100%" height="100%" viewBox="0 0 66 78" version="1.1" xmlns="http://www.w3.org/2000/svg" xmlns:xlink="http://www.w3.org/1999/xlink" xml:space="preserve" xmlns:serif="http://www.serif.com/" style="fill-rule:evenodd;clip-rule:evenodd;stroke-linejoin:round;stroke-miterlimit:2;"><g><path d="M22.95,21.5c-1.033,-0.133 -1.7,-0.65 -2,-1.55c-0.133,-0.5 -0.2,-1.467 -0.2,-2.9c-0.833,1.233 -1.533,3.05 -2.1,5.45c0.567,0.8 1.017,1.4 1.35,1.8c0.067,1.333 0.317,4.867 0.75,10.6c0.333,4.467 0.5,8.033 0.5,10.7c0,1.2 -0.717,2.167 -2.15,2.9c-1.167,0.533 -2.35,0.8 -3.55,0.8c-3.433,0 -5.15,-1.683 -5.15,-5.05c-0,-0.133 0.167,-1.583 0.5,-4.35c-0.667,0.667 -1.2,1.85 -1.6,3.55c-0.333,1.4 -0.5,2.75 -0.5,4.05c-0,2.433 0.433,4.183 1.3,5.25c0.933,1.133 2.433,1.7 4.5,1.7c5.567,-0 8.35,-4.6 8.35,-13.8c0,-4.633 -0.433,-9.5 -1.3,-14.6c0.467,-0.3 0.8,-0.967 1,-2c0.1,-0.867 0.2,-1.717 0.3,-2.55Z"/><path d="M36.4,42.35c-0.278,-0 -0.545,-0.017 -0.8,-0.05c-2.282,-0.092 -3.782,-0.692 -4.5,-1.8c-0.667,-1.033 -1,-3.217 -1,-6.55l0,-15.65c-0.433,0.5 -0.85,0.983 -1.25,1.45c-0.333,0.5 -0.5,1.15 -0.5,1.95c0,6.533 0.033,10.717 0.1,12.55c0.233,6.3 0.783,10.1 1.65,11.4c0.7,1.033 1.683,1.55 2.95,1.55l3.35,-0l-0,-4.85Z"/><path d="M35.6,42.3c0.255,0.033 0.522,0.05 0.8,0.05l-0,4.85l0.65,-0c0.4,-0 1.2,-0.567 2.4,-1.7c0.667,0.367 1.317,0.733 1.95,1.1c0.8,0.4 1.517,0.6 2.15,0.6c1.467,-0 2.9,-0.783 4.3,-2.35c0.533,0.367 1.083,0.75 1.65,1.15c0.767,0.533 1.317,0.8 1.65,0.8c1.067,0 1.883,-1.183 2.45,-3.55c0.4,-1.633 0.6,-3.317 0.6,-5.05c0,-0.3 -0.15,-1 -0.45,-2.1c-0.633,1.433 -1.067,2.45 -1.3,3.05c0.4,1.133 0.6,1.833 0.6,2.1l-0.25,0.75c-0.333,0.167 -0.633,0.25 -0.9,0.25c-2,0 -3,-0.717 -3,-2.15c-0,-0.3 0.033,-0.683 0.1,-1.15c0.067,-0.567 0.1,-0.95 0.1,-1.15c-0.733,1.167 -1.483,2.317 -2.25,3.45c-0.867,1.133 -2,1.7 -3.4,1.7c-1.033,-0 -1.75,-0.2 -2.15,-0.6c-0.367,-0.267 -0.583,-0.783 -0.65,-1.55c-0.1,-0.767 -0.183,-1.55 -0.25,-2.35c-1.067,2.033 -1.767,3.167 -2.1,3.4c-0.375,0.268 -1.275,0.418 -2.7,0.45Z" style="fill:#f00;"/><path d="M48.054,14.897l-4.7,3.5c-0.664,0.494 -0.802,1.435 -0.307,2.099c0.494,0.664 1.435,0.802 2.099,0.307l4.7,-3.5c0.664,-0.494 0.802,-1.435 0.307,-2.099c-0.494,-0.664 -1.435,-0.802 -2.099,-0.307Z"/><path d="M17.354,10.197l-4.7,3.5c-0.664,0.494 -0.802,1.435 -0.307,2.099c0.494,0.664 1.435,0.802 2.099,0.307l4.7,-3.5c0.664,-0.494 0.802,-1.435 0.307,-2.099c-0.494,-0.664 -1.435,-0.802 -2.099,-0.307Z"/><path d="M31.01,9.842l-4.75,3.5c-0.666,0.492 -0.809,1.431 -0.318,2.098c0.492,0.666 1.431,0.809 2.098,0.318l4.75,-3.5c0.666,-0.492 0.809,-1.431 0.318,-2.098c-0.492,-0.666 -1.431,-0.809 -2.098,-0.318Z"/></g></svg>