<?xml version="1.0" encoding="UTF-8" standalone="no"?><!DOCTYPE svg PUBLIC "-//W3C//DTD SVG 1.1//EN" "http://www.w3.org/Graphics/SVG/1.1/DTD/svg11.dtd"><svg width="100%" height="100%" viewBox="0 0 53 87" version="1.1" xmlns="http://www.w3.org/2000/svg" xmlns:xlink="http://www.w3.org/1999/xlink" xml:space="preserve" xmlns:serif="http://www.serif.com/" style="fill-rule:evenodd;clip-rule:evenodd;stroke-linejoin:round;stroke-miterlimit:2;"><g><path d="M34.35,21.7c0,-0.633 -0.167,-1.217 -0.5,-1.75c-0.367,-0.6 -0.817,-0.9 -1.35,-0.9c-0.733,0 -1.283,0.383 -1.65,1.15c-0.333,0.6 -0.5,1.367 -0.5,2.3c0,1.433 0.55,2.15 1.65,2.15c0.667,0 1.217,-0.3 1.65,-0.9c0.467,-0.6 0.7,-1.283 0.7,-2.05Zm-3.5,0.1c0,-0.8 0.317,-1.2 0.95,-1.2c0.267,-0 0.617,0.183 1.05,0.55c0.433,0.367 0.65,0.7 0.65,1c0,0.467 -0.4,0.7 -1.2,0.7c-0.967,-0 -1.45,-0.35 -1.45,-1.05Z"/><path d="M40.45,43c0,-0.433 -0.183,-1.067 -0.55,-1.9c-0.267,0.933 -0.633,1.867 -1.1,2.8c0.233,1.067 0.433,1.867 0.6,2.4l-0.25,0.6l-0.95,0.2c-1.533,-0 -2.583,-0.533 -3.15,-1.6c0.267,-0.9 0.4,-1.783 0.4,-2.65c-0.767,1.133 -1.533,2.25 -2.3,3.35c-0.8,1.033 -1.917,1.55 -3.35,1.55c-1.167,0 -2.083,-0.3 -2.75,-0.9c-0.5,-0.5 -1.033,-1.417 -1.6,-2.75c-0.433,1.2 -1.05,2.5 -1.85,3.9c1.333,1.967 2,4.367 2,7.2c0,1.133 -0.883,2.05 -2.65,2.75c-1.4,0.567 -2.717,0.85 -3.95,0.85c-4.333,0 -6.5,-1.917 -6.5,-5.75c-0,-1.033 0.317,-2.717 0.95,-5.05c-0.767,0.667 -1.367,1.883 -1.8,3.65c-0.4,1.5 -0.6,2.933 -0.6,4.3c-0,5.067 2.15,7.6 6.45,7.6c3.033,0 5.383,-1.133 7.05,-3.4c1.6,-2.133 2.4,-4.983 2.4,-8.55c1.167,0.333 2.183,0.5 3.05,0.5c0.933,-0 1.683,-0.217 2.25,-0.65c0.6,-0.533 1.2,-1.067 1.8,-1.6c0.2,0.067 0.733,0.417 1.6,1.05c0.633,0.467 1.183,0.7 1.65,0.7c1.133,-0 1.983,-1.183 2.55,-3.55c0.4,-1.633 0.6,-3.317 0.6,-5.05Z" style="fill:#f00;"/><path d="M36.1,37l2.2,-2.5l-2.2,-2.45l-2.15,2.5l2.15,2.45Z" style="fill:#f00;"/><path d="M29.65,34.5l2.15,2.5l2.15,-2.45l-2.15,-2.5l-2.15,2.45Z" style="fill:#f00;"/><path d="M31.9,29.35l2.15,2.5l2.2,-2.5l-2.15,-2.5l-2.2,2.5Z" style="fill:#f00;"/></g></svg>