<?xml version="1.0" encoding="UTF-8" standalone="no"?><!DOCTYPE svg PUBLIC "-//W3C//DTD SVG 1.1//EN" "http://www.w3.org/Graphics/SVG/1.1/DTD/svg11.dtd"><svg width="100%" height="100%" viewBox="0 0 64 72" version="1.1" xmlns="http://www.w3.org/2000/svg" xmlns:xlink="http://www.w3.org/1999/xlink" xml:space="preserve" xmlns:serif="http://www.serif.com/" style="fill-rule:evenodd;clip-rule:evenodd;stroke-linejoin:round;stroke-miterlimit:2;"><g><path d="M30.4,61.4l2.25,-2.5l-2.2,-2.45l-2.15,2.5l-2.15,-2.5l-2.2,2.45l2.2,2.5l2.1,-2.45l2.15,2.45Z"/><path d="M26.65,46.4c-0.467,0.467 -1.217,0.7 -2.25,0.7c-0.2,0 -0.717,-0.017 -1.55,-0.05c-0.153,-0.006 -0.303,-0.023 -0.45,-0.05c-2.733,-0 -4.5,-0.617 -5.3,-1.85c-0.667,-1.033 -1,-3.217 -1,-6.55l0,-15.65c-0.433,0.5 -0.85,0.983 -1.25,1.45c-0.333,0.5 -0.5,1.15 -0.5,1.95c0,6.533 0.033,10.717 0.1,12.55c0.233,6.3 0.783,10.1 1.65,11.4c0.7,1.033 1.683,1.55 2.95,1.55l5.3,0c0.833,0 1.5,-0.35 2,-1.05c0.067,-0.1 0.467,-0.85 1.2,-2.25c0.367,0.7 0.883,1.4 1.55,2.1c0.8,0.8 1.483,1.2 2.05,1.2l4.5,0l-0,-4.85c-0.533,-0 -1.217,0.033 -2.05,0.1c-0.086,0.003 -0.17,0.003 -0.25,0c-0.698,0.033 -1.181,0.05 -1.45,0.05c-1.1,-0 -1.883,-0.25 -2.35,-0.75c-0.533,-0.6 -0.833,-1.733 -0.9,-3.4c-1,1.9 -1.667,3.033 -2,3.4Z"/><path d="M29.8,26.3c-0.367,-0.6 -0.817,-0.9 -1.35,-0.9c-0.733,-0 -1.283,0.383 -1.65,1.15c-0.333,0.6 -0.5,1.367 -0.5,2.3c-0,1.433 0.55,2.15 1.65,2.15c0.667,0 1.217,-0.3 1.65,-0.9c0.467,-0.6 0.7,-1.283 0.7,-2.05c-0,-0.633 -0.167,-1.217 -0.5,-1.75Zm-1.55,2.9c-0.967,-0 -1.45,-0.35 -1.45,-1.05c-0,-0.8 0.317,-1.2 0.95,-1.2c0.267,-0 0.617,0.183 1.05,0.55c0.433,0.367 0.65,0.7 0.65,1c0,0.467 -0.4,0.7 -1.2,0.7Z"/><path d="M53.1,42.85c0,1.733 -0.2,3.417 -0.6,5.05c-0.567,2.367 -1.383,3.55 -2.45,3.55c-0.333,0 -0.883,-0.267 -1.65,-0.8c-0.567,-0.4 -1.117,-0.783 -1.65,-1.15c-1.4,1.567 -2.833,2.35 -4.3,2.35c-0.633,0 -1.35,-0.2 -2.15,-0.6c-0.633,-0.367 -1.283,-0.733 -1.95,-1.1c-1.2,1.133 -2,1.7 -2.4,1.7l-0.3,0l-0,-4.85c-0.533,0 -1.217,0.033 -2.05,0.1c-0.086,0.003 -0.17,0.003 -0.25,0l0,-0.1c2.1,0 3.383,-0.167 3.85,-0.5c0.333,-0.233 1.033,-1.367 2.1,-3.4c0.067,0.8 0.15,1.583 0.25,2.35c0.067,0.767 0.283,1.283 0.65,1.55c0.4,0.4 1.117,0.6 2.15,0.6c1.4,0 2.533,-0.567 3.4,-1.7c0.767,-1.133 1.517,-2.283 2.25,-3.45l-0.2,2.3c-0,1.433 1,2.15 3,2.15c0.267,-0 0.567,-0.083 0.9,-0.25l0.25,-0.75c0,-0.267 -0.2,-0.967 -0.6,-2.1c0.233,-0.6 0.667,-1.617 1.3,-3.05l0.45,2.1Z" style="fill:#f00;"/><path d="M43.95,31.7l-2.15,2.4l2.15,2.55l2.15,-2.5l-2.15,-2.45Z" style="fill:#f00;"/><path d="M50.45,34.1l-2.2,-2.4l-2.15,2.45l2.15,2.5l2.2,-2.55Z" style="fill:#f00;"/><path d="M46.2,31.5l2.2,-2.55l-2.2,-2.45l-2.1,2.45l2.1,2.55Z" style="fill:#f00;"/><path d="M20.131,20.24c-0.398,-0.045 -0.777,-0.248 -1.034,-0.594c-0.495,-0.664 -0.357,-1.605 0.307,-2.099l4.7,-3.5c0.664,-0.495 1.605,-0.357 2.099,0.307c0.495,0.664 0.357,1.605 -0.307,2.099l-0.012,0.009c0.391,0.048 0.763,0.25 1.018,0.59c0.495,0.663 0.359,1.604 -0.304,2.1l-4.75,3.55c-0.663,0.495 -1.604,0.359 -2.1,-0.304c-0.495,-0.663 -0.359,-1.604 0.304,-2.1l0.079,-0.058Z"/><path d="M46.41,14.442l-4.75,3.5c-0.666,0.492 -0.809,1.431 -0.318,2.098c0.492,0.666 1.431,0.809 2.098,0.318l4.75,-3.5c0.666,-0.492 0.809,-1.431 0.318,-2.098c-0.492,-0.666 -1.431,-0.809 -2.098,-0.318Z"/></g></svg>