<?xml version="1.0" encoding="UTF-8" standalone="no"?><!DOCTYPE svg PUBLIC "-//W3C//DTD SVG 1.1//EN" "http://www.w3.org/Graphics/SVG/1.1/DTD/svg11.dtd"><svg width="100%" height="100%" viewBox="0 0 54 87" version="1.1" xmlns="http://www.w3.org/2000/svg" xmlns:xlink="http://www.w3.org/1999/xlink" xml:space="preserve" xmlns:serif="http://www.serif.com/" style="fill-rule:evenodd;clip-rule:evenodd;stroke-linejoin:round;stroke-miterlimit:2;"><g><path d="M18.45,36.75c-0.1,0.7 -0.2,1.167 -0.3,1.4c-0.167,0.567 -0.433,0.85 -0.8,0.85c-0.3,0 -0.45,-0.5 -0.45,-1.5l-0.3,0.05c-0.167,0.7 -0.25,1.15 -0.25,1.35c0,0.433 0.067,0.783 0.2,1.05c0.2,0.333 0.467,0.5 0.8,0.5c0.267,-0 0.533,-0.117 0.8,-0.35c0.267,-0.233 0.417,-0.517 0.45,-0.85c0.233,0.2 0.483,0.3 0.75,0.3c0.867,0 1.3,-0.783 1.3,-2.35c-0,-0.4 -0.067,-0.85 -0.2,-1.35l-0.25,0.15c0,1.367 -0.283,2.05 -0.85,2.05c-0.267,0 -0.483,-0.45 -0.65,-1.35l-0.25,0.05Z"/><path d="M20.7,26.75c0.033,-0.833 0.05,-1.283 0.05,-1.35c0,-0.5 -0.25,-0.967 -0.75,-1.4c0.433,-1.033 0.65,-1.817 0.65,-2.35c-0,-0.4 -0.133,-0.783 -0.4,-1.15c-0.3,-0.367 -0.617,-0.55 -0.95,-0.55c-0.6,-0 -1.15,0.35 -1.65,1.05c-0.533,0.7 -0.8,1.383 -0.8,2.05c0,0.733 0.45,1.4 1.35,2c-0.867,0.933 -1.667,1.533 -2.4,1.8c0.067,-0.9 0.1,-1.45 0.1,-1.65c-0,-1.567 -0.45,-2.35 -1.35,-2.35c-0.5,-0 -0.917,0.267 -1.25,0.8c-0.267,0.467 -0.4,0.983 -0.4,1.55c-0,0.3 0.067,0.65 0.2,1.05c0.133,-1.067 0.45,-1.6 0.95,-1.6c0.3,0 0.533,0.133 0.7,0.4c0.167,0.233 0.25,0.5 0.25,0.8c0,0.433 -0.267,1.333 -0.8,2.7c1.033,-0.233 1.917,-0.583 2.65,-1.05c0.567,-0.4 1.267,-1.067 2.1,-2c0.367,0.333 0.95,0.75 1.75,1.25Zm-1.45,-4.3l-0.05,0.85c-0.867,-0.6 -1.3,-1.083 -1.3,-1.45l0.2,-0.35c0.167,-0.1 0.283,-0.15 0.35,-0.15c0.533,-0 0.8,0.367 0.8,1.1Z"/><path d="M40.1,51.75c1.067,0 1.883,-1.183 2.45,-3.55c0.4,-1.633 0.6,-3.317 0.6,-5.05c-0,-0.3 -0.15,-1 -0.45,-2.1c-0.633,1.433 -1.067,2.45 -1.3,3.05c0.4,1.133 0.6,1.833 0.6,2.1l-0.25,0.75c-0.333,0.167 -0.633,0.25 -0.9,0.25c-2,-0 -3,-0.717 -3,-2.15c0,-0.3 0.033,-0.683 0.1,-1.15c0.067,-0.567 0.1,-0.95 0.1,-1.15c-0.733,1.167 -1.483,2.317 -2.25,3.45c-0.867,1.133 -2,1.7 -3.4,1.7c-1.033,-0 -1.75,-0.2 -2.15,-0.6c-0.367,-0.267 -0.583,-0.783 -0.65,-1.55c-0.1,-0.767 -0.183,-1.55 -0.25,-2.35c-1.067,2.033 -1.767,3.167 -2.1,3.4c-0.419,0.299 -1.502,0.466 -3.25,0.5l-0.6,0l-0,4.85l2.6,-0c0.4,-0 1.2,-0.567 2.4,-1.7c0.667,0.367 1.317,0.733 1.95,1.1c0.8,0.4 1.517,0.6 2.15,0.6c1.467,-0 2.9,-0.783 4.3,-2.35c0.533,0.367 1.083,0.75 1.65,1.15c0.767,0.533 1.317,0.8 1.65,0.8Z" style="fill:#f00;"/><path d="M37.46,60.442l-4.75,3.5c-0.666,0.492 -0.809,1.431 -0.318,2.098c0.492,0.666 1.431,0.809 2.098,0.318l4.75,-3.5c0.666,-0.492 0.809,-1.431 0.318,-2.098c-0.492,-0.666 -1.431,-0.809 -2.098,-0.318Z"/></g></svg>