<?xml version="1.0" encoding="UTF-8" standalone="no"?><!DOCTYPE svg PUBLIC "-//W3C//DTD SVG 1.1//EN" "http://www.w3.org/Graphics/SVG/1.1/DTD/svg11.dtd"><svg width="100%" height="100%" viewBox="0 0 111 64" version="1.1" xmlns="http://www.w3.org/2000/svg" xmlns:xlink="http://www.w3.org/1999/xlink" xml:space="preserve" xmlns:serif="http://www.serif.com/" style="fill-rule:evenodd;clip-rule:evenodd;stroke-linejoin:round;stroke-miterlimit:2;"><g><path d="M23.75,31.85c0.3,-0.8 0.45,-1.517 0.45,-2.15c0,-0.333 -0.1,-0.733 -0.3,-1.2l-0.75,-0.5c-1.767,-0 -3.667,1.533 -5.7,4.6c-1.933,2.933 -2.9,5.467 -2.9,7.6c-0,1.267 0.417,2.2 1.25,2.8c0.633,0.467 1.567,0.767 2.8,0.9c1,0.033 2,0.067 3,0.1c-0.567,1.267 -2.1,2.4 -4.6,3.4c-2.167,0.9 -4,1.35 -5.5,1.35c-4.167,0 -6.25,-2.117 -6.25,-6.35c0,-1.167 0.3,-2.967 0.9,-5.4c-0.767,0.4 -1.433,1.533 -2,3.4c-0.5,1.633 -0.75,3.05 -0.75,4.25c-0,2.8 0.583,4.95 1.75,6.45c1.233,1.533 3.05,2.3 5.45,2.3c2.533,-0 5.233,-0.95 8.1,-2.85c3.3,-2.167 4.95,-4.6 4.95,-7.3c-0,-1.333 -0.667,-2.25 -2,-2.75c-1.2,-0.267 -2.417,-0.517 -3.65,-0.75c-1.3,-0.3 -1.95,-0.9 -1.95,-1.8c-0,-0.9 0.7,-2 2.1,-3.3c1.233,-1.1 2.333,-1.817 3.3,-2.15c0.4,0.2 0.667,0.367 0.8,0.5c0.067,0.067 0.283,0.333 0.65,0.8c0.3,-0.667 0.583,-1.317 0.85,-1.95Z"/><path d="M35.7,48.65c1.4,-2.767 2.1,-5.583 2.1,-8.45c-0,-1.367 -0.25,-2.567 -0.75,-3.6c-0.367,-0.733 -1.05,-1.7 -2.05,-2.9l-0.95,4.05c0.533,0.7 1.067,1.383 1.6,2.05c0.667,1 1,1.75 1,2.25c-0,2.567 -1.617,4.783 -4.85,6.65c-2.767,1.567 -5.417,2.35 -7.95,2.35c2.033,1.567 4.05,2.35 6.05,2.35c2.267,-0 4.2,-1.583 5.8,-4.75Z"/><path d="M44.85,15.1c-0.433,0.5 -0.85,0.983 -1.25,1.45c-0.333,0.5 -0.5,1.15 -0.5,1.95c0,6.533 0.033,10.717 0.1,12.55c0.233,6.3 0.783,10.1 1.65,11.4c0.7,1.033 1.683,1.55 2.95,1.55l5.6,0c2.033,0 3.617,-1.05 4.75,-3.15c0.7,-1.2 1.417,-3.283 2.15,-6.25c5.233,6.267 8.267,9.4 9.1,9.4l3.15,0l-0,-4.85l-1.15,-0c-0.884,-0.027 -1.484,-0.077 -1.8,-0.15c-0.033,-0.033 -2.667,-2.133 -7.9,-6.3c-5.5,-4.333 -8.75,-6.85 -9.75,-7.55c1.6,-1.633 3.933,-3.333 7,-5.1c2.467,-1.4 4.95,-2.817 7.45,-4.25c0.367,-1.733 0.617,-3.033 0.75,-3.9c-1.6,0.6 -4.383,2.15 -8.35,4.65c-4.4,2.733 -6.817,4.6 -7.25,5.6c-0.367,0.833 -0.55,2.05 -0.55,3.65c-0,1.433 0.633,2.783 1.9,4.05c1.167,1 2.333,2 3.5,3c1.233,1.1 1.85,2.133 1.85,3.1c-0,2.167 -2.183,3.25 -6.55,3.25l-0.55,-0l-0,-0.05c-2.733,-0 -4.5,-0.617 -5.3,-1.85c-0.667,-1.033 -1,-3.217 -1,-6.55l0,-15.65Z"/><path d="M85,14.55c0,-1 -0.417,-1.5 -1.25,-1.5c-0.6,0 -1.117,0.35 -1.55,1.05c-0.433,0.633 -0.65,1.233 -0.65,1.8c-0,0.5 0.4,1.017 1.2,1.55c-1.4,1.167 -2.717,2.067 -3.95,2.7c0.433,0.133 0.783,0.2 1.05,0.2c1.033,0 2.25,-0.817 3.65,-2.45c0.567,0.367 1.067,0.65 1.5,0.85l0.15,-1.7c-0.333,-0.233 -0.583,-0.4 -0.75,-0.5c0.4,-0.833 0.6,-1.5 0.6,-2Zm-2.5,0.3c0.067,-0.167 0.183,-0.267 0.35,-0.3c0.667,0.1 1,0.433 1,1c0,0.167 -0.033,0.35 -0.1,0.55c-0.833,-0.433 -1.25,-0.85 -1.25,-1.25Z"/><path d="M90.3,35c-0,1.733 -0.2,3.417 -0.6,5.05c-0.567,2.367 -1.383,3.55 -2.45,3.55c-0.333,0 -0.883,-0.267 -1.65,-0.8c-0.567,-0.4 -1.117,-0.783 -1.65,-1.15c-1.4,1.567 -2.833,2.35 -4.3,2.35c-0.633,0 -1.35,-0.2 -2.15,-0.6c-0.633,-0.367 -1.283,-0.733 -1.95,-1.1c-1.2,1.133 -2,1.7 -2.4,1.7l-0.6,0l-0,-4.85l-1.15,-0c1.602,-0.049 2.602,-0.216 3,-0.5c0.333,-0.233 1.033,-1.367 2.1,-3.4c0.067,0.8 0.15,1.583 0.25,2.35c0.067,0.767 0.283,1.283 0.65,1.55c0.4,0.4 1.117,0.6 2.15,0.6c1.4,0 2.533,-0.567 3.4,-1.7c0.767,-1.133 1.517,-2.283 2.25,-3.45l-0.2,2.3c0,1.433 1,2.15 3,2.15c0.267,0 0.567,-0.083 0.9,-0.25l0.25,-0.75c-0,-0.267 -0.2,-0.967 -0.6,-2.1c0.233,-0.6 0.667,-1.617 1.3,-3.05l0.45,2.1Z" style="fill:#f00;"/><path d="M27.502,8.898l-4.75,3.55c-0.663,0.496 -0.799,1.437 -0.304,2.1c0.496,0.663 1.437,0.799 2.1,0.304l4.75,-3.55c0.663,-0.496 0.799,-1.437 0.304,-2.1c-0.496,-0.663 -1.437,-0.799 -2.1,-0.304Z"/><path d="M52.954,6.597l-4.7,3.5c-0.664,0.494 -0.802,1.435 -0.307,2.099c0.494,0.664 1.435,0.802 2.099,0.307l4.7,-3.5c0.664,-0.494 0.802,-1.435 0.307,-2.099c-0.494,-0.664 -1.435,-0.802 -2.099,-0.307Z"/></g></svg>