<?xml version="1.0" encoding="UTF-8" standalone="no"?><!DOCTYPE svg PUBLIC "-//W3C//DTD SVG 1.1//EN" "http://www.w3.org/Graphics/SVG/1.1/DTD/svg11.dtd"><svg width="100%" height="100%" viewBox="0 0 34 37" version="1.1" xmlns="http://www.w3.org/2000/svg" xmlns:xlink="http://www.w3.org/1999/xlink" xml:space="preserve" xmlns:serif="http://www.serif.com/" style="fill-rule:evenodd;clip-rule:evenodd;stroke-linejoin:round;stroke-miterlimit:2;"><g><path d="M14.1,21.2c-0.233,-0.2 -0.383,-0.533 -0.45,-1c-0.067,-0.5 -0.133,-1 -0.2,-1.5c-0.8,1.3 -1.317,2.033 -1.55,2.2c-0.367,0.2 -1.333,0.3 -2.9,0.3l0,3.05l1.95,0c0.3,0 0.9,-0.367 1.8,-1.1c0.5,0.233 0.983,0.483 1.45,0.75c0.633,0.233 1.167,0.35 1.6,0.35c1.1,0 2.183,-0.5 3.25,-1.5c0.4,0.233 0.817,0.483 1.25,0.75c0.567,0.333 0.983,0.5 1.25,0.5c0.8,0 1.417,-0.75 1.85,-2.25c0.267,-1.033 0.4,-2.1 0.4,-3.2c0,-0.167 -0.1,-0.6 -0.3,-1.3c-0.5,0.9 -0.833,1.533 -1,1.9c0.3,0.733 0.45,1.183 0.45,1.35l-0.2,0.45c-0.233,0.133 -0.45,0.2 -0.65,0.2c-1.5,-0 -2.25,-0.467 -2.25,-1.4c0,-0.167 0.017,-0.4 0.05,-0.7c0.067,-0.367 0.1,-0.617 0.1,-0.75c-0.567,0.733 -1.133,1.467 -1.7,2.2c-0.633,0.7 -1.483,1.05 -2.55,1.05c-0.767,0 -1.317,-0.117 -1.65,-0.35Z" style="fill:#f00;"/><path d="M18.55,13.05l-1.6,-1.55l-1.6,1.55l1.6,1.6l1.6,-1.6Z" style="fill:#f00;"/><path d="M21.85,13.05l-1.65,-1.55l-1.65,1.55l1.65,1.6l1.65,-1.6Z" style="fill:#f00;"/><path d="M18.65,8.2l-1.6,1.6l1.6,1.6l1.65,-1.6l-1.65,-1.6Z" style="fill:#f00;"/></g></svg>