<?xml version="1.0" encoding="UTF-8" standalone="no"?><!DOCTYPE svg PUBLIC "-//W3C//DTD SVG 1.1//EN" "http://www.w3.org/Graphics/SVG/1.1/DTD/svg11.dtd"><svg width="100%" height="100%" viewBox="0 0 38 37" version="1.1" xmlns="http://www.w3.org/2000/svg" xmlns:xlink="http://www.w3.org/1999/xlink" xml:space="preserve" xmlns:serif="http://www.serif.com/" style="fill-rule:evenodd;clip-rule:evenodd;stroke-linejoin:round;stroke-miterlimit:2;"><g><path d="M27.15,22.15c-1.367,-0 -2.05,-0.333 -2.05,-1c0,-0.067 0.033,-0.2 0.1,-0.4c0.067,-0.2 0.1,-0.333 0.1,-0.4c0,-0.3 -0.067,-0.617 -0.2,-0.95c-0.333,0.6 -0.65,1.2 -0.95,1.8c-0.467,0.667 -1.017,1 -1.65,1c-0.8,-0 -1.333,-0.217 -1.6,-0.65c0.2,-0.767 0.3,-1.483 0.3,-2.15c-0.467,0.667 -0.933,1.35 -1.4,2.05c-0.5,0.5 -1.3,0.75 -2.4,0.75c-0.933,-0 -1.617,-0.133 -2.05,-0.4c-0.467,-0.367 -0.7,-1 -0.7,-1.9c-0.767,0.967 -1.4,1.583 -1.9,1.85c-0.433,0.267 -1.083,0.4 -1.95,0.4l-1.75,-0l0,3.05l2.95,-0c0.467,-0 1.083,-0.367 1.85,-1.1c0.533,0.233 1.067,0.467 1.6,0.7c0.6,0.267 1.133,0.4 1.6,0.4c0.967,-0 1.933,-0.317 2.9,-0.95c0.367,0.2 0.75,0.4 1.15,0.6c0.467,0.233 0.867,0.35 1.2,0.35c0.567,-0 1.15,-0.317 1.75,-0.95c0.733,0.633 1.217,0.95 1.45,0.95l2.65,-0l-0,-3.05l-1,-0Z" style="fill:#f00;"/><path d="M18.5,15.45l1.65,-1.55l-1.65,-1.55l-1.6,1.5l1.6,1.6Z" style="fill:#f00;"/><path d="M20.15,13.9l1.6,1.55l1.65,-1.6l-1.65,-1.5l-1.6,1.55Z" style="fill:#f00;"/><path d="M20.25,9.05l-1.65,1.55l1.6,1.6l1.65,-1.6l-1.6,-1.55Z" style="fill:#f00;"/></g></svg>