<?xml version="1.0" encoding="UTF-8" standalone="no"?><!DOCTYPE svg PUBLIC "-//W3C//DTD SVG 1.1//EN" "http://www.w3.org/Graphics/SVG/1.1/DTD/svg11.dtd"><svg width="100%" height="100%" viewBox="0 0 42 37" version="1.1" xmlns="http://www.w3.org/2000/svg" xmlns:xlink="http://www.w3.org/1999/xlink" xml:space="preserve" xmlns:serif="http://www.serif.com/" style="fill-rule:evenodd;clip-rule:evenodd;stroke-linejoin:round;stroke-miterlimit:2;"><g><path d="M32.5,17.15c0,-0.167 -0.017,-0.333 -0.05,-0.5c-0.333,0.567 -0.667,1.15 -1,1.75c-0.467,0.7 -1,1.05 -1.6,1.05c-0.633,-0 -1.167,-0.25 -1.6,-0.75c0.2,-0.5 0.3,-1.183 0.3,-2.05c-0.5,0.7 -1,1.4 -1.5,2.1c-0.533,0.567 -1.35,0.85 -2.45,0.85c-0.7,0 -1.333,-0.217 -1.9,-0.65c-0.533,-0.433 -0.917,-0.983 -1.15,-1.65c-0.567,1.1 -1.033,1.917 -1.4,2.45c1.033,1.667 1.55,3.2 1.55,4.6c-0,0.7 -0.717,1.283 -2.15,1.75c-1.167,0.367 -2.217,0.55 -3.15,0.55c-3.267,-0 -4.9,-1.217 -4.9,-3.65c-0,-0.467 0.233,-1.55 0.7,-3.25c-0.533,0.467 -0.983,1.25 -1.35,2.35c-0.3,0.967 -0.45,1.883 -0.45,2.75c-0,1.7 0.317,2.933 0.95,3.7c0.733,0.867 1.95,1.3 3.65,1.3c2.467,0 4.35,-0.733 5.65,-2.2c1.067,-1.267 1.783,-3.133 2.15,-5.6c0.633,0.367 1.217,0.55 1.75,0.55c0.867,0 1.75,-0.317 2.65,-0.95c0.067,-0 0.467,0.15 1.2,0.45c0.533,0.233 0.9,0.35 1.1,0.35c0.6,-0 1.217,-0.317 1.85,-0.95c0.7,0.633 1.2,0.95 1.5,0.95l2.3,-0l-0,-3.05c-0.867,-0 -1.417,-0.017 -1.65,-0.05c-0.767,-0.1 -1.15,-0.35 -1.15,-0.75c0,-0.2 0.033,-0.45 0.1,-0.75c0.033,-0.333 0.05,-0.567 0.05,-0.7Z" style="fill:#f00;"/><path d="M30.2,11.05l-1.65,-1.5l-1.65,1.55l1.65,1.55l1.65,-1.6Z" style="fill:#f00;"/><path d="M25.3,9.55l-1.6,1.5l1.6,1.6l1.6,-1.55l-1.6,-1.55Z" style="fill:#f00;"/><path d="M28.65,7.8l-1.65,-1.55l-1.6,1.55l1.6,1.6l1.65,-1.6Z" style="fill:#f00;"/></g></svg>