<?xml version="1.0" encoding="UTF-8" standalone="no"?><!DOCTYPE svg PUBLIC "-//W3C//DTD SVG 1.1//EN" "http://www.w3.org/Graphics/SVG/1.1/DTD/svg11.dtd"><svg width="100%" height="100%" viewBox="0 0 91 72" version="1.1" xmlns="http://www.w3.org/2000/svg" xmlns:xlink="http://www.w3.org/1999/xlink" xml:space="preserve" xmlns:serif="http://www.serif.com/" style="fill-rule:evenodd;clip-rule:evenodd;stroke-linejoin:round;stroke-miterlimit:2;"><g><path d="M48.4,47l-1.25,0c-0.732,-0.022 -1.165,-0.055 -1.3,-0.1c-0.667,-0.133 -1.367,-0.617 -2.1,-1.45c-0.167,1.2 -0.417,2.25 -0.75,3.15c0.033,0.067 0.367,0.7 1,1.9c0.567,1 0.85,1.55 0.85,1.65c0,1.133 -1.1,2.6 -3.3,4.4c-2.1,1.733 -3.7,2.6 -4.8,2.6c-0.467,-0 -1.1,-0.117 -1.9,-0.35c-0.633,-0.167 -1.267,-0.35 -1.9,-0.55c0.833,1.1 1.783,1.983 2.85,2.65c1.233,0.8 2.383,1.2 3.45,1.2c1.5,0 3.017,-1.25 4.55,-3.75c1.367,-2.233 2.15,-4.317 2.35,-6.25c0.233,-0.167 0.533,-0.25 0.9,-0.25l1.35,0l-0,-4.85Z"/><path d="M78.8,44.25c-0,-0.8 -0.3,-2.6 -0.9,-5.4c-0.633,1.733 -1.15,3.017 -1.55,3.85c0.6,1.367 0.983,2.35 1.15,2.95c-0.612,0.887 -2.262,1.337 -4.95,1.35l-1.95,-0l0,4.85l1.25,0c0.25,-0.004 0.483,-0.021 0.7,-0.05c2.033,-0.099 3.516,-0.616 4.45,-1.55c1.2,-1.167 1.8,-3.167 1.8,-6Z"/><path d="M35.25,25.75l0.7,-4.05c-2.6,0.6 -5.683,2.217 -9.25,4.85c-4.1,3.067 -6.15,5.833 -6.15,8.3c-0,1.433 0.633,2.683 1.9,3.75c1.2,0.8 2.4,1.617 3.6,2.45c1.267,0.967 1.9,2.067 1.9,3.3c0,1.833 -2.2,2.75 -6.6,2.75c-0.5,0 -1.067,-0.017 -1.7,-0.05c-0.6,-0.033 -0.917,-0.05 -0.95,-0.05l0,0.2c-0.44,0.011 -0.89,-0.005 -1.35,-0.05c-0.367,-0.967 -0.75,-1.917 -1.15,-2.85c-0.6,-1.267 -1.2,-1.9 -1.8,-1.9c-0.767,-0 -1.567,0.917 -2.4,2.75c-0.767,1.7 -1.15,3.083 -1.15,4.15c0,1.3 0.55,2.117 1.65,2.45c1,0.167 2,0.333 3,0.5c-1.167,2.067 -2.4,3.567 -3.7,4.5c-1.433,1.067 -3.133,1.6 -5.1,1.6c-1.033,0 -2.55,-0.1 -4.55,-0.3c1.867,2.133 4.033,3.2 6.5,3.2c2.133,-0 3.95,-1.017 5.45,-3.05c1.033,-1.4 2.05,-3.517 3.05,-6.35l6.2,0c1.9,0 3.467,-0.833 4.7,-2.5c1.167,-1.6 1.75,-3.517 1.75,-5.75c-0,-1.6 -0.4,-3.05 -1.2,-4.35c-0.6,-1 -1.55,-2.017 -2.85,-3.05c-1.1,-0.833 -2.217,-1.683 -3.35,-2.55c0.867,-1 2.883,-2.417 6.05,-4.25c0.6,-0.333 2.867,-1.55 6.8,-3.65Zm-22.55,21.9c0.267,-0.567 0.517,-1.083 0.75,-1.55c0.633,0.333 1.05,0.633 1.25,0.9c0.133,0.267 0.267,0.817 0.4,1.65c-0.6,-0 -1.333,-0.083 -2.2,-0.25c-0,-0.367 -0.067,-0.617 -0.2,-0.75Z"/><path d="M71.95,31.8l2.2,2.5l2.15,-2.45l-2.15,-2.45l-2.2,2.4Z"/><path d="M76.3,31.85l2.15,2.45l2.2,-2.5l-2.2,-2.4l-2.15,2.45Z"/><path d="M62.25,17.85c-0.733,0 -1.283,0.383 -1.65,1.15c-0.333,0.6 -0.5,1.367 -0.5,2.3c0,1.433 0.55,2.15 1.65,2.15c0.667,-0 1.217,-0.3 1.65,-0.9c0.467,-0.6 0.7,-1.283 0.7,-2.05c0,-0.633 -0.167,-1.217 -0.5,-1.75c-0.367,-0.6 -0.817,-0.9 -1.35,-0.9Zm-0.7,1.55c0.267,-0 0.617,0.183 1.05,0.55c0.433,0.367 0.65,0.7 0.65,1c0,0.467 -0.4,0.7 -1.2,0.7c-0.967,-0 -1.45,-0.35 -1.45,-1.05c0,-0.8 0.317,-1.2 0.95,-1.2Z"/><path d="M20.9,19.7c-0,-1 -0.417,-1.5 -1.25,-1.5c-0.6,-0 -1.117,0.35 -1.55,1.05c-0.433,0.633 -0.65,1.233 -0.65,1.8c0,0.5 0.4,1.017 1.2,1.55c-1.4,1.167 -2.717,2.067 -3.95,2.7c0.433,0.133 0.783,0.2 1.05,0.2c1.033,0 2.25,-0.817 3.65,-2.45c0.567,0.367 1.067,0.65 1.5,0.85l0.15,-1.7c-0.333,-0.233 -0.583,-0.4 -0.75,-0.5c0.4,-0.833 0.6,-1.5 0.6,-2Zm-2.5,0.3c0.067,-0.167 0.183,-0.267 0.35,-0.3c0.667,0.1 1,0.433 1,1c-0,0.167 -0.033,0.35 -0.1,0.55c-0.833,-0.433 -1.25,-0.85 -1.25,-1.25Z"/><path d="M77.3,22.35l0.15,-1.7c-0.333,-0.233 -0.583,-0.4 -0.75,-0.5c0.4,-0.833 0.6,-1.5 0.6,-2c-0,-1 -0.417,-1.5 -1.25,-1.5c-0.6,-0 -1.117,0.35 -1.55,1.05c-0.433,0.633 -0.65,1.233 -0.65,1.8c0,0.5 0.4,1.017 1.2,1.55c-1.4,1.167 -2.717,2.067 -3.95,2.7c0.433,0.133 0.783,0.2 1.05,0.2c1.033,-0 2.25,-0.817 3.65,-2.45c0.567,0.367 1.067,0.65 1.5,0.85Zm-1.15,-3.2c-0,0.167 -0.033,0.35 -0.1,0.55c-0.833,-0.433 -1.25,-0.85 -1.25,-1.25c0.067,-0.167 0.183,-0.267 0.35,-0.3c0.667,0.1 1,0.433 1,1Z"/><path d="M71.85,51.85l0.7,0l-0,-0.05c-0.217,0.029 -0.45,0.046 -0.7,0.05Z" style="fill:#f00;"/><path d="M49.45,47l-1.05,0l-0,4.85l2.65,0c0.633,0 1.45,-0.567 2.45,-1.7c0.7,0.367 1.4,0.733 2.1,1.1c0.833,0.4 1.567,0.6 2.2,0.6c1.233,0 2.5,-0.5 3.8,-1.5c0.5,0.333 1.017,0.65 1.55,0.95c0.633,0.367 1.167,0.55 1.6,0.55c0.767,0 1.55,-0.5 2.35,-1.5c0.967,1 1.6,1.5 1.9,1.5l1.6,0l0,-4.85l0.35,0c-1.667,-0.043 -2.5,-0.56 -2.5,-1.55c0,-0.1 0.05,-0.3 0.15,-0.6c0.1,-0.333 0.15,-0.567 0.15,-0.7c0,-0.433 -0.1,-0.933 -0.3,-1.5c-0.433,0.967 -0.85,1.933 -1.25,2.9c-0.6,1.067 -1.317,1.6 -2.15,1.6c-1.067,-0 -1.783,-0.367 -2.15,-1.1c0.233,-1.167 0.35,-2.3 0.35,-3.4c-0.6,1.1 -1.2,2.183 -1.8,3.25c-0.667,0.833 -1.733,1.25 -3.2,1.25c-1.267,-0 -2.183,-0.233 -2.75,-0.7c-0.633,-0.533 -0.95,-1.517 -0.95,-2.95c-1.033,1.533 -1.867,2.517 -2.5,2.95c-0.6,0.367 -1.467,0.55 -2.6,0.55Z" style="fill:#f00;"/><path d="M61.9,34l-2.2,-2.5l-2.15,2.45l2.15,2.5l2.2,-2.45Z" style="fill:#f00;"/><path d="M64.05,31.5l-2.15,2.5l2.15,2.45l2.15,-2.5l-2.15,-2.45Z" style="fill:#f00;"/><path d="M59.85,28.75l2.15,2.55l2.15,-2.55l-2.15,-2.45l-2.15,2.45Z" style="fill:#f00;"/><path d="M41.704,62.697l-4.7,3.5c-0.664,0.494 -0.802,1.435 -0.307,2.099c0.494,0.664 1.435,0.802 2.099,0.307l4.7,-3.5c0.664,-0.494 0.802,-1.435 0.307,-2.099c-0.494,-0.664 -1.435,-0.802 -2.099,-0.307Z"/></g></svg>