<?xml version="1.0" encoding="UTF-8" standalone="no"?><!DOCTYPE svg PUBLIC "-//W3C//DTD SVG 1.1//EN" "http://www.w3.org/Graphics/SVG/1.1/DTD/svg11.dtd"><svg width="100%" height="100%" viewBox="0 0 91 64" version="1.1" xmlns="http://www.w3.org/2000/svg" xmlns:xlink="http://www.w3.org/1999/xlink" xml:space="preserve" xmlns:serif="http://www.serif.com/" style="fill-rule:evenodd;clip-rule:evenodd;stroke-linejoin:round;stroke-miterlimit:2;"><g><path d="M51.45,15.3c0.133,-0.4 0.183,-0.7 0.15,-0.9l0,-0.55c-1.267,0.967 -2.267,2.633 -3,5c0.1,0.633 0.533,1.45 1.3,2.45c0.5,3.533 0.75,8.85 0.75,15.95c-0,1.367 -1.117,2.017 -3.35,1.95l-0.2,-0l0,-0.05l-2.05,-0l-0,0.1c-0.833,0.033 -1.4,0.05 -1.7,0.05c-1.1,0 -1.883,-0.25 -2.35,-0.75c-0.533,-0.6 -0.833,-1.733 -0.9,-3.4c-1,1.9 -1.667,3.033 -2,3.4c-0.467,0.467 -1.217,0.7 -2.25,0.7c-0.2,-0 -0.717,-0.017 -1.55,-0.05c-0.118,-0.005 -0.235,-0.005 -0.35,-0l0,-0.05l-2.4,-0c-0.9,-0.167 -1.55,-0.6 -1.95,-1.3c-0.933,-1.633 -1.4,-9.35 -1.4,-23.15c-0.433,0.4 -0.933,1.05 -1.5,1.95c-0.667,1.033 -0.983,1.767 -0.95,2.2c0.2,2.733 0.4,5.45 0.6,8.15c0.233,3.3 0.35,6.017 0.35,8.15c0,1.4 -1.15,2.733 -3.45,4c-2,1.1 -3.7,1.65 -5.1,1.65c-5.567,0 -8.35,-1.6 -8.35,-4.8c-0,-1.333 0.25,-2.867 0.75,-4.6c-0.767,0.4 -1.433,1.483 -2,3.25c-0.5,1.567 -0.75,2.933 -0.75,4.1c-0,2.233 0.783,3.9 2.35,5c1.3,0.9 2.983,1.35 5.05,1.35c2,0 4.15,-0.533 6.45,-1.6c2.567,-1.133 4.383,-2.533 5.45,-4.2c0.7,1.467 1.2,2.433 1.5,2.9c0.8,1.2 1.583,1.8 2.35,1.8l4.85,-0c0.833,-0 1.5,-0.35 2,-1.05c0.067,-0.1 0.467,-0.85 1.2,-2.25c0.367,0.7 0.883,1.4 1.55,2.1c0.8,0.8 1.483,1.2 2.05,1.2l5.65,-0c1.6,-0 2.75,-1 3.45,-3c0.533,-1.433 0.8,-3.217 0.8,-5.35l0,-4.5c0,-0.833 -0.067,-2.067 -0.2,-3.7c-0.167,-1.6 -0.25,-2.817 -0.25,-3.65c-0,-0.4 0.2,-1.067 0.6,-2c0.4,-0.933 0.6,-1.7 0.6,-2.3c0,-0.233 -0.317,-0.717 -0.95,-1.45c-0.667,-0.733 -1,-1.383 -1,-1.95c-0,-0.167 0.05,-0.433 0.15,-0.8Z"/><path d="M74.8,14.3c-1.5,2.233 -2.25,3.583 -2.25,4.05l0.55,25.7c1.233,-1.167 1.85,-4.283 1.85,-9.35l-0.15,-20.4Z"/><path d="M61.85,34.8c-0.667,1.5 -1,2.817 -1,3.95c0,1.933 0.667,2.9 2,2.9c1,-0 1.95,-0.65 2.85,-1.95c0.233,0.6 0.35,1.15 0.35,1.65c-0,2.8 -1.75,5.033 -5.25,6.7c-2.7,1.3 -5.45,1.95 -8.25,1.95c1.367,0.633 2.3,1.033 2.8,1.2c0.967,0.333 1.967,0.5 3,0.5c2.867,-0 5.1,-1.367 6.7,-4.1c1.4,-2.367 2.1,-5.283 2.1,-8.75c-0,-1.367 -0.2,-2.7 -0.6,-4c-0.567,-1.733 -1.35,-2.6 -2.35,-2.6c-0.833,-0 -1.617,0.85 -2.35,2.55Zm2.9,2.8c0,0.267 -0.15,0.517 -0.45,0.75c-0.3,0.2 -0.583,0.3 -0.85,0.3l-1.1,-0.65c0.3,-0.867 0.617,-1.65 0.95,-2.35c0.967,0.533 1.45,1.183 1.45,1.95Z"/><path d="M20.95,25.3c-0.233,-0.3 -0.483,-0.45 -0.75,-0.45c-0.533,0 -1.333,0.95 -2.4,2.85c-1,1.833 -1.5,3.083 -1.5,3.75c-0,0.667 0.467,1.017 1.4,1.05c1.167,0 1.933,0.233 2.3,0.7c-0.867,1 -1.8,1.5 -2.8,1.5c-0.467,-0 -1.017,-0.067 -1.65,-0.2c0.4,0.6 0.717,0.983 0.95,1.15c0.3,0.2 0.767,0.3 1.4,0.3c0.967,-0 1.733,-0.267 2.3,-0.8c0.633,-0.567 0.95,-1.4 0.95,-2.5c-0,-1.067 -0.583,-1.733 -1.75,-2c-1.133,-0.267 -1.7,-0.5 -1.7,-0.7c0,-0.367 0.2,-0.783 0.6,-1.25c0.433,-0.5 0.817,-0.75 1.15,-0.75c0.233,-0 0.483,0.117 0.75,0.35c0.733,-0.433 1.1,-1.117 1.1,-2.05c-0,-0.3 -0.117,-0.617 -0.35,-0.95Z"/><path d="M39.9,20.5c0.167,0 0.4,0.067 0.7,0.2c0.3,0.1 0.533,0.15 0.7,0.15c0.333,0 0.5,-0.367 0.5,-1.1c-0,-0.3 -0.1,-0.567 -0.3,-0.8c-0.2,-0.267 -0.433,-0.4 -0.7,-0.4c-0.5,0 -1.283,0.5 -2.35,1.5c-1.067,1 -1.6,1.783 -1.6,2.35c0,0.2 0.117,0.55 0.35,1.05c0.267,0.467 0.4,0.833 0.4,1.1c0,0.133 -0.033,0.35 -0.1,0.65c-0.1,0.3 -0.15,0.533 -0.15,0.7c0,0.133 0.017,0.333 0.05,0.6c1.467,-1.333 2.733,-2 3.8,-2c0.9,0 1.367,-0.033 1.4,-0.1c0.267,-0.433 0.517,-0.883 0.75,-1.35c-0.233,0 -0.583,0.017 -1.05,0.05l-1.05,0c-1.233,0 -2.217,-0.3 -2.95,-0.9c0.4,-1.133 0.933,-1.7 1.6,-1.7Z"/><path d="M53.8,12.3c0.367,1.067 0.55,1.867 0.55,2.4c0,0.333 -0.05,0.633 -0.15,0.9c0.833,-0.467 1.25,-1.083 1.25,-1.85c0,-0.6 -0.183,-1.5 -0.55,-2.7c-0.333,-1.167 -0.5,-2.033 -0.5,-2.6c-0.767,0.533 -1.15,1.033 -1.15,1.5c-0,0.533 0.183,1.317 0.55,2.35Z"/><path d="M45.05,6.6c0.567,0.2 1.283,0.3 2.15,0.3c0.933,-0 2.083,-0.433 3.45,-1.3c1.533,-0.933 2.3,-1.883 2.3,-2.85c-1.567,0.9 -2.4,1.383 -2.5,1.45c-1,0.5 -1.9,0.75 -2.7,0.75c-1.567,-0 -3.033,-0.567 -4.4,-1.7c-1.133,1.933 -1.917,3.65 -2.35,5.15c0.367,-0.267 0.75,-0.7 1.15,-1.3c0.433,-0.733 0.767,-1.2 1,-1.4c1.067,0.533 1.7,0.833 1.9,0.9Z"/><path d="M71.9,6.95c-0,0.5 0.4,1.017 1.2,1.55c-1.4,1.167 -2.717,2.067 -3.95,2.7c0.433,0.133 0.783,0.2 1.05,0.2c1.033,-0 2.25,-0.817 3.65,-2.45c0.567,0.367 1.067,0.65 1.5,0.85l0.15,-1.7c-0.333,-0.233 -0.583,-0.4 -0.75,-0.5c0.4,-0.833 0.6,-1.5 0.6,-2c0,-1 -0.417,-1.5 -1.25,-1.5c-0.6,0 -1.117,0.35 -1.55,1.05c-0.433,0.633 -0.65,1.233 -0.65,1.8Zm2.3,-0.35c0,0.167 -0.033,0.35 -0.1,0.55c-0.833,-0.433 -1.25,-0.85 -1.25,-1.25c0.067,-0.167 0.183,-0.267 0.35,-0.3c0.667,0.1 1,0.433 1,1Z"/><path d="M40.01,48.242l-4.75,3.5c-0.666,0.492 -0.809,1.431 -0.318,2.098c0.492,0.666 1.431,0.809 2.098,0.318l4.75,-3.5c0.666,-0.492 0.809,-1.431 0.318,-2.098c-0.492,-0.666 -1.431,-0.809 -2.098,-0.318Z"/><path d="M19.204,8.147l-4.7,3.5c-0.664,0.494 -0.802,1.435 -0.307,2.099c0.494,0.664 1.435,0.802 2.099,0.307l4.7,-3.5c0.664,-0.494 0.802,-1.435 0.307,-2.099c-0.494,-0.664 -1.435,-0.802 -2.099,-0.307Z"/></g></svg>