<?xml version="1.0" encoding="UTF-8" standalone="no"?><!DOCTYPE svg PUBLIC "-//W3C//DTD SVG 1.1//EN" "http://www.w3.org/Graphics/SVG/1.1/DTD/svg11.dtd"><svg width="100%" height="100%" viewBox="0 0 79 64" version="1.1" xmlns="http://www.w3.org/2000/svg" xmlns:xlink="http://www.w3.org/1999/xlink" xml:space="preserve" xmlns:serif="http://www.serif.com/" style="fill-rule:evenodd;clip-rule:evenodd;stroke-linejoin:round;stroke-miterlimit:2;"><g><path d="M53.2,21.8c0.4,-0.933 0.6,-1.7 0.6,-2.3c-0,-0.233 -0.317,-0.717 -0.95,-1.45c-0.667,-0.733 -1,-1.383 -1,-1.95c0,-0.167 0.05,-0.433 0.15,-0.8c0.133,-0.4 0.183,-0.7 0.15,-0.9l-0,-0.55c-1.267,0.967 -2.267,2.633 -3,5c0.1,0.633 0.533,1.45 1.3,2.45c0.5,3.533 0.75,8.85 0.75,15.95c0,1.367 -1.117,2.017 -3.35,1.95l-0.5,-0l0,-0.05c-1.533,-0 -2.517,-0.05 -2.95,-0.15c-0.033,-0.033 -2.667,-2.133 -7.9,-6.3c-5.5,-4.333 -8.75,-6.85 -9.75,-7.55c1.6,-1.633 3.933,-3.333 7,-5.1c2.467,-1.4 4.95,-2.817 7.45,-4.25c0.367,-1.733 0.617,-3.033 0.75,-3.9c-1.6,0.6 -4.383,2.15 -8.35,4.65c-4.4,2.733 -6.817,4.6 -7.25,5.6c-0.367,0.833 -0.55,2.05 -0.55,3.65c-0,1.433 0.633,2.783 1.9,4.05c1.167,1 2.333,2 3.5,3c1.233,1.1 1.85,2.133 1.85,3.1c-0,2.167 -2.183,3.25 -6.55,3.25l-1.3,-0c-0.5,-0.033 -0.8,-0.05 -0.9,-0.05l-0,0.05l-0.8,-0c-0.933,-0 -1.617,-0.167 -2.05,-0.5c-0.4,-0.3 -1.067,-1.1 -2,-2.4l-1.6,3.5c0.833,1.533 1.333,2.533 1.5,3c0.433,1.033 0.65,2.117 0.65,3.25c0,1.567 -0.8,2.733 -2.4,3.5c-1.233,0.567 -2.633,0.85 -4.2,0.85c-4.133,-0 -6.2,-1.867 -6.2,-5.6c0,-0.667 0.3,-2.317 0.9,-4.95c-0.733,0.367 -1.35,1.533 -1.85,3.5c-0.467,1.633 -0.7,3.067 -0.7,4.3c-0,4.9 2.133,7.35 6.4,7.35c2.867,-0 5.2,-1 7,-3c1.767,-2.033 2.65,-4.7 2.65,-8l6.6,-0c2.033,-0 3.617,-1.05 4.75,-3.15c0.7,-1.2 1.417,-3.283 2.15,-6.25c5.233,6.267 8.267,9.4 9.1,9.4l4.6,-0c1.6,-0 2.75,-1 3.45,-3c0.533,-1.433 0.8,-3.217 0.8,-5.35l-0,-4.5c-0,-0.833 -0.067,-2.067 -0.2,-3.7c-0.167,-1.6 -0.25,-2.817 -0.25,-3.65c0,-0.4 0.2,-1.067 0.6,-2Z"/><path d="M67.7,38.85c0,-1.367 -0.2,-2.7 -0.6,-4c-0.567,-1.733 -1.35,-2.6 -2.35,-2.6c-0.833,0 -1.617,0.85 -2.35,2.55c-0.667,1.5 -1,2.817 -1,3.95c-0,1.933 0.667,2.9 2,2.9c1,-0 1.95,-0.65 2.85,-1.95c0.233,0.6 0.35,1.15 0.35,1.65c0,2.8 -1.75,5.033 -5.25,6.7c-2.7,1.3 -5.45,1.95 -8.25,1.95c1.367,0.633 2.3,1.033 2.8,1.2c0.967,0.333 1.967,0.5 3,0.5c2.867,-0 5.1,-1.367 6.7,-4.1c1.4,-2.367 2.1,-5.283 2.1,-8.75Zm-2.4,-1.25c-0,0.267 -0.15,0.517 -0.45,0.75c-0.3,0.2 -0.583,0.3 -0.85,0.3l-1.1,-0.65c0.3,-0.867 0.617,-1.65 0.95,-2.35c0.967,0.533 1.45,1.183 1.45,1.95Z"/><path d="M13.55,35.15l2.45,-2.8l-2.45,-2.85l-2.5,2.85l2.5,2.8Z"/><path d="M13.7,21.7c0.467,-0.6 0.7,-1.283 0.7,-2.05c-0,-0.633 -0.167,-1.217 -0.5,-1.75c-0.367,-0.6 -0.817,-0.9 -1.35,-0.9c-0.733,0 -1.283,0.383 -1.65,1.15c-0.333,0.6 -0.5,1.367 -0.5,2.3c-0,1.433 0.55,2.15 1.65,2.15c0.667,0 1.217,-0.3 1.65,-0.9Zm-0.8,-2.6c0.433,0.367 0.65,0.7 0.65,1c-0,0.467 -0.4,0.7 -1.2,0.7c-0.967,0 -1.45,-0.35 -1.45,-1.05c-0,-0.8 0.317,-1.2 0.95,-1.2c0.267,0 0.617,0.183 1.05,0.55Z"/><path d="M54,14.8c0.833,-0.467 1.25,-1.083 1.25,-1.85c0,-0.6 -0.183,-1.5 -0.55,-2.7c-0.333,-1.167 -0.5,-2.033 -0.5,-2.6c-0.767,0.533 -1.15,1.033 -1.15,1.5c-0,0.533 0.183,1.317 0.55,2.35c0.367,1.067 0.55,1.867 0.55,2.4c-0,0.333 -0.05,0.633 -0.15,0.9Z"/><path d="M32.154,48.997l-4.7,3.5c-0.664,0.494 -0.802,1.435 -0.307,2.099c0.494,0.664 1.435,0.802 2.099,0.307l4.7,-3.5c0.664,-0.494 0.802,-1.435 0.307,-2.099c-0.494,-0.664 -1.435,-0.802 -2.099,-0.307Z"/><path d="M64.91,10.842l-4.75,3.5c-0.666,0.492 -0.809,1.431 -0.318,2.098c0.492,0.666 1.431,0.809 2.098,0.318l4.75,-3.5c0.666,-0.492 0.809,-1.431 0.318,-2.098c-0.492,-0.666 -1.431,-0.809 -2.098,-0.318Z"/></g></svg>