<?xml version="1.0" encoding="UTF-8" standalone="no"?><!DOCTYPE svg PUBLIC "-//W3C//DTD SVG 1.1//EN" "http://www.w3.org/Graphics/SVG/1.1/DTD/svg11.dtd"><svg width="100%" height="100%" viewBox="0 0 79 64" version="1.1" xmlns="http://www.w3.org/2000/svg" xmlns:xlink="http://www.w3.org/1999/xlink" xml:space="preserve" xmlns:serif="http://www.serif.com/" style="fill-rule:evenodd;clip-rule:evenodd;stroke-linejoin:round;stroke-miterlimit:2;"><g><path d="M49.55,37.6c-0,-0.8 -0.3,-2.6 -0.9,-5.4c-0.633,1.733 -1.15,3.017 -1.55,3.85c0.6,1.367 0.983,2.35 1.15,2.95c-0.645,0.935 -2.445,1.385 -5.4,1.35l-1.2,0c-0.762,-0.02 -1.212,-0.054 -1.35,-0.1c-0.667,-0.133 -1.367,-0.617 -2.1,-1.45c-0.167,1.2 -0.417,2.25 -0.75,3.15c0.033,0.067 0.367,0.7 1,1.9c0.567,1 0.85,1.55 0.85,1.65c-0,1.133 -1.1,2.6 -3.3,4.4c-2.1,1.733 -3.7,2.6 -4.8,2.6c-0.467,0 -1.1,-0.117 -1.9,-0.35c-0.633,-0.167 -1.267,-0.35 -1.9,-0.55c0.833,1.1 1.783,1.983 2.85,2.65c1.233,0.8 2.383,1.2 3.45,1.2c1.5,-0 3.017,-1.25 4.55,-3.75c1.367,-2.233 2.15,-4.317 2.35,-6.25c0.201,-0.143 0.451,-0.227 0.75,-0.25l1.5,-0c2.265,-0.065 3.898,-0.598 4.9,-1.6c1.2,-1.167 1.8,-3.167 1.8,-6Z"/><path d="M8.95,43.6c0,-1.167 0.3,-2.967 0.9,-5.4c-0.767,0.4 -1.433,1.533 -2,3.4c-0.5,1.633 -0.75,3.05 -0.75,4.25c-0,2.8 0.583,4.95 1.75,6.45c1.233,1.533 3.05,2.3 5.45,2.3c2.533,0 5.233,-0.95 8.1,-2.85c3.3,-2.167 4.95,-4.6 4.95,-7.3c-0,-1.333 -0.667,-2.25 -2,-2.75c-1.2,-0.267 -2.417,-0.517 -3.65,-0.75c-1.3,-0.3 -1.95,-0.9 -1.95,-1.8c0,-0.9 0.7,-2 2.1,-3.3c1.233,-1.1 2.333,-1.817 3.3,-2.15c0.4,0.2 0.667,0.367 0.8,0.5c0.067,0.067 0.283,0.333 0.65,0.8c0.3,-0.667 0.583,-1.317 0.85,-1.95c0.3,-0.8 0.45,-1.517 0.45,-2.15c0,-0.333 -0.1,-0.733 -0.3,-1.2l-0.75,-0.5c-1.767,-0 -3.667,1.533 -5.7,4.6c-1.933,2.933 -2.9,5.467 -2.9,7.6c-0,1.267 0.417,2.2 1.25,2.8c0.633,0.467 1.567,0.767 2.8,0.9c1,0.033 2,0.067 3,0.1c-0.567,1.267 -2.1,2.4 -4.6,3.4c-2.167,0.9 -4,1.35 -5.5,1.35c-4.167,-0 -6.25,-2.117 -6.25,-6.35Z"/><path d="M49,51.2c1.367,0.633 2.3,1.033 2.8,1.2c0.967,0.333 1.967,0.5 3,0.5c2.867,-0 5.1,-1.367 6.7,-4.1c1.4,-2.367 2.1,-5.283 2.1,-8.75c-0,-1.367 -0.2,-2.7 -0.6,-4c-0.567,-1.733 -1.35,-2.6 -2.35,-2.6c-0.833,-0 -1.617,0.85 -2.35,2.55c-0.667,1.5 -1,2.817 -1,3.95c-0,1.933 0.667,2.9 2,2.9c1,0 1.95,-0.65 2.85,-1.95c0.233,0.6 0.35,1.15 0.35,1.65c0,2.8 -1.75,5.033 -5.25,6.7c-2.7,1.3 -5.45,1.95 -8.25,1.95Zm10.75,-14.35c0.967,0.533 1.45,1.183 1.45,1.95c0,0.267 -0.15,0.517 -0.45,0.75c-0.3,0.2 -0.583,0.3 -0.85,0.3l-1.1,-0.65c0.3,-0.867 0.617,-1.65 0.95,-2.35Z"/><path d="M44.9,27.65l2.15,-2.45l-2.15,-2.45l-2.2,2.4l2.2,2.5Z"/><path d="M47.05,25.2l2.15,2.45l2.2,-2.5l-2.2,-2.4l-2.15,2.45Z"/><path d="M46.146,10.103l-4.7,3.55c-0.661,0.499 -0.792,1.44 -0.293,2.101c0.499,0.661 1.44,0.792 2.101,0.293l4.7,-3.55c0.661,-0.499 0.792,-1.44 0.293,-2.101c-0.499,-0.661 -1.44,-0.792 -2.101,-0.293Z"/><path d="M29.596,10.103l-4.7,3.55c-0.661,0.499 -0.792,1.44 -0.293,2.101c0.499,0.661 1.44,0.792 2.101,0.293l4.7,-3.55c0.661,-0.499 0.792,-1.44 0.293,-2.101c-0.499,-0.661 -1.44,-0.792 -2.101,-0.293Z"/><path d="M60.352,10.098l-4.75,3.55c-0.663,0.496 -0.799,1.437 -0.304,2.1c0.496,0.663 1.437,0.799 2.1,0.304l4.75,-3.55c0.663,-0.496 0.799,-1.437 0.304,-2.1c-0.496,-0.663 -1.437,-0.799 -2.1,-0.304Z"/></g></svg>