<?xml version="1.0" encoding="UTF-8" standalone="no"?><!DOCTYPE svg PUBLIC "-//W3C//DTD SVG 1.1//EN" "http://www.w3.org/Graphics/SVG/1.1/DTD/svg11.dtd"><svg width="100%" height="100%" viewBox="0 0 61 92" version="1.1" xmlns="http://www.w3.org/2000/svg" xmlns:xlink="http://www.w3.org/1999/xlink" xml:space="preserve" xmlns:serif="http://www.serif.com/" style="fill-rule:evenodd;clip-rule:evenodd;stroke-linejoin:round;stroke-miterlimit:2;"><g><path d="M49.7,27.85c-1.567,2.233 -2.333,3.567 -2.3,4l0.55,25.55c1.267,-1.167 1.9,-4.267 1.9,-9.3l-0.15,-20.25Z"/><path d="M29.95,25.1c0,-0.633 -0.167,-1.217 -0.5,-1.75c-0.4,-0.567 -0.883,-0.85 -1.45,-0.85c-0.767,0 -1.333,0.367 -1.7,1.1c-0.333,0.633 -0.5,1.4 -0.5,2.3c-0,1.433 0.567,2.15 1.7,2.15c0.667,0 1.25,-0.3 1.75,-0.9c0.467,-0.6 0.7,-1.283 0.7,-2.05Zm-1.6,-0.55c0.467,0.367 0.7,0.7 0.7,1c-0,0.467 -0.417,0.7 -1.25,0.7c-1,0 -1.5,-0.35 -1.5,-1.05c-0,-0.767 0.333,-1.15 1,-1.15c0.267,0 0.617,0.167 1.05,0.5Z"/><path d="M24.05,52.65c-1.033,0 -1.85,-0.317 -2.45,-0.95c-0.333,-0.367 -0.8,-1.183 -1.4,-2.45c-0.567,1.4 -0.95,2.583 -1.15,3.55c0.8,1.967 1.25,3.117 1.35,3.45c0.4,1.267 0.6,2.517 0.6,3.75c-0,1.133 -0.95,2.067 -2.85,2.8c-1.5,0.6 -2.883,0.9 -4.15,0.9c-2.067,0 -3.617,-0.35 -4.65,-1.05c-1.3,-0.9 -1.95,-2.417 -1.95,-4.55c-0,-0.633 0.117,-1.5 0.35,-2.6c0.233,-0.867 0.45,-1.733 0.65,-2.6c-0.7,0.767 -1.3,2.017 -1.8,3.75c-0.5,1.6 -0.75,3 -0.75,4.2c0,5.033 2.2,7.55 6.6,7.55c2.933,0 5.267,-1.05 7,-3.15c1.633,-1.967 2.583,-4.6 2.85,-7.9c4.833,0 8.883,-0.583 12.15,-1.75c5.1,-1.8 7.65,-4.867 7.65,-9.2c0,-1.133 -0.35,-2.067 -1.05,-2.8c-0.733,-0.733 -1.6,-1.1 -2.6,-1.1c-1.567,0 -3.5,0.883 -5.8,2.65c-1.3,0.967 -3.117,2.6 -5.45,4.9c-1.8,1.733 -2.85,2.6 -3.15,2.6Zm15.15,-3.6c0,0.833 -1.167,1.65 -3.5,2.45c-2.033,0.633 -3.617,0.95 -4.75,0.95l-4.4,0c0.967,-1.067 2.267,-2.217 3.9,-3.45c2,-1.533 3.467,-2.3 4.4,-2.3c0.6,0 1.433,0.25 2.5,0.75c1.233,0.533 1.85,1.067 1.85,1.6Z" style="fill:#f00;"/><path d="M25.7,37.8l2.6,2.8l2.55,-2.8l-2.55,-2.8l-2.6,2.8Z" style="fill:#f00;"/><path d="M50.128,20.579l-4.9,3.5c-0.674,0.482 -0.83,1.419 -0.349,2.093c0.482,0.674 1.419,0.83 2.093,0.349l4.9,-3.5c0.674,-0.482 0.83,-1.419 0.349,-2.093c-0.482,-0.674 -1.419,-0.83 -2.093,-0.349Z"/></g></svg>