<?xml version="1.0" encoding="UTF-8" standalone="no"?><!DOCTYPE svg PUBLIC "-//W3C//DTD SVG 1.1//EN" "http://www.w3.org/Graphics/SVG/1.1/DTD/svg11.dtd"><svg width="100%" height="100%" viewBox="0 0 76 82" version="1.1" xmlns="http://www.w3.org/2000/svg" xmlns:xlink="http://www.w3.org/1999/xlink" xml:space="preserve" xmlns:serif="http://www.serif.com/" style="fill-rule:evenodd;clip-rule:evenodd;stroke-linejoin:round;stroke-miterlimit:2;"><g><path d="M21.8,64.15l2.6,-2.8l-2.6,-2.8l-2.55,2.8l2.55,2.8Z"/><path d="M5.1,60.9c-0.467,-0 -1.117,-0.117 -1.95,-0.35c-0.667,-0.167 -1.317,-0.35 -1.95,-0.55c0.833,1.067 1.8,1.95 2.9,2.65c1.267,0.8 2.467,1.2 3.6,1.2c1.567,0 3.133,-1.25 4.7,-3.75c1.433,-2.233 2.25,-4.3 2.45,-6.2c0.212,-0.151 0.478,-0.235 0.8,-0.25l2.65,-0c0.833,-0 1.517,-0.35 2.05,-1.05c0.167,-0.2 0.583,-0.95 1.25,-2.25c0.833,1.4 1.283,2.133 1.35,2.2c0.567,0.733 1.233,1.1 2,1.1l3,-0l0,-4.8c-2.2,0 -3.517,-0.117 -3.95,-0.35c-0.8,-0.433 -1.2,-1.7 -1.2,-3.8c-0.667,0.567 -1.117,1.3 -1.35,2.2c-0.2,0.733 -0.533,1.217 -1,1.45c-0.65,0.283 -1.9,0.449 -3.75,0.5l-0.75,0c-0.801,-0.019 -1.285,-0.053 -1.45,-0.1c-0.667,-0.133 -1.383,-0.617 -2.15,-1.45c-0.167,1.2 -0.417,2.25 -0.75,3.15c0,0.033 0.35,0.65 1.05,1.85c0.567,1 0.85,1.55 0.85,1.65c-0,1.133 -1.133,2.583 -3.4,4.35c-2.2,1.733 -3.867,2.6 -5,2.6Z"/><path d="M60.95,24.15c-1.567,2.233 -2.333,3.567 -2.3,4l0.55,25.55c1.267,-1.167 1.9,-4.267 1.9,-9.3l-0.15,-20.25Z"/><path d="M43.7,24.3c0,-0.633 -0.167,-1.217 -0.5,-1.75c-0.4,-0.567 -0.883,-0.85 -1.45,-0.85c-0.767,-0 -1.333,0.367 -1.7,1.1c-0.333,0.633 -0.5,1.4 -0.5,2.3c-0,1.433 0.567,2.15 1.7,2.15c0.667,0 1.25,-0.3 1.75,-0.9c0.467,-0.6 0.7,-1.283 0.7,-2.05Zm-3.65,0.1c-0,-0.767 0.333,-1.15 1,-1.15c0.267,-0 0.617,0.167 1.05,0.5c0.467,0.367 0.7,0.7 0.7,1c-0,0.467 -0.417,0.7 -1.25,0.7c-1,-0 -1.5,-0.35 -1.5,-1.05Z"/><path d="M53.5,41.15c-0.7,-0.867 -1.5,-1.3 -2.4,-1.3c-1.4,0 -3.167,0.667 -5.3,2c-1.333,0.867 -3.183,2.283 -5.55,4.25c-2.4,1.967 -4,3.217 -4.8,3.75c-0.9,0 -1.733,-0.333 -2.5,-1c-0.733,-0.667 -1.233,-1.467 -1.5,-2.4c-0.4,0.9 -0.75,1.517 -1.05,1.85c-0.433,0.433 -1.033,0.633 -1.8,0.6l-0.65,-0.05l0,4.75c0.67,-0.049 1.104,-0.132 1.3,-0.25c0.267,-0.167 0.85,-0.967 1.75,-2.4c1.033,1.367 2.15,2.25 3.35,2.65c0.867,0.3 2.267,0.45 4.2,0.45c3.3,0 6.583,-0.783 9.85,-2.35c4.067,-2 6.1,-4.6 6.1,-7.8c-0,-1 -0.333,-1.917 -1,-2.75Zm-10.55,8.7l-5,0c4.3,-3.833 7.45,-5.75 9.45,-5.75c0.567,0 1.367,0.233 2.4,0.7c1.2,0.467 1.8,0.95 1.8,1.45c-0,0.767 -1.25,1.583 -3.75,2.45c-2.167,0.767 -3.8,1.15 -4.9,1.15Z" style="fill:#f00;"/><path d="M12.178,22.479l-4.9,3.5c-0.674,0.482 -0.83,1.419 -0.349,2.093c0.482,0.674 1.419,0.83 2.093,0.349l4.9,-3.5c0.674,-0.482 0.83,-1.419 0.349,-2.093c-0.482,-0.674 -1.419,-0.83 -2.093,-0.349Z"/><path d="M23.336,21.724l-4.9,3.45c-0.676,0.476 -0.839,1.413 -0.362,2.09c0.476,0.676 1.413,0.839 2.09,0.362l4.9,-3.45c0.676,-0.476 0.839,-1.413 0.362,-2.09c-0.476,-0.676 -1.413,-0.839 -2.09,-0.362Z"/><path d="M61.436,16.274l-4.9,3.45c-0.676,0.476 -0.839,1.413 -0.362,2.09c0.476,0.676 1.413,0.839 2.09,0.362l4.9,-3.45c0.676,-0.476 0.839,-1.413 0.362,-2.09c-0.476,-0.676 -1.413,-0.839 -2.09,-0.362Z"/></g></svg>