<?xml version="1.0" encoding="UTF-8" standalone="no"?><!DOCTYPE svg PUBLIC "-//W3C//DTD SVG 1.1//EN" "http://www.w3.org/Graphics/SVG/1.1/DTD/svg11.dtd"><svg width="100%" height="100%" viewBox="0 0 46 39" version="1.1" xmlns="http://www.w3.org/2000/svg" xmlns:xlink="http://www.w3.org/1999/xlink" xml:space="preserve" xmlns:serif="http://www.serif.com/" style="fill-rule:evenodd;clip-rule:evenodd;stroke-linejoin:round;stroke-miterlimit:2;"><g><path d="M13.85,18.9c-0.367,0.433 -0.683,1.167 -0.95,2.2c-0.233,0.933 -0.35,1.75 -0.35,2.45c-0,2.967 1.133,4.45 3.4,4.45c1.533,0 2.75,-0.617 3.65,-1.85c0.867,-1.167 1.367,-2.717 1.5,-4.65c2.533,0 4.65,-0.333 6.35,-1c2.667,-1.1 4,-2.917 4,-5.45c0,-0.667 -0.183,-1.217 -0.55,-1.65c-0.4,-0.433 -0.85,-0.65 -1.35,-0.65c-0.833,0 -1.85,0.517 -3.05,1.55c-0.667,0.567 -1.617,1.533 -2.85,2.9c-0.933,1.033 -1.483,1.55 -1.65,1.55c-0.533,0 -0.95,-0.183 -1.25,-0.55c-0.167,-0.233 -0.417,-0.717 -0.75,-1.45c-0.3,0.8 -0.5,1.483 -0.6,2.05c0.433,1.167 0.667,1.85 0.7,2.05c0.2,0.733 0.3,1.467 0.3,2.2c-0,0.667 -0.483,1.217 -1.45,1.65c-0.8,0.367 -1.517,0.55 -2.15,0.55c-1.1,0 -1.917,-0.217 -2.45,-0.65c-0.667,-0.5 -1,-1.383 -1,-2.65c0,-0.4 0.067,-0.917 0.2,-1.55c0.1,-0.5 0.2,-1 0.3,-1.5Zm14.25,-0.85c-1.067,0.367 -1.883,0.55 -2.45,0.55l-2.3,-0c0.5,-0.633 1.167,-1.317 2,-2.05c1.067,-0.867 1.833,-1.3 2.3,-1.3c0.3,0 0.733,0.133 1.3,0.4c0.667,0.333 1,0.65 1,0.95c0,0.5 -0.617,0.983 -1.85,1.45Z" style="fill:#f00;"/></g></svg>