<?xml version="1.0" encoding="UTF-8" standalone="no"?><!DOCTYPE svg PUBLIC "-//W3C//DTD SVG 1.1//EN" "http://www.w3.org/Graphics/SVG/1.1/DTD/svg11.dtd"><svg width="100%" height="100%" viewBox="0 0 44 39" version="1.1" xmlns="http://www.w3.org/2000/svg" xmlns:xlink="http://www.w3.org/1999/xlink" xml:space="preserve" xmlns:serif="http://www.serif.com/" style="fill-rule:evenodd;clip-rule:evenodd;stroke-linejoin:round;stroke-miterlimit:2;"><g><path d="M17.15,20.2c-0,-0.633 0.167,-1.667 0.5,-3.1c-0.433,0.2 -0.767,0.85 -1,1.95c-0.2,0.867 -0.3,1.683 -0.3,2.45c0,1.567 0.333,2.767 1,3.6c0.667,0.833 1.617,1.25 2.85,1.25c1.433,-0 2.75,-0.667 3.95,-2c1.2,-1.4 1.8,-2.983 1.8,-4.75c0,-1 -0.133,-2.017 -0.4,-3.05c-0.4,-1.4 -0.9,-2.1 -1.5,-2.1c-0.467,0 -0.917,0.467 -1.35,1.4c-0.367,0.833 -0.55,1.583 -0.55,2.25c-0,1.4 0.733,2.1 2.2,2.1c0.133,0 0.45,-0.033 0.95,-0.1l-0,1c-0.533,0.833 -1.25,1.467 -2.15,1.9c-0.8,0.4 -1.667,0.6 -2.6,0.6c-2.267,-0 -3.4,-1.133 -3.4,-3.4Zm7.35,-2.2l-0.7,0.1c-0.1,-0 -0.367,-0.133 -0.8,-0.4l-0,-0.35c0.4,-0.667 0.65,-1 0.75,-1c0.167,-0 0.417,0.333 0.75,1l-0,0.65Z" style="fill:#f00;"/><path d="M24.65,8.4l-1.15,1.45l1.15,1.45l1.2,-1.45l-1.2,-1.45Z" style="fill:#f00;"/><path d="M22.35,8.4l-1.2,1.45l1.15,1.45l1.2,-1.45l-1.15,-1.45Z" style="fill:#f00;"/></g></svg>