<?xml version="1.0" encoding="UTF-8" standalone="no"?><!DOCTYPE svg PUBLIC "-//W3C//DTD SVG 1.1//EN" "http://www.w3.org/Graphics/SVG/1.1/DTD/svg11.dtd"><svg width="100%" height="100%" viewBox="0 0 94 81" version="1.1" xmlns="http://www.w3.org/2000/svg" xmlns:xlink="http://www.w3.org/1999/xlink" xml:space="preserve" xmlns:serif="http://www.serif.com/" style="fill-rule:evenodd;clip-rule:evenodd;stroke-linejoin:round;stroke-miterlimit:2;"><g><path d="M22.4,64.15l-2.6,-2.85l-2.55,2.85l2.55,2.75l2.6,-2.75Z"/><path d="M46,45.95l-0.95,4c0.533,0.667 1.083,1.35 1.65,2.05c0.7,0.967 1.05,1.7 1.05,2.2c0,2.567 -1.683,4.767 -5.05,6.6c-2.867,1.567 -5.6,2.35 -8.2,2.35c2.067,1.567 4.133,2.35 6.2,2.35c2.367,0 4.383,-1.583 6.05,-4.75c1.433,-2.733 2.15,-5.517 2.15,-8.35c-0,-1.4 -0.25,-2.6 -0.75,-3.6c-0.367,-0.733 -1.083,-1.683 -2.15,-2.85Z"/><path d="M34.95,46.5c0,-2.5 -0.767,-4.3 -2.3,-5.4c-0.2,1.1 -0.667,2.65 -1.4,4.65c1.3,1.033 1.95,2.15 1.95,3.35c-0.867,1.067 -2.9,1.95 -6.1,2.65c-2.567,0.533 -4.833,0.8 -6.8,0.8c-2.2,0 -4.217,-0.317 -6.05,-0.95c-2.667,-0.9 -4,-2.3 -4,-4.2c-0,-0.833 0.317,-2.083 0.95,-3.75c-1.9,2.033 -2.85,4 -2.85,5.9c0,4.7 3.367,7.05 10.1,7.05c11,0 16.5,-3.367 16.5,-10.1Z"/><path d="M57.25,49.5c-0.7,-1.033 -1.05,-3.2 -1.05,-6.5l0,-15.5c-0.433,0.467 -0.867,0.933 -1.3,1.4c-0.3,0.467 -0.45,1.117 -0.45,1.95c0,6.467 0.033,10.617 0.1,12.45c0.233,6.233 0.783,10 1.65,11.3c0.733,1.033 1.767,1.55 3.1,1.55l3.45,-0l-0,-4.8c-2.8,0 -4.633,-0.617 -5.5,-1.85Z"/><path d="M89.4,46.4c-0,-1 -0.333,-1.917 -1,-2.75c-0.7,-0.867 -1.5,-1.3 -2.4,-1.3c-1.4,0 -3.167,0.667 -5.3,2c-1.333,0.867 -3.183,2.283 -5.55,4.25c-2.4,1.967 -4,3.217 -4.8,3.75c-0.9,0 -1.733,-0.333 -2.5,-1c-0.733,-0.667 -1.233,-1.467 -1.5,-2.4c-0.4,0.9 -0.75,1.517 -1.05,1.85c-0.433,0.433 -1.033,0.633 -1.8,0.6l-0.75,-0.05l-0,4.75c0.727,-0.043 1.194,-0.126 1.4,-0.25c0.267,-0.167 0.85,-0.967 1.75,-2.4c1.033,1.367 2.15,2.25 3.35,2.65c0.867,0.3 2.267,0.45 4.2,0.45c3.3,0 6.583,-0.783 9.85,-2.35c4.067,-2 6.1,-4.6 6.1,-7.8Zm-2.9,2.35c0,0.767 -1.25,1.583 -3.75,2.45c-2.167,0.767 -3.8,1.15 -4.9,1.15l-5,0c4.3,-3.833 7.45,-5.75 9.45,-5.75c0.567,0 1.367,0.233 2.4,0.7c1.2,0.467 1.8,0.95 1.8,1.45Z" style="fill:#f00;"/><path d="M74.8,34.7l-2.55,2.85l2.55,2.75l2.55,-2.75l-2.55,-2.85Z" style="fill:#f00;"/><path d="M22.486,24.424l-4.9,3.45c-0.676,0.476 -0.839,1.413 -0.362,2.09c0.476,0.676 1.413,0.839 2.09,0.362l4.9,-3.45c0.676,-0.476 0.839,-1.413 0.362,-2.09c-0.476,-0.676 -1.413,-0.839 -2.09,-0.362Z"/><path d="M45.236,24.024l-4.9,3.45c-0.676,0.476 -0.839,1.413 -0.362,2.09c0.476,0.676 1.413,0.839 2.09,0.362l4.9,-3.45c0.676,-0.476 0.839,-1.413 0.362,-2.09c-0.476,-0.676 -1.413,-0.839 -2.09,-0.362Z"/><path d="M65.936,21.324l-4.9,3.45c-0.676,0.476 -0.839,1.413 -0.362,2.09c0.476,0.676 1.413,0.839 2.09,0.362l4.9,-3.45c0.676,-0.476 0.839,-1.413 0.362,-2.09c-0.476,-0.676 -1.413,-0.839 -2.09,-0.362Z"/></g></svg>