<?xml version="1.0" encoding="UTF-8" standalone="no"?><!DOCTYPE svg PUBLIC "-//W3C//DTD SVG 1.1//EN" "http://www.w3.org/Graphics/SVG/1.1/DTD/svg11.dtd"><svg width="100%" height="100%" viewBox="0 0 68 82" version="1.1" xmlns="http://www.w3.org/2000/svg" xmlns:xlink="http://www.w3.org/1999/xlink" xml:space="preserve" xmlns:serif="http://www.serif.com/" style="fill-rule:evenodd;clip-rule:evenodd;stroke-linejoin:round;stroke-miterlimit:2;"><g><path d="M5.95,24.05c-1.567,2.233 -2.333,3.567 -2.3,4l0.55,25.55c1.267,-1.167 1.9,-4.267 1.9,-9.3l-0.15,-20.25Z"/><path d="M29.05,23.8c-1.567,1.333 -2.35,2.767 -2.35,4.3c0,1.9 0.167,4.75 0.5,8.55c0.333,3.833 0.5,6.683 0.5,8.55c0,1.567 -0.45,2.6 -1.35,3.1c-0.567,0.3 -1.65,0.45 -3.25,0.45l0,0.15c-0.47,0.012 -0.953,-0.005 -1.45,-0.05c-0.4,-0.933 -0.783,-1.867 -1.15,-2.8c-0.633,-1.233 -1.267,-1.85 -1.9,-1.85c-0.8,-0 -1.633,0.9 -2.5,2.7c-0.767,1.7 -1.15,3.067 -1.15,4.1c0,1.3 0.567,2.117 1.7,2.45c1.033,0.167 2.067,0.333 3.1,0.5c-1.233,2.033 -2.517,3.517 -3.85,4.45c-1.5,1.067 -3.25,1.6 -5.25,1.6c-1.1,-0 -2.683,-0.1 -4.75,-0.3c1.933,2.133 4.183,3.2 6.75,3.2c2.2,-0 4.083,-1.017 5.65,-3.05c1.067,-1.4 2.117,-3.5 3.15,-6.3l3.95,-0c0.767,-0 1.467,-0.55 2.1,-1.65c1,-1.7 1.517,-2.567 1.55,-2.6c0.433,0.9 0.867,1.817 1.3,2.75c0.6,1 1.317,1.5 2.15,1.5l2.35,-0l0,-4.8c-1.8,-0 -3.083,-0.567 -3.85,-1.7c-0.667,-0.967 -1,-2.467 -1,-4.5c-0,-2.333 -0.133,-5.45 -0.4,-9.35c-0.3,-4.733 -0.483,-7.867 -0.55,-9.4Zm-11.45,24.05c0.7,0.333 1.133,0.633 1.3,0.9c0.167,0.267 0.317,0.8 0.45,1.6c-0.633,-0 -1.4,-0.067 -2.3,-0.2c-0,-0.367 -0.067,-0.617 -0.2,-0.75c0.267,-0.567 0.517,-1.083 0.75,-1.55Z"/><path d="M27.05,18.3l-0.25,0.1c-0.1,0.667 -0.2,1.133 -0.3,1.4c-0.2,0.567 -0.467,0.85 -0.8,0.85c-0.333,-0 -0.5,-0.517 -0.5,-1.55l-0.3,0.05c-0.167,0.733 -0.25,1.2 -0.25,1.4c-0,0.4 0.067,0.733 0.2,1c0.2,0.333 0.467,0.5 0.8,0.5c0.3,0 0.583,-0.117 0.85,-0.35c0.267,-0.233 0.417,-0.517 0.45,-0.85c0.233,0.2 0.5,0.3 0.8,0.3c0.867,-0 1.3,-0.783 1.3,-2.35c-0,-0.4 -0.05,-0.833 -0.15,-1.3l-0.3,0.1c0,1.4 -0.283,2.1 -0.85,2.1c-0.267,-0 -0.5,-0.467 -0.7,-1.4Z"/><path d="M21.15,16.7c0.433,0.133 0.8,0.2 1.1,0.2c1.033,-0 2.3,-0.8 3.8,-2.4c0.567,0.367 1.067,0.65 1.5,0.85l0.15,-1.65c-0.333,-0.233 -0.583,-0.417 -0.75,-0.55c0.4,-0.833 0.6,-1.5 0.6,-2c-0,-0.967 -0.433,-1.45 -1.3,-1.45c-0.6,-0 -1.133,0.35 -1.6,1.05c-0.433,0.6 -0.65,1.2 -0.65,1.8c-0,0.467 0.4,0.95 1.2,1.45c-1.433,1.2 -2.783,2.1 -4.05,2.7Zm3.85,-5.25c0.067,-0.167 0.183,-0.267 0.35,-0.3c0.667,0.1 1,0.45 1,1.05c0,0.133 -0.033,0.3 -0.1,0.5c-0.833,-0.433 -1.25,-0.85 -1.25,-1.25Z"/><path d="M60.75,41.05c-0.7,-0.867 -1.5,-1.3 -2.4,-1.3c-1.4,-0 -3.167,0.667 -5.3,2c-1.333,0.867 -3.183,2.283 -5.55,4.25c-2.4,1.967 -4,3.217 -4.8,3.75c-0.9,-0 -1.733,-0.333 -2.5,-1c-0.733,-0.667 -1.233,-1.467 -1.5,-2.4c-0.4,0.9 -0.75,1.517 -1.05,1.85c-0.433,0.433 -1.033,0.633 -1.8,0.6l-1,-0.05l0,4.75c0.871,-0.03 1.421,-0.113 1.65,-0.25c0.267,-0.167 0.85,-0.967 1.75,-2.4c1.033,1.367 2.15,2.25 3.35,2.65c0.867,0.3 2.267,0.45 4.2,0.45c3.3,-0 6.583,-0.783 9.85,-2.35c4.067,-2 6.1,-4.6 6.1,-7.8c-0,-1 -0.333,-1.917 -1,-2.75Zm-10.55,8.7l-5,-0c4.3,-3.833 7.45,-5.75 9.45,-5.75c0.567,-0 1.367,0.233 2.4,0.7c1.2,0.467 1.8,0.95 1.8,1.45c0,0.767 -1.25,1.583 -3.75,2.45c-2.167,0.767 -3.8,1.15 -4.9,1.15Z" style="fill:#f00;"/><path d="M47.15,37.7l2.55,-2.75l-2.55,-2.85l-2.55,2.85l2.55,2.75Z" style="fill:#f00;"/><path d="M47.786,19.424l-4.9,3.45c-0.676,0.476 -0.839,1.413 -0.362,2.09c0.476,0.676 1.413,0.839 2.09,0.362l4.9,-3.45c0.676,-0.476 0.839,-1.413 0.362,-2.09c-0.476,-0.676 -1.413,-0.839 -2.09,-0.362Z"/></g></svg>