<?xml version="1.0" encoding="UTF-8" standalone="no"?><!DOCTYPE svg PUBLIC "-//W3C//DTD SVG 1.1//EN" "http://www.w3.org/Graphics/SVG/1.1/DTD/svg11.dtd"><svg width="100%" height="100%" viewBox="0 0 57 81" version="1.1" xmlns="http://www.w3.org/2000/svg" xmlns:xlink="http://www.w3.org/1999/xlink" xml:space="preserve" xmlns:serif="http://www.serif.com/" style="fill-rule:evenodd;clip-rule:evenodd;stroke-linejoin:round;stroke-miterlimit:2;"><g><path d="M26.65,66.6l2.6,-2.75l-2.6,-2.85l-2.55,2.85l2.55,2.75Z"/><path d="M38.5,26.65c-1.567,2.233 -2.333,3.567 -2.3,4l0.55,25.55c1.267,-1.167 1.9,-4.267 1.9,-9.3l-0.15,-20.25Z"/><path d="M30.55,48.6c-0,-0.8 -0.3,-2.583 -0.9,-5.35c-0.667,1.7 -1.217,2.983 -1.65,3.85c0.633,1.333 1.033,2.3 1.2,2.9c-0.618,0.865 -2.351,1.315 -5.2,1.35l-1.95,0l-0,4.8l1.35,-0c0.206,-0.004 0.406,-0.021 0.6,-0.05c2.151,-0.081 3.718,-0.598 4.7,-1.55c1.233,-1.167 1.85,-3.15 1.85,-5.95Z"/><path d="M24,56.15l0,-0.05c-0.194,0.029 -0.394,0.046 -0.6,0.05l0.6,-0Z" style="fill:#f00;"/><path d="M2.65,58.8c0,2.533 0.667,4.483 2,5.85c1.267,1.4 3.05,2.1 5.35,2.1c2.633,0 5.133,-1.017 7.5,-3.05c2.533,-2.2 3.8,-4.717 3.8,-7.55l0.75,-0l-0,-4.8l-1.3,0c0,-1.167 -0.233,-2.2 -0.7,-3.1c-0.567,-1.1 -1.333,-1.65 -2.3,-1.65c-0.933,0 -1.783,0.767 -2.55,2.3c-0.667,1.333 -1,2.567 -1,3.7c0,2.367 1.35,3.55 4.05,3.55l1.9,-0l0,1.45c-1,1.5 -2.417,2.65 -4.25,3.45c-1.633,0.667 -3.383,1 -5.25,1c-4.3,0 -6.45,-1.933 -6.45,-5.8c0,-1.3 0.333,-3.1 1,-5.4c-0.867,0.433 -1.533,1.617 -2,3.55c-0.367,1.433 -0.55,2.9 -0.55,4.4Zm14.35,-9.25c0.3,0 0.583,0.183 0.85,0.55c0.533,0.667 0.8,1.117 0.8,1.35l0,0.65c-0.333,0 -0.617,0.017 -0.85,0.05c-0.47,0.088 -0.67,0.138 -0.6,0.15c-0.246,-0.024 -0.729,-0.224 -1.45,-0.6l0,-0.65c0.667,-1 1.083,-1.5 1.25,-1.5Z" style="fill:#f00;"/><path d="M20.8,38.35l-2.25,-2.4l-2.25,2.45l-2.2,-2.45l-2.25,2.4l2.2,2.55l2.3,-2.5l2.2,2.45l2.25,-2.5Z" style="fill:#f00;"/><path d="M16.086,21.324l-4.9,3.45c-0.676,0.476 -0.839,1.413 -0.362,2.09c0.476,0.676 1.413,0.839 2.09,0.362l4.9,-3.45c0.676,-0.476 0.839,-1.413 0.362,-2.09c-0.476,-0.676 -1.413,-0.839 -2.09,-0.362Z"/><path d="M27.478,20.529l-4.9,3.5c-0.674,0.482 -0.83,1.419 -0.349,2.093c0.482,0.674 1.419,0.83 2.093,0.349l4.9,-3.5c0.674,-0.482 0.83,-1.419 0.349,-2.093c-0.482,-0.674 -1.419,-0.83 -2.093,-0.349Z"/><path d="M38.636,19.774l-4.9,3.45c-0.676,0.476 -0.839,1.413 -0.362,2.09c0.476,0.676 1.413,0.839 2.09,0.362l4.9,-3.45c0.676,-0.476 0.839,-1.413 0.362,-2.09c-0.476,-0.676 -1.413,-0.839 -2.09,-0.362Z"/></g></svg>