<?xml version="1.0" encoding="UTF-8" standalone="no"?><!DOCTYPE svg PUBLIC "-//W3C//DTD SVG 1.1//EN" "http://www.w3.org/Graphics/SVG/1.1/DTD/svg11.dtd"><svg width="100%" height="100%" viewBox="0 0 66 81" version="1.1" xmlns="http://www.w3.org/2000/svg" xmlns:xlink="http://www.w3.org/1999/xlink" xml:space="preserve" xmlns:serif="http://www.serif.com/" style="fill-rule:evenodd;clip-rule:evenodd;stroke-linejoin:round;stroke-miterlimit:2;"><g><path d="M10.45,63.9c-1.9,-0.8 -2.85,-2.233 -2.85,-4.3c-0,-0.9 0.3,-2.05 0.9,-3.45c0.733,-1.7 1.15,-2.833 1.25,-3.4c-1,0.733 -1.983,2.017 -2.95,3.85c-0.967,1.9 -1.45,3.5 -1.45,4.8c-0,2.5 1.017,4.367 3.05,5.6c1.6,1 3.65,1.5 6.15,1.5c5.567,0 9.683,-1.867 12.35,-5.6c0.833,-1.167 1.25,-2.067 1.25,-2.7c0,-1.033 -0.933,-1.75 -2.8,-2.15c-1.267,-0.233 -2.55,-0.45 -3.85,-0.65c0.454,-0.757 2.804,-1.173 7.05,-1.25l-0.45,-0l-0,-4.8l-1.3,0c-1.9,0 -3.583,0.617 -5.05,1.85c-1.6,1.333 -2.4,3.017 -2.4,5.05c-0,0.933 0.417,1.617 1.25,2.05c0.533,0.233 1.433,0.45 2.7,0.65c1.2,0.2 1.983,0.417 2.35,0.65c-0.367,0.833 -1.9,1.583 -4.6,2.25c-2.2,0.533 -3.983,0.8 -5.35,0.8c-2.3,-0 -4.05,-0.25 -5.25,-0.75Z"/><path d="M45.85,66.6l2.6,-2.75l-2.6,-2.85l-2.55,2.85l2.55,2.75Z"/><path d="M57.7,26.65c-1.567,2.233 -2.333,3.567 -2.3,4l0.55,25.55c1.267,-1.167 1.9,-4.267 1.9,-9.3l-0.15,-20.25Z"/><path d="M49.75,48.6c0,-0.8 -0.3,-2.583 -0.9,-5.35c-0.667,1.7 -1.217,2.983 -1.65,3.85c0.633,1.333 1.033,2.3 1.2,2.9c-0.635,0.89 -2.452,1.34 -5.45,1.35l-1.7,0l0,4.8l1.7,-0c2.28,-0.078 3.93,-0.611 4.95,-1.6c1.233,-1.167 1.85,-3.15 1.85,-5.95Z"/><path d="M43.05,23.9c-0.333,0.633 -0.5,1.4 -0.5,2.3c-0,1.433 0.567,2.15 1.7,2.15c0.667,-0 1.25,-0.3 1.75,-0.9c0.467,-0.6 0.7,-1.283 0.7,-2.05c0,-0.633 -0.167,-1.217 -0.5,-1.75c-0.4,-0.567 -0.883,-0.85 -1.45,-0.85c-0.767,0 -1.333,0.367 -1.7,1.1Zm2.05,0.95c0.467,0.367 0.7,0.7 0.7,1c-0,0.467 -0.417,0.7 -1.25,0.7c-1,0 -1.5,-0.35 -1.5,-1.05c-0,-0.767 0.333,-1.15 1,-1.15c0.267,-0 0.617,0.167 1.05,0.5Z"/><path d="M37.975,39.916c0.55,0.231 1.025,0.809 1.425,1.734c0.4,1 0.6,2.017 0.6,3.05c0,2.1 -0.567,4.1 -1.7,6c0.311,0.368 0.878,0.585 1.7,0.65c0.111,0.006 0.528,0.006 1.25,0l0,4.8l-2,-0c-1,-0 -2.283,-0.7 -3.85,-2.1c-1.933,1.4 -3.467,2.1 -4.6,2.1l-2.7,-0l-0,-4.8l0.9,0c1.277,-0.038 2.511,-0.138 3.7,-0.3c-0.133,-0.833 -0.2,-1.6 -0.2,-2.3c0,-1.567 0.483,-3.367 1.45,-5.4c1.067,-2.367 2.217,-3.55 3.45,-3.55l0.575,0.116Zm-2.375,9.884c-0.233,0 -0.583,-0.25 -1.05,-0.75c-0.467,-0.467 -0.7,-0.867 -0.7,-1.2c-0,-0.7 0.267,-1.333 0.8,-1.9c0.567,-0.567 1.167,-0.85 1.8,-0.85c0.333,0 0.65,0.233 0.95,0.7c0.3,0.433 0.45,0.85 0.45,1.25c-0,0.433 -0.283,1 -0.85,1.7c-0.567,0.7 -1.033,1.05 -1.4,1.05Z" style="fill:#f00;"/><path d="M33.85,32l-2.25,2.45l2.2,2.45l2.25,-2.45l-2.2,-2.45Z" style="fill:#f00;"/><path d="M36.05,34.45l2.25,2.45l2.25,-2.45l-2.25,-2.45l-2.25,2.45Z" style="fill:#f00;"/><path d="M36.878,22.079l-4.9,3.5c-0.674,0.482 -0.83,1.419 -0.349,2.093c0.482,0.674 1.419,0.83 2.093,0.349l4.9,-3.5c0.674,-0.482 0.83,-1.419 0.349,-2.093c-0.482,-0.674 -1.419,-0.83 -2.093,-0.349Z"/><path d="M58.036,20.174l-4.9,3.45c-0.676,0.476 -0.839,1.413 -0.362,2.09c0.476,0.676 1.413,0.839 2.09,0.362l4.9,-3.45c0.676,-0.476 0.839,-1.413 0.362,-2.09c-0.476,-0.676 -1.413,-0.839 -2.09,-0.362Z"/></g></svg>