<?xml version="1.0" encoding="UTF-8" standalone="no"?><!DOCTYPE svg PUBLIC "-//W3C//DTD SVG 1.1//EN" "http://www.w3.org/Graphics/SVG/1.1/DTD/svg11.dtd"><svg width="100%" height="100%" viewBox="0 0 133 73" version="1.1" xmlns="http://www.w3.org/2000/svg" xmlns:xlink="http://www.w3.org/1999/xlink" xml:space="preserve" xmlns:serif="http://www.serif.com/" style="fill-rule:evenodd;clip-rule:evenodd;stroke-linejoin:round;stroke-miterlimit:2;"><g><path d="M89.45,42.6c-1.5,1.5 -2.25,3.217 -2.25,5.15l0,0.6l1.55,18.55c0.267,-0.367 0.533,-0.883 0.8,-1.55c0.267,-0.767 0.383,-1.35 0.35,-1.75l-1.15,-16.45c0.633,-1.4 1.6,-2.1 2.9,-2.1l0.55,0.2c0,1.1 0.25,2.2 0.75,3.3c0.567,1.333 1.283,2 2.15,2c1.4,0 2.1,-1.55 2.1,-4.65c1.333,1 2.3,1.5 2.9,1.5l2.9,-0l0,-4.8l-1,0c-1.725,-0.05 -2.942,-0.217 -3.65,-0.5c-0.533,-0.2 -1.017,-0.667 -1.45,-1.4c-0.6,-1 -1.267,-1.817 -2,-2.45c-0.367,0.4 -0.617,0.817 -0.75,1.25c0.1,0.2 0.1,0.35 -0,0.45c-1.833,0.5 -3.4,1.383 -4.7,2.65Z"/><path d="M121.4,17.9c-1.567,2.233 -2.333,3.567 -2.3,4l0.55,25.55c1.267,-1.167 1.9,-4.267 1.9,-9.3l-0.15,-20.25Z"/><path d="M85.4,17.9c-1.567,2.233 -2.333,3.567 -2.3,4l0.55,25.55c1.267,-1.167 1.9,-4.267 1.9,-9.3l-0.15,-20.25Z"/><path d="M72.75,22.4c0.133,0.667 0.6,1.483 1.4,2.45c0.5,3.5 0.75,8.783 0.75,15.85c-0,1.367 -1.15,2.017 -3.45,1.95l-0.45,-0l-0.7,-0.05l-1.15,0l-0,4.8l3.25,-0c1.667,-0 2.867,-0.983 3.6,-2.95c0.567,-1.433 0.85,-3.217 0.85,-5.35l0,-4.45c0,-0.833 -0.083,-2.05 -0.25,-3.65c-0.133,-1.633 -0.2,-2.85 -0.2,-3.65c0,-0.4 0.2,-1.067 0.6,-2c0.4,-0.933 0.6,-1.7 0.6,-2.3c0,-0.233 -0.333,-0.7 -1,-1.4c-0.667,-0.733 -1,-1.383 -1,-1.95c0,-0.167 0.05,-0.433 0.15,-0.8c0.133,-0.4 0.183,-0.7 0.15,-0.9l0,-0.55c-1.333,0.967 -2.383,2.617 -3.15,4.95Z"/><path d="M33.4,21.95c-0,1.9 0.167,4.75 0.5,8.55c0.333,3.833 0.5,6.683 0.5,8.55c-0,1.567 -0.45,2.6 -1.35,3.1c-0.567,0.3 -1.65,0.45 -3.25,0.45l-0,0.15c-0.47,0.012 -0.953,-0.005 -1.45,-0.05c-0.4,-0.933 -0.783,-1.867 -1.15,-2.8c-0.633,-1.233 -1.267,-1.85 -1.9,-1.85c-0.8,0 -1.633,0.9 -2.5,2.7c-0.767,1.7 -1.15,3.067 -1.15,4.1c-0,1.3 0.567,2.117 1.7,2.45c1.033,0.167 2.067,0.333 3.1,0.5c-1.233,2.033 -2.517,3.517 -3.85,4.45c-1.5,1.067 -3.25,1.6 -5.25,1.6c-1.1,0 -2.683,-0.1 -4.75,-0.3c1.933,2.133 4.183,3.2 6.75,3.2c2.2,-0 4.083,-1.017 5.65,-3.05c1.067,-1.4 2.117,-3.5 3.15,-6.3l3.95,-0c0.767,-0 1.467,-0.55 2.1,-1.65c1,-1.7 1.517,-2.567 1.55,-2.6c0.433,0.9 0.867,1.817 1.3,2.75c0.6,1 1.317,1.5 2.15,1.5l2.35,-0l-0,-4.8l-0.25,-0c-1.668,-0.051 -2.868,-0.618 -3.6,-1.7c-0.667,-0.967 -1,-2.467 -1,-4.5c0,-2.333 -0.133,-5.45 -0.4,-9.35c-0.3,-4.733 -0.483,-7.867 -0.55,-9.4c-1.567,1.333 -2.35,2.767 -2.35,4.3Zm-7.8,20.65c0.167,0.267 0.317,0.8 0.45,1.6c-0.633,-0 -1.4,-0.067 -2.3,-0.2c0,-0.367 -0.067,-0.617 -0.2,-0.75c0.267,-0.567 0.517,-1.083 0.75,-1.55c0.7,0.333 1.133,0.633 1.3,0.9Z"/><path d="M8.15,32.1c-0.667,1.733 -1,3.067 -1,4c-0,0.133 0.033,0.317 0.1,0.55c0.067,0.233 0.1,0.417 0.1,0.55c-1.167,2.567 -1.75,4.65 -1.75,6.25c0,2.633 0.967,3.95 2.9,3.95c1.567,-0 2.8,-0.783 3.7,-2.35c0.733,-1.333 1.1,-2.933 1.1,-4.8c-0,-1.367 -0.283,-2.517 -0.85,-3.45c-0.333,-0.6 -1,-1.35 -2,-2.25c-1.067,-0.967 -1.833,-1.783 -2.3,-2.45Zm0.35,5.95c2.2,1.767 3.3,2.867 3.3,3.3c-0,0.367 -0.4,0.767 -1.2,1.2c-0.733,0.4 -1.3,0.6 -1.7,0.6c-1.033,-0 -1.55,-0.7 -1.55,-2.1c0,-1.133 0.383,-2.133 1.15,-3Z"/><path d="M8.4,26.3l2.2,2.45l2.3,-2.5l-2.3,-2.4l-2.2,2.45Z"/><path d="M6.15,28.75l2.25,-2.45l-2.25,-2.45l-2.25,2.4l2.25,2.5Z"/><path d="M55.85,22.8c0,-0.4 -0.05,-0.833 -0.15,-1.3l-0.3,0.1c-0,1.4 -0.283,2.1 -0.85,2.1c-0.267,-0 -0.5,-0.467 -0.7,-1.4l-0.25,0.1c-0.1,0.667 -0.2,1.133 -0.3,1.4c-0.2,0.567 -0.467,0.85 -0.8,0.85c-0.333,-0 -0.5,-0.517 -0.5,-1.55l-0.3,0.05c-0.167,0.733 -0.25,1.2 -0.25,1.4c0,0.4 0.067,0.733 0.2,1c0.2,0.333 0.467,0.5 0.8,0.5c0.3,0 0.583,-0.117 0.85,-0.35c0.267,-0.233 0.417,-0.517 0.45,-0.85c0.233,0.2 0.5,0.3 0.8,0.3c0.867,-0 1.3,-0.783 1.3,-2.35Z"/><path d="M32.7,17.25c0,-0.6 -0.183,-1.483 -0.55,-2.65c-0.367,-1.167 -0.55,-2.033 -0.55,-2.6c-0.767,0.533 -1.15,1.033 -1.15,1.5c0,0.533 0.183,1.317 0.55,2.35c0.367,1.033 0.55,1.817 0.55,2.35c-0,0.367 -0.05,0.667 -0.15,0.9c0.867,-0.467 1.3,-1.083 1.3,-1.85Z"/><path d="M67.25,34.55c-0.7,-0.867 -1.467,-1.3 -2.3,-1.3c-1.4,-0 -3.167,0.667 -5.3,2c-1.367,0.867 -3.217,2.267 -5.55,4.2c-2.467,2.033 -4.067,3.3 -4.8,3.8c-0.9,-0 -1.733,-0.333 -2.5,-1c-0.8,-0.667 -1.3,-1.467 -1.5,-2.4c-0.5,1.167 -1,1.933 -1.5,2.3c-0.433,0.3 -1.117,0.45 -2.05,0.45l-0.2,0l-0,4.75c0.822,-0.056 1.356,-0.172 1.6,-0.35c0.2,-0.133 0.783,-1.033 1.75,-2.7c1.333,2.1 3.533,3.15 6.6,3.15l17.65,-0.05l-0,-4.7c-0.31,0.012 -0.66,0.029 -1.05,0.05c-1.2,0.067 -2.15,0.017 -2.85,-0.15c1,-1.1 1.667,-1.883 2,-2.35c0.7,-1.067 1.05,-2.05 1.05,-2.95c-0,-0.967 -0.35,-1.883 -1.05,-2.75Zm-12.95,8.9l-2.45,-0c3.967,-3.967 7.05,-5.95 9.25,-5.95c0.6,0 1.433,0.217 2.5,0.65c1.233,0.5 1.85,0.983 1.85,1.45c0,1.1 -1.667,2.05 -5,2.85c-2.6,0.667 -4.65,1 -6.15,1Z" style="fill:#f00;"/><path d="M70.3,42.6l0.7,0.05l0,-0.05l-0.7,0Z" style="fill:#f00;"/><path d="M109.9,31c-0.567,-0.533 -0.967,-0.8 -1.2,-0.8c-0.933,-0 -1.767,0.817 -2.5,2.45c-0.633,1.433 -0.95,2.733 -0.95,3.9c0,1 0.217,1.817 0.65,2.45c0.5,0.667 1.183,1 2.05,1c0.867,0 1.817,-0.433 2.85,-1.3c0.667,1.167 1,1.95 1,2.35c-0,0.367 -0.567,0.733 -1.7,1.1c-0.933,0.3 -1.65,0.45 -2.15,0.45l-4.95,0l0,4.8l3.25,-0c1.667,-0 3.2,-0.783 4.6,-2.35c1.367,-1.567 2.05,-3.3 2.05,-5.2c0,-4.133 -1,-7.083 -3,-8.85Zm-2.8,3.95c0.133,-0.167 0.483,-0.467 1.05,-0.9c0.6,0.5 1.1,1.133 1.5,1.9l0,0.6c-0.733,0.3 -1.233,0.45 -1.5,0.45c-0.2,-0 -0.467,-0.083 -0.8,-0.25l-0.75,-0.4c0.2,-0.733 0.367,-1.2 0.5,-1.4Z" style="fill:#f00;"/><path d="M111.25,28.15l2.25,-2.45l-2.25,-2.45l-2.25,2.45l2.25,2.45Z" style="fill:#f00;"/><path d="M106.75,28.15l2.25,-2.45l-2.2,-2.45l-2.25,2.45l2.2,2.45Z" style="fill:#f00;"/><path d="M96.628,53.129l-4.9,3.5c-0.674,0.482 -0.83,1.419 -0.349,2.093c0.482,0.674 1.419,0.83 2.093,0.349l4.9,-3.5c0.674,-0.482 0.83,-1.419 0.349,-2.093c-0.482,-0.674 -1.419,-0.83 -2.093,-0.349Z"/><path d="M109.186,50.824l-4.9,3.45c-0.676,0.476 -0.839,1.413 -0.362,2.09c0.476,0.676 1.413,0.839 2.09,0.362l4.9,-3.45c0.676,-0.476 0.839,-1.413 0.362,-2.09c-0.476,-0.676 -1.413,-0.839 -2.09,-0.362Z"/><path d="M9.536,11.174l-4.9,3.45c-0.676,0.476 -0.839,1.413 -0.362,2.09c0.476,0.676 1.413,0.839 2.09,0.362l4.9,-3.45c0.676,-0.476 0.839,-1.413 0.362,-2.09c-0.476,-0.676 -1.413,-0.839 -2.09,-0.362Z"/><path d="M54.978,10.379l-4.9,3.5c-0.674,0.482 -0.83,1.419 -0.349,2.093c0.482,0.674 1.419,0.83 2.093,0.349l4.9,-3.5c0.674,-0.482 0.83,-1.419 0.349,-2.093c-0.482,-0.674 -1.419,-0.83 -2.093,-0.349Z"/><path d="M121.778,10.229l-4.9,3.5c-0.674,0.482 -0.83,1.419 -0.349,2.093c0.482,0.674 1.419,0.83 2.093,0.349l4.9,-3.5c0.674,-0.482 0.83,-1.419 0.349,-2.093c-0.482,-0.674 -1.419,-0.83 -2.093,-0.349Z"/></g></svg>