<?xml version="1.0" encoding="UTF-8" standalone="no"?><!DOCTYPE svg PUBLIC "-//W3C//DTD SVG 1.1//EN" "http://www.w3.org/Graphics/SVG/1.1/DTD/svg11.dtd"><svg width="100%" height="100%" viewBox="0 0 26 50" version="1.1" xmlns="http://www.w3.org/2000/svg" xmlns:xlink="http://www.w3.org/1999/xlink" xml:space="preserve" xmlns:serif="http://www.serif.com/" style="fill-rule:evenodd;clip-rule:evenodd;stroke-linejoin:round;stroke-miterlimit:2;"><g><path d="M13.3,44.1c1.367,-1.133 2.05,-4.133 2.05,-9l-0.15,-19.7c-1.667,2.167 -2.5,3.467 -2.5,3.9l0.6,24.8Z" style="fill:#f00;"/><path d="M16.102,8.602l-4,4c-0.302,0.302 -0.302,0.794 -0,1.096c0.302,0.302 0.794,0.302 1.096,0l4,-4c0.302,-0.302 0.302,-0.794 0,-1.096c-0.302,-0.302 -0.794,-0.302 -1.096,-0Z" style="fill:#f00;"/><path d="M15.619,5.586l-4.25,4c-0.312,0.293 -0.327,0.784 -0.033,1.095c0.293,0.312 0.784,0.327 1.095,0.033l4.25,-4c0.312,-0.293 0.327,-0.784 0.033,-1.095c-0.293,-0.312 -0.784,-0.327 -1.095,-0.033Z" style="fill:#f00;"/></g></svg>