<?xml version="1.0" encoding="UTF-8" standalone="no"?><!DOCTYPE svg PUBLIC "-//W3C//DTD SVG 1.1//EN" "http://www.w3.org/Graphics/SVG/1.1/DTD/svg11.dtd"><svg width="100%" height="100%" viewBox="0 0 47 82" version="1.1" xmlns="http://www.w3.org/2000/svg" xmlns:xlink="http://www.w3.org/1999/xlink" xml:space="preserve" xmlns:serif="http://www.serif.com/" style="fill-rule:evenodd;clip-rule:evenodd;stroke-linejoin:round;stroke-miterlimit:2;"><g><path d="M34.15,44.9c0.667,1.167 1,1.95 1,2.35c-0,0.367 -0.567,0.733 -1.7,1.1c-0.933,0.3 -1.65,0.45 -2.15,0.45l-6.15,0c-1.177,-0.033 -1.961,-0.133 -2.35,-0.3c-2.233,-0.8 -3.35,-6.417 -3.35,-16.85c0,-1.433 0.017,-2.967 0.05,-4.6l0.1,-2.35c-1.5,1.733 -2.467,2.933 -2.9,3.6c0,4.567 -0.033,7.383 -0.1,8.45c-0.167,2.2 -0.65,4.767 -1.45,7.7c-0.567,-2.633 -1.017,-4.333 -1.35,-5.1c-0.867,-2.1 -2.533,-4.583 -5,-7.45c-2.767,-3.233 -4.967,-4.85 -6.6,-4.85c-0.467,0 -0.867,0.317 -1.2,0.95c-0.3,0.567 -0.45,1.133 -0.45,1.7c-0,3.067 1.233,4.6 3.7,4.6c0.667,0 1.417,-0.15 2.25,-0.45c4.533,3.7 7.167,7.717 7.9,12.05c-0.5,1.3 -2,3.117 -4.5,5.45c-2.333,2.133 -4.233,3.583 -5.7,4.35c4.767,-0 8.183,-1.517 10.25,-4.55c1.567,-2.267 2.733,-6.2 3.5,-11.8c-0.033,0.7 -0.05,1.4 -0.05,2.1c-0,3.133 0.267,5.717 0.8,7.75c0.767,2.933 2.017,4.4 3.75,4.4l7.15,0c1.667,0 3.2,-0.783 4.6,-2.35c1.367,-1.567 2.05,-3.3 2.05,-5.2c0,-4.133 -1,-7.083 -3,-8.85c-0.567,-0.533 -0.967,-0.8 -1.2,-0.8c-0.933,-0 -1.767,0.817 -2.5,2.45c-0.633,1.433 -0.95,2.733 -0.95,3.9c0,1 0.217,1.817 0.65,2.45c0.5,0.667 1.183,1 2.05,1c0.867,-0 1.817,-0.433 2.85,-1.3Zm-1.15,-2.75l0,0.6c-0.733,0.3 -1.233,0.45 -1.5,0.45c-0.2,-0 -0.467,-0.083 -0.8,-0.25l-0.75,-0.4c0.2,-0.733 0.367,-1.2 0.5,-1.4c0.133,-0.167 0.483,-0.467 1.05,-0.9c0.6,0.5 1.1,1.133 1.5,1.9Z"/><path d="M31.85,27.1l-2.55,2.85l2.55,2.8l2.55,-2.8l-2.55,-2.85Z"/><path d="M32.878,18.629l-4.9,3.5c-0.674,0.482 -0.83,1.419 -0.349,2.093c0.482,0.674 1.419,0.83 2.093,0.349l4.9,-3.5c0.674,-0.482 0.83,-1.419 0.349,-2.093c-0.482,-0.674 -1.419,-0.83 -2.093,-0.349Z"/><path d="M14.328,17.479l-4.9,3.5c-0.674,0.482 -0.83,1.419 -0.349,2.093c0.482,0.674 1.419,0.83 2.093,0.349l4.9,-3.5c0.674,-0.482 0.83,-1.419 0.349,-2.093c-0.482,-0.674 -1.419,-0.83 -2.093,-0.349Z"/></g></svg>