<?xml version="1.0" encoding="UTF-8" standalone="no"?><!DOCTYPE svg PUBLIC "-//W3C//DTD SVG 1.1//EN" "http://www.w3.org/Graphics/SVG/1.1/DTD/svg11.dtd"><svg width="100%" height="100%" viewBox="0 0 117 73" version="1.1" xmlns="http://www.w3.org/2000/svg" xmlns:xlink="http://www.w3.org/1999/xlink" xml:space="preserve" xmlns:serif="http://www.serif.com/" style="fill-rule:evenodd;clip-rule:evenodd;stroke-linejoin:round;stroke-miterlimit:2;"><g><path d="M38.5,41.05c-0.167,1.2 -0.417,2.25 -0.75,3.15c0,0.033 0.35,0.65 1.05,1.85c0.567,1 0.85,1.55 0.85,1.65c-0,1.133 -1.133,2.583 -3.4,4.35c-2.2,1.733 -3.867,2.6 -5,2.6c-0.467,-0 -1.117,-0.117 -1.95,-0.35c-0.667,-0.167 -1.317,-0.35 -1.95,-0.55c0.833,1.067 1.8,1.95 2.9,2.65c1.267,0.8 2.467,1.2 3.6,1.2c1.567,0 3.133,-1.25 4.7,-3.75c1.433,-2.233 2.25,-4.3 2.45,-6.2c0.233,-0.167 0.533,-0.25 0.9,-0.25l1.4,-0l-0,-4.8l-1.3,0c-0.743,-0.022 -1.193,-0.055 -1.35,-0.1c-0.667,-0.133 -1.383,-0.617 -2.15,-1.45Z"/><path d="M16.7,43.2c0.567,1.133 0.85,2.217 0.85,3.25c-0,1.3 -0.933,2.4 -2.8,3.3c-1.5,0.767 -2.933,1.15 -4.3,1.15c-3.433,-0 -5.15,-1.583 -5.15,-4.75c-0,-0.533 0.1,-1.3 0.3,-2.3c0.167,-1 0.25,-1.75 0.25,-2.25c-0.667,0.767 -1.217,1.883 -1.65,3.35c-0.4,1.3 -0.6,2.567 -0.6,3.8c0,2.2 0.6,3.883 1.8,5.05c1.133,1.067 2.717,1.6 4.75,1.6c2.567,-0 4.717,-1 6.45,-3c1.733,-2.033 2.6,-4.467 2.6,-7.3c0,-3.667 -0.917,-6.75 -2.75,-9.25c-0.533,1.067 -1.033,2.567 -1.5,4.5c0.9,1.333 1.483,2.283 1.75,2.85Z"/><path d="M71.6,17.9c-1.567,2.233 -2.333,3.567 -2.3,4l0.55,25.55c1.267,-1.167 1.9,-4.267 1.9,-9.3l-0.15,-20.25Z"/><path d="M27.25,17.9c-1.567,2.233 -2.333,3.567 -2.3,4l0.55,25.55c1.267,-1.167 1.9,-4.267 1.9,-9.3l-0.15,-20.25Z"/><path d="M58.95,22.4c0.133,0.667 0.6,1.483 1.4,2.45c0.5,3.5 0.75,8.783 0.75,15.85c0,1.367 -1.15,2.017 -3.45,1.95l-0.8,-0.05l-1.5,0l0,4.8l3.25,-0c1.667,-0 2.867,-0.983 3.6,-2.95c0.567,-1.433 0.85,-3.217 0.85,-5.35l-0,-4.45c-0,-0.833 -0.083,-2.05 -0.25,-3.65c-0.133,-1.633 -0.2,-2.85 -0.2,-3.65c0,-0.4 0.2,-1.067 0.6,-2c0.4,-0.933 0.6,-1.7 0.6,-2.3c-0,-0.233 -0.333,-0.7 -1,-1.4c-0.667,-0.733 -1,-1.383 -1,-1.95c-0,-0.167 0.05,-0.433 0.15,-0.8c0.133,-0.4 0.183,-0.7 0.15,-0.9l0,-0.55c-1.333,0.967 -2.383,2.617 -3.15,4.95Z"/><path d="M104.65,31c-0.567,-0.533 -0.967,-0.8 -1.2,-0.8c-0.933,-0 -1.767,0.817 -2.5,2.45c-0.633,1.433 -0.95,2.733 -0.95,3.9c0,1 0.217,1.817 0.65,2.45c0.5,0.667 1.183,1 2.05,1c0.867,0 1.817,-0.433 2.85,-1.3c0.667,1.167 1,1.95 1,2.35c-0,0.367 -0.567,0.733 -1.7,1.1c-0.933,0.3 -1.65,0.45 -2.15,0.45l-8.15,0c-1.9,0 -3.583,0.617 -5.05,1.85c-1.6,1.333 -2.4,3.017 -2.4,5.05c0,0.933 0.417,1.617 1.25,2.05c0.533,0.233 1.433,0.45 2.7,0.65c1.2,0.2 1.983,0.417 2.35,0.65c-0.367,0.833 -1.9,1.583 -4.6,2.25c-2.2,0.533 -3.983,0.8 -5.35,0.8c-2.3,-0 -4.05,-0.25 -5.25,-0.75c-1.9,-0.8 -2.85,-2.233 -2.85,-4.3c0,-0.9 0.3,-2.05 0.9,-3.45c0.733,-1.7 1.15,-2.833 1.25,-3.4c-1,0.733 -1.983,2.017 -2.95,3.85c-0.967,1.9 -1.45,3.5 -1.45,4.8c0,2.5 1.017,4.367 3.05,5.6c1.6,1 3.65,1.5 6.15,1.5c5.567,0 9.683,-1.867 12.35,-5.6c0.833,-1.167 1.25,-2.067 1.25,-2.7c-0,-1.033 -0.933,-1.75 -2.8,-2.15c-1.267,-0.233 -2.55,-0.45 -3.85,-0.65c0.453,-0.754 2.786,-1.171 7,-1.25l4.75,-0c1.667,-0 3.2,-0.783 4.6,-2.35c1.367,-1.567 2.05,-3.3 2.05,-5.2c-0,-4.133 -1,-7.083 -3,-8.85Zm-0.25,5.55c-0.733,0.3 -1.233,0.45 -1.5,0.45c-0.2,0 -0.467,-0.083 -0.8,-0.25l-0.75,-0.4c0.2,-0.733 0.367,-1.2 0.5,-1.4c0.133,-0.167 0.483,-0.467 1.05,-0.9c0.6,0.5 1.1,1.133 1.5,1.9l-0,0.6Z"/><path d="M10.05,34.05l2.6,-2.8l-2.6,-2.85l-2.55,2.85l2.55,2.8Z"/><path d="M105.8,23.75l-2.55,-2.85l-2.55,2.85l2.55,2.8l2.55,-2.8Z"/><path d="M40.45,20.7c0.467,-0.6 0.7,-1.283 0.7,-2.05c-0,-0.633 -0.167,-1.217 -0.5,-1.75c-0.4,-0.567 -0.883,-0.85 -1.45,-0.85c-0.767,0 -1.333,0.367 -1.7,1.1c-0.333,0.633 -0.5,1.4 -0.5,2.3c0,1.433 0.567,2.15 1.7,2.15c0.667,0 1.25,-0.3 1.75,-0.9Zm-1.95,-3.1c0.267,0 0.617,0.167 1.05,0.5c0.467,0.367 0.7,0.7 0.7,1c0,0.467 -0.417,0.7 -1.25,0.7c-1,0 -1.5,-0.35 -1.5,-1.05c0,-0.767 0.333,-1.15 1,-1.15Z"/><path d="M28.6,16.2c0.367,1.033 0.55,1.817 0.55,2.35c-0,0.367 -0.05,0.667 -0.15,0.9c0.867,-0.467 1.3,-1.083 1.3,-1.85c-0,-0.6 -0.183,-1.483 -0.55,-2.65c-0.367,-1.167 -0.55,-2.033 -0.55,-2.6c-0.767,0.533 -1.15,1.033 -1.15,1.5c-0,0.533 0.183,1.317 0.55,2.35Z"/><path d="M52.35,17.8l0.15,-1.65c-0.333,-0.233 -0.583,-0.417 -0.75,-0.55c0.4,-0.833 0.6,-1.5 0.6,-2c0,-0.967 -0.433,-1.45 -1.3,-1.45c-0.6,-0 -1.133,0.35 -1.6,1.05c-0.433,0.6 -0.65,1.2 -0.65,1.8c-0,0.467 0.4,0.95 1.2,1.45c-1.433,1.2 -2.783,2.1 -4.05,2.7c0.433,0.133 0.8,0.2 1.1,0.2c1.033,0 2.3,-0.8 3.8,-2.4c0.567,0.367 1.067,0.65 1.5,0.85Zm-1.2,-3.15c-0,0.133 -0.033,0.3 -0.1,0.5c-0.833,-0.433 -1.25,-0.85 -1.25,-1.25c0.067,-0.167 0.183,-0.267 0.35,-0.3c0.667,0.1 1,0.45 1,1.05Z"/><path d="M62.7,10.7c-0.4,-0.567 -0.883,-0.85 -1.45,-0.85c-0.767,0 -1.333,0.367 -1.7,1.1c-0.333,0.633 -0.5,1.4 -0.5,2.3c-0,1.433 0.567,2.15 1.7,2.15c0.667,-0 1.25,-0.3 1.75,-0.9c0.467,-0.6 0.7,-1.283 0.7,-2.05c0,-0.633 -0.167,-1.217 -0.5,-1.75Zm-2.15,0.7c0.267,-0 0.617,0.167 1.05,0.5c0.467,0.367 0.7,0.7 0.7,1c-0,0.467 -0.417,0.7 -1.25,0.7c-1,0 -1.5,-0.35 -1.5,-1.05c-0,-0.767 0.333,-1.15 1,-1.15Z"/><path d="M53.3,32.9c-0.533,-1.233 -1.2,-1.85 -2,-1.85c-1.233,0 -2.383,1.183 -3.45,3.55c-0.967,2.033 -1.45,3.833 -1.45,5.4c-0,0.7 0.067,1.467 0.2,2.3c-1.192,0.163 -2.442,0.263 -3.75,0.3l0.45,0l-0,4.8l1.4,-0c1.133,-0 2.667,-0.7 4.6,-2.1c1.567,1.4 2.85,2.1 3.85,2.1l2.2,-0l0,-4.8c-0.847,0.005 -1.331,0.005 -1.45,0c-0.822,-0.065 -1.389,-0.282 -1.7,-0.65c1.133,-1.9 1.7,-3.9 1.7,-6c-0,-1.033 -0.2,-2.05 -0.6,-3.05Zm-4.75,4.3c0.567,-0.567 1.167,-0.85 1.8,-0.85c0.333,0 0.65,0.233 0.95,0.7c0.3,0.433 0.45,0.85 0.45,1.25c-0,0.433 -0.283,1 -0.85,1.7c-0.567,0.7 -1.033,1.05 -1.4,1.05c-0.233,0 -0.583,-0.25 -1.05,-0.75c-0.467,-0.467 -0.7,-0.867 -0.7,-1.2c-0,-0.7 0.267,-1.333 0.8,-1.9Z" style="fill:#f00;"/><path d="M52.2,28.15l2.25,-2.45l-2.25,-2.45l-2.25,2.45l2.25,2.45Z" style="fill:#f00;"/><path d="M47.7,28.15l2.25,-2.45l-2.2,-2.45l-2.25,2.45l2.2,2.45Z" style="fill:#f00;"/><path d="M12.428,58.129l-4.9,3.5c-0.674,0.482 -0.83,1.419 -0.349,2.093c0.482,0.674 1.419,0.83 2.093,0.349l4.9,-3.5c0.674,-0.482 0.83,-1.419 0.349,-2.093c-0.482,-0.674 -1.419,-0.83 -2.093,-0.349Z"/><path d="M104.122,53.934l-4.85,3.5c-0.671,0.484 -0.823,1.422 -0.338,2.094c0.484,0.671 1.422,0.823 2.094,0.338l4.85,-3.5c0.671,-0.484 0.823,-1.422 0.338,-2.094c-0.484,-0.671 -1.422,-0.823 -2.094,-0.338Z"/></g></svg>