<?xml version="1.0" encoding="UTF-8" standalone="no"?><!DOCTYPE svg PUBLIC "-//W3C//DTD SVG 1.1//EN" "http://www.w3.org/Graphics/SVG/1.1/DTD/svg11.dtd"><svg width="100%" height="100%" viewBox="0 0 140 79" version="1.1" xmlns="http://www.w3.org/2000/svg" xmlns:xlink="http://www.w3.org/1999/xlink" xml:space="preserve" xmlns:serif="http://www.serif.com/" style="fill-rule:evenodd;clip-rule:evenodd;stroke-linejoin:round;stroke-miterlimit:2;"><g><path d="M46.8,46.05c0.533,0.667 1.083,1.35 1.65,2.05c0.7,0.967 1.05,1.7 1.05,2.2c0,2.567 -1.683,4.767 -5.05,6.6c-2.867,1.567 -5.6,2.35 -8.2,2.35c2.067,1.567 4.133,2.35 6.2,2.35c2.367,0 4.383,-1.583 6.05,-4.75c1.433,-2.733 2.15,-5.517 2.15,-8.35c-0,-1.4 -0.25,-2.6 -0.75,-3.6c-0.367,-0.733 -1.083,-1.683 -2.15,-2.85l-0.95,4Z"/><path d="M7.05,49.8c-0.4,1.3 -0.6,2.567 -0.6,3.8c0,2.2 0.6,3.883 1.8,5.05c1.133,1.067 2.717,1.6 4.75,1.6c2.567,0 4.717,-1 6.45,-3c1.733,-2.033 2.6,-4.467 2.6,-7.3c-0,-3.667 -0.917,-6.75 -2.75,-9.25c-0.533,1.067 -1.033,2.567 -1.5,4.5c0.9,1.333 1.483,2.283 1.75,2.85c0.567,1.133 0.85,2.217 0.85,3.25c-0,1.3 -0.933,2.4 -2.8,3.3c-1.5,0.767 -2.933,1.15 -4.3,1.15c-3.433,0 -5.15,-1.583 -5.15,-4.75c-0,-0.533 0.1,-1.3 0.3,-2.3c0.167,-1 0.25,-1.75 0.25,-2.25c-0.667,0.767 -1.217,1.883 -1.65,3.35Z"/><path d="M103.5,22.75c-1.567,2.233 -2.333,3.567 -2.3,4l0.55,25.55c1.267,-1.167 1.9,-4.267 1.9,-9.3l-0.15,-20.25Z"/><path d="M60.3,46.65c0.2,-0.433 0.383,-0.867 0.55,-1.3l-1.9,0c-2.967,0 -4.45,-0.467 -4.45,-1.4c0,-0.333 0.25,-0.717 0.75,-1.15c0.467,-0.433 0.85,-0.65 1.15,-0.65c0.067,-0 0.3,0.067 0.7,0.2c0.367,0.167 0.667,0.25 0.9,0.25c0.733,0 1.1,-0.4 1.1,-1.2c0,-0.3 -0.2,-0.6 -0.6,-0.9c-0.467,-0.333 -0.833,-0.5 -1.1,-0.5c-1.7,-0 -3.433,1.567 -5.2,4.7c0,0.467 0.183,1.017 0.55,1.65c0.4,0.6 0.6,0.983 0.6,1.15c0,0.067 -0.083,0.283 -0.25,0.65c-0.2,0.367 -0.3,0.683 -0.3,0.95c-0,0.267 0.05,0.633 0.15,1.1c2.5,-1.833 4.35,-2.75 5.55,-2.75c0.233,0 0.583,0.083 1.05,0.25c0.233,-0.133 0.483,-0.483 0.75,-1.05Z"/><path d="M24.45,59.4c1,0.3 2.033,0.45 3.1,0.45c2.967,0 5.283,-1.333 6.95,-4c1.467,-2.367 2.2,-5.267 2.2,-8.7c0,-1.367 -0.217,-2.7 -0.65,-4c-0.567,-1.7 -1.367,-2.55 -2.4,-2.55c-0.867,0 -1.683,0.833 -2.45,2.5c-0.7,1.5 -1.05,2.817 -1.05,3.95c-0,1.9 0.683,2.85 2.05,2.85c1.067,-0 2.067,-0.633 3,-1.9c0.233,0.567 0.35,1.1 0.35,1.6c-0,2.8 -1.8,5.017 -5.4,6.65c-2.8,1.3 -5.667,1.95 -8.6,1.95c1.4,0.633 2.367,1.033 2.9,1.2Zm8.4,-12.45l-1.15,-0.65c0.333,-0.867 0.667,-1.65 1,-2.35c1,0.533 1.5,1.183 1.5,1.95c0,0.267 -0.15,0.5 -0.45,0.7c-0.3,0.233 -0.6,0.35 -0.9,0.35Z"/><path d="M94,22.85c0.033,0.2 -0.017,0.5 -0.15,0.9c-0.1,0.367 -0.15,0.633 -0.15,0.8c0,0.567 0.333,1.217 1,1.95c0.667,0.7 1,1.167 1,1.4c0,0.6 -0.2,1.367 -0.6,2.3c-0.4,0.933 -0.6,1.6 -0.6,2c0,0.8 0.067,2.017 0.2,3.65c0.167,1.6 0.25,2.817 0.25,3.65l0,4.45c0,2.133 -0.283,3.917 -0.85,5.35c-0.733,1.967 -1.933,2.95 -3.6,2.95l-5.45,-0c-1,-0 -2.283,-0.7 -3.85,-2.1c-1.933,1.4 -3.467,2.1 -4.6,2.1l-4.5,-0c-1.333,-0 -2.367,-0.517 -3.1,-1.55c-0.867,-1.3 -1.417,-5.067 -1.65,-11.3c-0.067,-1.833 -0.1,-5.983 -0.1,-12.45c-0,-0.833 0.15,-1.483 0.45,-1.95c0.433,-0.467 0.867,-0.933 1.3,-1.4l-0,15.5c-0,3.3 0.35,5.467 1.05,6.5c0.795,1.132 2.395,1.749 4.8,1.85c1.268,-0.041 2.485,-0.141 3.65,-0.3c-0.133,-0.833 -0.2,-1.6 -0.2,-2.3c-0,-1.567 0.483,-3.367 1.45,-5.4c1.067,-2.367 2.217,-3.55 3.45,-3.55c0.8,-0 1.467,0.617 2,1.85c0.4,1 0.6,2.017 0.6,3.05c-0,2.1 -0.567,4.1 -1.7,6c0.311,0.368 0.878,0.585 1.7,0.65l2.95,0l0.8,0.05c2.3,0.067 3.45,-0.583 3.45,-1.95c-0,-7.067 -0.25,-12.35 -0.75,-15.85c-0.8,-0.967 -1.267,-1.783 -1.4,-2.45c0.767,-2.333 1.817,-3.983 3.15,-4.95l-0,0.55Zm-10.8,19.05c0.3,0.433 0.45,0.85 0.45,1.25c-0,0.433 -0.283,1 -0.85,1.7c-0.567,0.7 -1.033,1.05 -1.4,1.05c-0.233,-0 -0.583,-0.25 -1.05,-0.75c-0.467,-0.467 -0.7,-0.867 -0.7,-1.2c-0,-0.7 0.267,-1.333 0.8,-1.9c0.567,-0.567 1.167,-0.85 1.8,-0.85c0.333,0 0.65,0.233 0.95,0.7Z"/><path d="M105.3,52.6l-0,0.6l1.55,18.55c0.267,-0.367 0.533,-0.883 0.8,-1.55c0.267,-0.767 0.383,-1.35 0.35,-1.75l-1.15,-16.45c0.633,-1.4 1.6,-2.1 2.9,-2.1l0.55,0.2c-0,1.1 0.25,2.2 0.75,3.3c0.567,1.333 1.283,2 2.15,2c1.4,-0 2.1,-1.55 2.1,-4.65c1.333,1 2.3,1.5 2.9,1.5l3.2,0c1.133,0 2.567,-1 4.3,-3c2.2,0.567 3.8,0.85 4.8,0.85c1.6,0 2.6,-0.583 3,-1.75c0.233,-0.6 0.35,-1.95 0.35,-4.05c-0,-1.467 -1.117,-3.433 -3.35,-5.9c-1.567,-1.667 -3.267,-3.217 -5.1,-4.65c-0.3,-0 -0.7,0.65 -1.2,1.95c-0.467,1.233 -0.7,2.067 -0.7,2.5c0,0.167 0.083,0.367 0.25,0.6c0.167,0.2 0.267,0.367 0.3,0.5c-0.433,0.533 -0.867,1.3 -1.3,2.3c-0.4,1.067 -0.6,1.95 -0.6,2.65c0,0.267 0.067,0.65 0.2,1.15c0.133,0.533 0.2,0.933 0.2,1.2c-0,0.49 -0.867,0.757 -2.6,0.8c-1.647,-0.025 -2.814,-0.175 -3.5,-0.45c-0.533,-0.2 -1.017,-0.667 -1.45,-1.4c-0.6,-1 -1.267,-1.817 -2,-2.45c-0.367,0.4 -0.617,0.817 -0.75,1.25c0.1,0.2 0.1,0.35 -0,0.45c-1.833,0.5 -3.4,1.383 -4.7,2.65c-1.5,1.5 -2.25,3.217 -2.25,5.15Zm23.55,-9.25c-0,-0.567 -0.117,-1.15 -0.35,-1.75c0.633,0.367 1.4,1.067 2.3,2.1c1,1.067 1.567,1.933 1.7,2.6l-0.35,0.45c-0.3,-0.233 -0.917,-0.417 -1.85,-0.55c-0.667,-0.133 -1.333,-0.233 -2,-0.3c0.367,-1.067 0.55,-1.917 0.55,-2.55Zm-3.4,-2.6c0.5,0.233 0.95,0.6 1.35,1.1c0.5,0.567 0.75,1.117 0.75,1.65c-0,0.367 -0.25,0.683 -0.75,0.95c-0.4,0.233 -0.767,0.35 -1.1,0.35c-0.5,-0 -1.233,-0.283 -2.2,-0.85c0.167,-0.6 0.45,-1.167 0.85,-1.7c0.7,-0.933 1.067,-1.433 1.1,-1.5Z"/><path d="M12.9,33.25l-2.55,2.85l2.55,2.8l2.6,-2.8l-2.6,-2.85Z"/><path d="M44.1,33.9l2.55,2.8l2.55,-2.8l-2.55,-2.85l-2.55,2.85Z"/><path d="M83.9,28.6l-2.55,-2.85l-2.55,2.85l2.55,2.8l2.55,-2.8Z"/><path d="M40.8,21.55c-0.433,0.6 -0.65,1.2 -0.65,1.8c-0,0.467 0.4,0.95 1.2,1.45c-1.433,1.2 -2.783,2.1 -4.05,2.7c0.433,0.133 0.8,0.2 1.1,0.2c1.033,0 2.3,-0.8 3.8,-2.4c0.567,0.367 1.067,0.65 1.5,0.85l0.15,-1.65c-0.333,-0.233 -0.583,-0.417 -0.75,-0.55c0.4,-0.833 0.6,-1.5 0.6,-2c0,-0.967 -0.433,-1.45 -1.3,-1.45c-0.6,-0 -1.133,0.35 -1.6,1.05Zm1.7,1.45c-0,0.133 -0.033,0.3 -0.1,0.5c-0.833,-0.433 -1.25,-0.85 -1.25,-1.25c0.067,-0.167 0.183,-0.267 0.35,-0.3c0.667,0.1 1,0.45 1,1.05Z"/><path d="M113.75,17c-0.6,0 -1.133,0.35 -1.6,1.05c-0.433,0.6 -0.65,1.2 -0.65,1.8c0,0.467 0.4,0.95 1.2,1.45c-1.433,1.2 -2.783,2.1 -4.05,2.7c0.433,0.133 0.8,0.2 1.1,0.2c1.033,0 2.3,-0.8 3.8,-2.4c0.567,0.367 1.067,0.65 1.5,0.85l0.15,-1.65c-0.333,-0.233 -0.583,-0.417 -0.75,-0.55c0.4,-0.833 0.6,-1.5 0.6,-2c-0,-0.967 -0.433,-1.45 -1.3,-1.45Zm0.1,2.5c0,0.133 -0.033,0.3 -0.1,0.5c-0.833,-0.433 -1.25,-0.85 -1.25,-1.25c0.067,-0.167 0.183,-0.267 0.35,-0.3c0.667,0.1 1,0.45 1,1.05Z"/><path d="M127.3,17.7c-0,-0.967 -0.433,-1.45 -1.3,-1.45c-0.6,0 -1.133,0.35 -1.6,1.05c-0.433,0.6 -0.65,1.2 -0.65,1.8c0,0.467 0.4,0.95 1.2,1.45c-1.433,1.2 -2.783,2.1 -4.05,2.7c0.433,0.133 0.8,0.2 1.1,0.2c1.033,0 2.3,-0.8 3.8,-2.4c0.567,0.367 1.067,0.65 1.5,0.85l0.15,-1.65c-0.333,-0.233 -0.583,-0.417 -0.75,-0.55c0.4,-0.833 0.6,-1.5 0.6,-2Zm-2.55,0.3c0.067,-0.167 0.183,-0.267 0.35,-0.3c0.667,0.1 1,0.45 1,1.05c-0,0.133 -0.033,0.3 -0.1,0.5c-0.833,-0.433 -1.25,-0.85 -1.25,-1.25Z"/><path d="M68.65,14.1c-1.167,1.933 -1.967,3.633 -2.4,5.1c0.367,-0.267 0.75,-0.7 1.15,-1.3c0.467,-0.7 0.8,-1.167 1,-1.4c1.133,0.533 1.8,0.833 2,0.9c0.6,0.2 1.333,0.3 2.2,0.3c1,0 2.217,-0.417 3.65,-1.25c1.567,-0.933 2.35,-1.9 2.35,-2.9c-1.6,0.933 -2.467,1.433 -2.6,1.5c-1.033,0.467 -1.967,0.7 -2.8,0.7c-1.633,0 -3.15,-0.55 -4.55,-1.65Z"/><path d="M95.15,16.95c-0,-0.633 -0.167,-1.217 -0.5,-1.75c-0.4,-0.567 -0.883,-0.85 -1.45,-0.85c-0.767,0 -1.333,0.367 -1.7,1.1c-0.333,0.633 -0.5,1.4 -0.5,2.3c0,1.433 0.567,2.15 1.7,2.15c0.667,-0 1.25,-0.3 1.75,-0.9c0.467,-0.6 0.7,-1.283 0.7,-2.05Zm-0.9,0.45c0,0.467 -0.417,0.7 -1.25,0.7c-1,0 -1.5,-0.35 -1.5,-1.05c0,-0.767 0.333,-1.15 1,-1.15c0.267,-0 0.617,0.167 1.05,0.5c0.467,0.367 0.7,0.7 0.7,1Z"/><path d="M58.686,52.174l-4.9,3.45c-0.676,0.476 -0.839,1.413 -0.362,2.09c0.476,0.676 1.413,0.839 2.09,0.362l4.9,-3.45c0.676,-0.476 0.839,-1.413 0.362,-2.09c-0.476,-0.676 -1.413,-0.839 -2.09,-0.362Z"/><path d="M13.578,18.929l-4.9,3.5c-0.674,0.482 -0.83,1.419 -0.349,2.093c0.482,0.674 1.419,0.83 2.093,0.349l4.9,-3.5c0.674,-0.482 0.83,-1.419 0.349,-2.093c-0.482,-0.674 -1.419,-0.83 -2.093,-0.349Z"/><path d="M76.878,17.779l-4.9,3.5c-0.674,0.482 -0.83,1.419 -0.349,2.093c0.482,0.674 1.419,0.83 2.093,0.349l4.9,-3.5c0.674,-0.482 0.83,-1.419 0.349,-2.093c-0.482,-0.674 -1.419,-0.83 -2.093,-0.349Z"/></g></svg>