<?xml version="1.0" encoding="UTF-8" standalone="no"?><!DOCTYPE svg PUBLIC "-//W3C//DTD SVG 1.1//EN" "http://www.w3.org/Graphics/SVG/1.1/DTD/svg11.dtd"><svg width="100%" height="100%" viewBox="0 0 66 82" version="1.1" xmlns="http://www.w3.org/2000/svg" xmlns:xlink="http://www.w3.org/1999/xlink" xml:space="preserve" xmlns:serif="http://www.serif.com/" style="fill-rule:evenodd;clip-rule:evenodd;stroke-linejoin:round;stroke-miterlimit:2;"><g><path d="M58.75,59.75l2.2,2.45l2.3,-2.5l-2.25,-2.4l-2.25,2.45Z"/><path d="M56.5,62.2l2.25,-2.45l-2.2,-2.45l-2.25,2.4l2.2,2.5Z"/><path d="M59.2,44.4c0.633,1.333 1.033,2.3 1.2,2.9c-0.635,0.89 -2.452,1.34 -5.45,1.35l0,4.8c2.28,-0.078 3.93,-0.611 4.95,-1.6c1.233,-1.167 1.85,-3.15 1.85,-5.95c-0,-0.8 -0.3,-2.583 -0.9,-5.35c-0.667,1.7 -1.217,2.983 -1.65,3.85Z"/><path d="M50.2,21.6c0,-0.633 -0.167,-1.217 -0.5,-1.75c-0.4,-0.567 -0.883,-0.85 -1.45,-0.85c-0.767,0 -1.333,0.367 -1.7,1.1c-0.333,0.633 -0.5,1.4 -0.5,2.3c-0,1.433 0.567,2.15 1.7,2.15c0.667,0 1.25,-0.3 1.75,-0.9c0.467,-0.6 0.7,-1.283 0.7,-2.05Zm-2.65,-1.05c0.267,0 0.617,0.167 1.05,0.5c0.467,0.367 0.7,0.7 0.7,1c-0,0.467 -0.417,0.7 -1.25,0.7c-1,0 -1.5,-0.35 -1.5,-1.05c-0,-0.767 0.333,-1.15 1,-1.15Z"/><path d="M49.975,37.216c0.55,0.231 1.025,0.809 1.425,1.734c0.4,1 0.6,2.017 0.6,3.05c0,2.1 -0.567,4.1 -1.7,6c0.311,0.368 0.878,0.585 1.7,0.65l2.95,-0l0,4.8l-3.7,-0c-1,-0 -2.283,-0.7 -3.85,-2.1c-1.933,1.4 -3.467,2.1 -4.6,2.1l-2.7,-0l-0,-0.05c-1.508,-0.033 -3.392,-0.116 -5.65,-0.25c-3.4,-0.2 -5.933,-0.3 -7.6,-0.3c-0.767,0 -1.983,0.117 -3.65,0.35c-1.6,0.2 -2.833,0.3 -3.7,0.3c-0.267,3.267 -1.233,5.883 -2.9,7.85c-1.733,2.133 -4.05,3.2 -6.95,3.2c-4.367,0 -6.55,-2.517 -6.55,-7.55c-0,-1.3 0.217,-2.717 0.65,-4.25c0.5,-1.7 1.117,-2.95 1.85,-3.75c-0.667,2.867 -1,4.6 -1,5.2c-0,3.767 2.183,5.65 6.55,5.65c1.3,0 2.7,-0.3 4.2,-0.9c1.867,-0.767 2.8,-1.717 2.8,-2.85c0,-1.167 -0.2,-2.4 -0.6,-3.7c-0.133,-0.4 -0.583,-1.567 -1.35,-3.5c0.133,-0.767 0.533,-1.933 1.2,-3.5c0.567,1.2 1.05,2 1.45,2.4c0.6,0.667 1.4,1 2.4,1c0.333,0 1.4,-0.883 3.2,-2.65c2.367,-2.3 4.167,-3.933 5.4,-4.9c2.3,-1.767 4.233,-2.65 5.8,-2.65c1.067,0 1.933,0.333 2.6,1c0.7,0.667 1.05,1.583 1.05,2.75c-0,1.933 -1.017,4.033 -3.05,6.3c0.5,0.133 1.117,0.2 1.85,0.2c0.458,0 1.125,-0.033 2,-0.1l-0,-0.1c1.6,-0 3.133,-0.1 4.6,-0.3c-0.133,-0.833 -0.2,-1.6 -0.2,-2.3c0,-1.567 0.483,-3.367 1.45,-5.4c1.067,-2.367 2.217,-3.55 3.45,-3.55l0.575,0.116Zm-21.825,11.384l-4.4,0c0.933,-1.067 2.25,-2.233 3.95,-3.5c2,-1.5 3.433,-2.25 4.3,-2.25c0.633,0 1.5,0.233 2.6,0.7c1.233,0.567 1.85,1.117 1.85,1.65c0,0.833 -1.183,1.633 -3.55,2.4c-2.033,0.667 -3.617,1 -4.75,1Zm20.3,-6.2c0.333,-0 0.65,0.233 0.95,0.7c0.3,0.433 0.45,0.85 0.45,1.25c-0,0.433 -0.283,1 -0.85,1.7c-0.567,0.7 -1.033,1.05 -1.4,1.05c-0.233,0 -0.583,-0.25 -1.05,-0.75c-0.467,-0.467 -0.7,-0.867 -0.7,-1.2c-0,-0.7 0.267,-1.333 0.8,-1.9c0.567,-0.567 1.167,-0.85 1.8,-0.85Z" style="fill:#f00;"/><path d="M25.35,36.7l2.55,-2.8l-2.55,-2.8l-2.6,2.8l2.6,2.8Z" style="fill:#f00;"/><path d="M48.05,31.75l2.25,2.45l2.25,-2.45l-2.25,-2.45l-2.25,2.45Z" style="fill:#f00;"/><path d="M43.6,31.75l2.2,2.45l2.25,-2.45l-2.2,-2.45l-2.25,2.45Z" style="fill:#f00;"/><path d="M27.036,61.124l-4.9,3.45c-0.676,0.476 -0.839,1.413 -0.362,2.09c0.476,0.676 1.413,0.839 2.09,0.362l4.9,-3.45c0.676,-0.476 0.839,-1.413 0.362,-2.09c-0.476,-0.676 -1.413,-0.839 -2.09,-0.362Z"/><path d="M59.936,17.424l-4.9,3.45c-0.676,0.476 -0.839,1.413 -0.362,2.09c0.476,0.676 1.413,0.839 2.09,0.362l4.9,-3.45c0.676,-0.476 0.839,-1.413 0.362,-2.09c-0.476,-0.676 -1.413,-0.839 -2.09,-0.362Z"/></g></svg>