<?xml version="1.0" encoding="UTF-8" standalone="no"?><!DOCTYPE svg PUBLIC "-//W3C//DTD SVG 1.1//EN" "http://www.w3.org/Graphics/SVG/1.1/DTD/svg11.dtd"><svg width="100%" height="100%" viewBox="0 0 29 92" version="1.1" xmlns="http://www.w3.org/2000/svg" xmlns:xlink="http://www.w3.org/1999/xlink" xml:space="preserve" xmlns:serif="http://www.serif.com/" style="fill-rule:evenodd;clip-rule:evenodd;stroke-linejoin:round;stroke-miterlimit:2;"><g><path d="M5.25,55.3c0,-1.1 0.333,-2.883 1,-5.35c-0.833,0.367 -1.5,1.483 -2,3.35c-0.367,1.433 -0.55,2.833 -0.55,4.2c0,2.6 0.65,4.617 1.95,6.05c1.267,1.4 3.083,2.1 5.45,2.1c2.767,0 5.283,-1.133 7.55,-3.4c2.333,-2.333 3.5,-5.017 3.5,-8.05c0,-1.667 -0.267,-3.383 -0.8,-5.15c-0.733,-2.367 -1.7,-3.55 -2.9,-3.55c-0.9,-0 -1.75,0.8 -2.55,2.4c-0.667,1.4 -1,2.65 -1,3.75c0,2.433 1.367,3.65 4.1,3.65c0.267,0 0.883,-0.067 1.85,-0.2l-0,1.7c-1.033,1.367 -2.4,2.433 -4.1,3.2c-1.533,0.667 -3.2,1 -5,1c-4.333,-0 -6.5,-1.9 -6.5,-5.7Zm12.6,-6.6c0.367,-0 0.85,0.567 1.45,1.7l-0,1.05l-1.35,0.2c-0.167,0.033 -0.667,-0.183 -1.5,-0.65l0,-0.6c0.767,-1.133 1.233,-1.7 1.4,-1.7Z" style="fill:#f00;"/><path d="M17.4,37.7l-2.2,-2.45l-2.25,2.4l2.2,2.5l2.3,-2.45l2.2,2.45l2.25,-2.5l-2.25,-2.4l-2.25,2.45Z" style="fill:#f00;"/><path d="M18.886,23.674l-4.9,3.45c-0.676,0.476 -0.839,1.413 -0.362,2.09c0.476,0.676 1.413,0.839 2.09,0.362l4.9,-3.45c0.676,-0.476 0.839,-1.413 0.362,-2.09c-0.476,-0.676 -1.413,-0.839 -2.09,-0.362Z"/></g></svg>