<?xml version="1.0" encoding="UTF-8" standalone="no"?><!DOCTYPE svg PUBLIC "-//W3C//DTD SVG 1.1//EN" "http://www.w3.org/Graphics/SVG/1.1/DTD/svg11.dtd"><svg width="100%" height="100%" viewBox="0 0 44 82" version="1.1" xmlns="http://www.w3.org/2000/svg" xmlns:xlink="http://www.w3.org/1999/xlink" xml:space="preserve" xmlns:serif="http://www.serif.com/" style="fill-rule:evenodd;clip-rule:evenodd;stroke-linejoin:round;stroke-miterlimit:2;"><g><path d="M18.05,41.25c-0.467,-2.2 -0.983,-4.983 -1.55,-8.35c-0.667,2.633 -0.983,4.033 -0.95,4.2l1.5,9.2c-0.6,0.867 -1.617,1.583 -3.05,2.15c-1.3,0.5 -2.517,0.75 -3.65,0.75c-1.133,-0 -2.217,-0.567 -3.25,-1.7l0,4.9c0,0.967 0.983,1.45 2.95,1.45c2.133,0 3.65,-0.4 4.55,-1.2c0.433,-0.367 1.4,-1.733 2.9,-4.1c0.3,1.033 0.6,2.05 0.9,3.05c0.5,1.233 1.15,1.85 1.95,1.85l1,-0l0,-4.8c-0.377,-0.005 -0.66,-0.055 -0.85,-0.15c-0.667,-0.333 -1.483,-2.75 -2.45,-7.25Z"/><path d="M16.2,24.8c0.467,-0.6 0.7,-1.283 0.7,-2.05c-0,-0.633 -0.167,-1.217 -0.5,-1.75c-0.4,-0.567 -0.883,-0.85 -1.45,-0.85c-0.767,-0 -1.333,0.367 -1.7,1.1c-0.333,0.633 -0.5,1.4 -0.5,2.3c0,1.433 0.567,2.15 1.7,2.15c0.667,-0 1.25,-0.3 1.75,-0.9Zm-0.9,-2.6c0.467,0.367 0.7,0.7 0.7,1c0,0.467 -0.417,0.7 -1.25,0.7c-1,-0 -1.5,-0.35 -1.5,-1.05c0,-0.767 0.333,-1.15 1,-1.15c0.267,-0 0.617,0.167 1.05,0.5Z"/><path d="M30.2,37.05c-0.567,-0.533 -0.967,-0.8 -1.2,-0.8c-0.933,-0 -1.767,0.817 -2.5,2.45c-0.633,1.433 -0.95,2.733 -0.95,3.9c-0,1 0.217,1.817 0.65,2.45c0.5,0.667 1.183,1 2.05,1c0.867,0 1.817,-0.433 2.85,-1.3c0.667,1.167 1,1.95 1,2.35c0,0.367 -0.567,0.733 -1.7,1.1c-0.933,0.3 -1.65,0.45 -2.15,0.45l-6.9,-0l0,4.8l5.2,-0c1.667,-0 3.2,-0.783 4.6,-2.35c1.367,-1.567 2.05,-3.3 2.05,-5.2c0,-4.133 -1,-7.083 -3,-8.85Zm-1.75,3.05c0.6,0.5 1.1,1.133 1.5,1.9l0,0.6c-0.733,0.3 -1.233,0.45 -1.5,0.45c-0.2,0 -0.467,-0.083 -0.8,-0.25l-0.75,-0.4c0.2,-0.733 0.367,-1.2 0.5,-1.4c0.133,-0.167 0.483,-0.467 1.05,-0.9Z" style="fill:#f00;"/><path d="M31.55,34.2l2.25,-2.45l-2.25,-2.45l-2.25,2.45l2.25,2.45Z" style="fill:#f00;"/><path d="M27.05,34.2l2.25,-2.45l-2.2,-2.45l-2.25,2.45l2.2,2.45Z" style="fill:#f00;"/><path d="M29.786,18.574l-4.9,3.45c-0.676,0.476 -0.839,1.413 -0.362,2.09c0.476,0.676 1.413,0.839 2.09,0.362l4.9,-3.45c0.676,-0.476 0.839,-1.413 0.362,-2.09c-0.476,-0.676 -1.413,-0.839 -2.09,-0.362Z"/></g></svg>