<?xml version="1.0" encoding="UTF-8" standalone="no"?><!DOCTYPE svg PUBLIC "-//W3C//DTD SVG 1.1//EN" "http://www.w3.org/Graphics/SVG/1.1/DTD/svg11.dtd"><svg width="100%" height="100%" viewBox="0 0 30 92" version="1.1" xmlns="http://www.w3.org/2000/svg" xmlns:xlink="http://www.w3.org/1999/xlink" xml:space="preserve" xmlns:serif="http://www.serif.com/" style="fill-rule:evenodd;clip-rule:evenodd;stroke-linejoin:round;stroke-miterlimit:2;"><g><path d="M5.6,30.1c-0.3,0.467 -0.45,1.117 -0.45,1.95c0,6.467 0.033,10.617 0.1,12.45c0.233,6.233 0.783,10 1.65,11.3c0.733,1.033 1.767,1.55 3.1,1.55l1.8,-0l-0,-4.8l1.2,0c-2.543,-0.062 -4.227,-0.678 -5.05,-1.85c-0.7,-1.033 -1.05,-3.2 -1.05,-6.5l0,-15.5c-0.433,0.467 -0.867,0.933 -1.3,1.4Z"/><path d="M19.45,40.15c-0.933,0 -1.767,0.817 -2.5,2.45c-0.633,1.433 -0.95,2.733 -0.95,3.9c0,1 0.217,1.817 0.65,2.45c0.5,0.667 1.183,1 2.05,1c0.867,-0 1.817,-0.433 2.85,-1.3c0.667,1.167 1,1.95 1,2.35c-0,0.367 -0.567,0.733 -1.7,1.1c-0.933,0.3 -1.65,0.45 -2.15,0.45l-6.9,0l-0,4.8l5.2,-0c1.667,-0 3.2,-0.783 4.6,-2.35c1.367,-1.567 2.05,-3.3 2.05,-5.2c0,-4.133 -1,-7.083 -3,-8.85c-0.567,-0.533 -0.967,-0.8 -1.2,-0.8Zm-0.55,6.8c-0.2,-0 -0.467,-0.083 -0.8,-0.25l-0.75,-0.4c0.2,-0.733 0.367,-1.2 0.5,-1.4c0.133,-0.167 0.483,-0.467 1.05,-0.9c0.6,0.5 1.1,1.133 1.5,1.9l0,0.6c-0.733,0.3 -1.233,0.45 -1.5,0.45Z" style="fill:#f00;"/><path d="M17.5,38.1l2.25,-2.45l-2.2,-2.45l-2.25,2.45l2.2,2.45Z" style="fill:#f00;"/><path d="M22,38.1l2.25,-2.45l-2.25,-2.45l-2.25,2.45l2.25,2.45Z" style="fill:#f00;"/><path d="M10.566,27.538c-0.405,-0.05 -0.789,-0.264 -1.042,-0.624c-0.477,-0.677 -0.314,-1.614 0.362,-2.09l4.9,-3.45c0.677,-0.477 1.614,-0.314 2.09,0.362c0.472,0.671 0.318,1.595 -0.342,2.076c0.405,0.05 0.789,0.264 1.042,0.624c0.477,0.677 0.314,1.614 -0.362,2.09l-4.9,3.45c-0.677,0.477 -1.614,0.314 -2.09,-0.362c-0.472,-0.671 -0.318,-1.595 0.342,-2.076Z"/></g></svg>