<?xml version="1.0" encoding="UTF-8" standalone="no"?><!DOCTYPE svg PUBLIC "-//W3C//DTD SVG 1.1//EN" "http://www.w3.org/Graphics/SVG/1.1/DTD/svg11.dtd"><svg width="100%" height="100%" viewBox="0 0 73 81" version="1.1" xmlns="http://www.w3.org/2000/svg" xmlns:xlink="http://www.w3.org/1999/xlink" xml:space="preserve" xmlns:serif="http://www.serif.com/" style="fill-rule:evenodd;clip-rule:evenodd;stroke-linejoin:round;stroke-miterlimit:2;"><g><path d="M55.45,51.2c-0.832,-0.019 -1.332,-0.052 -1.5,-0.1c-0.667,-0.133 -1.383,-0.617 -2.15,-1.45c-0.167,1.2 -0.417,2.25 -0.75,3.15c-0,0.033 0.35,0.65 1.05,1.85c0.567,1 0.85,1.55 0.85,1.65c0,1.133 -1.133,2.583 -3.4,4.35c-2.2,1.733 -3.867,2.6 -5,2.6c-0.467,0 -1.117,-0.117 -1.95,-0.35c-0.667,-0.167 -1.317,-0.35 -1.95,-0.55c0.833,1.067 1.8,1.95 2.9,2.65c1.267,0.8 2.467,1.2 3.6,1.2c1.567,-0 3.133,-1.25 4.7,-3.75c1.433,-2.233 2.25,-4.3 2.45,-6.2c0.233,-0.167 0.533,-0.25 0.9,-0.25l0.1,0l-0,-4.8l0.15,-0Z"/><path d="M16.1,56l0,-0.05c-0.344,0.025 -0.761,0.042 -1.25,0.05l1.25,0Z"/><path d="M8.25,28.75c-0.3,0.467 -0.45,1.117 -0.45,1.95c-0,6.467 0.033,10.617 0.1,12.45c0.233,6.233 0.783,10 1.65,11.3c0.733,1.033 1.767,1.55 3.1,1.55l1.75,0l-0,-4.8l1.7,-0c-2.8,-0 -4.633,-0.617 -5.5,-1.85c-0.7,-1.033 -1.05,-3.2 -1.05,-6.5l-0,-15.5c-0.433,0.467 -0.867,0.933 -1.3,1.4Z"/><path d="M51.05,24c-0.767,0 -1.333,0.367 -1.7,1.1c-0.333,0.633 -0.5,1.4 -0.5,2.3c0,1.433 0.567,2.15 1.7,2.15c0.667,0 1.25,-0.3 1.75,-0.9c0.467,-0.6 0.7,-1.283 0.7,-2.05c-0,-0.633 -0.167,-1.217 -0.5,-1.75c-0.4,-0.567 -0.883,-0.85 -1.45,-0.85Zm-0.7,1.55c0.267,0 0.617,0.167 1.05,0.5c0.467,0.367 0.7,0.7 0.7,1c0,0.467 -0.417,0.7 -1.25,0.7c-1,0 -1.5,-0.35 -1.5,-1.05c0,-0.767 0.333,-1.15 1,-1.15Z"/><path d="M42.7,46.25c0,-1 -0.333,-1.917 -1,-2.75c-0.7,-0.867 -1.5,-1.3 -2.4,-1.3c-1.4,-0 -3.167,0.667 -5.3,2c-1.333,0.867 -3.183,2.283 -5.55,4.25c-2.4,1.967 -4,3.217 -4.8,3.75c-0.9,-0 -1.733,-0.333 -2.5,-1c-0.733,-0.667 -1.233,-1.467 -1.5,-2.4c-0.4,0.9 -0.75,1.517 -1.05,1.85c-0.433,0.433 -1.033,0.633 -1.8,0.6l-0.7,-0.05l-1.7,-0l-0,4.8l0.45,-0c0.489,-0.008 0.906,-0.025 1.25,-0.05c0.699,-0.046 1.149,-0.129 1.35,-0.25c0.267,-0.167 0.85,-0.967 1.75,-2.4c1.033,1.367 2.15,2.25 3.35,2.65c0.867,0.3 2.267,0.45 4.2,0.45c3.3,-0 6.583,-0.783 9.85,-2.35c4.067,-2 6.1,-4.6 6.1,-7.8Zm-4.7,0.9c1.2,0.467 1.8,0.95 1.8,1.45c-0,0.767 -1.25,1.583 -3.75,2.45c-2.167,0.767 -3.8,1.15 -4.9,1.15l-5,-0c4.3,-3.833 7.45,-5.75 9.45,-5.75c0.567,-0 1.367,0.233 2.4,0.7Z" style="fill:#f00;"/><path d="M63.425,39c0.2,0.133 0.442,0.333 0.725,0.6c2,1.767 3,4.717 3,8.85c-0,1.9 -0.683,3.633 -2.05,5.2c-1.4,1.567 -2.933,2.35 -4.6,2.35l-5.2,-0l-0,-4.8l6.9,-0c0.5,-0 1.217,-0.15 2.15,-0.45c1.133,-0.367 1.7,-0.733 1.7,-1.1c-0,-0.4 -0.333,-1.183 -1,-2.35c-1.033,0.867 -1.983,1.3 -2.85,1.3c-0.867,0 -1.55,-0.333 -2.05,-1c-0.433,-0.633 -0.65,-1.45 -0.65,-2.45c-0,-1.167 0.317,-2.467 0.95,-3.9c0.733,-1.633 1.567,-2.45 2.5,-2.45l0.475,0.2Zm-1.025,3.65c0.6,0.5 1.1,1.133 1.5,1.9l-0,0.6c-0.733,0.3 -1.233,0.45 -1.5,0.45c-0.2,0 -0.467,-0.083 -0.8,-0.25l-0.75,-0.4c0.2,-0.733 0.367,-1.2 0.5,-1.4c0.133,-0.167 0.483,-0.467 1.05,-0.9Z" style="fill:#f00;"/><path d="M28.1,34.55l-2.55,2.85l2.55,2.75l2.55,-2.75l-2.55,-2.85Z" style="fill:#f00;"/><path d="M61,36.75l2.25,-2.45l-2.2,-2.45l-2.25,2.45l2.2,2.45Z" style="fill:#f00;"/><path d="M63.25,34.3l2.25,2.45l2.25,-2.45l-2.25,-2.45l-2.25,2.45Z" style="fill:#f00;"/><path d="M13.716,26.938c-0.402,-0.049 -0.783,-0.261 -1.037,-0.616c-0.481,-0.674 -0.325,-1.611 0.349,-2.093l4.9,-3.5c0.674,-0.481 1.611,-0.325 2.093,0.349c0.478,0.67 0.326,1.6 -0.337,2.084c0.402,0.049 0.783,0.261 1.037,0.616c0.481,0.674 0.325,1.611 -0.349,2.093l-4.9,3.5c-0.674,0.481 -1.611,0.325 -2.093,-0.349c-0.478,-0.67 -0.326,-1.6 0.337,-2.084Z"/><path d="M63.778,22.079l-4.9,3.5c-0.674,0.482 -0.83,1.419 -0.349,2.093c0.482,0.674 1.419,0.83 2.093,0.349l4.9,-3.5c0.674,-0.482 0.83,-1.419 0.349,-2.093c-0.482,-0.674 -1.419,-0.83 -2.093,-0.349Z"/></g></svg>