<?xml version="1.0" encoding="UTF-8" standalone="no"?><!DOCTYPE svg PUBLIC "-//W3C//DTD SVG 1.1//EN" "http://www.w3.org/Graphics/SVG/1.1/DTD/svg11.dtd"><svg width="100%" height="100%" viewBox="0 0 109 82" version="1.1" xmlns="http://www.w3.org/2000/svg" xmlns:xlink="http://www.w3.org/1999/xlink" xml:space="preserve" xmlns:serif="http://www.serif.com/" style="fill-rule:evenodd;clip-rule:evenodd;stroke-linejoin:round;stroke-miterlimit:2;"><g><path d="M14.1,48.6c-0.667,-0.133 -1.383,-0.617 -2.15,-1.45c-0.167,1.2 -0.417,2.25 -0.75,3.15c0,0.033 0.35,0.65 1.05,1.85c0.567,1 0.85,1.55 0.85,1.65c0,1.133 -1.133,2.583 -3.4,4.35c-2.2,1.733 -3.867,2.6 -5,2.6c-0.467,0 -1.117,-0.117 -1.95,-0.35c-0.667,-0.167 -1.317,-0.35 -1.95,-0.55c0.833,1.067 1.8,1.95 2.9,2.65c1.267,0.8 2.467,1.2 3.6,1.2c1.567,-0 3.133,-1.25 4.7,-3.75c1.433,-2.233 2.25,-4.3 2.45,-6.2c0.233,-0.167 0.533,-0.25 0.9,-0.25l0.1,0l0,-4.8c-0.744,-0.022 -1.194,-0.055 -1.35,-0.1Z"/><path d="M64.6,24.1c0.033,0.2 -0.017,0.5 -0.15,0.9c-0.1,0.367 -0.15,0.633 -0.15,0.8c-0,0.567 0.333,1.217 1,1.95c0.667,0.7 1,1.167 1,1.4c-0,0.6 -0.2,1.367 -0.6,2.3c-0.4,0.933 -0.6,1.6 -0.6,2c0,0.8 0.067,2.017 0.2,3.65c0.167,1.6 0.25,2.817 0.25,3.65l-0,4.45c-0,2.133 -0.283,3.917 -0.85,5.35c-0.733,1.967 -1.933,2.95 -3.6,2.95l-3.25,-0l0,-4.8l1.45,-0l0.85,0.05c2.3,0.067 3.45,-0.583 3.45,-1.95c0,-7.067 -0.25,-12.35 -0.75,-15.85c-0.8,-0.967 -1.267,-1.783 -1.4,-2.45c0.767,-2.333 1.817,-3.983 3.15,-4.95l0,0.55Z"/><path d="M15.95,53.5l0.8,0l0,-0.05c-0.236,0.027 -0.502,0.044 -0.8,0.05Z"/><path d="M96.25,23.55c-2.7,0.6 -5.9,2.217 -9.6,4.85c-4.267,3.033 -6.4,5.767 -6.4,8.2c0,1.467 0.667,2.717 2,3.75c1.233,0.8 2.467,1.6 3.7,2.4c1.333,0.967 2,2.067 2,3.3c0,1.8 -2.267,2.7 -6.8,2.7l-1.1,0l-0,-0.05c-2.8,-0 -4.633,-0.617 -5.5,-1.85c-0.7,-1.033 -1.05,-3.2 -1.05,-6.5l-0,-15.5c-0.433,0.467 -0.867,0.933 -1.3,1.4c-0.3,0.467 -0.45,1.117 -0.45,1.95c-0,6.467 0.033,10.617 0.1,12.45c0.233,6.233 0.783,10 1.65,11.3c0.733,1.033 1.767,1.55 3.1,1.55l6.55,0c1.967,0 3.6,-0.833 4.9,-2.5c1.233,-1.567 1.85,-3.467 1.85,-5.7c-0,-1.6 -0.417,-3.033 -1.25,-4.3c-0.633,-1 -1.617,-2.017 -2.95,-3.05c-1.167,-0.833 -2.333,-1.667 -3.5,-2.5c0.9,-1 3,-2.4 6.3,-4.2c0.6,-0.367 2.933,-1.583 7,-3.65l0.75,-4.05Z"/><path d="M32.5,19.4c-0.767,-0 -1.333,0.367 -1.7,1.1c-0.333,0.633 -0.5,1.4 -0.5,2.3c-0,1.433 0.567,2.15 1.7,2.15c0.667,-0 1.25,-0.3 1.75,-0.9c0.467,-0.6 0.7,-1.283 0.7,-2.05c0,-0.633 -0.167,-1.217 -0.5,-1.75c-0.4,-0.567 -0.883,-0.85 -1.45,-0.85Zm-0.2,3.75c-1,-0 -1.5,-0.35 -1.5,-1.05c-0,-0.767 0.333,-1.15 1,-1.15c0.267,-0 0.617,0.167 1.05,0.5c0.467,0.367 0.7,0.7 0.7,1c-0,0.467 -0.417,0.7 -1.25,0.7Z"/><path d="M63.65,15.55c-0.767,0 -1.333,0.367 -1.7,1.1c-0.333,0.633 -0.5,1.4 -0.5,2.3c0,1.433 0.567,2.15 1.7,2.15c0.667,0 1.25,-0.3 1.75,-0.9c0.467,-0.6 0.7,-1.283 0.7,-2.05c0,-0.633 -0.167,-1.217 -0.5,-1.75c-0.4,-0.567 -0.883,-0.85 -1.45,-0.85Zm-0.7,1.55c0.267,0 0.617,0.167 1.05,0.5c0.467,0.367 0.7,0.7 0.7,1c0,0.467 -0.417,0.7 -1.25,0.7c-1,0 -1.5,-0.35 -1.5,-1.05c0,-0.767 0.333,-1.15 1,-1.15Z"/><path d="M58.15,48.7l1.15,-0l-1.15,-0Z" style="fill:#f00;"/><path d="M42.6,40.65c-0.7,-0.867 -1.467,-1.3 -2.3,-1.3c-1.4,0 -3.167,0.667 -5.3,2c-1.367,0.867 -3.217,2.267 -5.55,4.2c-2.467,2.033 -4.067,3.3 -4.8,3.8c-0.9,0 -1.733,-0.333 -2.5,-1c-0.8,-0.667 -1.3,-1.467 -1.5,-2.4c-0.5,1.167 -1,1.933 -1.5,2.3c-0.433,0.3 -1.117,0.45 -2.05,0.45l-1.65,-0l0,4.8l0.5,0c0.298,-0.006 0.564,-0.023 0.8,-0.05c0.908,-0.045 1.491,-0.162 1.75,-0.35c0.2,-0.133 0.783,-1.033 1.75,-2.7c1.333,2.1 3.533,3.15 6.6,3.15l20.3,-0.05c1.133,0 2.667,-0.7 4.6,-2.1c1.567,1.4 2.85,2.1 3.85,2.1l2.25,0l0,-4.8c-0.879,0.005 -1.379,0.005 -1.5,-0c-0.822,-0.065 -1.389,-0.282 -1.7,-0.65c1.133,-1.9 1.7,-3.9 1.7,-6c0,-1.033 -0.2,-2.05 -0.6,-3.05c-0.533,-1.233 -1.2,-1.85 -2,-1.85c-1.233,-0 -2.383,1.183 -3.45,3.55c-0.967,2.033 -1.45,3.833 -1.45,5.4c0,0.7 0.067,1.467 0.2,2.3c-1.467,0.2 -3,0.3 -4.6,0.3l0,0.1c-0.298,0.014 -0.632,0.03 -1,0.05c-1.2,0.067 -2.15,0.017 -2.85,-0.15c1,-1.1 1.667,-1.883 2,-2.35c0.7,-1.067 1.05,-2.05 1.05,-2.95c-0,-0.967 -0.35,-1.883 -1.05,-2.75Zm-6.15,2.95c0.6,0 1.433,0.217 2.5,0.65c1.233,0.5 1.85,0.983 1.85,1.45c-0,1.1 -1.667,2.05 -5,2.85c-2.6,0.667 -4.65,1 -6.15,1l-2.45,0c3.967,-3.967 7.05,-5.95 9.25,-5.95Zm16.35,-1.15c0.333,-0 0.65,0.233 0.95,0.7c0.3,0.433 0.45,0.85 0.45,1.25c0,0.433 -0.283,1 -0.85,1.7c-0.567,0.7 -1.033,1.05 -1.4,1.05c-0.233,-0 -0.583,-0.25 -1.05,-0.75c-0.467,-0.467 -0.7,-0.867 -0.7,-1.2c0,-0.7 0.267,-1.333 0.8,-1.9c0.567,-0.567 1.167,-0.85 1.8,-0.85Z" style="fill:#f00;"/><path d="M54.65,34.25l2.25,-2.45l-2.25,-2.45l-2.25,2.45l2.25,2.45Z" style="fill:#f00;"/><path d="M47.95,31.8l2.2,2.45l2.25,-2.45l-2.2,-2.45l-2.25,2.45Z" style="fill:#f00;"/><path d="M10.986,64.624l-4.9,3.45c-0.676,0.476 -0.839,1.413 -0.362,2.09c0.476,0.676 1.413,0.839 2.09,0.362l4.9,-3.45c0.676,-0.476 0.839,-1.413 0.362,-2.09c-0.476,-0.676 -1.413,-0.839 -2.09,-0.362Z"/><path d="M81.628,18.629l-4.9,3.5c-0.674,0.482 -0.83,1.419 -0.349,2.093c0.482,0.674 1.419,0.83 2.093,0.349l4.9,-3.5c0.674,-0.482 0.83,-1.419 0.349,-2.093c-0.482,-0.674 -1.419,-0.83 -2.093,-0.349Z"/><path d="M54.678,18.629l-4.9,3.5c-0.674,0.482 -0.83,1.419 -0.349,2.093c0.482,0.674 1.419,0.83 2.093,0.349l4.9,-3.5c0.674,-0.482 0.83,-1.419 0.349,-2.093c-0.482,-0.674 -1.419,-0.83 -2.093,-0.349Z"/></g></svg>