<?xml version="1.0" encoding="UTF-8" standalone="no"?><!DOCTYPE svg PUBLIC "-//W3C//DTD SVG 1.1//EN" "http://www.w3.org/Graphics/SVG/1.1/DTD/svg11.dtd"><svg width="100%" height="100%" viewBox="0 0 104 81" version="1.1" xmlns="http://www.w3.org/2000/svg" xmlns:xlink="http://www.w3.org/1999/xlink" xml:space="preserve" xmlns:serif="http://www.serif.com/" style="fill-rule:evenodd;clip-rule:evenodd;stroke-linejoin:round;stroke-miterlimit:2;"><g><path d="M11.2,30.85c0,6.467 0.033,10.617 0.1,12.45c0.233,6.233 0.783,10 1.65,11.3c0.733,1.033 1.767,1.55 3.1,1.55l1.75,-0l-0,-4.8l1.7,0c-2.8,0 -4.633,-0.617 -5.5,-1.85c-0.7,-1.033 -1.05,-3.2 -1.05,-6.5l0,-15.5c-0.433,0.467 -0.867,0.933 -1.3,1.4c-0.3,0.467 -0.45,1.117 -0.45,1.95Z"/><path d="M52.95,49.5c-0.7,-1.033 -1.05,-3.2 -1.05,-6.5l-0,-15.5c-0.433,0.467 -0.867,0.933 -1.3,1.4c-0.3,0.467 -0.45,1.117 -0.45,1.95c-0,6.467 0.033,10.617 0.1,12.45c0.233,6.233 0.783,10 1.65,11.3c0.733,1.033 1.767,1.55 3.1,1.55l1.75,-0l-0,-4.8l1.35,0c-2.602,-0.05 -4.319,-0.667 -5.15,-1.85Z"/><path d="M19.5,56.1c-0.344,0.025 -0.761,0.042 -1.25,0.05l1.25,-0l0,-0.05Z"/><path d="M58.45,56.15l0,-0.1c-0.346,0.054 -0.762,0.087 -1.25,0.1l1.25,-0Z"/><path d="M46.1,46.4c0,-1 -0.333,-1.917 -1,-2.75c-0.7,-0.867 -1.5,-1.3 -2.4,-1.3c-1.4,0 -3.167,0.667 -5.3,2c-1.333,0.867 -3.183,2.283 -5.55,4.25c-2.4,1.967 -4,3.217 -4.8,3.75c-0.9,0 -1.733,-0.333 -2.5,-1c-0.733,-0.667 -1.233,-1.467 -1.5,-2.4c-0.4,0.9 -0.75,1.517 -1.05,1.85c-0.433,0.433 -1.033,0.633 -1.8,0.6l-0.7,-0.05l-1.7,0l-0,4.8l0.45,-0c0.489,-0.008 0.906,-0.025 1.25,-0.05c0.699,-0.046 1.149,-0.129 1.35,-0.25c0.267,-0.167 0.85,-0.967 1.75,-2.4c1.033,1.367 2.15,2.25 3.35,2.65c0.867,0.3 2.267,0.45 4.2,0.45c3.3,0 6.583,-0.783 9.85,-2.35c4.067,-2 6.1,-4.6 6.1,-7.8Zm-2.9,2.35c0,0.767 -1.25,1.583 -3.75,2.45c-2.167,0.767 -3.8,1.15 -4.9,1.15l-5,0c4.3,-3.833 7.45,-5.75 9.45,-5.75c0.567,0 1.367,0.233 2.4,0.7c1.2,0.467 1.8,0.95 1.8,1.45Z" style="fill:#f00;"/><path d="M63.45,51c-0.8,-0.667 -1.3,-1.467 -1.5,-2.4c-0.5,1.167 -1,1.933 -1.5,2.3c-0.426,0.295 -1.092,0.445 -2,0.45l-1.7,0l0,4.8l0.45,-0c0.488,-0.013 0.904,-0.046 1.25,-0.1c0.681,-0.041 1.131,-0.141 1.35,-0.3c0.2,-0.133 0.783,-1.033 1.75,-2.7c1.333,2.1 3.533,3.15 6.6,3.15l22.8,-0.05c1.667,-0 3.2,-0.783 4.6,-2.35c1.367,-1.567 2.05,-3.3 2.05,-5.2c0,-4.133 -1,-7.083 -3,-8.85c-0.567,-0.533 -0.967,-0.8 -1.2,-0.8c-0.933,-0 -1.767,0.817 -2.5,2.45c-0.633,1.433 -0.95,2.733 -0.95,3.9c0,1 0.217,1.817 0.65,2.45c0.5,0.667 1.183,1 2.05,1c0.867,0 1.817,-0.433 2.85,-1.3c0.667,1.167 1,1.95 1,2.35c0,0.367 -0.567,0.733 -1.7,1.1c-0.933,0.3 -1.65,0.45 -2.15,0.45l-6.9,0l0,0.1c-0.298,0.014 -0.632,0.03 -1,0.05c-1.2,0.067 -2.15,0.017 -2.85,-0.15c1,-1.1 1.667,-1.883 2,-2.35c0.7,-1.067 1.05,-2.05 1.05,-2.95c0,-0.967 -0.35,-1.883 -1.05,-2.75c-0.7,-0.867 -1.467,-1.3 -2.3,-1.3c-1.4,-0 -3.167,0.667 -5.3,2c-1.367,0.867 -3.217,2.267 -5.55,4.2c-2.467,2.033 -4.067,3.3 -4.8,3.8c-0.9,-0 -1.733,-0.333 -2.5,-1Zm16.8,-4.1c1.233,0.5 1.85,0.983 1.85,1.45c0,1.1 -1.667,2.05 -5,2.85c-2.6,0.667 -4.65,1 -6.15,1l-2.45,-0c3.967,-3.967 7.05,-5.95 9.25,-5.95c0.6,-0 1.433,0.217 2.5,0.65Zm11.55,-3.2c0.133,-0.167 0.483,-0.467 1.05,-0.9c0.6,0.5 1.1,1.133 1.5,1.9l0,0.6c-0.733,0.3 -1.233,0.45 -1.5,0.45c-0.2,-0 -0.467,-0.083 -0.8,-0.25l-0.75,-0.4c0.2,-0.733 0.367,-1.2 0.5,-1.4Z" style="fill:#f00;"/><path d="M98.2,34.45l-2.25,-2.45l-2.25,2.45l2.25,2.45l2.25,-2.45Z" style="fill:#f00;"/><path d="M93.7,34.45l-2.2,-2.45l-2.25,2.45l2.2,2.45l2.25,-2.45Z" style="fill:#f00;"/><path d="M93.228,60.479l-4.9,3.5c-0.674,0.482 -0.83,1.419 -0.349,2.093c0.482,0.674 1.419,0.83 2.093,0.349l4.9,-3.5c0.674,-0.482 0.83,-1.419 0.349,-2.093c-0.482,-0.674 -1.419,-0.83 -2.093,-0.349Z"/><path d="M17.066,27.288c-0.405,-0.05 -0.789,-0.264 -1.042,-0.624c-0.477,-0.677 -0.314,-1.614 0.362,-2.09l4.9,-3.45c0.677,-0.477 1.614,-0.314 2.09,0.362c0.472,0.671 0.318,1.595 -0.342,2.076c0.405,0.05 0.789,0.264 1.042,0.624c0.477,0.677 0.314,1.614 -0.362,2.09l-4.9,3.45c-0.677,0.477 -1.614,0.314 -2.09,-0.362c-0.472,-0.671 -0.318,-1.595 0.342,-2.076Z"/><path d="M61.028,22.079l-4.9,3.5c-0.674,0.482 -0.83,1.419 -0.349,2.093c0.482,0.674 1.419,0.83 2.093,0.349l4.9,-3.5c0.674,-0.482 0.83,-1.419 0.349,-2.093c-0.482,-0.674 -1.419,-0.83 -2.093,-0.349Z"/></g></svg>