<?xml version="1.0" encoding="UTF-8" standalone="no"?><!DOCTYPE svg PUBLIC "-//W3C//DTD SVG 1.1//EN" "http://www.w3.org/Graphics/SVG/1.1/DTD/svg11.dtd"><svg width="100%" height="100%" viewBox="0 0 152 73" version="1.1" xmlns="http://www.w3.org/2000/svg" xmlns:xlink="http://www.w3.org/1999/xlink" xml:space="preserve" xmlns:serif="http://www.serif.com/" style="fill-rule:evenodd;clip-rule:evenodd;stroke-linejoin:round;stroke-miterlimit:2;"><g><path d="M127.3,18.45c-0.3,0.267 -0.75,0.917 -1.35,1.95c-0.667,1.1 -0.983,1.783 -0.95,2.05l1.7,27.1c0.067,0.967 -0.817,1.783 -2.65,2.45c-1.467,0.567 -2.733,0.85 -3.8,0.85c-1.567,0 -2.833,-0.317 -3.8,-0.95c-1.233,-0.8 -1.85,-2 -1.85,-3.6c0,-2 0.183,-3.883 0.55,-5.65c-0.667,0.533 -1.25,1.75 -1.75,3.65c-0.5,1.667 -0.75,3.067 -0.75,4.2c-0,2.667 0.383,4.6 1.15,5.8c0.9,1.5 2.483,2.25 4.75,2.25c3.4,0 5.9,-1.35 7.5,-4.05c1.033,-1.7 1.95,-4.717 2.75,-9.05c0.467,0.4 0.9,0.817 1.3,1.25c0.533,0.433 1.067,0.65 1.6,0.65l1.25,0l0,-4.8l1.8,0c-2.363,-0.044 -3.963,-0.677 -4.8,-1.9c-0.833,-1.2 -1.483,-4.733 -1.95,-10.6c-0.233,-3.867 -0.467,-7.733 -0.7,-11.6Z"/><path d="M80.55,35.15c-0.467,-2.2 -0.983,-4.983 -1.55,-8.35c-0.667,2.633 -0.983,4.033 -0.95,4.2l1.5,9.2c-0.6,0.867 -1.617,1.583 -3.05,2.15c-1.3,0.5 -2.517,0.75 -3.65,0.75c-1.133,0 -2.217,-0.567 -3.25,-1.7l0,4.9c0,0.967 0.983,1.45 2.95,1.45c2.133,0 3.65,-0.4 4.55,-1.2c0.433,-0.367 1.4,-1.733 2.9,-4.1c0.3,1.033 0.6,2.05 0.9,3.05c0.5,1.233 1.15,1.85 1.95,1.85l1,0l0,-4.8c-0.377,-0.005 -0.66,-0.055 -0.85,-0.15c-0.667,-0.333 -1.483,-2.75 -2.45,-7.25Z"/><path d="M43.55,17.85c-1.567,2.233 -2.333,3.567 -2.3,4l0.55,25.55c1.267,-1.167 1.9,-4.267 1.9,-9.3l-0.15,-20.25Z"/><path d="M85.45,47.35l0,-0.05c-0.33,0.025 -0.714,0.042 -1.15,0.05l1.15,0Z"/><path d="M85.45,42.55l-0.3,0l0.3,0Z"/><path d="M22.9,17.6c-1.567,1.333 -2.35,2.767 -2.35,4.3c-0,1.9 0.167,4.75 0.5,8.55c0.333,3.833 0.5,6.683 0.5,8.55c-0,1.567 -0.45,2.6 -1.35,3.1c-0.488,0.258 -1.372,0.408 -2.65,0.45c-1.589,-0.031 -2.506,-0.114 -2.75,-0.25c-0.933,-0.433 -1.717,-2.4 -2.35,-5.9c-0.467,-2.733 -0.7,-5.033 -0.7,-6.9c-0.967,1.333 -1.45,2.183 -1.45,2.55l0.25,3.2c-2.167,1.267 -3.717,2.417 -4.65,3.45c-1.367,1.567 -2.05,3.417 -2.05,5.55c0,0.8 0.783,1.2 2.35,1.2c1.5,-0 2.583,-0.15 3.25,-0.45c0.8,-0.4 1.617,-1.25 2.45,-2.55c0.367,1.033 0.733,2.067 1.1,3.1c0.567,1.2 1.283,1.8 2.15,1.8l4.1,0c0.767,0 1.467,-0.55 2.1,-1.65c1,-1.7 1.517,-2.567 1.55,-2.6c0.433,0.9 0.867,1.817 1.3,2.75c0.6,1 1.317,1.5 2.15,1.5l4.2,0c1.667,0 2.867,-0.983 3.6,-2.95c0.567,-1.433 0.85,-3.217 0.85,-5.35l0,-4.45c0,-0.833 -0.083,-2.05 -0.25,-3.65c-0.133,-1.633 -0.2,-2.85 -0.2,-3.65c-0,-0.4 0.2,-1.067 0.6,-2c0.4,-0.933 0.6,-1.7 0.6,-2.3c0,-0.233 -0.333,-0.7 -1,-1.4c-0.667,-0.733 -1,-1.383 -1,-1.95c0,-0.167 0.05,-0.433 0.15,-0.8c0.133,-0.4 0.183,-0.7 0.15,-0.9l-0,-0.55c-1.333,0.967 -2.383,2.617 -3.15,4.95c0.133,0.667 0.6,1.483 1.4,2.45c0.5,3.5 0.75,8.783 0.75,15.85c-0,1.367 -1.15,2.017 -3.45,1.95l-0.9,-0.05c-1.8,0 -3.083,-0.567 -3.85,-1.7c-0.667,-0.967 -1,-2.467 -1,-4.5c0,-2.333 -0.133,-5.45 -0.4,-9.35c-0.3,-4.733 -0.483,-7.867 -0.55,-9.4Zm-11.75,21.85c-0,0.3 -0.4,0.567 -1.2,0.8c-0.633,0.2 -1.133,0.3 -1.5,0.3c-0.433,0 -1.017,-0.15 -1.75,-0.45c1.467,-1.067 2.817,-1.9 4.05,-2.5c0.267,1.067 0.4,1.683 0.4,1.85Z"/><path d="M6.85,21.1c0,0.467 0.4,0.95 1.2,1.45c-1.433,1.2 -2.783,2.1 -4.05,2.7c0.433,0.133 0.8,0.2 1.1,0.2c1.033,-0 2.3,-0.8 3.8,-2.4c0.567,0.367 1.067,0.65 1.5,0.85l0.15,-1.65c-0.333,-0.233 -0.583,-0.417 -0.75,-0.55c0.4,-0.833 0.6,-1.5 0.6,-2c-0,-0.967 -0.433,-1.45 -1.3,-1.45c-0.6,-0 -1.133,0.35 -1.6,1.05c-0.433,0.6 -0.65,1.2 -0.65,1.8Zm2.35,-0.35c0,0.133 -0.033,0.3 -0.1,0.5c-0.833,-0.433 -1.25,-0.85 -1.25,-1.25c0.067,-0.167 0.183,-0.267 0.35,-0.3c0.667,0.1 1,0.45 1,1.05Z"/><path d="M21.75,12.2l-0.25,0.1c-0.1,0.667 -0.2,1.133 -0.3,1.4c-0.2,0.567 -0.467,0.85 -0.8,0.85c-0.333,0 -0.5,-0.517 -0.5,-1.55l-0.3,0.05c-0.167,0.733 -0.25,1.2 -0.25,1.4c0,0.4 0.067,0.733 0.2,1c0.2,0.333 0.467,0.5 0.8,0.5c0.3,-0 0.583,-0.117 0.85,-0.35c0.267,-0.233 0.417,-0.517 0.45,-0.85c0.233,0.2 0.5,0.3 0.8,0.3c0.867,0 1.3,-0.783 1.3,-2.35c0,-0.4 -0.05,-0.833 -0.15,-1.3l-0.3,0.1c-0,1.4 -0.283,2.1 -0.85,2.1c-0.267,0 -0.5,-0.467 -0.7,-1.4Z"/><path d="M125.95,10.95c-0.767,-0 -1.333,0.367 -1.7,1.1c-0.333,0.633 -0.5,1.4 -0.5,2.3c0,1.433 0.567,2.15 1.7,2.15c0.667,0 1.25,-0.3 1.75,-0.9c0.467,-0.6 0.7,-1.283 0.7,-2.05c-0,-0.633 -0.167,-1.217 -0.5,-1.75c-0.4,-0.567 -0.883,-0.85 -1.45,-0.85Zm1.05,3.05c0,0.467 -0.417,0.7 -1.25,0.7c-1,-0 -1.5,-0.35 -1.5,-1.05c0,-0.767 0.333,-1.15 1,-1.15c0.267,0 0.617,0.167 1.05,0.5c0.467,0.367 0.7,0.7 0.7,1Z"/><path d="M141.4,10.95c-0.6,-0 -1.133,0.35 -1.6,1.05c-0.433,0.6 -0.65,1.2 -0.65,1.8c-0,0.467 0.4,0.95 1.2,1.45c-1.433,1.2 -2.783,2.1 -4.05,2.7c0.433,0.133 0.8,0.2 1.1,0.2c1.033,-0 2.3,-0.8 3.8,-2.4c0.567,0.367 1.067,0.65 1.5,0.85l0.15,-1.65c-0.333,-0.233 -0.583,-0.417 -0.75,-0.55c0.4,-0.833 0.6,-1.5 0.6,-2c0,-0.967 -0.433,-1.45 -1.3,-1.45Zm0.1,2.5c0,0.133 -0.033,0.3 -0.1,0.5c-0.833,-0.433 -1.25,-0.85 -1.25,-1.25c0.067,-0.167 0.183,-0.267 0.35,-0.3c0.667,0.1 1,0.45 1,1.05Z"/><path d="M109.406,33.631c0.638,0.163 1.219,0.569 1.744,1.219c0.667,0.833 1,1.75 1,2.75c-0,3.2 -2.033,5.8 -6.1,7.8c-3.267,1.567 -6.55,2.35 -9.85,2.35c-1.933,0 -3.333,-0.15 -4.2,-0.45c-1.2,-0.4 -2.317,-1.283 -3.35,-2.65c-0.9,1.433 -1.483,2.233 -1.75,2.4c-0.211,0.126 -0.694,0.21 -1.45,0.25c-0.33,0.025 -0.714,0.042 -1.15,0.05l-0.45,0l0,-4.8l1.6,0l0.8,0.05c0.767,0.033 1.367,-0.167 1.8,-0.6c0.3,-0.333 0.65,-0.95 1.05,-1.85c0.267,0.933 0.767,1.733 1.5,2.4c0.767,0.667 1.6,1 2.5,1c0.8,-0.533 2.4,-1.783 4.8,-3.75c2.367,-1.967 4.217,-3.383 5.55,-4.25c2.133,-1.333 3.9,-2 5.3,-2l0.656,0.081Zm-13.806,9.919c4.3,-3.833 7.45,-5.75 9.45,-5.75c0.567,0 1.367,0.233 2.4,0.7c1.2,0.467 1.8,0.95 1.8,1.45c0,0.767 -1.25,1.583 -3.75,2.45c-2.167,0.767 -3.8,1.15 -4.9,1.15l-5,0Z" style="fill:#f00;"/><path d="M57.55,37.8c-0.667,1.4 -1,2.65 -1,3.75c-0,2.433 1.367,3.65 4.1,3.65c0.267,-0 0.883,-0.067 1.85,-0.2l-0,1.7c-1.033,1.367 -2.4,2.433 -4.1,3.2c-1.533,0.667 -3.2,1 -5,1c-4.333,-0 -6.5,-1.9 -6.5,-5.7c-0,-1.1 0.333,-2.883 1,-5.35c-0.833,0.367 -1.5,1.483 -2,3.35c-0.367,1.433 -0.55,2.833 -0.55,4.2c0,2.6 0.65,4.617 1.95,6.05c1.267,1.4 3.083,2.1 5.45,2.1c2.767,0 5.283,-1.133 7.55,-3.4c2.333,-2.333 3.5,-5.017 3.5,-8.05c-0,-1.667 -0.267,-3.383 -0.8,-5.15c-0.733,-2.367 -1.7,-3.55 -2.9,-3.55c-0.9,-0 -1.75,0.8 -2.55,2.4Zm3.4,2.5l0,1.05l-1.35,0.2c-0.167,0.033 -0.667,-0.183 -1.5,-0.65l0,-0.6c0.767,-1.133 1.233,-1.7 1.4,-1.7c0.367,0 0.85,0.567 1.45,1.7Z" style="fill:#f00;"/><path d="M138.1,32.6c-0.633,1.433 -0.95,2.733 -0.95,3.9c-0,1 0.217,1.817 0.65,2.45c0.5,0.667 1.183,1 2.05,1c0.867,-0 1.817,-0.433 2.85,-1.3c0.667,1.167 1,1.95 1,2.35c0,0.367 -0.567,0.733 -1.7,1.1c-0.933,0.3 -1.65,0.45 -2.15,0.45l-6.9,0l0,4.8l5.2,0c1.667,0 3.2,-0.783 4.6,-2.35c1.367,-1.567 2.05,-3.3 2.05,-5.2c-0,-4.133 -1,-7.083 -3,-8.85c-0.567,-0.533 -0.967,-0.8 -1.2,-0.8c-0.933,-0 -1.767,0.817 -2.5,2.45Zm0.9,2.3c0.133,-0.167 0.483,-0.467 1.05,-0.9c0.6,0.5 1.1,1.133 1.5,1.9l-0,0.6c-0.733,0.3 -1.233,0.45 -1.5,0.45c-0.2,-0 -0.467,-0.083 -0.8,-0.25l-0.75,-0.4c0.2,-0.733 0.367,-1.2 0.5,-1.4Z" style="fill:#f00;"/><path d="M63.55,27.55l-2.25,-2.4l-2.25,2.45l-2.2,-2.45l-2.25,2.4l2.2,2.5l2.3,-2.45l2.2,2.45l2.25,-2.5Z" style="fill:#f00;"/><path d="M136.45,25.65l2.2,2.45l2.25,-2.45l-2.2,-2.45l-2.25,2.45Z" style="fill:#f00;"/><path d="M143.15,28.1l2.25,-2.45l-2.25,-2.45l-2.25,2.45l2.25,2.45Z" style="fill:#f00;"/><path d="M58.978,14.579l-4.9,3.5c-0.674,0.482 -0.83,1.419 -0.349,2.093c0.482,0.674 1.419,0.83 2.093,0.349l4.9,-3.5c0.674,-0.482 0.83,-1.419 0.349,-2.093c-0.482,-0.674 -1.419,-0.83 -2.093,-0.349Z"/><path d="M78.528,13.829l-4.9,3.5c-0.674,0.482 -0.83,1.419 -0.349,2.093c0.482,0.674 1.419,0.83 2.093,0.349l4.9,-3.5c0.674,-0.482 0.83,-1.419 0.349,-2.093c-0.482,-0.674 -1.419,-0.83 -2.093,-0.349Z"/><path d="M97.086,13.324l-4.9,3.45c-0.676,0.476 -0.839,1.413 -0.362,2.09c0.476,0.676 1.413,0.839 2.09,0.362l4.9,-3.45c0.676,-0.476 0.839,-1.413 0.362,-2.09c-0.476,-0.676 -1.413,-0.839 -2.09,-0.362Z"/><path d="M23.286,5.174l-4.9,3.45c-0.676,0.476 -0.839,1.413 -0.362,2.09c0.476,0.676 1.413,0.839 2.09,0.362l4.9,-3.45c0.676,-0.476 0.839,-1.413 0.362,-2.09c-0.476,-0.676 -1.413,-0.839 -2.09,-0.362Z"/></g></svg>