<?xml version="1.0" encoding="UTF-8" standalone="no"?><!DOCTYPE svg PUBLIC "-//W3C//DTD SVG 1.1//EN" "http://www.w3.org/Graphics/SVG/1.1/DTD/svg11.dtd"><svg width="100%" height="100%" viewBox="0 0 57 82" version="1.1" xmlns="http://www.w3.org/2000/svg" xmlns:xlink="http://www.w3.org/1999/xlink" xml:space="preserve" xmlns:serif="http://www.serif.com/" style="fill-rule:evenodd;clip-rule:evenodd;stroke-linejoin:round;stroke-miterlimit:2;"><g><path d="M39.35,29.1c-0,-0.233 -0.333,-0.7 -1,-1.4c-0.667,-0.733 -1,-1.383 -1,-1.95c-0,-0.167 0.05,-0.433 0.15,-0.8c0.133,-0.4 0.183,-0.7 0.15,-0.9l0,-0.55c-1.333,0.967 -2.383,2.617 -3.15,4.95c0.133,0.667 0.6,1.483 1.4,2.45c0.5,3.5 0.75,8.783 0.75,15.85c0,1.367 -1.15,2.017 -3.45,1.95l-0.9,-0.05l-0,-0.15c-2.067,-0 -3.633,-0.467 -4.7,-1.4c-0.367,-0.3 -0.967,-1.167 -1.8,-2.6c-0.567,-0.9 -1.283,-1.35 -2.15,-1.35c-0.7,-0 -1.633,0.783 -2.8,2.35c-1.233,1.667 -2.2,2.6 -2.9,2.8c-0.5,0.133 -1.667,0.2 -3.5,0.2l0,0.05c-1.884,-0.195 -3.167,-0.778 -3.85,-1.75c-0.7,-1.033 -1.05,-3.2 -1.05,-6.5l-0,-15.5c-0.433,0.467 -0.867,0.933 -1.3,1.4c-0.3,0.467 -0.45,1.117 -0.45,1.95c-0,6.467 0.033,10.617 0.1,12.45c0.233,6.233 0.783,10 1.65,11.3c0.733,1.033 1.767,1.55 3.1,1.55l3.45,-0l-0,-0.15l2,0c0.367,0 0.733,-0.217 1.1,-0.65c0.267,-0.433 0.533,-0.85 0.8,-1.25c1.833,2 3.567,3 5.2,3c0.667,-0 1.117,-0.233 1.35,-0.7c0.367,-0.7 0.617,-1.117 0.75,-1.25c0.933,0.567 1.583,0.85 1.95,0.85l1.65,0l0,0.15l3.25,-0c1.667,-0 2.867,-0.983 3.6,-2.95c0.567,-1.433 0.85,-3.217 0.85,-5.35l-0,-4.45c-0,-0.833 -0.083,-2.05 -0.25,-3.65c-0.133,-1.633 -0.2,-2.85 -0.2,-3.65c0,-0.4 0.2,-1.067 0.6,-2c0.4,-0.933 0.6,-1.7 0.6,-2.3Zm-14.85,18.35c0.333,1.167 0.5,1.783 0.5,1.85l0,0.85c-0.6,-0.267 -1.233,-0.633 -1.9,-1.1c-0.9,-0.633 -1.35,-1.15 -1.35,-1.55c0,-0.267 0.583,-1.017 1.75,-2.25c0.433,0.6 0.767,1.333 1,2.2Z"/><path d="M23.9,30.25l-0.25,0.1c-0.1,0.667 -0.2,1.133 -0.3,1.4c-0.2,0.567 -0.467,0.85 -0.8,0.85c-0.333,0 -0.5,-0.517 -0.5,-1.55l-0.3,0.05c-0.167,0.733 -0.25,1.2 -0.25,1.4c0,0.4 0.067,0.733 0.2,1c0.2,0.333 0.467,0.5 0.8,0.5c0.3,0 0.583,-0.117 0.85,-0.35c0.267,-0.233 0.417,-0.517 0.45,-0.85c0.233,0.2 0.5,0.3 0.8,0.3c0.867,0 1.3,-0.783 1.3,-2.35c0,-0.4 -0.05,-0.833 -0.15,-1.3l-0.3,0.1c0,1.4 -0.283,2.1 -0.85,2.1c-0.267,-0 -0.5,-0.467 -0.7,-1.4Z"/><path d="M18.428,17.029l-4.9,3.5c-0.674,0.482 -0.83,1.419 -0.349,2.093c0.482,0.674 1.419,0.83 2.093,0.349l4.9,-3.5c0.674,-0.482 0.83,-1.419 0.349,-2.093c-0.482,-0.674 -1.419,-0.83 -2.093,-0.349Z"/><path d="M37.981,16.028l-4.85,3.45c-0.675,0.48 -0.833,1.417 -0.353,2.091c0.48,0.675 1.417,0.833 2.091,0.353l4.85,-3.45c0.675,-0.48 0.833,-1.417 0.353,-2.091c-0.48,-0.675 -1.417,-0.833 -2.091,-0.353Z"/></g></svg>