<?xml version="1.0" encoding="UTF-8" standalone="no"?><!DOCTYPE svg PUBLIC "-//W3C//DTD SVG 1.1//EN" "http://www.w3.org/Graphics/SVG/1.1/DTD/svg11.dtd"><svg width="100%" height="100%" viewBox="0 0 52 73" version="1.1" xmlns="http://www.w3.org/2000/svg" xmlns:xlink="http://www.w3.org/1999/xlink" xml:space="preserve" xmlns:serif="http://www.serif.com/" style="fill-rule:evenodd;clip-rule:evenodd;stroke-linejoin:round;stroke-miterlimit:2;"><g><path d="M29.2,55.1l2.55,2.75l2.6,-2.75l-2.6,-2.85l-2.55,2.85Z"/><path d="M35.3,54.4c2.067,1.567 4.133,2.35 6.2,2.35c2.367,0 4.383,-1.583 6.05,-4.75c1.433,-2.733 2.15,-5.517 2.15,-8.35c0,-1.4 -0.25,-2.6 -0.75,-3.6c-0.367,-0.733 -1.083,-1.683 -2.15,-2.85l-0.95,4c0.533,0.667 1.083,1.35 1.65,2.05c0.7,0.967 1.05,1.7 1.05,2.2c-0,2.567 -1.683,4.767 -5.05,6.6c-2.867,1.567 -5.6,2.35 -8.2,2.35Z"/><path d="M33.8,45.8c1.233,-1.167 1.85,-3.15 1.85,-5.95c0,-0.8 -0.3,-2.583 -0.9,-5.35c-0.667,1.7 -1.217,2.983 -1.65,3.85c0.633,1.333 1.033,2.3 1.2,2.9c-0.614,0.86 -2.331,1.31 -5.15,1.35l-2,0c-0.204,-0.012 -0.354,-0.029 -0.45,-0.05c-0.967,-0.133 -1.65,-0.55 -2.05,-1.25c-0.967,-1.633 -1.45,-9.3 -1.45,-23c-0.433,0.433 -0.95,1.083 -1.55,1.95c-0.667,1.033 -1,1.767 -1,2.2c0.233,2.7 0.45,5.4 0.65,8.1c0.233,3.267 0.35,5.95 0.35,8.05c0,1.4 -1.183,2.733 -3.55,4c-2.1,1.1 -3.867,1.65 -5.3,1.65c-5.767,-0 -8.65,-1.6 -8.65,-4.8c0,-1.333 0.267,-2.85 0.8,-4.55c-0.8,0.4 -1.5,1.483 -2.1,3.25c-0.533,1.533 -0.8,2.883 -0.8,4.05c-0,2.233 0.817,3.883 2.45,4.95c1.333,0.867 3.083,1.3 5.25,1.3c2.067,-0 4.3,-0.517 6.7,-1.55c2.633,-1.133 4.5,-2.517 5.6,-4.15c0.733,1.433 1.267,2.383 1.6,2.85c0.833,1.2 1.65,1.8 2.45,1.8l3.05,-0l0,-0.05c2.126,-0.088 3.676,-0.605 4.65,-1.55Z"/><path d="M12.45,31.25c-1.033,1.8 -1.55,3.033 -1.55,3.7c0,0.667 0.467,1 1.4,1c1.233,0.033 2.05,0.267 2.45,0.7c-0.933,1.033 -1.9,1.55 -2.9,1.55c-0.5,-0 -1.083,-0.083 -1.75,-0.25c0.4,0.6 0.733,0.983 1,1.15c0.3,0.233 0.767,0.35 1.4,0.35c1,-0 1.8,-0.283 2.4,-0.85c0.667,-0.567 1,-1.383 1,-2.45c0,-1.067 -0.6,-1.733 -1.8,-2c-1.2,-0.267 -1.8,-0.5 -1.8,-0.7c-0,-0.367 0.217,-0.783 0.65,-1.25c0.433,-0.5 0.833,-0.75 1.2,-0.75c0.233,-0 0.483,0.117 0.75,0.35c0.767,-0.433 1.15,-1.1 1.15,-2c-0,-0.333 -0.117,-0.65 -0.35,-0.95c-0.233,-0.3 -0.5,-0.45 -0.8,-0.45c-0.533,-0 -1.35,0.95 -2.45,2.85Z"/><path d="M33.7,24.35c0,-0.4 -0.05,-0.833 -0.15,-1.3l-0.3,0.1c-0,1.4 -0.283,2.1 -0.85,2.1c-0.267,-0 -0.5,-0.467 -0.7,-1.4l-0.25,0.1c-0.1,0.667 -0.2,1.133 -0.3,1.4c-0.2,0.567 -0.467,0.85 -0.8,0.85c-0.333,-0 -0.5,-0.517 -0.5,-1.55l-0.3,0.05c-0.167,0.733 -0.25,1.2 -0.25,1.4c-0,0.4 0.067,0.733 0.2,1c0.2,0.333 0.467,0.5 0.8,0.5c0.3,0 0.583,-0.117 0.85,-0.35c0.267,-0.233 0.417,-0.517 0.45,-0.85c0.233,0.2 0.5,0.3 0.8,0.3c0.867,-0 1.3,-0.783 1.3,-2.35Z"/><path d="M33.65,18.15l0.15,-1.65c-0.333,-0.233 -0.583,-0.417 -0.75,-0.55c0.4,-0.833 0.6,-1.5 0.6,-2c0,-0.967 -0.433,-1.45 -1.3,-1.45c-0.6,-0 -1.133,0.35 -1.6,1.05c-0.433,0.6 -0.65,1.2 -0.65,1.8c-0,0.467 0.4,0.95 1.2,1.45c-1.433,1.2 -2.783,2.1 -4.05,2.7c0.433,0.133 0.8,0.2 1.1,0.2c1.033,-0 2.3,-0.8 3.8,-2.4c0.567,0.367 1.067,0.65 1.5,0.85Zm-1.3,-2.65c-0.833,-0.433 -1.25,-0.85 -1.25,-1.25c0.067,-0.167 0.183,-0.267 0.35,-0.3c0.667,0.1 1,0.45 1,1.05c0,0.133 -0.033,0.3 -0.1,0.5Z"/><path d="M14.686,15.274l-4.9,3.45c-0.676,0.476 -0.839,1.413 -0.362,2.09c0.476,0.676 1.413,0.839 2.09,0.362l4.9,-3.45c0.676,-0.476 0.839,-1.413 0.362,-2.09c-0.476,-0.676 -1.413,-0.839 -2.09,-0.362Z"/><path d="M47.236,15.274l-4.9,3.45c-0.676,0.476 -0.839,1.413 -0.362,2.09c0.476,0.676 1.413,0.839 2.09,0.362l4.9,-3.45c0.676,-0.476 0.839,-1.413 0.362,-2.09c-0.476,-0.676 -1.413,-0.839 -2.09,-0.362Z"/></g></svg>