<?xml version="1.0" encoding="UTF-8" standalone="no"?><!DOCTYPE svg PUBLIC "-//W3C//DTD SVG 1.1//EN" "http://www.w3.org/Graphics/SVG/1.1/DTD/svg11.dtd"><svg width="100%" height="100%" viewBox="0 0 43 35" version="1.1" xmlns="http://www.w3.org/2000/svg" xmlns:xlink="http://www.w3.org/1999/xlink" xml:space="preserve" xmlns:serif="http://www.serif.com/" style="fill-rule:evenodd;clip-rule:evenodd;stroke-linejoin:round;stroke-miterlimit:2;"><g><path d="M16,16.2l-0.65,0c-0.967,0 -1.833,0.267 -2.6,0.8c-0.833,0.6 -1.25,1.333 -1.25,2.2c0,0.4 0.217,0.7 0.65,0.9c0.267,0.1 0.733,0.2 1.4,0.3c0.6,0.1 1,0.2 1.2,0.3c-0.2,0.367 -0.983,0.683 -2.35,0.95c-1.167,0.233 -2.1,0.35 -2.8,0.35c-1.2,0 -2.1,-0.1 -2.7,-0.3c-1,-0.367 -1.5,-1 -1.5,-1.9c0,-0.4 0.15,-0.9 0.45,-1.5c0.367,-0.733 0.583,-1.233 0.65,-1.5c-0.5,0.333 -1,0.9 -1.5,1.7c-0.5,0.833 -0.75,1.533 -0.75,2.1c0,1.1 0.517,1.917 1.55,2.45c0.833,0.433 1.9,0.65 3.2,0.65c2.9,0 5.033,-0.817 6.4,-2.45c0.433,-0.5 0.65,-0.883 0.65,-1.15c-0,-0.467 -0.483,-0.783 -1.45,-0.95c-0.667,-0.1 -1.333,-0.2 -2,-0.3c0.267,-0.367 1.717,-0.55 4.35,-0.55l0,-0.05c-0.252,0.033 -0.569,0.05 -0.95,0.05l-0,-2.1Z"/><path d="M29.65,21.35c1.067,0.7 2.15,1.05 3.25,1.05c1.2,-0 2.233,-0.7 3.1,-2.1c0.767,-1.2 1.15,-2.417 1.15,-3.65c0,-0.6 -0.133,-1.117 -0.4,-1.55c-0.2,-0.333 -0.583,-0.75 -1.15,-1.25l-0.45,1.75c0.267,0.3 0.533,0.6 0.8,0.9c0.367,0.4 0.55,0.717 0.55,0.95c0,1.133 -0.867,2.1 -2.6,2.9c-1.5,0.667 -2.917,1 -4.25,1Z"/><path d="M16.95,16.25l0,-0.05l-0.95,0l0.95,0.05Z"/><path d="M30.65,14.05c0,-0.433 -0.167,-0.833 -0.5,-1.2c-0.367,-0.4 -0.783,-0.6 -1.25,-0.6c-0.733,-0 -1.633,0.3 -2.7,0.9c-0.7,0.367 -1.667,0.983 -2.9,1.85c-1.233,0.867 -2.067,1.417 -2.5,1.65c-0.467,-0 -0.9,-0.15 -1.3,-0.45c-0.367,-0.3 -0.633,-0.65 -0.8,-1.05c-0.2,0.4 -0.367,0.667 -0.5,0.8c-0.233,0.2 -0.55,0.3 -0.95,0.3l-0.3,-0l-0.95,-0.05l-0,2.1c0.381,-0 0.698,-0.017 0.95,-0.05c0.321,-0.011 0.538,-0.044 0.65,-0.1c0.133,-0.067 0.433,-0.417 0.9,-1.05c0.533,0.6 1.117,1 1.75,1.2c0.433,0.133 1.15,0.2 2.15,0.2c1.7,0 3.4,-0.35 5.1,-1.05c2.1,-0.867 3.15,-2 3.15,-3.4Zm-3.65,0.1c0.3,-0 0.717,0.083 1.25,0.25c0.633,0.233 0.95,0.45 0.95,0.65c0,0.333 -0.65,0.7 -1.95,1.1c-1.133,0.333 -1.983,0.5 -2.55,0.5l-2.6,-0c2.233,-1.667 3.867,-2.5 4.9,-2.5Z" style="fill:#f00;"/><path d="M24.45,10.15l-1.35,-1.25l-1.3,1.25l1.3,1.2l1.35,-1.2Z" style="fill:#f00;"/><path d="M24.421,21.418l-2.55,1.55c-0.708,0.43 -0.933,1.354 -0.503,2.061c0.43,0.708 1.354,0.933 2.061,0.503l2.55,-1.55c0.708,-0.43 0.933,-1.354 0.503,-2.061c-0.43,-0.708 -1.354,-0.933 -2.061,-0.503Z"/><path d="M11.878,5.064l-2.5,1.5c-0.71,0.426 -0.94,1.348 -0.514,2.058c0.426,0.71 1.348,0.94 2.058,0.514l2.5,-1.5c0.71,-0.426 0.94,-1.348 0.514,-2.058c-0.426,-0.71 -1.348,-0.94 -2.058,-0.514Z"/><path d="M35.089,5.057l-2.55,1.5c-0.713,0.42 -0.952,1.34 -0.532,2.054c0.42,0.713 1.34,0.952 2.054,0.532l2.55,-1.5c0.713,-0.42 0.952,-1.34 0.532,-2.054c-0.42,-0.713 -1.34,-0.952 -2.054,-0.532Z" style="fill:#f00;"/></g></svg>