<?xml version="1.0" encoding="UTF-8" standalone="no"?><!DOCTYPE svg PUBLIC "-//W3C//DTD SVG 1.1//EN" "http://www.w3.org/Graphics/SVG/1.1/DTD/svg11.dtd"><svg width="100%" height="100%" viewBox="0 0 44 92" version="1.1" xmlns="http://www.w3.org/2000/svg" xmlns:xlink="http://www.w3.org/1999/xlink" xml:space="preserve" xmlns:serif="http://www.serif.com/" style="fill-rule:evenodd;clip-rule:evenodd;stroke-linejoin:round;stroke-miterlimit:2;"><g><path d="M4.4,28.7c-0.433,0.467 -0.867,0.933 -1.3,1.4c-0.3,0.467 -0.45,1.117 -0.45,1.95c-0,6.467 0.033,10.617 0.1,12.45c0.233,6.233 0.783,10 1.65,11.3c0.733,1.033 1.767,1.55 3.1,1.55l1.7,0l0,-4.8l1.75,0c-2.8,0 -4.633,-0.617 -5.5,-1.85c-0.7,-1.033 -1.05,-3.2 -1.05,-6.5l-0,-15.5Z"/><path d="M10.95,57.35l0,-0.05c-0.292,0.021 -0.626,0.038 -1,0.05l1,-0Z"/><path d="M13.836,24.074l-4.9,3.45c-0.676,0.476 -0.839,1.413 -0.362,2.09c0.476,0.676 1.413,0.839 2.09,0.362l4.9,-3.45c0.676,-0.476 0.839,-1.413 0.362,-2.09c-0.476,-0.676 -1.413,-0.839 -2.09,-0.362Z"/><path d="M37.5,47.6c0,-1 -0.333,-1.917 -1,-2.75c-0.7,-0.867 -1.5,-1.3 -2.4,-1.3c-1.4,0 -3.167,0.667 -5.3,2c-1.333,0.867 -3.183,2.283 -5.55,4.25c-2.4,1.967 -4,3.217 -4.8,3.75c-0.9,0 -1.733,-0.333 -2.5,-1c-0.733,-0.667 -1.233,-1.467 -1.5,-2.4c-0.4,0.9 -0.75,1.517 -1.05,1.85c-0.433,0.433 -1.033,0.633 -1.8,0.6l-0.65,-0.05l-1.75,0l0,4.8l0.75,-0c0.374,-0.013 0.708,-0.029 1,-0.05c0.67,-0.049 1.104,-0.132 1.3,-0.25c0.267,-0.167 0.85,-0.967 1.75,-2.4c1.033,1.367 2.15,2.25 3.35,2.65c0.867,0.3 2.267,0.45 4.2,0.45c3.3,-0 6.583,-0.783 9.85,-2.35c4.067,-2 6.1,-4.6 6.1,-7.8Zm-2.9,2.35c0,0.767 -1.25,1.583 -3.75,2.45c-2.167,0.767 -3.8,1.15 -4.9,1.15l-5,-0c4.3,-3.833 7.45,-5.75 9.45,-5.75c0.567,-0 1.367,0.233 2.4,0.7c1.2,0.467 1.8,0.95 1.8,1.45Z" style="fill:#f00;"/></g></svg>