<?xml version="1.0" encoding="UTF-8" standalone="no"?><!DOCTYPE svg PUBLIC "-//W3C//DTD SVG 1.1//EN" "http://www.w3.org/Graphics/SVG/1.1/DTD/svg11.dtd"><svg width="100%" height="100%" viewBox="0 0 61 79" version="1.1" xmlns="http://www.w3.org/2000/svg" xmlns:xlink="http://www.w3.org/1999/xlink" xml:space="preserve" xmlns:serif="http://www.serif.com/" style="fill-rule:evenodd;clip-rule:evenodd;stroke-linejoin:round;stroke-miterlimit:2;"><g><path d="M48.4,47.25c-2.033,0 -3.05,-0.717 -3.05,-2.15c0,-0.3 0.033,-0.683 0.1,-1.15c0.067,-0.567 0.1,-0.95 0.1,-1.15c-0.767,1.167 -1.55,2.317 -2.35,3.45c-0.9,1.1 -2.067,1.65 -3.5,1.65c-1.067,-0 -1.817,-0.183 -2.25,-0.55c-0.367,-0.3 -0.6,-0.817 -0.7,-1.55c-0.067,-0.767 -0.15,-1.55 -0.25,-2.35c-1.1,2.033 -1.817,3.167 -2.15,3.4c-0.407,0.291 -1.474,0.458 -3.2,0.5l-0.8,0l0,4.8l2.7,-0c0.4,-0 1.233,-0.567 2.5,-1.7c0.667,0.367 1.35,0.733 2.05,1.1c0.833,0.4 1.567,0.6 2.2,0.6c1.5,-0 2.967,-0.783 4.4,-2.35c0.567,0.4 1.15,0.783 1.75,1.15c0.8,0.533 1.367,0.8 1.7,0.8c1.133,0 1.983,-1.167 2.55,-3.5c0.4,-1.633 0.6,-3.317 0.6,-5.05c-0,-0.3 -0.15,-1 -0.45,-2.1c-0.667,1.433 -1.1,2.467 -1.3,3.1c0.4,1.1 0.6,1.783 0.6,2.05l-0.3,0.75c-0.3,0.167 -0.617,0.25 -0.95,0.25Z"/><path d="M11.1,24.9c-0.3,0.467 -0.45,1.117 -0.45,1.95c-0,6.467 0.033,10.617 0.1,12.45c0.233,6.233 0.783,10 1.65,11.3c0.733,1.033 1.767,1.55 3.1,1.55l1.8,-0l-0,-4.8l0.95,0c-2.405,-0.101 -4.005,-0.718 -4.8,-1.85c-0.7,-1.033 -1.05,-3.2 -1.05,-6.5l-0,-15.5c-0.433,0.467 -0.867,0.933 -1.3,1.4Z"/><path d="M41.35,32.15l-2.25,2.4l2.25,2.5l2.2,-2.45l-2.2,-2.45Z"/><path d="M43.55,34.6l2.25,2.45l2.25,-2.5l-2.25,-2.4l-2.25,2.45Z"/><path d="M45.95,29.45l-2.25,-2.45l-2.2,2.45l2.2,2.5l2.25,-2.5Z"/><path d="M22.7,22.9c0,0.4 0.067,0.733 0.2,1c0.2,0.333 0.467,0.5 0.8,0.5c0.3,-0 0.583,-0.117 0.85,-0.35c0.267,-0.233 0.417,-0.517 0.45,-0.85c0.233,0.2 0.5,0.3 0.8,0.3c0.867,0 1.3,-0.783 1.3,-2.35c0,-0.4 -0.05,-0.833 -0.15,-1.3l-0.3,0.1c-0,1.4 -0.283,2.1 -0.85,2.1c-0.267,-0 -0.5,-0.467 -0.7,-1.4l-0.25,0.1c-0.1,0.667 -0.2,1.133 -0.3,1.4c-0.2,0.567 -0.467,0.85 -0.8,0.85c-0.333,-0 -0.5,-0.517 -0.5,-1.55l-0.3,0.05c-0.167,0.733 -0.25,1.2 -0.25,1.4Z"/><path d="M21.7,44.75c0,0.7 0.067,1.467 0.2,2.3c-1.165,0.159 -2.382,0.259 -3.65,0.3l-0.95,0l-0,4.8l2.7,-0c1.133,-0 2.667,-0.7 4.6,-2.1c1.567,1.4 2.85,2.1 3.85,2.1l1.9,-0l0,-4.8c-0.66,0.007 -1.043,0.007 -1.15,0c-0.822,-0.065 -1.389,-0.282 -1.7,-0.65c1.133,-1.9 1.7,-3.9 1.7,-6c0,-1.033 -0.2,-2.05 -0.6,-3.05c-0.533,-1.233 -1.2,-1.85 -2,-1.85c-1.233,-0 -2.383,1.183 -3.45,3.55c-0.967,2.033 -1.45,3.833 -1.45,5.4Zm2.15,-2.8c0.567,-0.567 1.167,-0.85 1.8,-0.85c0.333,0 0.65,0.233 0.95,0.7c0.3,0.433 0.45,0.85 0.45,1.25c-0,0.433 -0.283,1 -0.85,1.7c-0.567,0.7 -1.033,1.05 -1.4,1.05c-0.233,-0 -0.583,-0.25 -1.05,-0.75c-0.467,-0.467 -0.7,-0.867 -0.7,-1.2c-0,-0.7 0.267,-1.333 0.8,-1.9Z" style="fill:#f00;"/><path d="M23,32.9l2.25,-2.45l-2.2,-2.45l-2.25,2.45l2.2,2.45Z" style="fill:#f00;"/><path d="M25.25,30.45l2.25,2.45l2.25,-2.45l-2.25,-2.45l-2.25,2.45Z" style="fill:#f00;"/><path d="M17.866,15.338c-0.405,-0.05 -0.789,-0.264 -1.042,-0.624c-0.477,-0.677 -0.314,-1.614 0.362,-2.09l4.9,-3.45c0.677,-0.477 1.614,-0.314 2.09,0.362c0.472,0.671 0.318,1.595 -0.342,2.076c0.405,0.05 0.789,0.264 1.042,0.624c0.477,0.677 0.314,1.614 -0.362,2.09l-4.9,3.45c-0.677,0.477 -1.614,0.314 -2.09,-0.362c-0.472,-0.671 -0.318,-1.595 0.342,-2.076Z"/><path d="M45.836,10.874l-4.9,3.45c-0.676,0.476 -0.839,1.413 -0.362,2.09c0.476,0.676 1.413,0.839 2.09,0.362l4.9,-3.45c0.676,-0.476 0.839,-1.413 0.362,-2.09c-0.476,-0.676 -1.413,-0.839 -2.09,-0.362Z"/></g></svg>