<?xml version="1.0" encoding="UTF-8" standalone="no"?><!DOCTYPE svg PUBLIC "-//W3C//DTD SVG 1.1//EN" "http://www.w3.org/Graphics/SVG/1.1/DTD/svg11.dtd"><svg width="100%" height="100%" viewBox="0 0 161 79" version="1.1" xmlns="http://www.w3.org/2000/svg" xmlns:xlink="http://www.w3.org/1999/xlink" xml:space="preserve" xmlns:serif="http://www.serif.com/" style="fill-rule:evenodd;clip-rule:evenodd;stroke-linejoin:round;stroke-miterlimit:2;"><g><path d="M41.8,59.25c2.067,1.567 4.133,2.35 6.2,2.35c2.367,0 4.383,-1.583 6.05,-4.75c1.433,-2.733 2.15,-5.517 2.15,-8.35c0,-1.4 -0.25,-2.6 -0.75,-3.6c-0.367,-0.733 -1.083,-1.683 -2.15,-2.85l-0.95,4c0.533,0.667 1.083,1.35 1.65,2.05c0.7,0.967 1.05,1.7 1.05,2.2c-0,2.567 -1.683,4.767 -5.05,6.6c-2.867,1.567 -5.6,2.35 -8.2,2.35Z"/><path d="M85.35,22.75c-1.567,2.233 -2.333,3.567 -2.3,4l0.55,25.55c1.267,-1.167 1.9,-4.267 1.9,-9.3l-0.15,-20.25Z"/><path d="M144.45,48c-1.067,0 -1.817,-0.183 -2.25,-0.55c-0.367,-0.3 -0.6,-0.817 -0.7,-1.55c-0.067,-0.767 -0.15,-1.55 -0.25,-2.35c-1.1,2.033 -1.817,3.167 -2.15,3.4c-0.409,0.292 -1.492,0.459 -3.25,0.5l1,0l0,4.8l0.95,0c0.4,0 1.233,-0.567 2.5,-1.7c0.667,0.367 1.35,0.733 2.05,1.1c0.833,0.4 1.567,0.6 2.2,0.6c1.5,0 2.967,-0.783 4.4,-2.35c0.567,0.4 1.15,0.783 1.75,1.15c0.8,0.533 1.367,0.8 1.7,0.8c1.133,0 1.983,-1.167 2.55,-3.5c0.4,-1.633 0.6,-3.317 0.6,-5.05c-0,-0.3 -0.15,-1 -0.45,-2.1c-0.667,1.433 -1.1,2.467 -1.3,3.1c0.4,1.1 0.6,1.783 0.6,2.05l-0.3,0.75c-0.3,0.167 -0.617,0.25 -0.95,0.25c-2.033,0 -3.05,-0.717 -3.05,-2.15c0,-0.3 0.033,-0.683 0.1,-1.15c0.067,-0.567 0.1,-0.95 0.1,-1.15c-0.767,1.167 -1.55,2.317 -2.35,3.45c-0.9,1.1 -2.067,1.65 -3.5,1.65Z"/><path d="M93.35,23.6c-0.433,0.467 -0.867,0.933 -1.3,1.4c-0.3,0.467 -0.45,1.117 -0.45,1.95c0,6.467 0.033,10.617 0.1,12.45c0.233,6.233 0.783,10 1.65,11.3c0.733,1.033 1.767,1.55 3.1,1.55l4.25,0c0.833,0 1.517,-0.35 2.05,-1.05c0.167,-0.2 0.583,-0.95 1.25,-2.25c0.833,1.4 1.283,2.133 1.35,2.2c0.567,0.733 1.233,1.1 2,1.1l1.3,-0l-0,-4.8l0.75,0c-1.632,-0.035 -2.632,-0.152 -3,-0.35c-0.8,-0.433 -1.2,-1.7 -1.2,-3.8c-0.667,0.567 -1.117,1.3 -1.35,2.2c-0.2,0.733 -0.533,1.217 -1,1.45c-0.639,0.278 -1.855,0.428 -3.65,0.45c-2.408,-0.073 -4.008,-0.673 -4.8,-1.8c-0.7,-1.033 -1.05,-3.2 -1.05,-6.5l0,-15.5Z"/><path d="M60.15,25.5c-0.6,0 -1.067,0.283 -1.4,0.85c-0.3,0.5 -0.45,1.083 -0.45,1.75c-0,1.167 0.333,2.267 1,3.3c0.767,1.167 1.65,1.75 2.65,1.75c0.467,-0 0.8,-0.1 1,-0.3c0.4,-0.333 0.65,-0.533 0.75,-0.6c0.767,0.533 2.183,2.233 4.25,5.1c1.567,2.2 2.85,4.083 3.85,5.65c-0.4,0.767 -1.017,1.7 -1.85,2.8c-0.933,1.2 -1.667,2 -2.2,2.4l-1.75,-0.65l0,4.55c1.167,0.4 2.683,0.6 4.55,0.6c1.767,0 2.917,-0.267 3.45,-0.8c0.567,-0.567 0.85,-1.8 0.85,-3.7c0,-2.433 -0.45,-4.35 -1.35,-5.75c0.4,-1.167 0.733,-2.95 1,-5.35c0.267,-2.367 0.567,-4.033 0.9,-5l0.35,0.35c0.5,-0.333 0.917,-0.967 1.25,-1.9c0.1,-0.233 0.317,-1.017 0.65,-2.35c-1.4,-0.7 -2.1,-1.633 -2.1,-2.8c-0,-0.5 0.067,-1.117 0.2,-1.85c-1.3,1.167 -2.2,2.833 -2.7,5c0.067,0.267 0.283,0.7 0.65,1.3c0.333,0.533 0.5,0.9 0.5,1.1c0,0.833 -0.183,2.483 -0.55,4.95c-0.367,2.633 -0.667,4.183 -0.9,4.65c-3.5,-5.367 -5.417,-8.3 -5.75,-8.8c-3.033,-4.167 -5.317,-6.25 -6.85,-6.25Zm13.35,21.6c-0.019,0.03 -0.086,0.33 -0.2,0.9c-1.833,0.133 -2.917,0.2 -3.25,0.2c1.233,-1.267 2.067,-2.467 2.5,-3.6c0.033,0.133 0.2,0.6 0.5,1.4c0.271,0.664 0.421,1.03 0.45,1.1Z"/><path d="M103.9,32.6l-2.6,2.85l2.55,2.8l2.6,-2.8l-2.55,-2.85Z"/><path d="M148.3,34.7l-2.2,-2.45l-2.25,2.4l2.25,2.5l2.2,-2.45Z"/><path d="M152.8,34.65l-2.25,-2.4l-2.25,2.45l2.25,2.45l2.25,-2.5Z"/><path d="M148.45,27.1l-2.2,2.45l2.2,2.5l2.25,-2.5l-2.25,-2.45Z"/><path d="M52.9,24.45c-0.4,-0.567 -0.883,-0.85 -1.45,-0.85c-0.767,0 -1.333,0.367 -1.7,1.1c-0.333,0.633 -0.5,1.4 -0.5,2.3c0,1.433 0.567,2.15 1.7,2.15c0.667,-0 1.25,-0.3 1.75,-0.9c0.467,-0.6 0.7,-1.283 0.7,-2.05c-0,-0.633 -0.167,-1.217 -0.5,-1.75Zm-0.4,2.2c0,0.467 -0.417,0.7 -1.25,0.7c-1,0 -1.5,-0.35 -1.5,-1.05c0,-0.767 0.333,-1.15 1,-1.15c0.267,-0 0.617,0.167 1.05,0.5c0.467,0.367 0.7,0.7 0.7,1Z"/><path d="M118.45,20.8c0,-0.633 -0.167,-1.217 -0.5,-1.75c-0.4,-0.567 -0.883,-0.85 -1.45,-0.85c-0.767,0 -1.333,0.367 -1.7,1.1c-0.333,0.633 -0.5,1.4 -0.5,2.3c-0,1.433 0.567,2.15 1.7,2.15c0.667,0 1.25,-0.3 1.75,-0.9c0.467,-0.6 0.7,-1.283 0.7,-2.05Zm-1.6,-0.55c0.467,0.367 0.7,0.7 0.7,1c-0,0.467 -0.417,0.7 -1.25,0.7c-1,0 -1.5,-0.35 -1.5,-1.05c-0,-0.767 0.333,-1.15 1,-1.15c0.267,0 0.617,0.167 1.05,0.5Z"/><path d="M76.7,16.35c-0.4,-0.567 -0.883,-0.85 -1.45,-0.85c-0.767,-0 -1.333,0.367 -1.7,1.1c-0.333,0.633 -0.5,1.4 -0.5,2.3c-0,1.433 0.567,2.15 1.7,2.15c0.667,-0 1.25,-0.3 1.75,-0.9c0.467,-0.6 0.7,-1.283 0.7,-2.05c0,-0.633 -0.167,-1.217 -0.5,-1.75Zm-1.1,1.2c0.467,0.367 0.7,0.7 0.7,1c-0,0.467 -0.417,0.7 -1.25,0.7c-1,0 -1.5,-0.35 -1.5,-1.05c-0,-0.767 0.333,-1.15 1,-1.15c0.267,-0 0.617,0.167 1.05,0.5Z"/><path d="M7,51.55c-0.5,1.6 -0.75,3 -0.75,4.2c0,5.033 2.2,7.55 6.6,7.55c2.933,-0 5.267,-1.05 7,-3.15c1.633,-1.967 2.583,-4.6 2.85,-7.9c4.833,-0 8.883,-0.583 12.15,-1.75c5.1,-1.8 7.65,-4.867 7.65,-9.2c0,-1.133 -0.35,-2.067 -1.05,-2.8c-0.733,-0.733 -1.6,-1.1 -2.6,-1.1c-1.567,-0 -3.5,0.883 -5.8,2.65c-1.3,0.967 -3.117,2.6 -5.45,4.9c-1.8,1.733 -2.85,2.6 -3.15,2.6c-1.033,-0 -1.85,-0.317 -2.45,-0.95c-0.333,-0.367 -0.8,-1.183 -1.4,-2.45c-0.567,1.4 -0.95,2.583 -1.15,3.55c0.8,1.967 1.25,3.117 1.35,3.45c0.4,1.267 0.6,2.517 0.6,3.75c-0,1.133 -0.95,2.067 -2.85,2.8c-1.5,0.6 -2.883,0.9 -4.15,0.9c-2.067,0 -3.617,-0.35 -4.65,-1.05c-1.3,-0.9 -1.95,-2.417 -1.95,-4.55c-0,-0.633 0.117,-1.5 0.35,-2.6c0.233,-0.867 0.45,-1.733 0.65,-2.6c-0.7,0.767 -1.3,2.017 -1.8,3.75Zm29.1,-5.15c-2.033,0.633 -3.617,0.95 -4.75,0.95l-4.4,0c0.967,-1.067 2.267,-2.217 3.9,-3.45c2,-1.533 3.467,-2.3 4.4,-2.3c0.6,0 1.433,0.25 2.5,0.75c1.233,0.533 1.85,1.067 1.85,1.6c0,0.833 -1.167,1.65 -3.5,2.45Z" style="fill:#f00;"/><path d="M122.65,47.45c1.377,-0.029 2.693,-0.129 3.95,-0.3c-0.133,-0.833 -0.2,-1.6 -0.2,-2.3c-0,-1.567 0.483,-3.367 1.45,-5.4c1.067,-2.367 2.217,-3.55 3.45,-3.55c0.8,-0 1.467,0.617 2,1.85c0.4,1 0.6,2.017 0.6,3.05c-0,2.1 -0.567,4.1 -1.7,6c0.311,0.368 0.878,0.585 1.7,0.65l2.95,0l0,4.8l-3.7,-0c-1,-0 -2.283,-0.7 -3.85,-2.1c-1.933,1.4 -3.467,2.1 -4.6,2.1l-4.9,-0c-1,-0 -2.283,-0.7 -3.85,-2.1c-1.933,1.4 -3.467,2.1 -4.6,2.1l-2.7,-0l-0,-4.8l0.75,0c1.337,-0.032 2.62,-0.132 3.85,-0.3c-0.133,-0.833 -0.2,-1.6 -0.2,-2.3c-0,-1.567 0.483,-3.367 1.45,-5.4c1.067,-2.367 2.217,-3.55 3.45,-3.55c0.8,-0 1.467,0.617 2,1.85c0.4,1 0.6,2.017 0.6,3.05c-0,2.1 -0.567,4.1 -1.7,6c0.311,0.368 0.878,0.585 1.7,0.65l2.1,0Zm5.8,-2.3c-0.467,-0.467 -0.7,-0.867 -0.7,-1.2c-0,-0.7 0.267,-1.333 0.8,-1.9c0.567,-0.567 1.167,-0.85 1.8,-0.85c0.333,0 0.65,0.233 0.95,0.7c0.3,0.433 0.45,0.85 0.45,1.25c0,0.433 -0.283,1 -0.85,1.7c-0.567,0.7 -1.033,1.05 -1.4,1.05c-0.233,-0 -0.583,-0.25 -1.05,-0.75Zm-10.5,-3.25c0.3,0.433 0.45,0.85 0.45,1.25c-0,0.433 -0.283,1 -0.85,1.7c-0.567,0.7 -1.033,1.05 -1.4,1.05c-0.233,-0 -0.583,-0.25 -1.05,-0.75c-0.467,-0.467 -0.7,-0.867 -0.7,-1.2c-0,-0.7 0.267,-1.333 0.8,-1.9c0.567,-0.567 1.167,-0.85 1.8,-0.85c0.333,0 0.65,0.233 0.95,0.7Z" style="fill:#f00;"/><path d="M28.7,35.5l2.55,-2.8l-2.55,-2.8l-2.6,2.8l2.6,2.8Z" style="fill:#f00;"/><path d="M132.2,33l2.25,-2.45l-2.25,-2.45l-2.25,2.45l2.25,2.45Z" style="fill:#f00;"/><path d="M116.6,30.55l2.25,2.45l2.25,-2.45l-2.25,-2.45l-2.25,2.45Z" style="fill:#f00;"/><path d="M114.35,33l2.25,-2.45l-2.2,-2.45l-2.25,2.45l2.2,2.45Z" style="fill:#f00;"/><path d="M125.5,30.55l2.2,2.45l2.25,-2.45l-2.2,-2.45l-2.25,2.45Z" style="fill:#f00;"/><path d="M29.536,18.974l-4.9,3.45c-0.676,0.476 -0.839,1.413 -0.362,2.09c0.476,0.676 1.413,0.839 2.09,0.362l4.9,-3.45c0.676,-0.476 0.839,-1.413 0.362,-2.09c-0.476,-0.676 -1.413,-0.839 -2.09,-0.362Z"/><path d="M101.228,17.779l-4.9,3.5c-0.674,0.482 -0.83,1.419 -0.349,2.093c0.482,0.674 1.419,0.83 2.093,0.349l4.9,-3.5c0.674,-0.482 0.83,-1.419 0.349,-2.093c-0.482,-0.674 -1.419,-0.83 -2.093,-0.349Z"/><path d="M132.028,17.779l-4.9,3.5c-0.674,0.482 -0.83,1.419 -0.349,2.093c0.482,0.674 1.419,0.83 2.093,0.349l4.9,-3.5c0.674,-0.482 0.83,-1.419 0.349,-2.093c-0.482,-0.674 -1.419,-0.83 -2.093,-0.349Z"/><path d="M149.178,16.679l-4.9,3.5c-0.674,0.482 -0.83,1.419 -0.349,2.093c0.482,0.674 1.419,0.83 2.093,0.349l4.9,-3.5c0.674,-0.482 0.83,-1.419 0.349,-2.093c-0.482,-0.674 -1.419,-0.83 -2.093,-0.349Z"/><path d="M63.128,16.679l-4.9,3.5c-0.674,0.482 -0.83,1.419 -0.349,2.093c0.482,0.674 1.419,0.83 2.093,0.349l4.9,-3.5c0.674,-0.482 0.83,-1.419 0.349,-2.093c-0.482,-0.674 -1.419,-0.83 -2.093,-0.349Z"/></g></svg>