<?xml version="1.0" encoding="UTF-8" standalone="no"?><!DOCTYPE svg PUBLIC "-//W3C//DTD SVG 1.1//EN" "http://www.w3.org/Graphics/SVG/1.1/DTD/svg11.dtd"><svg width="100%" height="100%" viewBox="0 0 41 79" version="1.1" xmlns="http://www.w3.org/2000/svg" xmlns:xlink="http://www.w3.org/1999/xlink" xml:space="preserve" xmlns:serif="http://www.serif.com/" style="fill-rule:evenodd;clip-rule:evenodd;stroke-linejoin:round;stroke-miterlimit:2;"><g><path d="M6,52.45l0,0.6l1.55,18.55c0.267,-0.367 0.533,-0.883 0.8,-1.55c0.267,-0.767 0.383,-1.35 0.35,-1.75l-1.15,-16.45c0.633,-1.4 1.6,-2.1 2.9,-2.1l0.55,0.2c0,1.1 0.25,2.2 0.75,3.3c0.567,1.333 1.283,2 2.15,2c1.4,-0 2.1,-1.55 2.1,-4.65c1.333,1 2.3,1.5 2.9,1.5l2.9,0l-0,-0.05c2.049,-0.111 3.549,-0.627 4.5,-1.55c1.233,-1.167 1.85,-3.15 1.85,-5.95c-0,-0.8 -0.3,-2.583 -0.9,-5.35c-0.667,1.7 -1.217,2.983 -1.65,3.85c0.633,1.333 1.033,2.3 1.2,2.9c-0.603,0.844 -2.27,1.294 -5,1.35l-0.45,-0c-2.022,-0.022 -3.422,-0.189 -4.2,-0.5c-0.533,-0.2 -1.017,-0.667 -1.45,-1.4c-0.6,-1 -1.267,-1.817 -2,-2.45c-0.367,0.4 -0.617,0.817 -0.75,1.25c0.1,0.2 0.1,0.35 0,0.45c-1.833,0.5 -3.4,1.383 -4.7,2.65c-1.5,1.5 -2.25,3.217 -2.25,5.15Z"/><path d="M20.7,34.05l2.2,2.5l2.25,-2.45l-2.25,-2.45l-2.2,2.4Z"/><path d="M27.4,31.65l-2.25,2.45l2.25,2.45l2.25,-2.5l-2.25,-2.4Z"/><path d="M15.25,30.4c0,-0.4 -0.05,-0.833 -0.15,-1.3l-0.3,0.1c-0,1.4 -0.283,2.1 -0.85,2.1c-0.267,-0 -0.5,-0.467 -0.7,-1.4l-0.25,0.1c-0.1,0.667 -0.2,1.133 -0.3,1.4c-0.2,0.567 -0.467,0.85 -0.8,0.85c-0.333,-0 -0.5,-0.517 -0.5,-1.55l-0.3,0.05c-0.167,0.733 -0.25,1.2 -0.25,1.4c0,0.4 0.067,0.733 0.2,1c0.2,0.333 0.467,0.5 0.8,0.5c0.3,-0 0.583,-0.117 0.85,-0.35c0.267,-0.233 0.417,-0.517 0.45,-0.85c0.233,0.2 0.5,0.3 0.8,0.3c0.867,0 1.3,-0.783 1.3,-2.35Z"/><path d="M27.55,28.9l-2.25,-2.4l-2.25,2.4l2.2,2.55l2.3,-2.55Z"/><path d="M26.7,17.3c0,-0.967 -0.433,-1.45 -1.3,-1.45c-0.6,0 -1.133,0.35 -1.6,1.05c-0.433,0.6 -0.65,1.2 -0.65,1.8c-0,0.467 0.4,0.95 1.2,1.45c-1.433,1.2 -2.783,2.1 -4.05,2.7c0.433,0.133 0.8,0.2 1.1,0.2c1.033,-0 2.3,-0.8 3.8,-2.4c0.567,0.367 1.067,0.65 1.5,0.85l0.15,-1.65c-0.333,-0.233 -0.583,-0.417 -0.75,-0.55c0.4,-0.833 0.6,-1.5 0.6,-2Zm-2.55,0.3c0.067,-0.167 0.183,-0.267 0.35,-0.3c0.667,0.1 1,0.45 1,1.05c0,0.133 -0.033,0.3 -0.1,0.5c-0.833,-0.433 -1.25,-0.85 -1.25,-1.25Z"/><path d="M13.931,20.178l-4.85,3.45c-0.675,0.48 -0.833,1.417 -0.353,2.091c0.48,0.675 1.417,0.833 2.091,0.353l4.85,-3.45c0.675,-0.48 0.833,-1.417 0.353,-2.091c-0.48,-0.675 -1.417,-0.833 -2.091,-0.353Z"/></g></svg>