<?xml version="1.0" encoding="UTF-8" standalone="no"?><!DOCTYPE svg PUBLIC "-//W3C//DTD SVG 1.1//EN" "http://www.w3.org/Graphics/SVG/1.1/DTD/svg11.dtd"><svg width="100%" height="100%" viewBox="0 0 31 32" version="1.1" xmlns="http://www.w3.org/2000/svg" xmlns:xlink="http://www.w3.org/1999/xlink" xml:space="preserve" xmlns:serif="http://www.serif.com/" style="fill-rule:evenodd;clip-rule:evenodd;stroke-linejoin:round;stroke-miterlimit:2;"><g><rect x="9.75" y="19.9" width="3.85" height="3.4"/><path d="M19.55,11.25c-0.733,0 -1.383,0.567 -1.95,1.7c-0.5,1 -0.75,1.917 -0.75,2.75c0,0.7 0.167,1.267 0.5,1.7c0.4,0.467 0.933,0.7 1.6,0.7c0.667,0 1.4,-0.3 2.2,-0.9c0.5,0.8 0.75,1.35 0.75,1.65c-0,0.267 -0.433,0.517 -1.3,0.75c-0.733,0.2 -1.283,0.3 -1.65,0.3l-5.35,-0l0,3.4l4,0c1.333,0 2.533,-0.55 3.6,-1.65c1.067,-1.1 1.6,-2.317 1.6,-3.65c0,-2.9 -0.783,-4.967 -2.35,-6.2c-0.433,-0.367 -0.733,-0.55 -0.9,-0.55Zm0.75,4.45c-0.6,0.2 -1,0.3 -1.2,0.3c-0.167,0 -0.367,-0.05 -0.6,-0.15l-0.6,-0.3c0.167,-0.533 0.3,-0.85 0.4,-0.95c0.1,-0.133 0.367,-0.35 0.8,-0.65c0.467,0.333 0.867,0.783 1.2,1.35l0,0.4Z" style="fill:#f00;"/><path d="M23.25,8.1l-1.75,-1.7l-1.75,1.7l1.75,1.7l1.75,-1.7Z" style="fill:#f00;"/><path d="M19.75,8.1l-1.7,-1.7l-1.75,1.7l1.75,1.7l1.7,-1.7Z" style="fill:#f00;"/></g></svg>