<?xml version="1.0" encoding="UTF-8" standalone="no"?><!DOCTYPE svg PUBLIC "-//W3C//DTD SVG 1.1//EN" "http://www.w3.org/Graphics/SVG/1.1/DTD/svg11.dtd"><svg width="100%" height="100%" viewBox="0 0 41 32" version="1.1" xmlns="http://www.w3.org/2000/svg" xmlns:xlink="http://www.w3.org/1999/xlink" xml:space="preserve" xmlns:serif="http://www.serif.com/" style="fill-rule:evenodd;clip-rule:evenodd;stroke-linejoin:round;stroke-miterlimit:2;"><g><path d="M29.7,22.3l-0,-3.4l-5.25,-0l-0,3.4l5.25,0Z"/><rect x="10.3" y="18.9" width="3.85" height="3.4"/><path d="M23.35,14.3c0,-0.733 -0.15,-1.45 -0.45,-2.15c-0.4,-0.867 -0.917,-1.3 -1.55,-1.3c-0.967,0 -1.867,0.817 -2.7,2.45c-0.733,1.433 -1.1,2.7 -1.1,3.8c0,0.5 0.05,1.05 0.15,1.65c-0.917,0.081 -1.867,0.131 -2.85,0.15l-0.7,-0l-0,3.4l2.1,0c0.867,0 2.05,-0.5 3.55,-1.5c1.233,1 2.217,1.5 2.95,1.5l1.7,0l-0,-3.4l-1.1,-0c-0.614,-0.042 -1.047,-0.176 -1.3,-0.4c0.867,-1.333 1.3,-2.733 1.3,-4.2Zm-1.65,1.6c-0,0.3 -0.217,0.7 -0.65,1.2c-0.433,0.5 -0.8,0.75 -1.1,0.75c-0.2,0 -0.467,-0.167 -0.8,-0.5c-0.367,-0.333 -0.55,-0.617 -0.55,-0.85c0,-0.5 0.217,-0.95 0.65,-1.35c0.433,-0.4 0.883,-0.6 1.35,-0.6c0.267,0 0.517,0.167 0.75,0.5c0.233,0.3 0.35,0.583 0.35,0.85Z" style="fill:#f00;"/><path d="M22.05,5.4l-1.75,1.7l1.75,1.7l1.75,-1.7l-1.75,-1.7Z" style="fill:#f00;"/><path d="M20.3,7.1l-1.7,-1.7l-1.75,1.7l1.75,1.7l1.7,-1.7Z" style="fill:#f00;"/></g></svg>