<?xml version="1.0" encoding="UTF-8" standalone="no"?><!DOCTYPE svg PUBLIC "-//W3C//DTD SVG 1.1//EN" "http://www.w3.org/Graphics/SVG/1.1/DTD/svg11.dtd"><svg width="100%" height="100%" viewBox="0 0 41 26" version="1.1" xmlns="http://www.w3.org/2000/svg" xmlns:xlink="http://www.w3.org/1999/xlink" xml:space="preserve" xmlns:serif="http://www.serif.com/" style="fill-rule:evenodd;clip-rule:evenodd;stroke-linejoin:round;stroke-miterlimit:2;"><g><path d="M8.45,18.3l1,0l-0,-0.05c-0.279,0.025 -0.612,0.042 -1,0.05Z"/><rect x="4.2" y="14.9" width="3.85" height="3.4"/><path d="M35.75,18.3l0,-3.4l-5.25,-0l0,3.4l5.25,0Z"/><path d="M12.05,13c-0.4,0.833 -0.8,1.367 -1.2,1.6c-0.279,0.186 -0.746,0.286 -1.4,0.3l-1.4,-0l0,3.4l0.4,0c0.388,-0.008 0.721,-0.025 1,-0.05c0.466,-0.041 0.783,-0.107 0.95,-0.2c0.133,-0.1 0.583,-0.75 1.35,-1.95c1.033,1.5 2.733,2.25 5.1,2.25l13.65,-0.05l0,-3.3c-0.238,0.013 -0.504,0.029 -0.8,0.05c-0.933,0.033 -1.667,0 -2.2,-0.1c0.767,-0.767 1.283,-1.333 1.55,-1.7c0.533,-0.7 0.8,-1.383 0.8,-2.05c0,-0.667 -0.267,-1.3 -0.8,-1.9c-0.533,-0.6 -1.133,-0.9 -1.8,-0.9c-1.1,-0 -2.467,0.467 -4.1,1.4c-1.067,0.6 -2.5,1.583 -4.3,2.95c-1.9,1.4 -3.133,2.283 -3.7,2.65c-0.7,-0 -1.35,-0.233 -1.95,-0.7c-0.6,-0.467 -0.983,-1.033 -1.15,-1.7Zm12.25,-1.65c0.433,0 1.067,0.167 1.9,0.5c0.967,0.333 1.45,0.667 1.45,1c-0,0.767 -1.3,1.433 -3.9,2c-2,0.433 -3.583,0.65 -4.75,0.65l-1.9,-0c3.067,-2.767 5.467,-4.15 7.2,-4.15Z" style="fill:#f00;"/></g></svg>