<?xml version="1.0" encoding="UTF-8" standalone="no"?><!DOCTYPE svg PUBLIC "-//W3C//DTD SVG 1.1//EN" "http://www.w3.org/Graphics/SVG/1.1/DTD/svg11.dtd"><svg width="100%" height="100%" viewBox="0 0 31 22" version="1.1" xmlns="http://www.w3.org/2000/svg" xmlns:xlink="http://www.w3.org/1999/xlink" xml:space="preserve" xmlns:serif="http://www.serif.com/" style="fill-rule:evenodd;clip-rule:evenodd;stroke-linejoin:round;stroke-miterlimit:2;"><g><path d="M7.95,17.9l-0,-0.05c-0.273,0.025 -0.607,0.042 -1,0.05l1,-0Z"/><rect x="2.7" y="14.5" width="3.85" height="3.4"/><path d="M7.95,14.5l-1.4,0l1.4,0.05l-0,-0.05Z"/><path d="M25.8,8.2c-1.1,-0 -2.467,0.483 -4.1,1.45c-1.033,0.567 -2.467,1.55 -4.3,2.95c-1.867,1.4 -3.117,2.283 -3.75,2.65c-0.667,0 -1.3,-0.25 -1.9,-0.75c-0.567,-0.433 -0.967,-0.983 -1.2,-1.65c-0.3,0.633 -0.567,1.067 -0.8,1.3c-0.333,0.3 -0.783,0.45 -1.35,0.45l-0.45,-0.05l-1.4,-0.05l0,3.4l0.4,-0c0.393,-0.008 0.727,-0.025 1,-0.05c0.469,-0.025 0.769,-0.075 0.9,-0.15c0.233,-0.133 0.7,-0.7 1.4,-1.7c0.8,0.967 1.65,1.583 2.55,1.85c0.7,0.233 1.783,0.35 3.25,0.35c2.567,-0 5.117,-0.55 7.65,-1.65c3.167,-1.4 4.75,-3.233 4.75,-5.5c-0,-0.7 -0.267,-1.333 -0.8,-1.9c-0.533,-0.633 -1.15,-0.95 -1.85,-0.95Zm0.4,4.5c-0,0.533 -0.967,1.1 -2.9,1.7c-1.7,0.567 -2.967,0.85 -3.8,0.85l-3.85,0c3.3,-2.7 5.733,-4.05 7.3,-4.05c0.433,-0 1.05,0.167 1.85,0.5c0.933,0.333 1.4,0.667 1.4,1Z" style="fill:#f00;"/><path d="M15.15,4.85l1.95,1.95l2,-1.95l-1.95,-2l-2,2Z" style="fill:#f00;"/></g></svg>