<?xml version="1.0" encoding="UTF-8" standalone="no"?><!DOCTYPE svg PUBLIC "-//W3C//DTD SVG 1.1//EN" "http://www.w3.org/Graphics/SVG/1.1/DTD/svg11.dtd"><svg width="100%" height="100%" viewBox="0 0 90 82" version="1.1" xmlns="http://www.w3.org/2000/svg" xmlns:xlink="http://www.w3.org/1999/xlink" xml:space="preserve" xmlns:serif="http://www.serif.com/" style="fill-rule:evenodd;clip-rule:evenodd;stroke-linejoin:round;stroke-miterlimit:2;"><g><path d="M22.5,63.9l2.6,-2.75l-2.6,-2.85l-2.55,2.85l2.55,2.75Z"/><path d="M39.2,48.55c-0.667,-0.133 -1.383,-0.617 -2.15,-1.45c-0.167,1.2 -0.417,2.25 -0.75,3.15c-0,0.033 0.35,0.65 1.05,1.85c0.567,1 0.85,1.55 0.85,1.65c0,1.133 -1.133,2.583 -3.4,4.35c-2.2,1.733 -3.867,2.6 -5,2.6c-0.467,-0 -1.117,-0.117 -1.95,-0.35c-0.667,-0.167 -1.317,-0.35 -1.95,-0.55c0.833,1.067 1.8,1.95 2.9,2.65c1.267,0.8 2.467,1.2 3.6,1.2c1.567,-0 3.133,-1.25 4.7,-3.75c1.433,-2.233 2.25,-4.3 2.45,-6.2c0.233,-0.167 0.533,-0.25 0.9,-0.25l0.05,-0l-0,-4.8l0.2,-0c-0.834,-0.019 -1.334,-0.052 -1.5,-0.1Z"/><path d="M75.95,51.85c1.233,-1.167 1.85,-3.15 1.85,-5.95c-0,-0.8 -0.3,-2.583 -0.9,-5.35c-0.667,1.7 -1.217,2.983 -1.65,3.85c0.633,1.333 1.033,2.3 1.2,2.9c-0.636,0.849 -2.32,1.299 -5.05,1.35l-2.1,-0l-0,4.8l1.45,-0c0.233,-0.006 0.45,-0.023 0.65,-0.05c2.053,-0.111 3.57,-0.627 4.55,-1.55Z"/><path d="M41.85,53.45l0,-0.05c-0.292,0.025 -0.625,0.042 -1,0.05l1,-0Z"/><path d="M13.6,42.5c-0.467,-2.733 -0.7,-5.033 -0.7,-6.9c-0.967,1.333 -1.45,2.183 -1.45,2.55l0.25,3.2c-2.167,1.267 -3.717,2.417 -4.65,3.45c-1.367,1.567 -2.05,3.417 -2.05,5.55c-0,0.8 0.783,1.2 2.35,1.2c1.5,0 2.583,-0.15 3.25,-0.45c0.8,-0.4 1.617,-1.25 2.45,-2.55c0.367,1.033 0.733,2.067 1.1,3.1c0.567,1.2 1.283,1.8 2.15,1.8l3.65,-0l0,-0.05c2.1,-0.096 3.633,-0.612 4.6,-1.55c1.233,-1.167 1.85,-3.15 1.85,-5.95c-0,-0.8 -0.3,-2.583 -0.9,-5.35c-0.667,1.7 -1.217,2.983 -1.65,3.85c0.633,1.333 1.033,2.3 1.2,2.9c-0.611,0.855 -2.311,1.305 -5.1,1.35l-1.45,-0c-1.467,-0.037 -2.317,-0.12 -2.55,-0.25c-0.933,-0.433 -1.717,-2.4 -2.35,-5.9Zm-1.7,1.2c0.267,1.067 0.4,1.683 0.4,1.85c-0,0.3 -0.4,0.567 -1.2,0.8c-0.633,0.2 -1.133,0.3 -1.5,0.3c-0.433,-0 -1.017,-0.15 -1.75,-0.45c1.467,-1.067 2.817,-1.9 4.05,-2.5Z"/><path d="M124.15,44.9c0.667,1.167 1,1.95 1,2.35c-0,0.367 -0.567,0.733 -1.7,1.1c-0.933,0.3 -1.65,0.45 -2.15,0.45l-6.15,0c-1.177,-0.033 -1.961,-0.133 -2.35,-0.3c-2.233,-0.8 -3.35,-6.417 -3.35,-16.85c0,-1.433 0.017,-2.967 0.05,-4.6l0.1,-2.35c-1.5,1.733 -2.467,2.933 -2.9,3.6c0,4.567 -0.033,7.383 -0.1,8.45c-0.167,2.2 -0.65,4.767 -1.45,7.7c-0.567,-2.633 -1.017,-4.333 -1.35,-5.1c-0.867,-2.1 -2.533,-4.583 -5,-7.45c-2.767,-3.233 -4.967,-4.85 -6.6,-4.85c-0.467,0 -0.867,0.317 -1.2,0.95c-0.3,0.567 -0.45,1.133 -0.45,1.7c-0,3.067 1.233,4.6 3.7,4.6c0.667,0 1.417,-0.15 2.25,-0.45c4.533,3.7 7.167,7.717 7.9,12.05c-0.5,1.3 -2,3.117 -4.5,5.45c-2.333,2.133 -4.233,3.583 -5.7,4.35c4.767,-0 8.183,-1.517 10.25,-4.55c1.567,-2.267 2.733,-6.2 3.5,-11.8c-0.033,0.7 -0.05,1.4 -0.05,2.1c-0,3.133 0.267,5.717 0.8,7.75c0.767,2.933 2.017,4.4 3.75,4.4l7.15,0c1.667,0 3.2,-0.783 4.6,-2.35c1.367,-1.567 2.05,-3.3 2.05,-5.2c0,-4.133 -1,-7.083 -3,-8.85c-0.567,-0.533 -0.967,-0.8 -1.2,-0.8c-0.933,-0 -1.767,0.817 -2.5,2.45c-0.633,1.433 -0.95,2.733 -0.95,3.9c0,1 0.217,1.817 0.65,2.45c0.5,0.667 1.183,1 2.05,1c0.867,-0 1.817,-0.433 2.85,-1.3Zm-1.15,-2.75l0,0.6c-0.733,0.3 -1.233,0.45 -1.5,0.45c-0.2,-0 -0.467,-0.083 -0.8,-0.25l-0.75,-0.4c0.2,-0.733 0.367,-1.2 0.5,-1.4c0.133,-0.167 0.483,-0.467 1.05,-0.9c0.6,0.5 1.1,1.133 1.5,1.9Z"/><path d="M72.95,36.05l2.25,-2.45l-2.2,-2.45l-2.25,2.4l2.2,2.5Z"/><path d="M79.7,33.55l-2.25,-2.4l-2.25,2.45l2.25,2.45l2.25,-2.5Z"/><path d="M23.95,22.35c0,-0.633 -0.167,-1.217 -0.5,-1.75c-0.4,-0.567 -0.883,-0.85 -1.45,-0.85c-0.767,0 -1.333,0.367 -1.7,1.1c-0.333,0.633 -0.5,1.4 -0.5,2.3c-0,1.433 0.567,2.15 1.7,2.15c0.667,0 1.25,-0.3 1.75,-0.9c0.467,-0.6 0.7,-1.283 0.7,-2.05Zm-1.6,-0.55c0.467,0.367 0.7,0.7 0.7,1c-0,0.467 -0.417,0.7 -1.25,0.7c-1,0 -1.5,-0.35 -1.5,-1.05c-0,-0.767 0.333,-1.15 1,-1.15c0.267,0 0.617,0.167 1.05,0.5Z"/><path d="M54.75,24.4c0.467,-0.6 0.7,-1.283 0.7,-2.05c0,-0.633 -0.167,-1.217 -0.5,-1.75c-0.4,-0.567 -0.883,-0.85 -1.45,-0.85c-0.767,0 -1.333,0.367 -1.7,1.1c-0.333,0.633 -0.5,1.4 -0.5,2.3c-0,1.433 0.567,2.15 1.7,2.15c0.667,0 1.25,-0.3 1.75,-0.9Zm-0.2,-1.6c-0,0.467 -0.417,0.7 -1.25,0.7c-1,0 -1.5,-0.35 -1.5,-1.05c-0,-0.767 0.333,-1.15 1,-1.15c0.267,0 0.617,0.167 1.05,0.5c0.467,0.367 0.7,0.7 0.7,1Z"/><path d="M11.35,21.55c0,-0.967 -0.433,-1.45 -1.3,-1.45c-0.6,0 -1.133,0.35 -1.6,1.05c-0.433,0.6 -0.65,1.2 -0.65,1.8c-0,0.467 0.4,0.95 1.2,1.45c-1.433,1.2 -2.783,2.1 -4.05,2.7c0.433,0.133 0.8,0.2 1.1,0.2c1.033,0 2.3,-0.8 3.8,-2.4c0.567,0.367 1.067,0.65 1.5,0.85l0.15,-1.65c-0.333,-0.233 -0.583,-0.417 -0.75,-0.55c0.4,-0.833 0.6,-1.5 0.6,-2Zm-1.2,1.05c-0,0.133 -0.033,0.3 -0.1,0.5c-0.833,-0.433 -1.25,-0.85 -1.25,-1.25c0.067,-0.167 0.183,-0.267 0.35,-0.3c0.667,0.1 1,0.45 1,1.05Z"/><path d="M70.75,53.45l0.65,-0l-0,-0.05c-0.2,0.027 -0.417,0.044 -0.65,0.05Z" style="fill:#f00;"/><path d="M65.963,39.381c0.599,0.163 1.162,0.569 1.687,1.219c0.7,0.867 1.05,1.783 1.05,2.75c0,0.9 -0.35,1.883 -1.05,2.95c-0.333,0.467 -1,1.25 -2,2.35c0.7,0.167 1.65,0.217 2.85,0.15c0.288,-0.015 0.555,-0.032 0.8,-0.05l-0,4.7l-17.4,0.05c-3.067,-0 -5.267,-1.05 -6.6,-3.15c-0.967,1.667 -1.55,2.567 -1.75,2.7c-0.254,0.185 -0.821,0.302 -1.7,0.35c-0.292,0.025 -0.625,0.042 -1,0.05l-0.35,-0l0,-4.8l1.65,-0c0.933,-0 1.617,-0.15 2.05,-0.45c0.5,-0.367 1,-1.133 1.5,-2.3c0.2,0.933 0.7,1.733 1.5,2.4c0.767,0.667 1.6,1 2.5,1c0.733,-0.5 2.333,-1.767 4.8,-3.8c2.333,-1.933 4.183,-3.333 5.55,-4.2c2.133,-1.333 3.9,-2 5.3,-2l0.613,0.081Zm-11.263,10.119l-2.45,-0c3.967,-3.967 7.05,-5.95 9.25,-5.95c0.6,0 1.433,0.217 2.5,0.65c1.233,0.5 1.85,0.983 1.85,1.45c0,1.1 -1.667,2.05 -5,2.85c-2.6,0.667 -4.65,1 -6.15,1Z" style="fill:#f00;"/><path d="M56.75,34.85l-2.55,-2.85l-2.55,2.85l2.55,2.75l2.55,-2.75Z" style="fill:#f00;"/><path d="M35.428,64.579l-4.9,3.5c-0.674,0.482 -0.83,1.419 -0.349,2.093c0.482,0.674 1.419,0.83 2.093,0.349l4.9,-3.5c0.674,-0.482 0.83,-1.419 0.349,-2.093c-0.482,-0.674 -1.419,-0.83 -2.093,-0.349Z"/><path d="M76.386,18.624l-4.9,3.45c-0.676,0.476 -0.839,1.413 -0.362,2.09c0.476,0.676 1.413,0.839 2.09,0.362l4.9,-3.45c0.676,-0.476 0.839,-1.413 0.362,-2.09c-0.476,-0.676 -1.413,-0.839 -2.09,-0.362Z"/></g></svg>