<?xml version="1.0" encoding="UTF-8" standalone="no"?><!DOCTYPE svg PUBLIC "-//W3C//DTD SVG 1.1//EN" "http://www.w3.org/Graphics/SVG/1.1/DTD/svg11.dtd"><svg width="100%" height="100%" viewBox="0 0 103 79" version="1.1" xmlns="http://www.w3.org/2000/svg" xmlns:xlink="http://www.w3.org/1999/xlink" xml:space="preserve" xmlns:serif="http://www.serif.com/" style="fill-rule:evenodd;clip-rule:evenodd;stroke-linejoin:round;stroke-miterlimit:2;"><g><path d="M48.85,22.85c0.033,0.2 -0.017,0.5 -0.15,0.9c-0.1,0.367 -0.15,0.633 -0.15,0.8c-0,0.567 0.333,1.217 1,1.95c0.667,0.7 1,1.167 1,1.4c-0,0.6 -0.2,1.367 -0.6,2.3c-0.4,0.933 -0.6,1.6 -0.6,2c-0,0.8 0.067,2.017 0.2,3.65c0.167,1.6 0.25,2.817 0.25,3.65l-0,4.45c-0,2.133 -0.283,3.917 -0.85,5.35c-0.733,1.967 -1.933,2.95 -3.6,2.95l-5.85,-0c-0.6,-0 -1.317,-0.4 -2.15,-1.2c-0.7,-0.667 -1.233,-1.367 -1.6,-2.1c-0.733,1.4 -1.15,2.15 -1.25,2.25c-0.5,0.7 -1.183,1.05 -2.05,1.05l-5,0c-0.8,0 -1.617,-0.6 -2.45,-1.8c-0.333,-0.467 -0.867,-1.417 -1.6,-2.85c-1.1,1.633 -2.967,3.017 -5.6,4.15c-2.4,1.033 -4.633,1.55 -6.7,1.55c-2.167,-0 -3.917,-0.433 -5.25,-1.3c-1.633,-1.067 -2.45,-2.717 -2.45,-4.95c0,-1.167 0.267,-2.517 0.8,-4.05c0.6,-1.767 1.3,-2.85 2.1,-3.25c-0.533,1.7 -0.8,3.217 -0.8,4.55c-0,3.2 2.883,4.8 8.65,4.8c1.433,0 3.2,-0.55 5.3,-1.65c2.367,-1.267 3.55,-2.6 3.55,-4c-0,-2.1 -0.117,-4.783 -0.35,-8.05c-0.2,-2.7 -0.417,-5.4 -0.65,-8.1c-0,-0.433 0.333,-1.167 1,-2.2c0.6,-0.867 1.117,-1.517 1.55,-1.95c-0,13.7 0.483,21.367 1.45,23c0.4,0.7 1.083,1.117 2.05,1.25c0.104,0.023 0.271,0.04 0.5,0.05l1.95,0c0.131,0.028 0.265,0.045 0.4,0.05l1.6,0c1.067,0 1.833,-0.217 2.3,-0.65c0.367,-0.4 1.067,-1.533 2.1,-3.4c0.067,1.667 0.383,2.8 0.95,3.4c0.467,0.5 1.267,0.75 2.4,0.75c0.333,0 0.933,-0.033 1.8,-0.1l0.05,0l-0,-0.05l2.05,0l0,0.05l0.25,0c2.3,0.067 3.45,-0.583 3.45,-1.95c-0,-7.067 -0.25,-12.35 -0.75,-15.85c-0.8,-0.967 -1.267,-1.783 -1.4,-2.45c0.767,-2.333 1.817,-3.983 3.15,-4.95l-0,0.55Z"/><path d="M72.9,22.75c-1.567,2.233 -2.333,3.567 -2.3,4l0.55,25.55c1.267,-1.167 1.9,-4.267 1.9,-9.3l-0.15,-20.25Z"/><path d="M95.65,40.6c-0.867,0 -1.683,0.833 -2.45,2.5c-0.7,1.5 -1.05,2.817 -1.05,3.95c0,1.9 0.683,2.85 2.05,2.85c1.067,-0 2.067,-0.633 3,-1.9c0.233,0.567 0.35,1.1 0.35,1.6c-0,2.8 -1.8,5.017 -5.4,6.65c-2.8,1.3 -5.667,1.95 -8.6,1.95c1.4,0.633 2.367,1.033 2.9,1.2c1,0.3 2.033,0.45 3.1,0.45c2.967,0 5.283,-1.333 6.95,-4c1.467,-2.367 2.2,-5.267 2.2,-8.7c0,-1.367 -0.217,-2.7 -0.65,-4c-0.567,-1.7 -1.367,-2.55 -2.4,-2.55Zm-0.95,3.35c1,0.533 1.5,1.183 1.5,1.95c0,0.267 -0.15,0.5 -0.45,0.7c-0.3,0.233 -0.6,0.35 -0.9,0.35l-1.15,-0.65c0.333,-0.867 0.667,-1.65 1,-2.35Z"/><path d="M49.8,58.2c1.4,0.633 2.367,1.033 2.9,1.2c1,0.3 2.033,0.45 3.1,0.45c2.967,0 5.283,-1.333 6.95,-4c1.467,-2.367 2.2,-5.267 2.2,-8.7c0,-1.367 -0.217,-2.7 -0.65,-4c-0.567,-1.7 -1.367,-2.55 -2.4,-2.55c-0.867,0 -1.683,0.833 -2.45,2.5c-0.7,1.5 -1.05,2.817 -1.05,3.95c0,1.9 0.683,2.85 2.05,2.85c1.067,-0 2.067,-0.633 3,-1.9c0.233,0.567 0.35,1.1 0.35,1.6c-0,2.8 -1.8,5.017 -5.4,6.65c-2.8,1.3 -5.667,1.95 -8.6,1.95Zm12.65,-12.3c0,0.267 -0.15,0.5 -0.45,0.7c-0.3,0.233 -0.6,0.35 -0.9,0.35l-1.15,-0.65c0.333,-0.867 0.667,-1.65 1,-2.35c1,0.533 1.5,1.183 1.5,1.95Z"/><path d="M17.05,33.7c-0.233,-0.3 -0.5,-0.45 -0.8,-0.45c-0.533,0 -1.35,0.95 -2.45,2.85c-1.033,1.8 -1.55,3.033 -1.55,3.7c0,0.667 0.467,1 1.4,1c1.233,0.033 2.05,0.267 2.45,0.7c-0.933,1.033 -1.9,1.55 -2.9,1.55c-0.5,-0 -1.083,-0.083 -1.75,-0.25c0.4,0.6 0.733,0.983 1,1.15c0.3,0.233 0.767,0.35 1.4,0.35c1,-0 1.8,-0.283 2.4,-0.85c0.667,-0.567 1,-1.383 1,-2.45c0,-1.067 -0.6,-1.733 -1.8,-2c-1.2,-0.267 -1.8,-0.5 -1.8,-0.7c0,-0.367 0.217,-0.783 0.65,-1.25c0.433,-0.5 0.833,-0.75 1.2,-0.75c0.233,-0 0.483,0.117 0.75,0.35c0.767,-0.433 1.15,-1.1 1.15,-2c0,-0.333 -0.117,-0.65 -0.35,-0.95Z"/><path d="M35.05,30.6c0.4,-1.1 0.95,-1.65 1.65,-1.65c0.167,0 0.417,0.05 0.75,0.15c0.3,0.133 0.533,0.2 0.7,0.2c0.367,-0 0.55,-0.383 0.55,-1.15c0,-0.3 -0.117,-0.567 -0.35,-0.8c-0.2,-0.233 -0.433,-0.35 -0.7,-0.35c-0.533,0 -1.35,0.483 -2.45,1.45c-1.133,1.033 -1.7,1.817 -1.7,2.35c0,0.2 0.133,0.55 0.4,1.05c0.267,0.467 0.4,0.833 0.4,1.1c-0,0.133 -0.033,0.35 -0.1,0.65c-0.1,0.3 -0.15,0.533 -0.15,0.7c-0,0.133 0.017,0.333 0.05,0.6c1.5,-1.367 2.817,-2.05 3.95,-2.05c0.933,0 1.417,-0.017 1.45,-0.05c0.267,-0.433 0.517,-0.883 0.75,-1.35c-0.233,0 -0.6,0.017 -1.1,0.05l-1.05,-0c-1.267,-0 -2.283,-0.3 -3.05,-0.9Z"/><path d="M52.138,18.725c0.091,0.433 0.229,0.942 0.412,1.525c0.367,1.167 0.55,2.05 0.55,2.65c-0,0.767 -0.433,1.383 -1.3,1.85c0.1,-0.233 0.15,-0.533 0.15,-0.9c0,-0.267 -0.046,-0.596 -0.137,-0.988l-0.826,-2.724c-0.091,-0.392 -0.137,-0.721 -0.137,-0.988c-0,-0.467 0.383,-0.967 1.15,-1.5l0.138,1.075Z"/><path d="M41.05,14.6c1.133,0.533 1.8,0.833 2,0.9c0.6,0.2 1.333,0.3 2.2,0.3c1,-0 2.217,-0.417 3.65,-1.25c1.567,-0.933 2.35,-1.9 2.35,-2.9c-1.6,0.933 -2.467,1.433 -2.6,1.5c-1.033,0.467 -1.967,0.7 -2.8,0.7c-1.633,0 -3.15,-0.55 -4.55,-1.65c-1.167,1.933 -1.967,3.633 -2.4,5.1c0.367,-0.267 0.75,-0.7 1.15,-1.3c0.467,-0.7 0.8,-1.167 1,-1.4Z"/><path d="M73.85,17.15c-0.333,-0.233 -0.583,-0.417 -0.75,-0.55c0.4,-0.833 0.6,-1.5 0.6,-2c0,-0.967 -0.433,-1.45 -1.3,-1.45c-0.6,-0 -1.133,0.35 -1.6,1.05c-0.433,0.6 -0.65,1.2 -0.65,1.8c0,0.467 0.4,0.95 1.2,1.45c-1.433,1.2 -2.783,2.1 -4.05,2.7c0.433,0.133 0.8,0.2 1.1,0.2c1.033,0 2.3,-0.8 3.8,-2.4c0.567,0.367 1.067,0.65 1.5,0.85l0.15,-1.65Zm-2.35,-2.55c0.667,0.1 1,0.45 1,1.05c-0,0.133 -0.033,0.3 -0.1,0.5c-0.833,-0.433 -1.25,-0.85 -1.25,-1.25c0.067,-0.167 0.183,-0.267 0.35,-0.3Z"/><path d="M38.336,57.224l-4.9,3.45c-0.676,0.476 -0.839,1.413 -0.362,2.09c0.476,0.676 1.413,0.839 2.09,0.362l4.9,-3.45c0.676,-0.476 0.839,-1.413 0.362,-2.09c-0.476,-0.676 -1.413,-0.839 -2.09,-0.362Z"/><path d="M96.228,23.629l-4.9,3.5c-0.674,0.482 -0.83,1.419 -0.349,2.093c0.482,0.674 1.419,0.83 2.093,0.349l4.9,-3.5c0.674,-0.482 0.83,-1.419 0.349,-2.093c-0.482,-0.674 -1.419,-0.83 -2.093,-0.349Z"/><path d="M17.486,18.974l-4.9,3.45c-0.676,0.476 -0.839,1.413 -0.362,2.09c0.476,0.676 1.413,0.839 2.09,0.362l4.9,-3.45c0.676,-0.476 0.839,-1.413 0.362,-2.09c-0.476,-0.676 -1.413,-0.839 -2.09,-0.362Z"/></g></svg>