<?xml version="1.0" encoding="UTF-8" standalone="no"?><!DOCTYPE svg PUBLIC "-//W3C//DTD SVG 1.1//EN" "http://www.w3.org/Graphics/SVG/1.1/DTD/svg11.dtd"><svg width="100%" height="100%" viewBox="0 0 99 73" version="1.1" xmlns="http://www.w3.org/2000/svg" xmlns:xlink="http://www.w3.org/1999/xlink" xml:space="preserve" xmlns:serif="http://www.serif.com/" style="fill-rule:evenodd;clip-rule:evenodd;stroke-linejoin:round;stroke-miterlimit:2;"><g><path d="M6.95,44c-1,0.733 -1.983,2.017 -2.95,3.85c-0.967,1.9 -1.45,3.5 -1.45,4.8c-0,2.5 1.017,4.367 3.05,5.6c1.6,1 3.65,1.5 6.15,1.5c5.567,0 9.683,-1.867 12.35,-5.6c0.833,-1.167 1.25,-2.067 1.25,-2.7c-0,-1.033 -0.933,-1.75 -2.8,-2.15c-1.267,-0.233 -2.55,-0.45 -3.85,-0.65c0.5,-0.833 3.3,-1.25 8.4,-1.25l-0,-0.1c-0.493,0.067 -1.127,0.1 -1.9,0.1l0,-4.8l-1.2,0c-1.9,0 -3.583,0.617 -5.05,1.85c-1.6,1.333 -2.4,3.017 -2.4,5.05c-0,0.933 0.417,1.617 1.25,2.05c0.533,0.233 1.433,0.45 2.7,0.65c1.2,0.2 1.983,0.417 2.35,0.65c-0.367,0.833 -1.9,1.583 -4.6,2.25c-2.2,0.533 -3.983,0.8 -5.35,0.8c-2.3,-0 -4.05,-0.25 -5.25,-0.75c-1.9,-0.8 -2.85,-2.233 -2.85,-4.3c-0,-0.9 0.3,-2.05 0.9,-3.45c0.733,-1.7 1.15,-2.833 1.25,-3.4Z"/><path d="M81.2,42.3c0,-1.367 -0.217,-2.7 -0.65,-4c-0.567,-1.7 -1.367,-2.55 -2.4,-2.55c-0.867,-0 -1.683,0.833 -2.45,2.5c-0.7,1.5 -1.05,2.817 -1.05,3.95c0,1.9 0.683,2.85 2.05,2.85c1.067,0 2.067,-0.633 3,-1.9c0.233,0.567 0.35,1.1 0.35,1.6c-0,2.8 -1.8,5.017 -5.4,6.65c-2.8,1.3 -5.667,1.95 -8.6,1.95c1.4,0.633 2.367,1.033 2.9,1.2c1,0.3 2.033,0.45 3.1,0.45c2.967,-0 5.283,-1.333 6.95,-4c1.467,-2.367 2.2,-5.267 2.2,-8.7Zm-5,-0.85c0.333,-0.867 0.667,-1.65 1,-2.35c1,0.533 1.5,1.183 1.5,1.95c0,0.267 -0.15,0.5 -0.45,0.7c-0.3,0.233 -0.6,0.35 -0.9,0.35l-1.15,-0.65Z"/><path d="M52.35,34.55c-0.7,-0.867 -1.467,-1.3 -2.3,-1.3c-1.4,-0 -3.167,0.667 -5.3,2c-1.367,0.867 -3.217,2.267 -5.55,4.2c-2.467,2.033 -4.067,3.3 -4.8,3.8c-0.9,-0 -1.733,-0.333 -2.5,-1c-0.8,-0.667 -1.3,-1.467 -1.5,-2.4c-0.5,1.167 -1,1.933 -1.5,2.3c-0.394,0.273 -0.994,0.423 -1.8,0.45l-1.9,0l0,4.8c0.773,-0 1.407,-0.033 1.9,-0.1c0.57,-0.057 0.954,-0.157 1.15,-0.3c0.2,-0.133 0.783,-1.033 1.75,-2.7c1.333,2.1 3.533,3.15 6.6,3.15l22.8,-0.05c1.667,-0 3.2,-0.783 4.6,-2.35c1.367,-1.567 2.05,-3.3 2.05,-5.2c-0,-4.133 -1,-7.083 -3,-8.85c-0.567,-0.533 -0.967,-0.8 -1.2,-0.8c-0.933,-0 -1.767,0.817 -2.5,2.45c-0.633,1.433 -0.95,2.733 -0.95,3.9c0,1 0.217,1.817 0.65,2.45c0.5,0.667 1.183,1 2.05,1c0.867,0 1.817,-0.433 2.85,-1.3c0.667,1.167 1,1.95 1,2.35c0,0.367 -0.567,0.733 -1.7,1.1c-0.933,0.3 -1.65,0.45 -2.15,0.45l-6.9,0l0,0.1c-0.298,0.014 -0.632,0.03 -1,0.05c-1.2,0.067 -2.15,0.017 -2.85,-0.15c1,-1.1 1.667,-1.883 2,-2.35c0.7,-1.067 1.05,-2.05 1.05,-2.95c0,-0.967 -0.35,-1.883 -1.05,-2.75Zm-3.65,3.6c1.233,0.5 1.85,0.983 1.85,1.45c-0,1.1 -1.667,2.05 -5,2.85c-2.6,0.667 -4.65,1 -6.15,1l-2.45,-0c3.967,-3.967 7.05,-5.95 9.25,-5.95c0.6,-0 1.433,0.217 2.5,0.65Zm14.1,-2.2l-0,0.6c-0.733,0.3 -1.233,0.45 -1.5,0.45c-0.2,-0 -0.467,-0.083 -0.8,-0.25l-0.75,-0.4c0.2,-0.733 0.367,-1.2 0.5,-1.4c0.133,-0.167 0.483,-0.467 1.05,-0.9c0.6,0.5 1.1,1.133 1.5,1.9Z" style="fill:#f00;"/><path d="M41.45,28.8l-2.55,-2.85l-2.55,2.85l2.55,2.75l2.55,-2.75Z" style="fill:#f00;"/><path d="M64.4,28.15l2.25,-2.45l-2.25,-2.45l-2.25,2.45l2.25,2.45Z" style="fill:#f00;"/><path d="M59.9,28.15l2.25,-2.45l-2.2,-2.45l-2.25,2.45l2.2,2.45Z" style="fill:#f00;"/><path d="M78.578,18.729l-4.9,3.5c-0.674,0.482 -0.83,1.419 -0.349,2.093c0.482,0.674 1.419,0.83 2.093,0.349l4.9,-3.5c0.674,-0.482 0.83,-1.419 0.349,-2.093c-0.482,-0.674 -1.419,-0.83 -2.093,-0.349Z"/><path d="M38.928,12.929l-4.9,3.5c-0.674,0.482 -0.83,1.419 -0.349,2.093c0.482,0.674 1.419,0.83 2.093,0.349l4.9,-3.5c0.674,-0.482 0.83,-1.419 0.349,-2.093c-0.482,-0.674 -1.419,-0.83 -2.093,-0.349Z"/><path d="M62.736,12.574l-4.9,3.45c-0.676,0.476 -0.839,1.413 -0.362,2.09c0.476,0.676 1.413,0.839 2.09,0.362l4.9,-3.45c0.676,-0.476 0.839,-1.413 0.362,-2.09c-0.476,-0.676 -1.413,-0.839 -2.09,-0.362Z"/></g></svg>