<?xml version="1.0" encoding="UTF-8" standalone="no"?><!DOCTYPE svg PUBLIC "-//W3C//DTD SVG 1.1//EN" "http://www.w3.org/Graphics/SVG/1.1/DTD/svg11.dtd"><svg width="100%" height="100%" viewBox="0 0 42 35" version="1.1" xmlns="http://www.w3.org/2000/svg" xmlns:xlink="http://www.w3.org/1999/xlink" xml:space="preserve" xmlns:serif="http://www.serif.com/" style="fill-rule:evenodd;clip-rule:evenodd;stroke-linejoin:round;stroke-miterlimit:2;"><g><path d="M20.4,12.15c-0.267,0.333 -0.517,0.867 -0.75,1.6c0.267,-0.1 0.533,-0.217 0.8,-0.35c0.333,-0.133 0.617,-0.2 0.85,-0.2c0.367,0 0.867,0.15 1.5,0.45c0.033,-0 0.517,0.233 1.45,0.7c-0.667,0.433 -1.233,0.733 -1.7,0.9c-0.433,0.133 -0.95,0.2 -1.55,0.2c-0.167,0 -0.5,-0.017 -1,-0.05l-1.25,-0l-0,0.05l-1.1,0c-0.633,0 -1.083,-0.1 -1.35,-0.3c-0.333,-0.267 -0.517,-0.767 -0.55,-1.5c-0.567,0.833 -0.95,1.333 -1.15,1.5c-0.267,0.2 -0.7,0.3 -1.3,0.3c-0.133,0 -0.45,-0.017 -0.95,-0.05l-0.75,-0c-0.917,-0.024 -1.567,-0.091 -1.95,-0.2c-0.3,-0.1 -0.583,-0.317 -0.85,-0.65c-0.333,-0.433 -0.7,-0.783 -1.1,-1.05c-0.233,0.167 -0.383,0.35 -0.45,0.55c0.067,0.1 0.067,0.167 -0,0.2c-1.033,0.233 -1.917,0.617 -2.65,1.15c-0.867,0.633 -1.3,1.383 -1.3,2.25l-0,0.25l0.9,8.15c0.133,-0.167 0.283,-0.4 0.45,-0.7c0.167,-0.333 0.233,-0.583 0.2,-0.75l-0.65,-7.2c0.367,-0.633 0.917,-0.95 1.65,-0.95l0.3,0.1c-0,0.5 0.133,0.983 0.4,1.45c0.333,0.6 0.75,0.9 1.25,0.9c0.8,-0 1.2,-0.683 1.2,-2.05c0.733,0.433 1.283,0.65 1.65,0.65l2.6,0c0.467,0 0.85,-0.15 1.15,-0.45c0.067,-0.033 0.3,-0.367 0.7,-1c0.233,0.333 0.55,0.65 0.95,0.95c0.467,0.333 0.867,0.5 1.2,0.5l3.25,0c0.7,0 1.367,-0.15 2,-0.45c0.233,-0.133 0.733,-0.45 1.5,-0.95c0.567,-0.367 1.05,-0.6 1.45,-0.7c0.367,-0.1 0.817,-0.15 1.35,-0.15c0.467,-0.033 0.933,-0.05 1.4,-0.05c0.3,-0.6 0.533,-1.267 0.7,-2c-1.133,0 -2.2,-0.167 -3.2,-0.5c-0.467,-0.167 -1.167,-0.483 -2.1,-0.95c-0.667,-0.333 -1.183,-0.5 -1.55,-0.5c-0.667,0 -1.217,0.3 -1.65,0.9Z"/><path d="M23.85,20.75l1.45,1.25l1.5,-1.25l-1.5,-1.25l-1.45,1.25Z"/><path d="M18.1,20.55l-1.3,-1.05l-1.25,1.05l1.25,1.1l1.3,-1.1Z"/><path d="M15.55,20.55l-1.25,-1.05l-1.3,1.05l1.3,1.1l1.25,-1.1Z"/><path d="M36.05,14.3c-0.2,-0.333 -0.6,-0.75 -1.2,-1.25l-0.55,1.75c0.3,0.3 0.6,0.6 0.9,0.9c0.433,0.4 0.65,0.717 0.65,0.95c-0,1.133 -0.967,2.1 -2.9,2.9c-1.633,0.667 -3.183,1 -4.65,1c1.2,0.7 2.383,1.05 3.55,1.05c1.333,0 2.467,-0.7 3.4,-2.1c0.833,-1.2 1.25,-2.417 1.25,-3.65c-0,-0.6 -0.15,-1.117 -0.45,-1.55Z"/><path d="M7,7.25c0,0.333 0.267,0.633 0.8,0.9c-0.5,0.4 -0.967,0.667 -1.4,0.8c0.033,-0.4 0.05,-0.65 0.05,-0.75c0,-0.667 -0.267,-1 -0.8,-1c-0.3,0 -0.533,0.117 -0.7,0.35c-0.167,0.2 -0.25,0.417 -0.25,0.65c0,0.133 0.033,0.3 0.1,0.5c0.067,-0.467 0.267,-0.7 0.6,-0.7c0.133,-0 0.25,0.05 0.35,0.15c0.133,0.1 0.2,0.217 0.2,0.35c0,0.2 -0.167,0.583 -0.5,1.15c0.6,-0.1 1.117,-0.25 1.55,-0.45c0.333,-0.167 0.75,-0.45 1.25,-0.85c0.233,0.133 0.567,0.317 1,0.55c0.033,-0.367 0.05,-0.567 0.05,-0.6c-0,-0.233 -0.15,-0.433 -0.45,-0.6c0.267,-0.467 0.4,-0.817 0.4,-1.05c0,-0.167 -0.083,-0.317 -0.25,-0.45c-0.167,-0.167 -0.35,-0.25 -0.55,-0.25c-0.367,0 -0.7,0.15 -1,0.45c-0.3,0.3 -0.45,0.583 -0.45,0.85Zm0.95,-0.7c0.3,-0 0.45,0.167 0.45,0.5l-0,0.35c-0.5,-0.267 -0.75,-0.483 -0.75,-0.65l0.1,-0.15c0.1,-0.033 0.167,-0.05 0.2,-0.05Z"/><path d="M35.887,4.653l-4.018,2.329c-0.302,0.178 -0.372,0.525 -0.156,0.774c0.216,0.249 0.636,0.307 0.938,0.129l4.018,-2.329c0.302,-0.178 0.372,-0.525 0.156,-0.774c-0.216,-0.249 -0.636,-0.307 -0.938,-0.129Z" style="fill:#f00;"/><path d="M27.083,22.958l-4.017,2.329c-0.302,0.178 -0.373,0.525 -0.157,0.774c0.216,0.249 0.636,0.307 0.938,0.129l4.018,-2.329c0.302,-0.178 0.372,-0.525 0.156,-0.774c-0.216,-0.249 -0.636,-0.307 -0.938,-0.129Z"/></g></svg>