<?xml version="1.0" encoding="UTF-8" standalone="no"?><!DOCTYPE svg PUBLIC "-//W3C//DTD SVG 1.1//EN" "http://www.w3.org/Graphics/SVG/1.1/DTD/svg11.dtd"><svg width="100%" height="100%" viewBox="0 0 43 33" version="1.1" xmlns="http://www.w3.org/2000/svg" xmlns:xlink="http://www.w3.org/1999/xlink" xml:space="preserve" xmlns:serif="http://www.serif.com/" style="fill-rule:evenodd;clip-rule:evenodd;stroke-linejoin:round;stroke-miterlimit:2;"><g><path d="M36.05,20.9c-0,-0.867 -0.2,-1.617 -0.6,-2.25c-0.3,-0.467 -0.9,-1.067 -1.8,-1.8l-0.75,2.55c0.433,0.4 0.883,0.817 1.35,1.25c0.567,0.633 0.85,1.1 0.85,1.4c-0,1.633 -1.383,3.033 -4.15,4.2c-2.367,1 -4.617,1.5 -6.75,1.5c1.733,0.967 3.433,1.45 5.1,1.45c1.967,-0 3.633,-1 5,-3c1.167,-1.733 1.75,-3.5 1.75,-5.3Z"/><path d="M17.65,22.75c-0.1,1.1 -0.15,1.7 -0.15,1.8c-0,0.867 0.333,1.4 1,1.6c0.333,0.133 1.1,0.2 2.3,0.2c1.567,0 2.767,-0.4 3.6,-1.2c0.767,-0.733 1.15,-1.767 1.15,-3.1c-0,-1.567 -0.45,-2.983 -1.35,-4.25c-0.967,-1.333 -2.3,-2.233 -4,-2.7c-0.133,0.433 -0.2,0.967 -0.2,1.6l0.05,2.15c1,0 2.05,0.367 3.15,1.1c1.133,0.767 1.7,1.567 1.7,2.4c0,0.3 -0.633,0.567 -1.9,0.8c-0.967,0.167 -1.8,0.25 -2.5,0.25c-0.933,-0 -1.883,-0.217 -2.85,-0.65Z" style="fill:#f00;"/><path d="M5.65,22.65c-0.1,1.1 -0.15,1.7 -0.15,1.8c0,0.867 0.333,1.4 1,1.6c0.333,0.133 1.1,0.2 2.3,0.2c1.567,-0 2.767,-0.4 3.6,-1.2c0.767,-0.733 1.15,-1.767 1.15,-3.1c-0,-1.567 -0.45,-2.983 -1.35,-4.25c-0.967,-1.333 -2.3,-2.233 -4,-2.7c-0.133,0.433 -0.2,0.967 -0.2,1.6l0.05,2.15c1,-0 2.05,0.367 3.15,1.1c1.133,0.767 1.7,1.567 1.7,2.4c0,0.3 -0.633,0.567 -1.9,0.8c-0.967,0.167 -1.8,0.25 -2.5,0.25c-0.933,0 -1.883,-0.217 -2.85,-0.65Z" style="fill:#f00;"/><path d="M18.6,8.55c-0.233,0.4 -0.35,0.867 -0.35,1.4c0,0.9 0.433,1.35 1.3,1.35c0.5,0 0.933,-0.183 1.3,-0.55c0.367,-0.367 0.55,-0.783 0.55,-1.25c0,-0.4 -0.133,-0.767 -0.4,-1.1c-0.3,-0.333 -0.65,-0.5 -1.05,-0.5c-0.6,-0 -1.05,0.217 -1.35,0.65Zm0.05,1c0,-0.5 0.25,-0.75 0.75,-0.75c0.2,0 0.467,0.117 0.8,0.35c0.367,0.233 0.55,0.433 0.55,0.6c-0,0.3 -0.317,0.45 -0.95,0.45c-0.767,-0 -1.15,-0.217 -1.15,-0.65Z" style="fill:#f00;"/><path d="M173.153,203.013l-5.95,4c-0.573,0.385 -0.725,1.162 -0.34,1.734c0.385,0.573 1.162,0.725 1.734,0.34l5.95,-4c0.573,-0.385 0.725,-1.162 0.34,-1.734c-0.385,-0.573 -1.162,-0.725 -1.734,-0.34Zm-1.1,-3.5l-5.95,4c-0.573,0.385 -0.725,1.162 -0.34,1.734c0.385,0.573 1.162,0.725 1.734,0.34l5.95,-4c0.573,-0.385 0.725,-1.162 0.34,-1.734c-0.385,-0.573 -1.162,-0.725 -1.734,-0.34Zm-70.606,-0.029l-4.9,3c-0.588,0.36 -0.773,1.13 -0.413,1.719c0.36,0.588 1.13,0.773 1.719,0.413l4.9,-3c0.588,-0.36 0.773,-1.13 0.413,-1.719c-0.36,-0.588 -1.13,-0.773 -1.719,-0.413Zm-278.318,-0.57l-6.55,3c-0.627,0.287 -0.903,1.029 -0.615,1.657c0.287,0.627 1.029,0.903 1.657,0.615l6.55,-3c0.627,-0.287 0.903,-1.029 0.615,-1.657c-0.287,-0.627 -1.029,-0.903 -1.657,-0.615Zm-141.654,-2.416l-5.45,3.5c-0.581,0.373 -0.75,1.147 -0.377,1.727c0.373,0.581 1.147,0.75 1.727,0.377l5.45,-3.5c0.581,-0.373 0.75,-1.147 0.377,-1.727c-0.373,-0.581 -1.147,-0.75 -1.727,-0.377Zm243.552,-38.502l-7.05,4.5c-0.581,0.372 -0.752,1.145 -0.381,1.727c0.372,0.581 1.145,0.752 1.727,0.381l7.05,-4.5c0.581,-0.372 0.752,-1.145 0.381,-1.727c-0.372,-0.581 -1.145,-0.752 -1.727,-0.381Zm98.55,-4.5l-7.05,4.5c-0.581,0.372 -0.752,1.145 -0.381,1.727c0.372,0.581 1.145,0.752 1.727,0.381l7.05,-4.5c0.581,-0.372 0.752,-1.145 0.381,-1.727c-0.372,-0.581 -1.145,-0.752 -1.727,-0.381Zm-352.974,-37.983l-5.95,4c-0.573,0.385 -0.725,1.162 -0.34,1.734c0.385,0.573 1.162,0.725 1.734,0.34l5.95,-4c0.573,-0.385 0.725,-1.162 0.34,-1.734c-0.385,-0.573 -1.162,-0.725 -1.734,-0.34Zm-1.1,-3.5l-5.95,4c-0.573,0.385 -0.725,1.162 -0.34,1.734c0.385,0.573 1.162,0.725 1.734,0.34l5.95,-4c0.573,-0.385 0.725,-1.162 0.34,-1.734c-0.385,-0.573 -1.162,-0.725 -1.734,-0.34Zm278.652,-35.384l-5.45,5c-0.508,0.466 -0.542,1.258 -0.076,1.766c0.466,0.508 1.258,0.542 1.766,0.076l5.45,-5c0.508,-0.466 0.542,-1.258 0.076,-1.766c-0.466,-0.508 -1.258,-0.542 -1.766,-0.076Zm156.905,-5.547l-4.9,4c-0.535,0.436 -0.615,1.224 -0.178,1.758c0.436,0.535 1.224,0.615 1.758,0.178l4.9,-4c0.535,-0.436 0.615,-1.224 0.178,-1.758c-0.436,-0.535 -1.224,-0.615 -1.758,-0.178Zm-223.285,0.416l-5.45,3.5c-0.581,0.373 -0.75,1.147 -0.377,1.727c0.373,0.581 1.147,0.75 1.727,0.377l5.45,-3.5c0.581,-0.373 0.75,-1.147 0.377,-1.727c-0.373,-0.581 -1.147,-0.75 -1.727,-0.377Zm-130.419,-1.952l-5.4,4c-0.554,0.41 -0.671,1.194 -0.26,1.748c0.41,0.554 1.194,0.671 1.748,0.26l5.4,-4c0.554,-0.41 0.671,-1.194 0.26,-1.748c-0.41,-0.554 -1.194,-0.671 -1.748,-0.26Zm-0.606,-4.456l-5.4,4.5c-0.53,0.441 -0.602,1.23 -0.16,1.76c0.441,0.53 1.23,0.602 1.76,0.16l5.4,-4.5c0.53,-0.441 0.602,-1.23 0.16,-1.76c-0.441,-0.53 -1.23,-0.602 -1.76,-0.16Zm257.297,-56.148l-3.1,2.6c-0.529,0.444 -0.598,1.233 -0.155,1.761c0.444,0.529 1.233,0.598 1.761,0.155l3.1,-2.6c0.529,-0.444 0.598,-1.233 0.155,-1.761c-0.444,-0.529 -1.233,-0.598 -1.761,-0.155Zm-339.397,-109.792l-4,3c-0.552,0.414 -0.664,1.198 -0.25,1.75c0.414,0.552 1.198,0.664 1.75,0.25l4,-3c0.552,-0.414 0.664,-1.198 0.25,-1.75c-0.414,-0.552 -1.198,-0.664 -1.75,-0.25Zm393.05,-2.15l-4,3c-0.552,0.414 -0.664,1.198 -0.25,1.75c0.414,0.552 1.198,0.664 1.75,0.25l4,-3c0.552,-0.414 0.664,-1.198 0.25,-1.75c-0.414,-0.552 -1.198,-0.664 -1.75,-0.25Zm-394.55,-0.85l-4,3c-0.552,0.414 -0.664,1.198 -0.25,1.75c0.414,0.552 1.198,0.664 1.75,0.25l4,-3c0.552,-0.414 0.664,-1.198 0.25,-1.75c-0.414,-0.552 -1.198,-0.664 -1.75,-0.25Zm393.05,-2.15l-4,3c-0.552,0.414 -0.664,1.198 -0.25,1.75c0.414,0.552 1.198,0.664 1.75,0.25l4,-3c0.552,-0.414 0.664,-1.198 0.25,-1.75c-0.414,-0.552 -1.198,-0.664 -1.75,-0.25Zm-63.5,-0.4l-4,3c-0.552,0.414 -0.664,1.198 -0.25,1.75c0.414,0.552 1.198,0.664 1.75,0.25l4,-3c0.552,-0.414 0.664,-1.198 0.25,-1.75c-0.414,-0.552 -1.198,-0.664 -1.75,-0.25Zm-1.5,-3l-4,3c-0.552,0.414 -0.664,1.198 -0.25,1.75c0.414,0.552 1.198,0.664 1.75,0.25l4,-3c0.552,-0.414 0.664,-1.198 0.25,-1.75c-0.414,-0.552 -1.198,-0.664 -1.75,-0.25Zm-239.35,-30.5l-4,3c-0.552,0.414 -0.664,1.198 -0.25,1.75c0.414,0.552 1.198,0.664 1.75,0.25l4,-3c0.552,-0.414 0.664,-1.198 0.25,-1.75c-0.414,-0.552 -1.198,-0.664 -1.75,-0.25Zm-1.5,-3l-4,3c-0.552,0.414 -0.664,1.198 -0.25,1.75c0.414,0.552 1.198,0.664 1.75,0.25l4,-3c0.552,-0.414 0.664,-1.198 0.25,-1.75c-0.414,-0.552 -1.198,-0.664 -1.75,-0.25Zm173.833,-3.087l-4.5,3.5c-0.545,0.424 -0.643,1.21 -0.22,1.754c0.424,0.545 1.21,0.643 1.754,0.22l4.5,-3.5c0.545,-0.424 0.643,-1.21 0.22,-1.754c-0.424,-0.545 -1.21,-0.643 -1.754,-0.22Zm-1,-3.5l-4.5,3.5c-0.545,0.424 -0.643,1.21 -0.22,1.754c0.424,0.545 1.21,0.643 1.754,0.22l4.5,-3.5c0.545,-0.424 0.643,-1.21 0.22,-1.754c-0.424,-0.545 -1.21,-0.643 -1.754,-0.22Z" style="fill:#f00;"/><path d="M33.983,9.013l-3.8,2.95c-0.544,0.423 -0.643,1.209 -0.22,1.754c0.423,0.544 1.209,0.643 1.754,0.22l3.8,-2.95c0.544,-0.423 0.643,-1.209 0.22,-1.754c-0.423,-0.544 -1.209,-0.643 -1.754,-0.22Z"/></g></svg>