<?xml version="1.0" encoding="UTF-8" standalone="no"?><!DOCTYPE svg PUBLIC "-//W3C//DTD SVG 1.1//EN" "http://www.w3.org/Graphics/SVG/1.1/DTD/svg11.dtd"><svg width="100%" height="100%" viewBox="0 0 23 42" version="1.1" xmlns="http://www.w3.org/2000/svg" xmlns:xlink="http://www.w3.org/1999/xlink" xml:space="preserve" xmlns:serif="http://www.serif.com/" style="fill-rule:evenodd;clip-rule:evenodd;stroke-linejoin:round;stroke-miterlimit:2;"><g><path d="M16.85,23.65c-1.267,-2.033 -3,-3.433 -5.2,-4.2c-0.2,0.733 -0.283,1.567 -0.25,2.5l-0,3.3c1.3,-0 2.667,0.55 4.1,1.65c1.5,1.167 2.25,2.4 2.25,3.7c0,0.5 -0.833,0.917 -2.5,1.25c-1.267,0.267 -2.35,0.4 -3.25,0.4c-1.2,0 -2.417,-0.35 -3.65,-1.05c-0.167,1.7 -0.25,2.633 -0.25,2.8c0,1.3 0.433,2.117 1.3,2.45c0.433,0.2 1.45,0.3 3.05,0.3c2,0 3.55,-0.6 4.65,-1.8c1,-1.133 1.5,-2.717 1.5,-4.75c0,-2.467 -0.583,-4.65 -1.75,-6.55Z"/><path d="M15.75,8.05c0,-0.333 -0.117,-0.65 -0.35,-0.95c-0.233,-0.333 -0.517,-0.5 -0.85,-0.5c-0.533,-0 -1.033,0.3 -1.5,0.9c-0.467,0.6 -0.7,1.183 -0.7,1.75c0,0.633 0.4,1.2 1.2,1.7c-0.8,0.833 -1.533,1.367 -2.2,1.6c0.067,-0.8 0.1,-1.283 0.1,-1.45c0,-1.333 -0.417,-2 -1.25,-2c-0.467,-0 -0.85,0.233 -1.15,0.7c-0.233,0.367 -0.35,0.8 -0.35,1.3c0,0.267 0.067,0.583 0.2,0.95c0.1,-0.933 0.383,-1.4 0.85,-1.4c0.267,0 0.483,0.1 0.65,0.3c0.167,0.2 0.25,0.433 0.25,0.7c-0,0.367 -0.25,1.133 -0.75,2.3c0.933,-0.167 1.733,-0.467 2.4,-0.9c0.533,-0.333 1.167,-0.9 1.9,-1.7c0.367,0.3 0.917,0.65 1.65,1.05c0.033,-0.667 0.05,-1.05 0.05,-1.15c-0,-0.4 -0.233,-0.783 -0.7,-1.15c0.367,-0.9 0.55,-1.583 0.55,-2.05Zm-1.327,1.431c0.009,0.006 0.018,0.013 0.027,0.019l0.05,-0.75c-0,-0.294 -0.054,-0.52 -0.162,-0.678c-0.008,-0.012 -0.017,-0.023 -0.026,-0.034l-0.562,-0.238l-0.016,0.001c-0.013,0.001 -0.026,0.002 -0.04,0.005c-0.009,0.002 -0.019,0.004 -0.029,0.007l-0.004,0.001c-0.016,0.004 -0.033,0.01 -0.051,0.016c-0.015,0.006 -0.032,0.012 -0.049,0.019c-0.02,0.008 -0.041,0.017 -0.063,0.028l-0.017,0.008l-0.021,0.01c-0.003,0.002 -0.007,0.003 -0.01,0.005l-0.15,0.35c-0,0.055 0.013,0.114 0.039,0.176c0.002,0.006 0.004,0.011 0.006,0.016c0.002,0.004 0.004,0.008 0.006,0.012c0.003,0.007 0.006,0.015 0.01,0.022l0.002,0.004c0.008,0.016 0.017,0.033 0.027,0.049c0.002,0.003 0.003,0.006 0.005,0.009l0.012,0.019c0.006,0.01 0.013,0.02 0.019,0.03l0.007,0.009c0.008,0.011 0.016,0.023 0.024,0.034c0.02,0.027 0.042,0.055 0.066,0.084l0.009,0.011c0.004,0.005 0.008,0.009 0.012,0.014c0.009,0.01 0.017,0.019 0.026,0.029l0.027,0.029l0.007,0.008c0.028,0.03 0.058,0.06 0.089,0.091l0.001,0.001c0.013,0.013 0.027,0.026 0.041,0.039c0.014,0.014 0.029,0.027 0.044,0.04c0.043,0.04 0.089,0.08 0.138,0.121l0.016,0.014c0.043,0.036 0.089,0.072 0.136,0.109c0.024,0.019 0.048,0.037 0.073,0.056l0.038,0.029l0.014,0.01c0.036,0.028 0.073,0.055 0.112,0.083c0.038,0.027 0.077,0.055 0.117,0.083Z" style="fill:#f00;"/></g></svg>