<?xml version="1.0" encoding="UTF-8" standalone="no"?><!DOCTYPE svg PUBLIC "-//W3C//DTD SVG 1.1//EN" "http://www.w3.org/Graphics/SVG/1.1/DTD/svg11.dtd"><svg width="100%" height="100%" viewBox="0 0 53 53" version="1.1" xmlns="http://www.w3.org/2000/svg" xmlns:xlink="http://www.w3.org/1999/xlink" xml:space="preserve" xmlns:serif="http://www.serif.com/" style="fill-rule:evenodd;clip-rule:evenodd;stroke-linejoin:round;stroke-miterlimit:2;"><g><path d="M41.6,38.25l-0.25,-19.8c-2.133,2.2 -3.2,3.517 -3.2,3.95l0.8,24.9c1.767,-1.133 2.65,-4.15 2.65,-9.05Z"/><path d="M25,17.6c-0.8,0 -1.417,0.35 -1.85,1.05c-0.333,0.6 -0.5,1.317 -0.5,2.15c0,1.367 0.6,2.05 1.8,2.05c0.733,0 1.35,-0.283 1.85,-0.85c0.533,-0.567 0.8,-1.217 0.8,-1.95c-0,-0.6 -0.2,-1.133 -0.6,-1.6c-0.4,-0.567 -0.9,-0.85 -1.5,-0.85Zm-0.2,3.55c-1.067,-0 -1.6,-0.317 -1.6,-0.95c0,-0.767 0.333,-1.15 1,-1.15c0.333,0 0.733,0.167 1.2,0.5c0.5,0.333 0.75,0.65 0.75,0.95c0,0.433 -0.45,0.65 -1.35,0.65Z"/><path d="M16.8,39.6c-0,-2.467 -0.633,-4.65 -1.9,-6.55c-1.367,-2.033 -3.267,-3.433 -5.7,-4.2c-0.167,0.733 -0.25,1.567 -0.25,2.5l0.05,3.3c1.4,-0 2.883,0.55 4.45,1.65c1.633,1.167 2.45,2.4 2.45,3.7c0,0.5 -0.917,0.917 -2.75,1.25c-1.367,0.267 -2.533,0.4 -3.5,0.4c-1.333,-0 -2.667,-0.35 -4,-1.05c-0.167,1.7 -0.25,2.633 -0.25,2.8c0,1.3 0.467,2.117 1.4,2.45c0.467,0.2 1.567,0.3 3.3,0.3c2.2,-0 3.883,-0.6 5.05,-1.8c1.1,-1.133 1.65,-2.717 1.65,-4.75Z" style="fill:#f00;"/><path d="M25.3,31.35l0.05,3.3c1.4,-0 2.883,0.55 4.45,1.65c1.633,1.167 2.45,2.4 2.45,3.7c0,0.5 -0.917,0.917 -2.75,1.25c-1.367,0.267 -2.533,0.4 -3.5,0.4c-1.333,-0 -2.667,-0.35 -4,-1.05c-0.167,1.7 -0.25,2.633 -0.25,2.8c0,1.3 0.467,2.117 1.4,2.45c0.467,0.2 1.567,0.3 3.3,0.3c2.2,-0 3.883,-0.6 5.05,-1.8c1.1,-1.133 1.65,-2.717 1.65,-4.75c0,-2.467 -0.633,-4.65 -1.9,-6.55c-1.367,-2.033 -3.267,-3.433 -5.7,-4.2c-0.167,0.733 -0.25,1.567 -0.25,2.5Z" style="fill:#f00;"/><path d="M9.153,144.013l-5.95,4c-0.573,0.385 -0.725,1.162 -0.34,1.734c0.385,0.573 1.162,0.725 1.734,0.34l5.95,-4c0.573,-0.385 0.725,-1.162 0.34,-1.734c-0.385,-0.573 -1.162,-0.725 -1.734,-0.34Zm-1.1,-3.5l-5.95,4c-0.573,0.385 -0.725,1.162 -0.34,1.734c0.385,0.573 1.162,0.725 1.734,0.34l5.95,-4c0.573,-0.385 0.725,-1.162 0.34,-1.734c-0.385,-0.573 -1.162,-0.725 -1.734,-0.34Zm-70.606,-0.029l-4.9,3c-0.588,0.36 -0.773,1.13 -0.413,1.719c0.36,0.588 1.13,0.773 1.719,0.413l4.9,-3c0.588,-0.36 0.773,-1.13 0.413,-1.719c-0.36,-0.588 -1.13,-0.773 -1.719,-0.413Zm-278.318,-0.57l-6.55,3c-0.627,0.287 -0.903,1.029 -0.615,1.657c0.287,0.627 1.029,0.903 1.657,0.615l6.55,-3c0.627,-0.287 0.903,-1.029 0.615,-1.657c-0.287,-0.627 -1.029,-0.903 -1.657,-0.615Zm-141.654,-2.416l-5.45,3.5c-0.581,0.373 -0.75,1.147 -0.377,1.727c0.373,0.581 1.147,0.75 1.727,0.377l5.45,-3.5c0.581,-0.373 0.75,-1.147 0.377,-1.727c-0.373,-0.581 -1.147,-0.75 -1.727,-0.377Zm243.552,-38.502l-7.05,4.5c-0.581,0.372 -0.752,1.145 -0.381,1.727c0.372,0.581 1.145,0.752 1.727,0.381l7.05,-4.5c0.581,-0.372 0.752,-1.145 0.381,-1.727c-0.372,-0.581 -1.145,-0.752 -1.727,-0.381Zm98.55,-4.5l-7.05,4.5c-0.581,0.372 -0.752,1.145 -0.381,1.727c0.372,0.581 1.145,0.752 1.727,0.381l7.05,-4.5c0.581,-0.372 0.752,-1.145 0.381,-1.727c-0.372,-0.581 -1.145,-0.752 -1.727,-0.381Zm-352.974,-37.983l-5.95,4c-0.573,0.385 -0.725,1.162 -0.34,1.734c0.385,0.573 1.162,0.725 1.734,0.34l5.95,-4c0.573,-0.385 0.725,-1.162 0.34,-1.734c-0.385,-0.573 -1.162,-0.725 -1.734,-0.34Zm-1.1,-3.5l-5.95,4c-0.573,0.385 -0.725,1.162 -0.34,1.734c0.385,0.573 1.162,0.725 1.734,0.34l5.95,-4c0.573,-0.385 0.725,-1.162 0.34,-1.734c-0.385,-0.573 -1.162,-0.725 -1.734,-0.34Zm278.652,-35.384l-5.45,5c-0.508,0.466 -0.542,1.258 -0.076,1.766c0.466,0.508 1.258,0.542 1.766,0.076l5.45,-5c0.508,-0.466 0.542,-1.258 0.076,-1.766c-0.466,-0.508 -1.258,-0.542 -1.766,-0.076Zm156.905,-5.547l-4.9,4c-0.535,0.436 -0.615,1.224 -0.178,1.758c0.436,0.535 1.224,0.615 1.758,0.178l4.9,-4c0.535,-0.436 0.615,-1.224 0.178,-1.758c-0.436,-0.535 -1.224,-0.615 -1.758,-0.178Zm-223.285,0.416l-5.45,3.5c-0.581,0.373 -0.75,1.147 -0.377,1.727c0.373,0.581 1.147,0.75 1.727,0.377l5.45,-3.5c0.581,-0.373 0.75,-1.147 0.377,-1.727c-0.373,-0.581 -1.147,-0.75 -1.727,-0.377Zm-130.419,-1.952l-5.4,4c-0.554,0.41 -0.671,1.194 -0.26,1.748c0.41,0.554 1.194,0.671 1.748,0.26l5.4,-4c0.554,-0.41 0.671,-1.194 0.26,-1.748c-0.41,-0.554 -1.194,-0.671 -1.748,-0.26Zm-0.606,-4.456l-5.4,4.5c-0.53,0.441 -0.602,1.23 -0.16,1.76c0.441,0.53 1.23,0.602 1.76,0.16l5.4,-4.5c0.53,-0.441 0.602,-1.23 0.16,-1.76c-0.441,-0.53 -1.23,-0.602 -1.76,-0.16Zm257.297,-56.148l-3.1,2.6c-0.529,0.444 -0.598,1.233 -0.155,1.761c0.444,0.529 1.233,0.598 1.761,0.155l3.1,-2.6c0.529,-0.444 0.598,-1.233 0.155,-1.761c-0.444,-0.529 -1.233,-0.598 -1.761,-0.155Zm-339.397,-109.792l-4,3c-0.552,0.414 -0.664,1.198 -0.25,1.75c0.414,0.552 1.198,0.664 1.75,0.25l4,-3c0.552,-0.414 0.664,-1.198 0.25,-1.75c-0.414,-0.552 -1.198,-0.664 -1.75,-0.25Zm393.05,-2.15l-4,3c-0.552,0.414 -0.664,1.198 -0.25,1.75c0.414,0.552 1.198,0.664 1.75,0.25l4,-3c0.552,-0.414 0.664,-1.198 0.25,-1.75c-0.414,-0.552 -1.198,-0.664 -1.75,-0.25Zm-394.55,-0.85l-4,3c-0.552,0.414 -0.664,1.198 -0.25,1.75c0.414,0.552 1.198,0.664 1.75,0.25l4,-3c0.552,-0.414 0.664,-1.198 0.25,-1.75c-0.414,-0.552 -1.198,-0.664 -1.75,-0.25Zm393.05,-2.15l-4,3c-0.552,0.414 -0.664,1.198 -0.25,1.75c0.414,0.552 1.198,0.664 1.75,0.25l4,-3c0.552,-0.414 0.664,-1.198 0.25,-1.75c-0.414,-0.552 -1.198,-0.664 -1.75,-0.25Zm-63.5,-0.4l-4,3c-0.552,0.414 -0.664,1.198 -0.25,1.75c0.414,0.552 1.198,0.664 1.75,0.25l4,-3c0.552,-0.414 0.664,-1.198 0.25,-1.75c-0.414,-0.552 -1.198,-0.664 -1.75,-0.25Zm-1.5,-3l-4,3c-0.552,0.414 -0.664,1.198 -0.25,1.75c0.414,0.552 1.198,0.664 1.75,0.25l4,-3c0.552,-0.414 0.664,-1.198 0.25,-1.75c-0.414,-0.552 -1.198,-0.664 -1.75,-0.25Zm-239.35,-30.5l-4,3c-0.552,0.414 -0.664,1.198 -0.25,1.75c0.414,0.552 1.198,0.664 1.75,0.25l4,-3c0.552,-0.414 0.664,-1.198 0.25,-1.75c-0.414,-0.552 -1.198,-0.664 -1.75,-0.25Zm-1.5,-3l-4,3c-0.552,0.414 -0.664,1.198 -0.25,1.75c0.414,0.552 1.198,0.664 1.75,0.25l4,-3c0.552,-0.414 0.664,-1.198 0.25,-1.75c-0.414,-0.552 -1.198,-0.664 -1.75,-0.25Zm173.833,-3.087l-4.5,3.5c-0.545,0.424 -0.643,1.21 -0.22,1.754c0.424,0.545 1.21,0.643 1.754,0.22l4.5,-3.5c0.545,-0.424 0.643,-1.21 0.22,-1.754c-0.424,-0.545 -1.21,-0.643 -1.754,-0.22Zm-1,-3.5l-4.5,3.5c-0.545,0.424 -0.643,1.21 -0.22,1.754c0.424,0.545 1.21,0.643 1.754,0.22l4.5,-3.5c0.545,-0.424 0.643,-1.21 0.22,-1.754c-0.424,-0.545 -1.21,-0.643 -1.754,-0.22Z" style="fill:#f00;"/><path d="M10.455,17.086l-4.85,4c-0.533,0.439 -0.608,1.227 -0.169,1.759c0.439,0.533 1.227,0.608 1.759,0.169l4.85,-4c0.533,-0.439 0.608,-1.227 0.169,-1.759c-0.439,-0.533 -1.227,-0.608 -1.759,-0.169Z"/><path d="M41.307,10.175l-4.9,5c-0.483,0.493 -0.475,1.285 0.018,1.768c0.493,0.483 1.285,0.475 1.768,-0.018l4.9,-5c0.483,-0.493 0.475,-1.285 -0.018,-1.768c-0.493,-0.483 -1.285,-0.475 -1.768,0.018Z"/></g></svg>