<?xml version="1.0" encoding="UTF-8" standalone="no"?><!DOCTYPE svg PUBLIC "-//W3C//DTD SVG 1.1//EN" "http://www.w3.org/Graphics/SVG/1.1/DTD/svg11.dtd"><svg width="100%" height="100%" viewBox="0 0 28 40" version="1.1" xmlns="http://www.w3.org/2000/svg" xmlns:xlink="http://www.w3.org/1999/xlink" xml:space="preserve" xmlns:serif="http://www.serif.com/" style="fill-rule:evenodd;clip-rule:evenodd;stroke-linejoin:round;stroke-miterlimit:2;"><g><path d="M18.65,24.05c1.533,-2.667 2.3,-5.367 2.3,-8.1c0,-1.333 -0.283,-2.483 -0.85,-3.45c-0.367,-0.733 -1.133,-1.667 -2.3,-2.8l-1,3.9c0.567,0.633 1.15,1.283 1.75,1.95c0.767,0.967 1.15,1.683 1.15,2.15c0,2.5 -1.817,4.65 -5.45,6.45c-3.067,1.5 -6,2.25 -8.8,2.25c2.233,1.5 4.467,2.25 6.7,2.25c2.533,-0 4.7,-1.533 6.5,-4.6Z"/><path d="M15.312,32.18l-6.25,2.5c-0.397,0.159 -0.59,0.611 -0.432,1.008c0.159,0.397 0.611,0.59 1.008,0.432l6.25,-2.5c0.397,-0.159 0.59,-0.611 0.432,-1.008c-0.159,-0.397 -0.611,-0.59 -1.008,-0.432Z" style="fill:#f00;"/><path d="M15.029,29.944l-5.5,2.5c-0.389,0.177 -0.562,0.637 -0.385,1.027c0.177,0.389 0.637,0.562 1.027,0.385l5.5,-2.5c0.389,-0.177 0.562,-0.637 0.385,-1.027c-0.177,-0.389 -0.637,-0.562 -1.027,-0.385Z" style="fill:#f00;"/></g></svg>