<?xml version="1.0" encoding="UTF-8" standalone="no"?><!DOCTYPE svg PUBLIC "-//W3C//DTD SVG 1.1//EN" "http://www.w3.org/Graphics/SVG/1.1/DTD/svg11.dtd"><svg width="100%" height="100%" viewBox="0 0 24 21" version="1.1" xmlns="http://www.w3.org/2000/svg" xmlns:xlink="http://www.w3.org/1999/xlink" xml:space="preserve" xmlns:serif="http://www.serif.com/" style="fill-rule:evenodd;clip-rule:evenodd;stroke-linejoin:round;stroke-miterlimit:2;"><g><rect x="0.55" y="15.05" width="21.85" height="2.2"/><path d="M13.9,1.7c-0.5,0.8 -0.75,1.567 -0.75,2.3c-0,0.867 0.433,1.617 1.3,2.25c-0.833,1.1 -1.617,1.8 -2.35,2.1c0.067,-1.033 0.1,-1.65 0.1,-1.85c-0,-1.8 -0.433,-2.7 -1.3,-2.7c-0.5,0 -0.9,0.3 -1.2,0.9c-0.267,0.5 -0.4,1.083 -0.4,1.75c0,0.333 0.067,0.733 0.2,1.2c0.133,-1.2 0.45,-1.8 0.95,-1.8c0.267,0 0.483,0.133 0.65,0.4c0.167,0.3 0.25,0.6 0.25,0.9c0,0.533 -0.267,1.567 -0.8,3.1c1.033,-0.267 1.883,-0.667 2.55,-1.2c0.567,-0.433 1.25,-1.183 2.05,-2.25c0.367,0.367 0.933,0.833 1.7,1.4c0.033,-0.933 0.05,-1.433 0.05,-1.5c-0,-0.6 -0.25,-1.133 -0.75,-1.6c0.4,-1.2 0.6,-2.1 0.6,-2.7c0,-0.433 -0.117,-0.867 -0.35,-1.3c-0.267,-0.4 -0.567,-0.6 -0.9,-0.6c-0.6,-0 -1.133,0.4 -1.6,1.2Zm0.45,0.55c0.133,-0.1 0.233,-0.15 0.3,-0.15c0.533,0 0.8,0.417 0.8,1.25l-0.1,0.95c-0.8,-0.7 -1.2,-1.25 -1.2,-1.65l0.2,-0.4Z" style="fill:#f00;"/></g></svg>