<?xml version="1.0" encoding="UTF-8" standalone="no"?><!DOCTYPE svg PUBLIC "-//W3C//DTD SVG 1.1//EN" "http://www.w3.org/Graphics/SVG/1.1/DTD/svg11.dtd"><svg width="100%" height="100%" viewBox="0 0 55 73" version="1.1" xmlns="http://www.w3.org/2000/svg" xmlns:xlink="http://www.w3.org/1999/xlink" xml:space="preserve" xmlns:serif="http://www.serif.com/" style="fill-rule:evenodd;clip-rule:evenodd;stroke-linejoin:round;stroke-miterlimit:2;"><g><path d="M23.6,60.1l2.3,2.55l2.35,-2.6l-2.35,-2.5l-2.3,2.55Z"/><path d="M21.25,62.65l2.35,-2.55l-2.35,-2.55l-2.3,2.5l2.3,2.6Z"/><path d="M36.7,22.85c-1.633,2.333 -2.433,3.733 -2.4,4.2l0.6,26.55c1.3,-1.2 1.95,-4.417 1.95,-9.65l-0.15,-21.1Z"/><path d="M24.05,44.1c0.667,1.4 1.083,2.417 1.25,3.05c-0.643,0.919 -2.427,1.386 -5.35,1.4l-2.05,0l-0,5l1.35,0c0.249,-0.004 0.483,-0.021 0.7,-0.05c2.202,-0.095 3.819,-0.628 4.85,-1.6c1.267,-1.2 1.9,-3.267 1.9,-6.2c0,-0.833 -0.317,-2.683 -0.95,-5.55c-0.7,1.767 -1.267,3.083 -1.7,3.95Z"/><path d="M38.4,22.85c0.9,-0.467 1.35,-1.117 1.35,-1.95c0,-0.6 -0.2,-1.517 -0.6,-2.75c-0.367,-1.2 -0.55,-2.1 -0.55,-2.7c-0.8,0.567 -1.2,1.083 -1.2,1.55c0,0.567 0.2,1.383 0.6,2.45c0.367,1.1 0.55,1.917 0.55,2.45c-0,0.367 -0.05,0.683 -0.15,0.95Z"/><path d="M10.75,16.25c-0.3,-0.367 -0.633,-0.55 -1,-0.55c-0.667,-0 -1.267,0.35 -1.8,1.05c-0.533,0.733 -0.8,1.433 -0.8,2.1c-0,0.767 0.467,1.45 1.4,2.05c-0.9,1 -1.767,1.633 -2.6,1.9c0.067,-0.933 0.1,-1.5 0.1,-1.7c-0,-1.6 -0.483,-2.4 -1.45,-2.4c-0.533,-0 -0.967,0.267 -1.3,0.8c-0.3,0.467 -0.45,0.983 -0.45,1.55c0,0.333 0.067,0.717 0.2,1.15c0.133,-1.1 0.483,-1.65 1.05,-1.65c0.3,0 0.55,0.117 0.75,0.35c0.2,0.267 0.3,0.55 0.3,0.85c-0,0.467 -0.3,1.4 -0.9,2.8c1.133,-0.233 2.083,-0.6 2.85,-1.1c0.6,-0.4 1.35,-1.083 2.25,-2.05c0.433,0.333 1.067,0.75 1.9,1.25c0.033,-0.833 0.05,-1.283 0.05,-1.35c-0,-0.533 -0.267,-1.017 -0.8,-1.45c0.433,-1.067 0.65,-1.883 0.65,-2.45c-0,-0.4 -0.133,-0.783 -0.4,-1.15Zm-1.05,2l-0.1,0.9c-0.9,-0.667 -1.35,-1.183 -1.35,-1.55l0.2,-0.35c0.167,-0.1 0.283,-0.15 0.35,-0.15c0.6,0 0.9,0.383 0.9,1.15Z"/><path d="M19.25,53.55l0.7,0l0,-0.05c-0.217,0.029 -0.451,0.046 -0.7,0.05Z" style="fill:#f00;"/><path d="M6.55,44.55c-1.433,1.633 -2.15,3.567 -2.15,5.8c-0,0.8 0.833,1.2 2.5,1.2c1.533,0 2.633,-0.15 3.3,-0.45c0.867,-0.4 1.733,-1.283 2.6,-2.65c0.367,1.1 0.75,2.183 1.15,3.25c0.567,1.233 1.317,1.85 2.25,1.85l1.7,0l-0,-5l0.6,0c-1.564,-0.035 -2.464,-0.119 -2.7,-0.25c-0.967,-0.467 -1.767,-2.517 -2.4,-6.15c-0.533,-2.833 -0.8,-5.233 -0.8,-7.2c-1,1.4 -1.483,2.3 -1.45,2.7l0.25,3.35c-2.267,1.3 -3.883,2.483 -4.85,3.55Zm5.45,0.8c-0,0.3 -0.4,0.567 -1.2,0.8c-0.667,0.2 -1.2,0.3 -1.6,0.3c-0.467,-0 -1.067,-0.133 -1.8,-0.4c1.533,-1.133 2.933,-2.017 4.2,-2.65c0.267,1.1 0.4,1.75 0.4,1.95Z" style="fill:#f00;"/><path d="M13.2,32.25l2.35,-2.6l-2.35,-2.5l-2.3,2.5l2.3,2.6Z" style="fill:#f00;"/><path d="M8.55,32.25l2.3,-2.6l-2.25,-2.5l-2.35,2.5l2.3,2.6Z" style="fill:#f00;"/><path d="M10.9,29.65l-0.05,-0l0.05,0.05l-0,-0.05Z" style="fill:#f00;"/><path d="M24.734,12.607l-5.1,3.6c-0.677,0.478 -0.838,1.414 -0.361,2.091c0.478,0.676 1.414,0.838 2.091,0.36l5.1,-3.6c0.676,-0.477 0.837,-1.414 0.36,-2.09c-0.477,-0.677 -1.414,-0.838 -2.09,-0.361Z"/></g></svg>