<?xml version="1.0" encoding="UTF-8" standalone="no"?><!DOCTYPE svg PUBLIC "-//W3C//DTD SVG 1.1//EN" "http://www.w3.org/Graphics/SVG/1.1/DTD/svg11.dtd"><svg width="100%" height="100%" viewBox="0 0 24 31" version="1.1" xmlns="http://www.w3.org/2000/svg" xmlns:xlink="http://www.w3.org/1999/xlink" xml:space="preserve" xmlns:serif="http://www.serif.com/" style="fill-rule:evenodd;clip-rule:evenodd;stroke-linejoin:round;stroke-miterlimit:2;"><g><path d="M21.3,17.7l-5.25,-0l0,3.4l5.25,0l0,-3.4Z"/><path d="M12.6,13.45c-0.367,-1.933 -0.55,-3.55 -0.55,-4.85c-0.733,0.933 -1.1,1.533 -1.1,1.8l0.2,2.25c-1.667,0.867 -2.867,1.667 -3.6,2.4c-1.067,1.1 -1.6,2.4 -1.6,3.9c-0,0.533 0.617,0.8 1.85,0.8c1.133,-0 1.95,-0.1 2.45,-0.3c0.633,-0.267 1.283,-0.867 1.95,-1.8c0.267,0.733 0.55,1.467 0.85,2.2c0.433,0.833 0.983,1.25 1.65,1.25l1.35,0l0,-3.4l0.35,-0c-1.119,-0.022 -1.769,-0.072 -1.95,-0.15c-0.733,-0.3 -1.35,-1.667 -1.85,-4.1Zm-3.1,2.9c-0.333,0 -0.783,-0.1 -1.35,-0.3c1.133,-0.767 2.183,-1.367 3.15,-1.8c0.2,0.767 0.3,1.217 0.3,1.35c-0,0.167 -0.3,0.333 -0.9,0.5c-0.5,0.167 -0.9,0.25 -1.2,0.25Z" style="fill:#f00;"/><path d="M3.55,8.65l2,1.45l1.15,-1.7l2,1.45l1.3,-1.9l-2,-1.55l-1.2,1.8l-1.95,-1.55l-1.3,2Z" style="fill:#f00;"/></g></svg>