<?xml version="1.0" encoding="UTF-8" standalone="no"?><!DOCTYPE svg PUBLIC "-//W3C//DTD SVG 1.1//EN" "http://www.w3.org/Graphics/SVG/1.1/DTD/svg11.dtd"><svg width="100%" height="100%" viewBox="0 0 20 31" version="1.1" xmlns="http://www.w3.org/2000/svg" xmlns:xlink="http://www.w3.org/1999/xlink" xml:space="preserve" xmlns:serif="http://www.serif.com/" style="fill-rule:evenodd;clip-rule:evenodd;stroke-linejoin:round;stroke-miterlimit:2;"><g><path d="M10.45,13.1c-0.833,-0.7 -1.433,-1.267 -1.8,-1.7c-0.5,1.2 -0.75,2.117 -0.75,2.75c0,0.1 0.017,0.233 0.05,0.4c0.067,0.2 0.1,0.333 0.1,0.4c-0.9,1.8 -1.35,3.267 -1.35,4.4c-0,1.833 0.75,2.75 2.25,2.75c1.2,0 2.15,-0.55 2.85,-1.65c0.567,-0.933 0.85,-2.05 0.85,-3.35c0,-0.967 -0.217,-1.783 -0.65,-2.45c-0.267,-0.4 -0.783,-0.917 -1.55,-1.55Zm-2.4,4.55c0,-0.8 0.3,-1.5 0.9,-2.1c1.667,1.233 2.5,2 2.5,2.3c-0,0.267 -0.3,0.55 -0.9,0.85c-0.567,0.267 -1,0.4 -1.3,0.4c-0.8,0 -1.2,-0.483 -1.2,-1.45Z" style="fill:#f00;"/><path d="M11.45,8.35l-2,-1.55l-1.1,1.65l-1.8,-1.4l-1.3,2l2,1.45l1.05,-1.6l1.85,1.35l1.3,-1.9Z" style="fill:#f00;"/></g></svg>