<?xml version="1.0" encoding="UTF-8" standalone="no"?><!DOCTYPE svg PUBLIC "-//W3C//DTD SVG 1.1//EN" "http://www.w3.org/Graphics/SVG/1.1/DTD/svg11.dtd"><svg width="100%" height="100%" viewBox="0 0 19 32" version="1.1" xmlns="http://www.w3.org/2000/svg" xmlns:xlink="http://www.w3.org/1999/xlink" xml:space="preserve" xmlns:serif="http://www.serif.com/" style="fill-rule:evenodd;clip-rule:evenodd;stroke-linejoin:round;stroke-miterlimit:2;"><g><path d="M10.7,7.35c-0,-0.7 -0.25,-1.05 -0.75,-1.05c-0.333,0 -0.65,0.25 -0.95,0.75c-0.233,0.433 -0.35,0.867 -0.35,1.3c-0,0.333 0.233,0.7 0.7,1.1c-0.833,0.833 -1.617,1.483 -2.35,1.95c0.267,0.067 0.467,0.1 0.6,0.1c0.633,0 1.367,-0.583 2.2,-1.75c0.367,0.3 0.667,0.517 0.9,0.65l0.1,-1.2c-0.2,-0.167 -0.35,-0.3 -0.45,-0.4c0.233,-0.6 0.35,-1.083 0.35,-1.45Zm-1.5,0.2c0.033,-0.1 0.117,-0.167 0.25,-0.2c0.367,0.067 0.55,0.317 0.55,0.75c-0,0.1 -0.017,0.217 -0.05,0.35c-0.5,-0.3 -0.75,-0.6 -0.75,-0.9Z"/><path d="M11.1,17.05c-0.833,-0.7 -1.433,-1.267 -1.8,-1.7c-0.5,1.2 -0.75,2.117 -0.75,2.75c0,0.1 0.017,0.233 0.05,0.4c0.067,0.2 0.1,0.333 0.1,0.4c-0.9,1.8 -1.35,3.267 -1.35,4.4c0,1.833 0.75,2.75 2.25,2.75c1.2,0 2.15,-0.55 2.85,-1.65c0.567,-0.933 0.85,-2.05 0.85,-3.35c0,-0.967 -0.217,-1.783 -0.65,-2.45c-0.267,-0.4 -0.783,-0.917 -1.55,-1.55Zm0.1,5.6c-0.567,0.267 -1,0.4 -1.3,0.4c-0.8,0 -1.2,-0.483 -1.2,-1.45c-0,-0.8 0.3,-1.5 0.9,-2.1c1.667,1.233 2.5,2 2.5,2.3c0,0.267 -0.3,0.55 -0.9,0.85Z" style="fill:#f00;"/></g></svg>