<?xml version="1.0" encoding="UTF-8" standalone="no"?><!DOCTYPE svg PUBLIC "-//W3C//DTD SVG 1.1//EN" "http://www.w3.org/Graphics/SVG/1.1/DTD/svg11.dtd"><svg width="100%" height="100%" viewBox="0 0 42 27" version="1.1" xmlns="http://www.w3.org/2000/svg" xmlns:xlink="http://www.w3.org/1999/xlink" xml:space="preserve" xmlns:serif="http://www.serif.com/" style="fill-rule:evenodd;clip-rule:evenodd;stroke-linejoin:round;stroke-miterlimit:2;"><g><path d="M31.6,23.25l1.7,1.65l1.7,-1.65l-1.7,-1.65l-1.7,1.65Z"/><path d="M35.85,14.2c0,-0.467 -0.2,-1.517 -0.6,-3.15c-0.433,1 -0.783,1.75 -1.05,2.25c0.4,0.8 0.667,1.383 0.8,1.75c-0.437,0.53 -1.603,0.797 -3.5,0.8l-0.8,0c-0.961,-0.027 -1.561,-0.094 -1.8,-0.2c-0.533,-0.267 -0.8,-1.033 -0.8,-2.3c-0.433,0.367 -0.717,0.8 -0.85,1.3c-0.133,0.467 -0.367,0.767 -0.7,0.9c-0.5,0.2 -1.533,0.3 -3.1,0.3l-0,2.85l1.7,-0c0.567,-0 1.017,-0.2 1.35,-0.6c0.1,-0.133 0.383,-0.583 0.85,-1.35c0.533,0.833 0.817,1.267 0.85,1.3c0.4,0.433 0.85,0.65 1.35,0.65l1.95,-0c1.441,-0.064 2.491,-0.381 3.15,-0.95c0.8,-0.7 1.2,-1.883 1.2,-3.55Z"/><path d="M27.25,7.05l-1.7,1.65l1.7,1.65l1.7,-1.65l-1.7,-1.65Z"/><path d="M21.35,24.35l1.5,-1.5l-1.45,-1.45l-1.5,1.5l1.45,1.45Z" style="fill:#f00;"/><path d="M18.45,24.35l1.45,-1.45l-1.45,-1.5l-1.5,1.45l1.5,1.5Z" style="fill:#f00;"/><path d="M11.475,9.95c0.083,0.683 0.208,1.433 0.375,2.25c0.433,2.067 0.95,3.233 1.55,3.5c0.151,0.076 0.685,0.126 1.6,0.15l1.2,0c0.567,0.033 0.933,0.05 1.1,0.05c0.7,-0 1.2,-0.133 1.5,-0.4c0.233,-0.233 0.683,-0.9 1.35,-2c0.033,0.967 0.25,1.633 0.65,2c0.3,0.3 0.817,0.45 1.55,0.45c0.219,-0 0.586,-0.017 1.1,-0.05l-0,2.8l-1.6,-0c-0.367,-0 -0.833,-0.233 -1.4,-0.7c-0.433,-0.4 -0.783,-0.817 -1.05,-1.25c-0.5,0.833 -0.767,1.283 -0.8,1.35c-0.333,0.4 -0.783,0.6 -1.35,0.6l-3.6,-0c-0.6,-0 -1.083,-0.35 -1.45,-1.05c-0.233,-0.633 -0.467,-1.25 -0.7,-1.85c-0.567,0.767 -1.117,1.267 -1.65,1.5c-0.4,0.167 -1.1,0.25 -2.1,0.25c-1.033,0 -1.55,-0.233 -1.55,-0.7c-0,-1.267 0.45,-2.367 1.35,-3.3c0.6,-0.6 1.617,-1.283 3.05,-2.05l-0.15,-1.9c-0.033,-0.2 0.267,-0.7 0.9,-1.5l0.125,1.85Zm-2.275,4.7c-0.3,-0 -0.683,-0.083 -1.15,-0.25c0.967,-0.633 1.85,-1.133 2.65,-1.5c0.2,0.633 0.3,1 0.3,1.1c-0,0.167 -0.267,0.333 -0.8,0.5c-0.4,0.1 -0.733,0.15 -1,0.15Z" style="fill:#f00;"/><path d="M27.67,22.986l-2.75,2.25c-0.256,0.209 -0.294,0.588 -0.084,0.844c0.209,0.256 0.588,0.294 0.844,0.084l2.75,-2.25c0.256,-0.209 0.294,-0.588 0.084,-0.844c-0.209,-0.256 -0.588,-0.294 -0.844,-0.084Z"/><path d="M9.92,22.236l-2.75,2.25c-0.256,0.209 -0.294,0.588 -0.084,0.844c0.209,0.256 0.588,0.294 0.844,0.084l2.75,-2.25c0.256,-0.209 0.294,-0.588 0.084,-0.844c-0.209,-0.256 -0.588,-0.294 -0.844,-0.084Z"/><path d="M33.92,-0.764l-2.75,2.25c-0.256,0.209 -0.294,0.588 -0.084,0.844c0.209,0.256 0.588,0.294 0.844,0.084l2.75,-2.25c0.256,-0.209 0.294,-0.588 0.084,-0.844c-0.209,-0.256 -0.588,-0.294 -0.844,-0.084Z"/></g></svg>