<?xml version="1.0" encoding="UTF-8" standalone="no"?><!DOCTYPE svg PUBLIC "-//W3C//DTD SVG 1.1//EN" "http://www.w3.org/Graphics/SVG/1.1/DTD/svg11.dtd"><svg width="100%" height="100%" viewBox="0 0 23 28" version="1.1" xmlns="http://www.w3.org/2000/svg" xmlns:xlink="http://www.w3.org/1999/xlink" xml:space="preserve" xmlns:serif="http://www.serif.com/" style="fill-rule:evenodd;clip-rule:evenodd;stroke-linejoin:round;stroke-miterlimit:2;"><g><path d="M18.072,7.764l-0,-0.35c-0.867,0.566 -1.55,1.55 -2.05,2.95c0.066,0.366 0.366,0.85 0.9,1.45c0.333,2.066 0.5,5.2 0.5,9.4c-0,0.8 -0.75,1.183 -2.25,1.15l-1.55,-0l-0,2.85l2.15,-0c1.1,-0 1.883,-0.584 2.35,-1.75c0.366,-0.867 0.55,-1.934 0.55,-3.2l-0,-2.65c-0,-0.467 -0.05,-1.184 -0.15,-2.15c-0.1,-0.967 -0.15,-1.7 -0.15,-2.2c-0,-0.234 0.133,-0.617 0.4,-1.15c0.266,-0.567 0.4,-1.017 0.4,-1.35c-0,-0.134 -0.217,-0.417 -0.65,-0.85c-0.434,-0.467 -0.65,-0.85 -0.65,-1.15c-0,-0.1 0.033,-0.267 0.1,-0.5c0.066,-0.234 0.1,-0.4 0.1,-0.5Z"/><path d="M7.322,11.714c0.2,-0.534 0.3,-0.967 0.3,-1.3c-0,-0.634 -0.234,-0.95 -0.7,-0.95c-0.3,-0 -0.584,0.233 -0.85,0.7c-0.2,0.4 -0.3,0.783 -0.3,1.15c-0,0.3 0.2,0.616 0.6,0.95c-0.734,0.766 -1.434,1.35 -2.1,1.75c0.233,0.066 0.416,0.1 0.55,0.1c0.566,-0 1.233,-0.517 2,-1.55c0.3,0.233 0.566,0.416 0.8,0.55l0.05,-1.05c-0.167,-0.167 -0.284,-0.284 -0.35,-0.35Zm-0.4,-0.3c-0.434,-0.267 -0.65,-0.534 -0.65,-0.8c0.033,-0.1 0.1,-0.167 0.2,-0.2c0.333,0.066 0.5,0.283 0.5,0.65c-0,0.1 -0.017,0.216 -0.05,0.35Z"/><path d="M9.272,16.114l0.15,1.9c-1.434,0.766 -2.45,1.45 -3.05,2.05c-0.9,0.933 -1.35,2.033 -1.35,3.3c-0,0.466 0.516,0.7 1.55,0.7c1,-0 1.7,-0.084 2.1,-0.25c0.533,-0.234 1.083,-0.734 1.65,-1.5c0.233,0.6 0.466,1.216 0.7,1.85c0.366,0.7 0.85,1.05 1.45,1.05l1.15,-0l-0,-2.85l0.3,-0c-0.977,-0.022 -1.544,-0.072 -1.7,-0.15c-0.6,-0.267 -1.117,-1.434 -1.55,-3.5c-0.334,-1.634 -0.5,-3 -0.5,-4.1c-0.634,0.8 -0.934,1.3 -0.9,1.5Zm-0.25,4.9c-0.4,0.1 -0.734,0.15 -1,0.15c-0.3,-0 -0.684,-0.084 -1.15,-0.25c0.966,-0.634 1.85,-1.134 2.65,-1.5c0.2,0.633 0.3,1 0.3,1.1c-0,0.166 -0.267,0.333 -0.8,0.5Z" style="fill:#f00;"/><path d="M17.842,2.449l-2.75,2.25c-0.257,0.21 -0.294,0.588 -0.085,0.845c0.21,0.256 0.588,0.294 0.845,0.084l2.75,-2.25c0.256,-0.21 0.294,-0.588 0.084,-0.844c-0.21,-0.257 -0.588,-0.294 -0.844,-0.085Z"/></g></svg>