<?xml version="1.0" encoding="UTF-8" standalone="no"?><!DOCTYPE svg PUBLIC "-//W3C//DTD SVG 1.1//EN" "http://www.w3.org/Graphics/SVG/1.1/DTD/svg11.dtd"><svg width="100%" height="100%" viewBox="0 0 75 73" version="1.1" xmlns="http://www.w3.org/2000/svg" xmlns:xlink="http://www.w3.org/1999/xlink" xml:space="preserve" xmlns:serif="http://www.serif.com/" style="fill-rule:evenodd;clip-rule:evenodd;stroke-linejoin:round;stroke-miterlimit:2;"><g><path d="M61.2,64.45l2.65,-2.9l-2.65,-2.95l-2.65,2.95l2.65,2.9Z"/><path d="M6.35,46.55c0,2.567 0.95,4.567 2.85,6c1.633,1.233 3.667,1.85 6.1,1.85c4.833,-0 9.7,-1.533 14.6,-4.6c1.167,2.5 2.35,3.75 3.55,3.75l4.4,0c2.167,0 3.867,-1.083 5.1,-3.25c0.733,-1.267 1.5,-3.417 2.3,-6.45c5.667,6.467 8.933,9.7 9.8,9.7l3.4,0l0,-0.05c2.228,-0.087 3.861,-0.621 4.9,-1.6c1.267,-1.2 1.9,-3.267 1.9,-6.2c0,-0.833 -0.317,-2.683 -0.95,-5.55c-0.7,1.767 -1.267,3.083 -1.7,3.95c0.667,1.4 1.083,2.417 1.25,3.05c-0.647,0.924 -2.447,1.391 -5.4,1.4l-0.75,0c-1.209,-0.022 -2.009,-0.088 -2.4,-0.2c-0.067,0 -2.917,-2.15 -8.55,-6.45c-5.9,-4.5 -9.4,-7.1 -10.5,-7.8c1.767,-1.7 4.283,-3.467 7.55,-5.3c2.667,-1.467 5.333,-2.933 8,-4.4c0.4,-1.8 0.683,-3.133 0.85,-4c-1.733,0.6 -4.733,2.2 -9,4.8c-4.733,2.833 -7.333,4.767 -7.8,5.8c-0.4,0.833 -0.6,2.083 -0.6,3.75c0,1.467 0.683,2.867 2.05,4.2c1.233,1.033 2.483,2.067 3.75,3.1c1.333,1.133 2,2.2 2,3.2c-0,2.233 -2.35,3.35 -7.05,3.35c-0.256,0 -0.539,-0.017 -0.85,-0.05c-1.533,0 -2.55,-0.267 -3.05,-0.8c-0.533,-0.533 -0.9,-1.65 -1.1,-3.35c-3.267,3.6 -7.45,5.4 -12.55,5.4c-2.3,0 -4.4,-0.35 -6.3,-1.05c-2.667,-1 -4,-2.517 -4,-4.55c-0,-0.9 0.383,-2.217 1.15,-3.95c-0.867,0.667 -1.583,1.583 -2.15,2.75c-0.533,1.167 -0.8,2.35 -0.8,3.55Z"/><path d="M18.4,33.2l-2.3,2.5l2.3,2.6l2.3,-2.55l-2.3,-2.55Z"/><path d="M25.4,35.7l-2.35,-2.5l-2.35,2.55l2.35,2.55l2.35,-2.6Z"/><path d="M21.05,24.6c0.5,-0.633 0.75,-1.333 0.75,-2.1c-0,-0.667 -0.183,-1.283 -0.55,-1.85c-0.4,-0.6 -0.883,-0.9 -1.45,-0.9c-0.8,0 -1.4,0.4 -1.8,1.2c-0.333,0.633 -0.5,1.417 -0.5,2.35c0,1.5 0.583,2.25 1.75,2.25c0.733,0 1.333,-0.317 1.8,-0.95Zm-2,-3.25c0.3,0 0.667,0.183 1.1,0.55c0.5,0.4 0.75,0.75 0.75,1.05c-0,0.5 -0.433,0.75 -1.3,0.75c-1.033,-0 -1.55,-0.367 -1.55,-1.1c-0,-0.833 0.333,-1.25 1,-1.25Z"/><path d="M40.478,15.561l-5.05,3.6c-0.674,0.481 -0.831,1.418 -0.351,2.092c0.481,0.675 1.418,0.832 2.092,0.351l5.05,-3.6c0.674,-0.48 0.832,-1.418 0.351,-2.092c-0.481,-0.674 -1.418,-0.831 -2.092,-0.351Z"/><path d="M62.834,14.807l-5.1,3.6c-0.677,0.478 -0.838,1.414 -0.361,2.091c0.478,0.676 1.414,0.838 2.091,0.36l5.1,-3.6c0.676,-0.477 0.837,-1.414 0.36,-2.09c-0.477,-0.677 -1.414,-0.838 -2.09,-0.361Z"/></g></svg>