<?xml version="1.0" encoding="UTF-8" standalone="no"?><!DOCTYPE svg PUBLIC "-//W3C//DTD SVG 1.1//EN" "http://www.w3.org/Graphics/SVG/1.1/DTD/svg11.dtd"><svg width="100%" height="100%" viewBox="0 0 64 73" version="1.1" xmlns="http://www.w3.org/2000/svg" xmlns:xlink="http://www.w3.org/1999/xlink" xml:space="preserve" xmlns:serif="http://www.serif.com/" style="fill-rule:evenodd;clip-rule:evenodd;stroke-linejoin:round;stroke-miterlimit:2;"><g><path d="M44.3,63.7l2.65,2.9l2.65,-2.9l-2.65,-2.95l-2.65,2.95Z"/><path d="M15.5,50.6c-0.7,-0.133 -1.45,-0.65 -2.25,-1.55c-0.167,1.267 -0.433,2.367 -0.8,3.3c0.033,0.067 0.4,0.717 1.1,1.95c0.6,1.033 0.9,1.6 0.9,1.7c0,1.167 -1.183,2.683 -3.55,4.55c-2.3,1.767 -4.017,2.65 -5.15,2.65c-0.5,-0 -1.183,-0.1 -2.05,-0.3c-0.7,-0.2 -1.383,-0.4 -2.05,-0.6c0.867,1.133 1.883,2.05 3.05,2.75c1.3,0.833 2.533,1.25 3.7,1.25c1.633,0 3.267,-1.3 4.9,-3.9c1.467,-2.3 2.317,-4.433 2.55,-6.4c0.267,-0.2 0.583,-0.3 0.95,-0.3l0.1,-0l-0,-5c-0.777,-0.022 -1.243,-0.055 -1.4,-0.1Z"/><path d="M50.762,45.838c0.159,0.924 0.238,1.595 0.238,2.012c0,2.933 -0.633,5 -1.9,6.2c-1.031,0.972 -2.648,1.505 -4.85,1.6c-0.217,0.029 -0.451,0.046 -0.7,0.05l-1.35,-0l0,-5l2.05,-0c2.923,-0.014 4.707,-0.481 5.35,-1.4c-0.167,-0.633 -0.583,-1.65 -1.25,-3.05c0.433,-0.867 1,-2.183 1.7,-3.95l0.712,3.538Z"/><path d="M13.85,24.45c-0.667,-0 -1.267,0.35 -1.8,1.05c-0.533,0.733 -0.8,1.433 -0.8,2.1c0,0.767 0.467,1.45 1.4,2.05c-0.9,1 -1.767,1.633 -2.6,1.9c0.067,-0.933 0.1,-1.5 0.1,-1.7c-0,-1.6 -0.483,-2.4 -1.45,-2.4c-0.533,-0 -0.967,0.267 -1.3,0.8c-0.3,0.467 -0.45,0.983 -0.45,1.55c0,0.333 0.067,0.717 0.2,1.15c0.133,-1.1 0.483,-1.65 1.05,-1.65c0.3,0 0.55,0.117 0.75,0.35c0.2,0.267 0.3,0.55 0.3,0.85c0,0.467 -0.3,1.4 -0.9,2.8c1.133,-0.233 2.083,-0.6 2.85,-1.1c0.6,-0.4 1.35,-1.083 2.25,-2.05c0.433,0.333 1.067,0.75 1.9,1.25c0.033,-0.833 0.05,-1.283 0.05,-1.35c-0,-0.533 -0.267,-1.017 -0.8,-1.45c0.433,-1.067 0.65,-1.883 0.65,-2.45c0,-0.4 -0.133,-0.783 -0.4,-1.15c-0.3,-0.367 -0.633,-0.55 -1,-0.55Zm-1.3,1.55c0.167,-0.1 0.283,-0.15 0.35,-0.15c0.6,-0 0.9,0.383 0.9,1.15l-0.1,0.9c-0.9,-0.667 -1.35,-1.183 -1.35,-1.55l0.2,-0.35Z"/><path d="M16.9,50.7l-0,5l4.15,-0c0.7,-0 1.6,-0.583 2.7,-1.75c0.733,0.367 1.483,0.75 2.25,1.15c0.9,0.4 1.683,0.6 2.35,0.6c1.333,-0 2.7,-0.517 4.1,-1.55c0.533,0.333 1.083,0.65 1.65,0.95c0.7,0.4 1.283,0.6 1.75,0.6c0.833,-0 1.667,-0.517 2.5,-1.55c1.067,1.033 1.767,1.55 2.1,1.55l1.75,-0l0,-5l0.3,-0c-1.767,-0.057 -2.65,-0.607 -2.65,-1.65c0,-0.1 0.05,-0.3 0.15,-0.6c0.1,-0.333 0.15,-0.567 0.15,-0.7c-0,-0.467 -0.1,-0.983 -0.3,-1.55c-0.467,1 -0.917,2 -1.35,3c-0.667,1.067 -1.45,1.6 -2.35,1.6c-1.133,0 -1.9,-0.35 -2.3,-1.05c0.267,-1.233 0.4,-2.417 0.4,-3.55c-0.667,1.133 -1.333,2.25 -2,3.35c-0.7,0.833 -1.833,1.25 -3.4,1.25c-1.367,-0 -2.35,-0.233 -2.95,-0.7c-0.7,-0.567 -1.05,-1.583 -1.05,-3.05c-1.1,1.6 -2,2.617 -2.7,3.05c-0.633,0.4 -1.567,0.6 -2.8,0.6l-2.45,-0Z" style="fill:#f00;"/><path d="M43.55,55.7l0.7,-0l-0,-0.05c-0.217,0.029 -0.451,0.046 -0.7,0.05Z" style="fill:#f00;"/><path d="M35.05,34.7l-2.3,2.55l2.3,2.55l2.35,-2.6l-2.35,-2.5Z" style="fill:#f00;"/><path d="M30.4,34.7l-2.3,2.5l2.35,2.6l2.3,-2.55l-2.35,-2.55Z" style="fill:#f00;"/><path d="M35.2,31.85l-2.3,-2.55l-2.35,2.55l2.3,2.65l2.35,-2.65Z" style="fill:#f00;"/><path d="M48.126,14.513l-5.1,3.65c-0.674,0.482 -0.829,1.419 -0.347,2.093c0.482,0.673 1.419,0.828 2.093,0.346l5.1,-3.65c0.673,-0.481 0.828,-1.419 0.346,-2.092c-0.481,-0.674 -1.419,-0.829 -2.092,-0.347Z"/><path d="M33.976,14.113l-5.1,3.65c-0.674,0.482 -0.829,1.419 -0.347,2.093c0.482,0.673 1.419,0.828 2.093,0.346l5.1,-3.65c0.673,-0.481 0.828,-1.419 0.346,-2.092c-0.481,-0.674 -1.419,-0.829 -2.092,-0.347Z"/></g></svg>