<?xml version="1.0" encoding="UTF-8" standalone="no"?><!DOCTYPE svg PUBLIC "-//W3C//DTD SVG 1.1//EN" "http://www.w3.org/Graphics/SVG/1.1/DTD/svg11.dtd"><svg width="100%" height="100%" viewBox="0 0 24 32" version="1.1" xmlns="http://www.w3.org/2000/svg" xmlns:xlink="http://www.w3.org/1999/xlink" xml:space="preserve" xmlns:serif="http://www.serif.com/" style="fill-rule:evenodd;clip-rule:evenodd;stroke-linejoin:round;stroke-miterlimit:2;"><g><path d="M13.85,11.3c-0.233,-0.367 -0.683,-0.817 -1.35,-1.35c-0.667,-0.567 -1.233,-1.067 -1.7,-1.5c-0.533,1.133 -0.8,1.983 -0.8,2.55c0,0.1 0.033,0.217 0.1,0.35l0.05,0.25c-0.733,1.5 -1.1,2.733 -1.1,3.7c-0,1.667 0.683,2.5 2.05,2.5c1.1,-0 1.95,-0.5 2.55,-1.5c0.533,-0.8 0.8,-1.767 0.8,-2.9c0,-0.833 -0.2,-1.533 -0.6,-2.1Zm-0.85,2.75c-0,0.133 -0.217,0.3 -0.65,0.5c-0.433,0.233 -0.767,0.35 -1,0.35c-0.5,0 -0.75,-0.35 -0.75,-1.05c0,-0.567 0.183,-1.067 0.55,-1.5c1.233,0.967 1.85,1.533 1.85,1.7Z" style="fill:#f00;"/></g></svg>