<?xml version="1.0" encoding="UTF-8" standalone="no"?><!DOCTYPE svg PUBLIC "-//W3C//DTD SVG 1.1//EN" "http://www.w3.org/Graphics/SVG/1.1/DTD/svg11.dtd"><svg width="100%" height="100%" viewBox="0 0 29 32" version="1.1" xmlns="http://www.w3.org/2000/svg" xmlns:xlink="http://www.w3.org/1999/xlink" xml:space="preserve" xmlns:serif="http://www.serif.com/" style="fill-rule:evenodd;clip-rule:evenodd;stroke-linejoin:round;stroke-miterlimit:2;"><g><path d="M13.85,18.15c0,-0.1 0.033,-0.2 0.1,-0.3c0.067,-0.1 0.117,-0.15 0.15,-0.15c2.067,0 3.35,0.033 3.85,0.1c0.367,0.067 0.65,0.067 0.85,-0c0.867,-1.9 1.3,-2.883 1.3,-2.95c0,-0.467 -0.533,-1.05 -1.6,-1.75c-1.033,-0.7 -1.8,-1.05 -2.3,-1.05c-0.7,-0 -1.3,0.35 -1.8,1.05c-0.433,0.5 -0.75,1.217 -0.95,2.15c0.7,-0.267 1.2,-0.4 1.5,-0.4c0.467,-0 0.917,0.217 1.35,0.65c-1.267,0.2 -2.233,0.533 -2.9,1c-0.9,0.533 -1.35,1.4 -1.35,2.6c-0,0.167 0.017,0.333 0.05,0.5l0.9,9.85c0.6,-0.633 0.9,-1.417 0.9,-2.35l-0.05,-8.95Z" style="fill:#f00;"/></g></svg>