<?xml version="1.0" encoding="UTF-8" standalone="no"?><!DOCTYPE svg PUBLIC "-//W3C//DTD SVG 1.1//EN" "http://www.w3.org/Graphics/SVG/1.1/DTD/svg11.dtd"><svg width="100%" height="100%" viewBox="0 0 68 78" version="1.1" xmlns="http://www.w3.org/2000/svg" xmlns:xlink="http://www.w3.org/1999/xlink" xml:space="preserve" xmlns:serif="http://www.serif.com/" style="fill-rule:evenodd;clip-rule:evenodd;stroke-linejoin:round;stroke-miterlimit:2;"><g><path d="M38.55,61.9l-2.65,2.95l2.65,2.9l2.65,-2.9l-2.65,-2.95Z"/><path d="M32.9,64.15l-2.4,-2.55l-2.3,2.55l-2.35,-2.55l-2.35,2.5l2.35,2.65l2.3,-2.6l2.35,2.6l2.4,-2.6Z"/><path d="M51.05,47.25l-0.15,-21.1c-1.633,2.333 -2.433,3.733 -2.4,4.2l0.6,26.55c1.3,-1.2 1.95,-4.417 1.95,-9.65Z"/><path d="M29.55,51.25c-0.567,-0.633 -0.883,-1.817 -0.95,-3.55c-1.067,1.967 -1.8,3.133 -2.2,3.5c-0.467,0.5 -1.25,0.75 -2.35,0.75c-0.267,0 -0.833,-0.017 -1.7,-0.05c-0.118,-0.004 -0.235,-0.004 -0.35,-0c-0.763,-0.033 -1.463,-0.05 -2.1,-0.05l-0,5l4.05,0c0.9,0 1.617,-0.35 2.15,-1.05c0.1,-0.133 0.533,-0.933 1.3,-2.4c0.4,0.767 0.967,1.5 1.7,2.2c0.833,0.833 1.567,1.25 2.2,1.25l4.8,0l0,-0.05c2.075,-0.132 3.608,-0.665 4.6,-1.6c1.267,-1.2 1.9,-3.267 1.9,-6.2c0,-0.833 -0.317,-2.683 -0.95,-5.55c-0.7,1.767 -1.267,3.083 -1.7,3.95c0.667,1.4 1.083,2.417 1.25,3.05c-0.625,0.893 -2.325,1.36 -5.1,1.4l-2.3,0l-0,0.1c-0.845,0.033 -1.411,0.05 -1.7,0.05c-1.2,-0 -2.05,-0.25 -2.55,-0.75Z"/><path d="M8.6,47.85c-1.433,1.633 -2.15,3.567 -2.15,5.8c0,0.8 0.833,1.2 2.5,1.2c1.533,0 2.633,-0.15 3.3,-0.45c0.867,-0.4 1.733,-1.283 2.6,-2.65c0.367,1.1 0.75,2.183 1.15,3.25c0.567,1.233 1.317,1.85 2.25,1.85l1.65,0l-0,-5c0.637,0 1.337,0.017 2.1,0.05l0,-0.05c-2.467,0 -3.85,-0.083 -4.15,-0.25c-0.967,-0.467 -1.767,-2.517 -2.4,-6.15c-0.533,-2.833 -0.8,-5.233 -0.8,-7.2c-1,1.4 -1.483,2.3 -1.45,2.7l0.25,3.35c-2.267,1.3 -3.883,2.483 -4.85,3.55Zm5.45,0.8c-0,0.3 -0.4,0.567 -1.2,0.8c-0.667,0.2 -1.2,0.3 -1.6,0.3c-0.467,0 -1.067,-0.133 -1.8,-0.4c1.533,-1.133 2.933,-2.017 4.2,-2.65c0.267,1.1 0.4,1.75 0.4,1.95Z" style="fill:#f00;"/><path d="M41.276,68.813l-5.1,3.65c-0.674,0.482 -0.829,1.419 -0.347,2.093c0.482,0.673 1.419,0.828 2.093,0.346l5.1,-3.65c0.673,-0.481 0.828,-1.419 0.346,-2.092c-0.481,-0.674 -1.419,-0.829 -2.092,-0.347Z"/><path d="M13.578,59.411l-5.05,3.6c-0.674,0.481 -0.831,1.418 -0.351,2.092c0.481,0.675 1.418,0.832 2.092,0.351l5.05,-3.6c0.674,-0.48 0.832,-1.418 0.351,-2.092c-0.481,-0.674 -1.418,-0.831 -2.092,-0.351Z"/><path d="M51.884,13.957l-5.1,3.6c-0.677,0.478 -0.838,1.414 -0.361,2.091c0.478,0.676 1.414,0.838 2.091,0.36l5.1,-3.6c0.676,-0.477 0.837,-1.414 0.36,-2.09c-0.477,-0.677 -1.414,-0.838 -2.09,-0.361Z"/></g></svg>