<?xml version="1.0" encoding="UTF-8" standalone="no"?><!DOCTYPE svg PUBLIC "-//W3C//DTD SVG 1.1//EN" "http://www.w3.org/Graphics/SVG/1.1/DTD/svg11.dtd"><svg width="100%" height="100%" viewBox="0 0 101 73" version="1.1" xmlns="http://www.w3.org/2000/svg" xmlns:xlink="http://www.w3.org/1999/xlink" xml:space="preserve" xmlns:serif="http://www.serif.com/" style="fill-rule:evenodd;clip-rule:evenodd;stroke-linejoin:round;stroke-miterlimit:2;"><g><path d="M28.45,31.4c-0.733,2.767 -1.083,4.233 -1.05,4.4l1.6,9.55c-0.633,0.9 -1.7,1.65 -3.2,2.25c-1.333,0.5 -2.583,0.75 -3.75,0.75c-1.2,0 -2.333,-0.583 -3.4,-1.75l0,5.1c0,1 1.017,1.5 3.05,1.5c2.2,-0 3.783,-0.4 4.75,-1.2c0.467,-0.4 1.467,-1.833 3,-4.3c0.3,1.067 0.6,2.133 0.9,3.2c0.533,1.267 1.217,1.9 2.05,1.9l2.7,0c2.33,-0.092 4.03,-0.642 5.1,-1.65c1.267,-1.2 1.9,-3.267 1.9,-6.2c-0,-0.833 -0.317,-2.683 -0.95,-5.55c-0.7,1.767 -1.267,3.083 -1.7,3.95c0.667,1.4 1.083,2.417 1.25,3.05c-0.661,0.945 -2.528,1.411 -5.6,1.4l-1.8,0c-0.305,-0.019 -0.538,-0.069 -0.7,-0.15c-0.7,-0.367 -1.567,-2.883 -2.6,-7.55c-0.467,-2.3 -0.983,-5.2 -1.55,-8.7Z"/><path d="M88.85,22.1c-1.633,2.333 -2.433,3.733 -2.4,4.2l0.6,26.55c1.3,-1.2 1.95,-4.417 1.95,-9.65l-0.15,-21.1Z"/><path d="M79,22.2l-0.05,-0.55c-1.367,1 -2.433,2.717 -3.2,5.15c0.133,0.667 0.6,1.517 1.4,2.55c0.533,3.633 0.8,9.117 0.8,16.45c0,1.433 -1.2,2.117 -3.6,2.05l-0.9,-0.05l0,-0.15c-2.167,-0 -3.8,-0.483 -4.9,-1.45c-0.4,-0.333 -1.033,-1.233 -1.9,-2.7c-0.567,-0.967 -1.3,-1.45 -2.2,-1.45c-0.733,0 -1.7,0.833 -2.9,2.5c-1.3,1.733 -2.3,2.7 -3,2.9c-0.533,0.133 -1.767,0.2 -3.7,0.2l-0,0.05c-1.953,-0.206 -3.27,-0.806 -3.95,-1.8c-0.733,-1.067 -1.1,-3.333 -1.1,-6.8l-0,-16.15c-0.467,0.5 -0.917,1 -1.35,1.5c-0.333,0.5 -0.5,1.167 -0.5,2c0,6.733 0.033,11.05 0.1,12.95c0.233,6.533 0.817,10.467 1.75,11.8c0.767,1.067 1.833,1.6 3.2,1.6l3.6,0l-0,-0.15l2.05,-0c0.4,-0 0.783,-0.233 1.15,-0.7c0.3,-0.433 0.583,-0.85 0.85,-1.25c1.9,2.067 3.7,3.1 5.4,3.1c0.7,0 1.167,-0.25 1.4,-0.75c0.367,-0.733 0.633,-1.167 0.8,-1.3c0.933,0.6 1.6,0.9 2,0.9l1.7,-0l0,0.15l3.4,0c1.733,0 2.983,-1.033 3.75,-3.1c0.567,-1.467 0.85,-3.317 0.85,-5.55l0,-4.6c0,-0.867 -0.067,-2.133 -0.2,-3.8c-0.167,-1.7 -0.25,-2.983 -0.25,-3.85c0,-0.4 0.217,-1.083 0.65,-2.05c0.4,-0.967 0.6,-1.767 0.6,-2.4c0,-0.233 -0.35,-0.717 -1.05,-1.45c-0.667,-0.767 -1,-1.433 -1,-2c0,-0.2 0.05,-0.483 0.15,-0.85c0.1,-0.4 0.15,-0.717 0.15,-0.95Zm-14.75,22.1c0.467,0.6 0.833,1.35 1.1,2.25c0.333,1.2 0.5,1.833 0.5,1.9l-0,0.9c-0.633,-0.267 -1.3,-0.65 -2,-1.15c-0.933,-0.667 -1.4,-1.2 -1.4,-1.6c0,-0.267 0.6,-1.033 1.8,-2.3Z"/><path d="M40.85,26.55c-0.567,0 -1.417,0.5 -2.55,1.5c-1.167,1.033 -1.75,1.85 -1.75,2.45c-0,0.2 0.133,0.55 0.4,1.05c0.267,0.5 0.4,0.883 0.4,1.15c-0,0.133 -0.033,0.367 -0.1,0.7c-0.1,0.3 -0.15,0.533 -0.15,0.7c-0,0.167 0.017,0.383 0.05,0.65c1.567,-1.4 2.933,-2.1 4.1,-2.1c0.967,-0 1.483,-0.033 1.55,-0.1c0.267,-0.467 0.517,-0.933 0.75,-1.4c-0.233,-0 -0.6,0.017 -1.1,0.05l-1.15,-0c-1.3,-0 -2.35,-0.3 -3.15,-0.9c0.4,-1.167 0.967,-1.75 1.7,-1.75c0.167,0 0.417,0.067 0.75,0.2c0.333,0.1 0.583,0.15 0.75,0.15c0.367,-0 0.55,-0.383 0.55,-1.15c0,-0.333 -0.1,-0.617 -0.3,-0.85c-0.233,-0.233 -0.483,-0.35 -0.75,-0.35Z"/><path d="M9.1,22l0.15,-1.75c-0.333,-0.267 -0.583,-0.45 -0.75,-0.55c0.4,-0.867 0.6,-1.55 0.6,-2.05c-0,-1.033 -0.45,-1.55 -1.35,-1.55c-0.6,0 -1.15,0.367 -1.65,1.1c-0.433,0.633 -0.65,1.25 -0.65,1.85c0,0.5 0.417,1.017 1.25,1.55c-1.5,1.233 -2.917,2.167 -4.25,2.8c0.467,0.133 0.85,0.2 1.15,0.2c1.1,0 2.417,-0.85 3.95,-2.55c0.6,0.4 1.117,0.717 1.55,0.95Zm-2.25,-4.4c0.7,0.1 1.05,0.467 1.05,1.1c0,0.133 -0.05,0.3 -0.15,0.5c-0.867,-0.433 -1.3,-0.85 -1.3,-1.25c0.067,-0.2 0.2,-0.317 0.4,-0.35Z"/><path d="M77.4,13.3c-0.8,0 -1.4,0.4 -1.8,1.2c-0.333,0.633 -0.5,1.417 -0.5,2.35c-0,1.5 0.583,2.25 1.75,2.25c0.733,0 1.333,-0.317 1.8,-0.95c0.5,-0.633 0.75,-1.333 0.75,-2.1c0,-0.667 -0.183,-1.283 -0.55,-1.85c-0.4,-0.6 -0.883,-0.9 -1.45,-0.9Zm-0.75,1.6c0.3,-0 0.667,0.183 1.1,0.55c0.5,0.4 0.75,0.75 0.75,1.05c0,0.5 -0.433,0.75 -1.3,0.75c-1.033,0 -1.55,-0.367 -1.55,-1.1c0,-0.833 0.333,-1.25 1,-1.25Z"/><path d="M51,14.15c0.6,0.2 1.367,0.3 2.3,0.3c1.033,-0 2.283,-0.433 3.75,-1.3c1.633,-1 2.45,-2 2.45,-3c-1.667,0.933 -2.567,1.433 -2.7,1.5c-1.067,0.5 -2.033,0.75 -2.9,0.75c-1.7,-0 -3.283,-0.567 -4.75,-1.7c-1.2,2 -2.033,3.767 -2.5,5.3c0.367,-0.267 0.767,-0.717 1.2,-1.35c0.5,-0.733 0.85,-1.217 1.05,-1.45c1.167,0.567 1.867,0.883 2.1,0.95Z"/><path d="M7.65,36.9c-0.667,1.8 -1,3.167 -1,4.1c0,0.167 0.033,0.367 0.1,0.6c0.067,0.267 0.1,0.45 0.1,0.55c-1.2,2.7 -1.8,4.883 -1.8,6.55c-0,2.733 1,4.1 3,4.1c1.633,0 2.917,-0.817 3.85,-2.45c0.767,-1.4 1.15,-3.067 1.15,-5c-0,-1.4 -0.3,-2.6 -0.9,-3.6c-0.367,-0.633 -1.05,-1.4 -2.05,-2.3c-1.133,-1.033 -1.95,-1.883 -2.45,-2.55Zm-0.8,9.25c-0,-1.133 0.4,-2.15 1.2,-3.05c2.267,1.833 3.4,2.967 3.4,3.4c0,0.367 -0.417,0.783 -1.25,1.25c-0.767,0.4 -1.35,0.6 -1.75,0.6c-1.067,0 -1.6,-0.733 -1.6,-2.2Z" style="fill:#f00;"/><path d="M10.25,33.4l2.35,-2.6l-2.35,-2.5l-2.3,2.55l2.3,2.55Z" style="fill:#f00;"/><path d="M5.6,33.4l2.35,-2.55l-2.3,-2.55l-2.4,2.5l2.35,2.6Z" style="fill:#f00;"/><path d="M41.334,51.757l-5.1,3.6c-0.677,0.478 -0.838,1.414 -0.361,2.091c0.478,0.676 1.414,0.838 2.091,0.36l5.1,-3.6c0.676,-0.477 0.837,-1.414 0.36,-2.09c-0.477,-0.677 -1.414,-0.838 -2.09,-0.361Z"/><path d="M27.82,13.567l-5.05,3.65c-0.671,0.485 -0.822,1.423 -0.337,2.094c0.485,0.671 1.423,0.822 2.094,0.337l5.05,-3.65c0.671,-0.485 0.822,-1.423 0.337,-2.094c-0.485,-0.671 -1.423,-0.822 -2.094,-0.337Z"/><path d="M58.076,16.163l-5.1,3.65c-0.674,0.482 -0.829,1.419 -0.347,2.093c0.482,0.673 1.419,0.828 2.093,0.346l5.1,-3.65c0.673,-0.481 0.828,-1.419 0.346,-2.092c-0.481,-0.674 -1.419,-0.829 -2.092,-0.347Z"/><path d="M90.084,9.957l-5.1,3.6c-0.677,0.478 -0.838,1.414 -0.361,2.091c0.478,0.676 1.414,0.838 2.091,0.36l5.1,-3.6c0.676,-0.477 0.837,-1.414 0.36,-2.09c-0.477,-0.677 -1.414,-0.838 -2.09,-0.361Z"/></g></svg>