<?xml version="1.0" encoding="UTF-8" standalone="no"?><!DOCTYPE svg PUBLIC "-//W3C//DTD SVG 1.1//EN" "http://www.w3.org/Graphics/SVG/1.1/DTD/svg11.dtd"><svg width="100%" height="100%" viewBox="0 0 71 73" version="1.1" xmlns="http://www.w3.org/2000/svg" xmlns:xlink="http://www.w3.org/1999/xlink" xml:space="preserve" xmlns:serif="http://www.serif.com/" style="fill-rule:evenodd;clip-rule:evenodd;stroke-linejoin:round;stroke-miterlimit:2;"><g><path d="M57.5,42.1l-0.15,-21.1c-1.633,2.333 -2.433,3.733 -2.4,4.2l0.6,26.55c1.3,-1.2 1.95,-4.417 1.95,-9.65Z"/><path d="M48.813,41.838c0.158,0.924 0.237,1.595 0.237,2.012c-0,2.933 -0.633,5 -1.9,6.2c-0.984,0.927 -2.5,1.461 -4.55,1.6l0,0.05l-5.15,-0c-0.633,-0 -1.383,-0.417 -2.25,-1.25c-0.7,-0.7 -1.25,-1.433 -1.65,-2.2c-0.8,1.467 -1.233,2.267 -1.3,2.4c-0.533,0.7 -1.25,1.05 -2.15,1.05l-4.4,-0l0,-5l2.25,-0c0.132,0.029 0.265,0.045 0.4,0.05c0.967,0.033 1.583,0.05 1.85,0.05c1.067,0 1.85,-0.25 2.35,-0.75c0.4,-0.4 1.133,-1.567 2.2,-3.5c0.067,1.733 0.4,2.917 1,3.55c0.5,0.533 1.35,0.8 2.55,0.8c0.333,-0 0.983,-0.033 1.95,-0.1l-0,-0.1l2.35,0c2.745,-0.045 4.429,-0.512 5.05,-1.4c-0.167,-0.633 -0.583,-1.65 -1.25,-3.05c0.433,-0.867 1,-2.183 1.7,-3.95l0.712,3.538Z"/><path d="M39.45,33.85l-2.35,-2.5l-2.3,2.55l2.3,2.55l2.35,-2.6Z"/><path d="M32.45,31.35l-2.35,2.5l2.35,2.6l2.35,-2.55l-2.35,-2.55Z"/><path d="M42.85,31.95l2.65,2.9l2.65,-2.9l-2.65,-2.95l-2.65,2.95Z"/><path d="M19.7,26.8c0,-0.667 -0.183,-1.283 -0.55,-1.85c-0.4,-0.6 -0.883,-0.9 -1.45,-0.9c-0.8,0 -1.4,0.4 -1.8,1.2c-0.333,0.633 -0.5,1.417 -0.5,2.35c-0,1.5 0.583,2.25 1.75,2.25c0.733,-0 1.333,-0.317 1.8,-0.95c0.5,-0.633 0.75,-1.333 0.75,-2.1Zm-2.75,-1.15c0.3,0 0.667,0.183 1.1,0.55c0.5,0.4 0.75,0.75 0.75,1.05c-0,0.5 -0.433,0.75 -1.3,0.75c-1.033,-0 -1.55,-0.367 -1.55,-1.1c0,-0.833 0.333,-1.25 1,-1.25Z"/><path d="M44.55,18.05c-0.8,0 -1.4,0.4 -1.8,1.2c-0.333,0.633 -0.5,1.417 -0.5,2.35c-0,1.5 0.583,2.25 1.75,2.25c0.733,-0 1.333,-0.317 1.8,-0.95c0.5,-0.633 0.75,-1.333 0.75,-2.1c-0,-0.667 -0.183,-1.283 -0.55,-1.85c-0.4,-0.6 -0.883,-0.9 -1.45,-0.9Zm1.1,3.2c-0,0.5 -0.433,0.75 -1.3,0.75c-1.033,0 -1.55,-0.367 -1.55,-1.1c-0,-0.833 0.333,-1.25 1,-1.25c0.3,0 0.667,0.183 1.1,0.55c0.5,0.4 0.75,0.75 0.75,1.05Z"/><path d="M33.8,19.2c0.4,-0.867 0.6,-1.55 0.6,-2.05c-0,-1.033 -0.45,-1.55 -1.35,-1.55c-0.6,-0 -1.15,0.367 -1.65,1.1c-0.433,0.633 -0.65,1.25 -0.65,1.85c0,0.5 0.417,1.017 1.25,1.55c-1.5,1.233 -2.917,2.167 -4.25,2.8c0.467,0.133 0.85,0.2 1.15,0.2c1.1,-0 2.417,-0.85 3.95,-2.55c0.6,0.4 1.117,0.717 1.55,0.95l0.15,-1.75c-0.333,-0.267 -0.583,-0.45 -0.75,-0.55Zm-0.6,-1c0,0.133 -0.05,0.3 -0.15,0.5c-0.867,-0.433 -1.3,-0.85 -1.3,-1.25c0.067,-0.2 0.2,-0.317 0.4,-0.35c0.7,0.1 1.05,0.467 1.05,1.1Z"/><path d="M14.35,68.55l-1.2,-17.1c0.667,-1.467 1.667,-2.2 3,-2.2l0.6,0.25c0,1.1 0.25,2.233 0.75,3.4c0.567,1.4 1.3,2.1 2.2,2.1c1.5,0 2.25,-1.617 2.25,-4.85c1.367,1.033 2.367,1.55 3,1.55l0.75,0l0,-5l2.25,0c-2.367,0 -3.967,-0.167 -4.8,-0.5c-0.6,-0.233 -1.117,-0.733 -1.55,-1.5c-0.6,-1.033 -1.3,-1.867 -2.1,-2.5c-0.367,0.4 -0.617,0.833 -0.75,1.3c0.1,0.2 0.1,0.35 0,0.45c-1.9,0.533 -3.517,1.45 -4.85,2.75c-1.6,1.533 -2.4,3.317 -2.4,5.35c0,0.2 0.017,0.417 0.05,0.65l1.6,19.3c0.267,-0.367 0.533,-0.917 0.8,-1.65c0.3,-0.767 0.433,-1.367 0.4,-1.8Z" style="fill:#f00;"/><path d="M58.676,12.513l-5.1,3.65c-0.674,0.482 -0.829,1.419 -0.347,2.093c0.482,0.673 1.419,0.828 2.093,0.346l5.1,-3.65c0.673,-0.481 0.828,-1.419 0.346,-2.092c-0.481,-0.674 -1.419,-0.829 -2.092,-0.347Z"/></g></svg>