<?xml version="1.0" encoding="UTF-8" standalone="no"?><!DOCTYPE svg PUBLIC "-//W3C//DTD SVG 1.1//EN" "http://www.w3.org/Graphics/SVG/1.1/DTD/svg11.dtd"><svg width="100%" height="100%" viewBox="0 0 67 69" version="1.1" xmlns="http://www.w3.org/2000/svg" xmlns:xlink="http://www.w3.org/1999/xlink" xml:space="preserve" xmlns:serif="http://www.serif.com/" style="fill-rule:evenodd;clip-rule:evenodd;stroke-linejoin:round;stroke-miterlimit:2;"><g><path d="M5.9,34.65c0.233,6.533 0.817,10.467 1.75,11.8c0.767,1.067 1.833,1.6 3.2,1.6l4.4,0c0.867,0 1.583,-0.367 2.15,-1.1c0.167,-0.2 0.6,-0.967 1.3,-2.3c0.867,1.433 1.333,2.183 1.4,2.25c0.6,0.767 1.3,1.15 2.1,1.15l1.35,0l-0,-5l0.5,0c-1.553,-0.046 -2.503,-0.163 -2.85,-0.35c-0.867,-0.467 -1.3,-1.8 -1.3,-4c-0.667,0.6 -1.133,1.367 -1.4,2.3c-0.2,0.767 -0.533,1.267 -1,1.5c-0.67,0.307 -1.936,0.474 -3.8,0.5c-2.509,-0.077 -4.159,-0.694 -4.95,-1.85c-0.733,-1.067 -1.1,-3.333 -1.1,-6.8l-0,-16.15c-0.467,0.5 -0.917,1 -1.35,1.5c-0.333,0.5 -0.5,1.167 -0.5,2c-0,6.733 0.033,11.05 0.1,12.95Z"/><path d="M21.25,30.6l-2.65,-3l-2.7,3l2.65,2.85l2.7,-2.85Z"/><path d="M48.9,12.55c-0.8,0.567 -1.2,1.083 -1.2,1.55c0,0.567 0.2,1.383 0.6,2.45c0.367,1.1 0.55,1.917 0.55,2.45c0,0.367 -0.05,0.683 -0.15,0.95c0.9,-0.467 1.35,-1.117 1.35,-1.95c-0,-0.6 -0.2,-1.517 -0.6,-2.75c-0.367,-1.2 -0.55,-2.1 -0.55,-2.7Z"/><path d="M33.8,13.55c-0.6,0 -1.15,0.367 -1.65,1.1c-0.433,0.633 -0.65,1.25 -0.65,1.85c0,0.5 0.417,1.017 1.25,1.55c-1.5,1.233 -2.917,2.167 -4.25,2.8c0.467,0.133 0.85,0.2 1.15,0.2c1.1,0 2.417,-0.85 3.95,-2.55c0.6,0.4 1.117,0.717 1.55,0.95l0.15,-1.75c-0.333,-0.267 -0.583,-0.45 -0.75,-0.55c0.4,-0.867 0.6,-1.55 0.6,-2.05c-0,-1.033 -0.45,-1.55 -1.35,-1.55Zm-1.3,1.85c0.067,-0.2 0.2,-0.317 0.4,-0.35c0.7,0.1 1.05,0.467 1.05,1.1c0,0.133 -0.05,0.3 -0.15,0.5c-0.867,-0.433 -1.3,-0.85 -1.3,-1.25Z"/><path d="M33.5,33.6c-0.8,1.9 -1.583,3.8 -2.35,5.7c-0.967,2.133 -1.9,3.3 -2.8,3.5c-0.64,0.133 -1.79,0.217 -3.45,0.25l-1.35,0l-0,5l5.2,0c0,1.867 0.417,3.8 1.25,5.8c1,2.467 2.25,3.7 3.75,3.7c1.133,0 2.017,-0.833 2.65,-2.5c0.5,-1.3 0.75,-2.683 0.75,-4.15c-0,-0.4 -0.033,-0.917 -0.1,-1.55c-0.067,-0.767 -0.1,-1.283 -0.1,-1.55c1.1,0.233 2.117,0.35 3.05,0.35c0.481,-0 0.948,-0.033 1.4,-0.1l1.75,0c1.2,0 2.683,-1.05 4.45,-3.15c2.3,0.6 3.967,0.9 5,0.9c1.667,0 2.717,-0.6 3.15,-1.8c0.233,-0.633 0.35,-2.05 0.35,-4.25c0,-1.5 -1.167,-3.533 -3.5,-6.1c-1.6,-1.767 -3.367,-3.383 -5.3,-4.85c-0.3,0 -0.717,0.667 -1.25,2c-0.5,1.3 -0.75,2.183 -0.75,2.65c-0,0.167 0.1,0.367 0.3,0.6c0.2,0.2 0.317,0.367 0.35,0.5c-0.5,0.567 -0.95,1.367 -1.35,2.4c-0.467,1.1 -0.7,2.017 -0.7,2.75c-0,0.3 0.083,0.717 0.25,1.25c0.133,0.533 0.2,0.933 0.2,1.2c0,0.6 -1.2,0.9 -3.6,0.9l0,0.1c-0.259,0.01 -0.543,0.027 -0.85,0.05c-1.333,0.067 -2.35,0.1 -3.05,0.1c-1.1,0 -1.933,-0.083 -2.5,-0.25c0.933,-1 1.7,-2.133 2.3,-3.4c0.733,-1.433 1.1,-2.767 1.1,-4c0,-2.5 -0.533,-4.2 -1.6,-5.1c-0.833,0 -1.717,1.017 -2.65,3.05Zm-1.4,17.9c-0.667,-0.933 -1.117,-2.017 -1.35,-3.25c3.467,0.9 5.2,2.233 5.2,4c0,0.133 -0.15,0.317 -0.45,0.55c-0.3,0.2 -0.517,0.3 -0.65,0.3c-1.033,-0 -1.95,-0.533 -2.75,-1.6Zm18.8,-12.7c-0,-0.6 -0.133,-1.2 -0.4,-1.8c0.7,0.367 1.517,1.083 2.45,2.15c1,1.133 1.583,2.033 1.75,2.7l-0.4,0.45c-0.3,-0.233 -0.933,-0.417 -1.9,-0.55c-0.667,-0.133 -1.367,-0.25 -2.1,-0.35c0.4,-1.1 0.6,-1.967 0.6,-2.6Zm-18,-0.1c0.533,-1.1 1.15,-2.033 1.85,-2.8c0.667,0.7 1,1.35 1,1.95c0,1.267 -0.433,2.233 -1.3,2.9c-0.6,0.433 -1.567,0.8 -2.9,1.1c0.8,-1.9 1.25,-2.95 1.35,-3.15Zm16.65,0.25c-0,0.367 -0.25,0.7 -0.75,1c-0.433,0.233 -0.833,0.35 -1.2,0.35c-0.5,-0 -1.25,-0.3 -2.25,-0.9c0.167,-0.633 0.45,-1.217 0.85,-1.75c0.733,-0.967 1.117,-1.483 1.15,-1.55c0.533,0.233 1.017,0.617 1.45,1.15c0.5,0.567 0.75,1.133 0.75,1.7Z" style="fill:#f00;"/><path d="M15.776,6.863l-5.1,3.65c-0.674,0.482 -0.829,1.419 -0.347,2.093c0.482,0.673 1.419,0.828 2.093,0.346l5.1,-3.65c0.673,-0.481 0.828,-1.419 0.346,-2.092c-0.481,-0.674 -1.419,-0.829 -2.092,-0.347Z"/></g></svg>