<?xml version="1.0" encoding="UTF-8" standalone="no"?><!DOCTYPE svg PUBLIC "-//W3C//DTD SVG 1.1//EN" "http://www.w3.org/Graphics/SVG/1.1/DTD/svg11.dtd"><svg width="100%" height="100%" viewBox="0 0 31 73" version="1.1" xmlns="http://www.w3.org/2000/svg" xmlns:xlink="http://www.w3.org/1999/xlink" xml:space="preserve" xmlns:serif="http://www.serif.com/" style="fill-rule:evenodd;clip-rule:evenodd;stroke-linejoin:round;stroke-miterlimit:2;"><g><path d="M11.7,46.75c0.335,0 0.635,-0.017 0.9,-0.05c-2.45,-0.088 -4.067,-0.705 -4.85,-1.85c-0.733,-1.067 -1.1,-3.333 -1.1,-6.8l-0,-16.15c-0.467,0.5 -0.917,1 -1.35,1.5c-0.333,0.5 -0.5,1.167 -0.5,2c-0,6.733 0.033,11.05 0.1,12.95c0.233,6.533 0.817,10.467 1.75,11.8c0.767,1.067 1.833,1.6 3.2,1.6l1.85,-0l0,-5Z"/><path d="M3.9,14.7c0.367,-0.267 0.767,-0.717 1.2,-1.35c0.5,-0.733 0.85,-1.217 1.05,-1.45c1.167,0.567 1.867,0.883 2.1,0.95c0.6,0.2 1.367,0.3 2.3,0.3c1.033,0 2.283,-0.433 3.75,-1.3c1.633,-1 2.45,-2 2.45,-3c-1.667,0.933 -2.567,1.433 -2.7,1.5c-1.067,0.5 -2.033,0.75 -2.9,0.75c-1.7,-0 -3.283,-0.567 -4.75,-1.7c-1.2,2 -2.033,3.767 -2.5,5.3Z"/><path d="M18.25,32.5c-0.3,0 -0.717,0.667 -1.25,2c-0.5,1.3 -0.75,2.183 -0.75,2.65c0,0.167 0.1,0.367 0.3,0.6c0.2,0.2 0.317,0.367 0.35,0.5c-0.5,0.567 -0.95,1.367 -1.35,2.4c-0.467,1.1 -0.7,2.017 -0.7,2.75c0,0.3 0.083,0.717 0.25,1.25c0.133,0.533 0.2,0.933 0.2,1.2c-0,0.516 -0.9,0.8 -2.7,0.85c-0.265,0.033 -0.565,0.05 -0.9,0.05l0,5l2.4,0c1.2,0 2.683,-1.05 4.45,-3.15c2.3,0.6 3.967,0.9 5,0.9c1.667,0 2.717,-0.6 3.15,-1.8c0.233,-0.633 0.35,-2.05 0.35,-4.25c-0,-1.5 -1.167,-3.533 -3.5,-6.1c-1.6,-1.767 -3.367,-3.383 -5.3,-4.85Zm5.1,12.95c-0.667,-0.133 -1.367,-0.25 -2.1,-0.35c0.4,-1.1 0.6,-1.967 0.6,-2.6c0,-0.6 -0.133,-1.2 -0.4,-1.8c0.7,0.367 1.517,1.083 2.45,2.15c1,1.133 1.583,2.033 1.75,2.7l-0.4,0.45c-0.3,-0.233 -0.933,-0.417 -1.9,-0.55Zm-5.05,-5.65c0.533,0.233 1.017,0.617 1.45,1.15c0.5,0.567 0.75,1.133 0.75,1.7c-0,0.367 -0.25,0.7 -0.75,1c-0.433,0.233 -0.833,0.35 -1.2,0.35c-0.5,-0 -1.25,-0.3 -2.25,-0.9c0.167,-0.633 0.45,-1.217 0.85,-1.75c0.733,-0.967 1.117,-1.483 1.15,-1.55Z" style="fill:#f00;"/><path d="M14.934,14.557l-5.1,3.6c-0.677,0.478 -0.838,1.414 -0.361,2.091c0.478,0.676 1.414,0.838 2.091,0.36l5.1,-3.6c0.676,-0.477 0.837,-1.414 0.36,-2.09c-0.477,-0.677 -1.414,-0.838 -2.09,-0.361Z"/></g></svg>