<?xml version="1.0" encoding="UTF-8" standalone="no"?><!DOCTYPE svg PUBLIC "-//W3C//DTD SVG 1.1//EN" "http://www.w3.org/Graphics/SVG/1.1/DTD/svg11.dtd"><svg width="100%" height="100%" viewBox="0 0 80 79" version="1.1" xmlns="http://www.w3.org/2000/svg" xmlns:xlink="http://www.w3.org/1999/xlink" xml:space="preserve" xmlns:serif="http://www.serif.com/" style="fill-rule:evenodd;clip-rule:evenodd;stroke-linejoin:round;stroke-miterlimit:2;"><g><path d="M4.75,50.7c0,0.033 -0.083,0.233 -0.25,0.6c-0.167,0.4 -0.25,0.733 -0.25,1c0,0.3 0.05,0.7 0.15,1.2c2.567,-1.933 4.483,-2.9 5.75,-2.9c0.233,0 0.6,0.083 1.1,0.25c0.233,-0.1 0.5,-0.467 0.8,-1.1c0.167,-0.433 0.35,-0.883 0.55,-1.35l-2,-0c-3.067,-0 -4.6,-0.483 -4.6,-1.45c-0,-0.333 0.25,-0.733 0.75,-1.2c0.5,-0.467 0.9,-0.7 1.2,-0.7c0.067,0 0.3,0.083 0.7,0.25c0.433,0.167 0.75,0.25 0.95,0.25c0.8,0 1.2,-0.417 1.2,-1.25c-0,-0.3 -0.233,-0.617 -0.7,-0.95c-0.433,-0.333 -0.8,-0.5 -1.1,-0.5c-1.767,0 -3.583,1.633 -5.45,4.9c-0,0.5 0.2,1.067 0.6,1.7c0.4,0.633 0.6,1.05 0.6,1.25Z"/><path d="M44.2,52.95c0,1.333 0.583,2.183 1.75,2.55c1.067,0.167 2.15,0.35 3.25,0.55c-1.267,2.1 -2.6,3.633 -4,4.6c-1.533,1.1 -3.35,1.65 -5.45,1.65c-1.133,0 -2.783,-0.1 -4.95,-0.3c2,2.2 4.333,3.3 7,3.3c2.3,0 4.267,-1.05 5.9,-3.15c1.133,-1.467 2.233,-3.65 3.3,-6.55l1.7,0l0,-4.8c-0.493,-0.005 -0.993,-0.039 -1.5,-0.1c-0.433,-0.967 -0.85,-1.933 -1.25,-2.9c-0.633,-1.3 -1.283,-1.95 -1.95,-1.95c-0.833,0 -1.7,0.95 -2.6,2.85c-0.8,1.733 -1.2,3.15 -1.2,4.25Zm2.2,-0.9c0,-0.4 -0.083,-0.65 -0.25,-0.75c0.3,-0.6 0.567,-1.15 0.8,-1.65c0.733,0.367 1.183,0.683 1.35,0.95c0.167,0.267 0.333,0.833 0.5,1.7c-0.667,0 -1.467,-0.083 -2.4,-0.25Z"/><path d="M35.8,30.6c-1.467,-0.733 -2.2,-1.717 -2.2,-2.95c-0,-0.5 0.067,-1.133 0.2,-1.9c-1.333,1.2 -2.267,2.933 -2.8,5.2c0.067,0.267 0.283,0.717 0.65,1.35c0.367,0.533 0.55,0.917 0.55,1.15c0,0.867 -0.2,2.583 -0.6,5.15c-0.367,2.733 -0.683,4.35 -0.95,4.85c-3.6,-5.6 -5.583,-8.65 -5.95,-9.15c-3.133,-4.367 -5.5,-6.55 -7.1,-6.55c-0.6,-0 -1.083,0.3 -1.45,0.9c-0.3,0.5 -0.45,1.117 -0.45,1.85c0,1.2 0.35,2.333 1.05,3.4c0.767,1.2 1.667,1.8 2.7,1.8c0.5,-0 0.85,-0.1 1.05,-0.3c0.4,-0.367 0.65,-0.567 0.75,-0.6c0.8,0.533 2.283,2.3 4.45,5.3c1.633,2.267 2.967,4.217 4,5.85c-0.433,0.8 -1.083,1.767 -1.95,2.9c-0.933,1.3 -1.7,2.15 -2.3,2.55l-1.75,-0.7l0,4.75c1.2,0.4 2.767,0.6 4.7,0.6c1.833,0 3.017,-0.267 3.55,-0.8c0.6,-0.6 0.9,-1.883 0.9,-3.85c-0,-2.533 -0.467,-4.533 -1.4,-6c0.4,-1.2 0.75,-3.05 1.05,-5.55c0.3,-2.467 0.617,-4.217 0.95,-5.25l0.35,0.4c0.533,-0.367 0.967,-1.033 1.3,-2c0.1,-0.233 0.333,-1.033 0.7,-2.4Zm-4.35,19.6c-0.023,0.055 -0.09,0.372 -0.2,0.95c-1.9,0.167 -3.033,0.25 -3.4,0.25c1.3,-1.333 2.167,-2.583 2.6,-3.75c0.033,0.133 0.217,0.617 0.55,1.45l0.45,1.1Z"/><path d="M44.15,33.1c0.4,-1.167 0.967,-1.75 1.7,-1.75c0.167,0 0.417,0.067 0.75,0.2c0.367,0.1 0.633,0.15 0.8,0.15c0.367,-0 0.55,-0.383 0.55,-1.15c0,-0.333 -0.117,-0.617 -0.35,-0.85c-0.233,-0.233 -0.5,-0.35 -0.8,-0.35c-0.533,0 -1.367,0.5 -2.5,1.5c-1.167,1.033 -1.75,1.85 -1.75,2.45c-0,0.2 0.133,0.55 0.4,1.05c0.267,0.5 0.4,0.883 0.4,1.15c-0,0.133 -0.033,0.367 -0.1,0.7c-0.1,0.3 -0.15,0.533 -0.15,0.7c-0,0.167 0.017,0.383 0.05,0.65c1.567,-1.4 2.933,-2.1 4.1,-2.1c0.967,-0 1.483,-0.033 1.55,-0.1c0.233,-0.467 0.483,-0.933 0.75,-1.4c-0.233,-0 -0.6,0.017 -1.1,0.05l-1.1,0c-1.367,0 -2.433,-0.3 -3.2,-0.9Z"/><path d="M60,24.15c0.367,1.1 0.55,1.917 0.55,2.45c-0,0.367 -0.05,0.683 -0.15,0.95c0.9,-0.467 1.35,-1.117 1.35,-1.95c0,-0.6 -0.2,-1.517 -0.6,-2.75c-0.367,-1.2 -0.55,-2.1 -0.55,-2.7c-0.8,0.567 -1.2,1.083 -1.2,1.55c0,0.567 0.2,1.383 0.6,2.45Z"/><path d="M45.1,17.5c-0.6,0 -1.15,0.367 -1.65,1.1c-0.433,0.633 -0.65,1.25 -0.65,1.85c-0,0.5 0.417,1.017 1.25,1.55c-1.5,1.233 -2.917,2.167 -4.25,2.8c0.467,0.133 0.85,0.2 1.15,0.2c1.1,-0 2.417,-0.85 3.95,-2.55c0.6,0.4 1.117,0.717 1.55,0.95l0.15,-1.75c-0.333,-0.267 -0.583,-0.45 -0.75,-0.55c0.4,-0.867 0.6,-1.55 0.6,-2.05c0,-1.033 -0.45,-1.55 -1.35,-1.55Zm-0.9,1.5c0.7,0.1 1.05,0.467 1.05,1.1c0,0.133 -0.05,0.3 -0.15,0.5c-0.867,-0.433 -1.3,-0.85 -1.3,-1.25c0.067,-0.2 0.2,-0.317 0.4,-0.35Z"/><path d="M27.65,14.25c-1.067,0.5 -2.033,0.75 -2.9,0.75c-1.7,0 -3.283,-0.567 -4.75,-1.7c-1.2,2 -2.033,3.767 -2.5,5.3c0.367,-0.267 0.767,-0.717 1.2,-1.35c0.5,-0.733 0.85,-1.217 1.05,-1.45c1.167,0.567 1.867,0.883 2.1,0.95c0.6,0.2 1.367,0.3 2.3,0.3c1.033,0 2.283,-0.433 3.75,-1.3c1.633,-1 2.45,-2 2.45,-3c-1.667,0.933 -2.567,1.433 -2.7,1.5Z"/><path d="M63.55,14.95c1.633,-1 2.45,-2 2.45,-3c-1.667,0.933 -2.567,1.433 -2.7,1.5c-1.067,0.5 -2.033,0.75 -2.9,0.75c-1.7,-0 -3.283,-0.567 -4.75,-1.7c-1.2,2 -2.033,3.767 -2.5,5.3c0.367,-0.267 0.767,-0.717 1.2,-1.35c0.5,-0.733 0.85,-1.217 1.05,-1.45c1.167,0.567 1.867,0.883 2.1,0.95c0.6,0.2 1.367,0.3 2.3,0.3c1.033,0 2.283,-0.433 3.75,-1.3Z"/><path d="M57.9,42.1c-0.5,0.567 -0.95,1.367 -1.35,2.4c-0.467,1.1 -0.7,2.017 -0.7,2.75c-0,0.3 0.083,0.717 0.25,1.25c0.133,0.533 0.2,0.933 0.2,1.2c-0,0.6 -1.2,0.9 -3.6,0.9l0,5l2.4,0c1.2,0 2.683,-1.05 4.45,-3.15c2.3,0.6 3.967,0.9 5,0.9c1.667,0 2.717,-0.6 3.15,-1.8c0.233,-0.633 0.35,-2.05 0.35,-4.25c-0,-1.5 -1.167,-3.533 -3.5,-6.1c-1.6,-1.767 -3.367,-3.383 -5.3,-4.85c-0.3,0 -0.717,0.667 -1.25,2c-0.5,1.3 -0.75,2.183 -0.75,2.65c0,0.167 0.1,0.367 0.3,0.6c0.2,0.2 0.317,0.367 0.35,0.5Zm4.35,6.85c0.4,-1.1 0.6,-1.967 0.6,-2.6c-0,-0.6 -0.133,-1.2 -0.4,-1.8c0.7,0.367 1.517,1.083 2.45,2.15c1,1.133 1.583,2.033 1.75,2.7l-0.4,0.45c-0.3,-0.233 -0.933,-0.417 -1.9,-0.55c-0.667,-0.133 -1.367,-0.25 -2.1,-0.35Zm-4.1,-3.75c0.733,-0.967 1.117,-1.483 1.15,-1.55c0.533,0.233 1.017,0.617 1.45,1.15c0.5,0.567 0.75,1.133 0.75,1.7c0,0.367 -0.25,0.7 -0.75,1c-0.433,0.233 -0.833,0.35 -1.2,0.35c-0.5,0 -1.25,-0.3 -2.25,-0.9c0.167,-0.633 0.45,-1.217 0.85,-1.75Z" style="fill:#f00;"/><path d="M10.834,51.957l-5.1,3.6c-0.677,0.478 -0.838,1.414 -0.361,2.091c0.478,0.676 1.414,0.838 2.091,0.36l5.1,-3.6c0.676,-0.477 0.837,-1.414 0.36,-2.09c-0.477,-0.677 -1.414,-0.838 -2.09,-0.361Z"/><path d="M29.276,19.013l-5.1,3.65c-0.674,0.482 -0.829,1.419 -0.347,2.093c0.482,0.673 1.419,0.828 2.093,0.346l5.1,-3.65c0.673,-0.481 0.828,-1.419 0.346,-2.092c-0.481,-0.674 -1.419,-0.829 -2.092,-0.347Z"/></g></svg>