<?xml version="1.0" encoding="UTF-8" standalone="no"?><!DOCTYPE svg PUBLIC "-//W3C//DTD SVG 1.1//EN" "http://www.w3.org/Graphics/SVG/1.1/DTD/svg11.dtd"><svg width="100%" height="100%" viewBox="0 0 56 73" version="1.1" xmlns="http://www.w3.org/2000/svg" xmlns:xlink="http://www.w3.org/1999/xlink" xml:space="preserve" xmlns:serif="http://www.serif.com/" style="fill-rule:evenodd;clip-rule:evenodd;stroke-linejoin:round;stroke-miterlimit:2;"><g><path d="M26.35,34.35c-0.733,2.767 -1.083,4.233 -1.05,4.4l1.6,9.55c-0.633,0.9 -1.7,1.65 -3.2,2.25c-1.333,0.5 -2.583,0.75 -3.75,0.75c-1.2,0 -2.333,-0.583 -3.4,-1.75l0,5.1c0,1 1.017,1.5 3.05,1.5c2.2,0 3.783,-0.4 4.75,-1.2c0.467,-0.4 1.467,-1.833 3,-4.3c0.3,1.067 0.6,2.133 0.9,3.2c0.533,1.267 1.217,1.9 2.05,1.9l2.7,0l0,-5c-0.646,0.051 -1.18,0.051 -1.6,0c-0.404,-0.002 -0.704,-0.052 -0.9,-0.15c-0.7,-0.367 -1.567,-2.883 -2.6,-7.55c-0.467,-2.3 -0.983,-5.2 -1.55,-8.7Z"/><path d="M7.9,29.25l0.6,26.55c1.3,-1.2 1.95,-4.417 1.95,-9.65l-0.15,-21.1c-1.633,2.333 -2.433,3.733 -2.4,4.2Z"/><path d="M23.25,29.05l2.7,2.9l2.65,-2.9l-2.7,-2.95l-2.65,2.95Z"/><path d="M37.8,22.15c-0,0.567 0.2,1.383 0.6,2.45c0.367,1.1 0.55,1.917 0.55,2.45c-0,0.367 -0.05,0.683 -0.15,0.95c0.9,-0.467 1.35,-1.117 1.35,-1.95c-0,-0.6 -0.2,-1.517 -0.6,-2.75c-0.367,-1.2 -0.55,-2.1 -0.55,-2.7c-0.8,0.567 -1.2,1.083 -1.2,1.55Z"/><path d="M8.4,17.35c0.5,-0.733 0.85,-1.217 1.05,-1.45c1.167,0.567 1.867,0.883 2.1,0.95c0.6,0.2 1.367,0.3 2.3,0.3c1.033,0 2.283,-0.433 3.75,-1.3c1.633,-1 2.45,-2 2.45,-3c-1.667,0.933 -2.567,1.433 -2.7,1.5c-1.067,0.5 -2.033,0.75 -2.9,0.75c-1.7,0 -3.283,-0.567 -4.75,-1.7c-1.2,2 -2.033,3.767 -2.5,5.3c0.367,-0.267 0.767,-0.717 1.2,-1.35Z"/><path d="M31.4,50.75c0.42,0.051 0.954,0.051 1.6,0l0,5l0.8,0c1.2,0 2.683,-1.05 4.45,-3.15c2.3,0.6 3.967,0.9 5,0.9c1.667,0 2.717,-0.6 3.15,-1.8c0.233,-0.633 0.35,-2.05 0.35,-4.25c0,-1.5 -1.167,-3.533 -3.5,-6.1c-1.6,-1.767 -3.367,-3.383 -5.3,-4.85c-0.3,0 -0.717,0.667 -1.25,2c-0.5,1.3 -0.75,2.183 -0.75,2.65c0,0.167 0.1,0.367 0.3,0.6c0.2,0.2 0.317,0.367 0.35,0.5c-0.5,0.567 -0.95,1.367 -1.35,2.4c-0.467,1.1 -0.7,2.017 -0.7,2.75c0,0.3 0.083,0.717 0.25,1.25c0.133,0.533 0.2,0.933 0.2,1.2c0,0.6 -1.2,0.9 -3.6,0.9Zm9.55,-1.65c0.4,-1.1 0.6,-1.967 0.6,-2.6c0,-0.6 -0.133,-1.2 -0.4,-1.8c0.7,0.367 1.517,1.083 2.45,2.15c1,1.133 1.583,2.033 1.75,2.7l-0.4,0.45c-0.3,-0.233 -0.933,-0.417 -1.9,-0.55c-0.667,-0.133 -1.367,-0.25 -2.1,-0.35Zm-2.95,-5.3c0.533,0.233 1.017,0.617 1.45,1.15c0.5,0.567 0.75,1.133 0.75,1.7c-0,0.367 -0.25,0.7 -0.75,1c-0.433,0.233 -0.833,0.35 -1.2,0.35c-0.5,-0 -1.25,-0.3 -2.25,-0.9c0.167,-0.633 0.45,-1.217 0.85,-1.75c0.733,-0.967 1.117,-1.483 1.15,-1.55Z" style="fill:#f00;"/><path d="M19.733,17.54l-5.1,3.6c-0.677,0.478 -0.838,1.414 -0.361,2.091c0.478,0.676 1.414,0.838 2.091,0.36l5.1,-3.6c0.676,-0.477 0.837,-1.414 0.36,-2.09c-0.477,-0.677 -1.414,-0.838 -2.09,-0.361Z"/></g></svg>