<?xml version="1.0" encoding="UTF-8" standalone="no"?><!DOCTYPE svg PUBLIC "-//W3C//DTD SVG 1.1//EN" "http://www.w3.org/Graphics/SVG/1.1/DTD/svg11.dtd"><svg width="100%" height="100%" viewBox="0 0 71 78" version="1.1" xmlns="http://www.w3.org/2000/svg" xmlns:xlink="http://www.w3.org/1999/xlink" xml:space="preserve" xmlns:serif="http://www.serif.com/" style="fill-rule:evenodd;clip-rule:evenodd;stroke-linejoin:round;stroke-miterlimit:2;"><g><path d="M39.9,47.1c-0.833,0 -1.7,0.95 -2.6,2.85c-0.8,1.733 -1.2,3.15 -1.2,4.25c0,1.333 0.583,2.183 1.75,2.55c1.067,0.167 2.15,0.35 3.25,0.55c-1.267,2.1 -2.6,3.633 -4,4.6c-1.533,1.1 -3.35,1.65 -5.45,1.65c-1.055,-0 -2.555,-0.083 -4.5,-0.25c-0.149,-0.019 -0.299,-0.036 -0.45,-0.05c0.1,0.11 0.2,0.21 0.3,0.3c1.933,2 4.166,3 6.7,3c2.3,-0 4.267,-1.05 5.9,-3.15c1.133,-1.467 2.233,-3.65 3.3,-6.55l4.1,0c1.2,0 2.683,-1.05 4.45,-3.15c2.3,0.6 3.967,0.9 5,0.9c1.667,0 2.717,-0.6 3.15,-1.8c0.233,-0.633 0.35,-2.05 0.35,-4.25c0,-1.5 -1.167,-3.533 -3.5,-6.1c-1.6,-1.767 -3.367,-3.383 -5.3,-4.85c-0.3,0 -0.717,0.667 -1.25,2c-0.5,1.3 -0.75,2.183 -0.75,2.65c-0,0.167 0.1,0.367 0.3,0.6c0.2,0.2 0.317,0.367 0.35,0.5c-0.5,0.567 -0.95,1.367 -1.35,2.4c-0.467,1.1 -0.7,2.017 -0.7,2.75c0,0.3 0.083,0.717 0.25,1.25c0.133,0.533 0.2,0.933 0.2,1.2c0,0.6 -1.2,0.9 -3.6,0.9l0,0.2c-0.493,-0.005 -0.993,-0.039 -1.5,-0.1c-0.433,-0.967 -0.85,-1.933 -1.25,-2.9c-0.633,-1.3 -1.283,-1.95 -1.95,-1.95Zm0.8,6.45c-0.667,-0 -1.467,-0.083 -2.4,-0.25c-0,-0.4 -0.083,-0.65 -0.25,-0.75c0.3,-0.6 0.567,-1.15 0.8,-1.65c0.733,0.367 1.183,0.683 1.35,0.95c0.167,0.267 0.333,0.833 0.5,1.7Zm14.05,-5.95c0,-0.6 -0.133,-1.2 -0.4,-1.8c0.7,0.367 1.517,1.083 2.45,2.15c1,1.133 1.583,2.033 1.75,2.7l-0.4,0.45c-0.3,-0.233 -0.933,-0.417 -1.9,-0.55c-0.667,-0.133 -1.367,-0.25 -2.1,-0.35c0.4,-1.1 0.6,-1.967 0.6,-2.6Zm-4.7,-1.15c0.733,-0.967 1.117,-1.483 1.15,-1.55c0.533,0.233 1.017,0.617 1.45,1.15c0.5,0.567 0.75,1.133 0.75,1.7c-0,0.367 -0.25,0.7 -0.75,1c-0.433,0.233 -0.833,0.35 -1.2,0.35c-0.5,0 -1.25,-0.3 -2.25,-0.9c0.167,-0.633 0.45,-1.217 0.85,-1.75Z"/><path d="M33.3,27.2c-0.367,-1.2 -0.55,-2.1 -0.55,-2.7c-0.8,0.567 -1.2,1.083 -1.2,1.55c-0,0.567 0.2,1.383 0.6,2.45c0.367,1.1 0.55,1.917 0.55,2.45c0,0.367 -0.05,0.683 -0.15,0.95c0.9,-0.467 1.35,-1.117 1.35,-1.95c-0,-0.6 -0.2,-1.517 -0.6,-2.75Z"/><path d="M5.8,26.95c-0.433,0.633 -0.65,1.25 -0.65,1.85c-0,0.5 0.417,1.017 1.25,1.55c-1.5,1.233 -2.917,2.167 -4.25,2.8c0.467,0.133 0.85,0.2 1.15,0.2c1.1,0 2.417,-0.85 3.95,-2.55c0.6,0.4 1.117,0.717 1.55,0.95l0.15,-1.75c-0.333,-0.267 -0.583,-0.45 -0.75,-0.55c0.4,-0.867 0.6,-1.55 0.6,-2.05c-0,-1.033 -0.45,-1.55 -1.35,-1.55c-0.6,0 -1.15,0.367 -1.65,1.1Zm1.8,1.5c0,0.133 -0.05,0.3 -0.15,0.5c-0.867,-0.433 -1.3,-0.85 -1.3,-1.25c0.067,-0.2 0.2,-0.317 0.4,-0.35c0.7,0.1 1.05,0.467 1.05,1.1Z"/><path d="M22.55,63.4l-2.35,-2.55l-2.3,2.5l2.3,2.6l2.35,-2.55Z" style="fill:#f00;"/><path d="M24.85,65.95l2.15,-2.4c-0.1,-0.09 -0.2,-0.19 -0.3,-0.3c0.151,0.014 0.301,0.031 0.45,0.05l-2.3,-2.45l-2.3,2.55l2.3,2.55Z" style="fill:#f00;"/><path d="M11.6,38.25c-1,1.4 -1.483,2.3 -1.45,2.7l0.25,3.35c-2.267,1.3 -3.883,2.483 -4.85,3.55c-1.433,1.633 -2.15,3.567 -2.15,5.8c-0,0.8 0.833,1.2 2.5,1.2c1.533,0 2.633,-0.15 3.3,-0.45c0.867,-0.4 1.733,-1.283 2.6,-2.65c0.367,1.1 0.75,2.183 1.15,3.25c0.567,1.233 1.317,1.85 2.25,1.85l3.75,0l0,-0.05c2.177,-0.102 3.777,-0.635 4.8,-1.6c1.267,-1.2 1.9,-3.267 1.9,-6.2c-0,-0.833 -0.317,-2.683 -0.95,-5.55c-0.7,1.767 -1.267,3.083 -1.7,3.95c0.667,1.4 1.083,2.417 1.25,3.05c-0.64,0.914 -2.406,1.38 -5.3,1.4l-1.5,0c-1.533,-0.037 -2.416,-0.12 -2.65,-0.25c-0.967,-0.467 -1.767,-2.517 -2.4,-6.15c-0.533,-2.833 -0.8,-5.233 -0.8,-7.2Zm-1,8.45c0.267,1.1 0.4,1.75 0.4,1.95c-0,0.3 -0.4,0.567 -1.2,0.8c-0.667,0.2 -1.2,0.3 -1.6,0.3c-0.467,0 -1.067,-0.133 -1.8,-0.4c1.533,-1.133 2.933,-2.017 4.2,-2.65Z" style="fill:#f00;"/><path d="M52.726,18.363l-5.1,3.65c-0.674,0.482 -0.829,1.419 -0.347,2.093c0.482,0.673 1.419,0.828 2.093,0.346l5.1,-3.65c0.673,-0.481 0.828,-1.419 0.346,-2.092c-0.481,-0.674 -1.419,-0.829 -2.092,-0.347Z"/></g></svg>