<?xml version="1.0" encoding="UTF-8" standalone="no"?><!DOCTYPE svg PUBLIC "-//W3C//DTD SVG 1.1//EN" "http://www.w3.org/Graphics/SVG/1.1/DTD/svg11.dtd"><svg width="100%" height="100%" viewBox="0 0 45 69" version="1.1" xmlns="http://www.w3.org/2000/svg" xmlns:xlink="http://www.w3.org/1999/xlink" xml:space="preserve" xmlns:serif="http://www.serif.com/" style="fill-rule:evenodd;clip-rule:evenodd;stroke-linejoin:round;stroke-miterlimit:2;"><g><path d="M16.35,20c-0.4,-0.6 -0.883,-0.9 -1.45,-0.9c-0.8,-0 -1.4,0.4 -1.8,1.2c-0.333,0.633 -0.5,1.417 -0.5,2.35c-0,1.5 0.583,2.25 1.75,2.25c0.733,0 1.333,-0.317 1.8,-0.95c0.5,-0.633 0.75,-1.333 0.75,-2.1c0,-0.667 -0.183,-1.283 -0.55,-1.85Zm-2.2,0.7c0.3,-0 0.667,0.183 1.1,0.55c0.5,0.4 0.75,0.75 0.75,1.05c0,0.5 -0.433,0.75 -1.3,0.75c-1.033,0 -1.55,-0.367 -1.55,-1.1c0,-0.833 0.333,-1.25 1,-1.25Z"/><path d="M29.8,13.55c-0.6,0 -1.15,0.367 -1.65,1.1c-0.433,0.633 -0.65,1.25 -0.65,1.85c-0,0.5 0.417,1.017 1.25,1.55c-1.5,1.233 -2.917,2.167 -4.25,2.8c0.467,0.133 0.85,0.2 1.15,0.2c1.1,0 2.417,-0.85 3.95,-2.55c0.6,0.4 1.117,0.717 1.55,0.95l0.15,-1.75c-0.333,-0.267 -0.583,-0.45 -0.75,-0.55c0.4,-0.867 0.6,-1.55 0.6,-2.05c0,-1.033 -0.45,-1.55 -1.35,-1.55Zm-1.3,1.85c0.067,-0.2 0.2,-0.317 0.4,-0.35c0.7,0.1 1.05,0.467 1.05,1.1c0,0.133 -0.05,0.3 -0.15,0.5c-0.867,-0.433 -1.3,-0.85 -1.3,-1.25Z"/><path d="M8.3,48c-0,0.2 0.017,0.417 0.05,0.65l1.6,19.3c0.267,-0.367 0.533,-0.917 0.8,-1.65c0.3,-0.767 0.433,-1.367 0.4,-1.8l-1.2,-17.1c0.667,-1.467 1.667,-2.2 3,-2.2l0.6,0.25c-0,1.1 0.25,2.233 0.75,3.4c0.567,1.4 1.3,2.1 2.2,2.1c1.5,-0 2.25,-1.617 2.25,-4.85c1.367,1.033 2.367,1.55 3,1.55l3.35,0c1.2,0 2.683,-1.05 4.45,-3.15c2.3,0.6 3.967,0.9 5,0.9c1.667,0 2.717,-0.6 3.15,-1.8c0.233,-0.633 0.35,-2.05 0.35,-4.25c-0,-1.5 -1.167,-3.533 -3.5,-6.1c-1.6,-1.767 -3.367,-3.383 -5.3,-4.85c-0.3,0 -0.717,0.667 -1.25,2c-0.5,1.3 -0.75,2.183 -0.75,2.65c-0,0.167 0.1,0.367 0.3,0.6c0.2,0.2 0.317,0.367 0.35,0.5c-0.5,0.567 -0.95,1.367 -1.35,2.4c-0.467,1.1 -0.7,2.017 -0.7,2.75c-0,0.3 0.083,0.717 0.25,1.25c0.133,0.533 0.2,0.933 0.2,1.2c-0,0.522 -0.917,0.805 -2.75,0.85c-1.713,-0.025 -2.913,-0.175 -3.6,-0.45c-0.6,-0.233 -1.117,-0.733 -1.55,-1.5c-0.6,-1.033 -1.3,-1.867 -2.1,-2.5c-0.367,0.4 -0.617,0.833 -0.75,1.3c0.1,0.2 0.1,0.35 -0,0.45c-1.9,0.533 -3.517,1.45 -4.85,2.75c-1.6,1.533 -2.4,3.317 -2.4,5.35Zm24.15,-11.4c0.7,0.367 1.517,1.083 2.45,2.15c1,1.133 1.583,2.033 1.75,2.7l-0.4,0.45c-0.3,-0.233 -0.933,-0.417 -1.9,-0.55c-0.667,-0.133 -1.367,-0.25 -2.1,-0.35c0.4,-1.1 0.6,-1.967 0.6,-2.6c-0,-0.6 -0.133,-1.2 -0.4,-1.8Zm-0.95,1.95c-0,0.367 -0.25,0.7 -0.75,1c-0.433,0.233 -0.833,0.35 -1.2,0.35c-0.5,0 -1.25,-0.3 -2.25,-0.9c0.167,-0.633 0.45,-1.217 0.85,-1.75c0.733,-0.967 1.117,-1.483 1.15,-1.55c0.533,0.233 1.017,0.617 1.45,1.15c0.5,0.567 0.75,1.133 0.75,1.7Z" style="fill:#f00;"/></g></svg>