<?xml version="1.0" encoding="UTF-8" standalone="no"?><!DOCTYPE svg PUBLIC "-//W3C//DTD SVG 1.1//EN" "http://www.w3.org/Graphics/SVG/1.1/DTD/svg11.dtd"><svg width="100%" height="100%" viewBox="0 0 49 69" version="1.1" xmlns="http://www.w3.org/2000/svg" xmlns:xlink="http://www.w3.org/1999/xlink" xml:space="preserve" xmlns:serif="http://www.serif.com/" style="fill-rule:evenodd;clip-rule:evenodd;stroke-linejoin:round;stroke-miterlimit:2;"><g><path d="M25.85,43.25c-0.493,-0.005 -0.993,-0.039 -1.5,-0.1c-0.433,-0.967 -0.85,-1.933 -1.25,-2.9c-0.633,-1.3 -1.283,-1.95 -1.95,-1.95c-0.833,0 -1.7,0.95 -2.6,2.85c-0.8,1.733 -1.2,3.15 -1.2,4.25c0,1.333 0.583,2.183 1.75,2.55c1.067,0.167 2.15,0.35 3.25,0.55c-1.267,2.1 -2.6,3.633 -4,4.6c-1.533,1.1 -3.35,1.65 -5.45,1.65c-1.133,0 -2.783,-0.1 -4.95,-0.3c2,2.2 4.333,3.3 7,3.3c2.3,0 4.267,-1.05 5.9,-3.15c1.133,-1.467 2.233,-3.65 3.3,-6.55l1.7,0l0,-4.8Zm-4.4,-0.2c0.167,0.267 0.333,0.833 0.5,1.7c-0.667,0 -1.467,-0.083 -2.4,-0.25c-0,-0.4 -0.083,-0.65 -0.25,-0.75c0.3,-0.6 0.567,-1.15 0.8,-1.65c0.733,0.367 1.183,0.683 1.35,0.95Z"/><path d="M33.5,11.9c0,-1.033 -0.45,-1.55 -1.35,-1.55c-0.6,-0 -1.15,0.367 -1.65,1.1c-0.433,0.633 -0.65,1.25 -0.65,1.85c0,0.5 0.417,1.017 1.25,1.55c-1.5,1.233 -2.917,2.167 -4.25,2.8c0.467,0.133 0.85,0.2 1.15,0.2c1.1,-0 2.417,-0.85 3.95,-2.55c0.6,0.4 1.117,0.717 1.55,0.95l0.15,-1.75c-0.333,-0.267 -0.583,-0.45 -0.75,-0.55c0.4,-0.867 0.6,-1.55 0.6,-2.05Zm-1.2,1.05c-0,0.133 -0.05,0.3 -0.15,0.5c-0.867,-0.433 -1.3,-0.85 -1.3,-1.25c0.067,-0.2 0.2,-0.317 0.4,-0.35c0.7,0.1 1.05,0.467 1.05,1.1Z"/><path d="M30.4,33.45c-0,0.167 0.1,0.367 0.3,0.6c0.2,0.2 0.317,0.367 0.35,0.5c-0.5,0.567 -0.95,1.367 -1.35,2.4c-0.467,1.1 -0.7,2.017 -0.7,2.75c-0,0.3 0.083,0.717 0.25,1.25c0.133,0.533 0.2,0.933 0.2,1.2c0,0.6 -1.2,0.9 -3.6,0.9l0,5l2.4,0c1.2,0 2.683,-1.05 4.45,-3.15c2.3,0.6 3.967,0.9 5,0.9c1.667,0 2.717,-0.6 3.15,-1.8c0.233,-0.633 0.35,-2.05 0.35,-4.25c0,-1.5 -1.167,-3.533 -3.5,-6.1c-1.6,-1.767 -3.367,-3.383 -5.3,-4.85c-0.3,0 -0.717,0.667 -1.25,2c-0.5,1.3 -0.75,2.183 -0.75,2.65Zm5.2,3.55c0.7,0.367 1.517,1.083 2.45,2.15c1,1.133 1.583,2.033 1.75,2.7l-0.4,0.45c-0.3,-0.233 -0.933,-0.417 -1.9,-0.55c-0.667,-0.133 -1.367,-0.25 -2.1,-0.35c0.4,-1.1 0.6,-1.967 0.6,-2.6c-0,-0.6 -0.133,-1.2 -0.4,-1.8Zm-5.15,2.4c0.167,-0.633 0.45,-1.217 0.85,-1.75c0.733,-0.967 1.117,-1.483 1.15,-1.55c0.533,0.233 1.017,0.617 1.45,1.15c0.5,0.567 0.75,1.133 0.75,1.7c-0,0.367 -0.25,0.7 -0.75,1c-0.433,0.233 -0.833,0.35 -1.2,0.35c-0.5,0 -1.25,-0.3 -2.25,-0.9Z" style="fill:#f00;"/><path d="M20.334,9.557l-5.1,3.6c-0.677,0.478 -0.838,1.414 -0.361,2.091c0.478,0.676 1.414,0.838 2.091,0.36l5.1,-3.6c0.676,-0.477 0.837,-1.414 0.36,-2.09c-0.477,-0.677 -1.414,-0.838 -2.09,-0.361Z"/></g></svg>