<?xml version="1.0" encoding="UTF-8" standalone="no"?><!DOCTYPE svg PUBLIC "-//W3C//DTD SVG 1.1//EN" "http://www.w3.org/Graphics/SVG/1.1/DTD/svg11.dtd"><svg width="100%" height="100%" viewBox="0 0 107 79" version="1.1" xmlns="http://www.w3.org/2000/svg" xmlns:xlink="http://www.w3.org/1999/xlink" xml:space="preserve" xmlns:serif="http://www.serif.com/" style="fill-rule:evenodd;clip-rule:evenodd;stroke-linejoin:round;stroke-miterlimit:2;"><g><path d="M79.55,61l-2.65,2.95l2.65,2.9l2.65,-2.9l-2.65,-2.95Z"/><path d="M83.362,46.088c0.159,0.924 0.238,1.595 0.238,2.012c0,2.933 -0.633,5 -1.9,6.2c-1.107,1.044 -2.891,1.594 -5.35,1.65l-1.55,-0c-0.325,0.018 -0.608,0.118 -0.85,0.3c-0.233,1.967 -1.083,4.1 -2.55,6.4c-1.633,2.6 -3.267,3.9 -4.9,3.9c-1.167,0 -2.4,-0.417 -3.7,-1.25c-1.167,-0.7 -2.183,-1.617 -3.05,-2.75c0.667,0.2 1.35,0.4 2.05,0.6c0.867,0.2 1.55,0.3 2.05,0.3c1.133,-0 2.85,-0.883 5.15,-2.65c2.367,-1.867 3.55,-3.383 3.55,-4.55c-0,-0.1 -0.3,-0.667 -0.9,-1.7c-0.7,-1.233 -1.067,-1.883 -1.1,-1.95c0.367,-0.933 0.633,-2.033 0.8,-3.3c0.8,0.9 1.55,1.417 2.25,1.55c0.165,0.047 0.665,0.08 1.5,0.1l1.25,-0c3.221,0.037 5.171,-0.43 5.85,-1.4c-0.167,-0.633 -0.583,-1.65 -1.25,-3.05c0.433,-0.867 1,-2.183 1.7,-3.95l0.712,3.538Z"/><path d="M27.8,60.7l-2.35,2.5l2.35,2.65l2.3,-2.6l2.35,2.6l2.4,-2.6l-2.4,-2.55l-2.3,2.55l-2.35,-2.55Z"/><path d="M57.25,29.45l0.6,26.55c1.3,-1.2 1.95,-4.417 1.95,-9.65l-0.15,-21.1c-1.633,2.333 -2.433,3.733 -2.4,4.2Z"/><path d="M90.1,56c1.3,-1.2 1.95,-4.417 1.95,-9.65l-0.15,-21.1c-1.633,2.333 -2.433,3.733 -2.4,4.2l0.6,26.55Z"/><path d="M31.5,50.35c-0.567,-0.633 -0.883,-1.817 -0.95,-3.55c-1.067,1.967 -1.8,3.133 -2.2,3.5c-0.467,0.5 -1.25,0.75 -2.35,0.75c-0.267,0 -0.833,-0.017 -1.7,-0.05c-0.067,-0.002 -0.134,-0.002 -0.2,-0c-0.821,-0.033 -1.571,-0.05 -2.25,-0.05l0,5l4.05,-0c0.9,-0 1.617,-0.35 2.15,-1.05c0.1,-0.133 0.533,-0.933 1.3,-2.4c0.4,0.767 0.967,1.5 1.7,2.2c0.833,0.833 1.567,1.25 2.2,1.25l2.7,-0l0,-4.9c-0.033,-0.002 -0.066,-0.002 -0.1,-0c-0.9,0.033 -1.5,0.05 -1.8,0.05c-1.2,0 -2.05,-0.25 -2.55,-0.75Z"/><path d="M80.3,32.45c0.5,-0.633 0.75,-1.333 0.75,-2.1c-0,-0.667 -0.183,-1.283 -0.55,-1.85c-0.4,-0.6 -0.883,-0.9 -1.45,-0.9c-0.8,0 -1.4,0.4 -1.8,1.2c-0.333,0.633 -0.5,1.417 -0.5,2.35c0,1.5 0.583,2.25 1.75,2.25c0.733,-0 1.333,-0.317 1.8,-0.95Zm-1.45,-0.9c-1.033,0 -1.55,-0.367 -1.55,-1.1c-0,-0.833 0.333,-1.25 1,-1.25c0.3,-0 0.667,0.183 1.1,0.55c0.5,0.4 0.75,0.75 0.75,1.05c-0,0.5 -0.433,0.75 -1.3,0.75Z"/><path d="M11.85,25.45c-0.433,0.633 -0.65,1.25 -0.65,1.85c0,0.5 0.417,1.017 1.25,1.55c-1.5,1.233 -2.917,2.167 -4.25,2.8c0.467,0.133 0.85,0.2 1.15,0.2c1.1,0 2.417,-0.85 3.95,-2.55c0.6,0.4 1.117,0.717 1.55,0.95l0.15,-1.75c-0.333,-0.267 -0.583,-0.45 -0.75,-0.55c0.4,-0.867 0.6,-1.55 0.6,-2.05c0,-1.033 -0.45,-1.55 -1.35,-1.55c-0.6,0 -1.15,0.367 -1.65,1.1Zm0.75,0.4c0.7,0.1 1.05,0.467 1.05,1.1c-0,0.133 -0.05,0.3 -0.15,0.5c-0.867,-0.433 -1.3,-0.85 -1.3,-1.25c0.067,-0.2 0.2,-0.317 0.4,-0.35Z"/><path d="M7.65,56.3c-0,0.2 0.017,0.417 0.05,0.65l1.6,19.3c0.267,-0.367 0.533,-0.917 0.8,-1.65c0.3,-0.767 0.433,-1.367 0.4,-1.8l-1.2,-17.1c0.667,-1.467 1.667,-2.2 3,-2.2l0.6,0.25c-0,1.1 0.25,2.233 0.75,3.4c0.567,1.4 1.3,2.1 2.2,2.1c1.5,0 2.25,-1.617 2.25,-4.85c1.367,1.033 2.367,1.55 3,1.55l0.75,0l0,-5c0.679,0 1.429,0.017 2.25,0.05l0,-0.05c-2.367,0 -3.967,-0.167 -4.8,-0.5c-0.6,-0.233 -1.117,-0.733 -1.55,-1.5c-0.6,-1.033 -1.3,-1.867 -2.1,-2.5c-0.367,0.4 -0.617,0.833 -0.75,1.3c0.1,0.2 0.1,0.35 -0,0.45c-1.9,0.533 -3.517,1.45 -4.85,2.75c-1.6,1.533 -2.4,3.317 -2.4,5.35Z" style="fill:#f00;"/><path d="M42.5,36.7c-0.3,-0 -0.717,0.667 -1.25,2c-0.5,1.3 -0.75,2.183 -0.75,2.65c0,0.167 0.1,0.367 0.3,0.6c0.2,0.2 0.317,0.367 0.35,0.5c-0.5,0.567 -0.95,1.367 -1.35,2.4c-0.467,1.1 -0.7,2.017 -0.7,2.75c0,0.3 0.083,0.717 0.25,1.25c0.133,0.533 0.2,0.933 0.2,1.2c-0,0.6 -1.2,0.9 -3.6,0.9l0,5l2.4,-0c1.2,-0 2.683,-1.05 4.45,-3.15c2.3,0.6 3.967,0.9 5,0.9c1.667,-0 2.717,-0.6 3.15,-1.8c0.233,-0.633 0.35,-2.05 0.35,-4.25c-0,-1.5 -1.167,-3.533 -3.5,-6.1c-1.6,-1.767 -3.367,-3.383 -5.3,-4.85Zm3,12.6c0.4,-1.1 0.6,-1.967 0.6,-2.6c0,-0.6 -0.133,-1.2 -0.4,-1.8c0.7,0.367 1.517,1.083 2.45,2.15c1,1.133 1.583,2.033 1.75,2.7l-0.4,0.45c-0.3,-0.233 -0.933,-0.417 -1.9,-0.55c-0.667,-0.133 -1.367,-0.25 -2.1,-0.35Zm-4.1,-3.75c0.733,-0.967 1.117,-1.483 1.15,-1.55c0.533,0.233 1.017,0.617 1.45,1.15c0.5,0.567 0.75,1.133 0.75,1.7c-0,0.367 -0.25,0.7 -0.75,1c-0.433,0.233 -0.833,0.35 -1.2,0.35c-0.5,-0 -1.25,-0.3 -2.25,-0.9c0.167,-0.633 0.45,-1.217 0.85,-1.75Z" style="fill:#f00;"/><path d="M46.726,56.263l-5.1,3.65c-0.674,0.482 -0.829,1.419 -0.347,2.093c0.482,0.673 1.419,0.828 2.093,0.346l5.1,-3.65c0.673,-0.481 0.828,-1.419 0.346,-2.092c-0.481,-0.674 -1.419,-0.829 -2.092,-0.347Z"/><path d="M93.628,55.011l-5.05,3.6c-0.674,0.481 -0.831,1.418 -0.351,2.092c0.481,0.675 1.418,0.832 2.092,0.351l5.05,-3.6c0.674,-0.48 0.832,-1.418 0.351,-2.092c-0.481,-0.674 -1.418,-0.831 -2.092,-0.351Z"/><path d="M68.726,15.263l-5.1,3.65c-0.674,0.482 -0.829,1.419 -0.347,2.093c0.482,0.673 1.419,0.828 2.093,0.346l5.1,-3.65c0.673,-0.481 0.828,-1.419 0.346,-2.092c-0.481,-0.674 -1.419,-0.829 -2.092,-0.347Z"/></g></svg>