<?xml version="1.0" encoding="UTF-8" standalone="no"?><!DOCTYPE svg PUBLIC "-//W3C//DTD SVG 1.1//EN" "http://www.w3.org/Graphics/SVG/1.1/DTD/svg11.dtd"><svg width="100%" height="100%" viewBox="0 0 69 78" version="1.1" xmlns="http://www.w3.org/2000/svg" xmlns:xlink="http://www.w3.org/1999/xlink" xml:space="preserve" xmlns:serif="http://www.serif.com/" style="fill-rule:evenodd;clip-rule:evenodd;stroke-linejoin:round;stroke-miterlimit:2;"><g><path d="M57.85,25.75c-1.633,2.333 -2.433,3.733 -2.4,4.2l0.6,26.55c1.3,-1.2 1.95,-4.417 1.95,-9.65l-0.15,-21.1Z"/><path d="M47.65,27.65c-0,-0.2 0.05,-0.483 0.15,-0.85c0.1,-0.4 0.15,-0.717 0.15,-0.95l-0.05,-0.55c-1.367,1 -2.433,2.717 -3.2,5.15c0.133,0.667 0.6,1.517 1.4,2.55c0.533,3.633 0.8,9.117 0.8,16.45c-0,1.433 -1.2,2.117 -3.6,2.05l-0.6,0l0,-0.05l-1.8,0l-0,0.1c-0.26,0.01 -0.543,0.027 -0.85,0.05c-1.333,0.067 -2.35,0.1 -3.05,0.1c-1.1,0 -1.933,-0.083 -2.5,-0.25c0.933,-1 1.7,-2.133 2.3,-3.4c0.733,-1.433 1.1,-2.767 1.1,-4c-0,-2.5 -0.533,-4.2 -1.6,-5.1c-0.833,0 -1.717,1.017 -2.65,3.05c-0.8,1.9 -1.583,3.8 -2.35,5.7c-0.967,2.133 -1.9,3.3 -2.8,3.5c-0.632,0.132 -1.765,0.215 -3.4,0.25l-1.4,0l0,5l5.2,0c-0,1.867 0.417,3.8 1.25,5.8c1,2.467 2.25,3.7 3.75,3.7c1.133,0 2.017,-0.833 2.65,-2.5c0.5,-1.3 0.75,-2.683 0.75,-4.15c-0,-0.4 -0.033,-0.917 -0.1,-1.55c-0.067,-0.767 -0.1,-1.283 -0.1,-1.55c1.1,0.233 2.117,0.35 3.05,0.35c0.481,-0 0.948,-0.033 1.4,-0.1l2.75,0c1.733,0 2.983,-1.033 3.75,-3.1c0.567,-1.467 0.85,-3.317 0.85,-5.55l-0,-4.6c-0,-0.867 -0.067,-2.133 -0.2,-3.8c-0.167,-1.7 -0.25,-2.983 -0.25,-3.85c0,-0.4 0.217,-1.083 0.65,-2.05c0.4,-0.967 0.6,-1.767 0.6,-2.4c0,-0.233 -0.35,-0.717 -1.05,-1.45c-0.667,-0.767 -1,-1.433 -1,-2Zm-12,33.55c-0.3,0.2 -0.517,0.3 -0.65,0.3c-1.033,-0 -1.95,-0.533 -2.75,-1.6c-0.667,-0.933 -1.117,-2.017 -1.35,-3.25c3.467,0.9 5.2,2.233 5.2,4c0,0.133 -0.15,0.317 -0.45,0.55Zm-3.95,-10.95c0.8,-1.9 1.25,-2.95 1.35,-3.15c0.533,-1.1 1.15,-2.033 1.85,-2.8c0.667,0.7 1,1.35 1,1.95c-0,1.267 -0.433,2.233 -1.3,2.9c-0.6,0.433 -1.567,0.8 -2.9,1.1Z"/><path d="M9.55,32.75c0.467,0.133 0.85,0.2 1.15,0.2c1.1,0 2.417,-0.85 3.95,-2.55c0.6,0.4 1.117,0.717 1.55,0.95l0.15,-1.75c-0.333,-0.267 -0.583,-0.45 -0.75,-0.55c0.4,-0.867 0.6,-1.55 0.6,-2.05c0,-1.033 -0.45,-1.55 -1.35,-1.55c-0.6,0 -1.15,0.367 -1.65,1.1c-0.433,0.633 -0.65,1.25 -0.65,1.85c-0,0.5 0.417,1.017 1.25,1.55c-1.5,1.233 -2.917,2.167 -4.25,2.8Zm4,-5.45c0.067,-0.2 0.2,-0.317 0.4,-0.35c0.7,0.1 1.05,0.467 1.05,1.1c-0,0.133 -0.05,0.3 -0.15,0.5c-0.867,-0.433 -1.3,-0.85 -1.3,-1.25Z"/><path d="M42.85,25.45c0.9,-0.467 1.35,-1.117 1.35,-1.95c0,-0.6 -0.2,-1.517 -0.6,-2.75c-0.367,-1.2 -0.55,-2.1 -0.55,-2.7c-0.8,0.567 -1.2,1.083 -1.2,1.55c0,0.567 0.2,1.383 0.6,2.45c0.367,1.1 0.55,1.917 0.55,2.45c0,0.367 -0.05,0.683 -0.15,0.95Z"/><path d="M12.2,47.45c-1.433,1.633 -2.15,3.567 -2.15,5.8c-0,0.8 0.833,1.2 2.5,1.2c1.533,0 2.633,-0.15 3.3,-0.45c0.867,-0.4 1.733,-1.283 2.6,-2.65c0.367,1.1 0.75,2.183 1.15,3.25c0.567,1.233 1.317,1.85 2.25,1.85l1.85,0l0,-5l0.45,0c-1.564,-0.035 -2.464,-0.119 -2.7,-0.25c-0.967,-0.467 -1.767,-2.517 -2.4,-6.15c-0.533,-2.833 -0.8,-5.233 -0.8,-7.2c-1,1.4 -1.483,2.3 -1.45,2.7l0.25,3.35c-2.267,1.3 -3.883,2.483 -4.85,3.55Zm5.05,-1.15c0.267,1.1 0.4,1.75 0.4,1.95c-0,0.3 -0.4,0.567 -1.2,0.8c-0.667,0.2 -1.2,0.3 -1.6,0.3c-0.467,0 -1.067,-0.133 -1.8,-0.4c1.533,-1.133 2.933,-2.017 4.2,-2.65Z" style="fill:#f00;"/><path d="M59.176,55.763l-5.1,3.65c-0.674,0.482 -0.829,1.419 -0.347,2.093c0.482,0.673 1.419,0.828 2.093,0.346l5.1,-3.65c0.673,-0.481 0.828,-1.419 0.346,-2.092c-0.481,-0.674 -1.419,-0.829 -2.092,-0.347Z"/><path d="M33.576,19.163l-5.1,3.65c-0.674,0.482 -0.829,1.419 -0.347,2.093c0.482,0.673 1.419,0.828 2.093,0.346l5.1,-3.65c0.673,-0.481 0.828,-1.419 0.346,-2.092c-0.481,-0.674 -1.419,-0.829 -2.092,-0.347Z"/></g></svg>