<?xml version="1.0" encoding="UTF-8" standalone="no"?><!DOCTYPE svg PUBLIC "-//W3C//DTD SVG 1.1//EN" "http://www.w3.org/Graphics/SVG/1.1/DTD/svg11.dtd"><svg width="100%" height="100%" viewBox="0 0 71 78" version="1.1" xmlns="http://www.w3.org/2000/svg" xmlns:xlink="http://www.w3.org/1999/xlink" xml:space="preserve" xmlns:serif="http://www.serif.com/" style="fill-rule:evenodd;clip-rule:evenodd;stroke-linejoin:round;stroke-miterlimit:2;"><g><path d="M49.1,26.95c-1.633,2.333 -2.433,3.733 -2.4,4.2l0.6,26.55c1.3,-1.2 1.95,-4.417 1.95,-9.65l-0.15,-21.1Z"/><path d="M39.2,27.05l-0.05,-0.55c-1.367,1 -2.433,2.717 -3.2,5.15c0.133,0.667 0.6,1.517 1.4,2.55c0.533,3.633 0.8,9.117 0.8,16.45c-0,1.433 -1.2,2.117 -3.6,2.05l-0.3,0l-0.95,-0.05l-1.15,-0l-0,5l3.4,-0c1.733,-0 2.983,-1.033 3.75,-3.1c0.567,-1.467 0.85,-3.317 0.85,-5.55l-0,-4.6c-0,-0.867 -0.067,-2.133 -0.2,-3.8c-0.167,-1.7 -0.25,-2.983 -0.25,-3.85c0,-0.4 0.217,-1.083 0.65,-2.05c0.4,-0.967 0.6,-1.767 0.6,-2.4c0,-0.233 -0.35,-0.717 -1.05,-1.45c-0.667,-0.767 -1,-1.433 -1,-2c-0,-0.2 0.05,-0.483 0.15,-0.85c0.1,-0.4 0.15,-0.717 0.15,-0.95Z"/><path d="M23.45,28.7c-0.333,0.633 -0.5,1.417 -0.5,2.35c0,1.5 0.583,2.25 1.75,2.25c0.733,-0 1.333,-0.317 1.8,-0.95c0.5,-0.633 0.75,-1.333 0.75,-2.1c0,-0.667 -0.183,-1.283 -0.55,-1.85c-0.4,-0.6 -0.883,-0.9 -1.45,-0.9c-0.8,0 -1.4,0.4 -1.8,1.2Zm2.15,0.95c0.5,0.4 0.75,0.75 0.75,1.05c0,0.5 -0.433,0.75 -1.3,0.75c-1.033,0 -1.55,-0.367 -1.55,-1.1c0,-0.833 0.333,-1.25 1,-1.25c0.3,0 0.667,0.183 1.1,0.55Z"/><path d="M28.65,62.4l-2.3,2.55l-2.35,-2.55l-2.35,2.5l2.35,2.65l2.3,-2.6l2.35,2.6l2.4,-2.6l-2.4,-2.55Z" style="fill:#f00;"/><path d="M33.3,52.65l0.95,0.05l0,-0.05l-0.95,-0Z" style="fill:#f00;"/><path d="M11.65,45.1c-2.267,1.3 -3.883,2.483 -4.85,3.55c-1.433,1.633 -2.15,3.567 -2.15,5.8c-0,0.8 0.833,1.2 2.5,1.2c1.533,-0 2.633,-0.15 3.3,-0.45c0.867,-0.4 1.733,-1.283 2.6,-2.65c0.367,1.1 0.75,2.183 1.15,3.25c0.567,1.233 1.317,1.85 2.25,1.85l5.65,-0c0.9,-0 1.617,-0.35 2.15,-1.05c0.1,-0.133 0.533,-0.933 1.3,-2.4c0.4,0.767 0.967,1.5 1.7,2.2c0.833,0.833 1.567,1.25 2.2,1.25l2.7,-0l-0,-4.9c-0.033,-0.002 -0.066,-0.002 -0.1,-0c-0.9,0.033 -1.5,0.05 -1.8,0.05c-1.2,-0 -2.05,-0.25 -2.55,-0.75c-0.567,-0.633 -0.883,-1.817 -0.95,-3.55c-1.067,1.967 -1.8,3.133 -2.2,3.5c-0.467,0.5 -1.25,0.75 -2.35,0.75c-0.267,-0 -0.833,-0.017 -1.7,-0.05c-0.101,-0.004 -0.201,-0.004 -0.3,0l0,-0.05c-2.467,-0 -3.85,-0.083 -4.15,-0.25c-0.967,-0.467 -1.767,-2.517 -2.4,-6.15c-0.533,-2.833 -0.8,-5.233 -0.8,-7.2c-1,1.4 -1.483,2.3 -1.45,2.7l0.25,3.35Zm0.2,2.4c0.267,1.1 0.4,1.75 0.4,1.95c0,0.3 -0.4,0.567 -1.2,0.8c-0.667,0.2 -1.2,0.3 -1.6,0.3c-0.467,-0 -1.067,-0.133 -1.8,-0.4c1.533,-1.133 2.933,-2.017 4.2,-2.65Z" style="fill:#f00;"/><path d="M11.884,55.757l-5.1,3.6c-0.677,0.478 -0.838,1.414 -0.361,2.091c0.478,0.676 1.414,0.838 2.091,0.36l5.1,-3.6c0.676,-0.477 0.837,-1.414 0.36,-2.09c-0.477,-0.677 -1.414,-0.838 -2.09,-0.361Z"/><path d="M50.434,61.957l-5.1,3.6c-0.677,0.478 -0.838,1.414 -0.361,2.091c0.478,0.676 1.414,0.838 2.091,0.36l5.1,-3.6c0.676,-0.477 0.837,-1.414 0.36,-2.09c-0.477,-0.677 -1.414,-0.838 -2.09,-0.361Z"/><path d="M39.884,14.757l-5.1,3.6c-0.677,0.478 -0.838,1.414 -0.361,2.091c0.478,0.676 1.414,0.838 2.091,0.36l5.1,-3.6c0.676,-0.477 0.837,-1.414 0.36,-2.09c-0.477,-0.677 -1.414,-0.838 -2.09,-0.361Z"/></g></svg>