<?xml version="1.0" encoding="UTF-8" standalone="no"?><!DOCTYPE svg PUBLIC "-//W3C//DTD SVG 1.1//EN" "http://www.w3.org/Graphics/SVG/1.1/DTD/svg11.dtd"><svg width="100%" height="100%" viewBox="0 0 76 73" version="1.1" xmlns="http://www.w3.org/2000/svg" xmlns:xlink="http://www.w3.org/1999/xlink" xml:space="preserve" xmlns:serif="http://www.serif.com/" style="fill-rule:evenodd;clip-rule:evenodd;stroke-linejoin:round;stroke-miterlimit:2;"><g><path d="M61.8,59.3c0.167,0 0.417,0.067 0.75,0.2c0.367,0.1 0.633,0.15 0.8,0.15c0.367,-0 0.55,-0.4 0.55,-1.2c-0,-0.3 -0.117,-0.567 -0.35,-0.8c-0.233,-0.233 -0.483,-0.35 -0.75,-0.35c-0.567,0 -1.417,0.5 -2.55,1.5c-1.167,1.033 -1.75,1.85 -1.75,2.45c0,0.2 0.133,0.55 0.4,1.05c0.3,0.5 0.45,0.883 0.45,1.15c0,0.133 -0.05,0.367 -0.15,0.7c-0.1,0.3 -0.15,0.533 -0.15,0.7c-0,0.167 0.017,0.367 0.05,0.6c0.867,-0.733 2.067,-1.333 3.6,-1.8c1.333,-0.4 2.267,-0.983 2.8,-1.75l-0.2,-0c-2.133,-0 -3.033,0.017 -2.7,0.05c-1,-0.067 -1.833,-0.367 -2.5,-0.9c0.4,-1.167 0.967,-1.75 1.7,-1.75Z"/><path d="M62.55,23.3c-1.633,2.333 -2.433,3.733 -2.4,4.2l0.6,26.55c1.3,-1.2 1.95,-4.417 1.95,-9.65l-0.15,-21.1Z"/><path d="M23.65,23.3c-1.633,2.333 -2.433,3.733 -2.4,4.2l0.6,26.55c1.3,-1.2 1.95,-4.417 1.95,-9.65l-0.15,-21.1Z"/><path d="M45.6,45.7c-0.967,1.567 -1.833,2.517 -2.6,2.85c-0.467,0.2 -1.817,0.3 -4.05,0.3l0,0.15c-0.746,-0.023 -1.196,-0.056 -1.35,-0.1c-0.7,-0.133 -1.45,-0.65 -2.25,-1.55c-0.167,1.267 -0.433,2.367 -0.8,3.3c0.033,0.067 0.4,0.717 1.1,1.95c0.6,1.033 0.9,1.6 0.9,1.7c-0,1.167 -1.183,2.683 -3.55,4.55c-2.3,1.767 -4.017,2.65 -5.15,2.65c-0.5,0 -1.183,-0.1 -2.05,-0.3c-0.7,-0.2 -1.383,-0.4 -2.05,-0.6c0.867,1.133 1.883,2.05 3.05,2.75c1.3,0.833 2.533,1.25 3.7,1.25c1.633,0 3.267,-1.3 4.9,-3.9c1.467,-2.3 2.317,-4.433 2.55,-6.4c0.267,-0.2 0.583,-0.3 0.95,-0.3l1.45,0l0,-0.15l2.2,0c0.833,0 1.567,-0.467 2.2,-1.4c0.467,-0.867 0.933,-1.717 1.4,-2.55c1.333,0.967 2.067,1.483 2.2,1.55c0.933,0.567 1.767,0.85 2.5,0.85c1.167,0 2.05,-0.6 2.65,-1.8c0.467,-1 0.7,-2.2 0.7,-3.6c0,-1.133 -0.367,-2.567 -1.1,-4.3c-0.833,-1.933 -1.683,-2.9 -2.55,-2.9c-0.8,-0 -1.667,0.683 -2.6,2.05c-0.8,1.3 -1.583,2.617 -2.35,3.95Zm5.45,-0.65c0.167,0.267 0.433,0.85 0.8,1.75l0,1.1l-0.8,0.25c-0.467,-0 -1.617,-0.667 -3.45,-2c0.8,-1.633 1.383,-2.45 1.75,-2.45c0.667,-0 1.233,0.45 1.7,1.35Z"/><path d="M50.05,21.7c-0.4,-0.6 -0.883,-0.9 -1.45,-0.9c-0.8,0 -1.4,0.4 -1.8,1.2c-0.333,0.633 -0.5,1.417 -0.5,2.35c-0,1.5 0.583,2.25 1.75,2.25c0.733,0 1.333,-0.317 1.8,-0.95c0.5,-0.633 0.75,-1.333 0.75,-2.1c0,-0.667 -0.183,-1.283 -0.55,-1.85Zm-0.35,2.3c0,0.5 -0.433,0.75 -1.3,0.75c-1.033,0 -1.55,-0.367 -1.55,-1.1c0,-0.833 0.333,-1.25 1,-1.25c0.3,-0 0.667,0.183 1.1,0.55c0.5,0.4 0.75,0.75 0.75,1.05Z"/><path d="M22.1,13.95c-0.567,-0 -1.417,0.517 -2.55,1.55c-1.167,1 -1.75,1.8 -1.75,2.4c-0,0.233 0.133,0.583 0.4,1.05c0.3,0.5 0.45,0.883 0.45,1.15c-0,0.167 -0.05,0.4 -0.15,0.7c-0.1,0.333 -0.15,0.583 -0.15,0.75c0,0.133 0.017,0.333 0.05,0.6c1.567,-1.4 2.933,-2.1 4.1,-2.1c0.967,0 1.483,-0.017 1.55,-0.05c0.233,-0.467 0.483,-0.95 0.75,-1.45c-0.233,0 -0.6,0.017 -1.1,0.05c-0.5,0.033 -0.867,0.05 -1.1,0.05c-1.333,-0 -2.4,-0.317 -3.2,-0.95c0.4,-1.167 0.967,-1.75 1.7,-1.75c0.167,-0 0.417,0.067 0.75,0.2c0.367,0.133 0.633,0.2 0.8,0.2c0.367,0 0.55,-0.4 0.55,-1.2c0,-0.3 -0.117,-0.567 -0.35,-0.8c-0.233,-0.267 -0.483,-0.4 -0.75,-0.4Z"/><path d="M12.75,16.25c-0.3,-0.367 -0.633,-0.55 -1,-0.55c-0.667,-0 -1.267,0.35 -1.8,1.05c-0.533,0.733 -0.8,1.433 -0.8,2.1c-0,0.767 0.467,1.45 1.4,2.05c-0.9,1 -1.767,1.633 -2.6,1.9c0.067,-0.933 0.1,-1.5 0.1,-1.7c-0,-1.6 -0.483,-2.4 -1.45,-2.4c-0.533,-0 -0.967,0.267 -1.3,0.8c-0.3,0.467 -0.45,0.983 -0.45,1.55c0,0.333 0.067,0.717 0.2,1.15c0.133,-1.1 0.483,-1.65 1.05,-1.65c0.3,0 0.55,0.117 0.75,0.35c0.2,0.267 0.3,0.55 0.3,0.85c-0,0.467 -0.3,1.4 -0.9,2.8c1.133,-0.233 2.083,-0.6 2.85,-1.1c0.6,-0.4 1.35,-1.083 2.25,-2.05c0.433,0.333 1.067,0.75 1.9,1.25c0.033,-0.833 0.05,-1.283 0.05,-1.35c-0,-0.533 -0.267,-1.017 -0.8,-1.45c0.433,-1.067 0.65,-1.883 0.65,-2.45c-0,-0.4 -0.133,-0.783 -0.4,-1.15Zm-1.05,2l-0.1,0.9c-0.9,-0.667 -1.35,-1.183 -1.35,-1.55l0.2,-0.35c0.167,-0.1 0.283,-0.15 0.35,-0.15c0.6,0 0.9,0.383 0.9,1.15Z"/><path d="M12.4,40.65c-1.133,-1.033 -1.95,-1.883 -2.45,-2.55c-0.667,1.8 -1,3.167 -1,4.1c0,0.167 0.033,0.367 0.1,0.6c0.067,0.267 0.1,0.45 0.1,0.55c-1.2,2.7 -1.8,4.883 -1.8,6.55c0,2.733 1,4.1 3,4.1c1.633,0 2.917,-0.817 3.85,-2.45c0.767,-1.4 1.15,-3.067 1.15,-5c0,-1.4 -0.3,-2.6 -0.9,-3.6c-0.367,-0.633 -1.05,-1.4 -2.05,-2.3Zm0.1,8.3c-0.767,0.4 -1.35,0.6 -1.75,0.6c-1.067,0 -1.6,-0.733 -1.6,-2.2c-0,-1.133 0.4,-2.15 1.2,-3.05c2.267,1.833 3.4,2.967 3.4,3.4c0,0.367 -0.417,0.783 -1.25,1.25Z" style="fill:#f00;"/><path d="M12.55,34.6l2.35,-2.6l-2.35,-2.5l-2.3,2.55l2.3,2.55Z" style="fill:#f00;"/><path d="M7.9,34.6l2.35,-2.55l-2.3,-2.55l-2.4,2.5l2.35,2.6Z" style="fill:#f00;"/><path d="M64.184,65.257l-5.1,3.6c-0.677,0.478 -0.838,1.414 -0.361,2.091c0.478,0.676 1.414,0.838 2.091,0.36l5.1,-3.6c0.676,-0.477 0.837,-1.414 0.36,-2.09c-0.477,-0.677 -1.414,-0.838 -2.09,-0.361Z"/><path d="M36.184,12.357l-5.1,3.6c-0.677,0.478 -0.838,1.414 -0.361,2.091c0.478,0.676 1.414,0.838 2.091,0.36l5.1,-3.6c0.676,-0.477 0.837,-1.414 0.36,-2.09c-0.477,-0.677 -1.414,-0.838 -2.09,-0.361Z"/><path d="M23.084,2.357l-5.1,3.6c-0.677,0.478 -0.838,1.414 -0.361,2.091c0.478,0.676 1.414,0.838 2.091,0.36l5.1,-3.6c0.676,-0.477 0.837,-1.414 0.36,-2.09c-0.477,-0.677 -1.414,-0.838 -2.09,-0.361Z"/></g></svg>