<?xml version="1.0" encoding="UTF-8" standalone="no"?><!DOCTYPE svg PUBLIC "-//W3C//DTD SVG 1.1//EN" "http://www.w3.org/Graphics/SVG/1.1/DTD/svg11.dtd"><svg width="100%" height="100%" viewBox="0 0 96 69" version="1.1" xmlns="http://www.w3.org/2000/svg" xmlns:xlink="http://www.w3.org/1999/xlink" xml:space="preserve" xmlns:serif="http://www.serif.com/" style="fill-rule:evenodd;clip-rule:evenodd;stroke-linejoin:round;stroke-miterlimit:2;"><g><path d="M83,16.8c-1.633,2.333 -2.433,3.733 -2.4,4.2l0.6,26.55c1.3,-1.2 1.95,-4.417 1.95,-9.65l-0.15,-21.1Z"/><path d="M73.75,34.1c-0.7,1.767 -1.267,3.083 -1.7,3.95c0.667,1.4 1.083,2.417 1.25,3.05c-0.668,0.955 -2.568,1.422 -5.7,1.4l-1.7,0l-0,5l1.15,0c2.667,0 4.583,-0.55 5.75,-1.65c1.267,-1.2 1.9,-3.267 1.9,-6.2c0,-0.833 -0.317,-2.683 -0.95,-5.55Z"/><path d="M7.8,21.15c-0,6.733 0.033,11.05 0.1,12.95c0.233,6.533 0.817,10.467 1.75,11.8c0.767,1.067 1.833,1.6 3.2,1.6l3.6,-0l0,-0.15l-1.75,-0l0,-4.95c-1.953,-0.206 -3.27,-0.806 -3.95,-1.8c-0.733,-1.067 -1.1,-3.333 -1.1,-6.8l-0,-16.15c-0.467,0.5 -0.917,1 -1.35,1.5c-0.333,0.5 -0.5,1.167 -0.5,2Z"/><path d="M71.55,28.75l2.35,2.55l2.35,-2.6l-2.35,-2.5l-2.3,2.55l-2.35,-2.55l-2.3,2.5l2.3,2.6l2.3,-2.55Z"/><path d="M71.7,26l2.35,-2.6l-2.35,-2.55l-2.3,2.55l2.3,2.6Z"/><path d="M68.85,11.6c-0.333,0.633 -0.5,1.417 -0.5,2.35c0,1.5 0.583,2.25 1.75,2.25c0.733,-0 1.333,-0.317 1.8,-0.95c0.5,-0.633 0.75,-1.333 0.75,-2.1c-0,-0.667 -0.183,-1.283 -0.55,-1.85c-0.4,-0.6 -0.883,-0.9 -1.45,-0.9c-0.8,0 -1.4,0.4 -1.8,1.2Zm0.05,1.65c-0,-0.833 0.333,-1.25 1,-1.25c0.3,0 0.667,0.183 1.1,0.55c0.5,0.4 0.75,0.75 0.75,1.05c0,0.5 -0.433,0.75 -1.3,0.75c-1.033,-0 -1.55,-0.367 -1.55,-1.1Z"/><path d="M39.6,11.85c-0.433,0.633 -0.65,1.25 -0.65,1.85c0,0.5 0.417,1.017 1.25,1.55c-1.5,1.233 -2.917,2.167 -4.25,2.8c0.467,0.133 0.85,0.2 1.15,0.2c1.1,0 2.417,-0.85 3.95,-2.55c0.6,0.4 1.117,0.717 1.55,0.95l0.15,-1.75c-0.333,-0.267 -0.583,-0.45 -0.75,-0.55c0.4,-0.867 0.6,-1.55 0.6,-2.05c0,-1.033 -0.45,-1.55 -1.35,-1.55c-0.6,0 -1.15,0.367 -1.65,1.1Zm1.8,1.5c-0,0.133 -0.05,0.3 -0.15,0.5c-0.867,-0.433 -1.3,-0.85 -1.3,-1.25c0.067,-0.2 0.2,-0.317 0.4,-0.35c0.7,0.1 1.05,0.467 1.05,1.1Z"/><path d="M59.1,10.35c-0.6,-0 -1.15,0.367 -1.65,1.1c-0.433,0.633 -0.65,1.25 -0.65,1.85c-0,0.5 0.417,1.017 1.25,1.55c-1.5,1.233 -2.917,2.167 -4.25,2.8c0.467,0.133 0.85,0.2 1.15,0.2c1.1,-0 2.417,-0.85 3.95,-2.55c0.6,0.4 1.117,0.717 1.55,0.95l0.15,-1.75c-0.333,-0.267 -0.583,-0.45 -0.75,-0.55c0.4,-0.867 0.6,-1.55 0.6,-2.05c0,-1.033 -0.45,-1.55 -1.35,-1.55Zm0,3.1c-0.867,-0.433 -1.3,-0.85 -1.3,-1.25c0.067,-0.2 0.2,-0.317 0.4,-0.35c0.7,0.1 1.05,0.467 1.05,1.1c0,0.133 -0.05,0.3 -0.15,0.5Z"/><path d="M67.6,42.5l0,-0.15c-2.167,-0 -3.8,-0.483 -4.9,-1.45c-0.4,-0.333 -1.033,-1.233 -1.9,-2.7c-0.567,-0.967 -1.3,-1.45 -2.2,-1.45c-0.733,0 -1.7,0.833 -2.9,2.5c-1.3,1.733 -2.3,2.7 -3,2.9c-0.533,0.133 -1.767,0.2 -3.7,0.2l0,0.25c-0.259,0.01 -0.543,0.027 -0.85,0.05c-1.333,0.067 -2.35,0.1 -3.05,0.1c-1.1,0 -1.933,-0.083 -2.5,-0.25c0.933,-1 1.7,-2.133 2.3,-3.4c0.733,-1.433 1.1,-2.767 1.1,-4c0,-2.5 -0.533,-4.2 -1.6,-5.1c-0.833,0 -1.717,1.017 -2.65,3.05c-0.8,1.9 -1.583,3.8 -2.35,5.7c-0.967,2.133 -1.9,3.3 -2.8,3.5c-0.62,0.129 -1.72,0.196 -3.3,0.2l-0,-0.1c-2.167,0 -3.8,-0.483 -4.9,-1.45c-0.4,-0.333 -1.033,-1.233 -1.9,-2.7c-0.567,-0.967 -1.3,-1.45 -2.2,-1.45c-0.733,0 -1.7,0.833 -2.9,2.5c-1.3,1.733 -2.3,2.7 -3,2.9c-0.533,0.133 -1.767,0.2 -3.7,0.2l0,5l3.8,0c0.4,0 0.783,-0.233 1.15,-0.7c0.3,-0.433 0.583,-0.85 0.85,-1.25c1.9,2.067 3.7,3.1 5.4,3.1c0.7,0 1.167,-0.25 1.4,-0.75c0.367,-0.733 0.633,-1.167 0.8,-1.3c0.933,0.6 1.6,0.9 2,0.9l1.7,0l-0,0.15l5.2,0c-0,1.867 0.417,3.8 1.25,5.8c1,2.467 2.25,3.7 3.75,3.7c1.133,0 2.017,-0.833 2.65,-2.5c0.5,-1.3 0.75,-2.683 0.75,-4.15c-0,-0.4 -0.033,-0.917 -0.1,-1.55c-0.067,-0.767 -0.1,-1.283 -0.1,-1.55c1.1,0.233 2.117,0.35 3.05,0.35c0.761,0 1.477,-0.083 2.15,-0.25l2.4,0c0.4,0 0.783,-0.233 1.15,-0.7c0.3,-0.433 0.583,-0.85 0.85,-1.25c1.9,2.067 3.7,3.1 5.4,3.1c0.7,0 1.167,-0.25 1.4,-0.75c0.367,-0.733 0.633,-1.167 0.8,-1.3c0.933,0.6 1.6,0.9 2,0.9l1.5,0l-0,-4.85l1.7,0Zm-24.5,10.05c-1.033,0 -1.95,-0.533 -2.75,-1.6c-0.667,-0.933 -1.117,-2.017 -1.35,-3.25c3.467,0.9 5.2,2.233 5.2,4c0,0.133 -0.15,0.317 -0.45,0.55c-0.3,0.2 -0.517,0.3 -0.65,0.3Zm16.9,-8.5c-0.633,-0.267 -1.3,-0.65 -2,-1.15c-0.933,-0.667 -1.4,-1.2 -1.4,-1.6c0,-0.267 0.6,-1.033 1.8,-2.3c0.467,0.6 0.833,1.35 1.1,2.25c0.333,1.2 0.5,1.833 0.5,1.9l0,0.9Zm-36.3,-1.15c-0.933,-0.667 -1.4,-1.2 -1.4,-1.6c-0,-0.267 0.6,-1.033 1.8,-2.3c0.467,0.6 0.833,1.35 1.1,2.25c0.333,1.2 0.5,1.833 0.5,1.9l0,0.9c-0.633,-0.267 -1.3,-0.65 -2,-1.15Zm20.3,-5.6c0,1.267 -0.433,2.233 -1.3,2.9c-0.6,0.433 -1.567,0.8 -2.9,1.1c0.8,-1.9 1.25,-2.95 1.35,-3.15c0.533,-1.1 1.15,-2.033 1.85,-2.8c0.667,0.7 1,1.35 1,1.95Z" style="fill:#f00;"/><path d="M84.326,47.863l-5.1,3.65c-0.674,0.482 -0.829,1.419 -0.347,2.093c0.482,0.673 1.419,0.828 2.093,0.346l5.1,-3.65c0.673,-0.481 0.828,-1.419 0.346,-2.092c-0.481,-0.674 -1.419,-0.829 -2.092,-0.347Z"/><path d="M18.184,6.857l-5.1,3.6c-0.677,0.478 -0.838,1.414 -0.361,2.091c0.478,0.676 1.414,0.838 2.091,0.36l5.1,-3.6c0.676,-0.477 0.837,-1.414 0.36,-2.09c-0.477,-0.677 -1.414,-0.838 -2.09,-0.361Z"/></g></svg>