<?xml version="1.0" encoding="UTF-8" standalone="no"?><!DOCTYPE svg PUBLIC "-//W3C//DTD SVG 1.1//EN" "http://www.w3.org/Graphics/SVG/1.1/DTD/svg11.dtd"><svg width="100%" height="100%" viewBox="0 0 90 79" version="1.1" xmlns="http://www.w3.org/2000/svg" xmlns:xlink="http://www.w3.org/1999/xlink" xml:space="preserve" xmlns:serif="http://www.serif.com/" style="fill-rule:evenodd;clip-rule:evenodd;stroke-linejoin:round;stroke-miterlimit:2;"><g><path d="M12.6,60l-2.3,2.5l2.3,2.6l2.35,-2.55l-2.35,-2.55Z"/><path d="M73.1,60l-2.3,2.5l2.3,2.6l2.35,-2.55l-2.35,-2.55Z"/><path d="M17.25,60l-2.3,2.55l2.3,2.55l2.35,-2.6l-2.35,-2.5Z"/><path d="M77.75,60l-2.3,2.55l2.3,2.55l2.35,-2.6l-2.35,-2.5Z"/><path d="M32.55,46.5c1.433,1.267 2.15,2.583 2.15,3.95c0,0.533 -0.8,0.983 -2.4,1.35c-1.233,0.3 -2.283,0.45 -3.15,0.45c-1.2,-0 -2.4,-0.367 -3.6,-1.1c-0.133,1.8 -0.2,2.783 -0.2,2.95c0,1.4 0.417,2.283 1.25,2.65c0.433,0.2 1.417,0.3 2.95,0.3c1.967,0 3.467,-0.633 4.5,-1.9c1,-1.233 1.5,-2.933 1.5,-5.1c-0,-2.633 -0.567,-4.967 -1.7,-7c-1.233,-2.2 -2.933,-3.7 -5.1,-4.5c-0.167,0.767 -0.233,1.65 -0.2,2.65l-0,3.55c1.267,0 2.6,0.583 4,1.75Z"/><path d="M3,27.65c-0.333,0.5 -0.5,1.167 -0.5,2c0,6.733 0.033,11.05 0.1,12.95c0.233,6.533 0.817,10.467 1.75,11.8c0.767,1.067 1.833,1.6 3.2,1.6l3.6,-0l-0,-0.05c2.279,-0.073 3.946,-0.606 5,-1.6c1.267,-1.2 1.9,-3.267 1.9,-6.2c-0,-0.833 -0.317,-2.683 -0.95,-5.55c-0.7,1.767 -1.267,3.083 -1.7,3.95c0.667,1.4 1.083,2.417 1.25,3.05c-0.654,0.935 -2.487,1.401 -5.5,1.4c-2.933,-0 -4.833,-0.633 -5.7,-1.9c-0.733,-1.067 -1.1,-3.333 -1.1,-6.8l0,-16.15c-0.467,0.5 -0.917,1 -1.35,1.5Z"/><path d="M69.75,51l0,5l1.15,0c2.667,0 4.583,-0.55 5.75,-1.65c1.267,-1.2 1.9,-3.267 1.9,-6.2c-0,-0.833 -0.317,-2.683 -0.95,-5.55c-0.7,1.767 -1.267,3.083 -1.7,3.95c0.667,1.4 1.083,2.417 1.25,3.05c-0.65,0.929 -2.467,1.396 -5.45,1.4l-1.95,0Z"/><path d="M48,46.25c-0.833,0 -1.7,0.95 -2.6,2.85c-0.8,1.733 -1.2,3.15 -1.2,4.25c0,1.333 0.583,2.183 1.75,2.55c1.067,0.167 2.15,0.35 3.25,0.55c-1.267,2.1 -2.6,3.633 -4,4.6c-1.533,1.1 -3.35,1.65 -5.45,1.65c-1.133,-0 -2.783,-0.1 -4.95,-0.3c2,2.2 4.333,3.3 7,3.3c2.3,-0 4.267,-1.05 5.9,-3.15c1.133,-1.467 2.233,-3.65 3.3,-6.55l3.4,-0l-0,-4.9c-0.557,0.072 -1.124,0.105 -1.7,0.1c-0.493,-0.005 -0.993,-0.039 -1.5,-0.1c-0.433,-0.967 -0.85,-1.933 -1.25,-2.9c-0.633,-1.3 -1.283,-1.95 -1.95,-1.95Zm-1.05,3.8c0.733,0.367 1.183,0.683 1.35,0.95c0.167,0.267 0.333,0.833 0.5,1.7c-0.667,-0 -1.467,-0.083 -2.4,-0.25c-0,-0.4 -0.083,-0.65 -0.25,-0.75c0.3,-0.6 0.567,-1.15 0.8,-1.65Z"/><path d="M13.85,32.4l-0.3,0.15c-0,1.433 -0.3,2.15 -0.9,2.15c-0.3,-0 -0.55,-0.467 -0.75,-1.4l-0.2,0.05c-0.133,0.733 -0.25,1.217 -0.35,1.45c-0.2,0.6 -0.483,0.9 -0.85,0.9c-0.333,-0 -0.5,-0.533 -0.5,-1.6l-0.3,0.05c-0.2,0.767 -0.3,1.25 -0.3,1.45c-0,0.4 0.083,0.75 0.25,1.05c0.2,0.367 0.467,0.55 0.8,0.55c0.333,0 0.633,-0.133 0.9,-0.4c0.267,-0.233 0.433,-0.517 0.5,-0.85c0.233,0.2 0.5,0.3 0.8,0.3c0.933,0 1.4,-0.817 1.4,-2.45c-0,-0.433 -0.067,-0.9 -0.2,-1.4Z"/><path d="M58.65,25l0.15,-1.75c-0.333,-0.267 -0.583,-0.45 -0.75,-0.55c0.4,-0.867 0.6,-1.55 0.6,-2.05c-0,-1.033 -0.45,-1.55 -1.35,-1.55c-0.6,0 -1.15,0.367 -1.65,1.1c-0.433,0.633 -0.65,1.25 -0.65,1.85c0,0.5 0.417,1.017 1.25,1.55c-1.5,1.233 -2.917,2.167 -4.25,2.8c0.467,0.133 0.85,0.2 1.15,0.2c1.1,0 2.417,-0.85 3.95,-2.55c0.6,0.4 1.117,0.717 1.55,0.95Zm-2.65,-4.05c0.067,-0.2 0.2,-0.317 0.4,-0.35c0.7,0.1 1.05,0.467 1.05,1.1c0,0.133 -0.05,0.3 -0.15,0.5c-0.867,-0.433 -1.3,-0.85 -1.3,-1.25Z"/><path d="M52.7,51l0,0.2c0.576,0.005 1.143,-0.028 1.7,-0.1l-0,4.9l3.5,0c-0,1.867 0.417,3.8 1.25,5.8c1,2.467 2.25,3.7 3.75,3.7c1.133,0 2.017,-0.833 2.65,-2.5c0.5,-1.3 0.75,-2.683 0.75,-4.15c-0,-0.4 -0.033,-0.917 -0.1,-1.55c-0.067,-0.767 -0.1,-1.283 -0.1,-1.55c1.1,0.233 2.117,0.35 3.05,0.35c0.481,0 0.948,-0.033 1.4,-0.1l-0.8,-0l-0,-4.9c-0.217,0.015 -0.451,0.031 -0.7,0.05c-1.333,0.067 -2.35,0.1 -3.05,0.1c-1.1,-0 -1.933,-0.083 -2.5,-0.25c0.933,-1 1.7,-2.133 2.3,-3.4c0.733,-1.433 1.1,-2.767 1.1,-4c-0,-2.5 -0.533,-4.2 -1.6,-5.1c-0.833,-0 -1.717,1.017 -2.65,3.05c-0.8,1.9 -1.583,3.8 -2.35,5.7c-0.967,2.133 -1.9,3.3 -2.8,3.5c-0.8,0.167 -2.4,0.25 -4.8,0.25Zm7.2,5.2c3.467,0.9 5.2,2.233 5.2,4c-0,0.133 -0.15,0.317 -0.45,0.55c-0.3,0.2 -0.517,0.3 -0.65,0.3c-1.033,0 -1.95,-0.533 -2.75,-1.6c-0.667,-0.933 -1.117,-2.017 -1.35,-3.25Zm4,-12.35c0.667,0.7 1,1.35 1,1.95c-0,1.267 -0.433,2.233 -1.3,2.9c-0.6,0.433 -1.567,0.8 -2.9,1.1c0.8,-1.9 1.25,-2.95 1.35,-3.15c0.533,-1.1 1.15,-2.033 1.85,-2.8Z" style="fill:#f00;"/><path d="M30.87,58.567l-5.05,3.65c-0.671,0.485 -0.822,1.423 -0.337,2.094c0.485,0.671 1.423,0.822 2.094,0.337l5.05,-3.65c0.671,-0.485 0.822,-1.423 0.337,-2.094c-0.485,-0.671 -1.423,-0.822 -2.094,-0.337Z"/><path d="M75.634,16.457l-5.1,3.6c-0.677,0.478 -0.838,1.414 -0.361,2.091c0.478,0.676 1.414,0.838 2.091,0.36l5.1,-3.6c0.676,-0.477 0.837,-1.414 0.36,-2.09c-0.477,-0.677 -1.414,-0.838 -2.09,-0.361Z"/><path d="M14.219,15.989l0.07,-0.006c0.474,-0.003 0.941,0.219 1.235,0.635c0.477,0.676 0.316,1.613 -0.36,2.09l-5.1,3.6c-0.677,0.478 -1.613,0.316 -2.091,-0.36c-0.418,-0.593 -0.346,-1.386 0.134,-1.895l6.112,-4.064Z"/><path d="M8.25,19.761c-0.377,-0.063 -0.731,-0.27 -0.971,-0.605c-0.482,-0.674 -0.327,-1.611 0.347,-2.093l5.1,-3.65c0.673,-0.482 1.611,-0.327 2.092,0.347c0.338,0.471 0.363,1.073 0.116,1.556l-6.684,4.445Z"/></g></svg>