<?xml version="1.0" encoding="UTF-8" standalone="no"?><!DOCTYPE svg PUBLIC "-//W3C//DTD SVG 1.1//EN" "http://www.w3.org/Graphics/SVG/1.1/DTD/svg11.dtd"><svg width="100%" height="100%" viewBox="0 0 54 79" version="1.1" xmlns="http://www.w3.org/2000/svg" xmlns:xlink="http://www.w3.org/1999/xlink" xml:space="preserve" xmlns:serif="http://www.serif.com/" style="fill-rule:evenodd;clip-rule:evenodd;stroke-linejoin:round;stroke-miterlimit:2;"><g><path d="M15.25,43.95c-0.533,1.133 -1.05,2.7 -1.55,4.7c0.933,1.4 1.55,2.383 1.85,2.95c0.6,1.2 0.9,2.333 0.9,3.4c0,1.367 -0.967,2.517 -2.9,3.45c-1.6,0.767 -3.117,1.15 -4.55,1.15c-3.533,0 -5.3,-1.633 -5.3,-4.9c0,-0.533 0.1,-1.317 0.3,-2.35c0.2,-1.067 0.3,-1.867 0.3,-2.4c-0.733,0.833 -1.317,2 -1.75,3.5c-0.433,1.367 -0.65,2.683 -0.65,3.95c-0,2.3 0.633,4.05 1.9,5.25c1.167,1.133 2.817,1.7 4.95,1.7c2.667,0 4.9,-1.05 6.7,-3.15c1.8,-2.1 2.7,-4.617 2.7,-7.55c-0,-3.833 -0.967,-7.067 -2.9,-9.7Z"/><path d="M38.55,39.85c-1.233,-0.867 -2.45,-1.75 -3.65,-2.65c0.967,-1.033 3.15,-2.5 6.55,-4.4c0.633,-0.333 3.067,-1.583 7.3,-3.75l0.75,-4.2c-2.767,0.6 -6.083,2.283 -9.95,5.05c-4.433,3.167 -6.65,6 -6.65,8.5c-0,1.533 0.7,2.833 2.1,3.9c1.267,0.833 2.55,1.667 3.85,2.5c1.367,1.033 2.05,2.183 2.05,3.45c-0,1.9 -2.367,2.85 -7.1,2.85c-0.348,0 -0.714,-0.017 -1.1,-0.05l0,-0.05c-2.933,-0 -4.833,-0.633 -5.7,-1.9c-0.733,-1.067 -1.1,-3.333 -1.1,-6.8l-0,-16.15c-0.467,0.5 -0.917,1 -1.35,1.5c-0.333,0.5 -0.5,1.167 -0.5,2c-0,6.733 0.033,11.05 0.1,12.95c0.233,6.533 0.817,10.467 1.75,11.8c0.767,1.067 1.833,1.6 3.2,1.6l6.8,-0c2.067,-0 3.767,-0.867 5.1,-2.6c1.267,-1.633 1.9,-3.6 1.9,-5.9c-0,-1.667 -0.433,-3.167 -1.3,-4.5c-0.667,-1.033 -1.683,-2.083 -3.05,-3.15Z"/><path d="M8.6,42.1l2.7,-2.9l-2.7,-2.95l-2.65,2.95l2.65,2.9Z"/><path d="M9.384,21.007l-5.1,3.6c-0.677,0.478 -0.838,1.414 -0.361,2.091c0.478,0.676 1.414,0.838 2.091,0.36l5.1,-3.6c0.676,-0.477 0.837,-1.414 0.36,-2.09c-0.477,-0.677 -1.414,-0.838 -2.09,-0.361Z"/><path d="M33.52,14.017l-5.05,3.65c-0.671,0.485 -0.822,1.423 -0.337,2.094c0.485,0.671 1.423,0.822 2.094,0.337l5.05,-3.65c0.671,-0.485 0.822,-1.423 0.337,-2.094c-0.485,-0.671 -1.423,-0.822 -2.094,-0.337Z"/></g></svg>