<?xml version="1.0" encoding="UTF-8" standalone="no"?><!DOCTYPE svg PUBLIC "-//W3C//DTD SVG 1.1//EN" "http://www.w3.org/Graphics/SVG/1.1/DTD/svg11.dtd"><svg width="100%" height="100%" viewBox="0 0 87 73" version="1.1" xmlns="http://www.w3.org/2000/svg" xmlns:xlink="http://www.w3.org/1999/xlink" xml:space="preserve" xmlns:serif="http://www.serif.com/" style="fill-rule:evenodd;clip-rule:evenodd;stroke-linejoin:round;stroke-miterlimit:2;"><g><path d="M49,61.6l2.65,2.9l2.7,-2.9l-2.7,-2.95l-2.65,2.95Z"/><path d="M27.2,50.2c0.033,0.067 0.4,0.717 1.1,1.95c0.6,1.033 0.9,1.6 0.9,1.7c0,1.167 -1.183,2.683 -3.55,4.55c-2.3,1.767 -4.017,2.65 -5.15,2.65c-0.5,0 -1.183,-0.1 -2.05,-0.3c-0.7,-0.2 -1.383,-0.4 -2.05,-0.6c0.867,1.133 1.883,2.05 3.05,2.75c1.3,0.833 2.533,1.25 3.7,1.25c1.633,-0 3.267,-1.3 4.9,-3.9c1.467,-2.3 2.317,-4.433 2.55,-6.4c0.232,-0.174 0.499,-0.274 0.8,-0.3l4.05,0c0.9,0 1.617,-0.35 2.15,-1.05c0.1,-0.133 0.533,-0.933 1.3,-2.4c0.4,0.767 0.967,1.5 1.7,2.2c0.833,0.833 1.567,1.25 2.2,1.25l5.2,-0c0.867,-0 1.583,-0.367 2.15,-1.1c0.167,-0.2 0.6,-0.967 1.3,-2.3c0.867,1.433 1.333,2.183 1.4,2.25c0.6,0.767 1.3,1.15 2.1,1.15l6.25,-0c2.067,-0 3.767,-0.867 5.1,-2.6c1.267,-1.633 1.9,-3.6 1.9,-5.9c0,-1.667 -0.433,-3.167 -1.3,-4.5c-0.667,-1.033 -1.683,-2.083 -3.05,-3.15c-1.233,-0.867 -2.45,-1.75 -3.65,-2.65c0.967,-1.033 3.15,-2.5 6.55,-4.4c0.633,-0.333 3.067,-1.583 7.3,-3.75l0.75,-4.2c-2.767,0.6 -6.083,2.283 -9.95,5.05c-4.433,3.167 -6.65,6 -6.65,8.5c0,1.533 0.7,2.833 2.1,3.9c1.267,0.833 2.55,1.667 3.85,2.5c1.367,1.033 2.05,2.183 2.05,3.45c0,1.9 -2.367,2.85 -7.1,2.85c-0.333,-0 -0.683,-0.017 -1.05,-0.05l-0,-0.05c-2.3,-0 -3.667,-0.117 -4.1,-0.35c-0.867,-0.467 -1.3,-1.8 -1.3,-4c-0.667,0.6 -1.133,1.367 -1.4,2.3c-0.2,0.767 -0.533,1.267 -1,1.5c-0.8,0.367 -2.45,0.55 -4.95,0.55l-0,0.1c-0.845,0.033 -1.411,0.05 -1.7,0.05c-1.2,-0 -2.05,-0.25 -2.55,-0.75c-0.567,-0.633 -0.883,-1.817 -0.95,-3.55c-1.067,1.967 -1.8,3.133 -2.2,3.5c-0.467,0.5 -1.25,0.75 -2.35,0.75c-0.267,-0 -0.833,-0.017 -1.7,-0.05c-0.292,-0.011 -0.576,-0.027 -0.85,-0.05c-1.6,-0 -2.517,-0.033 -2.75,-0.1c-0.7,-0.133 -1.45,-0.65 -2.25,-1.55c-0.167,1.267 -0.433,2.367 -0.8,3.3Z"/><path d="M42,58.3l-2.3,2.55l-2.35,-2.55l-2.35,2.5l2.35,2.65l2.3,-2.6l2.35,2.6l2.4,-2.6l-2.4,-2.55Z"/><path d="M13.45,16.5c-0.667,0 -1.267,0.35 -1.8,1.05c-0.533,0.733 -0.8,1.433 -0.8,2.1c0,0.767 0.467,1.45 1.4,2.05c-0.9,1 -1.767,1.633 -2.6,1.9c0.067,-0.933 0.1,-1.5 0.1,-1.7c0,-1.6 -0.483,-2.4 -1.45,-2.4c-0.533,-0 -0.967,0.267 -1.3,0.8c-0.3,0.467 -0.45,0.983 -0.45,1.55c-0,0.333 0.067,0.717 0.2,1.15c0.133,-1.1 0.483,-1.65 1.05,-1.65c0.3,0 0.55,0.117 0.75,0.35c0.2,0.267 0.3,0.55 0.3,0.85c0,0.467 -0.3,1.4 -0.9,2.8c1.133,-0.233 2.083,-0.6 2.85,-1.1c0.6,-0.4 1.35,-1.083 2.25,-2.05c0.433,0.333 1.067,0.75 1.9,1.25c0.033,-0.833 0.05,-1.283 0.05,-1.35c-0,-0.533 -0.267,-1.017 -0.8,-1.45c0.433,-1.067 0.65,-1.883 0.65,-2.45c0,-0.4 -0.133,-0.783 -0.4,-1.15c-0.3,-0.367 -0.633,-0.55 -1,-0.55Zm-0.95,1.4c0.6,-0 0.9,0.383 0.9,1.15l-0.1,0.9c-0.9,-0.667 -1.35,-1.183 -1.35,-1.55l0.2,-0.35c0.167,-0.1 0.283,-0.15 0.35,-0.15Z"/><path d="M10.75,42.9c-1.2,2.7 -1.8,4.883 -1.8,6.55c0,2.733 1,4.1 3,4.1c1.633,0 2.917,-0.817 3.85,-2.45c0.767,-1.4 1.15,-3.067 1.15,-5c0,-1.4 -0.3,-2.6 -0.9,-3.6c-0.367,-0.633 -1.05,-1.4 -2.05,-2.3c-1.133,-1.033 -1.95,-1.883 -2.45,-2.55c-0.667,1.8 -1,3.167 -1,4.1c-0,0.167 0.033,0.367 0.1,0.6c0.067,0.267 0.1,0.45 0.1,0.55Zm0,4c0,-1.133 0.4,-2.15 1.2,-3.05c2.267,1.833 3.4,2.967 3.4,3.4c0,0.367 -0.417,0.783 -1.25,1.25c-0.767,0.4 -1.35,0.6 -1.75,0.6c-1.067,0 -1.6,-0.733 -1.6,-2.2Z" style="fill:#f00;"/><path d="M14.15,34.15l2.35,-2.6l-2.35,-2.5l-2.3,2.55l2.3,2.55Z" style="fill:#f00;"/><path d="M9.5,34.15l2.35,-2.55l-2.3,-2.55l-2.4,2.5l2.35,2.6Z" style="fill:#f00;"/><path d="M54.228,63.661l-5.05,3.6c-0.674,0.481 -0.831,1.418 -0.351,2.092c0.481,0.675 1.418,0.832 2.092,0.351l5.05,-3.6c0.674,-0.48 0.832,-1.418 0.351,-2.092c-0.481,-0.674 -1.418,-0.831 -2.092,-0.351Z"/><path d="M29.126,21.013l-5.1,3.65c-0.674,0.482 -0.829,1.419 -0.347,2.093c0.482,0.673 1.419,0.828 2.093,0.346l5.1,-3.65c0.673,-0.481 0.828,-1.419 0.346,-2.092c-0.481,-0.674 -1.419,-0.829 -2.092,-0.347Z"/><path d="M63.484,13.557l-5.1,3.6c-0.677,0.478 -0.838,1.414 -0.361,2.091c0.478,0.676 1.414,0.838 2.091,0.36l5.1,-3.6c0.676,-0.477 0.837,-1.414 0.36,-2.09c-0.477,-0.677 -1.414,-0.838 -2.09,-0.361Z"/></g></svg>