<?xml version="1.0" encoding="UTF-8" standalone="no"?><!DOCTYPE svg PUBLIC "-//W3C//DTD SVG 1.1//EN" "http://www.w3.org/Graphics/SVG/1.1/DTD/svg11.dtd"><svg width="100%" height="100%" viewBox="0 0 34 69" version="1.1" xmlns="http://www.w3.org/2000/svg" xmlns:xlink="http://www.w3.org/1999/xlink" xml:space="preserve" xmlns:serif="http://www.serif.com/" style="fill-rule:evenodd;clip-rule:evenodd;stroke-linejoin:round;stroke-miterlimit:2;"><g><path d="M15.65,26.15c-3.133,-4.367 -5.5,-6.55 -7.1,-6.55c-0.6,-0 -1.083,0.3 -1.45,0.9c-0.3,0.5 -0.45,1.117 -0.45,1.85c0,1.2 0.35,2.333 1.05,3.4c0.767,1.2 1.667,1.8 2.7,1.8c0.5,-0 0.85,-0.1 1.05,-0.3c0.4,-0.367 0.65,-0.567 0.75,-0.6c0.8,0.533 2.283,2.3 4.45,5.3c1.633,2.267 2.967,4.217 4,5.85c-0.433,0.8 -1.083,1.767 -1.95,2.9c-0.933,1.3 -1.7,2.15 -2.3,2.55l-1.75,-0.7l0,4.75c1.2,0.4 2.767,0.6 4.7,0.6c1.833,0 3.017,-0.267 3.55,-0.8c0.6,-0.6 0.9,-1.883 0.9,-3.85c0,-2.533 -0.467,-4.533 -1.4,-6c0.4,-1.2 0.75,-3.05 1.05,-5.55c0.3,-2.467 0.617,-4.217 0.95,-5.25l0.35,0.4c0.533,-0.367 0.967,-1.033 1.3,-2c0.1,-0.233 0.333,-1.033 0.7,-2.4c-1.467,-0.733 -2.2,-1.717 -2.2,-2.95c0,-0.5 0.067,-1.133 0.2,-1.9c-1.333,1.2 -2.267,2.933 -2.8,5.2c0.067,0.267 0.283,0.717 0.65,1.35c0.367,0.533 0.55,0.917 0.55,1.15c0,0.867 -0.2,2.583 -0.6,5.15c-0.367,2.733 -0.683,4.35 -0.95,4.85c-3.6,-5.6 -5.583,-8.65 -5.95,-9.15Zm6.75,15.9c-0.023,0.055 -0.09,0.372 -0.2,0.95c-1.9,0.167 -3.033,0.25 -3.4,0.25c1.3,-1.333 2.167,-2.583 2.6,-3.75c0.033,0.133 0.217,0.617 0.55,1.45l0.45,1.1Z"/><path d="M13.75,9.35c0.6,0.2 1.367,0.3 2.3,0.3c1.033,0 2.283,-0.433 3.75,-1.3c1.633,-1 2.45,-2 2.45,-3c-1.667,0.933 -2.567,1.433 -2.7,1.5c-1.067,0.5 -2.033,0.75 -2.9,0.75c-1.7,0 -3.283,-0.567 -4.75,-1.7c-1.2,2 -2.033,3.767 -2.5,5.3c0.367,-0.267 0.767,-0.717 1.2,-1.35c0.5,-0.733 0.85,-1.217 1.05,-1.45c1.167,0.567 1.867,0.883 2.1,0.95Z"/><path d="M19.886,10.27l-5.1,3.6c-0.677,0.478 -0.838,1.414 -0.361,2.091c0.478,0.676 1.414,0.838 2.091,0.36l5.1,-3.6c0.676,-0.477 0.837,-1.414 0.36,-2.09c-0.477,-0.677 -1.414,-0.838 -2.09,-0.361Z"/></g></svg>