<?xml version="1.0" encoding="UTF-8" standalone="no"?><!DOCTYPE svg PUBLIC "-//W3C//DTD SVG 1.1//EN" "http://www.w3.org/Graphics/SVG/1.1/DTD/svg11.dtd"><svg width="100%" height="100%" viewBox="0 0 69 69" version="1.1" xmlns="http://www.w3.org/2000/svg" xmlns:xlink="http://www.w3.org/1999/xlink" xml:space="preserve" xmlns:serif="http://www.serif.com/" style="fill-rule:evenodd;clip-rule:evenodd;stroke-linejoin:round;stroke-miterlimit:2;"><g><path d="M17.45,37c1.267,0 2.6,0.583 4,1.75c1.433,1.267 2.15,2.583 2.15,3.95c0,0.533 -0.8,0.983 -2.4,1.35c-1.233,0.3 -2.283,0.45 -3.15,0.45c-1.2,-0 -2.4,-0.367 -3.6,-1.1c-0.133,1.8 -0.2,2.783 -0.2,2.95c-0,1.4 0.417,2.283 1.25,2.65c0.433,0.2 1.417,0.3 2.95,0.3c1.967,0 3.467,-0.633 4.5,-1.9c1,-1.233 1.5,-2.933 1.5,-5.1c0,-2.633 -0.567,-4.967 -1.7,-7c-1.233,-2.2 -2.933,-3.7 -5.1,-4.5c-0.167,0.767 -0.233,1.65 -0.2,2.65l0,3.55Z"/><path d="M8.15,38.65l-0.15,-21.1c-1.633,2.333 -2.433,3.733 -2.4,4.2l0.6,26.55c1.3,-1.2 1.95,-4.417 1.95,-9.65Z"/><path d="M61.05,19.45c-0,-0.2 0.05,-0.483 0.15,-0.85c0.1,-0.4 0.15,-0.717 0.15,-0.95l-0.05,-0.55c-1.367,1 -2.433,2.717 -3.2,5.15c0.133,0.667 0.6,1.517 1.4,2.55c0.533,3.633 0.8,9.117 0.8,16.45c-0,1.433 -1.2,2.117 -3.6,2.05l-0.9,-0.05l-1.5,0l-0,5l3.4,0c1.733,0 2.983,-1.033 3.75,-3.1c0.567,-1.467 0.85,-3.317 0.85,-5.55l-0,-4.6c-0,-0.867 -0.067,-2.133 -0.2,-3.8c-0.167,-1.7 -0.25,-2.983 -0.25,-3.85c-0,-0.4 0.217,-1.083 0.65,-2.05c0.4,-0.967 0.6,-1.767 0.6,-2.4c-0,-0.233 -0.35,-0.717 -1.05,-1.45c-0.667,-0.767 -1,-1.433 -1,-2Z"/><path d="M19.2,25.6l2.7,-2.9l-2.65,-2.95l-2.7,2.95l2.65,2.9Z"/><path d="M32.1,46.65c0.767,1.067 1.833,1.6 3.2,1.6l3.6,0l-0,-0.15l2.1,-0c0.4,-0 0.783,-0.233 1.15,-0.7c0.3,-0.433 0.583,-0.85 0.85,-1.25c1.9,2.067 3.7,3.1 5.4,3.1c0.7,0 1.167,-0.25 1.4,-0.75c0.367,-0.733 0.633,-1.167 0.8,-1.3c0.933,0.6 1.6,0.9 2,0.9l1.7,-0l-0,-4.85l1.5,0l-0,-0.15c-2.167,-0 -3.8,-0.483 -4.9,-1.45c-0.4,-0.333 -1.033,-1.233 -1.9,-2.7c-0.567,-0.967 -1.3,-1.45 -2.2,-1.45c-0.733,0 -1.7,0.833 -2.9,2.5c-1.3,1.733 -2.3,2.7 -3,2.9c-0.533,0.133 -1.767,0.2 -3.7,0.2l0,0.05c-1.981,-0.197 -3.314,-0.797 -4,-1.8c-0.733,-1.067 -1.1,-3.333 -1.1,-6.8l0,-16.15c-0.467,0.5 -0.917,1 -1.35,1.5c-0.333,0.5 -0.5,1.167 -0.5,2c0,6.733 0.033,11.05 0.1,12.95c0.233,6.533 0.817,10.467 1.75,11.8Zm16.1,-2.75l0,0.9c-0.633,-0.267 -1.3,-0.65 -2,-1.15c-0.933,-0.667 -1.4,-1.2 -1.4,-1.6c-0,-0.267 0.6,-1.033 1.8,-2.3c0.467,0.6 0.833,1.35 1.1,2.25c0.333,1.2 0.5,1.833 0.5,1.9Z" style="fill:#f00;"/><path d="M60.428,49.461l-5.05,3.6c-0.674,0.481 -0.831,1.418 -0.351,2.092c0.481,0.675 1.418,0.832 2.092,0.351l5.05,-3.6c0.674,-0.48 0.832,-1.418 0.351,-2.092c-0.481,-0.674 -1.418,-0.831 -2.092,-0.351Z"/><path d="M15.684,6.857l-5.1,3.6c-0.677,0.478 -0.838,1.414 -0.361,2.091c0.478,0.676 1.414,0.838 2.091,0.36l5.1,-3.6c0.676,-0.477 0.837,-1.414 0.36,-2.09c-0.477,-0.677 -1.414,-0.838 -2.09,-0.361Z"/><path d="M41.134,6.857l-5.1,3.6c-0.677,0.478 -0.838,1.414 -0.361,2.091c0.478,0.676 1.414,0.838 2.091,0.36l5.1,-3.6c0.676,-0.477 0.837,-1.414 0.36,-2.09c-0.477,-0.677 -1.414,-0.838 -2.09,-0.361Z"/></g></svg>