<?xml version="1.0" encoding="UTF-8" standalone="no"?><!DOCTYPE svg PUBLIC "-//W3C//DTD SVG 1.1//EN" "http://www.w3.org/Graphics/SVG/1.1/DTD/svg11.dtd"><svg width="100%" height="100%" viewBox="0 0 40 69" version="1.1" xmlns="http://www.w3.org/2000/svg" xmlns:xlink="http://www.w3.org/1999/xlink" xml:space="preserve" xmlns:serif="http://www.serif.com/" style="fill-rule:evenodd;clip-rule:evenodd;stroke-linejoin:round;stroke-miterlimit:2;"><g><path d="M32.35,21.25c-0.667,-0.767 -1,-1.433 -1,-2c-0,-0.2 0.05,-0.483 0.15,-0.85c0.1,-0.4 0.15,-0.717 0.15,-0.95l-0.05,-0.55c-1.367,1 -2.433,2.717 -3.2,5.15c0.133,0.667 0.6,1.517 1.4,2.55c0.533,3.633 0.8,9.117 0.8,16.45c-0,1.433 -1.2,2.117 -3.6,2.05l-0.35,0l-2.05,-0.05l-0,5l3.4,0c1.733,0 2.983,-1.033 3.75,-3.1c0.567,-1.467 0.85,-3.317 0.85,-5.55l-0,-4.6c-0,-0.867 -0.067,-2.133 -0.2,-3.8c-0.167,-1.7 -0.25,-2.983 -0.25,-3.85c0,-0.4 0.217,-1.083 0.65,-2.05c0.4,-0.967 0.6,-1.767 0.6,-2.4c0,-0.233 -0.35,-0.717 -1.05,-1.45Z"/><path d="M18.2,38.55c-0.367,0.4 -0.617,0.833 -0.75,1.3c0.1,0.2 0.1,0.35 0,0.45c-1.9,0.533 -3.517,1.45 -4.85,2.75c-1.6,1.533 -2.4,3.317 -2.4,5.35c0,0.2 0.017,0.417 0.05,0.65l1.6,19.3c0.267,-0.367 0.533,-0.917 0.8,-1.65c0.3,-0.767 0.433,-1.367 0.4,-1.8l-1.2,-17.1c0.667,-1.467 1.667,-2.2 3,-2.2l0.6,0.25c0,1.1 0.25,2.233 0.75,3.4c0.567,1.4 1.3,2.1 2.2,2.1c1.5,-0 2.25,-1.617 2.25,-4.85c1.367,1.033 2.367,1.55 3,1.55l0.95,0l-0,-5l2.05,0.05l0,-0.05c-2.367,0 -3.967,-0.167 -4.8,-0.5c-0.6,-0.233 -1.117,-0.733 -1.55,-1.5c-0.6,-1.033 -1.3,-1.867 -2.1,-2.5Z" style="fill:#f00;"/><path d="M31.228,49.511l-5.05,3.6c-0.674,0.481 -0.831,1.418 -0.351,2.092c0.481,0.675 1.418,0.832 2.092,0.351l5.05,-3.6c0.674,-0.48 0.832,-1.418 0.351,-2.092c-0.481,-0.674 -1.418,-0.831 -2.092,-0.351Z"/><path d="M18.434,13.457l-5.1,3.6c-0.677,0.478 -0.838,1.414 -0.361,2.091c0.478,0.676 1.414,0.838 2.091,0.36l5.1,-3.6c0.676,-0.477 0.837,-1.414 0.36,-2.09c-0.477,-0.677 -1.414,-0.838 -2.09,-0.361Z"/></g></svg>