<?xml version="1.0" encoding="UTF-8" standalone="no"?><!DOCTYPE svg PUBLIC "-//W3C//DTD SVG 1.1//EN" "http://www.w3.org/Graphics/SVG/1.1/DTD/svg11.dtd"><svg width="100%" height="100%" viewBox="0 0 36 73" version="1.1" xmlns="http://www.w3.org/2000/svg" xmlns:xlink="http://www.w3.org/1999/xlink" xml:space="preserve" xmlns:serif="http://www.serif.com/" style="fill-rule:evenodd;clip-rule:evenodd;stroke-linejoin:round;stroke-miterlimit:2;"><g><path d="M11,50.4c-1.953,-0.206 -3.27,-0.806 -3.95,-1.8c-0.733,-1.067 -1.1,-3.333 -1.1,-6.8l0,-16.15c-0.467,0.5 -0.917,1 -1.35,1.5c-0.333,0.5 -0.5,1.167 -0.5,2c0,6.733 0.033,11.05 0.1,12.95c0.233,6.533 0.817,10.467 1.75,11.8c0.767,1.067 1.833,1.6 3.2,1.6l3.6,-0l0,-0.15l-1.75,0l0,-4.95Z"/><path d="M25.15,44.1c-0.833,-1.933 -1.683,-2.9 -2.55,-2.9c-0.8,-0 -1.667,0.683 -2.6,2.05c-0.8,1.3 -1.583,2.617 -2.35,3.95c-0.967,1.567 -1.833,2.517 -2.6,2.85c-0.467,0.2 -1.817,0.3 -4.05,0.3l0,5l3.6,0c0.833,0 1.567,-0.467 2.2,-1.4c0.467,-0.867 0.933,-1.717 1.4,-2.55c1.333,0.967 2.067,1.483 2.2,1.55c0.933,0.567 1.767,0.85 2.5,0.85c1.167,0 2.05,-0.6 2.65,-1.8c0.467,-1 0.7,-2.2 0.7,-3.6c0,-1.133 -0.367,-2.567 -1.1,-4.3Zm-3.75,1.1c0.667,-0 1.233,0.45 1.7,1.35c0.167,0.267 0.433,0.85 0.8,1.75l-0,1.1l-0.8,0.25c-0.467,-0 -1.617,-0.667 -3.45,-2c0.8,-1.633 1.383,-2.45 1.75,-2.45Z" style="fill:#f00;"/><path d="M14.334,14.557l-5.1,3.6c-0.677,0.478 -0.838,1.414 -0.361,2.091c0.478,0.676 1.414,0.838 2.091,0.36l5.1,-3.6c0.676,-0.477 0.837,-1.414 0.36,-2.09c-0.477,-0.677 -1.414,-0.838 -2.09,-0.361Z"/></g></svg>