<?xml version="1.0" encoding="UTF-8" standalone="no"?><!DOCTYPE svg PUBLIC "-//W3C//DTD SVG 1.1//EN" "http://www.w3.org/Graphics/SVG/1.1/DTD/svg11.dtd"><svg width="100%" height="100%" viewBox="0 0 85 78" version="1.1" xmlns="http://www.w3.org/2000/svg" xmlns:xlink="http://www.w3.org/1999/xlink" xml:space="preserve" xmlns:serif="http://www.serif.com/" style="fill-rule:evenodd;clip-rule:evenodd;stroke-linejoin:round;stroke-miterlimit:2;"><g><path d="M52.35,25.35c-1.633,2.333 -2.433,3.733 -2.4,4.2l0.6,26.55c1.3,-1.2 1.95,-4.417 1.95,-9.65l-0.15,-21.1Z"/><path d="M60.65,26.2c-0.467,0.5 -0.917,1 -1.35,1.5c-0.333,0.5 -0.5,1.167 -0.5,2c-0,6.733 0.033,11.05 0.1,12.95c0.233,6.533 0.817,10.467 1.75,11.8c0.767,1.067 1.833,1.6 3.2,1.6l3.6,-0l0,-0.15l1.85,-0c0.833,-0 1.567,-0.467 2.2,-1.4c0.467,-0.867 0.933,-1.717 1.4,-2.55c1.333,0.967 2.067,1.483 2.2,1.55c0.933,0.567 1.767,0.85 2.5,0.85c1.167,0 2.05,-0.6 2.65,-1.8c0.467,-1 0.7,-2.2 0.7,-3.6c0,-1.133 -0.367,-2.567 -1.1,-4.3c-0.833,-1.933 -1.683,-2.9 -2.55,-2.9c-0.8,-0 -1.667,0.683 -2.6,2.05c-0.8,1.3 -1.583,2.617 -2.35,3.95c-0.967,1.567 -1.833,2.517 -2.6,2.85c-0.467,0.2 -1.817,0.3 -4.05,0.3l0,0.05c-1.953,-0.206 -3.27,-0.806 -3.95,-1.8c-0.733,-1.067 -1.1,-3.333 -1.1,-6.8l-0,-16.15Zm17.95,23.75l-0.8,0.25c-0.467,0 -1.617,-0.667 -3.45,-2c0.8,-1.633 1.383,-2.45 1.75,-2.45c0.667,-0 1.233,0.45 1.7,1.35c0.167,0.267 0.433,0.85 0.8,1.75l-0,1.1Z"/><path d="M16.6,65.4c1.3,0.833 2.533,1.25 3.7,1.25c1.633,-0 3.267,-1.3 4.9,-3.9c1.467,-2.3 2.317,-4.433 2.55,-6.4c0.267,-0.2 0.583,-0.3 0.95,-0.3l1.45,-0l-0,-0.15l2.2,-0c0.833,-0 1.567,-0.467 2.2,-1.4c0.467,-0.867 0.933,-1.717 1.4,-2.55c1.333,0.967 2.067,1.483 2.2,1.55c0.933,0.567 1.767,0.85 2.5,0.85c1.167,0 2.05,-0.6 2.65,-1.8c0.467,-1 0.7,-2.2 0.7,-3.6c-0,-1.133 -0.367,-2.567 -1.1,-4.3c-0.833,-1.933 -1.683,-2.9 -2.55,-2.9c-0.8,-0 -1.667,0.683 -2.6,2.05c-0.8,1.3 -1.583,2.617 -2.35,3.95c-0.967,1.567 -1.833,2.517 -2.6,2.85c-0.467,0.2 -1.817,0.3 -4.05,0.3l-0,0.15c-0.746,-0.023 -1.196,-0.056 -1.35,-0.1c-0.7,-0.133 -1.45,-0.65 -2.25,-1.55c-0.167,1.267 -0.433,2.367 -0.8,3.3c0.033,0.067 0.4,0.717 1.1,1.95c0.6,1.033 0.9,1.6 0.9,1.7c0,1.167 -1.183,2.683 -3.55,4.55c-2.3,1.767 -4.017,2.65 -5.15,2.65c-0.5,-0 -1.183,-0.1 -2.05,-0.3c-0.7,-0.2 -1.383,-0.4 -2.05,-0.6c0.867,1.133 1.883,2.05 3.05,2.75Zm25.05,-15.45l-0.8,0.25c-0.467,0 -1.617,-0.667 -3.45,-2c0.8,-1.633 1.383,-2.45 1.75,-2.45c0.667,-0 1.233,0.45 1.7,1.35c0.167,0.267 0.433,0.85 0.8,1.75l-0,1.1Z"/><path d="M11.2,27.8c0,-1.033 -0.45,-1.55 -1.35,-1.55c-0.6,0 -1.15,0.367 -1.65,1.1c-0.433,0.633 -0.65,1.25 -0.65,1.85c-0,0.5 0.417,1.017 1.25,1.55c-1.5,1.233 -2.917,2.167 -4.25,2.8c0.467,0.133 0.85,0.2 1.15,0.2c1.1,-0 2.417,-0.85 3.95,-2.55c0.6,0.4 1.117,0.717 1.55,0.95l0.15,-1.75c-0.333,-0.267 -0.583,-0.45 -0.75,-0.55c0.4,-0.867 0.6,-1.55 0.6,-2.05Zm-2.25,-0.05c0.7,0.1 1.05,0.467 1.05,1.1c-0,0.133 -0.05,0.3 -0.15,0.5c-0.867,-0.433 -1.3,-0.85 -1.3,-1.25c0.067,-0.2 0.2,-0.317 0.4,-0.35Z"/><path d="M62.95,17.95c0.6,0.2 1.367,0.3 2.3,0.3c1.033,0 2.283,-0.433 3.75,-1.3c1.633,-1 2.45,-2 2.45,-3c-1.667,0.933 -2.567,1.433 -2.7,1.5c-1.067,0.5 -2.033,0.75 -2.9,0.75c-1.7,0 -3.283,-0.567 -4.75,-1.7c-1.2,2 -2.033,3.767 -2.5,5.3c0.367,-0.267 0.767,-0.717 1.2,-1.35c0.5,-0.733 0.85,-1.217 1.05,-1.45c1.167,0.567 1.867,0.883 2.1,0.95Z"/><path d="M13.2,45c-0.367,-0.633 -1.067,-1.4 -2.1,-2.3c-1.1,-1.033 -1.9,-1.883 -2.4,-2.55c-0.667,1.8 -1,3.167 -1,4.1c0,0.167 0.033,0.367 0.1,0.6c0.033,0.267 0.067,0.45 0.1,0.55c-1.2,2.7 -1.8,4.883 -1.8,6.55c0,2.733 1,4.1 3,4.1c1.633,-0 2.9,-0.817 3.8,-2.45c0.8,-1.4 1.2,-3.067 1.2,-5c0,-1.4 -0.3,-2.6 -0.9,-3.6Zm-3.75,6.6c-1.067,0 -1.6,-0.733 -1.6,-2.2c0,-1.133 0.417,-2.15 1.25,-3.05c2.267,1.833 3.4,2.967 3.4,3.4c-0,0.367 -0.417,0.783 -1.25,1.25c-0.767,0.4 -1.367,0.6 -1.8,0.6Z" style="fill:#f00;"/><path d="M40.934,22.007l-5.1,3.6c-0.677,0.478 -0.838,1.414 -0.361,2.091c0.478,0.676 1.414,0.838 2.091,0.36l5.1,-3.6c0.676,-0.477 0.837,-1.414 0.36,-2.09c-0.477,-0.677 -1.414,-0.838 -2.09,-0.361Z"/><path d="M25.834,20.007l-5.1,3.6c-0.677,0.478 -0.838,1.414 -0.361,2.091c0.478,0.676 1.414,0.838 2.091,0.36l5.1,-3.6c0.676,-0.477 0.837,-1.414 0.36,-2.09c-0.477,-0.677 -1.414,-0.838 -2.09,-0.361Z"/><path d="M70.034,18.557l-5.1,3.6c-0.677,0.478 -0.838,1.414 -0.361,2.091c0.478,0.676 1.414,0.838 2.091,0.36l5.1,-3.6c0.676,-0.477 0.837,-1.414 0.36,-2.09c-0.477,-0.677 -1.414,-0.838 -2.09,-0.361Z"/><path d="M53.284,13.957l-5.1,3.6c-0.677,0.478 -0.838,1.414 -0.361,2.091c0.478,0.676 1.414,0.838 2.091,0.36l5.1,-3.6c0.676,-0.477 0.837,-1.414 0.36,-2.09c-0.477,-0.677 -1.414,-0.838 -2.09,-0.361Z"/></g></svg>