<?xml version="1.0" encoding="UTF-8" standalone="no"?><!DOCTYPE svg PUBLIC "-//W3C//DTD SVG 1.1//EN" "http://www.w3.org/Graphics/SVG/1.1/DTD/svg11.dtd"><svg width="100%" height="100%" viewBox="0 0 48 69" version="1.1" xmlns="http://www.w3.org/2000/svg" xmlns:xlink="http://www.w3.org/1999/xlink" xml:space="preserve" xmlns:serif="http://www.serif.com/" style="fill-rule:evenodd;clip-rule:evenodd;stroke-linejoin:round;stroke-miterlimit:2;"><g><path d="M19.1,43.35c0.9,1.567 1.45,2.583 1.65,3.05c0.467,1.067 0.7,2.2 0.7,3.4c0,1.567 -0.867,2.767 -2.6,3.6c-1.3,0.6 -2.8,0.9 -4.5,0.9c-4.467,0 -6.7,-1.933 -6.7,-5.8c0,-0.7 0.317,-2.417 0.95,-5.15c-0.767,0.4 -1.433,1.617 -2,3.65c-0.467,1.667 -0.7,3.133 -0.7,4.4c0,5.1 2.3,7.65 6.9,7.65c3.1,0 5.6,-1.05 7.5,-3.15c1.933,-2.067 2.9,-4.817 2.9,-8.25l4.3,0l0,-0.15l-1.4,0l-0,-4.85l-0.9,0c-1,0 -1.733,-0.15 -2.2,-0.45c-0.4,-0.3 -1.117,-1.133 -2.15,-2.5l-1.75,3.65Z"/><path d="M14.5,38.5l2.65,-2.9l-2.65,-2.95l-2.7,2.95l2.7,2.9Z"/><path d="M15.8,21.05c-0,-0.667 -0.183,-1.283 -0.55,-1.85c-0.4,-0.6 -0.883,-0.9 -1.45,-0.9c-0.8,0 -1.4,0.4 -1.8,1.2c-0.333,0.633 -0.5,1.417 -0.5,2.35c0,1.5 0.583,2.25 1.75,2.25c0.733,-0 1.333,-0.317 1.8,-0.95c0.5,-0.633 0.75,-1.333 0.75,-2.1Zm-1.65,-0.6c0.5,0.4 0.75,0.75 0.75,1.05c0,0.5 -0.433,0.75 -1.3,0.75c-1.033,0 -1.55,-0.367 -1.55,-1.1c-0,-0.833 0.333,-1.25 1,-1.25c0.3,0 0.667,0.183 1.1,0.55Z"/><path d="M35.1,35.4c-0.8,1.3 -1.583,2.617 -2.35,3.95c-0.967,1.567 -1.833,2.517 -2.6,2.85c-0.467,0.2 -1.817,0.3 -4.05,0.3l-0,5l3.6,0c0.833,0 1.567,-0.467 2.2,-1.4c0.467,-0.867 0.933,-1.717 1.4,-2.55c1.333,0.967 2.067,1.483 2.2,1.55c0.933,0.567 1.767,0.85 2.5,0.85c1.167,-0 2.05,-0.6 2.65,-1.8c0.467,-1 0.7,-2.2 0.7,-3.6c-0,-1.133 -0.367,-2.567 -1.1,-4.3c-0.833,-1.933 -1.683,-2.9 -2.55,-2.9c-0.8,-0 -1.667,0.683 -2.6,2.05Zm1.4,1.95c0.667,-0 1.233,0.45 1.7,1.35c0.167,0.267 0.433,0.85 0.8,1.75l0,1.1l-0.8,0.25c-0.467,0 -1.617,-0.667 -3.45,-2c0.8,-1.633 1.383,-2.45 1.75,-2.45Z" style="fill:#f00;"/><path d="M38.634,6.907l-5.1,3.6c-0.677,0.478 -0.838,1.414 -0.361,2.091c0.478,0.676 1.414,0.838 2.091,0.36l5.1,-3.6c0.676,-0.477 0.837,-1.414 0.36,-2.09c-0.477,-0.677 -1.414,-0.838 -2.09,-0.361Z"/></g></svg>