<?xml version="1.0" encoding="UTF-8" standalone="no"?><!DOCTYPE svg PUBLIC "-//W3C//DTD SVG 1.1//EN" "http://www.w3.org/Graphics/SVG/1.1/DTD/svg11.dtd"><svg width="100%" height="100%" viewBox="0 0 59 73" version="1.1" xmlns="http://www.w3.org/2000/svg" xmlns:xlink="http://www.w3.org/1999/xlink" xml:space="preserve" xmlns:serif="http://www.serif.com/" style="fill-rule:evenodd;clip-rule:evenodd;stroke-linejoin:round;stroke-miterlimit:2;"><g><path d="M46,50.45c0.467,-1 0.7,-2.2 0.7,-3.6c0,-1.133 -0.367,-2.567 -1.1,-4.3c-0.833,-1.933 -1.683,-2.9 -2.55,-2.9c-0.8,-0 -1.667,0.683 -2.6,2.05c-0.8,1.3 -1.583,2.617 -2.35,3.95c-0.967,1.567 -1.833,2.517 -2.6,2.85c-0.467,0.2 -1.817,0.3 -4.05,0.3l0,0.15c-0.776,-0.022 -1.243,-0.055 -1.4,-0.1c-0.7,-0.133 -1.45,-0.65 -2.25,-1.55c-0.167,1.267 -0.433,2.367 -0.8,3.3c0.033,0.067 0.4,0.717 1.1,1.95c0.6,1.033 0.9,1.6 0.9,1.7c0,1.167 -1.183,2.683 -3.55,4.55c-2.3,1.767 -4.017,2.65 -5.15,2.65c-0.5,-0 -1.183,-0.1 -2.05,-0.3c-0.7,-0.2 -1.383,-0.4 -2.05,-0.6c0.867,1.133 1.883,2.05 3.05,2.75c1.3,0.833 2.533,1.25 3.7,1.25c1.633,0 3.267,-1.3 4.9,-3.9c1.467,-2.3 2.317,-4.433 2.55,-6.4c0.267,-0.2 0.583,-0.3 0.95,-0.3l1.45,-0l-0,-0.15l2.25,-0c0.833,-0 1.567,-0.467 2.2,-1.4c0.467,-0.867 0.933,-1.717 1.4,-2.55c1.333,0.967 2.067,1.483 2.2,1.55c0.933,0.567 1.767,0.85 2.5,0.85c1.167,-0 2.05,-0.6 2.65,-1.8Zm-1.65,-3.7l0,1.1l-0.8,0.25c-0.467,0 -1.617,-0.667 -3.45,-2c0.8,-1.633 1.383,-2.45 1.75,-2.45c0.667,-0 1.233,0.45 1.7,1.35c0.167,0.267 0.433,0.85 0.8,1.75Z"/><path d="M28,27.75l-0.3,0.15c0,1.433 -0.3,2.15 -0.9,2.15c-0.3,0 -0.55,-0.467 -0.75,-1.4l-0.2,0.05c-0.133,0.733 -0.25,1.217 -0.35,1.45c-0.2,0.6 -0.483,0.9 -0.85,0.9c-0.333,0 -0.5,-0.533 -0.5,-1.6l-0.3,0.05c-0.2,0.767 -0.3,1.25 -0.3,1.45c-0,0.4 0.083,0.75 0.25,1.05c0.2,0.367 0.467,0.55 0.8,0.55c0.333,0 0.633,-0.133 0.9,-0.4c0.267,-0.233 0.433,-0.517 0.5,-0.85c0.233,0.2 0.5,0.3 0.8,0.3c0.933,0 1.4,-0.817 1.4,-2.45c0,-0.433 -0.067,-0.9 -0.2,-1.4Z"/><path d="M13.8,40.6c-1.133,-1.033 -1.95,-1.883 -2.45,-2.55c-0.667,1.8 -1,3.167 -1,4.1c0,0.167 0.033,0.367 0.1,0.6c0.067,0.267 0.1,0.45 0.1,0.55c-1.2,2.7 -1.8,4.883 -1.8,6.55c0,2.733 1,4.1 3,4.1c1.633,-0 2.917,-0.817 3.85,-2.45c0.767,-1.4 1.15,-3.067 1.15,-5c0,-1.4 -0.3,-2.6 -0.9,-3.6c-0.367,-0.633 -1.05,-1.4 -2.05,-2.3Zm1.35,7.05c-0,0.367 -0.417,0.783 -1.25,1.25c-0.767,0.4 -1.35,0.6 -1.75,0.6c-1.067,0 -1.6,-0.733 -1.6,-2.2c-0,-1.133 0.4,-2.15 1.2,-3.05c2.267,1.833 3.4,2.967 3.4,3.4Z" style="fill:#f00;"/><path d="M16.3,31.95l-2.35,-2.5l-2.3,2.55l2.3,2.55l2.35,-2.6Z" style="fill:#f00;"/><path d="M11.65,32l-2.3,-2.55l-2.4,2.5l2.35,2.6l2.35,-2.55Z" style="fill:#f00;"/><path d="M8.391,19.931c-0.45,-0.017 -0.888,-0.237 -1.168,-0.633c-0.477,-0.677 -0.316,-1.613 0.361,-2.091l5.1,-3.6c0.676,-0.477 1.613,-0.316 2.09,0.361c0.477,0.676 0.316,1.613 -0.36,2.09l-0.108,0.076c0.45,0.018 0.888,0.237 1.168,0.634c0.477,0.676 0.316,1.613 -0.36,2.09l-5.1,3.6c-0.677,0.478 -1.613,0.316 -2.091,-0.36c-0.477,-0.677 -0.316,-1.613 0.361,-2.091l0.107,-0.076Z"/><path d="M27.184,12.357l-5.1,3.6c-0.677,0.478 -0.838,1.414 -0.361,2.091c0.478,0.676 1.414,0.838 2.091,0.36l5.1,-3.6c0.676,-0.477 0.837,-1.414 0.36,-2.09c-0.477,-0.677 -1.414,-0.838 -2.09,-0.361Z"/><path d="M43.534,11.557l-5.1,3.6c-0.677,0.478 -0.838,1.414 -0.361,2.091c0.478,0.676 1.414,0.838 2.091,0.36l5.1,-3.6c0.676,-0.477 0.837,-1.414 0.36,-2.09c-0.477,-0.677 -1.414,-0.838 -2.09,-0.361Z"/></g></svg>