<?xml version="1.0" encoding="UTF-8" standalone="no"?><!DOCTYPE svg PUBLIC "-//W3C//DTD SVG 1.1//EN" "http://www.w3.org/Graphics/SVG/1.1/DTD/svg11.dtd"><svg width="100%" height="100%" viewBox="0 0 99 73" version="1.1" xmlns="http://www.w3.org/2000/svg" xmlns:xlink="http://www.w3.org/1999/xlink" xml:space="preserve" xmlns:serif="http://www.serif.com/" style="fill-rule:evenodd;clip-rule:evenodd;stroke-linejoin:round;stroke-miterlimit:2;"><g><path d="M44.349,22.383c0.4,-1.8 0.683,-3.134 0.85,-4c-1.734,0.6 -4.734,2.2 -9,4.8c-4.734,2.833 -7.334,4.766 -7.8,5.8c-0.4,0.833 -0.6,2.083 -0.6,3.75c-0,1.466 0.683,2.866 2.05,4.2c1.233,1.033 2.483,2.066 3.75,3.1c1.333,1.133 2,2.2 2,3.2c-0,2.233 -2.35,3.35 -7.05,3.35l-0.3,-0c-0.329,-0.008 -0.695,-0.025 -1.1,-0.05l-0.95,-0l-0,5l4.2,-0c2.166,-0 3.866,-1.084 5.1,-3.25c0.733,-1.267 1.5,-3.417 2.3,-6.45c5.666,6.466 8.933,9.7 9.8,9.7l4,-0c0.8,-0 1.533,-0.567 2.2,-1.7c1.033,-1.767 1.566,-2.667 1.6,-2.7c0.466,0.933 0.916,1.866 1.35,2.8c0.6,1.066 1.35,1.6 2.25,1.6l5.15,-0c0.9,-0 1.616,-0.35 2.15,-1.05c0.066,-0.134 0.5,-0.934 1.3,-2.4c0.4,0.766 0.95,1.5 1.65,2.2c0.866,0.833 1.616,1.25 2.25,1.25l5.15,-0l-0,-0.15l-2.2,-0l-0,-4.75c-0.05,-0.004 -0.1,-0.004 -0.15,-0c-0.967,0.066 -1.617,0.1 -1.95,0.1c-1.2,-0 -2.05,-0.267 -2.55,-0.8c-0.6,-0.634 -0.934,-1.817 -1,-3.55c-1.067,1.933 -1.8,3.1 -2.2,3.5c-0.5,0.5 -1.284,0.75 -2.35,0.75c-0.267,-0 -0.884,-0.017 -1.85,-0.05c-0.344,-0.012 -0.678,-0.029 -1,-0.05c-1.834,-0 -3.15,-0.584 -3.95,-1.75c-0.7,-1.034 -1.05,-2.6 -1.05,-4.7c-0,-2.434 -0.134,-5.684 -0.4,-9.75c-0.334,-4.934 -0.534,-8.184 -0.6,-9.75c-1.6,1.4 -2.4,2.9 -2.4,4.5c-0,1.966 0.166,4.933 0.5,8.9c0.333,3.933 0.5,6.9 0.5,8.9c-0,1.6 -0.467,2.65 -1.4,3.15c-0.509,0.282 -1.409,0.449 -2.7,0.5c-1.013,-0.032 -1.696,-0.099 -2.05,-0.2c-0.067,-0 -2.917,-2.15 -8.55,-6.45c-5.9,-4.5 -9.4,-7.1 -10.5,-7.8c1.766,-1.7 4.283,-3.467 7.55,-5.3c2.666,-1.467 5.333,-2.934 8,-4.4Z"/><path d="M72.549,32.833l-2.35,-2.5l-2.35,2.55l2.35,2.55l2.35,-2.6Z"/><path d="M65.549,30.333l-2.3,2.5l2.3,2.6l2.3,-2.55l-2.3,-2.55Z"/><path d="M70.349,27.483l-2.35,-2.5l-2.3,2.5l2.3,2.65l2.35,-2.65Z"/><path d="M17.899,23.283c-0.8,-0 -1.4,0.4 -1.8,1.2c-0.334,0.633 -0.5,1.416 -0.5,2.35c-0,1.5 0.583,2.25 1.75,2.25c0.733,-0 1.333,-0.317 1.8,-0.95c0.5,-0.634 0.75,-1.334 0.75,-2.1c-0,-0.667 -0.184,-1.284 -0.55,-1.85c-0.4,-0.6 -0.884,-0.9 -1.45,-0.9Zm-0.2,3.95c-1.034,-0 -1.55,-0.367 -1.55,-1.1c-0,-0.834 0.333,-1.25 1,-1.25c0.3,-0 0.666,0.183 1.1,0.55c0.5,0.4 0.75,0.75 0.75,1.05c-0,0.5 -0.434,0.75 -1.3,0.75Z"/><path d="M65.949,14.833c-0.334,0.633 -0.5,1.416 -0.5,2.35c-0,1.5 0.583,2.25 1.75,2.25c0.733,-0 1.333,-0.317 1.8,-0.95c0.5,-0.634 0.75,-1.334 0.75,-2.1c-0,-0.667 -0.184,-1.284 -0.55,-1.85c-0.4,-0.6 -0.884,-0.9 -1.45,-0.9c-0.8,-0 -1.4,0.4 -1.8,1.2Zm2.15,0.95c0.5,0.4 0.75,0.75 0.75,1.05c-0,0.5 -0.434,0.75 -1.3,0.75c-1.034,-0 -1.55,-0.367 -1.55,-1.1c-0,-0.834 0.333,-1.25 1,-1.25c0.3,-0 0.666,0.183 1.1,0.55Z"/><path d="M33.899,16.183c-0.334,-0.267 -0.584,-0.45 -0.75,-0.55c0.4,-0.867 0.6,-1.55 0.6,-2.05c-0,-1.034 -0.45,-1.55 -1.35,-1.55c-0.6,-0 -1.15,0.366 -1.65,1.1c-0.434,0.633 -0.65,1.25 -0.65,1.85c-0,0.5 0.416,1.016 1.25,1.55c-1.5,1.233 -2.917,2.166 -4.25,2.8c0.466,0.133 0.85,0.2 1.15,0.2c1.1,-0 2.416,-0.85 3.95,-2.55c0.6,0.4 1.116,0.716 1.55,0.95l0.15,-1.75Zm-1.35,-1.55c-0,0.133 -0.05,0.3 -0.15,0.5c-0.867,-0.434 -1.3,-0.85 -1.3,-1.25c0.066,-0.2 0.2,-0.317 0.4,-0.35c0.7,0.1 1.05,0.466 1.05,1.1Z"/><path d="M55.649,10.833c-0.6,-0 -1.15,0.366 -1.65,1.1c-0.434,0.633 -0.65,1.25 -0.65,1.85c-0,0.5 0.416,1.016 1.25,1.55c-1.5,1.233 -2.917,2.166 -4.25,2.8c0.466,0.133 0.85,0.2 1.15,0.2c1.1,-0 2.416,-0.85 3.95,-2.55c0.6,0.4 1.116,0.716 1.55,0.95l0.15,-1.75c-0.334,-0.267 -0.584,-0.45 -0.75,-0.55c0.4,-0.867 0.6,-1.55 0.6,-2.05c-0,-1.034 -0.45,-1.55 -1.35,-1.55Zm-0.9,1.5c0.7,0.1 1.05,0.466 1.05,1.1c-0,0.133 -0.05,0.3 -0.15,0.5c-0.867,-0.434 -1.3,-0.85 -1.3,-1.25c0.066,-0.2 0.2,-0.317 0.4,-0.35Z"/><path d="M23.449,46.033c-0.6,-0.234 -1.117,-0.734 -1.55,-1.5c-0.6,-1.034 -1.3,-1.867 -2.1,-2.5c-0.367,0.4 -0.617,0.833 -0.75,1.3c0.1,0.2 0.1,0.35 -0,0.45c-1.9,0.533 -3.517,1.45 -4.85,2.75c-1.6,1.533 -2.4,3.316 -2.4,5.35c-0,0.2 0.016,0.416 0.05,0.65l1.6,19.3c0.266,-0.367 0.533,-0.917 0.8,-1.65c0.3,-0.767 0.433,-1.367 0.4,-1.8l-1.2,-17.1c0.666,-1.467 1.666,-2.2 3,-2.2l0.6,0.25c-0,1.1 0.25,2.233 0.75,3.4c0.566,1.4 1.3,2.1 2.2,2.1c1.5,-0 2.25,-1.617 2.25,-4.85c1.366,1.033 2.366,1.55 3,1.55l0.95,-0l-0,-5l0.95,-0c0.405,0.025 0.771,0.042 1.1,0.05l-0,-0.05c-2.367,-0 -3.967,-0.167 -4.8,-0.5Z" style="fill:#f00;"/><path d="M74.449,46.383l-0,5l3.6,-0c0.833,-0 1.566,-0.467 2.2,-1.4c0.466,-0.867 0.933,-1.717 1.4,-2.55c1.333,0.966 2.066,1.483 2.2,1.55c0.933,0.566 1.766,0.85 2.5,0.85c1.166,-0 2.05,-0.6 2.65,-1.8c0.466,-1 0.7,-2.2 0.7,-3.6c-0,-1.134 -0.367,-2.567 -1.1,-4.3c-0.834,-1.934 -1.684,-2.9 -2.55,-2.9c-0.8,-0 -1.667,0.683 -2.6,2.05c-0.8,1.3 -1.584,2.616 -2.35,3.95c-0.967,1.566 -1.834,2.516 -2.6,2.85c-0.467,0.2 -1.817,0.3 -4.05,0.3Zm8.65,-2.7c0.8,-1.634 1.383,-2.45 1.75,-2.45c0.666,-0 1.233,0.45 1.7,1.35c0.166,0.266 0.433,0.85 0.8,1.75l-0,1.1l-0.8,0.25c-0.467,-0 -1.617,-0.667 -3.45,-2Z" style="fill:#f00;"/><path d="M87.184,55.957l-5.1,3.6c-0.677,0.478 -0.838,1.414 -0.361,2.091c0.478,0.676 1.414,0.838 2.091,0.36l5.1,-3.6c0.676,-0.477 0.837,-1.414 0.36,-2.09c-0.477,-0.677 -1.414,-0.838 -2.09,-0.361Z"/></g></svg>