<?xml version="1.0" encoding="UTF-8" standalone="no"?><!DOCTYPE svg PUBLIC "-//W3C//DTD SVG 1.1//EN" "http://www.w3.org/Graphics/SVG/1.1/DTD/svg11.dtd"><svg width="100%" height="100%" viewBox="0 0 48 78" version="1.1" xmlns="http://www.w3.org/2000/svg" xmlns:xlink="http://www.w3.org/1999/xlink" xml:space="preserve" xmlns:serif="http://www.serif.com/" style="fill-rule:evenodd;clip-rule:evenodd;stroke-linejoin:round;stroke-miterlimit:2;"><g><path d="M21,61.1l-2.65,2.95l2.65,2.9l2.65,-2.9l-2.65,-2.95Z"/><path d="M39.65,52.15c0,-1.433 -0.267,-2.683 -0.8,-3.75c-0.367,-0.767 -1.1,-1.767 -2.2,-3l-1,4.2c0.533,0.7 1.1,1.4 1.7,2.1c0.733,1.033 1.1,1.817 1.1,2.35c0,2.667 -1.767,4.95 -5.3,6.85c-2.967,1.633 -5.8,2.45 -8.5,2.45c2.167,1.6 4.317,2.4 6.45,2.4c2.467,-0 4.567,-1.633 6.3,-4.9c1.5,-2.867 2.25,-5.767 2.25,-8.7Z"/><path d="M24.813,46.188c0.158,0.924 0.237,1.595 0.237,2.012c-0,2.933 -0.633,5 -1.9,6.2c-1.031,0.972 -2.648,1.505 -4.85,1.6c-0.217,0.029 -0.451,0.046 -0.7,0.05l-1.35,-0l0,-5l2.05,-0c2.923,-0.014 4.707,-0.481 5.35,-1.4c-0.167,-0.633 -0.583,-1.65 -1.25,-3.05c0.433,-0.867 1,-2.183 1.7,-3.95l0.713,3.537Z"/><path d="M22.25,34l-0.3,0.15c0,1.433 -0.3,2.15 -0.9,2.15c-0.3,-0 -0.55,-0.467 -0.75,-1.4l-0.2,0.05c-0.133,0.733 -0.25,1.217 -0.35,1.45c-0.2,0.6 -0.483,0.9 -0.85,0.9c-0.333,-0 -0.5,-0.533 -0.5,-1.6l-0.3,0.05c-0.2,0.767 -0.3,1.25 -0.3,1.45c-0,0.4 0.083,0.75 0.25,1.05c0.2,0.367 0.467,0.55 0.8,0.55c0.333,-0 0.633,-0.133 0.9,-0.4c0.267,-0.233 0.433,-0.517 0.5,-0.85c0.233,0.2 0.5,0.3 0.8,0.3c0.933,0 1.4,-0.817 1.4,-2.45c0,-0.433 -0.067,-0.9 -0.2,-1.4Z"/><path d="M53.8,33.25c0.6,0.4 1.117,0.717 1.55,0.95l0.15,-1.75c-0.333,-0.267 -0.583,-0.45 -0.75,-0.55c0.4,-0.867 0.6,-1.55 0.6,-2.05c-0,-1.033 -0.45,-1.55 -1.35,-1.55c-0.6,-0 -1.15,0.367 -1.65,1.1c-0.433,0.633 -0.65,1.25 -0.65,1.85c0,0.5 0.417,1.017 1.25,1.55c-1.5,1.233 -2.917,2.167 -4.25,2.8c0.467,0.133 0.85,0.2 1.15,0.2c1.1,-0 2.417,-0.85 3.95,-2.55Zm0.2,-1.85c-0.867,-0.433 -1.3,-0.85 -1.3,-1.25c0.067,-0.2 0.2,-0.317 0.4,-0.35c0.7,0.1 1.05,0.467 1.05,1.1c0,0.133 -0.05,0.3 -0.15,0.5Z"/><path d="M8.25,29.05c0.4,-0.867 0.6,-1.55 0.6,-2.05c-0,-1.033 -0.45,-1.55 -1.35,-1.55c-0.6,0 -1.15,0.367 -1.65,1.1c-0.433,0.633 -0.65,1.25 -0.65,1.85c0,0.5 0.417,1.017 1.25,1.55c-1.5,1.233 -2.917,2.167 -4.25,2.8c0.467,0.133 0.85,0.2 1.15,0.2c1.1,0 2.417,-0.85 3.95,-2.55c0.6,0.4 1.117,0.717 1.55,0.95l0.15,-1.75c-0.333,-0.267 -0.583,-0.45 -0.75,-0.55Zm-0.6,-1c0,0.133 -0.05,0.3 -0.15,0.5c-0.867,-0.433 -1.3,-0.85 -1.3,-1.25c0.067,-0.2 0.2,-0.317 0.4,-0.35c0.7,0.1 1.05,0.467 1.05,1.1Z"/><path d="M18.95,23.75c-0.433,0.633 -0.65,1.25 -0.65,1.85c-0,0.5 0.417,1.017 1.25,1.55c-1.5,1.233 -2.917,2.167 -4.25,2.8c0.467,0.133 0.85,0.2 1.15,0.2c1.1,-0 2.417,-0.85 3.95,-2.55c0.6,0.4 1.117,0.717 1.55,0.95l0.15,-1.75c-0.333,-0.267 -0.583,-0.45 -0.75,-0.55c0.4,-0.867 0.6,-1.55 0.6,-2.05c0,-1.033 -0.45,-1.55 -1.35,-1.55c-0.6,-0 -1.15,0.367 -1.65,1.1Zm0.75,0.4c0.7,0.1 1.05,0.467 1.05,1.1c0,0.133 -0.05,0.3 -0.15,0.5c-0.867,-0.433 -1.3,-0.85 -1.3,-1.25c0.067,-0.2 0.2,-0.317 0.4,-0.35Z"/><path d="M17.6,56.05l0.7,-0l-0,-0.05c-0.217,0.029 -0.451,0.046 -0.7,0.05Z" style="fill:#f00;"/><path d="M10.95,37.45c-1,1.4 -1.483,2.3 -1.45,2.7l0.25,3.35c-2.267,1.3 -3.883,2.483 -4.85,3.55c-1.433,1.633 -2.15,3.567 -2.15,5.8c-0,0.8 0.833,1.2 2.5,1.2c1.533,-0 2.633,-0.15 3.3,-0.45c0.867,-0.4 1.733,-1.283 2.6,-2.65c0.367,1.1 0.75,2.183 1.15,3.25c0.567,1.233 1.317,1.85 2.25,1.85l1.7,-0l-0,-5l0.6,-0c-1.564,-0.035 -2.464,-0.119 -2.7,-0.25c-0.967,-0.467 -1.767,-2.517 -2.4,-6.15c-0.533,-2.833 -0.8,-5.233 -0.8,-7.2Zm-1,8.45c0.267,1.1 0.4,1.75 0.4,1.95c-0,0.3 -0.4,0.567 -1.2,0.8c-0.667,0.2 -1.2,0.3 -1.6,0.3c-0.467,0 -1.067,-0.133 -1.8,-0.4c1.533,-1.133 2.933,-2.017 4.2,-2.65Z" style="fill:#f00;"/><path d="M36.12,16.367l-5.05,3.65c-0.671,0.485 -0.822,1.423 -0.337,2.094c0.485,0.671 1.423,0.822 2.094,0.337l5.05,-3.65c0.671,-0.485 0.822,-1.423 0.337,-2.094c-0.485,-0.671 -1.423,-0.822 -2.094,-0.337Z"/></g></svg>