<?xml version="1.0" encoding="UTF-8" standalone="no"?><!DOCTYPE svg PUBLIC "-//W3C//DTD SVG 1.1//EN" "http://www.w3.org/Graphics/SVG/1.1/DTD/svg11.dtd"><svg width="100%" height="100%" viewBox="0 0 57 73" version="1.1" xmlns="http://www.w3.org/2000/svg" xmlns:xlink="http://www.w3.org/1999/xlink" xml:space="preserve" xmlns:serif="http://www.serif.com/" style="fill-rule:evenodd;clip-rule:evenodd;stroke-linejoin:round;stroke-miterlimit:2;"><g><path d="M26.5,61.55l2.65,2.9l2.65,-2.9l-2.65,-2.95l-2.65,2.95Z"/><path d="M45.55,58.35c1.5,-2.867 2.25,-5.767 2.25,-8.7c-0,-1.433 -0.267,-2.683 -0.8,-3.75c-0.367,-0.767 -1.1,-1.767 -2.2,-3l-1,4.2c0.533,0.7 1.1,1.4 1.7,2.1c0.733,1.033 1.1,1.817 1.1,2.35c0,2.667 -1.767,4.95 -5.3,6.85c-2.967,1.633 -5.8,2.45 -8.5,2.45c2.167,1.6 4.317,2.4 6.45,2.4c2.467,-0 4.567,-1.633 6.3,-4.9Z"/><path d="M8.7,39.85l0,-16.15c-0.467,0.5 -0.917,1 -1.35,1.5c-0.333,0.5 -0.5,1.167 -0.5,2c0,6.733 0.033,11.05 0.1,12.95c0.233,6.533 0.817,10.467 1.75,11.8c0.767,1.067 1.833,1.6 3.2,1.6l4.4,0c0.867,0 1.583,-0.367 2.15,-1.1c0.167,-0.2 0.6,-0.967 1.3,-2.3c0.867,1.433 1.333,2.183 1.4,2.25c0.6,0.767 1.3,1.15 2.1,1.15l3.1,0l0,-0.05c2.254,-0.08 3.904,-0.613 4.95,-1.6c1.267,-1.2 1.9,-3.267 1.9,-6.2c0,-0.833 -0.317,-2.683 -0.95,-5.55c-0.7,1.767 -1.267,3.083 -1.7,3.95c0.667,1.4 1.083,2.417 1.25,3.05c-0.651,0.929 -2.467,1.396 -5.45,1.4l-1.35,0c-1.491,-0.049 -2.408,-0.166 -2.75,-0.35c-0.867,-0.467 -1.3,-1.8 -1.3,-4c-0.667,0.6 -1.133,1.367 -1.4,2.3c-0.2,0.767 -0.533,1.267 -1,1.5c-0.67,0.307 -1.936,0.474 -3.8,0.5c-2.509,-0.077 -4.159,-0.694 -4.95,-1.85c-0.733,-1.067 -1.1,-3.333 -1.1,-6.8Z"/><path d="M22.3,36.1l-2.65,-3l-2.7,3l2.65,2.85l2.7,-2.85Z"/><path d="M30.7,22.15l-0.3,0.15c-0,1.433 -0.3,2.15 -0.9,2.15c-0.3,-0 -0.55,-0.467 -0.75,-1.4l-0.2,0.05c-0.133,0.733 -0.25,1.217 -0.35,1.45c-0.2,0.6 -0.483,0.9 -0.85,0.9c-0.333,-0 -0.5,-0.533 -0.5,-1.6l-0.3,0.05c-0.2,0.767 -0.3,1.25 -0.3,1.45c0,0.4 0.083,0.75 0.25,1.05c0.2,0.367 0.467,0.55 0.8,0.55c0.333,-0 0.633,-0.133 0.9,-0.4c0.267,-0.233 0.433,-0.517 0.5,-0.85c0.233,0.2 0.5,0.3 0.8,0.3c0.933,0 1.4,-0.817 1.4,-2.45c-0,-0.433 -0.067,-0.9 -0.2,-1.4Z"/><path d="M31.476,65.063l-5.1,3.65c-0.674,0.482 -0.829,1.419 -0.347,2.093c0.482,0.673 1.419,0.828 2.093,0.346l5.1,-3.65c0.673,-0.481 0.828,-1.419 0.346,-2.092c-0.481,-0.674 -1.419,-0.829 -2.092,-0.347Z"/><path d="M44.484,13.607l-5.1,3.6c-0.677,0.478 -0.838,1.414 -0.361,2.091c0.478,0.676 1.414,0.838 2.091,0.36l5.1,-3.6c0.676,-0.477 0.837,-1.414 0.36,-2.09c-0.477,-0.677 -1.414,-0.838 -2.09,-0.361Z"/><path d="M16.826,11.563l-5.1,3.65c-0.674,0.482 -0.829,1.419 -0.347,2.093c0.482,0.673 1.419,0.828 2.093,0.346l5.1,-3.65c0.673,-0.481 0.828,-1.419 0.346,-2.092c-0.481,-0.674 -1.419,-0.829 -2.092,-0.347Z"/></g></svg>