<?xml version="1.0" encoding="UTF-8" standalone="no"?><!DOCTYPE svg PUBLIC "-//W3C//DTD SVG 1.1//EN" "http://www.w3.org/Graphics/SVG/1.1/DTD/svg11.dtd"><svg width="100%" height="100%" viewBox="0 0 68 69" version="1.1" xmlns="http://www.w3.org/2000/svg" xmlns:xlink="http://www.w3.org/1999/xlink" xml:space="preserve" xmlns:serif="http://www.serif.com/" style="fill-rule:evenodd;clip-rule:evenodd;stroke-linejoin:round;stroke-miterlimit:2;"><g><path d="M57.8,38.55c-0,-0.3 -0.167,-1.033 -0.5,-2.2c-0.7,1.5 -1.167,2.567 -1.4,3.2c0.433,1.167 0.65,1.9 0.65,2.2l-0.25,0.75c-0.367,0.167 -0.7,0.25 -1,0.25c-2.133,-0 -3.2,-0.75 -3.2,-2.25c0,-0.3 0.033,-0.7 0.1,-1.2c0.067,-0.567 0.1,-0.95 0.1,-1.15c-0.8,1.2 -1.6,2.4 -2.4,3.6c-0.967,1.133 -2.2,1.7 -3.7,1.7c-1.1,-0 -1.883,-0.2 -2.35,-0.6c-0.367,-0.3 -0.6,-0.833 -0.7,-1.6c-0.067,-0.8 -0.15,-1.617 -0.25,-2.45c-1.133,2.1 -1.883,3.283 -2.25,3.55c-0.467,0.333 -1.85,0.5 -4.15,0.5l0,0.1c1.029,-0.067 1.729,-0.1 2.1,-0.1l0,4.75c-0.373,0.109 -0.756,0.192 -1.15,0.25l1.9,-0c0.4,-0 1.25,-0.583 2.55,-1.75c0.7,0.367 1.4,0.75 2.1,1.15c0.867,0.4 1.633,0.6 2.3,0.6c1.6,-0 3.15,-0.817 4.65,-2.45c0.567,0.4 1.15,0.8 1.75,1.2c0.833,0.533 1.433,0.8 1.8,0.8c1.167,0 2.05,-1.2 2.65,-3.6c0.433,-1.7 0.65,-3.45 0.65,-5.25Z"/><path d="M32.2,18.95c0,-0.667 -0.183,-1.283 -0.55,-1.85c-0.4,-0.6 -0.883,-0.9 -1.45,-0.9c-0.8,-0 -1.4,0.4 -1.8,1.2c-0.333,0.633 -0.5,1.417 -0.5,2.35c-0,1.5 0.583,2.25 1.75,2.25c0.733,0 1.333,-0.317 1.8,-0.95c0.5,-0.633 0.75,-1.333 0.75,-2.1Zm-2.75,-1.15c0.3,0 0.667,0.183 1.1,0.55c0.5,0.4 0.75,0.75 0.75,1.05c-0,0.5 -0.433,0.75 -1.3,0.75c-1.033,0 -1.55,-0.367 -1.55,-1.1c0,-0.833 0.333,-1.25 1,-1.25Z"/><path d="M13.6,14.35c-0.667,-0 -1.267,0.35 -1.8,1.05c-0.533,0.733 -0.8,1.433 -0.8,2.1c0,0.767 0.467,1.45 1.4,2.05c-0.9,1 -1.767,1.633 -2.6,1.9c0.067,-0.933 0.1,-1.5 0.1,-1.7c-0,-1.6 -0.483,-2.4 -1.45,-2.4c-0.533,-0 -0.967,0.267 -1.3,0.8c-0.3,0.467 -0.45,0.983 -0.45,1.55c0,0.333 0.067,0.717 0.2,1.15c0.133,-1.1 0.483,-1.65 1.05,-1.65c0.3,-0 0.55,0.117 0.75,0.35c0.2,0.267 0.3,0.55 0.3,0.85c0,0.467 -0.3,1.4 -0.9,2.8c1.133,-0.233 2.083,-0.6 2.85,-1.1c0.6,-0.4 1.35,-1.083 2.25,-2.05c0.433,0.333 1.067,0.75 1.9,1.25c0.033,-0.833 0.05,-1.283 0.05,-1.35c-0,-0.533 -0.267,-1.017 -0.8,-1.45c0.433,-1.067 0.65,-1.883 0.65,-2.45c0,-0.4 -0.133,-0.783 -0.4,-1.15c-0.3,-0.367 -0.633,-0.55 -1,-0.55Zm-0.05,2.55l-0.1,0.9c-0.9,-0.667 -1.35,-1.183 -1.35,-1.55l0.2,-0.35c0.167,-0.1 0.283,-0.15 0.35,-0.15c0.6,0 0.9,0.383 0.9,1.15Z"/><path d="M12.45,39.65c0.1,0.2 0.1,0.35 0,0.45c-1.9,0.533 -3.517,1.45 -4.85,2.75c-1.6,1.533 -2.4,3.317 -2.4,5.35c0,0.2 0.017,0.417 0.05,0.65l1.6,19.3c0.267,-0.367 0.533,-0.917 0.8,-1.65c0.3,-0.767 0.433,-1.367 0.4,-1.8l-1.2,-17.1c0.667,-1.467 1.667,-2.2 3,-2.2l0.6,0.25c0,1.1 0.25,2.233 0.75,3.4c0.567,1.4 1.3,2.1 2.2,2.1c1.5,0 2.25,-1.617 2.25,-4.85c1.367,1.033 2.367,1.55 3,1.55l6.15,0c-0,1.867 0.417,3.8 1.25,5.8c1,2.467 2.25,3.7 3.75,3.7c1.133,0 2.017,-0.833 2.65,-2.5c0.5,-1.3 0.75,-2.683 0.75,-4.15c0,-0.4 -0.033,-0.917 -0.1,-1.55c-0.067,-0.767 -0.1,-1.283 -0.1,-1.55c1.1,0.233 2.117,0.35 3.05,0.35c0.481,-0 0.948,-0.033 1.4,-0.1c0.394,-0.058 0.777,-0.141 1.15,-0.25l0,-4.75c-0.371,-0 -1.071,0.033 -2.1,0.1c-0.174,0.019 -0.357,0.036 -0.55,0.05c-1.333,0.067 -2.35,0.1 -3.05,0.1c-1.1,-0 -1.933,-0.083 -2.5,-0.25c0.933,-1 1.7,-2.133 2.3,-3.4c0.733,-1.433 1.1,-2.767 1.1,-4c-0,-2.5 -0.533,-4.2 -1.6,-5.1c-0.833,-0 -1.717,1.017 -2.65,3.05c-0.8,1.9 -1.583,3.8 -2.35,5.7c-0.967,2.133 -1.9,3.3 -2.8,3.5c-0.605,0.126 -1.672,0.21 -3.2,0.25l-0.4,-0c-1.905,-0.042 -3.221,-0.209 -3.95,-0.5c-0.6,-0.233 -1.117,-0.733 -1.55,-1.5c-0.6,-1.033 -1.3,-1.867 -2.1,-2.5c-0.367,0.4 -0.617,0.833 -0.75,1.3Zm14.35,8.4c3.467,0.9 5.2,2.233 5.2,4c0,0.133 -0.15,0.317 -0.45,0.55c-0.3,0.2 -0.517,0.3 -0.65,0.3c-1.033,0 -1.95,-0.533 -2.75,-1.6c-0.667,-0.933 -1.117,-2.017 -1.35,-3.25Zm4,-12.35c0.667,0.7 1,1.35 1,1.95c-0,1.267 -0.433,2.233 -1.3,2.9c-0.6,0.433 -1.567,0.8 -2.9,1.1c0.8,-1.9 1.25,-2.95 1.35,-3.15c0.533,-1.1 1.15,-2.033 1.85,-2.8Z" style="fill:#f00;"/><path d="M50.784,6.857l-5.1,3.6c-0.677,0.478 -0.838,1.414 -0.361,2.091c0.478,0.676 1.414,0.838 2.091,0.36l5.1,-3.6c0.676,-0.477 0.837,-1.414 0.36,-2.09c-0.477,-0.677 -1.414,-0.838 -2.09,-0.361Z"/></g></svg>