<?xml version="1.0" encoding="UTF-8" standalone="no"?><!DOCTYPE svg PUBLIC "-//W3C//DTD SVG 1.1//EN" "http://www.w3.org/Graphics/SVG/1.1/DTD/svg11.dtd"><svg width="100%" height="100%" viewBox="0 0 30 25" version="1.1" xmlns="http://www.w3.org/2000/svg" xmlns:xlink="http://www.w3.org/1999/xlink" xml:space="preserve" xmlns:serif="http://www.serif.com/" style="fill-rule:evenodd;clip-rule:evenodd;stroke-linejoin:round;stroke-miterlimit:2;"><g><path d="M13.55,15.75l0,-0.1l-1.35,0l-0,-3.1l-3.65,0l0,3.2l5,0Z"/><path d="M22.85,11.25c0,-0.733 -0.267,-1.65 -0.8,-2.75c-0.6,-1.267 -1.2,-1.9 -1.8,-1.9c-0.533,-0 -1.133,0.433 -1.8,1.3c-0.533,0.867 -1.083,1.717 -1.65,2.55c-0.667,1 -1.267,1.6 -1.8,1.8c-0.3,0.133 -1.233,0.2 -2.8,0.2l-0,3.2l2.5,0c0.567,0 1.083,-0.283 1.55,-0.85c0.3,-0.567 0.617,-1.117 0.95,-1.65c0.933,0.6 1.45,0.933 1.55,1c0.633,0.333 1.217,0.5 1.75,0.5c0.8,0 1.4,-0.383 1.8,-1.15c0.367,-0.633 0.55,-1.383 0.55,-2.25Zm-1.65,-0.1l-0,0.7c-0.367,0.1 -0.567,0.15 -0.6,0.15c-0.3,0 -1.083,-0.417 -2.35,-1.25c0.533,-1.067 0.933,-1.6 1.2,-1.6c0.467,0 0.867,0.283 1.2,0.85c0.1,0.2 0.283,0.583 0.55,1.15Z" style="fill:#f00;"/></g></svg>