<?xml version="1.0" encoding="UTF-8" standalone="no"?><!DOCTYPE svg PUBLIC "-//W3C//DTD SVG 1.1//EN" "http://www.w3.org/Graphics/SVG/1.1/DTD/svg11.dtd"><svg width="100%" height="100%" viewBox="0 0 29 25" version="1.1" xmlns="http://www.w3.org/2000/svg" xmlns:xlink="http://www.w3.org/1999/xlink" xml:space="preserve" xmlns:serif="http://www.serif.com/" style="fill-rule:evenodd;clip-rule:evenodd;stroke-linejoin:round;stroke-miterlimit:2;"><g><path d="M22.35,7.8l-5,0l-0,3.2l5,0l0,-3.2Z"/><path d="M12.45,5.75c0.067,0.133 0.067,0.233 -0,0.3c-1.333,0.333 -2.467,0.917 -3.4,1.75c-1.1,1 -1.65,2.133 -1.65,3.4l0,0.45l1.15,12.3c0.167,-0.233 0.35,-0.583 0.55,-1.05c0.2,-0.5 0.283,-0.883 0.25,-1.15l-0.85,-10.9c0.467,-0.933 1.167,-1.4 2.1,-1.4l0.45,0.15c0,0.7 0.167,1.417 0.5,2.15c0.4,0.9 0.917,1.35 1.55,1.35c1.033,-0 1.55,-1.033 1.55,-3.1c0.967,0.667 1.667,1 2.1,1l0.6,0l-0,-3.2l0.75,0c-1.23,-0.032 -2.097,-0.132 -2.6,-0.3c-0.4,-0.167 -0.767,-0.483 -1.1,-0.95c-0.4,-0.667 -0.867,-1.217 -1.4,-1.65c-0.3,0.3 -0.483,0.583 -0.55,0.85Z" style="fill:#f00;"/></g></svg>