<?xml version="1.0" encoding="UTF-8" standalone="no"?><!DOCTYPE svg PUBLIC "-//W3C//DTD SVG 1.1//EN" "http://www.w3.org/Graphics/SVG/1.1/DTD/svg11.dtd"><svg width="100%" height="100%" viewBox="0 0 30 26" version="1.1" xmlns="http://www.w3.org/2000/svg" xmlns:xlink="http://www.w3.org/1999/xlink" xml:space="preserve" xmlns:serif="http://www.serif.com/" style="fill-rule:evenodd;clip-rule:evenodd;stroke-linejoin:round;stroke-miterlimit:2;"><g><rect x="9.45" y="13.95" width="3.65" height="3.2"/><path d="M15.75,10.05c-0.3,0.7 -0.45,1.283 -0.45,1.75c0,0.2 0.05,0.467 0.15,0.8c0.1,0.367 0.15,0.633 0.15,0.8c0,0.341 -0.717,0.524 -2.15,0.55l-0.35,-0l0,3.2l1.65,-0c0.833,-0 1.867,-0.667 3.1,-2c1.6,0.367 2.767,0.55 3.5,0.55c1.167,-0 1.9,-0.383 2.2,-1.15c0.167,-0.4 0.25,-1.3 0.25,-2.7c0,-0.967 -0.817,-2.267 -2.45,-3.9c-1.133,-1.133 -2.367,-2.167 -3.7,-3.1c-0.2,0 -0.483,0.433 -0.85,1.3c-0.367,0.8 -0.55,1.35 -0.55,1.65c0,0.133 0.067,0.267 0.2,0.4c0.133,0.133 0.217,0.25 0.25,0.35c-0.333,0.333 -0.65,0.833 -0.95,1.5Zm5.85,1.4c0.7,0.733 1.117,1.317 1.25,1.75l-0.3,0.3c-0.2,-0.167 -0.633,-0.3 -1.3,-0.4c-0.5,-0.067 -1,-0.133 -1.5,-0.2c0.3,-0.7 0.45,-1.25 0.45,-1.65c-0,-0.4 -0.1,-0.783 -0.3,-1.15c0.467,0.233 1.033,0.683 1.7,1.35Zm-5.3,0.2c0.1,-0.4 0.3,-0.783 0.6,-1.15c0.5,-0.6 0.767,-0.933 0.8,-1c0.367,0.167 0.7,0.417 1,0.75c0.333,0.367 0.5,0.733 0.5,1.1c-0,0.233 -0.167,0.433 -0.5,0.6c-0.3,0.167 -0.583,0.25 -0.85,0.25c-0.333,-0 -0.85,-0.183 -1.55,-0.55Z" style="fill:#f00;"/></g></svg>