<?xml version="1.0" encoding="UTF-8" standalone="no"?><!DOCTYPE svg PUBLIC "-//W3C//DTD SVG 1.1//EN" "http://www.w3.org/Graphics/SVG/1.1/DTD/svg11.dtd"><svg width="100%" height="100%" viewBox="0 0 29 25" version="1.1" xmlns="http://www.w3.org/2000/svg" xmlns:xlink="http://www.w3.org/1999/xlink" xml:space="preserve" xmlns:serif="http://www.serif.com/" style="fill-rule:evenodd;clip-rule:evenodd;stroke-linejoin:round;stroke-miterlimit:2;"><g><path d="M16.75,12l0,3.2l5,-0l0,-3.2l-5,0Z"/><path d="M13.05,3.35c-0.7,0.867 -1.05,1.433 -1.05,1.7l0.2,2.1c-1.567,0.867 -2.7,1.633 -3.4,2.3c-1,1.033 -1.5,2.267 -1.5,3.7c0,0.5 0.583,0.75 1.75,0.75c1.067,-0 1.833,-0.1 2.3,-0.3c0.6,-0.233 1.2,-0.783 1.8,-1.65c0.267,0.7 0.533,1.383 0.8,2.05c0.4,0.8 0.933,1.2 1.6,1.2l1.2,-0l0,-3.2l0.35,0c-1.053,-0.023 -1.67,-0.073 -1.85,-0.15c-0.667,-0.3 -1.233,-1.6 -1.7,-3.9c-0.333,-1.833 -0.5,-3.367 -0.5,-4.6Zm-0.75,5.35c0.2,0.733 0.3,1.15 0.3,1.25c-0,0.2 -0.283,0.383 -0.85,0.55c-0.467,0.133 -0.833,0.2 -1.1,0.2c-0.333,-0 -0.75,-0.1 -1.25,-0.3c1.067,-0.7 2.033,-1.267 2.9,-1.7Z" style="fill:#f00;"/></g></svg>