<?xml version="1.0" encoding="UTF-8" standalone="no"?><!DOCTYPE svg PUBLIC "-//W3C//DTD SVG 1.1//EN" "http://www.w3.org/Graphics/SVG/1.1/DTD/svg11.dtd"><svg width="100%" height="100%" viewBox="0 0 81 73" version="1.1" xmlns="http://www.w3.org/2000/svg" xmlns:xlink="http://www.w3.org/1999/xlink" xml:space="preserve" xmlns:serif="http://www.serif.com/" style="fill-rule:evenodd;clip-rule:evenodd;stroke-linejoin:round;stroke-miterlimit:2;"><g><path d="M22.25,29.95c0,6.7 0.033,11.017 0.1,12.95c0.233,6.5 0.85,10.417 1.85,11.75c0.8,1.067 1.917,1.6 3.35,1.6l6.3,0c0.7,0 1.633,-0.583 2.8,-1.75c0.767,0.367 1.55,0.75 2.35,1.15c0.933,0.4 1.75,0.6 2.45,0.6c1.4,0 2.833,-0.517 4.3,-1.55c0.567,0.333 1.15,0.65 1.75,0.95c0.733,0.4 1.333,0.6 1.8,0.6c0.9,0 1.783,-0.517 2.65,-1.55c1.1,1.033 1.833,1.55 2.2,1.55l3.95,0l0,-0.05c2.285,-0.102 3.969,-0.636 5.05,-1.6c1.333,-1.2 2,-3.267 2,-6.2c0,-0.8 -0.333,-2.65 -1,-5.55c-0.733,1.767 -1.317,3.083 -1.75,3.95c0.7,1.433 1.133,2.45 1.3,3.05c-0.703,0.917 -2.57,1.384 -5.6,1.4l-1.85,0c-1.833,-0.064 -2.75,-0.614 -2.75,-1.65c0,-0.1 0.05,-0.3 0.15,-0.6c0.1,-0.3 0.15,-0.533 0.15,-0.7c0,-0.467 -0.1,-0.983 -0.3,-1.55c-0.467,1 -0.933,2 -1.4,3c-0.7,1.067 -1.517,1.6 -2.45,1.6c-1.2,0 -2.017,-0.35 -2.45,-1.05c0.3,-1.233 0.45,-2.417 0.45,-3.55c-0.7,1.133 -1.4,2.25 -2.1,3.35c-0.733,0.833 -1.917,1.25 -3.55,1.25c-1.467,0 -2.5,-0.217 -3.1,-0.65c-0.733,-0.567 -1.1,-1.583 -1.1,-3.05c-1.167,1.567 -2.117,2.567 -2.85,3c-0.667,0.4 -1.65,0.6 -2.95,0.6l-1.15,0c-2.811,-0.063 -4.645,-0.696 -5.5,-1.9c-0.767,-1.067 -1.15,-3.317 -1.15,-6.75l0,-16.15c-0.5,0.5 -0.983,1 -1.45,1.5c-0.333,0.467 -0.5,1.133 -0.5,2Z"/><path d="M5.85,48.4c-0,0.5 0.2,1.067 0.6,1.7c0.433,0.633 0.65,1.05 0.65,1.25c-0,0.033 -0.1,0.25 -0.3,0.65c-0.2,0.367 -0.3,0.683 -0.3,0.95c-0,0.3 0.067,0.7 0.2,1.2c2.7,-1.933 4.7,-2.9 6,-2.9c0.267,0 0.65,0.1 1.15,0.3c0.267,-0.133 0.55,-0.517 0.85,-1.15c0.2,-0.433 0.4,-0.883 0.6,-1.35l-2.1,0c-3.233,0 -4.85,-0.483 -4.85,-1.45c-0,-0.333 0.267,-0.733 0.8,-1.2c0.533,-0.433 0.967,-0.65 1.3,-0.65c0.033,0 0.267,0.067 0.7,0.2c0.433,0.167 0.767,0.25 1,0.25c0.833,0 1.25,-0.417 1.25,-1.25c-0,-0.3 -0.233,-0.617 -0.7,-0.95c-0.5,-0.333 -0.9,-0.5 -1.2,-0.5c-1.833,0 -3.717,1.633 -5.65,4.9Z"/><path d="M50.95,37.75l-2.45,-2.5l-2.45,2.55l2.45,2.55l2.45,-2.6Z"/><path d="M46.05,37.8l-2.45,-2.55l-2.4,2.5l2.45,2.6l2.4,-2.55Z"/><path d="M62.35,35.6l-2.45,-2.55l-2.45,2.55l2.45,2.55l2.45,-2.55Z"/><path d="M67.25,35.6l-2.5,-2.55l-2.4,2.55l2.4,2.55l2.5,-2.55Z"/><path d="M46.2,29.9l-2.4,2.55l2.4,2.6l2.45,-2.6l-2.45,-2.55Z"/><path d="M8.8,30.5c-0.467,0.633 -0.7,1.25 -0.7,1.85c0,0.5 0.45,1.017 1.35,1.55c-1.633,1.233 -3.183,2.167 -4.65,2.8c0.533,0.167 0.95,0.25 1.25,0.25c1.2,0 2.633,-0.85 4.3,-2.55c0.667,0.4 1.25,0.7 1.75,0.9l0.15,-1.75c-0.367,-0.233 -0.65,-0.4 -0.85,-0.5c0.467,-0.9 0.7,-1.6 0.7,-2.1c0,-1.033 -0.5,-1.55 -1.5,-1.55c-0.667,0 -1.267,0.367 -1.8,1.1Zm1.95,1.5c0,0.133 -0.05,0.317 -0.15,0.55c-0.933,-0.467 -1.4,-0.9 -1.4,-1.3c0.067,-0.2 0.2,-0.317 0.4,-0.35c0.767,0.133 1.15,0.5 1.15,1.1Z"/><path d="M22.95,17.2c1.233,0.567 1.967,0.883 2.2,0.95c0.6,0.2 1.4,0.3 2.4,0.3c1.067,0 2.367,-0.433 3.9,-1.3c1.733,-1 2.6,-2 2.6,-3c-1.767,0.933 -2.717,1.433 -2.85,1.5c-1.133,0.5 -2.15,0.75 -3.05,0.75c-1.767,0 -3.417,-0.567 -4.95,-1.7c-1.3,2 -2.183,3.767 -2.65,5.3c0.4,-0.267 0.817,-0.717 1.25,-1.35c0.533,-0.733 0.917,-1.217 1.15,-1.45Z"/><path d="M35.645,18.543l-5.35,3.6c-0.687,0.462 -0.869,1.395 -0.407,2.082c0.462,0.687 1.395,0.869 2.082,0.407l5.35,-3.6c0.687,-0.462 0.869,-1.395 0.407,-2.082c-0.462,-0.687 -1.395,-0.869 -2.082,-0.407Z"/><path d="M63.456,15.392l-5.3,3.6c-0.685,0.465 -0.863,1.399 -0.398,2.084c0.465,0.684 1.399,0.863 2.083,0.398l5.3,-3.6c0.685,-0.466 0.864,-1.399 0.398,-2.084c-0.465,-0.685 -1.398,-0.863 -2.083,-0.398Z"/></g></svg>