<?xml version="1.0" encoding="UTF-8" standalone="no"?><!DOCTYPE svg PUBLIC "-//W3C//DTD SVG 1.1//EN" "http://www.w3.org/Graphics/SVG/1.1/DTD/svg11.dtd"><svg width="100%" height="100%" viewBox="0 0 105 73" version="1.1" xmlns="http://www.w3.org/2000/svg" xmlns:xlink="http://www.w3.org/1999/xlink" xml:space="preserve" xmlns:serif="http://www.serif.com/" style="fill-rule:evenodd;clip-rule:evenodd;stroke-linejoin:round;stroke-miterlimit:2;"><g><path d="M11.15,43.2c-1.967,2.1 -2.95,4.133 -2.95,6.1c0,4.933 3.5,7.4 10.5,7.4c11.433,-0 17.15,-3.517 17.15,-10.55c-0,-2.6 -0.783,-4.483 -2.35,-5.65c-0.233,1.167 -0.733,2.783 -1.5,4.85c1.367,1.1 2.05,2.283 2.05,3.55c-0.9,1.1 -3.017,2 -6.35,2.7c-2.667,0.567 -5.017,0.85 -7.05,0.85c-2.3,-0 -4.4,-0.333 -6.3,-1c-2.767,-0.933 -4.15,-2.383 -4.15,-4.35c0,-0.867 0.317,-2.167 0.95,-3.9Z"/><path d="M87.5,56.25c1.3,-1.2 1.95,-4.417 1.95,-9.65l-0.15,-21.1c-1.633,2.333 -2.433,3.733 -2.4,4.2l0.6,26.55Z"/><path d="M42.15,27.85c-0.333,0.5 -0.5,1.167 -0.5,2c0,6.733 0.033,11.05 0.1,12.95c0.233,6.533 0.817,10.467 1.75,11.8c0.767,1.067 1.833,1.6 3.2,1.6l1.85,-0l-0,-5l1.2,-0c-2.623,-0.082 -4.339,-0.715 -5.15,-1.9c-0.733,-1.067 -1.1,-3.333 -1.1,-6.8l-0,-16.15c-0.467,0.5 -0.917,1 -1.35,1.5Z"/><path d="M24.95,35.85l-2.3,2.55l2.3,2.55l2.35,-2.6l-2.35,-2.5Z"/><path d="M18,38.35l2.3,2.6l2.35,-2.55l-2.3,-2.55l-2.35,2.5Z"/><path d="M77.75,31.9c0,-0.433 -0.067,-0.9 -0.2,-1.4l-0.3,0.15c0,1.433 -0.3,2.15 -0.9,2.15c-0.3,0 -0.55,-0.467 -0.75,-1.4l-0.2,0.05c-0.133,0.733 -0.25,1.217 -0.35,1.45c-0.2,0.6 -0.483,0.9 -0.85,0.9c-0.333,0 -0.5,-0.533 -0.5,-1.6l-0.3,0.05c-0.2,0.767 -0.3,1.25 -0.3,1.45c-0,0.4 0.083,0.75 0.25,1.05c0.2,0.367 0.467,0.55 0.8,0.55c0.333,0 0.633,-0.133 0.9,-0.4c0.267,-0.233 0.433,-0.517 0.5,-0.85c0.233,0.2 0.5,0.3 0.8,0.3c0.933,0 1.4,-0.817 1.4,-2.45Z"/><path d="M22.9,22.35c-0.533,0.733 -0.8,1.433 -0.8,2.1c0,0.767 0.467,1.45 1.4,2.05c-0.9,1 -1.767,1.633 -2.6,1.9c0.067,-0.933 0.1,-1.5 0.1,-1.7c0,-1.6 -0.483,-2.4 -1.45,-2.4c-0.533,0 -0.967,0.267 -1.3,0.8c-0.3,0.467 -0.45,0.983 -0.45,1.55c-0,0.333 0.067,0.717 0.2,1.15c0.133,-1.1 0.483,-1.65 1.05,-1.65c0.3,0 0.55,0.117 0.75,0.35c0.2,0.267 0.3,0.55 0.3,0.85c0,0.467 -0.3,1.4 -0.9,2.8c1.133,-0.233 2.083,-0.6 2.85,-1.1c0.6,-0.4 1.35,-1.083 2.25,-2.05c0.433,0.333 1.067,0.75 1.9,1.25c0.033,-0.833 0.05,-1.283 0.05,-1.35c-0,-0.533 -0.267,-1.017 -0.8,-1.45c0.433,-1.067 0.65,-1.883 0.65,-2.45c0,-0.4 -0.133,-0.783 -0.4,-1.15c-0.3,-0.367 -0.633,-0.55 -1,-0.55c-0.667,0 -1.267,0.35 -1.8,1.05Zm1.75,1.5l-0.1,0.9c-0.9,-0.667 -1.35,-1.183 -1.35,-1.55l0.2,-0.35c0.167,-0.1 0.283,-0.15 0.35,-0.15c0.6,-0 0.9,0.383 0.9,1.15Z"/><path d="M90.35,15.95c-0,-1.033 -0.45,-1.55 -1.35,-1.55c-0.6,0 -1.15,0.367 -1.65,1.1c-0.433,0.633 -0.65,1.25 -0.65,1.85c0,0.5 0.417,1.017 1.25,1.55c-1.5,1.233 -2.917,2.167 -4.25,2.8c0.467,0.133 0.85,0.2 1.15,0.2c1.1,0 2.417,-0.85 3.95,-2.55c0.6,0.4 1.117,0.717 1.55,0.95l0.15,-1.75c-0.333,-0.267 -0.583,-0.45 -0.75,-0.55c0.4,-0.867 0.6,-1.55 0.6,-2.05Zm-2.65,0.3c0.067,-0.2 0.2,-0.317 0.4,-0.35c0.7,0.1 1.05,0.467 1.05,1.1c0,0.133 -0.05,0.3 -0.15,0.5c-0.867,-0.433 -1.3,-0.85 -1.3,-1.25Z"/><path d="M69.8,50.75c-0.467,0.2 -1.817,0.3 -4.05,0.3l0,0.25c-0.259,0.01 -0.543,0.027 -0.85,0.05c-1.333,0.067 -2.35,0.1 -3.05,0.1c-1.1,-0 -1.933,-0.083 -2.5,-0.25c0.933,-1 1.7,-2.133 2.3,-3.4c0.733,-1.433 1.1,-2.767 1.1,-4c-0,-2.5 -0.533,-4.2 -1.6,-5.1c-0.833,-0 -1.717,1.017 -2.65,3.05c-0.8,1.9 -1.583,3.8 -2.35,5.7c-0.967,2.133 -1.9,3.3 -2.8,3.5c-0.624,0.13 -1.741,0.213 -3.35,0.25l-1.45,-0l-0,5l5.2,-0c-0,1.867 0.417,3.8 1.25,5.8c1,2.467 2.25,3.7 3.75,3.7c1.133,0 2.017,-0.833 2.65,-2.5c0.5,-1.3 0.75,-2.683 0.75,-4.15c0,-0.4 -0.033,-0.917 -0.1,-1.55c-0.067,-0.767 -0.1,-1.283 -0.1,-1.55c1.1,0.233 2.117,0.35 3.05,0.35c0.761,0 1.477,-0.083 2.15,-0.25l2.2,0c0.833,0 1.567,-0.467 2.2,-1.4c0.467,-0.867 0.933,-1.717 1.4,-2.55c1.333,0.967 2.067,1.483 2.2,1.55c0.933,0.567 1.767,0.85 2.5,0.85c1.167,0 2.05,-0.6 2.65,-1.8c0.467,-1 0.7,-2.2 0.7,-3.6c-0,-1.133 -0.367,-2.567 -1.1,-4.3c-0.833,-1.933 -1.683,-2.9 -2.55,-2.9c-0.8,-0 -1.667,0.683 -2.6,2.05c-0.8,1.3 -1.583,2.617 -2.35,3.95c-0.967,1.567 -1.833,2.517 -2.6,2.85Zm-8.85,9.65c-0,0.133 -0.15,0.317 -0.45,0.55c-0.3,0.2 -0.517,0.3 -0.65,0.3c-1.033,0 -1.95,-0.533 -2.75,-1.6c-0.667,-0.933 -1.117,-2.017 -1.35,-3.25c3.467,0.9 5.2,2.233 5.2,4Zm13.45,-12.05c0.8,-1.633 1.383,-2.45 1.75,-2.45c0.667,-0 1.233,0.45 1.7,1.35c0.167,0.267 0.433,0.85 0.8,1.75l0,1.1l-0.8,0.25c-0.467,0 -1.617,-0.667 -3.45,-2Zm-17.85,1.65c0.8,-1.9 1.25,-2.95 1.35,-3.15c0.533,-1.1 1.15,-2.033 1.85,-2.8c0.667,0.7 1,1.35 1,1.95c-0,1.267 -0.433,2.233 -1.3,2.9c-0.6,0.433 -1.567,0.8 -2.9,1.1Z" style="fill:#f00;"/><path d="M77.184,16.157l-5.1,3.6c-0.677,0.478 -0.838,1.414 -0.361,2.091c0.478,0.676 1.414,0.838 2.091,0.36l5.1,-3.6c0.676,-0.477 0.837,-1.414 0.36,-2.09c-0.477,-0.677 -1.414,-0.838 -2.09,-0.361Z"/><path d="M53.184,16.157l-5.1,3.6c-0.677,0.478 -0.838,1.414 -0.361,2.091c0.478,0.676 1.414,0.838 2.091,0.36l5.1,-3.6c0.676,-0.477 0.837,-1.414 0.36,-2.09c-0.477,-0.677 -1.414,-0.838 -2.09,-0.361Z"/></g></svg>