<?xml version="1.0" encoding="utf-8"?>
<svg width="100%" height="100%" viewBox="68.918 0 62.518 102.688" version="1.1" style="fill-rule:evenodd;clip-rule:evenodd;stroke-linejoin:round;stroke-miterlimit:2;" xmlns="http://www.w3.org/2000/svg">
  <g>
    <path d="M105,35.65c0,-0.2 0.067,-0.517 0.2,-0.95c0.133,-0.433 0.183,-0.75 0.15,-0.95l-0.05,-0.65c-1.567,1.1 -2.817,2.967 -3.75,5.6c0.167,0.733 0.717,1.65 1.65,2.75c0.6,3.933 0.9,9.867 0.9,17.8c0,1.533 -1.383,2.267 -4.15,2.2l-1.2,-0.05c-1.867,0 -2.933,-0.033 -3.2,-0.1c-0.833,-0.167 -1.717,-0.717 -2.65,-1.65c-0.2,1.367 -0.5,2.533 -0.9,3.5c0,0.067 0.417,0.767 1.25,2.1c0.7,1.133 1.05,1.767 1.05,1.9c-0,1.267 -1.367,2.9 -4.1,4.9c-2.667,1.933 -4.683,2.9 -6.05,2.9c-0.567,-0 -1.35,-0.133 -2.35,-0.4c-0.8,-0.2 -1.6,-0.4 -2.4,-0.6c1.033,1.2 2.217,2.2 3.55,3c1.533,0.867 2.983,1.3 4.35,1.3c1.867,-0 3.767,-1.4 5.7,-4.2c1.7,-2.5 2.683,-4.817 2.95,-6.95c0.3,-0.2 0.667,-0.3 1.1,-0.3l4.05,0c2,0 3.45,-1.117 4.35,-3.35c0.667,-1.6 1,-3.6 1,-6l0,-5c0,-0.933 -0.083,-2.3 -0.25,-4.1c-0.167,-1.833 -0.25,-3.217 -0.25,-4.15c0,-0.433 0.233,-1.167 0.7,-2.2c0.5,-1.033 0.75,-1.9 0.75,-2.6c-0,-0.267 -0.4,-0.8 -1.2,-1.6c-0.8,-0.833 -1.2,-1.55 -1.2,-2.15Z" style="fill:#f00;"/>
    <path d="M116.85,33.6c-1.867,2.5 -2.8,4.017 -2.8,4.55l0.7,28.7c1.533,-1.3 2.3,-4.783 2.3,-10.45l-0.2,-22.8Z" style="fill:#f00;"/>
    <path d="M89.05,47.2c1.033,-0.5 1.55,-1.183 1.55,-2.05c0,-0.667 -0.233,-1.667 -0.7,-3c-0.433,-1.3 -0.65,-2.267 -0.65,-2.9c-0.933,0.6 -1.4,1.15 -1.4,1.65c0,0.6 0.233,1.483 0.7,2.65c0.433,1.2 0.65,2.083 0.65,2.65c0,0.4 -0.05,0.733 -0.15,1Z" style="fill:#f00;"/>
    <path d="M106.35,27.05c1.9,-1.067 2.85,-2.15 2.85,-3.25c-1.933,1.033 -2.983,1.583 -3.15,1.65c-1.233,0.533 -2.367,0.8 -3.4,0.8c-1.933,0 -3.75,-0.617 -5.45,-1.85c-1.433,2.167 -2.417,4.083 -2.95,5.75c0.433,-0.3 0.9,-0.783 1.4,-1.45c0.567,-0.8 0.983,-1.333 1.25,-1.6c1.367,0.6 2.167,0.95 2.4,1.05c0.7,0.2 1.6,0.3 2.7,0.3c1.2,-0 2.65,-0.467 4.35,-1.4Z" style="fill:#f00;"/>
  </g>
</svg>