<?xml version="1.0" encoding="utf-8"?>
<svg width="100%" height="100%" viewBox="57.327 -1.064 60.977 109.17" version="1.1" style="fill-rule:evenodd;clip-rule:evenodd;stroke-linejoin:round;stroke-miterlimit:2;" xmlns="http://www.w3.org/2000/svg">
  <g>
    <path d="M94.75,35.15l-0.05,-0.65c-1.567,1.1 -2.817,2.967 -3.75,5.6c0.167,0.733 0.717,1.65 1.65,2.75c0.6,3.933 0.9,9.867 0.9,17.8c-0,1.533 -1.383,2.267 -4.15,2.2l-0.45,-0l0,-0.05c-2.7,0 -4.55,-0.183 -5.55,-0.55c-0.667,-0.233 -1.267,-0.767 -1.8,-1.6c-0.7,-1.133 -1.5,-2.05 -2.4,-2.75c-0.467,0.467 -0.767,0.933 -0.9,1.4c0.1,0.233 0.1,0.4 0,0.5c-2.233,0.6 -4.133,1.6 -5.7,3c-1.833,1.667 -2.75,3.583 -2.75,5.75l-0,0.7l1.9,20.9c0.333,-0.4 0.65,-1 0.95,-1.8c0.333,-0.833 0.483,-1.467 0.45,-1.9l-1.4,-18.5c0.767,-1.6 1.933,-2.4 3.5,-2.4l0.7,0.25c0,1.233 0.283,2.467 0.85,3.7c0.7,1.5 1.567,2.25 2.6,2.25c1.733,-0 2.6,-1.75 2.6,-5.25c1.6,1.133 2.75,1.7 3.45,1.7l5.1,-0c2,-0 3.45,-1.117 4.35,-3.35c0.667,-1.6 1,-3.6 1,-6l-0,-5c-0,-0.933 -0.083,-2.3 -0.25,-4.1c-0.167,-1.833 -0.25,-3.217 -0.25,-4.15c-0,-0.433 0.233,-1.167 0.7,-2.2c0.5,-1.033 0.75,-1.9 0.75,-2.6c-0,-0.267 -0.4,-0.8 -1.2,-1.6c-0.8,-0.833 -1.2,-1.55 -1.2,-2.15c0,-0.2 0.067,-0.517 0.2,-0.95c0.133,-0.433 0.183,-0.75 0.15,-0.95Z" style="fill:#f00;"/>
    <path d="M106.45,57.8l-0.2,-22.8c-1.867,2.5 -2.8,4.017 -2.8,4.55l0.7,28.7c1.533,-1.3 2.3,-4.783 2.3,-10.45Z" style="fill:#f00;"/>
    <path d="M83,27.8c-1.933,1.033 -2.983,1.583 -3.15,1.65c-1.233,0.533 -2.367,0.8 -3.4,0.8c-1.933,0 -3.75,-0.617 -5.45,-1.85c-1.433,2.167 -2.417,4.083 -2.95,5.75c0.433,-0.3 0.9,-0.783 1.4,-1.45c0.567,-0.8 0.983,-1.333 1.25,-1.6c1.367,0.6 2.167,0.95 2.4,1.05c0.7,0.2 1.6,0.3 2.7,0.3c1.2,0 2.65,-0.467 4.35,-1.4c1.9,-1.067 2.85,-2.15 2.85,-3.25Z" style="fill:#f00;"/>
    <path d="M100.15,24.6c-1.933,1.033 -2.983,1.583 -3.15,1.65c-1.233,0.533 -2.367,0.8 -3.4,0.8c-1.933,0 -3.75,-0.617 -5.45,-1.85c-1.433,2.167 -2.417,4.083 -2.95,5.75c0.433,-0.3 0.9,-0.783 1.4,-1.45c0.567,-0.8 0.983,-1.333 1.25,-1.6c1.367,0.6 2.167,0.95 2.4,1.05c0.7,0.2 1.6,0.3 2.7,0.3c1.2,0 2.65,-0.467 4.35,-1.4c1.9,-1.067 2.85,-2.15 2.85,-3.25Z" style="fill:#f00;"/>
  </g>
</svg>