<?xml version="1.0" encoding="utf-8"?>
<svg width="100%" height="100%" viewBox="58.744 0 78.435 107" version="1.1" style="fill-rule:evenodd;clip-rule:evenodd;stroke-linejoin:round;stroke-miterlimit:2;" xmlns="http://www.w3.org/2000/svg">
  <g>
    <path d="M87,55.95c0.133,0.267 0.133,0.45 0,0.55c-2.633,0.667 -4.867,1.817 -6.7,3.45c-2.2,1.9 -3.3,4.1 -3.3,6.6c0,0.267 0.017,0.533 0.05,0.8l2.2,24.05c0.4,-0.467 0.783,-1.15 1.15,-2.05c0.4,-0.967 0.567,-1.7 0.5,-2.2l-1.65,-21.3c0.933,-1.833 2.317,-2.75 4.15,-2.75l0.8,0.3c0,1.4 0.35,2.817 1.05,4.25c0.8,1.733 1.817,2.6 3.05,2.6c2.033,0 3.05,-2.017 3.05,-6.05c1.9,1.3 3.267,1.95 4.1,1.95l5.85,-0c1.733,-0 3.383,-0.45 4.95,-1.35c0.567,-0.333 1.817,-1.25 3.75,-2.75c1.433,-1.133 2.7,-1.85 3.8,-2.15c0.9,-0.233 2.033,-0.383 3.4,-0.45c1.133,-0.033 2.283,-0.067 3.45,-0.1c0.733,-1.833 1.3,-3.817 1.7,-5.95c-2.833,-0 -5.5,-0.483 -8,-1.45c-1.133,-0.467 -2.9,-1.383 -5.3,-2.75c-1.7,-0.967 -3,-1.45 -3.9,-1.45c-1.7,0 -3.083,0.85 -4.15,2.55c-0.667,1.033 -1.317,2.633 -1.95,4.8c0.7,-0.333 1.383,-0.683 2.05,-1.05c0.867,-0.433 1.6,-0.65 2.2,-0.65c0.867,-0 2.133,0.433 3.8,1.3c0.033,0.033 1.217,0.733 3.55,2.1c-1.633,1.3 -3.067,2.183 -4.3,2.65c-1,0.4 -2.267,0.6 -3.8,0.6c-0.433,0 -1.283,-0.017 -2.55,-0.05c-0.135,-0.007 -0.269,-0.024 -0.4,-0.05l0,-0.05c-3.233,-0 -5.433,-0.2 -6.6,-0.6c-0.8,-0.267 -1.5,-0.883 -2.1,-1.85c-0.833,-1.267 -1.783,-2.317 -2.85,-3.15c-0.533,0.533 -0.883,1.083 -1.05,1.65Z" style="fill:#f00;"/>
    <path d="M86.7,36.85c1.4,0 3.117,-0.55 5.15,-1.65c2.267,-1.2 3.4,-2.433 3.4,-3.7c-2.333,1.2 -3.583,1.833 -3.75,1.9c-1.467,0.633 -2.8,0.95 -4,0.95c-2.3,0 -4.467,-0.717 -6.5,-2.15c-1.667,2.467 -2.817,4.667 -3.45,6.6c0.533,-0.333 1.083,-0.9 1.65,-1.7c0.667,-0.9 1.15,-1.5 1.45,-1.8c1.633,0.7 2.6,1.1 2.9,1.2c0.833,0.233 1.883,0.35 3.15,0.35Z" style="fill:#f00;"/>
    <path d="M106.05,34.4c1.233,-0.6 1.85,-1.4 1.85,-2.4c-0,-0.767 -0.267,-1.9 -0.8,-3.4c-0.533,-1.533 -0.8,-2.667 -0.8,-3.4c-1.1,0.7 -1.65,1.35 -1.65,1.95c-0,0.7 0.267,1.717 0.8,3.05c0.533,1.333 0.8,2.35 0.8,3.05c0,0.433 -0.067,0.817 -0.2,1.15Z" style="fill:#f00;"/>
  </g>
</svg>