<?xml version="1.0" encoding="UTF-8" standalone="no"?><!DOCTYPE svg PUBLIC "-//W3C//DTD SVG 1.1//EN" "http://www.w3.org/Graphics/SVG/1.1/DTD/svg11.dtd"><svg width="100%" height="100%" viewBox="0 0 191 111" version="1.1" xmlns="http://www.w3.org/2000/svg" xmlns:xlink="http://www.w3.org/1999/xlink" xml:space="preserve" xmlns:serif="http://www.serif.com/" style="fill-rule:evenodd;clip-rule:evenodd;stroke-linejoin:round;stroke-miterlimit:2;"><g><path d="M150.1,63.1c-1.433,-0.833 -2.55,-1.25 -3.35,-1.25c-1.433,0 -2.6,0.733 -3.5,2.2c-0.567,0.9 -1.117,2.3 -1.65,4.2c0.6,-0.3 1.183,-0.6 1.75,-0.9c0.733,-0.367 1.35,-0.55 1.85,-0.55c0.733,-0 1.8,0.367 3.2,1.1c0.067,0.033 1.083,0.633 3.05,1.8c-1.4,1.167 -2.617,1.933 -3.65,2.3c-0.867,0.367 -1.95,0.55 -3.25,0.55c-0.367,-0 -1.067,-0.017 -2.1,-0.05c-0.136,-0.004 -0.269,-0.004 -0.4,0l-0,-0.05c-2.7,0 -4.55,-0.183 -5.55,-0.55c-0.667,-0.233 -1.267,-0.767 -1.8,-1.6c-0.7,-1.133 -1.5,-2.05 -2.4,-2.75c-0.467,0.467 -0.767,0.933 -0.9,1.4c0.1,0.233 0.1,0.4 0,0.5c-2.233,0.6 -4.133,1.6 -5.7,3c-1.833,1.667 -2.75,3.583 -2.75,5.75l0,0.7l1.9,20.9c0.333,-0.4 0.65,-1 0.95,-1.8c0.333,-0.833 0.483,-1.467 0.45,-1.9l-1.4,-18.5c0.767,-1.6 1.933,-2.4 3.5,-2.4l0.7,0.25c0,1.233 0.283,2.467 0.85,3.7c0.7,1.5 1.567,2.25 2.6,2.25c1.733,-0 2.6,-1.75 2.6,-5.25c1.6,1.133 2.75,1.7 3.45,1.7l4.95,0c1.467,0 2.867,-0.4 4.2,-1.2c0.5,-0.267 1.567,-1.05 3.2,-2.35c1.2,-1 2.267,-1.617 3.2,-1.85c0.767,-0.233 1.717,-0.383 2.85,-0.45c0.967,-0 1.95,-0.017 2.95,-0.05c0.633,-1.6 1.117,-3.317 1.45,-5.15c-2.4,-0 -4.667,-0.433 -6.8,-1.3c-0.967,-0.4 -2.45,-1.2 -4.45,-2.4Z" style="fill:#f00;"/><path d="M100,59.45c-1.933,0 -3.583,0.95 -4.95,2.85c-1.233,1.767 -1.85,3.683 -1.85,5.75c0,1.667 0.317,3.133 0.95,4.4l-6.9,0c-2.1,-0.052 -3.15,-0.635 -3.15,-1.75c0,-0.133 0.067,-0.367 0.2,-0.7c0.1,-0.333 0.15,-0.583 0.15,-0.75c0,-0.5 -0.117,-1.05 -0.35,-1.65c-0.533,1.067 -1.05,2.133 -1.55,3.2c-0.767,1.167 -1.683,1.75 -2.75,1.75c-1.333,-0 -2.233,-0.383 -2.7,-1.15c0.333,-1.333 0.5,-2.6 0.5,-3.8c-0.767,1.2 -1.533,2.4 -2.3,3.6c-0.833,0.9 -2.167,1.35 -4,1.35c-1.6,-0 -2.75,-0.25 -3.45,-0.75c-0.8,-0.6 -1.2,-1.7 -1.2,-3.3c-1.267,1.733 -2.317,2.833 -3.15,3.3c-0.733,0.433 -1.817,0.65 -3.25,0.65l-4.7,0c-0,-1.3 -0.283,-2.467 -0.85,-3.5c-0.667,-1.233 -1.6,-1.85 -2.8,-1.85c-1.133,0 -2.15,0.867 -3.05,2.6c-0.8,1.5 -1.2,2.9 -1.2,4.2c-0,2.633 1.617,3.95 4.85,3.95l2.35,0l0,1.65c-1.2,1.7 -2.917,2.983 -5.15,3.85c-1.967,0.767 -4.083,1.15 -6.35,1.15c-5.2,-0 -7.8,-2.183 -7.8,-6.55c-0,-1.467 0.4,-3.483 1.2,-6.05c-1.067,0.467 -1.883,1.783 -2.45,3.95c-0.4,1.633 -0.6,3.3 -0.6,5c0,2.833 0.783,5.033 2.35,6.6c1.567,1.533 3.733,2.3 6.5,2.3c3.2,-0 6.233,-1.133 9.1,-3.4c3.067,-2.467 4.6,-5.3 4.6,-8.5l6,0c0.8,0 1.833,-0.633 3.1,-1.9c0.9,0.4 1.783,0.817 2.65,1.25c1.033,0.433 1.95,0.65 2.75,0.65c1.533,0 3.117,-0.55 4.75,-1.65c0.633,0.333 1.283,0.667 1.95,1c0.8,0.433 1.467,0.65 2,0.65c0.967,0 1.95,-0.55 2.95,-1.65c1.2,1.1 2,1.65 2.4,1.65l7.25,0c1.833,0 4.45,-0.4 7.85,-1.2c3.733,-0.867 6.15,-1.75 7.25,-2.65c0.733,-2.267 1.267,-3.783 1.6,-4.55l-8.1,1.95c-0.133,0.033 -0.25,0.05 -0.35,0.05c-0.967,0 -2.033,-0.667 -3.2,-2c-1.2,-1.3 -1.8,-2.417 -1.8,-3.35c-0,-0.767 0.883,-1.483 2.65,-2.15c1.5,-0.633 2.717,-0.95 3.65,-0.95c1.4,-0 2.95,0.317 4.65,0.95c-1.2,-3 -3.283,-4.5 -6.25,-4.5Zm-47,13.1l-0,0.75c-0.367,-0 -0.7,0.017 -1,0.05c-0.531,0.084 -0.781,0.134 -0.75,0.15c-0.27,-0.034 -0.854,-0.267 -1.75,-0.7l-0,-0.7c0.833,-1.133 1.333,-1.7 1.5,-1.7c0.367,-0 0.717,0.217 1.05,0.65c0.633,0.733 0.95,1.233 0.95,1.5Z" style="fill:#f00;"/><path d="M55.65,57.85l-2.75,-2.75l-2.7,2.8l2.7,2.75l2.75,-2.8Z" style="fill:#f00;"/><path d="M50.2,57.9l-2.7,-2.8l-2.7,2.75l2.7,2.8l2.7,-2.75Z" style="fill:#f00;"/><path d="M148.9,51.05c1.033,-0.5 1.55,-1.183 1.55,-2.05c0,-0.667 -0.233,-1.667 -0.7,-3c-0.433,-1.3 -0.65,-2.267 -0.65,-2.9c-0.933,0.6 -1.4,1.15 -1.4,1.65c0,0.6 0.233,1.483 0.7,2.65c0.433,1.2 0.65,2.083 0.65,2.65c-0,0.4 -0.05,0.733 -0.15,1Z" style="fill:#f00;"/><path d="M79.8,43.65c-1.933,1.033 -2.983,1.583 -3.15,1.65c-1.233,0.533 -2.367,0.8 -3.4,0.8c-1.933,0 -3.75,-0.617 -5.45,-1.85c-1.433,2.167 -2.417,4.083 -2.95,5.75c0.433,-0.3 0.9,-0.783 1.4,-1.45c0.567,-0.8 0.983,-1.333 1.25,-1.6c1.367,0.6 2.167,0.95 2.4,1.05c0.7,0.2 1.6,0.3 2.7,0.3c1.2,-0 2.65,-0.467 4.35,-1.4c1.9,-1.067 2.85,-2.15 2.85,-3.25Z" style="fill:#f00;"/><path d="M52.65,46.85c1.9,-1.067 2.85,-2.15 2.85,-3.25c-1.933,1.033 -2.983,1.583 -3.15,1.65c-1.233,0.533 -2.367,0.8 -3.4,0.8c-1.933,-0 -3.75,-0.617 -5.45,-1.85c-1.433,2.167 -2.417,4.083 -2.95,5.75c0.433,-0.3 0.9,-0.783 1.4,-1.45c0.567,-0.8 0.983,-1.333 1.25,-1.6c1.367,0.6 2.167,0.95 2.4,1.05c0.7,0.2 1.6,0.3 2.7,0.3c1.2,0 2.65,-0.467 4.35,-1.4Z" style="fill:#f00;"/><path d="M102.55,46.85c1.9,-1.067 2.85,-2.15 2.85,-3.25c-1.933,1.033 -2.983,1.583 -3.15,1.65c-1.233,0.533 -2.367,0.8 -3.4,0.8c-1.933,-0 -3.75,-0.617 -5.45,-1.85c-1.433,2.167 -2.417,4.083 -2.95,5.75c0.433,-0.3 0.9,-0.783 1.4,-1.45c0.567,-0.8 0.983,-1.333 1.25,-1.6c1.367,0.6 2.167,0.95 2.4,1.05c0.7,0.2 1.6,0.3 2.7,0.3c1.2,0 2.65,-0.467 4.35,-1.4Z" style="fill:#f00;"/><path d="M134.9,46.85c1.9,-1.067 2.85,-2.15 2.85,-3.25c-1.933,1.033 -2.983,1.583 -3.15,1.65c-1.233,0.533 -2.367,0.8 -3.4,0.8c-1.933,-0 -3.75,-0.617 -5.45,-1.85c-1.433,2.167 -2.417,4.083 -2.95,5.75c0.433,-0.3 0.9,-0.783 1.4,-1.45c0.567,-0.8 0.983,-1.333 1.25,-1.6c1.367,0.6 2.167,0.95 2.4,1.05c0.7,0.2 1.6,0.3 2.7,0.3c1.2,0 2.65,-0.467 4.35,-1.4Z" style="fill:#f00;"/></g></svg>