<?xml version="1.0" encoding="utf-8"?>
<svg width="100%" height="100%" viewBox="52.534 0 90.447 107" version="1.1" style="fill-rule:evenodd;clip-rule:evenodd;stroke-linejoin:round;stroke-miterlimit:2;" xmlns="http://www.w3.org/2000/svg">
  <g>
    <path d="M107.65,56.8c0.133,-0.633 0.2,-1.117 0.2,-1.45c0,-0.333 -0.05,-0.667 -0.15,-1c-0.633,1.2 -1.283,2.4 -1.95,3.6c-0.967,1.433 -2.017,2.15 -3.15,2.15c-1.267,0 -2.317,-0.5 -3.15,-1.5c0.367,-1.067 0.55,-2.483 0.55,-4.25c-0.967,1.4 -1.95,2.833 -2.95,4.3c-1.033,1.133 -2.633,1.7 -4.8,1.7c-1.367,0 -2.617,-0.45 -3.75,-1.35c-1.033,-0.833 -1.783,-1.933 -2.25,-3.3c-1.133,2.233 -2.05,3.883 -2.75,4.95c2.033,3.433 3.05,6.55 3.05,9.35c-0,1.433 -1.433,2.617 -4.3,3.55c-2.267,0.767 -4.333,1.15 -6.2,1.15c-6.433,-0 -9.65,-2.483 -9.65,-7.45c0,-0.967 0.467,-3.167 1.4,-6.6c-1.067,0.933 -1.95,2.533 -2.65,4.8c-0.6,1.933 -0.9,3.783 -0.9,5.55c0,3.433 0.633,5.95 1.9,7.55c1.4,1.767 3.783,2.65 7.15,2.65c4.867,-0 8.583,-1.5 11.15,-4.5c2.133,-2.533 3.567,-6.317 4.3,-11.35c1.233,0.7 2.367,1.05 3.4,1.05c1.7,-0 3.45,-0.633 5.25,-1.9c0.1,0.033 0.867,0.35 2.3,0.95c1.1,0.467 1.833,0.7 2.2,0.7c1.2,-0 2.4,-0.65 3.6,-1.95c1.367,1.3 2.383,1.95 3.05,1.95l4.45,-0l0,-0.05c3.226,-0.075 5.576,-0.741 7.05,-2c1.767,-1.5 2.65,-4.067 2.65,-7.7c0,-1.033 -0.433,-3.35 -1.3,-6.95c-0.967,2.2 -1.75,3.85 -2.35,4.95c0.9,1.767 1.467,3.033 1.7,3.8c-0.917,1.17 -3.501,1.754 -7.75,1.75l0,-0.05c-1.7,-0 -2.767,-0.017 -3.2,-0.05c-1.533,-0.2 -2.3,-0.717 -2.3,-1.55c0,-0.367 0.05,-0.867 0.15,-1.5Z" style="fill:#f00;"/>
    <path d="M121.55,77.5l3.3,-3.25l-3.25,-3.15l-3.2,3.2l3.15,3.2Z" style="fill:#f00;"/>
    <path d="M112,74.25l3.2,3.25l3.2,-3.2l-3.2,-3.15l-3.2,3.1Z" style="fill:#f00;"/>
    <path d="M104.65,29.5c-2.333,1.2 -3.583,1.833 -3.75,1.9c-1.467,0.633 -2.8,0.95 -4,0.95c-2.3,0 -4.467,-0.717 -6.5,-2.15c-1.667,2.467 -2.817,4.667 -3.45,6.6c0.533,-0.333 1.083,-0.9 1.65,-1.7c0.667,-0.9 1.15,-1.5 1.45,-1.8c1.633,0.7 2.6,1.1 2.9,1.2c0.833,0.233 1.883,0.35 3.15,0.35c1.4,0 3.117,-0.55 5.15,-1.65c2.267,-1.2 3.4,-2.433 3.4,-3.7Z" style="fill:#f00;"/>
    <path d="M116.55,29.65c-0.533,-1.533 -0.8,-2.667 -0.8,-3.4c-1.1,0.7 -1.65,1.35 -1.65,1.95c0,0.7 0.267,1.717 0.8,3.05c0.533,1.333 0.8,2.35 0.8,3.05c0,0.433 -0.067,0.817 -0.2,1.15c1.233,-0.6 1.85,-1.4 1.85,-2.4c0,-0.767 -0.267,-1.9 -0.8,-3.4Z" style="fill:#f00;"/>
  </g>
</svg>