<?xml version="1.0" encoding="utf-8"?>
<svg width="100%" height="100%" viewBox="53.374 0 65.234 98.374" version="1.1" style="fill-rule:evenodd;clip-rule:evenodd;stroke-linejoin:round;stroke-miterlimit:2;" xmlns="http://www.w3.org/2000/svg">
  <g>
    <path d="M73.1,55.4c-0.567,1.833 -0.85,3.633 -0.85,5.4c-0,3.367 0.933,5.983 2.8,7.85c1.833,1.833 4.433,2.75 7.8,2.75c3.967,-0 7.583,-1.467 10.85,-4.4c3.333,-3.033 5,-6.517 5,-10.45c0,-2.167 -0.4,-4.4 -1.2,-6.7c-1.033,-3.033 -2.417,-4.55 -4.15,-4.55c-1.267,0 -2.467,1.033 -3.6,3.1c-0.967,1.8 -1.45,3.417 -1.45,4.85c-0,3.133 1.967,4.7 5.9,4.7c0.367,0 1.233,-0.083 2.6,-0.25l-0,2.2c-1.467,1.8 -3.417,3.183 -5.85,4.15c-2.2,0.867 -4.567,1.3 -7.1,1.3c-6.233,0 -9.35,-2.467 -9.35,-7.4c-0,-1.4 0.467,-3.7 1.4,-6.9c-1.167,0.467 -2.1,1.917 -2.8,4.35Zm19.6,-2.15c-0.233,0.033 -0.967,-0.233 -2.2,-0.8l-0,-0.85c1.1,-1.433 1.783,-2.15 2.05,-2.15c0.5,-0 1.183,0.717 2.05,2.15l-0,1.4l-1.9,0.25Z" style="fill:#f00;"/>
    <path d="M88.7,32l-3.2,3.15l3.2,3.25l3.2,-3.2l-3.2,-3.2Z" style="fill:#f00;"/>
    <path d="M98.3,35.15l-3.2,-3.15l-3.2,3.2l3.15,3.15l3.25,-3.2Z" style="fill:#f00;"/>
    <path d="M95.25,23.35c2.267,-1.2 3.4,-2.433 3.4,-3.7c-2.333,1.2 -3.583,1.833 -3.75,1.9c-1.467,0.633 -2.8,0.95 -4,0.95c-2.3,0 -4.467,-0.717 -6.5,-2.15c-1.667,2.467 -2.817,4.667 -3.45,6.6c0.533,-0.333 1.083,-0.9 1.65,-1.7c0.667,-0.9 1.15,-1.5 1.45,-1.8c1.633,0.7 2.6,1.1 2.9,1.2c0.833,0.233 1.883,0.35 3.15,0.35c1.4,-0 3.117,-0.55 5.15,-1.65Z" style="fill:#f00;"/>
  </g>
</svg>