<?xml version="1.0" encoding="UTF-8" standalone="no"?><!DOCTYPE svg PUBLIC "-//W3C//DTD SVG 1.1//EN" "http://www.w3.org/Graphics/SVG/1.1/DTD/svg11.dtd"><svg width="100%" height="100%" viewBox="0 0 177 111" version="1.1" xmlns="http://www.w3.org/2000/svg" xmlns:xlink="http://www.w3.org/1999/xlink" xml:space="preserve" xmlns:serif="http://www.serif.com/" style="fill-rule:evenodd;clip-rule:evenodd;stroke-linejoin:round;stroke-miterlimit:2;"><g><path d="M108.45,85.75l-2.75,-2.75l-2.7,2.75l2.7,2.8l2.75,-2.8Z" style="fill:#f00;"/><path d="M103,85.75l-2.7,-2.8l-2.7,2.75l2.7,2.85l2.7,-2.8Z" style="fill:#f00;"/><path d="M138.55,60.35c-1.4,-0.933 -2.8,-1.867 -4.2,-2.8c1.1,-1.133 3.65,-2.717 7.65,-4.75c0.733,-0.4 3.55,-1.767 8.45,-4.1l0.9,-4.55c-3.233,0.667 -7.1,2.483 -11.6,5.45c-5.167,3.433 -7.75,6.517 -7.75,9.25c-0,1.633 0.817,3.033 2.45,4.2c1.5,0.9 3,1.8 4.5,2.7c1.6,1.1 2.4,2.333 2.4,3.7c-0,2.067 -2.767,3.1 -8.3,3.1c-0.391,-0 -0.808,-0.017 -1.25,-0.05l-0,-0.05c-0.215,0 -0.549,0.017 -1,0.05l-0.15,-0c-0.604,-0.033 -0.921,-0.05 -0.95,-0.05l0,0.1c-0.291,0.011 -0.607,0.028 -0.95,0.05c-1.567,0.1 -2.767,0.15 -3.6,0.15c-1.267,-0 -2.217,-0.1 -2.85,-0.3c1.067,-1.1 1.95,-2.317 2.65,-3.65c0.867,-1.6 1.3,-3.05 1.3,-4.35c-0,-2.7 -0.617,-4.533 -1.85,-5.5c-1,0 -2.033,1.083 -3.1,3.25c-0.933,2.067 -1.85,4.133 -2.75,6.2c-1.133,2.3 -2.233,3.55 -3.3,3.75c-0.9,0.2 -2.75,0.3 -5.55,0.3l-0,0.1c-1.067,0.033 -1.783,0.05 -2.15,0.05c-1.367,0 -2.35,-0.267 -2.95,-0.8c-0.667,-0.7 -1.033,-1.983 -1.1,-3.85c-1.233,2.133 -2.083,3.4 -2.55,3.8c-0.567,0.533 -1.5,0.8 -2.8,0.8c-0.267,-0 -0.917,-0.017 -1.95,-0.05c-0.204,-0.006 -0.404,-0.023 -0.6,-0.05c-3.433,0 -5.767,-0.517 -7,-1.55c2,-1.667 3,-3.217 3,-4.65c-0,-1.333 -0.717,-2.4 -2.15,-3.2c-1.2,-0.667 -2.5,-1 -3.9,-1c-1.333,-0 -2.75,0.533 -4.25,1.6c-1.667,1.2 -2.5,2.467 -2.5,3.8c-0,0.167 0.633,0.6 1.9,1.3c1.4,0.8 2.25,1.45 2.55,1.95c-1.667,1.233 -4.2,1.817 -7.6,1.75l-2.4,0l-0,0.1c-1.042,0.067 -1.842,0.1 -2.4,0.1c-0.867,-0 -1.617,-0.067 -2.25,-0.2c2.5,-2.567 3.75,-4.933 3.75,-7.1c-0,-1.3 -0.433,-2.333 -1.3,-3.1c-0.8,-0.733 -1.85,-1.1 -3.15,-1.1c-1.9,-0 -4.233,0.983 -7,2.95c-1.533,1.1 -3.717,2.95 -6.55,5.55c-2.167,1.967 -3.467,2.95 -3.9,2.95c-1.2,0 -2.167,-0.367 -2.9,-1.1c-0.467,-0.467 -1.05,-1.367 -1.75,-2.7c-0.8,1.767 -1.267,3.067 -1.4,3.9c0.9,2.2 1.433,3.517 1.6,3.95c0.5,1.467 0.75,2.867 0.75,4.2c-0,1.267 -1.15,2.317 -3.45,3.15c-1.833,0.7 -3.517,1.05 -5.05,1.05c-5.267,-0 -7.9,-2.117 -7.9,-6.35c-0,-0.667 0.383,-2.617 1.15,-5.85c-0.9,0.9 -1.633,2.3 -2.2,4.2c-0.567,1.733 -0.85,3.317 -0.85,4.75c-0,5.667 2.65,8.5 7.95,8.5c3.5,-0 6.317,-1.183 8.45,-3.55c2,-2.2 3.167,-5.15 3.5,-8.85c1.067,0.033 2.55,-0.083 4.45,-0.35c2.033,-0.233 3.5,-0.35 4.4,-0.35c2.067,-0 5.15,0.1 9.25,0.3c2.722,0.156 4.989,0.256 6.8,0.3l-0,0.05l4.4,-0c1.567,-0 3.017,-0.433 4.35,-1.3c1.267,-0.9 2.533,-1.817 3.8,-2.75c1.5,1.567 2.417,2.483 2.75,2.75c1.1,0.867 2.267,1.3 3.5,1.3l6,-0c1.067,-0 1.917,-0.383 2.55,-1.15c0.1,-0.133 0.6,-0.983 1.5,-2.55c0.467,0.8 1.117,1.583 1.95,2.35c1,0.9 1.867,1.35 2.6,1.35l9.1,-0c-0,2 0.483,4.1 1.45,6.3c1.167,2.633 2.617,3.95 4.35,3.95c1.333,-0 2.367,-0.9 3.1,-2.7c0.6,-1.367 0.9,-2.85 0.9,-4.45c-0,-0.433 -0.033,-0.983 -0.1,-1.65c-0.1,-0.867 -0.15,-1.433 -0.15,-1.7c1.3,0.233 2.467,0.35 3.5,0.35c0.588,0 1.138,-0.033 1.65,-0.1l5.1,0c2.367,0 4.333,-0.933 5.9,-2.8c1.467,-1.8 2.2,-3.933 2.2,-6.4c0,-1.8 -0.5,-3.433 -1.5,-4.9c-0.767,-1.1 -1.967,-2.233 -3.6,-3.4Zm-18.9,21.25c-0.767,-1 -1.283,-2.183 -1.55,-3.55c4.033,1 6.05,2.433 6.05,4.3c0,0.167 -0.183,0.383 -0.55,0.65c-0.333,0.233 -0.583,0.35 -0.75,0.35c-1.233,0 -2.3,-0.583 -3.2,-1.75Zm-53.05,-14.9c1.5,0.633 2.25,1.25 2.25,1.85c-0,0.967 -1.433,1.867 -4.3,2.7c-2.433,0.733 -4.333,1.1 -5.7,1.1l-5.35,0c1.133,-1.167 2.733,-2.467 4.8,-3.9c2.4,-1.667 4.133,-2.5 5.2,-2.5c0.767,0 1.8,0.25 3.1,0.75Zm54,1.05c0.6,-1.2 1.317,-2.217 2.15,-3.05c0.767,0.767 1.15,1.483 1.15,2.15c0,1.367 -0.5,2.4 -1.5,3.1c-0.7,0.5 -1.833,0.9 -3.4,1.2c0.933,-2.033 1.467,-3.167 1.6,-3.4Z" style="fill:#f00;"/><path d="M120.95,42.3c0.433,1.2 0.65,2.083 0.65,2.65c-0,0.4 -0.05,0.733 -0.15,1c1.033,-0.5 1.55,-1.183 1.55,-2.05c0,-0.667 -0.233,-1.667 -0.7,-3c-0.433,-1.3 -0.65,-2.267 -0.65,-2.9c-0.933,0.6 -1.4,1.15 -1.4,1.65c0,0.6 0.233,1.483 0.7,2.65Z" style="fill:#f00;"/><path d="M101.05,39.5c-0,0.6 0.233,1.483 0.7,2.65c0.433,1.2 0.65,2.083 0.65,2.65c0,0.4 -0.05,0.733 -0.15,1c1.033,-0.5 1.55,-1.183 1.55,-2.05c-0,-0.667 -0.233,-1.667 -0.7,-3c-0.433,-1.3 -0.65,-2.267 -0.65,-2.9c-0.933,0.6 -1.4,1.15 -1.4,1.65Z" style="fill:#f00;"/><path d="M88.5,39.4c-1.233,0.533 -2.367,0.8 -3.4,0.8c-1.933,0 -3.75,-0.617 -5.45,-1.85c-1.433,2.167 -2.417,4.083 -2.95,5.75c0.433,-0.3 0.9,-0.783 1.4,-1.45c0.567,-0.8 0.983,-1.333 1.25,-1.6c1.367,0.6 2.167,0.95 2.4,1.05c0.7,0.2 1.6,0.3 2.7,0.3c1.2,-0 2.65,-0.467 4.35,-1.4c1.9,-1.067 2.85,-2.15 2.85,-3.25c-1.933,1.033 -2.983,1.583 -3.15,1.65Z" style="fill:#f00;"/><path d="M57.45,42.1c0.7,0.2 1.6,0.3 2.7,0.3c1.2,-0 2.65,-0.467 4.35,-1.4c1.9,-1.067 2.85,-2.15 2.85,-3.25c-1.933,1.033 -2.983,1.583 -3.15,1.65c-1.233,0.533 -2.367,0.8 -3.4,0.8c-1.933,0 -3.75,-0.617 -5.45,-1.85c-1.433,2.167 -2.417,4.083 -2.95,5.75c0.433,-0.3 0.9,-0.783 1.4,-1.45c0.567,-0.8 0.983,-1.333 1.25,-1.6c1.367,0.6 2.167,0.95 2.4,1.05Z" style="fill:#f00;"/><path d="M130.05,43.1c0.433,-0.3 0.9,-0.783 1.4,-1.45c0.567,-0.8 0.983,-1.333 1.25,-1.6c1.367,0.6 2.167,0.95 2.4,1.05c0.7,0.2 1.6,0.3 2.7,0.3c1.2,-0 2.65,-0.467 4.35,-1.4c1.9,-1.067 2.85,-2.15 2.85,-3.25c-1.933,1.033 -2.983,1.583 -3.15,1.65c-1.233,0.533 -2.367,0.8 -3.4,0.8c-1.933,0 -3.75,-0.617 -5.45,-1.85c-1.433,2.167 -2.417,4.083 -2.95,5.75Z" style="fill:#f00;"/></g></svg>