<?xml version="1.0" encoding="utf-8"?>
<svg width="100%" height="100%" viewBox="67.605 0 67.112 104" version="1.1" style="fill-rule:evenodd;clip-rule:evenodd;stroke-linejoin:round;stroke-miterlimit:2;" xmlns="http://www.w3.org/2000/svg">
  <g>
    <path d="M109.85,48.391c1.5,2.731 2.25,5.884 2.25,9.459c0,3.667 -1.25,6.8 -3.75,9.4c-2.467,2.633 -5.533,3.95 -9.2,3.95c-2.933,-0 -5.2,-0.717 -6.8,-2.15c-1.733,-1.467 -2.6,-3.633 -2.6,-6.5c-0,-1.6 0.283,-3.25 0.85,-4.95c0.6,-1.867 1.4,-3.3 2.4,-4.3l-0.8,5.9c0,4.067 2.433,6.1 7.3,6.1c1.967,0 4.05,-0.483 6.25,-1.45c2.633,-1.167 3.95,-2.583 3.95,-4.25c0,-1.367 -0.4,-2.783 -1.2,-4.25c-0.4,-0.733 -1.25,-1.967 -2.55,-3.7c0.7,-2.5 1.417,-4.45 2.15,-5.85l1.75,2.591Z" style="fill:#f00;"/>
    <path d="M95.3,39.9l3.7,3.6l3.65,-3.6l-3.65,-3.65l-3.7,3.65Z" style="fill:#f00;"/>
    <path d="M109.5,19.65c-2.333,1.2 -3.583,1.833 -3.75,1.9c-1.467,0.633 -2.8,0.95 -4,0.95c-2.3,0 -4.467,-0.717 -6.5,-2.15c-1.667,2.467 -2.817,4.667 -3.45,6.6c0.533,-0.333 1.083,-0.9 1.65,-1.7c0.667,-0.9 1.15,-1.5 1.45,-1.8c1.633,0.7 2.6,1.1 2.9,1.2c0.833,0.233 1.883,0.35 3.15,0.35c1.4,-0 3.117,-0.55 5.15,-1.65c2.267,-1.2 3.4,-2.433 3.4,-3.7Z" style="fill:#f00;"/>
  </g>
</svg>