<?xml version="1.0" encoding="utf-8"?>
<svg width="100%" height="100%" viewBox="50.606 0 89.001 104" version="1.1" style="fill-rule:evenodd;clip-rule:evenodd;stroke-linejoin:round;stroke-miterlimit:2;" xmlns="http://www.w3.org/2000/svg">
  <g>
    <path d="M119.85,48.6c0,-1.433 -0.517,-2.633 -1.55,-3.6c-1,-0.967 -2.233,-1.45 -3.7,-1.45c-2.233,0 -5,1.15 -8.3,3.45c-1.867,1.267 -4.467,3.383 -7.8,6.35c-2.567,2.267 -4.067,3.4 -4.5,3.4c-1.467,0 -2.617,-0.417 -3.45,-1.25c-0.467,-0.467 -1.133,-1.517 -2,-3.15c-0.833,1.767 -1.4,3.283 -1.7,4.55c1.167,2.567 1.817,4.067 1.95,4.5c0.567,1.6 0.85,3.2 0.85,4.8c-0,1.5 -1.35,2.733 -4.05,3.7c-2.167,0.733 -4.15,1.1 -5.95,1.1c-2.933,0 -5.15,-0.45 -6.65,-1.35c-1.833,-1.167 -2.75,-3.133 -2.75,-5.9c0,-0.833 0.167,-1.95 0.5,-3.35c0.3,-1.133 0.6,-2.25 0.9,-3.35c-1,0.967 -1.867,2.583 -2.6,4.85c-0.667,2.067 -1,3.883 -1,5.45c-0,6.467 3.133,9.7 9.4,9.7c4.2,0 7.533,-1.35 10,-4.05c2.3,-2.533 3.667,-5.933 4.1,-10.2c6.9,0 12.683,-0.75 17.35,-2.25c7.3,-2.367 10.95,-6.35 10.95,-11.95Zm-22.25,7.85c1.4,-1.367 3.267,-2.867 5.6,-4.5c2.867,-1.967 4.95,-2.95 6.25,-2.95c0.867,-0 2.067,0.317 3.6,0.95c1.767,0.733 2.65,1.433 2.65,2.1c0,1.1 -1.683,2.15 -5.05,3.15c-2.867,0.833 -5.117,1.25 -6.75,1.25l-6.3,-0Z" style="fill:#f00;"/>
    <path d="M105.1,29.95c-1.467,0.633 -2.8,0.95 -4,0.95c-2.3,-0 -4.467,-0.717 -6.5,-2.15c-1.667,2.467 -2.817,4.667 -3.45,6.6c0.533,-0.333 1.083,-0.9 1.65,-1.7c0.667,-0.9 1.15,-1.5 1.45,-1.8c1.633,0.7 2.6,1.1 2.9,1.2c0.833,0.233 1.883,0.35 3.15,0.35c1.4,-0 3.117,-0.55 5.15,-1.65c2.267,-1.2 3.4,-2.433 3.4,-3.7c-2.333,1.2 -3.583,1.833 -3.75,1.9Z" style="fill:#f00;"/>
  </g>
</svg>