<?xml version="1.0" encoding="utf-8"?>
<svg width="100%" height="100%" viewBox="31.021 0 108.724 109" version="1.1" style="fill-rule:evenodd;clip-rule:evenodd;stroke-linejoin:round;stroke-miterlimit:2;" xmlns="http://www.w3.org/2000/svg">
  <g>
    <path d="M101.078,29.744c0.057,0.003 0.115,0.105 0.172,0.306c0.067,0.2 0.117,0.45 0.15,0.75c0.033,0.267 0.083,0.5 0.15,0.7c-0,0.167 0.033,0.2 0.1,0.1c0.567,0.5 1,0.917 1.3,1.25c0.3,0.333 0.55,0.617 0.75,0.85c0.133,0.2 0.233,0.367 0.3,0.5c0.03,0.149 0.046,0.265 0.05,0.35c-0.007,-0.108 -0.057,-0.008 -0.15,0.3c-0.067,0.3 -0.183,0.7 -0.35,1.2c-0.133,0.5 -0.3,1.017 -0.5,1.55c-0.167,0.533 -0.35,0.95 -0.55,1.25c0.2,1.9 0.4,3.6 0.6,5.1c0.2,1.5 0.367,2.85 0.5,4.05c0.133,1.167 0.267,2.2 0.4,3.1c0.1,0.9 0.183,1.717 0.25,2.45c0.067,0.733 0.117,1.417 0.15,2.05c0.033,0.633 0.033,1.25 0,1.85c-0.033,0.6 -0.067,1.233 -0.1,1.9c-0.067,0.667 -0.15,1.4 -0.25,2.2l0.7,-0.4c1.3,-1.067 2.417,-1.983 3.35,-2.75c0.9,-0.733 1.717,-1.35 2.45,-1.85c0.7,-0.533 1.317,-0.95 1.85,-1.25c0.533,-0.3 1.05,-0.533 1.55,-0.7c0.533,-0.167 1.083,-0.267 1.65,-0.3c0.567,-0.067 1.217,-0.117 1.95,-0.15c0.267,-0 0.617,0.067 1.05,0.2c0.4,0.067 0.85,0.2 1.35,0.4c0.5,0.167 1,0.383 1.5,0.65c0.5,0.267 0.967,0.567 1.4,0.9c0.4,0.3 0.733,0.633 1,1c0.267,0.367 0.4,0.767 0.4,1.2c-0,0.867 -0.167,1.7 -0.5,2.5c-0.333,0.8 -0.783,1.55 -1.35,2.25c-0.6,0.7 -1.283,1.35 -2.05,1.95c-0.767,0.6 -1.567,1.133 -2.4,1.6c-0.867,0.433 -1.733,0.817 -2.6,1.15c-0.9,0.3 -1.767,0.517 -2.6,0.65c-1.067,0.2 -2.133,0.383 -3.2,0.55c-1.1,0.2 -2.233,0.367 -3.4,0.5c-1.167,0.133 -2.367,0.267 -3.6,0.4c-1.267,0.1 -2.6,0.15 -4,0.15l-6.15,0c-0.667,0 -1.683,-0.65 -3.05,-1.95c-1.2,1.3 -2.4,1.95 -3.6,1.95c-0.367,0 -1.1,-0.233 -2.2,-0.7c-1.433,-0.6 -2.2,-0.917 -2.3,-0.95c-1.8,1.267 -3.55,1.9 -5.25,1.9c-1.033,0 -2.167,-0.35 -3.4,-1.05c-0.733,5.033 -2.167,8.817 -4.3,11.35c-2.567,3 -6.283,4.5 -11.15,4.5c-3.367,-0 -5.75,-0.883 -7.15,-2.65c-1.267,-1.6 -1.9,-4.117 -1.9,-7.55c-0,-1.767 0.3,-3.617 0.9,-5.55c0.7,-2.267 1.583,-3.867 2.65,-4.8c-0.933,3.433 -1.4,5.633 -1.4,6.6c-0,4.967 3.217,7.45 9.65,7.45c1.867,-0 3.933,-0.383 6.2,-1.15c2.867,-0.933 4.3,-2.117 4.3,-3.55c0,-2.8 -1.017,-5.917 -3.05,-9.35c0.7,-1.067 1.617,-2.717 2.75,-4.95c0.467,1.367 1.217,2.467 2.25,3.3c1.133,0.9 2.383,1.35 3.75,1.35c2.167,-0 3.767,-0.567 4.8,-1.7c1,-1.467 1.983,-2.9 2.95,-4.3c-0,1.767 -0.183,3.183 -0.55,4.25c0.833,1 1.883,1.5 3.15,1.5c1.133,-0 2.183,-0.717 3.15,-2.15c0.667,-1.2 1.317,-2.4 1.95,-3.6c0.1,0.333 0.15,0.667 0.15,1c0,0.333 -0.067,0.817 -0.2,1.45c-0.1,0.633 -0.15,1.133 -0.15,1.5c-0,0.833 0.767,1.35 2.3,1.55c0.433,0.033 1.5,0.05 3.2,0.05l-0,1.2l2.45,-0c0.437,-0.375 0.86,-0.75 1.269,-1.125l0.162,-0.15c0.409,-0.375 0.831,-0.75 1.269,-1.125c0.133,-0.367 0.183,-1.083 0.15,-2.15c0,-1.033 -0.067,-2.267 -0.2,-3.7c-0.1,-1.433 -0.233,-2.983 -0.4,-4.65c-0.2,-1.7 -0.383,-3.367 -0.55,-5c-0.2,-1.667 -0.4,-3.233 -0.6,-4.7c-0.167,-1.5 -0.317,-2.767 -0.45,-3.8c-0.067,-0.2 -0.15,-0.4 -0.25,-0.6c-0.067,-0.233 -0.133,-0.517 -0.2,-0.85c-0.067,-0.333 -0.133,-0.75 -0.2,-1.25c-0.1,-0.5 -0.183,-1.1 -0.25,-1.8c0.067,-0.467 0.15,-0.933 0.25,-1.4c0.133,-0.467 0.283,-0.9 0.45,-1.3c0.167,-0.433 0.367,-0.8 0.6,-1.1c0.2,-0.3 0.433,-0.533 0.7,-0.7c0.008,-0.004 0.017,-0.006 0.025,-0.006l0.003,-0Zm15.922,29.456c0.433,0.167 0.9,0.45 1.4,0.85c0.5,0.367 1.05,0.883 1.65,1.55c0.133,0.033 0.033,0.15 -0.3,0.35c-0.367,0.167 -0.9,0.367 -1.6,0.6c-0.733,0.267 -1.633,0.533 -2.7,0.8c-1.033,0.3 -2.183,0.583 -3.45,0.85c-1.267,0.233 -2.633,0.45 -4.1,0.65c-1.467,0.167 -2.95,0.283 -4.45,0.35c0.8,-0.767 1.717,-1.533 2.75,-2.3c1.033,-0.8 2.067,-1.5 3.1,-2.1c1.033,-0.633 2.033,-1.15 3,-1.55c0.933,-0.4 1.75,-0.6 2.45,-0.6c0.333,0.033 0.683,0.083 1.05,0.15c0.367,0.067 0.767,0.2 1.2,0.4Z" style="fill:#f00;"/>
    <path d="M82.8,33.6c-1.467,0.633 -2.8,0.95 -4,0.95c-2.3,0 -4.467,-0.717 -6.5,-2.15c-1.667,2.467 -2.817,4.667 -3.45,6.6c0.533,-0.333 1.083,-0.9 1.65,-1.7c0.667,-0.9 1.15,-1.5 1.45,-1.8c1.633,0.7 2.6,1.1 2.9,1.2c0.833,0.233 1.883,0.35 3.15,0.35c1.4,0 3.117,-0.55 5.15,-1.65c2.267,-1.2 3.4,-2.433 3.4,-3.7c-2.333,1.2 -3.583,1.833 -3.75,1.9Z" style="fill:#f00;"/>
    <path d="M109.8,22.65c0.133,0.567 0.333,1.233 0.6,2c0.533,1.5 0.8,2.633 0.8,3.4c0,1 -0.617,1.8 -1.85,2.4c0.133,-0.333 0.2,-0.717 0.2,-1.15c-0,-0.35 -0.067,-0.779 -0.2,-1.287l-1.2,-3.526c-0.133,-0.508 -0.2,-0.937 -0.2,-1.287c0,-0.6 0.55,-1.25 1.65,-1.95l0.2,1.4Z" style="fill:#f00;"/>
  </g>
</svg>