<?xml version="1.0" encoding="utf-8"?>
<svg width="100%" height="100%" viewBox="41.515 0 116.339 109" version="1.1" style="fill-rule:evenodd;clip-rule:evenodd;stroke-linejoin:round;stroke-miterlimit:2;" xmlns="http://www.w3.org/2000/svg">
  <g>
    <path d="M117.55,41.55l-0.2,-1.3c-0.067,-0.167 -0.133,-0.233 -0.2,-0.2c-0.2,0.133 -0.4,0.333 -0.6,0.6c-0.2,0.267 -0.367,0.583 -0.5,0.95c-0.133,0.367 -0.25,0.75 -0.35,1.15c-0.1,0.4 -0.183,0.8 -0.25,1.2c0.067,0.6 0.133,1.117 0.2,1.55c0.067,0.433 0.133,0.8 0.2,1.1c0.067,0.267 0.133,0.5 0.2,0.7c0.067,0.2 0.133,0.383 0.2,0.55c0.1,0.9 0.233,2 0.4,3.3c0.133,1.267 0.283,2.633 0.45,4.1c0.167,1.433 0.333,2.883 0.5,4.35c0.133,1.433 0.25,2.783 0.35,4.05c0.1,1.233 0.15,2.3 0.15,3.2c0,0.933 -0.05,1.55 -0.15,1.85c-0.367,0.367 -0.733,0.717 -1.1,1.05c-0.4,0.333 -0.783,0.683 -1.15,1.05l-1.7,-0l-0,-0.95l-1.65,0c-2.3,0 -3.45,-0.583 -3.45,-1.75c-0,-0.133 0.067,-0.367 0.2,-0.7c0.1,-0.333 0.15,-0.583 0.15,-0.75c-0,-0.5 -0.117,-1.05 -0.35,-1.65c-0.533,1.067 -1.05,2.133 -1.55,3.2c-0.767,1.167 -1.683,1.75 -2.75,1.75c-1.333,0 -2.233,-0.383 -2.7,-1.15c0.333,-1.333 0.5,-2.6 0.5,-3.8c-0.767,1.2 -1.533,2.4 -2.3,3.6c-0.833,0.9 -2.167,1.35 -4,1.35c-1.6,0 -2.75,-0.25 -3.45,-0.75c-0.8,-0.6 -1.2,-1.7 -1.2,-3.3c-1.267,1.733 -2.317,2.833 -3.15,3.3c-0.733,0.433 -1.817,0.65 -3.25,0.65l-1.75,0c-2.03,-0.06 -3.464,-0.243 -4.3,-0.55c-0.667,-0.233 -1.267,-0.767 -1.8,-1.6c-0.7,-1.133 -1.5,-2.05 -2.4,-2.75c-0.467,0.467 -0.767,0.933 -0.9,1.4c0.1,0.233 0.1,0.4 -0,0.5c-2.233,0.6 -4.133,1.6 -5.7,3c-1.833,1.667 -2.75,3.583 -2.75,5.75l0,0.7l1.9,20.9c0.333,-0.4 0.65,-1 0.95,-1.8c0.333,-0.833 0.483,-1.467 0.45,-1.9l-1.4,-18.5c0.767,-1.6 1.933,-2.4 3.5,-2.4l0.7,0.25c-0,1.233 0.283,2.467 0.85,3.7c0.7,1.5 1.567,2.25 2.6,2.25c1.733,-0 2.6,-1.75 2.6,-5.25c1.6,1.133 2.75,1.7 3.45,1.7l6,0c0.8,0 1.833,-0.633 3.1,-1.9c0.9,0.4 1.783,0.817 2.65,1.25c1.033,0.433 1.95,0.65 2.75,0.65c1.533,0 3.117,-0.55 4.75,-1.65c0.633,0.333 1.283,0.667 1.95,1c0.8,0.433 1.467,0.65 2,0.65c0.967,0 1.95,-0.55 2.95,-1.65c1.2,1.1 2,1.65 2.4,1.65l4.4,0l-0,-0.05l1.05,0c1.2,0 2.317,-0.05 3.35,-0.15c1.067,-0.1 2.1,-0.2 3.1,-0.3c0.967,-0.133 1.917,-0.283 2.85,-0.45c0.9,-0.167 1.8,-0.333 2.7,-0.5c0.7,-0.1 1.433,-0.3 2.2,-0.6c0.767,-0.267 1.517,-0.6 2.25,-1c0.7,-0.4 1.367,-0.85 2,-1.35c0.667,-0.5 1.25,-1.067 1.75,-1.7c0.467,-0.6 0.85,-1.25 1.15,-1.95c0.267,-0.7 0.4,-1.433 0.4,-2.2c-0,-0.333 -0.1,-0.667 -0.3,-1c-0.233,-0.333 -0.533,-0.633 -0.9,-0.9c-0.333,-0.3 -0.717,-0.55 -1.15,-0.75c-0.433,-0.233 -0.85,-0.433 -1.25,-0.6c-0.433,-0.133 -0.833,-0.25 -1.2,-0.35c-0.367,-0.1 -0.65,-0.15 -0.85,-0.15c-0.633,0.033 -1.2,0.067 -1.7,0.1c-0.467,0.033 -0.917,0.133 -1.35,0.3c-0.433,0.133 -0.883,0.333 -1.35,0.6c-0.433,0.267 -0.95,0.617 -1.55,1.05c-0.6,0.433 -1.3,0.983 -2.1,1.65c-0.767,0.667 -1.7,1.45 -2.8,2.35l-0.6,0.35c0.1,-0.7 0.167,-1.333 0.2,-1.9c0.033,-0.567 0.067,-1.117 0.1,-1.65l-0,-1.6c-0.033,-0.533 -0.083,-1.117 -0.15,-1.75c-0.033,-0.667 -0.1,-1.383 -0.2,-2.15c-0.1,-0.8 -0.2,-1.7 -0.3,-2.7c-0.133,-1.033 -0.283,-2.2 -0.45,-3.5c-0.167,-1.3 -0.333,-2.783 -0.5,-4.45c0.167,-0.267 0.317,-0.633 0.45,-1.1c0.167,-0.467 0.317,-0.917 0.45,-1.35c0.1,-0.433 0.2,-0.783 0.3,-1.05c0.06,-0.242 0.094,-0.325 0.1,-0.25c-0.004,-0.081 -0.02,-0.181 -0.05,-0.3c-0.033,-0.1 -0.117,-0.25 -0.25,-0.45c-0.167,-0.2 -0.383,-0.45 -0.65,-0.75c-0.233,-0.267 -0.583,-0.617 -1.05,-1.05c-0.067,0.1 -0.117,0.067 -0.15,-0.1Zm15.7,26.15c0.1,0.033 0.017,0.133 -0.25,0.3c-0.3,0.167 -0.75,0.35 -1.35,0.55c-0.633,0.233 -1.4,0.467 -2.3,0.7c-0.867,0.233 -1.833,0.467 -2.9,0.7c-1.1,0.233 -2.267,0.433 -3.5,0.6c-1.233,0.167 -2.483,0.267 -3.75,0.3c0.667,-0.667 1.45,-1.333 2.35,-2c0.833,-0.7 1.7,-1.317 2.6,-1.85c0.867,-0.533 1.7,-0.967 2.5,-1.3c0.833,-0.367 1.55,-0.55 2.15,-0.55c0.267,0.033 0.55,0.083 0.85,0.15c0.333,0.067 0.683,0.167 1.05,0.3c0.333,0.167 0.717,0.417 1.15,0.75c0.433,0.333 0.9,0.783 1.4,1.35Z" style="fill:#f00;"/>
    <path d="M122.55,39c0.433,1.2 0.65,2.083 0.65,2.65c0,0.4 -0.05,0.733 -0.15,1c1.033,-0.5 1.55,-1.183 1.55,-2.05c0,-0.667 -0.233,-1.667 -0.7,-3c-0.433,-1.3 -0.65,-2.267 -0.65,-2.9c-0.933,0.6 -1.4,1.15 -1.4,1.65c0,0.6 0.233,1.483 0.7,2.65Z" style="fill:#f00;"/>
    <path d="M69.15,39.3c1.367,0.6 2.167,0.95 2.4,1.05c0.7,0.2 1.6,0.3 2.7,0.3c1.2,-0 2.65,-0.467 4.35,-1.4c1.9,-1.067 2.85,-2.15 2.85,-3.25c-1.933,1.033 -2.983,1.583 -3.15,1.65c-1.233,0.533 -2.367,0.8 -3.4,0.8c-1.933,-0 -3.75,-0.617 -5.45,-1.85c-1.433,2.167 -2.417,4.083 -2.95,5.75c0.433,-0.3 0.9,-0.783 1.4,-1.45c0.567,-0.8 0.983,-1.333 1.25,-1.6Z" style="fill:#f00;"/>
    <path d="M104.05,36c-1.933,1.033 -2.983,1.583 -3.15,1.65c-1.233,0.533 -2.367,0.8 -3.4,0.8c-1.933,-0 -3.75,-0.617 -5.45,-1.85c-1.433,2.167 -2.417,4.083 -2.95,5.75c0.433,-0.3 0.9,-0.783 1.4,-1.45c0.567,-0.8 0.983,-1.333 1.25,-1.6c1.367,0.6 2.167,0.95 2.4,1.05c0.7,0.2 1.6,0.3 2.7,0.3c1.2,-0 2.65,-0.467 4.35,-1.4c1.9,-1.067 2.85,-2.15 2.85,-3.25Z" style="fill:#f00;"/>
  </g>
</svg>