<?xml version="1.0" encoding="UTF-8" standalone="no"?><!DOCTYPE svg PUBLIC "-//W3C//DTD SVG 1.1//EN" "http://www.w3.org/Graphics/SVG/1.1/DTD/svg11.dtd"><svg width="100%" height="100%" viewBox="0 0 228 66" version="1.1" xmlns="http://www.w3.org/2000/svg" xmlns:xlink="http://www.w3.org/1999/xlink" xml:space="preserve" xmlns:serif="http://www.serif.com/" style="fill-rule:evenodd;clip-rule:evenodd;stroke-linejoin:round;stroke-miterlimit:2;"><g><path d="M17.258,42.162l0.002,-1.178l1.351,-1.351l1.351,1.352l-0.003,1.163l0.813,-0.808l1.91,-0l-0,1.911l-0.805,0.8l1.196,0.003l1.351,1.351l-1.351,1.351l-1.225,-0.003l0.864,0.867l-0,1.911l-1.911,-0l-0.843,-0.847l0.005,1.132l-1.352,1.352l-1.351,-1.351l-0.003,-1.147l-0.82,0.825l-1.911,0l0,-1.91l0.829,-0.833l-1.253,0.004l-1.352,-1.351l1.351,-1.351l1.225,-0.003l-0.869,-0.864l-0,-1.911l1.91,-0l0.891,0.886Zm0.563,5.94l0.004,1.48l0.786,0.787l0.786,-0.786l-0.006,-1.469l-0.792,-0.796l-0.778,0.784Zm2.134,-0.222l1.08,1.086l1.112,-0l-0,-1.112l-1.099,-1.103l-1.097,-0.003l0.004,1.132Zm-3.8,-1.13l-1.064,1.068l0,1.112l1.111,0l1.053,-1.061l-0.002,-1.123l-1.098,0.004Zm3.235,-3.238l-0.557,0.556l-0.226,0.234l-0.787,-0.783l-0.002,0.765l0.007,0.326l-1.132,0.003l0.398,0.395l0.012,-0.013l0.202,0.227l-0.396,0.374l0.383,0.011l-0.573,0.576l0.532,-0.002l0,-0.018l0.303,0.018l-0.015,0.544l0.278,-0.263l0.002,0.839l0.775,-0.781l0.206,0.204l-0,-0.006l0.588,0.592l-0.004,-1.123l0.289,-0.001l-0.004,-0.004l0.815,0.002l-0.774,-0.777l0.4,-0.399l0.002,0.002l0.398,-0.396l-1.124,-0.003l0.001,-0.565l0.002,0l0.001,-0.534Zm1.121,1.898l0.772,0.776l1.556,0.004l0.786,-0.785l-0.786,-0.787l-1.529,-0.003l-0.799,0.795Zm-4.618,-0.795l-1.557,0.003l-0.787,0.787l0.786,0.785l1.584,-0.005l0.773,-0.776l-0.799,-0.794Zm5.184,-0.565l1.04,-1.034l-0,-1.111l-1.112,-0l-1.048,1.043l-0.003,1.099l1.123,0.003Zm-3.821,-1.092l-1.122,-1.117l-1.112,0l0,1.111l1.104,1.097l1.128,-0.003l0.002,-1.088Zm2.137,-0.245l0.004,-1.495l-0.786,-0.785l-0.786,0.786l-0.003,1.504l0.78,0.777l0.791,-0.787Z"/><path d="M114.2,29.5c-1.333,1.6 -1.983,2.567 -1.95,2.9l0.45,18.35c1.1,-0.833 1.65,-3.067 1.65,-6.7l-0.15,-14.55Z"/><path d="M219.95,29.5c-1.333,1.6 -1.983,2.567 -1.95,2.9l0.45,18.35c1.1,-0.833 1.65,-3.067 1.65,-6.7l-0.15,-14.55Z"/><path d="M149.25,29.5c-1.333,1.6 -1.983,2.567 -1.95,2.9l0.45,18.35c1.1,-0.833 1.65,-3.067 1.65,-6.7l-0.15,-14.55Z"/><path d="M162.1,31.45c-0.5,0 -0.883,0.217 -1.15,0.65c-0.267,0.333 -0.4,0.75 -0.4,1.25c-0,0.833 0.283,1.617 0.85,2.35c0.633,0.833 1.367,1.25 2.2,1.25c0.4,0 0.7,-0.067 0.9,-0.2c0.333,-0.233 0.533,-0.367 0.6,-0.4c0.633,0.367 1.817,1.583 3.55,3.65c1.367,1.567 2.45,2.917 3.25,4.05c-0.333,0.533 -0.85,1.2 -1.55,2c-0.767,0.867 -1.383,1.45 -1.85,1.75l-1.45,-0.5l-0,3.3c0.967,0.267 2.25,0.4 3.85,0.4c1.467,0 2.417,-0.183 2.85,-0.55c0.5,-0.4 0.75,-1.283 0.75,-2.65c0,-1.733 -0.383,-3.117 -1.15,-4.15c0.333,-0.833 0.617,-2.117 0.85,-3.85c0.233,-1.7 0.5,-2.9 0.8,-3.6l0.25,0.3c0.433,-0.267 0.8,-0.733 1.1,-1.4c0.067,-0.167 0.233,-0.717 0.5,-1.65c-1.167,-0.533 -1.75,-1.217 -1.75,-2.05c0,-0.367 0.05,-0.817 0.15,-1.35c-1.067,0.867 -1.833,2.067 -2.3,3.6c0.067,0.2 0.25,0.517 0.55,0.95c0.3,0.367 0.45,0.633 0.45,0.8c0,0.6 -0.15,1.783 -0.45,3.55c-0.3,1.9 -0.567,3.017 -0.8,3.35c-2.933,-3.867 -4.533,-5.967 -4.8,-6.3c-2.567,-3.033 -4.5,-4.55 -5.8,-4.55Zm10.9,14.75l0.35,0.8l-0.15,0.65c-1.567,0.1 -2.483,0.15 -2.75,0.15c1.067,-0.9 1.767,-1.767 2.1,-2.6c0.033,0.1 0.183,0.433 0.45,1Z"/><path d="M91.35,33.35c0,0.833 0.283,1.617 0.85,2.35c0.633,0.833 1.367,1.25 2.2,1.25c0.4,0 0.7,-0.067 0.9,-0.2c0.333,-0.233 0.533,-0.367 0.6,-0.4c0.633,0.367 1.817,1.583 3.55,3.65c1.367,1.567 2.45,2.917 3.25,4.05c-0.333,0.533 -0.85,1.2 -1.55,2c-0.767,0.867 -1.383,1.45 -1.85,1.75l-1.45,-0.5l0,3.3c0.967,0.267 2.25,0.4 3.85,0.4c1.467,0 2.417,-0.183 2.85,-0.55c0.5,-0.4 0.75,-1.283 0.75,-2.65c-0,-1.733 -0.383,-3.117 -1.15,-4.15c0.333,-0.833 0.617,-2.117 0.85,-3.85c0.233,-1.7 0.5,-2.9 0.8,-3.6l0.25,0.3c0.433,-0.267 0.8,-0.733 1.1,-1.4c0.067,-0.167 0.233,-0.717 0.5,-1.65c-1.167,-0.533 -1.75,-1.217 -1.75,-2.05c0,-0.367 0.05,-0.817 0.15,-1.35c-1.067,0.867 -1.833,2.067 -2.3,3.6c0.067,0.2 0.25,0.517 0.55,0.95c0.3,0.367 0.45,0.633 0.45,0.8c0,0.6 -0.15,1.783 -0.45,3.55c-0.3,1.9 -0.567,3.017 -0.8,3.35c-2.933,-3.867 -4.533,-5.967 -4.8,-6.3c-2.567,-3.033 -4.5,-4.55 -5.8,-4.55c-0.5,0 -0.883,0.217 -1.15,0.65c-0.267,0.333 -0.4,0.75 -0.4,1.25Zm12.45,12.85l0.35,0.8l-0.15,0.65c-1.567,0.1 -2.483,0.15 -2.75,0.15c1.067,-0.9 1.767,-1.767 2.1,-2.6c0.033,0.1 0.183,0.433 0.45,1Z"/><path d="M32.75,44.8l2.2,1.9l1.45,-2.45l-2.15,-2l-1.5,2.55Z"/><path d="M46.15,44.8l2.2,1.9l1.45,-2.45l-2.15,-2l-1.5,2.55Z"/><path d="M191.9,39.7l0.2,2.3c-1.833,0.9 -3.15,1.733 -3.95,2.5c-1.167,1.1 -1.75,2.417 -1.75,3.95c-0,0.567 0.683,0.85 2.05,0.85c1.233,-0 2.133,-0.1 2.7,-0.3c0.667,-0.267 1.367,-0.867 2.1,-1.8c0.3,0.733 0.6,1.467 0.9,2.2c0.467,0.867 1.083,1.3 1.85,1.3l3.45,0c0.633,0 1.217,-0.383 1.75,-1.15c0.833,-1.233 1.267,-1.867 1.3,-1.9c0.367,0.667 0.733,1.317 1.1,1.95c0.5,0.733 1.117,1.1 1.85,1.1l3.5,0c1.4,0 2.417,-0.717 3.05,-2.15c0.433,-1 0.65,-2.267 0.65,-3.8l-0,-3.2c-0,-0.6 -0.05,-1.483 -0.15,-2.65c-0.133,-1.167 -0.2,-2.033 -0.2,-2.6c-0,-0.3 0.167,-0.783 0.5,-1.45c0.333,-0.667 0.5,-1.217 0.5,-1.65c-0,-0.167 -0.267,-0.5 -0.8,-1c-0.567,-0.533 -0.85,-1 -0.85,-1.4c-0,-0.133 0.05,-0.333 0.15,-0.6c0.067,-0.267 0.1,-0.467 0.1,-0.6l-0.05,-0.4c-1.1,0.7 -1.967,1.883 -2.6,3.55c0.1,0.467 0.483,1.05 1.15,1.75c0.433,2.5 0.65,6.283 0.65,11.35c-0,1 -0.967,1.483 -2.9,1.45l-0.75,-0.05c-1.5,-0 -2.583,-0.4 -3.25,-1.2c-0.567,-0.733 -0.85,-1.817 -0.85,-3.25c-0,-1.7 -0.1,-3.95 -0.3,-6.75c-0.267,-3.4 -0.433,-5.65 -0.5,-6.75c-1.3,0.967 -1.95,2.017 -1.95,3.15c-0,1.333 0.133,3.367 0.4,6.1c0.267,2.733 0.4,4.783 0.4,6.15c0,1.133 -0.367,1.867 -1.1,2.2c-0.438,0.204 -1.205,0.321 -2.3,0.35l-0.45,-0c-1.045,-0.029 -1.661,-0.079 -1.85,-0.15c-0.767,-0.333 -1.417,-1.75 -1.95,-4.25c-0.433,-1.967 -0.65,-3.633 -0.65,-5c-0.8,0.967 -1.183,1.583 -1.15,1.85Zm-0.3,5.9c-0.533,0.133 -0.967,0.2 -1.3,0.2c-0.367,-0 -0.85,-0.1 -1.45,-0.3c1.233,-0.767 2.367,-1.367 3.4,-1.8c0.233,0.767 0.35,1.217 0.35,1.35c0,0.2 -0.333,0.383 -1,0.55Z"/><path d="M131.1,37.85c-0.8,0.967 -1.183,1.583 -1.15,1.85l0.2,2.3c-1.833,0.9 -3.15,1.733 -3.95,2.5c-1.167,1.1 -1.75,2.417 -1.75,3.95c0,0.567 0.683,0.85 2.05,0.85c1.233,-0 2.133,-0.1 2.7,-0.3c0.667,-0.267 1.367,-0.867 2.1,-1.8c0.3,0.733 0.6,1.467 0.9,2.2c0.467,0.867 1.083,1.3 1.85,1.3l4.25,0c1.4,0 2.417,-0.717 3.05,-2.15c0.433,-1 0.65,-2.267 0.65,-3.8l0,-3.2c0,-0.6 -0.05,-1.483 -0.15,-2.65c-0.133,-1.167 -0.2,-2.033 -0.2,-2.6c0,-0.3 0.167,-0.783 0.5,-1.45c0.333,-0.667 0.5,-1.217 0.5,-1.65c0,-0.167 -0.267,-0.5 -0.8,-1c-0.567,-0.533 -0.85,-1 -0.85,-1.4c0,-0.133 0.05,-0.333 0.15,-0.6c0.067,-0.267 0.1,-0.467 0.1,-0.6l-0.05,-0.4c-1.1,0.7 -1.967,1.883 -2.6,3.55c0.1,0.467 0.483,1.05 1.15,1.75c0.433,2.5 0.65,6.283 0.65,11.35c0,1 -0.967,1.483 -2.9,1.45l-0.45,-0l-0,-0.05c-1.967,-0 -3.083,-0.05 -3.35,-0.15c-0.767,-0.333 -1.417,-1.75 -1.95,-4.25c-0.433,-1.967 -0.65,-3.633 -0.65,-5Zm-1.45,7.75c-0.533,0.133 -0.967,0.2 -1.3,0.2c-0.367,-0 -0.85,-0.1 -1.45,-0.3c1.233,-0.767 2.367,-1.367 3.4,-1.8c0.233,0.767 0.35,1.217 0.35,1.35c0,0.2 -0.333,0.383 -1,0.55Z"/><path d="M72,41c0.167,0.167 0.267,0.3 0.3,0.4c-0.4,0.367 -0.767,0.917 -1.1,1.65c-0.367,0.767 -0.55,1.4 -0.55,1.9c-0,0.2 0.067,0.483 0.2,0.85c0.1,0.367 0.15,0.65 0.15,0.85c-0,0.4 -0.967,0.6 -2.9,0.6l0,0.15c-0.393,-0.003 -0.793,-0.02 -1.2,-0.05c-0.333,-0.7 -0.667,-1.383 -1,-2.05c-0.533,-0.9 -1.067,-1.35 -1.6,-1.35c-0.667,0 -1.367,0.667 -2.1,2c-0.667,1.2 -1,2.167 -1,2.9c0,0.933 0.483,1.517 1.45,1.75c0.867,0.133 1.733,0.267 2.6,0.4c-1.033,1.467 -2.1,2.533 -3.2,3.2c-1.267,0.767 -2.75,1.15 -4.45,1.15c-0.933,0 -2.267,-0.083 -4,-0.25c1.633,1.533 3.517,2.3 5.65,2.3c1.867,-0 3.467,-0.717 4.8,-2.15c0.9,-1.033 1.783,-2.55 2.65,-4.55l3.35,0c0.967,0 2.167,-0.717 3.6,-2.15c1.867,0.4 3.217,0.6 4.05,0.6c1.333,-0 2.183,-0.417 2.55,-1.25c0.2,-0.433 0.3,-1.417 0.3,-2.95c-0,-1.033 -0.95,-2.433 -2.85,-4.2c-1.3,-1.2 -2.733,-2.317 -4.3,-3.35c-0.233,-0 -0.567,0.467 -1,1.4c-0.4,0.867 -0.6,1.467 -0.6,1.8c-0,0.133 0.067,0.267 0.2,0.4Zm-7.05,7.4c-0.567,-0 -1.217,-0.05 -1.95,-0.15c-0,-0.267 -0.067,-0.45 -0.2,-0.55c0.233,-0.4 0.45,-0.767 0.65,-1.1c0.6,0.233 0.967,0.45 1.1,0.65c0.133,0.167 0.267,0.55 0.4,1.15Zm11.4,-4.1c0,-0.4 -0.117,-0.817 -0.35,-1.25c0.567,0.267 1.233,0.767 2,1.5c0.8,0.767 1.267,1.4 1.4,1.9l-0.3,0.3c-0.267,-0.167 -0.783,-0.3 -1.55,-0.4c-0.567,-0.1 -1.133,-0.183 -1.7,-0.25c0.333,-0.767 0.5,-1.367 0.5,-1.8Zm-1.75,-1.05c0.4,0.4 0.6,0.8 0.6,1.2c0,0.233 -0.2,0.45 -0.6,0.65c-0.333,0.167 -0.65,0.25 -0.95,0.25c-0.4,0 -1.017,-0.2 -1.85,-0.6c0.133,-0.433 0.367,-0.85 0.7,-1.25c0.6,-0.667 0.917,-1.017 0.95,-1.05c0.4,0.167 0.783,0.433 1.15,0.8Z"/><path d="M185.9,35.15c0.367,0.1 0.667,0.15 0.9,0.15c0.9,-0 1.967,-0.583 3.2,-1.75c0.5,0.3 0.933,0.517 1.3,0.65l0.1,-1.2c-0.267,-0.167 -0.467,-0.283 -0.6,-0.35c0.333,-0.633 0.5,-1.117 0.5,-1.45c-0,-0.7 -0.367,-1.05 -1.1,-1.05c-0.5,-0 -0.95,0.25 -1.35,0.75c-0.367,0.433 -0.55,0.85 -0.55,1.25c-0,0.367 0.333,0.733 1,1.1c-1.2,0.833 -2.333,1.467 -3.4,1.9Zm4.4,-3.25c-0,0.133 -0.033,0.267 -0.1,0.4c-0.7,-0.3 -1.05,-0.6 -1.05,-0.9c0.033,-0.133 0.133,-0.2 0.3,-0.2c0.567,0.067 0.85,0.3 0.85,0.7Z"/><path d="M99.4,28.85c-0.167,0.5 -0.25,0.833 -0.25,1c-0,0.267 0.067,0.5 0.2,0.7c0.133,0.267 0.35,0.4 0.65,0.4c0.267,0 0.5,-0.083 0.7,-0.25c0.233,-0.2 0.367,-0.417 0.4,-0.65c0.2,0.167 0.433,0.25 0.7,0.25c0.733,-0 1.1,-0.567 1.1,-1.7c-0,-0.3 -0.05,-0.617 -0.15,-0.95l-0.25,0.1c-0,0.967 -0.233,1.45 -0.7,1.45c-0.233,0 -0.433,-0.317 -0.6,-0.95l-0.2,0.05c-0.1,0.5 -0.183,0.833 -0.25,1c-0.167,0.4 -0.4,0.6 -0.7,0.6c-0.3,-0 -0.45,-0.367 -0.45,-1.1l-0.2,0.05Z"/><path d="M136.95,24.75c-0.633,0.4 -0.95,0.767 -0.95,1.1c-0,0.367 0.15,0.933 0.45,1.7c0.3,0.733 0.45,1.283 0.45,1.65c-0,0.267 -0.033,0.483 -0.1,0.65c0.733,-0.333 1.1,-0.767 1.1,-1.3c-0,-0.433 -0.167,-1.067 -0.5,-1.9c-0.3,-0.867 -0.45,-1.5 -0.45,-1.9Z"/><path d="M202.05,26.3l-0.2,0.05c-0.1,0.5 -0.183,0.833 -0.25,1c-0.167,0.4 -0.4,0.6 -0.7,0.6c-0.3,0 -0.45,-0.367 -0.45,-1.1l-0.2,0.05c-0.167,0.5 -0.25,0.833 -0.25,1c-0,0.267 0.067,0.5 0.2,0.7c0.133,0.267 0.35,0.4 0.65,0.4c0.267,0 0.5,-0.083 0.7,-0.25c0.233,-0.2 0.367,-0.417 0.4,-0.65c0.2,0.167 0.433,0.25 0.7,0.25c0.733,0 1.1,-0.567 1.1,-1.7c-0,-0.3 -0.05,-0.617 -0.15,-0.95l-0.25,0.1c0,0.967 -0.233,1.45 -0.7,1.45c-0.233,-0 -0.433,-0.317 -0.6,-0.95Z"/><path d="M72.35,27.35c-0.367,0.433 -0.55,0.85 -0.55,1.25c-0,0.367 0.333,0.733 1,1.1c-1.2,0.833 -2.333,1.467 -3.4,1.9c0.367,0.1 0.667,0.15 0.9,0.15c0.9,0 1.967,-0.583 3.2,-1.75c0.5,0.3 0.933,0.517 1.3,0.65l0.1,-1.2c-0.267,-0.167 -0.467,-0.283 -0.6,-0.35c0.333,-0.633 0.5,-1.117 0.5,-1.45c-0,-0.7 -0.367,-1.05 -1.1,-1.05c-0.5,0 -0.95,0.25 -1.35,0.75Zm0.6,0.3c0.567,0.067 0.85,0.3 0.85,0.7c-0,0.133 -0.033,0.267 -0.1,0.4c-0.7,-0.3 -1.05,-0.6 -1.05,-0.9c0.033,-0.133 0.133,-0.2 0.3,-0.2Z"/><path d="M170.8,22.35c-0.867,0.333 -1.65,0.5 -2.35,0.5c-1.367,0 -2.633,-0.383 -3.8,-1.15c-1,1.367 -1.683,2.583 -2.05,3.65c0.3,-0.2 0.617,-0.517 0.95,-0.95c0.4,-0.5 0.7,-0.833 0.9,-1c0.933,0.4 1.483,0.617 1.65,0.65c0.5,0.167 1.133,0.25 1.9,0.25c0.833,-0 1.833,-0.317 3,-0.95c1.333,-0.667 2,-1.35 2,-2.05c-1.333,0.667 -2.067,1.017 -2.2,1.05Z"/><path d="M62.05,19.75c0.267,0 0.45,-0.05 0.55,-0.15c0.133,-0.033 0.233,-0.133 0.3,-0.3c0.067,-0.2 0.15,-0.4 0.25,-0.6c-0.333,0 -0.8,-0.017 -1.4,-0.05c-0.633,-0.067 -1.1,-0.1 -1.4,-0.1c-0.333,-0 -0.65,0.1 -0.95,0.3c-0.3,0.233 -0.45,0.517 -0.45,0.85l0,0.15c0.233,-0.3 0.5,-0.45 0.8,-0.45c0.167,-0 0.367,0.067 0.6,0.2c-0.533,0.5 -0.933,0.983 -1.2,1.45c-0.3,0.533 -0.45,1.117 -0.45,1.75c0,0.967 0.25,1.633 0.75,2c0.467,0.367 1.217,0.55 2.25,0.55c0.4,0 0.783,-0.083 1.15,-0.25c0.367,-0.167 0.733,-0.317 1.1,-0.45l0,-0.15l-0.75,0c-0.367,0.033 -0.667,0.05 -0.9,0.05c-0.967,-0 -1.7,-0.117 -2.2,-0.35c-0.667,-0.333 -1,-0.9 -1,-1.7c0,-0.767 0.283,-1.417 0.85,-1.95c0.567,-0.533 1.267,-0.8 2.1,-0.8Z" style="fill:#f00;"/><path d="M61.2,21.7l-0.65,0.6l0.65,0.6l0.6,-0.6l-0.6,-0.6Z" style="fill:#f00;"/><path d="M150.169,51.169l-4.1,2.5c-0.707,0.431 -0.931,1.355 -0.5,2.062c0.431,0.707 1.355,0.931 2.062,0.5l4.1,-2.5c0.707,-0.431 0.931,-1.355 0.5,-2.062c-0.431,-0.707 -1.355,-0.931 -2.062,-0.5Z"/><path d="M114.826,50.065l-4.15,2.5c-0.709,0.427 -0.938,1.35 -0.511,2.059c0.427,0.709 1.35,0.938 2.059,0.511l4.15,-2.5c0.709,-0.427 0.938,-1.35 0.511,-2.059c-0.427,-0.709 -1.35,-0.938 -2.059,-0.511Z"/><path d="M128.976,28.965l-4.15,2.5c-0.709,0.427 -0.938,1.35 -0.511,2.059c0.427,0.709 1.35,0.938 2.059,0.511l4.15,-2.5c0.709,-0.427 0.938,-1.35 0.511,-2.059c-0.427,-0.709 -1.35,-0.938 -2.059,-0.511Z"/><path d="M171.719,24.519l-4.1,2.5c-0.707,0.431 -0.931,1.355 -0.5,2.062c0.431,0.707 1.355,0.931 2.062,0.5l4.1,-2.5c0.707,-0.431 0.931,-1.355 0.5,-2.062c-0.431,-0.707 -1.355,-0.931 -2.062,-0.5Z"/><path d="M220.419,24.219l-4.1,2.5c-0.707,0.431 -0.931,1.355 -0.5,2.062c0.431,0.707 1.355,0.931 2.062,0.5l4.1,-2.5c0.707,-0.431 0.931,-1.355 0.5,-2.062c-0.431,-0.707 -1.355,-0.931 -2.062,-0.5Z"/><path d="M101.826,22.815l-4.15,2.5c-0.709,0.427 -0.938,1.35 -0.511,2.059c0.427,0.709 1.35,0.938 2.059,0.511l4.15,-2.5c0.709,-0.427 0.938,-1.35 0.511,-2.059c-0.427,-0.709 -1.35,-0.938 -2.059,-0.511Z"/><path d="M202.726,20.615l-4.15,2.5c-0.709,0.427 -0.938,1.35 -0.511,2.059c0.427,0.709 1.35,0.938 2.059,0.511l4.15,-2.5c0.709,-0.427 0.938,-1.35 0.511,-2.059c-0.427,-0.709 -1.35,-0.938 -2.059,-0.511Z"/><path d="M64.369,32.269l-4.1,2.5c-0.707,0.431 -0.931,1.355 -0.5,2.062c0.431,0.707 1.355,0.931 2.062,0.5l4.1,-2.5c0.707,-0.431 0.931,-1.355 0.5,-2.062c-0.431,-0.707 -1.355,-0.931 -2.062,-0.5Z" style="fill:#f00;"/></g></svg>