<?xml version="1.0" encoding="UTF-8" standalone="no"?><!DOCTYPE svg PUBLIC "-//W3C//DTD SVG 1.1//EN" "http://www.w3.org/Graphics/SVG/1.1/DTD/svg11.dtd"><svg width="100%" height="100%" viewBox="0 0 63 72" version="1.1" xmlns="http://www.w3.org/2000/svg" xmlns:xlink="http://www.w3.org/1999/xlink" xml:space="preserve" xmlns:serif="http://www.serif.com/" style="fill-rule:evenodd;clip-rule:evenodd;stroke-linejoin:round;stroke-miterlimit:2;"><g><path d="M42.9,29.8c-0.567,-0.533 -0.85,-1 -0.85,-1.4c-0,-0.133 0.05,-0.333 0.15,-0.6c0.067,-0.267 0.1,-0.467 0.1,-0.6l-0.05,-0.4c-1.1,0.7 -1.967,1.883 -2.6,3.55c0.1,0.467 0.483,1.05 1.15,1.75c0.433,2.5 0.65,6.283 0.65,11.35c0,1 -0.967,1.483 -2.9,1.45l-0.35,-0l0,-0.05c-1.9,0 -3.183,-0.117 -3.85,-0.35c-0.467,-0.167 -0.883,-0.517 -1.25,-1.05c-0.5,-0.7 -1.067,-1.267 -1.7,-1.7c-0.3,0.267 -0.5,0.567 -0.6,0.9c0.067,0.133 0.067,0.233 -0,0.3c-1.567,0.367 -2.883,1 -3.95,1.9c-1.3,1.067 -1.95,2.3 -1.95,3.7l0,0.45l1.35,13.35c0.2,-0.267 0.417,-0.65 0.65,-1.15c0.233,-0.533 0.333,-0.95 0.3,-1.25l-1,-11.8c0.567,-1.033 1.383,-1.55 2.45,-1.55l0.5,0.15c0,0.8 0.2,1.6 0.6,2.4c0.467,0.967 1.067,1.45 1.8,1.45c1.2,0 1.8,-1.133 1.8,-3.4c1.133,0.733 1.95,1.1 2.45,1.1l3.55,0c1.4,0 2.417,-0.717 3.05,-2.15c0.433,-1 0.65,-2.267 0.65,-3.8l-0,-3.2c-0,-0.6 -0.05,-1.483 -0.15,-2.65c-0.133,-1.167 -0.2,-2.033 -0.2,-2.6c0,-0.3 0.167,-0.783 0.5,-1.45c0.333,-0.667 0.5,-1.217 0.5,-1.65c0,-0.167 -0.267,-0.5 -0.8,-1Z"/><path d="M50.3,27.1c-1.333,1.6 -1.983,2.567 -1.95,2.9l0.45,18.35c1.1,-0.833 1.65,-3.067 1.65,-6.7l-0.15,-14.55Z"/><path d="M30.15,25.25c-1.367,0 -2.633,-0.383 -3.8,-1.15c-1,1.367 -1.683,2.583 -2.05,3.65c0.3,-0.2 0.617,-0.517 0.95,-0.95c0.4,-0.5 0.7,-0.833 0.9,-1c0.933,0.4 1.483,0.617 1.65,0.65c0.5,0.167 1.133,0.25 1.9,0.25c0.833,-0 1.833,-0.317 3,-0.95c1.333,-0.667 2,-1.35 2,-2.05c-1.333,0.667 -2.067,1.017 -2.2,1.05c-0.867,0.333 -1.65,0.5 -2.35,0.5Z"/><path d="M38.15,19.9c-1,1.367 -1.683,2.583 -2.05,3.65c0.3,-0.2 0.617,-0.517 0.95,-0.95c0.4,-0.5 0.7,-0.833 0.9,-1c0.933,0.4 1.483,0.617 1.65,0.65c0.5,0.167 1.133,0.25 1.9,0.25c0.833,0 1.833,-0.317 3,-0.95c1.333,-0.667 2,-1.35 2,-2.05c-1.333,0.667 -2.067,1.017 -2.2,1.05c-0.867,0.333 -1.65,0.5 -2.35,0.5c-1.367,0 -2.633,-0.383 -3.8,-1.15Z"/><path d="M14.546,37.482l3.008,-0l0,3.008l1.915,1.915l-1.915,1.915l0,2.708l-2.708,-0l-2.127,2.127l-2.127,-2.127l-3.007,-0l-0,-3.008l-1.916,-1.915l1.916,-1.915l-0,-2.708l2.708,-0l2.127,-2.127l2.126,2.127Zm0.828,8.163l-1.384,0l-1.906,1.907l0.635,0.635l1.843,-1.844l0.812,0l0,-0.698Zm-5.389,-0.145l-0,0.002l-1.716,-0l0,0.841l2.607,0l0.724,0.725l0.564,-0.565l-1.003,-1.003l-1.176,-0Zm6.074,-1.768l-0,2.611l0.81,0l0,-2.307l0.731,-0.73l-0.558,-0.558l-0.983,0.984Zm-4.44,-4.058l-1.638,-0l-0,1.367l-1.184,1.184l1.166,1.122l-0,1.468l1.482,0l1.204,1.204l1.058,-1.058l1.667,-0l0,-1.513l1.184,-1.184l-1.039,-1.039l0,-1.493l-1.667,-0l-1.145,-1.146l-1.088,1.088Zm-4.467,1.917l-0.514,0.514l1.631,1.632l0,1.08l1.009,-0l0,-1.178l-2.126,-2.048Zm9.052,-0.65l1.88,1.881l0.417,-0.417l-1.632,-1.632l0,-1.041l-0.665,-0l-0,1.209Zm-6.908,-2.775l-1.027,0l0,2.308l-0.633,0.633l0.668,0.643l0.992,-0.992l0,-2.592Zm4.399,-0.568l-0.504,0.504l0.945,0.945l2.733,0l0,-0.881l-2.606,0l-0.568,-0.568Zm-0.484,-0.484l-0.791,-0.791l-1.844,1.843l-0.595,0l-0,0.823l1.355,0l1.875,-1.875Z"/></g></svg>