<?xml version="1.0" encoding="UTF-8" standalone="no"?><!DOCTYPE svg PUBLIC "-//W3C//DTD SVG 1.1//EN" "http://www.w3.org/Graphics/SVG/1.1/DTD/svg11.dtd"><svg width="100%" height="100%" viewBox="0 0 207 62" version="1.1" xmlns="http://www.w3.org/2000/svg" xmlns:xlink="http://www.w3.org/1999/xlink" xml:space="preserve" xmlns:serif="http://www.serif.com/" style="fill-rule:evenodd;clip-rule:evenodd;stroke-linejoin:round;stroke-miterlimit:2;"><g><path d="M181.75,50.1l2.15,-2l-2.15,-2.05l-2.15,2.05l2.15,2Z"/><path d="M72.1,21.35c-1.333,1.6 -1.983,2.567 -1.95,2.9l0.45,18.35c1.1,-0.833 1.65,-3.067 1.65,-6.7l-0.15,-14.55Z"/><path d="M128.15,37.2l-5.7,1.2c-0.067,0.033 -0.133,0.05 -0.2,0.05c-0.667,-0 -1.417,-0.417 -2.25,-1.25c-0.833,-0.833 -1.25,-1.55 -1.25,-2.15c0,-0.467 0.617,-0.933 1.85,-1.4c1.033,-0.367 1.883,-0.55 2.55,-0.55c0.967,0 2.05,0.2 3.25,0.6c-0.833,-1.933 -2.3,-2.9 -4.4,-2.9c-1.333,0 -2.467,0.617 -3.4,1.85c-0.867,1.1 -1.3,2.317 -1.3,3.65c-0,1.067 0.217,2 0.65,2.8l-5,0l0,0.05c-0.049,-0.002 -0.099,-0.002 -0.15,-0c-0.8,0.067 -1.333,0.1 -1.6,0.1c-0.967,-0 -1.667,-0.183 -2.1,-0.55c-0.5,-0.467 -0.767,-1.283 -0.8,-2.45c-0.867,1.333 -1.467,2.133 -1.8,2.4c-0.4,0.333 -1.033,0.5 -1.9,0.5l-1.45,-0c-0.204,-0.008 -0.404,-0.025 -0.6,-0.05c-2.367,0 -3.9,-0.45 -4.6,-1.35c-0.6,-0.733 -0.9,-2.283 -0.9,-4.65l-0,-11.15c-0.367,0.333 -0.733,0.683 -1.1,1.05c-0.267,0.333 -0.4,0.783 -0.4,1.35c-0,4.667 0.033,7.65 0.1,8.95c0.167,4.5 0.633,7.217 1.4,8.15c0.633,0.733 1.5,1.1 2.6,1.1l4.9,0c0.7,0 1.283,-0.25 1.75,-0.75c0.067,-0.067 0.4,-0.6 1,-1.6c0.333,0.5 0.8,1 1.4,1.5c0.7,0.567 1.3,0.85 1.8,0.85l6,0c1.267,0 3.083,-0.25 5.45,-0.75c2.6,-0.567 4.283,-1.133 5.05,-1.7c0.533,-1.467 0.917,-2.433 1.15,-2.9Z"/><path d="M8.403,30.504l3.008,0l-0,3.008l1.915,1.915l-1.915,1.915l-0,2.708l-2.709,0l-2.127,2.127l-2.126,-2.127l-3.008,0l0,-3.007l-1.915,-1.915l1.915,-1.915l0,-2.709l2.708,0l2.127,-2.126l2.127,2.126Zm0.828,8.164l-1.384,-0l-1.907,1.906l0.635,0.635l1.844,-1.843l0.812,-0l-0,-0.698Zm-5.39,-0.146l0,0.002l-1.715,-0l-0,0.842l2.606,-0l0.724,0.724l0.565,-0.565l-1.003,-1.003l-1.177,0Zm6.074,-1.768l0,2.612l0.811,-0l-0,-2.307l0.73,-0.731l-0.557,-0.558l-0.984,0.984Zm-4.439,-4.058l-1.639,0l0,1.368l-1.183,1.183l1.165,1.123l0,1.468l1.483,-0l1.203,1.203l1.058,-1.058l1.668,-0l-0,-1.513l1.184,-1.184l-1.039,-1.039l-0,-1.493l-1.668,0l-1.145,-1.145l-1.087,1.087Zm-4.468,1.917l-0.514,0.515l1.632,1.631l-0,1.08l1.009,0l-0,-1.178l-2.127,-2.048Zm9.052,-0.649l1.881,1.88l0.416,-0.417l-1.631,-1.631l-0,-1.042l-0.666,0l0,1.21Zm-6.907,-2.775l-1.027,-0l-0,2.307l-0.634,0.633l0.668,0.643l0.993,-0.992l-0,-2.591Zm4.398,-0.568l-0.504,0.504l0.945,0.945l2.734,-0l-0,-0.881l-2.607,-0l-0.568,-0.568Zm-0.484,-0.484l-0.791,-0.791l-1.843,1.843l-0.596,-0l0,0.823l1.355,-0l1.875,-1.875Z"/><path d="M89.1,39.3c0.167,-0.1 0.383,-0.367 0.65,-0.8c0.133,-0.3 0.283,-0.6 0.45,-0.9l-1.65,0c-2.5,0 -3.75,-0.333 -3.75,-1c-0,-0.233 0.217,-0.517 0.65,-0.85c0.4,-0.3 0.733,-0.45 1,-0.45c0.033,0 0.217,0.05 0.55,0.15c0.333,0.1 0.583,0.15 0.75,0.15c0.633,0 0.95,-0.283 0.95,-0.85c0,-0.2 -0.167,-0.417 -0.5,-0.65c-0.367,-0.233 -0.683,-0.35 -0.95,-0.35c-1.4,0 -2.867,1.117 -4.4,3.35c0,0.367 0.167,0.767 0.5,1.2c0.333,0.433 0.5,0.717 0.5,0.85c0,0.033 -0.067,0.183 -0.2,0.45c-0.167,0.267 -0.25,0.5 -0.25,0.7c-0,0.2 0.05,0.467 0.15,0.8c2.067,-1.333 3.617,-2 4.65,-2c0.2,0 0.5,0.067 0.9,0.2Z"/><path d="M58.55,40.25c0.867,-0.6 1.617,-0.983 2.25,-1.15c0.533,-0.133 1.2,-0.217 2,-0.25c0.7,-0.033 1.383,-0.05 2.05,-0.05c0.433,-1.033 0.767,-2.133 1,-3.3c-1.667,-0 -3.233,-0.283 -4.7,-0.85c-0.7,-0.233 -1.75,-0.733 -3.15,-1.5c-1,-0.567 -1.767,-0.85 -2.3,-0.85c-1,0 -1.817,0.483 -2.45,1.45c-0.4,0.567 -0.783,1.45 -1.15,2.65c0.433,-0.167 0.85,-0.35 1.25,-0.55c0.5,-0.233 0.917,-0.35 1.25,-0.35c0.533,-0 1.283,0.233 2.25,0.7c0.033,0.033 0.733,0.417 2.1,1.15c-0.967,0.733 -1.8,1.233 -2.5,1.5c-0.633,0.2 -1.4,0.3 -2.3,0.3l-1.45,-0c-0.733,-0.033 -1.367,-0.05 -1.9,-0.05l-0,0.15c-0.393,-0.003 -0.793,-0.02 -1.2,-0.05c-0.333,-0.7 -0.667,-1.383 -1,-2.05c-0.533,-0.9 -1.067,-1.35 -1.6,-1.35c-0.667,0 -1.367,0.667 -2.1,2c-0.667,1.2 -1,2.167 -1,2.9c-0,0.933 0.483,1.517 1.45,1.75c0.867,0.133 1.733,0.267 2.6,0.4c-1.033,1.467 -2.1,2.533 -3.2,3.2c-1.267,0.767 -2.75,1.15 -4.45,1.15c-0.933,-0 -2.267,-0.083 -4,-0.25c1.633,1.533 3.517,2.3 5.65,2.3c1.867,-0 3.467,-0.717 4.8,-2.15c0.9,-1.033 1.783,-2.55 2.65,-4.55l4.05,0c1,0 1.967,-0.25 2.9,-0.75c0.333,-0.2 1.067,-0.717 2.2,-1.55Zm-12.4,-1.8c0.6,0.233 0.967,0.45 1.1,0.65c0.133,0.167 0.267,0.55 0.4,1.15c-0.567,-0 -1.217,-0.05 -1.95,-0.15c0,-0.267 -0.067,-0.45 -0.2,-0.55c0.233,-0.4 0.45,-0.767 0.65,-1.1Z"/><path d="M152.05,24.3c-0,1.333 0.133,3.367 0.4,6.1c0.267,2.733 0.4,4.783 0.4,6.15c0,1.133 -0.367,1.867 -1.1,2.2c-0.438,0.204 -1.205,0.321 -2.3,0.35l-0.45,0c-1.045,-0.029 -1.661,-0.079 -1.85,-0.15c-0.767,-0.333 -1.417,-1.75 -1.95,-4.25c-0.433,-1.967 -0.65,-3.633 -0.65,-5c-0.8,0.967 -1.183,1.583 -1.15,1.85l0.2,2.3c-1.833,0.9 -3.15,1.733 -3.95,2.5c-1.167,1.1 -1.75,2.417 -1.75,3.95c-0,0.567 0.683,0.85 2.05,0.85c1.233,-0 2.133,-0.1 2.7,-0.3c0.667,-0.267 1.367,-0.867 2.1,-1.8c0.3,0.733 0.6,1.467 0.9,2.2c0.467,0.867 1.083,1.3 1.85,1.3l3.45,-0c0.633,-0 1.217,-0.383 1.75,-1.15c0.833,-1.233 1.267,-1.867 1.3,-1.9c0.367,0.667 0.733,1.317 1.1,1.95c0.5,0.733 1.117,1.1 1.85,1.1l3.85,-0c1.1,-0 2.117,-0.267 3.05,-0.8c0.867,-0.6 1.75,-1.2 2.65,-1.8c1.033,1 1.667,1.583 1.9,1.75c0.767,0.567 1.583,0.85 2.45,0.85l3.8,-0c1.267,-0 2.7,-0.4 4.3,-1.2c0.7,-0.367 1.933,-1.133 3.7,-2.3c1.233,-0.8 2.067,-1.2 2.5,-1.2l0.35,0.15c-0,3.033 0.967,4.55 2.9,4.55l6.9,-0c1.433,-0 2.733,-0.567 3.9,-1.7c1.167,-1.133 1.75,-2.367 1.75,-3.7c0,-3 -0.85,-5.133 -2.55,-6.4c-0.5,-0.367 -0.833,-0.55 -1,-0.55c-0.8,-0 -1.5,0.583 -2.1,1.75c-0.567,1.033 -0.85,1.967 -0.85,2.8c0,0.7 0.2,1.283 0.6,1.75c0.4,0.5 0.967,0.75 1.7,0.75c0.733,-0 1.55,-0.317 2.45,-0.95c0.533,0.833 0.8,1.383 0.8,1.65c-0,0.267 -0.467,0.533 -1.4,0.8c-0.8,0.233 -1.417,0.35 -1.85,0.35l-5.8,0l0,0.05c-0.528,0.067 -1.012,0.1 -1.45,0.1c-2.333,-0 -3.467,-0.467 -3.4,-1.4l0,-0.2c1.2,-0.2 1.967,-0.433 2.3,-0.7c0.1,-0.867 0.25,-1.733 0.45,-2.6c-0.933,0.233 -1.883,0.35 -2.85,0.35c-1.3,-0 -2.867,-0.367 -4.7,-1.1c-1.8,-0.733 -2.9,-1.1 -3.3,-1.1c-0.933,-0 -1.8,0.367 -2.6,1.1c-0.833,0.733 -1.25,1.533 -1.25,2.4l-0,0.45c0.533,-0.2 1.067,-0.383 1.6,-0.55c0.7,-0.233 1.217,-0.35 1.55,-0.35c0.9,0 2.067,0.417 3.5,1.25c-1.433,1 -2.833,1.667 -4.2,2c-0.815,0.163 -2.015,0.263 -3.6,0.3l-0.25,0c-2.098,-0.049 -3.532,-0.366 -4.3,-0.95c1.4,-1.1 2.1,-2.1 2.1,-3c-0,-0.867 -0.517,-1.55 -1.55,-2.05c-0.8,-0.433 -1.7,-0.65 -2.7,-0.65c-0.933,-0 -1.917,0.35 -2.95,1.05c-1.167,0.733 -1.75,1.533 -1.75,2.4c-0,0.1 0.433,0.383 1.3,0.85c1,0.5 1.6,0.9 1.8,1.2c-1.167,0.833 -2.933,1.217 -5.3,1.15l-0.65,0c-1.421,-0.026 -2.455,-0.426 -3.1,-1.2c-0.567,-0.733 -0.85,-1.817 -0.85,-3.25c-0,-1.7 -0.1,-3.95 -0.3,-6.75c-0.267,-3.4 -0.433,-5.65 -0.5,-6.75c-1.3,0.967 -1.95,2.017 -1.95,3.15Zm-8.3,11.25c0.233,0.767 0.35,1.217 0.35,1.35c-0,0.2 -0.333,0.383 -1,0.55c-0.533,0.133 -0.967,0.2 -1.3,0.2c-0.367,-0 -0.85,-0.1 -1.45,-0.3c1.233,-0.767 2.367,-1.367 3.4,-1.8Zm54.45,-1.2l0,0.4c-0.633,0.233 -1.067,0.35 -1.3,0.35c-0.133,0 -0.35,-0.067 -0.65,-0.2l-0.6,-0.3c0.167,-0.533 0.3,-0.867 0.4,-1c0.1,-0.133 0.383,-0.35 0.85,-0.65c0.533,0.367 0.967,0.833 1.3,1.4Z"/><path d="M107.55,29.65l-1.9,-1.75l-1.85,1.75l1.9,1.8l1.85,-1.8Z"/><path d="M111.35,29.65l-1.9,-1.75l-1.9,1.75l1.9,1.8l1.9,-1.8Z"/><path d="M120.95,28.95l2.2,-2l-2.2,-2.05l-2.15,2.05l2.15,2Z"/><path d="M105.8,25.95l1.85,1.8l1.9,-1.8l-1.9,-1.75l-1.85,1.75Z"/><path d="M197.25,27.55l2.15,-2l-2.15,-2.05l-2.2,2.05l2.2,2Z"/><path d="M136.7,24.45c0.367,0.1 0.667,0.15 0.9,0.15c0.9,0 1.967,-0.583 3.2,-1.75c0.5,0.3 0.933,0.517 1.3,0.65l0.1,-1.2c-0.267,-0.167 -0.467,-0.283 -0.6,-0.35c0.333,-0.633 0.5,-1.117 0.5,-1.45c0,-0.7 -0.367,-1.05 -1.1,-1.05c-0.5,-0 -0.95,0.25 -1.35,0.75c-0.367,0.433 -0.55,0.85 -0.55,1.25c0,0.367 0.333,0.733 1,1.1c-1.2,0.833 -2.333,1.467 -3.4,1.9Zm4.4,-3.25c0,0.133 -0.033,0.267 -0.1,0.4c-0.7,-0.3 -1.05,-0.6 -1.05,-0.9c0.033,-0.133 0.133,-0.2 0.3,-0.2c0.567,0.067 0.85,0.3 0.85,0.7Z"/><path d="M56.05,21.5c0.4,-0.433 0.6,-0.917 0.6,-1.45c-0,-0.467 -0.133,-0.883 -0.4,-1.25c-0.333,-0.433 -0.75,-0.65 -1.25,-0.65c-0.633,-0 -1.117,0.267 -1.45,0.8c-0.267,0.467 -0.4,1.017 -0.4,1.65c-0,1.033 0.483,1.55 1.45,1.55c0.567,-0 1.05,-0.217 1.45,-0.65Zm-0.75,-1.85c0.4,0.267 0.6,0.5 0.6,0.7c-0,0.367 -0.35,0.55 -1.05,0.55c-0.833,-0 -1.25,-0.267 -1.25,-0.8c0,-0.567 0.267,-0.85 0.8,-0.85c0.233,0 0.533,0.133 0.9,0.4Z"/><path d="M120.9,15.6c-0.5,0 -0.95,0.25 -1.35,0.75c-0.367,0.433 -0.55,0.85 -0.55,1.25c-0,0.367 0.333,0.733 1,1.1c-1.2,0.833 -2.333,1.467 -3.4,1.9c0.367,0.1 0.667,0.15 0.9,0.15c0.9,0 1.967,-0.583 3.2,-1.75c0.5,0.3 0.933,0.517 1.3,0.65l0.1,-1.2c-0.267,-0.167 -0.467,-0.283 -0.6,-0.35c0.333,-0.633 0.5,-1.117 0.5,-1.45c-0,-0.7 -0.367,-1.05 -1.1,-1.05Zm0.1,1.75c-0,0.133 -0.033,0.267 -0.1,0.4c-0.7,-0.3 -1.05,-0.6 -1.05,-0.9c0.033,-0.133 0.133,-0.2 0.3,-0.2c0.567,0.067 0.85,0.3 0.85,0.7Z"/><path d="M96.4,16.15c0.5,0.167 1.133,0.25 1.9,0.25c0.833,-0 1.833,-0.317 3,-0.95c1.333,-0.667 2,-1.35 2,-2.05c-1.333,0.667 -2.067,1.017 -2.2,1.05c-0.867,0.333 -1.65,0.5 -2.35,0.5c-1.367,-0 -2.633,-0.383 -3.8,-1.15c-1,1.367 -1.683,2.583 -2.05,3.65c0.3,-0.2 0.617,-0.517 0.95,-0.95c0.4,-0.5 0.7,-0.833 0.9,-1c0.933,0.4 1.483,0.617 1.65,0.65Z"/><path d="M36.4,33.85c0.267,-0.533 0.4,-1.033 0.4,-1.5c-0,-0.233 -0.083,-0.517 -0.25,-0.85l-0.65,-0.35c-1.533,-0 -3.183,1.083 -4.95,3.25c-1.7,2.1 -2.55,3.917 -2.55,5.45c-0,0.9 0.367,1.567 1.1,2c0.533,0.333 1.333,0.533 2.4,0.6c0.9,0.033 1.783,0.067 2.65,0.1c-0.5,0.9 -1.833,1.7 -4,2.4c-1.9,0.667 -3.5,1 -4.8,1c-3.667,-0 -5.5,-1.517 -5.5,-4.55c0,-0.833 0.267,-2.117 0.8,-3.85c-0.667,0.3 -1.25,1.117 -1.75,2.45c-0.467,1.133 -0.7,2.133 -0.7,3c0,2 0.533,3.533 1.6,4.6c1.067,1.1 2.65,1.65 4.75,1.65c2.2,-0 4.567,-0.683 7.1,-2.05c2.833,-1.533 4.25,-3.25 4.25,-5.15c-0,-1 -0.567,-1.667 -1.7,-2c-1.067,-0.167 -2.133,-0.35 -3.2,-0.55c-1.133,-0.2 -1.7,-0.617 -1.7,-1.25c0,-0.667 0.617,-1.467 1.85,-2.4c1.067,-0.767 2.017,-1.267 2.85,-1.5c0.367,0.133 0.6,0.25 0.7,0.35c0.067,0.067 0.267,0.25 0.6,0.55c0.233,-0.467 0.467,-0.933 0.7,-1.4Z" style="fill:#f00;"/><path d="M82.699,28.048c-0.213,-0.122 -0.398,-0.299 -0.534,-0.524c-0.427,-0.709 -0.198,-1.632 0.511,-2.059l4.15,-2.5c0.709,-0.427 1.632,-0.198 2.059,0.511c0.271,0.45 0.278,0.985 0.066,1.426c0.213,0.122 0.398,0.299 0.534,0.524c0.427,0.709 0.198,1.632 -0.511,2.059l-4.15,2.5c-0.709,0.427 -1.632,0.198 -2.059,-0.511c-0.271,-0.45 -0.278,-0.985 -0.066,-1.426Z"/><path d="M180.326,15.465l-4.15,2.5c-0.709,0.427 -0.938,1.35 -0.511,2.059c0.427,0.709 1.35,0.938 2.059,0.511l4.15,-2.5c0.709,-0.427 0.938,-1.35 0.511,-2.059c-0.427,-0.709 -1.35,-0.938 -2.059,-0.511Z"/><path d="M103.619,15.469l-4.1,2.5c-0.707,0.431 -0.931,1.355 -0.5,2.062c0.431,0.707 1.355,0.931 2.062,0.5l4.1,-2.5c0.707,-0.431 0.931,-1.355 0.5,-2.062c-0.431,-0.707 -1.355,-0.931 -2.062,-0.5Z"/><path d="M154.376,14.915l-4.15,2.5c-0.709,0.427 -0.938,1.35 -0.511,2.059c0.427,0.709 1.35,0.938 2.059,0.511l4.15,-2.5c0.709,-0.427 0.938,-1.35 0.511,-2.059c-0.427,-0.709 -1.35,-0.938 -2.059,-0.511Z"/><path d="M198.026,14.915l-4.15,2.5c-0.709,0.427 -0.938,1.35 -0.511,2.059c0.427,0.709 1.35,0.938 2.059,0.511l4.15,-2.5c0.709,-0.427 0.938,-1.35 0.511,-2.059c-0.427,-0.709 -1.35,-0.938 -2.059,-0.511Z"/><path d="M72.826,14.915l-4.15,2.5c-0.709,0.427 -0.938,1.35 -0.511,2.059c0.427,0.709 1.35,0.938 2.059,0.511l4.15,-2.5c0.709,-0.427 0.938,-1.35 0.511,-2.059c-0.427,-0.709 -1.35,-0.938 -2.059,-0.511Z"/><path d="M166.176,14.915l-4.15,2.5c-0.709,0.427 -0.938,1.35 -0.511,2.059c0.427,0.709 1.35,0.938 2.059,0.511l4.15,-2.5c0.709,-0.427 0.938,-1.35 0.511,-2.059c-0.427,-0.709 -1.35,-0.938 -2.059,-0.511Z"/><path d="M39.476,18.815l-4.15,2.5c-0.709,0.427 -0.938,1.35 -0.511,2.059c0.427,0.709 1.35,0.938 2.059,0.511l4.15,-2.5c0.709,-0.427 0.938,-1.35 0.511,-2.059c-0.427,-0.709 -1.35,-0.938 -2.059,-0.511Z" style="fill:#f00;"/></g></svg>