<?xml version="1.0" encoding="UTF-8" standalone="no"?><!DOCTYPE svg PUBLIC "-//W3C//DTD SVG 1.1//EN" "http://www.w3.org/Graphics/SVG/1.1/DTD/svg11.dtd"><svg width="100%" height="100%" viewBox="0 0 247 62" version="1.1" xmlns="http://www.w3.org/2000/svg" xmlns:xlink="http://www.w3.org/1999/xlink" xml:space="preserve" xmlns:serif="http://www.serif.com/" style="fill-rule:evenodd;clip-rule:evenodd;stroke-linejoin:round;stroke-miterlimit:2;"><g><path d="M134.25,45.95l-1.9,1.75l1.9,1.8l1.9,-1.75l-1.9,-1.8Z"/><path d="M43.9,49.5l1.95,-1.75l-1.95,-1.75l-1.85,1.75l1.85,1.75Z"/><path d="M40.15,49.5l1.9,-1.75l-1.9,-1.8l-1.9,1.75l1.9,1.8Z"/><path d="M139.95,47.75l-1.95,-1.75l-1.85,1.75l1.85,1.75l1.95,-1.75Z"/><path d="M88.35,40c0,-1 -0.217,-1.85 -0.65,-2.55c-0.3,-0.567 -0.9,-1.267 -1.8,-2.1l-0.8,2.9c0.467,0.5 0.917,0.983 1.35,1.45c0.6,0.7 0.9,1.233 0.9,1.6c0,1.833 -1.417,3.417 -4.25,4.75c-2.433,1.133 -4.733,1.7 -6.9,1.7c1.767,1.1 3.517,1.65 5.25,1.65c2,-0 3.7,-1.133 5.1,-3.4c1.2,-1.967 1.8,-3.967 1.8,-6Z"/><path d="M14.053,30.644l3.008,-0l-0,3.007l1.915,1.915l-1.915,1.915l-0,2.709l-2.708,-0l-2.127,2.126l-2.127,-2.126l-3.008,-0l0,-3.008l-1.915,-1.915l1.915,-1.915l0,-2.708l2.709,-0l2.126,-2.127l2.127,2.127Zm0.828,8.163l-1.384,-0l-1.906,1.906l0.635,0.635l1.843,-1.843l0.812,0l-0,-0.698Zm-5.389,-0.145l-0,0.001l-1.716,0l-0,0.842l2.607,0l0.724,0.724l0.564,-0.564l-1.003,-1.003l-1.176,-0Zm6.074,-1.769l-0,2.612l0.81,0l0,-2.307l0.731,-0.731l-0.558,-0.557l-0.983,0.983Zm-4.44,-4.058l-1.638,0l-0,1.368l-1.184,1.184l1.166,1.122l-0,1.468l1.482,0l1.203,1.204l1.059,-1.059l1.667,0l-0,-1.512l1.184,-1.184l-1.039,-1.039l0,-1.493l-1.667,-0l-1.146,-1.146l-1.087,1.087Zm-4.467,1.918l-0.515,0.514l1.632,1.631l-0,1.081l1.009,-0l-0,-1.179l-2.126,-2.047Zm9.052,-0.65l1.88,1.88l0.417,-0.417l-1.632,-1.631l0,-1.041l-0.665,-0l-0,1.209Zm-6.908,-2.775l-1.027,0l-0,2.307l-0.633,0.634l0.668,0.643l0.992,-0.993l0,-2.591Zm4.398,-0.568l-0.504,0.504l0.945,0.945l2.734,-0l0,-0.881l-2.606,0l-0.569,-0.568Zm-0.484,-0.484l-0.791,-0.791l-1.843,1.843l-0.595,0l-0,0.823l1.354,-0l1.875,-1.875Z"/><path d="M76,21.5c-1.333,1.6 -1.983,2.567 -1.95,2.9l0.45,18.35c1.1,-0.833 1.65,-3.067 1.65,-6.7l-0.15,-14.55Z"/><path d="M70.55,35.7c-0,-0.733 -0.283,-1.4 -0.85,-2c-0.567,-0.633 -1.233,-0.95 -2,-0.95c-1.2,0 -2.683,0.5 -4.45,1.5c-1.133,0.6 -2.7,1.6 -4.7,3c-2.033,1.433 -3.383,2.333 -4.05,2.7c-0.733,-0 -1.433,-0.233 -2.1,-0.7c-0.633,-0.467 -1.067,-1.05 -1.3,-1.75c-0.333,0.667 -0.617,1.117 -0.85,1.35c-0.367,0.333 -0.867,0.483 -1.5,0.45l-0.3,0l0,-0.05l-1.75,-0l0,0.05c-0.733,0.033 -1.233,0.05 -1.5,0.05c-0.967,0 -1.65,-0.183 -2.05,-0.55c-0.467,-0.433 -0.717,-1.233 -0.75,-2.4c-0.867,1.333 -1.467,2.133 -1.8,2.4c-0.4,0.333 -1.05,0.5 -1.95,0.5l-1.35,0c-0.101,-0.005 -0.201,-0.021 -0.3,-0.05l-1.7,-0l-0,3.45l3.3,-0c0.733,-0 1.317,-0.25 1.75,-0.75c0.067,-0.067 0.417,-0.6 1.05,-1.6c0.333,0.5 0.783,1 1.35,1.5c0.7,0.567 1.3,0.85 1.8,0.85l3.9,-0l0,-0.05c0.404,-0.035 0.671,-0.085 0.8,-0.15c0.233,-0.133 0.733,-0.717 1.5,-1.75c0.867,1 1.8,1.633 2.8,1.9c0.733,0.233 1.917,0.35 3.55,0.35c2.8,-0 5.567,-0.567 8.3,-1.7c3.433,-1.433 5.15,-3.3 5.15,-5.6Zm-5.95,0.15c0.467,0 1.133,0.15 2,0.45c1.033,0.367 1.55,0.717 1.55,1.05c-0,0.567 -1.05,1.167 -3.15,1.8c-1.867,0.533 -3.25,0.8 -4.15,0.8l-4.2,-0c3.6,-2.733 6.25,-4.1 7.95,-4.1Z"/><path d="M151.05,33.25c0.967,0 2.05,0.2 3.25,0.6c-0.833,-1.933 -2.3,-2.9 -4.4,-2.9c-1.333,-0 -2.467,0.617 -3.4,1.85c-0.867,1.1 -1.3,2.317 -1.3,3.65c0,1.067 0.217,2 0.65,2.8l-5,0l-0,0.05l-0.05,0c-0.733,0.033 -1.233,0.05 -1.5,0.05c-0.967,0 -1.65,-0.183 -2.05,-0.55c-0.467,-0.433 -0.717,-1.233 -0.75,-2.4c-0.867,1.333 -1.467,2.133 -1.8,2.4c-0.4,0.333 -1.05,0.5 -1.95,0.5l-1.55,0l0,-0.05l-1.35,0c-1.467,-0.027 -2.2,-0.411 -2.2,-1.15c0,-0.067 0.033,-0.2 0.1,-0.4c0.067,-0.233 0.1,-0.4 0.1,-0.5c-0,-0.3 -0.067,-0.65 -0.2,-1.05c-0.367,0.667 -0.733,1.35 -1.1,2.05c-0.533,0.767 -1.167,1.15 -1.9,1.15c-0.933,0 -1.567,-0.267 -1.9,-0.8c0.233,-0.833 0.35,-1.633 0.35,-2.4c-0.533,0.767 -1.067,1.533 -1.6,2.3c-0.567,0.6 -1.5,0.9 -2.8,0.9c-1.1,0 -1.883,-0.167 -2.35,-0.5c-0.567,-0.4 -0.85,-1.1 -0.85,-2.1c-0.9,1.1 -1.633,1.8 -2.2,2.1c-0.533,0.267 -1.3,0.4 -2.3,0.4l-2,0c-1.015,-0.03 -1.615,-0.08 -1.8,-0.15c-0.767,-0.333 -1.417,-1.75 -1.95,-4.25c-0.433,-1.967 -0.65,-3.633 -0.65,-5c-0.8,0.967 -1.183,1.583 -1.15,1.85l0.2,2.3c-1.833,0.9 -3.15,1.733 -3.95,2.5c-1.167,1.1 -1.75,2.417 -1.75,3.95c0,0.567 0.683,0.85 2.05,0.85c1.233,0 2.133,-0.1 2.7,-0.3c0.667,-0.267 1.367,-0.867 2.1,-1.8c0.3,0.733 0.6,1.467 0.9,2.2c0.467,0.867 1.083,1.3 1.85,1.3l4.85,-0c0.567,-0 1.3,-0.4 2.2,-1.2c0.6,0.267 1.2,0.517 1.8,0.75c0.733,0.3 1.367,0.45 1.9,0.45c1.1,-0 2.217,-0.35 3.35,-1.05c0.433,0.2 0.883,0.417 1.35,0.65c0.567,0.267 1.033,0.4 1.4,0.4c0.667,-0 1.35,-0.35 2.05,-1.05c0.833,0.7 1.383,1.05 1.65,1.05l4.6,-0c0.733,-0 1.317,-0.25 1.75,-0.75c0.067,-0.067 0.417,-0.6 1.05,-1.6c0.333,0.5 0.783,1 1.35,1.5c0.7,0.567 1.3,0.85 1.8,0.85l5.75,-0c1.267,-0 3.083,-0.25 5.45,-0.75c2.6,-0.567 4.283,-1.133 5.05,-1.7c0.533,-1.467 0.917,-2.433 1.15,-2.9l-5.7,1.2c-0.067,0.033 -0.133,0.05 -0.2,0.05c-0.667,0 -1.417,-0.417 -2.25,-1.25c-0.833,-0.833 -1.25,-1.55 -1.25,-2.15c0,-0.467 0.617,-0.933 1.85,-1.4c1.033,-0.367 1.883,-0.55 2.55,-0.55Zm-47.25,2.45c0.233,0.767 0.35,1.217 0.35,1.35c0,0.2 -0.333,0.383 -1,0.55c-0.533,0.133 -0.967,0.2 -1.3,0.2c-0.367,-0 -0.85,-0.1 -1.45,-0.3c1.233,-0.767 2.367,-1.367 3.4,-1.8Z"/><path d="M239.15,30.9c-0.5,-0.367 -0.833,-0.55 -1,-0.55c-0.8,0 -1.5,0.583 -2.1,1.75c-0.567,1.033 -0.85,1.967 -0.85,2.8c0,0.7 0.2,1.283 0.6,1.75c0.4,0.5 0.967,0.75 1.7,0.75c0.733,-0 1.55,-0.317 2.45,-0.95c0.533,0.833 0.8,1.383 0.8,1.65c0,0.267 -0.467,0.533 -1.4,0.8c-0.8,0.233 -1.417,0.35 -1.85,0.35l-5.8,0l0,0.05c-0.213,0.018 -0.446,0.035 -0.7,0.05c-1.1,0.067 -1.933,0.1 -2.5,0.1c-0.9,0 -1.567,-0.067 -2,-0.2c0.733,-0.7 1.35,-1.483 1.85,-2.35c0.6,-1 0.9,-1.917 0.9,-2.75c0,-1.733 -0.433,-2.917 -1.3,-3.55c-0.7,0 -1.417,0.7 -2.15,2.1c-0.633,1.333 -1.267,2.65 -1.9,3.95c-0.767,1.467 -1.533,2.267 -2.3,2.4c-0.633,0.133 -1.917,0.2 -3.85,0.2l0,0.15c-0.393,-0.003 -0.793,-0.02 -1.2,-0.05c-0.333,-0.7 -0.667,-1.383 -1,-2.05c-0.533,-0.9 -1.067,-1.35 -1.6,-1.35c-0.667,0 -1.367,0.667 -2.1,2c-0.667,1.2 -1,2.167 -1,2.9c-0,0.933 0.483,1.517 1.45,1.75c0.867,0.133 1.733,0.267 2.6,0.4c-1.033,1.467 -2.1,2.533 -3.2,3.2c-1.267,0.767 -2.75,1.15 -4.45,1.15c-0.933,0 -2.267,-0.083 -4,-0.25c1.633,1.533 3.517,2.3 5.65,2.3c1.867,-0 3.467,-0.717 4.8,-2.15c0.9,-1.033 1.783,-2.55 2.65,-4.55l5.6,0c0,1.3 0.333,2.633 1,4c0.833,1.7 1.85,2.55 3.05,2.55c0.933,0 1.65,-0.567 2.15,-1.7c0.4,-0.9 0.6,-1.867 0.6,-2.9c-0,-0.267 -0.017,-0.617 -0.05,-1.05c-0.067,-0.533 -0.1,-0.883 -0.1,-1.05c0.9,0.133 1.717,0.2 2.45,0.2c0.383,0 0.75,-0.017 1.1,-0.05l3.9,-0c1.433,-0 2.733,-0.567 3.9,-1.7c1.167,-1.133 1.75,-2.367 1.75,-3.7c0,-3 -0.85,-5.133 -2.55,-6.4Zm-11.7,15.1c-0.267,0.133 -0.45,0.2 -0.55,0.2c-0.867,-0 -1.617,-0.367 -2.25,-1.1c-0.533,-0.633 -0.9,-1.383 -1.1,-2.25c2.833,0.633 4.25,1.55 4.25,2.75c-0,0.1 -0.117,0.233 -0.35,0.4Zm-12.85,-5.6c-0.567,-0 -1.217,-0.05 -1.95,-0.15c0,-0.267 -0.067,-0.45 -0.2,-0.55c0.233,-0.4 0.45,-0.767 0.65,-1.1c0.6,0.233 0.967,0.45 1.1,0.65c0.133,0.167 0.267,0.55 0.4,1.15Zm12.2,-6.1c0.567,0.5 0.85,0.95 0.85,1.35c0,0.867 -0.367,1.533 -1.1,2c-0.467,0.3 -1.25,0.567 -2.35,0.8c0.667,-1.333 1.033,-2.067 1.1,-2.2c0.433,-0.767 0.933,-1.417 1.5,-1.95Zm10,-0.55c0.1,-0.133 0.383,-0.35 0.85,-0.65c0.533,0.367 0.967,0.833 1.3,1.4l0,0.4c-0.633,0.233 -1.067,0.35 -1.3,0.35c-0.133,0 -0.35,-0.067 -0.65,-0.2l-0.6,-0.3c0.167,-0.533 0.3,-0.867 0.4,-1Z"/><path d="M192.4,30.9c-0.5,-0.367 -0.833,-0.55 -1,-0.55c-0.8,0 -1.5,0.583 -2.1,1.75c-0.567,1.033 -0.85,1.967 -0.85,2.8c0,0.7 0.2,1.283 0.6,1.75c0.4,0.5 0.967,0.75 1.7,0.75c0.733,-0 1.55,-0.317 2.45,-0.95c0.533,0.833 0.8,1.383 0.8,1.65c0,0.267 -0.467,0.533 -1.4,0.8c-0.8,0.233 -1.417,0.35 -1.85,0.35l-6.9,0c-1.6,0 -3.017,0.433 -4.25,1.3c-1.367,0.967 -2.05,2.183 -2.05,3.65c-0,0.667 0.367,1.15 1.1,1.45c0.433,0.2 1.183,0.367 2.25,0.5c1.033,0.133 1.683,0.3 1.95,0.5c-0.3,0.567 -1.583,1.1 -3.85,1.6c-1.867,0.367 -3.367,0.55 -4.5,0.55c-1.933,-0 -3.417,-0.183 -4.45,-0.55c-1.567,-0.567 -2.35,-1.6 -2.35,-3.1c0,-0.633 0.25,-1.45 0.75,-2.45c0.567,-1.2 0.917,-2.017 1.05,-2.45c-0.867,0.533 -1.7,1.467 -2.5,2.8c-0.833,1.333 -1.25,2.467 -1.25,3.4c0,1.8 0.867,3.15 2.6,4.05c1.367,0.7 3.083,1.05 5.15,1.05c4.733,-0 8.217,-1.333 10.45,-4c0.7,-0.833 1.05,-1.467 1.05,-1.9c0,-0.767 -0.783,-1.3 -2.35,-1.6c-1.1,-0.167 -2.183,-0.317 -3.25,-0.45c0.379,-0.525 2.229,-0.825 5.55,-0.9l4.35,0c1.433,0 2.733,-0.567 3.9,-1.7c1.167,-1.133 1.75,-2.367 1.75,-3.7c0,-3 -0.85,-5.133 -2.55,-6.4Zm-0.2,3.6l0,0.4c-0.633,0.233 -1.067,0.35 -1.3,0.35c-0.133,0 -0.35,-0.067 -0.65,-0.2l-0.6,-0.3c0.167,-0.533 0.3,-0.867 0.4,-1c0.1,-0.133 0.383,-0.35 0.85,-0.65c0.533,0.367 0.967,0.833 1.3,1.4Z"/><path d="M120,28.2l-1.9,1.7l1.9,1.8l1.9,-1.75l-1.9,-1.75Z"/><path d="M123.75,28.2l-1.85,1.75l1.85,1.75l1.9,-1.8l-1.9,-1.7Z"/><path d="M58.25,27.3l-2.15,2l2.15,2l2.15,-2l-2.15,-2Z"/><path d="M122,28.05l1.9,-1.8l-1.9,-1.75l-1.9,1.75l1.9,1.8Z"/><path d="M103.25,26.2l-1.9,-1.75l-1.9,1.75l1.9,1.8l1.9,-1.8Z"/><path d="M107.05,26.2l-1.95,-1.75l-1.85,1.75l1.85,1.8l1.95,-1.8Z"/><path d="M238,27.7l2.15,-2l-2.15,-2.05l-2.2,2.05l2.2,2Z"/><path d="M191.25,27.7l2.15,-2l-2.15,-2.05l-2.2,2.05l2.2,2Z"/><path d="M222.8,22.8c0.367,0.1 0.667,0.15 0.9,0.15c0.9,-0 1.967,-0.583 3.2,-1.75c0.5,0.3 0.933,0.517 1.3,0.65l0.1,-1.2c-0.267,-0.167 -0.467,-0.283 -0.6,-0.35c0.333,-0.633 0.5,-1.117 0.5,-1.45c0,-0.7 -0.367,-1.05 -1.1,-1.05c-0.5,0 -0.95,0.25 -1.35,0.75c-0.367,0.433 -0.55,0.85 -0.55,1.25c0,0.367 0.333,0.733 1,1.1c-1.2,0.833 -2.333,1.467 -3.4,1.9Zm3.55,-3.95c0.567,0.067 0.85,0.3 0.85,0.7c0,0.133 -0.033,0.267 -0.1,0.4c-0.7,-0.3 -1.05,-0.6 -1.05,-0.9c0.033,-0.133 0.133,-0.2 0.3,-0.2Z"/><path d="M37,39.25c-1.967,0 -3.083,-0.05 -3.35,-0.15c-0.767,-0.333 -1.417,-1.75 -1.95,-4.25c-0.433,-1.967 -0.65,-3.633 -0.65,-5c-0.8,0.967 -1.183,1.583 -1.15,1.85l0.2,2.3c-1.833,0.9 -3.15,1.733 -3.95,2.5c-1.167,1.1 -1.75,2.417 -1.75,3.95c-0,0.567 0.683,0.85 2.05,0.85c1.233,0 2.133,-0.1 2.7,-0.3c0.667,-0.267 1.367,-0.867 2.1,-1.8c0.3,0.733 0.6,1.467 0.9,2.2c0.467,0.867 1.083,1.3 1.85,1.3l1.3,-0l-0,-3.45l1.7,-0Zm-6.75,-3.55c0.233,0.767 0.35,1.217 0.35,1.35c0,0.2 -0.333,0.383 -1,0.55c-0.533,0.133 -0.967,0.2 -1.3,0.2c-0.367,0 -0.85,-0.1 -1.45,-0.3c1.233,-0.767 2.367,-1.367 3.4,-1.8Z" style="fill:#f00;"/><path d="M29.7,26.2l1.85,1.8l1.95,-1.8l-1.95,-1.75l-1.85,1.75Z" style="fill:#f00;"/><path d="M29.7,26.2l-1.9,-1.75l-1.9,1.75l1.9,1.8l1.9,-1.8Z" style="fill:#f00;"/><path d="M191.576,48.265l-4.15,2.5c-0.709,0.427 -0.938,1.35 -0.511,2.059c0.427,0.709 1.35,0.938 2.059,0.511l4.15,-2.5c0.709,-0.427 0.938,-1.35 0.511,-2.059c-0.427,-0.709 -1.35,-0.938 -2.059,-0.511Z"/><path d="M99.099,50.748c-0.213,-0.122 -0.398,-0.299 -0.534,-0.524c-0.427,-0.709 -0.198,-1.632 0.511,-2.059l4.15,-2.5c0.709,-0.427 1.632,-0.198 2.059,0.511c0.271,0.45 0.278,0.985 0.066,1.426c0.213,0.122 0.398,0.299 0.534,0.524c0.427,0.709 0.198,1.632 -0.511,2.059l-4.15,2.5c-0.709,0.427 -1.632,0.198 -2.059,-0.511c-0.271,-0.45 -0.278,-0.985 -0.066,-1.426Z"/><path d="M60.269,46.869l-4.1,2.5c-0.707,0.431 -0.931,1.355 -0.5,2.062c0.431,0.707 1.355,0.931 2.062,0.5l4.1,-2.5c0.707,-0.431 0.931,-1.355 0.5,-2.062c-0.431,-0.707 -1.355,-0.931 -2.062,-0.5Z"/><path d="M152.776,46.315l-4.15,2.5c-0.709,0.427 -0.938,1.35 -0.511,2.059c0.427,0.709 1.35,0.938 2.059,0.511l4.15,-2.5c0.709,-0.427 0.938,-1.35 0.511,-2.059c-0.427,-0.709 -1.35,-0.938 -2.059,-0.511Z"/><path d="M43.169,18.269l-4.1,2.5c-0.707,0.431 -0.931,1.355 -0.5,2.062c0.431,0.707 1.355,0.931 2.062,0.5l4.1,-2.5c0.707,-0.431 0.931,-1.355 0.5,-2.062c-0.431,-0.707 -1.355,-0.931 -2.062,-0.5Z"/><path d="M214.969,17.719l-4.1,2.5c-0.707,0.431 -0.931,1.355 -0.5,2.062c0.431,0.707 1.355,0.931 2.062,0.5l4.1,-2.5c0.707,-0.431 0.931,-1.355 0.5,-2.062c-0.431,-0.707 -1.355,-0.931 -2.062,-0.5Z"/><path d="M239.326,16.615l-4.15,2.5c-0.709,0.427 -0.938,1.35 -0.511,2.059c0.427,0.709 1.35,0.938 2.059,0.511l4.15,-2.5c0.709,-0.427 0.938,-1.35 0.511,-2.059c-0.427,-0.709 -1.35,-0.938 -2.059,-0.511Z"/><path d="M83.026,16.615l-4.15,2.5c-0.709,0.427 -0.938,1.35 -0.511,2.059c0.427,0.709 1.35,0.938 2.059,0.511l4.15,-2.5c0.709,-0.427 0.938,-1.35 0.511,-2.059c-0.427,-0.709 -1.35,-0.938 -2.059,-0.511Z"/><path d="M123.369,16.069l-4.1,2.5c-0.707,0.431 -0.931,1.355 -0.5,2.062c0.431,0.707 1.355,0.931 2.062,0.5l4.1,-2.5c0.707,-0.431 0.931,-1.355 0.5,-2.062c-0.431,-0.707 -1.355,-0.931 -2.062,-0.5Z"/><path d="M25.499,50.848c-0.213,-0.122 -0.398,-0.299 -0.534,-0.524c-0.427,-0.709 -0.198,-1.632 0.511,-2.059l4.15,-2.5c0.709,-0.427 1.632,-0.198 2.059,0.511c0.271,0.45 0.278,0.985 0.066,1.426c0.213,0.122 0.398,0.299 0.534,0.524c0.427,0.709 0.198,1.632 -0.511,2.059l-4.15,2.5c-0.709,0.427 -1.632,0.198 -2.059,-0.511c-0.271,-0.45 -0.278,-0.985 -0.066,-1.426Z" style="fill:#f00;"/></g></svg>