<?xml version="1.0" encoding="UTF-8" standalone="no"?><!DOCTYPE svg PUBLIC "-//W3C//DTD SVG 1.1//EN" "http://www.w3.org/Graphics/SVG/1.1/DTD/svg11.dtd"><svg width="100%" height="100%" viewBox="0 0 101 72" version="1.1" xmlns="http://www.w3.org/2000/svg" xmlns:xlink="http://www.w3.org/1999/xlink" xml:space="preserve" xmlns:serif="http://www.serif.com/" style="fill-rule:evenodd;clip-rule:evenodd;stroke-linejoin:round;stroke-miterlimit:2;"><g><path d="M19.95,55.5l2.2,-2l-2.2,-2l-2.15,2l2.15,2Z"/><path d="M29.95,26.8c-1.333,1.6 -1.983,2.567 -1.95,2.9l0.45,18.35c1.1,-0.833 1.65,-3.067 1.65,-6.7l-0.15,-14.55Z"/><path d="M32.45,53.15c0.833,0.233 1.7,0.35 2.6,0.35c2.5,0 4.45,-0.967 5.85,-2.9c1.233,-1.7 1.85,-3.783 1.85,-6.25c-0,-1 -0.183,-1.967 -0.55,-2.9c-0.467,-1.233 -1.133,-1.85 -2,-1.85c-0.733,0 -1.433,0.617 -2.1,1.85c-0.567,1.067 -0.85,2 -0.85,2.8c-0,1.367 0.567,2.05 1.7,2.05c0.9,0 1.733,-0.45 2.5,-1.35c0.233,0.4 0.35,0.783 0.35,1.15c-0,2 -1.533,3.6 -4.6,4.8c-2.367,0.9 -4.783,1.35 -7.25,1.35c1.2,0.467 2.033,0.767 2.5,0.9Zm6.1,-9.4c0.267,-0.633 0.533,-1.2 0.8,-1.7c0.867,0.367 1.3,0.817 1.3,1.35c-0,0.233 -0.133,0.417 -0.4,0.55c-0.233,0.133 -0.483,0.2 -0.75,0.2l-0.95,-0.4Z"/><path d="M23.25,42.55c0,-0.533 -0.25,-1.8 -0.75,-3.8c-0.567,1.2 -1.033,2.117 -1.4,2.75c0.533,0.967 0.867,1.667 1,2.1c-0.521,0.613 -1.971,0.929 -4.35,0.95l-1.4,0c-1.105,-0.027 -1.755,-0.077 -1.95,-0.15c-0.767,-0.333 -1.417,-1.75 -1.95,-4.25c-0.433,-1.967 -0.65,-3.633 -0.65,-5c-0.8,0.967 -1.183,1.583 -1.15,1.85l0.2,2.3c-1.833,0.9 -3.15,1.733 -3.95,2.5c-1.167,1.1 -1.75,2.417 -1.75,3.95c-0,0.567 0.683,0.85 2.05,0.85c1.233,0 2.133,-0.1 2.7,-0.3c0.667,-0.267 1.367,-0.867 2.1,-1.8c0.3,0.733 0.6,1.467 0.9,2.2c0.467,0.867 1.083,1.3 1.85,1.3l3,-0l0,-0.05c1.804,-0.052 3.12,-0.419 3.95,-1.1c1.033,-0.833 1.55,-2.267 1.55,-4.3Zm-11.9,-0.2c0,0.2 -0.333,0.383 -1,0.55c-0.533,0.133 -0.967,0.2 -1.3,0.2c-0.367,0 -0.85,-0.1 -1.45,-0.3c1.233,-0.767 2.367,-1.367 3.4,-1.8c0.233,0.767 0.35,1.217 0.35,1.35Z"/><path d="M80.6,27.85c-2.167,1.033 -4.333,2.067 -6.5,3.1c-2.667,1.233 -4.7,2.433 -6.1,3.6c0.867,0.5 3.7,2.3 8.5,5.4c4.6,2.967 6.917,4.45 6.95,4.45c0.292,0.08 0.892,0.13 1.8,0.15l5.05,0c0.433,0 1.05,-0.117 1.85,-0.35c0.933,-0.267 1.4,-0.533 1.4,-0.8c-0,-0.267 -0.267,-0.817 -0.8,-1.65c-0.9,0.633 -1.717,0.95 -2.45,0.95c-0.733,-0 -1.3,-0.25 -1.7,-0.75c-0.4,-0.467 -0.6,-1.05 -0.6,-1.75c-0,-0.833 0.283,-1.767 0.85,-2.8c0.6,-1.167 1.3,-1.75 2.1,-1.75c0.167,-0 0.5,0.183 1,0.55c1.7,1.267 2.55,3.4 2.55,6.4c0,1.333 -0.583,2.567 -1.75,3.7c-1.167,1.133 -2.467,1.7 -3.9,1.7l-5.6,-0c-0.7,-0 -3.35,-2.233 -7.95,-6.7c-0.667,2.1 -1.283,3.583 -1.85,4.45c-1.033,1.5 -2.417,2.25 -4.15,2.25l-5.25,-0c-0.833,-0 -1.917,-0.5 -3.25,-1.5c-1.633,1 -2.933,1.5 -3.9,1.5l-2.35,-0c-0.3,-0 -0.55,0.067 -0.75,0.2c-0.2,1.367 -0.883,2.833 -2.05,4.4c-1.333,1.8 -2.667,2.7 -4,2.7c-0.967,-0 -1.967,-0.283 -3,-0.85c-0.967,-0.467 -1.8,-1.1 -2.5,-1.9c0.567,0.133 1.117,0.267 1.65,0.4c0.7,0.167 1.267,0.25 1.7,0.25c0.933,-0 2.317,-0.617 4.15,-1.85c1.933,-1.267 2.9,-2.317 2.9,-3.15c-0,-0.067 -0.25,-0.467 -0.75,-1.2c-0.567,-0.833 -0.85,-1.267 -0.85,-1.3c0.267,-0.633 0.483,-1.4 0.65,-2.3c0.633,0.633 1.233,1 1.8,1.1c0.135,0.022 0.518,0.039 1.15,0.05l1.1,-0c0.941,-0.037 1.857,-0.104 2.75,-0.2c-0.1,-0.6 -0.15,-1.167 -0.15,-1.7c0,-1.1 0.4,-2.383 1.2,-3.85c0.9,-1.7 1.883,-2.55 2.95,-2.55c0.667,-0 1.217,0.45 1.65,1.35c0.367,0.7 0.55,1.433 0.55,2.2c0,1.5 -0.483,2.933 -1.45,4.3c0.252,0.252 0.719,0.402 1.4,0.45l2.5,-0c0.223,0.033 0.423,0.05 0.6,0.05c3.833,0 5.75,-0.783 5.75,-2.35c0,-0.667 -0.533,-1.4 -1.6,-2.2c-1.033,-0.7 -2.05,-1.417 -3.05,-2.15c-1.1,-0.9 -1.65,-1.867 -1.65,-2.9c0,-1.133 0.15,-2 0.45,-2.6c0.4,-0.7 2.517,-2.033 6.35,-4c3.467,-1.767 5.9,-2.867 7.3,-3.3l-0.7,2.75Zm-18.1,12.7c0.267,0.333 0.4,0.633 0.4,0.9c-0,0.3 -0.25,0.717 -0.75,1.25c-0.467,0.467 -0.867,0.7 -1.2,0.7c-0.2,-0 -0.5,-0.167 -0.9,-0.5c-0.367,-0.333 -0.55,-0.617 -0.55,-0.85c0,-0.5 0.233,-0.95 0.7,-1.35c0.467,-0.433 0.967,-0.65 1.5,-0.65c0.267,0 0.533,0.167 0.8,0.5Zm29.25,-0.75l0,0.4c-0.633,0.233 -1.067,0.35 -1.3,0.35c-0.133,0 -0.35,-0.067 -0.65,-0.2l-0.6,-0.3c0.167,-0.533 0.3,-0.867 0.4,-1c0.1,-0.133 0.383,-0.35 0.85,-0.65c0.533,0.367 0.967,0.833 1.3,1.4Z"/><path d="M60.95,33l2.15,-2l-2.15,-2.05l-2.2,2.05l2.2,2Z"/><path d="M92.95,31l-2.15,-2.05l-2.2,2.05l2.2,2l2.15,-2Z"/><path d="M47.05,28.15c-0.267,-0.167 -0.467,-0.283 -0.6,-0.35c0.333,-0.633 0.5,-1.117 0.5,-1.45c0,-0.7 -0.367,-1.05 -1.1,-1.05c-0.5,0 -0.95,0.25 -1.35,0.75c-0.367,0.433 -0.55,0.85 -0.55,1.25c0,0.367 0.333,0.733 1,1.1c-1.2,0.833 -2.333,1.467 -3.4,1.9c0.367,0.1 0.667,0.15 0.9,0.15c0.9,-0 1.967,-0.583 3.2,-1.75c0.5,0.3 0.933,0.517 1.3,0.65l0.1,-1.2Zm-1.1,-1.1c0,0.133 -0.033,0.267 -0.1,0.4c-0.7,-0.3 -1.05,-0.6 -1.05,-0.9c0.033,-0.133 0.133,-0.2 0.3,-0.2c0.567,0.067 0.85,0.3 0.85,0.7Z"/><path d="M11.2,31.35l-0.75,0c-0.367,0.033 -0.667,0.05 -0.9,0.05c-0.967,-0 -1.7,-0.117 -2.2,-0.35c-0.667,-0.333 -1,-0.9 -1,-1.7c0,-0.767 0.283,-1.417 0.85,-1.95c0.567,-0.533 1.267,-0.8 2.1,-0.8c0.267,0 0.45,-0.05 0.55,-0.15c0.133,-0.033 0.233,-0.133 0.3,-0.3c0.067,-0.2 0.15,-0.4 0.25,-0.6c-0.333,0 -0.8,-0.017 -1.4,-0.05c-0.633,-0.067 -1.1,-0.1 -1.4,-0.1c-0.333,-0 -0.65,0.1 -0.95,0.3c-0.3,0.233 -0.45,0.517 -0.45,0.85l0,0.15c0.233,-0.3 0.5,-0.45 0.8,-0.45c0.167,0 0.367,0.067 0.6,0.2c-0.533,0.5 -0.933,0.983 -1.2,1.45c-0.3,0.533 -0.45,1.117 -0.45,1.75c0,0.967 0.25,1.633 0.75,2c0.467,0.367 1.217,0.55 2.25,0.55c0.4,-0 0.783,-0.083 1.15,-0.25c0.367,-0.167 0.733,-0.317 1.1,-0.45l0,-0.15Z" style="fill:#f00;"/><path d="M7.8,29.15l0.65,0.6l0.6,-0.6l-0.6,-0.6l-0.65,0.6Z" style="fill:#f00;"/><path d="M22.069,56.469l-4.1,2.5c-0.707,0.431 -0.931,1.355 -0.5,2.062c0.431,0.707 1.355,0.931 2.062,0.5l4.1,-2.5c0.707,-0.431 0.931,-1.355 0.5,-2.062c-0.431,-0.707 -1.355,-0.931 -2.062,-0.5Z"/><path d="M61.776,19.065l-4.15,2.5c-0.709,0.427 -0.938,1.35 -0.511,2.059c0.427,0.709 1.35,0.938 2.059,0.511l4.15,-2.5c0.709,-0.427 0.938,-1.35 0.511,-2.059c-0.427,-0.709 -1.35,-0.938 -2.059,-0.511Z"/><path d="M74.026,18.515l-4.15,2.5c-0.709,0.427 -0.938,1.35 -0.511,2.059c0.427,0.709 1.35,0.938 2.059,0.511l4.15,-2.5c0.709,-0.427 0.938,-1.35 0.511,-2.059c-0.427,-0.709 -1.35,-0.938 -2.059,-0.511Z"/><path d="M92.119,17.969l-4.1,2.5c-0.707,0.431 -0.931,1.355 -0.5,2.062c0.431,0.707 1.355,0.931 2.062,0.5l4.1,-2.5c0.707,-0.431 0.931,-1.355 0.5,-2.062c-0.431,-0.707 -1.355,-0.931 -2.062,-0.5Z"/><path d="M10.326,51.215l-4.15,2.5c-0.709,0.427 -0.938,1.35 -0.511,2.059c0.427,0.709 1.35,0.938 2.059,0.511l4.15,-2.5c0.709,-0.427 0.938,-1.35 0.511,-2.059c-0.427,-0.709 -1.35,-0.938 -2.059,-0.511Z" style="fill:#f00;"/></g></svg>