<?xml version="1.0" encoding="UTF-8" standalone="no"?><!DOCTYPE svg PUBLIC "-//W3C//DTD SVG 1.1//EN" "http://www.w3.org/Graphics/SVG/1.1/DTD/svg11.dtd"><svg width="100%" height="100%" viewBox="0 0 203 72" version="1.1" xmlns="http://www.w3.org/2000/svg" xmlns:xlink="http://www.w3.org/1999/xlink" xml:space="preserve" xmlns:serif="http://www.serif.com/" style="fill-rule:evenodd;clip-rule:evenodd;stroke-linejoin:round;stroke-miterlimit:2;"><g><path d="M109.15,54.3l1.85,-1.75l-1.85,-1.8l-1.9,1.75l1.9,1.8Z"/><path d="M112.9,54.3l1.9,-1.8l-1.9,-1.75l-1.9,1.8l1.9,1.75Z"/><path d="M43.15,46.25c-0.333,0.933 -0.5,1.833 -0.5,2.7c-0,1.6 0.517,2.817 1.55,3.65c0.933,0.767 2.267,1.15 4,1.15c2.133,0 3.933,-0.717 5.4,-2.15c1.467,-1.467 2.2,-3.217 2.2,-5.25c-0,-2.633 -0.783,-4.85 -2.35,-6.65c-0.433,0.767 -0.85,1.833 -1.25,3.2c0.767,0.967 1.267,1.65 1.5,2.05c0.467,0.833 0.7,1.617 0.7,2.35c-0,0.967 -0.783,1.767 -2.35,2.4c-1.267,0.533 -2.483,0.8 -3.65,0.8c-2.867,0 -4.3,-1.133 -4.3,-3.4c0,-0.367 0.083,-0.917 0.25,-1.65c0.133,-0.733 0.2,-1.283 0.2,-1.65c-0.567,0.567 -1.033,1.383 -1.4,2.45Z"/><path d="M32.396,35.931l3.007,-0l0,3.007l1.915,1.915l-1.915,1.915l0,2.709l-2.708,-0l-2.127,2.126l-2.127,-2.126l-3.007,-0l-0,-3.008l-1.915,-1.915l1.915,-1.915l-0,-2.708l2.708,-0l2.127,-2.127l2.127,2.127Zm0.827,8.163l-1.383,-0l-1.907,1.906l0.635,0.635l1.843,-1.843l0.812,0l0,-0.698Zm-5.389,-0.145l0,0.001l-1.716,0l0,0.842l2.607,0l0.724,0.724l0.565,-0.564l-1.003,-1.003l-1.177,-0Zm6.074,-1.769l-0,2.612l0.811,0l-0,-2.307l0.73,-0.731l-0.557,-0.557l-0.984,0.983Zm-4.44,-4.058l-1.638,0l0,1.368l-1.184,1.184l1.166,1.122l-0,1.468l1.482,0l1.204,1.204l1.058,-1.059l1.667,0l0,-1.512l1.185,-1.184l-1.039,-1.039l-0,-1.493l-1.668,-0l-1.145,-1.146l-1.088,1.087Zm-4.467,1.918l-0.514,0.514l1.631,1.631l0,1.081l1.009,-0l0,-1.179l-2.126,-2.047Zm9.052,-0.65l1.88,1.88l0.417,-0.417l-1.631,-1.631l-0,-1.041l-0.666,-0l0,1.209Zm-6.907,-2.775l-1.028,0l0,2.307l-0.633,0.634l0.668,0.643l0.993,-0.993l-0,-2.591Zm4.398,-0.568l-0.504,0.504l0.945,0.945l2.734,-0l-0,-0.881l-2.607,0l-0.568,-0.568Zm-0.484,-0.484l-0.791,-0.791l-1.843,1.843l-0.596,0l0,0.823l1.355,-0l1.875,-1.875Z"/><path d="M66,41.25c-0.667,0 -1.367,0.667 -2.1,2c-0.667,1.2 -1,2.167 -1,2.9c-0,0.933 0.483,1.517 1.45,1.75c0.867,0.133 1.733,0.267 2.6,0.4c-1.033,1.467 -2.1,2.533 -3.2,3.2c-1.267,0.767 -2.75,1.15 -4.45,1.15c-0.933,-0 -2.267,-0.083 -4,-0.25c1.633,1.533 3.517,2.3 5.65,2.3c1.867,-0 3.467,-0.717 4.8,-2.15c0.9,-1.033 1.783,-2.55 2.65,-4.55l2.8,0l0,-0.1l1.65,-0c0.333,-0 0.65,-0.167 0.95,-0.5c0.233,-0.3 0.467,-0.583 0.7,-0.85c1.533,1.433 2.983,2.15 4.35,2.15c0.567,-0 0.95,-0.183 1.15,-0.55c0.3,-0.5 0.517,-0.783 0.65,-0.85c0.767,0.4 1.3,0.6 1.6,0.6l1.4,-0l-0,0.1l1.95,0c0.633,0 1.217,-0.383 1.75,-1.15c0.833,-1.233 1.267,-1.867 1.3,-1.9c0.367,0.667 0.733,1.317 1.1,1.95c0.5,0.733 1.117,1.1 1.85,1.1l3.85,-0c1.1,-0 2.117,-0.267 3.05,-0.8c0.867,-0.6 1.75,-1.2 2.65,-1.8c1.033,1 1.667,1.583 1.9,1.75c0.767,0.567 1.583,0.85 2.45,0.85l2.45,-0c1.855,-0.073 3.205,-0.456 4.05,-1.15c1.033,-0.833 1.55,-2.267 1.55,-4.3c-0,-0.533 -0.25,-1.8 -0.75,-3.8c-0.567,1.2 -1.033,2.117 -1.4,2.75c0.533,0.967 0.867,1.667 1,2.1c-0.528,0.621 -2.011,0.938 -4.45,0.95c-0.178,0.002 -0.361,0.002 -0.55,-0c-2.099,-0.05 -3.532,-0.366 -4.3,-0.95c1.4,-1.1 2.1,-2.1 2.1,-3c0,-0.867 -0.517,-1.55 -1.55,-2.05c-0.8,-0.433 -1.7,-0.65 -2.7,-0.65c-0.933,-0 -1.917,0.35 -2.95,1.05c-1.167,0.733 -1.75,1.533 -1.75,2.4c0,0.1 0.433,0.383 1.3,0.85c1,0.5 1.6,0.9 1.8,1.2c-1.167,0.833 -2.933,1.217 -5.3,1.15l-0.65,-0c-1.421,-0.026 -2.455,-0.426 -3.1,-1.2c-0.567,-0.733 -0.85,-1.817 -0.85,-3.25c0,-1.7 -0.1,-3.95 -0.3,-6.75c-0.267,-3.4 -0.433,-5.65 -0.5,-6.75c-1.3,0.967 -1.95,2.017 -1.95,3.15c0,1.333 0.133,3.367 0.4,6.1c0.267,2.733 0.4,4.783 0.4,6.15c0,1.133 -0.367,1.867 -1.1,2.2c-0.332,0.155 -0.849,0.255 -1.55,0.3l0,-0.05c-1.767,-0 -3.083,-0.333 -3.95,-1c-0.333,-0.233 -0.85,-0.85 -1.55,-1.85c-0.467,-0.667 -1.067,-1 -1.8,-1c-0.567,0 -1.35,0.567 -2.35,1.7c-1.067,1.2 -1.883,1.867 -2.45,2c-0.433,0.1 -1.417,0.15 -2.95,0.15l-0,0.25c-0.393,-0.003 -0.793,-0.02 -1.2,-0.05c-0.333,-0.7 -0.667,-1.383 -1,-2.05c-0.533,-0.9 -1.067,-1.35 -1.6,-1.35Zm-1.3,4.3c0,-0.267 -0.067,-0.45 -0.2,-0.55c0.233,-0.4 0.45,-0.767 0.65,-1.1c0.6,0.233 0.967,0.45 1.1,0.65c0.133,0.167 0.267,0.55 0.4,1.15c-0.567,-0 -1.217,-0.05 -1.95,-0.15Zm12.7,-3.45c0.367,0.433 0.667,0.967 0.9,1.6c0.267,0.833 0.4,1.267 0.4,1.3l0,0.6c-0.5,-0.167 -1.033,-0.433 -1.6,-0.8c-0.767,-0.433 -1.15,-0.8 -1.15,-1.1c0,-0.167 0.483,-0.7 1.45,-1.6Z"/><path d="M157.1,41.25c-0.667,0 -1.367,0.667 -2.1,2c-0.667,1.2 -1,2.167 -1,2.9c0,0.933 0.483,1.517 1.45,1.75c0.867,0.133 1.733,0.267 2.6,0.4c-1.033,1.467 -2.1,2.533 -3.2,3.2c-1.267,0.767 -2.75,1.15 -4.45,1.15c-0.933,-0 -2.267,-0.083 -4,-0.25c1.633,1.533 3.517,2.3 5.65,2.3c1.867,-0 3.467,-0.717 4.8,-2.15c0.9,-1.033 1.783,-2.55 2.65,-4.55l4.75,0c0.567,0 1.3,-0.4 2.2,-1.2c0.6,0.267 1.2,0.517 1.8,0.75c0.733,0.3 1.367,0.45 1.9,0.45c1.1,0 2.217,-0.35 3.35,-1.05c0.433,0.2 0.883,0.417 1.35,0.65c0.567,0.267 1.033,0.4 1.4,0.4c0.667,0 1.35,-0.35 2.05,-1.05c0.833,0.7 1.383,1.05 1.65,1.05l5.9,0c1.433,0 2.733,-0.567 3.9,-1.7c1.167,-1.133 1.75,-2.367 1.75,-3.7c-0,-3 -0.85,-5.133 -2.55,-6.4c-0.5,-0.367 -0.833,-0.55 -1,-0.55c-0.8,-0 -1.5,0.583 -2.1,1.75c-0.567,1.033 -0.85,1.967 -0.85,2.8c-0,0.7 0.2,1.283 0.6,1.75c0.4,0.5 0.967,0.75 1.7,0.75c0.733,-0 1.55,-0.317 2.45,-0.95c0.533,0.833 0.8,1.383 0.8,1.65c-0,0.267 -0.467,0.533 -1.4,0.8c-0.8,0.233 -1.417,0.35 -1.85,0.35l-5.6,0c-1.467,-0.033 -2.2,-0.416 -2.2,-1.15c-0,-0.067 0.033,-0.2 0.1,-0.4c0.067,-0.233 0.1,-0.4 0.1,-0.5c0,-0.3 -0.067,-0.65 -0.2,-1.05c-0.367,0.667 -0.733,1.35 -1.1,2.05c-0.533,0.767 -1.167,1.15 -1.9,1.15c-0.933,-0 -1.567,-0.267 -1.9,-0.8c0.233,-0.833 0.35,-1.633 0.35,-2.4c-0.533,0.767 -1.067,1.533 -1.6,2.3c-0.567,0.6 -1.5,0.9 -2.8,0.9c-1.1,-0 -1.883,-0.167 -2.35,-0.5c-0.567,-0.4 -0.85,-1.1 -0.85,-2.1c-0.9,1.1 -1.633,1.8 -2.2,2.1c-0.533,0.267 -1.3,0.4 -2.3,0.4l-2,0l-0,0.15c-0.377,-0.004 -0.76,-0.021 -1.15,-0.05c-0.333,-0.7 -0.667,-1.383 -1,-2.05c-0.533,-0.9 -1.067,-1.35 -1.6,-1.35Zm-1.5,3.75c0.233,-0.4 0.45,-0.767 0.65,-1.1c0.6,0.233 0.967,0.45 1.1,0.65c0.133,0.167 0.267,0.55 0.4,1.15c-0.567,0 -1.217,-0.05 -1.95,-0.15c-0,-0.267 -0.067,-0.45 -0.2,-0.55Zm31,-5.95c0.1,-0.133 0.383,-0.35 0.85,-0.65c0.533,0.367 0.967,0.833 1.3,1.4l-0,0.4c-0.633,0.233 -1.067,0.35 -1.3,0.35c-0.133,0 -0.35,-0.067 -0.65,-0.2l-0.6,-0.3c0.167,-0.533 0.3,-0.867 0.4,-1Z"/><path d="M144.65,35.1c-0.667,0 -1.367,0.65 -2.1,1.95c-0.667,1.2 -1,2.167 -1,2.9c-0,0.6 0.183,1.083 0.55,1.45c0.367,0.367 0.867,0.55 1.5,0.55c0.733,-0 1.45,-0.3 2.15,-0.9c0.233,0.3 0.35,0.7 0.35,1.2c0,0.9 -1.65,1.667 -4.95,2.3c-2.533,0.5 -4.633,0.75 -6.3,0.75c-1.9,0 -3.65,-0.233 -5.25,-0.7c-2.267,-0.667 -3.4,-1.7 -3.4,-3.1c0,-0.267 0.117,-0.733 0.35,-1.4c0.233,-0.667 0.433,-1.117 0.6,-1.35c-0.733,0.167 -1.367,0.767 -1.9,1.8c-0.467,0.9 -0.7,1.75 -0.7,2.55c-0,3.5 2.917,5.25 8.75,5.25c4.033,0 7.133,-0.467 9.3,-1.4c3.1,-1.3 4.65,-3.617 4.65,-6.95c-0,-0.9 -0.217,-1.883 -0.65,-2.95c-0.5,-1.3 -1.15,-1.95 -1.95,-1.95Zm0.5,3.85c-0,0.567 -0.333,0.85 -1,0.85c-0.333,0 -0.6,-0.1 -0.8,-0.3c-0.067,-0.067 -0.233,-0.317 -0.5,-0.75c0.6,-0.6 0.983,-0.9 1.15,-0.9c0.233,0 0.483,0.133 0.75,0.4c0.267,0.233 0.4,0.467 0.4,0.7Z"/><path d="M50.25,36.4l-2.15,-2.05l-2.15,2.05l2.15,2l2.15,-2Z"/><path d="M145.65,31.05l-2.15,-2l-2.15,2l2.15,2l2.15,-2Z"/><path d="M187.8,28.95l-2.2,2.05l2.2,2l2.15,-2l-2.15,-2.05Z"/><path d="M158.85,25.3c0,-0.467 -0.133,-0.883 -0.4,-1.25c-0.333,-0.433 -0.75,-0.65 -1.25,-0.65c-0.633,-0 -1.117,0.267 -1.45,0.8c-0.267,0.467 -0.4,1.017 -0.4,1.65c0,1.033 0.483,1.55 1.45,1.55c0.567,-0 1.05,-0.217 1.45,-0.65c0.4,-0.433 0.6,-0.917 0.6,-1.45Zm-3.05,0.05c0,-0.567 0.267,-0.85 0.8,-0.85c0.233,-0 0.533,0.133 0.9,0.4c0.4,0.267 0.6,0.5 0.6,0.7c0,0.367 -0.35,0.55 -1.05,0.55c-0.833,-0 -1.25,-0.267 -1.25,-0.8Z"/><path d="M101,25.15c0,-0.467 -0.133,-0.883 -0.4,-1.25c-0.333,-0.433 -0.75,-0.65 -1.25,-0.65c-0.633,-0 -1.117,0.267 -1.45,0.8c-0.267,0.467 -0.4,1.017 -0.4,1.65c0,1.033 0.483,1.55 1.45,1.55c0.567,-0 1.05,-0.217 1.45,-0.65c0.4,-0.433 0.6,-0.917 0.6,-1.45Zm-3.05,0.05c0,-0.567 0.267,-0.85 0.8,-0.85c0.233,0 0.533,0.133 0.9,0.4c0.4,0.267 0.6,0.5 0.6,0.7c0,0.367 -0.35,0.55 -1.05,0.55c-0.833,-0 -1.25,-0.267 -1.25,-0.8Z"/><path d="M73.15,25.45c0.333,-0.633 0.5,-1.117 0.5,-1.45c-0,-0.7 -0.367,-1.05 -1.1,-1.05c-0.5,-0 -0.95,0.25 -1.35,0.75c-0.367,0.433 -0.55,0.85 -0.55,1.25c-0,0.367 0.333,0.733 1,1.1c-1.2,0.833 -2.333,1.467 -3.4,1.9c0.367,0.1 0.667,0.15 0.9,0.15c0.9,0 1.967,-0.583 3.2,-1.75c0.5,0.3 0.933,0.517 1.3,0.65l0.1,-1.2c-0.267,-0.167 -0.467,-0.283 -0.6,-0.35Zm-0.5,-0.75c-0,0.133 -0.033,0.267 -0.1,0.4c-0.7,-0.3 -1.05,-0.6 -1.05,-0.9c0.033,-0.133 0.133,-0.2 0.3,-0.2c0.567,0.067 0.85,0.3 0.85,0.7Z"/><path d="M143.126,21.315l-4.15,2.5c-0.709,0.427 -0.938,1.35 -0.511,2.059c0.427,0.709 1.35,0.938 2.059,0.511l4.15,-2.5c0.709,-0.427 0.938,-1.35 0.511,-2.059c-0.427,-0.709 -1.35,-0.938 -2.059,-0.511Z"/><path d="M111.276,20.765l-4.15,2.5c-0.709,0.427 -0.938,1.35 -0.511,2.059c0.427,0.709 1.35,0.938 2.059,0.511l4.15,-2.5c0.709,-0.427 0.938,-1.35 0.511,-2.059c-0.427,-0.709 -1.35,-0.938 -2.059,-0.511Z"/><path d="M88.219,20.769l-4.1,2.5c-0.707,0.431 -0.931,1.355 -0.5,2.062c0.431,0.707 1.355,0.931 2.062,0.5l4.1,-2.5c0.707,-0.431 0.931,-1.355 0.5,-2.062c-0.431,-0.707 -1.355,-0.931 -2.062,-0.5Z"/><path d="M174.069,20.769l-4.1,2.5c-0.707,0.431 -0.931,1.355 -0.5,2.062c0.431,0.707 1.355,0.931 2.062,0.5l4.1,-2.5c0.707,-0.431 0.931,-1.355 0.5,-2.062c-0.431,-0.707 -1.355,-0.931 -2.062,-0.5Z"/><path d="M189.126,20.215l-4.15,2.5c-0.709,0.427 -0.938,1.35 -0.511,2.059c0.427,0.709 1.35,0.938 2.059,0.511l4.15,-2.5c0.709,-0.427 0.938,-1.35 0.511,-2.059c-0.427,-0.709 -1.35,-0.938 -2.059,-0.511Z"/><path d="M48.869,24.369l-4.1,2.5c-0.707,0.431 -0.931,1.355 -0.5,2.062c0.431,0.707 1.355,0.931 2.062,0.5l4.1,-2.5c0.707,-0.431 0.931,-1.355 0.5,-2.062c-0.431,-0.707 -1.355,-0.931 -2.062,-0.5Z" style="fill:#f00;"/></g></svg>