<?xml version="1.0" encoding="UTF-8" standalone="no"?><!DOCTYPE svg PUBLIC "-//W3C//DTD SVG 1.1//EN" "http://www.w3.org/Graphics/SVG/1.1/DTD/svg11.dtd"><svg width="100%" height="100%" viewBox="0 0 382 66" version="1.1" xmlns="http://www.w3.org/2000/svg" xmlns:xlink="http://www.w3.org/1999/xlink" xml:space="preserve" xmlns:serif="http://www.serif.com/" style="fill-rule:evenodd;clip-rule:evenodd;stroke-linejoin:round;stroke-miterlimit:2;"><g><path d="M290.35,38.35c-1.367,0 -2.367,0.75 -3,2.25c-0.5,1.1 -0.75,2.4 -0.75,3.9c-0,1.133 0.283,1.983 0.85,2.55c0.1,0.133 0.867,0.7 2.3,1.7c-0.7,0.867 -1.283,2 -1.75,3.4c-0.467,1.367 -0.7,2.6 -0.7,3.7c-0,2.667 0.783,4.683 2.35,6.05c1.567,1.3 3.767,1.95 6.6,1.95c1.4,0 3.05,-0.35 4.95,-1.05c1.633,-0.6 3.15,-1.317 4.55,-2.15c-0.267,-0 -1.133,0.05 -2.6,0.15c-1.467,0.067 -2.717,0.1 -3.75,0.1c-7.1,-0 -10.65,-1.767 -10.65,-5.3c-0,-1.667 0.533,-3.183 1.6,-4.55c0.767,-1.033 1.983,-2.15 3.65,-3.35c2.7,-1.9 4.083,-2.867 4.15,-2.9l0.15,-1.25l-0,-1.5c-0.3,0.133 -1.317,0.817 -3.05,2.05c-1.567,1.067 -2.5,1.6 -2.8,1.6c-0.767,0 -1.733,-0.317 -2.9,-0.95c-1.3,-0.7 -1.95,-1.367 -1.95,-2c-0,-0.833 0.967,-1.55 2.9,-2.15c1.533,-0.467 2.9,-0.7 4.1,-0.7c-1.2,-1.033 -2.617,-1.55 -4.25,-1.55Z"/><path d="M170.35,43.65c-0.867,1.333 -1.467,2.133 -1.8,2.4c-0.4,0.333 -1.05,0.5 -1.95,0.5l-1.35,-0c-0.223,-0.01 -0.44,-0.027 -0.65,-0.05l-1.85,0c-0.833,0 -1.433,-0.1 -1.8,-0.3c-0.333,-0.233 -0.917,-0.817 -1.75,-1.75l-1.4,2.5c0.733,1.1 1.183,1.817 1.35,2.15c0.367,0.733 0.55,1.5 0.55,2.3c0,1.1 -0.717,1.933 -2.15,2.5c-1.033,0.433 -2.25,0.65 -3.65,0.65c-3.6,-0 -5.4,-1.333 -5.4,-4c0,-0.5 0.25,-1.683 0.75,-3.55c-0.6,0.267 -1.133,1.1 -1.6,2.5c-0.4,1.167 -0.6,2.183 -0.6,3.05c-0,3.5 1.867,5.25 5.6,5.25c2.5,-0 4.533,-0.717 6.1,-2.15c1.567,-1.433 2.35,-3.333 2.35,-5.7l5.45,0c0.733,0 1.317,-0.25 1.75,-0.75c0.067,-0.067 0.417,-0.6 1.05,-1.6c0.333,0.5 0.783,1 1.35,1.5c0.7,0.567 1.3,0.85 1.8,0.85l4.25,0c0.7,0 1.283,-0.25 1.75,-0.75c0.133,-0.167 0.483,-0.7 1.05,-1.6c0.7,1 1.067,1.517 1.1,1.55c0.5,0.533 1.083,0.8 1.75,0.8l2.5,0c1.83,-0.079 3.163,-0.462 4,-1.15c1.033,-0.833 1.55,-2.267 1.55,-4.3c0,-0.533 -0.25,-1.8 -0.75,-3.8c-0.567,1.2 -1.033,2.117 -1.4,2.75c0.533,0.967 0.867,1.667 1,2.1c-0.524,0.617 -1.991,0.934 -4.4,0.95l-1.1,0c-1.205,-0.036 -1.939,-0.119 -2.2,-0.25c-0.7,-0.333 -1.05,-1.25 -1.05,-2.75c-0.567,0.4 -0.95,0.933 -1.15,1.6c-0.167,0.533 -0.45,0.867 -0.85,1c-0.633,0.267 -1.967,0.4 -4,0.4l-0,0.05c-0.679,0.033 -1.146,0.05 -1.4,0.05c-0.967,0 -1.65,-0.183 -2.05,-0.55c-0.467,-0.433 -0.717,-1.233 -0.75,-2.4Z"/><path d="M179.7,57.5l2.2,-2l-2.2,-2.05l-2.15,2.05l2.15,2Z"/><path d="M226.65,57.45l2.2,-2l-2.2,-2l-2.15,2l2.15,2Z"/><path d="M170,55l1.85,1.75l1.95,-1.75l-1.95,-1.75l-1.85,1.75Z"/><path d="M168.1,56.75l1.9,-1.75l-1.9,-1.8l-1.9,1.75l1.9,1.8Z"/><path d="M241.75,47.25c0,-1 -0.217,-1.85 -0.65,-2.55c-0.3,-0.567 -0.9,-1.267 -1.8,-2.1l-0.8,2.9c0.467,0.5 0.917,0.983 1.35,1.45c0.6,0.7 0.9,1.233 0.9,1.6c0,1.833 -1.417,3.417 -4.25,4.75c-2.433,1.133 -4.733,1.7 -6.9,1.7c1.767,1.1 3.517,1.65 5.25,1.65c2,-0 3.7,-1.133 5.1,-3.4c1.2,-1.967 1.8,-3.967 1.8,-6Z"/><path d="M186.05,52.7l-1.9,1.75l1.9,1.8l1.85,-1.75l-1.85,-1.8Z"/><path d="M189.8,52.7l-1.9,1.8l1.9,1.75l1.9,-1.8l-1.9,-1.75Z"/><path d="M308.05,39.75l-0,2.4c1.033,-0 2.117,0.417 3.25,1.25c1.167,0.867 1.75,1.767 1.75,2.7c-0,0.4 -0.65,0.717 -1.95,0.95c-1,0.2 -1.85,0.3 -2.55,0.3c-0.967,0 -1.933,-0.25 -2.9,-0.75c-0.133,1.233 -0.2,1.917 -0.2,2.05c0,0.967 0.333,1.583 1,1.85c0.367,0.133 1.167,0.2 2.4,0.2c1.6,0 2.817,-0.45 3.65,-1.35c0.8,-0.833 1.2,-2.017 1.2,-3.55c0,-1.8 -0.45,-3.4 -1.35,-4.8c-1,-1.533 -2.367,-2.567 -4.1,-3.1c-0.167,0.533 -0.233,1.15 -0.2,1.85Z"/><path d="M219.45,29.05c-0.367,0.3 -0.8,0.767 -1.3,1.4c-0.6,0.733 -0.883,1.25 -0.85,1.55c0.167,1.933 0.333,3.883 0.5,5.85c0.2,2.333 0.3,4.267 0.3,5.8c-0,0.967 -1,1.917 -3,2.85c-1.767,0.767 -3.25,1.15 -4.45,1.15c-4.867,-0 -7.3,-1.133 -7.3,-3.4c-0,-0.967 0.217,-2.067 0.65,-3.3c-0.667,0.3 -1.25,1.083 -1.75,2.35c-0.433,1.1 -0.65,2.067 -0.65,2.9c-0,1.6 0.683,2.783 2.05,3.55c1.133,0.633 2.6,0.95 4.4,0.95c1.767,0 3.65,-0.367 5.65,-1.1c2.233,-0.8 3.817,-1.8 4.75,-3c0.633,1.033 1.083,1.717 1.35,2.05c0.7,0.867 1.383,1.3 2.05,1.3l2.6,0l0,-0.05c1.804,-0.052 3.12,-0.419 3.95,-1.1c1.033,-0.833 1.55,-2.267 1.55,-4.3c0,-0.533 -0.25,-1.8 -0.75,-3.8c-0.567,1.2 -1.033,2.117 -1.4,2.75c0.533,0.967 0.867,1.667 1,2.1c-0.521,0.613 -1.971,0.929 -4.35,0.95l-2.05,-0c-0.833,-0.133 -1.417,-0.45 -1.75,-0.95c-0.8,-1.167 -1.2,-6.667 -1.2,-16.5Z"/><path d="M320.45,28.75c-1.333,1.6 -1.983,2.567 -1.95,2.9l0.45,18.35c1.1,-0.833 1.65,-3.067 1.65,-6.7l-0.15,-14.55Z"/><path d="M327.75,28.75c-1.333,1.6 -1.983,2.567 -1.95,2.9l0.45,18.35c1.1,-0.833 1.65,-3.067 1.65,-6.7l-0.15,-14.55Z"/><path d="M255.4,31.75c0,4.667 0.033,7.65 0.1,8.95c0.167,4.5 0.633,7.217 1.4,8.15c0.633,0.733 1.5,1.1 2.6,1.1l3.55,0c0.7,0 1.283,-0.25 1.75,-0.75c0.133,-0.167 0.483,-0.7 1.05,-1.6c0.7,1 1.067,1.517 1.1,1.55c0.5,0.533 1.083,0.8 1.75,0.8l3.85,0c1.4,0 2.417,-0.717 3.05,-2.15c0.433,-1 0.65,-2.267 0.65,-3.8l-0,-3.2c-0,-0.6 -0.05,-1.483 -0.15,-2.65c-0.133,-1.167 -0.2,-2.033 -0.2,-2.6c0,-0.3 0.167,-0.783 0.5,-1.45c0.333,-0.667 0.5,-1.217 0.5,-1.65c0,-0.167 -0.267,-0.5 -0.8,-1c-0.567,-0.533 -0.85,-1 -0.85,-1.4c-0,-0.133 0.05,-0.333 0.15,-0.6c0.067,-0.267 0.1,-0.467 0.1,-0.6l-0.05,-0.4c-1.1,0.7 -1.967,1.883 -2.6,3.55c0.1,0.467 0.483,1.05 1.15,1.75c0.433,2.5 0.65,6.283 0.65,11.35c0,1 -0.967,1.483 -2.9,1.45l-0.55,-0.05c-1.867,-0 -2.967,-0.083 -3.3,-0.25c-0.7,-0.333 -1.05,-1.25 -1.05,-2.75c-0.567,0.4 -0.95,0.933 -1.15,1.6c-0.167,0.533 -0.45,0.867 -0.85,1c-0.53,0.223 -1.546,0.356 -3.05,0.4c-2.029,-0.08 -3.362,-0.53 -4,-1.35c-0.6,-0.733 -0.9,-2.283 -0.9,-4.65l0,-11.15c-0.367,0.333 -0.733,0.683 -1.1,1.05c-0.267,0.333 -0.4,0.783 -0.4,1.35Z"/><path d="M115.95,31.75c0,4.667 0.033,7.65 0.1,8.95c0.167,4.5 0.633,7.217 1.4,8.15c0.633,0.733 1.5,1.1 2.6,1.1l3.55,0c0.7,0 1.283,-0.25 1.75,-0.75c0.133,-0.167 0.483,-0.7 1.05,-1.6c0.7,1 1.067,1.517 1.1,1.55c0.5,0.533 1.083,0.8 1.75,0.8l3.8,0c1.4,0 2.417,-0.717 3.05,-2.15c0.433,-1 0.65,-2.267 0.65,-3.8l-0,-3.2c-0,-0.6 -0.05,-1.483 -0.15,-2.65c-0.133,-1.167 -0.2,-2.033 -0.2,-2.6c-0,-0.3 0.167,-0.783 0.5,-1.45c0.333,-0.667 0.5,-1.217 0.5,-1.65c-0,-0.167 -0.267,-0.5 -0.8,-1c-0.567,-0.533 -0.85,-1 -0.85,-1.4c-0,-0.133 0.05,-0.333 0.15,-0.6c0.067,-0.267 0.1,-0.467 0.1,-0.6l-0.05,-0.4c-1.1,0.7 -1.967,1.883 -2.6,3.55c0.1,0.467 0.483,1.05 1.15,1.75c0.433,2.5 0.65,6.283 0.65,11.35c-0,1 -0.967,1.483 -2.9,1.45l-0.5,-0.05c-1.867,-0 -2.967,-0.083 -3.3,-0.25c-0.7,-0.333 -1.05,-1.25 -1.05,-2.75c-0.567,0.4 -0.95,0.933 -1.15,1.6c-0.167,0.533 -0.45,0.867 -0.85,1c-0.53,0.223 -1.546,0.356 -3.05,0.4c-2.029,-0.08 -3.362,-0.53 -4,-1.35c-0.6,-0.733 -0.9,-2.283 -0.9,-4.65l0,-11.15c-0.367,0.333 -0.733,0.683 -1.1,1.05c-0.267,0.333 -0.4,0.783 -0.4,1.35Z"/><path d="M347.9,28.85l-0.05,-0.4c-1.1,0.7 -1.967,1.883 -2.6,3.55c0.1,0.467 0.483,1.05 1.15,1.75c0.433,2.5 0.65,6.283 0.65,11.35c0,1 -0.967,1.483 -2.9,1.45l-1.95,-0.05l0,0.15c-0.393,-0.003 -0.793,-0.02 -1.2,-0.05c-0.333,-0.7 -0.667,-1.383 -1,-2.05c-0.533,-0.9 -1.067,-1.35 -1.6,-1.35c-0.667,0 -1.367,0.667 -2.1,2c-0.667,1.2 -1,2.167 -1,2.9c0,0.933 0.483,1.517 1.45,1.75c0.867,0.133 1.733,0.267 2.6,0.4c-1.033,1.467 -2.1,2.533 -3.2,3.2c-1.267,0.767 -2.75,1.15 -4.45,1.15c-0.933,0 -2.267,-0.083 -4,-0.25c1.633,1.533 3.517,2.3 5.65,2.3c1.867,-0 3.467,-0.717 4.8,-2.15c0.9,-1.033 1.783,-2.55 2.65,-4.55l4.15,0c1.4,0 2.417,-0.717 3.05,-2.15c0.433,-1 0.65,-2.267 0.65,-3.8l0,-3.2c0,-0.6 -0.05,-1.483 -0.15,-2.65c-0.133,-1.167 -0.2,-2.033 -0.2,-2.6c0,-0.3 0.167,-0.783 0.5,-1.45c0.333,-0.667 0.5,-1.217 0.5,-1.65c0,-0.167 -0.267,-0.5 -0.8,-1c-0.567,-0.533 -0.85,-1 -0.85,-1.4c0,-0.133 0.05,-0.333 0.15,-0.6c0.067,-0.267 0.1,-0.467 0.1,-0.6Zm-11,18.1c0.233,-0.4 0.45,-0.767 0.65,-1.1c0.6,0.233 0.967,0.45 1.1,0.65c0.133,0.167 0.267,0.55 0.4,1.15c-0.567,-0 -1.217,-0.05 -1.95,-0.15c0,-0.267 -0.067,-0.45 -0.2,-0.55Z"/><path d="M37.8,46.7l1.45,-2.45l-2.15,-2l-1.5,2.55l2.2,1.9Z"/><path d="M24.4,46.7l1.45,-2.45l-2.15,-2l-1.5,2.55l2.2,1.9Z"/><path d="M99.3,40.05c-0.667,-0 -1.367,0.483 -2.1,1.45c-0.667,0.9 -1.317,1.8 -1.95,2.7c-0.767,1.1 -1.467,1.767 -2.1,2c-0.367,0.133 -1.45,0.2 -3.25,0.2l-0,0.05c-1.583,-0.159 -2.649,-0.592 -3.2,-1.3c-0.6,-0.733 -0.9,-2.283 -0.9,-4.65l-0,-11.15c-0.367,0.333 -0.733,0.683 -1.1,1.05c-0.267,0.333 -0.4,0.783 -0.4,1.35c-0,4.667 0.033,7.65 0.1,8.95c0.167,4.5 0.633,7.217 1.4,8.15c0.633,0.733 1.5,1.1 2.6,1.1l2.9,0l-0,-0.1l1.5,0c0.667,0 1.267,-0.317 1.8,-0.95c0.367,-0.6 0.733,-1.2 1.1,-1.8c1.1,0.667 1.7,1.033 1.8,1.1c0.767,0.4 1.45,0.6 2.05,0.6c0.933,-0 1.633,-0.433 2.1,-1.3c0.4,-0.667 0.6,-1.483 0.6,-2.45c0,-0.767 -0.3,-1.75 -0.9,-2.95c-0.667,-1.367 -1.35,-2.05 -2.05,-2.05Zm-2.4,4.45c0.633,-1.1 1.1,-1.65 1.4,-1.65c0.567,0 1.033,0.3 1.4,0.9c0.133,0.2 0.35,0.617 0.65,1.25l0,0.75l-0.65,0.15c-0.367,-0 -1.3,-0.467 -2.8,-1.4Z"/><path d="M67.75,40c-1.3,-1.2 -2.733,-2.317 -4.3,-3.35c-0.233,-0 -0.567,0.467 -1,1.4c-0.4,0.867 -0.6,1.467 -0.6,1.8c0,0.133 0.067,0.267 0.2,0.4c0.167,0.167 0.267,0.3 0.3,0.4c-0.4,0.367 -0.767,0.917 -1.1,1.65c-0.367,0.767 -0.55,1.4 -0.55,1.9c0,0.2 0.067,0.483 0.2,0.85c0.1,0.367 0.15,0.65 0.15,0.85c-0,0.359 -0.783,0.559 -2.35,0.6l-1.65,0c-1.6,0 -3.017,0.433 -4.25,1.3c-1.367,0.967 -2.05,2.183 -2.05,3.65c-0,0.667 0.367,1.15 1.1,1.45c0.433,0.2 1.183,0.367 2.25,0.5c1.033,0.133 1.683,0.3 1.95,0.5c-0.3,0.567 -1.583,1.1 -3.85,1.6c-1.867,0.367 -3.367,0.55 -4.5,0.55c-1.933,-0 -3.417,-0.183 -4.45,-0.55c-1.567,-0.567 -2.35,-1.6 -2.35,-3.1c-0,-0.633 0.25,-1.45 0.75,-2.45c0.567,-1.2 0.917,-2.017 1.05,-2.45c-0.867,0.533 -1.7,1.467 -2.5,2.8c-0.833,1.333 -1.25,2.467 -1.25,3.4c0,1.8 0.867,3.15 2.6,4.05c1.367,0.7 3.083,1.05 5.15,1.05c4.733,-0 8.217,-1.333 10.45,-4c0.7,-0.833 1.05,-1.467 1.05,-1.9c0,-0.767 -0.783,-1.3 -2.35,-1.6c-1.1,-0.167 -2.183,-0.317 -3.25,-0.45c0.379,-0.525 2.229,-0.825 5.55,-0.9l1.95,0c0.967,0 2.167,-0.717 3.6,-2.15c1.867,0.4 3.217,0.6 4.05,0.6c1.333,0 2.183,-0.417 2.55,-1.25c0.2,-0.433 0.3,-1.417 0.3,-2.95c0,-1.033 -0.95,-2.433 -2.85,-4.2Zm1.7,5.7l-0.3,0.3c-0.267,-0.167 -0.783,-0.3 -1.55,-0.4c-0.567,-0.1 -1.133,-0.183 -1.7,-0.25c0.333,-0.767 0.5,-1.367 0.5,-1.8c-0,-0.4 -0.117,-0.817 -0.35,-1.25c0.567,0.267 1.233,0.767 2,1.5c0.8,0.767 1.267,1.4 1.4,1.9Zm-5.75,-1.1c-0.4,0 -1.017,-0.2 -1.85,-0.6c0.133,-0.433 0.367,-0.85 0.7,-1.25c0.6,-0.667 0.917,-1.017 0.95,-1.05c0.4,0.167 0.783,0.433 1.15,0.8c0.4,0.4 0.6,0.8 0.6,1.2c-0,0.233 -0.2,0.45 -0.6,0.65c-0.333,0.167 -0.65,0.25 -0.95,0.25Z"/><path d="M213.4,37.3c0,-0.233 -0.1,-0.467 -0.3,-0.7c-0.2,-0.2 -0.417,-0.3 -0.65,-0.3c-0.467,-0 -1.167,0.683 -2.1,2.05c-0.867,1.3 -1.3,2.183 -1.3,2.65c-0,0.5 0.4,0.75 1.2,0.75c1,0 1.683,0.167 2.05,0.5c-0.8,0.733 -1.617,1.1 -2.45,1.1c-0.433,0 -0.917,-0.067 -1.45,-0.2c0.333,0.433 0.6,0.717 0.8,0.85c0.267,0.133 0.667,0.2 1.2,0.2c0.867,0 1.55,-0.183 2.05,-0.55c0.533,-0.433 0.8,-1.033 0.8,-1.8c-0,-0.767 -0.5,-1.25 -1.5,-1.45c-1,-0.167 -1.5,-0.317 -1.5,-0.45c-0,-0.267 0.183,-0.583 0.55,-0.95c0.367,-0.333 0.683,-0.5 0.95,-0.5c0.233,0 0.467,0.083 0.7,0.25c0.633,-0.3 0.95,-0.783 0.95,-1.45Z"/><path d="M156.2,41.65l-2.15,-2.05l-2.2,2.05l2.2,2l2.15,-2Z"/><path d="M353.95,31.75c0,4.667 0.033,7.65 0.1,8.95c0.167,4.5 0.633,7.217 1.4,8.15c0.633,0.733 1.5,1.1 2.6,1.1l5.85,0c1.433,0 2.733,-0.567 3.9,-1.7c1.167,-1.133 1.75,-2.367 1.75,-3.7c-0,-3 -0.85,-5.133 -2.55,-6.4c-0.5,-0.367 -0.833,-0.55 -1,-0.55c-0.8,0 -1.5,0.583 -2.1,1.75c-0.567,1.033 -0.85,1.967 -0.85,2.8c0,0.7 0.2,1.283 0.6,1.75c0.4,0.5 0.967,0.75 1.7,0.75c0.733,-0 1.55,-0.317 2.45,-0.95c0.533,0.833 0.8,1.383 0.8,1.65c-0,0.267 -0.467,0.533 -1.4,0.8c-0.8,0.233 -1.417,0.35 -1.85,0.35l-4.75,0c-2.168,-0.045 -3.585,-0.495 -4.25,-1.35c-0.6,-0.733 -0.9,-2.283 -0.9,-4.65l0,-11.15c-0.367,0.333 -0.733,0.683 -1.1,1.05c-0.267,0.333 -0.4,0.783 -0.4,1.35Zm10.3,10.25c0.167,-0.533 0.3,-0.867 0.4,-1c0.1,-0.133 0.383,-0.35 0.85,-0.65c0.533,0.367 0.967,0.833 1.3,1.4l-0,0.4c-0.633,0.233 -1.067,0.35 -1.3,0.35c-0.133,0 -0.35,-0.067 -0.65,-0.2l-0.6,-0.3Z"/><path d="M128.45,37.9l-2.15,-2.05l-2.15,2.05l2.15,2l2.15,-2Z"/><path d="M265.75,39.9l2.15,-2l-2.15,-2.05l-2.15,2.05l2.15,2Z"/><path d="M362.5,34.35l1.85,1.8l1.9,-1.8l-1.85,-1.75l-1.9,1.75Z"/><path d="M370.05,34.35l-1.9,-1.75l-1.9,1.75l1.9,1.8l1.9,-1.8Z"/><path d="M170.35,32.2c-0.1,0.5 -0.183,0.833 -0.25,1c-0.167,0.4 -0.4,0.6 -0.7,0.6c-0.3,-0 -0.45,-0.367 -0.45,-1.1l-0.2,0.05c-0.167,0.5 -0.25,0.833 -0.25,1c-0,0.267 0.067,0.5 0.2,0.7c0.133,0.267 0.35,0.4 0.65,0.4c0.267,0 0.5,-0.083 0.7,-0.25c0.233,-0.2 0.367,-0.417 0.4,-0.65c0.2,0.167 0.433,0.25 0.7,0.25c0.733,0 1.1,-0.567 1.1,-1.7c0,-0.3 -0.05,-0.617 -0.15,-0.95l-0.25,0.1c0,0.967 -0.233,1.45 -0.7,1.45c-0.233,0 -0.433,-0.317 -0.6,-0.95l-0.2,0.05Z"/><path d="M228.7,31l-0.25,0.1c0,0.967 -0.233,1.45 -0.7,1.45c-0.233,-0 -0.433,-0.317 -0.6,-0.95l-0.2,0.05c-0.1,0.5 -0.183,0.833 -0.25,1c-0.167,0.4 -0.4,0.6 -0.7,0.6c-0.3,-0 -0.45,-0.367 -0.45,-1.1l-0.2,0.05c-0.167,0.5 -0.25,0.833 -0.25,1c-0,0.267 0.067,0.5 0.2,0.7c0.133,0.267 0.35,0.4 0.65,0.4c0.267,-0 0.5,-0.083 0.7,-0.25c0.233,-0.2 0.367,-0.417 0.4,-0.65c0.2,0.167 0.433,0.25 0.7,0.25c0.733,-0 1.1,-0.567 1.1,-1.7c-0,-0.3 -0.05,-0.617 -0.15,-0.95Z"/><path d="M154.55,27.05c-0.633,-0 -1.117,0.267 -1.45,0.8c-0.267,0.467 -0.4,1.017 -0.4,1.65c0,1.033 0.483,1.55 1.45,1.55c0.567,-0 1.05,-0.217 1.45,-0.65c0.4,-0.433 0.6,-0.917 0.6,-1.45c0,-0.467 -0.133,-0.883 -0.4,-1.25c-0.333,-0.433 -0.75,-0.65 -1.25,-0.65Zm-1.4,1.95c0,-0.567 0.267,-0.85 0.8,-0.85c0.233,-0 0.533,0.133 0.9,0.4c0.4,0.267 0.6,0.5 0.6,0.7c0,0.367 -0.35,0.55 -1.05,0.55c-0.833,-0 -1.25,-0.267 -1.25,-0.8Z"/><path d="M190.75,28.45c0,-0.7 -0.367,-1.05 -1.1,-1.05c-0.5,-0 -0.95,0.25 -1.35,0.75c-0.367,0.433 -0.55,0.85 -0.55,1.25c0,0.367 0.333,0.733 1,1.1c-1.2,0.833 -2.333,1.467 -3.4,1.9c0.367,0.1 0.667,0.15 0.9,0.15c0.9,-0 1.967,-0.583 3.2,-1.75c0.5,0.3 0.933,0.517 1.3,0.65l0.1,-1.2c-0.267,-0.167 -0.467,-0.283 -0.6,-0.35c0.333,-0.633 0.5,-1.117 0.5,-1.45Zm-1.85,0c0.567,0.067 0.85,0.3 0.85,0.7c0,0.133 -0.033,0.267 -0.1,0.4c-0.7,-0.3 -1.05,-0.6 -1.05,-0.9c0.033,-0.133 0.133,-0.2 0.3,-0.2Z"/><path d="M307.65,27.3c-0.267,0.467 -0.4,1.017 -0.4,1.65c-0,1.033 0.483,1.55 1.45,1.55c0.567,0 1.05,-0.217 1.45,-0.65c0.4,-0.433 0.6,-0.917 0.6,-1.45c-0,-0.467 -0.133,-0.883 -0.4,-1.25c-0.333,-0.433 -0.75,-0.65 -1.25,-0.65c-0.633,-0 -1.117,0.267 -1.45,0.8Zm1.3,1.95c-0.833,-0 -1.25,-0.267 -1.25,-0.8c-0,-0.567 0.267,-0.85 0.8,-0.85c0.233,0 0.533,0.133 0.9,0.4c0.4,0.267 0.6,0.5 0.6,0.7c-0,0.367 -0.35,0.55 -1.05,0.55Z"/><path d="M290.5,25.7c-0.5,0 -0.95,0.25 -1.35,0.75c-0.367,0.433 -0.55,0.85 -0.55,1.25c-0,0.367 0.333,0.733 1,1.1c-1.2,0.833 -2.333,1.467 -3.4,1.9c0.367,0.1 0.667,0.15 0.9,0.15c0.9,0 1.967,-0.583 3.2,-1.75c0.5,0.3 0.933,0.517 1.3,0.65l0.1,-1.2c-0.267,-0.167 -0.467,-0.283 -0.6,-0.35c0.333,-0.633 0.5,-1.117 0.5,-1.45c-0,-0.7 -0.367,-1.05 -1.1,-1.05Zm-1.05,1.25c0.033,-0.133 0.133,-0.2 0.3,-0.2c0.567,0.067 0.85,0.3 0.85,0.7c-0,0.133 -0.033,0.267 -0.1,0.4c-0.7,-0.3 -1.05,-0.6 -1.05,-0.9Z"/><path d="M341.85,22.4c-0.5,-0 -0.95,0.25 -1.35,0.75c-0.367,0.433 -0.55,0.85 -0.55,1.25c0,0.367 0.333,0.733 1,1.1c-1.2,0.833 -2.333,1.467 -3.4,1.9c0.367,0.1 0.667,0.15 0.9,0.15c0.9,-0 1.967,-0.583 3.2,-1.75c0.5,0.3 0.933,0.517 1.3,0.65l0.1,-1.2c-0.267,-0.167 -0.467,-0.283 -0.6,-0.35c0.333,-0.633 0.5,-1.117 0.5,-1.45c0,-0.7 -0.367,-1.05 -1.1,-1.05Zm-1.05,1.25c0.033,-0.133 0.133,-0.2 0.3,-0.2c0.567,0.067 0.85,0.3 0.85,0.7c0,0.133 -0.033,0.267 -0.1,0.4c-0.7,-0.3 -1.05,-0.6 -1.05,-0.9Z"/><path d="M51.25,21.8c0.033,-0.1 0.083,-0.267 0.15,-0.5c-0.333,-0.133 -0.5,-0.333 -0.5,-0.6c-0,-0.1 0.017,-0.217 0.05,-0.35c-0.467,0.433 -0.7,0.767 -0.7,1c0,0.067 0.05,0.167 0.15,0.3c0.1,0.133 0.15,0.217 0.15,0.25l-0,3.35c-0,0.067 -0.117,0.217 -0.35,0.45c-0.267,0.233 -0.433,0.35 -0.5,0.35l-1.75,-0.15c0.3,0.433 0.65,0.717 1.05,0.85c0.333,0.133 0.8,0.2 1.4,0.2c0.8,0 1.6,-0.167 2.4,-0.5c0.967,-0.433 1.45,-1 1.45,-1.7c0,-0.233 -0.1,-0.433 -0.3,-0.6c-0.233,-0.167 -0.467,-0.25 -0.7,-0.25c-0.267,-0 -0.667,0.15 -1.2,0.45c-0.367,0.233 -0.717,0.467 -1.05,0.7l-0.05,-2.85c0.1,-0.067 0.2,-0.2 0.3,-0.4Zm1.85,3.1c0.233,0.1 0.35,0.217 0.35,0.35c0,0.2 -0.367,0.383 -1.1,0.55c-0.6,0.133 -1.05,0.2 -1.35,0.2c-0.067,-0 -0.217,-0.017 -0.45,-0.05c0.767,-0.767 1.417,-1.15 1.95,-1.15c0.2,-0 0.4,0.033 0.6,0.1Z" style="fill:#f00;"/><path d="M171.776,57.265l-4.15,2.5c-0.709,0.427 -0.938,1.35 -0.511,2.059c0.427,0.709 1.35,0.938 2.059,0.511l4.15,-2.5c0.709,-0.427 0.938,-1.35 0.511,-2.059c-0.427,-0.709 -1.35,-0.938 -2.059,-0.511Z"/><path d="M66.626,53.365l-4.15,2.5c-0.709,0.427 -0.938,1.35 -0.511,2.059c0.427,0.709 1.35,0.938 2.059,0.511l4.15,-2.5c0.709,-0.427 0.938,-1.35 0.511,-2.059c-0.427,-0.709 -1.35,-0.938 -2.059,-0.511Z"/><path d="M239.569,26.719l-4.1,2.5c-0.707,0.431 -0.931,1.355 -0.5,2.062c0.431,0.707 1.355,0.931 2.062,0.5l4.1,-2.5c0.707,-0.431 0.931,-1.355 0.5,-2.062c-0.431,-0.707 -1.355,-0.931 -2.062,-0.5Z"/><path d="M181.169,26.719l-4.1,2.5c-0.707,0.431 -0.931,1.355 -0.5,2.062c0.431,0.707 1.355,0.931 2.062,0.5l4.1,-2.5c0.707,-0.431 0.931,-1.355 0.5,-2.062c-0.431,-0.707 -1.355,-0.931 -2.062,-0.5Z"/><path d="M212.476,25.065l-4.15,2.5c-0.709,0.427 -0.938,1.35 -0.511,2.059c0.427,0.709 1.35,0.938 2.059,0.511l4.15,-2.5c0.709,-0.427 0.938,-1.35 0.511,-2.059c-0.427,-0.709 -1.35,-0.938 -2.059,-0.511Z"/><path d="M227.769,23.969l-4.1,2.5c-0.707,0.431 -0.931,1.355 -0.5,2.062c0.431,0.707 1.355,0.931 2.062,0.5l4.1,-2.5c0.707,-0.431 0.931,-1.355 0.5,-2.062c-0.431,-0.707 -1.355,-0.931 -2.062,-0.5Z"/><path d="M92.431,23.412l-4.1,2.45c-0.711,0.425 -0.943,1.347 -0.519,2.057c0.425,0.711 1.347,0.943 2.057,0.519l4.1,-2.45c0.711,-0.425 0.943,-1.347 0.519,-2.057c-0.425,-0.711 -1.347,-0.943 -2.057,-0.519Z"/><path d="M123.126,22.815l-4.15,2.5c-0.709,0.427 -0.938,1.35 -0.511,2.059c0.427,0.709 1.35,0.938 2.059,0.511l4.15,-2.5c0.709,-0.427 0.938,-1.35 0.511,-2.059c-0.427,-0.709 -1.35,-0.938 -2.059,-0.511Z"/><path d="M361.126,22.815l-4.15,2.5c-0.709,0.427 -0.938,1.35 -0.511,2.059c0.427,0.709 1.35,0.938 2.059,0.511l4.15,-2.5c0.709,-0.427 0.938,-1.35 0.511,-2.059c-0.427,-0.709 -1.35,-0.938 -2.059,-0.511Z"/><path d="M262.519,22.819l-4.1,2.5c-0.707,0.431 -0.931,1.355 -0.5,2.062c0.431,0.707 1.355,0.931 2.062,0.5l4.1,-2.5c0.707,-0.431 0.931,-1.355 0.5,-2.062c-0.431,-0.707 -1.355,-0.931 -2.062,-0.5Z"/><path d="M275.664,22.602l0.336,-0.252l1.8,2.4l-0.4,0.3c-0.043,0.032 -0.087,0.062 -0.133,0.089l-3.7,2.2c-0.712,0.423 -1.633,0.189 -2.056,-0.522c-0.423,-0.712 -0.189,-1.633 0.522,-2.056l3.631,-2.159Z"/><path d="M136.319,22.269l-4.1,2.5c-0.707,0.431 -0.931,1.355 -0.5,2.062c0.431,0.707 1.355,0.931 2.062,0.5l4.1,-2.5c0.707,-0.431 0.931,-1.355 0.5,-2.062c-0.431,-0.707 -1.355,-0.931 -2.062,-0.5Z"/><path d="M55.026,30.515l-4.15,2.5c-0.709,0.427 -0.938,1.35 -0.511,2.059c0.427,0.709 1.35,0.938 2.059,0.511l4.15,-2.5c0.709,-0.427 0.938,-1.35 0.511,-2.059c-0.427,-0.709 -1.35,-0.938 -2.059,-0.511Z" style="fill:#f00;"/><path d="M6.713,42.162l0.003,-1.178l1.351,-1.351l1.351,1.352l-0.003,1.163l0.812,-0.808l1.911,-0l-0,1.911l-0.805,0.8l1.196,0.003l1.351,1.351l-1.351,1.351l-1.225,-0.003l0.864,0.867l-0,1.911l-1.912,-0l-0.842,-0.847l0.004,1.132l-1.351,1.352l-1.351,-1.351l-0.003,-1.147l-0.82,0.825l-1.911,0l-0,-1.91l0.829,-0.833l-1.254,0.004l-1.351,-1.351l1.351,-1.351l1.225,-0.003l-0.869,-0.864l-0,-1.911l1.91,-0l0.89,0.886Zm0.564,5.94l0.004,1.48l0.786,0.787l0.785,-0.786l-0.005,-1.469l-0.792,-0.796l-0.778,0.784Zm2.134,-0.222l1.08,1.086l1.112,-0l-0,-1.112l-1.099,-1.103l-1.097,-0.003l0.004,1.132Zm-3.8,-1.13l-1.064,1.068l0,1.112l1.111,0l1.053,-1.061l-0.002,-1.123l-1.098,0.004Zm3.235,-3.238l-0.557,0.556l-0.226,0.234l-0.787,-0.783l-0.002,0.765l0.007,0.326l-1.132,0.003l0.398,0.395l0.012,-0.013l0.202,0.227l-0.396,0.374l0.383,0.011l-0.573,0.576l0.532,-0.002l0,-0.018l0.303,0.018l-0.015,0.544l0.278,-0.263l0.002,0.839l0.775,-0.781l0.206,0.204l-0,-0.006l0.588,0.592l-0.004,-1.123l0.289,-0.001l-0.004,-0.004l0.815,0.002l-0.774,-0.777l0.4,-0.399l0.002,0.002l0.398,-0.396l-1.124,-0.003l0.001,-0.565l0.002,0l0.001,-0.534Zm1.12,1.898l0.773,0.776l1.556,0.004l0.786,-0.785l-0.786,-0.787l-1.529,-0.003l-0.8,0.795Zm-4.617,-0.795l-1.558,0.003l-0.786,0.787l0.786,0.785l1.584,-0.005l0.773,-0.776l-0.799,-0.794Zm5.184,-0.565l1.04,-1.034l-0,-1.111l-1.112,-0l-1.048,1.043l-0.003,1.099l1.123,0.003Zm-3.821,-1.092l-1.122,-1.117l-1.112,0l-0,1.111l1.103,1.097l1.129,-0.003l0.002,-1.088Zm2.136,-0.245l0.005,-1.495l-0.786,-0.785l-0.786,0.786l-0.004,1.504l0.781,0.777l0.79,-0.787Z"/></g></svg>