<?xml version="1.0" encoding="UTF-8" standalone="no"?><!DOCTYPE svg PUBLIC "-//W3C//DTD SVG 1.1//EN" "http://www.w3.org/Graphics/SVG/1.1/DTD/svg11.dtd"><svg width="100%" height="100%" viewBox="0 0 287 75" version="1.1" xmlns="http://www.w3.org/2000/svg" xmlns:xlink="http://www.w3.org/1999/xlink" xml:space="preserve" xmlns:serif="http://www.serif.com/" style="fill-rule:evenodd;clip-rule:evenodd;stroke-linejoin:round;stroke-miterlimit:2;"><g><path d="M157.85,42.3c-0.267,0.667 -0.533,1.317 -0.8,1.95c-0.233,0.567 -0.55,0.95 -0.95,1.15c-0.433,0.267 -1.117,0.4 -2.05,0.4c-2.767,-0 -5.133,0.933 -7.1,2.8c-2,1.867 -3,4.083 -3,6.65c0,2.767 1.183,4.7 3.55,5.8c1.7,0.8 4.217,1.2 7.55,1.2c0.733,0 1.717,-0.017 2.95,-0.05c1.267,-0.067 2.133,-0.1 2.6,-0.1l0,0.5c-1.233,0.533 -2.45,1.067 -3.65,1.6c-1.3,0.533 -2.65,0.8 -4.05,0.8c-3.567,0 -6.133,-0.6 -7.7,-1.8c-1.7,-1.3 -2.55,-3.567 -2.55,-6.8c0,-2.2 0.517,-4.233 1.55,-6.1c0.867,-1.567 2.233,-3.217 4.1,-4.95c-0.767,-0.5 -1.45,-0.75 -2.05,-0.75c-1,0 -1.933,0.55 -2.8,1.65l0,-0.6c0,-1.167 0.533,-2.133 1.6,-2.9c0.967,-0.7 2.067,-1.05 3.3,-1.05l9.5,0.6Z"/><path d="M109.3,60.35c1.367,0.7 3.083,1.05 5.15,1.05c4.733,-0 8.217,-1.333 10.45,-4c0.7,-0.833 1.05,-1.467 1.05,-1.9c0,-0.767 -0.783,-1.3 -2.35,-1.6c-1.1,-0.167 -2.183,-0.317 -3.25,-0.45c0.379,-0.525 2.229,-0.825 5.55,-0.9l2.75,-0c1.4,-0 2.417,-0.717 3.05,-2.15c0.433,-1 0.65,-2.267 0.65,-3.8l0,-3.2c0,-0.6 -0.05,-1.483 -0.15,-2.65c-0.133,-1.167 -0.2,-2.033 -0.2,-2.6c-0,-0.3 0.167,-0.783 0.5,-1.45c0.333,-0.667 0.5,-1.217 0.5,-1.65c-0,-0.167 -0.267,-0.5 -0.8,-1c-0.567,-0.533 -0.85,-1 -0.85,-1.4c0,-0.133 0.05,-0.333 0.15,-0.6c0.067,-0.267 0.1,-0.467 0.1,-0.6l-0.05,-0.4c-1.1,0.7 -1.967,1.883 -2.6,3.55c0.1,0.467 0.483,1.05 1.15,1.75c0.433,2.5 0.65,6.283 0.65,11.35c-0,1 -0.967,1.483 -2.9,1.45l-0.45,-0l-0,-0.05l-2.6,0c-1.6,0 -3.017,0.433 -4.25,1.3c-1.367,0.967 -2.05,2.183 -2.05,3.65c-0,0.667 0.367,1.15 1.1,1.45c0.433,0.2 1.183,0.367 2.25,0.5c1.033,0.133 1.683,0.3 1.95,0.5c-0.3,0.567 -1.583,1.1 -3.85,1.6c-1.867,0.367 -3.367,0.55 -4.5,0.55c-1.933,-0 -3.417,-0.183 -4.45,-0.55c-1.567,-0.567 -2.35,-1.6 -2.35,-3.1c-0,-0.633 0.25,-1.45 0.75,-2.45c0.567,-1.2 0.917,-2.017 1.05,-2.45c-0.867,0.533 -1.7,1.467 -2.5,2.8c-0.833,1.333 -1.25,2.467 -1.25,3.4c0,1.8 0.867,3.15 2.6,4.05Z"/><path d="M215.15,58.3l-2.15,-2.05l-2.2,2.05l2.2,2l2.15,-2Z"/><path d="M174.9,48c-0.067,-0.567 -0.133,-1.133 -0.2,-1.7c-0.933,1.467 -1.55,2.283 -1.85,2.45c-0.33,0.193 -1.147,0.31 -2.45,0.35l-0.9,0c-0.485,-0.014 -0.785,-0.031 -0.9,-0.05c-0.567,-0.1 -1.167,-0.467 -1.8,-1.1c-0.167,0.9 -0.383,1.667 -0.65,2.3c-0,0.033 0.283,0.467 0.85,1.3c0.5,0.733 0.75,1.133 0.75,1.2c0,0.833 -0.967,1.883 -2.9,3.15c-1.833,1.233 -3.217,1.85 -4.15,1.85c-0.433,0 -1,-0.083 -1.7,-0.25c-0.533,-0.133 -1.083,-0.267 -1.65,-0.4c0.7,0.8 1.533,1.433 2.5,1.9c1.033,0.567 2.033,0.85 3,0.85c1.333,0 2.667,-0.9 4,-2.7c1.167,-1.567 1.85,-3.033 2.05,-4.4c0.166,-0.111 0.366,-0.177 0.6,-0.2l2.3,-0c0.333,-0 1.017,-0.4 2.05,-1.2c0.6,0.267 1.183,0.533 1.75,0.8c0.7,0.267 1.317,0.4 1.85,0.4c1.267,-0 2.517,-0.567 3.75,-1.7c0.467,0.267 0.95,0.55 1.45,0.85c0.667,0.367 1.15,0.55 1.45,0.55c0.933,0 1.65,-0.833 2.15,-2.5c0.333,-1.167 0.5,-2.367 0.5,-3.6c0,-0.233 -0.133,-0.75 -0.4,-1.55c-0.567,1.033 -0.933,1.767 -1.1,2.2c0.333,0.833 0.5,1.333 0.5,1.5l-0.2,0.55c-0.3,0.133 -0.567,0.2 -0.8,0.2c-1.733,-0 -2.6,-0.533 -2.6,-1.6c-0,-0.167 0.017,-0.433 0.05,-0.8c0.067,-0.4 0.1,-0.667 0.1,-0.8c-0.633,0.833 -1.283,1.65 -1.95,2.45c-0.767,0.8 -1.767,1.2 -3,1.2c-0.9,0 -1.533,-0.133 -1.9,-0.4c-0.3,-0.2 -0.483,-0.567 -0.55,-1.1Z"/><path d="M57.4,47.3c-0.3,-0.567 -0.9,-1.267 -1.8,-2.1l-0.8,2.9c0.467,0.5 0.917,0.983 1.35,1.45c0.6,0.7 0.9,1.233 0.9,1.6c-0,1.833 -1.417,3.417 -4.25,4.75c-2.433,1.133 -4.733,1.7 -6.9,1.7c1.767,1.1 3.517,1.65 5.25,1.65c2,-0 3.7,-1.133 5.1,-3.4c1.2,-1.967 1.8,-3.967 1.8,-6c-0,-1 -0.217,-1.85 -0.65,-2.55Z"/><path d="M235.65,49.55c0.6,0.7 0.9,1.233 0.9,1.6c-0,1.833 -1.417,3.417 -4.25,4.75c-2.433,1.133 -4.733,1.7 -6.9,1.7c1.767,1.1 3.517,1.65 5.25,1.65c2,-0 3.7,-1.133 5.1,-3.4c1.2,-1.967 1.8,-3.967 1.8,-6c-0,-1 -0.217,-1.85 -0.65,-2.55c-0.3,-0.567 -0.9,-1.267 -1.8,-2.1l-0.8,2.9c0.467,0.5 0.917,0.983 1.35,1.45Z"/><path d="M259.45,36c0.1,-0.6 0.183,-1.183 0.25,-1.75c-0.9,-0.133 -1.467,-0.517 -1.7,-1.15c-0.167,-0.333 -0.25,-1.017 -0.25,-2.05c-0.7,0.867 -1.3,2.15 -1.8,3.85c0.5,0.6 0.883,1.033 1.15,1.3c0.067,0.967 0.3,3.5 0.7,7.6c0.3,3.167 0.45,5.7 0.45,7.6c0,0.867 -0.633,1.55 -1.9,2.05c-1.033,0.4 -2.067,0.6 -3.1,0.6c-3,-0 -4.5,-1.2 -4.5,-3.6c0,-0.1 0.133,-1.133 0.4,-3.1c-0.567,0.467 -1.017,1.317 -1.35,2.55c-0.3,1 -0.45,1.95 -0.45,2.85c0,1.733 0.383,2.983 1.15,3.75c0.8,0.833 2.1,1.25 3.9,1.25c4.867,0 7.3,-3.283 7.3,-9.85c0,-3.3 -0.383,-6.783 -1.15,-10.45c0.433,-0.2 0.733,-0.683 0.9,-1.45Z"/><path d="M219.15,49.35c-2.2,0.4 -4.117,0.6 -5.75,0.6c-1.867,0 -3.583,-0.217 -5.15,-0.65c-2.233,-0.667 -3.35,-1.683 -3.35,-3.05c-0,-0.6 0.267,-1.483 0.8,-2.65c-1.6,1.433 -2.4,2.833 -2.4,4.2c-0,3.4 2.85,5.1 8.55,5.1c9.267,-0 13.9,-2.417 13.9,-7.25c-0,-1.8 -0.65,-3.117 -1.95,-3.95c-0.167,0.8 -0.567,1.917 -1.2,3.35c1.1,0.767 1.65,1.583 1.65,2.45c-0.733,0.767 -2.433,1.383 -5.1,1.85Z"/><path d="M193.1,31.35c-1.333,1.6 -1.983,2.567 -1.95,2.9l0.45,18.35c1.1,-0.833 1.65,-3.067 1.65,-6.7l-0.15,-14.55Z"/><path d="M17.673,40.611l3.008,-0l0,3.007l1.915,1.915l-1.915,1.916l0,2.708l-2.708,-0l-2.127,2.127l-2.127,-2.127l-3.007,-0l-0,-3.008l-1.916,-1.915l1.916,-1.915l-0,-2.708l2.708,-0l2.127,-2.127l2.126,2.127Zm0.828,8.163l-1.384,-0l-1.906,1.906l0.635,0.635l1.843,-1.843l0.812,0l0,-0.698Zm-5.389,-0.145l-0,0.001l-1.716,0l0,0.842l2.607,0l0.724,0.724l0.564,-0.564l-1.003,-1.003l-1.176,-0Zm6.074,-1.769l-0,2.612l0.81,0l0,-2.307l0.731,-0.731l-0.558,-0.557l-0.983,0.983Zm-4.44,-4.057l-1.638,-0l-0,1.367l-1.184,1.184l1.166,1.122l-0,1.468l1.482,0l1.204,1.204l1.058,-1.059l1.667,0l0,-1.512l1.184,-1.184l-1.039,-1.039l0,-1.493l-1.667,-0l-1.145,-1.146l-1.088,1.088Zm-4.467,1.917l-0.514,0.514l1.631,1.632l0,1.08l1.009,-0l0,-1.179l-2.126,-2.047Zm9.052,-0.65l1.88,1.88l0.417,-0.417l-1.632,-1.631l0,-1.041l-0.665,-0l-0,1.209Zm-6.908,-2.775l-1.027,0l0,2.308l-0.633,0.633l0.668,0.643l0.992,-0.993l0,-2.591Zm4.399,-0.568l-0.504,0.504l0.945,0.945l2.733,0l0,-0.881l-2.606,0l-0.568,-0.568Zm-0.484,-0.484l-0.791,-0.791l-1.844,1.843l-0.595,0l-0,0.823l1.355,0l1.875,-1.875Z"/><path d="M70.45,37.75c-0.567,1.933 -0.85,2.95 -0.85,3.05l1.3,6.6c-0.5,0.633 -1.367,1.15 -2.6,1.55c-1.067,0.367 -2.083,0.55 -3.05,0.55c-0.967,0 -1.883,-0.4 -2.75,-1.2l-0,3.5c-0,0.667 0.833,1 2.5,1c1.767,-0 3.05,-0.267 3.85,-0.8c0.367,-0.3 1.167,-1.283 2.4,-2.95c0.267,0.733 0.517,1.45 0.75,2.15c0.433,0.9 0.983,1.35 1.65,1.35l2.2,-0l0,-0.05c0.632,-0.016 1.032,-0.066 1.2,-0.15c0.233,-0.133 0.733,-0.717 1.5,-1.75c0.867,1 1.8,1.633 2.8,1.9c0.733,0.233 1.917,0.35 3.55,0.35c2.8,0 5.567,-0.567 8.3,-1.7c3.433,-1.433 5.15,-3.3 5.15,-5.6c0,-0.733 -0.283,-1.4 -0.85,-2c-0.567,-0.633 -1.233,-0.95 -2,-0.95c-1.2,0 -2.683,0.5 -4.45,1.5c-1.133,0.6 -2.7,1.6 -4.7,3c-2.033,1.433 -3.383,2.333 -4.05,2.7c-0.733,-0 -1.433,-0.233 -2.1,-0.7c-0.633,-0.467 -1.067,-1.05 -1.3,-1.75c-0.333,0.667 -0.617,1.117 -0.85,1.35c-0.367,0.333 -0.867,0.483 -1.5,0.45l-0.7,-0.05l-1.35,0c-0.31,-0.004 -0.544,-0.037 -0.7,-0.1c-0.567,-0.267 -1.267,-2.017 -2.1,-5.25c-0.367,-1.567 -0.783,-3.567 -1.25,-6Zm25.5,9.45c0,0.567 -1.05,1.167 -3.15,1.8c-1.867,0.533 -3.25,0.8 -4.15,0.8l-4.2,-0c3.6,-2.733 6.25,-4.1 7.95,-4.1c0.467,0 1.133,0.15 2,0.45c1.033,0.367 1.55,0.717 1.55,1.05Z"/><path d="M265.9,43.1l0,-11.15c-0.367,0.333 -0.733,0.683 -1.1,1.05c-0.267,0.333 -0.4,0.783 -0.4,1.35c0,4.667 0.033,7.65 0.1,8.95c0.167,4.5 0.633,7.217 1.4,8.15c0.633,0.733 1.5,1.1 2.6,1.1l5.85,-0c1.433,-0 2.733,-0.567 3.9,-1.7c1.167,-1.133 1.75,-2.367 1.75,-3.7c0,-3 -0.85,-5.133 -2.55,-6.4c-0.5,-0.367 -0.833,-0.55 -1,-0.55c-0.8,0 -1.5,0.583 -2.1,1.75c-0.567,1.033 -0.85,1.967 -0.85,2.8c0,0.7 0.2,1.283 0.6,1.75c0.4,0.5 0.967,0.75 1.7,0.75c0.733,0 1.55,-0.317 2.45,-0.95c0.533,0.833 0.8,1.383 0.8,1.65c0,0.267 -0.467,0.533 -1.4,0.8c-0.8,0.233 -1.417,0.35 -1.85,0.35l-4.75,0c-2.168,-0.045 -3.585,-0.495 -4.25,-1.35c-0.6,-0.733 -0.9,-2.283 -0.9,-4.65Zm11.35,1.65c-0.633,0.233 -1.067,0.35 -1.3,0.35c-0.133,0 -0.35,-0.067 -0.65,-0.2l-0.6,-0.3c0.167,-0.533 0.3,-0.867 0.4,-1c0.1,-0.133 0.383,-0.35 0.85,-0.65c0.533,0.367 0.967,0.833 1.3,1.4l0,0.4Z"/><path d="M180.65,39.95l1.9,1.75l1.9,-1.8l-1.9,-1.75l-1.9,1.8Z"/><path d="M178.75,38.15l-1.85,1.75l1.85,1.8l1.9,-1.75l-1.9,-1.8Z"/><path d="M215.5,37.05c0,-0.3 -0.05,-0.617 -0.15,-0.95l-0.25,0.1c0,0.967 -0.233,1.45 -0.7,1.45c-0.233,-0 -0.433,-0.317 -0.6,-0.95l-0.2,0.05c-0.1,0.5 -0.183,0.833 -0.25,1c-0.167,0.4 -0.4,0.6 -0.7,0.6c-0.3,0 -0.45,-0.367 -0.45,-1.1l-0.2,0.05c-0.167,0.5 -0.25,0.833 -0.25,1c-0,0.267 0.067,0.5 0.2,0.7c0.133,0.267 0.35,0.4 0.65,0.4c0.267,-0 0.5,-0.083 0.7,-0.25c0.233,-0.2 0.367,-0.417 0.4,-0.65c0.2,0.167 0.433,0.25 0.7,0.25c0.733,0 1.1,-0.567 1.1,-1.7Z"/><path d="M274.85,35.2l-1.9,1.75l1.85,1.8l1.9,-1.8l-1.85,-1.75Z"/><path d="M278.6,35.2l-1.9,1.75l1.9,1.8l1.9,-1.8l-1.9,-1.75Z"/><path d="M182.65,36.25l-1.9,-1.8l-1.85,1.8l1.85,1.8l1.9,-1.8Z"/><path d="M70.05,30.7c-0,-0.467 -0.133,-0.883 -0.4,-1.25c-0.333,-0.433 -0.75,-0.65 -1.25,-0.65c-0.633,-0 -1.117,0.267 -1.45,0.8c-0.267,0.467 -0.4,1.017 -0.4,1.65c-0,1.033 0.483,1.55 1.45,1.55c0.567,-0 1.05,-0.217 1.45,-0.65c0.4,-0.433 0.6,-0.917 0.6,-1.45Zm-3.05,0.05c0,-0.567 0.267,-0.85 0.8,-0.85c0.233,-0 0.533,0.133 0.9,0.4c0.4,0.267 0.6,0.5 0.6,0.7c-0,0.367 -0.35,0.55 -1.05,0.55c-0.833,-0 -1.25,-0.267 -1.25,-0.8Z"/><path d="M152.4,30.15c-0,-0.467 -0.133,-0.883 -0.4,-1.25c-0.333,-0.433 -0.75,-0.65 -1.25,-0.65c-0.633,-0 -1.117,0.267 -1.45,0.8c-0.267,0.467 -0.4,1.017 -0.4,1.65c-0,1.033 0.483,1.55 1.45,1.55c0.567,0 1.05,-0.217 1.45,-0.65c0.4,-0.433 0.6,-0.917 0.6,-1.45Zm-2.25,-0.8c0.233,0 0.533,0.133 0.9,0.4c0.4,0.267 0.6,0.5 0.6,0.7c0,0.367 -0.35,0.55 -1.05,0.55c-0.833,0 -1.25,-0.267 -1.25,-0.8c0,-0.567 0.267,-0.85 0.8,-0.85Z"/><path d="M181,30.25c0.4,-0.433 0.6,-0.917 0.6,-1.45c0,-0.467 -0.133,-0.883 -0.4,-1.25c-0.333,-0.433 -0.75,-0.65 -1.25,-0.65c-0.633,-0 -1.117,0.267 -1.45,0.8c-0.267,0.467 -0.4,1.017 -0.4,1.65c0,1.033 0.483,1.55 1.45,1.55c0.567,-0 1.05,-0.217 1.45,-0.65Zm-0.75,-1.85c0.4,0.267 0.6,0.5 0.6,0.7c0,0.367 -0.35,0.55 -1.05,0.55c-0.833,-0 -1.25,-0.267 -1.25,-0.8c0,-0.567 0.267,-0.85 0.8,-0.85c0.233,0 0.533,0.133 0.9,0.4Z"/><path d="M29.55,57.6c1.067,1.1 2.65,1.65 4.75,1.65c2.2,0 4.567,-0.683 7.1,-2.05c2.833,-1.533 4.25,-3.25 4.25,-5.15c-0,-1 -0.567,-1.667 -1.7,-2c-1.067,-0.167 -2.133,-0.35 -3.2,-0.55c-1.133,-0.2 -1.7,-0.617 -1.7,-1.25c-0,-0.667 0.617,-1.467 1.85,-2.4c1.067,-0.767 2.017,-1.267 2.85,-1.5c0.367,0.133 0.6,0.25 0.7,0.35c0.067,0.067 0.267,0.25 0.6,0.55c0.233,-0.467 0.467,-0.933 0.7,-1.4c0.267,-0.533 0.4,-1.033 0.4,-1.5c-0,-0.233 -0.083,-0.517 -0.25,-0.85l-0.65,-0.35c-1.533,-0 -3.183,1.083 -4.95,3.25c-1.7,2.1 -2.55,3.917 -2.55,5.45c0,0.9 0.367,1.567 1.1,2c0.533,0.333 1.333,0.533 2.4,0.6c0.9,0.033 1.783,0.067 2.65,0.1c-0.5,0.9 -1.833,1.7 -4,2.4c-1.9,0.667 -3.5,1 -4.8,1c-3.667,0 -5.5,-1.517 -5.5,-4.55c0,-0.833 0.267,-2.117 0.8,-3.85c-0.667,0.3 -1.25,1.117 -1.75,2.45c-0.467,1.133 -0.7,2.133 -0.7,3c0,2 0.533,3.533 1.6,4.6Z" style="fill:#f00;"/><path d="M214.426,61.815l-4.15,2.5c-0.709,0.427 -0.938,1.35 -0.511,2.059c0.427,0.709 1.35,0.938 2.059,0.511l4.15,-2.5c0.709,-0.427 0.938,-1.35 0.511,-2.059c-0.427,-0.709 -1.35,-0.938 -2.059,-0.511Z"/><path d="M130.676,56.815l-4.15,2.5c-0.709,0.427 -0.938,1.35 -0.511,2.059c0.427,0.709 1.35,0.938 2.059,0.511l4.15,-2.5c0.709,-0.427 0.938,-1.35 0.511,-2.059c-0.427,-0.709 -1.35,-0.938 -2.059,-0.511Z"/><path d="M235.076,30.065l-4.15,2.5c-0.709,0.427 -0.938,1.35 -0.511,2.059c0.427,0.709 1.35,0.938 2.059,0.511l4.15,-2.5c0.709,-0.427 0.938,-1.35 0.511,-2.059c-0.427,-0.709 -1.35,-0.938 -2.059,-0.511Z"/><path d="M83.626,26.665l-4.15,2.5c-0.709,0.427 -0.938,1.35 -0.511,2.059c0.427,0.709 1.35,0.938 2.059,0.511l4.15,-2.5c0.709,-0.427 0.938,-1.35 0.511,-2.059c-0.427,-0.709 -1.35,-0.938 -2.059,-0.511Z"/><path d="M272.519,26.669l-4.1,2.5c-0.707,0.431 -0.931,1.355 -0.5,2.062c0.431,0.707 1.355,0.931 2.062,0.5l4.1,-2.5c0.707,-0.431 0.931,-1.355 0.5,-2.062c-0.431,-0.707 -1.355,-0.931 -2.062,-0.5Z"/><path d="M166.926,26.415l-4.15,2.5c-0.709,0.427 -0.938,1.35 -0.511,2.059c0.427,0.709 1.35,0.938 2.059,0.511l4.15,-2.5c0.709,-0.427 0.938,-1.35 0.511,-2.059c-0.427,-0.709 -1.35,-0.938 -2.059,-0.511Z"/><path d="M257.319,25.569l-4.1,2.5c-0.707,0.431 -0.931,1.355 -0.5,2.062c0.431,0.707 1.355,0.931 2.062,0.5l4.1,-2.5c0.707,-0.431 0.931,-1.355 0.5,-2.062c-0.431,-0.707 -1.355,-0.931 -2.062,-0.5Z"/><path d="M51.626,62.115l-4.15,2.5c-0.709,0.427 -0.938,1.35 -0.511,2.059c0.427,0.709 1.35,0.938 2.059,0.511l4.15,-2.5c0.709,-0.427 0.938,-1.35 0.511,-2.059c-0.427,-0.709 -1.35,-0.938 -2.059,-0.511Z" style="fill:#f00;"/></g></svg>