<?xml version="1.0" encoding="UTF-8" standalone="no"?><!DOCTYPE svg PUBLIC "-//W3C//DTD SVG 1.1//EN" "http://www.w3.org/Graphics/SVG/1.1/DTD/svg11.dtd"><svg width="100%" height="100%" viewBox="0 0 79 62" version="1.1" xmlns="http://www.w3.org/2000/svg" xmlns:xlink="http://www.w3.org/1999/xlink" xml:space="preserve" xmlns:serif="http://www.serif.com/" style="fill-rule:evenodd;clip-rule:evenodd;stroke-linejoin:round;stroke-miterlimit:2;"><g><path d="M43.05,21.55c-0,0.133 -0.033,0.333 -0.1,0.6c-0.1,0.267 -0.15,0.467 -0.15,0.6c-0,0.4 0.283,0.867 0.85,1.4c0.533,0.5 0.8,0.833 0.8,1c0,0.433 -0.167,0.983 -0.5,1.65c-0.333,0.667 -0.5,1.15 -0.5,1.45c0,0.567 0.067,1.433 0.2,2.6c0.1,1.167 0.15,2.05 0.15,2.65l-0,3.2c-0,1.533 -0.217,2.8 -0.65,3.8c-0.633,1.433 -1.65,2.15 -3.05,2.15l-3.85,-0c-0.667,-0 -1.35,-0.433 -2.05,-1.3c-0.267,-0.333 -0.717,-1.017 -1.35,-2.05c-0.933,1.2 -2.517,2.2 -4.75,3c-2,0.733 -3.883,1.1 -5.65,1.1c-1.8,-0 -3.267,-0.317 -4.4,-0.95c-1.367,-0.767 -2.05,-1.95 -2.05,-3.55c-0,-0.833 0.217,-1.8 0.65,-2.9c0.5,-1.267 1.083,-2.05 1.75,-2.35c-0.433,1.233 -0.65,2.333 -0.65,3.3c-0,2.267 2.433,3.4 7.3,3.4c1.2,0 2.683,-0.383 4.45,-1.15c2,-0.933 3,-1.883 3,-2.85c-0,-1.533 -0.1,-3.467 -0.3,-5.8c-0.167,-1.967 -0.333,-3.917 -0.5,-5.85c-0.033,-0.3 0.25,-0.817 0.85,-1.55c0.5,-0.633 0.933,-1.1 1.3,-1.4c0,9.833 0.4,15.333 1.2,16.5c0.333,0.5 0.917,0.817 1.75,0.95l2.05,-0l0,0.05l0.45,0c1.933,0.033 2.9,-0.45 2.9,-1.45c0,-5.067 -0.217,-8.85 -0.65,-11.35c-0.667,-0.7 -1.05,-1.283 -1.15,-1.75c0.633,-1.667 1.5,-2.85 2.6,-3.55l0.05,0.4Z"/><path d="M75.35,24.05c-3.4,1.5 -5.367,2.367 -5.9,2.6c-2.767,1.3 -4.533,2.317 -5.3,3.05c0.967,0.6 1.95,1.2 2.95,1.8c1.1,0.733 1.933,1.45 2.5,2.15c0.7,0.933 1.05,1.967 1.05,3.1c-0,1.6 -0.517,2.967 -1.55,4.1c-1.1,1.2 -2.483,1.8 -4.15,1.8l-4.9,-0c-0.667,-0 -1.217,-0.45 -1.65,-1.35c-0.233,-0.7 -0.483,-1.417 -0.75,-2.15c-1.233,1.667 -2.033,2.65 -2.4,2.95c-0.8,0.533 -2.083,0.8 -3.85,0.8c-1.667,-0 -2.5,-0.333 -2.5,-1l-0,-3.5c0.867,0.8 1.783,1.2 2.75,1.2c0.967,0 1.983,-0.183 3.05,-0.55c1.233,-0.4 2.1,-0.917 2.6,-1.55l-1.3,-6.6c-0,-0.1 0.283,-1.117 0.85,-3.05c0.467,2.433 0.883,4.433 1.25,6c0.833,3.233 1.533,4.983 2.1,5.25c0.156,0.063 0.39,0.096 0.7,0.1l1.35,-0l-0,0.05l1,-0c3.833,-0 5.75,-0.65 5.75,-1.95c-0,-0.9 -0.55,-1.683 -1.65,-2.35c-1.067,-0.6 -2.117,-1.183 -3.15,-1.75c-1.133,-0.767 -1.7,-1.667 -1.7,-2.7c0,-1.733 1.8,-3.7 5.4,-5.9c3.133,-1.867 5.833,-3.017 8.1,-3.45l-0.65,2.9Z"/><path d="M87.403,30.504l3.008,0l-0,3.008l1.915,1.915l-1.915,1.915l-0,2.708l-2.709,0l-2.127,2.127l-2.126,-2.127l-3.008,0l0,-3.007l-1.915,-1.915l1.915,-1.915l0,-2.709l2.708,0l2.127,-2.126l2.127,2.126Zm0.828,8.164l-1.384,-0l-1.907,1.906l0.635,0.635l1.844,-1.843l0.812,-0l-0,-0.698Zm-5.39,-0.146l0,0.002l-1.715,-0l-0,0.842l2.606,-0l0.724,0.724l0.565,-0.565l-1.003,-1.003l-1.177,0Zm6.074,-1.768l0,2.612l0.811,-0l-0,-2.307l0.73,-0.731l-0.557,-0.558l-0.984,0.984Zm-4.439,-4.058l-1.639,0l0,1.368l-1.183,1.183l1.165,1.123l0,1.468l1.483,-0l1.203,1.203l1.058,-1.058l1.668,-0l-0,-1.513l1.184,-1.184l-1.039,-1.039l-0,-1.493l-1.668,0l-1.145,-1.145l-1.087,1.087Zm-4.468,1.917l-0.514,0.515l1.632,1.631l-0,1.08l1.009,0l-0,-1.178l-2.127,-2.048Zm9.052,-0.649l1.881,1.88l0.416,-0.417l-1.631,-1.631l-0,-1.042l-0.666,0l0,1.21Zm-6.907,-2.775l-1.027,-0l-0,2.307l-0.634,0.633l0.668,0.643l0.993,-0.992l-0,-2.591Zm4.398,-0.568l-0.504,0.504l0.945,0.945l2.734,-0l-0,-0.881l-2.607,-0l-0.568,-0.568Zm-0.484,-0.484l-0.791,-0.791l-1.843,1.843l-0.596,-0l0,0.823l1.355,-0l1.875,-1.875Z"/><path d="M27.8,30c-0,-0.233 -0.1,-0.467 -0.3,-0.7c-0.2,-0.2 -0.417,-0.3 -0.65,-0.3c-0.467,0 -1.167,0.683 -2.1,2.05c-0.867,1.3 -1.3,2.183 -1.3,2.65c0,0.5 0.4,0.75 1.2,0.75c1,-0 1.683,0.167 2.05,0.5c-0.8,0.733 -1.617,1.1 -2.45,1.1c-0.433,0 -0.917,-0.067 -1.45,-0.2c0.333,0.433 0.6,0.717 0.8,0.85c0.267,0.133 0.667,0.2 1.2,0.2c0.867,-0 1.55,-0.183 2.05,-0.55c0.533,-0.433 0.8,-1.033 0.8,-1.8c-0,-0.767 -0.5,-1.25 -1.5,-1.45c-1,-0.167 -1.5,-0.317 -1.5,-0.45c-0,-0.267 0.183,-0.583 0.55,-0.95c0.367,-0.333 0.683,-0.5 0.95,-0.5c0.233,-0 0.467,0.083 0.7,0.25c0.633,-0.3 0.95,-0.783 0.95,-1.45Z"/><path d="M56.5,26.2l2.2,-2l-2.2,-2.05l-2.15,2.05l2.15,2Z"/><path d="M51.2,22c0.733,-0.333 1.1,-0.767 1.1,-1.3c-0,-0.433 -0.167,-1.067 -0.5,-1.9c-0.3,-0.867 -0.45,-1.5 -0.45,-1.9c-0.633,0.4 -0.95,0.767 -0.95,1.1c-0,0.367 0.15,0.933 0.45,1.7c0.3,0.733 0.45,1.283 0.45,1.65c-0,0.267 -0.033,0.483 -0.1,0.65Z"/><path d="M19.7,12c0,0.067 0.05,0.167 0.15,0.3c0.1,0.133 0.15,0.217 0.15,0.25l0,3.35c0,0.067 -0.117,0.217 -0.35,0.45c-0.267,0.233 -0.433,0.35 -0.5,0.35l-1.75,-0.15c0.3,0.433 0.65,0.717 1.05,0.85c0.333,0.133 0.8,0.2 1.4,0.2c0.8,0 1.6,-0.167 2.4,-0.5c0.967,-0.433 1.45,-1 1.45,-1.7c0,-0.233 -0.1,-0.433 -0.3,-0.6c-0.233,-0.167 -0.467,-0.25 -0.7,-0.25c-0.267,0 -0.667,0.15 -1.2,0.45c-0.367,0.233 -0.717,0.467 -1.05,0.7l-0.05,-2.85c0.1,-0.067 0.2,-0.2 0.3,-0.4c0.033,-0.1 0.083,-0.267 0.15,-0.5c-0.333,-0.133 -0.5,-0.333 -0.5,-0.6c0,-0.1 0.017,-0.217 0.05,-0.35c-0.467,0.433 -0.7,0.767 -0.7,1Zm0.75,4.65c-0.067,-0 -0.217,-0.017 -0.45,-0.05c0.767,-0.767 1.417,-1.15 1.95,-1.15c0.2,-0 0.4,0.033 0.6,0.1c0.233,0.1 0.35,0.217 0.35,0.35c-0,0.2 -0.367,0.383 -1.1,0.55c-0.6,0.133 -1.05,0.2 -1.35,0.2Z" style="fill:#f00;"/><path d="M43.419,44.019l-4.1,2.5c-0.707,0.431 -0.931,1.355 -0.5,2.062c0.431,0.707 1.355,0.931 2.062,0.5l4.1,-2.5c0.707,-0.431 0.931,-1.355 0.5,-2.062c-0.431,-0.707 -1.355,-0.931 -2.062,-0.5Z"/><path d="M70.269,16.069l-4.1,2.5c-0.707,0.431 -0.931,1.355 -0.5,2.062c0.431,0.707 1.355,0.931 2.062,0.5l4.1,-2.5c0.707,-0.431 0.931,-1.355 0.5,-2.062c-0.431,-0.707 -1.355,-0.931 -2.062,-0.5Z"/><path d="M29.069,16.069l-4.1,2.5c-0.707,0.431 -0.931,1.355 -0.5,2.062c0.431,0.707 1.355,0.931 2.062,0.5l4.1,-2.5c0.707,-0.431 0.931,-1.355 0.5,-2.062c-0.431,-0.707 -1.355,-0.931 -2.062,-0.5Z" style="fill:#f00;"/></g></svg>