<?xml version="1.0" encoding="UTF-8" standalone="no"?><!DOCTYPE svg PUBLIC "-//W3C//DTD SVG 1.1//EN" "http://www.w3.org/Graphics/SVG/1.1/DTD/svg11.dtd"><svg width="100%" height="100%" viewBox="0 0 324 71" version="1.1" xmlns="http://www.w3.org/2000/svg" xmlns:xlink="http://www.w3.org/1999/xlink" xml:space="preserve" xmlns:serif="http://www.serif.com/" style="fill-rule:evenodd;clip-rule:evenodd;stroke-linejoin:round;stroke-miterlimit:2;"><g><path d="M224.9,46.55l-2.1,2l2.1,2l2.05,-2l-2.05,-2Z"/><path d="M119.65,46.5l-2.1,2l2.1,2l2.1,-2l-2.1,-2Z"/><path d="M92.8,46.5l-2.1,2l2.1,2l2.1,-2l-2.1,-2Z"/><path d="M156.7,49.8l1.8,-1.75l-1.8,-1.75l-1.85,1.75l1.85,1.75Z"/><path d="M145.85,49.8l1.8,-1.75l-1.8,-1.75l-1.85,1.75l1.85,1.75Z"/><path d="M160.3,49.8l1.85,-1.75l-1.85,-1.75l-1.8,1.75l1.8,1.75Z"/><path d="M147.65,48.05l1.8,1.75l1.85,-1.75l-1.85,-1.75l-1.8,1.75Z"/><path d="M31.25,48.05l1.8,1.75l1.85,-1.75l-1.85,-1.75l-1.8,1.75Z"/><path d="M29.45,49.8l1.8,-1.75l-1.8,-1.75l-1.85,1.75l1.85,1.75Z"/><path d="M306.5,35.8l-0.8,2.85c0.467,0.467 0.917,0.95 1.35,1.45c0.567,0.7 0.85,1.217 0.85,1.55c0,1.833 -1.367,3.417 -4.1,4.75c-2.333,1.1 -4.567,1.65 -6.7,1.65c1.7,1.1 3.4,1.65 5.1,1.65c1.933,-0 3.567,-1.117 4.9,-3.35c1.167,-1.967 1.75,-3.95 1.75,-5.95c-0,-1 -0.2,-1.85 -0.6,-2.55c-0.3,-0.533 -0.883,-1.217 -1.75,-2.05Z"/><path d="M295.15,35.8l-0.8,2.85c0.467,0.467 0.917,0.95 1.35,1.45c0.567,0.7 0.85,1.217 0.85,1.55c-0,1.833 -1.367,3.417 -4.1,4.75c-2.333,1.1 -4.567,1.65 -6.7,1.65c1.7,1.1 3.4,1.65 5.1,1.65c1.933,-0 3.567,-1.117 4.9,-3.35c1.167,-1.967 1.75,-3.95 1.75,-5.95c-0,-1 -0.2,-1.85 -0.6,-2.55c-0.3,-0.533 -0.883,-1.217 -1.75,-2.05Z"/><path d="M210.05,38.95c-0,-1.767 -0.45,-3.35 -1.35,-4.75c-0.967,-1.533 -2.283,-2.567 -3.95,-3.1c-0.133,0.533 -0.2,1.15 -0.2,1.85l0.05,2.4c0.967,0 2,0.4 3.1,1.2c1.133,0.867 1.7,1.767 1.7,2.7c0,0.367 -0.633,0.683 -1.9,0.95c-0.967,0.167 -1.783,0.25 -2.45,0.25c-0.933,-0 -1.867,-0.25 -2.8,-0.75c-0.133,1.233 -0.2,1.917 -0.2,2.05c-0,0.967 0.333,1.583 1,1.85c0.333,0.133 1.1,0.2 2.3,0.2c1.533,0 2.717,-0.45 3.55,-1.35c0.767,-0.833 1.15,-2 1.15,-3.5Z"/><path d="M71.8,40c-0.933,0 -1.817,-0.4 -2.65,-1.2l-0,3.5c-0,0.667 0.8,1 2.4,1c1.733,0 2.983,-0.267 3.75,-0.8c0.333,-0.267 1.1,-1.25 2.3,-2.95c0.267,0.733 0.517,1.467 0.75,2.2c0.4,0.867 0.933,1.3 1.6,1.3l2.7,0c0.6,0 1.167,-0.383 1.7,-1.15c0.8,-1.233 1.217,-1.85 1.25,-1.85c0.367,0.633 0.717,1.267 1.05,1.9c0.5,0.733 1.1,1.1 1.8,1.1l1.9,0c1.887,-0.044 3.27,-0.427 4.15,-1.15c1,-0.8 1.5,-2.217 1.5,-4.25c0,-0.533 -0.25,-1.8 -0.75,-3.8c-0.567,1.233 -1.017,2.15 -1.35,2.75c0.533,0.967 0.867,1.667 1,2.1c-0.545,0.641 -2.062,0.958 -4.55,0.95l0,-0.05c-1.467,0 -2.517,-0.4 -3.15,-1.2c-0.533,-0.667 -0.8,-1.733 -0.8,-3.2c-0,-1.667 -0.117,-3.883 -0.35,-6.65c-0.233,-3.367 -0.383,-5.6 -0.45,-6.7c-1.267,0.967 -1.9,2 -1.9,3.1c0,1.333 0.133,3.367 0.4,6.1c0.267,2.7 0.4,4.717 0.4,6.05c-0,1.133 -0.367,1.867 -1.1,2.2c-0.467,0.2 -1.35,0.3 -2.65,0.3c-0.293,-0.004 -0.51,-0.038 -0.65,-0.1c-0.567,-0.233 -1.25,-1.95 -2.05,-5.15c-0.367,-1.567 -0.767,-3.55 -1.2,-5.95c-0.567,1.9 -0.833,2.9 -0.8,3l1.25,6.55c-0.5,0.6 -1.35,1.117 -2.55,1.55c-1.033,0.333 -2.017,0.5 -2.95,0.5Z"/><path d="M183.5,22.05c-1.233,1.6 -1.85,2.55 -1.85,2.85l0.45,18.2c1.033,-0.833 1.55,-3.05 1.55,-6.65l-0.15,-14.4Z"/><path d="M170,33.75c-0.967,-0.567 -1.717,-0.85 -2.25,-0.85c-0.967,-0 -1.75,0.467 -2.35,1.4c-0.367,0.567 -0.733,1.467 -1.1,2.7c0.4,-0.2 0.783,-0.4 1.15,-0.6c0.5,-0.233 0.917,-0.35 1.25,-0.35c0.5,0 1.217,0.233 2.15,0.7c0.033,0.033 0.717,0.417 2.05,1.15c-0.933,0.733 -1.75,1.217 -2.45,1.45c-0.567,0.233 -1.3,0.35 -2.2,0.35c-0.233,-0 -0.7,-0.017 -1.4,-0.05c-0.051,-0.002 -0.101,-0.002 -0.15,-0l0,-0.05l-1.7,0l-0,0.1c-0.7,0.033 -1.183,0.05 -1.45,0.05c-0.933,-0 -1.583,-0.183 -1.95,-0.55c-0.467,-0.433 -0.733,-1.233 -0.8,-2.4c-0.833,1.333 -1.4,2.133 -1.7,2.4c-0.367,0.333 -0.983,0.5 -1.85,0.5c-0.2,-0 -0.65,-0.017 -1.35,-0.05l-0.05,-0l-0,-0.05l-1.85,0l-0,0.1c-0.62,0.033 -1.053,0.05 -1.3,0.05c-0.933,-0 -1.583,-0.183 -1.95,-0.55c-0.467,-0.433 -0.733,-1.233 -0.8,-2.4c-0.833,1.333 -1.4,2.133 -1.7,2.4c-0.367,0.333 -0.983,0.5 -1.85,0.5c-0.2,-0 -0.65,-0.017 -1.35,-0.05c-0.136,-0.007 -0.269,-0.023 -0.4,-0.05c-1.8,0 -2.867,-0.067 -3.2,-0.2c-0.667,-0.333 -1,-1.25 -1,-2.75c-0.533,0.4 -0.9,0.933 -1.1,1.6c-0.133,0.533 -0.4,0.867 -0.8,1c-0.525,0.193 -1.508,0.31 -2.95,0.35c-1.963,-0.077 -3.263,-0.511 -3.9,-1.3c-0.567,-0.733 -0.85,-2.267 -0.85,-4.6l-0,-11.05c-0.367,0.333 -0.717,0.667 -1.05,1c-0.267,0.333 -0.4,0.783 -0.4,1.35c-0,4.633 0.033,7.6 0.1,8.9c0.167,4.433 0.617,7.117 1.35,8.05c0.6,0.733 1.433,1.1 2.5,1.1l3.45,-0c0.667,-0 1.233,-0.25 1.7,-0.75c0.1,-0.133 0.433,-0.667 1,-1.6c0.7,1 1.067,1.517 1.1,1.55c0.467,0.533 1.017,0.8 1.65,0.8l4.05,-0c0.7,-0 1.267,-0.25 1.7,-0.75c0.067,-0.067 0.4,-0.6 1,-1.6c0.333,0.533 0.783,1.033 1.35,1.5c0.667,0.567 1.25,0.85 1.75,0.85l5.05,-0c0.7,-0 1.267,-0.25 1.7,-0.75c0.067,-0.067 0.4,-0.6 1,-1.6c0.333,0.533 0.783,1.033 1.35,1.5c0.667,0.567 1.25,0.85 1.75,0.85l4.6,-0c1,-0 1.95,-0.25 2.85,-0.75c0.333,-0.167 1.05,-0.667 2.15,-1.5c0.8,-0.633 1.517,-1.033 2.15,-1.2c0.5,-0.133 1.133,-0.217 1.9,-0.25c0.667,0 1.333,-0.017 2,-0.05c0.4,-1 0.717,-2.083 0.95,-3.25c-1.6,-0 -3.117,-0.267 -4.55,-0.8c-0.633,-0.267 -1.633,-0.767 -3,-1.5Z"/><path d="M257.5,25.7c0,-0.167 -0.267,-0.5 -0.8,-1c-0.533,-0.533 -0.8,-0.983 -0.8,-1.35c0,-0.133 0.033,-0.333 0.1,-0.6c0.1,-0.267 0.15,-0.483 0.15,-0.65l-0.05,-0.4c-1.067,0.7 -1.917,1.883 -2.55,3.55c0.133,0.467 0.5,1.05 1.1,1.75c0.433,2.5 0.65,6.25 0.65,11.25c0,0.967 -0.933,1.433 -2.8,1.4l-0.75,-0.05c-1.467,0 -2.517,-0.4 -3.15,-1.2c-0.533,-0.667 -0.8,-1.733 -0.8,-3.2c0,-1.667 -0.117,-3.883 -0.35,-6.65c-0.233,-3.367 -0.383,-5.6 -0.45,-6.7c-1.267,0.967 -1.9,2 -1.9,3.1c-0,1.333 0.133,3.367 0.4,6.1c0.267,2.7 0.4,4.717 0.4,6.05c0,1.133 -0.367,1.867 -1.1,2.2c-0.378,0.162 -1.028,0.262 -1.95,0.3c-1.921,-0.067 -3.255,-0.384 -4,-0.95c1.333,-1.033 2,-2.017 2,-2.95c-0,-0.833 -0.483,-1.5 -1.45,-2c-0.8,-0.433 -1.667,-0.65 -2.6,-0.65c-0.9,0 -1.867,0.333 -2.9,1c-1.1,0.767 -1.65,1.567 -1.65,2.4c0,0.1 0.417,0.383 1.25,0.85c0.967,0.5 1.55,0.9 1.75,1.2c-1.133,0.8 -2.833,1.183 -5.1,1.15l-0.3,-0l-0,-0.05c-1.8,0 -2.867,-0.067 -3.2,-0.2c-0.667,-0.333 -1,-1.25 -1,-2.75c-0.533,0.4 -0.9,0.933 -1.1,1.6c-0.133,0.533 -0.4,0.867 -0.8,1c-0.525,0.193 -1.508,0.31 -2.95,0.35c-1.962,-0.077 -3.262,-0.511 -3.9,-1.3c-0.567,-0.733 -0.85,-2.267 -0.85,-4.6l-0,-11.05c-0.367,0.333 -0.717,0.667 -1.05,1c-0.267,0.333 -0.4,0.783 -0.4,1.35c-0,4.633 0.033,7.6 0.1,8.9c0.167,4.433 0.617,7.117 1.35,8.05c0.6,0.733 1.433,1.1 2.5,1.1l3.45,0c0.667,0 1.233,-0.25 1.7,-0.75c0.1,-0.133 0.433,-0.667 1,-1.6c0.7,1 1.067,1.517 1.1,1.55c0.467,0.533 1.017,0.8 1.65,0.8l4.05,0c1.033,0 2,-0.267 2.9,-0.8c0.833,-0.6 1.683,-1.183 2.55,-1.75c1.033,1 1.65,1.567 1.85,1.7c0.733,0.567 1.517,0.85 2.35,0.85l2.9,0c0.6,0 1.167,-0.383 1.7,-1.15c0.8,-1.233 1.217,-1.85 1.25,-1.85c0.367,0.633 0.717,1.267 1.05,1.9c0.5,0.733 1.1,1.1 1.8,1.1l3.4,0c1.367,0 2.35,-0.7 2.95,-2.1c0.467,-1 0.7,-2.267 0.7,-3.8l0,-3.2c0,-0.567 -0.067,-1.433 -0.2,-2.6c-0.133,-1.133 -0.2,-2 -0.2,-2.6c0,-0.267 0.167,-0.733 0.5,-1.4c0.333,-0.667 0.5,-1.217 0.5,-1.65Z"/><path d="M64.8,37.95c-0,-0.967 -0.233,-1.783 -0.7,-2.45c-0.267,-0.433 -0.8,-0.967 -1.6,-1.6c-0.9,-0.7 -1.533,-1.283 -1.9,-1.75c-0.533,1.233 -0.8,2.183 -0.8,2.85c-0,0.1 0.033,0.233 0.1,0.4c0.033,0.167 0.05,0.3 0.05,0.4c-0.933,1.8 -1.4,3.283 -1.4,4.45c-0,1.867 0.783,2.8 2.35,2.8c1.267,0 2.267,-0.567 3,-1.7c0.6,-0.933 0.9,-2.067 0.9,-3.4Zm-3.9,-1.55c1.767,1.267 2.65,2.05 2.65,2.35c-0,0.233 -0.317,0.517 -0.95,0.85c-0.6,0.267 -1.067,0.4 -1.4,0.4c-0.833,0 -1.25,-0.5 -1.25,-1.5c0,-0.8 0.317,-1.5 0.95,-2.1Z"/><path d="M195.4,36.6c-0.467,-1.233 -1.117,-1.85 -1.95,-1.85c-0.7,0 -1.367,0.6 -2,1.8c-0.533,1.067 -0.8,2 -0.8,2.8c0,1.367 0.55,2.05 1.65,2.05c0.867,-0 1.667,-0.467 2.4,-1.4c0.2,0.433 0.3,0.817 0.3,1.15c-0,2 -1.467,3.583 -4.4,4.75c-2.267,0.933 -4.6,1.4 -7,1.4c1.167,0.433 1.967,0.717 2.4,0.85c0.8,0.233 1.633,0.35 2.5,0.35c2.433,0 4.317,-0.967 5.65,-2.9c1.2,-1.667 1.8,-3.733 1.8,-6.2c0,-0.967 -0.183,-1.9 -0.55,-2.8Zm-3.5,2.2c0.267,-0.6 0.533,-1.15 0.8,-1.65c0.8,0.367 1.2,0.817 1.2,1.35c0,0.2 -0.117,0.383 -0.35,0.55c-0.233,0.133 -0.467,0.2 -0.7,0.2c-0.033,0 -0.35,-0.15 -0.95,-0.45Z"/><path d="M47.75,38.2c0,-0.767 -0.283,-1.75 -0.85,-2.95c-0.667,-1.333 -1.333,-2 -2,-2c-0.633,0 -1.317,0.467 -2.05,1.4c-0.6,0.9 -1.217,1.817 -1.85,2.75c-0.767,1.033 -1.433,1.667 -2,1.9c-0.367,0.167 -1.433,0.25 -3.2,0.25l-0,0.15l-0.05,-0c-0.7,0.033 -1.183,0.05 -1.45,0.05c-0.933,0 -1.583,-0.183 -1.95,-0.55c-0.467,-0.433 -0.733,-1.233 -0.8,-2.4c-0.833,1.333 -1.4,2.133 -1.7,2.4c-0.367,0.333 -0.983,0.5 -1.85,0.5c-0.2,-0 -0.65,-0.017 -1.35,-0.05l-0,-0.05l-1.9,0l0,0.1c-0.739,0.033 -1.239,0.05 -1.5,0.05c-0.933,0 -1.6,-0.183 -2,-0.55c-0.467,-0.433 -0.717,-1.233 -0.75,-2.4c-0.833,1.3 -1.417,2.1 -1.75,2.4c-0.4,0.333 -1.017,0.5 -1.85,0.5c-0.2,-0 -0.667,-0.017 -1.4,-0.05c-0.187,-0.008 -0.371,-0.025 -0.55,-0.05c-2.3,0 -3.8,-0.433 -4.5,-1.3c-0.567,-0.733 -0.85,-2.267 -0.85,-4.6l0,-11.05c-0.367,0.333 -0.717,0.667 -1.05,1c-0.267,0.333 -0.4,0.783 -0.4,1.35c-0,4.633 0.033,7.6 0.1,8.9c0.167,4.433 0.617,7.117 1.35,8.05c0.6,0.733 1.433,1.1 2.5,1.1l4.75,-0c0.7,-0 1.267,-0.25 1.7,-0.75c0.067,-0.067 0.4,-0.6 1,-1.6c0.3,0.533 0.733,1.033 1.3,1.5c0.667,0.567 1.25,0.85 1.75,0.85l5.3,-0c0.7,-0 1.267,-0.25 1.7,-0.75c0.067,-0.067 0.4,-0.6 1,-1.6c0.333,0.533 0.783,1.033 1.35,1.5c0.667,0.567 1.25,0.85 1.75,0.85l3.75,-0l0,-0.1l1.2,-0c0.633,-0 1.2,-0.317 1.7,-0.95c0.367,-0.6 0.733,-1.183 1.1,-1.75c1.033,0.667 1.617,1.017 1.75,1.05c0.7,0.4 1.333,0.6 1.9,0.6c0.933,-0 1.633,-0.417 2.1,-1.25c0.367,-0.667 0.55,-1.483 0.55,-2.45Zm-1.85,0.7c-0.4,0.1 -0.617,0.15 -0.65,0.15c-0.333,0 -1.217,-0.467 -2.65,-1.4c0.6,-1.1 1.05,-1.65 1.35,-1.65c0.533,-0 0.983,0.3 1.35,0.9c0.1,0.2 0.3,0.6 0.6,1.2l-0,0.8Z"/><path d="M122.85,37.65c0,-0.533 -0.25,-1.8 -0.75,-3.8c-0.567,1.233 -1.017,2.15 -1.35,2.75c0.533,0.967 0.867,1.667 1,2.1c-0.515,0.606 -1.899,0.923 -4.15,0.95l0,-0.05c-1.933,0 -3.017,-0.05 -3.25,-0.15c-0.767,-0.333 -1.4,-1.733 -1.9,-4.2c-0.4,-1.933 -0.6,-3.567 -0.6,-4.9c-0.8,0.933 -1.183,1.533 -1.15,1.8l0.2,2.3c-1.767,0.9 -3.033,1.717 -3.8,2.45c-1.133,1.1 -1.7,2.417 -1.7,3.95c-0,0.567 0.65,0.85 1.95,0.85c1.233,-0 2.1,-0.117 2.6,-0.35c0.667,-0.267 1.35,-0.867 2.05,-1.8c0.267,0.767 0.55,1.5 0.85,2.2c0.467,0.867 1.067,1.3 1.8,1.3l2.95,0l0,-0.05c1.684,-0.063 2.934,-0.429 3.75,-1.1c1,-0.8 1.5,-2.217 1.5,-4.25Zm-13.7,0.55c-0.367,-0 -0.833,-0.1 -1.4,-0.3c1.2,-0.767 2.3,-1.367 3.3,-1.8c0.2,0.767 0.3,1.217 0.3,1.35c0,0.2 -0.317,0.383 -0.95,0.55c-0.533,0.133 -0.95,0.2 -1.25,0.2Z"/><path d="M283.2,31.35c-0.5,-0.367 -0.833,-0.55 -1,-0.55c-0.767,0 -1.45,0.583 -2.05,1.75c-0.533,1 -0.8,1.933 -0.8,2.8c-0,0.7 0.183,1.267 0.55,1.7c0.4,0.467 0.95,0.7 1.65,0.7c0.733,0 1.517,-0.3 2.35,-0.9c0.533,0.833 0.8,1.383 0.8,1.65c0,0.267 -0.45,0.533 -1.35,0.8c-0.767,0.2 -1.367,0.3 -1.8,0.3l-4.55,0c-2.103,-0.045 -3.486,-0.478 -4.15,-1.3c-0.567,-0.733 -0.85,-2.267 -0.85,-4.6l0,-11.05c-0.367,0.333 -0.717,0.667 -1.05,1c-0.267,0.333 -0.4,0.783 -0.4,1.35c0,4.633 0.033,7.6 0.1,8.9c0.167,4.433 0.617,7.117 1.35,8.05c0.6,0.733 1.433,1.1 2.5,1.1l5.7,0c1.367,0 2.617,-0.567 3.75,-1.7c1.133,-1.1 1.7,-2.317 1.7,-3.65c0,-2.967 -0.817,-5.083 -2.45,-6.35Zm-2.1,4.1l-0.6,-0.25c0.167,-0.533 0.3,-0.867 0.4,-1c0.1,-0.133 0.383,-0.35 0.85,-0.65c0.5,0.333 0.917,0.783 1.25,1.35l0,0.45c-0.633,0.2 -1.05,0.3 -1.25,0.3c-0.167,-0 -0.383,-0.067 -0.65,-0.2Z"/><path d="M139.5,31.1l-2.1,-2.05l-2.1,2.05l2.1,1.95l2.1,-1.95Z"/><path d="M20.5,30.85l-1.8,-1.75l-1.85,1.75l1.85,1.75l1.8,-1.75Z"/><path d="M22.35,29.1l-1.85,1.75l1.8,1.75l1.85,-1.75l-1.8,-1.75Z"/><path d="M296.35,30l-2.1,-2.05l-2.1,2.05l2.1,1.95l2.1,-1.95Z"/><path d="M60.8,28l1.8,1.8l1.85,-1.8l-1.85,-1.75l-1.8,1.75Z"/><path d="M59,29.75l1.8,-1.75l-1.8,-1.75l-1.85,1.75l1.85,1.75Z"/><path d="M286.1,27.6l-1.85,-1.75l-1.8,1.75l1.8,1.75l1.85,-1.75Z"/><path d="M282.45,27.6l-1.8,-1.75l-1.85,1.75l1.85,1.75l1.8,-1.75Z"/><path d="M294.4,21.45c-0.333,-0.433 -0.733,-0.65 -1.2,-0.65c-0.6,0 -1.067,0.267 -1.4,0.8c-0.267,0.467 -0.4,1.017 -0.4,1.65c0,1 0.467,1.5 1.4,1.5c0.567,0 1.05,-0.2 1.45,-0.6c0.367,-0.433 0.55,-0.917 0.55,-1.45c-0,-0.467 -0.133,-0.883 -0.4,-1.25Zm-0.9,0.85c0.4,0.267 0.6,0.5 0.6,0.7c-0,0.333 -0.35,0.5 -1.05,0.5c-0.8,0 -1.2,-0.25 -1.2,-0.75c-0,-0.567 0.267,-0.85 0.8,-0.85c0.233,-0 0.517,0.133 0.85,0.4Z"/><path d="M29.4,19.75c-0.267,0.467 -0.4,1.017 -0.4,1.65c-0,1 0.467,1.5 1.4,1.5c0.567,-0 1.05,-0.2 1.45,-0.6c0.367,-0.433 0.55,-0.917 0.55,-1.45c-0,-0.467 -0.133,-0.883 -0.4,-1.25c-0.333,-0.433 -0.733,-0.65 -1.2,-0.65c-0.6,-0 -1.067,0.267 -1.4,0.8Zm1.7,0.7c0.4,0.267 0.6,0.5 0.6,0.7c0,0.333 -0.35,0.5 -1.05,0.5c-0.8,-0 -1.2,-0.25 -1.2,-0.75c0,-0.567 0.267,-0.85 0.8,-0.85c0.233,0 0.517,0.133 0.85,0.4Z"/><path d="M144.45,18.6c-0.267,0.467 -0.4,1.017 -0.4,1.65c-0,1 0.467,1.5 1.4,1.5c0.567,0 1.05,-0.2 1.45,-0.6c0.367,-0.433 0.55,-0.917 0.55,-1.45c0,-0.467 -0.133,-0.883 -0.4,-1.25c-0.333,-0.433 -0.733,-0.65 -1.2,-0.65c-0.6,0 -1.067,0.267 -1.4,0.8Zm0.85,0.3c0.233,-0 0.517,0.133 0.85,0.4c0.4,0.267 0.6,0.5 0.6,0.7c0,0.333 -0.35,0.5 -1.05,0.5c-0.8,0 -1.2,-0.25 -1.2,-0.75c0,-0.567 0.267,-0.85 0.8,-0.85Z"/><path d="M170.6,19.7c-0,-0.467 -0.133,-0.883 -0.4,-1.25c-0.333,-0.433 -0.733,-0.65 -1.2,-0.65c-0.6,0 -1.067,0.267 -1.4,0.8c-0.267,0.467 -0.4,1.017 -0.4,1.65c0,1 0.467,1.5 1.4,1.5c0.567,0 1.05,-0.2 1.45,-0.6c0.367,-0.433 0.55,-0.917 0.55,-1.45Zm-1.3,-0.4c0.4,0.267 0.6,0.5 0.6,0.7c0,0.333 -0.35,0.5 -1.05,0.5c-0.8,0 -1.2,-0.25 -1.2,-0.75c0,-0.567 0.267,-0.85 0.8,-0.85c0.233,-0 0.517,0.133 0.85,0.4Z"/><path d="M245.65,16.45c-0.6,-0 -1.067,0.267 -1.4,0.8c-0.267,0.467 -0.4,1.017 -0.4,1.65c-0,1 0.467,1.5 1.4,1.5c0.567,-0 1.05,-0.2 1.45,-0.6c0.367,-0.433 0.55,-0.917 0.55,-1.45c0,-0.467 -0.133,-0.883 -0.4,-1.25c-0.333,-0.433 -0.733,-0.65 -1.2,-0.65Zm-0.55,1.1c0.233,0 0.517,0.133 0.85,0.4c0.4,0.267 0.6,0.5 0.6,0.7c-0,0.333 -0.35,0.5 -1.05,0.5c-0.8,-0 -1.2,-0.25 -1.2,-0.75c-0,-0.567 0.267,-0.85 0.8,-0.85Z"/><path d="M83.4,16.95c-0.267,0.467 -0.4,1.017 -0.4,1.65c0,1 0.467,1.5 1.4,1.5c0.567,0 1.05,-0.2 1.45,-0.6c0.367,-0.433 0.55,-0.917 0.55,-1.45c-0,-0.467 -0.133,-0.883 -0.4,-1.25c-0.333,-0.433 -0.733,-0.65 -1.2,-0.65c-0.6,-0 -1.067,0.267 -1.4,0.8Zm0.85,0.3c0.233,0 0.517,0.133 0.85,0.4c0.4,0.267 0.6,0.5 0.6,0.7c0,0.333 -0.35,0.5 -1.05,0.5c-0.8,0 -1.2,-0.25 -1.2,-0.75c0,-0.567 0.267,-0.85 0.8,-0.85Z"/><path d="M205.8,14.6c0.033,-0.067 0.1,-0.233 0.2,-0.5c-0.333,-0.133 -0.5,-0.333 -0.5,-0.6l0,-0.35c-0.3,0.233 -0.5,0.583 -0.6,1.05c0,0.033 0.05,0.117 0.15,0.25c0.067,0.1 0.1,0.183 0.1,0.25c0,0.167 -0.033,0.5 -0.1,1c-0.1,0.567 -0.183,0.883 -0.25,0.95c-0.833,-1.1 -1.283,-1.7 -1.35,-1.8c-0.733,-0.867 -1.283,-1.3 -1.65,-1.3c-0.133,0 -0.233,0.05 -0.3,0.15c-0.067,0.133 -0.1,0.267 -0.1,0.4c0,0.233 0.067,0.45 0.2,0.65c0.2,0.267 0.417,0.4 0.65,0.4c0.1,-0 0.183,-0.033 0.25,-0.1l0.15,-0.1c0.2,0.1 0.533,0.45 1,1.05c0.4,0.467 0.717,0.85 0.95,1.15c-0.1,0.167 -0.25,0.367 -0.45,0.6c-0.233,0.267 -0.417,0.433 -0.55,0.5l-0.4,-0.15l0,0.95c0.267,0.1 0.633,0.15 1.1,0.15c0.4,-0 0.667,-0.05 0.8,-0.15c0.133,-0.133 0.2,-0.4 0.2,-0.8c-0,-0.5 -0.1,-0.9 -0.3,-1.2c0.1,-0.233 0.183,-0.6 0.25,-1.1c0.067,-0.5 0.133,-0.85 0.2,-1.05l0.05,0.1c0.133,-0.067 0.233,-0.2 0.3,-0.4Z" style="fill:#f00;"/><path d="M205,18.05l-0.05,0.15c-0.433,0.033 -0.7,0.05 -0.8,0.05c0.3,-0.267 0.5,-0.517 0.6,-0.75c0,0.033 0.05,0.133 0.15,0.3l0.1,0.25Z" style="fill:#f00;"/><path d="M10.35,15.2c-0.2,-0.167 -0.417,-0.25 -0.65,-0.25c-0.267,-0 -0.633,0.15 -1.1,0.45c-0.367,0.233 -0.717,0.467 -1.05,0.7l-0.05,-2.8c0.1,-0.067 0.2,-0.2 0.3,-0.4c0.033,-0.1 0.083,-0.267 0.15,-0.5c-0.333,-0.133 -0.5,-0.333 -0.5,-0.6c0,-0.1 0.017,-0.217 0.05,-0.35c-0.433,0.433 -0.65,0.767 -0.65,1c0,0.067 0.05,0.167 0.15,0.3c0.067,0.133 0.1,0.217 0.1,0.25l0,3.35c0,0.067 -0.117,0.217 -0.35,0.45c-0.233,0.233 -0.4,0.333 -0.5,0.3l-1.65,-0.15c0.3,0.433 0.633,0.717 1,0.85c0.333,0.133 0.8,0.2 1.4,0.2c0.767,-0 1.533,-0.167 2.3,-0.5c0.933,-0.433 1.4,-1 1.4,-1.7c0,-0.2 -0.117,-0.4 -0.35,-0.6Zm-0.4,1.15c0,0.167 -0.367,0.333 -1.1,0.5c-0.6,0.133 -1.033,0.2 -1.3,0.2c-0.067,0 -0.217,-0.017 -0.45,-0.05c0.767,-0.733 1.4,-1.1 1.9,-1.1c0.167,-0 0.35,0.033 0.55,0.1c0.267,0.1 0.4,0.217 0.4,0.35Z" style="fill:#f00;"/><path d="M121.705,50.778l-4,2.5c-0.702,0.439 -0.916,1.365 -0.477,2.067c0.439,0.702 1.365,0.916 2.067,0.477l4,-2.5c0.702,-0.439 0.916,-1.365 0.477,-2.067c-0.439,-0.702 -1.365,-0.916 -2.067,-0.477Z"/><path d="M306.555,50.778l-4,2.5c-0.702,0.439 -0.916,1.365 -0.477,2.067c0.439,0.702 1.365,0.916 2.067,0.477l4,-2.5c0.702,-0.439 0.916,-1.365 0.477,-2.067c-0.439,-0.702 -1.365,-0.916 -2.067,-0.477Z"/><path d="M238.755,46.628l-4,2.5c-0.702,0.439 -0.916,1.365 -0.477,2.067c0.439,0.702 1.365,0.916 2.067,0.477l4,-2.5c0.702,-0.439 0.916,-1.365 0.477,-2.067c-0.439,-0.702 -1.365,-0.916 -2.067,-0.477Z"/><path d="M110.005,45.528l-4,2.5c-0.702,0.439 -0.916,1.365 -0.477,2.067c0.439,0.702 1.365,0.916 2.067,0.477l4,-2.5c0.702,-0.439 0.916,-1.365 0.477,-2.067c-0.439,-0.702 -1.365,-0.916 -2.067,-0.477Z"/><path d="M256.805,45.528l-4,2.5c-0.702,0.439 -0.916,1.365 -0.477,2.067c0.439,0.702 1.365,0.916 2.067,0.477l4,-2.5c0.702,-0.439 0.916,-1.365 0.477,-2.067c-0.439,-0.702 -1.365,-0.916 -2.067,-0.477Z"/><path d="M207.898,45.533l-3.95,2.5c-0.7,0.442 -0.908,1.37 -0.465,2.069c0.442,0.7 1.37,0.908 2.069,0.465l3.95,-2.5c0.7,-0.442 0.908,-1.37 0.465,-2.069c-0.442,-0.7 -1.37,-0.908 -2.069,-0.465Z"/><path d="M57.91,21.825c-0.19,-0.117 -0.356,-0.278 -0.482,-0.48c-0.439,-0.702 -0.225,-1.628 0.477,-2.067l4,-2.5c0.702,-0.439 1.628,-0.225 2.067,0.477c0.288,0.46 0.295,1.017 0.068,1.47c0.19,0.117 0.356,0.278 0.482,0.48c0.439,0.702 0.225,1.628 -0.477,2.067l-4,2.5c-0.702,0.439 -1.628,0.225 -2.067,-0.477c-0.288,-0.46 -0.295,-1.017 -0.068,-1.47Z"/><path d="M274.41,21.825c-0.187,-0.115 -0.352,-0.274 -0.477,-0.473c-0.443,-0.699 -0.235,-1.627 0.465,-2.069l3.95,-2.5c0.699,-0.443 1.627,-0.235 2.069,0.465c0.292,0.461 0.301,1.022 0.073,1.477c0.187,0.115 0.352,0.274 0.477,0.473c0.443,0.699 0.235,1.627 -0.465,2.069l-3.95,2.5c-0.699,0.443 -1.627,0.235 -2.069,-0.465c-0.292,-0.461 -0.301,-1.022 -0.073,-1.477Z"/><path d="M222.805,18.178l-4,2.5c-0.702,0.439 -0.916,1.365 -0.477,2.067c0.439,0.702 1.365,0.916 2.067,0.477l4,-2.5c0.702,-0.439 0.916,-1.365 0.477,-2.067c-0.439,-0.702 -1.365,-0.916 -2.067,-0.477Z"/><path d="M193.055,18.178l-4,2.5c-0.702,0.439 -0.916,1.365 -0.477,2.067c0.439,0.702 1.365,0.916 2.067,0.477l4,-2.5c0.702,-0.439 0.916,-1.365 0.477,-2.067c-0.439,-0.702 -1.365,-0.916 -2.067,-0.477Z"/><path d="M76.409,17.925l-3.95,2.45c-0.703,0.437 -0.92,1.362 -0.484,2.066c0.437,0.703 1.362,0.92 2.066,0.484l3.95,-2.45c0.703,-0.437 0.92,-1.362 0.484,-2.066c-0.437,-0.703 -1.362,-0.92 -2.066,-0.484Z"/><path d="M94.455,16.778l-4,2.5c-0.702,0.439 -0.916,1.365 -0.477,2.067c0.439,0.702 1.365,0.916 2.067,0.477l4,-2.5c0.702,-0.439 0.916,-1.365 0.477,-2.067c-0.439,-0.702 -1.365,-0.916 -2.067,-0.477Z"/><path d="M159.605,16.778l-4,2.5c-0.702,0.439 -0.916,1.365 -0.477,2.067c0.439,0.702 1.365,0.916 2.067,0.477l4,-2.5c0.702,-0.439 0.916,-1.365 0.477,-2.067c-0.439,-0.702 -1.365,-0.916 -2.067,-0.477Z"/><path d="M44.848,16.783l-3.95,2.5c-0.7,0.442 -0.908,1.37 -0.465,2.069c0.442,0.7 1.37,0.908 2.069,0.465l3.95,-2.5c0.7,-0.442 0.908,-1.37 0.465,-2.069c-0.442,-0.7 -1.37,-0.908 -2.069,-0.465Z"/><path d="M135.048,16.783l-3.95,2.5c-0.7,0.442 -0.908,1.37 -0.465,2.069c0.442,0.7 1.37,0.908 2.069,0.465l3.95,-2.5c0.7,-0.442 0.908,-1.37 0.465,-2.069c-0.442,-0.7 -1.37,-0.908 -2.069,-0.465Z"/><path d="M183.505,15.678l-4,2.5c-0.702,0.439 -0.916,1.365 -0.477,2.067c0.439,0.702 1.365,0.916 2.067,0.477l4,-2.5c0.702,-0.439 0.916,-1.365 0.477,-2.067c-0.439,-0.702 -1.365,-0.916 -2.067,-0.477Z"/><path d="M11.91,21.275c-0.19,-0.117 -0.356,-0.278 -0.482,-0.48c-0.439,-0.702 -0.225,-1.628 0.477,-2.067l4,-2.5c0.702,-0.439 1.628,-0.225 2.067,0.477c0.288,0.46 0.295,1.017 0.068,1.47c0.19,0.117 0.356,0.278 0.482,0.48c0.439,0.702 0.225,1.628 -0.477,2.067l-4,2.5c-0.702,0.439 -1.628,0.225 -2.067,-0.477c-0.288,-0.46 -0.295,-1.017 -0.068,-1.47Z" style="fill:#f00;"/></g></svg>