<?xml version="1.0" encoding="UTF-8" standalone="no"?><!DOCTYPE svg PUBLIC "-//W3C//DTD SVG 1.1//EN" "http://www.w3.org/Graphics/SVG/1.1/DTD/svg11.dtd"><svg width="100%" height="100%" viewBox="0 0 44 44" version="1.1" xmlns="http://www.w3.org/2000/svg" xmlns:xlink="http://www.w3.org/1999/xlink" xml:space="preserve" xmlns:serif="http://www.serif.com/" style="fill-rule:evenodd;clip-rule:evenodd;stroke-linejoin:round;stroke-miterlimit:2;"><g><path d="M17.793,12.875l0.008,-3.563l4.087,-4.088l4.09,4.09l-0.01,3.52l2.458,-2.447l5.781,-0l0,5.783l-2.435,2.422l3.619,0.007l4.088,4.088l-4.089,4.09l-3.707,-0.01l2.614,2.625l0,5.781l-5.783,0l-2.548,-2.561l0.012,3.425l-4.09,4.09l-4.087,-4.088l-0.009,-3.472l-2.481,2.5l-5.784,-0l0,-5.781l2.509,-2.521l-3.793,0.012l-4.09,-4.09l4.088,-4.088l3.706,-0.008l-2.629,-2.613l0,-5.784l5.781,0l2.694,2.681Zm1.705,17.974l0.011,4.48l2.379,2.379l2.378,-2.377l-0.017,-4.444l-2.397,-2.41l-2.354,2.372Zm6.459,-0.671l3.268,3.285l3.362,0l0,-3.364l-3.324,-3.338l-3.319,-0.009l0.013,3.426Zm-11.501,-3.42l-3.219,3.234l0,3.364l3.362,0l3.188,-3.21l-0.009,-3.399l-3.322,0.011Zm9.791,-9.797l-1.688,1.681l-0.683,0.71l-2.382,-2.371l-0.004,2.317l0.019,0.985l-3.425,0.008l1.204,1.196l0.038,-0.038l0.61,0.685l-1.197,1.133l1.159,0.032l-1.735,1.743l1.611,-0.005l0,-0.054l0.916,0.053l-0.045,1.647l0.841,-0.796l0.006,2.54l2.346,-2.363l0.621,0.615l0,-0.016l1.782,1.79l-0.013,-3.397l0.874,-0.004l-0.011,-0.012l2.465,0.007l-2.342,-2.351l1.211,-1.207l0.005,0.004l1.206,-1.199l-3.403,-0.007l0.003,-1.71l0.006,0l0.005,-1.616Zm3.39,5.744l2.338,2.348l4.708,0.012l2.378,-2.378l-2.379,-2.379l-4.626,-0.009l-2.419,2.406Zm-13.973,-2.408l-4.713,0.011l-2.379,2.379l2.377,2.378l4.794,-0.015l2.339,-2.351l-2.418,-2.402Zm15.688,-1.71l3.145,-3.128l0,-3.362l-3.365,-0l-3.17,3.157l-0.009,3.327l3.399,0.006Zm-11.564,-3.304l-3.395,-3.379l-3.365,0l0,3.362l3.34,3.319l3.413,-0.008l0.007,-3.294Zm6.466,-0.741l0.012,-4.522l-2.378,-2.378l-2.379,2.38l-0.009,4.552l2.361,2.35l2.393,-2.382Z" style="fill:#f00;"/></g></svg>