<?xml version="1.0" encoding="UTF-8" standalone="no"?><!DOCTYPE svg PUBLIC "-//W3C//DTD SVG 1.1//EN" "http://www.w3.org/Graphics/SVG/1.1/DTD/svg11.dtd"><svg width="100%" height="100%" viewBox="0 0 44 44" version="1.1" xmlns="http://www.w3.org/2000/svg" xmlns:xlink="http://www.w3.org/1999/xlink" xml:space="preserve" xmlns:serif="http://www.serif.com/" style="fill-rule:evenodd;clip-rule:evenodd;stroke-linejoin:round;stroke-miterlimit:2;"><g><path d="M27.54,10.198l7.262,0l0,7.263l4.607,4.607l-4.607,4.607l0,6.515l-6.514,-0l-5.136,5.135l-5.136,-5.135l-7.263,-0l0,-7.263l-4.606,-4.607l4.606,-4.607l0,-6.515l6.515,0l5.136,-5.135l5.136,5.135Zm-9.918,0.855l-6.014,0l0,6.014l-4.252,4.253l4.252,4.253l0,6.762l6.762,-0l4.782,4.781l4.781,-4.781l6.014,-0l0,-6.015l4.253,-4.252l-4.253,-4.253l0,-6.762l-6.762,0l-4.781,-4.781l-4.782,4.781Z" style="fill:#f00;"/></g></svg>