<?xml version="1.0" encoding="UTF-8" standalone="no"?><!DOCTYPE svg PUBLIC "-//W3C//DTD SVG 1.1//EN" "http://www.w3.org/Graphics/SVG/1.1/DTD/svg11.dtd"><svg width="100%" height="100%" viewBox="0 0 44 44" version="1.1" xmlns="http://www.w3.org/2000/svg" xmlns:xlink="http://www.w3.org/1999/xlink" xml:space="preserve" xmlns:serif="http://www.serif.com/" style="fill-rule:evenodd;clip-rule:evenodd;stroke-linejoin:round;stroke-miterlimit:2;"><g><path d="M27.217,10.087l7.513,0l0,7.513l4.784,4.784l-4.784,4.784l0,6.765l-6.765,0l-5.313,5.313l-5.313,-5.313l-7.513,0l-0,-7.513l-4.784,-4.784l4.784,-4.784l-0,-6.765l6.765,0l5.313,-5.313l5.313,5.313Zm2.068,20.392l-3.457,0l-4.762,4.762l1.586,1.587l4.604,-4.605l2.029,0l-0,-1.744Zm-13.463,-0.363l0,0.004l-4.286,0l-0,2.103l6.512,0l1.808,1.809l1.411,-1.41l-2.506,-2.506l-2.939,0Zm15.173,-4.417l-0,6.524l2.025,0l-0,-5.763l1.825,-1.825l-1.393,-1.393l-2.457,2.457Zm-11.09,-10.137l-4.093,0l0,3.416l-2.957,2.957l2.912,2.804l-0,3.667l3.703,0l3.006,3.007l2.644,-2.644l4.165,0l-0,-3.778l2.958,-2.958l-2.596,-2.596l0,-3.73l-4.165,0l-2.861,-2.861l-2.716,2.716Zm-11.16,4.79l-1.285,1.284l4.076,4.076l-0,2.698l2.521,0l-0,-2.943l-5.312,-5.115Zm22.612,-1.623l4.697,4.697l1.042,-1.042l-4.076,-4.075l-0,-2.602l-1.663,0l0,3.022Zm-17.255,-6.932l-2.566,0l-0,5.764l-1.582,1.581l1.669,1.607l2.479,-2.479l0,-6.473Zm10.987,-1.419l-1.259,1.259l2.361,2.36l6.829,0l-0,-2.2l-6.512,0l-1.419,-1.419Zm-1.209,-1.209l-1.976,-1.976l-4.604,4.604l-1.488,0l0,2.055l3.384,0l4.684,-4.683Z" style="fill:#f00;"/></g></svg>