<?xml version="1.0" encoding="UTF-8" standalone="no"?><!DOCTYPE svg PUBLIC "-//W3C//DTD SVG 1.1//EN" "http://www.w3.org/Graphics/SVG/1.1/DTD/svg11.dtd"><svg width="100%" height="100%" viewBox="0 0 44 44" version="1.1" xmlns="http://www.w3.org/2000/svg" xmlns:xlink="http://www.w3.org/1999/xlink" xml:space="preserve" xmlns:serif="http://www.serif.com/" style="fill-rule:evenodd;clip-rule:evenodd;stroke-linejoin:round;stroke-miterlimit:2;"><g><path d="M26.656,9.558l8.042,-0l0,8.042l5.118,5.118l-5.118,5.118l0,7.238l-7.238,0l-5.687,5.687l-5.686,-5.687l-8.043,0l0,-8.042l-5.118,-5.118l5.118,-5.118l0,-7.238l7.238,-0l5.687,-5.687l5.687,5.687Zm-10.665,1.71l-6.237,0l0,6.236l-4.409,4.41l4.409,4.409l0,7.041l7.041,-0l4.978,4.978l4.979,-4.978l6.236,-0l-0,-6.236l4.41,-4.41l-4.41,-4.409l-0,-7.041l-7.041,0l-4.978,-4.978l-4.978,4.978Zm9.151,23.512l-3.361,3.361l-3.519,-3.518l6.88,0.157Zm-3.361,2.152l1.343,-1.343l-2.749,-0.062l1.406,1.405Zm3.034,-22.929l5.246,0l-0,5.246l3.333,3.333l-3.333,3.333l-0,4.714l-4.714,-0l-3.709,3.71l-3.71,-3.71l-5.247,-0l0,-5.246l-3.333,-3.333l3.333,-3.333l0,-4.714l4.714,0l3.71,-3.71l3.71,3.71Zm3.162,19.192l4.753,-0l0,-4.977l-4.753,4.977Zm-13.137,-0l-4.754,-0l0,-4.977l4.754,4.977Zm2.909,-18.337l-4.213,0l0,4.213l-2.978,2.979l2.978,2.978l0,4.746l4.746,-0l3.356,3.356l3.355,-3.356l4.213,-0l-0,-4.213l2.979,-2.979l-2.979,-2.978l-0,-4.746l-4.746,0l-3.355,-3.356l-3.356,3.356Zm12.227,17.481l1.899,0l-0,-1.988l-1.899,1.988Zm-19.035,0l1.899,0l-1.899,-1.988l0,1.988Zm13.247,-16.823l4.288,0l-0,4.288l2.727,2.727l-2.727,2.728l-0,3.857l-3.858,-0l-3.031,3.032l-3.032,-3.032l-4.288,-0l-0,-4.288l-2.728,-2.727l2.728,-2.728l-0,-3.857l3.857,0l3.032,-3.032l3.032,3.032Zm-5.71,0.855l-3.356,0l-0,3.356l-2.373,2.374l2.373,2.373l-0,3.787l3.787,-0l2.678,2.678l2.677,-2.678l3.357,-0l-0,-3.356l2.373,-2.374l-2.373,-2.373l-0,-3.787l-3.787,0l-2.678,-2.678l-2.678,2.678Zm5.067,0.697l3.304,0l0,3.305l2.106,2.106l-2.106,2.106l0,2.979l-2.978,-0l-2.337,2.336l-2.336,-2.336l-3.305,-0l0,-3.305l-2.106,-2.106l2.106,-2.106l0,-2.979l2.979,0l2.336,-2.336l2.337,2.336Zm-4.319,0.855l-2.478,0l0,2.478l-1.752,1.752l1.752,1.752l0,2.804l2.804,-0l1.982,1.982l1.982,-1.982l2.478,-0l0,-2.478l1.752,-1.752l-1.752,-1.752l0,-2.804l-2.803,0l-1.983,-1.982l-1.982,1.982Zm14.477,8.211l3.361,-3.361l-3.519,-3.519l0.158,6.88Zm-24.539,-0.907l-3.361,-3.361l3.518,-3.518l-0.157,6.879Zm25.348,-1.111l1.342,-1.343l-1.405,-1.406l0.063,2.749Zm-27.5,-2.25l1.343,1.343l0.063,-2.748l-1.406,1.405Zm7.779,-10.329l-4.753,-0l-0,4.976l4.753,-4.976Zm13.282,-0.049l4.754,0l-0,4.977l-4.754,-4.977Zm-17.18,0.904l-0,1.988l1.899,-1.988l-1.899,-0Zm19.18,-0.048l1.899,1.988l-0,-1.988l-1.899,-0Zm-5.737,-2.412l-3.361,-3.361l-3.519,3.519l6.88,-0.158Zm-4.767,-0.746l2.749,-0.063l-1.343,-1.342l-1.406,1.405Z" style="fill:#f00;"/></g></svg>