<?xml version="1.0" encoding="UTF-8" standalone="no"?><!DOCTYPE svg PUBLIC "-//W3C//DTD SVG 1.1//EN" "http://www.w3.org/Graphics/SVG/1.1/DTD/svg11.dtd"><svg width="100%" height="100%" viewBox="0 0 30 34" version="1.1" xmlns="http://www.w3.org/2000/svg" xmlns:xlink="http://www.w3.org/1999/xlink" xml:space="preserve" xmlns:serif="http://www.serif.com/" style="fill-rule:evenodd;clip-rule:evenodd;stroke-linejoin:round;stroke-miterlimit:2;"><g><path d="M12.2,12.1c-0,1.333 0.45,2 1.35,2c0.533,0 0.983,-0.283 1.35,-0.85c0.367,-0.533 0.55,-1.15 0.55,-1.85c-0,-0.567 -0.133,-1.083 -0.4,-1.55c-0.3,-0.533 -0.667,-0.8 -1.1,-0.8c-0.6,0 -1.05,0.333 -1.35,1c-0.267,0.567 -0.4,1.25 -0.4,2.05Z"/><path d="M12.6,11.5c0,-0.7 0.25,-1.05 0.75,-1.05c0.233,-0 0.517,0.15 0.85,0.45c0.367,0.333 0.55,0.633 0.55,0.9c0,0.467 -0.317,0.7 -0.95,0.7c-0.8,0 -1.2,-0.333 -1.2,-1Z"/><path d="M15.2,20c-0.9,-0.7 -1.533,-1.267 -1.9,-1.7c-0.533,1.2 -0.8,2.117 -0.8,2.75c0,0.1 0.017,0.233 0.05,0.4c0.067,0.2 0.1,0.333 0.1,0.4c-0.933,1.8 -1.4,3.267 -1.4,4.4c0,1.833 0.783,2.75 2.35,2.75c1.267,0 2.267,-0.55 3,-1.65c0.6,-0.933 0.9,-2.05 0.9,-3.35c0,-0.967 -0.233,-1.783 -0.7,-2.45c-0.3,-0.4 -0.833,-0.917 -1.6,-1.55Zm1.05,4.75c0,0.267 -0.333,0.55 -1,0.85c-0.567,0.267 -1.017,0.4 -1.35,0.4c-0.833,0 -1.25,-0.483 -1.25,-1.45c-0,-0.8 0.317,-1.5 0.95,-2.1c1.767,1.233 2.65,2 2.65,2.3Z" style="fill:#f00;"/></g></svg>