<?xml version="1.0" encoding="UTF-8" standalone="no"?><!DOCTYPE svg PUBLIC "-//W3C//DTD SVG 1.1//EN" "http://www.w3.org/Graphics/SVG/1.1/DTD/svg11.dtd"><svg width="100%" height="100%" viewBox="0 0 91 67" version="1.1" xmlns="http://www.w3.org/2000/svg" xmlns:xlink="http://www.w3.org/1999/xlink" xml:space="preserve" xmlns:serif="http://www.serif.com/" style="fill-rule:evenodd;clip-rule:evenodd;stroke-linejoin:round;stroke-miterlimit:2;"><g><path d="M45.95,45.7l-2.1,-1.95l-2.05,1.95l2.05,1.95l2.1,-1.95Z"/><path d="M62.15,35.1l-5.5,1.2l-0.2,0c-0.667,0 -1.383,-0.4 -2.15,-1.2c-0.8,-0.833 -1.2,-1.533 -1.2,-2.1c0,-0.467 0.583,-0.917 1.75,-1.35c1,-0.4 1.817,-0.6 2.45,-0.6c0.933,0 1.983,0.2 3.15,0.6c-0.8,-1.867 -2.217,-2.8 -4.25,-2.8c-1.3,-0 -2.4,0.6 -3.3,1.8c-0.833,1.067 -1.25,2.25 -1.25,3.55c-0,1.033 0.217,1.933 0.65,2.7l-4.5,0c-1.171,-0.028 -1.888,-0.095 -2.15,-0.2c-0.667,-0.333 -1,-1.233 -1,-2.7c-0.533,0.4 -0.9,0.917 -1.1,1.55c-0.133,0.533 -0.4,0.867 -0.8,1c-0.633,0.233 -1.933,0.35 -3.9,0.35c-0.259,-0.01 -0.459,-0.044 -0.6,-0.1c-0.533,-0.233 -1.2,-1.917 -2,-5.05c-0.367,-1.567 -0.783,-3.517 -1.25,-5.85c-0.533,1.833 -0.8,2.817 -0.8,2.95l1.25,6.45c-0.5,0.6 -1.333,1.1 -2.5,1.5c-1.033,0.333 -2.017,0.5 -2.95,0.5c-0.933,0 -1.817,-0.383 -2.65,-1.15l0,3.4c0,0.667 0.8,1 2.4,1c1.733,0 2.967,-0.267 3.7,-0.8c0.367,-0.267 1.15,-1.233 2.35,-2.9c0.267,0.733 0.517,1.45 0.75,2.15c0.4,0.867 0.933,1.3 1.6,1.3l2.85,0c0.667,0 1.233,-0.25 1.7,-0.75c0.1,-0.133 0.433,-0.65 1,-1.55c0.7,0.967 1.067,1.483 1.1,1.55c0.467,0.5 1.017,0.75 1.65,0.75l4.45,0c1.2,0 2.95,-0.25 5.25,-0.75c2.533,-0.533 4.167,-1.083 4.9,-1.65c0.5,-1.4 0.867,-2.333 1.1,-2.8Z"/><path d="M10.8,33.85l-0.15,-14.25c-1.267,1.567 -1.883,2.517 -1.85,2.85l0.45,17.9c1.033,-0.833 1.55,-3 1.55,-6.5Z"/><path d="M71.5,32.1c-0.7,-0 -1.367,0.6 -2,1.8c-0.567,1.067 -0.85,1.983 -0.85,2.75c-0,1.333 0.567,2 1.7,2c0.867,0 1.667,-0.45 2.4,-1.35c0.2,0.433 0.3,0.817 0.3,1.15c-0,1.967 -1.467,3.517 -4.4,4.65c-2.267,0.9 -4.6,1.35 -7,1.35c1.167,0.433 1.967,0.717 2.4,0.85c0.8,0.233 1.633,0.35 2.5,0.35c2.433,0 4.317,-0.95 5.65,-2.85c1.2,-1.633 1.8,-3.667 1.8,-6.1c-0,-0.967 -0.183,-1.883 -0.55,-2.75c-0.467,-1.233 -1.117,-1.85 -1.95,-1.85Zm0.45,3.75c0,0.2 -0.117,0.367 -0.35,0.5c-0.267,0.133 -0.517,0.2 -0.75,0.2l-0.95,-0.4c0.267,-0.633 0.533,-1.183 0.8,-1.65c0.833,0.367 1.25,0.817 1.25,1.35Z"/><path d="M56.95,15.3c-0.4,-0.5 -0.867,-0.75 -1.4,-0.75c-0.733,0 -1.283,0.317 -1.65,0.95c-0.333,0.533 -0.5,1.183 -0.5,1.95c-0,1.233 0.55,1.85 1.65,1.85c0.667,0 1.233,-0.267 1.7,-0.8c0.467,-0.5 0.7,-1.067 0.7,-1.7c0,-0.567 -0.167,-1.067 -0.5,-1.5Zm-1.05,1c0.467,0.333 0.7,0.617 0.7,0.85c0,0.4 -0.417,0.6 -1.25,0.6c-0.967,-0 -1.45,-0.3 -1.45,-0.9c-0,-0.667 0.317,-1 0.95,-1c0.267,-0 0.617,0.15 1.05,0.45Z"/><path d="M45.65,15.15c-0,-0.9 -0.417,-1.35 -1.25,-1.35c-0.6,0 -1.117,0.317 -1.55,0.95c-0.4,0.567 -0.6,1.1 -0.6,1.6c0,0.433 0.383,0.883 1.15,1.35c-1.4,1.067 -2.7,1.867 -3.9,2.4c0.433,0.1 0.783,0.15 1.05,0.15c1,0 2.2,-0.717 3.6,-2.15c0.567,0.333 1.067,0.583 1.5,0.75l0.1,-1.45c-0.3,-0.233 -0.533,-0.383 -0.7,-0.45c0.4,-0.767 0.6,-1.367 0.6,-1.8Zm-2.45,0.25c0.033,-0.167 0.133,-0.267 0.3,-0.3c0.667,0.1 1,0.417 1,0.95c0,0.133 -0.033,0.283 -0.1,0.45c-0.8,-0.4 -1.2,-0.767 -1.2,-1.1Z"/><path d="M20.55,32.1c-0.7,-0 -1.367,0.6 -2,1.8c-0.567,1.067 -0.85,1.983 -0.85,2.75c0,1.333 0.567,2 1.7,2c0.867,0 1.667,-0.45 2.4,-1.35c0.2,0.433 0.3,0.817 0.3,1.15c0,1.967 -1.467,3.517 -4.4,4.65c-2.267,0.9 -4.6,1.35 -7,1.35c1.167,0.433 1.967,0.717 2.4,0.85c0.8,0.233 1.633,0.35 2.5,0.35c2.433,0 4.317,-0.95 5.65,-2.85c1.2,-1.633 1.8,-3.667 1.8,-6.1c-0,-0.967 -0.183,-1.883 -0.55,-2.75c-0.467,-1.233 -1.117,-1.85 -1.95,-1.85Zm0.45,3.75c0,0.2 -0.117,0.367 -0.35,0.5c-0.267,0.133 -0.517,0.2 -0.75,0.2l-0.95,-0.4c0.267,-0.633 0.533,-1.183 0.8,-1.65c0.833,0.367 1.25,0.817 1.25,1.35Z" style="fill:#f00;"/><path d="M32.3,14.3c-0,-0.9 -0.417,-1.35 -1.25,-1.35c-0.6,-0 -1.117,0.317 -1.55,0.95c-0.4,0.567 -0.6,1.1 -0.6,1.6c-0,0.433 0.383,0.883 1.15,1.35c-1.4,1.067 -2.7,1.867 -3.9,2.4c0.433,0.1 0.783,0.15 1.05,0.15c1,0 2.2,-0.717 3.6,-2.15c0.567,0.333 1.067,0.583 1.5,0.75l0.1,-1.45c-0.3,-0.233 -0.533,-0.383 -0.7,-0.45c0.4,-0.767 0.6,-1.367 0.6,-1.8Z" style="fill:#f00;"/><path d="M31.15,15.2c-0,0.133 -0.033,0.283 -0.1,0.45c-0.8,-0.4 -1.2,-0.767 -1.2,-1.1c0.033,-0.167 0.133,-0.267 0.3,-0.3c0.667,0.1 1,0.417 1,0.95Z" style="fill:#f00;"/><path d="M71.954,15.89l-4.7,2c-0.254,0.108 -0.372,0.402 -0.264,0.656c0.108,0.254 0.402,0.372 0.656,0.264l4.7,-2c0.254,-0.108 0.372,-0.402 0.264,-0.656c-0.108,-0.254 -0.402,-0.372 -0.656,-0.264Z"/></g></svg>