<?xml version="1.0" encoding="UTF-8" standalone="no"?><!DOCTYPE svg PUBLIC "-//W3C//DTD SVG 1.1//EN" "http://www.w3.org/Graphics/SVG/1.1/DTD/svg11.dtd"><svg width="100%" height="100%" viewBox="0 0 55 58" version="1.1" xmlns="http://www.w3.org/2000/svg" xmlns:xlink="http://www.w3.org/1999/xlink" xml:space="preserve" xmlns:serif="http://www.serif.com/" style="fill-rule:evenodd;clip-rule:evenodd;stroke-linejoin:round;stroke-miterlimit:2;"><g><path d="M30.6,15.3c-0.233,-3.3 -0.383,-5.483 -0.45,-6.55c-1.267,0.933 -1.9,1.95 -1.9,3.05c-0,1.3 0.133,3.283 0.4,5.95c0.267,2.667 0.4,4.667 0.4,6c0,1.1 -0.367,1.817 -1.1,2.15c-0.42,0.18 -1.187,0.28 -2.3,0.3l-1.35,0c-1.567,0 -2.95,0.433 -4.15,1.3c-1.3,0.967 -1.95,2.15 -1.95,3.55c-0,0.667 0.35,1.15 1.05,1.45c0.4,0.167 1.117,0.333 2.15,0.5c1,0.133 1.633,0.283 1.9,0.45c-0.3,0.567 -1.533,1.083 -3.7,1.55c-1.8,0.367 -3.267,0.55 -4.4,0.55c-1.833,0 -3.25,-0.167 -4.25,-0.5c-1.533,-0.567 -2.3,-1.583 -2.3,-3.05c-0,-0.633 0.233,-1.433 0.7,-2.4c0.6,-1.2 0.95,-2 1.05,-2.4c-0.833,0.533 -1.633,1.45 -2.4,2.75c-0.8,1.3 -1.2,2.4 -1.2,3.3c0,1.767 0.833,3.083 2.5,3.95c1.3,0.7 2.967,1.05 5,1.05c4.533,0 7.883,-1.317 10.05,-3.95c0.667,-0.8 1,-1.417 1,-1.85c0,-0.733 -0.75,-1.233 -2.25,-1.5c-1.033,-0.167 -2.083,-0.333 -3.15,-0.5c0.349,-0.494 2.132,-0.777 5.35,-0.85l1.9,0c0.6,0 1.167,-0.383 1.7,-1.15c0.8,-1.2 1.217,-1.8 1.25,-1.8c0.367,0.633 0.717,1.267 1.05,1.9c0.5,0.7 1.1,1.05 1.8,1.05l4.95,0c1.367,0 2.617,-0.55 3.75,-1.65c1.1,-1.1 1.65,-2.317 1.65,-3.65c0,-2.9 -0.8,-4.967 -2.4,-6.2c-0.5,-0.367 -0.833,-0.55 -1,-0.55c-0.767,0 -1.45,0.567 -2.05,1.7c-0.533,1 -0.8,1.917 -0.8,2.75c0,0.7 0.183,1.267 0.55,1.7c0.4,0.467 0.95,0.7 1.65,0.7c0.733,0 1.517,-0.3 2.35,-0.9c0.533,0.8 0.8,1.35 0.8,1.65c-0,0.233 -0.45,0.483 -1.35,0.75c-0.767,0.2 -1.367,0.3 -1.8,0.3l-4.6,0c-1.355,-0.026 -2.338,-0.409 -2.95,-1.15c-0.533,-0.7 -0.8,-1.75 -0.8,-3.15c-0,-1.667 -0.117,-3.867 -0.35,-6.6Zm10.15,6.7c-0.633,0.2 -1.05,0.3 -1.25,0.3c-0.167,0 -0.383,-0.05 -0.65,-0.15l-0.6,-0.3c0.167,-0.533 0.3,-0.85 0.4,-0.95c0.1,-0.133 0.383,-0.35 0.85,-0.65c0.5,0.333 0.917,0.783 1.25,1.35l0,0.4Z" style="fill:#f00;"/><path d="M40.2,14.4l1.8,1.7l1.85,-1.7l-1.85,-1.7l-1.8,1.7Z" style="fill:#f00;"/><path d="M40.2,14.4l-1.8,-1.7l-1.85,1.7l1.8,1.7l1.85,-1.7Z" style="fill:#f00;"/></g></svg>