<?xml version="1.0" encoding="UTF-8" standalone="no"?><!DOCTYPE svg PUBLIC "-//W3C//DTD SVG 1.1//EN" "http://www.w3.org/Graphics/SVG/1.1/DTD/svg11.dtd"><svg width="100%" height="100%" viewBox="0 0 39 58" version="1.1" xmlns="http://www.w3.org/2000/svg" xmlns:xlink="http://www.w3.org/1999/xlink" xml:space="preserve" xmlns:serif="http://www.serif.com/" style="fill-rule:evenodd;clip-rule:evenodd;stroke-linejoin:round;stroke-miterlimit:2;"><g><path d="M13.05,14.65c-1.2,0 -2.267,0.35 -3.2,1.05c-1.033,0.733 -1.55,1.683 -1.55,2.85l0,0.55c0.833,-1.067 1.733,-1.6 2.7,-1.6c0.6,0 1.267,0.25 2,0.75c-1.8,1.7 -3.117,3.3 -3.95,4.8c-1.033,1.833 -1.55,3.817 -1.55,5.95c-0,3.133 0.833,5.35 2.5,6.65c1.533,1.167 4.017,1.75 7.45,1.75c1.333,0 2.617,-0.25 3.85,-0.75c1.2,-0.533 2.383,-1.067 3.55,-1.6l0,-0.45c-0.467,0 -1.3,0.017 -2.5,0.05c-1.2,0.033 -2.15,0.05 -2.85,0.05c-3.2,0 -5.633,-0.383 -7.3,-1.15c-2.3,-1.067 -3.45,-2.95 -3.45,-5.65c0,-2.5 0.967,-4.667 2.9,-6.5c1.933,-1.833 4.233,-2.75 6.9,-2.75c0.867,0 1.517,-0.117 1.95,-0.35c0.367,-0.2 0.683,-0.583 0.95,-1.15c0.233,-0.633 0.483,-1.267 0.75,-1.9c-1.033,0 -2.567,-0.1 -4.6,-0.3c-2.033,-0.2 -3.55,-0.3 -4.55,-0.3Z" style="fill:#f00;"/><path d="M15.75,25.3l-2.1,1.95l2.1,1.95l2.1,-1.95l-2.1,-1.95Z" style="fill:#f00;"/></g></svg>