<?xml version="1.0" encoding="UTF-8" standalone="no"?><!DOCTYPE svg PUBLIC "-//W3C//DTD SVG 1.1//EN" "http://www.w3.org/Graphics/SVG/1.1/DTD/svg11.dtd"><svg width="100%" height="100%" viewBox="0 0 39 44" version="1.1" xmlns="http://www.w3.org/2000/svg" xmlns:xlink="http://www.w3.org/1999/xlink" xml:space="preserve" xmlns:serif="http://www.serif.com/" style="fill-rule:evenodd;clip-rule:evenodd;stroke-linejoin:round;stroke-miterlimit:2;"><g><path d="M16.05,20.55c-0.8,-0 -1.5,0.367 -2.1,1.1c-0.5,0.567 -0.883,1.283 -1.15,2.15c0.667,-0.333 1.217,-0.5 1.65,-0.5c0.667,-0 1.333,0.417 2,1.25c-1.7,0.3 -2.933,0.683 -3.7,1.15c-1.1,0.667 -1.65,1.683 -1.65,3.05l-0,0.55l1.1,11.6c0.4,-0.6 0.6,-1.433 0.6,-2.5l-0,-10.8c-0,-0.167 0.05,-0.333 0.15,-0.5c0.133,-0.233 0.267,-0.35 0.4,-0.35c2.633,0 4.283,0.067 4.95,0.2c0.4,0.033 0.667,0.033 0.8,0c1.067,-2.2 1.6,-3.317 1.6,-3.35c-0,-0.433 -0.65,-1.067 -1.95,-1.9c-1.233,-0.767 -2.133,-1.15 -2.7,-1.15Z" style="fill:#f00;"/></g></svg>