<?xml version="1.0" encoding="UTF-8" standalone="no"?><!DOCTYPE svg PUBLIC "-//W3C//DTD SVG 1.1//EN" "http://www.w3.org/Graphics/SVG/1.1/DTD/svg11.dtd"><svg width="100%" height="100%" viewBox="0 0 64 48" version="1.1" xmlns="http://www.w3.org/2000/svg" xmlns:xlink="http://www.w3.org/1999/xlink" xml:space="preserve" xmlns:serif="http://www.serif.com/" style="fill-rule:evenodd;clip-rule:evenodd;stroke-linejoin:round;stroke-miterlimit:2;"><g><path d="M28.95,15.3c-0.233,-3.3 -0.383,-5.483 -0.45,-6.55c-1.267,0.933 -1.9,1.95 -1.9,3.05c0,1.3 0.133,3.283 0.4,5.95c0.267,2.667 0.4,4.667 0.4,6c-0,1.1 -0.367,1.817 -1.1,2.15c-0.42,0.18 -1.187,0.28 -2.3,0.3l-1.35,0c-1.567,0 -2.95,0.433 -4.15,1.3c-1.3,0.967 -1.95,2.15 -1.95,3.55c-0,0.667 0.35,1.15 1.05,1.45c0.4,0.167 1.117,0.333 2.15,0.5c1,0.133 1.633,0.283 1.9,0.45c-0.3,0.567 -1.533,1.083 -3.7,1.55c-1.8,0.367 -3.267,0.55 -4.4,0.55c-1.833,0 -3.25,-0.167 -4.25,-0.5c-1.533,-0.567 -2.3,-1.583 -2.3,-3.05c0,-0.633 0.233,-1.433 0.7,-2.4c0.6,-1.2 0.95,-2 1.05,-2.4c-0.833,0.533 -1.633,1.45 -2.4,2.75c-0.8,1.3 -1.2,2.4 -1.2,3.3c-0,1.767 0.833,3.083 2.5,3.95c1.3,0.7 2.967,1.05 5,1.05c4.533,0 7.883,-1.317 10.05,-3.95c0.667,-0.8 1,-1.417 1,-1.85c0,-0.733 -0.75,-1.233 -2.25,-1.5c-1.033,-0.167 -2.083,-0.333 -3.15,-0.5c0.349,-0.494 2.132,-0.777 5.35,-0.85l1.9,0c0.6,0 1.167,-0.383 1.7,-1.15c0.8,-1.2 1.217,-1.8 1.25,-1.8c0.367,0.633 0.717,1.267 1.05,1.9c0.5,0.7 1.1,1.05 1.8,1.05l1.85,0l0,-0.05c0.686,-0.01 1.119,-0.06 1.3,-0.15c0.233,-0.133 0.717,-0.7 1.45,-1.7c0.833,0.967 1.733,1.583 2.7,1.85c0.7,0.233 1.833,0.35 3.4,0.35c2.7,0 5.383,-0.55 8.05,-1.65c3.3,-1.4 4.95,-3.233 4.95,-5.5c-0,-0.7 -0.267,-1.333 -0.8,-1.9c-0.567,-0.633 -1.217,-0.95 -1.95,-0.95c-1.167,0 -2.6,0.483 -4.3,1.45c-1.1,0.567 -2.617,1.55 -4.55,2.95c-1.933,1.4 -3.233,2.283 -3.9,2.65c-0.733,0 -1.4,-0.25 -2,-0.75c-0.6,-0.433 -1.017,-0.983 -1.25,-1.65c-0.333,0.633 -0.617,1.067 -0.85,1.3c-0.367,0.3 -0.85,0.45 -1.45,0.45l-0.8,-0.05l0,-0.05c-1.433,0 -2.467,-0.383 -3.1,-1.15c-0.533,-0.7 -0.8,-1.75 -0.8,-3.15c-0,-1.667 -0.117,-3.867 -0.35,-6.6Zm23.75,9.1c0,0.533 -1.017,1.1 -3.05,1.7c-1.767,0.567 -3.1,0.85 -4,0.85l-4.05,0c3.5,-2.7 6.067,-4.05 7.7,-4.05c0.433,0 1.083,0.167 1.95,0.5c0.967,0.333 1.45,0.667 1.45,1Z" style="fill:#f00;"/></g></svg>