<?xml version="1.0" encoding="UTF-8" standalone="no"?><!DOCTYPE svg PUBLIC "-//W3C//DTD SVG 1.1//EN" "http://www.w3.org/Graphics/SVG/1.1/DTD/svg11.dtd"><svg width="100%" height="100%" viewBox="0 0 68 57" version="1.1" xmlns="http://www.w3.org/2000/svg" xmlns:xlink="http://www.w3.org/1999/xlink" xml:space="preserve" xmlns:serif="http://www.serif.com/" style="fill-rule:evenodd;clip-rule:evenodd;stroke-linejoin:round;stroke-miterlimit:2;"><g><path d="M23.75,36.95c0,-0.433 -0.65,-1.067 -1.95,-1.9c-1.233,-0.767 -2.133,-1.15 -2.7,-1.15c-0.8,0 -1.5,0.367 -2.1,1.1c-0.5,0.567 -0.883,1.283 -1.15,2.15c0.667,-0.333 1.217,-0.5 1.65,-0.5c0.667,0 1.333,0.417 2,1.25c-1.7,0.3 -2.933,0.683 -3.7,1.15c-1.1,0.667 -1.65,1.683 -1.65,3.05l-0,0.55l1.1,11.6c0.4,-0.6 0.6,-1.433 0.6,-2.5l0,-10.8c0,-0.167 0.05,-0.333 0.15,-0.5c0.133,-0.233 0.267,-0.35 0.4,-0.35c2.633,-0 4.283,0.067 4.95,0.2c0.4,0.033 0.667,0.033 0.8,0c1.067,-2.2 1.6,-3.317 1.6,-3.35Z"/><path d="M25.7,21.65c-0.367,0 -0.683,0.217 -0.95,0.65c-0.267,0.4 -0.4,0.8 -0.4,1.2c0,2.133 1.017,3.2 3.05,3.2c0.533,-0 1.15,-0.1 1.85,-0.3c3.667,2.6 5.8,5.417 6.4,8.45c-0.4,0.933 -1.633,2.217 -3.7,3.85c-1.9,1.467 -3.433,2.467 -4.6,3c3.867,-0 6.65,-1.067 8.35,-3.2c1.267,-1.567 2.2,-4.317 2.8,-8.25l0,1.5c0,2.2 0.217,4.017 0.65,5.45c0.6,2.033 1.617,3.05 3.05,3.05l3.6,0c0.3,0 0.967,-0.4 2,-1.2c0.567,0.267 1.117,0.533 1.65,0.8c0.667,0.267 1.267,0.4 1.8,0.4c1.233,0 2.433,-0.55 3.6,-1.65c0.467,0.267 0.933,0.533 1.4,0.8c0.667,0.367 1.133,0.55 1.4,0.55c0.9,0 1.6,-0.817 2.1,-2.45c0.333,-1.133 0.5,-2.3 0.5,-3.5c0,-0.233 -0.133,-0.733 -0.4,-1.5c-0.533,1 -0.9,1.717 -1.1,2.15c0.367,0.8 0.55,1.283 0.55,1.45l-0.25,0.55c-0.267,0.1 -0.517,0.15 -0.75,0.15c-1.667,0 -2.5,-0.5 -2.5,-1.5c-0,-0.2 0.017,-0.467 0.05,-0.8c0.067,-0.4 0.1,-0.667 0.1,-0.8c-0.633,0.8 -1.267,1.6 -1.9,2.4c-0.733,0.8 -1.7,1.2 -2.9,1.2c-0.867,0 -1.467,-0.133 -1.8,-0.4c-0.3,-0.2 -0.483,-0.567 -0.55,-1.1c-0.067,-0.533 -0.133,-1.083 -0.2,-1.65c-0.9,1.433 -1.483,2.233 -1.75,2.4c-0.345,0.172 -1.195,0.272 -2.55,0.3c-0.911,-0.02 -1.528,-0.07 -1.85,-0.15c-1.8,-0.6 -2.7,-4.533 -2.7,-11.8c0,-1.033 0.017,-2.117 0.05,-3.25l0.05,-1.65c-1.2,1.233 -1.983,2.067 -2.35,2.5c0,3.2 -0.017,5.183 -0.05,5.95c-0.133,1.533 -0.533,3.333 -1.2,5.4c-0.467,-1.867 -0.833,-3.067 -1.1,-3.6c-0.7,-1.467 -2.05,-3.2 -4.05,-5.2c-2.267,-2.267 -4.067,-3.4 -5.4,-3.4Z"/><path d="M17.05,19.9c-0.633,0 -1.117,0.3 -1.45,0.9c-0.267,0.5 -0.4,1.117 -0.4,1.85c-0,1.133 0.483,1.7 1.45,1.7c0.567,-0 1.05,-0.233 1.45,-0.7c0.367,-0.5 0.55,-1.05 0.55,-1.65c-0,-0.533 -0.133,-1 -0.4,-1.4c-0.333,-0.467 -0.733,-0.7 -1.2,-0.7Zm0.9,2.45c0,0.4 -0.35,0.6 -1.05,0.6c-0.833,-0 -1.25,-0.283 -1.25,-0.85c-0,-0.633 0.267,-0.95 0.8,-0.95c0.233,0 0.533,0.133 0.9,0.4c0.4,0.3 0.6,0.567 0.6,0.8Z" style="fill:#f00;"/><path d="M-23.236,19.34l-4.2,3c-0.337,0.24 -0.415,0.709 -0.174,1.046c0.24,0.337 0.709,0.415 1.046,0.174l4.2,-3c0.337,-0.24 0.415,-0.709 0.174,-1.046c-0.24,-0.337 -0.709,-0.415 -1.046,-0.174Zm77.15,-0.1l-4.2,3c-0.337,0.24 -0.415,0.709 -0.174,1.046c0.24,0.337 0.709,0.415 1.046,0.174l4.2,-3c0.337,-0.24 0.415,-0.709 0.174,-1.046c-0.24,-0.337 -0.709,-0.415 -1.046,-0.174Zm-96.15,-4.4l-4.2,3c-0.337,0.24 -0.415,0.709 -0.174,1.046c0.24,0.337 0.709,0.415 1.046,0.174l4.2,-3c0.337,-0.24 0.415,-0.709 0.174,-1.046c-0.24,-0.337 -0.709,-0.415 -1.046,-0.174Zm77.2,-0.1l-4.2,3c-0.337,0.24 -0.415,0.709 -0.174,1.046c0.24,0.337 0.709,0.415 1.046,0.174l4.2,-3c0.337,-0.24 0.415,-0.709 0.174,-1.046c-0.24,-0.337 -0.709,-0.415 -1.046,-0.174Z"/></g></svg>