<?xml version="1.0" encoding="UTF-8" standalone="no"?><!DOCTYPE svg PUBLIC "-//W3C//DTD SVG 1.1//EN" "http://www.w3.org/Graphics/SVG/1.1/DTD/svg11.dtd"><svg width="100%" height="100%" viewBox="0 0 31 48" version="1.1" xmlns="http://www.w3.org/2000/svg" xmlns:xlink="http://www.w3.org/1999/xlink" xml:space="preserve" xmlns:serif="http://www.serif.com/" style="fill-rule:evenodd;clip-rule:evenodd;stroke-linejoin:round;stroke-miterlimit:2;"><g><path d="M22.85,25.5c0,-0.967 -0.2,-1.8 -0.6,-2.5c-0.3,-0.533 -0.883,-1.2 -1.75,-2l-0.8,2.8c0.433,0.467 0.883,0.95 1.35,1.45c0.567,0.667 0.85,1.183 0.85,1.55c-0,1.8 -1.367,3.35 -4.1,4.65c-2.333,1.067 -4.567,1.6 -6.7,1.6c1.7,1.1 3.4,1.65 5.1,1.65c1.933,0 3.567,-1.117 4.9,-3.35c1.167,-1.9 1.75,-3.85 1.75,-5.85Z" style="fill:#f00;"/><path d="M21.7,15.3l-2.1,-2l-2.1,2l2.1,1.95l2.1,-1.95Z" style="fill:#f00;"/></g></svg>