<?xml version="1.0" encoding="UTF-8" standalone="no"?><!DOCTYPE svg PUBLIC "-//W3C//DTD SVG 1.1//EN" "http://www.w3.org/Graphics/SVG/1.1/DTD/svg11.dtd"><svg width="100%" height="100%" viewBox="0 0 33 58" version="1.1" xmlns="http://www.w3.org/2000/svg" xmlns:xlink="http://www.w3.org/1999/xlink" xml:space="preserve" xmlns:serif="http://www.serif.com/" style="fill-rule:evenodd;clip-rule:evenodd;stroke-linejoin:round;stroke-miterlimit:2;"><g><path d="M13.75,12.25c0.433,-0.233 0.783,-0.683 1.05,-1.35c0.133,-0.3 0.3,-0.85 0.5,-1.65c-1.1,-0.5 -1.65,-1.15 -1.65,-1.95c-0,-0.333 0.033,-0.767 0.1,-1.3c-1.467,1.533 -2.2,2.7 -2.2,3.5c0,0.167 0.167,0.483 0.5,0.95c0.3,0.433 0.45,0.7 0.45,0.8l0,11.25c0,0.233 -0.417,0.75 -1.25,1.55c-0.833,0.767 -1.383,1.133 -1.65,1.1l-5.7,-0.55c1.033,1.467 2.2,2.45 3.5,2.95c1.033,0.4 2.583,0.6 4.65,0.6c2.667,0 5.3,-0.583 7.9,-1.75c3.233,-1.433 4.85,-3.317 4.85,-5.65c0,-0.733 -0.383,-1.4 -1.15,-2c-0.7,-0.567 -1.467,-0.85 -2.3,-0.85c-0.867,0 -2.15,0.5 -3.85,1.5c-1.2,0.8 -2.4,1.583 -3.6,2.35l-0.15,-9.5Zm7.15,9.1c0.833,0.333 1.25,0.717 1.25,1.15c-0,0.633 -1.233,1.233 -3.7,1.8c-2.033,0.467 -3.55,0.7 -4.55,0.7c-0.167,0 -0.633,-0.083 -1.4,-0.25c2.567,-2.5 4.733,-3.75 6.5,-3.75c0.6,0 1.233,0.117 1.9,0.35Z" style="fill:#f00;"/></g></svg>