<?xml version="1.0" encoding="UTF-8" standalone="no"?><!DOCTYPE svg PUBLIC "-//W3C//DTD SVG 1.1//EN" "http://www.w3.org/Graphics/SVG/1.1/DTD/svg11.dtd"><svg width="100%" height="100%" viewBox="0 0 65 62" version="1.1" xmlns="http://www.w3.org/2000/svg" xmlns:xlink="http://www.w3.org/1999/xlink" xml:space="preserve" xmlns:serif="http://www.serif.com/" style="fill-rule:evenodd;clip-rule:evenodd;stroke-linejoin:round;stroke-miterlimit:2;"><g><path d="M52.4,33.75l-0.15,-14.25c-1.267,1.567 -1.883,2.517 -1.85,2.85l0.45,17.9c1.033,-0.833 1.55,-3 1.55,-6.5Z"/><path d="M45.3,36.5c0.4,-0.967 0.717,-2.033 0.95,-3.2c-1.6,0 -3.117,-0.267 -4.55,-0.8c-0.667,-0.233 -1.667,-0.733 -3,-1.5c-0.967,-0.533 -1.717,-0.8 -2.25,-0.8c-0.967,-0 -1.75,0.467 -2.35,1.4c-0.367,0.567 -0.733,1.433 -1.1,2.6c0.4,-0.167 0.783,-0.35 1.15,-0.55c0.5,-0.233 0.917,-0.35 1.25,-0.35c0.5,0 1.217,0.233 2.15,0.7c0.033,0.033 0.717,0.4 2.05,1.1c-0.933,0.733 -1.75,1.217 -2.45,1.45c-0.567,0.233 -1.3,0.35 -2.2,0.35c-0.233,-0 -0.7,-0.017 -1.4,-0.05c-0.7,-0.033 -1.317,-0.05 -1.85,-0.05l0,0.15c-0.37,0.011 -0.754,-0.006 -1.15,-0.05c-0.3,-0.667 -0.617,-1.317 -0.95,-1.95c-0.5,-0.867 -1.017,-1.3 -1.55,-1.3c-0.633,-0 -1.3,0.633 -2,1.9c-0.633,1.167 -0.95,2.117 -0.95,2.85c0,0.9 0.45,1.467 1.35,1.7c0.867,0.133 1.717,0.267 2.55,0.4c-1,1.4 -2.033,2.433 -3.1,3.1c-1.233,0.733 -2.667,1.1 -4.3,1.1c-0.9,-0 -2.2,-0.067 -3.9,-0.2c1.6,1.5 3.433,2.25 5.5,2.25c1.8,-0 3.333,-0.717 4.6,-2.15c0.9,-0.967 1.767,-2.433 2.6,-4.4l3.85,-0c1,-0 1.95,-0.25 2.85,-0.75c0.333,-0.167 1.05,-0.65 2.15,-1.45c0.8,-0.633 1.5,-1.033 2.1,-1.2c0.533,-0.133 1.183,-0.217 1.95,-0.25c0.667,0 1.333,-0.017 2,-0.05Zm-18.5,1.3c-0,-0.267 -0.05,-0.433 -0.15,-0.5c0.2,-0.4 0.4,-0.767 0.6,-1.1c0.567,0.233 0.917,0.45 1.05,0.65c0.133,0.167 0.267,0.533 0.4,1.1c-0.533,-0 -1.167,-0.05 -1.9,-0.15Z"/><path d="M40.55,24.05l-2.1,-1.95l-2.1,1.95l2.1,1.95l2.1,-1.95Z"/><path d="M37.6,14.55c-0.733,0 -1.283,0.317 -1.65,0.95c-0.333,0.533 -0.5,1.183 -0.5,1.95c0,1.233 0.55,1.85 1.65,1.85c0.667,0 1.233,-0.267 1.7,-0.8c0.467,-0.5 0.7,-1.067 0.7,-1.7c-0,-0.567 -0.167,-1.067 -0.5,-1.5c-0.4,-0.5 -0.867,-0.75 -1.4,-0.75Zm-1.65,2.3c0,-0.667 0.317,-1 0.95,-1c0.267,0 0.617,0.15 1.05,0.45c0.467,0.333 0.7,0.617 0.7,0.85c-0,0.4 -0.417,0.6 -1.25,0.6c-0.967,-0 -1.45,-0.3 -1.45,-0.9Z"/><path d="M18.3,35.2c-0,-0.967 -0.233,-1.783 -0.7,-2.45c-0.267,-0.4 -0.8,-0.917 -1.6,-1.55c-0.9,-0.7 -1.533,-1.267 -1.9,-1.7c-0.533,1.2 -0.8,2.117 -0.8,2.75c-0,0.1 0.017,0.233 0.05,0.4c0.067,0.2 0.1,0.333 0.1,0.4c-0.933,1.8 -1.4,3.267 -1.4,4.4c-0,1.833 0.783,2.75 2.35,2.75c1.267,-0 2.267,-0.55 3,-1.65c0.6,-0.933 0.9,-2.05 0.9,-3.35Zm-2.2,1.6c-0.6,0.267 -1.067,0.4 -1.4,0.4c-0.833,-0 -1.25,-0.483 -1.25,-1.45c0,-0.8 0.317,-1.5 0.95,-2.1c1.767,1.233 2.65,2 2.65,2.3c-0,0.267 -0.317,0.55 -0.95,0.85Z" style="fill:#f00;"/><path d="M14.3,25.4l1.8,1.75l1.85,-1.75l-1.85,-1.7l-1.8,1.7Z" style="fill:#f00;"/><path d="M14.3,25.4l-1.8,-1.7l-1.85,1.7l1.85,1.7l1.8,-1.7Z" style="fill:#f00;"/><path d="M16.65,10.4c-0.2,-0.3 -0.45,-0.45 -0.75,-0.45c-0.5,-0 -0.95,0.317 -1.35,0.95c-0.433,0.633 -0.65,1.233 -0.65,1.8c-0,0.7 0.367,1.317 1.1,1.85c-0.7,0.867 -1.367,1.417 -2,1.65c0.067,-0.833 0.1,-1.333 0.1,-1.5c0,-1.433 -0.367,-2.15 -1.1,-2.15c-0.433,0 -0.783,0.25 -1.05,0.75c-0.233,0.4 -0.35,0.867 -0.35,1.4c0,0.267 0.067,0.583 0.2,0.95c0.1,-0.967 0.367,-1.45 0.8,-1.45c0.233,-0 0.417,0.117 0.55,0.35c0.167,0.2 0.25,0.433 0.25,0.7c-0,0.4 -0.233,1.233 -0.7,2.5c0.867,-0.233 1.583,-0.567 2.15,-1c0.5,-0.333 1.083,-0.933 1.75,-1.8c0.333,0.3 0.817,0.683 1.45,1.15c0.033,-0.733 0.05,-1.15 0.05,-1.25c0,-0.433 -0.217,-0.85 -0.65,-1.25c0.367,-0.933 0.55,-1.65 0.55,-2.15c-0,-0.367 -0.117,-0.717 -0.35,-1.05Zm-0.8,1.8l-0.05,0.75c-0.7,-0.567 -1.05,-1 -1.05,-1.3l0.15,-0.35c0.133,-0.067 0.233,-0.1 0.3,-0.1c0.433,-0 0.65,0.333 0.65,1Z" style="fill:#f00;"/><path d="M54.056,42.089l-4.75,2c-0.254,0.107 -0.374,0.401 -0.267,0.655c0.107,0.254 0.401,0.374 0.655,0.267l4.75,-2c0.254,-0.107 0.374,-0.401 0.267,-0.655c-0.107,-0.254 -0.401,-0.374 -0.655,-0.267Z"/><path d="M28.804,16.59l-4.7,2c-0.254,0.108 -0.372,0.402 -0.264,0.656c0.108,0.254 0.402,0.372 0.656,0.264l4.7,-2c0.254,-0.108 0.372,-0.402 0.264,-0.656c-0.108,-0.254 -0.402,-0.372 -0.656,-0.264Z"/></g></svg>