<?xml version="1.0" encoding="UTF-8" standalone="no"?><!DOCTYPE svg PUBLIC "-//W3C//DTD SVG 1.1//EN" "http://www.w3.org/Graphics/SVG/1.1/DTD/svg11.dtd"><svg width="100%" height="100%" viewBox="0 0 50 44" version="1.1" xmlns="http://www.w3.org/2000/svg" xmlns:xlink="http://www.w3.org/1999/xlink" xml:space="preserve" xmlns:serif="http://www.serif.com/" style="fill-rule:evenodd;clip-rule:evenodd;stroke-linejoin:round;stroke-miterlimit:2;"><g><path d="M37.5,21.2c1.6,1.233 2.4,3.3 2.4,6.2c0,1.333 -0.55,2.55 -1.65,3.65c-1.133,1.1 -2.383,1.65 -3.75,1.65l-5.7,0c-0.5,0 -1.067,-0.2 -1.7,-0.6c-0.467,-0.333 -0.95,-0.683 -1.45,-1.05c-3.967,1.6 -7.55,2.4 -10.75,2.4c-2.1,0 -3.85,-0.367 -5.25,-1.1c-1.767,-0.933 -2.65,-2.3 -2.65,-4.1c-0,-0.833 0.183,-1.683 0.55,-2.55c0.433,-1.033 0.983,-1.683 1.65,-1.95c-0.533,1.4 -0.8,2.267 -0.8,2.6c0,1.433 0.967,2.5 2.9,3.2c1.367,0.5 2.967,0.75 4.8,0.75c1.9,0 4.55,-0.35 7.95,-1.05l-0.3,-1.9c0,-1.1 0.433,-2.333 1.3,-3.7c0.967,-1.533 1.967,-2.3 3,-2.3c0.567,0 1.017,0.45 1.35,1.35c0.3,0.7 0.45,1.367 0.45,2c-0,1.467 -0.617,2.883 -1.85,4.25c0.5,0.3 1.167,0.45 2,0.45l0.25,0l0,-0.1l5.6,0c0.433,0 1.033,-0.1 1.8,-0.3c0.9,-0.267 1.35,-0.517 1.35,-0.75c0,-0.3 -0.267,-0.85 -0.8,-1.65c-0.833,0.6 -1.617,0.9 -2.35,0.9c-0.7,0 -1.25,-0.233 -1.65,-0.7c-0.367,-0.433 -0.55,-1 -0.55,-1.7c0,-0.833 0.267,-1.75 0.8,-2.75c0.6,-1.133 1.283,-1.7 2.05,-1.7l1,0.55Zm-10.15,6.25c-0.533,0.533 -0.9,0.8 -1.1,0.8c-0.167,0 -0.467,-0.2 -0.9,-0.6c-0.433,-0.367 -0.65,-0.65 -0.65,-0.85c-0,-0.3 0.25,-0.683 0.75,-1.15c0.467,-0.467 0.867,-0.7 1.2,-0.7c0.367,0 0.7,0.133 1,0.4c0.333,0.3 0.5,0.617 0.5,0.95c0,0.233 -0.267,0.617 -0.8,1.15Zm9.95,-2.75l0,0.4c-0.633,0.2 -1.05,0.3 -1.25,0.3c-0.167,0 -0.383,-0.05 -0.65,-0.15l-0.6,-0.3c0.167,-0.533 0.3,-0.85 0.4,-0.95c0.1,-0.133 0.383,-0.35 0.85,-0.65c0.5,0.333 0.917,0.783 1.25,1.35Z" style="fill:#f00;"/><path d="M38.55,19.2l1.85,-1.7l-1.85,-1.7l-1.8,1.7l1.8,1.7Z" style="fill:#f00;"/><path d="M36.75,17.5l-1.8,-1.7l-1.85,1.7l1.8,1.7l1.85,-1.7Z" style="fill:#f00;"/><path d="M24.15,16.35l2.1,2l2.1,-2l-2.1,-1.95l-2.1,1.95Z" style="fill:#f00;"/></g></svg>