<?xml version="1.0" encoding="UTF-8" standalone="no"?><!DOCTYPE svg PUBLIC "-//W3C//DTD SVG 1.1//EN" "http://www.w3.org/Graphics/SVG/1.1/DTD/svg11.dtd"><svg width="100%" height="100%" viewBox="0 0 60 62" version="1.1" xmlns="http://www.w3.org/2000/svg" xmlns:xlink="http://www.w3.org/1999/xlink" xml:space="preserve" xmlns:serif="http://www.serif.com/" style="fill-rule:evenodd;clip-rule:evenodd;stroke-linejoin:round;stroke-miterlimit:2;"><g><path d="M25.35,46.2l-2.1,-2l-2.1,2l2.1,1.95l2.1,-1.95Z"/><path d="M25.7,31.75c-0.567,1.2 -1.017,2.1 -1.35,2.7c0.533,0.933 0.867,1.617 1,2.05c-0.519,0.611 -1.919,0.927 -4.2,0.95l-1.65,-0l0,3.35l1.1,0c0.198,-0.004 0.381,-0.021 0.55,-0.05c1.709,-0.052 2.976,-0.402 3.8,-1.05c1,-0.833 1.5,-2.233 1.5,-4.2c0,-0.533 -0.25,-1.783 -0.75,-3.75Z"/><path d="M45.9,31.75c-0.533,1.2 -0.967,2.1 -1.3,2.7c0.5,0.933 0.817,1.617 0.95,2.05c-0.533,0.667 -2.133,0.983 -4.8,0.95l-1,-0l-0,0.1c-0.324,0.005 -0.657,-0.012 -1,-0.05c-0.3,-0.667 -0.617,-1.317 -0.95,-1.95c-0.5,-0.867 -1.017,-1.3 -1.55,-1.3c-0.633,-0 -1.3,0.633 -2,1.9c-0.633,1.167 -0.95,2.117 -0.95,2.85c-0,0.9 0.45,1.467 1.35,1.7c0.867,0.133 1.717,0.267 2.55,0.4c-1,1.4 -2.033,2.433 -3.1,3.1c-1.233,0.733 -2.667,1.1 -4.3,1.1c-0.9,0 -2.2,-0.067 -3.9,-0.2c1.6,1.5 3.433,2.25 5.5,2.25c1.8,0 3.333,-0.717 4.6,-2.15c0.9,-0.967 1.767,-2.433 2.6,-4.4l2.65,0c1.788,-0.072 3.088,-0.439 3.9,-1.1c1,-0.833 1.5,-2.233 1.5,-4.2c0,-0.533 -0.25,-1.783 -0.75,-3.75Zm-9.4,5.7c0.133,0.167 0.267,0.533 0.4,1.1c-0.533,0 -1.167,-0.05 -1.9,-0.15c0,-0.267 -0.05,-0.433 -0.15,-0.5c0.2,-0.4 0.4,-0.767 0.6,-1.1c0.567,0.233 0.917,0.45 1.05,0.65Z"/><path d="M44.55,26.9l1.8,1.7l1.9,-1.75l-1.9,-1.7l-1.8,1.75Z"/><path d="M44.55,26.9l-1.8,-1.75l-1.85,1.7l1.85,1.75l1.8,-1.7Z"/><path d="M34.7,18.2c-0.733,-0 -1.283,0.317 -1.65,0.95c-0.333,0.533 -0.5,1.183 -0.5,1.95c-0,1.233 0.55,1.85 1.65,1.85c0.667,-0 1.233,-0.267 1.7,-0.8c0.467,-0.5 0.7,-1.067 0.7,-1.7c-0,-0.567 -0.167,-1.067 -0.5,-1.5c-0.4,-0.5 -0.867,-0.75 -1.4,-0.75Zm-0.7,1.3c0.267,0 0.617,0.15 1.05,0.45c0.467,0.333 0.7,0.617 0.7,0.85c-0,0.4 -0.417,0.6 -1.25,0.6c-0.967,-0 -1.45,-0.3 -1.45,-0.9c-0,-0.667 0.317,-1 0.95,-1Z"/><path d="M21.15,40.8l0,-0.05c-0.169,0.029 -0.352,0.046 -0.55,0.05l0.55,0Z" style="fill:#f00;"/><path d="M15.6,30.488c0.1,0.808 0.25,1.695 0.45,2.662c0.5,2.433 1.133,3.8 1.9,4.1c0.233,0.1 1.3,0.15 3.2,0.15l0,0.05l-1.65,-0l0,3.35l-1.25,0c-0.733,0 -1.333,-0.417 -1.8,-1.25c-0.3,-0.733 -0.6,-1.467 -0.9,-2.2c-0.667,0.933 -1.333,1.533 -2,1.8c-0.533,0.2 -1.4,0.3 -2.6,0.3c-1.3,0 -1.95,-0.267 -1.95,-0.8c0,-1.5 0.567,-2.8 1.7,-3.9c0.767,-0.733 2.033,-1.533 3.8,-2.4l-0.2,-2.25c-0.033,-0.267 0.35,-0.867 1.15,-1.8l0.15,2.188Zm-0.95,3.462c0.2,0.767 0.3,1.217 0.3,1.35c0,0.167 -0.317,0.333 -0.95,0.5c-0.533,0.167 -0.95,0.25 -1.25,0.25c-0.367,0 -0.833,-0.1 -1.4,-0.3c1.2,-0.767 2.3,-1.367 3.3,-1.8Z" style="fill:#f00;"/><path d="M13.45,14.3c-0.633,0 -1.117,0.3 -1.45,0.9c-0.267,0.5 -0.4,1.117 -0.4,1.85c-0,1.133 0.483,1.7 1.45,1.7c0.567,0 1.05,-0.233 1.45,-0.7c0.367,-0.5 0.55,-1.05 0.55,-1.65c-0,-0.533 -0.133,-1 -0.4,-1.4c-0.333,-0.467 -0.733,-0.7 -1.2,-0.7Zm-1.4,2.2c-0,-0.633 0.267,-0.95 0.8,-0.95c0.233,0 0.533,0.133 0.9,0.4c0.4,0.3 0.6,0.567 0.6,0.8c-0,0.4 -0.35,0.6 -1.05,0.6c-0.833,0 -1.25,-0.283 -1.25,-0.85Z" style="fill:#f00;"/><path d="M45.904,15.74l-4.7,2c-0.254,0.108 -0.372,0.402 -0.264,0.656c0.108,0.254 0.402,0.372 0.656,0.264l4.7,-2c0.254,-0.108 0.372,-0.402 0.264,-0.656c-0.108,-0.254 -0.402,-0.372 -0.656,-0.264Z"/><path d="M25.456,15.739l-4.75,2c-0.254,0.107 -0.374,0.401 -0.267,0.655c0.107,0.254 0.401,0.374 0.655,0.267l4.75,-2c0.254,-0.107 0.374,-0.401 0.267,-0.655c-0.107,-0.254 -0.401,-0.374 -0.655,-0.267Z"/></g></svg>