<?xml version="1.0" encoding="UTF-8" standalone="no"?><!DOCTYPE svg PUBLIC "-//W3C//DTD SVG 1.1//EN" "http://www.w3.org/Graphics/SVG/1.1/DTD/svg11.dtd"><svg width="100%" height="100%" viewBox="0 0 43 48" version="1.1" xmlns="http://www.w3.org/2000/svg" xmlns:xlink="http://www.w3.org/1999/xlink" xml:space="preserve" xmlns:serif="http://www.serif.com/" style="fill-rule:evenodd;clip-rule:evenodd;stroke-linejoin:round;stroke-miterlimit:2;"><g><path d="M35.7,20.45c0,-0.767 -0.283,-1.417 -0.85,-1.95c-0.6,-0.5 -1.3,-0.75 -2.1,-0.75c-1.267,0 -2.85,0.617 -4.75,1.85c-1.067,0.667 -2.55,1.8 -4.45,3.4c-1.467,1.233 -2.317,1.85 -2.55,1.85c-0.833,-0 -1.483,-0.217 -1.95,-0.65c-0.267,-0.267 -0.65,-0.833 -1.15,-1.7c-0.467,0.967 -0.783,1.783 -0.95,2.45c0.633,1.4 1,2.217 1.1,2.45c0.3,0.867 0.45,1.733 0.45,2.6c-0,0.8 -0.767,1.467 -2.3,2c-1.2,0.4 -2.317,0.6 -3.35,0.6c-1.7,-0 -2.967,-0.25 -3.8,-0.75c-1.067,-0.633 -1.6,-1.7 -1.6,-3.2c0,-0.433 0.1,-1.033 0.3,-1.8c0.167,-0.6 0.333,-1.2 0.5,-1.8c-0.533,0.533 -1.017,1.4 -1.45,2.6c-0.4,1.133 -0.6,2.117 -0.6,2.95c0,3.533 1.8,5.3 5.4,5.3c2.367,0 4.25,-0.75 5.65,-2.25c1.333,-1.333 2.117,-3.167 2.35,-5.5c3.933,0 7.233,-0.4 9.9,-1.2c4.133,-1.3 6.2,-3.467 6.2,-6.5Zm-2.35,1.85c0,0.6 -0.95,1.183 -2.85,1.75c-1.633,0.433 -2.917,0.65 -3.85,0.65l-3.6,0c0.8,-0.733 1.867,-1.533 3.2,-2.4c1.633,-1.067 2.817,-1.6 3.55,-1.6c0.5,0 1.183,0.167 2.05,0.5c1,0.4 1.5,0.767 1.5,1.1Z" style="fill:#f00;"/></g></svg>