<?xml version="1.0" encoding="UTF-8" standalone="no"?><!DOCTYPE svg PUBLIC "-//W3C//DTD SVG 1.1//EN" "http://www.w3.org/Graphics/SVG/1.1/DTD/svg11.dtd"><svg width="100%" height="100%" viewBox="0 0 37 48" version="1.1" xmlns="http://www.w3.org/2000/svg" xmlns:xlink="http://www.w3.org/1999/xlink" xml:space="preserve" xmlns:serif="http://www.serif.com/" style="fill-rule:evenodd;clip-rule:evenodd;stroke-linejoin:round;stroke-miterlimit:2;"><g><path d="M21.6,28.7c0,-1.167 -0.233,-2.383 -0.7,-3.65c-0.6,-1.633 -1.383,-2.45 -2.35,-2.45c-0.733,-0 -1.417,0.55 -2.05,1.65c-0.567,0.967 -0.85,1.85 -0.85,2.65c-0,1.7 1.117,2.55 3.35,2.55c0.233,0 0.733,-0.05 1.5,-0.15l0,1.2c-0.833,0.967 -1.95,1.717 -3.35,2.25c-1.233,0.467 -2.583,0.7 -4.05,0.7c-3.533,0 -5.3,-1.333 -5.3,-4c-0,-0.767 0.267,-2.017 0.8,-3.75c-0.667,0.267 -1.2,1.05 -1.6,2.35c-0.3,1 -0.45,1.983 -0.45,2.95c-0,1.8 0.517,3.2 1.55,4.2c1.067,1 2.55,1.5 4.45,1.5c2.267,0 4.333,-0.783 6.2,-2.35c1.9,-1.667 2.85,-3.55 2.85,-5.65Zm-2.35,-1.95l-1.1,0.15c-0.133,0 -0.55,-0.15 -1.25,-0.45l-0,-0.45c0.633,-0.8 1.033,-1.2 1.2,-1.2c0.267,-0 0.65,0.4 1.15,1.2l0,0.75Z" style="fill:#f00;"/><path d="M15.9,18.85l1.8,-1.75l-1.8,-1.75l-1.85,1.7l1.85,1.8Z" style="fill:#f00;"/><path d="M17.7,17.1l1.8,1.75l1.85,-1.8l-1.85,-1.7l-1.8,1.75Z" style="fill:#f00;"/></g></svg>