<?xml version="1.0" encoding="UTF-8" standalone="no"?><!DOCTYPE svg PUBLIC "-//W3C//DTD SVG 1.1//EN" "http://www.w3.org/Graphics/SVG/1.1/DTD/svg11.dtd"><svg width="100%" height="100%" viewBox="0 0 47 38" version="1.1" xmlns="http://www.w3.org/2000/svg" xmlns:xlink="http://www.w3.org/1999/xlink" xml:space="preserve" xmlns:serif="http://www.serif.com/" style="fill-rule:evenodd;clip-rule:evenodd;stroke-linejoin:round;stroke-miterlimit:2;"><g><path d="M14.2,10.8c-0.467,-0 -0.833,0.2 -1.1,0.6c-0.267,0.333 -0.4,0.75 -0.4,1.25c0,0.8 0.283,1.567 0.85,2.3c0.6,0.8 1.3,1.2 2.1,1.2c0.4,0 0.683,-0.067 0.85,-0.2c0.333,-0.233 0.533,-0.367 0.6,-0.4c0.6,0.367 1.75,1.55 3.45,3.55c1.267,1.533 2.3,2.85 3.1,3.95c-0.3,0.533 -0.783,1.183 -1.45,1.95c-0.767,0.867 -1.367,1.433 -1.8,1.7l-1.4,-0.45l-0,3.2c0.933,0.267 2.167,0.4 3.7,0.4c1.4,-0 2.317,-0.183 2.75,-0.55c0.467,-0.4 0.7,-1.267 0.7,-2.6c0,-1.7 -0.367,-3.033 -1.1,-4c0.333,-0.833 0.617,-2.1 0.85,-3.8c0.2,-1.633 0.45,-2.8 0.75,-3.5l0.25,0.25c0.433,-0.233 0.783,-0.667 1.05,-1.3c0.067,-0.167 0.233,-0.717 0.5,-1.65c-1.133,-0.5 -1.7,-1.167 -1.7,-2c-0,-0.333 0.05,-0.75 0.15,-1.25c-1.033,0.8 -1.767,1.967 -2.2,3.5c0.033,0.167 0.2,0.467 0.5,0.9c0.3,0.367 0.45,0.633 0.45,0.8c0,0.567 -0.15,1.717 -0.45,3.45c-0.3,1.833 -0.55,2.917 -0.75,3.25c-2.833,-3.767 -4.383,-5.817 -4.65,-6.15c-2.467,-2.933 -4.333,-4.4 -5.6,-4.4Zm8.05,15.9c1.033,-0.867 1.717,-1.7 2.05,-2.5c0.033,0.1 0.167,0.417 0.4,0.95l0.35,0.8l-0.15,0.6c-1.5,0.1 -2.383,0.15 -2.65,0.15Z" style="fill:#f00;"/></g></svg>