<?xml version="1.0" encoding="UTF-8" standalone="no"?><!DOCTYPE svg PUBLIC "-//W3C//DTD SVG 1.1//EN" "http://www.w3.org/Graphics/SVG/1.1/DTD/svg11.dtd"><svg width="100%" height="100%" viewBox="0 0 57 55" version="1.1" xmlns="http://www.w3.org/2000/svg" xmlns:xlink="http://www.w3.org/1999/xlink" xml:space="preserve" xmlns:serif="http://www.serif.com/" style="fill-rule:evenodd;clip-rule:evenodd;stroke-linejoin:round;stroke-miterlimit:2;"><g><path d="M11.45,43.2l2.1,1.95l2.1,-1.95l-2.1,-2l-2.1,2Z"/><path d="M23.2,17.1c-1.267,1.567 -1.883,2.517 -1.85,2.85l0.45,17.9c1.033,-0.833 1.55,-3 1.55,-6.5l-0.15,-14.25Z"/><path d="M6,28.6c0,2.3 0.283,3.817 0.85,4.55c0.7,0.833 2.183,1.25 4.45,1.25l0,0.05c2.37,-0.009 3.82,-0.326 4.35,-0.95c-0.133,-0.433 -0.467,-1.117 -1,-2.05c0.333,-0.6 0.783,-1.5 1.35,-2.7c0.5,1.967 0.75,3.217 0.75,3.75c-0,1.967 -0.5,3.367 -1.5,4.2c-0.848,0.667 -2.165,1.033 -3.95,1.1l-2.8,0c-1.067,0 -1.9,-0.367 -2.5,-1.1c-0.733,-0.9 -1.183,-3.533 -1.35,-7.9c-0.067,-1.3 -0.1,-4.217 -0.1,-8.75c0,-0.567 0.133,-1.017 0.4,-1.35c0.333,-0.333 0.683,-0.667 1.05,-1l-0,10.9Z"/><path d="M38,34.45l-1,-0l0,0.1c-0.324,0.005 -0.657,-0.012 -1,-0.05c-0.3,-0.667 -0.617,-1.317 -0.95,-1.95c-0.5,-0.867 -1.017,-1.3 -1.55,-1.3c-0.633,-0 -1.3,0.633 -2,1.9c-0.633,1.167 -0.95,2.117 -0.95,2.85c0,0.9 0.45,1.467 1.35,1.7c0.867,0.133 1.717,0.267 2.55,0.4c-1,1.4 -2.033,2.433 -3.1,3.1c-1.233,0.733 -2.667,1.1 -4.3,1.1c-0.9,0 -2.2,-0.067 -3.9,-0.2c1.6,1.5 3.433,2.25 5.5,2.25c1.8,-0 3.333,-0.717 4.6,-2.15c0.9,-0.967 1.767,-2.433 2.6,-4.4l2.65,0c1.788,-0.072 3.088,-0.439 3.9,-1.1c1,-0.833 1.5,-2.233 1.5,-4.2c-0,-0.533 -0.25,-1.783 -0.75,-3.75c-0.533,1.2 -0.967,2.1 -1.3,2.7c0.5,0.933 0.817,1.617 0.95,2.05c-0.533,0.667 -2.133,0.983 -4.8,0.95Zm-3.85,1.1c-0.533,0 -1.167,-0.05 -1.9,-0.15c-0,-0.267 -0.05,-0.433 -0.15,-0.5c0.2,-0.4 0.4,-0.767 0.6,-1.1c0.567,0.233 0.917,0.45 1.05,0.65c0.133,0.167 0.267,0.533 0.4,1.1Z"/><path d="M43.6,22.15l-1.8,1.75l1.8,1.7l1.9,-1.75l-1.9,-1.7Z"/><path d="M40,25.6l1.8,-1.7l-1.8,-1.75l-1.85,1.7l1.85,1.75Z"/><path d="M31,18.25c0,-0.333 -0.05,-0.683 -0.15,-1.05l-0.25,0.1c0,1.1 -0.25,1.65 -0.75,1.65c-0.267,-0 -0.483,-0.367 -0.65,-1.1l-0.2,0.05c-0.1,0.533 -0.183,0.9 -0.25,1.1c-0.167,0.467 -0.417,0.7 -0.75,0.7c-0.267,-0 -0.4,-0.4 -0.4,-1.2l-0.25,0c-0.167,0.567 -0.25,0.933 -0.25,1.1c0,0.333 0.067,0.6 0.2,0.8c0.167,0.267 0.4,0.4 0.7,0.4c0.233,0 0.483,-0.083 0.75,-0.25c0.233,-0.2 0.367,-0.433 0.4,-0.7c0.2,0.167 0.433,0.25 0.7,0.25c0.767,-0 1.15,-0.617 1.15,-1.85Z"/><path d="M43.756,12.289l-4.75,2c-0.254,0.107 -0.374,0.401 -0.267,0.655c0.107,0.254 0.401,0.374 0.655,0.267l4.75,-2c0.254,-0.107 0.374,-0.401 0.267,-0.655c-0.107,-0.254 -0.401,-0.374 -0.655,-0.267Z"/><path d="M30.854,11.79l-4.7,2c-0.254,0.108 -0.372,0.402 -0.264,0.656c0.108,0.254 0.402,0.372 0.656,0.264l4.7,-2c0.254,-0.108 0.372,-0.402 0.264,-0.656c-0.108,-0.254 -0.402,-0.372 -0.656,-0.264Z"/><path d="M13.856,13.789l-4.75,2c-0.254,0.107 -0.374,0.401 -0.267,0.655c0.107,0.254 0.401,0.374 0.655,0.267l4.75,-2c0.254,-0.107 0.374,-0.401 0.267,-0.655c-0.107,-0.254 -0.401,-0.374 -0.655,-0.267Z" style="fill:#f00;"/><path d="M13.254,11.79l-4.7,2c-0.254,0.108 -0.372,0.402 -0.264,0.656c0.108,0.254 0.402,0.372 0.656,0.264l4.7,-2c0.254,-0.108 0.372,-0.402 0.264,-0.656c-0.108,-0.254 -0.402,-0.372 -0.656,-0.264Z" style="fill:#f00;"/></g></svg>