<?xml version="1.0" encoding="UTF-8" standalone="no"?><!DOCTYPE svg PUBLIC "-//W3C//DTD SVG 1.1//EN" "http://www.w3.org/Graphics/SVG/1.1/DTD/svg11.dtd"><svg width="100%" height="100%" viewBox="0 0 25 36" version="1.1" xmlns="http://www.w3.org/2000/svg" xmlns:xlink="http://www.w3.org/1999/xlink" xml:space="preserve" xmlns:serif="http://www.serif.com/" style="fill-rule:evenodd;clip-rule:evenodd;stroke-linejoin:round;stroke-miterlimit:2;"><g><path d="M9.633,23.33c-1.133,1.1 -1.7,2.4 -1.7,3.9c0,0.533 0.65,0.8 1.95,0.8c1.2,-0 2.067,-0.1 2.6,-0.3c0.667,-0.267 1.334,-0.867 2,-1.8c0.3,0.733 0.6,1.466 0.9,2.2c0.467,0.833 1.067,1.25 1.8,1.25l2.9,-0l0,-3.4c-1.9,-0 -2.966,-0.05 -3.2,-0.15c-0.766,-0.3 -1.4,-1.667 -1.9,-4.1c-0.4,-1.934 -0.6,-3.55 -0.6,-4.85c-0.8,0.933 -1.183,1.533 -1.15,1.8l0.2,2.25c-1.766,0.866 -3.033,1.666 -3.8,2.4Zm2.05,1.3c-0.366,-0 -0.833,-0.1 -1.4,-0.3c1.2,-0.767 2.3,-1.367 3.3,-1.8c0.2,0.766 0.3,1.216 0.3,1.35c0,0.166 -0.316,0.333 -0.95,0.5c-0.533,0.166 -0.95,0.25 -1.25,0.25Z" style="fill:#f00;"/><path d="M14.833,11.58l-1.8,1.7l1.8,1.75l1.85,-1.75l-1.85,-1.7Z" style="fill:#f00;"/><path d="M11.233,11.58l-1.85,1.7l1.8,1.75l1.8,-1.75l-1.75,-1.7Z" style="fill:#f00;"/><path d="M13.033,13.28l-0.05,-0l0.05,0.05l0,-0.05Z" style="fill:#f00;"/></g></svg>