<?xml version="1.0" encoding="UTF-8" standalone="no"?><!DOCTYPE svg PUBLIC "-//W3C//DTD SVG 1.1//EN" "http://www.w3.org/Graphics/SVG/1.1/DTD/svg11.dtd"><svg width="100%" height="100%" viewBox="0 0 61 67" version="1.1" xmlns="http://www.w3.org/2000/svg" xmlns:xlink="http://www.w3.org/1999/xlink" xml:space="preserve" xmlns:serif="http://www.serif.com/" style="fill-rule:evenodd;clip-rule:evenodd;stroke-linejoin:round;stroke-miterlimit:2;"><g><path d="M30.9,46.8l1.85,-1.75l-1.85,-1.7l-1.8,1.7l1.8,1.75Z"/><path d="M36.4,45.05l-1.85,-1.7l-1.8,1.7l1.8,1.75l1.85,-1.75Z"/><path d="M48.9,36.65c-0,-1.767 -0.45,-3.35 -1.35,-4.75c-0.967,-1.467 -2.283,-2.467 -3.95,-3c-0.133,0.5 -0.2,1.1 -0.2,1.8l0.05,2.35c0.967,0 2,0.4 3.1,1.2c1.133,0.867 1.7,1.75 1.7,2.65c0,0.367 -0.633,0.683 -1.9,0.95c-0.967,0.167 -1.783,0.25 -2.45,0.25c-0.933,-0 -1.867,-0.25 -2.8,-0.75c-0.133,1.233 -0.2,1.917 -0.2,2.05c-0,0.933 0.333,1.517 1,1.75c0.333,0.133 1.1,0.2 2.3,0.2c1.533,-0 2.717,-0.433 3.55,-1.3c0.767,-0.8 1.15,-1.933 1.15,-3.4Z"/><path d="M20.6,37.25l-0.8,0l-0,3.4l2.15,0c0.667,0 1.233,-0.25 1.7,-0.75c0.1,-0.133 0.433,-0.65 1,-1.55c0.7,0.967 1.067,1.483 1.1,1.55c0.467,0.5 1.017,0.75 1.65,0.75l2.4,0c1.76,-0.073 3.06,-0.44 3.9,-1.1c1,-0.833 1.5,-2.233 1.5,-4.2c0,-0.533 -0.25,-1.783 -0.75,-3.75c-0.567,1.2 -1.017,2.1 -1.35,2.7c0.533,0.933 0.867,1.617 1,2.05c-0.527,0.62 -1.96,0.936 -4.3,0.95l-0,-0.05c-1.8,0 -2.867,-0.067 -3.2,-0.2c-0.667,-0.333 -1,-1.233 -1,-2.7c-0.533,0.4 -0.9,0.917 -1.1,1.55c-0.133,0.533 -0.4,0.867 -0.8,1c-0.54,0.199 -1.573,0.316 -3.1,0.35Z"/><path d="M24.55,30.8l2.1,-1.9l-2.1,-2l-2.1,2l2.1,1.9Z"/><path d="M19.8,37.25l-0.85,0c-1.567,0 -2.95,0.433 -4.15,1.3c-1.3,0.967 -1.95,2.15 -1.95,3.55c0,0.667 0.35,1.15 1.05,1.45c0.4,0.167 1.117,0.333 2.15,0.5c1,0.133 1.633,0.283 1.9,0.45c-0.3,0.567 -1.533,1.083 -3.7,1.55c-1.8,0.367 -3.267,0.55 -4.4,0.55c-1.833,0 -3.25,-0.167 -4.25,-0.5c-1.533,-0.567 -2.3,-1.583 -2.3,-3.05c-0,-0.633 0.233,-1.433 0.7,-2.4c0.6,-1.2 0.95,-2 1.05,-2.4c-0.833,0.533 -1.633,1.45 -2.4,2.75c-0.8,1.3 -1.2,2.4 -1.2,3.3c0,1.767 0.833,3.083 2.5,3.95c1.3,0.7 2.967,1.05 5,1.05c4.533,0 7.883,-1.317 10.05,-3.95c0.667,-0.8 1,-1.417 1,-1.85c0,-0.733 -0.75,-1.233 -2.25,-1.5c-1.033,-0.167 -2.083,-0.333 -3.15,-0.5c0.344,-0.487 2.077,-0.77 5.2,-0.85l-0,-3.4Z" style="fill:#f00;"/><path d="M47.506,48.539l-4.75,2c-0.254,0.107 -0.374,0.401 -0.267,0.655c0.107,0.254 0.401,0.374 0.655,0.267l4.75,-2c0.254,-0.107 0.374,-0.401 0.267,-0.655c-0.107,-0.254 -0.401,-0.374 -0.655,-0.267Z"/><path d="M25.006,49.039l-4.75,2c-0.254,0.107 -0.374,0.401 -0.267,0.655c0.107,0.254 0.401,0.374 0.655,0.267l4.75,-2c0.254,-0.107 0.374,-0.401 0.267,-0.655c-0.107,-0.254 -0.401,-0.374 -0.655,-0.267Z" style="fill:#f00;"/></g></svg>