<?xml version="1.0" encoding="UTF-8" standalone="no"?><!DOCTYPE svg PUBLIC "-//W3C//DTD SVG 1.1//EN" "http://www.w3.org/Graphics/SVG/1.1/DTD/svg11.dtd"><svg width="100%" height="100%" viewBox="0 0 77 67" version="1.1" xmlns="http://www.w3.org/2000/svg" xmlns:xlink="http://www.w3.org/1999/xlink" xml:space="preserve" xmlns:serif="http://www.serif.com/" style="fill-rule:evenodd;clip-rule:evenodd;stroke-linejoin:round;stroke-miterlimit:2;"><g><path d="M58.9,30.3c-0.967,0 -1.75,0.467 -2.35,1.4c-0.367,0.567 -0.733,1.433 -1.1,2.6c0.4,-0.167 0.783,-0.35 1.15,-0.55c0.5,-0.233 0.917,-0.35 1.25,-0.35c0.5,0 1.217,0.233 2.15,0.7c0.033,0.033 0.717,0.4 2.05,1.1c-0.933,0.733 -1.75,1.217 -2.45,1.45c-0.567,0.233 -1.3,0.35 -2.2,0.35c-0.233,-0 -0.7,-0.017 -1.4,-0.05c-0.102,-0.005 -0.202,-0.021 -0.3,-0.05l-1.35,-0c-1.4,-0.035 -2.1,-0.385 -2.1,-1.05c0,-0.067 0.05,-0.217 0.15,-0.45c0.067,-0.2 0.1,-0.35 0.1,-0.45c0,-0.333 -0.083,-0.683 -0.25,-1.05c-0.333,0.667 -0.683,1.333 -1.05,2c-0.5,0.733 -1.1,1.1 -1.8,1.1c-0.9,-0 -1.517,-0.233 -1.85,-0.7c0.233,-0.833 0.35,-1.633 0.35,-2.4c-0.533,0.767 -1.05,1.517 -1.55,2.25c-0.567,0.567 -1.467,0.85 -2.7,0.85c-1.067,-0 -1.833,-0.15 -2.3,-0.45c-0.533,-0.4 -0.8,-1.083 -0.8,-2.05c-0.867,1.067 -1.583,1.75 -2.15,2.05c-0.467,0.233 -1.2,0.35 -2.2,0.35l-1.45,-0c-1.259,-0.024 -2.026,-0.09 -2.3,-0.2c-0.667,-0.333 -1,-1.233 -1,-2.7c-0.533,0.4 -0.9,0.917 -1.1,1.55c-0.133,0.533 -0.4,0.867 -0.8,1c-0.537,0.198 -1.554,0.315 -3.05,0.35l-0.85,0l-0,3.4l2.15,0c0.667,0 1.233,-0.25 1.7,-0.75c0.1,-0.133 0.433,-0.65 1,-1.55c0.7,0.967 1.067,1.483 1.1,1.55c0.467,0.5 1.017,0.75 1.65,0.75l4.3,0c0.567,0 1.267,-0.4 2.1,-1.2c0.6,0.267 1.2,0.533 1.8,0.8c0.7,0.267 1.3,0.4 1.8,0.4c1.067,0 2.133,-0.35 3.2,-1.05c0.433,0.233 0.883,0.45 1.35,0.65c0.533,0.267 0.967,0.4 1.3,0.4c0.667,0 1.333,-0.35 2,-1.05c0.833,0.7 1.383,1.05 1.65,1.05l3.95,0c1,0 1.95,-0.25 2.85,-0.75c0.333,-0.167 1.05,-0.65 2.15,-1.45c0.8,-0.633 1.5,-1.033 2.1,-1.2c0.533,-0.133 1.183,-0.217 1.95,-0.25c0.667,0 1.333,-0.017 2,-0.05c0.4,-0.967 0.717,-2.033 0.95,-3.2c-1.6,0 -3.117,-0.267 -4.55,-0.8c-0.667,-0.233 -1.667,-0.733 -3,-1.5c-0.967,-0.533 -1.717,-0.8 -2.25,-0.8Z"/><path d="M30.4,30.45l2.1,-1.9l-2.1,-2l-2.1,2l2.1,1.9Z"/><path d="M47.45,18.5c0,-0.567 -0.183,-1.083 -0.55,-1.55c-0.367,-0.533 -0.833,-0.8 -1.4,-0.8c-0.733,0 -1.3,0.333 -1.7,1c-0.3,0.567 -0.45,1.25 -0.45,2.05c0,1.333 0.55,2 1.65,2c0.667,-0 1.233,-0.283 1.7,-0.85c0.5,-0.533 0.75,-1.15 0.75,-1.85Zm-1.6,-0.5c0.467,0.333 0.7,0.633 0.7,0.9c-0,0.467 -0.4,0.7 -1.2,0.7c-1,0 -1.5,-0.333 -1.5,-1c0,-0.7 0.317,-1.05 0.95,-1.05c0.267,0 0.617,0.15 1.05,0.45Z"/><path d="M61.45,19.85l0.1,-1.45c-0.3,-0.233 -0.533,-0.383 -0.7,-0.45c0.4,-0.767 0.6,-1.367 0.6,-1.8c0,-0.9 -0.417,-1.35 -1.25,-1.35c-0.6,0 -1.117,0.317 -1.55,0.95c-0.4,0.567 -0.6,1.1 -0.6,1.6c-0,0.433 0.383,0.883 1.15,1.35c-1.4,1.067 -2.7,1.867 -3.9,2.4c0.433,0.1 0.783,0.15 1.05,0.15c1,0 2.2,-0.717 3.6,-2.15c0.567,0.333 1.067,0.583 1.5,0.75Zm-1.15,-2.8c-0,0.133 -0.033,0.283 -0.1,0.45c-0.8,-0.4 -1.2,-0.767 -1.2,-1.1c0.033,-0.167 0.133,-0.267 0.3,-0.3c0.667,0.1 1,0.417 1,0.95Z"/><path d="M25.65,40.3l-0,-3.4l-0.8,0c-1.567,0 -2.95,0.433 -4.15,1.3c-1.3,0.967 -1.95,2.15 -1.95,3.55c-0,0.667 0.35,1.15 1.05,1.45c0.4,0.167 1.117,0.333 2.15,0.5c1,0.133 1.633,0.283 1.9,0.45c-0.3,0.567 -1.533,1.083 -3.7,1.55c-1.8,0.367 -3.267,0.55 -4.4,0.55c-1.833,0 -3.25,-0.167 -4.25,-0.5c-1.533,-0.567 -2.3,-1.583 -2.3,-3.05c0,-0.633 0.233,-1.433 0.7,-2.4c0.6,-1.2 0.95,-2 1.05,-2.4c-0.833,0.533 -1.633,1.45 -2.4,2.75c-0.8,1.3 -1.2,2.4 -1.2,3.3c0,1.767 0.833,3.083 2.5,3.95c1.3,0.7 2.967,1.05 5,1.05c4.533,-0 7.883,-1.317 10.05,-3.95c0.667,-0.8 1,-1.417 1,-1.85c-0,-0.733 -0.75,-1.233 -2.25,-1.5c-1.033,-0.167 -2.083,-0.333 -3.15,-0.5c0.357,-0.506 2.207,-0.789 5.55,-0.85l-0.4,0Z" style="fill:#f00;"/><path d="M28.156,15.889l-4.75,2c-0.254,0.107 -0.374,0.401 -0.267,0.655c0.107,0.254 0.401,0.374 0.655,0.267l4.75,-2c0.254,-0.107 0.374,-0.401 0.267,-0.655c-0.107,-0.254 -0.401,-0.374 -0.655,-0.267Z" style="fill:#f00;"/></g></svg>