<?xml version="1.0" encoding="UTF-8" standalone="no"?><!DOCTYPE svg PUBLIC "-//W3C//DTD SVG 1.1//EN" "http://www.w3.org/Graphics/SVG/1.1/DTD/svg11.dtd"><svg width="100%" height="100%" viewBox="0 0 266 75" version="1.1" xmlns="http://www.w3.org/2000/svg" xmlns:xlink="http://www.w3.org/1999/xlink" xml:space="preserve" xmlns:serif="http://www.serif.com/" style="fill-rule:evenodd;clip-rule:evenodd;stroke-linejoin:round;stroke-miterlimit:2;"><g><path d="M111.9,56.25c0,1.8 0.867,3.15 2.6,4.05c1.367,0.7 3.083,1.05 5.15,1.05c4.733,0 8.217,-1.333 10.45,-4c0.7,-0.833 1.05,-1.467 1.05,-1.9c0,-0.767 -0.783,-1.3 -2.35,-1.6c-1.1,-0.167 -2.183,-0.317 -3.25,-0.45c0.374,-0.518 2.174,-0.818 5.4,-0.9l2.2,0c0.7,0 1.283,-0.25 1.75,-0.75c0.133,-0.167 0.483,-0.7 1.05,-1.6c0.7,1 1.067,1.517 1.1,1.55c0.5,0.533 1.083,0.8 1.75,0.8l2.5,0c1.83,-0.079 3.163,-0.462 4,-1.15c1.033,-0.833 1.55,-2.267 1.55,-4.3c-0,-0.533 -0.25,-1.8 -0.75,-3.8c-0.567,1.2 -1.033,2.117 -1.4,2.75c0.533,0.967 0.867,1.667 1,2.1c-0.524,0.617 -1.991,0.934 -4.4,0.95l-1.1,-0c-1.205,-0.036 -1.939,-0.119 -2.2,-0.25c-0.7,-0.333 -1.05,-1.25 -1.05,-2.75c-0.567,0.4 -0.95,0.933 -1.15,1.6c-0.167,0.533 -0.45,0.867 -0.85,1c-0.543,0.229 -1.61,0.362 -3.2,0.4l-1.75,-0c-1.6,-0 -3.017,0.433 -4.25,1.3c-1.367,0.967 -2.05,2.183 -2.05,3.65c0,0.667 0.367,1.15 1.1,1.45c0.433,0.2 1.183,0.367 2.25,0.5c1.033,0.133 1.683,0.3 1.95,0.5c-0.3,0.567 -1.583,1.1 -3.85,1.6c-1.867,0.367 -3.367,0.55 -4.5,0.55c-1.933,0 -3.417,-0.183 -4.45,-0.55c-1.567,-0.567 -2.35,-1.6 -2.35,-3.1c-0,-0.633 0.25,-1.45 0.75,-2.45c0.567,-1.2 0.917,-2.017 1.05,-2.45c-0.867,0.533 -1.7,1.467 -2.5,2.8c-0.833,1.333 -1.25,2.467 -1.25,3.4Z"/><path d="M24.8,58.95c0.767,1.067 2.117,1.6 4.05,1.6c2.867,-0 4.967,-0.967 6.3,-2.9c0.867,-1.233 1.65,-3.417 2.35,-6.55c0.367,0.333 0.733,0.65 1.1,0.95c0.433,0.3 0.883,0.45 1.35,0.45l4.15,-0c0.733,-0 1.317,-0.25 1.75,-0.75c0.067,-0.067 0.417,-0.6 1.05,-1.6c0.333,0.5 0.783,1 1.35,1.5c0.7,0.567 1.3,0.85 1.8,0.85l3.9,-0l0,-0.05c1.701,-0.077 2.951,-0.444 3.75,-1.1c1.033,-0.833 1.55,-2.267 1.55,-4.3c0,-0.533 -0.25,-1.8 -0.75,-3.8c-0.567,1.2 -1.033,2.117 -1.4,2.75c0.533,0.967 0.867,1.667 1,2.1c-0.506,0.595 -1.889,0.912 -4.15,0.95l-1.85,-0l0,0.05c-0.679,0.033 -1.146,0.05 -1.4,0.05c-0.967,-0 -1.65,-0.183 -2.05,-0.55c-0.467,-0.433 -0.717,-1.233 -0.75,-2.4c-0.867,1.333 -1.467,2.133 -1.8,2.4c-0.4,0.333 -1.05,0.5 -1.95,0.5l-1.45,0l0,-0.05c-2.1,-0 -3.517,-0.467 -4.25,-1.4c-0.7,-0.833 -1.25,-3.367 -1.65,-7.6c-0.2,-2.767 -0.4,-5.533 -0.6,-8.3c-0.233,0.167 -0.617,0.633 -1.15,1.4c-0.533,0.767 -0.8,1.25 -0.8,1.45l1.45,19.5c0.067,0.667 -0.683,1.25 -2.25,1.75c-1.233,0.4 -2.283,0.6 -3.15,0.6c-1.333,0 -2.417,-0.233 -3.25,-0.7c-1.033,-0.567 -1.55,-1.417 -1.55,-2.55c-0,-1.467 0.167,-2.817 0.5,-4.05c-0.567,0.367 -1.083,1.233 -1.55,2.6c-0.367,1.2 -0.55,2.217 -0.55,3.05c-0,1.9 0.3,3.283 0.9,4.15Z"/><path d="M141.4,58l2.15,2l2.2,-2l-2.2,-2l-2.15,2Z"/><path d="M69.35,57.7c-0.433,0 -1,-0.083 -1.7,-0.25c-0.533,-0.133 -1.083,-0.267 -1.65,-0.4c0.7,0.8 1.533,1.433 2.5,1.9c1.033,0.567 2.033,0.85 3,0.85c1.333,-0 2.667,-0.9 4,-2.7c1.167,-1.567 1.85,-3.033 2.05,-4.4c0.166,-0.111 0.366,-0.177 0.6,-0.2l2.3,0c0.333,0 1.017,-0.4 2.05,-1.2c0.6,0.267 1.183,0.533 1.75,0.8c0.7,0.267 1.317,0.4 1.85,0.4c1.267,0 2.517,-0.567 3.75,-1.7c0.467,0.267 0.95,0.55 1.45,0.85c0.667,0.367 1.15,0.55 1.45,0.55c0.933,0 1.65,-0.833 2.15,-2.5c0.333,-1.167 0.5,-2.367 0.5,-3.6c0,-0.233 -0.133,-0.75 -0.4,-1.55c-0.567,1.033 -0.933,1.767 -1.1,2.2c0.333,0.833 0.5,1.333 0.5,1.5l-0.2,0.55c-0.3,0.133 -0.567,0.2 -0.8,0.2c-1.733,0 -2.6,-0.533 -2.6,-1.6c-0,-0.167 0.017,-0.433 0.05,-0.8c0.067,-0.4 0.1,-0.667 0.1,-0.8c-0.633,0.833 -1.283,1.65 -1.95,2.45c-0.767,0.8 -1.767,1.2 -3,1.2c-0.9,0 -1.533,-0.133 -1.9,-0.4c-0.3,-0.2 -0.483,-0.567 -0.55,-1.1c-0.067,-0.567 -0.133,-1.133 -0.2,-1.7c-0.933,1.467 -1.55,2.283 -1.85,2.45c-0.33,0.193 -1.147,0.31 -2.45,0.35l-0.9,-0c-0.485,-0.014 -0.785,-0.031 -0.9,-0.05c-0.567,-0.1 -1.167,-0.467 -1.8,-1.1c-0.167,0.9 -0.383,1.667 -0.65,2.3c-0,0.033 0.283,0.467 0.85,1.3c0.5,0.733 0.75,1.133 0.75,1.2c0,0.833 -0.967,1.883 -2.9,3.15c-1.833,1.233 -3.217,1.85 -4.15,1.85Z"/><path d="M49.4,59.3l1.95,-1.75l-1.95,-1.75l-1.85,1.75l1.85,1.75Z"/><path d="M45.65,59.3l1.9,-1.75l-1.9,-1.8l-1.9,1.75l1.9,1.8Z"/><path d="M215.85,47.25c-0.3,-0.567 -0.9,-1.267 -1.8,-2.1l-0.8,2.9c0.467,0.5 0.917,0.983 1.35,1.45c0.6,0.7 0.9,1.233 0.9,1.6c0,1.833 -1.417,3.417 -4.25,4.75c-2.433,1.133 -4.733,1.7 -6.9,1.7c1.767,1.1 3.517,1.65 5.25,1.65c2,0 3.7,-1.133 5.1,-3.4c1.2,-1.967 1.8,-3.967 1.8,-6c0,-1 -0.217,-1.85 -0.65,-2.55Z"/><path d="M235.4,31.3c-1.333,1.6 -1.983,2.567 -1.95,2.9l0.45,18.35c1.1,-0.833 1.65,-3.067 1.65,-6.7l-0.15,-14.55Z"/><path d="M65.95,31.3c-1.333,1.6 -1.983,2.567 -1.95,2.9l0.45,18.35c1.1,-0.833 1.65,-3.067 1.65,-6.7l-0.15,-14.55Z"/><path d="M101.75,31.3c-1.333,1.6 -1.983,2.567 -1.95,2.9l0.45,18.35c1.1,-0.833 1.65,-3.067 1.65,-6.7l-0.15,-14.55Z"/><path d="M202.55,46c0.533,0.967 0.867,1.667 1,2.1c-0.528,0.621 -2.011,0.938 -4.45,0.95l-1.05,-0c-1.235,-0.034 -1.985,-0.117 -2.25,-0.25c-0.7,-0.333 -1.05,-1.25 -1.05,-2.75c-0.567,0.4 -0.95,0.933 -1.15,1.6c-0.167,0.533 -0.45,0.867 -0.85,1c-0.53,0.223 -1.546,0.356 -3.05,0.4c-2.029,-0.08 -3.362,-0.53 -4,-1.35c-0.6,-0.733 -0.9,-2.283 -0.9,-4.65l-0,-11.15c-0.367,0.333 -0.733,0.683 -1.1,1.05c-0.267,0.333 -0.4,0.783 -0.4,1.35c-0,4.667 0.033,7.65 0.1,8.95c0.167,4.5 0.633,7.217 1.4,8.15c0.633,0.733 1.5,1.1 2.6,1.1l3.55,-0c0.7,-0 1.283,-0.25 1.75,-0.75c0.133,-0.167 0.483,-0.7 1.05,-1.6c0.7,1 1.067,1.517 1.1,1.55c0.5,0.533 1.083,0.8 1.75,0.8l2.5,0c1.855,-0.073 3.205,-0.456 4.05,-1.15c1.033,-0.833 1.55,-2.267 1.55,-4.3c0,-0.533 -0.25,-1.8 -0.75,-3.8c-0.567,1.2 -1.033,2.117 -1.4,2.75Z"/><path d="M13.351,40.471l3.008,0l-0,3.008l1.915,1.915l-1.915,1.915l-0,2.709l-2.708,-0l-2.127,2.126l-2.127,-2.126l-3.008,-0l0,-3.008l-1.915,-1.915l1.915,-1.915l0,-2.709l2.709,0l2.126,-2.126l2.127,2.126Zm0.828,8.164l-1.384,-0l-1.906,1.906l0.635,0.635l1.843,-1.843l0.812,-0l-0,-0.698Zm-5.389,-0.145l-0,0.001l-1.716,0l-0,0.842l2.607,-0l0.724,0.724l0.564,-0.565l-1.003,-1.002l-1.176,-0Zm6.074,-1.769l-0,2.612l0.81,-0l0,-2.307l0.731,-0.731l-0.558,-0.557l-0.983,0.983Zm-4.44,-4.058l-1.638,0l-0,1.368l-1.184,1.183l1.166,1.123l-0,1.468l1.482,-0l1.203,1.203l1.059,-1.058l1.667,0l-0,-1.512l1.184,-1.185l-1.039,-1.038l0,-1.494l-1.667,0l-1.146,-1.145l-1.087,1.087Zm-4.467,1.918l-0.515,0.514l1.632,1.631l-0,1.08l1.009,0l-0,-1.178l-2.126,-2.047Zm9.052,-0.65l1.88,1.88l0.417,-0.417l-1.632,-1.631l0,-1.042l-0.665,0l-0,1.21Zm-6.908,-2.775l-1.027,-0l-0,2.307l-0.633,0.633l0.668,0.644l0.992,-0.993l0,-2.591Zm4.398,-0.568l-0.504,0.504l0.945,0.945l2.734,-0l0,-0.881l-2.606,-0l-0.569,-0.568Zm-0.484,-0.484l-0.791,-0.791l-1.843,1.843l-0.595,-0l-0,0.823l1.354,-0l1.875,-1.875Z"/><path d="M226.9,55.1c1.233,-1.7 1.85,-3.783 1.85,-6.25c0,-1 -0.183,-1.967 -0.55,-2.9c-0.467,-1.233 -1.133,-1.85 -2,-1.85c-0.733,0 -1.433,0.617 -2.1,1.85c-0.567,1.067 -0.85,2 -0.85,2.8c0,1.367 0.567,2.05 1.7,2.05c0.9,-0 1.733,-0.45 2.5,-1.35c0.233,0.4 0.35,0.783 0.35,1.15c-0,2 -1.533,3.6 -4.6,4.8c-2.367,0.9 -4.783,1.35 -7.25,1.35c1.2,0.467 2.033,0.767 2.5,0.9c0.833,0.233 1.7,0.35 2.6,0.35c2.5,0 4.45,-0.967 5.85,-2.9Zm-2.35,-6.85c0.267,-0.633 0.533,-1.2 0.8,-1.7c0.867,0.367 1.3,0.817 1.3,1.35c0,0.233 -0.133,0.417 -0.4,0.55c-0.233,0.133 -0.483,0.2 -0.75,0.2l-0.95,-0.4Z"/><path d="M246.95,49.45c0.233,0.4 0.35,0.783 0.35,1.15c-0,2 -1.533,3.6 -4.6,4.8c-2.367,0.9 -4.783,1.35 -7.25,1.35c1.2,0.467 2.033,0.767 2.5,0.9c0.833,0.233 1.7,0.35 2.6,0.35c2.5,0 4.45,-0.967 5.85,-2.9c1.233,-1.7 1.85,-3.783 1.85,-6.25c0,-1 -0.183,-1.967 -0.55,-2.9c-0.467,-1.233 -1.133,-1.85 -2,-1.85c-0.733,0 -1.433,0.617 -2.1,1.85c-0.567,1.067 -0.85,2 -0.85,2.8c0,1.367 0.567,2.05 1.7,2.05c0.9,-0 1.733,-0.45 2.5,-1.35Zm-2.1,-2.9c0.867,0.367 1.3,0.817 1.3,1.35c0,0.233 -0.133,0.417 -0.4,0.55c-0.233,0.133 -0.483,0.2 -0.75,0.2l-0.95,-0.4c0.267,-0.633 0.533,-1.2 0.8,-1.7Z"/><path d="M160.9,32.95c-0.267,0.333 -0.4,0.783 -0.4,1.35c0,4.667 0.033,7.65 0.1,8.95c0.167,4.5 0.633,7.217 1.4,8.15c0.633,0.733 1.5,1.1 2.6,1.1l3.45,-0c0.967,-0 2.167,-0.717 3.6,-2.15c1.867,0.4 3.217,0.6 4.05,0.6c1.333,0 2.183,-0.417 2.55,-1.25c0.2,-0.433 0.3,-1.417 0.3,-2.95c-0,-1.033 -0.95,-2.433 -2.85,-4.2c-1.3,-1.2 -2.733,-2.317 -4.3,-3.35c-0.233,0 -0.567,0.467 -1,1.4c-0.4,0.867 -0.6,1.467 -0.6,1.8c-0,0.133 0.067,0.267 0.2,0.4c0.167,0.167 0.267,0.3 0.3,0.4c-0.4,0.367 -0.767,0.917 -1.1,1.65c-0.367,0.767 -0.55,1.4 -0.55,1.9c0,0.2 0.067,0.483 0.2,0.85c0.1,0.367 0.15,0.65 0.15,0.85c0,0.344 -0.717,0.544 -2.15,0.6c-1.999,-0.084 -3.315,-0.534 -3.95,-1.35c-0.6,-0.733 -0.9,-2.283 -0.9,-4.65l0,-11.15c-0.367,0.333 -0.733,0.683 -1.1,1.05Zm13.45,13.15c-0,-0.4 -0.117,-0.817 -0.35,-1.25c0.567,0.267 1.233,0.767 2,1.5c0.8,0.767 1.267,1.4 1.4,1.9l-0.3,0.3c-0.267,-0.167 -0.783,-0.3 -1.55,-0.4c-0.567,-0.1 -1.133,-0.183 -1.7,-0.25c0.333,-0.767 0.5,-1.367 0.5,-1.8Zm-1.75,-1.05c0.4,0.4 0.6,0.8 0.6,1.2c0,0.233 -0.2,0.45 -0.6,0.65c-0.333,0.167 -0.65,0.25 -0.95,0.25c-0.4,-0 -1.017,-0.2 -1.85,-0.6c0.133,-0.433 0.367,-0.85 0.7,-1.25c0.6,-0.667 0.917,-1.017 0.95,-1.05c0.4,0.167 0.783,0.433 1.15,0.8Z"/><path d="M193.65,42.45l2.15,-2l-2.15,-2.05l-2.15,2.05l2.15,2Z"/><path d="M135.85,42.45l2.15,-2l-2.15,-2.05l-2.15,2.05l2.15,2Z"/><path d="M198.4,39.55l1.9,1.75l1.85,-1.75l-1.85,-1.75l-1.9,1.75Z"/><path d="M205.95,39.55l-1.9,-1.75l-1.9,1.75l1.9,1.75l1.9,-1.75Z"/><path d="M58.2,34.35c-0.433,0 -1.117,0.35 -2.05,1.05c-0.933,0.733 -1.4,1.3 -1.4,1.7c-0,0.133 0.1,0.383 0.3,0.75c0.233,0.333 0.35,0.583 0.35,0.75c-0,0.1 -0.033,0.267 -0.1,0.5c-0.067,0.2 -0.1,0.367 -0.1,0.5c0,0.1 0.017,0.233 0.05,0.4c1.267,-0.933 2.367,-1.4 3.3,-1.4c0.8,0 1.217,-0.033 1.25,-0.1c0.2,-0.3 0.4,-0.617 0.6,-0.95c-0.2,-0 -0.5,0.017 -0.9,0.05l-0.9,0c-1.067,0 -1.917,-0.217 -2.55,-0.65c0.333,-0.8 0.783,-1.2 1.35,-1.2c0.167,0 0.383,0.05 0.65,0.15c0.267,0.067 0.467,0.1 0.6,0.1c0.3,0 0.45,-0.267 0.45,-0.8c0,-0.233 -0.083,-0.433 -0.25,-0.6c-0.2,-0.167 -0.417,-0.25 -0.65,-0.25Z"/><path d="M204.15,35.85l-1.85,-1.75l-1.9,1.75l1.85,1.8l1.9,-1.8Z"/><path d="M124.55,31.6c-1,1.367 -1.683,2.583 -2.05,3.65c0.3,-0.2 0.617,-0.517 0.95,-0.95c0.4,-0.5 0.7,-0.833 0.9,-1c0.933,0.4 1.483,0.617 1.65,0.65c0.5,0.167 1.133,0.25 1.9,0.25c0.833,0 1.833,-0.317 3,-0.95c1.333,-0.667 2,-1.35 2,-2.05c-1.333,0.667 -2.067,1.017 -2.2,1.05c-0.867,0.333 -1.65,0.5 -2.35,0.5c-1.367,0 -2.633,-0.383 -3.8,-1.15Z"/><path d="M226.35,33.2c-0,-0.467 -0.133,-0.883 -0.4,-1.25c-0.333,-0.433 -0.75,-0.65 -1.25,-0.65c-0.633,-0 -1.117,0.267 -1.45,0.8c-0.267,0.467 -0.4,1.017 -0.4,1.65c-0,1.033 0.483,1.55 1.45,1.55c0.567,-0 1.05,-0.217 1.45,-0.65c0.4,-0.433 0.6,-0.917 0.6,-1.45Zm-2.25,-0.8c0.233,-0 0.533,0.133 0.9,0.4c0.4,0.267 0.6,0.5 0.6,0.7c-0,0.367 -0.35,0.55 -1.05,0.55c-0.833,-0 -1.25,-0.267 -1.25,-0.8c0,-0.567 0.267,-0.85 0.8,-0.85Z"/><path d="M89.7,34.25c0.4,-0.433 0.6,-0.917 0.6,-1.45c-0,-0.467 -0.133,-0.883 -0.4,-1.25c-0.333,-0.433 -0.75,-0.65 -1.25,-0.65c-0.633,-0 -1.117,0.267 -1.45,0.8c-0.267,0.467 -0.4,1.017 -0.4,1.65c-0,1.033 0.483,1.55 1.45,1.55c0.567,-0 1.05,-0.217 1.45,-0.65Zm-0.75,-1.85c0.4,0.267 0.6,0.5 0.6,0.7c-0,0.367 -0.35,0.55 -1.05,0.55c-0.833,-0 -1.25,-0.267 -1.25,-0.8c0,-0.567 0.267,-0.85 0.8,-0.85c0.233,0 0.533,0.133 0.9,0.4Z"/><path d="M199.85,27.9c-0.267,0.467 -0.4,1.017 -0.4,1.65c0,1.033 0.483,1.55 1.45,1.55c0.567,0 1.05,-0.217 1.45,-0.65c0.4,-0.433 0.6,-0.917 0.6,-1.45c0,-0.467 -0.133,-0.883 -0.4,-1.25c-0.333,-0.433 -0.75,-0.65 -1.25,-0.65c-0.633,0 -1.117,0.267 -1.45,0.8Zm0.05,1.15c0,-0.567 0.267,-0.85 0.8,-0.85c0.233,0 0.533,0.133 0.9,0.4c0.4,0.267 0.6,0.5 0.6,0.7c0,0.367 -0.35,0.55 -1.05,0.55c-0.833,0 -1.25,-0.267 -1.25,-0.8Z"/><path d="M65.45,26.9c0.5,0.167 1.133,0.25 1.9,0.25c0.833,-0 1.833,-0.317 3,-0.95c1.333,-0.667 2,-1.35 2,-2.05c-1.333,0.667 -2.067,1.017 -2.2,1.05c-0.867,0.333 -1.65,0.5 -2.35,0.5c-1.367,0 -2.633,-0.383 -3.8,-1.15c-1,1.367 -1.683,2.583 -2.05,3.65c0.3,-0.2 0.617,-0.517 0.95,-0.95c0.4,-0.5 0.7,-0.833 0.9,-1c0.933,0.4 1.483,0.617 1.65,0.65Z"/><path d="M134.469,59.369l-4.1,2.5c-0.707,0.431 -0.931,1.355 -0.5,2.062c0.431,0.707 1.355,0.931 2.062,0.5l4.1,-2.5c0.707,-0.431 0.931,-1.355 0.5,-2.062c-0.431,-0.707 -1.355,-0.931 -2.062,-0.5Z"/><path d="M59.776,55.015l-4.15,2.5c-0.709,0.427 -0.938,1.35 -0.511,2.059c0.427,0.709 1.35,0.938 2.059,0.511l4.15,-2.5c0.709,-0.427 0.938,-1.35 0.511,-2.059c-0.427,-0.709 -1.35,-0.938 -2.059,-0.511Z"/><path d="M102.619,53.469l-4.1,2.5c-0.707,0.431 -0.931,1.355 -0.5,2.062c0.431,0.707 1.355,0.931 2.062,0.5l4.1,-2.5c0.707,-0.431 0.931,-1.355 0.5,-2.062c-0.431,-0.707 -1.355,-0.931 -2.062,-0.5Z"/><path d="M215.326,30.115l-4.15,2.5c-0.709,0.427 -0.938,1.35 -0.511,2.059c0.427,0.709 1.35,0.938 2.059,0.511l4.15,-2.5c0.709,-0.427 0.938,-1.35 0.511,-2.059c-0.427,-0.709 -1.35,-0.938 -2.059,-0.511Z"/><path d="M145.176,28.465l-4.15,2.5c-0.709,0.427 -0.938,1.35 -0.511,2.059c0.427,0.709 1.35,0.938 2.059,0.511l4.15,-2.5c0.709,-0.427 0.938,-1.35 0.511,-2.059c-0.427,-0.709 -1.35,-0.938 -2.059,-0.511Z"/><path d="M246.026,27.915l-4.15,2.5c-0.709,0.427 -0.938,1.35 -0.511,2.059c0.427,0.709 1.35,0.938 2.059,0.511l4.15,-2.5c0.709,-0.427 0.938,-1.35 0.511,-2.059c-0.427,-0.709 -1.35,-0.938 -2.059,-0.511Z"/><path d="M168.076,27.165l-4.15,2.5c-0.709,0.427 -0.938,1.35 -0.511,2.059c0.427,0.709 1.35,0.938 2.059,0.511l4.15,-2.5c0.709,-0.427 0.938,-1.35 0.511,-2.059c-0.427,-0.709 -1.35,-0.938 -2.059,-0.511Z"/><path d="M72.819,26.669l-4.1,2.5c-0.707,0.431 -0.931,1.355 -0.5,2.062c0.431,0.707 1.355,0.931 2.062,0.5l4.1,-2.5c0.707,-0.431 0.931,-1.355 0.5,-2.062c-0.431,-0.707 -1.355,-0.931 -2.062,-0.5Z"/><path d="M191.269,26.369l-4.1,2.5c-0.707,0.431 -0.931,1.355 -0.5,2.062c0.431,0.707 1.355,0.931 2.062,0.5l4.1,-2.5c0.707,-0.431 0.931,-1.355 0.5,-2.062c-0.431,-0.707 -1.355,-0.931 -2.062,-0.5Z"/><path d="M235.976,25.665l-4.15,2.5c-0.709,0.427 -0.938,1.35 -0.511,2.059c0.427,0.709 1.35,0.938 2.059,0.511l4.15,-2.5c0.709,-0.427 0.938,-1.35 0.511,-2.059c-0.427,-0.709 -1.35,-0.938 -2.059,-0.511Z"/><path d="M35.826,25.815l-4.15,2.5c-0.709,0.427 -0.938,1.35 -0.511,2.059c0.427,0.709 1.35,0.938 2.059,0.511l4.15,-2.5c0.709,-0.427 0.938,-1.35 0.511,-2.059c-0.427,-0.709 -1.35,-0.938 -2.059,-0.511Z" style="fill:#f00;"/></g></svg>