<?xml version="1.0" encoding="UTF-8" standalone="no"?><!DOCTYPE svg PUBLIC "-//W3C//DTD SVG 1.1//EN" "http://www.w3.org/Graphics/SVG/1.1/DTD/svg11.dtd"><svg width="100%" height="100%" viewBox="0 0 178 72" version="1.1" xmlns="http://www.w3.org/2000/svg" xmlns:xlink="http://www.w3.org/1999/xlink" xml:space="preserve" xmlns:serif="http://www.serif.com/" style="fill-rule:evenodd;clip-rule:evenodd;stroke-linejoin:round;stroke-miterlimit:2;"><g><path d="M48.6,54.8l1.9,-1.75l-1.9,-1.8l-1.9,1.75l1.9,1.8Z"/><path d="M52.35,54.8l1.95,-1.75l-1.95,-1.75l-1.85,1.75l1.85,1.75Z"/><path d="M136.6,26.5c-2.267,0.433 -4.967,1.583 -8.1,3.45c-3.6,2.2 -5.4,4.167 -5.4,5.9c-0,1.033 0.567,1.933 1.7,2.7c1.033,0.567 2.083,1.15 3.15,1.75c1.1,0.667 1.65,1.45 1.65,2.35c-0,1.3 -1.917,1.95 -5.75,1.95l-0.85,0l0,-0.05c-1.867,0 -2.967,-0.083 -3.3,-0.25c-0.7,-0.333 -1.05,-1.25 -1.05,-2.75c-0.567,0.4 -0.95,0.933 -1.15,1.6c-0.167,0.533 -0.45,0.867 -0.85,1c-0.533,0.224 -1.567,0.358 -3.1,0.4c-2.026,-0.077 -3.36,-0.527 -4,-1.35c-0.6,-0.733 -0.9,-2.283 -0.9,-4.65l0,-11.15c-0.367,0.333 -0.733,0.683 -1.1,1.05c-0.267,0.333 -0.4,0.783 -0.4,1.35c-0,4.667 0.033,7.65 0.1,8.95c0.167,4.5 0.633,7.217 1.4,8.15c0.633,0.733 1.5,1.1 2.6,1.1l3.6,-0c0.7,-0 1.283,-0.25 1.75,-0.75c0.133,-0.167 0.483,-0.7 1.05,-1.6c0.7,1 1.067,1.517 1.1,1.55c0.5,0.533 1.083,0.8 1.75,0.8l5.05,-0c1.667,-0 3.05,-0.6 4.15,-1.8c1.033,-1.133 1.55,-2.5 1.55,-4.1c0,-1.133 -0.35,-2.167 -1.05,-3.1c-0.567,-0.7 -1.4,-1.417 -2.5,-2.15c-1,-0.6 -1.983,-1.2 -2.95,-1.8c0.767,-0.733 2.533,-1.75 5.3,-3.05c0.533,-0.233 2.5,-1.1 5.9,-2.6l0.65,-2.9Z"/><path d="M17.125,35.958l3.007,0l0,3.008l1.915,1.915l-1.915,1.915l0,2.709l-2.708,-0l-2.127,2.126l-2.126,-2.126l-3.008,-0l-0,-3.008l-1.915,-1.915l1.915,-1.915l-0,-2.709l2.708,0l2.127,-2.126l2.127,2.126Zm0.828,8.164l-1.384,-0l-1.907,1.906l0.635,0.635l1.843,-1.843l0.813,-0l-0,-0.698Zm-5.39,-0.145l0,0.001l-1.716,0l0,0.842l2.607,-0l0.724,0.724l0.565,-0.565l-1.003,-1.002l-1.177,-0Zm6.074,-1.769l0,2.612l0.811,-0l-0,-2.307l0.73,-0.731l-0.557,-0.557l-0.984,0.983Zm-4.439,-4.058l-1.639,0l0,1.368l-1.184,1.183l1.166,1.123l0,1.468l1.482,-0l1.204,1.203l1.058,-1.058l1.668,0l-0,-1.512l1.184,-1.185l-1.039,-1.038l-0,-1.494l-1.668,0l-1.145,-1.145l-1.087,1.087Zm-4.468,1.918l-0.514,0.514l1.631,1.631l0,1.081l1.01,-0l-0,-1.179l-2.127,-2.047Zm9.052,-0.65l1.88,1.88l0.417,-0.417l-1.631,-1.631l-0,-1.042l-0.666,0l0,1.21Zm-6.907,-2.775l-1.028,-0l0,2.307l-0.633,0.633l0.668,0.644l0.993,-0.993l-0,-2.591Zm4.398,-0.568l-0.504,0.504l0.945,0.945l2.734,-0l-0,-0.881l-2.607,-0l-0.568,-0.568Zm-0.484,-0.484l-0.791,-0.791l-1.843,1.843l-0.596,-0l0,0.823l1.355,-0l1.875,-1.875Z"/><path d="M75.35,29.5c-0.567,-0.533 -0.85,-1 -0.85,-1.4c-0,-0.133 0.05,-0.333 0.15,-0.6c0.067,-0.267 0.1,-0.467 0.1,-0.6l-0.05,-0.4c-1.1,0.7 -1.967,1.883 -2.6,3.55c0.1,0.467 0.483,1.05 1.15,1.75c0.433,2.5 0.65,6.283 0.65,11.35c-0,1 -0.967,1.483 -2.9,1.45l-0.75,-0.05l-0,-0.1c-1.767,-0 -3.083,-0.333 -3.95,-1c-0.333,-0.233 -0.85,-0.85 -1.55,-1.85c-0.467,-0.667 -1.067,-1 -1.8,-1c-0.567,0 -1.35,0.567 -2.35,1.7c-1.067,1.2 -1.883,1.867 -2.45,2c-0.433,0.1 -1.417,0.15 -2.95,0.15l0,0.15l-0.05,0c-0.733,0.033 -1.233,0.05 -1.5,0.05c-0.967,-0 -1.65,-0.183 -2.05,-0.55c-0.467,-0.433 -0.717,-1.233 -0.75,-2.4c-0.867,1.333 -1.467,2.133 -1.8,2.4c-0.4,0.333 -1.05,0.5 -1.95,0.5l-1.35,0c-0.223,-0.01 -0.44,-0.027 -0.65,-0.05l-1.85,0c-0.833,0 -1.433,-0.1 -1.8,-0.3c-0.333,-0.233 -0.917,-0.817 -1.75,-1.75l-1.4,2.5c0.733,1.1 1.183,1.817 1.35,2.15c0.367,0.733 0.55,1.5 0.55,2.3c0,1.1 -0.717,1.933 -2.15,2.5c-1.033,0.433 -2.25,0.65 -3.65,0.65c-3.6,0 -5.4,-1.333 -5.4,-4c-0,-0.5 0.25,-1.683 0.75,-3.55c-0.6,0.267 -1.133,1.1 -1.6,2.5c-0.4,1.167 -0.6,2.183 -0.6,3.05c-0,3.5 1.867,5.25 5.6,5.25c2.5,0 4.533,-0.717 6.1,-2.15c1.567,-1.433 2.35,-3.333 2.35,-5.7l5.45,0c0.733,0 1.317,-0.25 1.75,-0.75c0.067,-0.067 0.417,-0.6 1.05,-1.6c0.333,0.5 0.783,1 1.35,1.5c0.7,0.567 1.3,0.85 1.8,0.85l3.9,0l-0,-0.1l1.35,-0c0.333,-0 0.65,-0.167 0.95,-0.5c0.233,-0.3 0.467,-0.583 0.7,-0.85c1.533,1.433 2.983,2.15 4.35,2.15c0.567,-0 0.95,-0.183 1.15,-0.55c0.3,-0.5 0.517,-0.783 0.65,-0.85c0.767,0.4 1.3,0.6 1.6,0.6l1.4,-0l-0,0.1l2.75,0c1.4,0 2.417,-0.717 3.05,-2.15c0.433,-1 0.65,-2.267 0.65,-3.8l-0,-3.2c-0,-0.6 -0.05,-1.483 -0.15,-2.65c-0.133,-1.167 -0.2,-2.033 -0.2,-2.6c-0,-0.3 0.167,-0.783 0.5,-1.45c0.333,-0.667 0.5,-1.217 0.5,-1.65c-0,-0.167 -0.267,-0.5 -0.8,-1Zm-14,14.2c-0,-0.167 0.483,-0.7 1.45,-1.6c0.367,0.433 0.667,0.967 0.9,1.6c0.267,0.833 0.4,1.267 0.4,1.3l-0,0.6c-0.5,-0.167 -1.033,-0.433 -1.6,-0.8c-0.767,-0.433 -1.15,-0.8 -1.15,-1.1Z"/><path d="M92.4,32c0.367,-0.233 0.717,-0.7 1.05,-1.4c0.167,-0.567 0.35,-1.117 0.55,-1.65c-0.867,-0.333 -1.4,-0.767 -1.6,-1.3c-0.133,-0.267 -0.2,-0.95 -0.2,-2.05c-0.933,0.7 -1.733,1.917 -2.4,3.65c0.1,0.367 0.467,0.817 1.1,1.35l-0,10.85c-1.333,1.367 -2.333,2.4 -3,3.1l-0.45,0c-2.168,-0.045 -3.585,-0.495 -4.25,-1.35c-0.6,-0.733 -0.9,-2.283 -0.9,-4.65l-0,-11.15c-0.367,0.333 -0.733,0.683 -1.1,1.05c-0.267,0.333 -0.4,0.783 -0.4,1.35c-0,4.667 0.033,7.65 0.1,8.95c0.167,4.5 0.633,7.217 1.4,8.15c0.633,0.733 1.5,1.1 2.6,1.1l6.85,-0c2.3,-0 4.617,-0.8 6.95,-2.4c2.5,-1.733 3.75,-3.65 3.75,-5.75c0,-1.8 -1.083,-2.7 -3.25,-2.7c-1.033,-0 -2.2,0.417 -3.5,1.25c-1.067,0.7 -2.117,1.4 -3.15,2.1l-0.15,-8.5Zm0.65,12.55l-2.95,0c2.933,-2.8 5.2,-4.2 6.8,-4.2c0.967,0 2.05,0.417 3.25,1.25c-1.033,1.967 -3.4,2.95 -7.1,2.95Z"/><path d="M166.9,39.6c-0.733,0 -1.433,0.617 -2.1,1.85c-0.567,1.067 -0.85,2 -0.85,2.8c0,1.367 0.567,2.05 1.7,2.05c0.9,0 1.733,-0.45 2.5,-1.35c0.233,0.4 0.35,0.783 0.35,1.15c0,2 -1.533,3.6 -4.6,4.8c-2.367,0.9 -4.783,1.35 -7.25,1.35c1.2,0.467 2.033,0.767 2.5,0.9c0.833,0.233 1.7,0.35 2.6,0.35c2.5,0 4.45,-0.967 5.85,-2.9c1.233,-1.7 1.85,-3.783 1.85,-6.25c0,-1 -0.183,-1.967 -0.55,-2.9c-0.467,-1.233 -1.133,-1.85 -2,-1.85Zm-1.65,4.15c0.267,-0.633 0.533,-1.2 0.8,-1.7c0.867,0.367 1.3,0.817 1.3,1.35c-0,0.233 -0.133,0.417 -0.4,0.55c-0.233,0.133 -0.483,0.2 -0.75,0.2l-0.95,-0.4Z"/><path d="M140.7,27.4c-0.367,0.333 -0.733,0.683 -1.1,1.05c-0.267,0.333 -0.4,0.783 -0.4,1.35c0,4.667 0.033,7.65 0.1,8.95c0.167,4.5 0.633,7.217 1.4,8.15c0.633,0.733 1.5,1.1 2.6,1.1l2.9,-0l0,-0.1l1.5,-0c0.667,-0 1.267,-0.317 1.8,-0.95c0.367,-0.6 0.733,-1.2 1.1,-1.8c1.1,0.667 1.7,1.033 1.8,1.1c0.767,0.4 1.45,0.6 2.05,0.6c0.933,0 1.633,-0.433 2.1,-1.3c0.4,-0.667 0.6,-1.483 0.6,-2.45c0,-0.767 -0.3,-1.75 -0.9,-2.95c-0.667,-1.367 -1.35,-2.05 -2.05,-2.05c-0.667,0 -1.367,0.483 -2.1,1.45c-0.667,0.9 -1.317,1.8 -1.95,2.7c-0.767,1.1 -1.467,1.767 -2.1,2c-0.367,0.133 -1.45,0.2 -3.25,0.2l-0,0.05c-1.583,-0.159 -2.649,-0.592 -3.2,-1.3c-0.6,-0.733 -0.9,-2.283 -0.9,-4.65l0,-11.15Zm14.55,16.4l-0.65,0.15c-0.367,-0 -1.3,-0.467 -2.8,-1.4c0.633,-1.1 1.1,-1.65 1.4,-1.65c0.567,-0 1.033,0.3 1.4,0.9c0.133,0.2 0.35,0.617 0.65,1.25l-0,0.75Z"/><path d="M34.55,37.65l-2.2,2.05l2.2,2l2.15,-2l-2.15,-2.05Z"/><path d="M119.7,35.95l-2.15,-2.05l-2.15,2.05l2.15,2l2.15,-2Z"/><path d="M99.3,32.7l-2.15,-2l-2.15,2l2.15,2l2.15,-2Z"/><path d="M119.05,28.05l-0.25,0.1c-0,0.967 -0.233,1.45 -0.7,1.45c-0.233,0 -0.433,-0.317 -0.6,-0.95l-0.2,0.05c-0.1,0.5 -0.183,0.833 -0.25,1c-0.167,0.4 -0.4,0.6 -0.7,0.6c-0.3,0 -0.45,-0.367 -0.45,-1.1l-0.2,0.05c-0.167,0.5 -0.25,0.833 -0.25,1c0,0.267 0.067,0.5 0.2,0.7c0.133,0.267 0.35,0.4 0.65,0.4c0.267,0 0.5,-0.083 0.7,-0.25c0.233,-0.2 0.367,-0.417 0.4,-0.65c0.2,0.167 0.433,0.25 0.7,0.25c0.733,-0 1.1,-0.567 1.1,-1.7c0,-0.3 -0.05,-0.617 -0.15,-0.95Z"/><path d="M125.55,21.95c-0.433,0.567 -0.65,1.1 -0.65,1.6c0,0.433 0.417,0.883 1.25,1.35c-1.5,1.067 -2.9,1.867 -4.2,2.4c0.467,0.1 0.833,0.15 1.1,0.15c1.1,-0 2.417,-0.717 3.95,-2.15c0.6,0.333 1.133,0.583 1.6,0.75l0.15,-1.45c-0.333,-0.233 -0.6,-0.383 -0.8,-0.45c0.433,-0.767 0.65,-1.367 0.65,-1.8c-0,-0.9 -0.45,-1.35 -1.35,-1.35c-0.633,0 -1.2,0.317 -1.7,0.95Zm0.4,0.65c0.033,-0.167 0.15,-0.267 0.35,-0.3c0.7,0.1 1.05,0.417 1.05,0.95c-0,0.133 -0.033,0.283 -0.1,0.45c-0.867,-0.4 -1.3,-0.767 -1.3,-1.1Z"/><path d="M63.876,52.565l-4.15,2.5c-0.709,0.427 -0.938,1.35 -0.511,2.059c0.427,0.709 1.35,0.938 2.059,0.511l4.15,-2.5c0.709,-0.427 0.938,-1.35 0.511,-2.059c-0.427,-0.709 -1.35,-0.938 -2.059,-0.511Z"/><path d="M74.626,52.015l-4.15,2.5c-0.709,0.427 -0.938,1.35 -0.511,2.059c0.427,0.709 1.35,0.938 2.059,0.511l4.15,-2.5c0.709,-0.427 0.938,-1.35 0.511,-2.059c-0.427,-0.709 -1.35,-0.938 -2.059,-0.511Z"/><path d="M167.726,24.065l-4.15,2.5c-0.709,0.427 -0.938,1.35 -0.511,2.059c0.427,0.709 1.35,0.938 2.059,0.511l4.15,-2.5c0.709,-0.427 0.938,-1.35 0.511,-2.059c-0.427,-0.709 -1.35,-0.938 -2.059,-0.511Z"/><path d="M115.176,22.115l-4.15,2.5c-0.709,0.427 -0.938,1.35 -0.511,2.059c0.427,0.709 1.35,0.938 2.059,0.511l4.15,-2.5c0.709,-0.427 0.938,-1.35 0.511,-2.059c-0.427,-0.709 -1.35,-0.938 -2.059,-0.511Z"/><path d="M148.069,21.869l-4.1,2.5c-0.707,0.431 -0.931,1.355 -0.5,2.062c0.431,0.707 1.355,0.931 2.062,0.5l4.1,-2.5c0.707,-0.431 0.931,-1.355 0.5,-2.062c-0.431,-0.707 -1.355,-0.931 -2.062,-0.5Z"/><path d="M88.026,20.465l-4.15,2.5c-0.709,0.427 -0.938,1.35 -0.511,2.059c0.427,0.709 1.35,0.938 2.059,0.511l4.15,-2.5c0.709,-0.427 0.938,-1.35 0.511,-2.059c-0.427,-0.709 -1.35,-0.938 -2.059,-0.511Z"/><path d="M36.119,23.269l-4.1,2.5c-0.707,0.431 -0.931,1.355 -0.5,2.062c0.431,0.707 1.355,0.931 2.062,0.5l4.1,-2.5c0.707,-0.431 0.931,-1.355 0.5,-2.062c-0.431,-0.707 -1.355,-0.931 -2.062,-0.5Z" style="fill:#f00;"/></g></svg>