<?xml version="1.0" encoding="UTF-8" standalone="no"?><!DOCTYPE svg PUBLIC "-//W3C//DTD SVG 1.1//EN" "http://www.w3.org/Graphics/SVG/1.1/DTD/svg11.dtd"><svg width="100%" height="100%" viewBox="0 0 185 71" version="1.1" xmlns="http://www.w3.org/2000/svg" xmlns:xlink="http://www.w3.org/1999/xlink" xml:space="preserve" xmlns:serif="http://www.serif.com/" style="fill-rule:evenodd;clip-rule:evenodd;stroke-linejoin:round;stroke-miterlimit:2;"><g><path d="M118.85,49.05c1.767,1.067 3.517,1.6 5.25,1.6c2,-0 3.717,-1.1 5.15,-3.3c1.2,-1.9 1.8,-3.833 1.8,-5.8c-0,-0.967 -0.217,-1.8 -0.65,-2.5c-0.3,-0.533 -0.9,-1.2 -1.8,-2l-0.8,2.8c0.433,0.467 0.883,0.933 1.35,1.4c0.6,0.667 0.9,1.183 0.9,1.55c-0,1.8 -1.433,3.333 -4.3,4.6c-2.4,1.1 -4.7,1.65 -6.9,1.65Z"/><path d="M115.25,48.55l-1.9,-1.7l-1.9,1.65l1.9,1.75l1.9,-1.7Z"/><path d="M117.1,50.25l1.95,-1.75l-1.95,-1.65l-1.85,1.7l1.85,1.7Z"/><path d="M80.25,35.45c-1.6,1.4 -2.4,2.767 -2.4,4.1c0,3.3 2.85,4.95 8.55,4.95c9.333,-0 14,-2.35 14,-7.05c-0,-1.767 -0.65,-3.033 -1.95,-3.8c-0.2,0.767 -0.6,1.85 -1.2,3.25c1.1,0.733 1.65,1.517 1.65,2.35c-0.733,0.733 -2.45,1.333 -5.15,1.8c-2.2,0.4 -4.117,0.6 -5.75,0.6c-1.9,-0 -3.617,-0.217 -5.15,-0.65c-2.267,-0.633 -3.4,-1.617 -3.4,-2.95c0,-0.6 0.267,-1.467 0.8,-2.6Z"/><path d="M162.05,27.2c-0,-0.167 -0.283,-0.5 -0.85,-1c-0.567,-0.533 -0.85,-0.983 -0.85,-1.35c0,-0.133 0.05,-0.317 0.15,-0.55c0.1,-0.3 0.133,-0.517 0.1,-0.65l0,-0.4c-1.1,0.7 -1.983,1.867 -2.65,3.5c0.1,0.433 0.483,1 1.15,1.7c0.433,2.433 0.65,6.1 0.65,11c-0,0.967 -0.967,1.433 -2.9,1.4l-0.6,-0.05l-1.4,0c-0.296,-0.006 -0.513,-0.039 -0.65,-0.1c-0.6,-0.233 -1.3,-1.917 -2.1,-5.05c-0.4,-1.533 -0.833,-3.483 -1.3,-5.85c-0.567,1.867 -0.85,2.85 -0.85,2.95l1.3,6.45c-0.5,0.567 -1.367,1.05 -2.6,1.45c-1.1,0.367 -2.117,0.55 -3.05,0.55c-1,-0 -1.933,-0.4 -2.8,-1.2l-0,3.4c-0,0.667 0.833,1 2.5,1c1.8,-0 3.1,-0.267 3.9,-0.8c0.367,-0.267 1.167,-1.217 2.4,-2.85c0.267,0.7 0.517,1.4 0.75,2.1c0.433,0.867 1,1.3 1.7,1.3l3.6,-0c1.4,-0 2.417,-0.683 3.05,-2.05c0.467,-1 0.7,-2.25 0.7,-3.75l-0,-3.1c-0,-0.567 -0.067,-1.417 -0.2,-2.55c-0.133,-1.133 -0.2,-1.983 -0.2,-2.55c-0,-0.267 0.183,-0.717 0.55,-1.35c0.333,-0.667 0.5,-1.2 0.5,-1.6Z"/><path d="M167.2,44.2c1.067,-0.833 1.6,-3 1.6,-6.5l-0.15,-14.1c-1.3,1.533 -1.95,2.467 -1.95,2.8l0.5,17.8Z"/><path d="M137.7,23.6c-1.3,1.533 -1.95,2.467 -1.95,2.8l0.5,17.8c1.067,-0.833 1.6,-3 1.6,-6.5l-0.15,-14.1Z"/><path d="M117.8,38.9c-0,-0.567 -0.267,-1.817 -0.8,-3.75c-0.567,1.2 -1.033,2.083 -1.4,2.65c0.567,0.967 0.917,1.65 1.05,2.05c-0.563,0.626 -2.08,0.942 -4.55,0.95l-0.5,0c-2.086,-0.062 -3.469,-0.495 -4.15,-1.3c-0.567,-0.7 -0.85,-2.2 -0.85,-4.5l0,-10.85c-0.4,0.333 -0.767,0.667 -1.1,1c-0.3,0.333 -0.45,0.783 -0.45,1.35c-0,4.5 0.033,7.4 0.1,8.7c0.2,4.367 0.683,6.983 1.45,7.85c0.6,0.733 1.45,1.1 2.55,1.1l2.95,-0c1.881,-0.064 3.248,-0.43 4.1,-1.1c1.067,-0.8 1.6,-2.183 1.6,-4.15Z"/><path d="M179,36c-0.767,0 -1.467,0.6 -2.1,1.8c-0.6,1.033 -0.9,1.933 -0.9,2.7c0,1.333 0.583,2 1.75,2c0.9,0 1.733,-0.433 2.5,-1.3c0.2,0.4 0.3,0.767 0.3,1.1c-0,1.967 -1.517,3.517 -4.55,4.65c-2.367,0.9 -4.8,1.35 -7.3,1.35c1.2,0.433 2.033,0.717 2.5,0.85c0.833,0.2 1.7,0.3 2.6,0.3c2.533,-0 4.5,-0.933 5.9,-2.8c1.233,-1.633 1.85,-3.65 1.85,-6.05c-0,-0.967 -0.183,-1.9 -0.55,-2.8c-0.467,-1.2 -1.133,-1.8 -2,-1.8Zm-0.85,2.35c0.867,0.367 1.3,0.817 1.3,1.35c0,0.2 -0.133,0.367 -0.4,0.5c-0.267,0.167 -0.517,0.25 -0.75,0.25l-1,-0.45c0.3,-0.6 0.583,-1.15 0.85,-1.65Z"/><path d="M93.4,32.2l-1.9,-1.7l-1.9,1.7l1.9,1.75l1.9,-1.75Z"/><path d="M87.7,30.5l-1.9,1.7l1.9,1.75l1.9,-1.75l-1.9,-1.7Z"/><path d="M152.65,26.25l-2.2,-1.95l-2.15,1.95l2.15,1.95l2.2,-1.95Z"/><path d="M151.55,19.7l-0.25,0.1c-0,0.967 -0.233,1.45 -0.7,1.45c-0.233,0 -0.433,-0.317 -0.6,-0.95l-0.2,0.05c-0.1,0.467 -0.183,0.783 -0.25,0.95c-0.167,0.4 -0.4,0.6 -0.7,0.6c-0.3,-0 -0.45,-0.35 -0.45,-1.05l-0.2,0c-0.167,0.5 -0.25,0.817 -0.25,0.95c-0,0.3 0.067,0.55 0.2,0.75c0.167,0.233 0.383,0.35 0.65,0.35c0.267,-0 0.517,-0.083 0.75,-0.25c0.2,-0.167 0.317,-0.367 0.35,-0.6c0.2,0.133 0.433,0.2 0.7,0.2c0.733,0 1.1,-0.533 1.1,-1.6c0,-0.3 -0.05,-0.617 -0.15,-0.95Z"/><path d="M127.299,51.252l-4.15,2.4c-0.717,0.414 -0.962,1.332 -0.547,2.049c0.414,0.717 1.332,0.962 2.049,0.547l4.15,-2.4c0.717,-0.414 0.962,-1.332 0.547,-2.049c-0.414,-0.717 -1.332,-0.962 -2.049,-0.547Z"/><path d="M89.687,48.608l-4.15,2.45c-0.712,0.421 -0.95,1.342 -0.529,2.055c0.421,0.712 1.342,0.95 2.055,0.529l4.15,-2.45c0.712,-0.421 0.95,-1.342 0.529,-2.055c-0.421,-0.712 -1.342,-0.95 -2.055,-0.529Z"/><path d="M179.087,20.708l-4.15,2.45c-0.712,0.421 -0.95,1.342 -0.529,2.055c0.421,0.712 1.342,0.95 2.055,0.529l4.15,-2.45c0.712,-0.421 0.95,-1.342 0.529,-2.055c-0.421,-0.712 -1.342,-0.95 -2.055,-0.529Z"/><path d="M112.787,19.108l-4.15,2.45c-0.712,0.421 -0.95,1.342 -0.529,2.055c0.421,0.712 1.342,0.95 2.055,0.529l4.15,-2.45c0.712,-0.421 0.95,-1.342 0.529,-2.055c-0.421,-0.712 -1.342,-0.95 -2.055,-0.529Z"/><path d="M144.499,15.902l-4.15,2.4c-0.717,0.414 -0.962,1.332 -0.547,2.049c0.414,0.717 1.332,0.962 2.049,0.547l4.15,-2.4c0.717,-0.414 0.962,-1.332 0.547,-2.049c-0.414,-0.717 -1.332,-0.962 -2.049,-0.547Z"/><path d="M55.346,43.791c-0,-0.966 -0.217,-1.8 -0.65,-2.5c-0.3,-0.533 -0.9,-1.2 -1.8,-2l-0.8,2.8c0.433,0.467 0.883,0.934 1.35,1.4c0.6,0.667 0.9,1.184 0.9,1.55c-0,1.8 -1.434,3.334 -4.3,4.6c-2.4,1.1 -4.7,1.65 -6.9,1.65c1.766,1.067 3.516,1.6 5.25,1.6c2,0 3.716,-1.1 5.15,-3.3c1.2,-1.9 1.8,-3.833 1.8,-5.8Z"/><path d="M65.696,40.041c1.166,0.834 1.75,1.717 1.75,2.65c-0,0.367 -0.65,0.667 -1.95,0.9c-1,0.167 -1.867,0.25 -2.6,0.25c-0.967,0 -1.934,-0.233 -2.9,-0.7c-0.134,1.2 -0.2,1.867 -0.2,2c-0,0.934 0.35,1.517 1.05,1.75c0.333,0.134 1.133,0.2 2.4,0.2c1.6,0 2.816,-0.433 3.65,-1.3c0.8,-0.8 1.2,-1.933 1.2,-3.4c-0,-1.766 -0.45,-3.333 -1.35,-4.7c-1,-1.466 -2.384,-2.466 -4.15,-3c-0.134,0.5 -0.2,1.1 -0.2,1.8l0.05,2.35c1.033,0 2.116,0.4 3.25,1.2Z"/><path d="M14.482,34.745l3.008,-0l-0,3.007l1.915,1.915l-1.915,1.915l-0,2.709l-2.709,-0l-2.126,2.126l-2.127,-2.126l-3.008,-0l0,-3.008l-1.915,-1.915l1.915,-1.915l0,-2.708l2.708,-0l2.127,-2.127l2.127,2.127Zm0.828,8.163l-1.384,-0l-1.906,1.906l0.635,0.635l1.843,-1.843l0.812,0l-0,-0.698Zm-5.389,-0.145l-0,0.001l-1.716,0l-0,0.842l2.606,0l0.724,0.724l0.565,-0.564l-1.003,-1.003l-1.176,-0Zm6.073,-1.769l0,2.612l0.811,0l0,-2.307l0.731,-0.731l-0.558,-0.557l-0.984,0.983Zm-4.439,-4.058l-1.639,0l0,1.368l-1.183,1.184l1.165,1.122l0,1.468l1.483,0l1.203,1.204l1.058,-1.059l1.668,0l-0,-1.512l1.184,-1.184l-1.039,-1.039l-0,-1.493l-1.667,-0l-1.146,-1.146l-1.087,1.087Zm-4.468,1.918l-0.514,0.514l1.632,1.631l-0,1.081l1.009,-0l-0,-1.179l-2.127,-2.047Zm9.053,-0.65l1.88,1.88l0.417,-0.417l-1.632,-1.631l0,-1.041l-0.665,-0l-0,1.209Zm-6.908,-2.775l-1.027,0l-0,2.307l-0.633,0.634l0.667,0.643l0.993,-0.993l-0,-2.591Zm4.398,-0.568l-0.504,0.504l0.945,0.945l2.734,-0l0,-0.881l-2.607,0l-0.568,-0.568Zm-0.484,-0.484l-0.791,-0.791l-1.843,1.843l-0.596,0l0,0.823l1.355,-0l1.875,-1.875Z"/><path d="M30.646,25.841c-1.3,1.534 -1.95,2.467 -1.95,2.8l0.5,17.8c1.066,-0.833 1.6,-3 1.6,-6.5l-0.15,-14.1Z"/><path d="M43.546,42.841c-0,-0.966 -0.184,-1.9 -0.55,-2.8c-0.467,-1.2 -1.134,-1.8 -2,-1.8c-0.767,0 -1.467,0.6 -2.1,1.8c-0.6,1.034 -0.9,1.934 -0.9,2.7c-0,1.334 0.583,2 1.75,2c0.9,0 1.733,-0.433 2.5,-1.3c0.2,0.4 0.3,0.767 0.3,1.1c-0,1.967 -1.517,3.517 -4.55,4.65c-2.367,0.9 -4.8,1.35 -7.3,1.35c1.2,0.434 2.033,0.717 2.5,0.85c0.833,0.2 1.7,0.3 2.6,0.3c2.533,0 4.5,-0.933 5.9,-2.8c1.233,-1.633 1.85,-3.65 1.85,-6.05Zm-2.1,-0.9c-0,0.2 -0.134,0.367 -0.4,0.5c-0.267,0.167 -0.517,0.25 -0.75,0.25l-1,-0.45c0.3,-0.6 0.583,-1.15 0.85,-1.65c0.866,0.367 1.3,0.817 1.3,1.35Z"/><path d="M66.046,29.291l-2.15,-2l-2.2,2l2.15,1.9l2.2,-1.9Z"/><path d="M48.696,25.391c-0,1 0.483,1.5 1.45,1.5c0.566,0 1.066,-0.216 1.5,-0.65c0.4,-0.4 0.6,-0.866 0.6,-1.4c-0,-0.433 -0.15,-0.833 -0.45,-1.2c-0.334,-0.4 -0.734,-0.6 -1.2,-0.6c-0.634,0 -1.117,0.25 -1.45,0.75c-0.3,0.434 -0.45,0.967 -0.45,1.6Zm1.25,-1.3c0.266,0 0.583,0.117 0.95,0.35c0.4,0.267 0.6,0.5 0.6,0.7c-0,0.334 -0.35,0.5 -1.05,0.5c-0.867,0 -1.3,-0.233 -1.3,-0.7c-0,-0.566 0.266,-0.85 0.8,-0.85Z"/><path d="M63.933,19.549l-4.15,2.45c-0.713,0.421 -0.95,1.342 -0.529,2.055c0.421,0.713 1.341,0.95 2.054,0.529l4.15,-2.45c0.713,-0.421 0.95,-1.341 0.529,-2.054c-0.421,-0.713 -1.341,-0.95 -2.054,-0.53Z"/><path d="M32.77,25.894c-0.183,-0.121 -0.342,-0.283 -0.462,-0.483c-0.425,-0.711 -0.192,-1.633 0.518,-2.057l4.1,-2.45c0.711,-0.425 1.633,-0.193 2.057,0.518c0.261,0.435 0.274,0.951 0.081,1.381c0.213,0.127 0.398,0.308 0.53,0.537c0.415,0.717 0.169,1.635 -0.547,2.05l-4.15,2.4c-0.717,0.414 -1.635,0.169 -2.05,-0.548c-0.247,-0.428 -0.26,-0.927 -0.077,-1.348Z" style="fill:#f00;"/></g></svg>