<?xml version="1.0" encoding="UTF-8" standalone="no"?><!DOCTYPE svg PUBLIC "-//W3C//DTD SVG 1.1//EN" "http://www.w3.org/Graphics/SVG/1.1/DTD/svg11.dtd"><svg width="100%" height="100%" viewBox="0 0 65 72" version="1.1" xmlns="http://www.w3.org/2000/svg" xmlns:xlink="http://www.w3.org/1999/xlink" xml:space="preserve" xmlns:serif="http://www.serif.com/" style="fill-rule:evenodd;clip-rule:evenodd;stroke-linejoin:round;stroke-miterlimit:2;"><g><path d="M34.2,44.3c-0.602,-0.011 -0.969,-0.028 -1.1,-0.05c-0.567,-0.1 -1.167,-0.467 -1.8,-1.1c-0.167,0.9 -0.383,1.667 -0.65,2.3c0,0.033 0.283,0.467 0.85,1.3c0.5,0.733 0.75,1.133 0.75,1.2c0,0.833 -0.967,1.883 -2.9,3.15c-1.833,1.233 -3.217,1.85 -4.15,1.85c-0.433,-0 -1,-0.083 -1.7,-0.25c-0.533,-0.133 -1.083,-0.267 -1.65,-0.4c0.7,0.8 1.533,1.433 2.5,1.9c1.033,0.567 2.033,0.85 3,0.85c1.333,0 2.667,-0.9 4,-2.7c1.167,-1.567 1.85,-3.033 2.05,-4.4c0.2,-0.133 0.45,-0.2 0.75,-0.2l4.1,0c1.667,0 3.05,-0.6 4.15,-1.8c1.033,-1.133 1.55,-2.5 1.55,-4.1c0,-1.133 -0.35,-2.167 -1.05,-3.1c-0.567,-0.7 -1.4,-1.417 -2.5,-2.15c-1,-0.6 -1.983,-1.2 -2.95,-1.8c0.767,-0.733 2.533,-1.75 5.3,-3.05c0.533,-0.233 2.5,-1.1 5.9,-2.6l0.65,-2.9c-2.267,0.433 -4.967,1.583 -8.1,3.45c-3.6,2.2 -5.4,4.167 -5.4,5.9c-0,1.033 0.567,1.933 1.7,2.7c1.033,0.567 2.083,1.15 3.15,1.75c1.1,0.667 1.65,1.45 1.65,2.35c-0,1.3 -1.917,1.95 -5.75,1.95l-1.2,0l-0,-0.05l-1.15,0Z"/><path d="M54.45,35.7c-0.167,0.533 -0.233,1.15 -0.2,1.85l0,2.4c1.033,-0 2.117,0.417 3.25,1.25c1.167,0.867 1.75,1.767 1.75,2.7c0,0.4 -0.65,0.717 -1.95,0.95c-1,0.2 -1.85,0.3 -2.55,0.3c-0.967,-0 -1.933,-0.25 -2.9,-0.75c-0.133,1.233 -0.2,1.917 -0.2,2.05c0,0.967 0.333,1.583 1,1.85c0.367,0.133 1.167,0.2 2.4,0.2c1.6,-0 2.817,-0.45 3.65,-1.35c0.8,-0.833 1.2,-2.017 1.2,-3.55c0,-1.8 -0.45,-3.4 -1.35,-4.8c-1,-1.533 -2.367,-2.567 -4.1,-3.1Z"/><path d="M57.85,30.1l-2.15,-2.05l-2.15,2.05l2.15,2l2.15,-2Z"/><path d="M38.9,22.2c-0.267,0.467 -0.4,1.017 -0.4,1.65c0,1.033 0.483,1.55 1.45,1.55c0.567,-0 1.05,-0.217 1.45,-0.65c0.4,-0.433 0.6,-0.917 0.6,-1.45c-0,-0.467 -0.133,-0.883 -0.4,-1.25c-0.333,-0.433 -0.75,-0.65 -1.25,-0.65c-0.633,-0 -1.117,0.267 -1.45,0.8Zm0.05,1.15c0,-0.567 0.267,-0.85 0.8,-0.85c0.233,0 0.533,0.133 0.9,0.4c0.4,0.267 0.6,0.5 0.6,0.7c0,0.367 -0.35,0.55 -1.05,0.55c-0.833,-0 -1.25,-0.267 -1.25,-0.8Z"/><path d="M21.85,39.05c0.267,-0.533 0.4,-1.033 0.4,-1.5c0,-0.233 -0.083,-0.517 -0.25,-0.85l-0.65,-0.35c-1.533,0 -3.183,1.083 -4.95,3.25c-1.7,2.1 -2.55,3.917 -2.55,5.45c-0,0.9 0.367,1.567 1.1,2c0.533,0.333 1.333,0.533 2.4,0.6c0.9,0.033 1.783,0.067 2.65,0.1c-0.5,0.9 -1.833,1.7 -4,2.4c-1.9,0.667 -3.5,1 -4.8,1c-3.667,-0 -5.5,-1.517 -5.5,-4.55c0,-0.833 0.267,-2.117 0.8,-3.85c-0.667,0.3 -1.25,1.117 -1.75,2.45c-0.467,1.133 -0.7,2.133 -0.7,3c-0,2 0.533,3.533 1.6,4.6c1.067,1.1 2.65,1.65 4.75,1.65c2.2,-0 4.567,-0.683 7.1,-2.05c2.833,-1.533 4.25,-3.25 4.25,-5.15c0,-1 -0.567,-1.667 -1.7,-2c-1.067,-0.167 -2.133,-0.35 -3.2,-0.55c-1.133,-0.2 -1.7,-0.617 -1.7,-1.25c0,-0.667 0.617,-1.467 1.85,-2.4c1.067,-0.767 2.017,-1.267 2.85,-1.5c0.367,0.133 0.6,0.25 0.7,0.35c0.067,0.067 0.267,0.25 0.6,0.55c0.233,-0.467 0.467,-0.933 0.7,-1.4Z" style="fill:#f00;"/><path d="M12.702,24.95c0.066,0.001 0.166,0.051 0.298,0.15c0.5,0.367 0.75,0.983 0.75,1.85c0,0.4 -0.167,0.767 -0.5,1.1c-0.333,0.333 -0.717,0.5 -1.15,0.5l-1.7,0c-0.167,0 -0.333,-0.05 -0.5,-0.15c-0.167,-0.133 -0.317,-0.25 -0.45,-0.35c-1.2,0.467 -2.283,0.7 -3.25,0.7c-0.633,0 -1.167,-0.1 -1.6,-0.3c-0.533,-0.267 -0.8,-0.683 -0.8,-1.25c-0,-0.233 0.05,-0.483 0.15,-0.75c0.133,-0.3 0.3,-0.5 0.5,-0.6c-0.133,0.433 -0.2,0.7 -0.2,0.8c-0,0.433 0.283,0.75 0.85,0.95c0.4,0.167 0.883,0.25 1.45,0.25c0.567,0 1.367,-0.1 2.4,-0.3c0,-0.066 -0.016,-0.164 -0.048,-0.294l-0.004,-0.012c-0.032,-0.13 -0.048,-0.228 -0.048,-0.294c-0,-0.333 0.133,-0.7 0.4,-1.1c0.3,-0.467 0.6,-0.7 0.9,-0.7c0.167,-0 0.317,0.133 0.45,0.4c0.067,0.2 0.1,0.4 0.1,0.6c0,0.433 -0.183,0.867 -0.55,1.3c0.133,0.067 0.333,0.1 0.6,0.1l1.75,0c0.133,0 0.317,-0.033 0.55,-0.1c0.267,-0.067 0.4,-0.15 0.4,-0.25c0,-0.067 -0.067,-0.217 -0.2,-0.45c-0.267,0.167 -0.517,0.25 -0.75,0.25c-0.2,0 -0.367,-0.067 -0.5,-0.2c-0.1,-0.133 -0.15,-0.3 -0.15,-0.5c-0,-0.267 0.083,-0.55 0.25,-0.85c0.167,-0.333 0.367,-0.5 0.6,-0.5l0.002,0Zm-2.502,1.7c0,0.067 -0.083,0.183 -0.25,0.35c-0.167,0.133 -0.267,0.2 -0.3,0.2c-0.067,-0 -0.167,-0.05 -0.3,-0.15c-0.133,-0.1 -0.2,-0.183 -0.2,-0.25c0,-0.1 0.083,-0.217 0.25,-0.35c0.133,-0.133 0.25,-0.2 0.35,-0.2c0.1,0 0.2,0.033 0.3,0.1c0.1,0.1 0.15,0.2 0.15,0.3Zm2.75,-0.35c-0.2,0.033 -0.333,0.05 -0.4,0.05c-0.033,0 -0.083,-0.017 -0.15,-0.05l-0.2,-0.05c0.033,-0.167 0.067,-0.267 0.1,-0.3c0.033,-0.033 0.117,-0.1 0.25,-0.2c0.167,0.1 0.3,0.233 0.4,0.4l0,0.15Z" style="fill:#f00;"/><path d="M12.8,24l0.55,0.5l0.55,-0.5l-0.55,-0.5l-0.55,0.5Z" style="fill:#f00;"/><path d="M12.25,24.5l0.55,-0.5l-0.55,-0.5l-0.55,0.5l0.55,0.5Z" style="fill:#f00;"/><path d="M9.6,23.1l-0.6,0.55l0.6,0.6l0.65,-0.6l-0.65,-0.55Z" style="fill:#f00;"/><path d="M57.319,52.969l-4.1,2.5c-0.707,0.431 -0.931,1.355 -0.5,2.062c0.431,0.707 1.355,0.931 2.062,0.5l4.1,-2.5c0.707,-0.431 0.931,-1.355 0.5,-2.062c-0.431,-0.707 -1.355,-0.931 -2.062,-0.5Z"/><path d="M23.926,25.065l-4.15,2.5c-0.709,0.427 -0.938,1.35 -0.511,2.059c0.427,0.709 1.35,0.938 2.059,0.511l4.15,-2.5c0.709,-0.427 0.938,-1.35 0.511,-2.059c-0.427,-0.709 -1.35,-0.938 -2.059,-0.511Z" style="fill:#f00;"/></g></svg>