<?xml version="1.0" encoding="UTF-8" standalone="no"?><!DOCTYPE svg PUBLIC "-//W3C//DTD SVG 1.1//EN" "http://www.w3.org/Graphics/SVG/1.1/DTD/svg11.dtd"><svg width="100%" height="100%" viewBox="0 0 32 58" version="1.1" xmlns="http://www.w3.org/2000/svg" xmlns:xlink="http://www.w3.org/1999/xlink" xml:space="preserve" xmlns:serif="http://www.serif.com/" style="fill-rule:evenodd;clip-rule:evenodd;stroke-linejoin:round;stroke-miterlimit:2;"><g><path d="M7.671,47.761c1.333,0.433 2.717,0.65 4.15,0.65c3.967,-0 7.067,-1.883 9.3,-5.65c1.933,-3.3 2.9,-7.367 2.9,-12.2c0,-1.933 -0.283,-3.8 -0.85,-5.6c-0.733,-2.4 -1.8,-3.6 -3.2,-3.6c-1.167,-0 -2.267,1.183 -3.3,3.55c-0.9,2.1 -1.35,3.933 -1.35,5.5c0,2.667 0.917,4 2.75,4c1.4,-0 2.717,-0.883 3.95,-2.65c0.333,0.8 0.5,1.55 0.5,2.25c0,3.933 -2.417,7.05 -7.25,9.35c-3.767,1.8 -7.6,2.7 -11.5,2.7c1.9,0.867 3.2,1.433 3.9,1.7Zm9.7,-18.4c0.433,-1.2 0.867,-2.3 1.3,-3.3c1.367,0.733 2.05,1.633 2.05,2.7c0,0.4 -0.2,0.75 -0.6,1.05c-0.4,0.3 -0.8,0.45 -1.2,0.45c-0.033,-0 -0.55,-0.3 -1.55,-0.9Zm1.25,-18.1c0,-0.867 -0.2,-1.717 -0.6,-2.55c-0.333,-0.7 -0.783,-1.05 -1.35,-1.05c-0.767,-0 -1.35,0.517 -1.75,1.55c-0.333,0.8 -0.5,1.8 -0.5,3c0,2.033 0.6,3.05 1.8,3.05c0.667,-0 1.233,-0.417 1.7,-1.25c0.467,-0.8 0.7,-1.717 0.7,-2.75Zm-2.65,-1c0.233,-0 0.5,0.183 0.8,0.55c0.4,0.4 0.6,0.733 0.6,1c0,0.367 -0.3,0.55 -0.9,0.55c-0.733,-0 -1.1,-0.333 -1.1,-1c0,-0.733 0.2,-1.1 0.6,-1.1Z" style="fill:#f00;fill-rule:nonzero;"/></g></svg>