<?xml version="1.0" encoding="UTF-8" standalone="no"?><!DOCTYPE svg PUBLIC "-//W3C//DTD SVG 1.1//EN" "http://www.w3.org/Graphics/SVG/1.1/DTD/svg11.dtd"><svg width="100%" height="100%" viewBox="0 0 19 32" version="1.1" xmlns="http://www.w3.org/2000/svg" xmlns:xlink="http://www.w3.org/1999/xlink" xml:space="preserve" xmlns:serif="http://www.serif.com/" style="fill-rule:evenodd;clip-rule:evenodd;stroke-linejoin:round;stroke-miterlimit:2;"><g><g><path d="M14.15,9.3c0.267,0.1 0.45,0.2 0.55,0.3c0.033,0 0.183,0.133 0.45,0.4c0.167,-0.367 0.35,-0.717 0.55,-1.05c0.167,-0.4 0.25,-0.767 0.25,-1.1c-0,-0.167 -0.067,-0.367 -0.2,-0.6l-0.45,-0.3c-1.167,-0 -2.417,0.8 -3.75,2.4c-1.3,1.533 -1.95,2.85 -1.95,3.95c0,0.667 0.283,1.167 0.85,1.5c0.4,0.233 1.017,0.383 1.85,0.45c0.667,0 1.317,0.017 1.95,0.05c-0.367,0.667 -1.367,1.25 -3,1.75c-1.433,0.467 -2.65,0.7 -3.65,0.7c-2.767,0 -4.15,-1.1 -4.15,-3.3c-0,-0.6 0.2,-1.533 0.6,-2.8c-0.5,0.2 -0.933,0.8 -1.3,1.8c-0.333,0.833 -0.5,1.567 -0.5,2.2c-0,1.433 0.383,2.55 1.15,3.35c0.8,0.8 2,1.2 3.6,1.2c1.667,-0 3.45,-0.5 5.35,-1.5c2.167,-1.1 3.25,-2.367 3.25,-3.8c0,-0.7 -0.433,-1.183 -1.3,-1.45c-0.8,-0.133 -1.6,-0.25 -2.4,-0.35c-0.867,-0.167 -1.3,-0.483 -1.3,-0.95c0,-0.467 0.467,-1.05 1.4,-1.75c0.8,-0.567 1.517,-0.933 2.15,-1.1Z"/></g></g></svg>