<?xml version="1.0" encoding="UTF-8" standalone="no"?><!DOCTYPE svg PUBLIC "-//W3C//DTD SVG 1.1//EN" "http://www.w3.org/Graphics/SVG/1.1/DTD/svg11.dtd"><svg width="100%" height="100%" viewBox="0 0 36 32" version="1.1" xmlns="http://www.w3.org/2000/svg" xmlns:xlink="http://www.w3.org/1999/xlink" xml:space="preserve" xmlns:serif="http://www.serif.com/" style="fill-rule:evenodd;clip-rule:evenodd;stroke-linejoin:round;stroke-miterlimit:2;"><g><path d="M24.677,19.728l-3.75,2.7c-0.672,0.483 -0.825,1.421 -0.341,2.093c0.484,0.672 1.422,0.825 2.094,0.341l3.75,-2.7c0.671,-0.484 0.824,-1.422 0.34,-2.094c-0.483,-0.671 -1.421,-0.824 -2.093,-0.34Z"/><g><path d="M8.1,19.5c0.833,0.9 2.083,1.35 3.75,1.35c1.767,0 3.633,-0.55 5.6,-1.65c2.267,-1.233 3.4,-2.617 3.4,-4.15c0,-0.8 -0.45,-1.333 -1.35,-1.6c-0.833,-0.167 -1.683,-0.317 -2.55,-0.45c-0.9,-0.167 -1.35,-0.517 -1.35,-1.05c0,-0.5 0.5,-1.133 1.5,-1.9c0.833,-0.633 1.583,-1.05 2.25,-1.25c0.267,0.133 0.45,0.25 0.55,0.35c0.033,0.033 0.183,0.167 0.45,0.4c0.2,-0.367 0.4,-0.733 0.6,-1.1c0.2,-0.467 0.3,-0.867 0.3,-1.2c0,-0.2 -0.067,-0.433 -0.2,-0.7l-0.5,-0.3c-1.233,-0 -2.55,0.883 -3.95,2.65c-1.333,1.667 -2,3.117 -2,4.35c0,0.733 0.283,1.283 0.85,1.65c0.433,0.267 1.083,0.433 1.95,0.5c0.667,-0 1.35,0.017 2.05,0.05c-0.4,0.733 -1.45,1.383 -3.15,1.95c-1.5,0.533 -2.783,0.8 -3.85,0.8c-2.867,-0 -4.3,-1.217 -4.3,-3.65c-0,-0.667 0.2,-1.717 0.6,-3.15c-0.533,0.267 -1,0.933 -1.4,2c-0.333,0.933 -0.5,1.75 -0.5,2.45c0,1.6 0.417,2.817 1.25,3.65Z" style="fill:#f00;"/><path d="M27.05,5.75c-0.1,0.4 -0.15,0.883 -0.15,1.45l0.05,1.95c0.8,-0 1.65,0.333 2.55,1c0.933,0.7 1.4,1.433 1.4,2.2c-0,0.3 -0.517,0.55 -1.55,0.75c-0.8,0.167 -1.483,0.25 -2.05,0.25c-0.767,0 -1.533,-0.2 -2.3,-0.6c-0.1,1 -0.15,1.55 -0.15,1.65c0,0.767 0.267,1.267 0.8,1.5c0.3,0.1 0.933,0.15 1.9,0.15c1.267,0 2.233,-0.367 2.9,-1.1c0.633,-0.667 0.95,-1.617 0.95,-2.85c-0,-1.433 -0.367,-2.717 -1.1,-3.85c-0.767,-1.233 -1.85,-2.067 -3.25,-2.5Z"/></g></g></svg>