<?xml version="1.0" encoding="UTF-8" standalone="no"?><!DOCTYPE svg PUBLIC "-//W3C//DTD SVG 1.1//EN" "http://www.w3.org/Graphics/SVG/1.1/DTD/svg11.dtd"><svg width="100%" height="100%" viewBox="0 0 9 32" version="1.1" xmlns="http://www.w3.org/2000/svg" xmlns:xlink="http://www.w3.org/1999/xlink" xml:space="preserve" xmlns:serif="http://www.serif.com/" style="fill-rule:evenodd;clip-rule:evenodd;stroke-linejoin:round;stroke-miterlimit:2;"><g><path d="M7.203,15.095c-0.9,-1.233 -2.15,-2.067 -3.75,-2.5c-0.1,0.4 -0.15,0.883 -0.15,1.45l0,1.95c0.933,-0 1.917,0.333 2.95,1c1.067,0.7 1.6,1.433 1.6,2.2c0,0.3 -0.6,0.55 -1.8,0.75c-0.9,0.167 -1.667,0.25 -2.3,0.25c-0.867,-0 -1.75,-0.2 -2.65,-0.6c-0.1,1 -0.15,1.55 -0.15,1.65c0,0.767 0.3,1.267 0.9,1.5c0.333,0.1 1.067,0.15 2.2,0.15c1.433,-0 2.533,-0.367 3.3,-1.1c0.733,-0.667 1.1,-1.617 1.1,-2.85c0,-1.433 -0.417,-2.717 -1.25,-3.85Z"/><path d="M-4.08,20.204l0,-2.356l-2.338,0l0,-0.984l2.338,-0l0,-2.338l0.996,0l0,2.338l2.338,-0l0,0.984l-2.338,0l0,2.356l-0.996,-0Z" style="fill-rule:nonzero;"/><path d="M4.658,5.141l-3.65,2.7c-0.443,0.328 -0.537,0.955 -0.209,1.399c0.328,0.443 0.955,0.537 1.399,0.209l3.65,-2.7c0.444,-0.328 0.537,-0.955 0.209,-1.399c-0.328,-0.444 -0.955,-0.537 -1.399,-0.209Z"/></g></svg>