<?xml version="1.0" encoding="UTF-8" standalone="no"?><!DOCTYPE svg PUBLIC "-//W3C//DTD SVG 1.1//EN" "http://www.w3.org/Graphics/SVG/1.1/DTD/svg11.dtd"><svg width="100%" height="100%" viewBox="0 0 30 32" version="1.1" xmlns="http://www.w3.org/2000/svg" xmlns:xlink="http://www.w3.org/1999/xlink" xml:space="preserve" xmlns:serif="http://www.serif.com/" style="fill-rule:evenodd;clip-rule:evenodd;stroke-linejoin:round;stroke-miterlimit:2;"><g><path d="M17.253,14.695c0.2,-0.467 0.3,-0.9 0.3,-1.3c0,-0.2 -0.067,-0.433 -0.2,-0.7l-0.5,-0.3c-1.267,-0 -2.633,0.917 -4.1,2.75c-1.367,1.8 -2.05,3.35 -2.05,4.65c0,0.767 0.283,1.333 0.85,1.7c0.467,0.267 1.133,0.45 2,0.55c0.733,-0 1.45,0.017 2.15,0.05c-0.4,0.767 -1.483,1.45 -3.25,2.05c-1.567,0.567 -2.883,0.85 -3.95,0.85c-2.967,-0 -4.45,-1.283 -4.45,-3.85c0,-0.733 0.217,-1.833 0.65,-3.3c-0.567,0.233 -1.05,0.917 -1.45,2.05c-0.367,1 -0.55,1.867 -0.55,2.6c0,1.7 0.433,3 1.3,3.9c0.867,0.933 2.15,1.4 3.85,1.4c1.833,-0 3.767,-0.567 5.8,-1.7c2.333,-1.333 3.5,-2.817 3.5,-4.45c0,-0.833 -0.467,-1.4 -1.4,-1.7c-0.867,-0.133 -1.733,-0.283 -2.6,-0.45c-0.933,-0.167 -1.4,-0.517 -1.4,-1.05c0,-0.567 0.5,-1.25 1.5,-2.05c0.9,-0.667 1.683,-1.1 2.35,-1.3c0.267,0.133 0.467,0.233 0.6,0.3c0.033,0.067 0.183,0.233 0.45,0.5c0.2,-0.4 0.4,-0.8 0.6,-1.2Z" style="fill:#f00;"/><path d="M23.503,11.845c-0.133,0.433 -0.2,0.95 -0.2,1.55l0.05,2.05c0.833,-0 1.717,0.35 2.65,1.05c0.933,0.767 1.4,1.55 1.4,2.35c0,0.3 -0.533,0.567 -1.6,0.8c-0.8,0.167 -1.483,0.25 -2.05,0.25c-0.8,-0 -1.6,-0.217 -2.4,-0.65c-0.1,1.033 -0.15,1.617 -0.15,1.75c0,0.8 0.283,1.317 0.85,1.55c0.267,0.133 0.917,0.2 1.95,0.2c1.3,-0 2.3,-0.383 3,-1.15c0.633,-0.733 0.95,-1.733 0.95,-3c0,-1.533 -0.367,-2.917 -1.1,-4.15c-0.833,-1.267 -1.95,-2.133 -3.35,-2.6Z"/><path d="M20.931,2.24l-4.35,2.85c-0.692,0.454 -0.886,1.384 -0.433,2.077c0.454,0.692 1.385,0.886 2.077,0.433l4.35,-2.85c0.693,-0.454 0.887,-1.385 0.433,-2.077c-0.454,-0.693 -1.384,-0.887 -2.077,-0.433Z"/><path d="M36.576,16.27l-5.672,-0l0,-0.985l5.672,0l0,0.985Zm0,2.607l-5.672,0l0,-0.984l5.672,-0l0,0.984Z" style="fill-rule:nonzero;"/></g></svg>