<?xml version="1.0" encoding="UTF-8" standalone="no"?><!DOCTYPE svg PUBLIC "-//W3C//DTD SVG 1.1//EN" "http://www.w3.org/Graphics/SVG/1.1/DTD/svg11.dtd"><svg width="100%" height="100%" viewBox="0 0 88 67" version="1.1" xmlns="http://www.w3.org/2000/svg" xmlns:xlink="http://www.w3.org/1999/xlink" xml:space="preserve" xmlns:serif="http://www.serif.com/" style="fill-rule:evenodd;clip-rule:evenodd;stroke-linejoin:round;stroke-miterlimit:2;"><g><path d="M43.9,56.5l2.8,-2.7l2.85,2.7l2.95,-2.75l-2.95,-2.7l-2.8,2.75l-2.85,-2.75l-2.9,2.7l2.9,2.75Z" style="fill:#f00;"/><path d="M47.25,36.25c-1.333,2.1 -2.233,3.35 -2.7,3.75c-0.6,0.5 -1.583,0.75 -2.95,0.75c-0.267,0 -0.967,-0.017 -2.1,-0.05c-1.1,-0.033 -2.083,-0.05 -2.95,-0.05l-0,5.35l4.95,-0c1.1,-0 1.983,-0.383 2.65,-1.15c0.1,-0.1 0.633,-0.933 1.6,-2.5c0.467,0.8 1.15,1.583 2.05,2.35c1.067,0.867 1.983,1.3 2.75,1.3l3,-0l-0,-5.25c-0.991,0.067 -1.675,0.1 -2.05,0.1c-1.467,-0 -2.5,-0.283 -3.1,-0.85c-0.7,-0.667 -1.083,-1.917 -1.15,-3.75Z" style="fill:#f00;"/><path d="M55.35,46l1.1,0l0,-0.05c-0.346,0.025 -0.713,0.042 -1.1,0.05Z" style="fill:#f00;"/><path d="M56.45,40.7l0,-0.05c-0.495,0 -1.095,0.017 -1.8,0.05l1.8,-0Z" style="fill:#f00;"/><path d="M22.35,53.05c-5.5,0 -8.25,-2.05 -8.25,-6.15c0,-0.733 0.4,-2.567 1.2,-5.5c-0.967,0.433 -1.8,1.733 -2.5,3.9c-0.567,1.8 -0.85,3.367 -0.85,4.7c0,5.4 2.833,8.1 8.5,8.1c3.767,-0 6.833,-1.1 9.2,-3.3c2.367,-2.233 3.55,-5.167 3.55,-8.8l3.35,-0l-0,-5.3l-0.9,-0c-1.2,-0 -2.083,-0.167 -2.65,-0.5c-0.533,-0.333 -1.417,-1.233 -2.65,-2.7l-2.15,3.9c1.1,1.667 1.783,2.75 2.05,3.25c0.533,1.167 0.8,2.367 0.8,3.6c-0,1.7 -1.067,2.983 -3.2,3.85c-1.6,0.633 -3.433,0.95 -5.5,0.95Z"/><path d="M56.15,54.5l3.3,3.1l3.25,-3.1l-3.25,-3.1l-3.3,3.1Z"/><path d="M53.55,40.7l-0,5.3l1.8,0c0.387,-0.008 0.754,-0.025 1.1,-0.05c2.522,-0.147 4.388,-0.714 5.6,-1.7c1.567,-1.3 2.35,-3.5 2.35,-6.6c-0,-0.867 -0.383,-2.85 -1.15,-5.95c-0.867,1.9 -1.567,3.317 -2.1,4.25c0.833,1.5 1.35,2.583 1.55,3.25c-0.773,0.921 -2.856,1.421 -6.25,1.5l-2.9,-0Z"/><path d="M22.5,30.05l-3.25,3.15l3.25,3.05l3.3,-3.05l-3.3,-3.15Z"/><path d="M43.4,9.1c-0.433,0.667 -0.65,1.5 -0.65,2.5c0,1.6 0.733,2.4 2.2,2.4c0.867,0 1.6,-0.333 2.2,-1c0.633,-0.667 0.95,-1.417 0.95,-2.25c0,-0.7 -0.233,-1.35 -0.7,-1.95c-0.467,-0.633 -1.067,-0.95 -1.8,-0.95c-0.967,-0 -1.7,0.417 -2.2,1.25Zm3.55,2.15c0,0.533 -0.533,0.8 -1.6,0.8c-1.267,0 -1.9,-0.4 -1.9,-1.2c0,-0.867 0.4,-1.3 1.2,-1.3c0.367,0 0.833,0.2 1.4,0.6c0.6,0.4 0.9,0.767 0.9,1.1Z"/><path d="M23.091,4.806l-5.8,3.4c-0.714,0.419 -0.954,1.338 -0.535,2.053c0.419,0.714 1.338,0.954 2.053,0.535l5.8,-3.4c0.714,-0.419 0.954,-1.338 0.535,-2.053c-0.419,-0.714 -1.338,-0.954 -2.053,-0.535Z"/><path d="M61.491,3.506l-5.8,3.4c-0.714,0.419 -0.954,1.338 -0.535,2.053c0.419,0.714 1.338,0.954 2.053,0.535l5.8,-3.4c0.714,-0.419 0.954,-1.338 0.535,-2.053c-0.419,-0.714 -1.338,-0.954 -2.053,-0.535Z"/></g></svg>