<?xml version="1.0" encoding="UTF-8" standalone="no"?><!DOCTYPE svg PUBLIC "-//W3C//DTD SVG 1.1//EN" "http://www.w3.org/Graphics/SVG/1.1/DTD/svg11.dtd"><svg width="100%" height="100%" viewBox="0 0 70 72" version="1.1" xmlns="http://www.w3.org/2000/svg" xmlns:xlink="http://www.w3.org/1999/xlink" xml:space="preserve" xmlns:serif="http://www.serif.com/" style="fill-rule:evenodd;clip-rule:evenodd;stroke-linejoin:round;stroke-miterlimit:2;"><g><path d="M32.6,59.45l-2.95,-2.7l-2.8,2.75l-2.85,-2.75l-2.9,2.7l2.9,2.75l2.8,-2.7l2.85,2.7l2.95,-2.75Z" style="fill:#f00;"/><path d="M9,21.5c-0.4,0.533 -0.6,1.25 -0.6,2.15c-0,7.167 0.033,11.767 0.1,13.8c0.3,6.933 1.017,11.1 2.15,12.5c0.933,1.167 2.25,1.75 3.95,1.75l7,-0c1.1,-0 1.983,-0.383 2.65,-1.15c0.1,-0.1 0.633,-0.933 1.6,-2.5c0.467,0.8 1.15,1.583 2.05,2.35c1.067,0.867 1.983,1.3 2.75,1.3l3,-0l-0,-5.25c-0.991,0.067 -1.675,0.1 -2.05,0.1c-1.467,0 -2.5,-0.283 -3.1,-0.85c-0.7,-0.667 -1.083,-1.917 -1.15,-3.75c-1.333,2.1 -2.233,3.35 -2.7,3.75c-0.6,0.5 -1.583,0.75 -2.95,0.75c-0.267,-0 -0.967,-0.017 -2.1,-0.05c-0.204,-0.006 -0.404,-0.023 -0.6,-0.05c-3.6,0 -5.933,-0.667 -7,-2c-0.9,-1.133 -1.35,-3.533 -1.35,-7.2l-0,-17.2c-0.567,0.533 -1.117,1.05 -1.65,1.55Z" style="fill:#f00;"/><path d="M36.55,51.7l-0,-0.05c-0.346,0.025 -0.713,0.042 -1.1,0.05l1.1,-0Z" style="fill:#f00;"/><path d="M36.55,46.4l-0,-0.05c-0.495,0 -1.095,0.017 -1.8,0.05l1.8,-0Z" style="fill:#f00;"/><path d="M55.6,33.1c-0.2,0.8 -0.3,1.75 -0.3,2.85l0.05,3.75c1.533,-0 3.15,0.633 4.85,1.9c1.8,1.333 2.7,2.733 2.7,4.2c-0,0.567 -0.983,1.05 -2.95,1.45c-1.533,0.3 -2.833,0.45 -3.9,0.45c-1.433,-0 -2.9,-0.4 -4.4,-1.2c-0.167,1.933 -0.25,3 -0.25,3.2c-0,1.467 0.5,2.4 1.5,2.8c0.567,0.233 1.783,0.35 3.65,0.35c2.4,0 4.25,-0.683 5.55,-2.05c1.2,-1.3 1.8,-3.117 1.8,-5.45c-0,-2.8 -0.7,-5.283 -2.1,-7.45c-1.5,-2.333 -3.567,-3.933 -6.2,-4.8Z"/><path d="M41.25,41.65c0.833,1.5 1.35,2.583 1.55,3.25c-0.773,0.921 -2.856,1.421 -6.25,1.5l-2.9,-0l-0,5.3l1.8,-0c0.387,-0.008 0.754,-0.025 1.1,-0.05c2.522,-0.147 4.388,-0.714 5.6,-1.7c1.567,-1.3 2.35,-3.5 2.35,-6.6c0,-0.867 -0.383,-2.85 -1.15,-5.95c-0.867,1.9 -1.567,3.317 -2.1,4.25Z"/><path d="M40.15,33.75l3.3,-3.1l-3.3,-3.15l-3.3,3.15l3.3,3.1Z"/><path d="M40.6,14.9c-0.467,-0.633 -1.067,-0.95 -1.8,-0.95c-0.967,-0 -1.7,0.417 -2.2,1.25c-0.433,0.667 -0.65,1.5 -0.65,2.5c0,1.6 0.733,2.4 2.2,2.4c0.867,0 1.6,-0.333 2.2,-1c0.633,-0.667 0.95,-1.417 0.95,-2.25c-0,-0.7 -0.233,-1.35 -0.7,-1.95Zm-1.35,1.35c0.6,0.4 0.9,0.767 0.9,1.1c-0,0.533 -0.533,0.8 -1.6,0.8c-1.267,-0 -1.9,-0.4 -1.9,-1.2c-0,-0.867 0.4,-1.3 1.2,-1.3c0.367,-0 0.833,0.2 1.4,0.6Z"/><path d="M57,13.35c0,-1.367 -0.567,-2.05 -1.7,-2.05c-0.767,0 -1.467,0.483 -2.1,1.45c-0.533,0.833 -0.8,1.633 -0.8,2.4c-0,0.667 0.517,1.35 1.55,2.05c-1.867,1.6 -3.617,2.817 -5.25,3.65c0.567,0.167 1.033,0.25 1.4,0.25c1.367,0 3,-1.1 4.9,-3.3c0.767,0.533 1.433,0.933 2,1.2l0.2,-2.3c-0.433,-0.3 -0.767,-0.517 -1,-0.65c0.533,-1.167 0.8,-2.067 0.8,-2.7Zm-2.85,-0.05c0.867,0.133 1.3,0.6 1.3,1.4c0,0.2 -0.05,0.433 -0.15,0.7c-1.067,-0.6 -1.6,-1.167 -1.6,-1.7c0.067,-0.233 0.217,-0.367 0.45,-0.4Z"/><path d="M21.641,11.106l-5.8,3.4c-0.714,0.419 -0.954,1.338 -0.535,2.053c0.419,0.714 1.338,0.954 2.053,0.535l5.8,-3.4c0.714,-0.419 0.954,-1.338 0.535,-2.053c-0.419,-0.714 -1.338,-0.954 -2.053,-0.535Z"/></g></svg>