<?xml version="1.0" encoding="UTF-8" standalone="no"?><!DOCTYPE svg PUBLIC "-//W3C//DTD SVG 1.1//EN" "http://www.w3.org/Graphics/SVG/1.1/DTD/svg11.dtd"><svg width="100%" height="100%" viewBox="0 0 96 72" version="1.1" xmlns="http://www.w3.org/2000/svg" xmlns:xlink="http://www.w3.org/1999/xlink" xml:space="preserve" xmlns:serif="http://www.serif.com/" style="fill-rule:evenodd;clip-rule:evenodd;stroke-linejoin:round;stroke-miterlimit:2;"><g><path d="M36.2,36.35c0,-0.367 -0.133,-0.817 -0.4,-1.35l-0.95,-0.55c-2.333,-0 -4.833,1.683 -7.5,5.05c-2.6,3.233 -3.9,6.017 -3.9,8.35c0,1.433 0.55,2.467 1.65,3.1c0.833,0.533 2.067,0.867 3.7,1c1.333,0.033 2.667,0.067 4,0.1c-0.767,1.367 -2.8,2.617 -6.1,3.75c-2.867,0.967 -5.283,1.45 -7.25,1.45c-5.567,-0 -8.35,-2.317 -8.35,-6.95c0,-1.267 0.417,-3.267 1.25,-6c-1.033,0.5 -1.933,1.767 -2.7,3.8c-0.667,1.767 -1,3.317 -1,4.65c-0,3.067 0.8,5.433 2.4,7.1c1.6,1.7 3.983,2.55 7.15,2.55c3.367,-0 6.967,-1.05 10.8,-3.15c4.3,-2.367 6.45,-5.033 6.45,-8c0,-1.5 -0.85,-2.517 -2.55,-3.05c-1.633,-0.267 -3.25,-0.55 -4.85,-0.85c-1.767,-0.333 -2.65,-0.983 -2.65,-1.95c-0,-1 0.95,-2.217 2.85,-3.65c1.633,-1.2 3.067,-1.983 4.3,-2.35c0.533,0.233 0.9,0.417 1.1,0.55c0.1,0.067 0.383,0.35 0.85,0.85c0.4,-0.7 0.767,-1.417 1.1,-2.15c0.4,-0.833 0.6,-1.6 0.6,-2.3Z" style="fill:#f00;"/><path d="M50.5,40.75l-1.25,4.45c0.7,0.733 1.4,1.483 2.1,2.25c0.9,1.067 1.35,1.883 1.35,2.45c0,2.833 -2.15,5.283 -6.45,7.35c-3.667,1.7 -7.167,2.55 -10.5,2.55c2.667,1.733 5.317,2.6 7.95,2.6c3.033,-0 5.617,-1.75 7.75,-5.25c1.833,-3.033 2.75,-6.117 2.75,-9.25c0,-1.533 -0.317,-2.867 -0.95,-4c-0.5,-0.8 -1.417,-1.85 -2.75,-3.15Z"/><path d="M71.4,38.25c-1.5,-2.333 -3.567,-3.933 -6.2,-4.8c-0.2,0.8 -0.3,1.75 -0.3,2.85l0.05,3.75c1.533,0 3.15,0.633 4.85,1.9c1.8,1.333 2.7,2.733 2.7,4.2c0,0.567 -0.983,1.05 -2.95,1.45c-1.533,0.3 -2.833,0.45 -3.9,0.45c-1.433,0 -2.9,-0.4 -4.4,-1.2c-0.167,1.933 -0.25,3 -0.25,3.2c0,1.467 0.5,2.4 1.5,2.8c0.567,0.233 1.783,0.35 3.65,0.35c2.4,-0 4.25,-0.683 5.55,-2.05c1.2,-1.3 1.8,-3.117 1.8,-5.45c0,-2.8 -0.7,-5.283 -2.1,-7.45Z"/><path d="M83.65,19.35c-2,2.467 -2.983,3.95 -2.95,4.45l0.75,28.3c1.633,-1.3 2.45,-4.733 2.45,-10.3l-0.25,-22.45Z"/><path d="M62.3,24.85c-0,1.6 0.733,2.4 2.2,2.4c0.867,0 1.6,-0.333 2.2,-1c0.633,-0.667 0.95,-1.417 0.95,-2.25c0,-0.7 -0.233,-1.35 -0.7,-1.95c-0.467,-0.633 -1.067,-0.95 -1.8,-0.95c-0.967,0 -1.7,0.417 -2.2,1.25c-0.433,0.667 -0.65,1.5 -0.65,2.5Zm4.2,-0.35c0,0.533 -0.533,0.8 -1.6,0.8c-1.267,0 -1.9,-0.4 -1.9,-1.2c-0,-0.867 0.4,-1.3 1.2,-1.3c0.367,0 0.833,0.2 1.4,0.6c0.6,0.4 0.9,0.767 0.9,1.1Z"/><path d="M46.683,63.361l-5.8,3.45c-0.711,0.423 -0.945,1.344 -0.522,2.056c0.423,0.711 1.344,0.945 2.056,0.522l5.8,-3.45c0.711,-0.423 0.945,-1.344 0.522,-2.056c-0.423,-0.711 -1.344,-0.945 -2.056,-0.522Z"/><path d="M84.633,10.961l-5.8,3.45c-0.711,0.423 -0.945,1.344 -0.522,2.056c0.423,0.711 1.344,0.945 2.056,0.522l5.8,-3.45c0.711,-0.423 0.945,-1.344 0.522,-2.056c-0.423,-0.711 -1.344,-0.945 -2.056,-0.522Z"/></g></svg>