<?xml version="1.0" encoding="UTF-8" standalone="no"?><!DOCTYPE svg PUBLIC "-//W3C//DTD SVG 1.1//EN" "http://www.w3.org/Graphics/SVG/1.1/DTD/svg11.dtd"><svg width="100%" height="100%" viewBox="0 0 61 73" version="1.1" xmlns="http://www.w3.org/2000/svg" xmlns:xlink="http://www.w3.org/1999/xlink" xml:space="preserve" xmlns:serif="http://www.serif.com/" style="fill-rule:evenodd;clip-rule:evenodd;stroke-linejoin:round;stroke-miterlimit:2;"><g><path d="M23.2,45.1c1.133,1.5 1.883,2.55 2.25,3.15c0.733,1.267 1.1,2.483 1.1,3.65c-0,1.433 -1.2,2.65 -3.6,3.65c-1.933,0.833 -3.783,1.25 -5.55,1.25c-4.367,0 -6.55,-1.75 -6.55,-5.25c0,-0.567 0.133,-1.4 0.4,-2.5c0.233,-1.133 0.35,-1.983 0.35,-2.55c-0.867,0.867 -1.583,2.1 -2.15,3.7c-0.5,1.467 -0.75,2.883 -0.75,4.25c0,2.467 0.767,4.333 2.3,5.6c1.433,1.2 3.467,1.8 6.1,1.8c3.267,0 6,-1.117 8.2,-3.35c2.233,-2.233 3.35,-4.933 3.35,-8.1c-0,-4.067 -1.183,-7.483 -3.55,-10.25c-0.667,1.167 -1.3,2.817 -1.9,4.95Z"/><path d="M38.9,20.25c-2,2.467 -2.983,3.95 -2.95,4.45l0.75,28.3c1.633,-1.3 2.45,-4.733 2.45,-10.3l-0.25,-22.45Z"/><path d="M16.95,31.9l-3.3,3.15l3.3,3.1l3.3,-3.1l-3.3,-3.15Z"/><path d="M15.65,19.4c-0.433,0.667 -0.65,1.5 -0.65,2.5c0,1.6 0.733,2.4 2.2,2.4c0.867,0 1.6,-0.333 2.2,-1c0.633,-0.667 0.95,-1.417 0.95,-2.25c0,-0.7 -0.233,-1.35 -0.7,-1.95c-0.467,-0.633 -1.067,-0.95 -1.8,-0.95c-0.967,0 -1.7,0.417 -2.2,1.25Zm3.55,2.15c0,0.533 -0.533,0.8 -1.6,0.8c-1.267,-0 -1.9,-0.4 -1.9,-1.2c0,-0.867 0.4,-1.3 1.2,-1.3c0.367,-0 0.833,0.2 1.4,0.6c0.6,0.4 0.9,0.767 0.9,1.1Z"/><path d="M39.233,8.561l-5.8,3.45c-0.711,0.423 -0.945,1.344 -0.522,2.056c0.423,0.711 1.344,0.945 2.056,0.522l5.8,-3.45c0.711,-0.423 0.945,-1.344 0.522,-2.056c-0.423,-0.711 -1.344,-0.945 -2.056,-0.522Z"/></g></svg>