<?xml version="1.0" encoding="UTF-8" standalone="no"?><!DOCTYPE svg PUBLIC "-//W3C//DTD SVG 1.1//EN" "http://www.w3.org/Graphics/SVG/1.1/DTD/svg11.dtd"><svg width="100%" height="100%" viewBox="0 0 56 72" version="1.1" xmlns="http://www.w3.org/2000/svg" xmlns:xlink="http://www.w3.org/1999/xlink" xml:space="preserve" xmlns:serif="http://www.serif.com/" style="fill-rule:evenodd;clip-rule:evenodd;stroke-linejoin:round;stroke-miterlimit:2;"><g><path d="M25.8,33.85c-0.2,0.8 -0.3,1.75 -0.3,2.85l0.05,3.75c1.533,-0 3.15,0.633 4.85,1.9c1.8,1.333 2.7,2.733 2.7,4.2c0,0.567 -0.983,1.05 -2.95,1.45c-1.533,0.3 -2.833,0.45 -3.9,0.45c-1.433,-0 -2.9,-0.4 -4.4,-1.2c-0.167,1.933 -0.25,3 -0.25,3.2c0,1.467 0.5,2.4 1.5,2.8c0.567,0.233 1.783,0.35 3.65,0.35c2.4,0 4.25,-0.683 5.55,-2.05c1.2,-1.3 1.8,-3.117 1.8,-5.45c0,-2.8 -0.7,-5.283 -2.1,-7.45c-1.5,-2.333 -3.567,-3.933 -6.2,-4.8Z"/><path d="M44.3,19.75c-2,2.467 -2.983,3.95 -2.95,4.45l0.75,28.3c1.633,-1.3 2.45,-4.733 2.45,-10.3l-0.25,-22.45Z"/><path d="M13.9,19.75c-2,2.467 -2.983,3.95 -2.95,4.45l0.75,28.3c1.633,-1.3 2.45,-4.733 2.45,-10.3l-0.25,-22.45Z"/><path d="M27.7,22.1l-3.25,3.15l3.25,3.05l3.3,-3.05l-3.3,-3.15Z"/><path d="M45.533,55.611l-5.8,3.45c-0.711,0.423 -0.945,1.344 -0.522,2.056c0.423,0.711 1.344,0.945 2.056,0.522l5.8,-3.45c0.711,-0.423 0.945,-1.344 0.522,-2.056c-0.423,-0.711 -1.344,-0.945 -2.056,-0.522Z"/><path d="M22.796,10.953l-5.85,3.4c-0.716,0.416 -0.959,1.335 -0.543,2.051c0.416,0.716 1.335,0.959 2.051,0.543l5.85,-3.4c0.716,-0.416 0.959,-1.335 0.543,-2.051c-0.416,-0.716 -1.335,-0.959 -2.051,-0.543Z"/></g></svg>