<?xml version="1.0" encoding="UTF-8" standalone="no"?><!DOCTYPE svg PUBLIC "-//W3C//DTD SVG 1.1//EN" "http://www.w3.org/Graphics/SVG/1.1/DTD/svg11.dtd"><svg width="100%" height="100%" viewBox="0 0 55 67" version="1.1" xmlns="http://www.w3.org/2000/svg" xmlns:xlink="http://www.w3.org/1999/xlink" xml:space="preserve" xmlns:serif="http://www.serif.com/" style="fill-rule:evenodd;clip-rule:evenodd;stroke-linejoin:round;stroke-miterlimit:2;"><g><path d="M28.85,49.85l2.85,2.7l2.95,-2.75l-2.95,-2.7l-2.8,2.75l-2.85,-2.75l-2.9,2.7l2.9,2.75l2.8,-2.7Z" style="fill:#f00;"/><path d="M21.65,36.75c-0.118,-0.004 -0.235,-0.004 -0.35,0c-0.6,-0.021 -1.167,-0.037 -1.7,-0.05l-0.9,-0l0,5.35l4.95,0c1.1,0 1.983,-0.383 2.65,-1.15c0.1,-0.1 0.633,-0.933 1.6,-2.5c0.467,0.8 1.15,1.583 2.05,2.35c1.067,0.867 1.983,1.3 2.75,1.3l3.2,0l0,-5.25c-1.1,0.067 -1.85,0.1 -2.25,0.1c-1.467,0 -2.5,-0.283 -3.1,-0.85c-0.7,-0.667 -1.083,-1.917 -1.15,-3.75c-1.333,2.1 -2.233,3.35 -2.7,3.75c-0.6,0.5 -1.583,0.75 -2.95,0.75c-0.267,0 -0.967,-0.017 -2.1,-0.05Z" style="fill:#f00;"/><rect x="12.55" y="36.7" width="6.15" height="5.35"/><rect x="35.9" y="36.7" width="8.75" height="5.35"/><path d="M21.3,36.75l-0,-0.05l-1.7,-0c0.533,0.013 1.1,0.029 1.7,0.05Z"/><path d="M25.7,13.15c0,1.6 0.733,2.4 2.2,2.4c0.867,0 1.6,-0.333 2.2,-1c0.633,-0.667 0.95,-1.417 0.95,-2.25c-0,-0.7 -0.233,-1.35 -0.7,-1.95c-0.467,-0.633 -1.067,-0.95 -1.8,-0.95c-0.967,0 -1.7,0.417 -2.2,1.25c-0.433,0.667 -0.65,1.5 -0.65,2.5Zm2.6,0.45c-1.267,-0 -1.9,-0.4 -1.9,-1.2c0,-0.867 0.4,-1.3 1.2,-1.3c0.367,-0 0.833,0.2 1.4,0.6c0.6,0.4 0.9,0.767 0.9,1.1c0,0.533 -0.533,0.8 -1.6,0.8Z"/></g></svg>