<?xml version="1.0" encoding="UTF-8" standalone="no"?><!DOCTYPE svg PUBLIC "-//W3C//DTD SVG 1.1//EN" "http://www.w3.org/Graphics/SVG/1.1/DTD/svg11.dtd"><svg width="100%" height="100%" viewBox="0 0 117 73" version="1.1" xmlns="http://www.w3.org/2000/svg" xmlns:xlink="http://www.w3.org/1999/xlink" xml:space="preserve" xmlns:serif="http://www.serif.com/" style="fill-rule:evenodd;clip-rule:evenodd;stroke-linejoin:round;stroke-miterlimit:2;"><g><path d="M38.9,47.25l-1.35,0c-2.433,0 -4.583,0.683 -6.45,2.05c-2.067,1.5 -3.1,3.383 -3.1,5.65c0,1 0.55,1.75 1.65,2.25c0.633,0.267 1.767,0.517 3.4,0.75c1.533,0.2 2.533,0.433 3,0.7c-0.467,0.9 -2.417,1.733 -5.85,2.5c-2.833,0.6 -5.117,0.9 -6.85,0.9c-2.933,0 -5.167,-0.283 -6.7,-0.85c-2.4,-0.867 -3.6,-2.467 -3.6,-4.8c-0,-0.967 0.367,-2.233 1.1,-3.8c0.9,-1.867 1.433,-3.117 1.6,-3.75c-1.3,0.8 -2.55,2.217 -3.75,4.25c-1.267,2.1 -1.9,3.867 -1.9,5.3c0,2.767 1.3,4.833 3.9,6.2c2.067,1.1 4.683,1.65 7.85,1.65c7.133,0 12.417,-2.067 15.85,-6.2c1.033,-1.267 1.55,-2.25 1.55,-2.95c0,-1.133 -1.183,-1.933 -3.55,-2.4c-1.633,-0.233 -3.283,-0.483 -4.95,-0.75c0.597,-0.806 3.53,-1.256 8.8,-1.35l-0.65,0l-0,-5.35Z" style="fill:#f00;"/><path d="M91.25,59.55l-2.85,-2.7l-2.85,2.75l2.8,2.7l2.9,-2.75Z" style="fill:#f00;"/><path d="M82.7,56.85l-2.9,2.7l2.85,2.75l2.9,-2.7l-2.85,-2.75Z" style="fill:#f00;"/><path d="M87,50.85c1.567,-1.3 2.35,-3.5 2.35,-6.6c-0,-0.867 -0.383,-2.85 -1.15,-5.95c-0.867,1.9 -1.567,3.317 -2.1,4.25c0.833,1.5 1.35,2.583 1.55,3.25c-0.817,0.974 -3.1,1.474 -6.85,1.5l-0,5.25c2.827,-0.07 4.894,-0.637 6.2,-1.7Z" style="fill:#f00;"/><path d="M58.05,58l-3.3,3.1l3.3,3.1l3.25,-3.1l-3.25,-3.1Z"/><path d="M70.8,22.4c-0.4,0.533 -0.6,1.25 -0.6,2.15c0,7.167 0.033,11.767 0.1,13.8c0.3,6.933 1.017,11.1 2.15,12.5c0.933,1.167 2.25,1.75 3.95,1.75l4.4,0l-0,-5.35c-3.6,0 -5.933,-0.667 -7,-2c-0.9,-1.133 -1.35,-3.533 -1.35,-7.2l0,-17.2c-0.567,0.533 -1.117,1.05 -1.65,1.55Z"/><path d="M61.3,45.8c-0.806,0.961 -3.039,1.461 -6.7,1.5l0,-0.05c-2.833,-0 -4.5,-0.117 -5,-0.35c-1.067,-0.5 -1.6,-1.917 -1.6,-4.25c-0.833,0.633 -1.4,1.45 -1.7,2.45c-0.267,0.833 -0.7,1.367 -1.3,1.6c-0.824,0.313 -2.424,0.496 -4.8,0.55l-1.3,-0l-0,5.35l3.35,0c1.067,0 1.95,-0.383 2.65,-1.15c0.2,-0.233 0.733,-1.067 1.6,-2.5c1.067,1.567 1.633,2.383 1.7,2.45c0.767,0.8 1.633,1.2 2.6,1.2l3.8,0l0,-0.05c2.751,-0.089 4.767,-0.656 6.05,-1.7c1.567,-1.3 2.35,-3.5 2.35,-6.6c-0,-0.867 -0.383,-2.85 -1.15,-5.95c-0.867,1.9 -1.567,3.317 -2.1,4.25c0.833,1.5 1.35,2.583 1.55,3.25Z"/><path d="M49.6,34l-3.25,-3.15l-3.3,3.15l3.3,3.05l3.25,-3.05Z"/><path d="M26.95,33.05c0,-0.467 -0.083,-0.967 -0.25,-1.5l-0.35,0.15c0,1.533 -0.367,2.3 -1.1,2.3c-0.367,0 -0.667,-0.517 -0.9,-1.55l-0.3,0.1c-0.167,0.767 -0.3,1.283 -0.4,1.55c-0.233,0.633 -0.583,0.95 -1.05,0.95c-0.433,0 -0.65,-0.567 -0.65,-1.7l-0.35,0.05c-0.233,0.8 -0.35,1.3 -0.35,1.5c0,0.467 0.1,0.85 0.3,1.15c0.233,0.367 0.567,0.55 1,0.55c0.367,0 0.733,-0.117 1.1,-0.35c0.333,-0.267 0.533,-0.583 0.6,-0.95c0.3,0.2 0.633,0.3 1,0.3c1.133,0 1.7,-0.85 1.7,-2.55Z"/><path d="M46.933,63.911l-5.8,3.45c-0.711,0.423 -0.945,1.344 -0.522,2.056c0.423,0.711 1.344,0.945 2.056,0.522l5.8,-3.45c0.711,-0.423 0.945,-1.344 0.522,-2.056c-0.423,-0.711 -1.344,-0.945 -2.056,-0.522Z"/><path d="M25.483,11.711l-5.8,3.45c-0.711,0.423 -0.945,1.344 -0.522,2.056c0.423,0.711 1.344,0.945 2.056,0.522l5.8,-3.45c0.711,-0.423 0.945,-1.344 0.522,-2.056c-0.423,-0.711 -1.344,-0.945 -2.056,-0.522Z"/><path d="M59.046,8.753l-5.85,3.4c-0.716,0.416 -0.959,1.335 -0.543,2.051c0.416,0.716 1.335,0.959 2.051,0.543l5.85,-3.4c0.716,-0.416 0.959,-1.335 0.543,-2.051c-0.416,-0.716 -1.335,-0.959 -2.051,-0.543Z"/><path d="M83.141,8.756l-5.8,3.4c-0.714,0.419 -0.954,1.338 -0.535,2.053c0.419,0.714 1.338,0.954 2.053,0.535l5.8,-3.4c0.714,-0.419 0.954,-1.338 0.535,-2.053c-0.419,-0.714 -1.338,-0.954 -2.053,-0.535Z"/></g></svg>