<?xml version="1.0" encoding="UTF-8" standalone="no"?><!DOCTYPE svg PUBLIC "-//W3C//DTD SVG 1.1//EN" "http://www.w3.org/Graphics/SVG/1.1/DTD/svg11.dtd"><svg width="100%" height="100%" viewBox="0 0 71 67" version="1.1" xmlns="http://www.w3.org/2000/svg" xmlns:xlink="http://www.w3.org/1999/xlink" xml:space="preserve" xmlns:serif="http://www.serif.com/" style="fill-rule:evenodd;clip-rule:evenodd;stroke-linejoin:round;stroke-miterlimit:2;"><g><path d="M43.75,52.9l-2.85,-2.75l-2.9,2.7l2.85,2.75l2.9,-2.7Z" style="fill:#f00;"/><path d="M46.55,55.6l2.9,-2.75l-2.85,-2.7l-2.85,2.75l2.8,2.7Z" style="fill:#f00;"/><path d="M47.55,37.55c-0,-0.867 -0.383,-2.85 -1.15,-5.95c-0.867,1.9 -1.567,3.317 -2.1,4.25c0.833,1.5 1.35,2.583 1.55,3.25c-0.795,0.948 -2.978,1.448 -6.55,1.5l-0,5.25c2.674,-0.108 4.641,-0.675 5.9,-1.7c1.567,-1.3 2.35,-3.5 2.35,-6.6Z" style="fill:#f00;"/><path d="M30.55,40.55c-0.466,-0.007 -0.816,-0.057 -1.05,-0.15c-0.867,-0.367 -1.917,-3.05 -3.15,-8.05c-0.6,-2.433 -1.25,-5.517 -1.95,-9.25c-0.867,2.933 -1.283,4.5 -1.25,4.7l1.95,10.2c-0.767,0.933 -2.067,1.717 -3.9,2.35c-1.667,0.567 -3.217,0.85 -4.65,0.85c-1.467,-0 -2.85,-0.633 -4.15,-1.9l-0,5.4c-0,1.067 1.25,1.6 3.75,1.6c2.7,0 4.65,-0.417 5.85,-1.25c0.533,-0.433 1.75,-1.95 3.65,-4.55c0.4,1.1 0.783,2.217 1.15,3.35c0.633,1.367 1.467,2.05 2.5,2.05l10,-0l-0,-5.35l-8.75,0Z"/><path d="M20.741,55.606l-5.8,3.4c-0.714,0.419 -0.954,1.338 -0.535,2.053c0.419,0.714 1.338,0.954 2.053,0.535l5.8,-3.4c0.714,-0.419 0.954,-1.338 0.535,-2.053c-0.419,-0.714 -1.338,-0.954 -2.053,-0.535Z"/><path d="M19.837,51.609l-5.75,3.4c-0.713,0.421 -0.95,1.342 -0.528,2.054c0.421,0.713 1.342,0.95 2.054,0.528l5.75,-3.4c0.713,-0.421 0.95,-1.342 0.528,-2.054c-0.421,-0.713 -1.342,-0.95 -2.054,-0.528Z"/><path d="M43.996,3.503l-5.85,3.4c-0.716,0.416 -0.959,1.335 -0.543,2.051c0.416,0.716 1.335,0.959 2.051,0.543l5.85,-3.4c0.716,-0.416 0.959,-1.335 0.543,-2.051c-0.416,-0.716 -1.335,-0.959 -2.051,-0.543Z"/></g></svg>