<?xml version="1.0" encoding="UTF-8" standalone="no"?><!DOCTYPE svg PUBLIC "-//W3C//DTD SVG 1.1//EN" "http://www.w3.org/Graphics/SVG/1.1/DTD/svg11.dtd"><svg width="100%" height="100%" viewBox="0 0 114 73" version="1.1" xmlns="http://www.w3.org/2000/svg" xmlns:xlink="http://www.w3.org/1999/xlink" xml:space="preserve" xmlns:serif="http://www.serif.com/" style="fill-rule:evenodd;clip-rule:evenodd;stroke-linejoin:round;stroke-miterlimit:2;"><g><path d="M81.05,59.4l2.85,2.75l2.9,-2.7l-2.85,-2.75l-2.9,2.7Z" style="fill:#f00;"/><path d="M92.5,59.4l-2.85,-2.7l-2.85,2.75l2.8,2.7l2.9,-2.75Z" style="fill:#f00;"/><path d="M88.25,50.7c1.567,-1.3 2.35,-3.5 2.35,-6.6c0,-0.867 -0.383,-2.85 -1.15,-5.95c-0.867,1.9 -1.567,3.317 -2.1,4.25c0.833,1.5 1.35,2.583 1.55,3.25c-0.867,1.033 -3.383,1.533 -7.55,1.5l-1.6,-0l0,0.2c0.755,0.01 1.489,-0.023 2.2,-0.1l0,5.2c2.879,-0.091 4.979,-0.675 6.3,-1.75Z" style="fill:#f00;"/><path d="M57.9,44.3c-0.5,-0.8 -1.417,-1.85 -2.75,-3.15l-1.25,4.45c0.7,0.733 1.4,1.483 2.1,2.25c0.9,1.067 1.35,1.883 1.35,2.45c0,2.833 -2.15,5.283 -6.45,7.35c-3.667,1.7 -7.167,2.55 -10.5,2.55c2.667,1.733 5.317,2.6 7.95,2.6c3.033,0 5.617,-1.75 7.75,-5.25c1.833,-3.033 2.75,-6.117 2.75,-9.25c0,-1.533 -0.317,-2.867 -0.95,-4Z"/><path d="M8.35,59.25c2.467,2.367 5.333,3.55 8.6,3.55c2.833,0 5.25,-1.117 7.25,-3.35c1.367,-1.567 2.717,-3.9 4.05,-7l4.15,-0l-0,-0.05c2.827,-0.07 4.894,-0.637 6.2,-1.7c1.567,-1.3 2.35,-3.5 2.35,-6.6c0,-0.867 -0.383,-2.85 -1.15,-5.95c-0.867,1.9 -1.567,3.317 -2.1,4.25c0.833,1.5 1.35,2.583 1.55,3.25c-0.867,1.033 -3.383,1.533 -7.55,1.5l-1.6,-0l0,0.2c-0.523,-0.014 -1.056,-0.047 -1.6,-0.1c-0.5,-1.033 -1,-2.083 -1.5,-3.15c-0.8,-1.333 -1.617,-2 -2.45,-2c-1,0 -2.05,1 -3.15,3c-1,1.867 -1.5,3.367 -1.5,4.5c-0,1.433 0.717,2.35 2.15,2.75c1.333,0.167 2.667,0.35 4,0.55c-1.567,2.267 -3.2,3.917 -4.9,4.95c-1.9,1.167 -4.15,1.75 -6.75,1.75c-1.4,0 -3.417,-0.117 -6.05,-0.35Zm14,-11.4c0.333,-0.633 0.65,-1.217 0.95,-1.75c0.867,0.4 1.417,0.75 1.65,1.05c0.2,0.267 0.4,0.85 0.6,1.75c-0.833,-0 -1.817,-0.067 -2.95,-0.2c0,-0.433 -0.083,-0.717 -0.25,-0.85Z"/><path d="M78.05,47.25c-0.5,-1.033 -1,-2.083 -1.5,-3.15c-0.8,-1.333 -1.617,-2 -2.45,-2c-1,-0 -2.05,1 -3.15,3c-1,1.867 -1.5,3.367 -1.5,4.5c0,1.433 0.717,2.35 2.15,2.75c1.333,0.167 2.667,0.35 4,0.55c-1.567,2.267 -3.2,3.917 -4.9,4.95c-1.9,1.167 -4.15,1.75 -6.75,1.75c-1.4,0 -3.417,-0.117 -6.05,-0.35c2.467,2.367 5.333,3.55 8.6,3.55c2.833,0 5.25,-1.117 7.25,-3.35c1.367,-1.567 2.717,-3.9 4.05,-7l4.15,-0l0,-5.2c-0.711,0.077 -1.445,0.11 -2.2,0.1c-0.555,-0.01 -1.121,-0.043 -1.7,-0.1Zm-3.55,-0.1c0.2,0.267 0.4,0.85 0.6,1.75c-0.833,-0 -1.817,-0.067 -2.95,-0.2c0,-0.433 -0.083,-0.717 -0.25,-0.85c0.333,-0.633 0.65,-1.217 0.95,-1.75c0.867,0.4 1.417,0.75 1.65,1.05Z"/><path d="M40,35.2l2.85,-2.75l-2.85,-2.7l-2.85,2.75l-2.9,-2.75l-2.8,2.7l2.8,2.75l2.85,-2.7l2.9,2.7Z"/><path d="M37.3,29.55l2.85,-2.8l-2.85,-2.7l-2.85,2.7l2.85,2.8Z"/><path d="M30.85,16.7c0.533,-1.167 0.8,-2.067 0.8,-2.7c-0,-1.367 -0.567,-2.05 -1.7,-2.05c-0.767,-0 -1.467,0.483 -2.1,1.45c-0.533,0.833 -0.8,1.633 -0.8,2.4c-0,0.667 0.517,1.35 1.55,2.05c-1.867,1.6 -3.617,2.817 -5.25,3.65c0.567,0.167 1.033,0.25 1.4,0.25c1.367,0 3,-1.1 4.9,-3.3c0.767,0.533 1.433,0.933 2,1.2l0.2,-2.3c-0.433,-0.3 -0.767,-0.517 -1,-0.65Zm-0.75,-1.35c0,0.2 -0.05,0.433 -0.15,0.7c-1.067,-0.6 -1.6,-1.167 -1.6,-1.7c0.067,-0.233 0.217,-0.367 0.45,-0.4c0.867,0.133 1.3,0.6 1.3,1.4Z"/><path d="M83.6,11.1c-0.767,-0 -1.467,0.483 -2.1,1.45c-0.533,0.833 -0.8,1.633 -0.8,2.4c0,0.667 0.517,1.35 1.55,2.05c-1.867,1.6 -3.617,2.817 -5.25,3.65c0.567,0.167 1.033,0.25 1.4,0.25c1.367,0 3,-1.1 4.9,-3.3c0.767,0.533 1.433,0.933 2,1.2l0.2,-2.3c-0.433,-0.3 -0.767,-0.517 -1,-0.65c0.533,-1.167 0.8,-2.067 0.8,-2.7c-0,-1.367 -0.567,-2.05 -1.7,-2.05Zm0.15,3.4c-0,0.2 -0.05,0.433 -0.15,0.7c-1.067,-0.6 -1.6,-1.167 -1.6,-1.7c0.067,-0.233 0.217,-0.367 0.45,-0.4c0.867,0.133 1.3,0.6 1.3,1.4Z"/><path d="M51.746,63.953l-5.85,3.4c-0.716,0.416 -0.959,1.335 -0.543,2.051c0.416,0.716 1.335,0.959 2.051,0.543l5.85,-3.4c0.716,-0.416 0.959,-1.335 0.543,-2.051c-0.416,-0.716 -1.335,-0.959 -2.051,-0.543Z"/></g></svg>