<?xml version="1.0" encoding="UTF-8" standalone="no"?><!DOCTYPE svg PUBLIC "-//W3C//DTD SVG 1.1//EN" "http://www.w3.org/Graphics/SVG/1.1/DTD/svg11.dtd"><svg width="100%" height="100%" viewBox="0 0 66 79" version="1.1" xmlns="http://www.w3.org/2000/svg" xmlns:xlink="http://www.w3.org/1999/xlink" xml:space="preserve" xmlns:serif="http://www.serif.com/" style="fill-rule:evenodd;clip-rule:evenodd;stroke-linejoin:round;stroke-miterlimit:2;"><g><path d="M32.45,35.25l-0.85,-0.55c-2.233,0 -4.6,1.7 -7.1,5.1c-2.433,3.267 -3.65,6.083 -3.65,8.45c-0,1.433 0.517,2.483 1.55,3.15c0.8,0.5 1.967,0.833 3.5,1c1.233,0.033 2.483,0.067 3.75,0.1c-0.733,1.4 -2.633,2.667 -5.7,3.8c-2.7,1 -4.983,1.5 -6.85,1.5c-5.2,-0 -7.8,-2.35 -7.8,-7.05c-0,-1.3 0.367,-3.317 1.1,-6.05c-0.933,0.467 -1.767,1.733 -2.5,3.8c-0.6,1.8 -0.9,3.383 -0.9,4.75c0,3.1 0.733,5.483 2.2,7.15c1.533,1.733 3.783,2.6 6.75,2.6c3.167,0 6.533,-1.067 10.1,-3.2c4.067,-2.4 6.1,-5.1 6.1,-8.1c0,-1.533 -0.817,-2.567 -2.45,-3.1c-1.5,-0.3 -3.017,-0.583 -4.55,-0.85c-1.633,-0.333 -2.45,-1 -2.45,-2c0,-1 0.883,-2.217 2.65,-3.65c1.533,-1.233 2.883,-2.033 4.05,-2.4c0.5,0.2 0.85,0.383 1.05,0.55c0.067,0.067 0.333,0.35 0.8,0.85c0.333,-0.733 0.683,-1.45 1.05,-2.15c0.367,-0.867 0.55,-1.65 0.55,-2.35c-0,-0.367 -0.133,-0.817 -0.4,-1.35Z" style="fill:#f00;"/><path d="M57.6,50.7c1.467,-1.3 2.2,-3.517 2.2,-6.65c-0,-0.9 -0.367,-2.9 -1.1,-6c-0.8,1.9 -1.45,3.317 -1.95,4.25c0.767,1.533 1.233,2.633 1.4,3.3c-0.776,1.034 -3.009,1.534 -6.7,1.5l-1.5,0c-0.947,-0.02 -1.514,-0.054 -1.7,-0.1c-0.8,-0.167 -1.667,-0.717 -2.6,-1.65c-0.2,1.367 -0.5,2.55 -0.9,3.55c0,0.067 0.417,0.767 1.25,2.1c0.7,1.1 1.05,1.717 1.05,1.85c-0,1.267 -1.367,2.883 -4.1,4.85c-2.633,1.933 -4.617,2.9 -5.95,2.9c-0.6,0 -1.4,-0.117 -2.4,-0.35c-0.767,-0.2 -1.55,-0.4 -2.35,-0.6c1.033,1.2 2.217,2.183 3.55,2.95c1.5,0.867 2.933,1.3 4.3,1.3c1.867,-0 3.75,-1.4 5.65,-4.2c1.667,-2.467 2.633,-4.767 2.9,-6.9c0.265,-0.177 0.581,-0.277 0.95,-0.3l1.85,0c2.809,-0.066 4.859,-0.666 6.15,-1.8Z"/><path d="M55.7,34.3l3.05,-3.1l-3.05,-3.2l-3.1,3.2l3.1,3.1Z"/><path d="M37.389,13.188l-5.45,3.5c-0.696,0.447 -0.898,1.376 -0.451,2.073c0.447,0.696 1.376,0.898 2.073,0.451l5.45,-3.5c0.696,-0.447 0.898,-1.376 0.451,-2.073c-0.447,-0.696 -1.376,-0.898 -2.073,-0.451Z"/><path d="M55.839,13.188l-5.45,3.5c-0.696,0.447 -0.898,1.376 -0.451,2.073c0.447,0.696 1.376,0.898 2.073,0.451l5.45,-3.5c0.696,-0.447 0.898,-1.376 0.451,-2.073c-0.447,-0.696 -1.376,-0.898 -2.073,-0.451Z"/></g></svg>