<?xml version="1.0" encoding="UTF-8" standalone="no"?><!DOCTYPE svg PUBLIC "-//W3C//DTD SVG 1.1//EN" "http://www.w3.org/Graphics/SVG/1.1/DTD/svg11.dtd"><svg width="100%" height="100%" viewBox="0 0 97 77" version="1.1" xmlns="http://www.w3.org/2000/svg" xmlns:xlink="http://www.w3.org/1999/xlink" xml:space="preserve" xmlns:serif="http://www.serif.com/" style="fill-rule:evenodd;clip-rule:evenodd;stroke-linejoin:round;stroke-miterlimit:2;"><g><path d="M23.6,62.25l3.3,-3.1l-3.3,-3.15l-3.3,3.15l3.3,3.1Z"/><path d="M40,33.6c-0.3,1.233 -0.9,2.95 -1.8,5.15c1.633,1.167 2.45,2.417 2.45,3.75c-1.1,1.167 -3.683,2.133 -7.75,2.9c-3.3,0.633 -6.2,0.95 -8.7,0.95c-2.833,0 -5.417,-0.367 -7.75,-1.1c-3.367,-1 -5.05,-2.55 -5.05,-4.65c-0,-0.933 0.383,-2.317 1.15,-4.15c-2.433,2.233 -3.65,4.417 -3.65,6.55c-0,5.2 4.317,7.8 12.95,7.8c14.033,0 21.05,-3.733 21.05,-11.2c-0,-2.767 -0.967,-4.767 -2.9,-6Z"/><path d="M53.05,17.6c-2,2.467 -2.983,3.95 -2.95,4.45l0.75,28.3c1.633,-1.3 2.45,-4.733 2.45,-10.3l-0.25,-22.45Z"/><path d="M84.4,36c-0.867,1.9 -1.567,3.317 -2.1,4.25c0.833,1.5 1.35,2.583 1.55,3.25c-0.867,1.033 -3.383,1.533 -7.55,1.5l-1.6,0l0,0.2c-0.523,-0.014 -1.056,-0.047 -1.6,-0.1c-0.5,-1.033 -1,-2.083 -1.5,-3.15c-0.8,-1.333 -1.617,-2 -2.45,-2c-1,-0 -2.05,1 -3.15,3c-1,1.867 -1.5,3.367 -1.5,4.5c-0,1.433 0.717,2.35 2.15,2.75c1.333,0.167 2.667,0.35 4,0.55c-1.567,2.267 -3.2,3.917 -4.9,4.95c-1.9,1.167 -4.15,1.75 -6.75,1.75c-1.4,-0 -3.417,-0.117 -6.05,-0.35c2.467,2.367 5.333,3.55 8.6,3.55c2.833,-0 5.25,-1.117 7.25,-3.35c1.367,-1.567 2.717,-3.9 4.05,-7l4.15,0l-0,-0.05c2.827,-0.07 4.894,-0.637 6.2,-1.7c1.567,-1.3 2.35,-3.5 2.35,-6.6c-0,-0.867 -0.383,-2.85 -1.15,-5.95Zm-17.45,9.7c0.333,-0.633 0.65,-1.217 0.95,-1.75c0.867,0.4 1.417,0.75 1.65,1.05c0.2,0.267 0.4,0.85 0.6,1.75c-0.833,0 -1.817,-0.067 -2.95,-0.2c0,-0.433 -0.083,-0.717 -0.25,-0.85Z"/><path d="M81.75,30.35l-2.9,-2.75l-2.8,2.7l2.8,2.75l2.85,-2.7l2.9,2.7l2.85,-2.75l-2.85,-2.7l-2.85,2.75Z"/><path d="M79.05,24.6l2.85,2.8l2.85,-2.8l-2.85,-2.7l-2.85,2.7Z"/><path d="M62.133,8.961l-5.8,3.45c-0.711,0.423 -0.945,1.344 -0.522,2.056c0.423,0.711 1.344,0.945 2.056,0.522l5.8,-3.45c0.711,-0.423 0.945,-1.344 0.522,-2.056c-0.423,-0.711 -1.344,-0.945 -2.056,-0.522Z"/><path d="M24.583,8.961l-5.8,3.45c-0.711,0.423 -0.945,1.344 -0.522,2.056c0.423,0.711 1.344,0.945 2.056,0.522l5.8,-3.45c0.711,-0.423 0.945,-1.344 0.522,-2.056c-0.423,-0.711 -1.344,-0.945 -2.056,-0.522Z"/><path d="M81.783,8.961l-5.8,3.45c-0.711,0.423 -0.945,1.344 -0.522,2.056c0.423,0.711 1.344,0.945 2.056,0.522l5.8,-3.45c0.711,-0.423 0.945,-1.344 0.522,-2.056c-0.423,-0.711 -1.344,-0.945 -2.056,-0.522Z"/></g></svg>