<?xml version="1.0" encoding="UTF-8" standalone="no"?><!DOCTYPE svg PUBLIC "-//W3C//DTD SVG 1.1//EN" "http://www.w3.org/Graphics/SVG/1.1/DTD/svg11.dtd"><svg width="100%" height="100%" viewBox="0 0 35 27" version="1.1" xmlns="http://www.w3.org/2000/svg" xmlns:xlink="http://www.w3.org/1999/xlink" xml:space="preserve" xmlns:serif="http://www.serif.com/" style="fill-rule:evenodd;clip-rule:evenodd;stroke-linejoin:round;stroke-miterlimit:2;"><g><path d="M31.3,4.7c0.4,-0.633 0.6,-1.217 0.6,-1.75c-0,-0.267 -0.133,-0.6 -0.4,-1l-0.95,-0.4c-2.3,0 -4.783,1.267 -7.45,3.8c-2.533,2.467 -3.8,4.583 -3.8,6.35c-0,1.1 0.55,1.9 1.65,2.4c0.8,0.367 2.017,0.6 3.65,0.7c1.3,0.033 2.6,0.067 3.9,0.1c-0.733,1.033 -2.733,1.983 -6,2.85c-2.833,0.733 -5.217,1.1 -7.15,1.1c-5.467,-0 -8.2,-1.767 -8.2,-5.3c-0,-0.967 0.383,-2.483 1.15,-4.55c-0.967,0.367 -1.833,1.333 -2.6,2.9c-0.667,1.333 -1,2.517 -1,3.55c0,2.333 0.783,4.117 2.35,5.35c1.6,1.333 3.967,2 7.1,2c3.3,0 6.833,-0.8 10.6,-2.4c4.267,-1.8 6.4,-3.833 6.4,-6.1c-0,-1.133 -0.85,-1.917 -2.55,-2.35c-1.6,-0.2 -3.2,-0.4 -4.8,-0.6c-1.7,-0.267 -2.55,-0.767 -2.55,-1.5c0,-0.767 0.933,-1.7 2.8,-2.8c1.6,-0.9 3.017,-1.5 4.25,-1.8c0.5,0.2 0.85,0.35 1.05,0.45c0.1,0.067 0.383,0.283 0.85,0.65c0.367,-0.533 0.733,-1.083 1.1,-1.65Z" style="fill:#f00;"/></g></svg>