<?xml version="1.0" encoding="UTF-8" standalone="no"?><!DOCTYPE svg PUBLIC "-//W3C//DTD SVG 1.1//EN" "http://www.w3.org/Graphics/SVG/1.1/DTD/svg11.dtd"><svg width="100%" height="100%" viewBox="0 0 24 24" version="1.1" xmlns="http://www.w3.org/2000/svg" xmlns:xlink="http://www.w3.org/1999/xlink" xml:space="preserve" xmlns:serif="http://www.serif.com/" style="fill-rule:evenodd;clip-rule:evenodd;stroke-linejoin:round;stroke-miterlimit:2;"><g><path d="M14.85,21.2l2.85,-2.1l-2.85,-2.05l-2.8,2.05l2.8,2.1Z" style="fill:#f00;"/><path d="M9.25,21.2l2.8,-2.1l-2.8,-2.05l-2.85,2.05l2.85,2.1Z" style="fill:#f00;"/><path d="M5.15,13.8l1.4,0c3.233,0 5.567,-0.45 7,-1.35c1.533,-0.967 2.3,-2.633 2.3,-5c0,-0.667 -0.383,-2.167 -1.15,-4.5c-0.867,1.433 -1.55,2.5 -2.05,3.2c0.8,1.133 1.3,1.95 1.5,2.45c-0.867,0.8 -3.35,1.183 -7.45,1.15l-1.55,-0l-0,4.05Z" style="fill:#f00;"/></g></svg>