<?xml version="1.0" encoding="UTF-8" standalone="no"?><!DOCTYPE svg PUBLIC "-//W3C//DTD SVG 1.1//EN" "http://www.w3.org/Graphics/SVG/1.1/DTD/svg11.dtd"><svg width="100%" height="100%" viewBox="0 0 28 27" version="1.1" xmlns="http://www.w3.org/2000/svg" xmlns:xlink="http://www.w3.org/1999/xlink" xml:space="preserve" xmlns:serif="http://www.serif.com/" style="fill-rule:evenodd;clip-rule:evenodd;stroke-linejoin:round;stroke-miterlimit:2;"><g><path d="M13.85,19.7l2.8,2.1l2.9,-2.1l-2.9,-2.05l-2.8,2.05Z" style="fill:#f00;"/><path d="M8.2,19.7l2.85,2.1l2.8,-2.1l-2.8,-2.05l-2.85,2.05Z" style="fill:#f00;"/><path d="M11.7,9.25c-0.6,0.367 -1.567,0.55 -2.9,0.55l-2.05,0c-1.1,-0.033 -2.083,-0.05 -2.95,-0.05l0,4.05l4.9,0c1.1,0 1.983,-0.283 2.65,-0.85c0.1,-0.1 0.617,-0.75 1.55,-1.95c0.467,0.633 1.15,1.233 2.05,1.8c1.033,0.667 1.917,1 2.65,1l5.85,0l-0,-4.05c-0.667,-0 -1.55,0.017 -2.65,0.05c-1.1,0.067 -1.85,0.1 -2.25,0.1c-1.433,0 -2.433,-0.217 -3,-0.65c-0.733,-0.5 -1.133,-1.45 -1.2,-2.85c-1.3,1.567 -2.183,2.517 -2.65,2.85Z" style="fill:#f00;"/></g></svg>