<?xml version="1.0" encoding="UTF-8" standalone="no"?><!DOCTYPE svg PUBLIC "-//W3C//DTD SVG 1.1//EN" "http://www.w3.org/Graphics/SVG/1.1/DTD/svg11.dtd"><svg width="100%" height="100%" viewBox="0 0 65 79" version="1.1" xmlns="http://www.w3.org/2000/svg" xmlns:xlink="http://www.w3.org/1999/xlink" xml:space="preserve" xmlns:serif="http://www.serif.com/" style="fill-rule:evenodd;clip-rule:evenodd;stroke-linejoin:round;stroke-miterlimit:2;"><g><path d="M24.35,58.75l-2.7,2.7l2.7,2.8l2.7,-2.8l-2.7,-2.7Z" style="fill:#f00;"/><path d="M32.45,61.45l-2.75,-2.75l-2.65,2.75l2.65,2.8l2.75,-2.8Z" style="fill:#f00;"/><path d="M30.65,45.95c-0,-0.9 -0.367,-2.9 -1.1,-6c-0.8,1.9 -1.45,3.317 -1.95,4.25c0.767,1.533 1.233,2.633 1.4,3.3c-0.759,1.012 -2.909,1.512 -6.45,1.5l-2.1,0l0,5.4l1.55,-0c0.184,-0.004 0.367,-0.021 0.55,-0.05c2.681,-0.067 4.647,-0.65 5.9,-1.75c1.467,-1.3 2.2,-3.517 2.2,-6.65Z" style="fill:#f00;"/><path d="M41.9,59.65c-3.433,1.733 -6.7,2.6 -9.8,2.6c2.5,1.767 4.983,2.65 7.45,2.65c2.867,-0 5.283,-1.783 7.25,-5.35c1.733,-3.067 2.6,-6.183 2.6,-9.35c-0,-1.567 -0.3,-2.917 -0.9,-4.05c-0.467,-0.833 -1.333,-1.9 -2.6,-3.2l-1.15,4.5c0.667,0.767 1.317,1.533 1.95,2.3c0.867,1.067 1.3,1.9 1.3,2.5c0,2.867 -2.033,5.333 -6.1,7.4Z"/><path d="M14.85,31.3c-0.8,3 -1.2,4.583 -1.2,4.75l1.85,10.35c-0.733,0.933 -1.967,1.717 -3.7,2.35c-1.533,0.567 -2.983,0.85 -4.35,0.85c-1.367,0 -2.667,-0.617 -3.9,-1.85l-0,5.45c-0,1.1 1.183,1.65 3.55,1.65c2.533,0 4.35,-0.433 5.45,-1.3c0.533,-0.433 1.683,-1.983 3.45,-4.65c0.367,1.133 0.733,2.283 1.1,3.45c0.6,1.367 1.383,2.05 2.35,2.05l1,-0l0,-5.4c-0.347,-0.02 -0.613,-0.07 -0.8,-0.15c-0.833,-0.4 -1.833,-3.117 -3,-8.15c-0.533,-2.467 -1.133,-5.6 -1.8,-9.4Z"/><path d="M58.85,21.3c-1.867,2.5 -2.783,4 -2.75,4.5l0.7,28.65c1.533,-1.3 2.3,-4.767 2.3,-10.4l-0.25,-22.75Z"/><path d="M22.55,54.4l-0,-0.05c-0.183,0.029 -0.366,0.046 -0.55,0.05l0.55,-0Z"/><path d="M58.95,10.4c-0.733,-0 -1.383,0.467 -1.95,1.4c-0.5,0.867 -0.75,1.7 -0.75,2.5c0,0.667 0.483,1.35 1.45,2.05c-1.767,1.633 -3.417,2.867 -4.95,3.7c0.533,0.167 0.967,0.25 1.3,0.25c1.3,-0 2.833,-1.117 4.6,-3.35c0.733,0.533 1.35,0.933 1.85,1.2l0.2,-2.3c-0.4,-0.3 -0.7,-0.517 -0.9,-0.65c0.467,-1.167 0.7,-2.083 0.7,-2.75c-0,-1.367 -0.517,-2.05 -1.55,-2.05Z"/><path d="M14.05,11.7c-0.733,0 -1.383,0.467 -1.95,1.4c-0.5,0.867 -0.75,1.7 -0.75,2.5c0,0.667 0.483,1.35 1.45,2.05c-1.767,1.633 -3.417,2.867 -4.95,3.7c0.533,0.167 0.967,0.25 1.3,0.25c1.3,0 2.833,-1.117 4.6,-3.35c0.733,0.533 1.35,0.933 1.85,1.2l0.2,-2.3c-0.4,-0.3 -0.7,-0.517 -0.9,-0.65c0.467,-1.167 0.7,-2.083 0.7,-2.75c0,-1.367 -0.517,-2.05 -1.55,-2.05Zm0.1,3.4c-0,0.2 -0.033,0.433 -0.1,0.7c-1.033,-0.567 -1.55,-1.133 -1.55,-1.7c0.067,-0.233 0.217,-0.367 0.45,-0.4c0.8,0.133 1.2,0.6 1.2,1.4Z"/><path d="M57.4,12.8c0.067,-0.233 0.217,-0.367 0.45,-0.4c0.8,0.133 1.2,0.6 1.2,1.4c-0,0.2 -0.033,0.433 -0.1,0.7c-1.033,-0.567 -1.55,-1.133 -1.55,-1.7Z"/><path d="M45.298,65.233l-5.45,3.45c-0.7,0.442 -0.908,1.37 -0.465,2.069c0.442,0.7 1.37,0.908 2.069,0.465l5.45,-3.45c0.7,-0.442 0.908,-1.37 0.465,-2.069c-0.442,-0.7 -1.37,-0.908 -2.069,-0.465Z"/></g></svg>