<?xml version="1.0" encoding="UTF-8" standalone="no"?><!DOCTYPE svg PUBLIC "-//W3C//DTD SVG 1.1//EN" "http://www.w3.org/Graphics/SVG/1.1/DTD/svg11.dtd"><svg width="100%" height="100%" viewBox="0 0 89 72" version="1.1" xmlns="http://www.w3.org/2000/svg" xmlns:xlink="http://www.w3.org/1999/xlink" xml:space="preserve" xmlns:serif="http://www.serif.com/" style="fill-rule:evenodd;clip-rule:evenodd;stroke-linejoin:round;stroke-miterlimit:2;"><g><path d="M25.7,42.35c-2.067,1.5 -3.1,3.383 -3.1,5.65c-0,1 0.55,1.75 1.65,2.25c0.633,0.267 1.767,0.517 3.4,0.75c1.533,0.2 2.533,0.433 3,0.7c-0.467,0.9 -2.417,1.733 -5.85,2.5c-2.833,0.6 -5.117,0.9 -6.85,0.9c-2.933,0 -5.167,-0.283 -6.7,-0.85c-2.4,-0.867 -3.6,-2.467 -3.6,-4.8c0,-0.967 0.367,-2.233 1.1,-3.8c0.9,-1.867 1.433,-3.117 1.6,-3.75c-1.3,0.8 -2.55,2.217 -3.75,4.25c-1.267,2.1 -1.9,3.867 -1.9,5.3c0,2.767 1.3,4.833 3.9,6.2c2.067,1.1 4.683,1.65 7.85,1.65c7.133,0 12.417,-2.067 15.85,-6.2c1.033,-1.267 1.55,-2.25 1.55,-2.95c-0,-1.133 -1.183,-1.933 -3.55,-2.4c-1.633,-0.233 -3.283,-0.483 -4.95,-0.75c0.586,-0.791 3.419,-1.241 8.5,-1.35l-0.35,-0l0,-5.3l2.6,0l-0,-0.05l-3.95,0c-2.433,0 -4.583,0.683 -6.45,2.05Z" style="fill:#f00;"/><path d="M35.4,45.65l0.7,-0l-0,-0.05c-0.231,0.027 -0.464,0.044 -0.7,0.05Z" style="fill:#f00;"/><path d="M39.4,57.25l3.25,-3.1l-3.25,-3.1l-3.3,3.1l3.3,3.1Z"/><path d="M61.35,37.5c-0.5,-0.8 -1.417,-1.85 -2.75,-3.15l-1.25,4.45c0.7,0.733 1.4,1.483 2.1,2.25c0.9,1.067 1.35,1.883 1.35,2.45c-0,2.833 -2.15,5.283 -6.45,7.35c-3.667,1.7 -7.167,2.55 -10.5,2.55c2.667,1.733 5.317,2.6 7.95,2.6c3.033,-0 5.617,-1.75 7.75,-5.25c1.833,-3.033 2.75,-6.117 2.75,-9.25c-0,-1.533 -0.317,-2.867 -0.95,-4Z"/><path d="M36.1,40.35l-2.6,0l0,5.3l1.9,-0c0.236,-0.006 0.469,-0.023 0.7,-0.05c2.674,-0.108 4.641,-0.675 5.9,-1.7c1.567,-1.3 2.35,-3.5 2.35,-6.6c-0,-0.867 -0.383,-2.85 -1.15,-5.95c-0.867,1.9 -1.567,3.317 -2.1,4.25c0.833,1.5 1.35,2.583 1.55,3.25c-0.795,0.948 -2.978,1.448 -6.55,1.5Z"/><path d="M73.75,35.55c-0.867,1.633 -1.3,3.067 -1.3,4.3c0,2.133 0.867,3.2 2.6,3.2c1.367,0 2.633,-0.7 3.8,-2.1c0.3,0.633 0.45,1.217 0.45,1.75c-0,3.133 -2.3,5.6 -6.9,7.4c-3.567,1.433 -7.233,2.15 -11,2.15c1.833,0.7 3.083,1.15 3.75,1.35c1.267,0.333 2.583,0.5 3.95,0.5c3.8,0 6.767,-1.5 8.9,-4.5c1.833,-2.6 2.75,-5.8 2.75,-9.6c0,-1.533 -0.267,-3 -0.8,-4.4c-0.733,-1.9 -1.75,-2.85 -3.05,-2.85c-1.133,0 -2.183,0.933 -3.15,2.8Zm0.65,3.5c0.433,-0.967 0.85,-1.833 1.25,-2.6c1.3,0.567 1.95,1.283 1.95,2.15c-0,0.3 -0.2,0.567 -0.6,0.8c-0.367,0.233 -0.733,0.35 -1.1,0.35c-0.033,0 -0.533,-0.233 -1.5,-0.7Z"/><path d="M37.45,25.2c-0.167,0.767 -0.3,1.283 -0.4,1.55c-0.233,0.633 -0.583,0.95 -1.05,0.95c-0.433,-0 -0.65,-0.567 -0.65,-1.7l-0.35,0.05c-0.233,0.8 -0.35,1.3 -0.35,1.5c0,0.467 0.1,0.85 0.3,1.15c0.233,0.367 0.567,0.55 1,0.55c0.367,0 0.733,-0.117 1.1,-0.35c0.333,-0.267 0.533,-0.583 0.6,-0.95c0.3,0.2 0.633,0.3 1,0.3c1.133,0 1.7,-0.85 1.7,-2.55c-0,-0.467 -0.083,-0.967 -0.25,-1.5l-0.35,0.15c-0,1.533 -0.367,2.3 -1.1,2.3c-0.367,-0 -0.667,-0.517 -0.9,-1.55l-0.3,0.1Z"/><path d="M40.241,59.106l-5.8,3.4c-0.714,0.419 -0.954,1.338 -0.535,2.053c0.419,0.714 1.338,0.954 2.053,0.535l5.8,-3.4c0.714,-0.419 0.954,-1.338 0.535,-2.053c-0.419,-0.714 -1.338,-0.954 -2.053,-0.535Z"/><path d="M74.633,9.011l-5.8,3.45c-0.711,0.423 -0.945,1.344 -0.522,2.056c0.423,0.711 1.344,0.945 2.056,0.522l5.8,-3.45c0.711,-0.423 0.945,-1.344 0.522,-2.056c-0.423,-0.711 -1.344,-0.945 -2.056,-0.522Z"/><path d="M56.533,9.011l-5.8,3.45c-0.711,0.423 -0.945,1.344 -0.522,2.056c0.423,0.711 1.344,0.945 2.056,0.522l5.8,-3.45c0.711,-0.423 0.945,-1.344 0.522,-2.056c-0.423,-0.711 -1.344,-0.945 -2.056,-0.522Z"/></g></svg>