<?xml version="1.0" encoding="UTF-8" standalone="no"?><!DOCTYPE svg PUBLIC "-//W3C//DTD SVG 1.1//EN" "http://www.w3.org/Graphics/SVG/1.1/DTD/svg11.dtd"><svg width="100%" height="100%" viewBox="0 0 18 89" version="1.1" xmlns="http://www.w3.org/2000/svg" xmlns:xlink="http://www.w3.org/1999/xlink" xml:space="preserve" xmlns:serif="http://www.serif.com/" style="fill-rule:evenodd;clip-rule:evenodd;stroke-linejoin:round;stroke-miterlimit:2;"><g><path d="M7.3,25.2c-1.367,2.233 -2.05,3.567 -2.05,4l0.5,25.65c1.167,-1.167 1.75,-4.267 1.75,-9.3l-0.2,-20.35Z"/><path d="M8.6,26.3c0.833,-0.467 1.25,-1.083 1.25,-1.85c0,-0.6 -0.183,-1.483 -0.55,-2.65c-0.367,-1.2 -0.55,-2.083 -0.55,-2.65c-0.733,0.567 -1.1,1.067 -1.1,1.5c-0,0.533 0.183,1.333 0.55,2.4c0.367,1.033 0.55,1.817 0.55,2.35c0,0.333 -0.05,0.633 -0.15,0.9Z"/></g></svg>