<?xml version="1.0" encoding="UTF-8" standalone="no"?><!DOCTYPE svg PUBLIC "-//W3C//DTD SVG 1.1//EN" "http://www.w3.org/Graphics/SVG/1.1/DTD/svg11.dtd"><svg width="100%" height="100%" viewBox="0 0 26 89" version="1.1" xmlns="http://www.w3.org/2000/svg" xmlns:xlink="http://www.w3.org/1999/xlink" xml:space="preserve" xmlns:serif="http://www.serif.com/" style="fill-rule:evenodd;clip-rule:evenodd;stroke-linejoin:round;stroke-miterlimit:2;"><g><path d="M8.75,38.6c-1.433,-0 -2.5,1.05 -3.2,3.15c-0.5,1.5 -0.75,3.3 -0.75,5.4c-0,1.6 0.283,2.8 0.85,3.6c0.133,0.167 0.95,0.967 2.45,2.4c-0.733,1.2 -1.35,2.767 -1.85,4.7c-0.5,1.933 -0.75,3.65 -0.75,5.15c0,3.733 0.85,6.55 2.55,8.45c1.633,1.833 3.967,2.75 7,2.75c1.433,-0 3.167,-0.483 5.2,-1.45c1.733,-0.8 3.35,-1.8 4.85,-3c-0.3,0 -1.217,0.067 -2.75,0.2c-1.567,0.1 -2.9,0.15 -4,0.15c-7.533,-0 -11.3,-2.467 -11.3,-7.4c-0,-2.333 0.567,-4.467 1.7,-6.4c0.8,-1.4 2.1,-2.933 3.9,-4.6c2.867,-2.7 4.317,-4.067 4.35,-4.1l0.2,-1.7l0,-2.15c-0.333,0.2 -1.417,1.15 -3.25,2.85c-1.667,1.5 -2.65,2.25 -2.95,2.25c-0.833,-0 -1.867,-0.433 -3.1,-1.3c-1.367,-0.967 -2.05,-1.9 -2.05,-2.8c-0,-1.167 1.017,-2.167 3.05,-3c1.667,-0.633 3.117,-0.95 4.35,-0.95c-1.267,-1.467 -2.767,-2.2 -4.5,-2.2Z" style="fill:#f00;"/><path d="M9.06,19.831l-4.35,3.5c-0.645,0.519 -0.748,1.464 -0.229,2.109c0.519,0.645 1.464,0.748 2.109,0.229l4.35,-3.5c0.645,-0.519 0.748,-1.464 0.229,-2.109c-0.519,-0.645 -1.464,-0.748 -2.109,-0.229Z"/></g></svg>