<?xml version="1.0" encoding="UTF-8" standalone="no"?><!DOCTYPE svg PUBLIC "-//W3C//DTD SVG 1.1//EN" "http://www.w3.org/Graphics/SVG/1.1/DTD/svg11.dtd"><svg width="100%" height="100%" viewBox="0 0 58 97" version="1.1" xmlns="http://www.w3.org/2000/svg" xmlns:xlink="http://www.w3.org/1999/xlink" xml:space="preserve" xmlns:serif="http://www.serif.com/" style="fill-rule:evenodd;clip-rule:evenodd;stroke-linejoin:round;stroke-miterlimit:2;"><g><path d="M20.244,50.956c0.937,2.113 1.406,4.544 1.406,7.294c-0,2.867 -0.783,5.3 -2.35,7.3c-1.567,2.033 -3.483,3.05 -5.75,3.05c-1.833,0 -3.25,-0.55 -4.25,-1.65c-1.1,-1.133 -1.65,-2.817 -1.65,-5.05c-0,-1.233 0.183,-2.5 0.55,-3.8c0.367,-1.467 0.867,-2.6 1.5,-3.4l-0.5,4.6c0,3.167 1.517,4.75 4.55,4.75c1.233,0 2.533,-0.383 3.9,-1.15c1.667,-0.9 2.5,-2 2.5,-3.3c-0,-1.067 -0.25,-2.167 -0.75,-3.3c-0.233,-0.533 -0.767,-1.483 -1.6,-2.85c0.433,-1.933 0.883,-3.433 1.35,-4.5l1.094,2.006Z"/><path d="M47.8,30.95c-1.367,2.233 -2.05,3.567 -2.05,4l0.5,25.65c1.167,-1.167 1.75,-4.267 1.75,-9.3l-0.2,-20.35Z"/><path d="M25.3,33.7c-0.533,-0 -0.95,0.283 -1.25,0.85c-0.267,0.5 -0.4,1.083 -0.4,1.75c-0,1.167 0.3,2.267 0.9,3.3c0.667,1.167 1.45,1.75 2.35,1.75c0.4,0 0.7,-0.1 0.9,-0.3c0.367,-0.333 0.583,-0.517 0.65,-0.55c0.7,0.533 1.967,2.233 3.8,5.1c1.4,2.2 2.55,4.083 3.45,5.65c-0.367,0.767 -0.917,1.7 -1.65,2.8c-0.833,1.233 -1.5,2.05 -2,2.45l-1.5,-0.7l-0,4.6c1.033,0.4 2.383,0.6 4.05,0.6c1.567,-0 2.583,-0.267 3.05,-0.8c0.5,-0.567 0.75,-1.8 0.75,-3.7c-0,-2.433 -0.4,-4.367 -1.2,-5.8c0.367,-1.167 0.683,-2.95 0.95,-5.35c0.233,-2.4 0.5,-4.083 0.8,-5.05l0.3,0.4c0.467,-0.367 0.833,-1.017 1.1,-1.95c0.1,-0.233 0.3,-1.017 0.6,-2.35c-1.267,-0.7 -1.9,-1.633 -1.9,-2.8c-0,-0.5 0.067,-1.117 0.2,-1.85c-1.167,1.167 -1.983,2.833 -2.45,5c0.067,0.267 0.267,0.7 0.6,1.3c0.3,0.533 0.45,0.917 0.45,1.15c0,0.8 -0.167,2.45 -0.5,4.95c-0.333,2.633 -0.6,4.183 -0.8,4.65c-3.133,-5.4 -4.85,-8.333 -5.15,-8.8c-2.7,-4.2 -4.733,-6.3 -6.1,-6.3Zm11.55,20.55c0.233,0.733 0.35,1.117 0.35,1.15l-0.15,0.9c-1.633,0.133 -2.6,0.2 -2.9,0.2c1.1,-1.267 1.833,-2.483 2.2,-3.65c0.033,0.167 0.2,0.633 0.5,1.4Z"/><path d="M13.45,41.5l-2.3,2.85l2.3,2.8l2.3,-2.8l-2.3,-2.85Z"/><path d="M49.2,32.85c0.767,-0.467 1.15,-1.083 1.15,-1.85c0,-0.6 -0.167,-1.483 -0.5,-2.65c-0.333,-1.2 -0.5,-2.083 -0.5,-2.65c-0.7,0.567 -1.05,1.067 -1.05,1.5c-0,0.533 0.167,1.333 0.5,2.4c0.333,1.033 0.5,1.817 0.5,2.35c-0,0.333 -0.033,0.633 -0.1,0.9Z"/><path d="M26.8,22.55c-0.7,0.567 -1.05,1.067 -1.05,1.5c0,0.533 0.167,1.333 0.5,2.4c0.333,1.033 0.5,1.817 0.5,2.35c0,0.333 -0.033,0.633 -0.1,0.9c0.767,-0.467 1.15,-1.083 1.15,-1.85c-0,-0.6 -0.167,-1.483 -0.5,-2.65c-0.333,-1.2 -0.5,-2.083 -0.5,-2.65Z"/><path d="M38.9,24.35c-0.667,0 -1.183,0.367 -1.55,1.1c-0.3,0.633 -0.45,1.4 -0.45,2.3c-0,1.433 0.517,2.15 1.55,2.15c0.6,-0 1.117,-0.3 1.55,-0.9c0.433,-0.6 0.65,-1.283 0.65,-2.05c-0,-0.633 -0.167,-1.217 -0.5,-1.75c-0.333,-0.567 -0.75,-0.85 -1.25,-0.85Zm0.3,2.05c0.433,0.367 0.65,0.7 0.65,1c0,0.5 -0.367,0.75 -1.1,0.75c-0.9,-0 -1.35,-0.35 -1.35,-1.05c-0,-0.8 0.283,-1.2 0.85,-1.2c0.267,-0 0.583,0.167 0.95,0.5Z"/><path d="M50.95,21.45c1.4,-0.967 2.1,-1.933 2.1,-2.9c-1.433,0.933 -2.2,1.417 -2.3,1.45c-0.933,0.5 -1.767,0.75 -2.5,0.75c-1.467,0 -2.833,-0.567 -4.1,-1.7c-1.033,1.933 -1.75,3.65 -2.15,5.15c0.333,-0.267 0.683,-0.7 1.05,-1.3c0.4,-0.733 0.7,-1.2 0.9,-1.4c1,0.533 1.6,0.833 1.8,0.9c0.533,0.2 1.183,0.3 1.95,0.3c0.9,-0 1.983,-0.417 3.25,-1.25Z"/><path d="M13.666,29.126l-4.4,3.5c-0.648,0.515 -0.755,1.46 -0.24,2.108c0.515,0.648 1.46,0.755 2.108,0.24l4.4,-3.5c0.648,-0.515 0.755,-1.46 0.24,-2.108c-0.515,-0.648 -1.46,-0.755 -2.108,-0.24Z"/></g></svg>