<?xml version="1.0" encoding="UTF-8" standalone="no"?><!DOCTYPE svg PUBLIC "-//W3C//DTD SVG 1.1//EN" "http://www.w3.org/Graphics/SVG/1.1/DTD/svg11.dtd"><svg width="100%" height="100%" viewBox="0 0 62 87" version="1.1" xmlns="http://www.w3.org/2000/svg" xmlns:xlink="http://www.w3.org/1999/xlink" xml:space="preserve" xmlns:serif="http://www.serif.com/" style="fill-rule:evenodd;clip-rule:evenodd;stroke-linejoin:round;stroke-miterlimit:2;"><g><path d="M42.7,53.25c-0.9,-1.167 -1.35,-2.167 -1.35,-3c0,-0.7 0.65,-1.35 1.95,-1.95c1.133,-0.567 2.033,-0.85 2.7,-0.85c1.033,0 2.183,0.283 3.45,0.85c-0.867,-2.667 -2.417,-4 -4.65,-4c-1.433,-0 -2.633,0.85 -3.6,2.55c-0.933,1.567 -1.4,3.267 -1.4,5.1c-0,1.467 0.233,2.767 0.7,3.9l-4.15,0l0,4.85l2.6,0c1.333,0 3.267,-0.35 5.8,-1.05c2.767,-0.767 4.55,-1.55 5.35,-2.35c0.567,-2.033 0.967,-3.383 1.2,-4.05l-6,1.7l-0.25,0c-0.7,0 -1.483,-0.567 -2.35,-1.7Z" style="fill:#f00;"/><path d="M29.5,43.75c0.3,3.833 0.45,6.7 0.45,8.6c0,1.567 -0.4,2.583 -1.2,3.05c-0.45,0.27 -1.284,0.42 -2.5,0.45l-1.5,0c-1.7,0 -3.217,0.617 -4.55,1.85c-1.433,1.367 -2.15,3.067 -2.15,5.1c-0,0.933 0.383,1.617 1.15,2.05c0.433,0.267 1.233,0.5 2.4,0.7c1.067,0.2 1.767,0.417 2.1,0.65c-0.333,0.833 -1.7,1.583 -4.1,2.25c-2,0.533 -3.6,0.8 -4.8,0.8c-2.067,-0 -3.633,-0.25 -4.7,-0.75c-1.7,-0.8 -2.55,-2.25 -2.55,-4.35c-0,-0.9 0.267,-2.05 0.8,-3.45c0.633,-1.7 1,-2.833 1.1,-3.4c-0.9,0.733 -1.767,2.017 -2.6,3.85c-0.9,1.9 -1.35,3.5 -1.35,4.8c-0,2.533 0.917,4.417 2.75,5.65c1.433,1 3.267,1.5 5.5,1.5c5,0 8.683,-1.883 11.05,-5.65c0.767,-1.167 1.15,-2.05 1.15,-2.65c0,-1.033 -0.833,-1.767 -2.5,-2.2c-1.167,-0.233 -2.317,-0.45 -3.45,-0.65c0.392,-0.755 2.476,-1.171 6.25,-1.25l1.65,0c0.667,0 1.3,-0.55 1.9,-1.65c0.867,-1.7 1.317,-2.567 1.35,-2.6c0.4,0.9 0.8,1.8 1.2,2.7c0.5,1.033 1.15,1.55 1.95,1.55l2.05,0l0,-4.85l-0.15,0c-1.52,-0.034 -2.604,-0.601 -3.25,-1.7c-0.6,-0.967 -0.9,-2.467 -0.9,-4.5c-0,-2.367 -0.133,-5.5 -0.4,-9.4c-0.267,-4.767 -0.433,-7.9 -0.5,-9.4c-1.367,1.333 -2.05,2.767 -2.05,4.3c0,1.9 0.133,4.767 0.4,8.6Z"/><path d="M30.024,22.67l-4.4,3.45c-0.651,0.51 -0.765,1.454 -0.254,2.106c0.51,0.651 1.454,0.765 2.106,0.254l4.4,-3.45c0.651,-0.51 0.765,-1.454 0.254,-2.106c-0.51,-0.651 -1.454,-0.765 -2.106,-0.254Z"/><path d="M45.674,22.67l-4.4,3.45c-0.651,0.51 -0.765,1.454 -0.254,2.106c0.51,0.651 1.454,0.765 2.106,0.254l4.4,-3.45c0.651,-0.51 0.765,-1.454 0.254,-2.106c-0.51,-0.651 -1.454,-0.765 -2.106,-0.254Z"/></g></svg>