<?xml version="1.0" encoding="UTF-8" standalone="no"?><!DOCTYPE svg PUBLIC "-//W3C//DTD SVG 1.1//EN" "http://www.w3.org/Graphics/SVG/1.1/DTD/svg11.dtd"><svg width="100%" height="100%" viewBox="0 0 141 86" version="1.1" xmlns="http://www.w3.org/2000/svg" xmlns:xlink="http://www.w3.org/1999/xlink" xml:space="preserve" xmlns:serif="http://www.serif.com/" style="fill-rule:evenodd;clip-rule:evenodd;stroke-linejoin:round;stroke-miterlimit:2;"><g><path d="M123.15,36.8c-1.433,0 -2.633,0.85 -3.6,2.55c-0.933,1.567 -1.4,3.267 -1.4,5.1c-0,1.467 0.233,2.767 0.7,3.9l-4.1,0l-0,4.85l2.55,-0c1.333,-0 3.267,-0.35 5.8,-1.05c2.767,-0.767 4.55,-1.55 5.35,-2.35c0.567,-2.033 0.967,-3.383 1.2,-4.05l-6,1.7l-0.25,-0c-0.7,-0 -1.483,-0.567 -2.35,-1.7c-0.9,-1.167 -1.35,-2.167 -1.35,-3c0,-0.7 0.65,-1.35 1.95,-1.95c1.133,-0.567 2.033,-0.85 2.7,-0.85c1.033,-0 2.183,0.283 3.45,0.85c-0.867,-2.667 -2.417,-4 -4.65,-4Z" style="fill:#f00;"/><path d="M107.5,27.65c0,1.9 0.133,4.767 0.4,8.6c0.3,3.833 0.45,6.7 0.45,8.6c0,1.567 -0.4,2.583 -1.2,3.05c-0.452,0.271 -1.285,0.421 -2.5,0.45l-1.55,0c-1.7,0 -3.217,0.617 -4.55,1.85c-1.433,1.367 -2.15,3.067 -2.15,5.1c-0,0.933 0.383,1.617 1.15,2.05c0.433,0.267 1.233,0.5 2.4,0.7c1.067,0.2 1.767,0.417 2.1,0.65c-0.333,0.833 -1.7,1.583 -4.1,2.25c-2,0.533 -3.6,0.8 -4.8,0.8c-2.067,0 -3.633,-0.25 -4.7,-0.75c-1.7,-0.8 -2.55,-2.25 -2.55,-4.35c-0,-0.9 0.267,-2.05 0.8,-3.45c0.633,-1.7 1,-2.833 1.1,-3.4c-0.9,0.733 -1.767,2.017 -2.6,3.85c-0.9,1.9 -1.35,3.5 -1.35,4.8c0,2.533 0.917,4.417 2.75,5.65c1.433,1 3.267,1.5 5.5,1.5c5,0 8.683,-1.883 11.05,-5.65c0.767,-1.167 1.15,-2.05 1.15,-2.65c-0,-1.033 -0.833,-1.767 -2.5,-2.2c-1.167,-0.233 -2.317,-0.45 -3.45,-0.65c0.394,-0.757 2.494,-1.174 6.3,-1.25l1.65,-0c0.667,-0 1.3,-0.55 1.9,-1.65c0.867,-1.7 1.317,-2.567 1.35,-2.6c0.4,0.9 0.8,1.8 1.2,2.7c0.5,1.033 1.15,1.55 1.95,1.55l2.05,-0l-0,-4.85l-0.15,0c-1.521,-0.036 -2.604,-0.603 -3.25,-1.7c-0.6,-0.967 -0.9,-2.467 -0.9,-4.5c0,-2.367 -0.133,-5.5 -0.4,-9.4c-0.267,-4.767 -0.433,-7.9 -0.5,-9.4c-1.367,1.333 -2.05,2.767 -2.05,4.3Z"/><path d="M82.55,23.6c-1.367,2.233 -2.05,3.567 -2.05,4l0.5,25.65c1.167,-1.167 1.75,-4.267 1.75,-9.3l-0.2,-20.35Z"/><path d="M66.35,40.3c-0.633,-0.867 -1.333,-1.3 -2.1,-1.3c-1.233,-0 -2.8,0.667 -4.7,2c-1.233,0.867 -2.9,2.283 -5,4.25c-2.167,2 -3.583,3.25 -4.25,3.75c-0.8,-0 -1.55,-0.333 -2.25,-1c-0.7,-0.667 -1.15,-1.467 -1.35,-2.4c-0.433,1.2 -0.883,1.983 -1.35,2.35c-0.367,0.267 -0.967,0.4 -1.8,0.4l-0.35,0c-1.523,-0.039 -2.606,-0.605 -3.25,-1.7c-0.6,-0.967 -0.9,-2.467 -0.9,-4.5c-0,-2.367 -0.133,-5.5 -0.4,-9.4c-0.267,-4.767 -0.433,-7.9 -0.5,-9.4c-1.367,1.333 -2.05,2.767 -2.05,4.3c0,1.9 0.133,4.767 0.4,8.6c0.3,3.833 0.45,6.7 0.45,8.6c0,1.567 -0.4,2.583 -1.2,3.05c-0.5,0.3 -1.467,0.45 -2.9,0.45l0,0.2c-0.423,0.013 -0.856,-0.004 -1.3,-0.05c-0.367,-0.967 -0.733,-1.917 -1.1,-2.85c-0.533,-1.233 -1.1,-1.85 -1.7,-1.85c-0.7,0 -1.433,0.917 -2.2,2.75c-0.7,1.667 -1.05,3.033 -1.05,4.1c0,1.3 0.517,2.117 1.55,2.45c0.9,0.167 1.817,0.333 2.75,0.5c-1.1,2.033 -2.233,3.517 -3.4,4.45c-1.333,1.067 -2.917,1.6 -4.75,1.6c-0.967,-0 -2.383,-0.083 -4.25,-0.25c1.733,2.1 3.75,3.15 6.05,3.15c1.967,-0 3.65,-1 5.05,-3c1,-1.433 1.95,-3.55 2.85,-6.35l3.55,-0c0.667,-0 1.3,-0.55 1.9,-1.65c0.867,-1.7 1.317,-2.567 1.35,-2.6c0.4,0.9 0.8,1.8 1.2,2.7c0.5,1.033 1.15,1.55 1.95,1.55l2.05,-0l0,-0.05c0.744,-0.055 1.227,-0.172 1.45,-0.35c0.167,-0.133 0.683,-1.05 1.55,-2.75c1.2,2.133 3.167,3.2 5.9,3.2l18.65,-0.05c1.5,-0 2.583,-1 3.25,-3c0.467,-1.4 0.7,-3.183 0.7,-5.35l0,-4.45c0,-0.833 -0.05,-2.05 -0.15,-3.65c-0.133,-1.633 -0.2,-2.867 -0.2,-3.7c0,-0.4 0.167,-1.067 0.5,-2c0.367,-0.933 0.55,-1.7 0.55,-2.3c-0,-0.233 -0.3,-0.7 -0.9,-1.4c-0.6,-0.767 -0.9,-1.417 -0.9,-1.95c0,-0.167 0.05,-0.433 0.15,-0.8c0.1,-0.4 0.15,-0.7 0.15,-0.9l-0.05,-0.55c-1.167,0.967 -2.083,2.617 -2.75,4.95c0.1,0.667 0.5,1.5 1.2,2.5c0.467,3.5 0.7,8.783 0.7,15.85c-0,1.367 -1.033,2.017 -3.1,1.95l-0.35,-0l0,-0.05l-1.7,0l-0,0.1c-0.268,0.04 -0.568,0.073 -0.9,0.1c-1.067,0.033 -1.917,-0.017 -2.55,-0.15c0.9,-1.1 1.5,-1.9 1.8,-2.4c0.633,-1.033 0.95,-2.017 0.95,-2.95c-0,-0.967 -0.317,-1.883 -0.95,-2.75Zm-36.9,9.7c-0.567,-0 -1.25,-0.067 -2.05,-0.2c-0,-0.4 -0.067,-0.65 -0.2,-0.75c0.233,-0.6 0.467,-1.133 0.7,-1.6c0.6,0.367 0.983,0.683 1.15,0.95c0.133,0.233 0.267,0.767 0.4,1.6Zm33.6,-6.05c1.1,0.467 1.65,0.95 1.65,1.45c0,1.067 -1.483,2.017 -4.45,2.85c-2.333,0.633 -4.167,0.95 -5.5,0.95l-2.2,-0c3.567,-3.967 6.333,-5.95 8.3,-5.95c0.533,-0 1.267,0.233 2.2,0.7Z"/><path d="M15.55,40.3c-0.967,-1 -1.667,-1.817 -2.1,-2.45c-0.567,1.733 -0.85,3.067 -0.85,4c0,0.133 0.017,0.317 0.05,0.55c0.067,0.267 0.1,0.45 0.1,0.55c-1.033,2.567 -1.55,4.667 -1.55,6.3c0,2.633 0.867,3.95 2.6,3.95c1.4,-0 2.5,-0.783 3.3,-2.35c0.667,-1.367 1,-2.967 1,-4.8c0,-1.4 -0.25,-2.567 -0.75,-3.5c-0.333,-0.6 -0.933,-1.35 -1.8,-2.25Zm-1.45,8.65c-0.9,-0 -1.35,-0.717 -1.35,-2.15c-0,-1.1 0.35,-2.1 1.05,-3c1.933,1.8 2.9,2.9 2.9,3.3c0,0.367 -0.35,0.767 -1.05,1.2c-0.667,0.433 -1.183,0.65 -1.55,0.65Z"/><path d="M26.5,36.15c0.833,-0.467 1.25,-1.1 1.25,-1.9c0,-0.633 -0.183,-1.567 -0.55,-2.8c-0.367,-1.233 -0.55,-2.15 -0.55,-2.75c-0.767,0.567 -1.15,1.083 -1.15,1.55c0,0.567 0.183,1.4 0.55,2.5c0.367,1.1 0.55,1.933 0.55,2.5c0,0.367 -0.033,0.667 -0.1,0.9Z"/><path d="M17.7,32l-2,-2.45l-2,2.45l2,2.5l2,-2.5Z"/><path d="M13.7,32l-2,-2.45l-2,2.45l2,2.45l2,-2.45Z"/><path d="M56.7,27.65c0,-0.4 -0.05,-0.85 -0.15,-1.35l-0.25,0.15c-0,1.367 -0.25,2.05 -0.75,2.05c-0.267,0 -0.483,-0.45 -0.65,-1.35l-0.2,0.1c-0.1,0.667 -0.2,1.117 -0.3,1.35c-0.167,0.567 -0.4,0.85 -0.7,0.85c-0.3,-0 -0.45,-0.5 -0.45,-1.5l-0.25,0.05c-0.167,0.733 -0.25,1.183 -0.25,1.35c0,0.433 0.067,0.783 0.2,1.05c0.167,0.333 0.4,0.5 0.7,0.5c0.267,-0 0.517,-0.117 0.75,-0.35c0.233,-0.233 0.367,-0.517 0.4,-0.85c0.233,0.2 0.483,0.3 0.75,0.3c0.767,-0 1.15,-0.783 1.15,-2.35Z"/><path d="M15.56,55.881l-4.35,3.5c-0.645,0.519 -0.748,1.464 -0.229,2.109c0.519,0.645 1.464,0.748 2.109,0.229l4.35,-3.5c0.645,-0.519 0.748,-1.464 0.229,-2.109c-0.519,-0.645 -1.464,-0.748 -2.109,-0.229Z"/><path d="M123.516,17.876l-4.4,3.5c-0.648,0.515 -0.755,1.46 -0.24,2.108c0.515,0.648 1.46,0.755 2.108,0.24l4.4,-3.5c0.648,-0.515 0.755,-1.46 0.24,-2.108c-0.515,-0.648 -1.46,-0.755 -2.108,-0.24Z"/><path d="M55.966,16.326l-4.4,3.5c-0.648,0.515 -0.755,1.46 -0.24,2.108c0.515,0.648 1.46,0.755 2.108,0.24l4.4,-3.5c0.648,-0.515 0.755,-1.46 0.24,-2.108c-0.515,-0.648 -1.46,-0.755 -2.108,-0.24Z"/><path d="M38.116,15.526l-4.4,3.5c-0.648,0.515 -0.755,1.46 -0.24,2.108c0.515,0.648 1.46,0.755 2.108,0.24l4.4,-3.5c0.648,-0.515 0.755,-1.46 0.24,-2.108c-0.515,-0.648 -1.46,-0.755 -2.108,-0.24Z"/><path d="M109.766,15.526l-4.4,3.5c-0.648,0.515 -0.755,1.46 -0.24,2.108c0.515,0.648 1.46,0.755 2.108,0.24l4.4,-3.5c0.648,-0.515 0.755,-1.46 0.24,-2.108c-0.515,-0.648 -1.46,-0.755 -2.108,-0.24Z"/></g></svg>