<?xml version="1.0" encoding="UTF-8" standalone="no"?><!DOCTYPE svg PUBLIC "-//W3C//DTD SVG 1.1//EN" "http://www.w3.org/Graphics/SVG/1.1/DTD/svg11.dtd"><svg width="100%" height="100%" viewBox="0 0 47 79" version="1.1" xmlns="http://www.w3.org/2000/svg" xmlns:xlink="http://www.w3.org/1999/xlink" xml:space="preserve" xmlns:serif="http://www.serif.com/" style="fill-rule:evenodd;clip-rule:evenodd;stroke-linejoin:round;stroke-miterlimit:2;"><g><path d="M17.95,22.8c-0.133,-0.5 -0.2,-1.467 -0.2,-2.9c-0.767,1.233 -1.417,3.033 -1.95,5.4c0.533,0.833 0.95,1.45 1.25,1.85c0.067,1.3 0.3,4.817 0.7,10.55c0.333,4.433 0.5,7.983 0.5,10.65c0,1.2 -0.683,2.15 -2.05,2.85c-1.067,0.567 -2.167,0.85 -3.3,0.85c-3.167,-0 -4.75,-1.683 -4.75,-5.05c0,-0.133 0.15,-1.567 0.45,-4.3c-0.6,0.633 -1.083,1.8 -1.45,3.5c-0.3,1.4 -0.45,2.75 -0.45,4.05c0,2.433 0.4,4.183 1.2,5.25c0.833,1.133 2.217,1.7 4.15,1.7c5.167,0 7.75,-4.6 7.75,-13.8c-0,-4.6 -0.4,-9.45 -1.2,-14.55c0.433,-0.267 0.733,-0.933 0.9,-2c0.1,-0.833 0.2,-1.667 0.3,-2.5c-0.967,-0.133 -1.583,-0.65 -1.85,-1.55Z"/><path d="M26.9,20.35c-1.367,2.233 -2.05,3.567 -2.05,4l0.5,25.65c1.167,-1.167 1.75,-4.267 1.75,-9.3l-0.2,-20.35Z"/><path d="M28.7,20.65c0.767,-0.467 1.15,-1.083 1.15,-1.85c-0,-0.6 -0.167,-1.483 -0.5,-2.65c-0.333,-1.2 -0.5,-2.083 -0.5,-2.65c-0.7,0.567 -1.05,1.067 -1.05,1.5c-0,0.533 0.167,1.333 0.5,2.4c0.333,1.033 0.5,1.817 0.5,2.35c-0,0.333 -0.033,0.633 -0.1,0.9Z"/><path d="M16.01,58.831l-4.35,3.5c-0.645,0.519 -0.748,1.464 -0.229,2.109c0.519,0.645 1.464,0.748 2.109,0.229l4.35,-3.5c0.645,-0.519 0.748,-1.464 0.229,-2.109c-0.519,-0.645 -1.464,-0.748 -2.109,-0.229Z"/></g></svg>