<?xml version="1.0" encoding="UTF-8" standalone="no"?><!DOCTYPE svg PUBLIC "-//W3C//DTD SVG 1.1//EN" "http://www.w3.org/Graphics/SVG/1.1/DTD/svg11.dtd"><svg width="100%" height="100%" viewBox="0 0 73 87" version="1.1" xmlns="http://www.w3.org/2000/svg" xmlns:xlink="http://www.w3.org/1999/xlink" xml:space="preserve" xmlns:serif="http://www.serif.com/" style="fill-rule:evenodd;clip-rule:evenodd;stroke-linejoin:round;stroke-miterlimit:2;"><g><path d="M61.05,31.25c-1.367,2.233 -2.05,3.567 -2.05,4l0.5,25.65c1.167,-1.167 1.75,-4.267 1.75,-9.3l-0.2,-20.35Z"/><path d="M54.05,36.4c-0,-0.233 -0.3,-0.7 -0.9,-1.4c-0.6,-0.767 -0.9,-1.417 -0.9,-1.95c-0,-0.167 0.05,-0.433 0.15,-0.8c0.1,-0.4 0.15,-0.7 0.15,-0.9l-0.05,-0.55c-1.167,0.967 -2.083,2.617 -2.75,4.95c0.1,0.667 0.5,1.5 1.2,2.5c0.467,3.5 0.7,8.783 0.7,15.85c-0,1.367 -1.033,2.017 -3.1,1.95l-0.8,-0.05c-1.6,-0 -2.733,-0.567 -3.4,-1.7c-0.6,-0.967 -0.9,-2.467 -0.9,-4.5c0,-2.367 -0.133,-5.5 -0.4,-9.4c-0.267,-4.767 -0.433,-7.9 -0.5,-9.4c-1.367,1.333 -2.05,2.767 -2.05,4.3c-0,1.9 0.133,4.767 0.4,8.6c0.3,3.833 0.45,6.7 0.45,8.6c0,1.567 -0.4,2.583 -1.2,3.05c-0.5,0.3 -1.467,0.45 -2.9,0.45l-0,0.05c-0.242,0.042 -0.508,0.075 -0.8,0.1c-1.167,0.1 -2.05,0.15 -2.65,0.15c-0.933,-0 -1.633,-0.1 -2.1,-0.3c0.767,-0.967 1.417,-2.05 1.95,-3.25c0.633,-1.4 0.95,-2.683 0.95,-3.85c-0,-2.4 -0.45,-4.033 -1.35,-4.9c-0.733,-0 -1.5,0.967 -2.3,2.9c-0.667,1.833 -1.35,3.667 -2.05,5.5c-0.8,2.067 -1.6,3.2 -2.4,3.4c-0.526,0.1 -1.426,0.167 -2.7,0.2l-0.35,-0c-1.623,-0.037 -2.756,-0.187 -3.4,-0.45c-0.5,-0.233 -0.95,-0.717 -1.35,-1.45c-0.5,-1 -1.083,-1.817 -1.75,-2.45c-0.333,0.433 -0.567,0.85 -0.7,1.25c0.1,0.233 0.1,0.4 -0,0.5c-1.633,0.5 -3.033,1.383 -4.2,2.65c-1.333,1.467 -2,3.183 -2,5.15l-0,0.6l1.4,18.65c0.233,-0.367 0.467,-0.9 0.7,-1.6c0.233,-0.767 0.333,-1.35 0.3,-1.75l-1,-16.5c0.567,-1.4 1.417,-2.1 2.55,-2.1l0.5,0.2c-0,1.1 0.217,2.2 0.65,3.3c0.533,1.367 1.183,2.05 1.95,2.05c1.267,-0 1.9,-1.567 1.9,-4.7c1.167,1 2.033,1.5 2.6,1.5l5.25,0c-0,1.8 0.35,3.667 1.05,5.6c0.9,2.367 1.983,3.55 3.25,3.55c1,0 1.767,-0.8 2.3,-2.4c0.433,-1.233 0.65,-2.567 0.65,-4c-0,-0.367 -0.033,-0.867 -0.1,-1.5c-0.067,-0.733 -0.1,-1.217 -0.1,-1.45c0.967,0.167 1.833,0.25 2.6,0.25c0.357,-0 0.707,-0.017 1.05,-0.05l1.75,0c0.667,0 1.3,-0.55 1.9,-1.65c0.867,-1.7 1.317,-2.567 1.35,-2.6c0.4,0.9 0.8,1.8 1.2,2.7c0.5,1.033 1.15,1.55 1.95,1.55l3.7,0c1.5,0 2.583,-1 3.25,-3c0.467,-1.4 0.7,-3.183 0.7,-5.35l-0,-4.45c-0,-0.833 -0.05,-2.05 -0.15,-3.65c-0.133,-1.633 -0.2,-2.867 -0.2,-3.7c-0,-0.4 0.167,-1.067 0.5,-2c0.367,-0.933 0.55,-1.7 0.55,-2.3Zm-21.35,29.05c-0.267,0.2 -0.467,0.3 -0.6,0.3c-0.9,0 -1.683,-0.517 -2.35,-1.55c-0.567,-0.9 -0.95,-1.95 -1.15,-3.15c2.967,0.867 4.45,2.15 4.45,3.85c-0,0.133 -0.117,0.317 -0.35,0.55Zm-0.65,-16.35c0.567,0.7 0.85,1.35 0.85,1.95c-0,1.2 -0.383,2.117 -1.15,2.75c-0.5,0.433 -1.333,0.8 -2.5,1.1c0.7,-1.833 1.1,-2.85 1.2,-3.05c0.433,-1.067 0.967,-1.983 1.6,-2.75Z"/><path d="M18.5,34.55l-0.25,0.15c0,1.367 -0.25,2.05 -0.75,2.05c-0.267,0 -0.483,-0.45 -0.65,-1.35l-0.2,0.1c-0.1,0.667 -0.2,1.117 -0.3,1.35c-0.167,0.567 -0.4,0.85 -0.7,0.85c-0.3,0 -0.45,-0.5 -0.45,-1.5l-0.25,0.05c-0.167,0.733 -0.25,1.183 -0.25,1.35c0,0.433 0.067,0.783 0.2,1.05c0.167,0.333 0.4,0.5 0.7,0.5c0.267,-0 0.517,-0.117 0.75,-0.35c0.233,-0.233 0.367,-0.517 0.4,-0.85c0.233,0.2 0.483,0.3 0.75,0.3c0.767,0 1.15,-0.783 1.15,-2.35c-0,-0.4 -0.05,-0.85 -0.15,-1.35Z"/><path d="M40.05,28.4c-0.3,-0 -0.45,-0.5 -0.45,-1.5l-0.25,0.05c-0.167,0.733 -0.25,1.183 -0.25,1.35c0,0.433 0.067,0.783 0.2,1.05c0.167,0.333 0.4,0.5 0.7,0.5c0.267,0 0.517,-0.117 0.75,-0.35c0.233,-0.233 0.367,-0.517 0.4,-0.85c0.233,0.2 0.483,0.3 0.75,0.3c0.767,0 1.15,-0.783 1.15,-2.35c-0,-0.4 -0.05,-0.85 -0.15,-1.35l-0.25,0.15c-0,1.367 -0.25,2.05 -0.75,2.05c-0.267,0 -0.483,-0.45 -0.65,-1.35l-0.2,0.1c-0.1,0.667 -0.2,1.117 -0.3,1.35c-0.167,0.567 -0.4,0.85 -0.7,0.85Z"/><path d="M31.5,25.75c-0.267,-0.233 -0.483,-0.4 -0.65,-0.5c0.367,-0.867 0.55,-1.533 0.55,-2c-0,-1 -0.383,-1.5 -1.15,-1.5c-0.567,0 -1.05,0.35 -1.45,1.05c-0.367,0.6 -0.55,1.2 -0.55,1.8c-0,0.467 0.35,0.967 1.05,1.5c-1.3,1.2 -2.517,2.1 -3.65,2.7c0.4,0.133 0.717,0.2 0.95,0.2c0.967,0 2.1,-0.817 3.4,-2.45c0.533,0.4 1,0.7 1.4,0.9l0.1,-1.7Zm-1.2,-1.5c-0,0.133 -0.017,0.3 -0.05,0.5c-0.767,-0.433 -1.15,-0.85 -1.15,-1.25c0.067,-0.167 0.167,-0.267 0.3,-0.3c0.6,0.1 0.9,0.45 0.9,1.05Z"/><path d="M17.266,25.376l-4.4,3.5c-0.648,0.515 -0.755,1.46 -0.24,2.108c0.515,0.648 1.46,0.755 2.108,0.24l4.4,-3.5c0.648,-0.515 0.755,-1.46 0.24,-2.108c-0.515,-0.648 -1.46,-0.755 -2.108,-0.24Z"/><path d="M61.374,22.67l-4.4,3.45c-0.651,0.51 -0.765,1.454 -0.254,2.106c0.51,0.651 1.454,0.765 2.106,0.254l4.4,-3.45c0.651,-0.51 0.765,-1.454 0.254,-2.106c-0.51,-0.651 -1.454,-0.765 -2.106,-0.254Z"/><path d="M42.616,19.176l-4.4,3.5c-0.648,0.515 -0.755,1.46 -0.24,2.108c0.515,0.648 1.46,0.755 2.108,0.24l4.4,-3.5c0.648,-0.515 0.755,-1.46 0.24,-2.108c-0.515,-0.648 -1.46,-0.755 -2.108,-0.24Z"/></g></svg>