<?xml version="1.0" encoding="UTF-8" standalone="no"?><!DOCTYPE svg PUBLIC "-//W3C//DTD SVG 1.1//EN" "http://www.w3.org/Graphics/SVG/1.1/DTD/svg11.dtd"><svg width="100%" height="100%" viewBox="0 0 34 89" version="1.1" xmlns="http://www.w3.org/2000/svg" xmlns:xlink="http://www.w3.org/1999/xlink" xml:space="preserve" xmlns:serif="http://www.serif.com/" style="fill-rule:evenodd;clip-rule:evenodd;stroke-linejoin:round;stroke-miterlimit:2;"><g><path d="M21.85,38.4c-1.433,0 -2.633,0.85 -3.6,2.55c-0.933,1.567 -1.4,3.267 -1.4,5.1c0,1.467 0.233,2.767 0.7,3.9l-5.3,-0l0,4.85l3.75,0c1.333,0 3.267,-0.35 5.8,-1.05c2.767,-0.767 4.55,-1.55 5.35,-2.35c0.567,-2.033 0.967,-3.383 1.2,-4.05l-6,1.7l-0.25,0c-0.7,0 -1.483,-0.567 -2.35,-1.7c-0.9,-1.167 -1.35,-2.167 -1.35,-3c-0,-0.7 0.65,-1.35 1.95,-1.95c1.133,-0.567 2.033,-0.85 2.7,-0.85c1.033,0 2.183,0.283 3.45,0.85c-0.867,-2.667 -2.417,-4 -4.65,-4Z" style="fill:#f00;"/><path d="M7.9,41.6l-0,-15.6c-0.4,0.5 -0.783,0.983 -1.15,1.45c-0.3,0.467 -0.45,1.117 -0.45,1.95c-0,6.5 0.033,10.667 0.1,12.5c0.2,6.267 0.7,10.05 1.5,11.35c0.667,1.033 1.583,1.55 2.75,1.55l1.6,0l0,-4.85l1.1,-0c-2.304,-0.06 -3.804,-0.66 -4.5,-1.8c-0.633,-1.033 -0.95,-3.217 -0.95,-6.55Z"/><path d="M10.781,25.975c-0.343,-0.062 -0.665,-0.243 -0.9,-0.535c-0.519,-0.645 -0.416,-1.59 0.229,-2.109l4.35,-3.5c0.645,-0.519 1.59,-0.416 2.109,0.229c0.519,0.645 0.416,1.59 -0.229,2.109l-0.061,0.049c0.36,0.055 0.701,0.241 0.945,0.548c0.515,0.648 0.408,1.593 -0.24,2.108l-4.4,3.5c-0.648,0.515 -1.593,0.408 -2.108,-0.24c-0.515,-0.648 -0.408,-1.593 0.24,-2.108l0.065,-0.051Z"/></g></svg>