<?xml version="1.0" encoding="UTF-8" standalone="no"?><!DOCTYPE svg PUBLIC "-//W3C//DTD SVG 1.1//EN" "http://www.w3.org/Graphics/SVG/1.1/DTD/svg11.dtd"><svg width="100%" height="100%" viewBox="0 0 46 89" version="1.1" xmlns="http://www.w3.org/2000/svg" xmlns:xlink="http://www.w3.org/1999/xlink" xml:space="preserve" xmlns:serif="http://www.serif.com/" style="fill-rule:evenodd;clip-rule:evenodd;stroke-linejoin:round;stroke-miterlimit:2;"><g><path d="M42.4,48.3l-6,1.7l-0.25,-0c-0.7,-0 -1.483,-0.567 -2.35,-1.7c-0.9,-1.167 -1.35,-2.167 -1.35,-3c0,-0.7 0.65,-1.35 1.95,-1.95c1.133,-0.567 2.033,-0.85 2.7,-0.85c1.033,0 2.183,0.283 3.45,0.85c-0.867,-2.667 -2.417,-4 -4.65,-4c-1.433,0 -2.633,0.85 -3.6,2.55c-0.933,1.567 -1.4,3.267 -1.4,5.1c0,1.467 0.233,2.767 0.7,3.9l-3.9,-0l0,4.85l2.35,0c1.333,0 3.267,-0.35 5.8,-1.05c2.767,-0.767 4.55,-1.55 5.35,-2.35c0.567,-2.033 0.967,-3.383 1.2,-4.05Z" style="fill:#f00;"/><path d="M21,50.4c-0.618,0.294 -1.801,0.461 -3.55,0.5l-0.35,-0c-1.202,-0.034 -1.902,-0.101 -2.1,-0.2c-0.833,-0.467 -1.533,-2.45 -2.1,-5.95c-0.433,-2.733 -0.65,-5.05 -0.65,-6.95c-0.867,1.367 -1.283,2.233 -1.25,2.6l0.2,3.2c-1.933,1.267 -3.317,2.433 -4.15,3.5c-1.233,1.533 -1.85,3.383 -1.85,5.55c0,0.767 0.7,1.15 2.1,1.15c1.367,0 2.333,-0.15 2.9,-0.45c0.733,-0.367 1.467,-1.2 2.2,-2.5c0.333,1.033 0.667,2.067 1,3.1c0.5,1.2 1.15,1.8 1.95,1.8l3.75,0c0.733,0 1.35,-0.35 1.85,-1.05c0.133,-0.2 0.5,-0.95 1.1,-2.25c0.733,1.4 1.133,2.133 1.2,2.2c0.5,0.733 1.1,1.1 1.8,1.1l2.65,0l0,-4.85l-1.05,-0c-1.337,-0.039 -2.154,-0.139 -2.45,-0.3c-0.733,-0.467 -1.1,-1.75 -1.1,-3.85c-0.6,0.567 -1,1.3 -1.2,2.2c-0.167,0.767 -0.467,1.25 -0.9,1.45Zm-10.3,-1.8c-0.6,0.2 -1.067,0.3 -1.4,0.3c-0.4,-0 -0.917,-0.133 -1.55,-0.4c1.333,-1.067 2.533,-1.917 3.6,-2.55c0.233,1.067 0.35,1.7 0.35,1.9c0,0.267 -0.333,0.517 -1,0.75Z"/><path d="M24.25,38.9l-2.3,-2.85l-2.3,2.85l2.25,2.8l2.35,-2.8Z"/><path d="M19.9,22.95c-0.3,0.633 -0.45,1.4 -0.45,2.3c0,1.433 0.517,2.15 1.55,2.15c0.6,0 1.117,-0.3 1.55,-0.9c0.433,-0.6 0.65,-1.283 0.65,-2.05c0,-0.633 -0.167,-1.217 -0.5,-1.75c-0.333,-0.567 -0.75,-0.85 -1.25,-0.85c-0.667,-0 -1.183,0.367 -1.55,1.1Zm1.85,0.95c0.433,0.367 0.65,0.7 0.65,1c0,0.5 -0.367,0.75 -1.1,0.75c-0.9,0 -1.35,-0.35 -1.35,-1.05c0,-0.8 0.283,-1.2 0.85,-1.2c0.267,0 0.583,0.167 0.95,0.5Z"/><path d="M7.85,24.3c-0,0.467 0.35,0.967 1.05,1.5c-1.3,1.2 -2.517,2.1 -3.65,2.7c0.4,0.133 0.717,0.2 0.95,0.2c0.967,-0 2.1,-0.817 3.4,-2.45c0.533,0.4 1,0.7 1.4,0.9l0.1,-1.7c-0.267,-0.233 -0.483,-0.4 -0.65,-0.5c0.367,-0.867 0.55,-1.533 0.55,-2c0,-1 -0.383,-1.5 -1.15,-1.5c-0.567,-0 -1.05,0.35 -1.45,1.05c-0.367,0.6 -0.55,1.2 -0.55,1.8Zm2.05,-0.35c0,0.133 -0.017,0.3 -0.05,0.5c-0.767,-0.433 -1.15,-0.85 -1.15,-1.25c0.067,-0.167 0.167,-0.267 0.3,-0.3c0.6,0.1 0.9,0.45 0.9,1.05Z"/><path d="M36.56,23.131l-4.35,3.5c-0.645,0.519 -0.748,1.464 -0.229,2.109c0.519,0.645 1.464,0.748 2.109,0.229l4.35,-3.5c0.645,-0.519 0.748,-1.464 0.229,-2.109c-0.519,-0.645 -1.464,-0.748 -2.109,-0.229Z"/></g></svg>