<?xml version="1.0" encoding="UTF-8" standalone="no"?><!DOCTYPE svg PUBLIC "-//W3C//DTD SVG 1.1//EN" "http://www.w3.org/Graphics/SVG/1.1/DTD/svg11.dtd"><svg width="100%" height="100%" viewBox="0 0 54 89" version="1.1" xmlns="http://www.w3.org/2000/svg" xmlns:xlink="http://www.w3.org/1999/xlink" xml:space="preserve" xmlns:serif="http://www.serif.com/" style="fill-rule:evenodd;clip-rule:evenodd;stroke-linejoin:round;stroke-miterlimit:2;"><g><path d="M41.15,43.75c1.033,0 2.183,0.283 3.45,0.85c-0.867,-2.667 -2.417,-4 -4.65,-4c-1.433,0 -2.633,0.85 -3.6,2.55c-0.933,1.567 -1.4,3.267 -1.4,5.1c0,1.467 0.233,2.767 0.7,3.9l-3.85,-0l-0,4.85l2.3,0c1.333,0 3.267,-0.35 5.8,-1.05c2.767,-0.767 4.55,-1.55 5.35,-2.35c0.567,-2.033 0.967,-3.383 1.2,-4.05l-6,1.7l-0.25,-0c-0.7,-0 -1.483,-0.567 -2.35,-1.7c-0.9,-1.167 -1.35,-2.167 -1.35,-3c0,-0.7 0.65,-1.35 1.95,-1.95c1.133,-0.567 2.033,-0.85 2.7,-0.85Z" style="fill:#f00;"/><path d="M30.7,52.15c-1.307,-0.04 -2.107,-0.14 -2.4,-0.3c-0.733,-0.467 -1.1,-1.75 -1.1,-3.85c-0.6,0.567 -1,1.3 -1.2,2.2c-0.167,0.767 -0.467,1.25 -0.9,1.45c-0.583,0.278 -1.667,0.428 -3.25,0.45c-2.164,-0.072 -3.581,-0.655 -4.25,-1.75c-0.633,-1.033 -0.95,-3.217 -0.95,-6.55l-0,-15.6c-0.4,0.5 -0.783,0.983 -1.15,1.45c-0.3,0.467 -0.45,1.117 -0.45,1.95c-0,6.5 0.033,10.667 0.1,12.5c0.2,6.267 0.7,10.05 1.5,11.35c0.667,1.033 1.583,1.55 2.75,1.55l3.8,-0c0.733,-0 1.35,-0.35 1.85,-1.05c0.133,-0.2 0.5,-0.95 1.1,-2.25c0.733,1.4 1.133,2.133 1.2,2.2c0.5,0.733 1.1,1.1 1.8,1.1l2.65,-0l-0,-4.85l-1.1,-0Z"/><path d="M28.35,40.15l-2.3,-2.85l-2.3,2.85l2.25,2.8l2.35,-2.8Z"/><path d="M27.3,30.3c-0,-0.4 -0.05,-0.85 -0.15,-1.35l-0.25,0.15c-0,1.367 -0.25,2.05 -0.75,2.05c-0.267,0 -0.483,-0.45 -0.65,-1.35l-0.2,0.1c-0.1,0.667 -0.2,1.117 -0.3,1.35c-0.167,0.567 -0.4,0.85 -0.7,0.85c-0.3,-0 -0.45,-0.5 -0.45,-1.5l-0.25,0.05c-0.167,0.733 -0.25,1.183 -0.25,1.35c0,0.433 0.067,0.783 0.2,1.05c0.167,0.333 0.4,0.5 0.7,0.5c0.267,0 0.517,-0.117 0.75,-0.35c0.233,-0.233 0.367,-0.517 0.4,-0.85c0.233,0.2 0.483,0.3 0.75,0.3c0.767,0 1.15,-0.783 1.15,-2.35Z"/><path d="M40.61,22.431l-4.35,3.5c-0.645,0.519 -0.748,1.464 -0.229,2.109c0.519,0.645 1.464,0.748 2.109,0.229l4.35,-3.5c0.645,-0.519 0.748,-1.464 0.229,-2.109c-0.519,-0.645 -1.464,-0.748 -2.109,-0.229Z"/><path d="M23.116,21.676l-4.4,3.5c-0.648,0.515 -0.755,1.46 -0.24,2.108c0.515,0.648 1.46,0.755 2.108,0.24l4.4,-3.5c0.648,-0.515 0.755,-1.46 0.24,-2.108c-0.515,-0.648 -1.46,-0.755 -2.108,-0.24Z"/></g></svg>