<?xml version="1.0" encoding="UTF-8" standalone="no"?><!DOCTYPE svg PUBLIC "-//W3C//DTD SVG 1.1//EN" "http://www.w3.org/Graphics/SVG/1.1/DTD/svg11.dtd"><svg width="100%" height="100%" viewBox="0 0 58 89" version="1.1" xmlns="http://www.w3.org/2000/svg" xmlns:xlink="http://www.w3.org/1999/xlink" xml:space="preserve" xmlns:serif="http://www.serif.com/" style="fill-rule:evenodd;clip-rule:evenodd;stroke-linejoin:round;stroke-miterlimit:2;"><g><path d="M48.8,61.55l2.3,2.8l2.3,-2.8l-2.3,-2.85l-2.3,2.85Z"/><path d="M41.15,28.45c-0,6.5 0.033,10.667 0.1,12.5c0.2,6.267 0.7,10.05 1.5,11.35c0.667,1.033 1.583,1.55 2.75,1.55l3.1,-0l0,-0.05c1.989,-0.062 3.439,-0.579 4.35,-1.55c1.1,-1.167 1.65,-3.167 1.65,-6c0,-0.767 -0.283,-2.55 -0.85,-5.35c-0.6,1.7 -1.083,2.983 -1.45,3.85c0.567,1.367 0.933,2.35 1.1,2.95c-0.596,0.878 -2.196,1.328 -4.8,1.35l0,-0.05c-2.533,-0 -4.167,-0.6 -4.9,-1.8c-0.633,-1.033 -0.95,-3.217 -0.95,-6.55l0,-15.6c-0.4,0.5 -0.783,0.983 -1.15,1.45c-0.3,0.467 -0.45,1.117 -0.45,1.95Z"/><path d="M35.4,28c-0.6,-0.767 -0.9,-1.417 -0.9,-1.95c0,-0.167 0.05,-0.433 0.15,-0.8c0.1,-0.4 0.15,-0.7 0.15,-0.9l-0.05,-0.55c-1.167,0.967 -2.083,2.617 -2.75,4.95c0.1,0.667 0.5,1.5 1.2,2.5c0.467,3.5 0.7,8.783 0.7,15.85c-0,1.367 -1.033,2.017 -3.1,1.95l-0.85,-0.05c-1.6,-0 -2.733,-0.567 -3.4,-1.7c-0.6,-0.967 -0.9,-2.467 -0.9,-4.5c-0,-2.367 -0.133,-5.5 -0.4,-9.4c-0.267,-4.767 -0.433,-7.9 -0.5,-9.4c-1.367,1.333 -2.05,2.767 -2.05,4.3c0,1.9 0.133,4.767 0.4,8.6c0.3,3.833 0.45,6.7 0.45,8.6c-0,1.567 -0.4,2.583 -1.2,3.05c-0.435,0.261 -1.235,0.411 -2.4,0.45c-1.385,-0.026 -2.185,-0.092 -2.4,-0.2c-0.833,-0.467 -1.533,-2.45 -2.1,-5.95c-0.433,-2.733 -0.65,-5.05 -0.65,-6.95c-0.867,1.367 -1.283,2.233 -1.25,2.6l0.2,3.2c-1.933,1.267 -3.317,2.433 -4.15,3.5c-1.233,1.533 -1.85,3.383 -1.85,5.55c-0,0.767 0.7,1.15 2.1,1.15c1.367,0 2.333,-0.15 2.9,-0.45c0.733,-0.367 1.467,-1.2 2.2,-2.5c0.333,1.033 0.667,2.067 1,3.1c0.5,1.2 1.15,1.8 1.95,1.8l3.6,0c0.667,0 1.3,-0.55 1.9,-1.65c0.867,-1.7 1.317,-2.567 1.35,-2.6c0.4,0.9 0.8,1.8 1.2,2.7c0.5,1.033 1.15,1.55 1.95,1.55l3.75,0c1.5,0 2.583,-1 3.25,-3c0.467,-1.4 0.7,-3.183 0.7,-5.35l0,-4.45c0,-0.833 -0.05,-2.05 -0.15,-3.65c-0.133,-1.633 -0.2,-2.867 -0.2,-3.7c-0,-0.4 0.167,-1.067 0.5,-2c0.367,-0.933 0.55,-1.7 0.55,-2.3c-0,-0.233 -0.3,-0.7 -0.9,-1.4Zm-21.5,16.05c0.233,1.067 0.35,1.7 0.35,1.9c-0,0.267 -0.333,0.517 -1,0.75c-0.6,0.2 -1.067,0.3 -1.4,0.3c-0.4,0 -0.917,-0.133 -1.55,-0.4c1.333,-1.067 2.533,-1.917 3.6,-2.55Z"/><path d="M25.5,18l-0.25,0.15c0,1.367 -0.25,2.05 -0.75,2.05c-0.267,-0 -0.483,-0.45 -0.65,-1.35l-0.2,0.1c-0.1,0.667 -0.2,1.117 -0.3,1.35c-0.167,0.567 -0.4,0.85 -0.7,0.85c-0.3,0 -0.45,-0.5 -0.45,-1.5l-0.25,0.05c-0.167,0.733 -0.25,1.183 -0.25,1.35c0,0.433 0.067,0.783 0.2,1.05c0.167,0.333 0.4,0.5 0.7,0.5c0.267,-0 0.517,-0.117 0.75,-0.35c0.233,-0.233 0.367,-0.517 0.4,-0.85c0.233,0.2 0.483,0.3 0.75,0.3c0.767,-0 1.15,-0.783 1.15,-2.35c-0,-0.4 -0.05,-0.85 -0.15,-1.35Z"/><path d="M52.466,66.176l-4.4,3.5c-0.648,0.515 -0.755,1.46 -0.24,2.108c0.515,0.648 1.46,0.755 2.108,0.24l4.4,-3.5c0.648,-0.515 0.755,-1.46 0.24,-2.108c-0.515,-0.648 -1.46,-0.755 -2.108,-0.24Z"/><path d="M13.31,58.031l-4.35,3.5c-0.645,0.519 -0.748,1.464 -0.229,2.109c0.519,0.645 1.464,0.748 2.109,0.229l4.35,-3.5c0.645,-0.519 0.748,-1.464 0.229,-2.109c-0.519,-0.645 -1.464,-0.748 -2.109,-0.229Z"/><path d="M24.86,12.281l-4.35,3.5c-0.645,0.519 -0.748,1.464 -0.229,2.109c0.519,0.645 1.464,0.748 2.109,0.229l4.35,-3.5c0.645,-0.519 0.748,-1.464 0.229,-2.109c-0.519,-0.645 -1.464,-0.748 -2.109,-0.229Z"/></g></svg>