<?xml version="1.0" encoding="UTF-8" standalone="no"?><!DOCTYPE svg PUBLIC "-//W3C//DTD SVG 1.1//EN" "http://www.w3.org/Graphics/SVG/1.1/DTD/svg11.dtd"><svg width="100%" height="100%" viewBox="0 0 18 40" version="1.1" xmlns="http://www.w3.org/2000/svg" xmlns:xlink="http://www.w3.org/1999/xlink" xml:space="preserve" xmlns:serif="http://www.serif.com/" style="fill-rule:evenodd;clip-rule:evenodd;stroke-linejoin:round;stroke-miterlimit:2;"><g><path d="M6.7,14c0.833,-0.3 1.55,-0.45 2.15,-0.45c-0.633,-0.7 -1.367,-1.05 -2.2,-1.05c-0.733,0 -1.267,0.5 -1.6,1.5c-0.267,0.7 -0.4,1.55 -0.4,2.55c-0,0.733 0.15,1.3 0.45,1.7c0.067,0.067 0.467,0.433 1.2,1.1c-0.367,0.6 -0.667,1.35 -0.9,2.25c-0.267,0.9 -0.4,1.717 -0.4,2.45c0,1.733 0.433,3.05 1.3,3.95c0.8,0.867 1.95,1.3 3.45,1.3c0.733,-0 1.6,-0.233 2.6,-0.7c0.867,-0.367 1.667,-0.833 2.4,-1.4c-0.133,0 -0.583,0.033 -1.35,0.1c-0.8,0.033 -1.467,0.05 -2,0.05c-3.733,-0 -5.6,-1.15 -5.6,-3.45c-0,-1.133 0.283,-2.15 0.85,-3.05c0.4,-0.667 1.033,-1.383 1.9,-2.15c1.433,-1.267 2.167,-1.917 2.2,-1.95l0.1,-0.8l0,-1c-0.167,0.1 -0.717,0.55 -1.65,1.35c-0.8,0.7 -1.283,1.05 -1.45,1.05c-0.4,-0 -0.917,-0.2 -1.55,-0.6c-0.667,-0.467 -1,-0.917 -1,-1.35c0,-0.533 0.5,-1 1.5,-1.4Z" style="fill:#f00;"/><path d="M6.85,10.8l1.15,-1.3l-1.15,-1.35l-1.15,1.35l1.15,1.3Z" style="fill:#f00;"/></g></svg>