<?xml version="1.0" encoding="UTF-8" standalone="no"?><!DOCTYPE svg PUBLIC "-//W3C//DTD SVG 1.1//EN" "http://www.w3.org/Graphics/SVG/1.1/DTD/svg11.dtd"><svg width="100%" height="100%" viewBox="0 0 18 40" version="1.1" xmlns="http://www.w3.org/2000/svg" xmlns:xlink="http://www.w3.org/1999/xlink" xml:space="preserve" xmlns:serif="http://www.serif.com/" style="fill-rule:evenodd;clip-rule:evenodd;stroke-linejoin:round;stroke-miterlimit:2;"><g><path d="M13.1,13.4c-0.133,0.433 -0.267,0.867 -0.4,1.3c-0.133,0.367 -0.317,0.617 -0.55,0.75c-0.233,0.167 -0.583,0.25 -1.05,0.25c-1.467,0 -2.717,0.617 -3.75,1.85c-1.067,1.233 -1.6,2.7 -1.6,4.4c0,1.8 0.633,3.067 1.9,3.8c0.9,0.533 2.217,0.8 3.95,0.8c0.4,-0 0.933,-0.017 1.6,-0.05c0.633,-0.033 1.083,-0.05 1.35,-0.05l-0,0.3c-0.633,0.367 -1.283,0.733 -1.95,1.1c-0.667,0.333 -1.367,0.5 -2.1,0.5c-1.867,-0 -3.217,-0.4 -4.05,-1.2c-0.933,-0.867 -1.4,-2.35 -1.4,-4.45c-0,-1.433 0.283,-2.767 0.85,-4c0.467,-1.033 1.183,-2.133 2.15,-3.3c-0.4,-0.333 -0.75,-0.5 -1.05,-0.5c-0.533,0 -1.033,0.367 -1.5,1.1l0,-0.4c0,-0.767 0.283,-1.4 0.85,-1.9c0.5,-0.467 1.083,-0.7 1.75,-0.7l5,0.4Z" style="fill:#f00;"/></g></svg>