<?xml version="1.0" encoding="UTF-8" standalone="no"?><!DOCTYPE svg PUBLIC "-//W3C//DTD SVG 1.1//EN" "http://www.w3.org/Graphics/SVG/1.1/DTD/svg11.dtd"><svg width="100%" height="100%" viewBox="0 0 43 89" version="1.1" xmlns="http://www.w3.org/2000/svg" xmlns:xlink="http://www.w3.org/1999/xlink" xml:space="preserve" xmlns:serif="http://www.serif.com/" style="fill-rule:evenodd;clip-rule:evenodd;stroke-linejoin:round;stroke-miterlimit:2;"><g><path d="M14.95,40.8c-1.267,-1.467 -2.767,-2.2 -4.5,-2.2c-1.433,-0 -2.5,1.05 -3.2,3.15c-0.5,1.5 -0.75,3.3 -0.75,5.4c-0,1.6 0.283,2.8 0.85,3.6c0.133,0.167 0.95,0.967 2.45,2.4c-0.733,1.2 -1.35,2.767 -1.85,4.7c-0.5,1.933 -0.75,3.65 -0.75,5.15c0,3.733 0.85,6.55 2.55,8.45c1.633,1.833 3.967,2.75 7,2.75c1.433,-0 3.167,-0.483 5.2,-1.45c1.733,-0.8 3.35,-1.8 4.85,-3c-0.3,0 -1.217,0.067 -2.75,0.2c-1.567,0.1 -2.9,0.15 -4,0.15c-7.533,-0 -11.3,-2.467 -11.3,-7.4c0,-2.333 0.567,-4.467 1.7,-6.4c0.8,-1.4 2.1,-2.933 3.9,-4.6c2.867,-2.7 4.317,-4.067 4.35,-4.1l0.2,-1.7l-0,-2.15c-0.333,0.2 -1.417,1.15 -3.25,2.85c-1.667,1.5 -2.65,2.25 -2.95,2.25c-0.833,-0 -1.867,-0.433 -3.1,-1.3c-1.367,-0.967 -2.05,-1.9 -2.05,-2.8c-0,-1.167 1.017,-2.167 3.05,-3c1.667,-0.633 3.117,-0.95 4.35,-0.95Z" style="fill:#f00;"/><path d="M33.8,42.3c-1.067,-2.133 -2.517,-3.583 -4.35,-4.35c-0.133,0.733 -0.2,1.6 -0.2,2.6l0,3.4c1.1,-0 2.25,0.567 3.45,1.7c1.233,1.2 1.85,2.467 1.85,3.8c-0,0.533 -0.683,0.967 -2.05,1.3c-1.067,0.267 -1.983,0.4 -2.75,0.4c-1,0 -2.017,-0.35 -3.05,-1.05c-0.133,1.733 -0.2,2.7 -0.2,2.9c0,1.333 0.35,2.183 1.05,2.55c0.4,0.2 1.25,0.3 2.55,0.3c1.7,0 3,-0.633 3.9,-1.9c0.833,-1.167 1.25,-2.8 1.25,-4.9c0,-2.533 -0.483,-4.783 -1.45,-6.75Z"/><path d="M51.4,49.55c-0,1.933 0.617,2.9 1.85,2.9c0.967,-0 1.85,-0.633 2.65,-1.9c0.233,0.567 0.35,1.1 0.35,1.6c0,2.8 -1.617,5.033 -4.85,6.7c-2.5,1.267 -5.067,1.9 -7.7,1.9c1.267,0.633 2.15,1.05 2.65,1.25c0.867,0.3 1.783,0.45 2.75,0.45c2.667,-0 4.733,-1.35 6.2,-4.05c1.3,-2.367 1.95,-5.283 1.95,-8.75c0,-1.367 -0.183,-2.7 -0.55,-4c-0.5,-1.7 -1.217,-2.55 -2.15,-2.55c-0.8,-0 -1.533,0.85 -2.2,2.55c-0.633,1.5 -0.95,2.8 -0.95,3.9Zm1.4,-0.7c0.3,-0.867 0.6,-1.667 0.9,-2.4c0.9,0.533 1.35,1.183 1.35,1.95c-0,0.3 -0.133,0.55 -0.4,0.75c-0.267,0.2 -0.533,0.3 -0.8,0.3c-0.033,-0 -0.383,-0.2 -1.05,-0.6Z"/><path d="M12.7,26.55c0,-0.633 -0.167,-1.217 -0.5,-1.75c-0.333,-0.567 -0.75,-0.85 -1.25,-0.85c-0.667,-0 -1.183,0.367 -1.55,1.1c-0.3,0.633 -0.45,1.4 -0.45,2.3c0,1.433 0.517,2.15 1.55,2.15c0.6,0 1.117,-0.3 1.55,-0.9c0.433,-0.6 0.65,-1.283 0.65,-2.05Zm-2.4,-1.05c0.267,0 0.583,0.167 0.95,0.5c0.433,0.367 0.65,0.7 0.65,1c-0,0.5 -0.367,0.75 -1.1,0.75c-0.9,0 -1.35,-0.35 -1.35,-1.05c0,-0.8 0.283,-1.2 0.85,-1.2Z"/><path d="M30.71,20.981l-4.35,3.5c-0.645,0.519 -0.748,1.464 -0.229,2.109c0.519,0.645 1.464,0.748 2.109,0.229l4.35,-3.5c0.645,-0.519 0.748,-1.464 0.229,-2.109c-0.519,-0.645 -1.464,-0.748 -2.109,-0.229Z"/></g></svg>