<?xml version="1.0" encoding="UTF-8" standalone="no"?><!DOCTYPE svg PUBLIC "-//W3C//DTD SVG 1.1//EN" "http://www.w3.org/Graphics/SVG/1.1/DTD/svg11.dtd"><svg width="100%" height="100%" viewBox="0 0 162 97" version="1.1" xmlns="http://www.w3.org/2000/svg" xmlns:xlink="http://www.w3.org/1999/xlink" xml:space="preserve" xmlns:serif="http://www.serif.com/" style="fill-rule:evenodd;clip-rule:evenodd;stroke-linejoin:round;stroke-miterlimit:2;"><g><path d="M24.05,49.25c-0.867,-0.6 -1.817,-0.9 -2.85,-0.9c-1,0 -2.067,0.483 -3.2,1.45c-1.2,1.067 -1.8,2.183 -1.8,3.35c0,0.167 0.467,0.567 1.4,1.2c1.033,0.7 1.65,1.267 1.85,1.7c-1.233,1.133 -3.1,1.667 -5.6,1.6l-1.75,-0l0,4.8l3.25,-0c1.133,-0 2.2,-0.383 3.2,-1.15c0.933,-0.833 1.867,-1.65 2.8,-2.45c1.133,1.4 1.817,2.217 2.05,2.45c0.8,0.767 1.667,1.15 2.6,1.15l1.1,-0l0,-4.85l1,0c-2.257,-0.057 -3.807,-0.507 -4.65,-1.35c1.467,-1.467 2.2,-2.85 2.2,-4.15c-0,-1.2 -0.533,-2.15 -1.6,-2.85Z" style="fill:#f00;"/><path d="M28.6,62.45l0,-0.05c-0.307,0.025 -0.674,0.042 -1.1,0.05l1.1,-0Z" style="fill:#f00;"/><path d="M18.35,40.65l2.25,2.8l2.3,-2.8l-2.3,-2.85l-2.25,2.85Z" style="fill:#f00;"/><path d="M80.75,62.5c1.167,-1.167 1.75,-4.267 1.75,-9.3l-0.2,-20.35c-1.367,2.233 -2.05,3.567 -2.05,4l0.5,25.65Z"/><path d="M73.8,32.95l-0.05,-0.55c-1.167,0.967 -2.083,2.617 -2.75,4.95c0.1,0.667 0.5,1.5 1.2,2.5c0.467,3.5 0.7,8.783 0.7,15.85c-0,1.367 -1.033,2.017 -3.1,1.95l-0.75,-0.05l-0,-0.1c-1.867,-0 -3.283,-0.467 -4.25,-1.4c-0.333,-0.333 -0.867,-1.2 -1.6,-2.6c-0.5,-0.933 -1.133,-1.4 -1.9,-1.4c-0.633,0 -1.467,0.783 -2.5,2.35c-1.133,1.7 -2,2.65 -2.6,2.85c-0.467,0.133 -1.517,0.2 -3.15,0.2l-0,0.2c-0.268,0.04 -0.568,0.073 -0.9,0.1c-1.067,0.033 -1.917,-0.017 -2.55,-0.15c0.9,-1.1 1.5,-1.9 1.8,-2.4c0.633,-1.033 0.95,-2.017 0.95,-2.95c0,-0.967 -0.317,-1.883 -0.95,-2.75c-0.633,-0.867 -1.333,-1.3 -2.1,-1.3c-1.233,-0 -2.8,0.667 -4.7,2c-1.233,0.867 -2.9,2.283 -5,4.25c-2.167,2 -3.583,3.25 -4.25,3.75c-0.8,-0 -1.55,-0.333 -2.25,-1c-0.7,-0.667 -1.15,-1.467 -1.35,-2.4c-0.433,1.2 -0.883,1.983 -1.35,2.35c-0.367,0.267 -0.967,0.4 -1.8,0.4l-1.5,-0l0,4.85l0.4,-0c0.426,-0.008 0.793,-0.025 1.1,-0.05c0.631,-0.072 1.048,-0.188 1.25,-0.35c0.167,-0.133 0.683,-1.05 1.55,-2.75c1.2,2.133 3.167,3.2 5.9,3.2l17.45,-0.05l0,-0.15l1.55,-0c0.333,-0 0.667,-0.217 1,-0.65c0.233,-0.433 0.483,-0.85 0.75,-1.25c1.6,2 3.133,3 4.6,3c0.6,-0 1.017,-0.233 1.25,-0.7c0.3,-0.7 0.517,-1.117 0.65,-1.25c0.8,0.567 1.367,0.85 1.7,0.85l1.5,-0l0,0.15l2.9,-0c1.5,-0 2.583,-1 3.25,-3c0.467,-1.4 0.7,-3.183 0.7,-5.35l0,-4.45c0,-0.833 -0.05,-2.05 -0.15,-3.65c-0.133,-1.633 -0.2,-2.867 -0.2,-3.7c0,-0.4 0.167,-1.067 0.5,-2c0.367,-0.933 0.55,-1.7 0.55,-2.3c-0,-0.233 -0.3,-0.7 -0.9,-1.4c-0.6,-0.767 -0.9,-1.417 -0.9,-1.95c0,-0.167 0.05,-0.433 0.15,-0.8c0.1,-0.4 0.15,-0.7 0.15,-0.9Zm-11.3,25.3l0,0.85c-0.533,-0.267 -1.1,-0.633 -1.7,-1.1c-0.833,-0.633 -1.25,-1.15 -1.25,-1.55c-0,-0.233 0.533,-0.967 1.6,-2.2c0.367,0.567 0.667,1.283 0.9,2.15c0.3,1.167 0.45,1.783 0.45,1.85Zm-12.75,-3.6c0,1.067 -1.483,2.017 -4.45,2.85c-2.333,0.633 -4.167,0.95 -5.5,0.95l-2.2,-0c3.567,-3.967 6.333,-5.95 8.3,-5.95c0.533,-0 1.267,0.233 2.2,0.7c1.1,0.467 1.65,0.95 1.65,1.45Z"/><path d="M88.35,35.1c-0.3,0.467 -0.45,1.117 -0.45,1.95c-0,6.5 0.033,10.667 0.1,12.5c0.2,6.267 0.7,10.05 1.5,11.35c0.667,1.033 1.583,1.55 2.75,1.55l3.8,-0c0.733,-0 1.35,-0.35 1.85,-1.05c0.133,-0.2 0.5,-0.95 1.1,-2.25c0.733,1.4 1.133,2.133 1.2,2.2c0.5,0.733 1.1,1.1 1.8,1.1l3.55,-0c1,-0 2.367,-0.717 4.1,-2.15c1.433,1.433 2.583,2.15 3.45,2.15l4.05,-0c0.667,-0 1.3,-0.55 1.9,-1.65c0.867,-1.7 1.317,-2.567 1.35,-2.6c0.4,0.9 0.8,1.8 1.2,2.7c0.5,1.033 1.15,1.55 1.95,1.55l3.7,-0c1.367,-0 2.9,-0.567 4.6,-1.7c0.733,-0.5 2.033,-1.567 3.9,-3.2c1.3,-1.133 2.183,-1.7 2.65,-1.7l0.35,0.25c0,4.233 1.033,6.35 3.1,6.35l7.4,-0c1.5,-0 2.867,-0.783 4.1,-2.35c1.233,-1.6 1.85,-3.333 1.85,-5.2c0,-4.167 -0.883,-7.15 -2.65,-8.95c-0.533,-0.5 -0.9,-0.75 -1.1,-0.75c-0.833,-0 -1.583,0.817 -2.25,2.45c-0.567,1.433 -0.85,2.75 -0.85,3.95c0,0.967 0.2,1.767 0.6,2.4c0.433,0.667 1.033,1 1.8,1c0.8,0 1.667,-0.433 2.6,-1.3c0.567,1.167 0.85,1.95 0.85,2.35c0,0.367 -0.5,0.733 -1.5,1.1c-0.833,0.3 -1.483,0.45 -1.95,0.45l-6.15,0l0,0.1c-0.578,0.067 -1.094,0.1 -1.55,0.1c-2.5,0 -3.717,-0.65 -3.65,-1.95l0.05,-0.2c1.267,-0.3 2.067,-0.65 2.4,-1.05c0.133,-1.2 0.3,-2.417 0.5,-3.65c-1,0.367 -2.017,0.55 -3.05,0.55c-1.367,-0 -3.017,-0.517 -4.95,-1.55c-1.933,-1.033 -3.1,-1.55 -3.5,-1.55c-1,-0 -1.933,0.517 -2.8,1.55c-0.867,1 -1.3,2.117 -1.3,3.35l0,0.65c0.567,-0.267 1.117,-0.533 1.65,-0.8c0.767,-0.333 1.333,-0.5 1.7,-0.5c0.933,-0 2.15,0.583 3.65,1.75c-1.467,1.433 -2.933,2.367 -4.4,2.8c-0.888,0.229 -2.255,0.363 -4.1,0.4c-1.412,-0.077 -2.429,-0.643 -3.05,-1.7c-0.6,-0.967 -0.9,-2.467 -0.9,-4.5c-0,-2.367 -0.133,-5.5 -0.4,-9.4c-0.267,-4.767 -0.433,-7.9 -0.5,-9.4c-1.367,1.333 -2.05,2.767 -2.05,4.3c0,1.9 0.133,4.767 0.4,8.6c0.3,3.833 0.45,6.7 0.45,8.6c0,1.567 -0.4,2.583 -1.2,3.05c-0.448,0.268 -1.281,0.418 -2.5,0.45l-0.4,0c-0.948,0.009 -1.381,0.026 -1.3,0.05c-0.752,-0.096 -1.269,-0.313 -1.55,-0.65c1.033,-1.9 1.55,-3.917 1.55,-6.05c-0,-1.033 -0.183,-2.05 -0.55,-3.05c-0.467,-1.233 -1.067,-1.85 -1.8,-1.85c-1.1,0 -2.133,1.183 -3.1,3.55c-0.833,2.033 -1.25,3.833 -1.25,5.4c0,0.733 0.05,1.517 0.15,2.35c-1.091,0.14 -2.241,0.223 -3.45,0.25c-1.454,-0.029 -2.337,-0.129 -2.65,-0.3c-0.733,-0.467 -1.1,-1.75 -1.1,-3.85c-0.6,0.567 -1,1.3 -1.2,2.2c-0.167,0.767 -0.467,1.25 -0.9,1.45c-0.583,0.278 -1.667,0.428 -3.25,0.45c-2.164,-0.072 -3.581,-0.655 -4.25,-1.75c-0.633,-1.033 -0.95,-3.217 -0.95,-6.55l0,-15.6c-0.4,0.5 -0.783,0.983 -1.15,1.45Zm22.25,16.3c0.3,-0 0.583,0.217 0.85,0.65c0.3,0.433 0.45,0.85 0.45,1.25c0,0.433 -0.267,1 -0.8,1.7c-0.5,0.7 -0.917,1.05 -1.25,1.05c-0.233,-0 -0.55,-0.233 -0.95,-0.7c-0.4,-0.467 -0.6,-0.867 -0.6,-1.2c-0,-0.7 0.233,-1.333 0.7,-1.9c0.5,-0.567 1.033,-0.85 1.6,-0.85Zm39.4,-1.45c0.1,-0.167 0.417,-0.467 0.95,-0.9c0.533,0.5 0.983,1.133 1.35,1.9l0,0.65c-0.667,0.267 -1.117,0.4 -1.35,0.4c-0.167,-0 -0.4,-0.083 -0.7,-0.25l-0.7,-0.35c0.2,-0.767 0.35,-1.25 0.45,-1.45Z"/><path d="M6.15,47.1l0.2,3.2c-1.933,1.267 -3.317,2.433 -4.15,3.5c-1.233,1.533 -1.85,3.383 -1.85,5.55c0,0.767 0.7,1.15 2.1,1.15c1.367,0 2.333,-0.15 2.9,-0.45c0.733,-0.367 1.467,-1.2 2.2,-2.5c0.333,1.033 0.667,2.067 1,3.1c0.5,1.2 1.15,1.8 1.95,1.8l1.6,-0l0,-4.8l1.6,-0l0,-0.05c-2.1,0 -3.283,-0.067 -3.55,-0.2c-0.833,-0.467 -1.533,-2.45 -2.1,-5.95c-0.433,-2.733 -0.65,-5.05 -0.65,-6.95c-0.867,1.367 -1.283,2.233 -1.25,2.6Zm0.7,7.45c0,0.267 -0.333,0.517 -1,0.75c-0.6,0.2 -1.067,0.3 -1.4,0.3c-0.4,0 -0.917,-0.133 -1.55,-0.4c1.333,-1.067 2.533,-1.917 3.6,-2.55c0.233,1.067 0.35,1.7 0.35,1.9Z"/><path d="M101.2,45.6l-2.3,-2.85l-2.3,2.85l2.25,2.8l2.35,-2.8Z"/><path d="M37.05,43.75l2.3,2.8l2.3,-2.8l-2.3,-2.85l-2.3,2.85Z"/><path d="M112.25,43.15l2.05,-2.5l-2.05,-2.45l-2,2.5l2,2.45Z"/><path d="M106.25,40.65l2,2.5l2,-2.45l-1.95,-2.5l-2.05,2.45Z"/><path d="M129.45,39.35l2.3,2.8l2.3,-2.8l-2.3,-2.85l-2.3,2.85Z"/><path d="M5.9,39.4l2,2.5l2.05,-2.5l-2.05,-2.45l-2,2.45Z"/><path d="M1.9,39.4l2,2.5l1.95,-2.5l-1.9,-2.45l-2.05,2.45Z"/><path d="M148.95,38.7l2.3,2.8l2.3,-2.8l-2.3,-2.85l-2.3,2.85Z"/><path d="M5.9,39.45l-0,-0.05l-0.05,-0l0.05,0.05Z"/><path d="M111.2,27.85c-0.333,-0.567 -0.75,-0.85 -1.25,-0.85c-0.667,0 -1.183,0.367 -1.55,1.1c-0.3,0.633 -0.45,1.4 -0.45,2.3c0,1.433 0.517,2.15 1.55,2.15c0.6,0 1.117,-0.3 1.55,-0.9c0.433,-0.6 0.65,-1.283 0.65,-2.05c0,-0.633 -0.167,-1.217 -0.5,-1.75Zm-0.3,2.2c-0,0.5 -0.367,0.75 -1.1,0.75c-0.9,0 -1.35,-0.35 -1.35,-1.05c0,-0.8 0.283,-1.2 0.85,-1.2c0.267,0 0.583,0.167 0.95,0.5c0.433,0.367 0.65,0.7 0.65,1Z"/><path d="M40.35,28.05c0,-0.633 -0.167,-1.217 -0.5,-1.75c-0.333,-0.567 -0.75,-0.85 -1.25,-0.85c-0.667,-0 -1.183,0.367 -1.55,1.1c-0.3,0.633 -0.45,1.4 -0.45,2.3c0,1.433 0.517,2.15 1.55,2.15c0.6,0 1.117,-0.3 1.55,-0.9c0.433,-0.6 0.65,-1.283 0.65,-2.05Zm-1.45,-0.55c0.433,0.367 0.65,0.7 0.65,1c-0,0.5 -0.367,0.75 -1.1,0.75c-0.9,0 -1.35,-0.35 -1.35,-1.05c0,-0.8 0.283,-1.2 0.85,-1.2c0.267,0 0.583,0.167 0.95,0.5Z"/><path d="M57.45,32.85c0.4,0.133 0.717,0.2 0.95,0.2c0.967,0 2.1,-0.817 3.4,-2.45c0.533,0.4 1,0.7 1.4,0.9l0.1,-1.7c-0.267,-0.233 -0.483,-0.4 -0.65,-0.5c0.367,-0.867 0.55,-1.533 0.55,-2c0,-1 -0.383,-1.5 -1.15,-1.5c-0.567,0 -1.05,0.35 -1.45,1.05c-0.367,0.6 -0.55,1.2 -0.55,1.8c-0,0.467 0.35,0.967 1.05,1.5c-1.3,1.2 -2.517,2.1 -3.65,2.7Zm3.45,-5.3c0.067,-0.167 0.167,-0.267 0.3,-0.3c0.6,0.1 0.9,0.45 0.9,1.05c0,0.133 -0.017,0.3 -0.05,0.5c-0.767,-0.433 -1.15,-0.85 -1.15,-1.25Z"/><path d="M74.25,25.5c-0.333,-0.567 -0.75,-0.85 -1.25,-0.85c-0.667,-0 -1.183,0.367 -1.55,1.1c-0.3,0.633 -0.45,1.4 -0.45,2.3c0,1.433 0.517,2.15 1.55,2.15c0.6,-0 1.117,-0.3 1.55,-0.9c0.433,-0.6 0.65,-1.283 0.65,-2.05c0,-0.633 -0.167,-1.217 -0.5,-1.75Zm-0.95,1.2c0.433,0.367 0.65,0.7 0.65,1c0,0.5 -0.367,0.75 -1.1,0.75c-0.9,-0 -1.35,-0.35 -1.35,-1.05c-0,-0.8 0.283,-1.2 0.85,-1.2c0.267,-0 0.583,0.167 0.95,0.5Z"/><path d="M6.466,26.326l-4.4,3.5c-0.648,0.515 -0.755,1.46 -0.24,2.108c0.515,0.648 1.46,0.755 2.108,0.24l4.4,-3.5c0.648,-0.515 0.755,-1.46 0.24,-2.108c-0.515,-0.648 -1.46,-0.755 -2.108,-0.24Z"/><path d="M21.516,26.326l-4.4,3.5c-0.648,0.515 -0.755,1.46 -0.24,2.108c0.515,0.648 1.46,0.755 2.108,0.24l4.4,-3.5c0.648,-0.515 0.755,-1.46 0.24,-2.108c-0.515,-0.648 -1.46,-0.755 -2.108,-0.24Z"/><path d="M95.666,26.326l-4.4,3.5c-0.648,0.515 -0.755,1.46 -0.24,2.108c0.515,0.648 1.46,0.755 2.108,0.24l4.4,-3.5c0.648,-0.515 0.755,-1.46 0.24,-2.108c-0.515,-0.648 -1.46,-0.755 -2.108,-0.24Z"/><path d="M151.96,25.981l-4.35,3.5c-0.645,0.519 -0.748,1.464 -0.229,2.109c0.519,0.645 1.464,0.748 2.109,0.229l4.35,-3.5c0.645,-0.519 0.748,-1.464 0.229,-2.109c-0.519,-0.645 -1.464,-0.748 -2.109,-0.229Z"/><path d="M131.966,25.976l-4.4,3.5c-0.648,0.515 -0.755,1.46 -0.24,2.108c0.515,0.648 1.46,0.755 2.108,0.24l4.4,-3.5c0.648,-0.515 0.755,-1.46 0.24,-2.108c-0.515,-0.648 -1.46,-0.755 -2.108,-0.24Z"/><path d="M120.66,25.181l-4.35,3.5c-0.645,0.519 -0.748,1.464 -0.229,2.109c0.519,0.645 1.464,0.748 2.109,0.229l4.35,-3.5c0.645,-0.519 0.748,-1.464 0.229,-2.109c-0.519,-0.645 -1.464,-0.748 -2.109,-0.229Z"/></g></svg>