<?xml version="1.0" encoding="UTF-8" standalone="no"?><!DOCTYPE svg PUBLIC "-//W3C//DTD SVG 1.1//EN" "http://www.w3.org/Graphics/SVG/1.1/DTD/svg11.dtd"><svg width="100%" height="100%" viewBox="0 0 31 89" version="1.1" xmlns="http://www.w3.org/2000/svg" xmlns:xlink="http://www.w3.org/1999/xlink" xml:space="preserve" xmlns:serif="http://www.serif.com/" style="fill-rule:evenodd;clip-rule:evenodd;stroke-linejoin:round;stroke-miterlimit:2;"><g><path d="M16.85,42.4c1.133,-0.567 2.033,-0.85 2.7,-0.85c1.033,0 2.183,0.283 3.45,0.85c-0.867,-2.667 -2.417,-4 -4.65,-4c-1.433,0 -2.633,0.85 -3.6,2.55c-0.933,1.567 -1.4,3.267 -1.4,5.1c0,1.467 0.233,2.767 0.7,3.9l-5.3,-0l0,4.85l3.75,0c1.333,0 3.267,-0.35 5.8,-1.05c2.767,-0.767 4.55,-1.55 5.35,-2.35c0.567,-2.033 0.967,-3.383 1.2,-4.05l-6,1.7l-0.25,0c-0.7,0 -1.483,-0.567 -2.35,-1.7c-0.9,-1.167 -1.35,-2.167 -1.35,-3c-0,-0.7 0.65,-1.35 1.95,-1.95Z" style="fill:#f00;"/><path d="M17.25,35.8l2.3,-2.8l-2.3,-2.85l-2.25,2.85l2.25,2.8Z" style="fill:#f00;"/><path d="M2.8,29.4c-0,6.5 0.033,10.667 0.1,12.5c0.2,6.267 0.7,10.05 1.5,11.35c0.667,1.033 1.583,1.55 2.75,1.55l1.6,0l0,-4.85l1.1,-0c-2.304,-0.06 -3.804,-0.66 -4.5,-1.8c-0.633,-1.033 -0.95,-3.217 -0.95,-6.55l-0,-15.6c-0.4,0.5 -0.783,0.983 -1.15,1.45c-0.3,0.467 -0.45,1.117 -0.45,1.95Z"/><path d="M8.181,24.175c-0.345,-0.062 -0.67,-0.245 -0.905,-0.541c-0.515,-0.648 -0.408,-1.593 0.24,-2.108l4.4,-3.5c0.648,-0.515 1.593,-0.408 2.108,0.24c0.515,0.648 0.408,1.593 -0.24,2.108l-0.117,0.093c0.368,0.053 0.716,0.242 0.963,0.557c0.511,0.652 0.397,1.596 -0.254,2.106l-4.4,3.45c-0.652,0.511 -1.596,0.397 -2.106,-0.254c-0.511,-0.652 -0.397,-1.596 0.254,-2.106l0.057,-0.045Z"/></g></svg>