<?xml version="1.0" encoding="UTF-8" standalone="no"?><!DOCTYPE svg PUBLIC "-//W3C//DTD SVG 1.1//EN" "http://www.w3.org/Graphics/SVG/1.1/DTD/svg11.dtd"><svg width="100%" height="100%" viewBox="0 0 30 89" version="1.1" xmlns="http://www.w3.org/2000/svg" xmlns:xlink="http://www.w3.org/1999/xlink" xml:space="preserve" xmlns:serif="http://www.serif.com/" style="fill-rule:evenodd;clip-rule:evenodd;stroke-linejoin:round;stroke-miterlimit:2;"><g><path d="M21.35,43.15c0.3,-0.9 0.583,-1.8 0.85,-2.7c-1.133,-0 -2.817,-0.15 -5.05,-0.45c-2.267,-0.267 -3.933,-0.4 -5,-0.4c-1.333,0 -2.517,0.483 -3.55,1.45c-1.133,1.067 -1.7,2.433 -1.7,4.1l0,0.8c0.933,-1.533 1.933,-2.3 3,-2.3c0.633,0 1.35,0.35 2.15,1.05c-1.967,2.433 -3.417,4.733 -4.35,6.9c-1.1,2.633 -1.65,5.467 -1.65,8.5c-0,4.533 0.917,7.717 2.75,9.55c1.667,1.667 4.383,2.5 8.15,2.5c1.5,0 2.917,-0.367 4.25,-1.1c1.3,-0.767 2.6,-1.533 3.9,-2.3l-0,-0.65c-0.5,0 -1.417,0.033 -2.75,0.1c-1.333,0.067 -2.383,0.1 -3.15,0.1c-3.5,0 -6.167,-0.567 -8,-1.7c-2.5,-1.5 -3.75,-4.183 -3.75,-8.05c0,-3.6 1.05,-6.7 3.15,-9.3c2.133,-2.633 4.65,-3.95 7.55,-3.95c1,0 1.733,-0.167 2.2,-0.5c0.4,-0.3 0.733,-0.85 1,-1.65Z" style="fill:#f00;"/><path d="M15.91,19.831l-4.35,3.5c-0.645,0.519 -0.748,1.464 -0.229,2.109c0.519,0.645 1.464,0.748 2.109,0.229l4.35,-3.5c0.645,-0.519 0.748,-1.464 0.229,-2.109c-0.519,-0.645 -1.464,-0.748 -2.109,-0.229Z"/></g></svg>