<?xml version="1.0" encoding="UTF-8" standalone="no"?><!DOCTYPE svg PUBLIC "-//W3C//DTD SVG 1.1//EN" "http://www.w3.org/Graphics/SVG/1.1/DTD/svg11.dtd"><svg width="100%" height="100%" viewBox="0 0 34 89" version="1.1" xmlns="http://www.w3.org/2000/svg" xmlns:xlink="http://www.w3.org/1999/xlink" xml:space="preserve" xmlns:serif="http://www.serif.com/" style="fill-rule:evenodd;clip-rule:evenodd;stroke-linejoin:round;stroke-miterlimit:2;"><g><path d="M25.45,49.95c0.6,-0.2 1.317,-0.317 2.15,-0.35c0.7,-0.033 1.417,-0.05 2.15,-0.05c0.467,-1.433 0.833,-2.967 1.1,-4.6c-1.8,-0 -3.483,-0.383 -5.05,-1.15c-0.7,-0.367 -1.8,-1.083 -3.3,-2.15c-1.067,-0.767 -1.883,-1.15 -2.45,-1.15c-1.067,-0 -1.933,0.667 -2.6,2c-0.4,0.8 -0.8,2.05 -1.2,3.75c0.433,-0.267 0.867,-0.55 1.3,-0.85c0.533,-0.3 0.983,-0.45 1.35,-0.45c0.567,-0 1.35,0.333 2.35,1c0.067,-0 0.817,0.533 2.25,1.6c-1.033,1 -1.917,1.683 -2.65,2.05c-0.667,0.3 -1.483,0.45 -2.45,0.45c-0.233,0 -0.75,-0.017 -1.55,-0.05c-0.172,-0.007 -0.338,-0.024 -0.5,-0.05l-1.5,-0l-0,4.85l2.8,0c1.067,0 2.1,-0.35 3.1,-1.05c0.367,-0.267 1.15,-0.983 2.35,-2.15c0.9,-0.867 1.683,-1.417 2.35,-1.65Z" style="fill:#f00;"/><path d="M-8.8,41.65c-1.067,-0.767 -1.883,-1.15 -2.45,-1.15c-1.067,0 -1.933,0.667 -2.6,2c-0.4,0.8 -0.8,2.05 -1.2,3.75c0.433,-0.267 0.867,-0.55 1.3,-0.85c0.533,-0.3 0.983,-0.45 1.35,-0.45c0.567,-0 1.35,0.333 2.35,1c0.067,-0 0.817,0.533 2.25,1.6c-1.033,1 -1.917,1.683 -2.65,2.05c-0.667,0.3 -1.483,0.45 -2.45,0.45c-0.233,0 -0.75,-0.017 -1.55,-0.05c-0.172,-0.007 -0.338,-0.024 -0.5,-0.05l-1.5,-0l-0,4.85l2.8,0c1.067,0 2.1,-0.35 3.1,-1.05c0.367,-0.267 1.15,-0.983 2.35,-2.15c0.9,-0.867 1.683,-1.417 2.35,-1.65c0.6,-0.2 1.317,-0.317 2.15,-0.35c0.7,-0.033 1.417,-0.05 2.15,-0.05c0.467,-1.433 0.833,-2.967 1.1,-4.6c-1.8,-0 -3.483,-0.383 -5.05,-1.15c-0.7,-0.367 -1.8,-1.083 -3.3,-2.15Z" style="fill:#f00;"/><path d="M8.9,29.4c0,6.5 0.033,10.667 0.1,12.5c0.2,6.267 0.7,10.05 1.5,11.35c0.667,1.033 1.583,1.55 2.75,1.55l1.6,0l-0,-4.85l1.5,-0c-2.533,-0 -4.167,-0.6 -4.9,-1.8c-0.633,-1.033 -0.95,-3.217 -0.95,-6.55l-0,-15.6c-0.4,0.5 -0.783,0.983 -1.15,1.45c-0.3,0.467 -0.45,1.117 -0.45,1.95Z"/><path d="M18.91,19.831l-4.35,3.5c-0.645,0.519 -0.748,1.464 -0.229,2.109c0.519,0.645 1.464,0.748 2.109,0.229l4.35,-3.5c0.645,-0.519 0.748,-1.464 0.229,-2.109c-0.519,-0.645 -1.464,-0.748 -2.109,-0.229Z"/></g></svg>