<?xml version="1.0" encoding="UTF-8" standalone="no"?><!DOCTYPE svg PUBLIC "-//W3C//DTD SVG 1.1//EN" "http://www.w3.org/Graphics/SVG/1.1/DTD/svg11.dtd"><svg width="100%" height="100%" viewBox="0 0 85 86" version="1.1" xmlns="http://www.w3.org/2000/svg" xmlns:xlink="http://www.w3.org/1999/xlink" xml:space="preserve" xmlns:serif="http://www.serif.com/" style="fill-rule:evenodd;clip-rule:evenodd;stroke-linejoin:round;stroke-miterlimit:2;"><g><path d="M81.95,47.9c0.467,-1.433 0.833,-2.967 1.1,-4.6c-1.8,0 -3.483,-0.383 -5.05,-1.15c-0.7,-0.367 -1.8,-1.083 -3.3,-2.15c-1.067,-0.767 -1.883,-1.15 -2.45,-1.15c-1.067,0 -1.933,0.667 -2.6,2c-0.4,0.8 -0.8,2.05 -1.2,3.75c0.433,-0.267 0.867,-0.55 1.3,-0.85c0.533,-0.3 0.983,-0.45 1.35,-0.45c0.567,0 1.35,0.333 2.35,1c0.067,0 0.817,0.533 2.25,1.6c-1.033,1 -1.917,1.683 -2.65,2.05c-0.667,0.3 -1.483,0.45 -2.45,0.45c-0.233,-0 -0.75,-0.017 -1.55,-0.05c-0.207,-0.009 -0.407,-0.026 -0.6,-0.05l0,4.85l1.4,-0c1.067,-0 2.1,-0.35 3.1,-1.05c0.367,-0.267 1.15,-0.983 2.35,-2.15c0.9,-0.867 1.683,-1.417 2.35,-1.65c0.6,-0.2 1.317,-0.317 2.15,-0.35c0.7,-0.033 1.417,-0.05 2.15,-0.05Z" style="fill:#f00;"/><path d="M11.55,23.55c-1.367,2.233 -2.05,3.567 -2.05,4l0.5,25.65c1.167,-1.167 1.75,-4.267 1.75,-9.3l-0.2,-20.35Z"/><path d="M61,27.75c0,6.5 0.033,10.667 0.1,12.5c0.2,6.267 0.7,10.05 1.5,11.35c0.667,1.033 1.583,1.55 2.75,1.55l3.1,-0l0,-4.85c-2.533,0 -4.167,-0.6 -4.9,-1.8c-0.633,-1.033 -0.95,-3.217 -0.95,-6.55l-0,-15.6c-0.4,0.5 -0.783,0.983 -1.15,1.45c-0.3,0.467 -0.45,1.117 -0.45,1.95Z"/><path d="M52.25,35.9c-0.833,-0 -1.583,0.817 -2.25,2.45c-0.567,1.433 -0.85,2.75 -0.85,3.95c0,0.967 0.2,1.767 0.6,2.4c0.433,0.667 1.033,1 1.8,1c0.8,-0 1.667,-0.433 2.6,-1.3c0.567,1.167 0.85,1.95 0.85,2.35c0,0.367 -0.5,0.733 -1.5,1.1c-0.833,0.3 -1.483,0.45 -1.95,0.45l-6.15,0l0,0.3c-0.255,0.055 -0.539,0.122 -0.85,0.2c-1.033,0.267 -1.733,0.383 -2.1,0.35l-0.55,-0.05c1.8,-2.333 2.7,-4.3 2.7,-5.9c-0,-1.1 -0.4,-2.067 -1.2,-2.9c-0.767,-0.833 -1.617,-1.25 -2.55,-1.25c-1.033,-0 -2.483,0.733 -4.35,2.2c-1.367,1.1 -2.717,2.217 -4.05,3.35l-0.15,-13.6c0.433,-0.367 0.817,-1 1.15,-1.9c0.067,-0.267 0.25,-1.05 0.55,-2.35c-1.267,-0.733 -1.9,-1.683 -1.9,-2.85c0,-0.5 0.067,-1.117 0.2,-1.85c-0.433,0.433 -0.933,1.217 -1.5,2.35c-0.633,1.233 -0.95,2.117 -0.95,2.65c0,0.3 0.183,0.733 0.55,1.3c0.333,0.567 0.5,0.95 0.5,1.15l-0,15.95c-1.067,1.267 -1.85,2.217 -2.35,2.85l-1.6,-0l0,0.2c-0.423,0.013 -0.856,-0.004 -1.3,-0.05c-0.367,-0.967 -0.733,-1.917 -1.1,-2.85c-0.533,-1.233 -1.1,-1.85 -1.7,-1.85c-0.7,-0 -1.433,0.917 -2.2,2.75c-0.7,1.667 -1.05,3.033 -1.05,4.1c0,1.3 0.517,2.117 1.55,2.45c0.9,0.167 1.817,0.333 2.75,0.5c-1.1,2.033 -2.233,3.517 -3.4,4.45c-1.333,1.067 -2.917,1.6 -4.75,1.6c-0.967,-0 -2.383,-0.083 -4.25,-0.25c1.733,2.1 3.75,3.15 6.05,3.15c1.967,-0 3.65,-1 5.05,-3c1,-1.433 1.95,-3.55 2.85,-6.35l24.6,-0c1.5,-0 2.867,-0.783 4.1,-2.35c1.233,-1.6 1.85,-3.333 1.85,-5.2c-0,-4.167 -0.883,-7.15 -2.65,-8.95c-0.533,-0.5 -0.9,-0.75 -1.1,-0.75Zm-29.1,12.45c0.133,0.233 0.267,0.767 0.4,1.6c-0.567,-0 -1.25,-0.067 -2.05,-0.2c-0,-0.4 -0.067,-0.65 -0.2,-0.75c0.233,-0.6 0.467,-1.133 0.7,-1.6c0.6,0.367 0.983,0.683 1.15,0.95Zm9.2,0.75c-0.5,0 -0.983,-0.083 -1.45,-0.25c2.9,-3.533 5.35,-5.3 7.35,-5.3c0.633,-0 1.317,0.183 2.05,0.55c0.933,0.4 1.4,0.917 1.4,1.55c0,0.967 -1.383,1.817 -4.15,2.55c-2.2,0.6 -3.933,0.9 -5.2,0.9Zm20.75,-7.45l-0,0.65c-0.667,0.267 -1.117,0.4 -1.35,0.4c-0.167,-0 -0.4,-0.083 -0.7,-0.25l-0.7,-0.35c0.2,-0.767 0.35,-1.25 0.45,-1.45c0.1,-0.167 0.417,-0.467 0.95,-0.9c0.533,0.5 0.983,1.133 1.35,1.9Z"/><path d="M38.35,34.6l2.3,-2.8l-2.3,-2.85l-2.3,2.85l2.3,2.8Z"/><path d="M49.75,29.4l2.3,2.8l2.3,-2.8l-2.3,-2.85l-2.3,2.85Z"/><path d="M33,18.4l0.1,-1.7c-0.267,-0.233 -0.483,-0.4 -0.65,-0.5c0.367,-0.867 0.55,-1.533 0.55,-2c0,-1 -0.383,-1.5 -1.15,-1.5c-0.567,-0 -1.05,0.35 -1.45,1.05c-0.367,0.6 -0.55,1.2 -0.55,1.8c0,0.467 0.35,0.967 1.05,1.5c-1.3,1.2 -2.517,2.1 -3.65,2.7c0.4,0.133 0.717,0.2 0.95,0.2c0.967,-0 2.1,-0.817 3.4,-2.45c0.533,0.4 1,0.7 1.4,0.9Zm-1.1,-3.2c-0,0.133 -0.017,0.3 -0.05,0.5c-0.767,-0.433 -1.15,-0.85 -1.15,-1.25c0.067,-0.167 0.167,-0.267 0.3,-0.3c0.6,0.1 0.9,0.45 0.9,1.05Z"/><path d="M52.916,57.476l-4.4,3.5c-0.648,0.515 -0.755,1.46 -0.24,2.108c0.515,0.648 1.46,0.755 2.108,0.24l4.4,-3.5c0.648,-0.515 0.755,-1.46 0.24,-2.108c-0.515,-0.648 -1.46,-0.755 -2.108,-0.24Z"/><path d="M68.86,16.731l-4.35,3.5c-0.645,0.519 -0.748,1.464 -0.229,2.109c0.519,0.645 1.464,0.748 2.109,0.229l4.35,-3.5c0.645,-0.519 0.748,-1.464 0.229,-2.109c-0.519,-0.645 -1.464,-0.748 -2.109,-0.229Z"/></g></svg>