<?xml version="1.0" encoding="UTF-8" standalone="no"?><!DOCTYPE svg PUBLIC "-//W3C//DTD SVG 1.1//EN" "http://www.w3.org/Graphics/SVG/1.1/DTD/svg11.dtd"><svg width="100%" height="100%" viewBox="0 0 159 97" version="1.1" xmlns="http://www.w3.org/2000/svg" xmlns:xlink="http://www.w3.org/1999/xlink" xml:space="preserve" xmlns:serif="http://www.serif.com/" style="fill-rule:evenodd;clip-rule:evenodd;stroke-linejoin:round;stroke-miterlimit:2;"><g><path d="M108.6,50c-1.367,0 -3.017,-0.517 -4.95,-1.55c-1.933,-1.033 -3.1,-1.55 -3.5,-1.55c-1,-0 -1.933,0.517 -2.8,1.55c-0.867,1 -1.3,2.117 -1.3,3.35l-0,0.65c0.567,-0.267 1.117,-0.533 1.65,-0.8c0.767,-0.333 1.333,-0.5 1.7,-0.5c0.933,-0 2.15,0.583 3.65,1.75c-1.467,1.433 -2.933,2.367 -4.4,2.8c-1.033,0.267 -2.7,0.4 -5,0.4l-0,0.1c0.767,-0.067 1.333,-0.1 1.7,-0.1l0,4.85l1.2,-0c1.367,-0 2.9,-0.567 4.6,-1.7c0.733,-0.5 2.033,-1.567 3.9,-3.2c1.3,-1.133 2.183,-1.7 2.65,-1.7l0.35,0.25c-0,4.233 1.033,6.35 3.1,6.35l2.65,-0l-0,-4.75c-0.537,0.067 -1.021,0.1 -1.45,0.1c-2.5,0 -3.717,-0.65 -3.65,-1.95l0.05,-0.2c1.267,-0.3 2.067,-0.65 2.4,-1.05c0.133,-1.2 0.3,-2.417 0.5,-3.65c-1,0.367 -2.017,0.55 -3.05,0.55Z" style="fill:#f00;"/><path d="M144.95,46.65c-1.067,-0 -1.933,0.667 -2.6,2c-0.4,0.8 -0.8,2.05 -1.2,3.75c0.433,-0.267 0.867,-0.55 1.3,-0.85c0.533,-0.3 0.983,-0.45 1.35,-0.45c0.567,0 1.35,0.333 2.35,1c0.067,0 0.817,0.533 2.25,1.6c-1.033,1 -1.917,1.683 -2.65,2.05c-0.667,0.3 -1.483,0.45 -2.45,0.45c-0.233,-0 -0.75,-0.017 -1.55,-0.05c-0.102,-0.004 -0.202,-0.004 -0.3,-0c-0.148,-0.008 -0.298,-0.024 -0.45,-0.05l-1.25,0l-0,4.85l2.8,-0c1.067,-0 2.1,-0.35 3.1,-1.05c0.367,-0.267 1.15,-0.983 2.35,-2.15c0.9,-0.867 1.683,-1.417 2.35,-1.65c0.6,-0.2 1.317,-0.317 2.15,-0.35c0.7,-0.033 1.417,-0.05 2.15,-0.05c0.467,-1.433 0.833,-2.967 1.1,-4.6c-1.8,0 -3.483,-0.383 -5.05,-1.15c-0.7,-0.367 -1.8,-1.083 -3.3,-2.15c-1.067,-0.767 -1.883,-1.15 -2.45,-1.15Z" style="fill:#f00;"/><path d="M39.15,50c-1.367,0 -3.017,-0.517 -4.95,-1.55c-1.933,-1.033 -3.1,-1.55 -3.5,-1.55c-1,-0 -1.933,0.517 -2.8,1.55c-0.867,1 -1.3,2.117 -1.3,3.35l0,0.65c0.567,-0.267 1.117,-0.533 1.65,-0.8c0.767,-0.333 1.333,-0.5 1.7,-0.5c0.933,-0 2.15,0.583 3.65,1.75c-1.467,1.433 -2.933,2.367 -4.4,2.8c-0.85,0.219 -2.134,0.353 -3.85,0.4l-1.15,0l0,4.85l2.9,-0c1.367,-0 2.9,-0.567 4.6,-1.7c0.733,-0.5 2.033,-1.567 3.9,-3.2c1.3,-1.133 2.183,-1.7 2.65,-1.7l0.35,0.25c0,4.233 1.033,6.35 3.1,6.35l2.75,-0l0,-4.75c-0.578,0.067 -1.094,0.1 -1.55,0.1c-2.5,0 -3.717,-0.65 -3.65,-1.95l0.05,-0.2c1.267,-0.3 2.067,-0.65 2.4,-1.05c0.133,-1.2 0.3,-2.417 0.5,-3.65c-1,0.367 -2.017,0.55 -3.05,0.55Z" style="fill:#f00;"/><path d="M115.3,60.9c-0.307,0.025 -0.674,0.042 -1.1,0.05l1.1,-0l-0,-0.05Z" style="fill:#f00;"/><path d="M93.65,60.95l0.9,-0c-0.279,-0.008 -0.579,-0.025 -0.9,-0.05l-0,0.05Z" style="fill:#f00;"/><path d="M59,31.35c-1.367,2.233 -2.05,3.567 -2.05,4l0.5,25.65c1.167,-1.167 1.75,-4.267 1.75,-9.3l-0.2,-20.35Z"/><path d="M47.7,35.85c0.1,0.667 0.5,1.5 1.2,2.5c0.467,3.5 0.7,8.783 0.7,15.85c0,1.367 -1.033,2.017 -3.1,1.95l-0.65,-0.05l-1.4,0l0,4.85l2.9,-0c1.5,-0 2.583,-1 3.25,-3c0.467,-1.4 0.7,-3.183 0.7,-5.35l-0,-4.45c-0,-0.833 -0.05,-2.05 -0.15,-3.65c-0.133,-1.633 -0.2,-2.867 -0.2,-3.7c0,-0.4 0.167,-1.067 0.5,-2c0.367,-0.933 0.55,-1.7 0.55,-2.3c-0,-0.233 -0.3,-0.7 -0.9,-1.4c-0.6,-0.767 -0.9,-1.417 -0.9,-1.95c0,-0.167 0.05,-0.433 0.15,-0.8c0.1,-0.4 0.15,-0.7 0.15,-0.9l-0.05,-0.55c-1.167,0.967 -2.083,2.617 -2.75,4.95Z"/><path d="M22.85,56.1c0,-1.133 -0.217,-2.167 -0.65,-3.1c-0.5,-1.1 -1.183,-1.65 -2.05,-1.65c-0.833,0 -1.583,0.767 -2.25,2.3c-0.6,1.367 -0.9,2.617 -0.9,3.75c-0,2.367 1.2,3.55 3.6,3.55l1.7,-0l-0,1.45c-0.867,1.533 -2.133,2.683 -3.8,3.45c-1.467,0.7 -3.033,1.05 -4.7,1.05c-3.833,-0 -5.75,-1.95 -5.75,-5.85c-0,-1.3 0.3,-3.117 0.9,-5.45c-0.8,0.433 -1.417,1.633 -1.85,3.6c-0.3,1.433 -0.45,2.9 -0.45,4.4c-0,2.533 0.583,4.5 1.75,5.9c1.167,1.367 2.767,2.05 4.8,2.05c2.367,0 4.617,-1.017 6.75,-3.05c2.267,-2.167 3.4,-4.683 3.4,-7.55l0.85,0l0,-4.85l-1.35,0Zm-1.9,0.15l0,0.65c-0.267,-0 -0.517,0.017 -0.75,0.05c-0.416,0.089 -0.6,0.139 -0.55,0.15c-0.202,-0.022 -0.636,-0.239 -1.3,-0.65l0,-0.65c0.633,-1 1,-1.5 1.1,-1.5c0.3,0 0.567,0.2 0.8,0.6c0.467,0.633 0.7,1.083 0.7,1.35Z"/><path d="M119.8,55.75c-0.7,-0.667 -1.15,-1.467 -1.35,-2.4c-0.433,1.2 -0.883,1.983 -1.35,2.35c-0.367,0.267 -0.967,0.4 -1.8,0.4l-1.5,0l-0,4.85l0.4,-0c0.426,-0.008 0.793,-0.025 1.1,-0.05c0.631,-0.072 1.048,-0.188 1.25,-0.35c0.167,-0.133 0.683,-1.05 1.55,-2.75c1.2,2.133 3.167,3.2 5.9,3.2l15.75,-0.05l0,-4.75c-0.268,0.04 -0.568,0.073 -0.9,0.1c-1.067,0.033 -1.917,-0.017 -2.55,-0.15c0.9,-1.1 1.5,-1.9 1.8,-2.4c0.633,-1.033 0.95,-2.017 0.95,-2.95c-0,-0.967 -0.317,-1.883 -0.95,-2.75c-0.633,-0.867 -1.333,-1.3 -2.1,-1.3c-1.233,-0 -2.8,0.667 -4.7,2c-1.233,0.867 -2.9,2.283 -5,4.25c-2.167,2 -3.583,3.25 -4.25,3.75c-0.8,-0 -1.55,-0.333 -2.25,-1Zm12.2,0.25c-2.333,0.633 -4.167,0.95 -5.5,0.95l-2.2,-0c3.567,-3.967 6.333,-5.95 8.3,-5.95c0.533,-0 1.267,0.233 2.2,0.7c1.1,0.467 1.65,0.95 1.65,1.45c0,1.067 -1.483,2.017 -4.45,2.85Z"/><path d="M141,56.1c0.152,0.026 0.302,0.042 0.45,0.05l0,-0.05l-0.45,0Z"/><path d="M79.6,53.6c-1.6,1.767 -2.55,2.65 -2.85,2.65c-0.9,0 -1.617,-0.317 -2.15,-0.95c-0.367,-0.4 -0.8,-1.2 -1.3,-2.4c-0.6,1.567 -0.95,2.717 -1.05,3.45c0.667,1.967 1.067,3.15 1.2,3.55c0.367,1.3 0.55,2.533 0.55,3.7c-0,1.133 -0.85,2.083 -2.55,2.85c-1.333,0.6 -2.567,0.9 -3.7,0.9c-3.933,0 -5.9,-1.883 -5.9,-5.65c0,-0.6 0.3,-2.333 0.9,-5.2c-0.667,0.8 -1.217,2.05 -1.65,3.75c-0.4,1.533 -0.6,2.95 -0.6,4.25c-0,5.067 1.95,7.6 5.85,7.6c2.6,0 4.683,-1.067 6.25,-3.2c1.467,-1.967 2.333,-4.6 2.6,-7.9c0.767,0 1.867,-0.1 3.3,-0.3c1.467,-0.233 2.55,-0.35 3.25,-0.35c1.5,0 3.767,0.1 6.8,0.3c2.039,0.136 3.739,0.219 5.1,0.25c0.321,0.025 0.621,0.042 0.9,0.05l0.8,0l0,-4.85c-0.367,0 -0.933,0.033 -1.7,0.1c-0.8,0.1 -1.417,0.15 -1.85,0.15c-0.633,0 -1.183,-0.083 -1.65,-0.25c1.833,-2.267 2.75,-4.367 2.75,-6.3c-0,-1.167 -0.317,-2.1 -0.95,-2.8c-0.6,-0.633 -1.367,-0.95 -2.3,-0.95c-1.4,0 -3.133,0.883 -5.2,2.65c-1.133,0.967 -2.75,2.6 -4.85,4.9Zm9.05,-2.6c1.133,0.567 1.7,1.117 1.7,1.65c0,0.867 -1.067,1.683 -3.2,2.45c-1.8,0.633 -3.217,0.95 -4.25,0.95l-3.9,0c0.833,-1.033 2,-2.2 3.5,-3.5c1.8,-1.5 3.083,-2.25 3.85,-2.25c0.567,0 1.333,0.233 2.3,0.7Z"/><path d="M22.9,43.1l-2.05,-2.45l-2,2.5l-1.95,-2.5l-2.05,2.45l2,2.5l2.05,-2.45l1.95,2.45l2.05,-2.5Z"/><path d="M19.7,34.3c0,-0.4 -0.05,-0.85 -0.15,-1.35l-0.25,0.15c-0,1.367 -0.25,2.05 -0.75,2.05c-0.267,-0 -0.483,-0.45 -0.65,-1.35l-0.2,0.1c-0.1,0.667 -0.2,1.117 -0.3,1.35c-0.167,0.567 -0.4,0.85 -0.7,0.85c-0.3,0 -0.45,-0.5 -0.45,-1.5l-0.25,0.05c-0.167,0.733 -0.25,1.183 -0.25,1.35c-0,0.433 0.067,0.783 0.2,1.05c0.167,0.333 0.4,0.5 0.7,0.5c0.267,0 0.517,-0.117 0.75,-0.35c0.233,-0.233 0.367,-0.517 0.4,-0.85c0.233,0.2 0.483,0.3 0.75,0.3c0.767,-0 1.15,-0.783 1.15,-2.35Z"/><path d="M123.65,26.75c-0.667,0 -1.183,0.367 -1.55,1.1c-0.3,0.633 -0.45,1.4 -0.45,2.3c-0,1.433 0.517,2.15 1.55,2.15c0.6,0 1.117,-0.3 1.55,-0.9c0.433,-0.6 0.65,-1.283 0.65,-2.05c-0,-0.633 -0.167,-1.217 -0.5,-1.75c-0.333,-0.567 -0.75,-0.85 -1.25,-0.85Zm-0.65,1.55c0.267,0 0.583,0.167 0.95,0.5c0.433,0.367 0.65,0.7 0.65,1c0,0.5 -0.367,0.75 -1.1,0.75c-0.9,0 -1.35,-0.35 -1.35,-1.05c-0,-0.8 0.283,-1.2 0.85,-1.2Z"/><path d="M17.55,24.75c-0.567,0 -1.05,0.35 -1.45,1.05c-0.367,0.6 -0.55,1.2 -0.55,1.8c-0,0.467 0.35,0.967 1.05,1.5c-1.3,1.2 -2.517,2.1 -3.65,2.7c0.4,0.133 0.717,0.2 0.95,0.2c0.967,0 2.1,-0.817 3.4,-2.45c0.533,0.4 1,0.7 1.4,0.9l0.1,-1.7c-0.267,-0.233 -0.483,-0.4 -0.65,-0.5c0.367,-0.867 0.55,-1.533 0.55,-2c0,-1 -0.383,-1.5 -1.15,-1.5Zm-0.85,1.45c0.6,0.1 0.9,0.45 0.9,1.05c0,0.133 -0.017,0.3 -0.05,0.5c-0.767,-0.433 -1.15,-0.85 -1.15,-1.25c0.067,-0.167 0.167,-0.267 0.3,-0.3Z"/><path d="M49.15,22.85c-0.667,0 -1.183,0.367 -1.55,1.1c-0.3,0.633 -0.45,1.4 -0.45,2.3c-0,1.433 0.517,2.15 1.55,2.15c0.6,-0 1.117,-0.3 1.55,-0.9c0.433,-0.6 0.65,-1.283 0.65,-2.05c-0,-0.633 -0.167,-1.217 -0.5,-1.75c-0.333,-0.567 -0.75,-0.85 -1.25,-0.85Zm0.3,2.05c0.433,0.367 0.65,0.7 0.65,1c0,0.5 -0.367,0.75 -1.1,0.75c-0.9,-0 -1.35,-0.35 -1.35,-1.05c-0,-0.8 0.283,-1.2 0.85,-1.2c0.267,-0 0.583,0.167 0.95,0.5Z"/><path d="M146.16,27.631l-4.35,3.5c-0.645,0.519 -0.748,1.464 -0.229,2.109c0.519,0.645 1.464,0.748 2.109,0.229l4.35,-3.5c0.645,-0.519 0.748,-1.464 0.229,-2.109c-0.519,-0.645 -1.464,-0.748 -2.109,-0.229Z"/><path d="M33.918,27.375l-4.35,3.45c-0.649,0.514 -0.758,1.458 -0.243,2.107c0.514,0.649 1.458,0.758 2.107,0.243l4.35,-3.45c0.649,-0.514 0.758,-1.458 0.243,-2.107c-0.514,-0.649 -1.458,-0.758 -2.107,-0.243Z"/><path d="M80.374,27.37l-4.4,3.45c-0.651,0.51 -0.765,1.454 -0.254,2.106c0.51,0.651 1.454,0.765 2.106,0.254l4.4,-3.45c0.651,-0.51 0.765,-1.454 0.254,-2.106c-0.51,-0.651 -1.454,-0.765 -2.106,-0.254Z"/><path d="M102.76,26.631l-4.35,3.5c-0.645,0.519 -0.748,1.464 -0.229,2.109c0.519,0.645 1.464,0.748 2.109,0.229l4.35,-3.5c0.645,-0.519 0.748,-1.464 0.229,-2.109c-0.519,-0.645 -1.464,-0.748 -2.109,-0.229Z"/></g></svg>