<?xml version="1.0" encoding="UTF-8" standalone="no"?><!DOCTYPE svg PUBLIC "-//W3C//DTD SVG 1.1//EN" "http://www.w3.org/Graphics/SVG/1.1/DTD/svg11.dtd"><svg width="100%" height="100%" viewBox="0 0 87 86" version="1.1" xmlns="http://www.w3.org/2000/svg" xmlns:xlink="http://www.w3.org/1999/xlink" xml:space="preserve" xmlns:serif="http://www.serif.com/" style="fill-rule:evenodd;clip-rule:evenodd;stroke-linejoin:round;stroke-miterlimit:2;"><g><path d="M75.85,49.8c0.567,-2.033 0.967,-3.383 1.2,-4.05l-6,1.7l-0.25,-0c-0.7,-0 -1.483,-0.567 -2.35,-1.7c-0.9,-1.167 -1.35,-2.167 -1.35,-3c-0,-0.7 0.65,-1.35 1.95,-1.95c1.133,-0.567 2.033,-0.85 2.7,-0.85c1.033,-0 2.183,0.283 3.45,0.85c-0.867,-2.667 -2.417,-4 -4.65,-4c-1.433,0 -2.633,0.85 -3.6,2.55c-0.933,1.567 -1.4,3.267 -1.4,5.1c-0,1.467 0.233,2.767 0.7,3.9l-3.8,0l0,4.85l2.25,-0c1.333,-0 3.267,-0.35 5.8,-1.05c2.767,-0.767 4.55,-1.55 5.35,-2.35Z" style="fill:#f00;"/><path d="M60.95,48.65c0.729,-0.175 1.229,-0.275 1.5,-0.3l-1.5,0l0,0.3Z" style="fill:#f00;"/><path d="M47.65,23.95c0,-0.5 0.067,-1.117 0.2,-1.85c-0.433,0.433 -0.933,1.217 -1.5,2.35c-0.633,1.233 -0.95,2.117 -0.95,2.65c0,0.3 0.183,0.733 0.55,1.3c0.333,0.567 0.5,0.95 0.5,1.15l0,15.95c-1.067,1.267 -1.85,2.217 -2.35,2.85l-0.5,0c-2.304,-0.06 -3.804,-0.66 -4.5,-1.8c-0.633,-1.033 -0.95,-3.217 -0.95,-6.55l0,-15.6c-0.4,0.5 -0.783,0.983 -1.15,1.45c-0.3,0.467 -0.45,1.117 -0.45,1.95c-0,6.5 0.033,10.667 0.1,12.5c0.2,6.267 0.7,10.05 1.5,11.35c0.667,1.033 1.583,1.55 2.75,1.55l21.55,-0l0,-4.85c-0.271,0.025 -0.771,0.125 -1.5,0.3c-0.255,0.055 -0.539,0.122 -0.85,0.2c-1.033,0.267 -1.733,0.383 -2.1,0.35l-0.55,-0.05c1.8,-2.333 2.7,-4.3 2.7,-5.9c0,-1.1 -0.4,-2.067 -1.2,-2.9c-0.767,-0.833 -1.617,-1.25 -2.55,-1.25c-1.033,0 -2.483,0.733 -4.35,2.2c-1.367,1.1 -2.717,2.217 -4.05,3.35l-0.15,-13.6c0.433,-0.367 0.817,-1 1.15,-1.9c0.067,-0.267 0.25,-1.05 0.55,-2.35c-1.267,-0.733 -1.9,-1.683 -1.9,-2.85Zm9.6,21.75c0,0.967 -1.383,1.817 -4.15,2.55c-2.2,0.6 -3.933,0.9 -5.2,0.9c-0.5,-0 -0.983,-0.083 -1.45,-0.25c2.9,-3.533 5.35,-5.3 7.35,-5.3c0.633,0 1.317,0.183 2.05,0.55c0.933,0.4 1.4,0.917 1.4,1.55Z"/><path d="M12.45,27.8c0,6.5 0.033,10.667 0.1,12.5c0.2,6.267 0.7,10.05 1.5,11.35c0.667,1.033 1.583,1.55 2.75,1.55l3.1,-0l0,-0.15l1.6,0c0.7,0 1.317,-0.433 1.85,-1.3c0.4,-0.867 0.817,-1.7 1.25,-2.5c1.133,0.933 1.767,1.433 1.9,1.5c0.767,0.533 1.467,0.8 2.1,0.8c1,0 1.767,-0.583 2.3,-1.75c0.4,-0.933 0.6,-2.083 0.6,-3.45c-0,-1.067 -0.317,-2.45 -0.95,-4.15c-0.733,-1.867 -1.467,-2.8 -2.2,-2.8c-0.667,-0 -1.4,0.65 -2.2,1.95c-0.7,1.267 -1.383,2.55 -2.05,3.85c-0.833,1.5 -1.583,2.417 -2.25,2.75c-0.4,0.2 -1.55,0.3 -3.45,0.3c-1.69,-0.19 -2.823,-0.756 -3.4,-1.7c-0.633,-1.033 -0.95,-3.217 -0.95,-6.55l-0,-15.6c-0.4,0.5 -0.783,0.983 -1.15,1.45c-0.3,0.467 -0.45,1.117 -0.45,1.95Zm13.4,17.8c0.667,-1.567 1.167,-2.35 1.5,-2.35c0.567,0 1.05,0.433 1.45,1.3c0.133,0.267 0.367,0.833 0.7,1.7l-0,1.1l-0.7,0.2c-0.4,0 -1.383,-0.65 -2.95,-1.95Z"/><path d="M51.6,31.85l2.3,2.8l2.3,-2.8l-2.3,-2.85l-2.3,2.85Z"/><path d="M72.06,58.231l-4.35,3.5c-0.645,0.519 -0.748,1.464 -0.229,2.109c0.519,0.645 1.464,0.748 2.109,0.229l4.35,-3.5c0.645,-0.519 0.748,-1.464 0.229,-2.109c-0.519,-0.645 -1.464,-0.748 -2.109,-0.229Z"/><path d="M17.881,22.475c-0.343,-0.062 -0.665,-0.243 -0.9,-0.535c-0.519,-0.645 -0.416,-1.59 0.229,-2.109l4.35,-3.5c0.645,-0.519 1.59,-0.416 2.109,0.229c0.519,0.645 0.416,1.59 -0.229,2.109l-0.061,0.049c0.36,0.055 0.701,0.241 0.945,0.548c0.515,0.648 0.408,1.593 -0.24,2.108l-4.4,3.5c-0.648,0.515 -1.593,0.408 -2.108,-0.24c-0.515,-0.648 -0.408,-1.593 0.24,-2.108l0.065,-0.051Z"/><path d="M44.668,15.175l-4.35,3.45c-0.649,0.514 -0.758,1.458 -0.243,2.107c0.514,0.649 1.458,0.758 2.107,0.243l4.35,-3.45c0.649,-0.514 0.758,-1.458 0.243,-2.107c-0.514,-0.649 -1.458,-0.758 -2.107,-0.243Z"/></g></svg>