<?xml version="1.0" encoding="UTF-8" standalone="no"?><!DOCTYPE svg PUBLIC "-//W3C//DTD SVG 1.1//EN" "http://www.w3.org/Graphics/SVG/1.1/DTD/svg11.dtd"><svg width="100%" height="100%" viewBox="0 0 91 89" version="1.1" xmlns="http://www.w3.org/2000/svg" xmlns:xlink="http://www.w3.org/1999/xlink" xml:space="preserve" xmlns:serif="http://www.serif.com/" style="fill-rule:evenodd;clip-rule:evenodd;stroke-linejoin:round;stroke-miterlimit:2;"><g><path d="M41.35,42.35c-0.933,1.567 -1.4,3.267 -1.4,5.1c0,1.467 0.233,2.767 0.7,3.9l-3.85,0l-0,4.85l2.3,-0c1.333,-0 3.267,-0.35 5.8,-1.05c2.767,-0.767 4.55,-1.55 5.35,-2.35c0.567,-2.033 0.967,-3.383 1.2,-4.05l-6,1.7l-0.25,-0c-0.7,-0 -1.483,-0.567 -2.35,-1.7c-0.9,-1.167 -1.35,-2.167 -1.35,-3c0,-0.7 0.65,-1.35 1.95,-1.95c1.133,-0.567 2.033,-0.85 2.7,-0.85c1.033,-0 2.183,0.283 3.45,0.85c-0.867,-2.667 -2.417,-4 -4.65,-4c-1.433,0 -2.633,0.85 -3.6,2.55Z" style="fill:#f00;"/><path d="M43.85,37.2l2.3,-2.8l-2.3,-2.85l-2.25,2.85l2.25,2.8Z" style="fill:#f00;"/><path d="M5.65,61.45c0,2.533 0.917,4.417 2.75,5.65c1.433,1 3.267,1.5 5.5,1.5c5,0 8.683,-1.883 11.05,-5.65c0.767,-1.167 1.15,-2.05 1.15,-2.65c-0,-1.033 -0.833,-1.767 -2.5,-2.2c-1.167,-0.233 -2.317,-0.45 -3.45,-0.65c0.389,-0.747 2.439,-1.164 6.15,-1.25l1.9,-0c0.733,-0 1.35,-0.35 1.85,-1.05c0.133,-0.2 0.5,-0.95 1.1,-2.25c0.733,1.4 1.133,2.133 1.2,2.2c0.5,0.733 1.1,1.1 1.8,1.1l2.65,-0l-0,-4.85l-1.1,0c-1.307,-0.04 -2.107,-0.14 -2.4,-0.3c-0.733,-0.467 -1.1,-1.75 -1.1,-3.85c-0.6,0.567 -1,1.3 -1.2,2.2c-0.167,0.767 -0.467,1.25 -0.9,1.45c-0.596,0.284 -1.713,0.451 -3.35,0.5l-1.85,0c-1.7,0 -3.217,0.617 -4.55,1.85c-1.433,1.367 -2.15,3.067 -2.15,5.1c0,0.933 0.383,1.617 1.15,2.05c0.433,0.267 1.233,0.5 2.4,0.7c1.067,0.2 1.767,0.417 2.1,0.65c-0.333,0.833 -1.7,1.583 -4.1,2.25c-2,0.533 -3.6,0.8 -4.8,0.8c-2.067,-0 -3.633,-0.25 -4.7,-0.75c-1.7,-0.8 -2.55,-2.25 -2.55,-4.35c0,-0.9 0.267,-2.05 0.8,-3.45c0.633,-1.7 1,-2.833 1.1,-3.4c-0.9,0.733 -1.767,2.017 -2.6,3.85c-0.9,1.9 -1.35,3.5 -1.35,4.8Z"/><path d="M56.5,30.6l0.5,25.65c1.167,-1.167 1.75,-4.267 1.75,-9.3l-0.2,-20.35c-1.367,2.233 -2.05,3.567 -2.05,4Z"/><path d="M75.8,48.2c-0.833,1.5 -1.583,2.417 -2.25,2.75c-0.4,0.2 -1.55,0.3 -3.45,0.3c-1.69,-0.19 -2.823,-0.756 -3.4,-1.7c-0.633,-1.033 -0.95,-3.217 -0.95,-6.55l0,-15.6c-0.4,0.5 -0.783,0.983 -1.15,1.45c-0.3,0.467 -0.45,1.117 -0.45,1.95c0,6.5 0.033,10.667 0.1,12.5c0.2,6.267 0.7,10.05 1.5,11.35c0.667,1.033 1.583,1.55 2.75,1.55l3.1,-0l-0,-0.15l1.6,0c0.7,0 1.317,-0.433 1.85,-1.3c0.4,-0.867 0.817,-1.7 1.25,-2.5c1.133,0.933 1.767,1.433 1.9,1.5c0.767,0.533 1.467,0.8 2.1,0.8c1,0 1.767,-0.583 2.3,-1.75c0.4,-0.933 0.6,-2.083 0.6,-3.45c0,-1.067 -0.317,-2.45 -0.95,-4.15c-0.733,-1.867 -1.467,-2.8 -2.2,-2.8c-0.667,-0 -1.4,0.65 -2.2,1.95c-0.7,1.267 -1.383,2.55 -2.05,3.85Zm1.75,0.4c0.667,-1.567 1.167,-2.35 1.5,-2.35c0.567,0 1.05,0.433 1.45,1.3c0.133,0.267 0.367,0.833 0.7,1.7l0,1.1l-0.7,0.2c-0.4,0 -1.383,-0.65 -2.95,-1.95Z"/><path d="M33.35,39.35l-2.3,-2.85l-2.3,2.85l2.25,2.8l2.35,-2.8Z"/><path d="M43.7,21.15c-0.667,0 -1.183,0.367 -1.55,1.1c-0.3,0.633 -0.45,1.4 -0.45,2.3c0,1.433 0.517,2.15 1.55,2.15c0.6,-0 1.117,-0.3 1.55,-0.9c0.433,-0.6 0.65,-1.283 0.65,-2.05c0,-0.633 -0.167,-1.217 -0.5,-1.75c-0.333,-0.567 -0.75,-0.85 -1.25,-0.85Zm0.95,3.05c0,0.5 -0.367,0.75 -1.1,0.75c-0.9,-0 -1.35,-0.35 -1.35,-1.05c0,-0.8 0.283,-1.2 0.85,-1.2c0.267,-0 0.583,0.167 0.95,0.5c0.433,0.367 0.65,0.7 0.65,1Z"/><path d="M64.75,18.15c0.4,-0.733 0.7,-1.2 0.9,-1.4c1,0.533 1.6,0.833 1.8,0.9c0.533,0.2 1.183,0.3 1.95,0.3c0.9,-0 1.983,-0.417 3.25,-1.25c1.4,-0.967 2.1,-1.933 2.1,-2.9c-1.433,0.933 -2.2,1.417 -2.3,1.45c-0.933,0.5 -1.767,0.75 -2.5,0.75c-1.467,0 -2.833,-0.567 -4.1,-1.7c-1.033,1.933 -1.75,3.65 -2.15,5.15c0.333,-0.267 0.683,-0.7 1.05,-1.3Z"/><path d="M31.61,25.931l-4.35,3.5c-0.645,0.519 -0.748,1.464 -0.229,2.109c0.519,0.645 1.464,0.748 2.109,0.229l4.35,-3.5c0.645,-0.519 0.748,-1.464 0.229,-2.109c-0.519,-0.645 -1.464,-0.748 -2.109,-0.229Z"/><path d="M72.91,19.731l-4.35,3.5c-0.645,0.519 -0.748,1.464 -0.229,2.109c0.519,0.645 1.464,0.748 2.109,0.229l4.35,-3.5c0.645,-0.519 0.748,-1.464 0.229,-2.109c-0.519,-0.645 -1.464,-0.748 -2.109,-0.229Z"/><path d="M58.51,18.181l-4.35,3.5c-0.645,0.519 -0.748,1.464 -0.229,2.109c0.519,0.645 1.464,0.748 2.109,0.229l4.35,-3.5c0.645,-0.519 0.748,-1.464 0.229,-2.109c-0.519,-0.645 -1.464,-0.748 -2.109,-0.229Z"/></g></svg>