<?xml version="1.0" encoding="UTF-8" standalone="no"?><!DOCTYPE svg PUBLIC "-//W3C//DTD SVG 1.1//EN" "http://www.w3.org/Graphics/SVG/1.1/DTD/svg11.dtd"><svg width="100%" height="100%" viewBox="0 0 61 89" version="1.1" xmlns="http://www.w3.org/2000/svg" xmlns:xlink="http://www.w3.org/1999/xlink" xml:space="preserve" xmlns:serif="http://www.serif.com/" style="fill-rule:evenodd;clip-rule:evenodd;stroke-linejoin:round;stroke-miterlimit:2;"><g><path d="M33.75,26.95c-0.4,0.5 -0.783,0.983 -1.15,1.45c-0.3,0.467 -0.45,1.117 -0.45,1.95c-0,6.5 0.033,10.667 0.1,12.5c0.2,6.267 0.7,10.05 1.5,11.35c0.667,1.033 1.583,1.55 2.75,1.55l3.1,0l0,-0.15l1.6,0c0.7,0 1.317,-0.433 1.85,-1.3c0.4,-0.867 0.817,-1.7 1.25,-2.5c1.133,0.933 1.767,1.433 1.9,1.5c0.767,0.533 1.467,0.8 2.1,0.8c1,0 1.767,-0.583 2.3,-1.75c0.4,-0.933 0.6,-2.083 0.6,-3.45c0,-1.067 -0.317,-2.45 -0.95,-4.15c-0.733,-1.867 -1.467,-2.8 -2.2,-2.8c-0.667,-0 -1.4,0.65 -2.2,1.95c-0.7,1.267 -1.383,2.55 -2.05,3.85c-0.833,1.5 -1.583,2.417 -2.25,2.75c-0.4,0.2 -1.55,0.3 -3.45,0.3c-1.69,-0.19 -2.823,-0.756 -3.4,-1.7c-0.633,-1.033 -0.95,-3.217 -0.95,-6.55l0,-15.6Zm13.3,18.85c0.567,0 1.05,0.433 1.45,1.3c0.133,0.267 0.367,0.833 0.7,1.7l0,1.1l-0.7,0.2c-0.4,0 -1.383,-0.65 -2.95,-1.95c0.667,-1.567 1.167,-2.35 1.5,-2.35Z"/><path d="M25.75,26.25l-0.05,-0.55c-1.167,0.967 -2.083,2.617 -2.75,4.95c0.1,0.667 0.5,1.5 1.2,2.5c0.467,3.5 0.7,8.783 0.7,15.85c0,1.367 -1.033,2.017 -3.1,1.95l-0.4,-0l0,-0.05c-2.1,-0 -3.283,-0.067 -3.55,-0.2c-0.833,-0.467 -1.533,-2.45 -2.1,-5.95c-0.433,-2.733 -0.65,-5.05 -0.65,-6.95c-0.867,1.367 -1.283,2.233 -1.25,2.6l0.2,3.2c-1.933,1.267 -3.317,2.433 -4.15,3.5c-1.233,1.533 -1.85,3.383 -1.85,5.55c0,0.767 0.7,1.15 2.1,1.15c1.367,0 2.333,-0.15 2.9,-0.45c0.733,-0.367 1.467,-1.2 2.2,-2.5c0.333,1.033 0.667,2.067 1,3.1c0.5,1.2 1.15,1.8 1.95,1.8l4.45,0c1.5,0 2.583,-1 3.25,-3c0.467,-1.4 0.7,-3.183 0.7,-5.35l-0,-4.45c-0,-0.833 -0.05,-2.05 -0.15,-3.65c-0.133,-1.633 -0.2,-2.867 -0.2,-3.7c0,-0.4 0.167,-1.067 0.5,-2c0.367,-0.933 0.55,-1.7 0.55,-2.3c0,-0.233 -0.3,-0.7 -0.9,-1.4c-0.6,-0.767 -0.9,-1.417 -0.9,-1.95c0,-0.167 0.05,-0.433 0.15,-0.8c0.1,-0.4 0.15,-0.7 0.15,-0.9Zm-11.6,19.7c0.233,1.067 0.35,1.7 0.35,1.9c0,0.267 -0.333,0.517 -1,0.75c-0.6,0.2 -1.067,0.3 -1.4,0.3c-0.4,-0 -0.917,-0.133 -1.55,-0.4c1.333,-1.067 2.533,-1.917 3.6,-2.55Z"/><path d="M12.65,23c-0.567,0 -1.05,0.35 -1.45,1.05c-0.367,0.6 -0.55,1.2 -0.55,1.8c-0,0.467 0.35,0.967 1.05,1.5c-1.3,1.2 -2.517,2.1 -3.65,2.7c0.4,0.133 0.717,0.2 0.95,0.2c0.967,0 2.1,-0.817 3.4,-2.45c0.533,0.4 1,0.7 1.4,0.9l0.1,-1.7c-0.267,-0.233 -0.483,-0.4 -0.65,-0.5c0.367,-0.867 0.55,-1.533 0.55,-2c-0,-1 -0.383,-1.5 -1.15,-1.5Zm-1.15,1.75c0.067,-0.167 0.167,-0.267 0.3,-0.3c0.6,0.1 0.9,0.45 0.9,1.05c0,0.133 -0.017,0.3 -0.05,0.5c-0.767,-0.433 -1.15,-0.85 -1.15,-1.25Z"/><path d="M23.15,18.85c-0,0.467 0.35,0.967 1.05,1.5c-1.3,1.2 -2.517,2.1 -3.65,2.7c0.4,0.133 0.717,0.2 0.95,0.2c0.967,0 2.1,-0.817 3.4,-2.45c0.533,0.4 1,0.7 1.4,0.9l0.1,-1.7c-0.267,-0.233 -0.483,-0.4 -0.65,-0.5c0.367,-0.867 0.55,-1.533 0.55,-2c-0,-1 -0.383,-1.5 -1.15,-1.5c-0.567,0 -1.05,0.35 -1.45,1.05c-0.367,0.6 -0.55,1.2 -0.55,1.8Zm1.15,-1.4c0.6,0.1 0.9,0.45 0.9,1.05c0,0.133 -0.017,0.3 -0.05,0.5c-0.767,-0.433 -1.15,-0.85 -1.15,-1.25c0.067,-0.167 0.167,-0.267 0.3,-0.3Z"/><path d="M40.966,20.426l-4.4,3.5c-0.648,0.515 -0.755,1.46 -0.24,2.108c0.515,0.648 1.46,0.755 2.108,0.24l4.4,-3.5c0.648,-0.515 0.755,-1.46 0.24,-2.108c-0.515,-0.648 -1.46,-0.755 -2.108,-0.24Z"/></g></svg>