<?xml version="1.0" encoding="UTF-8" standalone="no"?><!DOCTYPE svg PUBLIC "-//W3C//DTD SVG 1.1//EN" "http://www.w3.org/Graphics/SVG/1.1/DTD/svg11.dtd"><svg width="100%" height="100%" viewBox="0 0 69 87" version="1.1" xmlns="http://www.w3.org/2000/svg" xmlns:xlink="http://www.w3.org/1999/xlink" xml:space="preserve" xmlns:serif="http://www.serif.com/" style="fill-rule:evenodd;clip-rule:evenodd;stroke-linejoin:round;stroke-miterlimit:2;"><g><path d="M47.6,49.75c-1.367,0 -3.017,-0.517 -4.95,-1.55c-1.933,-1.033 -3.1,-1.55 -3.5,-1.55c-1,-0 -1.933,0.517 -2.8,1.55c-0.867,1 -1.3,2.117 -1.3,3.35l-0,0.65c0.567,-0.267 1.117,-0.533 1.65,-0.8c0.767,-0.333 1.333,-0.5 1.7,-0.5c0.933,-0 2.15,0.583 3.65,1.75c-1.467,1.433 -2.933,2.367 -4.4,2.8c-0.836,0.216 -2.086,0.332 -3.75,0.35l-0,4.75l-1.25,-0l-0,0.15l2.9,0c1.367,0 2.9,-0.567 4.6,-1.7c0.733,-0.5 2.033,-1.567 3.9,-3.2c1.3,-1.133 2.183,-1.7 2.65,-1.7l0.35,0.25c-0,4.233 1.033,6.35 3.1,6.35l4.15,0l-0,-0.15l-1.4,-0l-0,-4.6c-0.578,0.067 -1.094,0.1 -1.55,0.1c-2.5,-0 -3.717,-0.65 -3.65,-1.95l0.05,-0.2c1.267,-0.3 2.067,-0.65 2.4,-1.05c0.133,-1.2 0.3,-2.417 0.5,-3.65c-1,0.367 -2.017,0.55 -3.05,0.55Z" style="fill:#f00;"/><path d="M26.15,50.35c-0.633,0 -1.467,0.783 -2.5,2.35c-1.133,1.7 -2,2.65 -2.6,2.85c-0.467,0.133 -1.517,0.2 -3.15,0.2l-0,0.1c-0.339,-0.004 -0.589,-0.054 -0.75,-0.15c-0.6,-0.333 -1.333,-2.75 -2.2,-7.25c-0.433,-2.233 -0.9,-5.033 -1.4,-8.4c-0.6,2.667 -0.883,4.083 -0.85,4.25l1.35,9.25c-0.533,0.833 -1.45,1.533 -2.75,2.1c-1.133,0.533 -2.217,0.8 -3.25,0.8c-1.033,0 -2,-0.567 -2.9,-1.7l-0,4.9c-0,0.967 0.867,1.45 2.6,1.45c1.933,0 3.3,-0.4 4.1,-1.2c0.4,-0.367 1.267,-1.733 2.6,-4.1c0.267,1 0.533,2.017 0.8,3.05c0.433,1.233 1.017,1.85 1.75,1.85l2.3,0l-0,-0.15l1.85,-0c0.333,-0 0.667,-0.217 1,-0.65c0.233,-0.433 0.483,-0.85 0.75,-1.25c1.6,2 3.133,3 4.6,3c0.6,-0 1.017,-0.233 1.25,-0.7c0.3,-0.7 0.517,-1.117 0.65,-1.25c0.8,0.567 1.367,0.85 1.7,0.85l2.8,-0l-0,-4.8c-1.867,-0 -3.283,-0.467 -4.25,-1.4c-0.333,-0.333 -0.867,-1.2 -1.6,-2.6c-0.5,-0.933 -1.133,-1.4 -1.9,-1.4Zm1.2,7c-0.533,-0.267 -1.1,-0.633 -1.7,-1.1c-0.833,-0.633 -1.25,-1.15 -1.25,-1.55c-0,-0.233 0.533,-0.967 1.6,-2.2c0.367,0.567 0.667,1.283 0.9,2.15c0.3,1.167 0.45,1.783 0.45,1.85l0,0.85Z"/><path d="M62.85,46.9c-0.667,-0 -1.4,0.65 -2.2,1.95c-0.7,1.267 -1.383,2.55 -2.05,3.85c-0.833,1.5 -1.583,2.417 -2.25,2.75c-0.4,0.2 -1.55,0.3 -3.45,0.3l-0,4.8l3.1,-0c0.7,-0 1.317,-0.433 1.85,-1.3c0.4,-0.867 0.817,-1.7 1.25,-2.5c1.133,0.933 1.767,1.433 1.9,1.5c0.767,0.533 1.467,0.8 2.1,0.8c1,-0 1.767,-0.583 2.3,-1.75c0.4,-0.933 0.6,-2.083 0.6,-3.45c0,-1.067 -0.317,-2.45 -0.95,-4.15c-0.733,-1.867 -1.467,-2.8 -2.2,-2.8Zm-1,3.85c0.567,0 1.05,0.433 1.45,1.3c0.133,0.267 0.367,0.833 0.7,1.7l0,1.1l-0.7,0.2c-0.4,-0 -1.383,-0.65 -2.95,-1.95c0.667,-1.567 1.167,-2.35 1.5,-2.35Z"/><path d="M27.35,34.6l-0.25,0.15c0,1.367 -0.25,2.05 -0.75,2.05c-0.267,-0 -0.483,-0.45 -0.65,-1.35l-0.2,0.1c-0.1,0.667 -0.2,1.117 -0.3,1.35c-0.167,0.567 -0.4,0.85 -0.7,0.85c-0.3,0 -0.45,-0.5 -0.45,-1.5l-0.25,0.05c-0.167,0.733 -0.25,1.183 -0.25,1.35c-0,0.433 0.067,0.783 0.2,1.05c0.167,0.333 0.4,0.5 0.7,0.5c0.267,0 0.517,-0.117 0.75,-0.35c0.233,-0.233 0.367,-0.517 0.4,-0.85c0.233,0.2 0.483,0.3 0.75,0.3c0.767,-0 1.15,-0.783 1.15,-2.35c0,-0.4 -0.05,-0.85 -0.15,-1.35Z"/><path d="M62.15,26.35c-0,-1 -0.383,-1.5 -1.15,-1.5c-0.567,0 -1.05,0.35 -1.45,1.05c-0.367,0.6 -0.55,1.2 -0.55,1.8c0,0.467 0.35,0.967 1.05,1.5c-1.3,1.2 -2.517,2.1 -3.65,2.7c0.4,0.133 0.717,0.2 0.95,0.2c0.967,0 2.1,-0.817 3.4,-2.45c0.533,0.4 1,0.7 1.4,0.9l0.1,-1.7c-0.267,-0.233 -0.483,-0.4 -0.65,-0.5c0.367,-0.867 0.55,-1.533 0.55,-2Zm-2,-0.05c0.6,0.1 0.9,0.45 0.9,1.05c-0,0.133 -0.017,0.3 -0.05,0.5c-0.767,-0.433 -1.15,-0.85 -1.15,-1.25c0.067,-0.167 0.167,-0.267 0.3,-0.3Z"/><path d="M8.331,73.425c-0.343,-0.062 -0.665,-0.243 -0.9,-0.535c-0.519,-0.645 -0.416,-1.59 0.229,-2.109l4.35,-3.5c0.645,-0.519 1.59,-0.416 2.109,0.229c0.519,0.645 0.416,1.59 -0.229,2.109l-0.061,0.049c0.36,0.055 0.701,0.241 0.945,0.548c0.515,0.648 0.408,1.593 -0.24,2.108l-4.4,3.5c-0.648,0.515 -1.593,0.408 -2.108,-0.24c-0.515,-0.648 -0.408,-1.593 0.24,-2.108l0.065,-0.051Z"/><path d="M26.41,23.831l-4.35,3.5c-0.645,0.519 -0.748,1.464 -0.229,2.109c0.519,0.645 1.464,0.748 2.109,0.229l4.35,-3.5c0.645,-0.519 0.748,-1.464 0.229,-2.109c-0.519,-0.645 -1.464,-0.748 -2.109,-0.229Z"/><path d="M41.466,23.826l-4.4,3.5c-0.648,0.515 -0.755,1.46 -0.24,2.108c0.515,0.648 1.46,0.755 2.108,0.24l4.4,-3.5c0.648,-0.515 0.755,-1.46 0.24,-2.108c-0.515,-0.648 -1.46,-0.755 -2.108,-0.24Z"/></g></svg>