<?xml version="1.0" encoding="UTF-8" standalone="no"?><!DOCTYPE svg PUBLIC "-//W3C//DTD SVG 1.1//EN" "http://www.w3.org/Graphics/SVG/1.1/DTD/svg11.dtd"><svg width="100%" height="100%" viewBox="0 0 50 87" version="1.1" xmlns="http://www.w3.org/2000/svg" xmlns:xlink="http://www.w3.org/1999/xlink" xml:space="preserve" xmlns:serif="http://www.serif.com/" style="fill-rule:evenodd;clip-rule:evenodd;stroke-linejoin:round;stroke-miterlimit:2;"><g><path d="M39.4,48.85c-1.2,0.867 -2.867,2.283 -5,4.25c-2.133,2 -3.567,3.267 -4.3,3.8c-0.767,-0 -1.5,-0.35 -2.2,-1.05c-0.667,-0.633 -1.117,-1.433 -1.35,-2.4c-0.367,0.933 -0.683,1.55 -0.95,1.85c-0.4,0.467 -0.933,0.683 -1.6,0.65l-0.35,-0.05l-0,-0.05c-2.2,0 -3.7,-0.633 -4.5,-1.9c-0.733,-1.2 -1.317,-4.75 -1.75,-10.65c-0.2,-3.867 -0.4,-7.733 -0.6,-11.6c-0.267,0.267 -0.683,0.917 -1.25,1.95c-0.567,1.1 -0.85,1.783 -0.85,2.05l1.6,27.2c0.033,0.967 -0.767,1.8 -2.4,2.5c-1.333,0.567 -2.467,0.85 -3.4,0.85c-1.4,0 -2.55,-0.333 -3.45,-1c-1.067,-0.767 -1.6,-1.967 -1.6,-3.6c0,-2 0.167,-3.883 0.5,-5.65c-0.6,0.533 -1.133,1.75 -1.6,3.65c-0.433,1.667 -0.65,3.083 -0.65,4.25c0,2.633 0.333,4.567 1,5.8c0.8,1.5 2.217,2.25 4.25,2.25c3.067,0 5.317,-1.35 6.75,-4.05c0.9,-1.7 1.717,-4.75 2.45,-9.15c0.4,0.433 0.783,0.867 1.15,1.3c0.5,0.433 0.983,0.65 1.45,0.65l2.9,0l-0,-0.1c0.45,-0.033 0.75,-0.1 0.9,-0.2c0.267,-0.167 0.8,-0.983 1.6,-2.45c0.933,1.4 1.933,2.3 3,2.7c0.767,0.3 2.017,0.45 3.75,0.45c2.933,0 5.867,-0.783 8.8,-2.35c3.633,-2 5.45,-4.617 5.45,-7.85c-0,-1 -0.3,-1.917 -0.9,-2.75c-0.6,-0.867 -1.3,-1.3 -2.1,-1.3c-1.267,0 -2.85,0.667 -4.75,2Zm3.6,2.95c1.067,0.5 1.6,0.983 1.6,1.45c0,0.8 -1.117,1.617 -3.35,2.45c-1.967,0.8 -3.433,1.2 -4.4,1.2l-4.45,-0c3.833,-3.867 6.633,-5.8 8.4,-5.8c0.533,0 1.267,0.233 2.2,0.7Z"/><path d="M14.3,26.85c-0.3,0 -0.45,-0.5 -0.45,-1.5l-0.25,0.05c-0.167,0.733 -0.25,1.183 -0.25,1.35c0,0.433 0.067,0.783 0.2,1.05c0.167,0.333 0.4,0.5 0.7,0.5c0.267,-0 0.517,-0.117 0.75,-0.35c0.233,-0.233 0.367,-0.517 0.4,-0.85c0.233,0.2 0.483,0.3 0.75,0.3c0.767,-0 1.15,-0.783 1.15,-2.35c-0,-0.4 -0.05,-0.85 -0.15,-1.35l-0.25,0.15c-0,1.367 -0.25,2.05 -0.75,2.05c-0.267,-0 -0.483,-0.45 -0.65,-1.35l-0.2,0.1c-0.1,0.667 -0.2,1.117 -0.3,1.35c-0.167,0.567 -0.4,0.85 -0.7,0.85Z"/><path d="M12.766,75.026l-4.4,3.5c-0.648,0.515 -0.755,1.46 -0.24,2.108c0.515,0.648 1.46,0.755 2.108,0.24l4.4,-3.5c0.648,-0.515 0.755,-1.46 0.24,-2.108c-0.515,-0.648 -1.46,-0.755 -2.108,-0.24Z"/><path d="M36.51,23.031l-4.35,3.5c-0.645,0.519 -0.748,1.464 -0.229,2.109c0.519,0.645 1.464,0.748 2.109,0.229l4.35,-3.5c0.645,-0.519 0.748,-1.464 0.229,-2.109c-0.519,-0.645 -1.464,-0.748 -2.109,-0.229Z"/></g></svg>