<?xml version="1.0" encoding="UTF-8" standalone="no"?><!DOCTYPE svg PUBLIC "-//W3C//DTD SVG 1.1//EN" "http://www.w3.org/Graphics/SVG/1.1/DTD/svg11.dtd"><svg width="100%" height="100%" viewBox="0 0 79 89" version="1.1" xmlns="http://www.w3.org/2000/svg" xmlns:xlink="http://www.w3.org/1999/xlink" xml:space="preserve" xmlns:serif="http://www.serif.com/" style="fill-rule:evenodd;clip-rule:evenodd;stroke-linejoin:round;stroke-miterlimit:2;"><g><path d="M27.45,51.35l-0.3,0l-0,4.8l1.8,-0c1.133,-0 2.2,-0.383 3.2,-1.15c0.933,-0.833 1.867,-1.65 2.8,-2.45c1.133,1.4 1.817,2.217 2.05,2.45c0.8,0.767 1.667,1.15 2.6,1.15l2.6,-0l0,-0.15l-1.5,0l0,-4.75c-1.724,-0.157 -2.941,-0.591 -3.65,-1.3c1.467,-1.467 2.2,-2.85 2.2,-4.15c0,-1.2 -0.533,-2.15 -1.6,-2.85c-0.867,-0.6 -1.817,-0.9 -2.85,-0.9c-1,0 -2.067,0.483 -3.2,1.45c-1.2,1.067 -1.8,2.183 -1.8,3.35c-0,0.167 0.467,0.567 1.4,1.2c1.033,0.7 1.65,1.267 1.85,1.7c-1.233,1.133 -3.1,1.667 -5.6,1.6Z" style="fill:#f00;"/><path d="M10.85,28.8c-0.3,0.467 -0.45,1.117 -0.45,1.95c-0,6.5 0.033,10.667 0.1,12.5c0.2,6.267 0.7,10.05 1.5,11.35c0.667,1.033 1.583,1.55 2.75,1.55l3.8,-0c0.733,-0 1.35,-0.35 1.85,-1.05c0.133,-0.2 0.5,-0.95 1.1,-2.25c0.733,1.4 1.133,2.133 1.2,2.2c0.5,0.733 1.1,1.1 1.8,1.1l2.65,-0l-0,-4.85c-1.967,0 -3.133,-0.1 -3.5,-0.3c-0.733,-0.467 -1.1,-1.75 -1.1,-3.85c-0.6,0.567 -1,1.3 -1.2,2.2c-0.167,0.767 -0.467,1.25 -0.9,1.45c-0.583,0.278 -1.667,0.428 -3.25,0.45c-2.164,-0.072 -3.581,-0.655 -4.25,-1.75c-0.633,-1.033 -0.95,-3.217 -0.95,-6.55l-0,-15.6c-0.4,0.5 -0.783,0.983 -1.15,1.45Z"/><path d="M68.55,49.05c-0,-0.267 0.017,-0.65 0.05,-1.15c0.067,-0.567 0.117,-0.95 0.15,-1.15c-0.7,1.167 -1.4,2.333 -2.1,3.5c-0.8,1.1 -1.85,1.65 -3.15,1.65c-0.967,-0 -1.65,-0.183 -2.05,-0.55c-0.3,-0.3 -0.5,-0.817 -0.6,-1.55c-0.067,-0.8 -0.133,-1.6 -0.2,-2.4c-1,2.067 -1.65,3.217 -1.95,3.45c-0.281,0.211 -0.947,0.344 -2,0.4l0,-0.05c-1.867,-0 -3.283,-0.467 -4.25,-1.4c-0.333,-0.333 -0.867,-1.2 -1.6,-2.6c-0.5,-0.933 -1.133,-1.4 -1.9,-1.4c-0.633,-0 -1.467,0.783 -2.5,2.35c-1.133,1.7 -2,2.65 -2.6,2.85c-0.467,0.133 -1.517,0.2 -3.15,0.2l0,4.8l3.25,-0c0.333,-0 0.667,-0.217 1,-0.65c0.233,-0.433 0.483,-0.85 0.75,-1.25c1.6,2 3.133,3 4.6,3c0.6,0 1.017,-0.233 1.25,-0.7c0.3,-0.7 0.517,-1.117 0.65,-1.25c0.8,0.567 1.367,0.85 1.7,0.85l1.25,-0l-0,0.15l2.4,-0c0.367,-0 1.1,-0.567 2.2,-1.7c0.633,0.367 1.25,0.733 1.85,1.1c0.733,0.4 1.383,0.6 1.95,0.6c1.367,-0 2.7,-0.783 4,-2.35c0.5,0.367 1.017,0.75 1.55,1.15c0.7,0.533 1.2,0.8 1.5,0.8c1,-0 1.767,-1.183 2.3,-3.55c0.367,-1.633 0.55,-3.3 0.55,-5c0,-0.3 -0.15,-1 -0.45,-2.1c-0.567,1.4 -0.95,2.417 -1.15,3.05c0.367,1.133 0.55,1.833 0.55,2.1l-0.25,0.75c-0.3,0.167 -0.583,0.25 -0.85,0.25c-1.833,-0 -2.75,-0.733 -2.75,-2.2Zm-18.4,3.75c-0.533,-0.267 -1.1,-0.633 -1.7,-1.1c-0.833,-0.633 -1.25,-1.15 -1.25,-1.55c0,-0.233 0.533,-0.967 1.6,-2.2c0.367,0.567 0.667,1.283 0.9,2.15c0.3,1.167 0.45,1.783 0.45,1.85l-0,0.85Z"/><path d="M21.4,36.45l-2.3,2.85l2.25,2.8l2.35,-2.8l-2.3,-2.85Z"/><path d="M32.25,24.5c-0.3,0.633 -0.45,1.4 -0.45,2.3c-0,1.433 0.517,2.15 1.55,2.15c0.6,-0 1.117,-0.3 1.55,-0.9c0.433,-0.6 0.65,-1.283 0.65,-2.05c-0,-0.633 -0.167,-1.217 -0.5,-1.75c-0.333,-0.567 -0.75,-0.85 -1.25,-0.85c-0.667,0 -1.183,0.367 -1.55,1.1Zm1.85,0.95c0.433,0.367 0.65,0.7 0.65,1c0,0.5 -0.367,0.75 -1.1,0.75c-0.9,-0 -1.35,-0.35 -1.35,-1.05c-0,-0.8 0.283,-1.2 0.85,-1.2c0.267,-0 0.583,0.167 0.95,0.5Z"/><path d="M50.466,62.676l-4.4,3.5c-0.648,0.515 -0.755,1.46 -0.24,2.108c0.515,0.648 1.46,0.755 2.108,0.24l4.4,-3.5c0.648,-0.515 0.755,-1.46 0.24,-2.108c-0.515,-0.648 -1.46,-0.755 -2.108,-0.24Z"/><path d="M67.66,25.431l-4.35,3.5c-0.645,0.519 -0.748,1.464 -0.229,2.109c0.519,0.645 1.464,0.748 2.109,0.229l4.35,-3.5c0.645,-0.519 0.748,-1.464 0.229,-2.109c-0.519,-0.645 -1.464,-0.748 -2.109,-0.229Z"/><path d="M19.816,20.776l-4.4,3.5c-0.648,0.515 -0.755,1.46 -0.24,2.108c0.515,0.648 1.46,0.755 2.108,0.24l4.4,-3.5c0.648,-0.515 0.755,-1.46 0.24,-2.108c-0.515,-0.648 -1.46,-0.755 -2.108,-0.24Z"/></g></svg>