<?xml version="1.0" encoding="UTF-8" standalone="no"?><!DOCTYPE svg PUBLIC "-//W3C//DTD SVG 1.1//EN" "http://www.w3.org/Graphics/SVG/1.1/DTD/svg11.dtd"><svg width="100%" height="100%" viewBox="0 0 38 32" version="1.1" xmlns="http://www.w3.org/2000/svg" xmlns:xlink="http://www.w3.org/1999/xlink" xml:space="preserve" xmlns:serif="http://www.serif.com/" style="fill-rule:evenodd;clip-rule:evenodd;stroke-linejoin:round;stroke-miterlimit:2;"><g><path d="M23,16.2l0,-2.4l-0.85,0c-1.167,0 -2.183,-0.267 -3.05,-0.8c0.533,-0.433 0.883,-0.733 1.05,-0.9c0.333,-0.4 0.5,-0.783 0.5,-1.15c-0,-1 -1.033,-1.5 -3.1,-1.5c-0.767,-0 -1.533,0.217 -2.3,0.65c-0.867,0.433 -1.3,0.967 -1.3,1.6l-0,0.65c0.633,0 1,0.017 1.1,0.05c0.267,0.033 0.583,0.2 0.95,0.5c-1.1,0.9 -2,1.967 -2.7,3.2c-0.7,1.3 -1.05,2.567 -1.05,3.8c0,1.733 0.45,3.1 1.35,4.1c1.033,1.1 2.567,1.65 4.6,1.65c1.233,-0 2.533,-0.2 3.9,-0.6c1.533,-0.433 2.65,-1 3.35,-1.7c-1.3,0.2 -2.2,0.3 -2.7,0.3l-2.6,-0c-1.767,-0 -3.267,-0.317 -4.5,-0.95c-1.5,-0.733 -2.25,-1.783 -2.25,-3.15c0,-1.033 0.433,-2.15 1.3,-3.35c0.9,-1.233 1.9,-2.083 3,-2.55c0.767,0.967 1.25,1.533 1.45,1.7c0.633,0.567 1.35,0.85 2.15,0.85l1.7,-0Z" style="fill:#f00;"/><path d="M17.7,6.7l1.75,-1.4l-1.75,-1.45l-1.7,1.45l1.7,1.4Z" style="fill:#f00;"/><rect x="23" y="13.8" width="4.65" height="2.4"/></g></svg>