<?xml version="1.0" encoding="UTF-8" standalone="no"?><!DOCTYPE svg PUBLIC "-//W3C//DTD SVG 1.1//EN" "http://www.w3.org/Graphics/SVG/1.1/DTD/svg11.dtd"><svg width="100%" height="100%" viewBox="0 0 27 33" version="1.1" xmlns="http://www.w3.org/2000/svg" xmlns:xlink="http://www.w3.org/1999/xlink" xml:space="preserve" xmlns:serif="http://www.serif.com/" style="fill-rule:evenodd;clip-rule:evenodd;stroke-linejoin:round;stroke-miterlimit:2;"><g><path d="M14.8,18.15c0.033,0.033 0.6,0.3 1.7,0.8c-0.8,0.533 -1.483,0.883 -2.05,1.05c-0.467,0.133 -1.067,0.2 -1.8,0.2l-2.7,-0l-0,2.4l2.1,0c0.833,0 1.617,-0.183 2.35,-0.55c0.267,-0.1 0.85,-0.45 1.75,-1.05c0.7,-0.433 1.3,-0.7 1.8,-0.8c0.433,-0.1 0.967,-0.167 1.6,-0.2c0.567,0 1.117,-0.017 1.65,-0.05c0.333,-0.7 0.6,-1.467 0.8,-2.3c-1.333,-0 -2.6,-0.183 -3.8,-0.55c-0.533,-0.2 -1.35,-0.567 -2.45,-1.1c-0.833,-0.367 -1.45,-0.55 -1.85,-0.55c-0.833,-0 -1.5,0.333 -2,1c-0.3,0.4 -0.6,1.017 -0.9,1.85c0.333,-0.133 0.667,-0.267 1,-0.4c0.4,-0.167 0.733,-0.25 1,-0.25c0.433,-0 1.033,0.167 1.8,0.5Z" style="fill:#f00;"/><rect x="6.55" y="20.2" width="3.4" height="2.4"/></g></svg>