<?xml version="1.0" encoding="UTF-8" standalone="no"?><!DOCTYPE svg PUBLIC "-//W3C//DTD SVG 1.1//EN" "http://www.w3.org/Graphics/SVG/1.1/DTD/svg11.dtd"><svg width="100%" height="100%" viewBox="0 0 33 33" version="1.1" xmlns="http://www.w3.org/2000/svg" xmlns:xlink="http://www.w3.org/1999/xlink" xml:space="preserve" xmlns:serif="http://www.serif.com/" style="fill-rule:evenodd;clip-rule:evenodd;stroke-linejoin:round;stroke-miterlimit:2;"><g><path d="M23.6,19.65l0,-2.35c-0.369,0.033 -0.719,0.05 -1.05,0.05c-1.9,0 -2.817,-0.333 -2.75,-1l0.05,-0.1c0.933,-0.133 1.533,-0.317 1.8,-0.55c0.1,-0.6 0.233,-1.2 0.4,-1.8c-0.767,0.167 -1.55,0.25 -2.35,0.25c-1,-0 -2.233,-0.25 -3.7,-0.75c-1.467,-0.533 -2.35,-0.8 -2.65,-0.8c-0.733,0 -1.433,0.267 -2.1,0.8c-0.667,0.5 -1,1.05 -1,1.65l0,0.35c0.433,-0.133 0.85,-0.267 1.25,-0.4c0.567,-0.167 0.983,-0.25 1.25,-0.25c0.733,0 1.667,0.283 2.8,0.85c-1.133,0.733 -2.25,1.2 -3.35,1.4c-0.621,0.135 -1.554,0.218 -2.8,0.25l-0.95,0l-0,2.4l2.2,-0c1.033,-0 2.183,-0.283 3.45,-0.85c0.567,-0.267 1.55,-0.8 2.95,-1.6c1,-0.567 1.667,-0.85 2,-0.85l0.25,0.1c0,2.133 0.783,3.2 2.35,3.2l1.95,-0Z" style="fill:#f00;"/><rect x="5.05" y="17.25" width="3.4" height="2.4"/><path d="M28.25,17.25l-4.65,0l0,2.4l4.65,-0l0,-2.4Z"/></g></svg>