<?xml version="1.0" encoding="UTF-8" standalone="no"?><!DOCTYPE svg PUBLIC "-//W3C//DTD SVG 1.1//EN" "http://www.w3.org/Graphics/SVG/1.1/DTD/svg11.dtd"><svg width="100%" height="100%" viewBox="0 0 33 28" version="1.1" xmlns="http://www.w3.org/2000/svg" xmlns:xlink="http://www.w3.org/1999/xlink" xml:space="preserve" xmlns:serif="http://www.serif.com/" style="fill-rule:evenodd;clip-rule:evenodd;stroke-linejoin:round;stroke-miterlimit:2;"><g><path d="M9.7,14.2l-0,2.4l2.45,0c0.867,0 1.667,-0.183 2.4,-0.55c0.7,-0.433 1.417,-0.85 2.15,-1.25c0.833,0.7 1.333,1.1 1.5,1.2c0.633,0.4 1.3,0.6 2,0.6l0.7,0l-0,-2.4l0.6,-0c-1.546,-0.053 -2.63,-0.286 -3.25,-0.7c1.133,-0.733 1.7,-1.433 1.7,-2.1c-0,-0.567 -0.417,-1.033 -1.25,-1.4c-0.633,-0.3 -1.35,-0.45 -2.15,-0.45c-0.733,0 -1.533,0.233 -2.4,0.7c-0.9,0.533 -1.35,1.1 -1.35,1.7c0,0.067 0.35,0.267 1.05,0.6c0.767,0.333 1.233,0.617 1.4,0.85c-0.933,0.567 -2.333,0.833 -4.2,0.8l-1.35,-0Z" style="fill:#f00;"/><rect x="6.3" y="14.2" width="3.4" height="2.4"/><path d="M20.9,14.2l-0,2.4l4.65,0l0,-2.4l-4.65,-0Z"/></g></svg>