<?xml version="1.0" encoding="UTF-8" standalone="no"?><!DOCTYPE svg PUBLIC "-//W3C//DTD SVG 1.1//EN" "http://www.w3.org/Graphics/SVG/1.1/DTD/svg11.dtd"><svg width="100%" height="100%" viewBox="0 0 27 32" version="1.1" xmlns="http://www.w3.org/2000/svg" xmlns:xlink="http://www.w3.org/1999/xlink" xml:space="preserve" xmlns:serif="http://www.serif.com/" style="fill-rule:evenodd;clip-rule:evenodd;stroke-linejoin:round;stroke-miterlimit:2;"><g><path d="M21.2,18.9c0.433,-1.033 0.733,-1.717 0.9,-2.05l-4.55,0.85c-0.033,0.033 -0.083,0.05 -0.15,0.05c-0.533,-0 -1.133,-0.3 -1.8,-0.9c-0.667,-0.567 -1,-1.067 -1,-1.5c0,-0.333 0.483,-0.65 1.45,-0.95c0.833,-0.3 1.517,-0.45 2.05,-0.45c0.767,-0 1.633,0.15 2.6,0.45c-0.667,-1.333 -1.833,-2 -3.5,-2c-1.067,-0 -1.983,0.417 -2.75,1.25c-0.667,0.8 -1,1.65 -1,2.55c-0,0.767 0.167,1.433 0.5,2l-4,-0l-0,2.4l2.85,0c1,0 2.45,-0.183 4.35,-0.55c2.1,-0.367 3.45,-0.75 4.05,-1.15Z" style="fill:#f00;"/><path d="M16.35,11.1l1.75,-1.4l-1.75,-1.45l-1.7,1.45l1.7,1.4Z" style="fill:#f00;"/><rect x="6.55" y="18.2" width="3.4" height="2.4"/></g></svg>