<?xml version="1.0" encoding="UTF-8" standalone="no"?><!DOCTYPE svg PUBLIC "-//W3C//DTD SVG 1.1//EN" "http://www.w3.org/Graphics/SVG/1.1/DTD/svg11.dtd"><svg width="100%" height="100%" viewBox="0 0 28 89" version="1.1" xmlns="http://www.w3.org/2000/svg" xmlns:xlink="http://www.w3.org/1999/xlink" xml:space="preserve" xmlns:serif="http://www.serif.com/" style="fill-rule:evenodd;clip-rule:evenodd;stroke-linejoin:round;stroke-miterlimit:2;"><g><path d="M21.35,25.2c-1.367,2.233 -2.05,3.567 -2.05,4l0.5,25.65c1.167,-1.167 1.75,-4.267 1.75,-9.3l-0.2,-20.35Z"/><path d="M36.5,48.15c-0.7,1.667 -1.05,3.033 -1.05,4.1c0,1.3 0.517,2.117 1.55,2.45c0.9,0.167 1.817,0.333 2.75,0.5c-1.1,2.033 -2.233,3.517 -3.4,4.45c-1.333,1.067 -2.917,1.6 -4.75,1.6c-0.967,-0 -2.383,-0.083 -4.25,-0.25c1.733,2.1 3.75,3.15 6.05,3.15c1.967,0 3.65,-1 5.05,-3c1,-1.433 1.95,-3.55 2.85,-6.35l1.5,0l-0,-4.65c-0.423,0.013 -0.856,-0.004 -1.3,-0.05c-0.367,-0.967 -0.733,-1.917 -1.1,-2.85c-0.533,-1.233 -1.1,-1.85 -1.7,-1.85c-0.7,0 -1.433,0.917 -2.2,2.75Zm2.9,3.45c-0.567,-0 -1.25,-0.067 -2.05,-0.2c0,-0.4 -0.067,-0.65 -0.2,-0.75c0.233,-0.6 0.467,-1.133 0.7,-1.6c0.6,0.367 0.983,0.683 1.15,0.95c0.133,0.233 0.267,0.767 0.4,1.6Z"/><path d="M8.4,49.55c-0,1.933 0.617,2.9 1.85,2.9c0.967,-0 1.85,-0.633 2.65,-1.9c0.233,0.567 0.35,1.1 0.35,1.6c0,2.8 -1.617,5.033 -4.85,6.7c-2.5,1.267 -5.067,1.9 -7.7,1.9c1.267,0.633 2.15,1.05 2.65,1.25c0.867,0.3 1.783,0.45 2.75,0.45c2.667,-0 4.733,-1.35 6.2,-4.05c1.3,-2.367 1.95,-5.283 1.95,-8.75c0,-1.367 -0.183,-2.7 -0.55,-4c-0.5,-1.7 -1.217,-2.55 -2.15,-2.55c-0.8,-0 -1.533,0.85 -2.2,2.55c-0.633,1.5 -0.95,2.8 -0.95,3.9Zm1.4,-0.7c0.3,-0.867 0.6,-1.667 0.9,-2.4c0.9,0.533 1.35,1.183 1.35,1.95c-0,0.3 -0.133,0.55 -0.4,0.75c-0.267,0.2 -0.533,0.3 -0.8,0.3c-0.033,-0 -0.383,-0.2 -1.05,-0.6Z"/><path d="M21.45,16.6c-0.567,-0 -1.05,0.35 -1.45,1.05c-0.367,0.6 -0.55,1.2 -0.55,1.8c0,0.467 0.35,0.967 1.05,1.5c-1.3,1.2 -2.517,2.1 -3.65,2.7c0.4,0.133 0.717,0.2 0.95,0.2c0.967,-0 2.1,-0.817 3.4,-2.45c0.533,0.4 1,0.7 1.4,0.9l0.1,-1.7c-0.267,-0.233 -0.483,-0.4 -0.65,-0.5c0.367,-0.867 0.55,-1.533 0.55,-2c0,-1 -0.383,-1.5 -1.15,-1.5Zm-1.15,1.75c0.067,-0.167 0.167,-0.267 0.3,-0.3c0.6,0.1 0.9,0.45 0.9,1.05c-0,0.133 -0.017,0.3 -0.05,0.5c-0.767,-0.433 -1.15,-0.85 -1.15,-1.25Z"/></g></svg>