<?xml version="1.0" encoding="UTF-8" standalone="no"?><!DOCTYPE svg PUBLIC "-//W3C//DTD SVG 1.1//EN" "http://www.w3.org/Graphics/SVG/1.1/DTD/svg11.dtd"><svg width="100%" height="100%" viewBox="0 0 79 89" version="1.1" xmlns="http://www.w3.org/2000/svg" xmlns:xlink="http://www.w3.org/1999/xlink" xml:space="preserve" xmlns:serif="http://www.serif.com/" style="fill-rule:evenodd;clip-rule:evenodd;stroke-linejoin:round;stroke-miterlimit:2;"><g><path d="M36.3,42.75c-0.933,1.567 -1.4,3.267 -1.4,5.1c-0,1.467 0.233,2.767 0.7,3.9l-5.3,0l-0,4.85l3.75,0c1.333,0 3.267,-0.35 5.8,-1.05c2.767,-0.767 4.55,-1.55 5.35,-2.35c0.567,-2.033 0.967,-3.383 1.2,-4.05l-6,1.7l-0.25,0c-0.7,0 -1.483,-0.567 -2.35,-1.7c-0.9,-1.167 -1.35,-2.167 -1.35,-3c0,-0.7 0.65,-1.35 1.95,-1.95c1.133,-0.567 2.033,-0.85 2.7,-0.85c1.033,0 2.183,0.283 3.45,0.85c-0.867,-2.667 -2.417,-4 -4.65,-4c-1.433,-0 -2.633,0.85 -3.6,2.55Z" style="fill:#f00;"/><path d="M51.45,31l0.5,25.65c1.167,-1.167 1.75,-4.267 1.75,-9.3l-0.2,-20.35c-1.367,2.233 -2.05,3.567 -2.05,4Z"/><path d="M62.2,47.45c-0.633,1.5 -0.95,2.8 -0.95,3.9c0,1.933 0.617,2.9 1.85,2.9c0.967,0 1.85,-0.633 2.65,-1.9c0.233,0.567 0.35,1.1 0.35,1.6c0,2.8 -1.617,5.033 -4.85,6.7c-2.5,1.267 -5.067,1.9 -7.7,1.9c1.267,0.633 2.15,1.05 2.65,1.25c0.867,0.3 1.783,0.45 2.75,0.45c2.667,0 4.733,-1.35 6.2,-4.05c1.3,-2.367 1.95,-5.283 1.95,-8.75c0,-1.367 -0.183,-2.7 -0.55,-4c-0.5,-1.7 -1.217,-2.55 -2.15,-2.55c-0.8,-0 -1.533,0.85 -2.2,2.55Zm1.35,0.8c0.9,0.533 1.35,1.183 1.35,1.95c-0,0.3 -0.133,0.55 -0.4,0.75c-0.267,0.2 -0.533,0.3 -0.8,0.3c-0.033,0 -0.383,-0.2 -1.05,-0.6c0.3,-0.867 0.6,-1.667 0.9,-2.4Z"/><path d="M14.65,53.2c-2.033,-0 -3.8,-0.367 -5.3,-1.1c-2.1,-1 -3.15,-2.533 -3.15,-4.6c0,-0.467 0.283,-1.7 0.85,-3.7c-0.733,0.367 -1.333,1.283 -1.8,2.75c-0.4,1.233 -0.6,2.45 -0.6,3.65c-0,2.6 0.967,4.55 2.9,5.85c1.567,1.067 3.5,1.6 5.8,1.6c3.5,-0 7.433,-1.133 11.8,-3.4c0.533,0.5 1.067,1 1.6,1.5c0.667,0.567 1.283,0.85 1.85,0.85l1.7,0l-0,-4.75l-0.4,0c-0.9,0 -1.633,-0.2 -2.2,-0.6c1.367,-1.967 2.05,-4 2.05,-6.1c-0,-0.933 -0.15,-1.9 -0.45,-2.9c-0.4,-1.267 -0.9,-1.9 -1.5,-1.9c-1.167,0 -2.267,1.083 -3.3,3.25c-0.933,1.967 -1.4,3.733 -1.4,5.3c0,0.333 0.05,0.8 0.15,1.4c0.1,0.7 0.15,1.167 0.15,1.4c-3.767,1 -6.683,1.5 -8.75,1.5Zm10.3,-6.7c0.5,-0.667 0.933,-1 1.3,-1c0.4,0 0.767,0.2 1.1,0.6c0.367,0.4 0.55,0.833 0.55,1.3c-0,0.333 -0.3,0.883 -0.9,1.65c-0.567,0.767 -0.95,1.15 -1.15,1.15c-0.2,0 -0.533,-0.267 -1,-0.8c-0.5,-0.533 -0.75,-0.95 -0.75,-1.25c0,-0.4 0.283,-0.95 0.85,-1.65Z"/><path d="M23.5,33.2l2.3,2.8l2.3,-2.8l-2.3,-2.8l-2.3,2.8Z"/><path d="M37.5,23.8c-0.3,0.633 -0.45,1.4 -0.45,2.3c-0,1.433 0.517,2.15 1.55,2.15c0.6,0 1.117,-0.3 1.55,-0.9c0.433,-0.6 0.65,-1.283 0.65,-2.05c-0,-0.633 -0.167,-1.217 -0.5,-1.75c-0.333,-0.567 -0.75,-0.85 -1.25,-0.85c-0.667,-0 -1.183,0.367 -1.55,1.1Zm1.85,0.95c0.433,0.367 0.65,0.7 0.65,1c0,0.5 -0.367,0.75 -1.1,0.75c-0.9,0 -1.35,-0.35 -1.35,-1.05c-0,-0.8 0.283,-1.2 0.85,-1.2c0.267,0 0.583,0.167 0.95,0.5Z"/><path d="M26.2,19.95c-0.567,-0 -1.05,0.35 -1.45,1.05c-0.367,0.6 -0.55,1.2 -0.55,1.8c0,0.467 0.35,0.967 1.05,1.5c-1.3,1.2 -2.517,2.1 -3.65,2.7c0.4,0.133 0.717,0.2 0.95,0.2c0.967,-0 2.1,-0.817 3.4,-2.45c0.533,0.4 1,0.7 1.4,0.9l0.1,-1.7c-0.267,-0.233 -0.483,-0.4 -0.65,-0.5c0.367,-0.867 0.55,-1.533 0.55,-2c0,-1 -0.383,-1.5 -1.15,-1.5Zm-1.15,1.75c0.067,-0.167 0.167,-0.267 0.3,-0.3c0.6,0.1 0.9,0.45 0.9,1.05c-0,0.133 -0.017,0.3 -0.05,0.5c-0.767,-0.433 -1.15,-0.85 -1.15,-1.25Z"/><path d="M64.16,23.731l-4.35,3.5c-0.645,0.519 -0.748,1.464 -0.229,2.109c0.519,0.645 1.464,0.748 2.109,0.229l4.35,-3.5c0.645,-0.519 0.748,-1.464 0.229,-2.109c-0.519,-0.645 -1.464,-0.748 -2.109,-0.229Z"/></g></svg>