<?xml version="1.0" encoding="UTF-8" standalone="no"?><!DOCTYPE svg PUBLIC "-//W3C//DTD SVG 1.1//EN" "http://www.w3.org/Graphics/SVG/1.1/DTD/svg11.dtd"><svg width="100%" height="100%" viewBox="0 0 83 89" version="1.1" xmlns="http://www.w3.org/2000/svg" xmlns:xlink="http://www.w3.org/1999/xlink" xml:space="preserve" xmlns:serif="http://www.serif.com/" style="fill-rule:evenodd;clip-rule:evenodd;stroke-linejoin:round;stroke-miterlimit:2;"><g><path d="M22.3,51.05l-0.3,0l0,4.8l1.8,0c1.133,0 2.2,-0.383 3.2,-1.15c0.933,-0.833 1.867,-1.65 2.8,-2.45c1.133,1.4 1.817,2.217 2.05,2.45c0.8,0.767 1.667,1.15 2.6,1.15l2.6,0l-0,-0.05l-0.75,0l-0,-3.95l0.75,0l-0,-0.85c-2.533,0 -4.25,-0.45 -5.15,-1.35c1.467,-1.467 2.2,-2.85 2.2,-4.15c0,-1.2 -0.533,-2.15 -1.6,-2.85c-0.867,-0.6 -1.817,-0.9 -2.85,-0.9c-1,0 -2.067,0.483 -3.2,1.45c-1.2,1.067 -1.8,2.183 -1.8,3.35c-0,0.167 0.467,0.567 1.4,1.2c1.033,0.7 1.65,1.267 1.85,1.7c-1.233,1.133 -3.1,1.667 -5.6,1.6Z" style="fill:#f00;"/><path d="M59.25,55.9c1.167,-1.167 1.75,-4.267 1.75,-9.3l-0.2,-20.35c-1.367,2.233 -2.05,3.567 -2.05,4l0.5,25.65Z"/><path d="M15.3,50.5c-0.583,0.278 -1.667,0.428 -3.25,0.45c-2.164,-0.072 -3.581,-0.655 -4.25,-1.75c-0.633,-1.033 -0.95,-3.217 -0.95,-6.55l0,-15.6c-0.4,0.5 -0.783,0.983 -1.15,1.45c-0.3,0.467 -0.45,1.117 -0.45,1.95c0,6.5 0.033,10.667 0.1,12.5c0.2,6.267 0.7,10.05 1.5,11.35c0.667,1.033 1.583,1.55 2.75,1.55l3.8,0c0.733,0 1.35,-0.35 1.85,-1.05c0.133,-0.2 0.5,-0.95 1.1,-2.25c0.733,1.4 1.133,2.133 1.2,2.2c0.5,0.733 1.1,1.1 1.8,1.1l2.65,0l0,-4.85c-1.967,-0 -3.133,-0.1 -3.5,-0.3c-0.733,-0.467 -1.1,-1.75 -1.1,-3.85c-0.6,0.567 -1,1.3 -1.2,2.2c-0.167,0.767 -0.467,1.25 -0.9,1.45Z"/><path d="M39.55,24.45c-0.167,0.1 -0.333,0.267 -0.5,0.5c-0.133,0.267 -0.25,0.55 -0.35,0.85c-0.1,0.333 -0.183,0.683 -0.25,1.05c-0.1,0.367 -0.167,0.717 -0.2,1.05c0.067,0.567 0.117,1.033 0.15,1.4c0.067,0.367 0.117,0.683 0.15,0.95c0.033,0.267 0.083,0.5 0.15,0.7c0.033,0.167 0.083,0.317 0.15,0.45c0.067,0.8 0.167,1.783 0.3,2.95c0.1,1.133 0.217,2.35 0.35,3.65c0.1,1.267 0.217,2.55 0.35,3.85c0.1,1.3 0.183,2.517 0.25,3.65c0.067,1.1 0.1,2.05 0.1,2.85c0.033,0.833 0,1.383 -0.1,1.65c-0.267,0.333 -0.533,0.65 -0.8,0.95c-0.3,0.3 -0.583,0.6 -0.85,0.9l-2.15,0l-0,3.95l1.65,0c0.9,0 1.733,-0.05 2.5,-0.15c0.767,-0.067 1.517,-0.15 2.25,-0.25c0.733,-0.133 1.45,-0.267 2.15,-0.4c0.667,-0.133 1.333,-0.283 2,-0.45c0.5,-0.1 1.033,-0.267 1.6,-0.5c0.567,-0.267 1.117,-0.567 1.65,-0.9c0.533,-0.367 1.033,-0.767 1.5,-1.2c0.5,-0.467 0.917,-0.983 1.25,-1.55c0.367,-0.533 0.667,-1.117 0.9,-1.75c0.2,-0.6 0.3,-1.25 0.3,-1.95c-0,-0.3 -0.083,-0.6 -0.25,-0.9c-0.167,-0.3 -0.383,-0.567 -0.65,-0.8c-0.267,-0.267 -0.55,-0.483 -0.85,-0.65c-0.333,-0.233 -0.65,-0.417 -0.95,-0.55c-0.3,-0.133 -0.583,-0.233 -0.85,-0.3c-0.267,-0.1 -0.483,-0.15 -0.65,-0.15c-0.467,0.033 -0.883,0.067 -1.25,0.1c-0.333,0.033 -0.667,0.117 -1,0.25c-0.333,0.133 -0.65,0.317 -0.95,0.55c-0.367,0.233 -0.767,0.55 -1.2,0.95c-0.433,0.4 -0.933,0.883 -1.5,1.45c-0.6,0.6 -1.3,1.3 -2.1,2.1l-0.45,0.3c0.067,-0.6 0.117,-1.15 0.15,-1.65c0.033,-0.533 0.05,-1.033 0.05,-1.5c0.033,-0.467 0.033,-0.95 0,-1.45c0,-0.467 -0.033,-0.983 -0.1,-1.55c-0.033,-0.567 -0.083,-1.2 -0.15,-1.9c-0.067,-0.7 -0.133,-1.517 -0.2,-2.45c-0.1,-0.9 -0.217,-1.933 -0.35,-3.1c-0.1,-1.167 -0.233,-2.5 -0.4,-4c0.133,-0.2 0.267,-0.5 0.4,-0.9c0.1,-0.433 0.2,-0.85 0.3,-1.25c0.1,-0.367 0.167,-0.683 0.2,-0.95c0.061,-0.215 0.095,-0.282 0.1,-0.2c-0.003,-0.076 -0.02,-0.159 -0.05,-0.25c-0.033,-0.1 -0.1,-0.25 -0.2,-0.45c-0.1,-0.167 -0.25,-0.383 -0.45,-0.65c-0.2,-0.233 -0.467,-0.55 -0.8,-0.95c-0.033,0.1 -0.067,0.067 -0.1,-0.1c-0,-0.133 -0.017,-0.317 -0.05,-0.55c-0.033,-0.2 -0.067,-0.383 -0.1,-0.55c-0.033,-0.167 -0.067,-0.233 -0.1,-0.2Zm11.85,24.7c0.1,-0 0.033,0.083 -0.2,0.25c-0.2,0.133 -0.533,0.283 -1,0.45c-0.433,0.2 -0.983,0.417 -1.65,0.65c-0.667,0.2 -1.383,0.417 -2.15,0.65c-0.833,0.167 -1.7,0.333 -2.6,0.5c-0.9,0.133 -1.833,0.217 -2.8,0.25c0.533,-0.567 1.117,-1.15 1.75,-1.75c0.633,-0.633 1.283,-1.183 1.95,-1.65c0.633,-0.5 1.25,-0.9 1.85,-1.2c0.6,-0.3 1.117,-0.45 1.55,-0.45c0.2,0.033 0.417,0.067 0.65,0.1c0.233,0.067 0.483,0.167 0.75,0.3c0.267,0.133 0.567,0.35 0.9,0.65c0.3,0.3 0.633,0.717 1,1.25Z"/><path d="M69.45,46.7c-0.633,1.5 -0.95,2.8 -0.95,3.9c0,1.933 0.617,2.9 1.85,2.9c0.967,0 1.85,-0.633 2.65,-1.9c0.233,0.567 0.35,1.1 0.35,1.6c0,2.8 -1.617,5.033 -4.85,6.7c-2.5,1.267 -5.067,1.9 -7.7,1.9c1.267,0.633 2.15,1.05 2.65,1.25c0.867,0.3 1.783,0.45 2.75,0.45c2.667,-0 4.733,-1.35 6.2,-4.05c1.3,-2.367 1.95,-5.283 1.95,-8.75c0,-1.367 -0.183,-2.7 -0.55,-4c-0.5,-1.7 -1.217,-2.55 -2.15,-2.55c-0.8,-0 -1.533,0.85 -2.2,2.55Zm2.7,2.75c-0,0.3 -0.133,0.55 -0.4,0.75c-0.267,0.2 -0.533,0.3 -0.8,0.3c-0.033,-0 -0.383,-0.2 -1.05,-0.6c0.3,-0.867 0.6,-1.667 0.9,-2.4c0.9,0.533 1.35,1.183 1.35,1.95Z"/><path d="M16.25,36.15l-2.3,2.85l2.25,2.8l2.35,-2.8l-2.3,-2.85Z"/><path d="M29.6,27.25c0.433,-0.6 0.65,-1.283 0.65,-2.05c0,-0.633 -0.167,-1.217 -0.5,-1.75c-0.333,-0.567 -0.75,-0.85 -1.25,-0.85c-0.667,-0 -1.183,0.367 -1.55,1.1c-0.3,0.633 -0.45,1.4 -0.45,2.3c0,1.433 0.517,2.15 1.55,2.15c0.6,0 1.117,-0.3 1.55,-0.9Zm-2.6,-1.9c0,-0.8 0.283,-1.2 0.85,-1.2c0.267,0 0.583,0.167 0.95,0.5c0.433,0.367 0.65,0.7 0.65,1c0,0.5 -0.367,0.75 -1.1,0.75c-0.9,0 -1.35,-0.35 -1.35,-1.05Z"/><path d="M71.824,30.97l-4.4,3.45c-0.651,0.51 -0.765,1.454 -0.254,2.106c0.51,0.651 1.454,0.765 2.106,0.254l4.4,-3.45c0.651,-0.51 0.765,-1.454 0.254,-2.106c-0.51,-0.651 -1.454,-0.765 -2.106,-0.254Z"/><path d="M14.074,18.87l-4.4,3.45c-0.651,0.51 -0.765,1.454 -0.254,2.106c0.51,0.651 1.454,0.765 2.106,0.254l4.4,-3.45c0.651,-0.51 0.765,-1.454 0.254,-2.106c-0.51,-0.651 -1.454,-0.765 -2.106,-0.254Z"/><path d="M61.166,18.076l-4.4,3.5c-0.648,0.515 -0.755,1.46 -0.24,2.108c0.515,0.648 1.46,0.755 2.108,0.24l4.4,-3.5c0.648,-0.515 0.755,-1.46 0.24,-2.108c-0.515,-0.648 -1.46,-0.755 -2.108,-0.24Z"/><path d="M40.224,17.32l-4.4,3.45c-0.651,0.51 -0.765,1.454 -0.254,2.106c0.51,0.651 1.454,0.765 2.106,0.254l4.4,-3.45c0.651,-0.51 0.765,-1.454 0.254,-2.106c-0.51,-0.651 -1.454,-0.765 -2.106,-0.254Z"/></g></svg>