<?xml version="1.0" encoding="UTF-8" standalone="no"?><!DOCTYPE svg PUBLIC "-//W3C//DTD SVG 1.1//EN" "http://www.w3.org/Graphics/SVG/1.1/DTD/svg11.dtd"><svg width="100%" height="100%" viewBox="0 0 66 87" version="1.1" xmlns="http://www.w3.org/2000/svg" xmlns:xlink="http://www.w3.org/1999/xlink" xml:space="preserve" xmlns:serif="http://www.serif.com/" style="fill-rule:evenodd;clip-rule:evenodd;stroke-linejoin:round;stroke-miterlimit:2;"><g><path d="M36.65,53.45c-0.9,-1.167 -1.35,-2.167 -1.35,-3c-0,-0.7 0.65,-1.35 1.95,-1.95c1.133,-0.567 2.033,-0.85 2.7,-0.85c1.033,-0 2.183,0.283 3.45,0.85c-0.867,-2.667 -2.417,-4 -4.65,-4c-1.433,0 -2.633,0.85 -3.6,2.55c-0.933,1.567 -1.4,3.267 -1.4,5.1c-0,1.467 0.233,2.767 0.7,3.9l-4.1,-0l0,4.85l2.55,-0c1.333,-0 3.267,-0.35 5.8,-1.05c2.767,-0.767 4.55,-1.55 5.35,-2.35c0.567,-2.033 0.967,-3.383 1.2,-4.05l-6,1.7l-0.25,-0c-0.7,-0 -1.483,-0.567 -2.35,-1.7Z" style="fill:#f00;"/><path d="M23.5,43.95c0.3,3.833 0.45,6.7 0.45,8.6c0,1.567 -0.4,2.583 -1.2,3.05c-0.45,0.27 -1.284,0.42 -2.5,0.45l-1.5,-0c-1.7,-0 -3.217,0.617 -4.55,1.85c-1.433,1.367 -2.15,3.067 -2.15,5.1c-0,0.933 0.383,1.617 1.15,2.05c0.433,0.267 1.233,0.5 2.4,0.7c1.067,0.2 1.767,0.417 2.1,0.65c-0.333,0.833 -1.7,1.583 -4.1,2.25c-2,0.533 -3.6,0.8 -4.8,0.8c-2.067,0 -3.633,-0.25 -4.7,-0.75c-1.7,-0.8 -2.55,-2.25 -2.55,-4.35c-0,-0.9 0.267,-2.05 0.8,-3.45c0.633,-1.7 1,-2.833 1.1,-3.4c-0.9,0.733 -1.767,2.017 -2.6,3.85c-0.9,1.9 -1.35,3.5 -1.35,4.8c-0,2.533 0.917,4.417 2.75,5.65c1.433,1 3.267,1.5 5.5,1.5c5,-0 8.683,-1.883 11.05,-5.65c0.767,-1.167 1.15,-2.05 1.15,-2.65c0,-1.033 -0.833,-1.767 -2.5,-2.2c-1.167,-0.233 -2.317,-0.45 -3.45,-0.65c0.392,-0.755 2.476,-1.171 6.25,-1.25l1.65,-0c0.667,-0 1.3,-0.55 1.9,-1.65c0.867,-1.7 1.317,-2.567 1.35,-2.6c0.4,0.9 0.8,1.8 1.2,2.7c0.5,1.033 1.15,1.55 1.95,1.55l2.05,-0l0,-4.85l-0.15,-0c-1.521,-0.036 -2.604,-0.603 -3.25,-1.7c-0.6,-0.967 -0.9,-2.467 -0.9,-4.5c-0,-2.367 -0.133,-5.5 -0.4,-9.4c-0.267,-4.767 -0.433,-7.9 -0.5,-9.4c-1.367,1.333 -2.05,2.767 -2.05,4.3c0,1.9 0.133,4.767 0.4,8.6Z"/><path d="M57.75,51.75c-0.5,-1.7 -1.217,-2.55 -2.15,-2.55c-0.8,0 -1.533,0.85 -2.2,2.55c-0.633,1.5 -0.95,2.8 -0.95,3.9c0,1.933 0.617,2.9 1.85,2.9c0.967,-0 1.85,-0.633 2.65,-1.9c0.233,0.567 0.35,1.1 0.35,1.6c-0,2.8 -1.617,5.033 -4.85,6.7c-2.5,1.267 -5.067,1.9 -7.7,1.9c1.267,0.633 2.15,1.05 2.65,1.25c0.867,0.3 1.783,0.45 2.75,0.45c2.667,-0 4.733,-1.35 6.2,-4.05c1.3,-2.367 1.95,-5.283 1.95,-8.75c-0,-1.367 -0.183,-2.7 -0.55,-4Zm-2.05,3.5c-0.267,0.2 -0.533,0.3 -0.8,0.3c-0.033,-0 -0.383,-0.2 -1.05,-0.6c0.3,-0.867 0.6,-1.667 0.9,-2.4c0.9,0.533 1.35,1.183 1.35,1.95c0,0.3 -0.133,0.55 -0.4,0.75Z"/><path d="M55.224,26.52l-4.4,3.45c-0.651,0.51 -0.765,1.454 -0.254,2.106c0.51,0.651 1.454,0.765 2.106,0.254l4.4,-3.45c0.651,-0.51 0.765,-1.454 0.254,-2.106c-0.51,-0.651 -1.454,-0.765 -2.106,-0.254Z"/><path d="M38.916,23.776l-4.4,3.5c-0.648,0.515 -0.755,1.46 -0.24,2.108c0.515,0.648 1.46,0.755 2.108,0.24l4.4,-3.5c0.648,-0.515 0.755,-1.46 0.24,-2.108c-0.515,-0.648 -1.46,-0.755 -2.108,-0.24Z"/><path d="M24.51,22.631l-4.35,3.5c-0.645,0.519 -0.748,1.464 -0.229,2.109c0.519,0.645 1.464,0.748 2.109,0.229l4.35,-3.5c0.645,-0.519 0.748,-1.464 0.229,-2.109c-0.519,-0.645 -1.464,-0.748 -2.109,-0.229Z"/></g></svg>