<?xml version="1.0" encoding="UTF-8" standalone="no"?><!DOCTYPE svg PUBLIC "-//W3C//DTD SVG 1.1//EN" "http://www.w3.org/Graphics/SVG/1.1/DTD/svg11.dtd"><svg width="100%" height="100%" viewBox="0 0 280 79" version="1.1" xmlns="http://www.w3.org/2000/svg" xmlns:xlink="http://www.w3.org/1999/xlink" xml:space="preserve" xmlns:serif="http://www.serif.com/" style="fill-rule:evenodd;clip-rule:evenodd;stroke-linejoin:round;stroke-miterlimit:2;"><g><path d="M87.65,35.8c-0.867,-0.6 -1.817,-0.9 -2.85,-0.9c-1,-0 -2.067,0.483 -3.2,1.45c-1.2,1.067 -1.8,2.183 -1.8,3.35c-0,0.167 0.467,0.567 1.4,1.2c1.033,0.7 1.65,1.267 1.85,1.7c-1.233,1.133 -3.1,1.667 -5.6,1.6l-0.3,0l-0,4.8l1.8,-0c1.133,-0 2.2,-0.383 3.2,-1.15c0.933,-0.833 1.867,-1.65 2.8,-2.45c1.133,1.4 1.817,2.217 2.05,2.45c0.8,0.767 1.667,1.15 2.6,1.15l1.1,-0l0,-4.85l1.5,-0c-2.533,-0 -4.25,-0.45 -5.15,-1.35c1.467,-1.467 2.2,-2.85 2.2,-4.15c0,-1.2 -0.533,-2.15 -1.6,-2.85Z" style="fill:#f00;"/><path d="M238.55,42.4l0.05,-0.2c1.267,-0.3 2.067,-0.65 2.4,-1.05c0.133,-1.2 0.3,-2.417 0.5,-3.65c-1,0.367 -2.017,0.55 -3.05,0.55c-1.367,-0 -3.017,-0.517 -4.95,-1.55c-1.933,-1.033 -3.1,-1.55 -3.5,-1.55c-1,0 -1.933,0.517 -2.8,1.55c-0.867,1 -1.3,2.117 -1.3,3.35l-0,0.65c0.567,-0.267 1.117,-0.533 1.65,-0.8c0.767,-0.333 1.333,-0.5 1.7,-0.5c0.933,0 2.15,0.583 3.65,1.75c-1.467,1.433 -2.933,2.367 -4.4,2.8c-0.852,0.22 -2.136,0.353 -3.85,0.4l-0,4.7l-1.15,0l0,0.15l2.9,0c1.367,0 2.9,-0.567 4.6,-1.7c0.733,-0.5 2.033,-1.567 3.9,-3.2c1.3,-1.133 2.183,-1.7 2.65,-1.7l0.35,0.25c-0,4.233 1.033,6.35 3.1,6.35l2.65,0l-0,-4.75c-0.537,0.067 -1.021,0.1 -1.45,0.1c-2.5,0 -3.717,-0.65 -3.65,-1.95Z" style="fill:#f00;"/><path d="M244.8,44.15l0.35,-0l-0.35,-0Z" style="fill:#f00;"/><path d="M126.4,59.8l2.3,-2.8l-2.3,-2.8l-2.3,2.8l2.3,2.8Z"/><path d="M41.65,56.05l-2.05,-2.45l-2,2.45l2,2.5l2.05,-2.5Z"/><path d="M35.6,53.55l-2,2.45l2,2.55l2,-2.5l-2,-2.5Z"/><path d="M152.45,45.25c0,-1.4 -0.233,-2.6 -0.7,-3.6c-0.333,-0.767 -0.967,-1.733 -1.9,-2.9l-0.85,4.05c0.467,0.667 0.95,1.333 1.45,2c0.633,1 0.95,1.75 0.95,2.25c-0,2.567 -1.517,4.783 -4.55,6.65c-2.533,1.567 -4.967,2.35 -7.3,2.35c1.867,1.567 3.717,2.35 5.55,2.35c2.133,-0 3.933,-1.6 5.4,-4.8c1.3,-2.733 1.95,-5.517 1.95,-8.35Z"/><path d="M118.65,36.45c-1.7,2.033 -2.55,4 -2.55,5.9c0,4.733 3.017,7.1 9.05,7.1c9.833,0 14.75,-3.367 14.75,-10.1c-0,-2.533 -0.683,-4.367 -2.05,-5.5c-0.2,1.133 -0.617,2.7 -1.25,4.7c1.167,1.067 1.75,2.2 1.75,3.4c-0.767,1.067 -2.583,1.933 -5.45,2.6c-2.3,0.567 -4.333,0.85 -6.1,0.85c-1.967,-0 -3.767,-0.317 -5.4,-0.95c-2.367,-0.933 -3.55,-2.35 -3.55,-4.25c0,-0.833 0.267,-2.083 0.8,-3.75Z"/><path d="M105.25,19.4c-1.367,2.233 -2.05,3.567 -2.05,4l0.5,25.65c1.167,-1.167 1.75,-4.267 1.75,-9.3l-0.2,-20.35Z"/><path d="M258.2,19.4c-1.367,2.233 -2.05,3.567 -2.05,4l0.5,25.65c1.167,-1.167 1.75,-4.267 1.75,-9.3l-0.2,-20.35Z"/><path d="M96.45,21.2c0,-0.167 0.05,-0.433 0.15,-0.8c0.1,-0.4 0.15,-0.7 0.15,-0.9l-0.05,-0.55c-1.167,0.967 -2.083,2.617 -2.75,4.95c0.1,0.667 0.5,1.5 1.2,2.5c0.467,3.5 0.7,8.783 0.7,15.85c0,1.367 -1.033,2.017 -3.1,1.95l-0.55,-0.05l-1.5,-0l0,4.85l2.9,-0c1.5,-0 2.583,-1 3.25,-3c0.467,-1.4 0.7,-3.183 0.7,-5.35l-0,-4.45c-0,-0.833 -0.05,-2.05 -0.15,-3.65c-0.133,-1.633 -0.2,-2.867 -0.2,-3.7c0,-0.4 0.167,-1.067 0.5,-2c0.367,-0.933 0.55,-1.7 0.55,-2.3c-0,-0.233 -0.3,-0.7 -0.9,-1.4c-0.6,-0.767 -0.9,-1.417 -0.9,-1.95Z"/><path d="M71.3,20.2c-0.4,0.5 -0.783,0.983 -1.15,1.45c-0.3,0.467 -0.45,1.117 -0.45,1.95c0,6.5 0.033,10.667 0.1,12.5c0.2,6.267 0.7,10.05 1.5,11.35c0.667,1.033 1.583,1.55 2.75,1.55l3.1,0l0,-4.85c-2.533,-0 -4.167,-0.6 -4.9,-1.8c-0.633,-1.033 -0.95,-3.217 -0.95,-6.55l-0,-15.6Z"/><path d="M249.7,19.5l-0.05,-0.55c-1.167,0.967 -2.083,2.617 -2.75,4.95c0.1,0.667 0.5,1.5 1.2,2.5c0.467,3.5 0.7,8.783 0.7,15.85c-0,1.367 -1.033,2.017 -3.1,1.95l-0.55,-0.05l-1.5,-0l0,4.85l2.9,-0c1.5,-0 2.583,-1 3.25,-3c0.467,-1.4 0.7,-3.183 0.7,-5.35l0,-4.45c0,-0.833 -0.05,-2.05 -0.15,-3.65c-0.133,-1.633 -0.2,-2.867 -0.2,-3.7c0,-0.4 0.167,-1.067 0.5,-2c0.367,-0.933 0.55,-1.7 0.55,-2.3c0,-0.233 -0.3,-0.7 -0.9,-1.4c-0.6,-0.767 -0.9,-1.417 -0.9,-1.95c0,-0.167 0.05,-0.433 0.15,-0.8c0.1,-0.4 0.15,-0.7 0.15,-0.9Z"/><path d="M204.3,28.35c-0.6,2.667 -0.883,4.083 -0.85,4.25l1.35,9.25c-0.533,0.833 -1.45,1.533 -2.75,2.1c-1.133,0.533 -2.217,0.8 -3.25,0.8c-1.033,0 -2,-0.567 -2.9,-1.7l-0,4.9c-0,0.967 0.867,1.45 2.6,1.45c1.933,-0 3.3,-0.4 4.1,-1.2c0.4,-0.367 1.267,-1.733 2.6,-4.1c0.267,1 0.533,2.017 0.8,3.05c0.433,1.233 1.017,1.85 1.75,1.85l2.3,0l-0,-0.15l1.85,0c0.333,0 0.667,-0.217 1,-0.65c0.233,-0.433 0.483,-0.85 0.75,-1.25c1.6,2 3.133,3 4.6,3c0.6,0 1.017,-0.233 1.25,-0.7c0.3,-0.7 0.517,-1.117 0.65,-1.25c0.8,0.567 1.367,0.85 1.7,0.85l2.8,0l-0,-4.8c-1.867,-0 -3.283,-0.467 -4.25,-1.4c-0.333,-0.333 -0.867,-1.2 -1.6,-2.6c-0.5,-0.933 -1.133,-1.4 -1.9,-1.4c-0.633,-0 -1.467,0.783 -2.5,2.35c-1.133,1.7 -2,2.65 -2.6,2.85c-0.467,0.133 -1.517,0.2 -3.15,0.2l-0,0.1c-0.339,-0.004 -0.589,-0.054 -0.75,-0.15c-0.6,-0.333 -1.333,-2.75 -2.2,-7.25c-0.433,-2.233 -0.9,-5.033 -1.4,-8.4Zm13.35,14.6c0.3,1.167 0.45,1.783 0.45,1.85l0,0.85c-0.533,-0.267 -1.1,-0.633 -1.7,-1.1c-0.833,-0.633 -1.25,-1.15 -1.25,-1.55c-0,-0.233 0.533,-0.967 1.6,-2.2c0.367,0.567 0.667,1.283 0.9,2.15Z"/><path d="M63.3,19.5l-0.05,-0.55c-1.167,0.967 -2.083,2.617 -2.75,4.95c0.1,0.667 0.5,1.5 1.2,2.5c0.467,3.5 0.7,8.783 0.7,15.85c-0,1.367 -1.033,2.017 -3.1,1.95l-0.75,-0.05l-0,-0.1c-1.867,-0 -3.283,-0.467 -4.25,-1.4c-0.333,-0.333 -0.867,-1.2 -1.6,-2.6c-0.5,-0.933 -1.133,-1.4 -1.9,-1.4c-0.633,-0 -1.467,0.783 -2.5,2.35c-1.133,1.7 -2,2.65 -2.6,2.85c-0.467,0.133 -1.517,0.2 -3.15,0.2l-0,0.2l-0.05,-0c-0.767,0.067 -1.283,0.1 -1.55,0.1c-1.033,0 -1.75,-0.25 -2.15,-0.75c-0.533,-0.633 -0.817,-1.767 -0.85,-3.4c-0.933,1.867 -1.567,2.983 -1.9,3.35c-0.4,0.467 -1.083,0.7 -2.05,0.7c-0.2,-0 -0.683,-0.017 -1.45,-0.05c-0.767,-0.033 -1.467,-0.05 -2.1,-0.05l0,0.05l-0.6,0c-0.867,0 -1.5,-0.15 -1.9,-0.45c-0.333,-0.3 -0.95,-1.117 -1.85,-2.45l-1.5,3.55c0.767,1.5 1.25,2.483 1.45,2.95c0.367,1.033 0.55,2.117 0.55,3.25c0,1.533 -0.733,2.7 -2.2,3.5c-1.133,0.567 -2.433,0.85 -3.9,0.85c-3.833,-0 -5.75,-1.867 -5.75,-5.6c-0,-0.667 0.283,-2.317 0.85,-4.95c-0.667,0.4 -1.25,1.567 -1.75,3.5c-0.4,1.633 -0.6,3.05 -0.6,4.25c-0,4.933 1.967,7.4 5.9,7.4c2.667,-0 4.833,-1.017 6.5,-3.05c1.633,-2 2.45,-4.65 2.45,-7.95l5.85,-0c0.767,-0 1.383,-0.35 1.85,-1.05c0.067,-0.1 0.433,-0.85 1.1,-2.25c0.333,0.733 0.817,1.433 1.45,2.1c0.733,0.8 1.367,1.2 1.9,1.2l4.15,-0l-0,-0.15l1.4,0c0.333,0 0.667,-0.217 1,-0.65c0.233,-0.433 0.483,-0.85 0.75,-1.25c1.6,2 3.133,3 4.6,3c0.6,0 1.017,-0.233 1.25,-0.7c0.3,-0.7 0.517,-1.117 0.65,-1.25c0.8,0.567 1.367,0.85 1.7,0.85l1.5,0l-0,0.15l2.9,-0c1.5,-0 2.583,-1 3.25,-3c0.467,-1.4 0.7,-3.183 0.7,-5.35l0,-4.45c0,-0.833 -0.05,-2.05 -0.15,-3.65c-0.133,-1.633 -0.2,-2.867 -0.2,-3.7c-0,-0.4 0.167,-1.067 0.5,-2c0.367,-0.933 0.55,-1.7 0.55,-2.3c-0,-0.233 -0.3,-0.7 -0.9,-1.4c-0.6,-0.767 -0.9,-1.417 -0.9,-1.95c-0,-0.167 0.05,-0.433 0.15,-0.8c0.1,-0.4 0.15,-0.7 0.15,-0.9Zm-11.3,25.3l-0,0.85c-0.533,-0.267 -1.1,-0.633 -1.7,-1.1c-0.833,-0.633 -1.25,-1.15 -1.25,-1.55c-0,-0.233 0.533,-0.967 1.6,-2.2c0.367,0.567 0.667,1.283 0.9,2.15c0.3,1.167 0.45,1.783 0.45,1.85Z"/><path d="M271.25,39.85c-0.5,-1.7 -1.217,-2.55 -2.15,-2.55c-0.8,-0 -1.533,0.85 -2.2,2.55c-0.633,1.5 -0.95,2.8 -0.95,3.9c0,1.933 0.617,2.9 1.85,2.9c0.967,-0 1.85,-0.633 2.65,-1.9c0.233,0.567 0.35,1.1 0.35,1.6c-0,2.8 -1.617,5.033 -4.85,6.7c-2.5,1.267 -5.067,1.9 -7.7,1.9c1.267,0.633 2.15,1.05 2.65,1.25c0.867,0.3 1.783,0.45 2.75,0.45c2.667,-0 4.733,-1.35 6.2,-4.05c1.3,-2.367 1.95,-5.283 1.95,-8.75c-0,-1.367 -0.183,-2.7 -0.55,-4Zm-1.65,2.75c0,0.3 -0.133,0.55 -0.4,0.75c-0.267,0.2 -0.533,0.3 -0.8,0.3c-0.033,-0 -0.383,-0.2 -1.05,-0.6c0.3,-0.867 0.6,-1.667 0.9,-2.4c0.9,0.533 1.35,1.183 1.35,1.95Z"/><path d="M189.8,19.5l-0.05,-0.55c-1.167,0.967 -2.083,2.617 -2.75,4.95c0.1,0.667 0.5,1.5 1.2,2.5c0.467,3.5 0.7,8.783 0.7,15.85c0,1.367 -1.033,2.017 -3.1,1.95l-0.85,-0.05c-1.6,-0 -2.733,-0.567 -3.4,-1.7c-0.6,-0.967 -0.9,-2.467 -0.9,-4.5c0,-2.367 -0.133,-5.5 -0.4,-9.4c-0.267,-4.767 -0.433,-7.9 -0.5,-9.4c-1.367,1.333 -2.05,2.767 -2.05,4.3c0,1.9 0.133,4.767 0.4,8.6c0.3,3.833 0.45,6.7 0.45,8.6c0,1.567 -0.4,2.583 -1.2,3.05c-0.435,0.261 -1.235,0.411 -2.4,0.45c-1.385,-0.026 -2.185,-0.092 -2.4,-0.2c-0.833,-0.467 -1.533,-2.45 -2.1,-5.95c-0.433,-2.733 -0.65,-5.05 -0.65,-6.95c-0.867,1.367 -1.283,2.233 -1.25,2.6l0.2,3.2c-1.933,1.267 -3.317,2.433 -4.15,3.5c-1.233,1.533 -1.85,3.383 -1.85,5.55c0,0.767 0.7,1.15 2.1,1.15c1.367,-0 2.333,-0.15 2.9,-0.45c0.733,-0.367 1.467,-1.2 2.2,-2.5c0.333,1.033 0.667,2.067 1,3.1c0.5,1.2 1.15,1.8 1.95,1.8l3.6,0c0.667,0 1.3,-0.55 1.9,-1.65c0.867,-1.7 1.317,-2.567 1.35,-2.6c0.4,0.9 0.8,1.8 1.2,2.7c0.5,1.033 1.15,1.55 1.95,1.55l3.75,0c1.5,0 2.583,-1 3.25,-3c0.467,-1.4 0.7,-3.183 0.7,-5.35l0,-4.45c0,-0.833 -0.05,-2.05 -0.15,-3.65c-0.133,-1.633 -0.2,-2.867 -0.2,-3.7c0,-0.4 0.167,-1.067 0.5,-2c0.367,-0.933 0.55,-1.7 0.55,-2.3c0,-0.233 -0.3,-0.7 -0.9,-1.4c-0.6,-0.767 -0.9,-1.417 -0.9,-1.95c0,-0.167 0.05,-0.433 0.15,-0.8c0.1,-0.4 0.15,-0.7 0.15,-0.9Zm-21.55,22.35c-0.6,0.2 -1.067,0.3 -1.4,0.3c-0.4,-0 -0.917,-0.133 -1.55,-0.4c1.333,-1.067 2.533,-1.917 3.6,-2.55c0.233,1.067 0.35,1.7 0.35,1.9c0,0.267 -0.333,0.517 -1,0.75Z"/><path d="M20.65,40.15l2.3,-2.75l-2.35,-2.85l-2.25,2.85l2.3,2.75Z"/><path d="M129.1,23.8c0,1.367 -0.25,2.05 -0.75,2.05c-0.267,0 -0.483,-0.45 -0.65,-1.35l-0.2,0.1c-0.1,0.667 -0.2,1.117 -0.3,1.35c-0.167,0.567 -0.4,0.85 -0.7,0.85c-0.3,-0 -0.45,-0.5 -0.45,-1.5l-0.25,0.05c-0.167,0.733 -0.25,1.183 -0.25,1.35c-0,0.433 0.067,0.783 0.2,1.05c0.167,0.333 0.4,0.5 0.7,0.5c0.267,-0 0.517,-0.117 0.75,-0.35c0.233,-0.233 0.367,-0.517 0.4,-0.85c0.233,0.2 0.483,0.3 0.75,0.3c0.767,0 1.15,-0.783 1.15,-2.35c0,-0.4 -0.05,-0.85 -0.15,-1.35l-0.25,0.15Z"/><path d="M20.55,18.9c-0.667,-0 -1.183,0.367 -1.55,1.1c-0.3,0.633 -0.45,1.4 -0.45,2.3c-0,1.433 0.517,2.15 1.55,2.15c0.6,0 1.117,-0.3 1.55,-0.9c0.433,-0.6 0.65,-1.283 0.65,-2.05c-0,-0.633 -0.167,-1.217 -0.5,-1.75c-0.333,-0.567 -0.75,-0.85 -1.25,-0.85Zm-0.15,3.8c-0.9,0 -1.35,-0.35 -1.35,-1.05c-0,-0.8 0.283,-1.2 0.85,-1.2c0.267,0 0.583,0.167 0.95,0.5c0.433,0.367 0.65,0.7 0.65,1c0,0.5 -0.367,0.75 -1.1,0.75Z"/><path d="M199.1,21.75c0.4,0.133 0.717,0.2 0.95,0.2c0.967,0 2.1,-0.817 3.4,-2.45c0.533,0.4 1,0.7 1.4,0.9l0.1,-1.7c-0.267,-0.233 -0.483,-0.4 -0.65,-0.5c0.367,-0.867 0.55,-1.533 0.55,-2c0,-1 -0.383,-1.5 -1.15,-1.5c-0.567,0 -1.05,0.35 -1.45,1.05c-0.367,0.6 -0.55,1.2 -0.55,1.8c0,0.467 0.35,0.967 1.05,1.5c-1.3,1.2 -2.517,2.1 -3.65,2.7Zm3.75,-5.6c0.6,0.1 0.9,0.45 0.9,1.05c0,0.133 -0.017,0.3 -0.05,0.5c-0.767,-0.433 -1.15,-0.85 -1.15,-1.25c0.067,-0.167 0.167,-0.267 0.3,-0.3Z"/><path d="M180.85,14.15c0,-0.4 -0.05,-0.85 -0.15,-1.35l-0.25,0.15c0,1.367 -0.25,2.05 -0.75,2.05c-0.267,0 -0.483,-0.45 -0.65,-1.35l-0.2,0.1c-0.1,0.667 -0.2,1.117 -0.3,1.35c-0.167,0.567 -0.4,0.85 -0.7,0.85c-0.3,0 -0.45,-0.5 -0.45,-1.5l-0.25,0.05c-0.167,0.733 -0.25,1.183 -0.25,1.35c-0,0.433 0.067,0.783 0.2,1.05c0.167,0.333 0.4,0.5 0.7,0.5c0.267,-0 0.517,-0.117 0.75,-0.35c0.233,-0.233 0.367,-0.517 0.4,-0.85c0.233,0.2 0.483,0.3 0.75,0.3c0.767,0 1.15,-0.783 1.15,-2.35Z"/><path d="M250.25,13.85c0,-0.633 -0.167,-1.217 -0.5,-1.75c-0.333,-0.567 -0.75,-0.85 -1.25,-0.85c-0.667,0 -1.183,0.367 -1.55,1.1c-0.3,0.633 -0.45,1.4 -0.45,2.3c0,1.433 0.517,2.15 1.55,2.15c0.6,-0 1.117,-0.3 1.55,-0.9c0.433,-0.6 0.65,-1.283 0.65,-2.05Zm-1.9,1.2c-0.9,-0 -1.35,-0.35 -1.35,-1.05c-0,-0.8 0.283,-1.2 0.85,-1.2c0.267,-0 0.583,0.167 0.95,0.5c0.433,0.367 0.65,0.7 0.65,1c0,0.5 -0.367,0.75 -1.1,0.75Z"/><path d="M96.4,11.3c-0.333,-0.567 -0.75,-0.85 -1.25,-0.85c-0.667,0 -1.183,0.367 -1.55,1.1c-0.3,0.633 -0.45,1.4 -0.45,2.3c-0,1.433 0.517,2.15 1.55,2.15c0.6,0 1.117,-0.3 1.55,-0.9c0.433,-0.6 0.65,-1.283 0.65,-2.05c-0,-0.633 -0.167,-1.217 -0.5,-1.75Zm-0.3,2.2c0,0.5 -0.367,0.75 -1.1,0.75c-0.9,0 -1.35,-0.35 -1.35,-1.05c-0,-0.8 0.283,-1.2 0.85,-1.2c0.267,0 0.583,0.167 0.95,0.5c0.433,0.367 0.65,0.7 0.65,1Z"/><path d="M127.516,62.926l-4.4,3.5c-0.648,0.515 -0.755,1.46 -0.24,2.108c0.515,0.648 1.46,0.755 2.108,0.24l4.4,-3.5c0.648,-0.515 0.755,-1.46 0.24,-2.108c-0.515,-0.648 -1.46,-0.755 -2.108,-0.24Z"/><path d="M52.06,58.631l-4.35,3.5c-0.645,0.519 -0.748,1.464 -0.229,2.109c0.519,0.645 1.464,0.748 2.109,0.229l4.35,-3.5c0.645,-0.519 0.748,-1.464 0.229,-2.109c-0.519,-0.645 -1.464,-0.748 -2.109,-0.229Z"/><path d="M168.516,53.976l-4.4,3.5c-0.648,0.515 -0.755,1.46 -0.24,2.108c0.515,0.648 1.46,0.755 2.108,0.24l4.4,-3.5c0.648,-0.515 0.755,-1.46 0.24,-2.108c-0.515,-0.648 -1.46,-0.755 -2.108,-0.24Z"/><path d="M190.416,53.976l-4.4,3.5c-0.648,0.515 -0.755,1.46 -0.24,2.108c0.515,0.648 1.46,0.755 2.108,0.24l4.4,-3.5c0.648,-0.515 0.755,-1.46 0.24,-2.108c-0.515,-0.648 -1.46,-0.755 -2.108,-0.24Z"/><path d="M232.31,14.431l-4.35,3.5c-0.645,0.519 -0.748,1.464 -0.229,2.109c0.519,0.645 1.464,0.748 2.109,0.229l4.35,-3.5c0.645,-0.519 0.748,-1.464 0.229,-2.109c-0.519,-0.645 -1.464,-0.748 -2.109,-0.229Z"/><path d="M268.91,14.431l-4.35,3.5c-0.645,0.519 -0.748,1.464 -0.229,2.109c0.519,0.645 1.464,0.748 2.109,0.229l4.35,-3.5c0.645,-0.519 0.748,-1.464 0.229,-2.109c-0.519,-0.645 -1.464,-0.748 -2.109,-0.229Z"/><path d="M149.116,14.426l-4.4,3.5c-0.648,0.515 -0.755,1.46 -0.24,2.108c0.515,0.648 1.46,0.755 2.108,0.24l4.4,-3.5c0.648,-0.515 0.755,-1.46 0.24,-2.108c-0.515,-0.648 -1.46,-0.755 -2.108,-0.24Z"/><path d="M78.066,12.876l-4.4,3.5c-0.648,0.515 -0.755,1.46 -0.24,2.108c0.515,0.648 1.46,0.755 2.108,0.24l4.4,-3.5c0.648,-0.515 0.755,-1.46 0.24,-2.108c-0.515,-0.648 -1.46,-0.755 -2.108,-0.24Z"/><path d="M63.374,10.57l-4.4,3.45c-0.651,0.51 -0.765,1.454 -0.254,2.106c0.51,0.651 1.454,0.765 2.106,0.254l4.4,-3.45c0.651,-0.51 0.765,-1.454 0.254,-2.106c-0.51,-0.651 -1.454,-0.765 -2.106,-0.254Z"/><path d="M179.766,7.076l-4.4,3.5c-0.648,0.515 -0.755,1.46 -0.24,2.108c0.515,0.648 1.46,0.755 2.108,0.24l4.4,-3.5c0.648,-0.515 0.755,-1.46 0.24,-2.108c-0.515,-0.648 -1.46,-0.755 -2.108,-0.24Z"/></g></svg>