<?xml version="1.0" encoding="UTF-8" standalone="no"?><!DOCTYPE svg PUBLIC "-//W3C//DTD SVG 1.1//EN" "http://www.w3.org/Graphics/SVG/1.1/DTD/svg11.dtd"><svg width="100%" height="100%" viewBox="0 0 90 97" version="1.1" xmlns="http://www.w3.org/2000/svg" xmlns:xlink="http://www.w3.org/1999/xlink" xml:space="preserve" xmlns:serif="http://www.serif.com/" style="fill-rule:evenodd;clip-rule:evenodd;stroke-linejoin:round;stroke-miterlimit:2;"><g><path d="M52.35,50.75c-1.8,0 -3.483,-0.383 -5.05,-1.15c-0.7,-0.367 -1.8,-1.083 -3.3,-2.15c-1.067,-0.767 -1.883,-1.15 -2.45,-1.15c-1.067,0 -1.933,0.667 -2.6,2c-0.4,0.8 -0.8,2.05 -1.2,3.75c0.433,-0.267 0.867,-0.55 1.3,-0.85c0.533,-0.3 0.983,-0.45 1.35,-0.45c0.567,0 1.35,0.333 2.35,1c0.067,0 0.817,0.533 2.25,1.6c-1.033,1 -1.917,1.683 -2.65,2.05c-0.667,0.3 -1.483,0.45 -2.45,0.45c-0.233,0 -0.75,-0.017 -1.55,-0.05c-0.243,-0.011 -0.477,-0.027 -0.7,-0.05l-0,4.7l-1.3,-0l0,0.15l2.8,0c1.067,0 2.1,-0.35 3.1,-1.05c0.367,-0.267 1.15,-0.983 2.35,-2.15c0.9,-0.867 1.683,-1.417 2.35,-1.65c0.6,-0.2 1.317,-0.317 2.15,-0.35c0.7,-0.033 1.417,-0.05 2.15,-0.05c0.467,-1.433 0.833,-2.967 1.1,-4.6Z" style="fill:#f00;"/><path d="M60.9,54.4c0.467,0.667 0.95,1.333 1.45,2c0.633,1 0.95,1.75 0.95,2.25c-0,2.567 -1.517,4.783 -4.55,6.65c-2.533,1.567 -4.967,2.35 -7.3,2.35c1.867,1.567 3.717,2.35 5.55,2.35c2.133,0 3.933,-1.6 5.4,-4.8c1.3,-2.733 1.95,-5.517 1.95,-8.35c-0,-1.4 -0.233,-2.6 -0.7,-3.6c-0.333,-0.767 -0.967,-1.733 -1.9,-2.9l-0.85,4.05Z"/><path d="M71.4,31c-1.367,2.233 -2.05,3.567 -2.05,4l0.5,25.65c1.167,-1.167 1.75,-4.267 1.75,-9.3l-0.2,-20.35Z"/><path d="M6.85,33.25c-0.3,0.467 -0.45,1.117 -0.45,1.95c-0,6.5 0.033,10.667 0.1,12.5c0.2,6.267 0.7,10.05 1.5,11.35c0.667,1.033 1.583,1.55 2.75,1.55l3.8,0c0.733,0 1.35,-0.35 1.85,-1.05c0.133,-0.2 0.5,-0.95 1.1,-2.25c0.733,1.4 1.133,2.133 1.2,2.2c0.5,0.733 1.1,1.1 1.8,1.1l2.65,0l-0,-0.15l1.75,-0c0.333,-0 0.667,-0.217 1,-0.65c0.233,-0.433 0.483,-0.85 0.75,-1.25c1.6,2 3.133,3 4.6,3c0.6,0 1.017,-0.233 1.25,-0.7c0.3,-0.7 0.517,-1.117 0.65,-1.25c0.8,0.567 1.367,0.85 1.7,0.85l2.8,-0l-0,-4.8c-1.867,-0 -3.283,-0.467 -4.25,-1.4c-0.333,-0.333 -0.867,-1.2 -1.6,-2.6c-0.5,-0.933 -1.133,-1.4 -1.9,-1.4c-0.633,-0 -1.467,0.783 -2.5,2.35c-1.133,1.7 -2,2.65 -2.6,2.85c-0.467,0.133 -1.517,0.2 -3.15,0.2l-0,0.05c-1.072,-0.024 -1.739,-0.108 -2,-0.25c-0.733,-0.467 -1.1,-1.75 -1.1,-3.85c-0.6,0.567 -1,1.3 -1.2,2.2c-0.167,0.767 -0.467,1.25 -0.9,1.45c-0.583,0.278 -1.667,0.428 -3.25,0.45c-2.164,-0.072 -3.581,-0.655 -4.25,-1.75c-0.633,-1.033 -0.95,-3.217 -0.95,-6.55l0,-15.6c-0.4,0.5 -0.783,0.983 -1.15,1.45Zm22.55,22.9c-0.833,-0.633 -1.25,-1.15 -1.25,-1.55c-0,-0.233 0.533,-0.967 1.6,-2.2c0.367,0.567 0.667,1.283 0.9,2.15c0.3,1.167 0.45,1.783 0.45,1.85l0,0.85c-0.533,-0.267 -1.1,-0.633 -1.7,-1.1Z"/><path d="M85,55.45c0,-1.367 -0.183,-2.7 -0.55,-4c-0.5,-1.7 -1.217,-2.55 -2.15,-2.55c-0.8,-0 -1.533,0.85 -2.2,2.55c-0.633,1.5 -0.95,2.8 -0.95,3.9c0,1.933 0.617,2.9 1.85,2.9c0.967,0 1.85,-0.633 2.65,-1.9c0.233,0.567 0.35,1.1 0.35,1.6c0,2.8 -1.617,5.033 -4.85,6.7c-2.5,1.267 -5.067,1.9 -7.7,1.9c1.267,0.633 2.15,1.05 2.65,1.25c0.867,0.3 1.783,0.45 2.75,0.45c2.667,-0 4.733,-1.35 6.2,-4.05c1.3,-2.367 1.95,-5.283 1.95,-8.75Zm-2.2,-1.25c-0,0.3 -0.133,0.55 -0.4,0.75c-0.267,0.2 -0.533,0.3 -0.8,0.3c-0.033,-0 -0.383,-0.2 -1.05,-0.6c0.3,-0.867 0.6,-1.667 0.9,-2.4c0.9,0.533 1.35,1.183 1.35,1.95Z"/><path d="M17.35,46.55l2.35,-2.8l-2.3,-2.85l-2.3,2.85l2.25,2.8Z"/><path d="M60.75,28.35c-0.333,-0.567 -0.75,-0.85 -1.25,-0.85c-0.667,0 -1.183,0.367 -1.55,1.1c-0.3,0.633 -0.45,1.4 -0.45,2.3c0,1.433 0.517,2.15 1.55,2.15c0.6,0 1.117,-0.3 1.55,-0.9c0.433,-0.6 0.65,-1.283 0.65,-2.05c0,-0.633 -0.167,-1.217 -0.5,-1.75Zm-1.4,2.95c-0.9,0 -1.35,-0.35 -1.35,-1.05c0,-0.8 0.283,-1.2 0.85,-1.2c0.267,0 0.583,0.167 0.95,0.5c0.433,0.367 0.65,0.7 0.65,1c0,0.5 -0.367,0.75 -1.1,0.75Z"/><path d="M28.85,26.7c-0.667,-0 -1.183,0.367 -1.55,1.1c-0.3,0.633 -0.45,1.4 -0.45,2.3c0,1.433 0.517,2.15 1.55,2.15c0.6,0 1.117,-0.3 1.55,-0.9c0.433,-0.6 0.65,-1.283 0.65,-2.05c0,-0.633 -0.167,-1.217 -0.5,-1.75c-0.333,-0.567 -0.75,-0.85 -1.25,-0.85Zm-0.15,3.8c-0.9,0 -1.35,-0.35 -1.35,-1.05c0,-0.8 0.283,-1.2 0.85,-1.2c0.267,0 0.583,0.167 0.95,0.5c0.433,0.367 0.65,0.7 0.65,1c-0,0.5 -0.367,0.75 -1.1,0.75Z"/><path d="M81.824,29.17l-4.4,3.45c-0.651,0.51 -0.765,1.454 -0.254,2.106c0.51,0.651 1.454,0.765 2.106,0.254l4.4,-3.45c0.651,-0.51 0.765,-1.454 0.254,-2.106c-0.51,-0.651 -1.454,-0.765 -2.106,-0.254Z"/><path d="M42.066,26.576l-4.4,3.5c-0.648,0.515 -0.755,1.46 -0.24,2.108c0.515,0.648 1.46,0.755 2.108,0.24l4.4,-3.5c0.648,-0.515 0.755,-1.46 0.24,-2.108c-0.515,-0.648 -1.46,-0.755 -2.108,-0.24Z"/><path d="M14.81,26.431l-4.35,3.5c-0.645,0.519 -0.748,1.464 -0.229,2.109c0.519,0.645 1.464,0.748 2.109,0.229l4.35,-3.5c0.645,-0.519 0.748,-1.464 0.229,-2.109c-0.519,-0.645 -1.464,-0.748 -2.109,-0.229Z"/></g></svg>