<?xml version="1.0" encoding="UTF-8" standalone="no"?><!DOCTYPE svg PUBLIC "-//W3C//DTD SVG 1.1//EN" "http://www.w3.org/Graphics/SVG/1.1/DTD/svg11.dtd"><svg width="100%" height="100%" viewBox="0 0 205 86" version="1.1" xmlns="http://www.w3.org/2000/svg" xmlns:xlink="http://www.w3.org/1999/xlink" xml:space="preserve" xmlns:serif="http://www.serif.com/" style="fill-rule:evenodd;clip-rule:evenodd;stroke-linejoin:round;stroke-miterlimit:2;"><g><path d="M95.95,43.95l-0.2,-20.35c-1.367,2.233 -2.05,3.567 -2.05,4l0.5,25.65c1.167,-1.167 1.75,-4.267 1.75,-9.3Z"/><path d="M179.5,23.6c-1.367,2.233 -2.05,3.567 -2.05,4l0.5,25.65c1.167,-1.167 1.75,-4.267 1.75,-9.3l-0.2,-20.35Z"/><path d="M87.25,23.7l-0.05,-0.55c-1.167,0.967 -2.083,2.617 -2.75,4.95c0.1,0.667 0.5,1.5 1.2,2.5c0.467,3.5 0.7,8.783 0.7,15.85c0,1.367 -1.033,2.017 -3.1,1.95l-2.05,-0.05l0,0.2c-0.423,0.013 -0.856,-0.004 -1.3,-0.05c-0.367,-0.967 -0.733,-1.917 -1.1,-2.85c-0.533,-1.233 -1.1,-1.85 -1.7,-1.85c-0.7,0 -1.433,0.917 -2.2,2.75c-0.7,1.667 -1.05,3.033 -1.05,4.1c0,1.3 0.517,2.117 1.55,2.45c0.9,0.167 1.817,0.333 2.75,0.5c-1.1,2.033 -2.233,3.517 -3.4,4.45c-1.333,1.067 -2.917,1.6 -4.75,1.6c-0.967,-0 -2.383,-0.083 -4.25,-0.25c1.733,2.1 3.75,3.15 6.05,3.15c1.967,0 3.65,-1 5.05,-3c1,-1.433 1.95,-3.55 2.85,-6.35l4.4,-0c1.5,-0 2.583,-1 3.25,-3c0.467,-1.4 0.7,-3.183 0.7,-5.35l-0,-4.45c-0,-0.833 -0.05,-2.05 -0.15,-3.65c-0.133,-1.633 -0.2,-2.867 -0.2,-3.7c0,-0.4 0.167,-1.067 0.5,-2c0.367,-0.933 0.55,-1.7 0.55,-2.3c0,-0.233 -0.3,-0.7 -0.9,-1.4c-0.6,-0.767 -0.9,-1.417 -0.9,-1.95c0,-0.167 0.05,-0.433 0.15,-0.8c0.1,-0.4 0.15,-0.7 0.15,-0.9Zm-9.45,26.3c-0.567,-0 -1.25,-0.067 -2.05,-0.2c0,-0.4 -0.067,-0.65 -0.2,-0.75c0.233,-0.6 0.467,-1.133 0.7,-1.6c0.6,0.367 0.983,0.683 1.15,0.95c0.133,0.233 0.267,0.767 0.4,1.6Z"/><path d="M171.6,27.35c-0.6,-0.767 -0.9,-1.417 -0.9,-1.95c0,-0.167 0.05,-0.433 0.15,-0.8c0.1,-0.4 0.15,-0.7 0.15,-0.9l-0.05,-0.55c-1.167,0.967 -2.083,2.617 -2.75,4.95c0.1,0.667 0.5,1.5 1.2,2.5c0.467,3.5 0.7,8.783 0.7,15.85c0,1.367 -1.033,2.017 -3.1,1.95l-0.35,-0l0,-0.05l-1.7,0l0,0.1c-0.268,0.04 -0.568,0.073 -0.9,0.1c-1.067,0.033 -1.917,-0.017 -2.55,-0.15c0.9,-1.1 1.5,-1.9 1.8,-2.4c0.633,-1.033 0.95,-2.017 0.95,-2.95c0,-0.967 -0.317,-1.883 -0.95,-2.75c-0.633,-0.867 -1.333,-1.3 -2.1,-1.3c-1.233,-0 -2.8,0.667 -4.7,2c-1.233,0.867 -2.9,2.283 -5,4.25c-2.167,2 -3.583,3.25 -4.25,3.75c-0.8,-0 -1.55,-0.333 -2.25,-1c-0.7,-0.667 -1.15,-1.467 -1.35,-2.4c-0.433,1.2 -0.883,1.983 -1.35,2.35c-0.367,0.267 -0.967,0.4 -1.8,0.4l-0.35,0c-1.523,-0.039 -2.606,-0.605 -3.25,-1.7c-0.6,-0.967 -0.9,-2.467 -0.9,-4.5c0,-2.367 -0.133,-5.5 -0.4,-9.4c-0.267,-4.767 -0.433,-7.9 -0.5,-9.4c-1.367,1.333 -2.05,2.767 -2.05,4.3c-0,1.9 0.133,4.767 0.4,8.6c0.3,3.833 0.45,6.7 0.45,8.6c0,1.567 -0.4,2.583 -1.2,3.05c-0.5,0.3 -1.467,0.45 -2.9,0.45l-0,0.2c-0.423,0.013 -0.856,-0.004 -1.3,-0.05c-0.367,-0.967 -0.733,-1.917 -1.1,-2.85c-0.533,-1.233 -1.1,-1.85 -1.7,-1.85c-0.7,-0 -1.433,0.917 -2.2,2.75c-0.7,1.667 -1.05,3.033 -1.05,4.1c0,1.3 0.517,2.117 1.55,2.45c0.9,0.167 1.817,0.333 2.75,0.5c-1.1,2.033 -2.233,3.517 -3.4,4.45c-1.333,1.067 -2.917,1.6 -4.75,1.6c-0.967,-0 -2.383,-0.083 -4.25,-0.25c1.733,2.1 3.75,3.15 6.05,3.15c1.967,-0 3.65,-1 5.05,-3c1,-1.433 1.95,-3.55 2.85,-6.35l3.55,-0c0.667,-0 1.3,-0.55 1.9,-1.65c0.867,-1.7 1.317,-2.567 1.35,-2.6c0.4,0.9 0.8,1.8 1.2,2.7c0.5,1.033 1.15,1.55 1.95,1.55l2.05,-0l0,-0.05c0.744,-0.055 1.227,-0.172 1.45,-0.35c0.167,-0.133 0.683,-1.05 1.55,-2.75c1.2,2.133 3.167,3.2 5.9,3.2l18.65,-0.05c1.5,-0 2.583,-1 3.25,-3c0.467,-1.4 0.7,-3.183 0.7,-5.35l0,-4.45c0,-0.833 -0.05,-2.05 -0.15,-3.65c-0.133,-1.633 -0.2,-2.867 -0.2,-3.7c0,-0.4 0.167,-1.067 0.5,-2c0.367,-0.933 0.55,-1.7 0.55,-2.3c0,-0.233 -0.3,-0.7 -0.9,-1.4Zm-45.6,21.05c0.133,0.233 0.267,0.767 0.4,1.6c-0.567,-0 -1.25,-0.067 -2.05,-0.2c0,-0.4 -0.067,-0.65 -0.2,-0.75c0.233,-0.6 0.467,-1.133 0.7,-1.6c0.6,0.367 0.983,0.683 1.15,0.95Zm35.65,-3c0,1.067 -1.483,2.017 -4.45,2.85c-2.333,0.633 -4.167,0.95 -5.5,0.95l-2.2,-0c3.567,-3.967 6.333,-5.95 8.3,-5.95c0.533,-0 1.267,0.233 2.2,0.7c1.1,0.467 1.65,0.95 1.65,1.45Z"/><path d="M112.45,40.3c-0.967,-1 -1.667,-1.817 -2.1,-2.45c-0.567,1.733 -0.85,3.067 -0.85,4c-0,0.133 0.017,0.317 0.05,0.55c0.067,0.267 0.1,0.45 0.1,0.55c-1.033,2.567 -1.55,4.667 -1.55,6.3c0,2.633 0.867,3.95 2.6,3.95c1.4,-0 2.5,-0.783 3.3,-2.35c0.667,-1.367 1,-2.967 1,-4.8c0,-1.4 -0.25,-2.567 -0.75,-3.5c-0.333,-0.6 -0.933,-1.35 -1.8,-2.25Zm1.15,6.8c0,0.367 -0.35,0.767 -1.05,1.2c-0.667,0.433 -1.183,0.65 -1.55,0.65c-0.9,-0 -1.35,-0.717 -1.35,-2.15c-0,-1.1 0.35,-2.1 1.05,-3c1.933,1.8 2.9,2.9 2.9,3.3Z"/><path d="M34.1,20.3c-0.067,0.067 -0.15,0.233 -0.25,0.5c-0.1,0.233 -0.233,0.583 -0.4,1.05c-0.167,0.467 -0.383,1.083 -0.65,1.85c0.1,0.7 0.183,1.267 0.25,1.7c0.067,0.4 0.133,0.733 0.2,1c0.033,0.233 0.067,0.417 0.1,0.55c0.006,0.19 0.04,0.556 0.1,1.1c0.033,0.567 0.1,1.317 0.2,2.25c0.1,0.9 0.2,1.917 0.3,3.05c0.1,1.1 0.2,2.267 0.3,3.5c0.133,1.267 0.233,2.5 0.3,3.7c0.1,1.2 0.183,2.35 0.25,3.45c0.067,1.1 0.1,2.067 0.1,2.9l-1.9,2.3l-0.35,-0l-0,-0.85l-2.75,0c-1.7,0 -3.217,0.617 -4.55,1.85c-1.433,1.367 -2.15,3.067 -2.15,5.1c0,0.933 0.383,1.617 1.15,2.05c0.433,0.267 1.233,0.5 2.4,0.7c1.067,0.2 1.767,0.417 2.1,0.65c-0.333,0.833 -1.7,1.583 -4.1,2.25c-2,0.533 -3.6,0.8 -4.8,0.8c-2.067,0 -3.633,-0.25 -4.7,-0.75c-1.7,-0.8 -2.55,-2.25 -2.55,-4.35c0,-0.9 0.267,-2.05 0.8,-3.45c0.633,-1.7 1,-2.833 1.1,-3.4c-0.9,0.733 -1.767,2.017 -2.6,3.85c-0.9,1.9 -1.35,3.5 -1.35,4.8c-0,2.533 0.917,4.417 2.75,5.65c1.433,1 3.267,1.5 5.5,1.5c5,0 8.683,-1.883 11.05,-5.65c0.767,-1.167 1.15,-2.05 1.15,-2.65c0,-1.033 -0.833,-1.767 -2.5,-2.2c-1.167,-0.233 -2.317,-0.45 -3.45,-0.65c0.406,-0.78 2.622,-1.197 6.65,-1.25l0.85,-0l-0,-0.1l3.4,-0.3c0.2,-0.033 0.417,-0.05 0.65,-0.05l0.8,0c0.333,0 0.7,0.017 1.1,0.05c0.433,0 0.983,0.033 1.65,0.1c0.567,0.167 1.017,0.283 1.35,0.35c0.367,0.067 0.7,0.1 1,0.1l0.5,0c0.167,-0.033 0.367,-0.05 0.6,-0.05c0.233,-0.033 0.5,-0.05 0.8,-0.05c0.3,-0.033 0.633,-0.05 1,-0.05l5.4,-0c0.367,-0 1.1,-0.567 2.2,-1.7c0.633,0.367 1.25,0.733 1.85,1.1c0.733,0.4 1.383,0.6 1.95,0.6c1.367,-0 2.7,-0.783 4,-2.35c0.5,0.367 1.017,0.75 1.55,1.15c0.7,0.533 1.2,0.8 1.5,0.8c1,0 1.767,-1.183 2.3,-3.55c0.367,-1.633 0.55,-3.3 0.55,-5c-0,-0.3 -0.15,-1 -0.45,-2.1c-0.567,1.4 -0.95,2.417 -1.15,3.05c0.367,1.133 0.55,1.833 0.55,2.1l-0.25,0.75c-0.3,0.167 -0.583,0.25 -0.85,0.25c-1.833,0 -2.75,-0.733 -2.75,-2.2c-0,-0.267 0.017,-0.65 0.05,-1.15c0.067,-0.567 0.117,-0.95 0.15,-1.15c-0.7,1.167 -1.4,2.333 -2.1,3.5c-0.8,1.1 -1.85,1.65 -3.15,1.65c-0.967,-0 -1.65,-0.183 -2.05,-0.55c-0.3,-0.3 -0.5,-0.817 -0.6,-1.55c-0.067,-0.8 -0.133,-1.6 -0.2,-2.4c-1,2.067 -1.65,3.217 -1.95,3.45c-0.4,0.3 -1.583,0.45 -3.55,0.45l0,1l-1.2,0.15c-1.333,0.3 -2.3,0.45 -2.9,0.45c0.533,-0.467 1.033,-1.033 1.5,-1.7c0.467,-0.633 0.85,-1.283 1.15,-1.95c0.333,-0.7 0.583,-1.35 0.75,-1.95c0.2,-0.667 0.3,-1.233 0.3,-1.7c0,-0.467 -0.133,-0.933 -0.4,-1.4c-0.267,-0.433 -0.6,-0.833 -1,-1.2c-0.4,-0.4 -0.817,-0.7 -1.25,-0.9c-0.433,-0.233 -0.833,-0.35 -1.2,-0.35c-0.2,0 -0.4,0.017 -0.6,0.05c-0.2,0.067 -0.417,0.183 -0.65,0.35c-0.267,0.133 -0.583,0.367 -0.95,0.7c-0.367,0.3 -0.833,0.717 -1.4,1.25c-0.533,0.533 -1.167,1.2 -1.9,2c-0.733,0.767 -1.6,1.7 -2.6,2.8l0,-2.8c-0.033,-0.867 -0.067,-1.717 -0.1,-2.55c-0.033,-0.833 -0.067,-1.7 -0.1,-2.6c-0.067,-0.9 -0.133,-1.85 -0.2,-2.85c-0.067,-1 -0.167,-2.117 -0.3,-3.35c-0.1,-1.2 -0.217,-2.55 -0.35,-4.05c0.2,-0.133 0.383,-0.35 0.55,-0.65c0.167,-0.267 0.3,-0.567 0.4,-0.9c0.1,-0.3 0.183,-0.617 0.25,-0.95c0.067,-0.3 0.117,-0.533 0.15,-0.7c-0.033,-0.267 -0.333,-0.75 -0.9,-1.45c-0.2,-0.267 -0.367,-0.5 -0.5,-0.7c-0.167,-0.233 -0.3,-0.467 -0.4,-0.7c-0.1,-0.233 -0.183,-0.467 -0.25,-0.7c-0.067,-0.233 -0.117,-0.5 -0.15,-0.8c-0.033,-0 -0.083,0.033 -0.15,0.1Zm10.6,23.1c0.367,0.233 0.7,0.7 1,1.4c-0.3,0.7 -1.517,1.533 -3.65,2.5c-1.167,0.567 -2.25,0.967 -3.25,1.2c-1,0.267 -1.95,0.4 -2.85,0.4c0.867,-1.1 1.65,-2.017 2.35,-2.75c0.7,-0.733 1.333,-1.333 1.9,-1.8c0.533,-0.467 1,-0.783 1.4,-0.95c0.433,-0.2 0.8,-0.3 1.1,-0.3l0.8,0c0.4,0 0.8,0.1 1.2,0.3Z"/><path d="M190.4,41.5c-0.8,0 -1.533,0.85 -2.2,2.55c-0.633,1.5 -0.95,2.8 -0.95,3.9c-0,1.933 0.617,2.9 1.85,2.9c0.967,0 1.85,-0.633 2.65,-1.9c0.233,0.567 0.35,1.1 0.35,1.6c0,2.8 -1.617,5.033 -4.85,6.7c-2.5,1.267 -5.067,1.9 -7.7,1.9c1.267,0.633 2.15,1.05 2.65,1.25c0.867,0.3 1.783,0.45 2.75,0.45c2.667,0 4.733,-1.35 6.2,-4.05c1.3,-2.367 1.95,-5.283 1.95,-8.75c0,-1.367 -0.183,-2.7 -0.55,-4c-0.5,-1.7 -1.217,-2.55 -2.15,-2.55Zm0.5,5.3c-0,0.3 -0.133,0.55 -0.4,0.75c-0.267,0.2 -0.533,0.3 -0.8,0.3c-0.033,0 -0.383,-0.2 -1.05,-0.6c0.3,-0.867 0.6,-1.667 0.9,-2.4c0.9,0.533 1.35,1.183 1.35,1.95Z"/><path d="M112.6,29.55l-2,2.45l2,2.5l2,-2.5l-2,-2.45Z"/><path d="M108.6,29.55l-2,2.45l2,2.45l2,-2.45l-2,-2.45Z"/><path d="M150.3,26.9c-0,-0.4 -0.05,-0.85 -0.15,-1.35l-0.25,0.15c-0,1.367 -0.25,2.05 -0.75,2.05c-0.267,0 -0.483,-0.45 -0.65,-1.35l-0.2,0.1c-0.1,0.667 -0.2,1.117 -0.3,1.35c-0.167,0.567 -0.4,0.85 -0.7,0.85c-0.3,-0 -0.45,-0.5 -0.45,-1.5l-0.25,0.05c-0.167,0.733 -0.25,1.183 -0.25,1.35c0,0.433 0.067,0.783 0.2,1.05c0.167,0.333 0.4,0.5 0.7,0.5c0.267,-0 0.517,-0.117 0.75,-0.35c0.233,-0.233 0.367,-0.517 0.4,-0.85c0.233,0.2 0.483,0.3 0.75,0.3c0.767,-0 1.15,-0.783 1.15,-2.35Z"/><path d="M60.75,20.35c0,-0.633 -0.167,-1.217 -0.5,-1.75c-0.333,-0.567 -0.75,-0.85 -1.25,-0.85c-0.667,0 -1.183,0.367 -1.55,1.1c-0.3,0.633 -0.45,1.4 -0.45,2.3c0,1.433 0.517,2.15 1.55,2.15c0.6,0 1.117,-0.3 1.55,-0.9c0.433,-0.6 0.65,-1.283 0.65,-2.05Zm-2.4,-1.05c0.267,0 0.583,0.167 0.95,0.5c0.433,0.367 0.65,0.7 0.65,1c0,0.5 -0.367,0.75 -1.1,0.75c-0.9,0 -1.35,-0.35 -1.35,-1.05c0,-0.8 0.283,-1.2 0.85,-1.2Z"/><path d="M132.95,13.55c-0.9,0.6 -1.35,1.133 -1.35,1.6c0,0.6 0.217,1.467 0.65,2.6c0.433,1.133 0.65,1.983 0.65,2.55c-0,0.367 -0.05,0.683 -0.15,0.95c1,-0.5 1.5,-1.167 1.5,-2c0,-0.633 -0.217,-1.583 -0.65,-2.85c-0.433,-1.3 -0.65,-2.25 -0.65,-2.85Z"/><path d="M87.8,15.5c-0.333,-0.567 -0.75,-0.85 -1.25,-0.85c-0.667,-0 -1.183,0.367 -1.55,1.1c-0.3,0.633 -0.45,1.4 -0.45,2.3c-0,1.433 0.517,2.15 1.55,2.15c0.6,-0 1.117,-0.3 1.55,-0.9c0.433,-0.6 0.65,-1.283 0.65,-2.05c-0,-0.633 -0.167,-1.217 -0.5,-1.75Zm-1.9,0.7c0.267,-0 0.583,0.167 0.95,0.5c0.433,0.367 0.65,0.7 0.65,1c0,0.5 -0.367,0.75 -1.1,0.75c-0.9,-0 -1.35,-0.35 -1.35,-1.05c-0,-0.8 0.283,-1.2 0.85,-1.2Z"/><path d="M71.55,22.1c0.4,0.133 0.717,0.2 0.95,0.2c0.967,0 2.1,-0.817 3.4,-2.45c0.533,0.4 1,0.7 1.4,0.9l0.1,-1.7c-0.267,-0.233 -0.483,-0.4 -0.65,-0.5c0.367,-0.867 0.55,-1.533 0.55,-2c-0,-1 -0.383,-1.5 -1.15,-1.5c-0.567,0 -1.05,0.35 -1.45,1.05c-0.367,0.6 -0.55,1.2 -0.55,1.8c-0,0.467 0.35,0.967 1.05,1.5c-1.3,1.2 -2.517,2.1 -3.65,2.7Zm4.65,-4.55c0,0.133 -0.017,0.3 -0.05,0.5c-0.767,-0.433 -1.15,-0.85 -1.15,-1.25c0.067,-0.167 0.167,-0.267 0.3,-0.3c0.6,0.1 0.9,0.45 0.9,1.05Z"/><path d="M112.224,55.92l-4.4,3.45c-0.651,0.51 -0.765,1.454 -0.254,2.106c0.51,0.651 1.454,0.765 2.106,0.254l4.4,-3.45c0.651,-0.51 0.765,-1.454 0.254,-2.106c-0.51,-0.651 -1.454,-0.765 -2.106,-0.254Z"/><path d="M189.916,19.826l-4.4,3.5c-0.648,0.515 -0.755,1.46 -0.24,2.108c0.515,0.648 1.46,0.755 2.108,0.24l4.4,-3.5c0.648,-0.515 0.755,-1.46 0.24,-2.108c-0.515,-0.648 -1.46,-0.755 -2.108,-0.24Z"/><path d="M149.066,17.126l-4.4,3.5c-0.648,0.515 -0.755,1.46 -0.24,2.108c0.515,0.648 1.46,0.755 2.108,0.24l4.4,-3.5c0.648,-0.515 0.755,-1.46 0.24,-2.108c-0.515,-0.648 -1.46,-0.755 -2.108,-0.24Z"/><path d="M34.36,13.631l-4.35,3.5c-0.645,0.519 -0.748,1.464 -0.229,2.109c0.519,0.645 1.464,0.748 2.109,0.229l4.35,-3.5c0.645,-0.519 0.748,-1.464 0.229,-2.109c-0.519,-0.645 -1.464,-0.748 -2.109,-0.229Z"/></g></svg>