<?xml version="1.0" encoding="UTF-8" standalone="no"?><!DOCTYPE svg PUBLIC "-//W3C//DTD SVG 1.1//EN" "http://www.w3.org/Graphics/SVG/1.1/DTD/svg11.dtd"><svg width="100%" height="100%" viewBox="0 0 30 27" version="1.1" xmlns="http://www.w3.org/2000/svg" xmlns:xlink="http://www.w3.org/1999/xlink" xml:space="preserve" xmlns:serif="http://www.serif.com/" style="fill-rule:evenodd;clip-rule:evenodd;stroke-linejoin:round;stroke-miterlimit:2;"><g><path d="M15.475,10.04c-0.533,-2.133 -1.083,-4.833 -1.65,-8.1c-0.733,2.567 -1.083,3.933 -1.05,4.1l1.65,8.9c-0.667,0.833 -1.767,1.533 -3.3,2.1c-1.4,0.467 -2.7,0.7 -3.9,0.7c-1.233,0 -2.4,-0.533 -3.5,-1.6l-0,4.7c-0,0.933 1.05,1.4 3.15,1.4c2.267,0 3.9,-0.367 4.9,-1.1c0.467,-0.367 1.5,-1.7 3.1,-4c0.3,1 0.617,1.983 0.95,2.95c0.533,1.2 1.233,1.8 2.1,1.8l1.1,0l0,-4.65c-0.408,-0.02 -0.708,-0.07 -0.9,-0.15c-0.733,-0.333 -1.617,-2.683 -2.65,-7.05Z" style="fill:#f00;"/><path d="M26.275,21.947l-7.35,-0l-0,-4.7l7.35,-0l-0,4.7Z" style="fill-rule:nonzero;"/></g></svg>