<?xml version="1.0" encoding="UTF-8" standalone="no"?><!DOCTYPE svg PUBLIC "-//W3C//DTD SVG 1.1//EN" "http://www.w3.org/Graphics/SVG/1.1/DTD/svg11.dtd"><svg width="100%" height="100%" viewBox="0 0 77 75" version="1.1" xmlns="http://www.w3.org/2000/svg" xmlns:xlink="http://www.w3.org/1999/xlink" xml:space="preserve" xmlns:serif="http://www.serif.com/" style="fill-rule:evenodd;clip-rule:evenodd;stroke-linejoin:round;stroke-miterlimit:2;"><g><path d="M37.05,12c-2.4,3.133 -3.583,5.017 -3.55,5.65l0.85,35.8c2,-1.633 3,-5.967 3,-13l-0.3,-28.45Z"/><path d="M61.4,33.8c-1.367,0 -2.65,1.183 -3.85,3.55c-1.067,2.1 -1.6,3.933 -1.6,5.5c0,2.667 1.067,4 3.2,4c1.633,0 3.167,-0.883 4.6,-2.65c0.367,0.8 0.55,1.55 0.55,2.25c-0,3.933 -2.8,7.05 -8.4,9.35c-4.333,1.8 -8.767,2.7 -13.3,2.7c2.2,0.867 3.717,1.433 4.55,1.7c1.533,0.433 3.133,0.65 4.8,0.65c4.6,0 8.183,-1.883 10.75,-5.65c2.267,-3.3 3.4,-7.367 3.4,-12.2c0,-1.933 -0.333,-3.8 -1,-5.6c-0.9,-2.4 -2.133,-3.6 -3.7,-3.6Zm-1.5,4.7c-0.533,1 -1.05,2.1 -1.55,3.3c1.167,0.6 1.767,0.9 1.8,0.9l0.02,-0c0.428,-0.005 0.888,-0.155 1.38,-0.45c0.433,-0.3 0.65,-0.65 0.65,-1.05c0,-1.058 -0.755,-1.953 -2.264,-2.683l-0.036,-0.017Z"/><path d="M11.2,10.05c0,1.867 0.817,2.8 2.45,2.8c0.967,0 1.8,-0.4 2.5,-1.2c0.667,-0.767 1,-1.633 1,-2.6c-0,-0.833 -0.25,-1.6 -0.75,-2.3c-0.533,-0.733 -1.217,-1.1 -2.05,-1.1c-1.067,-0 -1.883,0.483 -2.45,1.45c-0.467,0.8 -0.7,1.783 -0.7,2.95Zm2.15,-2.4c-0.933,-0 -1.4,0.517 -1.4,1.55c0,0.9 0.717,1.35 2.15,1.35l0.028,-0c1.181,-0.005 1.772,-0.322 1.772,-0.95c-0,-0.367 -0.333,-0.783 -1,-1.25c-0.628,-0.463 -1.142,-0.696 -1.541,-0.7l-0.009,-0Z"/><path d="M37.607,56.272l-7.5,7.25c-0.595,0.575 -0.611,1.525 -0.035,2.121c0.575,0.595 1.525,0.611 2.121,0.035l7.5,-7.25c0.595,-0.575 0.611,-1.525 0.035,-2.121c-0.575,-0.595 -1.525,-0.611 -2.121,-0.035Z"/><path d="M62.963,19.929l-8.75,7c-0.647,0.517 -0.751,1.462 -0.234,2.108c0.517,0.647 1.462,0.751 2.108,0.234l8.75,-7c0.647,-0.517 0.751,-1.462 0.234,-2.108c-0.517,-0.647 -1.462,-0.751 -2.108,-0.234Z"/><path d="M25.85,49.1c0,-3.533 -0.85,-6.683 -2.55,-9.45c-1.833,-2.967 -4.35,-4.983 -7.55,-6.05c-0.267,1.033 -0.383,2.233 -0.35,3.6l0.05,4.75c1.867,-0 3.833,0.8 5.9,2.4c2.167,1.7 3.25,3.483 3.25,5.35c0,0.7 -1.2,1.3 -3.6,1.8c-1.833,0.367 -3.4,0.55 -4.7,0.55c-1.767,0 -3.533,-0.483 -5.3,-1.45c-0.233,2.433 -0.35,3.767 -0.35,4c-0,1.9 0.617,3.1 1.85,3.6c0.667,0.267 2.133,0.4 4.4,0.4c2.933,0 5.183,-0.867 6.75,-2.6c1.467,-1.667 2.2,-3.967 2.2,-6.9Z" style="fill:#f00;"/><path d="M18.05,26.6l4,-3.9l-3.95,-4l-4,4l3.95,3.9Z" style="fill:#f00;"/></g></svg>