<?xml version="1.0" encoding="UTF-8" standalone="no"?><!DOCTYPE svg PUBLIC "-//W3C//DTD SVG 1.1//EN" "http://www.w3.org/Graphics/SVG/1.1/DTD/svg11.dtd"><svg width="100%" height="100%" viewBox="0 0 64 81" version="1.1" xmlns="http://www.w3.org/2000/svg" xmlns:xlink="http://www.w3.org/1999/xlink" xml:space="preserve" xmlns:serif="http://www.serif.com/" style="fill-rule:evenodd;clip-rule:evenodd;stroke-linejoin:round;stroke-miterlimit:2;"><g><rect x="41.95" y="50" width="11.4" height="6.55"/><path d="M30.681,65.278l-9.35,6.65c-0.675,0.479 -0.833,1.417 -0.353,2.091c0.479,0.675 1.417,0.833 2.091,0.353l9.35,-6.65c0.675,-0.479 0.833,-1.417 0.353,-2.091c-0.479,-0.675 -1.417,-0.833 -2.091,-0.353Z" style="fill:#f00;"/><path d="M31.75,27.45c-1.067,3.7 -1.583,5.667 -1.55,5.9l2.4,12.95c-0.933,1.167 -2.533,2.15 -4.8,2.95c-2,0.733 -3.867,1.1 -5.6,1.1c-1.8,-0 -3.483,-0.8 -5.05,-2.4l-0,6.85c-0,1.367 1.517,2.05 4.55,2.05c3.3,-0 5.667,-0.55 7.1,-1.65c0.667,-0.533 2.15,-2.45 4.45,-5.75c0.467,1.4 0.933,2.817 1.4,4.25c0.767,1.733 1.783,2.6 3.05,2.6l4,0l0,-6.75c-1.9,0.133 -3.15,0.067 -3.75,-0.2c-1.067,-0.5 -2.35,-3.9 -3.85,-10.2c-0.733,-3.1 -1.517,-7 -2.35,-11.7Z" style="fill:#f00;"/><path d="M31.15,24.2l3.95,-3.9l-4,-4l-3.95,4l4,3.9Z" style="fill:#f00;"/></g></svg>