<?xml version="1.0" encoding="UTF-8" standalone="no"?><!DOCTYPE svg PUBLIC "-//W3C//DTD SVG 1.1//EN" "http://www.w3.org/Graphics/SVG/1.1/DTD/svg11.dtd"><svg width="100%" height="100%" viewBox="0 0 41 60" version="1.1" xmlns="http://www.w3.org/2000/svg" xmlns:xlink="http://www.w3.org/1999/xlink" xml:space="preserve" xmlns:serif="http://www.serif.com/" style="fill-rule:evenodd;clip-rule:evenodd;stroke-linejoin:round;stroke-miterlimit:2;"><g><path d="M32.561,10.374l-4.85,3c-0.704,0.436 -0.922,1.361 -0.487,2.065c0.436,0.704 1.361,0.922 2.065,0.487l4.85,-3c0.704,-0.436 0.922,-1.361 0.487,-2.065c-0.436,-0.704 -1.361,-0.922 -2.065,-0.487Z"/><path d="M19.85,35.1c1.067,-0 1.867,-0.15 2.4,-0.45c0.433,-0.267 0.8,-0.733 1.1,-1.4c0.3,-0.8 0.617,-1.583 0.95,-2.35c-1.267,-0 -3.133,-0.117 -5.6,-0.35c-2.5,-0.267 -4.35,-0.4 -5.55,-0.4c-1.433,-0 -2.717,0.417 -3.85,1.25c-1.267,0.933 -1.9,2.117 -1.9,3.55l0,0.7c1,-1.333 2.1,-2 3.3,-2c0.7,-0 1.483,0.3 2.35,0.9c-2.167,2.1 -3.767,4.083 -4.8,5.95c-1.2,2.267 -1.8,4.7 -1.8,7.3c0,3.9 1,6.633 3,8.2c1.867,1.433 4.883,2.15 9.05,2.15c1.633,-0 3.2,-0.317 4.7,-0.95c1.433,-0.667 2.867,-1.317 4.3,-1.95l0,-0.55c-0.533,-0 -1.55,0.017 -3.05,0.05c-1.467,0.067 -2.617,0.1 -3.45,0.1c-3.9,-0 -6.85,-0.483 -8.85,-1.45c-2.8,-1.3 -4.2,-3.617 -4.2,-6.95c0,-3.1 1.183,-5.767 3.55,-8c2.333,-2.233 5.117,-3.35 8.35,-3.35Zm-6.5,-9.35l2.55,-2.4l-2.55,-2.45l-2.55,2.45l2.55,2.4Z" style="fill:#f00;fill-rule:nonzero;"/><path d="M32.2,17.75c-1.533,1.933 -2.283,3.083 -2.25,3.45l0.55,22.05c1.267,-1 1.9,-3.667 1.9,-8l-0.2,-17.5Zm-15,-1.35c0.033,-0.7 0.05,-1.083 0.05,-1.15c0,-0.433 -0.267,-0.833 -0.8,-1.2c0.433,-0.9 0.65,-1.583 0.65,-2.05c0,-0.333 -0.133,-0.65 -0.4,-0.95c-0.267,-0.3 -0.583,-0.45 -0.95,-0.45c-0.633,0 -1.2,0.3 -1.7,0.9c-0.533,0.6 -0.8,1.167 -0.8,1.7c0,0.667 0.45,1.233 1.35,1.7c-0.867,0.833 -1.683,1.367 -2.45,1.6c0.067,-0.767 0.1,-1.233 0.1,-1.4c0,-1.367 -0.467,-2.05 -1.4,-2.05c-0.5,0 -0.917,0.233 -1.25,0.7c-0.3,0.367 -0.45,0.8 -0.45,1.3c0,0.267 0.083,0.583 0.25,0.95c0.1,-0.933 0.433,-1.4 1,-1.4c0.267,0 0.5,0.1 0.7,0.3c0.167,0.233 0.25,0.467 0.25,0.7c0,0.4 -0.283,1.183 -0.85,2.35c1.067,-0.2 1.967,-0.5 2.7,-0.9c0.6,-0.367 1.317,-0.95 2.15,-1.75c0.4,0.3 1.017,0.667 1.85,1.1Zm-2.35,-4.65c0.567,0 0.85,0.333 0.85,1l-0.1,0.7c-0.833,-0.533 -1.25,-0.95 -1.25,-1.25l0.15,-0.3c0.167,-0.1 0.283,-0.15 0.35,-0.15Z" style="fill-rule:nonzero;"/></g></svg>