<?xml version="1.0" encoding="UTF-8" standalone="no"?><!DOCTYPE svg PUBLIC "-//W3C//DTD SVG 1.1//EN" "http://www.w3.org/Graphics/SVG/1.1/DTD/svg11.dtd"><svg width="100%" height="100%" viewBox="0 0 57 60" version="1.1" xmlns="http://www.w3.org/2000/svg" xmlns:xlink="http://www.w3.org/1999/xlink" xml:space="preserve" xmlns:serif="http://www.serif.com/" style="fill-rule:evenodd;clip-rule:evenodd;stroke-linejoin:round;stroke-miterlimit:2;"><g><path d="M43.861,16.724l-4.85,3c-0.704,0.436 -0.922,1.361 -0.487,2.065c0.436,0.704 1.361,0.922 2.065,0.487l4.85,-3c0.704,-0.436 0.922,-1.361 0.487,-2.065c-0.436,-0.704 -1.361,-0.922 -2.065,-0.487Zm-21.45,-5.5l-4.85,3c-0.704,0.436 -0.922,1.361 -0.487,2.065c0.436,0.704 1.361,0.922 2.065,0.487l4.85,-3c0.704,-0.436 0.922,-1.361 0.487,-2.065c-0.436,-0.704 -1.361,-0.922 -2.065,-0.487Zm-2.7,-4.3l-4.85,3c-0.704,0.436 -0.922,1.361 -0.487,2.065c0.436,0.704 1.361,0.922 2.065,0.487l4.85,-3c0.704,-0.436 0.922,-1.361 0.487,-2.065c-0.436,-0.704 -1.361,-0.922 -2.065,-0.487Z"/><path d="M33.95,38.5c-0.867,-0.7 -1.8,-1.05 -2.8,-1.05c-1.133,-0 -2.733,0.633 -4.8,1.9c-1.5,0.933 -3.017,1.883 -4.55,2.85l-0.15,-11.7c0.5,-0.3 0.933,-0.85 1.3,-1.65c0.067,-0.2 0.267,-0.867 0.6,-2c-1.367,-0.633 -2.05,-1.45 -2.05,-2.45c0,-0.433 0.05,-0.967 0.15,-1.6c-0.433,0.367 -0.983,1.05 -1.65,2.05c-0.7,1.067 -1.05,1.817 -1.05,2.25c0,0.267 0.2,0.65 0.6,1.15c0.367,0.467 0.55,0.783 0.55,0.95l0,13.75c-1.133,1.1 -2,1.917 -2.6,2.45l-1.75,-0l0,4.15l20.4,-0l0,-3.9c-0.272,0.041 -0.572,0.091 -0.9,0.15c-1.167,0.233 -1.95,0.333 -2.35,0.3l-0.6,-0.05c2,-2 3,-3.683 3,-5.05c0,-0.933 -0.45,-1.767 -1.35,-2.5Zm-3.4,3.25c1.033,0.367 1.55,0.817 1.55,1.35c0,0.833 -1.55,1.567 -4.65,2.2c-2.433,0.5 -4.333,0.75 -5.7,0.75c-0.567,-0 -1.117,-0.067 -1.65,-0.2c3.233,-3.033 5.967,-4.55 8.2,-4.55c0.667,-0 1.417,0.15 2.25,0.45Zm-2.2,-13l-2.5,2.45l2.5,2.4l2.55,-2.4l-2.55,-2.45Z" style="fill:#f00;fill-rule:nonzero;"/><path d="M10.95,24.8c-0.433,0.433 -0.867,0.85 -1.3,1.25c-0.3,0.4 -0.45,0.95 -0.45,1.65c-0,5.567 0.033,9.15 0.1,10.75c0.2,5.4 0.75,8.65 1.65,9.75c0.733,0.9 1.75,1.35 3.05,1.35l1.75,0l-0,-4.15l1.25,0c-2.542,-0.054 -4.209,-0.587 -5,-1.6c-0.7,-0.867 -1.05,-2.733 -1.05,-5.6l-0,-13.4Zm32.8,9.9c-0.933,0 -1.767,0.717 -2.5,2.15c-0.633,1.2 -0.95,2.317 -0.95,3.35c-0,0.833 0.217,1.533 0.65,2.1c0.5,0.567 1.167,0.85 2,0.85c0.9,0 1.85,-0.367 2.85,-1.1c0.667,1 1,1.667 1,2c-0,0.333 -0.55,0.65 -1.65,0.95c-0.967,0.267 -1.7,0.4 -2.2,0.4l-6.8,0l-0,4.15l5.15,0c1.667,0 3.183,-0.683 4.55,-2.05c1.367,-1.333 2.05,-2.817 2.05,-4.45c-0,-3.567 -0.983,-6.133 -2.95,-7.7c-0.6,-0.433 -1,-0.65 -1.2,-0.65Zm-1.6,4.1c0.1,-0.133 0.433,-0.383 1,-0.75c0.633,0.4 1.15,0.933 1.55,1.6l-0,0.55c-0.767,0.267 -1.283,0.4 -1.55,0.4c-0.167,0 -0.417,-0.083 -0.75,-0.25l-0.75,-0.3c0.2,-0.667 0.367,-1.083 0.5,-1.25Zm1.4,-7.25l2.5,-2.4l-2.5,-2.45l-2.55,2.45l2.55,2.4Zm-24.2,-13.55l-0.25,0.05c-0.2,0.633 -0.3,1.033 -0.3,1.2c0,0.333 0.083,0.633 0.25,0.9c0.167,0.267 0.433,0.4 0.8,0.4c0.267,0 0.533,-0.1 0.8,-0.3c0.267,-0.2 0.417,-0.433 0.45,-0.7c0.233,0.167 0.5,0.25 0.8,0.25c0.867,0 1.3,-0.683 1.3,-2.05c0,-0.333 -0.05,-0.717 -0.15,-1.15l-0.3,0.15c0,1.167 -0.283,1.75 -0.85,1.75c-0.267,0 -0.5,-0.383 -0.7,-1.15l-0.2,0.05c-0.133,0.6 -0.233,1 -0.3,1.2c-0.2,0.5 -0.483,0.75 -0.85,0.75c-0.333,0 -0.5,-0.45 -0.5,-1.35Z" style="fill-rule:nonzero;"/></g></svg>