<?xml version="1.0" encoding="UTF-8" standalone="no"?><!DOCTYPE svg PUBLIC "-//W3C//DTD SVG 1.1//EN" "http://www.w3.org/Graphics/SVG/1.1/DTD/svg11.dtd"><svg width="100%" height="100%" viewBox="0 0 55 62" version="1.1" xmlns="http://www.w3.org/2000/svg" xmlns:xlink="http://www.w3.org/1999/xlink" xml:space="preserve" xmlns:serif="http://www.serif.com/" style="fill-rule:evenodd;clip-rule:evenodd;stroke-linejoin:round;stroke-miterlimit:2;"><g><path d="M41.05,11.271l-4.85,3.05c-0.701,0.441 -0.912,1.368 -0.471,2.069c0.441,0.7 1.368,0.912 2.068,0.471l4.85,-3.05c0.701,-0.441 0.912,-1.368 0.472,-2.068c-0.441,-0.701 -1.368,-0.912 -2.069,-0.472Z"/><path d="M44.499,32.541c-0.8,-0.333 -2.017,-0.95 -3.65,-1.85c-1.2,-0.667 -2.1,-1 -2.7,-1c-1.2,0 -2.167,0.567 -2.9,1.7c-0.467,0.7 -0.917,1.783 -1.35,3.25c0.5,-0.233 0.983,-0.467 1.45,-0.7c0.567,-0.3 1.067,-0.45 1.5,-0.45c0.6,0 1.467,0.283 2.6,0.85c0.067,0.033 0.9,0.5 2.5,1.4c-1.167,0.9 -2.167,1.5 -3,1.8c-0.7,0.233 -1.583,0.35 -2.65,0.35l-1.95,0l-0,4.1l1.1,0c1.2,0 2.35,-0.3 3.45,-0.9c0.4,-0.233 1.267,-0.85 2.6,-1.85c1,-0.733 1.867,-1.2 2.6,-1.4c0.633,-0.167 1.417,-0.267 2.35,-0.3c0.8,-0.033 1.6,-0.067 2.4,-0.1c0.5,-1.2 0.9,-2.517 1.2,-3.95c-1.967,0 -3.817,-0.317 -5.55,-0.95Zm-12.15,5.3l-0,0.05c0.376,-0.017 0.726,-0.033 1.05,-0.05l-1.05,0Zm8.2,-13.3l2.55,-2.4l-2.55,-2.45l-2.55,2.45l2.55,2.4Z" style="fill:#f00;fill-rule:nonzero;"/><path d="M28.099,37.341c-0.567,-0.533 -0.867,-1.517 -0.9,-2.95c-1.033,1.633 -1.733,2.617 -2.1,2.95c-0.467,0.367 -1.217,0.55 -2.25,0.55l-1.65,0c-0.274,-0.011 -0.541,-0.028 -0.8,-0.05c-1.533,0 -2.4,-0.017 -2.6,-0.05c-0.667,-0.133 -1.383,-0.567 -2.15,-1.3c-0.167,1.067 -0.417,1.967 -0.75,2.7c-0,0.067 0.333,0.617 1,1.65c0.6,0.867 0.9,1.333 0.9,1.4c-0,0.967 -1.133,2.217 -3.4,3.75c-2.167,1.5 -3.8,2.25 -4.9,2.25c-0.467,0 -1.117,-0.1 -1.95,-0.3c-0.667,-0.167 -1.317,-0.317 -1.95,-0.45c0.833,0.933 1.8,1.683 2.9,2.25c1.233,0.7 2.417,1.05 3.55,1.05c1.533,0 3.083,-1.083 4.65,-3.25c1.4,-1.9 2.2,-3.667 2.4,-5.3c0.24,-0.15 0.506,-0.233 0.8,-0.25l3.85,0c0.867,0 1.55,-0.3 2.05,-0.9c0.1,-0.1 0.517,-0.75 1.25,-1.95c0.367,0.633 0.9,1.233 1.6,1.8c0.8,0.7 1.5,1.05 2.1,1.05l4.6,0l-0,-4.15l-0.95,0c-0.324,0.017 -0.674,0.033 -1.05,0.05c-0.033,-0.001 -0.066,-0.001 -0.1,0c-0.867,0.067 -1.45,0.1 -1.75,0.1c-1.133,0 -1.933,-0.217 -2.4,-0.65Zm-3.5,8.55l-2.25,2.15l2.25,2.15l2.2,-2.15l-2.2,-2.15Zm4.4,4.3l2.25,-2.15l-2.25,-2.1l-2.2,2.1l2.2,2.15Zm-14.75,-34.45c-0.533,0.6 -0.8,1.167 -0.8,1.7c-0,0.667 0.45,1.233 1.35,1.7c-0.867,0.833 -1.683,1.367 -2.45,1.6c0.067,-0.767 0.1,-1.233 0.1,-1.4c-0,-1.367 -0.467,-2.05 -1.4,-2.05c-0.5,0 -0.917,0.233 -1.25,0.7c-0.3,0.367 -0.45,0.8 -0.45,1.3c-0,0.267 0.083,0.583 0.25,0.95c0.1,-0.933 0.433,-1.4 1,-1.4c0.267,0 0.5,0.1 0.7,0.3c0.167,0.233 0.25,0.467 0.25,0.7c-0,0.4 -0.283,1.183 -0.85,2.35c1.067,-0.2 1.967,-0.5 2.7,-0.9c0.6,-0.367 1.317,-0.95 2.15,-1.75c0.4,0.3 1.017,0.667 1.85,1.1c0.033,-0.7 0.05,-1.083 0.05,-1.15c-0,-0.433 -0.267,-0.833 -0.8,-1.2c0.433,-0.9 0.65,-1.583 0.65,-2.05c-0,-0.333 -0.133,-0.65 -0.4,-0.95c-0.267,-0.3 -0.583,-0.45 -0.95,-0.45c-0.633,0 -1.2,0.3 -1.7,0.9Zm0.3,0.7l0.15,-0.3c0.167,-0.1 0.283,-0.15 0.35,-0.15c0.567,0 0.85,0.333 0.85,1l-0.1,0.7c-0.833,-0.533 -1.25,-0.95 -1.25,-1.25Zm14.1,-1.7c-0,-0.533 -0.167,-1.033 -0.5,-1.5c-0.4,-0.5 -0.883,-0.75 -1.45,-0.75c-0.733,0 -1.3,0.333 -1.7,1c-0.3,0.5 -0.45,1.15 -0.45,1.95c-0,1.233 0.55,1.85 1.65,1.85c0.7,0 1.283,-0.25 1.75,-0.75c0.467,-0.533 0.7,-1.133 0.7,-1.8Zm-2.65,-0.9c0.3,0 0.65,0.15 1.05,0.45c0.467,0.3 0.7,0.583 0.7,0.85c-0,0.4 -0.4,0.6 -1.2,0.6c-1,0 -1.5,-0.3 -1.5,-0.9c-0,-0.667 0.317,-1 0.95,-1Z" style="fill-rule:nonzero;"/></g></svg>