<?xml version="1.0" encoding="UTF-8" standalone="no"?><!DOCTYPE svg PUBLIC "-//W3C//DTD SVG 1.1//EN" "http://www.w3.org/Graphics/SVG/1.1/DTD/svg11.dtd"><svg width="100%" height="100%" viewBox="0 0 28 58" version="1.1" xmlns="http://www.w3.org/2000/svg" xmlns:xlink="http://www.w3.org/1999/xlink" xml:space="preserve" xmlns:serif="http://www.serif.com/" style="fill-rule:evenodd;clip-rule:evenodd;stroke-linejoin:round;stroke-miterlimit:2;"><g><path d="M15.511,10.124l-4.85,3c-0.704,0.436 -0.922,1.361 -0.487,2.065c0.436,0.704 1.361,0.922 2.065,0.487l4.85,-3c0.704,-0.436 0.922,-1.361 0.487,-2.065c-0.436,-0.704 -1.361,-0.922 -2.065,-0.487Z"/><path d="M12.85,33.1c-1.133,2.2 -1.7,4 -1.7,5.4c0,2.267 0.95,3.4 2.85,3.4c1.533,0 2.75,-0.683 3.65,-2.05c0.733,-1.133 1.1,-2.5 1.1,-4.1c0,-1.2 -0.283,-2.2 -0.85,-3c-0.367,-0.533 -1.017,-1.183 -1.95,-1.95c-1.1,-0.833 -1.867,-1.533 -2.3,-2.1c-0.667,1.5 -1,2.65 -1,3.45c0,0.1 0.033,0.267 0.1,0.5c0.067,0.2 0.1,0.35 0.1,0.45Zm0,3.3c0,-0.967 0.383,-1.817 1.15,-2.55c2.167,1.533 3.25,2.467 3.25,2.8c0,0.333 -0.4,0.683 -1.2,1.05c-0.733,0.367 -1.3,0.55 -1.7,0.55c-1,0 -1.5,-0.617 -1.5,-1.85Z" style="fill-rule:nonzero;"/></g></svg>