<?xml version="1.0" encoding="UTF-8" standalone="no"?><!DOCTYPE svg PUBLIC "-//W3C//DTD SVG 1.1//EN" "http://www.w3.org/Graphics/SVG/1.1/DTD/svg11.dtd"><svg width="100%" height="100%" viewBox="0 0 79 70" version="1.1" xmlns="http://www.w3.org/2000/svg" xmlns:xlink="http://www.w3.org/1999/xlink" xml:space="preserve" xmlns:serif="http://www.serif.com/" style="fill-rule:evenodd;clip-rule:evenodd;stroke-linejoin:round;stroke-miterlimit:2;"><g><path d="M45.911,56.724l-4.85,3c-0.704,0.436 -0.922,1.361 -0.487,2.065c0.436,0.704 1.361,0.922 2.065,0.487l4.85,-3c0.704,-0.436 0.922,-1.361 0.487,-2.065c-0.436,-0.704 -1.361,-0.922 -2.065,-0.487Zm22.45,-42.85l-4.85,3c-0.704,0.436 -0.922,1.361 -0.487,2.065c0.436,0.704 1.361,0.922 2.065,0.487l4.85,-3c0.704,-0.436 0.922,-1.361 0.487,-2.065c-0.436,-0.704 -1.361,-0.922 -2.065,-0.487Z"/><path d="M13.55,51.15c-1.5,0.5 -2.867,0.75 -4.1,0.75c-4.333,-0 -6.5,-1.617 -6.5,-4.85c-0,-0.5 0.317,-2 0.95,-4.5c-0.733,0.7 -1.333,1.783 -1.8,3.25c-0.467,1.333 -0.7,2.55 -0.7,3.65c-0,4.333 2.167,6.5 6.5,6.5c2.867,-0 5.167,-0.9 6.9,-2.7c1.633,-1.7 2.583,-3.967 2.85,-6.8c0.867,-0 2.083,-0.083 3.65,-0.25c1.667,-0.2 2.867,-0.3 3.6,-0.3c1.667,-0 4.183,0.083 7.55,0.25c2.17,0.108 3.987,0.175 5.45,0.2l-0,0.05l2.55,-0c0.833,-0 1.517,-0.3 2.05,-0.9c0.167,-0.167 0.583,-0.817 1.25,-1.95c0.833,1.2 1.267,1.833 1.3,1.9c0.6,0.633 1.267,0.95 2,0.95l3.95,-0c1.133,-0 2.65,-0.617 4.55,-1.85c1.567,1.233 2.833,1.85 3.8,1.85l3.7,-0c2.248,-0.069 3.881,-0.536 4.9,-1.4c1.233,-1 1.85,-2.7 1.85,-5.1c-0,-0.7 -0.317,-2.25 -0.95,-4.65c-0.633,1.467 -1.167,2.567 -1.6,3.3c0.633,1.167 1.033,2.017 1.2,2.55c-0.635,0.763 -2.435,1.146 -5.4,1.15l-1.65,-0c-0.762,0.006 -1.179,0.006 -1.25,-0c-0.824,-0.057 -1.391,-0.241 -1.7,-0.55c1.133,-1.633 1.7,-3.367 1.7,-5.2c-0,-0.867 -0.217,-1.733 -0.65,-2.6c-0.5,-1.067 -1.15,-1.6 -1.95,-1.6c-1.233,-0 -2.367,1.017 -3.4,3.05c-0.967,1.767 -1.45,3.317 -1.45,4.65c-0,0.633 0.067,1.3 0.2,2c-1.2,0.14 -2.467,0.223 -3.8,0.25c-1.626,-0.03 -2.61,-0.13 -2.95,-0.3c-0.833,-0.367 -1.25,-1.467 -1.25,-3.3c-0.633,0.5 -1.067,1.133 -1.3,1.9c-0.2,0.633 -0.533,1.05 -1,1.25c-0.767,0.3 -2.333,0.45 -4.7,0.45l-0,0.1c-0.794,0.067 -1.411,0.1 -1.85,0.1c-0.733,-0 -1.333,-0.067 -1.8,-0.2c2.033,-1.967 3.05,-3.783 3.05,-5.45c-0,-1 -0.367,-1.783 -1.1,-2.35c-0.633,-0.567 -1.483,-0.85 -2.55,-0.85c-1.567,-0 -3.483,0.75 -5.75,2.25c-1.233,0.833 -3.017,2.25 -5.35,4.25c-1.767,1.5 -2.817,2.25 -3.15,2.25c-0.967,-0 -1.767,-0.267 -2.4,-0.8c-0.367,-0.367 -0.833,-1.067 -1.4,-2.1c-0.667,1.367 -1.05,2.367 -1.15,3c0.733,1.667 1.167,2.683 1.3,3.05c0.4,1.133 0.6,2.2 0.6,3.2c-0,0.967 -0.933,1.783 -2.8,2.45Zm27.85,1.9l2.55,2.4l2.55,-2.4l-2.55,-2.45l-2.55,2.45Zm27.6,0.9l2.25,-2.15l-2.25,-2.1l-2.2,2.15l2.2,2.1Zm-6.6,-2.15l2.2,2.15l2.2,-2.1l-2.2,-2.1l-2.2,2.05Zm-28,-12.55c-0,0.733 -1.167,1.433 -3.5,2.1c-2,0.567 -3.55,0.85 -4.65,0.85l-4.4,-0c0.967,-0.9 2.283,-1.9 3.95,-3c1.967,-1.3 3.383,-1.95 4.25,-1.95c0.633,-0 1.483,0.2 2.55,0.6c1.2,0.467 1.8,0.933 1.8,1.4Zm19.65,-0c-0,-0.6 0.267,-1.15 0.8,-1.65c0.533,-0.467 1.117,-0.7 1.75,-0.7c0.333,-0 0.65,0.183 0.95,0.55c0.3,0.4 0.45,0.767 0.45,1.1c-0,0.367 -0.267,0.85 -0.8,1.45c-0.567,0.6 -1.05,0.9 -1.45,0.9c-0.233,-0 -0.567,-0.2 -1,-0.6c-0.467,-0.4 -0.7,-0.75 -0.7,-1.05Zm-30.6,-12.15l-2.55,2.45l2.55,2.4l2.5,-2.4l-2.5,-2.45Zm37.25,0.55l-2.25,-2.1l-2.25,2.15l2.25,2.1l2.25,-2.15Zm-8.9,-0l2.2,2.15l2.2,-2.1l-2.15,-2.15l-2.25,2.1Zm-27.4,-9.5c-0,-0.867 -0.417,-1.3 -1.25,-1.3c-0.6,-0 -1.133,0.3 -1.6,0.9c-0.4,0.533 -0.6,1.05 -0.6,1.55c-0,0.433 0.383,0.867 1.15,1.3c-1.4,1.033 -2.75,1.8 -4.05,2.3c0.467,0.133 0.833,0.2 1.1,0.2c1.033,-0 2.283,-0.7 3.75,-2.1c0.6,0.333 1.1,0.583 1.5,0.75l0.15,-1.45c-0.3,-0.2 -0.533,-0.35 -0.7,-0.45c0.367,-0.7 0.55,-1.267 0.55,-1.7Zm33.1,1c0.467,-0.533 0.7,-1.133 0.7,-1.8c-0,-0.533 -0.167,-1.033 -0.5,-1.5c-0.4,-0.5 -0.883,-0.75 -1.45,-0.75c-0.733,-0 -1.3,0.333 -1.7,1c-0.3,0.5 -0.45,1.15 -0.45,1.95c-0,1.233 0.55,1.85 1.65,1.85c0.7,-0 1.283,-0.25 1.75,-0.75Zm-35.6,-0.75c0.067,-0.167 0.183,-0.267 0.35,-0.3c0.667,0.1 1,0.4 1,0.9c-0,0.133 -0.033,0.283 -0.1,0.45c-0.833,-0.367 -1.25,-0.717 -1.25,-1.05Zm35.4,-0.65c-0,0.4 -0.4,0.6 -1.2,0.6c-1,-0 -1.5,-0.3 -1.5,-0.9c-0,-0.667 0.317,-1 0.95,-1c0.3,-0 0.65,0.15 1.05,0.45c0.467,0.3 0.7,0.583 0.7,0.85Z" style="fill-rule:nonzero;"/></g></svg>