<?xml version="1.0" encoding="UTF-8" standalone="no"?><!DOCTYPE svg PUBLIC "-//W3C//DTD SVG 1.1//EN" "http://www.w3.org/Graphics/SVG/1.1/DTD/svg11.dtd"><svg width="100%" height="100%" viewBox="0 0 60 62" version="1.1" xmlns="http://www.w3.org/2000/svg" xmlns:xlink="http://www.w3.org/1999/xlink" xml:space="preserve" xmlns:serif="http://www.serif.com/" style="fill-rule:evenodd;clip-rule:evenodd;stroke-linejoin:round;stroke-miterlimit:2;"><g><path d="M36.553,50.355l-4.85,3c-0.704,0.436 -0.922,1.361 -0.487,2.065c0.436,0.704 1.361,0.922 2.065,0.487l4.85,-3c0.704,-0.436 0.922,-1.361 0.487,-2.065c-0.436,-0.704 -1.361,-0.922 -2.065,-0.487Zm13.14,-41.044l-4.85,3.05c-0.7,0.441 -0.912,1.368 -0.471,2.068c0.441,0.701 1.368,0.912 2.068,0.472l4.85,-3.05c0.701,-0.441 0.912,-1.368 0.472,-2.069c-0.441,-0.7 -1.368,-0.912 -2.069,-0.471Zm-28.69,-1.006l-4.85,3c-0.704,0.436 -0.922,1.361 -0.487,2.065c0.436,0.704 1.361,0.922 2.065,0.487l4.85,-3c0.704,-0.436 0.922,-1.361 0.487,-2.065c-0.436,-0.704 -1.361,-0.922 -2.065,-0.487Z"/><path d="M36.992,46.681l-2.55,-2.45l-2.5,2.45l2.5,2.4l2.55,-2.4Zm0.9,-0.6c2.067,1.333 4.117,2 6.15,2c2.333,-0 4.333,-1.367 6,-4.1c1.4,-2.367 2.1,-4.767 2.1,-7.2c-0,-1.2 -0.25,-2.233 -0.75,-3.1c-0.367,-0.633 -1.067,-1.45 -2.1,-2.45l-0.95,3.45c0.533,0.6 1.067,1.183 1.6,1.75c0.7,0.833 1.05,1.483 1.05,1.95c-0,2.2 -1.667,4.1 -5,5.7c-2.833,1.333 -5.533,2 -8.1,2Zm-11.95,-31.15c-0.4,0.367 -0.9,0.917 -1.5,1.65c-0.667,0.9 -1,1.533 -1,1.9c0.2,2.333 0.417,4.667 0.65,7c0.233,2.8 0.35,5.117 0.35,6.95c-0,1.2 -1.183,2.35 -3.55,3.45c-2.067,0.933 -3.8,1.4 -5.2,1.4c-5.733,-0 -8.6,-1.367 -8.6,-4.1c-0,-1.167 0.267,-2.483 0.8,-3.95c-0.8,0.367 -1.5,1.3 -2.1,2.8c-0.5,1.333 -0.75,2.5 -0.75,3.5c-0,1.933 0.8,3.367 2.4,4.3c1.333,0.733 3.067,1.1 5.2,1.1c2.067,-0 4.283,-0.433 6.65,-1.3c2.6,-1 4.433,-2.217 5.5,-3.65c0.733,1.267 1.267,2.1 1.6,2.5c0.833,1.033 1.633,1.55 2.4,1.55l3.05,-0l-0,-0.05c2.12,-0.068 3.67,-0.518 4.65,-1.35c1.233,-1 1.85,-2.7 1.85,-5.1c-0,-0.7 -0.317,-2.25 -0.95,-4.65c-0.633,1.467 -1.167,2.567 -1.6,3.3c0.633,1.167 1.033,2.017 1.2,2.55c-0.617,0.74 -2.334,1.124 -5.15,1.15l-2.4,-0c-0.967,-0.133 -1.65,-0.5 -2.05,-1.1c-0.967,-1.4 -1.45,-8.017 -1.45,-19.85Zm-7.05,9.9c-0,-0.267 -0.117,-0.533 -0.35,-0.8c-0.233,-0.267 -0.5,-0.4 -0.8,-0.4c-0.533,-0 -1.35,0.817 -2.45,2.45c-1,1.567 -1.5,2.633 -1.5,3.2c-0,0.567 0.467,0.867 1.4,0.9c1.2,-0 2,0.2 2.4,0.6c-0.9,0.867 -1.867,1.3 -2.9,1.3c-0.467,-0 -1.033,-0.067 -1.7,-0.2c0.4,0.5 0.733,0.833 1,1c0.3,0.167 0.767,0.25 1.4,0.25c1,-0 1.783,-0.233 2.35,-0.7c0.667,-0.5 1,-1.2 1,-2.1c-0,-0.933 -0.6,-1.517 -1.8,-1.75c-1.167,-0.233 -1.75,-0.417 -1.75,-0.55c-0,-0.333 0.217,-0.717 0.65,-1.15c0.4,-0.4 0.783,-0.6 1.15,-0.6c0.267,-0 0.517,0.083 0.75,0.25c0.767,-0.333 1.15,-0.9 1.15,-1.7Zm16,-10.45c-0,-0.333 -0.05,-0.717 -0.15,-1.15l-0.3,0.15c-0,1.167 -0.283,1.75 -0.85,1.75c-0.267,-0 -0.5,-0.383 -0.7,-1.15l-0.2,0.05c-0.133,0.6 -0.233,1 -0.3,1.2c-0.2,0.5 -0.483,0.75 -0.85,0.75c-0.333,-0 -0.5,-0.45 -0.5,-1.35l-0.25,0.05c-0.2,0.633 -0.3,1.033 -0.3,1.2c-0,0.333 0.083,0.633 0.25,0.9c0.167,0.267 0.433,0.4 0.8,0.4c0.267,-0 0.533,-0.1 0.8,-0.3c0.267,-0.2 0.417,-0.433 0.45,-0.7c0.233,0.167 0.5,0.25 0.8,0.25c0.867,-0 1.3,-0.683 1.3,-2.05Z" style="fill-rule:nonzero;"/></g></svg>