<?xml version="1.0" encoding="UTF-8" standalone="no"?><!DOCTYPE svg PUBLIC "-//W3C//DTD SVG 1.1//EN" "http://www.w3.org/Graphics/SVG/1.1/DTD/svg11.dtd"><svg width="100%" height="100%" viewBox="0 0 66 60" version="1.1" xmlns="http://www.w3.org/2000/svg" xmlns:xlink="http://www.w3.org/1999/xlink" xml:space="preserve" xmlns:serif="http://www.serif.com/" style="fill-rule:evenodd;clip-rule:evenodd;stroke-linejoin:round;stroke-miterlimit:2;"><g><path d="M26.811,14.724l-4.85,3c-0.704,0.436 -0.922,1.361 -0.487,2.065c0.436,0.704 1.361,0.922 2.065,0.487l4.85,-3c0.704,-0.436 0.922,-1.361 0.487,-2.065c-0.436,-0.704 -1.361,-0.922 -2.065,-0.487Zm18.7,-1l-4.85,3c-0.704,0.436 -0.922,1.361 -0.487,2.065c0.436,0.704 1.361,0.922 2.065,0.487l4.85,-3c0.704,-0.436 0.922,-1.361 0.487,-2.065c-0.436,-0.704 -1.361,-0.922 -2.065,-0.487Z"/><path d="M56.75,35.95c-0.367,0.033 -0.733,0.1 -1.1,0.2c-0.367,0.1 -0.733,0.25 -1.1,0.45c-0.367,0.2 -0.8,0.483 -1.3,0.85c-0.467,0.333 -1.017,0.75 -1.65,1.25c-0.633,0.5 -1.4,1.1 -2.3,1.8l-0.5,0.25c0.067,-0.533 0.117,-1.017 0.15,-1.45c0.033,-0.433 0.067,-0.85 0.1,-1.25c0,-0.4 -0.017,-0.817 -0.05,-1.25c0,-0.4 -0.033,-0.85 -0.1,-1.35c-0.033,-0.5 -0.083,-1.05 -0.15,-1.65c-0.067,-0.6 -0.15,-1.283 -0.25,-2.05c-0.133,-0.8 -0.25,-1.7 -0.35,-2.7c-0.133,-1 -0.283,-2.133 -0.45,-3.4c0.133,-0.2 0.267,-0.483 0.4,-0.85c0.133,-0.367 0.25,-0.717 0.35,-1.05c0.1,-0.333 0.183,-0.6 0.25,-0.8c0.061,-0.184 0.095,-0.251 0.1,-0.2c-0.003,-0.044 -0.02,-0.11 -0.05,-0.2c-0.033,-0.1 -0.1,-0.217 -0.2,-0.35c-0.133,-0.167 -0.3,-0.35 -0.5,-0.55c-0.233,-0.233 -0.533,-0.517 -0.9,-0.85c-0.067,0.067 -0.1,0.033 -0.1,-0.1c-0.033,-0.133 -0.067,-0.283 -0.1,-0.45c-0.033,-0.2 -0.067,-0.367 -0.1,-0.5c-0.033,-0.133 -0.083,-0.183 -0.15,-0.15c-0.167,0.067 -0.333,0.217 -0.5,0.45c-0.133,0.2 -0.267,0.433 -0.4,0.7c-0.1,0.3 -0.2,0.6 -0.3,0.9c-0.067,0.3 -0.133,0.6 -0.2,0.9c0.067,0.467 0.133,0.867 0.2,1.2c0.033,0.333 0.083,0.617 0.15,0.85c0.033,0.233 0.083,0.417 0.15,0.55c0.033,0.167 0.083,0.3 0.15,0.4c0.1,0.7 0.217,1.55 0.35,2.55c0.1,0.967 0.217,2.017 0.35,3.15c0.133,1.1 0.267,2.217 0.4,3.35c0.133,1.1 0.233,2.133 0.3,3.1c0.067,0.933 0.117,1.75 0.15,2.45c0,0.7 -0.05,1.183 -0.15,1.45c-0.3,0.267 -0.6,0.533 -0.9,0.8c-0.333,0.233 -0.65,0.483 -0.95,0.75l-1.6,-0l0,3.4l1.1,-0c0.967,-0 1.883,-0.033 2.75,-0.1c0.867,-0.067 1.7,-0.15 2.5,-0.25c0.8,-0.1 1.583,-0.217 2.35,-0.35c0.733,-0.133 1.467,-0.25 2.2,-0.35c0.567,-0.1 1.167,-0.25 1.8,-0.45c0.6,-0.233 1.2,-0.5 1.8,-0.8c0.6,-0.3 1.167,-0.65 1.7,-1.05c0.5,-0.367 0.95,-0.8 1.35,-1.3c0.4,-0.467 0.717,-0.967 0.95,-1.5c0.233,-0.533 0.35,-1.083 0.35,-1.65c0,-0.267 -0.083,-0.533 -0.25,-0.8c-0.2,-0.233 -0.433,-0.467 -0.7,-0.7c-0.3,-0.2 -0.617,-0.383 -0.95,-0.55c-0.367,-0.2 -0.717,-0.35 -1.05,-0.45c-0.333,-0.133 -0.65,-0.233 -0.95,-0.3c-0.3,-0.067 -0.533,-0.1 -0.7,-0.1c-0.533,-0 -1,0.033 -1.4,0.1Zm-4.35,4.3c0.733,-0.4 1.433,-0.733 2.1,-1c0.633,-0.267 1.2,-0.4 1.7,-0.4c0.233,0.033 0.483,0.067 0.75,0.1c0.233,0.033 0.5,0.117 0.8,0.25c0.3,0.133 0.617,0.317 0.95,0.55c0.367,0.267 0.75,0.617 1.15,1.05c0.1,0.033 0.033,0.117 -0.2,0.25c-0.233,0.1 -0.6,0.233 -1.1,0.4c-0.5,0.167 -1.117,0.35 -1.85,0.55c-0.733,0.167 -1.533,0.35 -2.4,0.55c-0.9,0.167 -1.85,0.3 -2.85,0.4c-1,0.133 -2.033,0.217 -3.1,0.25c0.567,-0.5 1.217,-1.017 1.95,-1.55c0.7,-0.5 1.4,-0.967 2.1,-1.4Z" style="fill:#f00;fill-rule:nonzero;"/><path d="M29.75,33.4c-0.6,-1.567 -1.367,-2.35 -2.3,-2.35c-0.8,0 -1.617,0.783 -2.45,2.35c-0.8,1.433 -1.2,2.6 -1.2,3.5c0,0.7 0.217,1.267 0.65,1.7c0.433,0.433 1.017,0.65 1.75,0.65c0.867,0 1.733,-0.35 2.6,-1.05c0.233,0.367 0.35,0.85 0.35,1.45c0,1.067 -1.917,1.983 -5.75,2.75c-3,0.6 -5.467,0.9 -7.4,0.9c-2.233,0 -4.283,-0.283 -6.15,-0.85c-2.7,-0.8 -4.05,-2.05 -4.05,-3.75c0,-0.267 0.15,-0.817 0.45,-1.65c0.267,-0.8 0.5,-1.35 0.7,-1.65c-0.833,0.233 -1.567,0.967 -2.2,2.2c-0.567,1.067 -0.85,2.083 -0.85,3.05c0,4.2 3.417,6.3 10.25,6.3c4.733,0 8.367,-0.55 10.9,-1.65c3.633,-1.6 5.45,-4.383 5.45,-8.35c0,-1.067 -0.25,-2.25 -0.75,-3.55Zm6.4,-10.35c-0.3,0.4 -0.45,0.95 -0.45,1.65c0,5.567 0.033,9.15 0.1,10.75c0.2,5.4 0.75,8.65 1.65,9.75c0.733,0.9 1.75,1.35 3.05,1.35l3.4,0l0,-4.15c-2.767,0 -4.567,-0.533 -5.4,-1.6c-0.7,-0.867 -1.05,-2.733 -1.05,-5.6l0,-13.4c-0.433,0.433 -0.867,0.85 -1.3,1.25Zm-8.55,11.75c0.3,0.3 0.45,0.6 0.45,0.9c0,0.667 -0.383,1 -1.15,1c-0.4,0 -0.717,-0.133 -0.95,-0.4c-0.067,-0.067 -0.25,-0.367 -0.55,-0.9c0.667,-0.7 1.1,-1.05 1.3,-1.05c0.3,0 0.6,0.15 0.9,0.45Zm1.05,-8.6l-2.55,-2.45l-2.5,2.45l2.5,2.4l2.55,-2.4Z" style="fill-rule:nonzero;"/></g></svg>