<?xml version="1.0" encoding="UTF-8" standalone="no"?><!DOCTYPE svg PUBLIC "-//W3C//DTD SVG 1.1//EN" "http://www.w3.org/Graphics/SVG/1.1/DTD/svg11.dtd"><svg width="100%" height="100%" viewBox="0 0 5 5" version="1.1" xmlns="http://www.w3.org/2000/svg" xmlns:xlink="http://www.w3.org/1999/xlink" xml:space="preserve" xmlns:serif="http://www.serif.com/" style="fill-rule:evenodd;clip-rule:evenodd;stroke-linejoin:round;stroke-miterlimit:2;"><path d="M2.31,0.256l-0.363,0.367c-0.048,0.049 -0.048,0.128 0.001,0.177c0.049,0.048 0.128,0.048 0.177,-0.001l0.363,-0.367c0.048,-0.049 0.048,-0.128 -0.001,-0.177c-0.049,-0.048 -0.128,-0.048 -0.177,0.001Z"/><path d="M3.26,4.031c-0.37,0.068 -0.696,0.102 -0.978,0.102c-0.321,0 -0.616,-0.039 -0.884,-0.117c-0.379,-0.117 -0.569,-0.294 -0.569,-0.533c0,-0.107 0.044,-0.263 0.131,-0.467c-0.272,0.248 -0.408,0.494 -0.408,0.737c0,0.594 0.486,0.891 1.46,0.891c1.586,0 2.38,-0.424 2.38,-1.27c0,-0.317 -0.11,-0.546 -0.329,-0.687c-0.034,0.141 -0.102,0.336 -0.204,0.584c0.185,0.132 0.277,0.275 0.277,0.431c-0.121,0.131 -0.413,0.241 -0.876,0.329Zm-0.38,-1.913l-0.321,0.314l0.314,0.306l0.329,-0.314l-0.322,-0.306Zm-0.321,0.314l-0.328,-0.314l-0.321,0.306l0.321,0.314l0.328,-0.306Z" style="fill-rule:nonzero;"/></svg>