<?xml version="1.0" encoding="UTF-8" standalone="no"?><!DOCTYPE svg PUBLIC "-//W3C//DTD SVG 1.1//EN" "http://www.w3.org/Graphics/SVG/1.1/DTD/svg11.dtd"><svg width="100%" height="100%" viewBox="0 0 74 60" version="1.1" xmlns="http://www.w3.org/2000/svg" xmlns:xlink="http://www.w3.org/1999/xlink" xml:space="preserve" xmlns:serif="http://www.serif.com/" style="fill-rule:evenodd;clip-rule:evenodd;stroke-linejoin:round;stroke-miterlimit:2;"><g><g><path d="M54.461,13.424l-4.85,3c-0.704,0.436 -0.922,1.361 -0.487,2.065c0.436,0.704 1.361,0.922 2.065,0.487l4.85,-3c0.704,-0.436 0.922,-1.361 0.487,-2.065c-0.436,-0.704 -1.361,-0.922 -2.065,-0.487Zm9.65,0l-4.85,3c-0.704,0.436 -0.922,1.361 -0.487,2.065c0.436,0.704 1.361,0.922 2.065,0.487l4.85,-3c0.704,-0.436 0.922,-1.361 0.487,-2.065c-0.436,-0.704 -1.361,-0.922 -2.065,-0.487Zm-29.9,-4.35l-4.85,3c-0.704,0.436 -0.922,1.361 -0.487,2.065c0.436,0.704 1.361,0.922 2.065,0.487l4.85,-3c0.704,-0.436 0.922,-1.361 0.487,-2.065c-0.436,-0.704 -1.361,-0.922 -2.065,-0.487Z"/><path d="M32.25,22.85c-0.7,1.067 -1.05,1.817 -1.05,2.25c0,0.267 0.2,0.65 0.6,1.15c0.367,0.467 0.55,0.783 0.55,0.95l0,13.75c-1.133,1.1 -2,1.917 -2.6,2.45l-1.75,-0l0,4.15l20.4,-0l0,-3.9c-0.272,0.041 -0.572,0.091 -0.9,0.15c-1.167,0.233 -1.95,0.333 -2.35,0.3l-0.6,-0.05c2,-2 3,-3.683 3,-5.05c0,-0.933 -0.45,-1.767 -1.35,-2.5c-0.867,-0.7 -1.8,-1.05 -2.8,-1.05c-1.133,-0 -2.733,0.633 -4.8,1.9c-1.5,0.933 -3.017,1.883 -4.55,2.85l-0.15,-11.7c0.5,-0.3 0.933,-0.85 1.3,-1.65c0.067,-0.2 0.267,-0.867 0.6,-2c-1.367,-0.633 -2.05,-1.45 -2.05,-2.45c0,-0.433 0.05,-0.967 0.15,-1.6c-0.433,0.367 -0.983,1.05 -1.65,2.05Zm10.55,16.9c1.033,0.367 1.55,0.817 1.55,1.35c0,0.833 -1.55,1.567 -4.65,2.2c-2.433,0.5 -4.333,0.75 -5.7,0.75c-0.567,-0 -1.117,-0.067 -1.65,-0.2c3.233,-3.033 5.967,-4.55 8.2,-4.55c0.667,-0 1.417,0.15 2.25,0.45Zm-2.2,-13l-2.5,2.45l2.5,2.4l2.55,-2.4l-2.55,-2.45Z" style="fill:#f00;fill-rule:nonzero;"/><path d="M28,43.4l-1.2,0c-1.9,0 -3.567,0.533 -5,1.6c-1.6,1.133 -2.4,2.583 -2.4,4.35c0,0.8 0.417,1.383 1.25,1.75c0.5,0.233 1.383,0.433 2.65,0.6c1.2,0.167 1.967,0.35 2.3,0.55c-0.367,0.733 -1.867,1.383 -4.5,1.95c-2.2,0.467 -3.967,0.7 -5.3,0.7c-2.267,0 -4,-0.217 -5.2,-0.65c-1.867,-0.7 -2.8,-1.95 -2.8,-3.75c0,-0.767 0.283,-1.75 0.85,-2.95c0.733,-1.467 1.15,-2.45 1.25,-2.95c-1,0.633 -1.967,1.75 -2.9,3.35c-0.967,1.633 -1.45,3 -1.45,4.1c0,2.167 1,3.783 3,4.85c1.6,0.867 3.633,1.3 6.1,1.3c5.533,0 9.617,-1.617 12.25,-4.85c0.8,-1 1.2,-1.767 1.2,-2.3c0,-0.9 -0.917,-1.517 -2.75,-1.85c-1.267,-0.2 -2.533,-0.4 -3.8,-0.6c0.435,-0.609 2.585,-0.959 6.45,-1.05l0,-4.15Zm26.85,-13.45c-0.3,-4.067 -0.483,-6.767 -0.55,-8.1c-1.533,1.167 -2.3,2.417 -2.3,3.75c0,1.633 0.167,4.1 0.5,7.4c0.3,3.267 0.45,5.717 0.45,7.35c0,1.367 -0.433,2.25 -1.3,2.65c-0.567,0.267 -1.65,0.4 -3.25,0.4l0,4.15l2.3,0c0.733,0 1.417,-0.467 2.05,-1.4c1,-1.467 1.517,-2.217 1.55,-2.25c0.433,0.767 0.867,1.55 1.3,2.35c0.567,0.867 1.283,1.3 2.15,1.3l2.25,0c2.332,-0.055 4.015,-0.522 5.05,-1.4c1.2,-1 1.8,-2.7 1.8,-5.1c0,-0.7 -0.3,-2.25 -0.9,-4.65c-0.667,1.467 -1.2,2.567 -1.6,3.3c0.633,1.167 1.033,2.017 1.2,2.55c-0.678,0.775 -2.528,1.158 -5.55,1.15l-0.3,0c-1.579,-0.057 -2.729,-0.541 -3.45,-1.45c-0.667,-0.867 -1,-2.167 -1,-3.9c0,-2.033 -0.133,-4.733 -0.4,-8.1Zm9.45,0.45l-2.2,-2.1l-2.25,2.1l2.25,2.15l2.2,-2.15Zm2.2,2.15l2.25,-2.15l-2.25,-2.1l-2.2,2.1l2.2,2.15Zm-31.5,-17.6l-0.3,0.15c0,1.167 -0.283,1.75 -0.85,1.75c-0.267,0 -0.5,-0.383 -0.7,-1.15l-0.2,0.05c-0.133,0.6 -0.233,1 -0.3,1.2c-0.2,0.5 -0.483,0.75 -0.85,0.75c-0.333,0 -0.5,-0.45 -0.5,-1.35l-0.25,0.05c-0.2,0.633 -0.3,1.033 -0.3,1.2c0,0.333 0.083,0.633 0.25,0.9c0.167,0.267 0.433,0.4 0.8,0.4c0.267,0 0.533,-0.1 0.8,-0.3c0.267,-0.2 0.417,-0.433 0.45,-0.7c0.233,0.167 0.5,0.25 0.8,0.25c0.867,0 1.3,-0.683 1.3,-2.05c0,-0.333 -0.05,-0.717 -0.15,-1.15Z" style="fill-rule:nonzero;"/></g></g></svg>