<?xml version="1.0" encoding="UTF-8" standalone="no"?><!DOCTYPE svg PUBLIC "-//W3C//DTD SVG 1.1//EN" "http://www.w3.org/Graphics/SVG/1.1/DTD/svg11.dtd"><svg width="100%" height="100%" viewBox="0 0 96 70" version="1.1" xmlns="http://www.w3.org/2000/svg" xmlns:xlink="http://www.w3.org/1999/xlink" xml:space="preserve" xmlns:serif="http://www.serif.com/" style="fill-rule:evenodd;clip-rule:evenodd;stroke-linejoin:round;stroke-miterlimit:2;"><g><path d="M90.083,22.678l-4.85,3c-0.704,0.436 -0.922,1.361 -0.486,2.065c0.435,0.704 1.36,0.922 2.064,0.486l4.85,-3c0.704,-0.435 0.923,-1.36 0.487,-2.064c-0.435,-0.704 -1.361,-0.922 -2.065,-0.487Zm-15.2,0l-4.85,3c-0.704,0.436 -0.922,1.361 -0.486,2.065c0.435,0.704 1.36,0.922 2.064,0.486l4.85,-3c0.704,-0.435 0.923,-1.36 0.487,-2.064c-0.435,-0.704 -1.361,-0.922 -2.065,-0.487Z"/><path d="M27.972,43.754c0,-0.933 -0.45,-1.767 -1.35,-2.5c-0.867,-0.7 -1.8,-1.05 -2.8,-1.05c-1.167,-0 -2.767,0.617 -4.8,1.85c-1.533,0.967 -3.05,1.933 -4.55,2.9l-0.15,-11.7c0.5,-0.3 0.917,-0.85 1.25,-1.65c0.133,-0.333 0.333,-1 0.6,-2c-1.367,-0.633 -2.05,-1.45 -2.05,-2.45c0,-0.433 0.067,-0.967 0.2,-1.6c-0.467,0.367 -1.017,1.05 -1.65,2.05c-0.7,1.067 -1.05,1.817 -1.05,2.25c0,0.267 0.2,0.65 0.6,1.15c0.367,0.467 0.55,0.783 0.55,0.95l0,13.75c0,0.3 -0.517,0.933 -1.55,1.9c-1.033,0.933 -1.717,1.383 -2.05,1.35l-6.85,-0.55c1.867,2.7 4.15,4.05 6.85,4.05l21.3,-0.15l0,-0.05c-0.43,0.033 -0.947,0.05 -1.55,0.05l0,-3.95c-0.285,0.067 -0.601,0.134 -0.95,0.2c-1.1,0.233 -1.9,0.333 -2.4,0.3l-0.65,-0.05c2.033,-2 3.05,-3.683 3.05,-5.05Zm-3.2,2.1c0,0.833 -1.55,1.567 -4.65,2.2c-2.433,0.5 -4.35,0.75 -5.75,0.75c-0.533,-0 -1.067,-0.067 -1.6,-0.2c3.2,-3.033 5.917,-4.55 8.15,-4.55c0.7,-0 1.467,0.15 2.3,0.45c1.033,0.367 1.55,0.817 1.55,1.35Z" style="fill:#f00;fill-rule:nonzero;"/><path d="M66.022,58.954l-2.55,-2.45l-2.55,2.45l2.55,2.4l2.55,-2.4Zm9.25,-3.35l-2.2,2.15l2.2,2.1l2.25,-2.15l-0.2,-0.2c1.295,0.507 2.195,0.824 2.7,0.95c1,0.3 2.017,0.45 3.05,0.45c2.933,-0 5.233,-1.167 6.9,-3.5c1.433,-2.033 2.15,-4.533 2.15,-7.5c0,-1.2 -0.217,-2.35 -0.65,-3.45c-0.567,-1.467 -1.35,-2.2 -2.35,-2.2c-0.867,-0 -1.683,0.717 -2.45,2.15c-0.667,1.3 -1,2.433 -1,3.4c0,1.667 0.667,2.5 2,2.5c1.067,-0 2.05,-0.55 2.95,-1.65c0.233,0.5 0.35,0.95 0.35,1.35c0,2.433 -1.783,4.35 -5.35,5.75c-2.721,1.115 -5.504,1.681 -8.35,1.7l-2,-1.85Zm-2.2,2.15l-2.2,-2.1l-2.2,2.05l2.2,2.15l2.2,-2.1Zm0.45,-13.3c0.633,1.167 1.033,2.017 1.2,2.55c-0.617,0.74 -2.334,1.124 -5.15,1.15l-1.3,-0c-1.42,-0.043 -2.286,-0.143 -2.6,-0.3c-0.833,-0.367 -1.25,-1.467 -1.25,-3.3c-0.633,0.5 -1.067,1.133 -1.3,1.9c-0.2,0.633 -0.533,1.05 -1,1.25c-0.767,0.3 -2.333,0.45 -4.7,0.45l0,0.1c-0.259,0.017 -0.542,0.033 -0.85,0.05c-1.167,0.033 -2.1,-0.017 -2.8,-0.15c1,-0.933 1.667,-1.617 2,-2.05c0.667,-0.9 1,-1.75 1,-2.55c0,-0.8 -0.333,-1.583 -1,-2.35c-0.7,-0.733 -1.467,-1.1 -2.3,-1.1c-1.4,-0 -3.15,0.583 -5.25,1.75c-1.333,0.733 -3.167,1.933 -5.5,3.6c-2.433,1.733 -4.017,2.817 -4.75,3.25c-0.867,-0 -1.683,-0.283 -2.45,-0.85c-0.8,-0.567 -1.3,-1.267 -1.5,-2.1c-0.5,1.033 -1,1.7 -1.5,2c-0.4,0.267 -1.067,0.4 -2,0.4l-1.6,-0l0,4.15c0.603,-0 1.12,-0.017 1.55,-0.05c0.735,-0.053 1.219,-0.153 1.45,-0.3c0.167,-0.1 0.75,-0.883 1.75,-2.35c1.3,1.833 3.467,2.75 6.5,2.75l19.8,-0.05c0.833,-0 1.517,-0.3 2.05,-0.9c0.167,-0.167 0.583,-0.817 1.25,-1.95c0.833,1.2 1.267,1.833 1.3,1.9c0.6,0.633 1.267,0.95 2,0.95l3,-0l0,-0.05c2.12,-0.068 3.67,-0.518 4.65,-1.35c1.233,-1 1.85,-2.7 1.85,-5.1c0,-0.7 -0.317,-2.25 -0.95,-4.65c-0.633,1.467 -1.167,2.567 -1.6,3.3Zm-21.4,-0.1c1.2,0.4 1.8,0.817 1.8,1.25c0,0.933 -1.633,1.75 -4.9,2.45c-2.6,0.567 -4.633,0.85 -6.1,0.85l-2.45,-0c3.933,-3.433 7,-5.15 9.2,-5.15c0.567,-0 1.383,0.2 2.45,0.6Zm36.05,0.8c0.967,0.433 1.45,0.983 1.45,1.65c0,0.233 -0.133,0.45 -0.4,0.65c-0.3,0.167 -0.6,0.25 -0.9,0.25c-0.033,-0 -0.417,-0.183 -1.15,-0.55c0.333,-0.733 0.667,-1.4 1,-2Zm-42.25,-21.4c-0.6,-0 -1.133,0.3 -1.6,0.9c-0.4,0.533 -0.6,1.05 -0.6,1.55c0,0.433 0.383,0.867 1.15,1.3c-1.4,1.033 -2.75,1.8 -4.05,2.3c0.467,0.133 0.833,0.2 1.1,0.2c1.033,-0 2.283,-0.7 3.75,-2.1c0.6,0.333 1.1,0.583 1.5,0.75l0.15,-1.45c-0.3,-0.2 -0.533,-0.35 -0.7,-0.45c0.367,-0.7 0.55,-1.267 0.55,-1.7c0,-0.867 -0.417,-1.3 -1.25,-1.3Zm17.7,0.05c-0.733,-0 -1.3,0.333 -1.7,1c-0.3,0.5 -0.45,1.15 -0.45,1.95c0,1.233 0.55,1.85 1.65,1.85c0.7,-0 1.283,-0.25 1.75,-0.75c0.467,-0.533 0.7,-1.133 0.7,-1.8c0,-0.533 -0.167,-1.033 -0.5,-1.5c-0.4,-0.5 -0.883,-0.75 -1.45,-0.75Zm0.35,1.8c0.467,0.3 0.7,0.583 0.7,0.85c0,0.4 -0.4,0.6 -1.2,0.6c-1,-0 -1.5,-0.3 -1.5,-0.9c0,-0.667 0.317,-1 0.95,-1c0.3,-0 0.65,0.15 1.05,0.45Zm-17.95,0.3c0,0.133 -0.033,0.283 -0.1,0.45c-0.833,-0.367 -1.25,-0.717 -1.25,-1.05c0.067,-0.167 0.183,-0.267 0.35,-0.3c0.667,0.1 1,0.4 1,0.9Zm-31.6,-8.5c-0.6,-0 -1.133,0.3 -1.6,0.9c-0.4,0.533 -0.6,1.05 -0.6,1.55c0,0.433 0.383,0.867 1.15,1.3c-1.4,1.033 -2.75,1.8 -4.05,2.3c0.467,0.133 0.833,0.2 1.1,0.2c1.033,-0 2.283,-0.7 3.75,-2.1c0.6,0.333 1.1,0.583 1.5,0.75l0.15,-1.45c-0.3,-0.2 -0.533,-0.35 -0.7,-0.45c0.367,-0.7 0.55,-1.267 0.55,-1.7c0,-0.867 -0.417,-1.3 -1.25,-1.3Zm-1.25,1.55c0.067,-0.167 0.183,-0.267 0.35,-0.3c0.667,0.1 1,0.4 1,0.9c0,0.133 -0.033,0.283 -0.1,0.45c-0.833,-0.367 -1.25,-0.717 -1.25,-1.05Z" style="fill-rule:nonzero;"/></g></svg>