<?xml version="1.0" encoding="UTF-8" standalone="no"?><!DOCTYPE svg PUBLIC "-//W3C//DTD SVG 1.1//EN" "http://www.w3.org/Graphics/SVG/1.1/DTD/svg11.dtd"><svg width="100%" height="100%" viewBox="0 0 41 50" version="1.1" xmlns="http://www.w3.org/2000/svg" xmlns:xlink="http://www.w3.org/1999/xlink" xml:space="preserve" xmlns:serif="http://www.serif.com/" style="fill-rule:evenodd;clip-rule:evenodd;stroke-linejoin:round;stroke-miterlimit:2;"><g><path d="M23.4,29.1l-0.95,3.45c0.533,0.6 1.067,1.183 1.6,1.75c0.7,0.833 1.05,1.483 1.05,1.95c0,2.2 -1.667,4.1 -5,5.7c-2.833,1.333 -5.533,2 -8.1,2c2.067,1.333 4.117,2 6.15,2c2.333,0 4.333,-1.367 6,-4.1c1.4,-2.367 2.1,-4.767 2.1,-7.2c0,-1.2 -0.25,-2.233 -0.75,-3.1c-0.367,-0.633 -1.067,-1.45 -2.1,-2.45Zm-3.65,-7.05l2.55,2.4l2.55,-2.4l-2.55,-2.45l-2.55,2.45Zm3.161,-15.576l-4.85,3c-0.704,0.436 -0.922,1.361 -0.487,2.065c0.436,0.704 1.361,0.922 2.065,0.487l4.85,-3c0.704,-0.436 0.922,-1.361 0.487,-2.065c-0.436,-0.704 -1.361,-0.922 -2.065,-0.487Z" style="fill-rule:nonzero;"/></g></svg>