<?xml version="1.0" encoding="UTF-8" standalone="no"?><!DOCTYPE svg PUBLIC "-//W3C//DTD SVG 1.1//EN" "http://www.w3.org/Graphics/SVG/1.1/DTD/svg11.dtd"><svg width="100%" height="100%" viewBox="0 0 13 30" version="1.1" xmlns="http://www.w3.org/2000/svg" xmlns:xlink="http://www.w3.org/1999/xlink" xml:space="preserve" xmlns:serif="http://www.serif.com/" style="fill-rule:evenodd;clip-rule:evenodd;stroke-linejoin:round;stroke-miterlimit:2;"><g><path d="M4.85,13.5l0.05,2.1c0.9,-0 1.85,0.35 2.85,1.05c1.067,0.767 1.6,1.567 1.6,2.4c0,0.3 -0.583,0.567 -1.75,0.8c-0.9,0.167 -1.667,0.25 -2.3,0.25c-0.867,-0 -1.733,-0.217 -2.6,-0.65c-0.1,1.067 -0.15,1.65 -0.15,1.75c0,0.833 0.3,1.367 0.9,1.6c0.3,0.133 1.017,0.2 2.15,0.2c1.433,0 2.517,-0.383 3.25,-1.15c0.733,-0.733 1.1,-1.767 1.1,-3.1c-0,-1.567 -0.417,-2.967 -1.25,-4.2c-0.9,-1.3 -2.117,-2.183 -3.65,-2.65c-0.133,0.433 -0.2,0.967 -0.2,1.6Z"/><path d="M5.609,5.159l-4.35,2.8c-0.464,0.299 -0.599,0.918 -0.3,1.382c0.299,0.464 0.918,0.599 1.382,0.3l4.35,-2.8c0.464,-0.299 0.599,-0.918 0.3,-1.382c-0.299,-0.464 -0.918,-0.599 -1.382,-0.3Z" style="fill:#f00;"/></g></svg>