<?xml version="1.0" encoding="UTF-8" standalone="no"?><!DOCTYPE svg PUBLIC "-//W3C//DTD SVG 1.1//EN" "http://www.w3.org/Graphics/SVG/1.1/DTD/svg11.dtd"><svg width="100%" height="100%" viewBox="0 0 21 30" version="1.1" xmlns="http://www.w3.org/2000/svg" xmlns:xlink="http://www.w3.org/1999/xlink" xml:space="preserve" xmlns:serif="http://www.serif.com/" style="fill-rule:evenodd;clip-rule:evenodd;stroke-linejoin:round;stroke-miterlimit:2;"><path d="M10.2,11.6c-1.167,1.367 -1.75,2.183 -1.75,2.45l0.45,15.55c0.933,-0.7 1.4,-2.583 1.4,-5.65l-0.1,-12.35Z" style="fill:#f00;"/><path d="M12.6,4.3c-0.667,0.6 -1,1.133 -1,1.6c0,0.567 0.167,1.4 0.5,2.5c0.333,1.133 0.5,1.983 0.5,2.55c0,0.367 -0.05,0.667 -0.15,0.9c0.767,-0.467 1.15,-1.117 1.15,-1.95c0,-0.633 -0.167,-1.567 -0.5,-2.8c-0.333,-1.267 -0.5,-2.2 -0.5,-2.8Z" style="fill:#f00;"/></svg>