<?xml version="1.0" encoding="UTF-8" standalone="no"?><!DOCTYPE svg PUBLIC "-//W3C//DTD SVG 1.1//EN" "http://www.w3.org/Graphics/SVG/1.1/DTD/svg11.dtd"><svg width="100%" height="100%" viewBox="0 0 17 23" version="1.1" xmlns="http://www.w3.org/2000/svg" xmlns:xlink="http://www.w3.org/1999/xlink" xml:space="preserve" xmlns:serif="http://www.serif.com/" style="fill-rule:evenodd;clip-rule:evenodd;stroke-linejoin:round;stroke-miterlimit:2;"><path d="M12.65,10c-0,-1 -0.167,-1.95 -0.5,-2.85c-0.433,-1.2 -1.05,-1.8 -1.85,-1.8c-0.667,0 -1.3,0.6 -1.9,1.8c-0.5,1.067 -0.75,1.983 -0.75,2.75c-0,1.367 0.517,2.05 1.55,2.05c0.833,-0 1.6,-0.45 2.3,-1.35c0.167,0.4 0.25,0.783 0.25,1.15c-0,1.967 -1.383,3.533 -4.15,4.7c-2.133,0.9 -4.333,1.35 -6.6,1.35c1.1,0.433 1.85,0.717 2.25,0.85c0.767,0.233 1.567,0.35 2.4,0.35c2.267,-0 4.033,-0.95 5.3,-2.85c1.133,-1.667 1.7,-3.717 1.7,-6.15Zm-1.9,-0.9c0,0.2 -0.117,0.367 -0.35,0.5c-0.233,0.167 -0.467,0.25 -0.7,0.25l-0.9,-0.45c0.267,-0.633 0.517,-1.183 0.75,-1.65c0.8,0.367 1.2,0.817 1.2,1.35Z" style="fill:#f00;"/></svg>