<?xml version="1.0" encoding="UTF-8" standalone="no"?><!DOCTYPE svg PUBLIC "-//W3C//DTD SVG 1.1//EN" "http://www.w3.org/Graphics/SVG/1.1/DTD/svg11.dtd"><svg width="100%" height="100%" viewBox="0 0 18 52" version="1.1" xmlns="http://www.w3.org/2000/svg" xmlns:xlink="http://www.w3.org/1999/xlink" xml:space="preserve" xmlns:serif="http://www.serif.com/" style="fill-rule:evenodd;clip-rule:evenodd;stroke-linejoin:round;stroke-miterlimit:2;"><g><path d="M12.45,34.8c0,0.4 -0.567,0.733 -1.7,1c-0.867,0.233 -1.617,0.35 -2.25,0.35c-0.833,-0 -1.667,-0.283 -2.5,-0.85c-0.1,1.367 -0.15,2.117 -0.15,2.25c0,1.033 0.283,1.7 0.85,2c0.333,0.133 1.033,0.2 2.1,0.2c1.4,-0 2.467,-0.483 3.2,-1.45c0.7,-0.9 1.05,-2.167 1.05,-3.8c-0,-1.967 -0.4,-3.717 -1.2,-5.25c-0.867,-1.633 -2.067,-2.75 -3.6,-3.35c-0.1,0.567 -0.15,1.233 -0.15,2l0,2.65c0.9,0 1.833,0.433 2.8,1.3c1.033,0.933 1.55,1.917 1.55,2.95Z"/><path d="M7.9,15c-0.367,0 -0.7,0.383 -1,1.15c-0.267,0.667 -0.4,1.317 -0.4,1.95c0,0.533 0.25,1.083 0.75,1.65c-0.9,1.3 -1.733,2.283 -2.5,2.95c0.267,0.133 0.483,0.2 0.65,0.2c0.667,-0 1.45,-0.883 2.35,-2.65c0.367,0.4 0.683,0.717 0.95,0.95l0.1,-1.85c-0.2,-0.233 -0.35,-0.417 -0.45,-0.55c0.233,-0.9 0.35,-1.617 0.35,-2.15c0,-1.1 -0.267,-1.65 -0.8,-1.65Zm-0.8,1.95c0.033,-0.2 0.117,-0.317 0.25,-0.35c0.4,0.133 0.6,0.517 0.6,1.15c0,0.133 -0.017,0.317 -0.05,0.55c-0.533,-0.467 -0.8,-0.917 -0.8,-1.35Z"/></g></svg>