<?xml version="1.0" encoding="UTF-8" standalone="no"?><!DOCTYPE svg PUBLIC "-//W3C//DTD SVG 1.1//EN" "http://www.w3.org/Graphics/SVG/1.1/DTD/svg11.dtd"><svg width="100%" height="100%" viewBox="0 0 59 53" version="1.1" xmlns="http://www.w3.org/2000/svg" xmlns:xlink="http://www.w3.org/1999/xlink" xml:space="preserve" xmlns:serif="http://www.serif.com/" style="fill-rule:evenodd;clip-rule:evenodd;stroke-linejoin:round;stroke-miterlimit:2;"><path d="M15.9,36c0.733,0.6 1.5,1.35 2.3,2.25c0.9,0.967 1.35,1.667 1.35,2.1c-0,2.5 -2.2,4.683 -6.6,6.55c-3.8,1.6 -7.567,2.4 -11.3,2.4c3.033,2.133 5.983,3.2 8.85,3.2c3.4,0 6,-1.65 7.8,-4.95c2.5,-3.067 3.75,-6.1 3.75,-9.1c-0,-1.5 -0.333,-2.633 -1,-3.4c-0.567,-1.167 -1.767,-2.4 -3.6,-3.7l-1.55,4.65Z"/><path d="M43.5,33.65c1.933,1.3 2.9,2.65 2.9,4.05c-0,0.533 -1.067,1 -3.2,1.4c-1.633,0.267 -3.033,0.4 -4.2,0.4c-1.567,0 -3.15,-0.367 -4.75,-1.1c-0.2,1.833 -0.3,2.85 -0.3,3.05c0,1.4 0.55,2.3 1.65,2.7c0.6,0.2 1.917,0.3 3.95,0.3c2.6,0 4.583,-0.667 5.95,-2c1.333,-1.233 2,-2.967 2,-5.2c0,-2.667 -0.767,-5.05 -2.3,-7.15c-1.6,-2.233 -3.833,-3.75 -6.7,-4.55c-0.233,0.767 -0.333,1.667 -0.3,2.7l0.05,3.6c1.667,0 3.417,0.6 5.25,1.8Z"/><path d="M30.35,35.45l-0.25,-21.55c-2.133,2.367 -3.2,3.8 -3.2,4.3l0.8,27.1c1.767,-1.233 2.65,-4.517 2.65,-9.85Z" style="fill:#f00;"/><path d="M18.945,19.135l-7.15,4.55c-0.699,0.444 -0.905,1.372 -0.46,2.07c0.444,0.699 1.372,0.905 2.07,0.46l7.15,-4.55c0.699,-0.444 0.905,-1.372 0.46,-2.07c-0.444,-0.699 -1.372,-0.905 -2.07,-0.46Z"/><path d="M43.682,10.383l-8.25,4.5c-0.727,0.397 -0.995,1.308 -0.599,2.035c0.397,0.727 1.308,0.995 2.035,0.599l8.25,-4.5c0.727,-0.397 0.995,-1.308 0.599,-2.035c-0.397,-0.727 -1.308,-0.995 -2.035,-0.599Z"/></svg>