<?xml version="1.0" encoding="UTF-8" standalone="no"?><!DOCTYPE svg PUBLIC "-//W3C//DTD SVG 1.1//EN" "http://www.w3.org/Graphics/SVG/1.1/DTD/svg11.dtd"><svg width="100%" height="100%" viewBox="0 0 39 29" version="1.1" xmlns="http://www.w3.org/2000/svg" xmlns:xlink="http://www.w3.org/1999/xlink" xml:space="preserve" xmlns:serif="http://www.serif.com/" style="fill-rule:evenodd;clip-rule:evenodd;stroke-linejoin:round;stroke-miterlimit:2;"><rect x="3.4" y="17.7" width="33.85" height="2.35"/><path d="M22,8.5c0,-0.933 -0.383,-1.4 -1.15,-1.4c-0.567,0 -1.067,0.333 -1.5,1c-0.367,0.567 -0.55,1.133 -0.55,1.7c-0,0.433 0.35,0.9 1.05,1.4c-1.3,1.1 -2.533,1.933 -3.7,2.5c0.433,0.133 0.767,0.2 1,0.2c0.967,-0 2.117,-0.767 3.45,-2.3c0.533,0.367 1,0.65 1.4,0.85l0.15,-1.6c-0.3,-0.2 -0.533,-0.35 -0.7,-0.45c0.367,-0.8 0.55,-1.433 0.55,-1.9Zm-1.1,0.95c0,0.133 -0.017,0.3 -0.05,0.5c-0.767,-0.4 -1.15,-0.783 -1.15,-1.15c0.033,-0.167 0.133,-0.267 0.3,-0.3c0.6,0.1 0.9,0.417 0.9,0.95Z"/></svg>