<?xml version="1.0" encoding="UTF-8" standalone="no"?><!DOCTYPE svg PUBLIC "-//W3C//DTD SVG 1.1//EN" "http://www.w3.org/Graphics/SVG/1.1/DTD/svg11.dtd"><svg width="100%" height="100%" viewBox="0 0 28 29" version="1.1" xmlns="http://www.w3.org/2000/svg" xmlns:xlink="http://www.w3.org/1999/xlink" xml:space="preserve" xmlns:serif="http://www.serif.com/" style="fill-rule:evenodd;clip-rule:evenodd;stroke-linejoin:round;stroke-miterlimit:2;"><path d="M17.05,7.7c-0.433,-1.4 -1.033,-2.1 -1.8,-2.1c-0.667,0 -1.3,0.683 -1.9,2.05c-0.5,1.233 -0.75,2.3 -0.75,3.2c-0,1.533 0.517,2.3 1.55,2.3c0.8,-0 1.55,-0.517 2.25,-1.55c0.2,0.467 0.3,0.9 0.3,1.3c0,2.267 -1.383,4.067 -4.15,5.4c-2.133,1.033 -4.317,1.55 -6.55,1.55c1.1,0.5 1.85,0.833 2.25,1c0.767,0.233 1.55,0.35 2.35,0.35c2.267,-0 4.033,-1.083 5.3,-3.25c1.1,-1.9 1.65,-4.25 1.65,-7.05c-0,-1.1 -0.167,-2.167 -0.5,-3.2Zm-1.4,2.2c0,0.233 -0.117,0.433 -0.35,0.6c-0.233,0.167 -0.45,0.25 -0.65,0.25c-0.033,-0 -0.333,-0.167 -0.9,-0.5c0.267,-0.7 0.517,-1.333 0.75,-1.9c0.767,0.4 1.15,0.917 1.15,1.55Z" style="fill:#f00;"/></svg>