<?xml version="1.0" encoding="UTF-8" standalone="no"?><!DOCTYPE svg PUBLIC "-//W3C//DTD SVG 1.1//EN" "http://www.w3.org/Graphics/SVG/1.1/DTD/svg11.dtd"><svg width="100%" height="100%" viewBox="0 0 39 53" version="1.1" xmlns="http://www.w3.org/2000/svg" xmlns:xlink="http://www.w3.org/1999/xlink" xml:space="preserve" xmlns:serif="http://www.serif.com/" style="fill-rule:evenodd;clip-rule:evenodd;stroke-linejoin:round;stroke-miterlimit:2;"><path d="M21.9,27.85l0.05,3.6c1.667,-0 3.417,0.6 5.25,1.8c1.933,1.3 2.9,2.65 2.9,4.05c-0,0.533 -1.067,1 -3.2,1.4c-1.633,0.267 -3.033,0.4 -4.2,0.4c-1.567,0 -3.15,-0.367 -4.75,-1.1c-0.2,1.833 -0.3,2.85 -0.3,3.05c0,1.4 0.55,2.3 1.65,2.7c0.6,0.2 1.917,0.3 3.95,0.3c2.6,0 4.583,-0.667 5.95,-2c1.333,-1.233 2,-2.967 2,-5.2c0,-2.667 -0.767,-5.05 -2.3,-7.15c-1.6,-2.233 -3.833,-3.75 -6.7,-4.55c-0.233,0.767 -0.333,1.667 -0.3,2.7Z"/><path d="M24.25,19.8l3.55,-2.95l-3.5,-3l-3.55,3l3.5,2.95Z"/><path d="M13.3,12.35c-2.133,2.367 -3.2,3.8 -3.2,4.3l0.8,27.1c1.767,-1.233 2.65,-4.517 2.65,-9.85l-0.25,-21.55Z" style="fill:#f00;"/><path d="M26.726,6.436l-9.25,5.1c-0.725,0.4 -0.989,1.313 -0.59,2.038c0.4,0.725 1.313,0.989 2.038,0.59l9.25,-5.1c0.725,-0.4 0.989,-1.313 0.59,-2.038c-0.4,-0.725 -1.313,-0.989 -2.038,-0.59Z"/></svg>