<?xml version="1.0" encoding="UTF-8" standalone="no"?><!DOCTYPE svg PUBLIC "-//W3C//DTD SVG 1.1//EN" "http://www.w3.org/Graphics/SVG/1.1/DTD/svg11.dtd"><svg width="100%" height="100%" viewBox="0 0 37 53" version="1.1" xmlns="http://www.w3.org/2000/svg" xmlns:xlink="http://www.w3.org/1999/xlink" xml:space="preserve" xmlns:serif="http://www.serif.com/" style="fill-rule:evenodd;clip-rule:evenodd;stroke-linejoin:round;stroke-miterlimit:2;"><path d="M21.6,33.65c1.933,1.3 2.9,2.65 2.9,4.05c0,0.533 -1.067,1 -3.2,1.4c-1.633,0.267 -3.033,0.4 -4.2,0.4c-1.567,0 -3.15,-0.367 -4.75,-1.1c-0.2,1.833 -0.3,2.85 -0.3,3.05c-0,1.4 0.55,2.3 1.65,2.7c0.6,0.2 1.917,0.3 3.95,0.3c2.6,0 4.583,-0.667 5.95,-2c1.333,-1.233 2,-2.967 2,-5.2c-0,-2.667 -0.767,-5.05 -2.3,-7.15c-1.6,-2.233 -3.833,-3.75 -6.7,-4.55c-0.233,0.767 -0.333,1.667 -0.3,2.7l0.05,3.6c1.667,0 3.417,0.6 5.25,1.8Z"/><path d="M18.65,20.2l3.55,-2.95l-3.5,-3l-3.55,3l3.5,2.95Z"/><path d="M19.779,6.835l-9.3,5.1c-0.726,0.398 -0.992,1.31 -0.594,2.036c0.398,0.726 1.31,0.992 2.036,0.594l9.3,-5.1c0.726,-0.398 0.992,-1.31 0.594,-2.036c-0.398,-0.726 -1.31,-0.992 -2.036,-0.594Z"/></svg>