<?xml version="1.0" encoding="UTF-8" standalone="no"?><!DOCTYPE svg PUBLIC "-//W3C//DTD SVG 1.1//EN" "http://www.w3.org/Graphics/SVG/1.1/DTD/svg11.dtd"><svg width="100%" height="100%" viewBox="0 0 69 70" version="1.1" xmlns="http://www.w3.org/2000/svg" xmlns:xlink="http://www.w3.org/1999/xlink" xml:space="preserve" xmlns:serif="http://www.serif.com/" style="fill-rule:evenodd;clip-rule:evenodd;stroke-linejoin:round;stroke-miterlimit:2;"><path d="M59.15,32.7l-1.5,5.05c0.7,0.6 1.45,1.4 2.25,2.4c0.9,1.033 1.35,1.783 1.35,2.25c0,2.733 -2.183,5.083 -6.55,7.05c-3.767,1.733 -7.5,2.6 -11.2,2.6c3,2.3 5.933,3.45 8.8,3.45c3.333,0 5.9,-1.783 7.7,-5.35c2.467,-3.267 3.7,-6.533 3.7,-9.8c0,-1.6 -0.333,-2.833 -1,-3.7c-0.533,-1.233 -1.717,-2.55 -3.55,-3.95Z"/><path d="M15.4,49.45c-3.767,1.733 -7.5,2.6 -11.2,2.6c3,2.3 5.933,3.45 8.8,3.45c3.333,-0 5.9,-1.783 7.7,-5.35c2.467,-3.267 3.7,-6.533 3.7,-9.8c0,-1.6 -0.333,-2.833 -1,-3.7c-0.533,-1.233 -1.717,-2.55 -3.55,-3.95l-1.5,5.05c0.7,0.6 1.45,1.4 2.25,2.4c0.9,1.033 1.35,1.783 1.35,2.25c0,2.733 -2.183,5.083 -6.55,7.05Z"/><path d="M5.3,46.3c1.767,-1.333 2.65,-4.883 2.65,-10.65l-0.25,-23.25c-2.133,2.567 -3.183,4.1 -3.15,4.6l0.75,29.3Z"/><path d="M38.95,34.7c-1.2,0 -2.317,0.983 -3.35,2.95c-0.967,1.7 -1.45,3.183 -1.45,4.45c0,2.2 0.933,3.3 2.8,3.3c1.467,-0 2.817,-0.733 4.05,-2.2c0.333,0.667 0.5,1.283 0.5,1.85c0,3.233 -2.45,5.783 -7.35,7.65c-3.833,1.467 -7.75,2.2 -11.75,2.2c1.933,0.733 3.267,1.2 4,1.4c1.367,0.367 2.783,0.55 4.25,0.55c4.033,0 7.183,-1.55 9.45,-4.65c1.967,-2.7 2.95,-6.017 2.95,-9.95c-0,-1.6 -0.283,-3.133 -0.85,-4.6c-0.767,-1.967 -1.85,-2.95 -3.25,-2.95Zm-1.35,3.9c1.367,0.6 2.05,1.333 2.05,2.2c0,0.333 -0.2,0.617 -0.6,0.85c-0.4,0.233 -0.8,0.35 -1.2,0.35c-0.033,0 -0.567,-0.233 -1.6,-0.7c0.467,-1 0.917,-1.9 1.35,-2.7Z"/><path d="M54,23.95l3.9,3.55l3.9,-3.55l-3.9,-3.6l-3.9,3.6Z"/><path d="M38.8,18.75c-0,-0.667 -0.217,-1.283 -0.65,-1.85c-0.5,-0.6 -1.1,-0.9 -1.8,-0.9c-0.967,0 -1.7,0.4 -2.2,1.2c-0.4,0.633 -0.6,1.433 -0.6,2.4c-0,1.5 0.717,2.25 2.15,2.25c0.867,0 1.6,-0.317 2.2,-0.95c0.6,-0.633 0.9,-1.35 0.9,-2.15Zm-3.4,-1.1c0.367,-0 0.833,0.183 1.4,0.55c0.567,0.367 0.85,0.717 0.85,1.05c0,0.5 -0.517,0.75 -1.55,0.75c-1.267,0 -1.9,-0.367 -1.9,-1.1c0,-0.833 0.4,-1.25 1.2,-1.25Z"/><path d="M21.244,12.318l-7.05,4.9c-0.68,0.473 -0.848,1.408 -0.376,2.088c0.473,0.68 1.408,0.848 2.088,0.376l7.05,-4.9c0.68,-0.473 0.848,-1.408 0.376,-2.088c-0.473,-0.68 -1.408,-0.848 -2.088,-0.376Z"/><path d="M20.04,8.471l-7,4.9c-0.678,0.475 -0.844,1.411 -0.369,2.089c0.475,0.678 1.411,0.844 2.089,0.369l7,-4.9c0.678,-0.475 0.844,-1.411 0.369,-2.089c-0.475,-0.678 -1.411,-0.844 -2.089,-0.369Z"/><path d="M59.093,5.935l-9.25,5.9c-0.698,0.446 -0.903,1.374 -0.458,2.072c0.446,0.698 1.374,0.903 2.072,0.458l9.25,-5.9c0.698,-0.446 0.903,-1.374 0.458,-2.072c-0.446,-0.698 -1.374,-0.903 -2.072,-0.458Z"/></svg>