<?xml version="1.0" encoding="UTF-8" standalone="no"?><!DOCTYPE svg PUBLIC "-//W3C//DTD SVG 1.1//EN" "http://www.w3.org/Graphics/SVG/1.1/DTD/svg11.dtd"><svg width="100%" height="100%" viewBox="0 0 78 61" version="1.1" xmlns="http://www.w3.org/2000/svg" xmlns:xlink="http://www.w3.org/1999/xlink" xml:space="preserve" xmlns:serif="http://www.serif.com/" style="fill-rule:evenodd;clip-rule:evenodd;stroke-linejoin:round;stroke-miterlimit:2;"><path d="M58.3,33.35l-1.55,4.65c0.733,0.6 1.5,1.35 2.3,2.25c0.9,0.967 1.35,1.667 1.35,2.1c0,2.5 -2.2,4.683 -6.6,6.55c-3.8,1.6 -7.567,2.4 -11.3,2.4c3.033,2.133 5.983,3.2 8.85,3.2c3.4,0 6,-1.65 7.8,-4.95c2.5,-3.067 3.75,-6.1 3.75,-9.1c0,-1.5 -0.333,-2.633 -1,-3.4c-0.567,-1.167 -1.767,-2.4 -3.6,-3.7Z"/><path d="M18.35,35.9c1.933,1.3 2.9,2.65 2.9,4.05c0,0.533 -1.067,1 -3.2,1.4c-1.633,0.267 -3.033,0.4 -4.2,0.4c-1.567,0 -3.15,-0.367 -4.75,-1.1c-0.2,1.833 -0.3,2.85 -0.3,3.05c-0,1.4 0.55,2.3 1.65,2.7c0.6,0.2 1.917,0.3 3.95,0.3c2.6,0 4.583,-0.667 5.95,-2c1.333,-1.233 2,-2.967 2,-5.2c-0,-2.667 -0.767,-5.05 -2.3,-7.15c-1.6,-2.233 -3.833,-3.75 -6.7,-4.55c-0.233,0.767 -0.333,1.667 -0.3,2.7l0.05,3.6c1.667,0 3.417,0.6 5.25,1.8Z"/><path d="M25.2,48c1.967,0.667 3.317,1.1 4.05,1.3c1.367,0.333 2.783,0.5 4.25,0.5c4.1,0 7.283,-1.433 9.55,-4.3c2,-2.5 3,-5.567 3,-9.2c-0,-1.467 -0.283,-2.883 -0.85,-4.25c-0.8,-1.833 -1.9,-2.75 -3.3,-2.75c-1.2,0 -2.333,0.9 -3.4,2.7c-0.933,1.6 -1.4,2.983 -1.4,4.15c-0,2.033 0.933,3.05 2.8,3.05c1.467,-0 2.833,-0.667 4.1,-2c0.333,0.6 0.5,1.167 0.5,1.7c0,2.967 -2.483,5.317 -7.45,7.05c-3.867,1.367 -7.817,2.05 -11.85,2.05Zm15.35,-15.1c1.4,0.533 2.1,1.217 2.1,2.05c0,0.3 -0.2,0.55 -0.6,0.75c-0.433,0.233 -0.85,0.35 -1.25,0.35c-0.033,0 -0.567,-0.217 -1.6,-0.65c0.467,-0.933 0.917,-1.767 1.35,-2.5Z"/><path d="M53.1,25.25l3.9,3.3l3.95,-3.3l-3.9,-3.35l-3.95,3.35Z"/><path d="M26.85,19.6l0.8,27.1c1.767,-1.233 2.65,-4.517 2.65,-9.85l-0.25,-21.55c-2.133,2.367 -3.2,3.8 -3.2,4.3Z" style="fill:#f00;"/><path d="M16.191,51.656l-5.8,3.4c-0.714,0.419 -0.954,1.338 -0.535,2.053c0.419,0.714 1.338,0.954 2.053,0.535l5.8,-3.4c0.714,-0.419 0.954,-1.338 0.535,-2.053c-0.419,-0.714 -1.338,-0.954 -2.053,-0.535Z"/><path d="M14.887,48.909l-5.75,3.4c-0.713,0.421 -0.95,1.342 -0.528,2.054c0.421,0.713 1.342,0.95 2.054,0.528l5.75,-3.4c0.713,-0.421 0.95,-1.342 0.528,-2.054c-0.421,-0.713 -1.342,-0.95 -2.054,-0.528Z"/><path d="M43.539,11.307l-9.35,5.5c-0.713,0.42 -0.952,1.34 -0.532,2.054c0.42,0.713 1.34,0.952 2.054,0.532l9.35,-5.5c0.713,-0.42 0.952,-1.34 0.532,-2.054c-0.42,-0.713 -1.34,-0.952 -2.054,-0.532Z"/><path d="M57.772,10.8l-8,5.3c-0.691,0.457 -0.88,1.388 -0.422,2.078c0.457,0.691 1.388,0.88 2.078,0.422l8,-5.3c0.691,-0.457 0.88,-1.388 0.422,-2.078c-0.457,-0.691 -1.388,-0.88 -2.078,-0.422Z"/></svg>