<?xml version="1.0" encoding="UTF-8" standalone="no"?><!DOCTYPE svg PUBLIC "-//W3C//DTD SVG 1.1//EN" "http://www.w3.org/Graphics/SVG/1.1/DTD/svg11.dtd"><svg width="100%" height="100%" viewBox="0 0 73 61" version="1.1" xmlns="http://www.w3.org/2000/svg" xmlns:xlink="http://www.w3.org/1999/xlink" xml:space="preserve" xmlns:serif="http://www.serif.com/" style="fill-rule:evenodd;clip-rule:evenodd;stroke-linejoin:round;stroke-miterlimit:2;"><path d="M66.35,39.65c0,-1.5 -0.333,-2.633 -1,-3.4c-0.567,-1.167 -1.767,-2.4 -3.6,-3.7l-1.55,4.65c0.733,0.6 1.5,1.35 2.3,2.25c0.9,0.967 1.35,1.667 1.35,2.1c0,2.5 -2.2,4.683 -6.6,6.55c-3.8,1.6 -7.567,2.4 -11.3,2.4c3.033,2.133 5.983,3.2 8.85,3.2c3.4,-0 6,-1.65 7.8,-4.95c2.5,-3.067 3.75,-6.1 3.75,-9.1Z"/><path d="M5.1,50.2c3.033,2.133 5.983,3.2 8.85,3.2c3.4,-0 6,-1.65 7.8,-4.95c2.5,-3.067 3.75,-6.1 3.75,-9.1c0,-1.5 -0.333,-2.633 -1,-3.4c-0.567,-1.167 -1.767,-2.4 -3.6,-3.7l-1.55,4.65c0.733,0.6 1.5,1.35 2.3,2.25c0.9,0.967 1.35,1.667 1.35,2.1c0,2.5 -2.2,4.683 -6.6,6.55c-3.8,1.6 -7.567,2.4 -11.3,2.4Z"/><path d="M8.6,13.45c-2.133,2.367 -3.2,3.8 -3.2,4.3l0.8,27.1c1.767,-1.233 2.65,-4.517 2.65,-9.85l-0.25,-21.55Z"/><path d="M42,32.75c-0.933,1.6 -1.4,2.983 -1.4,4.15c0,2.033 0.933,3.05 2.8,3.05c1.467,-0 2.833,-0.667 4.1,-2c0.333,0.6 0.5,1.167 0.5,1.7c0,2.967 -2.483,5.317 -7.45,7.05c-3.867,1.367 -7.817,2.05 -11.85,2.05c1.967,0.667 3.317,1.1 4.05,1.3c1.367,0.333 2.783,0.5 4.25,0.5c4.1,0 7.283,-1.433 9.55,-4.3c2,-2.5 3,-5.567 3,-9.2c-0,-1.467 -0.283,-2.883 -0.85,-4.25c-0.8,-1.833 -1.9,-2.75 -3.3,-2.75c-1.2,0 -2.333,0.9 -3.4,2.7Zm2.05,0.9c1.4,0.533 2.1,1.217 2.1,2.05c-0,0.3 -0.2,0.55 -0.6,0.75c-0.433,0.233 -0.85,0.35 -1.25,0.35c-0.033,0 -0.567,-0.217 -1.6,-0.65c0.467,-0.933 0.917,-1.767 1.35,-2.5Z"/><path d="M60.45,27.75l3.95,-3.3l-3.9,-3.35l-3.95,3.35l3.9,3.3Z"/><path d="M45.65,22.9c-0,-0.4 -0.067,-0.85 -0.2,-1.35l-0.4,0.15c-0,1.333 -0.367,2 -1.1,2c-0.333,-0 -0.633,-0.433 -0.9,-1.3l-0.25,0.05c-0.167,0.667 -0.3,1.117 -0.4,1.35c-0.267,0.567 -0.617,0.85 -1.05,0.85c-0.433,0 -0.65,-0.5 -0.65,-1.5l-0.35,0.05c-0.233,0.7 -0.35,1.15 -0.35,1.35c0,0.4 0.1,0.733 0.3,1c0.233,0.333 0.567,0.5 1,0.5c0.367,0 0.733,-0.117 1.1,-0.35c0.333,-0.233 0.517,-0.5 0.55,-0.8c0.3,0.167 0.633,0.25 1,0.25c1.133,0 1.7,-0.75 1.7,-2.25Z"/><path d="M33.55,14.5c-2.133,2.367 -3.2,3.8 -3.2,4.3l0.8,27.1c1.767,-1.233 2.65,-4.517 2.65,-9.85l-0.25,-21.55Z" style="fill:#f00;"/><path d="M22.391,13.237l-7.1,4.55c-0.697,0.447 -0.901,1.375 -0.454,2.072c0.447,0.697 1.375,0.901 2.072,0.454l7.1,-4.55c0.697,-0.447 0.901,-1.375 0.454,-2.072c-0.447,-0.697 -1.375,-0.901 -2.072,-0.454Z"/><path d="M47.045,9.754l-9.35,5.45c-0.716,0.417 -0.958,1.336 -0.541,2.051c0.417,0.716 1.336,0.958 2.051,0.541l9.35,-5.45c0.716,-0.417 0.958,-1.336 0.541,-2.051c-0.417,-0.716 -1.336,-0.958 -2.051,-0.541Z"/><path d="M61.272,9.95l-8,5.3c-0.691,0.457 -0.88,1.388 -0.422,2.078c0.457,0.691 1.388,0.88 2.078,0.422l8,-5.3c0.691,-0.457 0.88,-1.388 0.422,-2.078c-0.457,-0.691 -1.388,-0.88 -2.078,-0.422Z"/><path d="M21.191,9.687l-7.1,4.55c-0.697,0.447 -0.901,1.375 -0.454,2.072c0.447,0.697 1.375,0.901 2.072,0.454l7.1,-4.55c0.697,-0.447 0.901,-1.375 0.454,-2.072c-0.447,-0.697 -1.375,-0.901 -2.072,-0.454Z"/></svg>