<?xml version="1.0" encoding="UTF-8" standalone="no"?><!DOCTYPE svg PUBLIC "-//W3C//DTD SVG 1.1//EN" "http://www.w3.org/Graphics/SVG/1.1/DTD/svg11.dtd"><svg width="100%" height="100%" viewBox="0 0 111 70" version="1.1" xmlns="http://www.w3.org/2000/svg" xmlns:xlink="http://www.w3.org/1999/xlink" xml:space="preserve" xmlns:serif="http://www.serif.com/" style="fill-rule:evenodd;clip-rule:evenodd;stroke-linejoin:round;stroke-miterlimit:2;"><path d="M59.2,34.05l-1.5,5.05c0.7,0.6 1.45,1.4 2.25,2.4c0.9,1.033 1.35,1.783 1.35,2.25c-0,2.733 -2.183,5.083 -6.55,7.05c-3.767,1.733 -7.5,2.6 -11.2,2.6c3,2.3 5.933,3.45 8.8,3.45c3.333,0 5.9,-1.783 7.7,-5.35c2.467,-3.267 3.7,-6.533 3.7,-9.8c-0,-1.6 -0.333,-2.833 -1,-3.7c-0.533,-1.233 -1.717,-2.55 -3.55,-3.95Z"/><path d="M94.7,35.85c-0.233,0.833 -0.333,1.817 -0.3,2.95l0.05,3.85c1.633,-0 3.367,0.667 5.2,2c1.9,1.4 2.85,2.85 2.85,4.35c0,0.6 -1.067,1.1 -3.2,1.5c-1.6,0.3 -2.967,0.45 -4.1,0.45c-1.567,0 -3.133,-0.4 -4.7,-1.2c-0.2,1.967 -0.3,3.05 -0.3,3.25c0,1.567 0.55,2.55 1.65,2.95c0.567,0.233 1.85,0.35 3.85,0.35c2.567,-0 4.533,-0.717 5.9,-2.15c1.3,-1.333 1.95,-3.217 1.95,-5.65c-0,-2.867 -0.733,-5.433 -2.2,-7.7c-1.633,-2.433 -3.85,-4.083 -6.65,-4.95Z"/><path d="M13.6,34.1l0.05,3.85c1.633,0 3.367,0.667 5.2,2c1.9,1.4 2.85,2.85 2.85,4.35c0,0.6 -1.067,1.1 -3.2,1.5c-1.6,0.3 -2.967,0.45 -4.1,0.45c-1.567,-0 -3.133,-0.4 -4.7,-1.2c-0.2,1.967 -0.3,3.05 -0.3,3.25c0,1.567 0.55,2.55 1.65,2.95c0.567,0.233 1.85,0.35 3.85,0.35c2.567,0 4.533,-0.717 5.9,-2.15c1.3,-1.333 1.95,-3.217 1.95,-5.65c-0,-2.867 -0.733,-5.433 -2.2,-7.7c-1.633,-2.433 -3.85,-4.083 -6.65,-4.95c-0.233,0.833 -0.333,1.817 -0.3,2.95Z"/><path d="M28,48.45c1.767,-1.333 2.65,-4.883 2.65,-10.65l-0.25,-23.25c-2.133,2.567 -3.183,4.1 -3.15,4.6l0.75,29.3Z"/><path d="M43,31.35c-1.2,0 -2.317,0.983 -3.35,2.95c-0.967,1.7 -1.45,3.183 -1.45,4.45c0,2.2 0.933,3.3 2.8,3.3c1.467,-0 2.817,-0.733 4.05,-2.2c0.333,0.667 0.5,1.283 0.5,1.85c-0,3.233 -2.45,5.783 -7.35,7.65c-3.833,1.467 -7.75,2.2 -11.75,2.2c1.933,0.733 3.267,1.2 4,1.4c1.367,0.367 2.783,0.55 4.25,0.55c4.033,0 7.183,-1.55 9.45,-4.65c1.967,-2.7 2.95,-6.017 2.95,-9.95c-0,-1.6 -0.283,-3.133 -0.85,-4.6c-0.767,-1.967 -1.85,-2.95 -3.25,-2.95Zm0.1,6.95c-0.4,0.233 -0.8,0.35 -1.2,0.35c-0.033,-0 -0.567,-0.233 -1.6,-0.7c0.467,-1 0.917,-1.9 1.35,-2.7c1.367,0.6 2.05,1.333 2.05,2.2c0,0.333 -0.2,0.617 -0.6,0.85Z"/><path d="M96.75,23.65l-3.5,3.3l3.5,3.15l3.5,-3.15l-3.5,-3.3Z"/><path d="M57.95,28.85l3.9,-3.55l-3.9,-3.6l-3.9,3.6l3.9,3.55Z"/><path d="M38,23.95c-0.233,0.767 -0.35,1.25 -0.35,1.45c0,0.433 0.1,0.8 0.3,1.1c0.2,0.367 0.517,0.55 0.95,0.55c0.367,-0 0.733,-0.133 1.1,-0.4c0.333,-0.233 0.517,-0.533 0.55,-0.9c0.3,0.2 0.633,0.3 1,0.3c1.133,-0 1.7,-0.817 1.7,-2.45c0,-0.433 -0.083,-0.9 -0.25,-1.4l-0.35,0.15c0,1.433 -0.367,2.15 -1.1,2.15c-0.333,-0 -0.617,-0.483 -0.85,-1.45l-0.3,0.1c-0.167,0.733 -0.3,1.217 -0.4,1.45c-0.233,0.6 -0.583,0.9 -1.05,0.9c-0.4,-0 -0.6,-0.533 -0.6,-1.6l-0.35,0.05Z"/><path d="M92.5,10.75c-0.633,1 -0.95,1.967 -0.95,2.9c-0,0.767 0.6,1.567 1.8,2.4c-2.2,1.9 -4.283,3.35 -6.25,4.35c0.7,0.2 1.267,0.3 1.7,0.3c1.6,0 3.533,-1.3 5.8,-3.9c0.933,0.6 1.717,1.067 2.35,1.4l0.25,-2.7c-0.5,-0.367 -0.883,-0.633 -1.15,-0.8c0.6,-1.367 0.9,-2.45 0.9,-3.25c0,-1.6 -0.65,-2.4 -1.95,-2.4c-0.933,-0 -1.767,0.567 -2.5,1.7Zm0.55,1.15c0.067,-0.267 0.25,-0.433 0.55,-0.5c1.033,0.167 1.55,0.733 1.55,1.7c0,0.233 -0.05,0.5 -0.15,0.8c-1.3,-0.667 -1.95,-1.333 -1.95,-2Z"/><path d="M82.8,38.55c-1.2,-0 -2.317,0.983 -3.35,2.95c-0.967,1.7 -1.45,3.183 -1.45,4.45c0,2.2 0.933,3.3 2.8,3.3c1.467,-0 2.817,-0.733 4.05,-2.2c0.333,0.667 0.5,1.283 0.5,1.85c-0,3.233 -2.45,5.783 -7.35,7.65c-3.833,1.467 -7.75,2.2 -11.75,2.2c1.933,0.733 3.267,1.2 4,1.4c1.367,0.367 2.783,0.55 4.25,0.55c4.033,0 7.183,-1.55 9.45,-4.65c1.967,-2.7 2.95,-6.017 2.95,-9.95c0,-1.6 -0.283,-3.133 -0.85,-4.6c-0.767,-1.967 -1.85,-2.95 -3.25,-2.95Zm-1.35,3.9c1.367,0.6 2.05,1.333 2.05,2.2c-0,0.333 -0.2,0.617 -0.6,0.85c-0.4,0.233 -0.8,0.35 -1.2,0.35c-0.033,0 -0.567,-0.233 -1.6,-0.7c0.467,-1 0.917,-1.9 1.35,-2.7Z" style="fill:#f00;"/><path d="M16.583,57.042l-5.7,3.7c-0.694,0.451 -0.892,1.38 -0.441,2.075c0.451,0.694 1.38,0.892 2.075,0.441l5.7,-3.7c0.694,-0.451 0.892,-1.38 0.441,-2.075c-0.451,-0.694 -1.38,-0.892 -2.075,-0.441Z"/><path d="M15.333,54.042l-5.7,3.7c-0.694,0.451 -0.892,1.38 -0.441,2.075c0.451,0.694 1.38,0.892 2.075,0.441l5.7,-3.7c0.694,-0.451 0.892,-1.38 0.441,-2.075c-0.451,-0.694 -1.38,-0.892 -2.075,-0.441Z"/><path d="M58.617,9.787l-7.9,5.75c-0.669,0.487 -0.817,1.426 -0.33,2.096c0.487,0.669 1.426,0.817 2.096,0.33l7.9,-5.75c0.669,-0.487 0.817,-1.426 0.33,-2.096c-0.487,-0.669 -1.426,-0.817 -2.096,-0.33Z"/><path d="M44.539,9.538l-9.25,5.95c-0.697,0.448 -0.898,1.377 -0.451,2.073c0.448,0.697 1.377,0.898 2.073,0.451l9.25,-5.95c0.697,-0.448 0.898,-1.377 0.451,-2.073c-0.448,-0.697 -1.377,-0.898 -2.073,-0.451Z"/></svg>