<?xml version="1.0" encoding="UTF-8" standalone="no"?><!DOCTYPE svg PUBLIC "-//W3C//DTD SVG 1.1//EN" "http://www.w3.org/Graphics/SVG/1.1/DTD/svg11.dtd"><svg width="100%" height="100%" viewBox="0 0 32 73" version="1.1" xmlns="http://www.w3.org/2000/svg" xmlns:xlink="http://www.w3.org/1999/xlink" xml:space="preserve" xmlns:serif="http://www.serif.com/" style="fill-rule:evenodd;clip-rule:evenodd;stroke-linejoin:round;stroke-miterlimit:2;"><path d="M12.4,35c-0.233,0.833 -0.333,1.817 -0.3,2.95l0.05,3.85c1.633,0 3.367,0.667 5.2,2c1.9,1.4 2.85,2.85 2.85,4.35c0,0.6 -1.067,1.1 -3.2,1.5c-1.6,0.3 -2.967,0.45 -4.1,0.45c-1.567,0 -3.133,-0.4 -4.7,-1.2c-0.2,1.967 -0.3,3.05 -0.3,3.25c0,1.567 0.55,2.55 1.65,2.95c0.567,0.233 1.85,0.35 3.85,0.35c2.567,-0 4.533,-0.717 5.9,-2.15c1.3,-1.333 1.95,-3.217 1.95,-5.65c-0,-2.867 -0.733,-5.433 -2.2,-7.7c-1.633,-2.433 -3.85,-4.083 -6.65,-4.95Z"/><path d="M10.95,26.1l3.5,3.15l3.5,-3.15l-3.5,-3.3l-3.5,3.3Z"/><path d="M14.65,10.6c0,-1.6 -0.65,-2.4 -1.95,-2.4c-0.933,-0 -1.767,0.567 -2.5,1.7c-0.633,1 -0.95,1.967 -0.95,2.9c-0,0.767 0.6,1.567 1.8,2.4c-2.2,1.9 -4.283,3.35 -6.25,4.35c0.7,0.2 1.267,0.3 1.7,0.3c1.6,0 3.533,-1.3 5.8,-3.9c0.933,0.6 1.717,1.067 2.35,1.4l0.25,-2.7c-0.5,-0.367 -0.883,-0.633 -1.15,-0.8c0.6,-1.367 0.9,-2.45 0.9,-3.25Zm-3.9,0.45c0.067,-0.267 0.25,-0.433 0.55,-0.5c1.033,0.167 1.55,0.733 1.55,1.7c-0,0.233 -0.05,0.5 -0.15,0.8c-1.3,-0.667 -1.95,-1.333 -1.95,-2Z"/></svg>