<?xml version="1.0" encoding="UTF-8" standalone="no"?><!DOCTYPE svg PUBLIC "-//W3C//DTD SVG 1.1//EN" "http://www.w3.org/Graphics/SVG/1.1/DTD/svg11.dtd"><svg width="100%" height="100%" viewBox="0 0 23 23" version="1.1" xmlns="http://www.w3.org/2000/svg" xmlns:xlink="http://www.w3.org/1999/xlink" xml:space="preserve" xmlns:serif="http://www.serif.com/" style="fill-rule:evenodd;clip-rule:evenodd;stroke-linejoin:round;stroke-miterlimit:2;"><path d="M6.65,16.65c0.6,0.9 1.267,1.55 2,1.95c0.833,0.467 1.633,0.7 2.4,0.7c1.067,0 2.133,-0.75 3.2,-2.25c0.933,-1.3 1.467,-2.5 1.6,-3.6c0.067,-0.033 0.183,-0.05 0.35,-0.05l1.15,-0l0,-3.25l-1.9,-0c-0.367,-0.1 -0.883,-0.4 -1.55,-0.9c-0.167,0.833 -0.367,1.517 -0.6,2.05c0.033,0.1 0.267,0.4 0.7,0.9l0.55,1.15c0,0.6 -0.7,1.383 -2.1,2.35c-1.367,0.967 -2.383,1.45 -3.05,1.45c-0.3,-0 -0.683,-0.05 -1.15,-0.15c-0.467,-0.1 -1,-0.217 -1.6,-0.35Z" style="fill:#f00;"/><path d="M13.7,6.45l1.85,-1.85l-1.85,-1.9l-1.85,1.9l1.85,1.85Z" style="fill:#f00;"/></svg>