<?xml version="1.0" encoding="UTF-8" standalone="no"?><!DOCTYPE svg PUBLIC "-//W3C//DTD SVG 1.1//EN" "http://www.w3.org/Graphics/SVG/1.1/DTD/svg11.dtd"><svg width="100%" height="100%" viewBox="0 0 51 64" version="1.1" xmlns="http://www.w3.org/2000/svg" xmlns:xlink="http://www.w3.org/1999/xlink" xml:space="preserve" xmlns:serif="http://www.serif.com/" style="fill-rule:evenodd;clip-rule:evenodd;stroke-linejoin:round;stroke-miterlimit:2;"><path d="M38.3,34.35l-9.95,-0l0,6.5l9.95,-0l-0,-6.5Z"/><path d="M28.35,34.35l2.4,-0l0,-0.5c-2.533,-0 -3.933,-0.017 -4.2,-0.05c-0.867,-0.167 -2.033,-0.8 -3.5,-1.9c-0.333,1.767 -0.75,3.25 -1.25,4.45c0.067,0.233 0.567,0.867 1.5,1.9c0.8,1.667 1.2,2.517 1.2,2.55c0,1.267 -1.55,2.983 -4.65,5.15c-3.067,2.1 -5.35,3.15 -6.85,3.15c-0.633,-0 -1.483,-0.117 -2.55,-0.35c-1,-0.267 -2.183,-0.517 -3.55,-0.75c1.333,1.933 2.817,3.35 4.45,4.25c1.867,1.033 3.65,1.55 5.35,1.55c2.433,0 4.817,-1.65 7.15,-4.95c2.067,-2.867 3.25,-5.467 3.55,-7.8c0.167,-0.1 0.45,-0.15 0.85,-0.15l2.5,0l-0,-0.05l-2.4,-0l0,-6.5Z" style="fill:#f00;"/><path d="M22.65,25.7l4.15,-3.95l-4.15,-4.1l-4.2,4.1l4.2,3.95Z" style="fill:#f00;"/><path d="M4.859,509.108l-7.75,5.25c-0.686,0.464 -0.865,1.398 -0.401,2.083c0.464,0.686 1.398,0.865 2.083,0.401l7.75,-5.25c0.686,-0.464 0.865,-1.398 0.401,-2.083c-0.464,-0.686 -1.398,-0.865 -2.083,-0.401Zm-125.582,-4.612l-8,5.25c-0.692,0.454 -0.885,1.385 -0.431,2.077c0.454,0.692 1.385,0.885 2.077,0.431l8,-5.25c0.692,-0.454 0.885,-1.385 0.431,-2.077c-0.454,-0.692 -1.385,-0.885 -2.077,-0.431Zm490.312,-3.307l-6,6c-0.585,0.586 -0.585,1.536 0,2.122c0.586,0.585 1.536,0.585 2.122,-0l6,-6c0.585,-0.586 0.585,-1.536 -0,-2.122c-0.586,-0.585 -1.536,-0.585 -2.122,0Zm-119.382,-0.856l-6.5,5.25c-0.644,0.52 -0.744,1.465 -0.224,2.11c0.52,0.644 1.465,0.744 2.11,0.224l6.5,-5.25c0.644,-0.52 0.744,-1.465 0.224,-2.11c-0.52,-0.644 -1.465,-0.744 -2.11,-0.224Zm-93.901,-44.788l-7.75,5.75c-0.665,0.494 -0.804,1.434 -0.311,2.099c0.494,0.665 1.434,0.804 2.099,0.311l7.75,-5.75c0.665,-0.494 0.804,-1.434 0.311,-2.099c-0.494,-0.665 -1.434,-0.804 -2.099,-0.311Zm-189.419,-4.705l-7.75,5c-0.696,0.448 -0.896,1.378 -0.447,2.073c0.448,0.696 1.378,0.896 2.073,0.447l7.75,-5c0.696,-0.448 0.896,-1.378 0.447,-2.073c-0.448,-0.696 -1.378,-0.896 -2.073,-0.447Zm224.349,-2.989l-7.75,6.5c-0.634,0.532 -0.717,1.479 -0.185,2.113c0.532,0.634 1.479,0.717 2.113,0.185l7.75,-6.5c0.634,-0.532 0.717,-1.479 0.185,-2.113c-0.532,-0.634 -1.479,-0.717 -2.113,-0.185Zm-271.261,-2.319l-9.75,7c-0.672,0.482 -0.826,1.42 -0.343,2.093c0.482,0.672 1.42,0.826 2.093,0.343l9.75,-7c0.672,-0.482 0.826,-1.42 0.343,-2.093c-0.482,-0.672 -1.42,-0.826 -2.093,-0.343Zm418.9,-2.127l-7.75,7.25c-0.604,0.565 -0.636,1.515 -0.07,2.12c0.565,0.604 1.515,0.636 2.12,0.07l7.75,-7.25c0.604,-0.565 0.636,-1.515 0.07,-2.12c-0.565,-0.604 -1.515,-0.636 -2.12,-0.07Zm-48.73,-3.518l-7.75,7c-0.615,0.555 -0.663,1.504 -0.108,2.118c0.555,0.615 1.504,0.663 2.118,0.108l7.75,-7c0.615,-0.555 0.663,-1.504 0.108,-2.118c-0.555,-0.615 -1.504,-0.663 -2.118,-0.108Zm45.118,-40.797l-7.5,5.5c-0.668,0.49 -0.812,1.429 -0.323,2.097c0.49,0.668 1.429,0.812 2.097,0.323l7.5,-5.5c0.668,-0.49 0.812,-1.429 0.323,-2.097c-0.49,-0.668 -1.429,-0.812 -2.097,-0.323Zm-231.815,-12.199l-7.3,6c-0.64,0.526 -0.732,1.472 -0.207,2.111c0.526,0.64 1.472,0.732 2.111,0.207l7.3,-6c0.64,-0.526 0.732,-1.472 0.207,-2.111c-0.526,-0.64 -1.472,-0.732 -2.111,-0.207Zm269.019,-1.178l-7.05,6.7c-0.6,0.57 -0.625,1.52 -0.054,2.12c0.57,0.6 1.52,0.625 2.12,0.054l7.05,-6.7c0.6,-0.57 0.625,-1.52 0.054,-2.12c-0.57,-0.6 -1.52,-0.625 -2.12,-0.054Zm-455.069,-2.972l-7.3,6c-0.64,0.526 -0.732,1.472 -0.207,2.111c0.526,0.64 1.472,0.732 2.111,0.207l7.3,-6c0.64,-0.526 0.732,-1.472 0.207,-2.111c-0.526,-0.64 -1.472,-0.732 -2.111,-0.207Zm284.919,-28.153l-7.55,5.5c-0.669,0.487 -0.817,1.426 -0.329,2.095c0.487,0.669 1.426,0.817 2.095,0.329l7.55,-5.5c0.669,-0.487 0.817,-1.426 0.329,-2.095c-0.487,-0.669 -1.426,-0.817 -2.095,-0.329Zm58.142,-1.53l-9.9,6.7c-0.685,0.464 -0.865,1.397 -0.401,2.083c0.464,0.685 1.397,0.865 2.083,0.401l9.9,-6.7c0.685,-0.464 0.865,-1.397 0.401,-2.083c-0.464,-0.685 -1.397,-0.865 -2.083,-0.401Zm-41.596,-1.385l-9.65,5.95c-0.705,0.435 -0.924,1.36 -0.49,2.064c0.435,0.705 1.36,0.924 2.064,0.49l9.65,-5.95c0.705,-0.435 0.924,-1.36 0.49,-2.064c-0.435,-0.705 -1.36,-0.924 -2.064,-0.49Zm-80.307,-1.813l-9.85,6.7c-0.684,0.465 -0.862,1.399 -0.396,2.084c0.465,0.684 1.399,0.862 2.084,0.396l9.85,-6.7c0.684,-0.465 0.862,-1.399 0.396,-2.084c-0.465,-0.684 -1.399,-0.862 -2.084,-0.396Zm-162.793,-2.02l-7.5,5.5c-0.668,0.49 -0.812,1.429 -0.323,2.097c0.49,0.668 1.429,0.812 2.097,0.323l7.5,-5.5c0.668,-0.49 0.812,-1.429 0.323,-2.097c-0.49,-0.668 -1.429,-0.812 -2.097,-0.323Zm344.601,-5.962l-8.95,7.15c-0.647,0.517 -0.753,1.461 -0.236,2.108c0.517,0.647 1.461,0.753 2.108,0.236l8.95,-7.15c0.647,-0.517 0.753,-1.461 0.236,-2.108c-0.517,-0.647 -1.461,-0.753 -2.108,-0.236Zm-300.128,-4.735l-7.75,7.8c-0.584,0.587 -0.581,1.538 0.007,2.121c0.587,0.584 1.538,0.581 2.121,-0.007l7.75,-7.8c0.584,-0.587 0.581,-1.538 -0.007,-2.121c-0.587,-0.584 -1.538,-0.581 -2.121,0.007Zm-29.968,1.844l-7.5,5.45c-0.669,0.486 -0.818,1.425 -0.331,2.095c0.486,0.669 1.425,0.818 2.095,0.331l7.5,-5.45c0.669,-0.486 0.818,-1.425 0.331,-2.095c-0.486,-0.669 -1.425,-0.818 -2.095,-0.331Zm176.702,-56.568l-7.55,4.6c-0.707,0.431 -0.932,1.354 -0.501,2.061c0.431,0.707 1.354,0.932 2.061,0.501l7.55,-4.6c0.707,-0.431 0.932,-1.354 0.501,-2.061c-0.431,-0.707 -1.354,-0.932 -2.061,-0.501Zm102.872,-2.75l-6.6,4.6c-0.679,0.474 -0.846,1.41 -0.373,2.089c0.474,0.679 1.41,0.846 2.089,0.373l6.6,-4.6c0.679,-0.474 0.846,-1.41 0.373,-2.089c-0.474,-0.679 -1.41,-0.846 -2.089,-0.373Zm-414.6,-10.95l-6.6,4.6c-0.679,0.474 -0.846,1.41 -0.373,2.089c0.474,0.679 1.41,0.846 2.089,0.373l6.6,-4.6c0.679,-0.474 0.846,-1.41 0.373,-2.089c-0.474,-0.679 -1.41,-0.846 -2.089,-0.373Zm239.722,-32.414l-9.9,6.65c-0.688,0.461 -0.871,1.394 -0.409,2.081c0.461,0.688 1.394,0.871 2.081,0.409l9.9,-6.65c0.688,-0.461 0.871,-1.394 0.409,-2.081c-0.461,-0.688 -1.394,-0.871 -2.081,-0.409Zm101.05,-3.35l-9.9,6.65c-0.688,0.461 -0.871,1.394 -0.409,2.081c0.461,0.688 1.394,0.871 2.081,0.409l9.9,-6.65c0.688,-0.461 0.871,-1.394 0.409,-2.081c-0.461,-0.688 -1.394,-0.871 -2.081,-0.409Zm145.798,-3.164l-7.55,5.55c-0.667,0.491 -0.811,1.43 -0.321,2.097c0.491,0.667 1.43,0.811 2.097,0.321l7.55,-5.55c0.667,-0.491 0.811,-1.43 0.321,-2.097c-0.491,-0.667 -1.43,-0.811 -2.097,-0.321Zm-439.001,-1.784l-9.85,6.65c-0.686,0.463 -0.867,1.396 -0.404,2.082c0.463,0.686 1.396,0.867 2.082,0.404l9.85,-6.65c0.686,-0.463 0.867,-1.396 0.404,-2.082c-0.463,-0.686 -1.396,-0.867 -2.082,-0.404Zm386.55,-1.776l-8.9,7.15c-0.646,0.518 -0.749,1.463 -0.23,2.108c0.518,0.646 1.463,0.749 2.108,0.23l8.9,-7.15c0.646,-0.518 0.749,-1.463 0.23,-2.108c-0.518,-0.646 -1.463,-0.749 -2.108,-0.23Zm-292.871,-0.223l-8.45,6.45c-0.658,0.502 -0.785,1.444 -0.282,2.102c0.502,0.658 1.444,0.785 2.102,0.282l8.45,-6.45c0.658,-0.502 0.785,-1.444 0.282,-2.102c-0.502,-0.658 -1.444,-0.785 -2.102,-0.282Zm379.574,-0.78l-8.95,7.15c-0.647,0.517 -0.753,1.461 -0.236,2.108c0.517,0.647 1.461,0.753 2.108,0.236l8.95,-7.15c0.647,-0.517 0.753,-1.461 0.236,-2.108c-0.517,-0.647 -1.461,-0.753 -2.108,-0.236Zm-190.047,-76.465l-7.05,6.7c-0.6,0.57 -0.625,1.52 -0.054,2.12c0.57,0.6 1.52,0.625 2.12,0.054l7.05,-6.7c0.6,-0.57 0.625,-1.52 0.054,-2.12c-0.57,-0.6 -1.52,-0.625 -2.12,-0.054Zm132.845,-24.572l-7.55,5.55c-0.667,0.491 -0.811,1.43 -0.321,2.097c0.491,0.667 1.43,0.811 2.097,0.321l7.55,-5.55c0.667,-0.491 0.811,-1.43 0.321,-2.097c-0.491,-0.667 -1.43,-0.811 -2.097,-0.321Zm57.955,-0.853l-7.55,5.5c-0.669,0.487 -0.817,1.426 -0.329,2.095c0.487,0.669 1.426,0.817 2.095,0.329l7.55,-5.5c0.669,-0.487 0.817,-1.426 0.329,-2.095c-0.487,-0.669 -1.426,-0.817 -2.095,-0.329Zm-340.208,-10.73l-9.9,6.7c-0.685,0.464 -0.865,1.397 -0.401,2.083c0.464,0.685 1.397,0.865 2.083,0.401l9.9,-6.7c0.685,-0.464 0.865,-1.397 0.401,-2.083c-0.464,-0.685 -1.397,-0.865 -2.083,-0.401Zm263.034,0.177l-8.7,5.55c-0.698,0.446 -0.903,1.374 -0.458,2.072c0.446,0.698 1.374,0.903 2.072,0.458l8.7,-5.55c0.698,-0.446 0.903,-1.374 0.458,-2.072c-0.446,-0.698 -1.374,-0.903 -2.072,-0.458Zm-54.089,-5.706l-9.9,6.2c-0.702,0.439 -0.915,1.366 -0.475,2.067c0.439,0.702 1.366,0.915 2.067,0.475l9.9,-6.2c0.702,-0.439 0.915,-1.366 0.475,-2.067c-0.439,-0.702 -1.366,-0.915 -2.067,-0.475Zm115.63,-1.083l-7.5,6.9c-0.609,0.561 -0.648,1.51 -0.088,2.12c0.561,0.609 1.51,0.648 2.12,0.088l7.5,-6.9c0.609,-0.561 0.648,-1.51 0.088,-2.12c-0.561,-0.609 -1.51,-0.648 -2.12,-0.088Zm-76.55,-48.205l-7.1,4.6c-0.694,0.45 -0.893,1.38 -0.443,2.075c0.45,0.694 1.38,0.893 2.075,0.443l7.1,-4.6c0.694,-0.45 0.893,-1.38 0.443,-2.075c-0.45,-0.694 -1.38,-0.893 -2.075,-0.443Zm-341.314,-1.872l-7.55,4.6c-0.707,0.431 -0.932,1.354 -0.501,2.061c0.431,0.707 1.354,0.932 2.061,0.501l7.55,-4.6c0.707,-0.431 0.932,-1.354 0.501,-2.061c-0.431,-0.707 -1.354,-0.932 -2.061,-0.501Zm429.138,-38.975l-7.5,5.55c-0.666,0.493 -0.806,1.433 -0.314,2.098c0.493,0.666 1.433,0.806 2.098,0.314l7.5,-5.55c0.666,-0.493 0.806,-1.433 0.314,-2.098c-0.493,-0.666 -1.433,-0.806 -2.098,-0.314Zm-349.195,-12.704l-7.5,5.5c-0.668,0.49 -0.812,1.429 -0.323,2.097c0.49,0.668 1.429,0.812 2.097,0.323l7.5,-5.5c0.668,-0.49 0.812,-1.429 0.323,-2.097c-0.49,-0.668 -1.429,-0.812 -2.097,-0.323Z"/></svg>