<?xml version="1.0" encoding="UTF-8" standalone="no"?><!DOCTYPE svg PUBLIC "-//W3C//DTD SVG 1.1//EN" "http://www.w3.org/Graphics/SVG/1.1/DTD/svg11.dtd"><svg width="100%" height="100%" viewBox="0 0 93 67" version="1.1" xmlns="http://www.w3.org/2000/svg" xmlns:xlink="http://www.w3.org/1999/xlink" xml:space="preserve" xmlns:serif="http://www.serif.com/" style="fill-rule:evenodd;clip-rule:evenodd;stroke-linejoin:round;stroke-miterlimit:2;"><g><path d="M46.4,33.55c-3.133,2.733 -4.967,4.1 -5.5,4.1c-1.767,-0 -3.15,-0.483 -4.15,-1.45c-0.567,-0.567 -1.383,-1.85 -2.45,-3.85c-1,2.167 -1.667,4 -2,5.5c1.367,3.1 2.133,4.917 2.3,5.45c0.7,1.933 1.05,3.883 1.05,5.85c0,1.767 -1.633,3.233 -4.9,4.4c-2.6,0.9 -5,1.35 -7.2,1.35c-3.533,-0 -6.2,-0.533 -8,-1.6c-2.267,-1.4 -3.4,-3.783 -3.4,-7.15c0,-1 0.217,-2.35 0.65,-4.05c0.367,-1.367 0.717,-2.717 1.05,-4.05c-1.167,1.167 -2.2,3.117 -3.1,5.85c-0.833,2.5 -1.25,4.7 -1.25,6.6c0,7.833 3.8,11.75 11.4,11.75c5.067,-0 9.1,-1.633 12.1,-4.9c2.8,-3.067 4.45,-7.183 4.95,-12.35c8.333,-0 15.333,-0.9 21,-2.7c8.8,-2.867 13.2,-7.7 13.2,-14.5c0,-1.733 -0.6,-3.167 -1.8,-4.3c-1.267,-1.167 -2.767,-1.75 -4.5,-1.75c-2.7,-0 -6.05,1.367 -10.05,4.1c-2.267,1.567 -5.4,4.133 -9.4,7.7Zm6.5,3.8l-7.65,0c1.7,-1.7 3.967,-3.517 6.8,-5.45c3.467,-2.367 5.983,-3.55 7.55,-3.55c1.067,0 2.533,0.367 4.4,1.1c2.133,0.867 3.2,1.717 3.2,2.55c0,1.333 -2.05,2.6 -6.15,3.8c-3.467,1.033 -6.183,1.55 -8.15,1.55Z"/><path d="M52.7,14.4l-4.4,-4.4l-4.45,4.4l4.45,4.4l4.4,-4.4Z"/></g></svg>