<?xml version="1.0" encoding="UTF-8" standalone="no"?><!DOCTYPE svg PUBLIC "-//W3C//DTD SVG 1.1//EN" "http://www.w3.org/Graphics/SVG/1.1/DTD/svg11.dtd"><svg width="100%" height="100%" viewBox="0 0 86 67" version="1.1" xmlns="http://www.w3.org/2000/svg" xmlns:xlink="http://www.w3.org/1999/xlink" xml:space="preserve" xmlns:serif="http://www.serif.com/" style="fill-rule:evenodd;clip-rule:evenodd;stroke-linejoin:round;stroke-miterlimit:2;"><g><path d="M63.65,24.2c-1.067,-2.9 -2.417,-4.35 -4.05,-4.35c-1.367,0 -2.8,1.433 -4.3,4.3c-1.367,2.567 -2.05,4.683 -2.05,6.35c-0,1.3 0.383,2.35 1.15,3.15c0.733,0.767 1.75,1.15 3.05,1.15c1.5,0 2.983,-0.65 4.45,-1.95c0.467,0.667 0.7,1.533 0.7,2.6c0,1.967 -3.367,3.65 -10.1,5.05c-5.233,1.1 -9.55,1.65 -12.95,1.65c-3.9,-0 -7.483,-0.533 -10.75,-1.6c-4.7,-1.467 -7.05,-3.717 -7.05,-6.75c-0,-0.533 0.25,-1.533 0.75,-3c0.5,-1.467 0.917,-2.467 1.25,-3c-1.467,0.4 -2.75,1.717 -3.85,3.95c-1,1.967 -1.5,3.817 -1.5,5.55c-0,7.633 6,11.45 18,11.45c8.233,0 14.567,-1 19,-3c6.333,-2.9 9.5,-7.95 9.5,-15.15c-0,-1.967 -0.417,-4.1 -1.25,-6.4Zm-3.05,4.1c0,1.233 -0.667,1.85 -2,1.85c-0.667,-0 -1.217,-0.233 -1.65,-0.7c-0.1,-0.133 -0.433,-0.683 -1,-1.65c1.2,-1.3 1.967,-1.95 2.3,-1.95c0.533,0 1.05,0.283 1.55,0.85c0.533,0.567 0.8,1.1 0.8,1.6Z"/><path d="M61.7,11.1l-4.45,-4.4l-4.45,4.4l4.45,4.4l4.45,-4.4Z"/></g></svg>