<?xml version="1.0" encoding="UTF-8" standalone="no"?><!DOCTYPE svg PUBLIC "-//W3C//DTD SVG 1.1//EN" "http://www.w3.org/Graphics/SVG/1.1/DTD/svg11.dtd"><svg width="100%" height="100%" viewBox="0 0 86 84" version="1.1" xmlns="http://www.w3.org/2000/svg" xmlns:xlink="http://www.w3.org/1999/xlink" xml:space="preserve" xmlns:serif="http://www.serif.com/" style="fill-rule:evenodd;clip-rule:evenodd;stroke-linejoin:round;stroke-miterlimit:2;"><g><path d="M46.4,34.1l-0,-3.3c-0.633,0.3 -2.75,1.767 -6.35,4.4c-3.167,2.367 -5.05,3.55 -5.65,3.55c-1.6,0 -3.6,-0.683 -6,-2.05c-2.667,-1.533 -4,-3 -4,-4.4c-0,-1.8 1.983,-3.333 5.95,-4.6c3.2,-1.033 6,-1.55 8.4,-1.55c-2.467,-2.267 -5.35,-3.4 -8.65,-3.4c-2.8,-0 -4.883,1.617 -6.25,4.85c-0.967,2.4 -1.45,5.233 -1.45,8.5c-0,2.467 0.567,4.333 1.7,5.6c0.2,0.267 1.767,1.5 4.7,3.7c-1.433,1.9 -2.633,4.35 -3.6,7.35c-0.967,3 -1.45,5.683 -1.45,8.05c0,5.8 1.633,10.2 4.9,13.2c3.167,2.833 7.683,4.25 13.55,4.25c2.8,-0 6.167,-0.75 10.1,-2.25c3.333,-1.267 6.45,-2.817 9.35,-4.65c-0.567,0 -2.35,0.083 -5.35,0.25c-3.033,0.167 -5.583,0.25 -7.65,0.25c-14.6,0 -21.9,-3.833 -21.9,-11.5c-0,-3.667 1.1,-7 3.3,-10c1.567,-2.2 4.067,-4.6 7.5,-7.2c5.533,-4.167 8.367,-6.283 8.5,-6.35l0.35,-2.7Z"/><path d="M35.3,12.7l-4.45,-4.45l-4.4,4.45l4.45,4.35l4.4,-4.35Z"/></g></svg>