<?xml version="1.0" encoding="UTF-8" standalone="no"?><!DOCTYPE svg PUBLIC "-//W3C//DTD SVG 1.1//EN" "http://www.w3.org/Graphics/SVG/1.1/DTD/svg11.dtd"><svg width="100%" height="100%" viewBox="0 0 61 85" version="1.1" xmlns="http://www.w3.org/2000/svg" xmlns:xlink="http://www.w3.org/1999/xlink" xml:space="preserve" xmlns:serif="http://www.serif.com/" style="fill-rule:evenodd;clip-rule:evenodd;stroke-linejoin:round;stroke-miterlimit:2;"><g><path d="M17.75,36.1c-2.133,4.1 -3.2,8.517 -3.2,13.25c0,7.033 1.767,11.983 5.3,14.85c3.2,2.6 8.45,3.9 15.75,3.9c2.9,-0 5.65,-0.567 8.25,-1.7c2.5,-1.2 5.017,-2.383 7.55,-3.55l-0,-1c-1,-0 -2.783,0.05 -5.35,0.15c-2.567,0.067 -4.583,0.1 -6.05,0.1c-6.833,-0 -12,-0.867 -15.5,-2.6c-4.867,-2.367 -7.3,-6.567 -7.3,-12.6c-0,-5.6 2.05,-10.433 6.15,-14.5c4.067,-4.067 8.933,-6.1 14.6,-6.1c1.9,0 3.3,-0.283 4.2,-0.85c0.8,-0.467 1.45,-1.3 1.95,-2.5c0.533,-1.433 1.067,-2.85 1.6,-4.25c-2.167,-0 -5.417,-0.217 -9.75,-0.65c-4.333,-0.467 -7.55,-0.7 -9.65,-0.7c-2.567,-0 -4.833,0.767 -6.8,2.3c-2.2,1.667 -3.3,3.783 -3.3,6.35l-0,1.3c1.767,-2.4 3.683,-3.6 5.75,-3.6c1.267,-0 2.65,0.55 4.15,1.65c-3.767,3.767 -6.55,7.35 -8.35,10.75Z"/></g></svg>