<?xml version="1.0" encoding="UTF-8" standalone="no"?><!DOCTYPE svg PUBLIC "-//W3C//DTD SVG 1.1//EN" "http://www.w3.org/Graphics/SVG/1.1/DTD/svg11.dtd"><svg width="100%" height="100%" viewBox="0 0 49 84" version="1.1" xmlns="http://www.w3.org/2000/svg" xmlns:xlink="http://www.w3.org/1999/xlink" xml:space="preserve" xmlns:serif="http://www.serif.com/" style="fill-rule:evenodd;clip-rule:evenodd;stroke-linejoin:round;stroke-miterlimit:2;"><g><path d="M19.1,33.3c0,0.2 0.067,0.5 0.2,0.9c0.1,0.367 0.15,0.633 0.15,0.8c-2,4.033 -3,7.317 -3,9.85c-0,4.1 1.667,6.15 5,6.15c2.733,0 4.85,-1.233 6.35,-3.7c1.333,-2.1 2,-4.583 2,-7.45c-0,-2.167 -0.5,-3.983 -1.5,-5.45c-0.633,-0.967 -1.783,-2.133 -3.45,-3.5c-1.867,-1.533 -3.217,-2.8 -4.05,-3.8c-1.133,2.7 -1.7,4.767 -1.7,6.2Zm8,8.2c0,0.567 -0.683,1.2 -2.05,1.9c-1.267,0.633 -2.25,0.95 -2.95,0.95c-1.767,0 -2.65,-1.117 -2.65,-3.35c-0,-1.733 0.683,-3.283 2.05,-4.65c3.733,2.8 5.6,4.517 5.6,5.15Z"/></g></svg>