<?xml version="1.0" encoding="UTF-8" standalone="no"?><!DOCTYPE svg PUBLIC "-//W3C//DTD SVG 1.1//EN" "http://www.w3.org/Graphics/SVG/1.1/DTD/svg11.dtd"><svg width="100%" height="100%" viewBox="0 0 37 59" version="1.1" xmlns="http://www.w3.org/2000/svg" xmlns:xlink="http://www.w3.org/1999/xlink" xml:space="preserve" xmlns:serif="http://www.serif.com/" style="fill-rule:evenodd;clip-rule:evenodd;stroke-linejoin:round;stroke-miterlimit:2;"><g><path d="M16.55,36.05c-0,0.433 0.083,1.033 0.25,1.8c4.3,-2.9 7.5,-4.35 9.6,-4.35c0.367,0 0.95,0.133 1.75,0.4c0.4,-0.2 0.85,-0.767 1.35,-1.7c0.3,-0.667 0.617,-1.35 0.95,-2.05l-3.35,0c-5.1,0 -7.65,-0.717 -7.65,-2.15c0,-0.533 0.417,-1.133 1.25,-1.8c0.833,-0.7 1.517,-1.05 2.05,-1.05c0.067,0 0.45,0.117 1.15,0.35c0.7,0.233 1.217,0.35 1.55,0.35c1.333,-0 2,-0.617 2,-1.85c0,-0.467 -0.383,-0.933 -1.15,-1.4c-0.733,-0.5 -1.35,-0.75 -1.85,-0.75c-2.9,-0 -5.9,2.45 -9,7.35c0,0.733 0.333,1.583 1,2.55c0.633,0.933 0.95,1.55 0.95,1.85c0,0.067 -0.133,0.383 -0.4,0.95c-0.3,0.567 -0.45,1.067 -0.45,1.5Z"/></g></svg>