<?xml version="1.0" encoding="UTF-8" standalone="no"?><!DOCTYPE svg PUBLIC "-//W3C//DTD SVG 1.1//EN" "http://www.w3.org/Graphics/SVG/1.1/DTD/svg11.dtd"><svg width="100%" height="100%" viewBox="0 0 69 84" version="1.1" xmlns="http://www.w3.org/2000/svg" xmlns:xlink="http://www.w3.org/1999/xlink" xml:space="preserve" xmlns:serif="http://www.serif.com/" style="fill-rule:evenodd;clip-rule:evenodd;stroke-linejoin:round;stroke-miterlimit:2;"><g><path d="M54.7,32.1c0.533,-1.2 0.8,-2.3 0.8,-3.3c0,-0.5 -0.183,-1.117 -0.55,-1.85l-1.3,-0.8c-3.167,-0 -6.567,2.383 -10.2,7.15c-3.467,4.533 -5.2,8.467 -5.2,11.8c0,2 0.733,3.45 2.2,4.35c1.133,0.733 2.817,1.2 5.05,1.4c1.8,0.033 3.583,0.1 5.35,0.2c-1.033,1.9 -3.767,3.633 -8.2,5.2c-3.9,1.4 -7.183,2.1 -9.85,2.1c-7.5,0 -11.25,-3.267 -11.25,-9.8c0,-1.833 0.55,-4.65 1.65,-8.45c-1.367,0.667 -2.567,2.433 -3.6,5.3c-0.933,2.533 -1.4,4.733 -1.4,6.6c-0,4.333 1.067,7.667 3.2,10c2.2,2.433 5.45,3.65 9.75,3.65c4.533,-0 9.383,-1.483 14.55,-4.45c5.867,-3.367 8.8,-7.15 8.8,-11.35c0,-2.1 -1.167,-3.533 -3.5,-4.3c-2.2,-0.4 -4.383,-0.8 -6.55,-1.2c-2.367,-0.467 -3.55,-1.383 -3.55,-2.75c-0,-1.433 1.267,-3.15 3.8,-5.15c2.233,-1.7 4.183,-2.817 5.85,-3.35c0.733,0.333 1.233,0.617 1.5,0.85c0.1,0.1 0.483,0.5 1.15,1.2c0.5,-1.033 1,-2.05 1.5,-3.05Z"/></g></svg>