<?xml version="1.0" encoding="UTF-8" standalone="no"?><!DOCTYPE svg PUBLIC "-//W3C//DTD SVG 1.1//EN" "http://www.w3.org/Graphics/SVG/1.1/DTD/svg11.dtd"><svg width="100%" height="100%" viewBox="0 0 64 81" version="1.1" xmlns="http://www.w3.org/2000/svg" xmlns:xlink="http://www.w3.org/1999/xlink" xml:space="preserve" xmlns:serif="http://www.serif.com/" style="fill-rule:evenodd;clip-rule:evenodd;stroke-linejoin:round;stroke-miterlimit:2;"><g><path d="M48.55,22.3c0,3.033 0.05,7.567 0.15,13.6c0.133,6.067 0.2,10.617 0.2,13.65c-0,2.167 -2.533,4.05 -7.6,5.65c-4.033,1.267 -7.55,1.9 -10.55,1.9c-8.033,0 -12.05,-2.417 -12.05,-7.25c-0,-2.6 0.433,-5.033 1.3,-7.3c-1.3,0.6 -2.483,2.3 -3.55,5.1c-0.967,2.433 -1.45,4.533 -1.45,6.3c-0,6.533 4.267,9.8 12.8,9.8c4.267,0 9.217,-1.333 14.85,-4c6.567,-3.1 9.85,-6.5 9.85,-10.2c-0,-3.633 -0.05,-9.067 -0.15,-16.3c-0.1,-7.233 -0.15,-12.667 -0.15,-16.3c-0.533,0.467 -1.25,1.333 -2.15,2.6c-1,1.4 -1.5,2.317 -1.5,2.75Z"/><path d="M39.2,34.4c-0,-0.467 -0.2,-0.933 -0.6,-1.4c-0.4,-0.5 -0.85,-0.75 -1.35,-0.75c-0.967,0 -2.383,1.483 -4.25,4.45c-1.8,2.833 -2.7,4.783 -2.7,5.85c0,1.033 0.817,1.55 2.45,1.55c2.1,0.033 3.5,0.4 4.2,1.1c-1.6,1.567 -3.267,2.35 -5,2.35c-0.867,0 -1.867,-0.117 -3,-0.35c0.7,0.933 1.267,1.533 1.7,1.8c0.567,0.367 1.383,0.55 2.45,0.55c1.733,0 3.117,-0.433 4.15,-1.3c1.133,-0.9 1.7,-2.2 1.7,-3.9c-0,-1.633 -1.033,-2.667 -3.1,-3.1c-2.033,-0.4 -3.05,-0.75 -3.05,-1.05c0,-0.6 0.367,-1.267 1.1,-2c0.733,-0.767 1.4,-1.15 2,-1.15c0.467,0 0.917,0.167 1.35,0.5c1.3,-0.667 1.95,-1.717 1.95,-3.15Z"/></g></svg>