<?xml version="1.0" encoding="UTF-8" standalone="no"?><!DOCTYPE svg PUBLIC "-//W3C//DTD SVG 1.1//EN" "http://www.w3.org/Graphics/SVG/1.1/DTD/svg11.dtd"><svg width="100%" height="100%" viewBox="0 0 69 67" version="1.1" xmlns="http://www.w3.org/2000/svg" xmlns:xlink="http://www.w3.org/1999/xlink" xml:space="preserve" xmlns:serif="http://www.serif.com/" style="fill-rule:evenodd;clip-rule:evenodd;stroke-linejoin:round;stroke-miterlimit:2;"><g><path d="M28.85,53.55c-7.533,0 -11.3,-2.983 -11.3,-8.95c0,-1.667 0.583,-4.433 1.75,-8.3c-1.467,0.567 -2.6,2.3 -3.4,5.2c-0.667,2.267 -1,4.45 -1,6.55c-0,4.1 1.117,7.25 3.35,9.45c2.2,2.233 5.35,3.35 9.45,3.35c4.8,0 9.167,-1.767 13.1,-5.3c4.033,-3.667 6.05,-7.867 6.05,-12.6c0,-2.633 -0.483,-5.35 -1.45,-8.15c-1.267,-3.667 -2.933,-5.5 -5,-5.5c-1.567,0 -3.017,1.25 -4.35,3.75c-1.2,2.167 -1.8,4.133 -1.8,5.9c0,3.767 2.383,5.65 7.15,5.65c0.433,0 1.483,-0.1 3.15,-0.3l0,2.65c-1.767,2.167 -4.117,3.833 -7.05,5c-2.7,1.067 -5.583,1.6 -8.65,1.6Zm8.05,-15.6l-0,-1c1.367,-1.767 2.2,-2.65 2.5,-2.65c0.633,0 1.467,0.883 2.5,2.65l-0,1.7l-2.35,0.3c-0.267,0.033 -1.15,-0.3 -2.65,-1Z"/><path d="M46.4,17l-3.95,-3.8l-3.85,3.9l-3.85,-3.9l-3.9,3.8l3.9,3.95l3.9,-3.85l3.8,3.85l3.95,-3.95Z"/></g></svg>