<?xml version="1.0" encoding="UTF-8" standalone="no"?><!DOCTYPE svg PUBLIC "-//W3C//DTD SVG 1.1//EN" "http://www.w3.org/Graphics/SVG/1.1/DTD/svg11.dtd"><svg width="100%" height="100%" viewBox="0 0 61 81" version="1.1" xmlns="http://www.w3.org/2000/svg" xmlns:xlink="http://www.w3.org/1999/xlink" xml:space="preserve" xmlns:serif="http://www.serif.com/" style="fill-rule:evenodd;clip-rule:evenodd;stroke-linejoin:round;stroke-miterlimit:2;"><g><path d="M40.3,26c0.2,-1.3 0.383,-2.6 0.55,-3.9c-1.833,-0.233 -3.017,-1.033 -3.55,-2.4c-0.267,-0.8 -0.4,-2.317 -0.4,-4.55c-1.467,1.933 -2.717,4.75 -3.75,8.45c1.033,1.267 1.833,2.217 2.4,2.85c0.1,2.033 0.55,7.517 1.35,16.45c0.633,6.9 0.95,12.433 0.95,16.6c-0,1.867 -1.3,3.367 -3.9,4.5c-2.1,0.867 -4.217,1.3 -6.35,1.3c-6.133,0 -9.2,-2.633 -9.2,-7.9c0,-0.233 0.283,-2.467 0.85,-6.7c-1.2,1 -2.15,2.833 -2.85,5.5c-0.567,2.167 -0.85,4.267 -0.85,6.3c0,3.733 0.767,6.45 2.3,8.15c1.633,1.767 4.317,2.65 8.05,2.65c9.967,0 14.95,-7.167 14.95,-21.5c-0,-7.167 -0.783,-14.733 -2.35,-22.7c0.867,-0.433 1.467,-1.467 1.8,-3.1Z"/></g></svg>