<?xml version="1.0" encoding="UTF-8" standalone="no"?><!DOCTYPE svg PUBLIC "-//W3C//DTD SVG 1.1//EN" "http://www.w3.org/Graphics/SVG/1.1/DTD/svg11.dtd"><svg width="100%" height="100%" viewBox="0 0 55 85" version="1.1" xmlns="http://www.w3.org/2000/svg" xmlns:xlink="http://www.w3.org/1999/xlink" xml:space="preserve" xmlns:serif="http://www.serif.com/" style="fill-rule:evenodd;clip-rule:evenodd;stroke-linejoin:round;stroke-miterlimit:2;"><g><path d="M32.8,22.4c-2.633,-1.767 -4.55,-2.65 -5.75,-2.65c-1.7,-0 -3.2,0.833 -4.5,2.5c-1.033,1.3 -1.817,2.917 -2.35,4.85c1.367,-0.733 2.5,-1.1 3.4,-1.1c1.467,-0 2.9,0.917 4.3,2.75c-3.633,0.633 -6.267,1.483 -7.9,2.55c-2.333,1.5 -3.5,3.783 -3.5,6.85c0,0.4 0.017,0.817 0.05,1.25l2.35,25.9c0.867,-1.4 1.3,-3.3 1.3,-5.7l-0.1,-24.05c0,-0.367 0.133,-0.733 0.4,-1.1c0.267,-0.5 0.55,-0.75 0.85,-0.75c5.567,0 9.05,0.117 10.45,0.35c0.9,0.133 1.483,0.15 1.75,0.05c2.233,-4.9 3.35,-7.4 3.35,-7.5c-0,-0.967 -1.367,-2.367 -4.1,-4.2Z"/></g></svg>