<?xml version="1.0" encoding="UTF-8" standalone="no"?><!DOCTYPE svg PUBLIC "-//W3C//DTD SVG 1.1//EN" "http://www.w3.org/Graphics/SVG/1.1/DTD/svg11.dtd"><svg width="100%" height="100%" viewBox="0 0 53 84" version="1.1" xmlns="http://www.w3.org/2000/svg" xmlns:xlink="http://www.w3.org/1999/xlink" xml:space="preserve" xmlns:serif="http://www.serif.com/" style="fill-rule:evenodd;clip-rule:evenodd;stroke-linejoin:round;stroke-miterlimit:2;"><g><path d="M37.6,58.8c3,-3.133 4.5,-6.917 4.5,-11.35c0,-5.767 -1.6,-10.617 -4.8,-14.55c-0.9,1.667 -1.767,4.017 -2.6,7.05c1.567,2.1 2.583,3.583 3.05,4.45c1,1.767 1.5,3.483 1.5,5.15c0,2.033 -1.6,3.75 -4.8,5.15c-2.667,1.167 -5.183,1.75 -7.55,1.75c-5.9,0 -8.85,-2.467 -8.85,-7.4c-0,-0.8 0.167,-2 0.5,-3.6c0.333,-1.567 0.5,-2.75 0.5,-3.55c-1.2,1.233 -2.167,2.983 -2.9,5.25c-0.7,2.067 -1.05,4.05 -1.05,5.95c0,3.467 1.05,6.1 3.15,7.9c1.933,1.7 4.667,2.55 8.2,2.55c4.433,-0 8.15,-1.583 11.15,-4.75Z"/><path d="M26.25,30.1l4.45,-4.4l-4.45,-4.4l-4.4,4.4l4.4,4.4Z"/></g></svg>