<?xml version="1.0" encoding="UTF-8" standalone="no"?><!DOCTYPE svg PUBLIC "-//W3C//DTD SVG 1.1//EN" "http://www.w3.org/Graphics/SVG/1.1/DTD/svg11.dtd"><svg width="100%" height="100%" viewBox="0 0 55 91" version="1.1" xmlns="http://www.w3.org/2000/svg" xmlns:xlink="http://www.w3.org/1999/xlink" xml:space="preserve" xmlns:serif="http://www.serif.com/" style="fill-rule:evenodd;clip-rule:evenodd;stroke-linejoin:round;stroke-miterlimit:2;"><g><path d="M25.7,59.65c4.1,-0 7.583,-2.483 10.45,-7.45c2.467,-4.3 3.7,-8.65 3.7,-13.05c0,-2.2 -0.433,-4.083 -1.3,-5.65c-0.633,-1.167 -1.867,-2.667 -3.7,-4.5l-1.65,6.3c0.933,1.067 1.867,2.133 2.8,3.2c1.233,1.533 1.85,2.683 1.85,3.45c0,4.033 -2.917,7.483 -8.75,10.35c-4.967,2.433 -9.683,3.65 -14.15,3.65c3.6,2.467 7.183,3.7 10.75,3.7Z"/></g></svg>