<?xml version="1.0" encoding="UTF-8" standalone="no"?><!DOCTYPE svg PUBLIC "-//W3C//DTD SVG 1.1//EN" "http://www.w3.org/Graphics/SVG/1.1/DTD/svg11.dtd"><svg width="100%" height="100%" viewBox="0 0 99 67" version="1.1" xmlns="http://www.w3.org/2000/svg" xmlns:xlink="http://www.w3.org/1999/xlink" xml:space="preserve" xmlns:serif="http://www.serif.com/" style="fill-rule:evenodd;clip-rule:evenodd;stroke-linejoin:round;stroke-miterlimit:2;"><g><path d="M67.45,31.6c0.433,1.7 0.817,2.967 1.15,3.8l-0.5,0.85l-1.65,0.35c-2.8,0 -4.683,-0.833 -5.65,-2.5c0.433,-1.4 0.667,-2.767 0.7,-4.1c-1.367,1.733 -2.733,3.483 -4.1,5.25c-1.433,1.567 -3.45,2.35 -6.05,2.35c-2.1,0 -3.733,-0.467 -4.9,-1.4c-0.933,-0.733 -1.9,-2.15 -2.9,-4.25c-0.733,1.867 -1.833,3.867 -3.3,6c2.4,3.1 3.6,6.85 3.6,11.25c0,1.767 -1.6,3.2 -4.8,4.3c-2.5,0.867 -4.867,1.3 -7.1,1.3c-7.733,0 -11.6,-2.967 -11.6,-8.9c0,-1.633 0.567,-4.283 1.7,-7.95c-1.333,1.1 -2.417,3.017 -3.25,5.75c-0.733,2.333 -1.1,4.55 -1.1,6.65c-0,7.867 3.867,11.8 11.6,11.8c5.433,-0 9.667,-1.75 12.7,-5.25c2.833,-3.333 4.25,-7.767 4.25,-13.3c2.1,0.533 3.917,0.8 5.45,0.8c1.7,-0 3.05,-0.35 4.05,-1.05c1.067,-0.833 2.15,-1.65 3.25,-2.45c0.3,0.1 1.233,0.633 2.8,1.6c1.133,0.733 2.133,1.1 3,1.1c2,0 3.517,-1.833 4.55,-5.5c0.733,-2.533 1.1,-5.167 1.1,-7.9c-0,-0.633 -0.333,-1.6 -1,-2.9c-0.467,1.433 -1.133,2.867 -2,4.3Z"/><path d="M51.1,17l3.85,3.95l3.85,-3.85l-3.9,-3.85l-3.8,3.75Z"/><path d="M62.65,20.95l3.9,-3.95l-3.9,-3.75l-3.85,3.85l3.85,3.85Z"/><path d="M59,5.2l-3.85,3.8l3.85,3.95l3.9,-3.95l-3.9,-3.8Z"/></g></svg>