<?xml version="1.0" encoding="UTF-8" standalone="no"?><!DOCTYPE svg PUBLIC "-//W3C//DTD SVG 1.1//EN" "http://www.w3.org/Graphics/SVG/1.1/DTD/svg11.dtd"><svg width="100%" height="100%" viewBox="0 0 64 84" version="1.1" xmlns="http://www.w3.org/2000/svg" xmlns:xlink="http://www.w3.org/1999/xlink" xml:space="preserve" xmlns:serif="http://www.serif.com/" style="fill-rule:evenodd;clip-rule:evenodd;stroke-linejoin:round;stroke-miterlimit:2;"><g><path d="M43.85,43c0,-2.133 -0.383,-4.217 -1.15,-6.25c-0.967,-2.667 -2.333,-4 -4.1,-4c-1.533,0 -2.95,1.317 -4.25,3.95c-1.2,2.367 -1.8,4.417 -1.8,6.15c-0,3 1.183,4.5 3.55,4.5c1.833,0 3.533,-1 5.1,-3c0.433,0.9 0.65,1.733 0.65,2.5c0,4.4 -3.117,7.883 -9.35,10.45c-4.833,2 -9.783,3 -14.85,3c2.433,0.967 4.117,1.6 5.05,1.9c1.733,0.5 3.517,0.75 5.35,0.75c5.133,0 9.133,-2.117 12,-6.35c2.533,-3.667 3.8,-8.2 3.8,-13.6Zm-8.65,-1.3c0.567,-1.367 1.133,-2.6 1.7,-3.7c1.733,0.833 2.6,1.833 2.6,3c0,0.467 -0.25,0.867 -0.75,1.2c-0.533,0.3 -1.05,0.45 -1.55,0.45c-0.033,-0 -0.7,-0.317 -2,-0.95Z"/></g></svg>