<?xml version="1.0" encoding="UTF-8" standalone="no"?><!DOCTYPE svg PUBLIC "-//W3C//DTD SVG 1.1//EN" "http://www.w3.org/Graphics/SVG/1.1/DTD/svg11.dtd"><svg width="100%" height="100%" viewBox="0 0 65 81" version="1.1" xmlns="http://www.w3.org/2000/svg" xmlns:xlink="http://www.w3.org/1999/xlink" xml:space="preserve" xmlns:serif="http://www.serif.com/" style="fill-rule:evenodd;clip-rule:evenodd;stroke-linejoin:round;stroke-miterlimit:2;"><g><path d="M34.75,26.5c0.9,-0.533 1.633,-1.517 2.2,-2.95c0.3,-0.7 0.667,-1.933 1.1,-3.7c-2.367,-1.133 -3.55,-2.617 -3.55,-4.45c-0,-0.733 0.083,-1.683 0.25,-2.85c-3.1,3.467 -4.65,6.067 -4.65,7.8c0,0.4 0.333,1.1 1,2.1c0.667,1 1,1.583 1,1.75l0,25.2c0,0.533 -0.883,1.667 -2.65,3.4c-1.767,1.733 -2.933,2.583 -3.5,2.55l-12.1,-1.3c2.2,3.267 4.667,5.467 7.4,6.6c2.2,0.9 5.5,1.35 9.9,1.35c5.667,-0 11.267,-1.3 16.8,-3.9c6.867,-3.233 10.3,-7.417 10.3,-12.55c-0,-1.7 -0.817,-3.217 -2.45,-4.55c-1.533,-1.267 -3.15,-1.9 -4.85,-1.9c-1.9,0 -4.65,1.133 -8.25,3.4c-2.533,1.733 -5.067,3.483 -7.6,5.25l-0.35,-21.25Zm17.8,22.9c-0,1.367 -2.583,2.7 -7.75,4c-4.333,1.067 -7.567,1.6 -9.7,1.6c-0.333,-0 -1.333,-0.2 -3,-0.6c5.467,-5.567 10.083,-8.35 13.85,-8.35c1.233,-0 2.55,0.267 3.95,0.8c1.767,0.7 2.65,1.55 2.65,2.55Z"/><path d="M45.55,34.05l4.4,-4.35l-4.4,-4.45l-4.45,4.45l4.45,4.35Z"/></g></svg>