<?xml version="1.0" encoding="UTF-8" standalone="no"?><!DOCTYPE svg PUBLIC "-//W3C//DTD SVG 1.1//EN" "http://www.w3.org/Graphics/SVG/1.1/DTD/svg11.dtd"><svg width="100%" height="100%" viewBox="0 0 117 62" version="1.1" xmlns="http://www.w3.org/2000/svg" xmlns:xlink="http://www.w3.org/1999/xlink" xml:space="preserve" xmlns:serif="http://www.serif.com/" style="fill-rule:evenodd;clip-rule:evenodd;stroke-linejoin:round;stroke-miterlimit:2;"><g><path d="M69.55,19.6l-0.05,-0.55c-1.167,0.9 -2.083,2.433 -2.75,4.6c0.1,0.6 0.5,1.35 1.2,2.25c0.467,3.2 0.7,8.05 0.7,14.55c-0,1.267 -1.033,1.867 -3.1,1.8l-0.85,-0.05l-1.2,0c-0.635,-0.011 -1.019,-0.028 -1.15,-0.05c-0.6,-0.133 -1.25,-0.583 -1.95,-1.35c-0.133,1.1 -0.35,2.067 -0.65,2.9c-0,0.033 0.3,0.6 0.9,1.7c0.533,0.933 0.8,1.433 0.8,1.5c0,1.067 -1.017,2.417 -3.05,4.05c-1.967,1.567 -3.45,2.35 -4.45,2.35c-0.433,-0 -1.017,-0.1 -1.75,-0.3c-0.567,-0.167 -1.15,-0.333 -1.75,-0.5c0.767,1 1.633,1.817 2.6,2.45c1.133,0.7 2.217,1.05 3.25,1.05c1.367,-0 2.75,-1.15 4.15,-3.45c1.267,-2.033 2,-3.917 2.2,-5.65c0.2,-0.167 0.467,-0.25 0.8,-0.25l2.95,-0c1.5,-0 2.567,-0.917 3.2,-2.75c0.5,-1.3 0.75,-2.933 0.75,-4.9l0,-4.1c0,-0.767 -0.067,-1.883 -0.2,-3.35c-0.133,-1.5 -0.2,-2.633 -0.2,-3.4c0,-0.367 0.183,-0.967 0.55,-1.8c0.367,-0.867 0.55,-1.567 0.55,-2.1c-0,-0.233 -0.3,-0.683 -0.9,-1.35c-0.6,-0.667 -0.9,-1.25 -0.9,-1.75c0,-0.167 0.05,-0.417 0.15,-0.75c0.1,-0.367 0.15,-0.633 0.15,-0.8Z"/><path d="M78.25,38.15l-0.15,-18.65c-1.4,2.033 -2.083,3.267 -2.05,3.7l0.5,23.5c1.133,-1.067 1.7,-3.917 1.7,-8.55Z"/><path d="M107.9,19.5c-1.4,2.033 -2.083,3.267 -2.05,3.7l0.5,23.5c1.133,-1.067 1.7,-3.917 1.7,-8.55l-0.15,-18.65Z"/><path d="M93.2,42.25l0,4.4l1.15,-0c0.175,-0.004 0.342,-0.021 0.5,-0.05c1.964,-0.06 3.397,-0.527 4.3,-1.4c1.1,-1.067 1.65,-2.9 1.65,-5.5c-0,-0.733 -0.267,-2.383 -0.8,-4.95c-0.6,1.6 -1.083,2.783 -1.45,3.55c0.567,1.233 0.917,2.133 1.05,2.7c-0.6,0.867 -2.367,1.283 -5.3,1.25l-1.1,0Z"/><path d="M40.7,30c0.8,-0.9 2.667,-2.183 5.6,-3.85c0.533,-0.333 2.617,-1.45 6.25,-3.35l0.65,-3.75c-2.4,0.567 -5.25,2.067 -8.55,4.5c-3.8,2.8 -5.7,5.317 -5.7,7.55c0,1.333 0.6,2.483 1.8,3.45c1.1,0.733 2.2,1.467 3.3,2.2c1.2,0.9 1.8,1.917 1.8,3.05c0,1.667 -2.033,2.5 -6.1,2.5c-0.5,-0 -1.033,-0.017 -1.6,-0.05c-0.567,-0.033 -0.867,-0.05 -0.9,-0.05l0,0.2c-0.407,0.011 -0.824,-0.006 -1.25,-0.05c-0.367,-0.867 -0.717,-1.733 -1.05,-2.6c-0.567,-1.133 -1.133,-1.7 -1.7,-1.7c-0.7,-0 -1.433,0.833 -2.2,2.5c-0.7,1.533 -1.05,2.783 -1.05,3.75c0,1.2 0.5,1.95 1.5,2.25c0.933,0.167 1.867,0.333 2.8,0.5c-1.1,1.867 -2.25,3.217 -3.45,4.05c-1.333,1 -2.9,1.5 -4.7,1.5c-0.967,0 -2.383,-0.1 -4.25,-0.3c1.733,1.967 3.75,2.95 6.05,2.95c1.967,-0 3.65,-0.933 5.05,-2.8c0.967,-1.3 1.9,-3.233 2.8,-5.8l5.75,-0c1.767,-0 3.217,-0.767 4.35,-2.3c1.1,-1.467 1.65,-3.217 1.65,-5.25c-0,-1.467 -0.367,-2.8 -1.1,-4c-0.6,-0.9 -1.483,-1.817 -2.65,-2.75c-1.033,-0.767 -2.067,-1.55 -3.1,-2.35Zm-8.85,13.5c0,-0.333 -0.05,-0.55 -0.15,-0.65c0.233,-0.533 0.467,-1.017 0.7,-1.45c0.6,0.3 0.967,0.583 1.1,0.85c0.167,0.233 0.317,0.717 0.45,1.45c-0.6,0 -1.3,-0.067 -2.1,-0.2Z"/><path d="M17.15,36.75c0.067,0.233 0.1,0.4 0.1,0.5c-1.033,2.367 -1.55,4.3 -1.55,5.8c0,2.4 0.85,3.6 2.55,3.6c1.433,-0 2.533,-0.717 3.3,-2.15c0.667,-1.233 1,-2.7 1,-4.4c-0,-1.267 -0.25,-2.333 -0.75,-3.2c-0.3,-0.567 -0.883,-1.267 -1.75,-2.1c-0.967,-0.9 -1.667,-1.65 -2.1,-2.25c-0.6,1.6 -0.9,2.817 -0.9,3.65c-0,0.167 0.033,0.35 0.1,0.55Zm1.15,1.3c1.933,1.633 2.9,2.633 2.9,3c0,0.333 -0.35,0.7 -1.05,1.1c-0.667,0.4 -1.183,0.6 -1.55,0.6c-0.9,0 -1.35,-0.65 -1.35,-1.95c0,-1.033 0.35,-1.95 1.05,-2.75Z"/><path d="M59.95,35.6l2.3,-2.55l-2.3,-2.65l-2.3,2.65l2.3,2.55Z"/><path d="M96.5,26.1l-2,2.25l2,2.25l2,-2.25l-2,-2.25Z"/><path d="M100.45,30.6l2.05,-2.25l-2.05,-2.25l-1.95,2.25l1.95,2.25Z"/><path d="M20.15,29.5l2.05,-2.3l-2.05,-2.25l-2,2.25l2,2.3Z"/><path d="M14.2,27.2l2,2.25l1.95,-2.25l-1.95,-2.25l-2,2.25Z"/><path d="M61.6,22.55c0,-0.367 -0.05,-0.783 -0.15,-1.25l-0.25,0.15c0,1.267 -0.267,1.9 -0.8,1.9c-0.233,0 -0.433,-0.417 -0.6,-1.25l-0.2,0.05c-0.1,0.633 -0.2,1.067 -0.3,1.3c-0.167,0.5 -0.4,0.75 -0.7,0.75c-0.3,0 -0.45,-0.467 -0.45,-1.4l-0.25,0.05c-0.167,0.667 -0.25,1.083 -0.25,1.25c-0,0.4 0.067,0.733 0.2,1c0.167,0.3 0.4,0.45 0.7,0.45c0.267,-0 0.517,-0.117 0.75,-0.35c0.233,-0.2 0.367,-0.45 0.4,-0.75c0.233,0.167 0.467,0.25 0.7,0.25c0.8,0 1.2,-0.717 1.2,-2.15Z"/><path d="M37,21.95c0.733,-0.4 1.1,-0.95 1.1,-1.65c0,-0.567 -0.15,-1.383 -0.45,-2.45c-0.333,-1.067 -0.5,-1.867 -0.5,-2.4c-0.7,0.5 -1.05,0.95 -1.05,1.35c0,0.5 0.167,1.233 0.5,2.2c0.333,0.967 0.5,1.683 0.5,2.15c0,0.333 -0.033,0.6 -0.1,0.8Z"/><path d="M110,19.05c0.733,-0.4 1.1,-0.95 1.1,-1.65c0,-0.567 -0.15,-1.383 -0.45,-2.45c-0.333,-1.067 -0.5,-1.867 -0.5,-2.4c-0.7,0.5 -1.05,0.95 -1.05,1.35c0,0.5 0.167,1.233 0.5,2.2c0.333,0.967 0.5,1.683 0.5,2.15c0,0.333 -0.033,0.6 -0.1,0.8Z"/><path d="M95.6,13.1c-0.533,0 -1.017,0.317 -1.45,0.95c-0.367,0.567 -0.55,1.117 -0.55,1.65c0,0.433 0.367,0.9 1.1,1.4c-1.3,1.067 -2.517,1.883 -3.65,2.45c0.4,0.133 0.717,0.2 0.95,0.2c0.967,0 2.1,-0.75 3.4,-2.25c0.533,0.367 0.983,0.633 1.35,0.8l0.15,-1.55c-0.3,-0.2 -0.517,-0.35 -0.65,-0.45c0.333,-0.767 0.5,-1.383 0.5,-1.85c0,-0.9 -0.383,-1.35 -1.15,-1.35Zm-0.8,1.35c0.6,0.067 0.9,0.383 0.9,0.95c0,0.133 -0.033,0.283 -0.1,0.45c-0.733,-0.4 -1.1,-0.783 -1.1,-1.15c0.033,-0.133 0.133,-0.217 0.3,-0.25Z"/><path d="M94.35,46.65l0.5,-0l0,-0.05c-0.158,0.029 -0.325,0.046 -0.5,0.05Z" style="fill:#f00;"/><path d="M87.15,40.55c-0.7,1.533 -1.05,2.783 -1.05,3.75c0,1.2 0.5,1.95 1.5,2.25c0.933,0.167 1.867,0.333 2.8,0.5c-1.1,1.867 -2.25,3.217 -3.45,4.05c-1.333,1 -2.9,1.5 -4.7,1.5c-0.967,0 -2.383,-0.1 -4.25,-0.3c1.733,1.967 3.75,2.95 6.05,2.95c1.967,-0 3.65,-0.933 5.05,-2.8c0.967,-1.3 1.9,-3.233 2.8,-5.8l1.3,-0l0,-4.25c-0.359,0.005 -0.726,-0.011 -1.1,-0.05c-0.367,-0.867 -0.717,-1.733 -1.05,-2.6c-0.567,-1.133 -1.133,-1.7 -1.7,-1.7c-0.7,-0 -1.433,0.833 -2.2,2.5Zm0.8,2.95c0,-0.333 -0.05,-0.55 -0.15,-0.65c0.233,-0.533 0.467,-1.017 0.7,-1.45c0.6,0.3 0.967,0.583 1.1,0.85c0.167,0.233 0.317,0.717 0.45,1.45c-0.6,0 -1.3,-0.067 -2.1,-0.2Z" style="fill:#f00;"/><path d="M19.268,15.337l-4.4,3.2c-0.67,0.487 -0.818,1.426 -0.331,2.095c0.487,0.67 1.426,0.818 2.095,0.331l4.4,-3.2c0.67,-0.487 0.818,-1.426 0.331,-2.095c-0.487,-0.67 -1.426,-0.818 -2.095,-0.331Z"/><path d="M61.011,12.842l-4.35,3.2c-0.667,0.49 -0.81,1.43 -0.319,2.097c0.49,0.667 1.43,0.81 2.097,0.319l4.35,-3.2c0.667,-0.49 0.81,-1.43 0.319,-2.097c-0.49,-0.667 -1.43,-0.81 -2.097,-0.319Z"/></g></svg>