<?xml version="1.0" encoding="UTF-8" standalone="no"?><!DOCTYPE svg PUBLIC "-//W3C//DTD SVG 1.1//EN" "http://www.w3.org/Graphics/SVG/1.1/DTD/svg11.dtd"><svg width="100%" height="100%" viewBox="0 0 52 32" version="1.1" xmlns="http://www.w3.org/2000/svg" xmlns:xlink="http://www.w3.org/1999/xlink" xml:space="preserve" xmlns:serif="http://www.serif.com/" style="fill-rule:evenodd;clip-rule:evenodd;stroke-linejoin:round;stroke-miterlimit:2;"><g><path d="M12.1,25.6l1.1,-1.15l-1.1,-1.15l-1.1,1.15l1.1,1.15Z"/><path d="M17.75,18.35c-0.367,0.433 -1.217,0.783 -2.55,1.05c-1.1,0.233 -2.067,0.35 -2.9,0.35c-0.933,-0 -1.8,-0.133 -2.6,-0.4c-1.1,-0.367 -1.65,-0.933 -1.65,-1.7c0,-0.367 0.133,-0.883 0.4,-1.55c-0.833,0.833 -1.25,1.633 -1.25,2.4c-0,1.933 1.433,2.9 4.3,2.9c4.667,0 7,-1.367 7,-4.1c0,-1.033 -0.317,-1.783 -0.95,-2.25c-0.1,0.467 -0.3,1.1 -0.6,1.9c0.533,0.433 0.8,0.9 0.8,1.4Z"/><path d="M36.95,9.8c0.167,-0.7 0.283,-1.233 0.35,-1.6c-0.7,0.267 -1.917,0.9 -3.65,1.9c-1.933,1.1 -3,1.85 -3.2,2.25c-0.167,0.333 -0.25,0.833 -0.25,1.5c-0,0.567 0.283,1.117 0.85,1.65c0.5,0.4 1.017,0.8 1.55,1.2c0.533,0.433 0.8,0.85 0.8,1.25c0,0.867 -0.967,1.3 -2.9,1.3l-0.95,-0l0,0.05l-0.85,0c-0.467,0 -0.8,-0.1 -1,-0.3c-0.267,-0.233 -0.417,-0.7 -0.45,-1.4c-0.433,0.767 -0.733,1.233 -0.9,1.4c-0.2,0.2 -0.517,0.3 -0.95,0.3c-0.1,0 -0.35,-0.017 -0.75,-0.05l-0.5,-0c-1.054,-0.031 -1.737,-0.281 -2.05,-0.75c-0.3,-0.433 -0.45,-1.317 -0.45,-2.65l-0,-6.35c-0.2,0.2 -0.383,0.4 -0.55,0.6c-0.133,0.2 -0.2,0.467 -0.2,0.8l-0,5.05c0.1,2.567 0.35,4.1 0.75,4.6c0.3,0.433 0.733,0.65 1.3,0.65l2.4,-0c0.367,-0 0.667,-0.133 0.9,-0.4c0.033,-0.067 0.2,-0.383 0.5,-0.95c0.167,0.3 0.4,0.583 0.7,0.85c0.367,0.333 0.667,0.5 0.9,0.5l2.95,-0c0.867,-0 1.55,-0.433 2.05,-1.3c0.3,-0.467 0.617,-1.3 0.95,-2.5c2.3,2.533 3.633,3.8 4,3.8l1.35,-0l0,-1.95l-0.35,-0c-0.465,-0.013 -0.765,-0.046 -0.9,-0.1c-0.033,0 -1.2,-0.833 -3.5,-2.5c-2.4,-1.767 -3.833,-2.783 -4.3,-3.05c0.733,-0.667 1.767,-1.367 3.1,-2.1c1.1,-0.567 2.183,-1.133 3.25,-1.7Z"/><path d="M28.2,15.25l1,-1.05l-1,-0.95l-0.9,1l0.9,1Z"/><path d="M26.35,15.25l0.95,-1l-0.95,-1l-0.95,0.95l0.95,1.05Z"/><path d="M12.5,9.7c0,0.167 0.15,0.333 0.45,0.5c-0.533,0.433 -1.017,0.75 -1.45,0.95c0.167,0.033 0.283,0.05 0.35,0.05c0.4,-0 0.867,-0.283 1.4,-0.85c0.2,0.133 0.383,0.25 0.55,0.35l0.05,-0.6c-0.133,-0.1 -0.233,-0.167 -0.3,-0.2c0.167,-0.267 0.25,-0.5 0.25,-0.7c0,-0.333 -0.167,-0.5 -0.5,-0.5c-0.2,-0 -0.383,0.117 -0.55,0.35c-0.167,0.233 -0.25,0.45 -0.25,0.65Zm0.85,-0.15c-0,0.067 -0.017,0.133 -0.05,0.2c-0.3,-0.133 -0.45,-0.283 -0.45,-0.45c0.033,-0.033 0.083,-0.067 0.15,-0.1c0.233,0.033 0.35,0.15 0.35,0.35Z"/><path d="M45.95,17.45l-0.05,-8.25c-0.667,0.9 -1,1.433 -1,1.6l0.25,10.4c0.533,-0.467 0.8,-1.717 0.8,-3.75Z" style="fill:#f00;"/><path d="M41.7,9.9c-0,-0.067 0.017,-0.167 0.05,-0.3c0.067,-0.167 0.1,-0.283 0.1,-0.35l-0.05,-0.25c-0.533,0.4 -0.967,1.067 -1.3,2c0.067,0.267 0.267,0.617 0.6,1.05c0.2,1.4 0.3,3.533 0.3,6.4c0,0.567 -0.483,0.833 -1.45,0.8l-0.3,-0l0,1.95l0.7,-0c0.7,-0 1.217,-0.4 1.55,-1.2c0.233,-0.567 0.35,-1.3 0.35,-2.2l-0,-1.8c-0,-0.333 -0.033,-0.833 -0.1,-1.5c-0.067,-0.633 -0.1,-1.117 -0.1,-1.45c0,-0.167 0.083,-0.45 0.25,-0.85c0.167,-0.367 0.25,-0.667 0.25,-0.9c0,-0.1 -0.133,-0.3 -0.4,-0.6c-0.3,-0.3 -0.45,-0.567 -0.45,-0.8Z" style="fill:#f00;"/><path d="M41.45,4.85c-0.333,-0 -0.583,0.167 -0.75,0.5c-0.167,0.3 -0.25,0.667 -0.25,1.1c-0,0.667 0.25,1 0.75,1c0.3,-0 0.567,-0.15 0.8,-0.45c0.2,-0.267 0.3,-0.583 0.3,-0.95c0,-0.3 -0.083,-0.567 -0.25,-0.8c-0.167,-0.267 -0.367,-0.4 -0.6,-0.4Zm-0.1,1.75c-0.433,-0 -0.65,-0.167 -0.65,-0.5c-0,-0.367 0.133,-0.55 0.4,-0.55c0.133,0 0.3,0.083 0.5,0.25c0.2,0.167 0.3,0.333 0.3,0.5c0,0.2 -0.183,0.3 -0.55,0.3Z" style="fill:#f00;"/><path d="M45.722,5.199l-1.65,1.45c-0.332,0.292 -0.364,0.797 -0.073,1.129c0.292,0.332 0.797,0.364 1.129,0.073l1.65,-1.45c0.332,-0.292 0.364,-0.797 0.073,-1.129c-0.292,-0.332 -0.797,-0.364 -1.129,-0.073Z" style="fill:#f00;"/><path d="M33.372,22.649l-1.65,1.45c-0.332,0.292 -0.364,0.797 -0.073,1.129c0.292,0.332 0.797,0.364 1.129,0.073l1.65,-1.45c0.332,-0.292 0.364,-0.797 0.073,-1.129c-0.292,-0.332 -0.797,-0.364 -1.129,-0.073Z"/><path d="M25.072,5.799l-1.65,1.45c-0.332,0.292 -0.364,0.797 -0.073,1.129c0.292,0.332 0.797,0.364 1.129,0.073l1.65,-1.45c0.332,-0.292 0.364,-0.797 0.073,-1.129c-0.292,-0.332 -0.797,-0.364 -1.129,-0.073Z"/></g></svg>