<?xml version="1.0" encoding="UTF-8" standalone="no"?><!DOCTYPE svg PUBLIC "-//W3C//DTD SVG 1.1//EN" "http://www.w3.org/Graphics/SVG/1.1/DTD/svg11.dtd"><svg width="100%" height="100%" viewBox="0 0 55 39" version="1.1" xmlns="http://www.w3.org/2000/svg" xmlns:xlink="http://www.w3.org/1999/xlink" xml:space="preserve" xmlns:serif="http://www.serif.com/" style="fill-rule:evenodd;clip-rule:evenodd;stroke-linejoin:round;stroke-miterlimit:2;"><g><path d="M17.5,24.1c0.333,0.367 0.667,0.717 1,1.05c0.433,0.5 0.65,0.883 0.65,1.15c-0,1.333 -1.033,2.467 -3.1,3.4c-1.733,0.8 -3.383,1.2 -4.95,1.2c1.267,0.8 2.533,1.2 3.8,1.2c1.433,-0 2.65,-0.817 3.65,-2.45c0.867,-1.4 1.3,-2.817 1.3,-4.25c0,-0.733 -0.167,-1.35 -0.5,-1.85c-0.2,-0.4 -0.617,-0.9 -1.25,-1.5l-0.6,2.05Z"/><path d="M36.85,24.85c-0.248,-0.016 -0.431,-0.049 -0.55,-0.1c-0.4,-0.167 -0.9,-1.4 -1.5,-3.7c-0.267,-1.133 -0.567,-2.567 -0.9,-4.3c-0.433,1.367 -0.633,2.083 -0.6,2.15l0.9,4.75c-0.367,0.433 -0.983,0.8 -1.85,1.1c-0.767,0.233 -1.5,0.35 -2.2,0.35c-0.7,-0 -1.35,-0.283 -1.95,-0.85l-0,2.5c-0,0.5 0.583,0.75 1.75,0.75c1.3,0 2.233,-0.2 2.8,-0.6c0.267,-0.2 0.833,-0.9 1.7,-2.1c0.2,0.5 0.383,1.017 0.55,1.55c0.3,0.633 0.7,0.95 1.2,0.95l0.65,0l0,-2.45Z"/><path d="M23.5,27.3c0.767,-0.567 1.15,-2.15 1.15,-4.75l-0.1,-10.4c-0.933,1.167 -1.4,1.85 -1.4,2.05l0.35,13.1Z"/><path d="M18,17c-0.167,-0.1 -0.3,-0.167 -0.4,-0.2c0.2,-0.367 0.3,-0.667 0.3,-0.9c-0,-0.433 -0.217,-0.65 -0.65,-0.65c-0.3,0 -0.567,0.167 -0.8,0.5c-0.233,0.267 -0.35,0.517 -0.35,0.75c0,0.233 0.2,0.45 0.6,0.65c-0.733,0.533 -1.417,0.933 -2.05,1.2c0.233,0.067 0.417,0.1 0.55,0.1c0.533,-0 1.183,-0.367 1.95,-1.1c0.3,0.167 0.55,0.3 0.75,0.4l0.1,-0.75Zm-0.7,-0.65c0,0.067 -0.017,0.15 -0.05,0.25c-0.433,-0.2 -0.65,-0.383 -0.65,-0.55c0.033,-0.067 0.1,-0.117 0.2,-0.15c0.333,0.067 0.5,0.217 0.5,0.45Z"/><path d="M31.05,13l-0.2,0.05c-0.067,0.4 -0.133,0.683 -0.2,0.85c-0.133,0.333 -0.317,0.5 -0.55,0.5c-0.233,0 -0.35,-0.317 -0.35,-0.95l-0.2,0.05c-0.133,0.433 -0.2,0.717 -0.2,0.85c0,0.233 0.05,0.45 0.15,0.65c0.133,0.2 0.317,0.3 0.55,0.3c0.2,0 0.4,-0.083 0.6,-0.25c0.2,-0.133 0.3,-0.3 0.3,-0.5c0.167,0.133 0.367,0.2 0.6,0.2c0.6,-0 0.9,-0.483 0.9,-1.45c-0,-0.267 -0.033,-0.55 -0.1,-0.85l-0.2,0.1c-0,0.833 -0.2,1.25 -0.6,1.25c-0.2,0 -0.367,-0.267 -0.5,-0.8Z"/><path d="M40.95,12.2c-0,0.1 -0.033,0.25 -0.1,0.45c-0.067,0.2 -0.1,0.35 -0.1,0.45c0,0.267 0.2,0.6 0.6,1c0.4,0.367 0.6,0.6 0.6,0.7c-0,0.3 -0.117,0.7 -0.35,1.2c-0.233,0.467 -0.35,0.8 -0.35,1c0,0.433 0.033,1.067 0.1,1.9c0.1,0.833 0.15,1.45 0.15,1.85l0,2.3c0,1.1 -0.167,2.017 -0.5,2.75c-0.433,1 -1.15,1.5 -2.15,1.5l-2,0l0,-2.45l1.4,-0c1.4,0.033 2.1,-0.3 2.1,-1c0,-3.633 -0.167,-6.333 -0.5,-8.1c-0.467,-0.5 -0.733,-0.917 -0.8,-1.25c0.467,-1.2 1.083,-2.05 1.85,-2.55l0.05,0.25Z" style="fill:#f00;"/><path d="M46.7,12.15c-0.933,1.167 -1.4,1.85 -1.4,2.05l0.35,13.1c0.767,-0.567 1.15,-2.15 1.15,-4.75l-0.1,-10.4Z" style="fill:#f00;"/><path d="M47.064,7.315l-2.35,1.8c-0.351,0.268 -0.418,0.771 -0.149,1.121c0.268,0.351 0.771,0.418 1.121,0.149l2.35,-1.8c0.351,-0.268 0.418,-0.771 0.149,-1.121c-0.268,-0.351 -0.771,-0.418 -1.121,-0.149Z" style="fill:#f00;"/><path d="M29.655,7.671l-2.35,1.85c-0.347,0.274 -0.407,0.777 -0.134,1.124c0.274,0.347 0.777,0.407 1.124,0.134l2.35,-1.85c0.347,-0.274 0.407,-0.777 0.134,-1.124c-0.274,-0.347 -0.777,-0.407 -1.124,-0.134Z"/></g></svg>