<?xml version="1.0" encoding="UTF-8" standalone="no"?><!DOCTYPE svg PUBLIC "-//W3C//DTD SVG 1.1//EN" "http://www.w3.org/Graphics/SVG/1.1/DTD/svg11.dtd"><svg width="100%" height="100%" viewBox="0 0 75 21" version="1.1" xmlns="http://www.w3.org/2000/svg" xmlns:xlink="http://www.w3.org/1999/xlink" xml:space="preserve" xmlns:serif="http://www.serif.com/" style="fill-rule:evenodd;clip-rule:evenodd;stroke-linejoin:round;stroke-miterlimit:2;"><g><path d="M10.95,17.9l1.1,-0.85l-1.1,-0.85l-1.1,0.85l1.1,0.85Z"/><path d="M68.65,11.4c0.533,0 1.083,0.167 1.65,0.5c0.6,0.367 0.9,0.75 0.9,1.15c-0,0.167 -0.333,0.3 -1,0.4c-0.5,0.067 -0.933,0.1 -1.3,0.1c-0.5,0 -1,-0.1 -1.5,-0.3c-0.067,0.5 -0.1,0.783 -0.1,0.85c-0,0.4 0.183,0.65 0.55,0.75c0.167,0.067 0.567,0.1 1.2,0.1c0.8,-0 1.417,-0.183 1.85,-0.55c0.433,-0.367 0.65,-0.867 0.65,-1.5c-0,-0.733 -0.233,-1.4 -0.7,-2c-0.533,-0.633 -1.233,-1.067 -2.1,-1.3c-0.067,0.2 -0.1,0.45 -0.1,0.75l-0,1.05Z"/><path d="M15.9,11.5c0.533,0.333 0.8,0.683 0.8,1.05c-0.367,0.3 -1.233,0.55 -2.6,0.75c-1.1,0.167 -2.067,0.25 -2.9,0.25c-0.967,0 -1.85,-0.083 -2.65,-0.25c-1.133,-0.3 -1.7,-0.733 -1.7,-1.3c0,-0.233 0.133,-0.6 0.4,-1.1c-0.833,0.6 -1.25,1.183 -1.25,1.75c0,1.433 1.467,2.15 4.4,2.15c4.733,0 7.1,-1.017 7.1,-3.05c0,-0.767 -0.333,-1.317 -1,-1.65c-0.1,0.333 -0.3,0.8 -0.6,1.4Z"/><path d="M29.65,8.1c-0.133,0.267 -0.2,0.633 -0.2,1.1c-0,0.433 0.267,0.833 0.8,1.2c0.533,0.3 1.05,0.6 1.55,0.9c0.567,0.333 0.85,0.65 0.85,0.95c-0,0.633 -0.983,0.95 -2.95,0.95l-0.95,-0l-0,0.05l-0.85,0c-0.5,0 -0.85,-0.067 -1.05,-0.2c-0.267,-0.2 -0.417,-0.55 -0.45,-1.05c-0.433,0.567 -0.733,0.9 -0.9,1c-0.2,0.133 -0.517,0.2 -0.95,0.2l-1.3,-0c-1.088,-0.021 -1.805,-0.205 -2.15,-0.55c-0.3,-0.3 -0.45,-0.95 -0.45,-1.95l-0,-4.7c-0.2,0.133 -0.383,0.283 -0.55,0.45c-0.167,0.133 -0.25,0.317 -0.25,0.55c0,1.967 0.017,3.217 0.05,3.75c0.1,1.9 0.35,3.05 0.75,3.45c0.3,0.3 0.733,0.45 1.3,0.45l2.55,0c0.367,0 0.667,-0.1 0.9,-0.3c0.033,-0.033 0.2,-0.267 0.5,-0.7c0.167,0.233 0.4,0.45 0.7,0.65c0.367,0.233 0.683,0.35 0.95,0.35l2.95,0c0.9,0 1.6,-0.317 2.1,-0.95c0.3,-0.367 0.617,-0.983 0.95,-1.85c2.333,1.867 3.683,2.8 4.05,2.8l1.45,0l0,-1.45l-0.75,-0c-0.285,-0.014 -0.485,-0.031 -0.6,-0.05l-3.5,-1.9c-2.467,-1.3 -3.917,-2.05 -4.35,-2.25c0.7,-0.467 1.733,-0.967 3.1,-1.5c1.1,-0.433 2.217,-0.867 3.35,-1.3c0.133,-0.5 0.233,-0.883 0.3,-1.15c-0.7,0.167 -1.933,0.633 -3.7,1.4c-1.967,0.8 -3.05,1.35 -3.25,1.65Z"/><path d="M45.35,5.75c-0.667,0.667 -1,1.067 -1,1.2l0.25,7.7c0.533,-0.333 0.8,-1.267 0.8,-2.8l-0.05,-6.1Z"/><path d="M64.35,5.8l-0.05,-0.2c-0.567,0.3 -1.017,0.8 -1.35,1.5c0.067,0.2 0.267,0.45 0.6,0.75c0.233,1.067 0.35,2.65 0.35,4.75c-0,0.433 -0.5,0.633 -1.5,0.6l-1,-0l-0,1.45l1.4,0c0.733,0 1.25,-0.3 1.55,-0.9c0.233,-0.433 0.35,-0.967 0.35,-1.6l0,-1.35c0,-0.233 -0.017,-0.6 -0.05,-1.1c-0.067,-0.5 -0.1,-0.867 -0.1,-1.1c0,-0.133 0.083,-0.333 0.25,-0.6c0.167,-0.267 0.25,-0.5 0.25,-0.7c0,-0.067 -0.15,-0.2 -0.45,-0.4c-0.267,-0.233 -0.4,-0.433 -0.4,-0.6c0,-0.067 0.017,-0.15 0.05,-0.25c0.067,-0.1 0.1,-0.183 0.1,-0.25Z"/><path d="M25.45,8.75l-0.95,0.75l0.95,0.75l1,-0.75l-1,-0.75Z"/><path d="M28.35,9.5l-0.95,-0.75l-0.95,0.75l0.95,0.75l0.95,-0.75Z"/><path d="M69.4,8.1l1.1,-0.85l-1.1,-0.85l-1.1,0.85l1.1,0.85Z"/><path d="M11.5,5.65c-0.133,0.167 -0.2,0.317 -0.2,0.45c0,0.133 0.133,0.267 0.4,0.4c-0.5,0.3 -0.983,0.533 -1.45,0.7c0.167,0.033 0.3,0.05 0.4,0.05c0.367,-0 0.817,-0.217 1.35,-0.65c0.233,0.1 0.433,0.183 0.6,0.25l0.05,-0.45c-0.133,-0.067 -0.233,-0.1 -0.3,-0.1c0.167,-0.233 0.25,-0.417 0.25,-0.55c0,-0.233 -0.167,-0.35 -0.5,-0.35c-0.2,0 -0.4,0.083 -0.6,0.25Zm0.3,0.1c0.233,0.033 0.35,0.133 0.35,0.3c-0,0.033 -0.017,0.067 -0.05,0.1c-0.3,-0.1 -0.45,-0.2 -0.45,-0.3c0.033,-0.067 0.083,-0.1 0.15,-0.1Z"/><path d="M67.9,5.2c-0,0.3 -0.183,0.533 -0.55,0.7c0.033,-0.1 0.05,-0.217 0.05,-0.35c-0,-0.167 -0.083,-0.45 -0.25,-0.85c-0.167,-0.367 -0.25,-0.65 -0.25,-0.85c-0,-0.167 0.167,-0.35 0.5,-0.55l0.5,1.9Z"/><path d="M40.7,2.6c-0.333,-0 -0.583,0.133 -0.75,0.4c-0.133,0.2 -0.2,0.467 -0.2,0.8c0,0.5 0.25,0.75 0.75,0.75c0.3,0 0.55,-0.117 0.75,-0.35c0.2,-0.2 0.3,-0.433 0.3,-0.7c0,-0.233 -0.067,-0.433 -0.2,-0.6c-0.167,-0.2 -0.383,-0.3 -0.65,-0.3Zm-0.75,0.95c-0,-0.267 0.15,-0.4 0.45,-0.4c0.133,0 0.283,0.05 0.45,0.15c0.233,0.133 0.35,0.25 0.35,0.35c-0,0.167 -0.183,0.25 -0.55,0.25c-0.467,0 -0.7,-0.117 -0.7,-0.35Z"/><path d="M58.55,7.1c0.067,0.833 0.15,1.65 0.25,2.45c0.1,1 0.15,1.817 0.15,2.45c-0,0.4 -0.517,0.8 -1.55,1.2c-0.9,0.333 -1.65,0.5 -2.25,0.5c-2.5,-0 -3.75,-0.483 -3.75,-1.45c-0,-0.4 0.117,-0.85 0.35,-1.35c-0.333,0.1 -0.633,0.417 -0.9,0.95c-0.233,0.467 -0.35,0.883 -0.35,1.25c-0,0.667 0.367,1.15 1.1,1.45c0.567,0.267 1.317,0.4 2.25,0.4c0.867,-0 1.817,-0.15 2.85,-0.45c1.133,-0.333 1.95,-0.75 2.45,-1.25c0.3,0.433 0.517,0.717 0.65,0.85c0.367,0.367 0.717,0.55 1.05,0.55l0.55,0l-0,-1.45l-0.25,-0c-0.433,-0.033 -0.733,-0.167 -0.9,-0.4c-0.4,-0.467 -0.6,-2.767 -0.6,-6.9c-0.2,0.1 -0.433,0.283 -0.7,0.55c-0.3,0.333 -0.433,0.55 -0.4,0.65Z" style="fill:#f00;"/><path d="M41.25,5.8l-0.05,-0.2c-0.567,0.3 -1.017,0.8 -1.35,1.5c0.067,0.2 0.267,0.45 0.6,0.75c0.233,1.067 0.35,2.65 0.35,4.75c0,0.433 -0.5,0.633 -1.5,0.6l-0.25,-0l0,1.45l0.65,0c0.733,0 1.25,-0.3 1.55,-0.9c0.233,-0.433 0.35,-0.967 0.35,-1.6l0,-1.35c0,-0.233 -0.017,-0.6 -0.05,-1.1c-0.067,-0.5 -0.1,-0.867 -0.1,-1.1c-0,-0.133 0.083,-0.333 0.25,-0.6c0.167,-0.267 0.25,-0.5 0.25,-0.7c-0,-0.067 -0.15,-0.2 -0.45,-0.4c-0.267,-0.233 -0.4,-0.433 -0.4,-0.6c0,-0.067 0.017,-0.15 0.05,-0.25c0.067,-0.1 0.1,-0.183 0.1,-0.25Z" style="fill:#f00;"/><path d="M56.55,9.35c0,-0.1 -0.05,-0.2 -0.15,-0.3c-0.1,-0.1 -0.217,-0.15 -0.35,-0.15c-0.233,0 -0.583,0.283 -1.05,0.85c-0.467,0.567 -0.7,0.95 -0.7,1.15c0,0.2 0.217,0.3 0.65,0.3c0.5,-0 0.85,0.067 1.05,0.2c-0.4,0.3 -0.817,0.45 -1.25,0.45c-0.233,-0 -0.483,-0.017 -0.75,-0.05c0.167,0.167 0.3,0.283 0.4,0.35c0.133,0.067 0.35,0.1 0.65,0.1c0.4,0 0.733,-0.083 1,-0.25c0.3,-0.167 0.45,-0.417 0.45,-0.75c0,-0.333 -0.267,-0.533 -0.8,-0.6c-0.5,-0.067 -0.75,-0.133 -0.75,-0.2c-0,-0.1 0.083,-0.233 0.25,-0.4c0.2,-0.133 0.367,-0.2 0.5,-0.2c0.133,-0 0.25,0.033 0.35,0.1c0.333,-0.133 0.5,-0.333 0.5,-0.6Z" style="fill:#f00;"/><path d="M32.533,15.081l-1.4,0.85c-0.425,0.257 -0.56,0.811 -0.302,1.236c0.257,0.425 0.811,0.56 1.236,0.302l1.4,-0.85c0.425,-0.257 0.56,-0.811 0.302,-1.236c-0.257,-0.425 -0.811,-0.56 -1.236,-0.302Z"/><path d="M64.363,14.993l-1.4,0.9c-0.418,0.269 -0.539,0.826 -0.27,1.244c0.269,0.418 0.826,0.539 1.244,0.27l1.4,-0.9c0.418,-0.269 0.539,-0.826 0.27,-1.244c-0.269,-0.418 -0.826,-0.539 -1.244,-0.27Z"/><path d="M55.863,2.693l-1.4,0.9c-0.418,0.269 -0.539,0.826 -0.27,1.244c0.269,0.418 0.826,0.539 1.244,0.27l1.4,-0.9c0.418,-0.269 0.539,-0.826 0.27,-1.244c-0.269,-0.418 -0.826,-0.539 -1.244,-0.27Z"/><path d="M24.463,2.693l-1.4,0.9c-0.418,0.269 -0.539,0.826 -0.27,1.244c0.269,0.418 0.826,0.539 1.244,0.27l1.4,-0.9c0.418,-0.269 0.539,-0.826 0.27,-1.244c-0.269,-0.418 -0.826,-0.539 -1.244,-0.27Z"/></g></svg>