<?xml version="1.0" encoding="UTF-8" standalone="no"?><!DOCTYPE svg PUBLIC "-//W3C//DTD SVG 1.1//EN" "http://www.w3.org/Graphics/SVG/1.1/DTD/svg11.dtd"><svg width="100%" height="100%" viewBox="0 0 75 24" version="1.1" xmlns="http://www.w3.org/2000/svg" xmlns:xlink="http://www.w3.org/1999/xlink" xml:space="preserve" xmlns:serif="http://www.serif.com/" style="fill-rule:evenodd;clip-rule:evenodd;stroke-linejoin:round;stroke-miterlimit:2;"><g><path d="M14.2,11.35c-0.233,0.4 -0.55,0.817 -0.95,1.25c0.667,0.633 1,1.4 1,2.3c-0,0.367 -0.433,0.667 -1.3,0.9c-0.7,0.2 -1.35,0.3 -1.95,0.3c-2.133,0 -3.2,-0.617 -3.2,-1.85c0,-0.333 0.15,-0.883 0.45,-1.65c-0.367,0.233 -0.667,0.633 -0.9,1.2c-0.2,0.467 -0.3,0.917 -0.3,1.35c0,1.633 1.067,2.45 3.2,2.45c1.5,0 2.667,-0.367 3.5,-1.1c0.767,-0.667 1.15,-1.583 1.15,-2.75c0.6,0.1 1.117,0.15 1.55,0.15c0.467,0 0.833,-0.067 1.1,-0.2c0.3,-0.167 0.6,-0.333 0.9,-0.5c0.067,0.033 0.317,0.15 0.75,0.35c0.333,0.133 0.617,0.2 0.85,0.2c0.533,0 0.95,-0.383 1.25,-1.15c0.2,-0.5 0.3,-1.033 0.3,-1.6c0,-0.133 -0.1,-0.333 -0.3,-0.6c-0.133,0.267 -0.317,0.55 -0.55,0.85c0.133,0.367 0.25,0.633 0.35,0.8l-0.15,0.2l-0.45,0.05c-0.767,0 -1.283,-0.167 -1.55,-0.5c0.1,-0.3 0.15,-0.583 0.15,-0.85c-0.367,0.367 -0.733,0.733 -1.1,1.1c-0.4,0.3 -0.967,0.45 -1.7,0.45c-0.567,0 -1,-0.083 -1.3,-0.25c-0.267,-0.167 -0.533,-0.467 -0.8,-0.9Z"/><path d="M35.4,5.05c-0,-0.067 0.033,-0.15 0.1,-0.25c0.033,-0.133 0.05,-0.233 0.05,-0.3l0,-0.2c-0.633,0.333 -1.133,0.883 -1.5,1.65c0.067,0.2 0.283,0.467 0.65,0.8c0.233,1.133 0.35,2.833 0.35,5.1c0,0.467 -0.55,0.683 -1.65,0.65l-1.1,-0l0,1.55l1.55,0c0.8,0 1.383,-0.317 1.75,-0.95c0.267,-0.467 0.4,-1.05 0.4,-1.75l0,-1.45c0,-0.267 -0.033,-0.667 -0.1,-1.2c-0.1,-0.5 -0.15,-0.883 -0.15,-1.15c0,-0.133 0.1,-0.35 0.3,-0.65c0.2,-0.3 0.3,-0.55 0.3,-0.75c0,-0.067 -0.167,-0.217 -0.5,-0.45c-0.3,-0.267 -0.45,-0.483 -0.45,-0.65Z"/><path d="M40.05,4.45c-0.733,0.733 -1.1,1.167 -1.1,1.3l0.3,8.3c0.6,-0.367 0.9,-1.367 0.9,-3l-0.1,-6.6Z"/><path d="M24.45,5.2c-0.167,0.167 -0.25,0.367 -0.25,0.6c-0,2.133 0.017,3.483 0.05,4.05c0.1,2.033 0.367,3.267 0.8,3.7c0.333,0.333 0.817,0.5 1.45,0.5l1.65,0l-0,-1.55l-0.35,0c-1.136,-0.036 -1.886,-0.236 -2.25,-0.6c-0.333,-0.333 -0.5,-1.033 -0.5,-2.1l0,-5.05c-0.2,0.133 -0.4,0.283 -0.6,0.45Z"/><path d="M67,13.3c0.5,0 0.967,-0.217 1.4,-0.65c0.1,0.2 0.15,0.383 0.15,0.55c0,0.9 -0.85,1.617 -2.55,2.15c-1.333,0.433 -2.7,0.65 -4.1,0.65c0.667,0.2 1.133,0.317 1.4,0.35c0.467,0.133 0.95,0.2 1.45,0.2c1.433,0 2.533,-0.45 3.3,-1.35c0.7,-0.767 1.05,-1.7 1.05,-2.8c0,-0.467 -0.1,-0.9 -0.3,-1.3c-0.267,-0.567 -0.65,-0.85 -1.15,-0.85c-0.4,0 -0.783,0.283 -1.15,0.85c-0.333,0.467 -0.5,0.883 -0.5,1.25c0,0.633 0.333,0.95 1,0.95Zm0.9,-1.3c-0,0.067 -0.067,0.133 -0.2,0.2c-0.133,0.067 -0.267,0.1 -0.4,0.1l-0.55,-0.2c0.133,-0.267 0.283,-0.517 0.45,-0.75c0.467,0.167 0.7,0.383 0.7,0.65Z"/><path d="M62.15,11.85c-0,-0.367 -0.167,-0.817 -0.5,-1.35c-0.4,-0.6 -0.8,-0.9 -1.2,-0.9c-0.333,-0 -0.717,0.2 -1.15,0.6c-0.367,0.433 -0.733,0.85 -1.1,1.25c-0.433,0.5 -0.833,0.8 -1.2,0.9c-0.2,0.067 -0.817,0.1 -1.85,0.1l-0,1.55l1.65,0c0.4,0 0.733,-0.15 1,-0.45c0.233,-0.267 0.45,-0.533 0.65,-0.8c0.633,0.3 0.983,0.467 1.05,0.5c0.4,0.167 0.767,0.25 1.1,0.25c0.533,0 0.933,-0.183 1.2,-0.55c0.233,-0.3 0.35,-0.667 0.35,-1.1Zm-1.1,-0.05l0,0.35l-0.35,0.05c-0.2,-0 -0.717,-0.2 -1.55,-0.6c0.367,-0.5 0.633,-0.75 0.8,-0.75c0.3,-0 0.55,0.133 0.75,0.4c0.067,0.1 0.183,0.283 0.35,0.55Z"/><path d="M30.05,4.7l-0.15,0.05c-0.067,0.267 -0.117,0.45 -0.15,0.55c-0.1,0.2 -0.25,0.3 -0.45,0.3c-0.2,-0 -0.3,-0.2 -0.3,-0.6l-0.15,0.05c-0.1,0.267 -0.15,0.433 -0.15,0.5c-0,0.167 0.05,0.317 0.15,0.45c0.1,0.1 0.25,0.15 0.45,0.15c0.133,0 0.283,-0.033 0.45,-0.1c0.133,-0.1 0.217,-0.217 0.25,-0.35c0.133,0.067 0.283,0.1 0.45,0.1c0.5,0 0.75,-0.3 0.75,-0.9c-0,-0.167 -0.033,-0.333 -0.1,-0.5l-0.2,0.05c-0,0.533 -0.15,0.8 -0.45,0.8c-0.167,0 -0.3,-0.183 -0.4,-0.55Z"/><path d="M55.15,12.5l-0.4,0c-0.467,0 -0.8,-0.05 -1,-0.15c-0.2,-0.1 -0.533,-0.367 -1,-0.8l-0.8,1.15c0.433,0.5 0.683,0.817 0.75,0.95c0.233,0.333 0.35,0.683 0.35,1.05c0,0.5 -0.4,0.883 -1.2,1.15c-0.6,0.167 -1.283,0.25 -2.05,0.25c-2.067,0 -3.1,-0.6 -3.1,-1.8c-0,-0.2 0.15,-0.733 0.45,-1.6c-0.367,0.133 -0.667,0.517 -0.9,1.15c-0.233,0.533 -0.35,0.983 -0.35,1.35c-0,1.6 1.05,2.4 3.15,2.4c1.433,0 2.583,-0.317 3.45,-0.95c0.9,-0.667 1.35,-1.533 1.35,-2.6l1.95,0l0,-0.05l-0.65,-0l-0,-1.5Z" style="fill:#f00;"/><path d="M32.3,12.5c-0.561,-0.02 -0.911,-0.054 -1.05,-0.1c-0.4,-0.167 -0.6,-0.583 -0.6,-1.25c-0.3,0.167 -0.5,0.4 -0.6,0.7c-0.1,0.233 -0.267,0.383 -0.5,0.45c-0.309,0.112 -0.893,0.179 -1.75,0.2l0.35,0l-0,1.55l0.4,0c0.4,0 0.717,-0.117 0.95,-0.35c0.1,-0.067 0.3,-0.3 0.6,-0.7c0.4,0.433 0.617,0.667 0.65,0.7c0.267,0.233 0.583,0.35 0.95,0.35l0.6,0l0,-1.55Z" style="fill:#f00;"/><path d="M48.6,10.3l1.25,0.9l1.2,-0.9l-1.2,-0.95l-1.25,0.95Z" style="fill:#f00;"/><path d="M30.05,7.65l-1.2,0.95l1.2,0.9l1.25,-0.9l-1.25,-0.95Z" style="fill:#f00;"/><path d="M18.287,16.028l-1.5,0.9c-0.426,0.256 -0.564,0.809 -0.309,1.235c0.256,0.426 0.809,0.564 1.235,0.309l1.5,-0.9c0.426,-0.256 0.564,-0.809 0.309,-1.235c-0.256,-0.426 -0.809,-0.564 -1.235,-0.309Z"/><path d="M60.13,15.083l-1.55,0.95c-0.424,0.259 -0.557,0.814 -0.297,1.237c0.259,0.424 0.814,0.557 1.237,0.297l1.55,-0.95c0.424,-0.259 0.557,-0.814 0.297,-1.237c-0.259,-0.424 -0.814,-0.557 -1.237,-0.297Z"/><path d="M67.248,3.972l-1.55,0.9c-0.429,0.249 -0.576,0.8 -0.326,1.23c0.249,0.429 0.8,0.576 1.23,0.326l1.55,-0.9c0.429,-0.249 0.576,-0.8 0.326,-1.23c-0.249,-0.429 -0.8,-0.576 -1.23,-0.326Z"/><path d="M49.398,3.972l-1.55,0.9c-0.429,0.249 -0.576,0.8 -0.326,1.23c0.249,0.429 0.8,0.576 1.23,0.326l1.55,-0.9c0.429,-0.249 0.576,-0.8 0.326,-1.23c-0.249,-0.429 -0.8,-0.576 -1.23,-0.326Z"/><path d="M28.93,1.633l-1.55,0.95c-0.424,0.259 -0.557,0.814 -0.297,1.237c0.259,0.424 0.814,0.557 1.237,0.297l1.55,-0.95c0.424,-0.259 0.557,-0.814 0.297,-1.237c-0.259,-0.424 -0.814,-0.557 -1.237,-0.297Z"/></g></svg>