<?xml version="1.0" encoding="UTF-8" standalone="no"?><!DOCTYPE svg PUBLIC "-//W3C//DTD SVG 1.1//EN" "http://www.w3.org/Graphics/SVG/1.1/DTD/svg11.dtd"><svg width="100%" height="100%" viewBox="0 0 48 27" version="1.1" xmlns="http://www.w3.org/2000/svg" xmlns:xlink="http://www.w3.org/1999/xlink" xml:space="preserve" xmlns:serif="http://www.serif.com/" style="fill-rule:evenodd;clip-rule:evenodd;stroke-linejoin:round;stroke-miterlimit:2;"><g><path d="M9.6,15.5c0,-0.2 -0.3,-0.483 -0.9,-0.85c-0.6,-0.367 -1.033,-0.55 -1.3,-0.55c-0.367,0 -0.7,0.167 -1,0.5c-0.233,0.267 -0.4,0.6 -0.5,1c0.3,-0.167 0.55,-0.25 0.75,-0.25c0.3,0 0.617,0.183 0.95,0.55c-0.8,0.133 -1.383,0.3 -1.75,0.5c-0.533,0.3 -0.8,0.75 -0.8,1.35l0,0.25l0.55,5.2c0.2,-0.3 0.3,-0.683 0.3,-1.15l-0.05,-4.8c0,-0.067 0.033,-0.133 0.1,-0.2c0.067,-0.1 0.133,-0.15 0.2,-0.15c1.233,-0 2,0.017 2.3,0.05c0.2,0.033 0.333,0.033 0.4,-0l0.75,-1.45Z"/><path d="M18.1,18.35l-0.9,0.8l0.9,0.75l0.85,-0.75l-0.85,-0.8Z"/><path d="M20.65,19.15l-0.85,-0.8l-0.85,0.8l0.85,0.75l0.85,-0.75Z"/><path d="M42.8,7.75c-0.6,0.7 -0.9,1.117 -0.9,1.25l0.2,7.95c0.5,-0.367 0.75,-1.333 0.75,-2.9l-0.05,-6.3Z"/><path d="M27.3,7.75c-0.6,0.7 -0.9,1.117 -0.9,1.25l0.2,7.95c0.5,-0.367 0.75,-1.333 0.75,-2.9l-0.05,-6.3Z"/><path d="M38.75,14.1c0.267,0.433 0.433,0.75 0.5,0.95c-0.245,0.276 -0.912,0.409 -2,0.4l-0.75,-0l0,1.5l0.75,-0c0.819,-0.04 1.419,-0.207 1.8,-0.5c0.467,-0.367 0.7,-0.983 0.7,-1.85c0,-0.233 -0.117,-0.783 -0.35,-1.65c-0.267,0.5 -0.483,0.883 -0.65,1.15Z"/><path d="M23.65,7.8c-0,0.067 -0.017,0.15 -0.05,0.25c-0.033,0.133 -0.05,0.217 -0.05,0.25c0,0.167 0.117,0.367 0.35,0.6c0.267,0.233 0.4,0.383 0.4,0.45l-0.45,1.35c0,0.267 0.017,0.65 0.05,1.15c0.067,0.5 0.1,0.867 0.1,1.1l-0,1.4c-0,0.667 -0.1,1.217 -0.3,1.65c-0.3,0.633 -0.767,0.95 -1.4,0.95l-2.2,-0c-0.233,-0 -0.517,-0.117 -0.85,-0.35c-0.267,-0.233 -0.467,-0.467 -0.6,-0.7c-0.3,0.467 -0.467,0.717 -0.5,0.75c-0.2,0.2 -0.467,0.3 -0.8,0.3l-2,-0c-0.4,0.867 -0.817,1.517 -1.25,1.95c-0.6,0.633 -1.317,0.95 -2.15,0.95c-0.967,0 -1.833,-0.333 -2.6,-1c0.8,0.067 1.417,0.1 1.85,0.1c0.767,-0 1.433,-0.167 2,-0.5c0.5,-0.267 1,-0.717 1.5,-1.35c-0.4,-0.067 -0.8,-0.133 -1.2,-0.2c-0.433,-0.1 -0.65,-0.35 -0.65,-0.75c0,-0.333 0.15,-0.75 0.45,-1.25c0.333,-0.567 0.65,-0.85 0.95,-0.85c0.233,0 0.467,0.183 0.7,0.55c0.167,0.3 0.317,0.6 0.45,0.9c0.172,0.013 0.339,0.013 0.5,0l-0,-0.05l0.85,-0c0.333,0.033 0.55,0.05 0.65,0.05c0.4,0 0.7,-0.083 0.9,-0.25c0.133,-0.1 0.4,-0.45 0.8,-1.05c0,0.533 0.117,0.883 0.35,1.05c0.167,0.167 0.467,0.25 0.9,0.25l0.7,0l0,-0.05l0.9,-0c0.867,0.033 1.3,-0.167 1.3,-0.6c0,-2.2 -0.1,-3.85 -0.3,-4.95c-0.3,-0.3 -0.467,-0.55 -0.5,-0.75c0.3,-0.733 0.7,-1.25 1.2,-1.55l-0,0.2Zm-9.3,7.65c0.067,0.067 0.133,0.233 0.2,0.5c-0.267,-0 -0.567,-0.017 -0.9,-0.05c-0,-0.133 -0.033,-0.217 -0.1,-0.25c0.1,-0.167 0.2,-0.333 0.3,-0.5c0.267,0.133 0.433,0.233 0.5,0.3Z"/><path d="M37.45,11.05l1,0.85l0.95,-0.85l-0.95,-0.9l-1,0.9Z"/><path d="M39.3,7.7c0,-0.167 -0.017,-0.333 -0.05,-0.5l-0.15,0.05c0,0.5 -0.133,0.75 -0.4,0.75c-0.1,0 -0.2,-0.167 -0.3,-0.5l-0.1,0.05c-0.067,0.233 -0.117,0.4 -0.15,0.5c-0.067,0.2 -0.183,0.3 -0.35,0.3c-0.167,0 -0.25,-0.183 -0.25,-0.55l-0.1,0c-0.1,0.267 -0.15,0.433 -0.15,0.5c0,0.167 0.033,0.3 0.1,0.4c0.1,0.133 0.233,0.2 0.4,0.2c0.1,-0 0.217,-0.05 0.35,-0.15c0.133,-0.067 0.2,-0.167 0.2,-0.3c0.1,0.067 0.217,0.1 0.35,0.1c0.4,0 0.6,-0.283 0.6,-0.85Z"/><path d="M23.15,4.45c-0.3,-0 -0.533,0.133 -0.7,0.4c-0.133,0.233 -0.2,0.517 -0.2,0.85c-0,0.5 0.233,0.75 0.7,0.75c0.267,-0 0.5,-0.1 0.7,-0.3c0.167,-0.233 0.25,-0.483 0.25,-0.75c-0,-0.233 -0.067,-0.433 -0.2,-0.6c-0.133,-0.233 -0.317,-0.35 -0.55,-0.35Z"/><path d="M23.05,5.8c-0.367,0 -0.55,-0.117 -0.55,-0.35c0,-0.3 0.117,-0.45 0.35,-0.45c0.133,0 0.283,0.067 0.45,0.2c0.167,0.133 0.25,0.25 0.25,0.35c0,0.167 -0.167,0.25 -0.5,0.25Z"/><path d="M28.4,17.1c-0.367,0.6 -0.55,1.1 -0.55,1.5c0,0.767 0.383,1.35 1.15,1.75c0.633,0.3 1.417,0.45 2.35,0.45c2.167,0 3.75,-0.583 4.75,-1.75c0.333,-0.367 0.5,-0.65 0.5,-0.85c0,-0.3 -0.367,-0.517 -1.1,-0.65c-0.467,-0.067 -0.95,-0.133 -1.45,-0.2c0.173,-0.23 0.989,-0.363 2.45,-0.4l0,-1.5l-0.4,-0c-0.733,-0 -1.383,0.183 -1.95,0.55c-0.633,0.433 -0.95,0.967 -0.95,1.6c-0,0.3 0.167,0.517 0.5,0.65c0.2,0.067 0.55,0.133 1.05,0.2c0.433,0.067 0.733,0.133 0.9,0.2c-0.167,0.267 -0.767,0.5 -1.8,0.7c-0.833,0.167 -1.517,0.25 -2.05,0.25c-0.867,0 -1.533,-0.083 -2,-0.25c-0.733,-0.233 -1.1,-0.683 -1.1,-1.35c-0,-0.267 0.117,-0.617 0.35,-1.05c0.267,-0.533 0.433,-0.883 0.5,-1.05c-0.4,0.233 -0.783,0.633 -1.15,1.2Z" style="fill:#f00;"/><path d="M38.474,18.82l-1.25,0.9c-0.403,0.29 -0.495,0.853 -0.204,1.256c0.29,0.403 0.853,0.495 1.256,0.204l1.25,-0.9c0.403,-0.29 0.495,-0.853 0.204,-1.256c-0.29,-0.403 -0.853,-0.495 -1.256,-0.204Z"/><path d="M42.694,17.456l-1.25,0.85c-0.411,0.279 -0.518,0.839 -0.238,1.25c0.279,0.411 0.839,0.518 1.25,0.238l1.25,-0.85c0.411,-0.279 0.518,-0.839 0.238,-1.25c-0.279,-0.411 -0.839,-0.518 -1.25,-0.238Z"/><path d="M18.924,7.22l-1.25,0.9c-0.403,0.29 -0.495,0.853 -0.204,1.256c0.29,0.403 0.853,0.495 1.256,0.204l1.25,-0.9c0.403,-0.29 0.495,-0.853 0.204,-1.256c-0.29,-0.403 -0.853,-0.495 -1.256,-0.204Z"/><path d="M7.174,7.22l-1.25,0.9c-0.403,0.29 -0.495,0.853 -0.204,1.256c0.29,0.403 0.853,0.495 1.256,0.204l1.25,-0.9c0.403,-0.29 0.495,-0.853 0.204,-1.256c-0.29,-0.403 -0.853,-0.495 -1.256,-0.204Z"/></g></svg>