<?xml version="1.0" encoding="UTF-8" standalone="no"?><!DOCTYPE svg PUBLIC "-//W3C//DTD SVG 1.1//EN" "http://www.w3.org/Graphics/SVG/1.1/DTD/svg11.dtd"><svg width="100%" height="100%" viewBox="0 0 41 29" version="1.1" xmlns="http://www.w3.org/2000/svg" xmlns:xlink="http://www.w3.org/1999/xlink" xml:space="preserve" xmlns:serif="http://www.serif.com/" style="fill-rule:evenodd;clip-rule:evenodd;stroke-linejoin:round;stroke-miterlimit:2;"><g><path d="M32.4,9.3c-0.833,0.9 -1.25,1.433 -1.25,1.6l0.3,10.15c0.7,-0.467 1.05,-1.7 1.05,-3.7l-0.1,-8.05Z"/><path d="M28.2,18.35c-0,-0.433 -0.2,-0.983 -0.6,-1.65c-0.4,-0.733 -0.833,-1.1 -1.3,-1.1c-0.4,0 -0.833,0.25 -1.3,0.75c-0.4,0.5 -0.783,1.017 -1.15,1.55c-0.5,0.567 -0.95,0.917 -1.35,1.05c-0.233,0.1 -0.917,0.15 -2.05,0.15c-0.606,0.002 -0.989,-0.031 -1.15,-0.1c-0.433,-0.167 -0.65,-0.667 -0.65,-1.5c-0.333,0.2 -0.567,0.483 -0.7,0.85c-0.1,0.3 -0.267,0.5 -0.5,0.6c-0.4,0.133 -1.233,0.2 -2.5,0.2l-0,0.05c-0.23,0.014 -0.464,0.014 -0.7,-0c-0.2,-0.4 -0.4,-0.783 -0.6,-1.15c-0.333,-0.5 -0.667,-0.75 -1,-0.75c-0.4,0 -0.833,0.367 -1.3,1.1c-0.4,0.667 -0.6,1.217 -0.6,1.65c0,0.5 0.3,0.817 0.9,0.95c0.533,0.067 1.067,0.133 1.6,0.2c-0.633,0.833 -1.3,1.433 -2,1.8c-0.767,0.4 -1.683,0.6 -2.75,0.6c-0.6,0 -1.433,-0.033 -2.5,-0.1c1,0.833 2.183,1.25 3.55,1.25c1.133,-0 2.117,-0.4 2.95,-1.2c0.567,-0.567 1.117,-1.4 1.65,-2.5l2.15,0c0.433,0 0.8,-0.133 1.1,-0.4c0.067,-0.1 0.283,-0.4 0.65,-0.9c0.433,0.533 0.667,0.817 0.7,0.85c0.3,0.3 0.65,0.45 1.05,0.45l1.6,0l-0,-0.05l0.9,-0c0.4,-0 0.767,-0.183 1.1,-0.55c0.233,-0.333 0.467,-0.65 0.7,-0.95c0.667,0.367 1.05,0.567 1.15,0.6c0.433,0.2 0.85,0.3 1.25,0.3c0.567,-0 1,-0.233 1.3,-0.7c0.267,-0.367 0.4,-0.817 0.4,-1.35Zm-15.15,1.45c-0.333,0 -0.733,-0.033 -1.2,-0.1c0,-0.167 -0.033,-0.267 -0.1,-0.3c0.133,-0.233 0.267,-0.45 0.4,-0.65c0.367,0.167 0.583,0.3 0.65,0.4c0.1,0.1 0.183,0.317 0.25,0.65Zm13.95,-1.1c-0.267,0.067 -0.417,0.1 -0.45,0.1c-0.2,0 -0.767,-0.25 -1.7,-0.75c0.4,-0.633 0.683,-0.95 0.85,-0.95c0.367,0 0.667,0.167 0.9,0.5c0.067,0.133 0.2,0.367 0.4,0.7l0,0.4Z"/><path d="M19.35,14.35l-1.35,-1.1l-1.35,1.1l1.35,1.1l1.35,-1.1Z"/><path d="M33.85,10.8c0.467,-0.233 0.7,-0.533 0.7,-0.9c0,-0.3 -0.1,-0.733 -0.3,-1.3c-0.2,-0.567 -0.3,-0.983 -0.3,-1.25c-0.433,0.267 -0.65,0.5 -0.65,0.7c0,0.267 0.1,0.65 0.3,1.15c0.2,0.5 0.3,0.883 0.3,1.15c-0,0.167 -0.017,0.317 -0.05,0.45Z"/><path d="M14,8.25c-0.167,0.2 -0.25,0.4 -0.25,0.6c0,0.167 0.167,0.35 0.5,0.55c-0.633,0.4 -1.233,0.7 -1.8,0.9c0.2,0.033 0.367,0.05 0.5,0.05c0.467,0 1.017,-0.267 1.65,-0.8c0.267,0.133 0.5,0.233 0.7,0.3l0.05,-0.6c-0.133,-0.067 -0.233,-0.117 -0.3,-0.15c0.167,-0.3 0.25,-0.533 0.25,-0.7c0,-0.333 -0.2,-0.5 -0.6,-0.5c-0.267,-0 -0.5,0.117 -0.7,0.35Zm0.15,0.25c0.033,-0.067 0.083,-0.1 0.15,-0.1c0.3,0.033 0.45,0.15 0.45,0.35c0,0.033 -0.017,0.083 -0.05,0.15c-0.367,-0.133 -0.55,-0.267 -0.55,-0.4Z"/><path d="M6.05,9.3c-0.833,0.9 -1.25,1.433 -1.25,1.6l0.3,10.15c0.7,-0.467 1.05,-1.7 1.05,-3.7l-0.1,-8.05Z" style="fill:#f00;"/><path d="M25.546,7.705l-1.7,1.15c-0.412,0.278 -0.52,0.838 -0.241,1.249c0.278,0.412 0.838,0.52 1.249,0.241l1.7,-1.15c0.412,-0.278 0.52,-0.838 0.241,-1.249c-0.278,-0.412 -0.838,-0.52 -1.249,-0.241Z"/></g></svg>