<?xml version="1.0" encoding="UTF-8" standalone="no"?><!DOCTYPE svg PUBLIC "-//W3C//DTD SVG 1.1//EN" "http://www.w3.org/Graphics/SVG/1.1/DTD/svg11.dtd"><svg width="100%" height="100%" viewBox="0 0 60 33" version="1.1" xmlns="http://www.w3.org/2000/svg" xmlns:xlink="http://www.w3.org/1999/xlink" xml:space="preserve" xmlns:serif="http://www.serif.com/" style="fill-rule:evenodd;clip-rule:evenodd;stroke-linejoin:round;stroke-miterlimit:2;"><g><path d="M13.9,23.05c0.989,-0.017 1.706,-0.201 2.15,-0.55c0.5,-0.367 0.75,-1.033 0.75,-2c0,-0.267 -0.117,-0.85 -0.35,-1.75c-0.3,0.567 -0.533,0.983 -0.7,1.25c0.267,0.467 0.433,0.8 0.5,1c-0.26,0.293 -1.043,0.443 -2.35,0.45l-0.9,-0c-0.4,-0 -0.683,-0.05 -0.85,-0.15c-0.167,-0.1 -0.45,-0.367 -0.85,-0.8l-0.7,1.15c0.367,0.5 0.583,0.833 0.65,1c0.167,0.333 0.25,0.7 0.25,1.1c-0,0.5 -0.333,0.883 -1,1.15c-0.533,0.2 -1.133,0.3 -1.8,0.3c-1.767,-0 -2.65,-0.633 -2.65,-1.9c0,-0.2 0.117,-0.75 0.35,-1.65c-0.3,0.133 -0.567,0.533 -0.8,1.2c-0.167,0.533 -0.25,1 -0.25,1.4c0,1.633 0.9,2.45 2.7,2.45c1.233,-0 2.233,-0.333 3,-1c0.767,-0.667 1.15,-1.55 1.15,-2.65l1.7,0Z"/><path d="M15.55,25.15l-0.9,-0.8l-0.95,0.8l0.95,0.85l0.9,-0.85Z"/><path d="M17.45,25.15l-0.95,-0.8l-0.95,0.8l0.95,0.85l0.95,-0.85Z"/><path d="M45.85,24.35l-0.95,0.8l0.95,0.85l0.9,-0.85l-0.9,-0.8Z"/><path d="M47.7,24.35l-0.95,0.8l0.95,0.85l0.95,-0.85l-0.95,-0.8Z"/><path d="M28.45,13.2c-0,0.067 -0.033,0.167 -0.1,0.3c-0.033,0.133 -0.05,0.217 -0.05,0.25c0,0.2 0.133,0.417 0.4,0.65c0.267,0.267 0.4,0.433 0.4,0.5c0,0.2 -0.067,0.45 -0.2,0.75c-0.167,0.333 -0.25,0.567 -0.25,0.7c-0,0.267 0.017,0.667 0.05,1.2c0.067,0.533 0.1,0.95 0.1,1.25l0,1.45c0,0.733 -0.117,1.333 -0.35,1.8c-0.3,0.667 -0.783,1 -1.45,1l-1.8,0c-0.333,0 -0.6,-0.2 -0.8,-0.6c-0.133,-0.367 -0.25,-0.717 -0.35,-1.05c-0.633,0.8 -1.033,1.267 -1.2,1.4c-0.4,0.267 -1.033,0.4 -1.9,0.4c-0.8,-0 -1.2,-0.167 -1.2,-0.5l0,-1.65c0.4,0.367 0.85,0.55 1.35,0.55c0.467,0 0.967,-0.083 1.5,-0.25c0.6,-0.167 1.017,-0.4 1.25,-0.7l-0.65,-3.1c-0,-0.033 0.15,-0.5 0.45,-1.4c0.2,1.133 0.4,2.067 0.6,2.8c0.4,1.5 0.75,2.317 1.05,2.45c0.06,0.03 0.16,0.047 0.3,0.05l1,-0c0.933,0.033 1.4,-0.183 1.4,-0.65c0,-2.367 -0.1,-4.133 -0.3,-5.3c-0.333,-0.333 -0.517,-0.617 -0.55,-0.85c0.3,-0.767 0.717,-1.317 1.25,-1.65l0.05,0.2Z"/><path d="M32.4,13.15c-0.633,0.767 -0.95,1.217 -0.95,1.35l0.25,8.55c0.533,-0.367 0.8,-1.4 0.8,-3.1l-0.1,-6.8Z"/><path d="M51.95,13.15c-0.633,0.767 -0.95,1.217 -0.95,1.35l0.25,8.55c0.533,-0.367 0.8,-1.4 0.8,-3.1l-0.1,-6.8Z"/><path d="M46.95,20c0.267,0.467 0.433,0.8 0.5,1c-0.246,0.277 -0.963,0.427 -2.15,0.45l-0.8,-0c-0.078,0.028 -0.162,0.045 -0.25,0.05c-0.533,0.033 -0.95,0.05 -1.25,0.05c-0.433,0 -0.75,-0.033 -0.95,-0.1c0.333,-0.333 0.633,-0.7 0.9,-1.1c0.3,-0.467 0.45,-0.9 0.45,-1.3c-0,-0.8 -0.217,-1.35 -0.65,-1.65c-0.333,-0 -0.683,0.333 -1.05,1c-0.333,0.6 -0.65,1.217 -0.95,1.85c-0.367,0.667 -0.733,1.033 -1.1,1.1c-0.238,0.048 -0.638,0.081 -1.2,0.1l-0.75,-0l-0,1.6l2.1,0c0,0.6 0.167,1.217 0.5,1.85c0.4,0.8 0.9,1.2 1.5,1.2c0.433,0 0.783,-0.267 1.05,-0.8c0.2,-0.4 0.3,-0.85 0.3,-1.35c-0,-0.1 -0.017,-0.267 -0.05,-0.5c-0.033,-0.233 -0.05,-0.383 -0.05,-0.45c0.433,0.033 0.833,0.05 1.2,0.05l0.7,0c1.067,0 1.833,-0.183 2.3,-0.55c0.5,-0.367 0.75,-1.033 0.75,-2c-0,-0.267 -0.117,-0.85 -0.35,-1.75c-0.3,0.567 -0.533,0.983 -0.7,1.25Zm-5.8,4.15c-0.267,-0.3 -0.45,-0.65 -0.55,-1.05c1.367,0.3 2.05,0.733 2.05,1.3c-0,0.033 -0.05,0.1 -0.15,0.2c-0.133,0.067 -0.233,0.1 -0.3,0.1c-0.4,-0 -0.75,-0.183 -1.05,-0.55Zm1.45,-4.4c0,0.433 -0.183,0.75 -0.55,0.95c-0.233,0.133 -0.617,0.25 -1.15,0.35c0.333,-0.6 0.517,-0.933 0.55,-1c0.2,-0.367 0.45,-0.667 0.75,-0.9c0.267,0.233 0.4,0.433 0.4,0.6Z"/><path d="M9.8,19.15l-1.05,-0.95l-1.05,0.95l1.05,0.95l1.05,-0.95Z"/><path d="M22.4,14.45l1.1,0.95l1.05,-0.95l-1.1,-0.95l-1.05,0.95Z"/><path d="M28.1,10.75c-0.067,0.3 -0.117,0.5 -0.15,0.6c-0.1,0.2 -0.233,0.3 -0.4,0.3c-0.167,-0 -0.25,-0.2 -0.25,-0.6l-0.1,0.05c-0.1,0.267 -0.15,0.45 -0.15,0.55c0,0.167 0.033,0.3 0.1,0.4c0.1,0.133 0.233,0.2 0.4,0.2c0.133,-0 0.267,-0.05 0.4,-0.15c0.133,-0.1 0.2,-0.217 0.2,-0.35c0.133,0.1 0.267,0.15 0.4,0.15c0.433,-0 0.65,-0.317 0.65,-0.95c-0,-0.167 -0.033,-0.35 -0.1,-0.55l-0.15,0.05c-0,0.567 -0.133,0.85 -0.4,0.85c-0.133,0 -0.25,-0.183 -0.35,-0.55l-0.1,-0Z"/><path d="M45.75,11.35c0.133,-0.233 0.2,-0.417 0.2,-0.55c-0,-0.267 -0.15,-0.4 -0.45,-0.4c-0.2,-0 -0.383,0.083 -0.55,0.25c-0.133,0.2 -0.2,0.383 -0.2,0.55c0,0.133 0.133,0.267 0.4,0.4c-0.5,0.367 -0.983,0.633 -1.45,0.8c0.167,0.033 0.3,0.05 0.4,0.05c0.367,-0 0.817,-0.233 1.35,-0.7c0.2,0.1 0.367,0.183 0.5,0.25l0.05,-0.5c-0.1,-0.067 -0.183,-0.117 -0.25,-0.15Zm-0.2,-0.25c0,0.033 -0.017,0.083 -0.05,0.15c-0.3,-0.133 -0.45,-0.25 -0.45,-0.35c0.033,-0.067 0.083,-0.1 0.15,-0.1c0.233,0.033 0.35,0.133 0.35,0.3Z"/><path d="M35.7,13.45c-0.167,0.167 -0.333,0.317 -0.5,0.45c-0.133,0.167 -0.2,0.383 -0.2,0.65l0,4.2c0.1,2.1 0.333,3.367 0.7,3.8c0.333,0.333 0.767,0.5 1.3,0.5l0.7,0l-0,-1.6l0.5,-0c-1.026,-0.031 -1.71,-0.248 -2.05,-0.65c-0.3,-0.333 -0.45,-1.05 -0.45,-2.15l-0,-5.2Z" style="fill:#f00;"/><path d="M22.119,24.173l-1.3,0.95c-0.401,0.293 -0.489,0.857 -0.196,1.258c0.293,0.401 0.857,0.489 1.258,0.196l1.3,-0.95c0.401,-0.293 0.489,-0.857 0.196,-1.258c-0.293,-0.401 -0.857,-0.489 -1.258,-0.196Z"/><path d="M8.282,11.714l-1.35,0.95c-0.406,0.286 -0.504,0.848 -0.218,1.254c0.286,0.406 0.848,0.504 1.254,0.218l1.35,-0.95c0.406,-0.286 0.504,-0.848 0.218,-1.254c-0.286,-0.406 -0.848,-0.504 -1.254,-0.218Z"/><path d="M39.219,9.823l-1.3,0.95c-0.401,0.293 -0.489,0.857 -0.196,1.258c0.293,0.401 0.857,0.489 1.258,0.196l1.3,-0.95c0.401,-0.293 0.489,-0.857 0.196,-1.258c-0.293,-0.401 -0.857,-0.489 -1.258,-0.196Z"/><path d="M51.832,9.814l-1.35,0.95c-0.406,0.286 -0.504,0.848 -0.218,1.254c0.286,0.406 0.848,0.504 1.254,0.218l1.35,-0.95c0.406,-0.286 0.504,-0.848 0.218,-1.254c-0.286,-0.406 -0.848,-0.504 -1.254,-0.218Z"/><path d="M28.032,8.364l-1.35,0.95c-0.406,0.286 -0.504,0.848 -0.218,1.254c0.286,0.406 0.848,0.504 1.254,0.218l1.35,-0.95c0.406,-0.286 0.504,-0.848 0.218,-1.254c-0.286,-0.406 -0.848,-0.504 -1.254,-0.218Z"/></g></svg>