<?xml version="1.0" encoding="UTF-8" standalone="no"?><!DOCTYPE svg PUBLIC "-//W3C//DTD SVG 1.1//EN" "http://www.w3.org/Graphics/SVG/1.1/DTD/svg11.dtd"><svg width="100%" height="100%" viewBox="0 0 74 37" version="1.1" xmlns="http://www.w3.org/2000/svg" xmlns:xlink="http://www.w3.org/1999/xlink" xml:space="preserve" xmlns:serif="http://www.serif.com/" style="fill-rule:evenodd;clip-rule:evenodd;stroke-linejoin:round;stroke-miterlimit:2;"><g><path d="M12.45,24.5c0.533,-0.533 0.8,-1.25 0.8,-2.15c-0,-1.133 -0.317,-2.117 -0.95,-2.95c-0.667,-0.933 -1.583,-1.567 -2.75,-1.9c-0.1,0.3 -0.15,0.667 -0.15,1.1l0.05,1.5c0.667,0 1.383,0.25 2.15,0.75c0.8,0.533 1.2,1.083 1.2,1.65c-0,0.233 -0.45,0.433 -1.35,0.6c-0.667,0.1 -1.233,0.15 -1.7,0.15c-0.633,-0 -1.283,-0.15 -1.95,-0.45c-0.1,0.767 -0.15,1.183 -0.15,1.25c0,0.6 0.233,0.983 0.7,1.15c0.233,0.067 0.767,0.1 1.6,0.1c1.067,0 1.9,-0.267 2.5,-0.8Z"/><path d="M61.35,24.05c-0,0.6 0.233,0.983 0.7,1.15c0.233,0.067 0.767,0.1 1.6,0.1c1.067,0 1.9,-0.267 2.5,-0.8c0.533,-0.533 0.8,-1.25 0.8,-2.15c-0,-1.133 -0.317,-2.117 -0.95,-2.95c-0.667,-0.933 -1.583,-1.567 -2.75,-1.9c-0.1,0.3 -0.15,0.667 -0.15,1.1l0.05,1.5c0.667,0 1.383,0.25 2.15,0.75c0.8,0.533 1.2,1.083 1.2,1.65c0,0.233 -0.45,0.433 -1.35,0.6c-0.667,0.1 -1.233,0.15 -1.7,0.15c-0.633,-0 -1.283,-0.15 -1.95,-0.45c-0.1,0.767 -0.15,1.183 -0.15,1.25Z"/><path d="M49.75,11.9c-0.9,0.967 -1.333,1.55 -1.3,1.75l0.3,11.2c0.733,-0.5 1.1,-1.85 1.1,-4.05l-0.1,-8.9Z"/><path d="M17.4,12.25c-0.233,0.233 -0.467,0.45 -0.7,0.65c-0.2,0.2 -0.3,0.483 -0.3,0.85c0,2.833 0.017,4.65 0.05,5.45c0.133,2.733 0.45,4.383 0.95,4.95c0.433,0.467 1.017,0.7 1.75,0.7l2,0c1.233,-0.049 2.133,-0.283 2.7,-0.7c0.7,-0.5 1.05,-1.367 1.05,-2.6c0,-0.367 -0.183,-1.15 -0.55,-2.35c-0.367,0.733 -0.667,1.283 -0.9,1.65c0.367,0.6 0.6,1.033 0.7,1.3c-0.37,0.37 -1.37,0.57 -3,0.6l-0.4,0c-1.376,-0.045 -2.293,-0.312 -2.75,-0.8c-0.4,-0.467 -0.6,-1.417 -0.6,-2.85l0,-6.85Z"/><path d="M44.2,13.05c0,-0.2 0.033,-0.467 0.1,-0.8c-0.733,0.5 -1.25,1.233 -1.55,2.2c0.033,0.1 0.167,0.283 0.4,0.55c0.167,0.233 0.25,0.4 0.25,0.5c0,0.367 -0.1,1.1 -0.3,2.2c-0.2,1.133 -0.367,1.8 -0.5,2c-1.967,-2.367 -3.05,-3.65 -3.25,-3.85c-1.733,-1.833 -3.033,-2.75 -3.9,-2.75c-0.333,0 -0.6,0.133 -0.8,0.4c-0.167,0.2 -0.25,0.45 -0.25,0.75c-0,0.5 0.2,0.983 0.6,1.45c0.4,0.5 0.9,0.75 1.5,0.75c0.267,-0 0.45,-0.05 0.55,-0.15c0.233,-0.133 0.367,-0.217 0.4,-0.25c0.433,0.233 1.233,0.983 2.4,2.25c0.9,0.967 1.633,1.8 2.2,2.5c-0.233,0.333 -0.583,0.733 -1.05,1.2c-0.5,0.533 -0.917,0.883 -1.25,1.05l-0.95,-0.25l-0,2c0.633,0.167 1.483,0.25 2.55,0.25c1,0 1.65,-0.117 1.95,-0.35c0.333,-0.233 0.5,-0.783 0.5,-1.65c-0,-1.033 -0.267,-1.867 -0.8,-2.5c0.233,-0.5 0.433,-1.283 0.6,-2.35c0.167,-1.033 0.333,-1.767 0.5,-2.2l0.2,0.15c0.3,-0.133 0.533,-0.417 0.7,-0.85c0.067,-0.1 0.2,-0.433 0.4,-1c-0.8,-0.3 -1.2,-0.717 -1.2,-1.25Zm-1.4,9.05l0.2,0.5l-0.1,0.4c-1.033,0.033 -1.65,0.05 -1.85,0.05c0.733,-0.533 1.217,-1.05 1.45,-1.55c-0,0.067 0.1,0.267 0.3,0.6Z"/><path d="M33.2,22.6c0,-0.6 -0.133,-1.183 -0.4,-1.75c-0.3,-0.733 -0.75,-1.1 -1.35,-1.1c-0.5,0 -0.967,0.367 -1.4,1.1c-0.367,0.667 -0.55,1.233 -0.55,1.7c-0,0.833 0.383,1.25 1.15,1.25c0.6,0 1.167,-0.267 1.7,-0.8c0.133,0.233 0.2,0.467 0.2,0.7c-0,1.233 -1.033,2.2 -3.1,2.9c-1.567,0.567 -3.183,0.85 -4.85,0.85c0.8,0.267 1.35,0.45 1.65,0.55c0.567,0.133 1.15,0.2 1.75,0.2c1.7,-0 3.017,-0.6 3.95,-1.8c0.833,-1.033 1.25,-2.3 1.25,-3.8Zm-2.3,-1.4c0.567,0.233 0.85,0.517 0.85,0.85c-0,0.133 -0.083,0.25 -0.25,0.35c-0.167,0.067 -0.333,0.1 -0.5,0.1l-0.65,-0.25c0.2,-0.4 0.383,-0.75 0.55,-1.05Z"/><path d="M22.15,15.05l-1.25,1.05l1.25,1.1l1.25,-1.05l-1.25,-1.1Z"/><path d="M24.7,17.2l1.3,-1.1l-1.3,-1.05l-1.3,1.1l1.3,1.05Z"/><path d="M64.1,15.3l1.45,-1.25l-1.45,-1.25l-1.45,1.25l1.45,1.25Z"/><path d="M31.65,13.05c-0.233,-0.3 -0.517,-0.45 -0.85,-0.45c-0.433,0 -0.767,0.2 -1,0.6c-0.2,0.3 -0.3,0.683 -0.3,1.15c0,0.7 0.333,1.05 1,1.05c0.4,-0 0.733,-0.15 1,-0.45c0.3,-0.3 0.45,-0.633 0.45,-1c0,-0.333 -0.1,-0.633 -0.3,-0.9Zm-1.3,0.35c0.167,-0 0.383,0.083 0.65,0.25c0.267,0.2 0.4,0.367 0.4,0.5c0,0.267 -0.233,0.4 -0.7,0.4c-0.6,0 -0.9,-0.183 -0.9,-0.55c0,-0.4 0.183,-0.6 0.55,-0.6Z"/><path d="M61.3,10l0.05,-0.6c-0.167,-0.1 -0.283,-0.167 -0.35,-0.2c0.2,-0.333 0.3,-0.583 0.3,-0.75c0,-0.367 -0.217,-0.55 -0.65,-0.55c-0.3,-0 -0.55,0.117 -0.75,0.35c-0.2,0.233 -0.3,0.467 -0.3,0.7c-0,0.167 0.183,0.35 0.55,0.55c-0.7,0.467 -1.35,0.8 -1.95,1c0.2,0.067 0.367,0.1 0.5,0.1c0.533,0 1.15,-0.3 1.85,-0.9c0.267,0.133 0.517,0.233 0.75,0.3Zm-0.6,-1.2c-0,0.067 -0.017,0.133 -0.05,0.2c-0.4,-0.167 -0.6,-0.317 -0.6,-0.45c0.033,-0.067 0.083,-0.1 0.15,-0.1c0.333,0.033 0.5,0.15 0.5,0.35Z"/><path d="M44.8,7.4c-0.233,-0.3 -0.517,-0.45 -0.85,-0.45c-0.433,-0 -0.767,0.2 -1,0.6c-0.2,0.3 -0.3,0.683 -0.3,1.15c0,0.7 0.333,1.05 1,1.05c0.4,0 0.733,-0.15 1,-0.45c0.3,-0.3 0.45,-0.633 0.45,-1c-0,-0.333 -0.1,-0.633 -0.3,-0.9Zm-0.95,1.5c-0.6,-0 -0.9,-0.183 -0.9,-0.55c-0,-0.4 0.183,-0.6 0.55,-0.6c0.167,0 0.383,0.083 0.65,0.25c0.267,0.2 0.4,0.367 0.4,0.5c-0,0.267 -0.233,0.4 -0.7,0.4Z"/><path d="M55.8,23.8c0.6,0 1.167,-0.267 1.7,-0.8c0.133,0.233 0.2,0.467 0.2,0.7c-0,1.233 -1.033,2.2 -3.1,2.9c-1.567,0.567 -3.183,0.85 -4.85,0.85c0.8,0.267 1.35,0.45 1.65,0.55c0.567,0.133 1.15,0.2 1.75,0.2c1.7,-0 3.017,-0.6 3.95,-1.8c0.833,-1.033 1.25,-2.3 1.25,-3.8c-0,-0.6 -0.133,-1.183 -0.4,-1.75c-0.3,-0.733 -0.75,-1.1 -1.35,-1.1c-0.5,0 -0.967,0.367 -1.4,1.1c-0.367,0.667 -0.55,1.233 -0.55,1.7c-0,0.833 0.383,1.25 1.15,1.25Zm1.1,-1.75c-0,0.133 -0.083,0.25 -0.25,0.35c-0.167,0.067 -0.333,0.1 -0.5,0.1l-0.65,-0.25c0.2,-0.4 0.383,-0.75 0.55,-1.05c0.567,0.233 0.85,0.517 0.85,0.85Z" style="fill:#f00;"/><path d="M10.323,27.12l-1.8,1.3c-0.403,0.291 -0.493,0.854 -0.203,1.257c0.291,0.403 0.854,0.493 1.257,0.203l1.8,-1.3c0.403,-0.291 0.493,-0.854 0.203,-1.257c-0.291,-0.403 -0.854,-0.493 -1.257,-0.203Z"/><path d="M35.387,7.961l-1.8,1.25c-0.408,0.283 -0.51,0.844 -0.226,1.252c0.283,0.408 0.844,0.51 1.252,0.226l1.8,-1.25c0.408,-0.283 0.51,-0.844 0.226,-1.252c-0.283,-0.408 -0.844,-0.51 -1.252,-0.226Z"/><path d="M21.146,7.954l-1.85,1.25c-0.411,0.278 -0.52,0.838 -0.242,1.25c0.278,0.411 0.838,0.52 1.25,0.242l1.85,-1.25c0.411,-0.278 0.52,-0.838 0.242,-1.25c-0.278,-0.411 -0.838,-0.52 -1.25,-0.242Z"/></g></svg>