<?xml version="1.0" encoding="UTF-8" standalone="no"?><!DOCTYPE svg PUBLIC "-//W3C//DTD SVG 1.1//EN" "http://www.w3.org/Graphics/SVG/1.1/DTD/svg11.dtd"><svg width="100%" height="100%" viewBox="0 0 117 67" version="1.1" xmlns="http://www.w3.org/2000/svg" xmlns:xlink="http://www.w3.org/1999/xlink" xml:space="preserve" xmlns:serif="http://www.serif.com/" style="fill-rule:evenodd;clip-rule:evenodd;stroke-linejoin:round;stroke-miterlimit:2;"><g><path d="M28.6,35.65c-1.033,-1.933 -2.467,-3.25 -4.3,-3.95c-0.167,0.667 -0.25,1.45 -0.25,2.35l0.05,3.15c1.067,-0 2.2,0.517 3.4,1.55c1.267,1.133 1.9,2.3 1.9,3.5c-0,0.467 -0.7,0.867 -2.1,1.2c-1.067,0.233 -1.967,0.35 -2.7,0.35c-1,0 -2.017,-0.317 -3.05,-0.95c-0.133,1.6 -0.2,2.483 -0.2,2.65c0,1.233 0.35,2.017 1.05,2.35c0.367,0.167 1.217,0.25 2.55,0.25c1.667,0 2.95,-0.567 3.85,-1.7c0.867,-1.1 1.3,-2.617 1.3,-4.55c0,-2.3 -0.5,-4.367 -1.5,-6.2Z"/><path d="M90.4,22.05c-0.3,0.433 -0.45,1.033 -0.45,1.8c0,5.933 0.033,9.75 0.1,11.45c0.2,5.767 0.7,9.233 1.5,10.4c0.633,0.967 1.533,1.45 2.7,1.45l3.1,-0l0,-4.45c-2.5,-0 -4.133,-0.55 -4.9,-1.65c-0.6,-0.967 -0.9,-2.967 -0.9,-6l-0,-14.3c-0.4,0.433 -0.783,0.867 -1.15,1.3Z"/><path d="M84.55,26.85c0.367,-0.867 0.55,-1.567 0.55,-2.1c0,-0.233 -0.3,-0.683 -0.9,-1.35c-0.6,-0.667 -0.9,-1.25 -0.9,-1.75c-0,-0.167 0.05,-0.417 0.15,-0.75c0.1,-0.367 0.15,-0.633 0.15,-0.8l-0.05,-0.55c-1.167,0.9 -2.083,2.433 -2.75,4.6c0.1,0.6 0.5,1.35 1.2,2.25c0.467,3.2 0.7,8.05 0.7,14.55c0,1.267 -1.033,1.867 -3.1,1.8l-0.4,0l-1.65,-0.05l-0,4.45l2.9,-0c1.5,-0 2.567,-0.917 3.2,-2.75c0.5,-1.3 0.75,-2.933 0.75,-4.9l-0,-4.1c-0,-0.767 -0.067,-1.883 -0.2,-3.35c-0.133,-1.5 -0.2,-2.633 -0.2,-3.4c0,-0.367 0.183,-0.967 0.55,-1.8Z"/><path d="M15.8,37.4c-0.3,-0.567 -0.883,-1.267 -1.75,-2.1c-0.967,-0.9 -1.667,-1.65 -2.1,-2.25c-0.6,1.6 -0.9,2.817 -0.9,3.65c-0,0.167 0.033,0.35 0.1,0.55c0.067,0.233 0.1,0.4 0.1,0.5c-1.033,2.367 -1.55,4.3 -1.55,5.8c0,2.4 0.85,3.6 2.55,3.6c1.433,-0 2.533,-0.717 3.3,-2.15c0.667,-1.233 1,-2.7 1,-4.4c-0,-1.267 -0.25,-2.333 -0.75,-3.2Zm-0.6,4.15c0,0.333 -0.35,0.7 -1.05,1.1c-0.667,0.4 -1.183,0.6 -1.55,0.6c-0.9,0 -1.35,-0.65 -1.35,-1.95c0,-1.033 0.35,-1.95 1.05,-2.75c1.933,1.633 2.9,2.633 2.9,3Z"/><path d="M36.7,20.75c-0.4,0.433 -0.783,0.867 -1.15,1.3c-0.3,0.433 -0.45,1.033 -0.45,1.8c0,5.933 0.033,9.75 0.1,11.45c0.2,5.767 0.7,9.233 1.5,10.4c0.633,0.967 1.533,1.45 2.7,1.45l6.05,-0c0,1.633 0.35,3.35 1.05,5.15c0.867,2.167 1.95,3.25 3.25,3.25c0.967,0 1.717,-0.733 2.25,-2.2c0.433,-1.133 0.65,-2.367 0.65,-3.7c-0,-0.333 -0.017,-0.783 -0.05,-1.35c-0.067,-0.7 -0.1,-1.15 -0.1,-1.35c0.933,0.167 1.8,0.25 2.6,0.25c0.357,-0 0.691,-0.017 1,-0.05c0.431,-0.041 0.831,-0.108 1.2,-0.2l-0,-4.25l-0.1,-0c-0.304,0.007 -0.804,0.04 -1.5,0.1c-0.215,0.012 -0.448,0.028 -0.7,0.05c-1.133,0.067 -2,0.1 -2.6,0.1c-0.967,-0 -1.683,-0.083 -2.15,-0.25c0.8,-0.867 1.467,-1.85 2,-2.95c0.633,-1.3 0.95,-2.5 0.95,-3.6c0,-2.2 -0.467,-3.7 -1.4,-4.5c-0.733,-0 -1.5,0.9 -2.3,2.7c-0.667,1.7 -1.333,3.383 -2,5.05c-0.8,1.9 -1.6,2.933 -2.4,3.1c-0.511,0.097 -1.378,0.164 -2.6,0.2l-0.5,-0c-2.215,-0.069 -3.682,-0.619 -4.4,-1.65c-0.6,-0.967 -0.9,-2.967 -0.9,-6l0,-14.3Zm11.6,29.45c-0.567,-0.8 -0.95,-1.75 -1.15,-2.85c3,0.8 4.5,1.967 4.5,3.5c-0,0.133 -0.133,0.3 -0.4,0.5c-0.267,0.2 -0.45,0.3 -0.55,0.3c-0.9,-0 -1.7,-0.483 -2.4,-1.45Zm0.7,-11.3c0.467,-1 1,-1.85 1.6,-2.55c0.567,0.667 0.85,1.267 0.85,1.8c0,1.1 -0.367,1.95 -1.1,2.55c-0.533,0.4 -1.367,0.733 -2.5,1c0.7,-1.7 1.083,-2.633 1.15,-2.8Z"/><path d="M14.15,30l2.05,-2.3l-2.05,-2.25l-2,2.25l2,2.3Z"/><path d="M8.2,27.7l2,2.25l1.95,-2.25l-1.95,-2.25l-2,2.25Z"/><path d="M69.7,16.9l-0.2,0.05c-0.1,0.633 -0.2,1.067 -0.3,1.3c-0.167,0.5 -0.4,0.75 -0.7,0.75c-0.3,0 -0.45,-0.467 -0.45,-1.4l-0.25,0.05c-0.167,0.667 -0.25,1.083 -0.25,1.25c-0,0.4 0.067,0.733 0.2,1c0.167,0.3 0.4,0.45 0.7,0.45c0.267,0 0.517,-0.117 0.75,-0.35c0.233,-0.2 0.367,-0.45 0.4,-0.75c0.233,0.167 0.467,0.25 0.7,0.25c0.8,0 1.2,-0.717 1.2,-2.15c-0,-0.367 -0.05,-0.783 -0.15,-1.25l-0.25,0.15c0,1.267 -0.267,1.9 -0.8,1.9c-0.233,-0 -0.433,-0.417 -0.6,-1.25Z"/><path d="M99.85,56.8l2.3,-2.6l-2.3,-2.6l-2.3,2.6l2.3,2.6Z" style="fill:#f00;"/><path d="M62.55,39.5c-0.933,1.4 -1.7,2.3 -2.3,2.7c-0.533,0.333 -1.35,0.5 -2.45,0.5l-0.5,-0l-0,4.25c-0.369,0.092 -0.769,0.159 -1.2,0.2l3.2,-0c0.6,-0 1.367,-0.517 2.3,-1.55c0.667,0.333 1.317,0.667 1.95,1c0.767,0.367 1.433,0.55 2,0.55c1.167,-0 2.333,-0.45 3.5,-1.35c0.5,0.267 0.983,0.55 1.45,0.85c0.6,0.333 1.1,0.5 1.5,0.5c0.7,-0 1.417,-0.45 2.15,-1.35c0.9,0.9 1.5,1.35 1.8,1.35l1.6,-0l-0,-4.45l1.65,0.05l0,-0.05l-1.25,-0c-1.7,-0 -2.55,-0.467 -2.55,-1.4c-0,-0.1 0.05,-0.283 0.15,-0.55c0.067,-0.3 0.1,-0.517 0.1,-0.65c-0,-0.4 -0.083,-0.85 -0.25,-1.35c-0.367,0.867 -0.75,1.75 -1.15,2.65c-0.533,0.967 -1.2,1.45 -2,1.45c-0.967,0 -1.633,-0.333 -2,-1c0.233,-1.067 0.35,-2.1 0.35,-3.1c-0.567,1 -1.133,1.983 -1.7,2.95c-0.6,0.767 -1.567,1.15 -2.9,1.15c-1.2,0 -2.05,-0.217 -2.55,-0.65c-0.6,-0.5 -0.9,-1.4 -0.9,-2.7Z" style="fill:#f00;"/><path d="M102.5,35.25c-0.6,1.6 -1.083,2.783 -1.45,3.55c0.567,1.233 0.917,2.133 1.05,2.7c-0.565,0.816 -2.148,1.232 -4.75,1.25l0,4.4c1.957,-0.087 3.39,-0.571 4.3,-1.45c1.1,-1.067 1.65,-2.9 1.65,-5.5c-0,-0.733 -0.267,-2.383 -0.8,-4.95Z" style="fill:#f00;"/><path d="M55.7,42.8c0.696,-0.06 1.196,-0.093 1.5,-0.1l-1.5,-0l0,0.1Z" style="fill:#f00;"/><path d="M73.35,30.75l-2.05,-2.2l-1.95,2.25l1.95,2.25l2.05,-2.3Z" style="fill:#f00;"/><path d="M69.35,30.8l-2,-2.25l-2,2.2l2,2.3l2,-2.25Z" style="fill:#f00;"/><path d="M71.45,26.05l-2,-2.25l-2,2.25l2,2.3l2,-2.3Z" style="fill:#f00;"/><path d="M101.152,58.198l-4.35,3.25c-0.663,0.496 -0.799,1.437 -0.304,2.1c0.496,0.663 1.437,0.799 2.1,0.304l4.35,-3.25c0.663,-0.496 0.799,-1.437 0.304,-2.1c-0.496,-0.663 -1.437,-0.799 -2.1,-0.304Z"/><path d="M14.218,49.337l-4.4,3.2c-0.67,0.487 -0.818,1.426 -0.331,2.095c0.487,0.67 1.426,0.818 2.095,0.331l4.4,-3.2c0.67,-0.487 0.818,-1.426 0.331,-2.095c-0.487,-0.67 -1.426,-0.818 -2.095,-0.331Z"/><path d="M26.068,15.137l-4.4,3.2c-0.67,0.487 -0.818,1.426 -0.331,2.095c0.487,0.67 1.426,0.818 2.095,0.331l4.4,-3.2c0.67,-0.487 0.818,-1.426 0.331,-2.095c-0.487,-0.67 -1.426,-0.818 -2.095,-0.331Z"/><path d="M46.018,13.037l-4.4,3.2c-0.67,0.487 -0.818,1.426 -0.331,2.095c0.487,0.67 1.426,0.818 2.095,0.331l4.4,-3.2c0.67,-0.487 0.818,-1.426 0.331,-2.095c-0.487,-0.67 -1.426,-0.818 -2.095,-0.331Z"/><path d="M70.918,10.187l-4.4,3.2c-0.67,0.487 -0.818,1.426 -0.331,2.095c0.487,0.67 1.426,0.818 2.095,0.331l4.4,-3.2c0.67,-0.487 0.818,-1.426 0.331,-2.095c-0.487,-0.67 -1.426,-0.818 -2.095,-0.331Z"/></g></svg>