<?xml version="1.0" encoding="UTF-8" standalone="no"?><!DOCTYPE svg PUBLIC "-//W3C//DTD SVG 1.1//EN" "http://www.w3.org/Graphics/SVG/1.1/DTD/svg11.dtd"><svg width="100%" height="100%" viewBox="0 0 23 33" version="1.1" xmlns="http://www.w3.org/2000/svg" xmlns:xlink="http://www.w3.org/1999/xlink" xml:space="preserve" xmlns:serif="http://www.serif.com/" style="fill-rule:evenodd;clip-rule:evenodd;stroke-linejoin:round;stroke-miterlimit:2;"><g><path d="M15.25,13.7c-0.833,1.033 -1.25,1.65 -1.25,1.85l0.3,11.95c0.7,-0.533 1.05,-1.967 1.05,-4.3l-0.1,-9.5Z" style="fill:#f00;"/><path d="M10.1,13.75l0,-0.25c-0.7,0.433 -1.267,1.2 -1.7,2.3c0.067,0.3 0.317,0.683 0.75,1.15c0.267,1.633 0.4,4.1 0.4,7.4c-0,0.633 -0.617,0.933 -1.85,0.9l-1.25,0l0,2.25l1.75,0c0.9,0 1.55,-0.467 1.95,-1.4c0.3,-0.667 0.45,-1.5 0.45,-2.5l0,-2.05c0,-0.4 -0.033,-0.983 -0.1,-1.75c-0.1,-0.733 -0.15,-1.3 -0.15,-1.7c0,-0.167 0.117,-0.467 0.35,-0.9c0.2,-0.433 0.3,-0.8 0.3,-1.1c0,-0.1 -0.167,-0.317 -0.5,-0.65c-0.367,-0.367 -0.55,-0.667 -0.55,-0.9c0,-0.1 0.033,-0.233 0.1,-0.4c0.033,-0.167 0.05,-0.3 0.05,-0.4Z" style="fill:#f00;"/><path d="M9.85,8.6c-0.433,0 -0.75,0.2 -0.95,0.6c-0.2,0.333 -0.3,0.75 -0.3,1.25c0,0.767 0.317,1.15 0.95,1.15c0.4,0 0.733,-0.15 1,-0.45c0.233,-0.333 0.35,-0.7 0.35,-1.1c-0,-0.367 -0.083,-0.683 -0.25,-0.95c-0.233,-0.333 -0.5,-0.5 -0.8,-0.5Zm-0.4,0.85c0.167,0 0.367,0.1 0.6,0.3c0.267,0.2 0.4,0.367 0.4,0.5c0,0.267 -0.233,0.4 -0.7,0.4c-0.567,-0 -0.85,-0.183 -0.85,-0.55c-0,-0.433 0.183,-0.65 0.55,-0.65Z" style="fill:#f00;"/><path d="M15.347,9.278l-2.1,1.7c-0.344,0.278 -0.397,0.782 -0.119,1.125c0.278,0.344 0.782,0.397 1.125,0.119l2.1,-1.7c0.344,-0.278 0.397,-0.782 0.119,-1.125c-0.278,-0.344 -0.782,-0.397 -1.125,-0.119Z" style="fill:#f00;"/></g></svg>