<?xml version="1.0" encoding="UTF-8" standalone="no"?><!DOCTYPE svg PUBLIC "-//W3C//DTD SVG 1.1//EN" "http://www.w3.org/Graphics/SVG/1.1/DTD/svg11.dtd"><svg width="100%" height="100%" viewBox="0 0 126 67" version="1.1" xmlns="http://www.w3.org/2000/svg" xmlns:xlink="http://www.w3.org/1999/xlink" xml:space="preserve" xmlns:serif="http://www.serif.com/" style="fill-rule:evenodd;clip-rule:evenodd;stroke-linejoin:round;stroke-miterlimit:2;"><g><path d="M21.45,22.35c-0.6,1 -0.883,1.633 -0.85,1.9l1.55,24.95c0.033,0.867 -0.767,1.617 -2.4,2.25c-1.3,0.5 -2.417,0.75 -3.35,0.75c-1.4,-0 -2.55,-0.283 -3.45,-0.85c-1.067,-0.733 -1.6,-1.833 -1.6,-3.3c0,-1.867 0.167,-3.6 0.5,-5.2c-0.6,0.467 -1.133,1.583 -1.6,3.35c-0.433,1.533 -0.65,2.817 -0.65,3.85c0,2.433 0.333,4.217 1,5.35c0.8,1.367 2.217,2.05 4.25,2.05c3.033,-0 5.267,-1.233 6.7,-3.7c0.9,-1.567 1.717,-4.35 2.45,-8.35c0.4,0.367 0.783,0.75 1.15,1.15c0.5,0.4 0.983,0.6 1.45,0.6l3.9,-0c1.067,-0 2.1,-0.317 3.1,-0.95c0.367,-0.233 1.15,-0.883 2.35,-1.95c0.9,-0.8 1.683,-1.317 2.35,-1.55c0.567,-0.167 1.267,-0.267 2.1,-0.3c0.733,-0.033 1.467,-0.067 2.2,-0.1c0.433,-1.3 0.783,-2.7 1.05,-4.2c-1.767,0 -3.433,-0.35 -5,-1.05c-0.733,-0.333 -1.833,-0.983 -3.3,-1.95c-1.067,-0.7 -1.883,-1.05 -2.45,-1.05c-1.067,0 -1.933,0.6 -2.6,1.8c-0.4,0.733 -0.8,1.883 -1.2,3.45c0.433,-0.233 0.867,-0.483 1.3,-0.75c0.533,-0.3 0.983,-0.45 1.35,-0.45c0.533,0 1.317,0.3 2.35,0.9c0.033,0.033 0.783,0.533 2.25,1.5c-1.033,0.933 -1.933,1.567 -2.7,1.9c-0.633,0.267 -1.433,0.4 -2.4,0.4c-0.267,0 -0.783,-0.017 -1.55,-0.05c-0.068,-0.003 -0.134,-0.003 -0.2,0l0,-0.05c-2.2,-0 -3.7,-0.583 -4.5,-1.75c-0.733,-1.067 -1.3,-4.317 -1.7,-9.75c-0.233,-3.533 -0.45,-7.083 -0.65,-10.65c-0.267,0.233 -0.667,0.833 -1.2,1.8Z"/><path d="M111.35,56.55l2.3,-2.55l-2.3,-2.6l-2.3,2.6l2.3,2.55Z"/><path d="M35.75,54l2.3,2.55l2.3,-2.55l-2.3,-2.6l-2.3,2.6Z"/><path d="M70.25,20c-1.4,2.033 -2.083,3.267 -2.05,3.7l0.5,23.5c1.133,-1.067 1.7,-3.917 1.7,-8.55l-0.15,-18.65Z"/><path d="M62.75,26.85c0.367,-0.867 0.55,-1.567 0.55,-2.1c-0,-0.233 -0.3,-0.683 -0.9,-1.35c-0.6,-0.667 -0.9,-1.25 -0.9,-1.75c0,-0.167 0.05,-0.417 0.15,-0.75c0.1,-0.367 0.15,-0.633 0.15,-0.8l-0.05,-0.55c-1.167,0.9 -2.083,2.433 -2.75,4.6c0.1,0.6 0.5,1.35 1.2,2.25c0.467,3.2 0.7,8.05 0.7,14.55c-0,1.267 -1.033,1.867 -3.1,1.8l-0.95,-0.05l-1.1,-0l0,4.45l2.9,-0c1.5,-0 2.567,-0.917 3.2,-2.75c0.5,-1.3 0.75,-2.933 0.75,-4.9l0,-4.1c0,-0.767 -0.067,-1.883 -0.2,-3.35c-0.133,-1.5 -0.2,-2.633 -0.2,-3.4c0,-0.367 0.183,-0.967 0.55,-1.8Z"/><path d="M95.5,22.05c-0.3,0.433 -0.45,1.033 -0.45,1.8c-0,5.933 0.033,9.75 0.1,11.45c0.2,5.767 0.7,9.233 1.5,10.4c0.633,0.967 1.533,1.45 2.7,1.45l4.45,-0c1.067,-0 2.1,-0.317 3.1,-0.95c0.367,-0.233 1.15,-0.883 2.35,-1.95c0.9,-0.8 1.683,-1.317 2.35,-1.55c0.567,-0.167 1.267,-0.267 2.1,-0.3c0.733,-0.033 1.467,-0.067 2.2,-0.1c0.433,-1.3 0.783,-2.7 1.05,-4.2c-1.767,0 -3.433,-0.35 -5,-1.05c-0.733,-0.333 -1.833,-0.983 -3.3,-1.95c-1.067,-0.7 -1.883,-1.05 -2.45,-1.05c-1.067,0 -1.933,0.6 -2.6,1.8c-0.4,0.733 -0.8,1.883 -1.2,3.45c0.433,-0.233 0.867,-0.483 1.3,-0.75c0.533,-0.3 0.983,-0.45 1.35,-0.45c0.533,0 1.317,0.3 2.35,0.9c0.033,0.033 0.783,0.533 2.25,1.5c-1.033,0.933 -1.933,1.567 -2.7,1.9c-0.633,0.267 -1.433,0.4 -2.4,0.4c-0.267,0 -0.783,-0.017 -1.55,-0.05c-0.189,-0.008 -0.373,-0.025 -0.55,-0.05c-2.5,-0 -4.133,-0.55 -4.9,-1.65c-0.6,-0.967 -0.9,-2.967 -0.9,-6l0,-14.3c-0.4,0.433 -0.783,0.867 -1.15,1.3Z"/><path d="M53.75,24.7l-0.2,0.05c-0.1,0.633 -0.2,1.067 -0.3,1.3c-0.167,0.5 -0.4,0.75 -0.7,0.75c-0.3,0 -0.45,-0.467 -0.45,-1.4l-0.25,0.05c-0.167,0.667 -0.25,1.083 -0.25,1.25c0,0.4 0.067,0.733 0.2,1c0.167,0.3 0.4,0.45 0.7,0.45c0.267,-0 0.517,-0.117 0.75,-0.35c0.233,-0.2 0.367,-0.45 0.4,-0.75c0.233,0.167 0.467,0.25 0.7,0.25c0.8,0 1.2,-0.717 1.2,-2.15c-0,-0.367 -0.05,-0.783 -0.15,-1.25l-0.25,0.15c-0,1.267 -0.267,1.9 -0.8,1.9c-0.233,-0 -0.433,-0.417 -0.6,-1.25Z"/><path d="M30.7,22.85c0.4,0.133 0.717,0.2 0.95,0.2c0.967,0 2.1,-0.75 3.4,-2.25c0.533,0.367 0.983,0.633 1.35,0.8l0.15,-1.55c-0.3,-0.2 -0.517,-0.35 -0.65,-0.45c0.333,-0.767 0.5,-1.383 0.5,-1.85c-0,-0.9 -0.383,-1.35 -1.15,-1.35c-0.533,-0 -1.017,0.317 -1.45,0.95c-0.367,0.567 -0.55,1.117 -0.55,1.65c0,0.433 0.367,0.9 1.1,1.4c-1.3,1.067 -2.517,1.883 -3.65,2.45Zm3.75,-5.1c0.6,0.067 0.9,0.383 0.9,0.95c0,0.133 -0.033,0.283 -0.1,0.45c-0.733,-0.4 -1.1,-0.783 -1.1,-1.15c0.033,-0.133 0.133,-0.217 0.3,-0.25Z"/><path d="M93.4,16.25c0.433,-0.667 0.75,-1.1 0.95,-1.3c1,0.5 1.6,0.783 1.8,0.85c0.5,0.167 1.15,0.25 1.95,0.25c0.9,0 1.983,-0.383 3.25,-1.15c1.4,-0.867 2.1,-1.75 2.1,-2.65c-1.433,0.867 -2.217,1.317 -2.35,1.35c-0.9,0.433 -1.733,0.65 -2.5,0.65c-1.433,0 -2.783,-0.5 -4.05,-1.5c-1.033,1.767 -1.75,3.333 -2.15,4.7c0.333,-0.233 0.667,-0.633 1,-1.2Z"/><path d="M19.65,13.6c-0.533,0 -1.017,0.317 -1.45,0.95c-0.367,0.567 -0.55,1.117 -0.55,1.65c-0,0.433 0.367,0.9 1.1,1.4c-1.3,1.067 -2.517,1.883 -3.65,2.45c0.4,0.133 0.717,0.2 0.95,0.2c0.967,0 2.1,-0.75 3.4,-2.25c0.533,0.367 0.983,0.633 1.35,0.8l0.15,-1.55c-0.3,-0.2 -0.517,-0.35 -0.65,-0.45c0.333,-0.767 0.5,-1.383 0.5,-1.85c-0,-0.9 -0.383,-1.35 -1.15,-1.35Zm0.1,2.3c-0,0.133 -0.033,0.283 -0.1,0.45c-0.733,-0.4 -1.1,-0.783 -1.1,-1.15c0.033,-0.133 0.133,-0.217 0.3,-0.25c0.6,0.067 0.9,0.383 0.9,0.95Z"/><path d="M55.75,42.7c-0.695,-0.01 -1.112,-0.027 -1.25,-0.05c-0.6,-0.133 -1.25,-0.583 -1.95,-1.35c-0.133,1.1 -0.35,2.067 -0.65,2.9c-0,0.033 0.3,0.6 0.9,1.7c0.533,0.933 0.8,1.433 0.8,1.5c0,1.067 -1.017,2.417 -3.05,4.05c-1.967,1.567 -3.45,2.35 -4.45,2.35c-0.433,0 -1.017,-0.1 -1.75,-0.3c-0.567,-0.167 -1.15,-0.333 -1.75,-0.5c0.767,1 1.633,1.817 2.6,2.45c1.133,0.7 2.217,1.05 3.25,1.05c1.367,-0 2.75,-1.15 4.15,-3.45c1.267,-2.033 2,-3.917 2.2,-5.65c0.2,-0.167 0.467,-0.25 0.8,-0.25l0.15,-0l0,-4.45Z" style="fill:#f00;"/><path d="M87.3,36.3c-0.4,-0.3 -0.733,-0.45 -1,-0.45c-1.5,0 -3.05,1.45 -4.65,4.35c-0,0.433 0.183,0.933 0.55,1.5c0.333,0.567 0.5,0.933 0.5,1.1c0,0.033 -0.067,0.217 -0.2,0.55c-0.167,0.333 -0.25,0.633 -0.25,0.9c0,0.267 0.033,0.617 0.1,1.05c2.233,-1.7 3.883,-2.55 4.95,-2.55c0.2,0 0.517,0.067 0.95,0.2c0.2,-0.1 0.433,-0.417 0.7,-0.95c0.133,-0.4 0.283,-0.8 0.45,-1.2l-1.7,0c-2.633,0 -3.95,-0.433 -3.95,-1.3c0,-0.3 0.217,-0.65 0.65,-1.05c0.433,-0.4 0.783,-0.6 1.05,-0.6c0.033,0 0.233,0.067 0.6,0.2c0.333,0.133 0.6,0.2 0.8,0.2c0.667,-0 1,-0.367 1,-1.1c0,-0.267 -0.183,-0.55 -0.55,-0.85Z" style="fill:#f00;"/><path d="M55.75,42.7l1.1,-0l-1.1,-0Z" style="fill:#f00;"/><path d="M86.261,26.542l-4.35,3.2c-0.667,0.49 -0.81,1.43 -0.319,2.097c0.49,0.667 1.43,0.81 2.097,0.319l4.35,-3.2c0.667,-0.49 0.81,-1.43 0.319,-2.097c-0.49,-0.667 -1.43,-0.81 -2.097,-0.319Z"/><path d="M54.361,15.142l-4.35,3.2c-0.667,0.49 -0.81,1.43 -0.319,2.097c0.49,0.667 1.43,0.81 2.097,0.319l4.35,-3.2c0.667,-0.49 0.81,-1.43 0.319,-2.097c-0.49,-0.667 -1.43,-0.81 -2.097,-0.319Z"/><path d="M105.561,15.142l-4.35,3.2c-0.667,0.49 -0.81,1.43 -0.319,2.097c0.49,0.667 1.43,0.81 2.097,0.319l4.35,-3.2c0.667,-0.49 0.81,-1.43 0.319,-2.097c-0.49,-0.667 -1.43,-0.81 -2.097,-0.319Z"/></g></svg>