<?xml version="1.0" encoding="UTF-8" standalone="no"?><!DOCTYPE svg PUBLIC "-//W3C//DTD SVG 1.1//EN" "http://www.w3.org/Graphics/SVG/1.1/DTD/svg11.dtd"><svg width="100%" height="100%" viewBox="0 0 129 85" version="1.1" xmlns="http://www.w3.org/2000/svg" xmlns:xlink="http://www.w3.org/1999/xlink" xml:space="preserve" xmlns:serif="http://www.serif.com/" style="fill-rule:evenodd;clip-rule:evenodd;stroke-linejoin:round;stroke-miterlimit:2;"><g><path d="M115.9,66.75l2.3,-2.55l-2.3,-2.6l-2.3,2.6l2.3,2.55Z"/><path d="M20.55,44.3c-0,-0.3 -0.1,-0.667 -0.3,-1.1l-0.65,-0.45c-1.633,0 -3.383,1.383 -5.25,4.15c-1.833,2.7 -2.75,5.017 -2.75,6.95c0,1.2 0.4,2.067 1.2,2.6c0.567,0.433 1.417,0.7 2.55,0.8c0.933,0.033 1.867,0.067 2.8,0.1c-0.533,1.133 -1.95,2.167 -4.25,3.1c-2,0.833 -3.7,1.25 -5.1,1.25c-3.867,-0 -5.8,-1.933 -5.8,-5.8c-0,-1.067 0.283,-2.717 0.85,-4.95c-0.7,0.367 -1.317,1.4 -1.85,3.1c-0.467,1.5 -0.7,2.8 -0.7,3.9c-0,2.533 0.55,4.483 1.65,5.85c1.133,1.433 2.8,2.15 5,2.15c2.367,-0 4.883,-0.867 7.55,-2.6c3,-1.967 4.5,-4.183 4.5,-6.65c0,-1.267 -0.6,-2.117 -1.8,-2.55c-1.133,-0.233 -2.267,-0.467 -3.4,-0.7c-1.2,-0.267 -1.8,-0.8 -1.8,-1.6c0,-0.867 0.65,-1.883 1.95,-3.05c1.167,-1 2.183,-1.667 3.05,-2c0.367,0.2 0.617,0.367 0.75,0.5c0.067,0.067 0.267,0.3 0.6,0.7c0.267,-0.6 0.517,-1.2 0.75,-1.8c0.3,-0.7 0.45,-1.333 0.45,-1.9Z"/><path d="M73.7,30.2c-1.4,2.033 -2.083,3.267 -2.05,3.7l0.5,23.5c1.133,-1.067 1.7,-3.917 1.7,-8.55l-0.15,-18.65Z"/><path d="M101.3,51.1c-0.2,0.7 -0.5,1.15 -0.9,1.35c-0.617,0.265 -1.801,0.415 -3.55,0.45l-0.7,-0l-0,4.45l2.3,0c0.767,0 1.383,-0.317 1.85,-0.95c0.133,-0.2 0.517,-0.883 1.15,-2.05c0.733,1.267 1.117,1.933 1.15,2c0.533,0.667 1.15,1 1.85,1l3.9,0c1.067,0 2.1,-0.317 3.1,-0.95c0.367,-0.233 1.15,-0.883 2.35,-1.95c0.9,-0.8 1.683,-1.317 2.35,-1.55c0.567,-0.167 1.267,-0.267 2.1,-0.3c0.733,-0.033 1.467,-0.067 2.2,-0.1c0.433,-1.3 0.783,-2.7 1.05,-4.2c-1.767,0 -3.433,-0.35 -5,-1.05c-0.733,-0.333 -1.833,-0.983 -3.3,-1.95c-1.067,-0.7 -1.883,-1.05 -2.45,-1.05c-1.067,-0 -1.933,0.6 -2.6,1.8c-0.4,0.733 -0.8,1.883 -1.2,3.45c0.433,-0.233 0.867,-0.483 1.3,-0.75c0.533,-0.3 0.983,-0.45 1.35,-0.45c0.533,0 1.317,0.3 2.35,0.9c0.033,0.033 0.783,0.533 2.25,1.5c-1.033,0.933 -1.933,1.567 -2.7,1.9c-0.633,0.267 -1.433,0.4 -2.4,0.4c-0.267,0 -0.783,-0.017 -1.55,-0.05c-0.154,-0.007 -0.304,-0.023 -0.45,-0.05c-1.967,-0 -3.133,-0.1 -3.5,-0.3c-0.733,-0.4 -1.1,-1.567 -1.1,-3.5c-0.6,0.533 -1,1.2 -1.2,2Z"/><path d="M39,32.25c-0.3,0.433 -0.45,1.033 -0.45,1.8c-0,5.933 0.033,9.75 0.1,11.45c0.2,5.767 0.7,9.233 1.5,10.4c0.633,0.967 1.533,1.45 2.7,1.45l3.1,0l0,-0.1l1.8,0c0.333,0 0.667,-0.217 1,-0.65c0.233,-0.367 0.467,-0.733 0.7,-1.1c1.633,1.8 3.183,2.7 4.65,2.7c0.6,-0 1,-0.217 1.2,-0.65c0.3,-0.633 0.533,-1 0.7,-1.1c0.8,0.533 1.367,0.8 1.7,0.8l1.45,0l-0,-4.35l1.3,-0l0,-0.1c-1.867,0 -3.267,-0.433 -4.2,-1.3c-0.333,-0.267 -0.883,-1.05 -1.65,-2.35c-0.5,-0.867 -1.133,-1.3 -1.9,-1.3c-0.6,0 -1.433,0.733 -2.5,2.2c-1.1,1.533 -1.95,2.383 -2.55,2.55c-0.467,0.133 -1.517,0.2 -3.15,0.2c-1.693,-0.163 -2.843,-0.679 -3.45,-1.55c-0.6,-0.967 -0.9,-2.967 -0.9,-6l-0,-14.3c-0.4,0.433 -0.783,0.867 -1.15,1.3Zm14.95,21.25l0,0.8c-0.567,-0.233 -1.15,-0.567 -1.75,-1c-0.8,-0.6 -1.2,-1.083 -1.2,-1.45c-0,-0.233 0.517,-0.917 1.55,-2.05c0.4,0.567 0.717,1.233 0.95,2c0.3,1.067 0.45,1.633 0.45,1.7Z"/><path d="M30.85,46.6c-0.767,0 -1.483,0.783 -2.15,2.35c-0.633,1.367 -0.95,2.567 -0.95,3.6c-0,1.767 0.617,2.65 1.85,2.65c0.933,-0 1.817,-0.583 2.65,-1.75c0.2,0.533 0.3,1.017 0.3,1.45c-0,2.6 -1.6,4.65 -4.8,6.15c-2.5,1.167 -5.067,1.75 -7.7,1.75c1.267,0.6 2.15,0.983 2.65,1.15c0.867,0.267 1.783,0.4 2.75,0.4c2.633,0 4.7,-1.233 6.2,-3.7c1.3,-2.167 1.95,-4.833 1.95,-8c0,-1.267 -0.2,-2.483 -0.6,-3.65c-0.5,-1.6 -1.217,-2.4 -2.15,-2.4Zm-0.7,5.85l-1,-0.55c0.267,-0.8 0.55,-1.533 0.85,-2.2c0.9,0.5 1.35,1.1 1.35,1.8c0,0.267 -0.133,0.483 -0.4,0.65c-0.267,0.2 -0.533,0.3 -0.8,0.3Z"/><path d="M101.35,39.25l-2.3,2.65l2.25,2.55l2.3,-2.55l-2.25,-2.65Z"/><path d="M103.1,33.25c0,-0.367 -0.05,-0.783 -0.15,-1.25l-0.25,0.15c0,1.267 -0.267,1.9 -0.8,1.9c-0.233,0 -0.433,-0.417 -0.6,-1.25l-0.2,0.05c-0.1,0.633 -0.2,1.067 -0.3,1.3c-0.167,0.5 -0.4,0.75 -0.7,0.75c-0.3,-0 -0.45,-0.467 -0.45,-1.4l-0.25,0.05c-0.167,0.667 -0.25,1.083 -0.25,1.25c-0,0.4 0.067,0.733 0.2,1c0.167,0.3 0.4,0.45 0.7,0.45c0.267,0 0.517,-0.117 0.75,-0.35c0.233,-0.2 0.367,-0.45 0.4,-0.75c0.233,0.167 0.467,0.25 0.7,0.25c0.8,-0 1.2,-0.717 1.2,-2.15Z"/><path d="M37,25.2c0.367,-1 0.85,-1.5 1.45,-1.5c0.167,-0 0.4,0.05 0.7,0.15c0.267,0.1 0.483,0.15 0.65,0.15c0.3,0 0.45,-0.35 0.45,-1.05c-0,-0.267 -0.1,-0.5 -0.3,-0.7c-0.167,-0.233 -0.383,-0.35 -0.65,-0.35c-0.467,-0 -1.183,0.45 -2.15,1.35c-1,0.9 -1.5,1.617 -1.5,2.15c-0,0.2 0.117,0.517 0.35,0.95c0.233,0.433 0.35,0.767 0.35,1c0,0.133 -0.033,0.35 -0.1,0.65c-0.1,0.267 -0.15,0.467 -0.15,0.6c0,0.133 0.017,0.317 0.05,0.55c1.333,-1.233 2.517,-1.85 3.55,-1.85c0.8,0 1.233,-0.017 1.3,-0.05c0.2,-0.4 0.417,-0.817 0.65,-1.25l-0.95,0c-0.433,0.033 -0.75,0.05 -0.95,0.05c-1.133,0 -2.05,-0.283 -2.75,-0.85Z"/><path d="M87.3,31.15c0.967,-0 2.1,-0.75 3.4,-2.25c0.533,0.367 0.983,0.633 1.35,0.8l0.15,-1.55c-0.3,-0.2 -0.517,-0.35 -0.65,-0.45c0.333,-0.767 0.5,-1.383 0.5,-1.85c-0,-0.9 -0.383,-1.35 -1.15,-1.35c-0.533,0 -1.017,0.317 -1.45,0.95c-0.367,0.567 -0.55,1.117 -0.55,1.65c-0,0.433 0.367,0.9 1.1,1.4c-1.3,1.067 -2.517,1.883 -3.65,2.45c0.4,0.133 0.717,0.2 0.95,0.2Zm3.7,-4.35c0,0.133 -0.033,0.283 -0.1,0.45c-0.733,-0.4 -1.1,-0.783 -1.1,-1.15c0.033,-0.133 0.133,-0.217 0.3,-0.25c0.6,0.067 0.9,0.383 0.9,0.95Z"/><path d="M65.1,21.4c-0.333,-0.5 -0.75,-0.75 -1.25,-0.75c-0.667,-0 -1.183,0.333 -1.55,1c-0.3,0.567 -0.45,1.267 -0.45,2.1c0,1.333 0.517,2 1.55,2c0.6,-0 1.117,-0.283 1.55,-0.85c0.4,-0.533 0.6,-1.15 0.6,-1.85c-0,-0.6 -0.15,-1.15 -0.45,-1.65Zm-1.45,2.7c-0.9,0 -1.35,-0.317 -1.35,-0.95c-0,-0.733 0.3,-1.1 0.9,-1.1c0.267,0 0.583,0.167 0.95,0.5c0.433,0.333 0.65,0.633 0.65,0.9c-0,0.433 -0.383,0.65 -1.15,0.65Z"/><path d="M39.35,17.35c0,-0.6 -0.15,-1.15 -0.45,-1.65c-0.333,-0.5 -0.75,-0.75 -1.25,-0.75c-0.667,-0 -1.183,0.333 -1.55,1c-0.3,0.567 -0.45,1.267 -0.45,2.1c-0,1.333 0.517,2 1.55,2c0.6,0 1.117,-0.283 1.55,-0.85c0.4,-0.533 0.6,-1.15 0.6,-1.85Zm-2.35,-1c0.267,0 0.583,0.167 0.95,0.5c0.433,0.333 0.65,0.633 0.65,0.9c0,0.433 -0.383,0.65 -1.15,0.65c-0.9,-0 -1.35,-0.317 -1.35,-0.95c0,-0.733 0.3,-1.1 0.9,-1.1Z"/><path d="M66.7,34.95c0,-0.233 -0.3,-0.683 -0.9,-1.35c-0.6,-0.667 -0.9,-1.25 -0.9,-1.75c-0,-0.167 0.05,-0.417 0.15,-0.75c0.1,-0.367 0.15,-0.633 0.15,-0.8l-0.05,-0.55c-1.167,0.9 -2.083,2.433 -2.75,4.6c0.1,0.6 0.5,1.35 1.2,2.25c0.467,3.2 0.7,8.05 0.7,14.55c-0,1.267 -1.033,1.867 -3.1,1.8l-0.75,-0.05l-1.3,-0l-0,4.45l2.9,0c1.5,0 2.567,-0.917 3.2,-2.75c0.5,-1.3 0.75,-2.933 0.75,-4.9l-0,-4.1c-0,-0.767 -0.067,-1.883 -0.2,-3.35c-0.133,-1.5 -0.2,-2.633 -0.2,-3.4c0,-0.367 0.183,-0.967 0.55,-1.8c0.367,-0.867 0.55,-1.567 0.55,-2.1Z" style="fill:#f00;"/><path d="M92.3,47.3c-0.433,-2.533 -0.65,-4.667 -0.65,-6.4c-0.867,1.233 -1.3,2.017 -1.3,2.35l0.25,2.95c-1.933,1.167 -3.317,2.233 -4.15,3.2c-1.233,1.433 -1.85,3.133 -1.85,5.1c0,0.733 0.7,1.1 2.1,1.1c1.333,0 2.3,-0.15 2.9,-0.45c0.7,-0.333 1.433,-1.1 2.2,-2.3c0.3,0.967 0.617,1.917 0.95,2.85c0.5,1.1 1.15,1.65 1.95,1.65l1.45,0l-0,-4.45l0.35,-0c-1.224,-0.033 -1.924,-0.099 -2.1,-0.2c-0.833,-0.4 -1.533,-2.2 -2.1,-5.4Zm-1.55,1.05c0.233,1 0.35,1.583 0.35,1.75c0,0.267 -0.35,0.5 -1.05,0.7c-0.567,0.2 -1.017,0.3 -1.35,0.3c-0.4,0 -0.917,-0.133 -1.55,-0.4c1.3,-1 2.5,-1.783 3.6,-2.35Z" style="fill:#f00;"/><path d="M94.15,36.2l-2,-2.25l-2,2.25l2,2.3l2,-2.3Z" style="fill:#f00;"/><path d="M90.1,36.2l-1.9,-2.25l-2.05,2.25l2,2.3l1.95,-2.3Z" style="fill:#f00;"/><path d="M90.15,36.2l-0.05,-0l0.05,0.05l-0,-0.05Z" style="fill:#f00;"/><path d="M23.911,26.992l-4.35,3.2c-0.667,0.49 -0.81,1.43 -0.319,2.097c0.49,0.667 1.43,0.81 2.097,0.319l4.35,-3.2c0.667,-0.49 0.81,-1.43 0.319,-2.097c-0.49,-0.667 -1.43,-0.81 -2.097,-0.319Z"/><path d="M114.361,26.242l-4.35,3.2c-0.667,0.49 -0.81,1.43 -0.319,2.097c0.49,0.667 1.43,0.81 2.097,0.319l4.35,-3.2c0.667,-0.49 0.81,-1.43 0.319,-2.097c-0.49,-0.667 -1.43,-0.81 -2.097,-0.319Z"/><path d="M102.511,25.542l-4.35,3.2c-0.667,0.49 -0.81,1.43 -0.319,2.097c0.49,0.667 1.43,0.81 2.097,0.319l4.35,-3.2c0.667,-0.49 0.81,-1.43 0.319,-2.097c-0.49,-0.667 -1.43,-0.81 -2.097,-0.319Z"/><path d="M53.268,20.937l-4.4,3.2c-0.67,0.487 -0.818,1.426 -0.331,2.095c0.487,0.67 1.426,0.818 2.095,0.331l4.4,-3.2c0.67,-0.487 0.818,-1.426 0.331,-2.095c-0.487,-0.67 -1.426,-0.818 -2.095,-0.331Z"/></g></svg>