<?xml version="1.0" encoding="UTF-8" standalone="no"?><!DOCTYPE svg PUBLIC "-//W3C//DTD SVG 1.1//EN" "http://www.w3.org/Graphics/SVG/1.1/DTD/svg11.dtd"><svg width="100%" height="100%" viewBox="0 0 62 66" version="1.1" xmlns="http://www.w3.org/2000/svg" xmlns:xlink="http://www.w3.org/1999/xlink" xml:space="preserve" xmlns:serif="http://www.serif.com/" style="fill-rule:evenodd;clip-rule:evenodd;stroke-linejoin:round;stroke-miterlimit:2;"><g><path d="M22.7,54.25l2.3,-2.55l-2.3,-2.6l-2.3,2.6l2.3,2.55Z"/><path d="M17.55,31.75c-1.067,0 -1.933,0.6 -2.6,1.8c-0.4,0.733 -0.8,1.883 -1.2,3.45c0.433,-0.233 0.867,-0.483 1.3,-0.75c0.533,-0.3 0.983,-0.45 1.35,-0.45c0.533,0 1.317,0.3 2.35,0.9c0.033,0.033 0.783,0.533 2.25,1.5c-1.033,0.933 -1.933,1.567 -2.7,1.9c-0.633,0.267 -1.433,0.4 -2.4,0.4c-0.267,0 -0.783,-0.017 -1.55,-0.05c-0.635,-0.028 -1.201,-0.044 -1.7,-0.05c-0.085,-0.854 -0.285,-1.621 -0.6,-2.3c-0.333,-0.7 -0.983,-1.583 -1.95,-2.65l-0.85,3.7c0.5,0.633 0.983,1.25 1.45,1.85c0.633,0.9 0.95,1.583 0.95,2.05c-0,2.367 -1.5,4.4 -4.5,6.1c-2.567,1.433 -5,2.15 -7.3,2.15c1.867,1.433 3.717,2.15 5.55,2.15c2.1,-0 3.9,-1.45 5.4,-4.35c0.723,-1.446 1.24,-2.913 1.55,-4.4l0,0.15l2.8,-0c1.067,-0 2.1,-0.317 3.1,-0.95c0.367,-0.233 1.15,-0.883 2.35,-1.95c0.9,-0.8 1.683,-1.317 2.35,-1.55c0.567,-0.167 1.267,-0.267 2.1,-0.3c0.733,-0.033 1.467,-0.067 2.2,-0.1c0.433,-1.3 0.783,-2.7 1.05,-4.2c-1.767,0 -3.433,-0.35 -5,-1.05c-0.733,-0.333 -1.833,-0.983 -3.3,-1.95c-1.067,-0.7 -1.883,-1.05 -2.45,-1.05Z"/><path d="M21,15c0,-0.6 -0.15,-1.15 -0.45,-1.65c-0.333,-0.5 -0.75,-0.75 -1.25,-0.75c-0.667,-0 -1.183,0.333 -1.55,1c-0.3,0.567 -0.45,1.267 -0.45,2.1c-0,1.333 0.517,2 1.55,2c0.6,-0 1.117,-0.283 1.55,-0.85c0.4,-0.533 0.6,-1.15 0.6,-1.85Zm-0.75,0.4c-0,0.433 -0.383,0.65 -1.15,0.65c-0.9,0 -1.35,-0.317 -1.35,-0.95c-0,-0.733 0.3,-1.1 0.9,-1.1c0.267,0 0.583,0.167 0.95,0.5c0.433,0.333 0.65,0.633 0.65,0.9Z"/><path d="M8.1,13.85c-0.367,0.567 -0.55,1.117 -0.55,1.65c-0,0.433 0.367,0.9 1.1,1.4c-1.3,1.067 -2.517,1.883 -3.65,2.45c0.4,0.133 0.717,0.2 0.95,0.2c0.967,0 2.1,-0.75 3.4,-2.25c0.533,0.367 0.983,0.633 1.35,0.8l0.15,-1.55c-0.3,-0.2 -0.517,-0.35 -0.65,-0.45c0.333,-0.767 0.5,-1.383 0.5,-1.85c0,-0.9 -0.383,-1.35 -1.15,-1.35c-0.533,0 -1.017,0.317 -1.45,0.95Zm1.55,1.35c-0,0.133 -0.033,0.283 -0.1,0.45c-0.733,-0.4 -1.1,-0.783 -1.1,-1.15c0.033,-0.133 0.133,-0.217 0.3,-0.25c0.6,0.067 0.9,0.383 0.9,0.95Z"/><path d="M47.2,12.9c0,-0.6 -0.15,-1.15 -0.45,-1.65c-0.333,-0.5 -0.75,-0.75 -1.25,-0.75c-0.667,0 -1.183,0.333 -1.55,1c-0.3,0.567 -0.45,1.267 -0.45,2.1c0,1.333 0.517,2 1.55,2c0.6,-0 1.117,-0.283 1.55,-0.85c0.4,-0.533 0.6,-1.15 0.6,-1.85Zm-2.35,-1c0.267,0 0.583,0.167 0.95,0.5c0.433,0.333 0.65,0.633 0.65,0.9c0,0.433 -0.383,0.65 -1.15,0.65c-0.9,-0 -1.35,-0.317 -1.35,-0.95c0,-0.733 0.3,-1.1 0.9,-1.1Z"/><path d="M53.85,17.7c-1.4,2.033 -2.083,3.267 -2.05,3.7l0.5,23.5c1.133,-1.067 1.7,-3.917 1.7,-8.55l-0.15,-18.65Z" style="fill:#f00;"/><path d="M31.35,20.2c-0.5,-0 -0.9,0.267 -1.2,0.8c-0.267,0.467 -0.4,1 -0.4,1.6c-0,1.067 0.3,2.083 0.9,3.05c0.667,1.067 1.45,1.6 2.35,1.6c0.4,-0 0.7,-0.1 0.9,-0.3c0.333,-0.3 0.55,-0.467 0.65,-0.5c0.667,0.467 1.917,2.017 3.75,4.65c1.433,2.033 2.583,3.767 3.45,5.2c-0.333,0.733 -0.883,1.6 -1.65,2.6c-0.8,1.133 -1.45,1.867 -1.95,2.2l-1.55,-0.6l-0,4.2c1.033,0.367 2.383,0.55 4.05,0.55c1.567,-0 2.583,-0.233 3.05,-0.7c0.533,-0.533 0.8,-1.683 0.8,-3.45c0,-2.2 -0.4,-3.95 -1.2,-5.25c0.333,-1.1 0.633,-2.75 0.9,-4.95c0.233,-2.2 0.5,-3.75 0.8,-4.65l0.3,0.35c0.467,-0.3 0.833,-0.883 1.1,-1.75c0.1,-0.2 0.3,-0.917 0.6,-2.15c-1.267,-0.633 -1.9,-1.5 -1.9,-2.6c-0,-0.433 0.067,-1 0.2,-1.7c-1.167,1.1 -1.983,2.633 -2.45,4.6c0.067,0.267 0.267,0.667 0.6,1.2c0.3,0.5 0.45,0.85 0.45,1.05c0,0.767 -0.167,2.283 -0.5,4.55c-0.3,2.433 -0.567,3.85 -0.8,4.25c-3.1,-4.933 -4.8,-7.617 -5.1,-8.05c-2.7,-3.867 -4.75,-5.8 -6.15,-5.8Zm11.95,19.9c-0.02,0.026 -0.086,0.309 -0.2,0.85c-1.633,0.1 -2.6,0.15 -2.9,0.15c1.1,-1.133 1.85,-2.233 2.25,-3.3c0,0.133 0.15,0.567 0.45,1.3c0.24,0.599 0.373,0.932 0.4,1Z" style="fill:#f00;"/><path d="M33.709,11.093l-4.4,3.25c-0.666,0.492 -0.807,1.432 -0.316,2.098c0.492,0.666 1.432,0.807 2.098,0.316l4.4,-3.25c0.666,-0.492 0.807,-1.432 0.316,-2.098c-0.492,-0.666 -1.432,-0.807 -2.098,-0.316Z"/><path d="M54.811,11.042l-4.35,3.2c-0.667,0.49 -0.81,1.43 -0.319,2.097c0.49,0.667 1.43,0.81 2.097,0.319l4.35,-3.2c0.667,-0.49 0.81,-1.43 0.319,-2.097c-0.49,-0.667 -1.43,-0.81 -2.097,-0.319Z"/></g></svg>