<?xml version="1.0" encoding="UTF-8" standalone="no"?><!DOCTYPE svg PUBLIC "-//W3C//DTD SVG 1.1//EN" "http://www.w3.org/Graphics/SVG/1.1/DTD/svg11.dtd"><svg width="100%" height="100%" viewBox="0 0 92 66" version="1.1" xmlns="http://www.w3.org/2000/svg" xmlns:xlink="http://www.w3.org/1999/xlink" xml:space="preserve" xmlns:serif="http://www.serif.com/" style="fill-rule:evenodd;clip-rule:evenodd;stroke-linejoin:round;stroke-miterlimit:2;"><g><path d="M54.2,54.5l2.3,-2.55l-2.3,-2.6l-2.25,2.6l2.25,2.55Z"/><path d="M109.55,31.75c-1.067,0 -1.933,0.6 -2.6,1.8c-0.4,0.733 -0.8,1.883 -1.2,3.45c0.433,-0.233 0.867,-0.483 1.3,-0.75c0.533,-0.3 0.983,-0.45 1.35,-0.45c0.533,0 1.317,0.3 2.35,0.9c0.033,0.033 0.783,0.533 2.25,1.5c-1.033,0.933 -1.933,1.567 -2.7,1.9c-0.633,0.267 -1.433,0.4 -2.4,0.4c-0.267,0 -0.783,-0.017 -1.55,-0.05c-0.635,-0.028 -1.201,-0.044 -1.7,-0.05c-0.085,-0.854 -0.285,-1.621 -0.6,-2.3c-0.333,-0.7 -0.983,-1.583 -1.95,-2.65l-0.85,3.7c0.5,0.633 0.983,1.25 1.45,1.85c0.633,0.9 0.95,1.583 0.95,2.05c-0,2.367 -1.5,4.4 -4.5,6.1c-2.567,1.433 -5,2.15 -7.3,2.15c1.867,1.433 3.717,2.15 5.55,2.15c2.1,-0 3.9,-1.45 5.4,-4.35c0.723,-1.446 1.24,-2.913 1.55,-4.4l0,0.15l2.8,-0c1.067,-0 2.1,-0.317 3.1,-0.95c0.367,-0.233 1.15,-0.883 2.35,-1.95c0.9,-0.8 1.683,-1.317 2.35,-1.55c0.567,-0.167 1.267,-0.267 2.1,-0.3c0.733,-0.033 1.467,-0.067 2.2,-0.1c0.433,-1.3 0.783,-2.7 1.05,-4.2c-1.767,0 -3.433,-0.35 -5,-1.05c-0.733,-0.333 -1.833,-0.983 -3.3,-1.95c-1.067,-0.7 -1.883,-1.05 -2.45,-1.05Z"/><path d="M19.494,36.047c0.937,1.944 1.406,4.178 1.406,6.703c-0,2.6 -0.783,4.833 -2.35,6.7c-1.533,1.867 -3.45,2.8 -5.75,2.8c-1.8,-0 -3.2,-0.5 -4.2,-1.5c-1.1,-1.067 -1.65,-2.617 -1.65,-4.65c0,-1.133 0.183,-2.3 0.55,-3.5c0.367,-1.333 0.867,-2.367 1.5,-3.1l-0.5,4.2c0,2.9 1.517,4.35 4.55,4.35c1.233,0 2.533,-0.35 3.9,-1.05c1.633,-0.8 2.45,-1.8 2.45,-3c-0,-0.967 -0.25,-1.983 -0.75,-3.05c-0.233,-0.5 -0.75,-1.367 -1.55,-2.6c0.4,-1.767 0.833,-3.15 1.3,-4.15l1.094,1.847Z"/><path d="M65.05,40.4l0.3,0l-0.3,0Z"/><path d="M26.4,19.75c-0.3,0.433 -0.45,1.033 -0.45,1.8c0,5.933 0.033,9.75 0.1,11.45c0.2,5.767 0.7,9.233 1.5,10.4c0.633,0.967 1.533,1.45 2.7,1.45l4.05,-0c1,-0 2.367,-0.65 4.1,-1.95c1.4,1.3 2.55,1.95 3.45,1.95l4.85,-0c1.367,-0 2.883,-0.517 4.55,-1.55c0.767,-0.467 2.067,-1.45 3.9,-2.95c1.333,-1.033 2.217,-1.55 2.65,-1.55l0.35,0.2c-0,3.9 1.033,5.85 3.1,5.85l2.7,-0l0,-4.35c-0.557,0.067 -1.057,0.1 -1.5,0.1c-2.5,-0 -3.7,-0.6 -3.6,-1.8l0,-0.2c1.267,-0.267 2.067,-0.583 2.4,-0.95c0.133,-1.1 0.3,-2.217 0.5,-3.35c-1,0.333 -2.017,0.5 -3.05,0.5c-1.367,0 -3.017,-0.467 -4.95,-1.4c-1.933,-0.967 -3.1,-1.45 -3.5,-1.45c-0.967,-0 -1.883,0.467 -2.75,1.4c-0.867,0.933 -1.3,1.967 -1.3,3.1l0,0.6c0.567,-0.233 1.117,-0.467 1.65,-0.7c0.733,-0.333 1.283,-0.5 1.65,-0.5c0.967,-0 2.2,0.533 3.7,1.6c-1.5,1.333 -2.983,2.183 -4.45,2.55c-0.88,0.227 -2.213,0.36 -4,0.4l-0.95,0c-0.96,0.009 -1.377,0.026 -1.25,0.05c-0.75,-0.088 -1.266,-0.288 -1.55,-0.6c1,-1.733 1.5,-3.583 1.5,-5.55c-0,-0.967 -0.183,-1.9 -0.55,-2.8c-0.433,-1.133 -1.017,-1.7 -1.75,-1.7c-1.1,0 -2.133,1.083 -3.1,3.25c-0.833,1.9 -1.25,3.55 -1.25,4.95c0,0.667 0.05,1.383 0.15,2.15c-1.034,0.133 -2.117,0.216 -3.25,0.25c-2.161,-0.087 -3.594,-0.637 -4.3,-1.65c-0.6,-0.967 -0.9,-2.967 -0.9,-6l-0,-14.3c-0.4,0.433 -0.783,0.867 -1.15,1.3Zm12.2,19.25c-0.233,-0 -0.55,-0.217 -0.95,-0.65c-0.4,-0.433 -0.6,-0.8 -0.6,-1.1c-0,-0.667 0.233,-1.25 0.7,-1.75c0.5,-0.533 1.033,-0.8 1.6,-0.8c0.3,-0 0.583,0.2 0.85,0.6c0.267,0.433 0.4,0.817 0.4,1.15c0,0.4 -0.25,0.933 -0.75,1.6c-0.5,0.633 -0.917,0.95 -1.25,0.95Z"/><path d="M12.7,32.55l2.3,-2.6l-2.3,-2.6l-2.25,2.6l2.25,2.6Z"/><path d="M36.25,23.05l2.3,2.6l2.3,-2.6l-2.3,-2.6l-2.3,2.6Z"/><path d="M14.1,12.2c0,-0.9 -0.383,-1.35 -1.15,-1.35c-0.533,-0 -1.017,0.317 -1.45,0.95c-0.367,0.567 -0.55,1.117 -0.55,1.65c0,0.433 0.367,0.9 1.1,1.4c-1.3,1.067 -2.517,1.883 -3.65,2.45c0.4,0.133 0.717,0.2 0.95,0.2c0.967,0 2.1,-0.75 3.4,-2.25c0.533,0.367 0.983,0.633 1.35,0.8l0.15,-1.55c-0.3,-0.2 -0.517,-0.35 -0.65,-0.45c0.333,-0.767 0.5,-1.383 0.5,-1.85Zm-1.95,-0c0.6,0.067 0.9,0.383 0.9,0.95c-0,0.133 -0.033,0.283 -0.1,0.45c-0.733,-0.4 -1.1,-0.783 -1.1,-1.15c0.033,-0.133 0.133,-0.217 0.3,-0.25Z"/><path d="M70.5,12.15c0,-0.6 -0.15,-1.15 -0.45,-1.65c-0.333,-0.5 -0.75,-0.75 -1.25,-0.75c-0.667,0 -1.183,0.333 -1.55,1c-0.3,0.567 -0.45,1.267 -0.45,2.1c-0,1.333 0.517,2 1.55,2c0.6,-0 1.117,-0.283 1.55,-0.85c0.4,-0.533 0.6,-1.15 0.6,-1.85Zm-1.4,-0.5c0.433,0.333 0.65,0.633 0.65,0.9c0,0.433 -0.383,0.65 -1.15,0.65c-0.9,-0 -1.35,-0.317 -1.35,-0.95c0,-0.733 0.3,-1.1 0.9,-1.1c0.267,0 0.583,0.167 0.95,0.5Z"/><path d="M78.45,17.7c-1.4,2.033 -2.083,3.267 -2.05,3.7l0.5,23.5c1.133,-1.067 1.7,-3.917 1.7,-8.55l-0.15,-18.65Z" style="fill:#f00;"/><path d="M71.5,22.45c0,-0.233 -0.3,-0.683 -0.9,-1.35c-0.6,-0.667 -0.9,-1.25 -0.9,-1.75c0,-0.167 0.05,-0.417 0.15,-0.75c0.1,-0.367 0.15,-0.633 0.15,-0.8l-0.05,-0.55c-1.167,0.9 -2.083,2.433 -2.75,4.6c0.1,0.6 0.5,1.35 1.2,2.25c0.467,3.2 0.7,8.05 0.7,14.55c0,1.267 -1.033,1.867 -3.1,1.8l-0.65,-0.05l-1.4,0l0,4.45l2.9,-0c1.5,-0 2.567,-0.917 3.2,-2.75c0.5,-1.3 0.75,-2.933 0.75,-4.9l-0,-4.1c-0,-0.767 -0.067,-1.883 -0.2,-3.35c-0.133,-1.5 -0.2,-2.633 -0.2,-3.4c-0,-0.367 0.183,-0.967 0.55,-1.8c0.367,-0.867 0.55,-1.567 0.55,-2.1Z" style="fill:#f00;"/><path d="M55.511,55.642l-4.35,3.2c-0.667,0.49 -0.81,1.43 -0.319,2.097c0.49,0.667 1.43,0.81 2.097,0.319l4.35,-3.2c0.667,-0.49 0.81,-1.43 0.319,-2.097c-0.49,-0.667 -1.43,-0.81 -2.097,-0.319Z"/><path d="M37.818,11.837l-4.4,3.2c-0.67,0.487 -0.818,1.426 -0.331,2.095c0.487,0.67 1.426,0.818 2.095,0.331l4.4,-3.2c0.67,-0.487 0.818,-1.426 0.331,-2.095c-0.487,-0.67 -1.426,-0.818 -2.095,-0.331Z"/><path d="M79.468,10.337l-4.4,3.2c-0.67,0.487 -0.818,1.426 -0.331,2.095c0.487,0.67 1.426,0.818 2.095,0.331l4.4,-3.2c0.67,-0.487 0.818,-1.426 0.331,-2.095c-0.487,-0.67 -1.426,-0.818 -2.095,-0.331Z"/></g></svg>