<?xml version="1.0" encoding="UTF-8" standalone="no"?><!DOCTYPE svg PUBLIC "-//W3C//DTD SVG 1.1//EN" "http://www.w3.org/Graphics/SVG/1.1/DTD/svg11.dtd"><svg width="100%" height="100%" viewBox="0 0 79 77" version="1.1" xmlns="http://www.w3.org/2000/svg" xmlns:xlink="http://www.w3.org/1999/xlink" xml:space="preserve" xmlns:serif="http://www.serif.com/" style="fill-rule:evenodd;clip-rule:evenodd;stroke-linejoin:round;stroke-miterlimit:2;"><g><path d="M25.65,28.4c-0.6,1 -0.883,1.633 -0.85,1.9l1.55,24.95c0.033,0.867 -0.767,1.617 -2.4,2.25c-1.3,0.5 -2.417,0.75 -3.35,0.75c-1.4,0 -2.55,-0.283 -3.45,-0.85c-1.067,-0.733 -1.6,-1.833 -1.6,-3.3c-0,-1.867 0.167,-3.6 0.5,-5.2c-0.6,0.467 -1.133,1.583 -1.6,3.35c-0.433,1.533 -0.65,2.817 -0.65,3.85c-0,2.433 0.333,4.217 1,5.35c0.8,1.367 2.217,2.05 4.25,2.05c3.033,0 5.267,-1.233 6.7,-3.7c0.9,-1.567 1.717,-4.35 2.45,-8.35c0.4,0.367 0.783,0.75 1.15,1.15c0.5,0.4 0.983,0.6 1.45,0.6l4.4,-0c0.767,-0 1.383,-0.317 1.85,-0.95c0.067,-0.1 0.433,-0.8 1.1,-2.1c0.333,0.667 0.817,1.317 1.45,1.95c0.733,0.733 1.367,1.1 1.9,1.1l4.35,-0c0.667,-0 1.3,-0.5 1.9,-1.5c0.867,-1.567 1.317,-2.367 1.35,-2.4c0.4,0.833 0.783,1.667 1.15,2.5c0.533,0.933 1.183,1.4 1.95,1.4l2.05,-0l-0,-4.45c-1.567,0 -2.7,-0.517 -3.4,-1.55c-0.6,-0.9 -0.9,-2.283 -0.9,-4.15c0,-2.167 -0.117,-5.033 -0.35,-8.6c-0.267,-4.367 -0.433,-7.25 -0.5,-8.65c-1.367,1.233 -2.05,2.567 -2.05,4c-0,1.733 0.133,4.35 0.4,7.85c0.3,3.5 0.45,6.133 0.45,7.9c-0,1.433 -0.4,2.367 -1.2,2.8c-0.5,0.267 -1.467,0.4 -2.9,0.4l-0,0.1l-0.05,0c-0.767,0.033 -1.3,0.05 -1.6,0.05c-1,0 -1.717,-0.217 -2.15,-0.65c-0.5,-0.567 -0.767,-1.617 -0.8,-3.15c-0.933,1.733 -1.567,2.767 -1.9,3.1c-0.4,0.433 -1.083,0.65 -2.05,0.65c-0.2,0 -0.683,-0.017 -1.45,-0.05c-0.033,-0.001 -0.067,-0.001 -0.1,0l0,-0.05c-2.2,0 -3.7,-0.583 -4.5,-1.75c-0.733,-1.067 -1.3,-4.317 -1.7,-9.75c-0.233,-3.533 -0.45,-7.083 -0.65,-10.65c-0.267,0.233 -0.667,0.833 -1.2,1.8Z"/><path d="M40.8,61.95l2.05,-2.3l-2.05,-2.25l-1.95,2.25l-2,-2.25l-2.05,2.25l2.05,2.3l1.95,-2.3l2,2.3Z"/><path d="M67.5,26.05c-1.4,2.033 -2.083,3.267 -2.05,3.7l0.5,23.5c1.133,-1.067 1.7,-3.917 1.7,-8.55l-0.15,-18.65Z"/><path d="M39.35,29.15c-0.9,0 -1.583,0.483 -2.05,1.45c-0.4,0.8 -0.6,1.783 -0.6,2.95c0,1.867 0.683,2.8 2.05,2.8c0.8,-0 1.483,-0.4 2.05,-1.2c0.567,-0.767 0.85,-1.633 0.85,-2.6c-0,-0.833 -0.2,-1.6 -0.6,-2.3c-0.467,-0.733 -1.033,-1.1 -1.7,-1.1Zm-2,3.55c0,-1.033 0.383,-1.55 1.15,-1.55c0.333,0 0.767,0.233 1.3,0.7c0.533,0.467 0.8,0.883 0.8,1.25c0,0.633 -0.483,0.95 -1.45,0.95c-1.2,0 -1.8,-0.45 -1.8,-1.35Z"/><path d="M50.3,21.25c-0,-0.367 -0.05,-0.783 -0.15,-1.25l-0.25,0.15c-0,1.267 -0.267,1.9 -0.8,1.9c-0.233,0 -0.433,-0.417 -0.6,-1.25l-0.2,0.05c-0.1,0.633 -0.2,1.067 -0.3,1.3c-0.167,0.5 -0.4,0.75 -0.7,0.75c-0.3,0 -0.45,-0.467 -0.45,-1.4l-0.25,0.05c-0.167,0.667 -0.25,1.083 -0.25,1.25c0,0.4 0.067,0.733 0.2,1c0.167,0.3 0.4,0.45 0.7,0.45c0.267,0 0.517,-0.117 0.75,-0.35c0.233,-0.2 0.367,-0.45 0.4,-0.75c0.233,0.167 0.467,0.25 0.7,0.25c0.8,0 1.2,-0.717 1.2,-2.15Z"/><path d="M26.9,16.05c-0.533,0 -1.017,0.317 -1.45,0.95c-0.367,0.567 -0.55,1.117 -0.55,1.65c-0,0.433 0.367,0.9 1.1,1.4c-1.3,1.067 -2.517,1.883 -3.65,2.45c0.4,0.133 0.717,0.2 0.95,0.2c0.967,-0 2.1,-0.75 3.4,-2.25c0.533,0.367 0.983,0.633 1.35,0.8l0.15,-1.55c-0.3,-0.2 -0.517,-0.35 -0.65,-0.45c0.333,-0.767 0.5,-1.383 0.5,-1.85c-0,-0.9 -0.383,-1.35 -1.15,-1.35Z"/><path d="M26.1,17.4c0.6,0.067 0.9,0.383 0.9,0.95c0,0.133 -0.033,0.283 -0.1,0.45c-0.733,-0.4 -1.1,-0.783 -1.1,-1.15c0.033,-0.133 0.133,-0.217 0.3,-0.25Z"/><path d="M59.65,29.45c-0.6,-0.667 -0.9,-1.25 -0.9,-1.75c0,-0.167 0.05,-0.417 0.15,-0.75c0.1,-0.367 0.15,-0.633 0.15,-0.8l-0.05,-0.55c-1.167,0.9 -2.083,2.433 -2.75,4.6c0.1,0.6 0.5,1.35 1.2,2.25c0.467,3.2 0.7,8.05 0.7,14.55c-0,1.267 -1.033,1.867 -3.1,1.8l-0.8,-0.05l-0,4.45l1.65,-0c1.5,-0 2.567,-0.917 3.2,-2.75c0.5,-1.3 0.75,-2.933 0.75,-4.9l0,-4.1c0,-0.767 -0.067,-1.883 -0.2,-3.35c-0.133,-1.5 -0.2,-2.633 -0.2,-3.4c0,-0.367 0.183,-0.967 0.55,-1.8c0.367,-0.867 0.55,-1.567 0.55,-2.1c-0,-0.233 -0.3,-0.683 -0.9,-1.35Z" style="fill:#f00;"/><path d="M67.811,19.242l-4.35,3.2c-0.667,0.49 -0.81,1.43 -0.319,2.097c0.49,0.667 1.43,0.81 2.097,0.319l4.35,-3.2c0.667,-0.49 0.81,-1.43 0.319,-2.097c-0.49,-0.667 -1.43,-0.81 -2.097,-0.319Z"/><path d="M49.118,14.287l-4.4,3.2c-0.67,0.487 -0.818,1.426 -0.331,2.095c0.487,0.67 1.426,0.818 2.095,0.331l4.4,-3.2c0.67,-0.487 0.818,-1.426 0.331,-2.095c-0.487,-0.67 -1.426,-0.818 -2.095,-0.331Z"/></g></svg>