<?xml version="1.0" encoding="UTF-8" standalone="no"?><!DOCTYPE svg PUBLIC "-//W3C//DTD SVG 1.1//EN" "http://www.w3.org/Graphics/SVG/1.1/DTD/svg11.dtd"><svg width="100%" height="100%" viewBox="0 0 91 66" version="1.1" xmlns="http://www.w3.org/2000/svg" xmlns:xlink="http://www.w3.org/1999/xlink" xml:space="preserve" xmlns:serif="http://www.serif.com/" style="fill-rule:evenodd;clip-rule:evenodd;stroke-linejoin:round;stroke-miterlimit:2;"><g><path d="M52.7,51.2c-0.567,-0.167 -1.15,-0.333 -1.75,-0.5c0.767,1 1.633,1.817 2.6,2.45c1.133,0.7 2.217,1.05 3.25,1.05c1.367,-0 2.75,-1.15 4.15,-3.45c1.267,-2.033 2,-3.917 2.2,-5.65c0.2,-0.167 0.467,-0.25 0.8,-0.25l1.25,-0l0,-4.45l-1.1,0c-0.695,-0.01 -1.112,-0.027 -1.25,-0.05c-0.6,-0.133 -1.25,-0.583 -1.95,-1.35c-0.133,1.1 -0.35,2.067 -0.65,2.9c-0,0.033 0.3,0.6 0.9,1.7c0.533,0.933 0.8,1.433 0.8,1.5c0,1.067 -1.017,2.417 -3.05,4.05c-1.967,1.567 -3.45,2.35 -4.45,2.35c-0.433,0 -1.017,-0.1 -1.75,-0.3Z"/><path d="M6.5,41.45c-0.3,1.267 -0.45,2.5 -0.45,3.7c-0,2.2 0.4,3.8 1.2,4.8c0.833,1.033 2.2,1.55 4.1,1.55c5.167,0 7.75,-4.217 7.75,-12.65c0,-4.233 -0.4,-8.683 -1.2,-13.35c0.433,-0.267 0.733,-0.883 0.9,-1.85c0.1,-0.767 0.2,-1.533 0.3,-2.3c-0.967,-0.133 -1.583,-0.6 -1.85,-1.4c-0.133,-0.467 -0.2,-1.35 -0.2,-2.65c-0.767,1.133 -1.4,2.783 -1.9,4.95c0.5,0.767 0.9,1.317 1.2,1.65c0.067,1.233 0.3,4.467 0.7,9.7c0.333,4.067 0.5,7.333 0.5,9.8c-0,1.1 -0.683,1.967 -2.05,2.6c-1.067,0.533 -2.15,0.8 -3.25,0.8c-3.167,0 -4.75,-1.55 -4.75,-4.65c0,-0.133 0.15,-1.45 0.45,-3.95c-0.6,0.6 -1.083,1.683 -1.45,3.25Z"/><path d="M78.6,17.7c-1.4,2.033 -2.083,3.267 -2.05,3.7l0.5,23.5c1.133,-1.067 1.7,-3.917 1.7,-8.55l-0.15,-18.65Z"/><path d="M39.9,40.45c-0.3,-0.267 -0.5,-0.75 -0.6,-1.45c-0.067,-0.7 -0.133,-1.417 -0.2,-2.15c-1,1.867 -1.65,2.917 -1.95,3.15c-0.433,0.267 -1.617,0.4 -3.55,0.4l0,0.2c-0.343,0.004 -0.693,-0.013 -1.05,-0.05c-0.367,-0.867 -0.717,-1.733 -1.05,-2.6c-0.567,-1.133 -1.133,-1.7 -1.7,-1.7c-0.7,0 -1.433,0.833 -2.2,2.5c-0.7,1.533 -1.05,2.783 -1.05,3.75c-0,1.2 0.5,1.95 1.5,2.25c0.933,0.167 1.867,0.333 2.8,0.5c-1.1,1.867 -2.25,3.217 -3.45,4.05c-1.333,1 -2.9,1.5 -4.7,1.5c-0.967,0 -2.383,-0.1 -4.25,-0.3c1.733,1.967 3.75,2.95 6.05,2.95c1.967,-0 3.65,-0.933 5.05,-2.8c0.967,-1.3 1.9,-3.233 2.8,-5.8l3.65,-0c0.367,-0 1.1,-0.517 2.2,-1.55c0.633,0.333 1.25,0.667 1.85,1c0.733,0.367 1.383,0.55 1.95,0.55c1.333,-0 2.65,-0.717 3.95,-2.15c0.5,0.333 1.017,0.683 1.55,1.05c0.7,0.467 1.217,0.7 1.55,0.7c0.967,-0 1.717,-1.067 2.25,-3.2c0.367,-1.5 0.55,-3.033 0.55,-4.6c0,-0.3 -0.133,-0.95 -0.4,-1.95c-0.6,1.3 -1,2.233 -1.2,2.8c0.367,1.033 0.55,1.683 0.55,1.95l-0.25,0.65c-0.3,0.167 -0.583,0.25 -0.85,0.25c-1.833,-0 -2.75,-0.667 -2.75,-2c0,-0.267 0.033,-0.617 0.1,-1.05c0.067,-0.533 0.1,-0.883 0.1,-1.05c-0.7,1.067 -1.4,2.133 -2.1,3.2c-0.8,1 -1.85,1.5 -3.15,1.5c-0.933,-0 -1.6,-0.167 -2,-0.5Zm-10.95,-0.85c0.6,0.3 0.967,0.583 1.1,0.85c0.167,0.233 0.317,0.717 0.45,1.45c-0.6,-0 -1.3,-0.067 -2.1,-0.2c-0,-0.333 -0.05,-0.55 -0.15,-0.65c0.233,-0.533 0.467,-1.017 0.7,-1.45Z"/><path d="M63.9,23.8c-0,-0.367 -0.05,-0.783 -0.15,-1.25l-0.25,0.15c0,1.267 -0.267,1.9 -0.8,1.9c-0.233,-0 -0.433,-0.417 -0.6,-1.25l-0.2,0.05c-0.1,0.633 -0.2,1.067 -0.3,1.3c-0.167,0.5 -0.4,0.75 -0.7,0.75c-0.3,-0 -0.45,-0.467 -0.45,-1.4l-0.25,0.05c-0.167,0.667 -0.25,1.083 -0.25,1.25c0,0.4 0.067,0.733 0.2,1c0.167,0.3 0.4,0.45 0.7,0.45c0.267,0 0.517,-0.117 0.75,-0.35c0.233,-0.2 0.367,-0.45 0.4,-0.75c0.233,0.167 0.467,0.25 0.7,0.25c0.8,-0 1.2,-0.717 1.2,-2.15Z"/><path d="M40.45,11.5c-0.533,0 -1.017,0.317 -1.45,0.95c-0.367,0.567 -0.55,1.117 -0.55,1.65c0,0.433 0.367,0.9 1.1,1.4c-1.3,1.067 -2.517,1.883 -3.65,2.45c0.4,0.133 0.717,0.2 0.95,0.2c0.967,0 2.1,-0.75 3.4,-2.25c0.533,0.367 0.983,0.633 1.35,0.8l0.15,-1.55c-0.3,-0.2 -0.517,-0.35 -0.65,-0.45c0.333,-0.767 0.5,-1.383 0.5,-1.85c0,-0.9 -0.383,-1.35 -1.15,-1.35Zm-1.1,1.6c0.033,-0.133 0.133,-0.217 0.3,-0.25c0.6,0.067 0.9,0.383 0.9,0.95c-0,0.133 -0.033,0.283 -0.1,0.45c-0.733,-0.4 -1.1,-0.783 -1.1,-1.15Z"/><path d="M10.35,15.8c0.4,0.133 0.717,0.2 0.95,0.2c0.967,0 2.1,-0.75 3.4,-2.25c0.533,0.367 0.983,0.633 1.35,0.8l0.15,-1.55c-0.3,-0.2 -0.517,-0.35 -0.65,-0.45c0.333,-0.767 0.5,-1.383 0.5,-1.85c-0,-0.9 -0.383,-1.35 -1.15,-1.35c-0.533,-0 -1.017,0.317 -1.45,0.95c-0.367,0.567 -0.55,1.117 -0.55,1.65c-0,0.433 0.367,0.9 1.1,1.4c-1.3,1.067 -2.517,1.883 -3.65,2.45Zm4.65,-4.15c0,0.133 -0.033,0.283 -0.1,0.45c-0.733,-0.4 -1.1,-0.783 -1.1,-1.15c0.033,-0.133 0.133,-0.217 0.3,-0.25c0.6,0.067 0.9,0.383 0.9,0.95Z"/><path d="M71.65,22.45c-0,-0.233 -0.3,-0.683 -0.9,-1.35c-0.6,-0.667 -0.9,-1.25 -0.9,-1.75c0,-0.167 0.05,-0.417 0.15,-0.75c0.1,-0.367 0.15,-0.633 0.15,-0.8l-0.05,-0.55c-1.167,0.9 -2.083,2.433 -2.75,4.6c0.1,0.6 0.5,1.35 1.2,2.25c0.467,3.2 0.7,8.05 0.7,14.55c-0,1.267 -1.033,1.867 -3.1,1.8l-0.95,-0.05l0,4.45l1.8,-0c1.5,-0 2.567,-0.917 3.2,-2.75c0.5,-1.3 0.75,-2.933 0.75,-4.9l0,-4.1c0,-0.767 -0.067,-1.883 -0.2,-3.35c-0.133,-1.5 -0.2,-2.633 -0.2,-3.4c-0,-0.367 0.183,-0.967 0.55,-1.8c0.367,-0.867 0.55,-1.567 0.55,-2.1Z" style="fill:#f00;"/><path d="M62.752,11.098l-4.35,3.25c-0.663,0.496 -0.799,1.437 -0.304,2.1c0.496,0.663 1.437,0.799 2.1,0.304l4.35,-3.25c0.663,-0.496 0.799,-1.437 0.304,-2.1c-0.496,-0.663 -1.437,-0.799 -2.1,-0.304Z"/><path d="M79.018,10.387l-4.4,3.2c-0.67,0.487 -0.818,1.426 -0.331,2.095c0.487,0.67 1.426,0.818 2.095,0.331l4.4,-3.2c0.67,-0.487 0.818,-1.426 0.331,-2.095c-0.487,-0.67 -1.426,-0.818 -2.095,-0.331Z"/></g></svg>