<?xml version="1.0" encoding="UTF-8" standalone="no"?><!DOCTYPE svg PUBLIC "-//W3C//DTD SVG 1.1//EN" "http://www.w3.org/Graphics/SVG/1.1/DTD/svg11.dtd"><svg width="100%" height="100%" viewBox="0 0 90 66" version="1.1" xmlns="http://www.w3.org/2000/svg" xmlns:xlink="http://www.w3.org/1999/xlink" xml:space="preserve" xmlns:serif="http://www.serif.com/" style="fill-rule:evenodd;clip-rule:evenodd;stroke-linejoin:round;stroke-miterlimit:2;"><g><path d="M82.15,21.4l0.5,23.5c1.133,-1.067 1.7,-3.917 1.7,-8.55l-0.15,-18.65c-1.4,2.033 -2.083,3.267 -2.05,3.7Z"/><path d="M41.468,35.35c0.759,0.007 1.386,0.44 1.882,1.3c0.767,1.3 1.317,2.083 1.65,2.35c0.933,0.867 2.333,1.3 4.2,1.3l0,0.1l0.75,0c1.1,0 1.917,-0.167 2.45,-0.5c0.6,-0.4 1.367,-1.3 2.3,-2.7c0,1.3 0.3,2.2 0.9,2.7c0.5,0.433 1.35,0.65 2.55,0.65c1.333,0 2.3,-0.383 2.9,-1.15c0.567,-0.967 1.133,-1.95 1.7,-2.95c0,1 -0.117,2.033 -0.35,3.1c0.367,0.667 1.033,1 2,1c0.8,0 1.467,-0.483 2,-1.45c0.4,-0.9 0.783,-1.783 1.15,-2.65c0.167,0.5 0.25,0.95 0.25,1.35c-0,0.133 -0.033,0.35 -0.1,0.65c-0.1,0.267 -0.15,0.45 -0.15,0.55c-0,0.933 0.85,1.4 2.55,1.4l1.25,0l0,4.45l-3.25,0c-0.3,0 -0.9,-0.45 -1.8,-1.35c-0.733,0.9 -1.45,1.35 -2.15,1.35c-0.4,0 -0.9,-0.167 -1.5,-0.5c-0.467,-0.3 -0.95,-0.583 -1.45,-0.85c-1.167,0.9 -2.333,1.35 -3.5,1.35c-0.567,0 -1.233,-0.183 -2,-0.55c-0.633,-0.333 -1.283,-0.667 -1.95,-1c-0.933,1.033 -1.7,1.55 -2.3,1.55l-3.6,0l0,-0.1l-1.4,0c-0.333,0 -0.9,-0.267 -1.7,-0.8c-0.167,0.1 -0.4,0.467 -0.7,1.1c-0.2,0.433 -0.6,0.65 -1.2,0.65c-1.467,-0 -3.017,-0.9 -4.65,-2.7c-0.233,0.367 -0.467,0.733 -0.7,1.1c-0.333,0.433 -0.667,0.65 -1,0.65l-1.9,0l0,0.1l-2.8,0c-0.4,0 -1.033,-0.467 -1.9,-1.4c-0.733,0.933 -1.467,1.4 -2.2,1.4c-0.267,0 -0.733,-0.167 -1.4,-0.5c-0.9,-0.433 -1.383,-0.667 -1.45,-0.7c-1.133,0.933 -2.233,1.4 -3.3,1.4c-0.633,0 -1.333,-0.25 -2.1,-0.75c-0.433,3.567 -1.333,6.25 -2.7,8.05c-1.567,2.167 -3.883,3.25 -6.95,3.25c-2.1,0 -3.583,-0.65 -4.45,-1.95c-0.767,-1.133 -1.15,-2.917 -1.15,-5.35c0,-1.267 0.183,-2.583 0.55,-3.95c0.433,-1.6 0.983,-2.733 1.65,-3.4c-0.567,2.433 -0.85,3.983 -0.85,4.65c-0,3.567 2,5.35 6,5.35c1.167,0 2.45,-0.283 3.85,-0.85c1.8,-0.667 2.7,-1.5 2.7,-2.5c0,-2 -0.633,-4.217 -1.9,-6.65c0.433,-0.767 1,-1.95 1.7,-3.55c0.3,0.967 0.767,1.75 1.4,2.35c0.7,0.667 1.483,1 2.35,1c1.367,0 2.367,-0.417 3,-1.25c0.6,-1.033 1.2,-2.05 1.8,-3.05c0,1.267 -0.1,2.267 -0.3,3c0.5,0.733 1.15,1.1 1.95,1.1c0.733,0 1.383,-0.5 1.95,-1.5c0.433,-0.867 0.85,-1.733 1.25,-2.6c0.033,0.233 0.05,0.467 0.05,0.7c0,0.226 -0.031,0.562 -0.094,1.007l-0.012,0.086c-0.063,0.445 -0.094,0.781 -0.094,1.007c-0,0.6 0.483,0.967 1.45,1.1c0.127,0.016 0.343,0.016 0.65,0l0,-0.05c1.633,0 2.683,-0.067 3.15,-0.2c0.6,-0.167 1.45,-1.017 2.55,-2.55c1.067,-1.467 1.9,-2.2 2.5,-2.2l0.018,0Zm-0.518,5.45c-0.8,-0.6 -1.2,-1.083 -1.2,-1.45c0,-0.233 0.517,-0.917 1.55,-2.05c0.4,0.567 0.717,1.233 0.95,2c0.3,1.067 0.45,1.633 0.45,1.7l0,0.8c-0.567,-0.233 -1.15,-0.567 -1.75,-1Z"/><path d="M59.5,30.75l2,-2.25l-2,-2.25l-2,2.2l2,2.3Z"/><path d="M61.5,28.5l1.95,2.25l2.05,-2.3l-2.05,-2.2l-1.95,2.25Z"/><path d="M61.6,26.05l2,-2.3l-2,-2.25l-2,2.25l2,2.3Z"/><path d="M62.15,16.2l-0.2,0.05c-0.1,0.633 -0.2,1.067 -0.3,1.3c-0.167,0.5 -0.4,0.75 -0.7,0.75c-0.3,0 -0.45,-0.467 -0.45,-1.4l-0.25,0.05c-0.167,0.667 -0.25,1.083 -0.25,1.25c0,0.4 0.067,0.733 0.2,1c0.167,0.3 0.4,0.45 0.7,0.45c0.267,0 0.517,-0.117 0.75,-0.35c0.233,-0.2 0.367,-0.45 0.4,-0.75c0.233,0.167 0.467,0.25 0.7,0.25c0.8,0 1.2,-0.717 1.2,-2.15c0,-0.367 -0.05,-0.783 -0.15,-1.25l-0.25,0.15c-0,1.267 -0.267,1.9 -0.8,1.9c-0.233,-0 -0.433,-0.417 -0.6,-1.25Z"/><path d="M39.4,13.6c-0.3,0.567 -0.45,1.267 -0.45,2.1c0,1.333 0.517,2 1.55,2c0.6,-0 1.117,-0.283 1.55,-0.85c0.4,-0.533 0.6,-1.15 0.6,-1.85c-0,-0.6 -0.15,-1.15 -0.45,-1.65c-0.333,-0.5 -0.75,-0.75 -1.25,-0.75c-0.667,-0 -1.183,0.333 -1.55,1Zm1.35,2.45c-0.9,0 -1.35,-0.317 -1.35,-0.95c-0,-0.733 0.3,-1.1 0.9,-1.1c0.267,0 0.583,0.167 0.95,0.5c0.433,0.333 0.65,0.633 0.65,0.9c-0,0.433 -0.383,0.65 -1.15,0.65Z"/><path d="M20.4,17.95c0.4,0.133 0.717,0.2 0.95,0.2c0.967,0 2.1,-0.75 3.4,-2.25c0.533,0.367 0.983,0.633 1.35,0.8l0.15,-1.55c-0.3,-0.2 -0.517,-0.35 -0.65,-0.45c0.333,-0.767 0.5,-1.383 0.5,-1.85c0,-0.9 -0.383,-1.35 -1.15,-1.35c-0.533,0 -1.017,0.317 -1.45,0.95c-0.367,0.567 -0.55,1.117 -0.55,1.65c0,0.433 0.367,0.9 1.1,1.4c-1.3,1.067 -2.517,1.883 -3.65,2.45Zm3.75,-5.1c0.6,0.067 0.9,0.383 0.9,0.95c-0,0.133 -0.033,0.283 -0.1,0.45c-0.733,-0.4 -1.1,-0.783 -1.1,-1.15c0.033,-0.133 0.133,-0.217 0.3,-0.25Z"/><path d="M75.7,17.25c-1.167,0.9 -2.083,2.433 -2.75,4.6c0.1,0.6 0.5,1.35 1.2,2.25c0.467,3.2 0.7,8.05 0.7,14.55c0,1.267 -1.033,1.867 -3.1,1.8l-0.4,-0l0,4.4l1.25,-0c1.5,-0 2.567,-0.917 3.2,-2.75c0.5,-1.3 0.75,-2.933 0.75,-4.9l-0,-4.1c-0,-0.767 -0.067,-1.883 -0.2,-3.35c-0.133,-1.5 -0.2,-2.633 -0.2,-3.4c-0,-0.367 0.183,-0.967 0.55,-1.8c0.367,-0.867 0.55,-1.567 0.55,-2.1c0,-0.233 -0.3,-0.683 -0.9,-1.35c-0.6,-0.667 -0.9,-1.25 -0.9,-1.75c0,-0.167 0.05,-0.417 0.15,-0.75c0.1,-0.367 0.15,-0.633 0.15,-0.8l-0.05,-0.55Z" style="fill:#f00;"/><path d="M84.402,11.098l-4.35,3.25c-0.663,0.496 -0.799,1.437 -0.304,2.1c0.496,0.663 1.437,0.799 2.1,0.304l4.35,-3.25c0.663,-0.496 0.799,-1.437 0.304,-2.1c-0.496,-0.663 -1.437,-0.799 -2.1,-0.304Z"/><path d="M62.761,8.992l-4.35,3.2c-0.667,0.49 -0.81,1.43 -0.319,2.097c0.49,0.667 1.43,0.81 2.097,0.319l4.35,-3.2c0.667,-0.49 0.81,-1.43 0.319,-2.097c-0.49,-0.667 -1.43,-0.81 -2.097,-0.319Z"/></g></svg>