<?xml version="1.0" encoding="UTF-8" standalone="no"?><!DOCTYPE svg PUBLIC "-//W3C//DTD SVG 1.1//EN" "http://www.w3.org/Graphics/SVG/1.1/DTD/svg11.dtd"><svg width="100%" height="100%" viewBox="0 0 83 77" version="1.1" xmlns="http://www.w3.org/2000/svg" xmlns:xlink="http://www.w3.org/1999/xlink" xml:space="preserve" xmlns:serif="http://www.serif.com/" style="fill-rule:evenodd;clip-rule:evenodd;stroke-linejoin:round;stroke-miterlimit:2;"><g><path d="M14.55,63.1l2.3,-2.55l-2.3,-2.6l-2.3,2.6l2.3,2.55Z"/><path d="M15,49.9c-2,0 -3.817,-0.3 -5.45,-0.9c-2.367,-0.833 -3.55,-2.117 -3.55,-3.85c0,-0.767 0.283,-1.917 0.85,-3.45c-1.7,1.867 -2.55,3.667 -2.55,5.4c-0,4.367 3.017,6.55 9.05,6.55c9.8,0 14.7,-3.1 14.7,-9.3c-0,-2.333 -0.683,-4.017 -2.05,-5.05c-0.2,1.033 -0.617,2.467 -1.25,4.3c1.133,0.967 1.7,2.017 1.7,3.15c-0.767,0.967 -2.567,1.767 -5.4,2.4c-2.3,0.5 -4.317,0.75 -6.05,0.75Z"/><path d="M69.7,26.05c-1.4,2.033 -2.083,3.267 -2.05,3.7l0.5,23.5c1.133,-1.067 1.7,-3.917 1.7,-8.55l-0.15,-18.65Z"/><path d="M44.85,48.8c-0.833,-0.033 -1.6,-0.05 -2.3,-0.05l-0,0.2c-0.359,0.005 -0.726,-0.011 -1.1,-0.05c-0.367,-0.867 -0.717,-1.733 -1.05,-2.6c-0.567,-1.133 -1.133,-1.7 -1.7,-1.7c-0.7,-0 -1.433,0.833 -2.2,2.5c-0.7,1.533 -1.05,2.783 -1.05,3.75c0,1.2 0.5,1.95 1.5,2.25c0.933,0.167 1.867,0.333 2.8,0.5c-1.1,1.867 -2.25,3.217 -3.45,4.05c-1.333,1 -2.9,1.5 -4.7,1.5c-0.967,0 -2.383,-0.1 -4.25,-0.3c1.733,1.967 3.75,2.95 6.05,2.95c1.967,0 3.65,-0.933 5.05,-2.8c0.967,-1.3 1.9,-3.233 2.8,-5.8l5.1,-0c0.767,-0 1.383,-0.317 1.85,-0.95c0.067,-0.1 0.433,-0.8 1.1,-2.1c0.333,0.667 0.817,1.317 1.45,1.95c0.733,0.733 1.367,1.1 1.9,1.1l4.4,-0l-0,-4.45l-0.85,-0c-0.3,0.035 -0.633,0.068 -1,0.1c-0.049,-0.004 -0.099,-0.004 -0.15,-0c-0.833,0.067 -1.4,0.1 -1.7,0.1c-1,-0 -1.717,-0.233 -2.15,-0.7c-0.533,-0.567 -0.817,-1.617 -0.85,-3.15c-0.933,1.7 -1.567,2.733 -1.9,3.1c-0.433,0.433 -1.117,0.65 -2.05,0.65c-0.2,-0 -0.717,-0.017 -1.55,-0.05Zm-7,-0.85c0.6,0.3 0.967,0.583 1.1,0.85c0.167,0.233 0.317,0.717 0.45,1.45c-0.6,-0 -1.3,-0.067 -2.1,-0.2c-0,-0.333 -0.05,-0.55 -0.15,-0.65c0.233,-0.533 0.467,-1.017 0.7,-1.45Z"/><path d="M51.5,34.45l-1.95,2.25l-2,-2.25l-2,2.2l2,2.3l1.95,-2.25l2,2.25l2.05,-2.3l-2.05,-2.2Z"/><path d="M47.65,31.95l2,2.3l2,-2.3l-2,-2.25l-2,2.25Z"/><path d="M39,27.75c-0.467,-0.733 -1.033,-1.1 -1.7,-1.1c-0.9,0 -1.583,0.483 -2.05,1.45c-0.4,0.8 -0.6,1.783 -0.6,2.95c-0,1.867 0.683,2.8 2.05,2.8c0.8,0 1.483,-0.4 2.05,-1.2c0.567,-0.767 0.85,-1.633 0.85,-2.6c0,-0.833 -0.2,-1.6 -0.6,-2.3Zm-2.55,0.9c0.333,0 0.767,0.233 1.3,0.7c0.533,0.467 0.8,0.883 0.8,1.25c-0,0.633 -0.483,0.95 -1.45,0.95c-1.2,0 -1.8,-0.45 -1.8,-1.35c-0,-1.033 0.383,-1.55 1.15,-1.55Z"/><path d="M52.2,24.1c0,-0.367 -0.05,-0.783 -0.15,-1.25l-0.25,0.15c-0,1.267 -0.267,1.9 -0.8,1.9c-0.233,0 -0.433,-0.417 -0.6,-1.25l-0.2,0.05c-0.1,0.633 -0.2,1.067 -0.3,1.3c-0.167,0.5 -0.4,0.75 -0.7,0.75c-0.3,0 -0.45,-0.467 -0.45,-1.4l-0.25,0.05c-0.167,0.667 -0.25,1.083 -0.25,1.25c0,0.4 0.067,0.733 0.2,1c0.167,0.3 0.4,0.45 0.7,0.45c0.267,-0 0.517,-0.117 0.75,-0.35c0.233,-0.2 0.367,-0.45 0.4,-0.75c0.233,0.167 0.467,0.25 0.7,0.25c0.8,0 1.2,-0.717 1.2,-2.15Z"/><path d="M17.65,24c-0.3,-0.2 -0.517,-0.35 -0.65,-0.45c0.333,-0.767 0.5,-1.383 0.5,-1.85c-0,-0.9 -0.383,-1.35 -1.15,-1.35c-0.533,-0 -1.017,0.317 -1.45,0.95c-0.367,0.567 -0.55,1.117 -0.55,1.65c0,0.433 0.367,0.9 1.1,1.4c-1.3,1.067 -2.517,1.883 -3.65,2.45c0.4,0.133 0.717,0.2 0.95,0.2c0.967,0 2.1,-0.75 3.4,-2.25c0.533,0.367 0.983,0.633 1.35,0.8l0.15,-1.55Zm-1.2,-1.35c0,0.133 -0.033,0.283 -0.1,0.45c-0.733,-0.4 -1.1,-0.783 -1.1,-1.15c0.033,-0.133 0.133,-0.217 0.3,-0.25c0.6,0.067 0.9,0.383 0.9,0.95Z"/><path d="M61.2,25.6c-1.167,0.9 -2.083,2.433 -2.75,4.6c0.1,0.6 0.5,1.35 1.2,2.25c0.467,3.2 0.7,8.05 0.7,14.55c0,1.267 -1.033,1.867 -3.1,1.8l-0.2,0l-0,4.4l1.05,-0c1.5,-0 2.567,-0.917 3.2,-2.75c0.5,-1.3 0.75,-2.933 0.75,-4.9l-0,-4.1c-0,-0.767 -0.067,-1.883 -0.2,-3.35c-0.133,-1.5 -0.2,-2.633 -0.2,-3.4c-0,-0.367 0.183,-0.967 0.55,-1.8c0.367,-0.867 0.55,-1.567 0.55,-2.1c0,-0.233 -0.3,-0.683 -0.9,-1.35c-0.6,-0.667 -0.9,-1.25 -0.9,-1.75c0,-0.167 0.05,-0.417 0.15,-0.75c0.1,-0.367 0.15,-0.633 0.15,-0.8l-0.05,-0.55Z" style="fill:#f00;"/><path d="M55.2,48.85c0.367,-0.032 0.7,-0.065 1,-0.1l-1,0l0,0.1Z" style="fill:#f00;"/><path d="M69.868,19.237l-4.4,3.2c-0.67,0.487 -0.818,1.426 -0.331,2.095c0.487,0.67 1.426,0.818 2.095,0.331l4.4,-3.2c0.67,-0.487 0.818,-1.426 0.331,-2.095c-0.487,-0.67 -1.426,-0.818 -2.095,-0.331Z"/><path d="M51.302,17.098l-4.35,3.25c-0.663,0.496 -0.799,1.437 -0.304,2.1c0.496,0.663 1.437,0.799 2.1,0.304l4.35,-3.25c0.663,-0.496 0.799,-1.437 0.304,-2.1c-0.496,-0.663 -1.437,-0.799 -2.1,-0.304Z"/></g></svg>