<?xml version="1.0" encoding="UTF-8" standalone="no"?><!DOCTYPE svg PUBLIC "-//W3C//DTD SVG 1.1//EN" "http://www.w3.org/Graphics/SVG/1.1/DTD/svg11.dtd"><svg width="100%" height="100%" viewBox="0 0 70 66" version="1.1" xmlns="http://www.w3.org/2000/svg" xmlns:xlink="http://www.w3.org/1999/xlink" xml:space="preserve" xmlns:serif="http://www.serif.com/" style="fill-rule:evenodd;clip-rule:evenodd;stroke-linejoin:round;stroke-miterlimit:2;"><g><path d="M21.75,19.95c-0.133,-0.467 -0.2,-1.35 -0.2,-2.65c-0.767,1.133 -1.4,2.783 -1.9,4.95c0.5,0.767 0.9,1.317 1.2,1.65c0.067,1.233 0.3,4.467 0.7,9.7c0.333,4.067 0.5,7.333 0.5,9.8c-0,1.1 -0.683,1.967 -2.05,2.6c-1.067,0.533 -2.15,0.8 -3.25,0.8c-3.167,0 -4.75,-1.55 -4.75,-4.65c0,-0.133 0.15,-1.45 0.45,-3.95c-0.6,0.6 -1.083,1.683 -1.45,3.25c-0.3,1.267 -0.45,2.5 -0.45,3.7c-0,2.2 0.4,3.8 1.2,4.8c0.833,1.033 2.2,1.55 4.1,1.55c5.167,0 7.75,-4.217 7.75,-12.65c0,-4.233 -0.4,-8.683 -1.2,-13.35c0.433,-0.267 0.733,-0.883 0.9,-1.85c0.1,-0.767 0.2,-1.533 0.3,-2.3c-0.967,-0.133 -1.583,-0.6 -1.85,-1.4Z"/><path d="M38.15,33.6c-0.433,-2.033 -0.883,-4.6 -1.35,-7.7c-0.633,2.433 -0.933,3.733 -0.9,3.9l1.4,8.5c-0.567,0.767 -1.483,1.417 -2.75,1.95c-1.167,0.467 -2.25,0.7 -3.25,0.7c-1.033,-0 -2,-0.517 -2.9,-1.55l-0,4.45c-0,0.9 0.867,1.35 2.6,1.35c1.9,-0 3.267,-0.35 4.1,-1.05c0.367,-0.367 1.217,-1.633 2.55,-3.8c0.267,0.933 0.533,1.867 0.8,2.8c0.433,1.133 1.017,1.7 1.75,1.7l2.3,-0l0,-4.45c-0.085,0.008 -0.168,0.008 -0.25,-0c-0.433,0.047 -0.799,0.064 -1.1,0.05c-0.365,-0.016 -0.631,-0.066 -0.8,-0.15c-0.6,-0.333 -1.333,-2.567 -2.2,-6.7Z"/><path d="M55.65,17.7c-1.4,2.033 -2.083,3.267 -2.05,3.7l0.5,23.5c1.133,-1.067 1.7,-3.917 1.7,-8.55l-0.15,-18.65Z"/><path d="M36.45,18.6l-2.3,2.6l2.3,2.55l2.3,-2.55l-2.3,-2.6Z"/><path d="M21.65,13.2c-0.233,-0 -0.433,-0.417 -0.6,-1.25l-0.2,0.05c-0.1,0.633 -0.2,1.067 -0.3,1.3c-0.167,0.5 -0.4,0.75 -0.7,0.75c-0.3,0 -0.45,-0.467 -0.45,-1.4l-0.25,0.05c-0.167,0.667 -0.25,1.083 -0.25,1.25c-0,0.4 0.067,0.733 0.2,1c0.167,0.3 0.4,0.45 0.7,0.45c0.267,0 0.517,-0.117 0.75,-0.35c0.233,-0.2 0.367,-0.45 0.4,-0.75c0.233,0.167 0.467,0.25 0.7,0.25c0.8,0 1.2,-0.717 1.2,-2.15c0,-0.367 -0.05,-0.783 -0.15,-1.25l-0.25,0.15c0,1.267 -0.267,1.9 -0.8,1.9Z"/><path d="M37.8,11.7c-0,-0.367 -0.05,-0.783 -0.15,-1.25l-0.25,0.15c-0,1.267 -0.267,1.9 -0.8,1.9c-0.233,-0 -0.433,-0.417 -0.6,-1.25l-0.2,0.05c-0.1,0.633 -0.2,1.067 -0.3,1.3c-0.167,0.5 -0.4,0.75 -0.7,0.75c-0.3,-0 -0.45,-0.467 -0.45,-1.4l-0.25,0.05c-0.167,0.667 -0.25,1.083 -0.25,1.25c0,0.4 0.067,0.733 0.2,1c0.167,0.3 0.4,0.45 0.7,0.45c0.267,-0 0.517,-0.117 0.75,-0.35c0.233,-0.2 0.367,-0.45 0.4,-0.75c0.233,0.167 0.467,0.25 0.7,0.25c0.8,-0 1.2,-0.717 1.2,-2.15Z"/><path d="M20.65,2.95c-0.533,-0 -1.017,0.317 -1.45,0.95c-0.367,0.567 -0.55,1.117 -0.55,1.65c-0,0.433 0.367,0.9 1.1,1.4c-1.3,1.067 -2.517,1.883 -3.65,2.45c0.4,0.133 0.717,0.2 0.95,0.2c0.967,-0 2.1,-0.75 3.4,-2.25c0.533,0.367 0.983,0.633 1.35,0.8l0.15,-1.55c-0.3,-0.2 -0.517,-0.35 -0.65,-0.45c0.333,-0.767 0.5,-1.383 0.5,-1.85c-0,-0.9 -0.383,-1.35 -1.15,-1.35Zm0.1,2.3c-0,0.133 -0.033,0.283 -0.1,0.45c-0.733,-0.4 -1.1,-0.783 -1.1,-1.15c0.033,-0.133 0.133,-0.217 0.3,-0.25c0.6,0.067 0.9,0.383 0.9,0.95Z"/><path d="M36.25,1.55c-0.533,-0 -1.017,0.317 -1.45,0.95c-0.367,0.567 -0.55,1.117 -0.55,1.65c0,0.433 0.367,0.9 1.1,1.4c-1.3,1.067 -2.517,1.883 -3.65,2.45c0.4,0.133 0.717,0.2 0.95,0.2c0.967,-0 2.1,-0.75 3.4,-2.25c0.533,0.367 0.983,0.633 1.35,0.8l0.15,-1.55c-0.3,-0.2 -0.517,-0.35 -0.65,-0.45c0.333,-0.767 0.5,-1.383 0.5,-1.85c-0,-0.9 -0.383,-1.35 -1.15,-1.35Zm-1.1,1.6c0.033,-0.133 0.133,-0.217 0.3,-0.25c0.6,0.067 0.9,0.383 0.9,0.95c0,0.133 -0.033,0.283 -0.1,0.45c-0.733,-0.4 -1.1,-0.783 -1.1,-1.15Z"/><path d="M48.7,22.45c0,-0.233 -0.3,-0.683 -0.9,-1.35c-0.6,-0.667 -0.9,-1.25 -0.9,-1.75c-0,-0.167 0.05,-0.417 0.15,-0.75c0.1,-0.367 0.15,-0.633 0.15,-0.8l-0.05,-0.55c-1.167,0.9 -2.083,2.433 -2.75,4.6c0.1,0.6 0.5,1.35 1.2,2.25c0.467,3.2 0.7,8.05 0.7,14.55c-0,1.267 -1.033,1.867 -3.1,1.8l-0.7,-0.05l-0,4.45l1.55,-0c1.5,-0 2.567,-0.917 3.2,-2.75c0.5,-1.3 0.75,-2.933 0.75,-4.9l-0,-4.1c-0,-0.767 -0.067,-1.883 -0.2,-3.35c-0.133,-1.5 -0.2,-2.633 -0.2,-3.4c0,-0.367 0.183,-0.967 0.55,-1.8c0.367,-0.867 0.55,-1.567 0.55,-2.1Z" style="fill:#f00;"/><path d="M41.15,40.4l-0,0.05c0.301,0.014 0.667,-0.003 1.1,-0.05l-1.1,0Z" style="fill:#f00;"/><path d="M55.961,10.342l-4.35,3.2c-0.667,0.49 -0.81,1.43 -0.319,2.097c0.49,0.667 1.43,0.81 2.097,0.319l4.35,-3.2c0.667,-0.49 0.81,-1.43 0.319,-2.097c-0.49,-0.667 -1.43,-0.81 -2.097,-0.319Z"/></g></svg>