<?xml version="1.0" encoding="UTF-8" standalone="no"?><!DOCTYPE svg PUBLIC "-//W3C//DTD SVG 1.1//EN" "http://www.w3.org/Graphics/SVG/1.1/DTD/svg11.dtd"><svg width="100%" height="100%" viewBox="0 0 77 67" version="1.1" xmlns="http://www.w3.org/2000/svg" xmlns:xlink="http://www.w3.org/1999/xlink" xml:space="preserve" xmlns:serif="http://www.serif.com/" style="fill-rule:evenodd;clip-rule:evenodd;stroke-linejoin:round;stroke-miterlimit:2;"><g><path d="M18.6,43.85c0,-1.267 -0.217,-2.367 -0.65,-3.3c-0.333,-0.7 -0.983,-1.583 -1.95,-2.65l-0.85,3.7c0.5,0.633 0.983,1.25 1.45,1.85c0.633,0.9 0.95,1.583 0.95,2.05c-0,2.367 -1.5,4.4 -4.5,6.1c-2.567,1.433 -5,2.15 -7.3,2.15c1.867,1.433 3.717,2.15 5.55,2.15c2.1,-0 3.9,-1.45 5.4,-4.35c1.267,-2.533 1.9,-5.1 1.9,-7.7Z"/><path d="M24,22.2c-0.3,0.433 -0.45,1.033 -0.45,1.8c-0,5.933 0.033,9.75 0.1,11.45c0.2,5.767 0.7,9.233 1.5,10.4c0.633,0.967 1.533,1.45 2.7,1.45l3.1,0l0,-4.45l-0.65,0c-2.132,-0.093 -3.548,-0.643 -4.25,-1.65c-0.6,-0.967 -0.9,-2.967 -0.9,-6l-0,-14.3c-0.4,0.433 -0.783,0.867 -1.15,1.3Z"/><path d="M42,24.3c0.1,0.6 0.5,1.35 1.2,2.25c0.467,3.2 0.7,8.05 0.7,14.55c-0,1.267 -1.033,1.867 -3.1,1.8l-0.5,-0l-1.55,-0.05l-0,4.45l2.9,0c1.5,0 2.567,-0.917 3.2,-2.75c0.5,-1.3 0.75,-2.933 0.75,-4.9l0,-4.1c0,-0.767 -0.067,-1.883 -0.2,-3.35c-0.133,-1.5 -0.2,-2.633 -0.2,-3.4c0,-0.367 0.183,-0.967 0.55,-1.8c0.367,-0.867 0.55,-1.567 0.55,-2.1c-0,-0.233 -0.3,-0.683 -0.9,-1.35c-0.6,-0.667 -0.9,-1.25 -0.9,-1.75c0,-0.167 0.05,-0.417 0.15,-0.75c0.1,-0.367 0.15,-0.633 0.15,-0.8l-0.05,-0.55c-1.167,0.9 -2.083,2.433 -2.75,4.6Z"/><path d="M52.75,20.9c-0.4,0.433 -0.783,0.867 -1.15,1.3c-0.3,0.433 -0.45,1.033 -0.45,1.8c-0,5.933 0.033,9.75 0.1,11.45c0.2,5.767 0.7,9.233 1.5,10.4c0.633,0.967 1.533,1.45 2.7,1.45l3.1,0l-0,-4.45l-0.35,0c-2.304,-0.054 -3.821,-0.604 -4.55,-1.65c-0.6,-0.967 -0.9,-2.967 -0.9,-6l-0,-14.3Z"/><path d="M14.45,24.55c-0.367,0.567 -0.55,1.117 -0.55,1.65c-0,0.433 0.367,0.9 1.1,1.4c-1.3,1.067 -2.517,1.883 -3.65,2.45c0.4,0.133 0.717,0.2 0.95,0.2c0.967,0 2.1,-0.75 3.4,-2.25c0.533,0.367 0.983,0.633 1.35,0.8l0.15,-1.55c-0.3,-0.2 -0.517,-0.35 -0.65,-0.45c0.333,-0.767 0.5,-1.383 0.5,-1.85c-0,-0.9 -0.383,-1.35 -1.15,-1.35c-0.533,0 -1.017,0.317 -1.45,0.95Zm0.65,0.4c0.6,0.067 0.9,0.383 0.9,0.95c0,0.133 -0.033,0.283 -0.1,0.45c-0.733,-0.4 -1.1,-0.783 -1.1,-1.15c0.033,-0.133 0.133,-0.217 0.3,-0.25Z"/><path d="M36.05,19.7l-0.25,0.15c-0,1.267 -0.267,1.9 -0.8,1.9c-0.233,0 -0.433,-0.417 -0.6,-1.25l-0.2,0.05c-0.1,0.633 -0.2,1.067 -0.3,1.3c-0.167,0.5 -0.4,0.75 -0.7,0.75c-0.3,0 -0.45,-0.467 -0.45,-1.4l-0.25,0.05c-0.167,0.667 -0.25,1.083 -0.25,1.25c0,0.4 0.067,0.733 0.2,1c0.167,0.3 0.4,0.45 0.7,0.45c0.267,-0 0.517,-0.117 0.75,-0.35c0.233,-0.2 0.367,-0.45 0.4,-0.75c0.233,0.167 0.467,0.25 0.7,0.25c0.8,0 1.2,-0.717 1.2,-2.15c0,-0.367 -0.05,-0.783 -0.15,-1.25Z"/><path d="M30.3,42.85l0.65,0l0,4.45l0.7,0c0.767,0 1.383,-0.317 1.85,-0.95c0.133,-0.2 0.517,-0.883 1.15,-2.05c0.733,1.267 1.117,1.933 1.15,2c0.533,0.667 1.15,1 1.85,1l1.1,0l0,-4.45l1.55,0.05l-0,-0.05c-1.967,0 -3.133,-0.1 -3.5,-0.3c-0.733,-0.4 -1.1,-1.567 -1.1,-3.5c-0.6,0.533 -1,1.2 -1.2,2c-0.2,0.7 -0.5,1.15 -0.9,1.35c-0.586,0.251 -1.686,0.401 -3.3,0.45Z" style="fill:#f00;"/><path d="M61.7,33.7c-0.567,1.333 -0.85,2.55 -0.85,3.65c0,0.9 0.183,1.633 0.55,2.2c0.467,0.633 1.083,0.95 1.85,0.95c0.767,-0 1.617,-0.4 2.55,-1.2c0.6,1.067 0.9,1.783 0.9,2.15c0,0.333 -0.5,0.667 -1.5,1c-0.867,0.267 -1.517,0.4 -1.95,0.4l-4.7,0l-0,4.45l3.15,0c1.533,0 2.917,-0.717 4.15,-2.15c1.233,-1.467 1.85,-3.067 1.85,-4.8c0,-3.8 -0.9,-6.533 -2.7,-8.2c-0.533,-0.467 -0.883,-0.7 -1.05,-0.7c-0.867,-0 -1.617,0.75 -2.25,2.25Zm1.7,4.05c-0.167,0 -0.383,-0.083 -0.65,-0.25l-0.7,-0.35c0.167,-0.7 0.317,-1.133 0.45,-1.3c0.1,-0.167 0.4,-0.45 0.9,-0.85c0.567,0.433 1.033,1.017 1.4,1.75l-0,0.6c-0.667,0.267 -1.133,0.4 -1.4,0.4Z" style="fill:#f00;"/><path d="M36.8,31.85l-2.25,-2.65l-2.3,2.65l2.25,2.55l2.3,-2.55Z" style="fill:#f00;"/><path d="M63.75,22.9l-2.3,2.6l2.3,2.6l2.3,-2.6l-2.3,-2.6Z" style="fill:#f00;"/><path d="M62.318,13.787l-4.4,3.2c-0.67,0.487 -0.818,1.426 -0.331,2.095c0.487,0.67 1.426,0.818 2.095,0.331l4.4,-3.2c0.67,-0.487 0.818,-1.426 0.331,-2.095c-0.487,-0.67 -1.426,-0.818 -2.095,-0.331Z"/><path d="M33.168,12.687l-4.4,3.2c-0.67,0.487 -0.818,1.426 -0.331,2.095c0.487,0.67 1.426,0.818 2.095,0.331l4.4,-3.2c0.67,-0.487 0.818,-1.426 0.331,-2.095c-0.487,-0.67 -1.426,-0.818 -2.095,-0.331Z"/></g></svg>