<?xml version="1.0" encoding="UTF-8" standalone="no"?><!DOCTYPE svg PUBLIC "-//W3C//DTD SVG 1.1//EN" "http://www.w3.org/Graphics/SVG/1.1/DTD/svg11.dtd"><svg width="100%" height="100%" viewBox="0 0 94 85" version="1.1" xmlns="http://www.w3.org/2000/svg" xmlns:xlink="http://www.w3.org/1999/xlink" xml:space="preserve" xmlns:serif="http://www.serif.com/" style="fill-rule:evenodd;clip-rule:evenodd;stroke-linejoin:round;stroke-miterlimit:2;"><g><path d="M67.45,30.45c-0.4,0.433 -0.783,0.867 -1.15,1.3c-0.3,0.433 -0.45,1.033 -0.45,1.8c0,5.933 0.033,9.75 0.1,11.45c0.2,5.767 0.7,9.233 1.5,10.4c0.633,0.967 1.533,1.45 2.7,1.45l1.65,0l-0,-4.45l1.1,-0c-2.304,-0.054 -3.821,-0.604 -4.55,-1.65c-0.6,-0.967 -0.9,-2.967 -0.9,-6l0,-14.3Z"/><path d="M49.95,38.1c0.233,3.567 0.35,6.433 0.35,8.6c-0,1.867 0.3,3.25 0.9,4.15c0.7,1.033 1.833,1.55 3.4,1.55l0,4.45l-2.05,0c-0.767,0 -1.417,-0.467 -1.95,-1.4c-0.367,-0.833 -0.75,-1.667 -1.15,-2.5c-0.033,0.033 -0.483,0.833 -1.35,2.4c-0.6,1 -1.233,1.5 -1.9,1.5l-3.55,0c-0.9,2.567 -1.833,4.5 -2.8,5.8c-1.4,1.867 -3.083,2.8 -5.05,2.8c-2.3,-0 -4.317,-0.983 -6.05,-2.95c1.867,0.2 3.283,0.3 4.25,0.3c1.8,0 3.367,-0.5 4.7,-1.5c1.2,-0.833 2.35,-2.183 3.45,-4.05c-0.933,-0.167 -1.867,-0.333 -2.8,-0.5c-1,-0.3 -1.5,-1.05 -1.5,-2.25c0,-0.967 0.35,-2.217 1.05,-3.75c0.767,-1.667 1.5,-2.5 2.2,-2.5c0.567,0 1.133,0.567 1.7,1.7c0.333,0.867 0.683,1.733 1.05,2.6c0.444,0.046 0.877,0.063 1.3,0.05l-0,-0.2c1.433,-0 2.4,-0.133 2.9,-0.4c0.8,-0.433 1.2,-1.367 1.2,-2.8c-0,-1.767 -0.15,-4.4 -0.45,-7.9c-0.267,-3.5 -0.4,-6.117 -0.4,-7.85c-0,-1.433 0.683,-2.767 2.05,-4l0.5,8.65Zm-9.6,14.35c0.167,0.233 0.317,0.717 0.45,1.45c-0.6,-0 -1.3,-0.067 -2.1,-0.2c0,-0.333 -0.05,-0.55 -0.15,-0.65c0.233,-0.533 0.467,-1.017 0.7,-1.45c0.6,0.3 0.967,0.583 1.1,0.85Z"/><path d="M29.4,49.5c-0,-1.333 -1,-3.133 -3,-5.4c-1.367,-1.567 -2.867,-3 -4.5,-4.3c-0.3,0 -0.667,0.6 -1.1,1.8c-0.433,1.133 -0.65,1.9 -0.65,2.3c-0,0.167 0.083,0.35 0.25,0.55c0.167,0.2 0.267,0.35 0.3,0.45c-0.433,0.5 -0.833,1.217 -1.2,2.15c-0.367,0.967 -0.55,1.767 -0.55,2.4c0,0.267 0.067,0.633 0.2,1.1c0.133,0.5 0.2,0.867 0.2,1.1c0,0.432 -0.783,0.665 -2.35,0.7c-2.104,-0.067 -3.504,-0.601 -4.2,-1.6c-0.6,-0.967 -0.9,-2.967 -0.9,-6l-0,-14.3c-0.4,0.433 -0.783,0.867 -1.15,1.3c-0.3,0.433 -0.45,1.033 -0.45,1.8c-0,5.933 0.033,9.75 0.1,11.45c0.2,5.767 0.7,9.233 1.5,10.4c0.633,0.967 1.533,1.45 2.7,1.45l3.7,0c1.033,0 2.317,-0.917 3.85,-2.75c1.933,0.5 3.35,0.75 4.25,0.75c1.433,0 2.333,-0.517 2.7,-1.55c0.2,-0.567 0.3,-1.833 0.3,-3.8Zm-4.45,-0.85c0,-0.533 -0.117,-1.067 -0.35,-1.6c0.6,0.333 1.3,0.967 2.1,1.9c0.867,1 1.367,1.817 1.5,2.45l-0.35,0.35c-0.233,-0.2 -0.767,-0.367 -1.6,-0.5c-0.6,-0.1 -1.2,-0.183 -1.8,-0.25c0.333,-1 0.5,-1.783 0.5,-2.35Zm-3.05,-2.4c0.433,0.233 0.85,0.583 1.25,1.05c0.433,0.5 0.65,1 0.65,1.5c-0,0.333 -0.217,0.617 -0.65,0.85c-0.367,0.233 -0.7,0.35 -1,0.35c-0.467,-0 -1.133,-0.267 -2,-0.8c0.167,-0.567 0.417,-1.083 0.75,-1.55c0.633,-0.867 0.967,-1.333 1,-1.4Z"/><path d="M59.05,24.45c-0,-0.6 -0.15,-1.15 -0.45,-1.65c-0.333,-0.5 -0.75,-0.75 -1.25,-0.75c-0.667,0 -1.183,0.333 -1.55,1c-0.3,0.567 -0.45,1.267 -0.45,2.1c0,1.333 0.517,2 1.55,2c0.6,-0 1.117,-0.283 1.55,-0.85c0.4,-0.533 0.6,-1.15 0.6,-1.85Zm-1.4,-0.5c0.433,0.333 0.65,0.633 0.65,0.9c-0,0.433 -0.383,0.65 -1.15,0.65c-0.9,0 -1.35,-0.317 -1.35,-0.95c-0,-0.733 0.3,-1.1 0.9,-1.1c0.267,-0 0.583,0.167 0.95,0.5Z"/><path d="M43.9,24.15c0.333,-0.767 0.5,-1.383 0.5,-1.85c-0,-0.9 -0.383,-1.35 -1.15,-1.35c-0.533,-0 -1.017,0.317 -1.45,0.95c-0.367,0.567 -0.55,1.117 -0.55,1.65c0,0.433 0.367,0.9 1.1,1.4c-1.3,1.067 -2.517,1.883 -3.65,2.45c0.4,0.133 0.717,0.2 0.95,0.2c0.967,0 2.1,-0.75 3.4,-2.25c0.533,0.367 0.983,0.633 1.35,0.8l0.15,-1.55c-0.3,-0.2 -0.517,-0.35 -0.65,-0.45Zm-1.45,-1.85c0.6,0.067 0.9,0.383 0.9,0.95c0,0.133 -0.033,0.283 -0.1,0.45c-0.733,-0.4 -1.1,-0.783 -1.1,-1.15c0.033,-0.133 0.133,-0.217 0.3,-0.25Z"/><path d="M60.8,49.9c-0,-0.733 -0.267,-2.383 -0.8,-4.95c-0.6,1.6 -1.083,2.783 -1.45,3.55c0.567,1.233 0.917,2.133 1.05,2.7c-0.579,0.837 -2.246,1.253 -5,1.25l0,4.4c2.092,-0.057 3.609,-0.54 4.55,-1.45c1.1,-1.067 1.65,-2.9 1.65,-5.5Z" style="fill:#f00;"/><path d="M71.8,52.4l-0,4.45l4.6,0c1.533,0 2.917,-0.717 4.15,-2.15c1.233,-1.467 1.85,-3.067 1.85,-4.8c-0,-3.8 -0.9,-6.533 -2.7,-8.2c-0.533,-0.467 -0.883,-0.7 -1.05,-0.7c-0.867,0 -1.617,0.75 -2.25,2.25c-0.567,1.333 -0.85,2.55 -0.85,3.65c-0,0.9 0.183,1.633 0.55,2.2c0.467,0.633 1.083,0.95 1.85,0.95c0.767,0 1.617,-0.4 2.55,-1.2c0.6,1.067 0.9,1.783 0.9,2.15c-0,0.333 -0.5,0.667 -1.5,1c-0.867,0.267 -1.517,0.4 -1.95,0.4l-6.15,-0Zm5.4,-7c0.1,-0.167 0.4,-0.45 0.9,-0.85c0.567,0.433 1.033,1.017 1.4,1.75l0,0.6c-0.667,0.267 -1.133,0.4 -1.4,0.4c-0.167,0 -0.383,-0.083 -0.65,-0.25l-0.7,-0.35c0.167,-0.7 0.317,-1.133 0.45,-1.3Z" style="fill:#f00;"/><path d="M58.5,38.55l1.95,2.25l2.05,-2.25l-2.05,-2.25l-1.95,2.25Z" style="fill:#f00;"/><path d="M54.5,38.55l2,2.25l2,-2.25l-2,-2.25l-2,2.25Z" style="fill:#f00;"/><path d="M80.75,35.05l-2.3,-2.6l-2.3,2.6l2.3,2.6l2.3,-2.6Z" style="fill:#f00;"/><path d="M20.511,21.992l-4.35,3.2c-0.667,0.49 -0.81,1.43 -0.319,2.097c0.49,0.667 1.43,0.81 2.097,0.319l4.35,-3.2c0.667,-0.49 0.81,-1.43 0.319,-2.097c-0.49,-0.667 -1.43,-0.81 -2.097,-0.319Z"/><path d="M76.059,21.243l-4.4,3.25c-0.666,0.492 -0.807,1.432 -0.316,2.098c0.492,0.666 1.432,0.807 2.098,0.316l4.4,-3.25c0.666,-0.492 0.807,-1.432 0.316,-2.098c-0.492,-0.666 -1.432,-0.807 -2.098,-0.316Z"/></g></svg>