<?xml version="1.0" encoding="UTF-8" standalone="no"?><!DOCTYPE svg PUBLIC "-//W3C//DTD SVG 1.1//EN" "http://www.w3.org/Graphics/SVG/1.1/DTD/svg11.dtd"><svg width="100%" height="100%" viewBox="0 0 115 78" version="1.1" xmlns="http://www.w3.org/2000/svg" xmlns:xlink="http://www.w3.org/1999/xlink" xml:space="preserve" xmlns:serif="http://www.serif.com/" style="fill-rule:evenodd;clip-rule:evenodd;stroke-linejoin:round;stroke-miterlimit:2;"><g><path d="M27.8,59.15l-2,-2.25l-2.05,2.25l2.05,2.3l1.95,-2.3l2,2.3l2.05,-2.3l-2.05,-2.25l-1.95,2.25Z"/><path d="M65.2,30.3c0,-0.233 -0.3,-0.683 -0.9,-1.35c-0.6,-0.667 -0.9,-1.25 -0.9,-1.75c-0,-0.167 0.05,-0.417 0.15,-0.75c0.1,-0.367 0.15,-0.633 0.15,-0.8l-0.05,-0.55c-1.167,0.9 -2.083,2.433 -2.75,4.6c0.1,0.6 0.5,1.35 1.2,2.25c0.467,3.2 0.7,8.05 0.7,14.55c-0,1.267 -1.033,1.867 -3.1,1.8l-0.65,-0.05l-1.4,0l-0,0.05c-0.339,-0.02 -0.589,-0.07 -0.75,-0.15c-0.6,-0.333 -1.333,-2.567 -2.2,-6.7c-0.433,-2.033 -0.883,-4.6 -1.35,-7.7c-0.633,2.433 -0.933,3.733 -0.9,3.9l1.4,8.5c-0.567,0.767 -1.483,1.417 -2.75,1.95c-1.167,0.467 -2.25,0.7 -3.25,0.7c-1.033,-0 -2,-0.517 -2.9,-1.55l0,4.45c0,0.9 0.867,1.35 2.6,1.35c1.9,-0 3.267,-0.35 4.1,-1.05c0.367,-0.367 1.217,-1.633 2.55,-3.8c0.267,0.933 0.533,1.867 0.8,2.8c0.433,1.133 1.017,1.7 1.75,1.7l3.8,0c1.5,0 2.567,-0.917 3.2,-2.75c0.5,-1.3 0.75,-2.933 0.75,-4.9l0,-4.1c0,-0.767 -0.067,-1.883 -0.2,-3.35c-0.133,-1.5 -0.2,-2.633 -0.2,-3.4c0,-0.367 0.183,-0.967 0.55,-1.8c0.367,-0.867 0.55,-1.567 0.55,-2.1Z"/><path d="M72.15,25.55c-1.4,2.033 -2.083,3.267 -2.05,3.7l0.5,23.5c1.133,-1.067 1.7,-3.917 1.7,-8.55l-0.15,-18.65Z"/><path d="M22.75,48.3c-0.153,-0.007 -0.303,-0.023 -0.45,-0.05c-2.5,-0 -4.133,-0.55 -4.9,-1.65c-0.6,-0.967 -0.9,-2.967 -0.9,-6l0,-14.3c-0.4,0.433 -0.783,0.867 -1.15,1.3c-0.3,0.433 -0.45,1.033 -0.45,1.8c-0,5.933 0.033,9.75 0.1,11.45c0.2,5.767 0.7,9.233 1.5,10.4c0.633,0.967 1.533,1.45 2.7,1.45l4.95,0c0.767,0 1.383,-0.317 1.85,-0.95c0.067,-0.1 0.433,-0.8 1.1,-2.1c0.333,0.667 0.817,1.317 1.45,1.95c0.733,0.733 1.367,1.1 1.9,1.1l4.15,0l0,-0.05c1.728,-0.123 3.012,-0.59 3.85,-1.4c1.1,-1.067 1.65,-2.9 1.65,-5.5c0,-0.733 -0.267,-2.383 -0.8,-4.95c-0.6,1.6 -1.083,2.783 -1.45,3.55c0.567,1.233 0.917,2.133 1.05,2.7c-0.531,0.767 -1.965,1.184 -4.3,1.25l0,-0.05c-0.354,-0 -0.77,0.017 -1.25,0.05l-0.8,-0l-0,0.05c-0.687,0.033 -1.17,0.05 -1.45,0.05c-1,-0 -1.717,-0.217 -2.15,-0.65c-0.5,-0.567 -0.767,-1.617 -0.8,-3.15c-0.933,1.733 -1.567,2.767 -1.9,3.1c-0.4,0.433 -1.083,0.65 -2.05,0.65c-0.2,0 -0.683,-0.017 -1.45,-0.05Z"/><path d="M100.65,36.85c-0.867,0 -1.617,0.75 -2.25,2.25c-0.567,1.333 -0.85,2.55 -0.85,3.65c-0,0.9 0.183,1.633 0.55,2.2c0.467,0.633 1.083,0.95 1.85,0.95c0.767,-0 1.617,-0.4 2.55,-1.2c0.6,1.067 0.9,1.783 0.9,2.15c-0,0.333 -0.5,0.667 -1.5,1c-0.867,0.267 -1.517,0.4 -1.95,0.4l-6.15,0l-0,4.45l4.6,0c1.533,0 2.917,-0.717 4.15,-2.15c1.233,-1.467 1.85,-3.067 1.85,-4.8c-0,-3.8 -0.9,-6.533 -2.7,-8.2c-0.533,-0.467 -0.883,-0.7 -1.05,-0.7Zm-0.55,3.55c0.567,0.433 1.033,1.017 1.4,1.75l0,0.6c-0.667,0.267 -1.133,0.4 -1.4,0.4c-0.167,-0 -0.383,-0.083 -0.65,-0.25l-0.7,-0.35c0.167,-0.7 0.317,-1.133 0.45,-1.3c0.1,-0.167 0.4,-0.45 0.9,-0.85Z"/><path d="M37.05,32.6l-2.3,2.6l2.3,2.55l2.3,-2.55l-2.3,-2.6Z"/><path d="M100.45,33.5l2.3,-2.6l-2.3,-2.6l-2.3,2.6l2.3,2.6Z"/><path d="M54.6,27.85c0,-0.367 -0.05,-0.783 -0.15,-1.25l-0.25,0.15c0,1.267 -0.267,1.9 -0.8,1.9c-0.233,-0 -0.433,-0.417 -0.6,-1.25l-0.2,0.05c-0.1,0.633 -0.2,1.067 -0.3,1.3c-0.167,0.5 -0.4,0.75 -0.7,0.75c-0.3,0 -0.45,-0.467 -0.45,-1.4l-0.25,0.05c-0.167,0.667 -0.25,1.083 -0.25,1.25c-0,0.4 0.067,0.733 0.2,1c0.167,0.3 0.4,0.45 0.7,0.45c0.267,0 0.517,-0.117 0.75,-0.35c0.233,-0.2 0.367,-0.45 0.4,-0.75c0.233,0.167 0.467,0.25 0.7,0.25c0.8,0 1.2,-0.717 1.2,-2.15Z"/><path d="M35,21.25c-0.3,0.567 -0.45,1.267 -0.45,2.1c-0,1.333 0.517,2 1.55,2c0.6,0 1.117,-0.283 1.55,-0.85c0.4,-0.533 0.6,-1.15 0.6,-1.85c0,-0.6 -0.15,-1.15 -0.45,-1.65c-0.333,-0.5 -0.75,-0.75 -1.25,-0.75c-0.667,0 -1.183,0.333 -1.55,1Zm0.9,0.4c0.267,-0 0.583,0.167 0.95,0.5c0.433,0.333 0.65,0.633 0.65,0.9c0,0.433 -0.383,0.65 -1.15,0.65c-0.9,-0 -1.35,-0.317 -1.35,-0.95c0,-0.733 0.3,-1.1 0.9,-1.1Z"/><path d="M49.8,21.75c-0,0.433 0.367,0.9 1.1,1.4c-1.3,1.067 -2.517,1.883 -3.65,2.45c0.4,0.133 0.717,0.2 0.95,0.2c0.967,0 2.1,-0.75 3.4,-2.25c0.533,0.367 0.983,0.633 1.35,0.8l0.15,-1.55c-0.3,-0.2 -0.517,-0.35 -0.65,-0.45c0.333,-0.767 0.5,-1.383 0.5,-1.85c0,-0.9 -0.383,-1.35 -1.15,-1.35c-0.533,-0 -1.017,0.317 -1.45,0.95c-0.367,0.567 -0.55,1.117 -0.55,1.65Zm1.2,-1.25c0.6,0.067 0.9,0.383 0.9,0.95c-0,0.133 -0.033,0.283 -0.1,0.45c-0.733,-0.4 -1.1,-0.783 -1.1,-1.15c0.033,-0.133 0.133,-0.217 0.3,-0.25Z"/><path d="M82.7,60.55c-2.033,-0 -3.583,-0.233 -4.65,-0.7c-1.7,-0.733 -2.55,-2.067 -2.55,-4c0,-0.8 0.267,-1.85 0.8,-3.15c0.633,-1.567 1,-2.617 1.1,-3.15c-0.9,0.7 -1.783,1.9 -2.65,3.6c-0.867,1.733 -1.3,3.183 -1.3,4.35c0,2.333 0.917,4.067 2.75,5.2c1.433,0.9 3.25,1.35 5.45,1.35c5,-0 8.683,-1.717 11.05,-5.15c0.767,-1.067 1.15,-1.883 1.15,-2.45c0,-0.967 -0.833,-1.633 -2.5,-2c-1.167,-0.2 -2.317,-0.4 -3.45,-0.6c0.394,-0.697 2.494,-1.08 6.3,-1.15l-0.4,0l-0,-4.45l-1.15,-0c-1.7,-0 -3.217,0.567 -4.55,1.7c-1.433,1.233 -2.15,2.8 -2.15,4.7c0,0.833 0.383,1.45 1.15,1.85c0.433,0.233 1.233,0.45 2.4,0.65c1.067,0.167 1.767,0.367 2.1,0.6c-0.333,0.733 -1.7,1.417 -4.1,2.05c-1.967,0.5 -3.567,0.75 -4.8,0.75Z" style="fill:#f00;"/><path d="M100.268,60.087l-4.4,3.2c-0.67,0.487 -0.818,1.426 -0.331,2.095c0.487,0.67 1.426,0.818 2.095,0.331l4.4,-3.2c0.67,-0.487 0.818,-1.426 0.331,-2.095c-0.487,-0.67 -1.426,-0.818 -2.095,-0.331Z"/><path d="M25.311,19.342l-4.35,3.2c-0.667,0.49 -0.81,1.43 -0.319,2.097c0.49,0.667 1.43,0.81 2.097,0.319l4.35,-3.2c0.667,-0.49 0.81,-1.43 0.319,-2.097c-0.49,-0.667 -1.43,-0.81 -2.097,-0.319Z"/></g></svg>