<?xml version="1.0" encoding="UTF-8" standalone="no"?><!DOCTYPE svg PUBLIC "-//W3C//DTD SVG 1.1//EN" "http://www.w3.org/Graphics/SVG/1.1/DTD/svg11.dtd"><svg width="100%" height="100%" viewBox="0 0 114 67" version="1.1" xmlns="http://www.w3.org/2000/svg" xmlns:xlink="http://www.w3.org/1999/xlink" xml:space="preserve" xmlns:serif="http://www.serif.com/" style="fill-rule:evenodd;clip-rule:evenodd;stroke-linejoin:round;stroke-miterlimit:2;"><g><path d="M28.8,38.413c0.133,0.824 0.2,1.42 0.2,1.787c0,2.6 -0.55,4.433 -1.65,5.5c-0.955,0.923 -2.489,1.407 -4.6,1.45l-3.65,-0c-0,3.033 -0.833,5.467 -2.5,7.3c-1.633,1.833 -3.783,2.75 -6.45,2.75c-3.933,-0 -5.9,-2.25 -5.9,-6.75c-0,-1.1 0.2,-2.4 0.6,-3.9c0.5,-1.767 1.067,-2.833 1.7,-3.2c-0.533,2.4 -0.8,3.917 -0.8,4.55c-0,3.4 1.917,5.1 5.75,5.1c1.433,0 2.717,-0.25 3.85,-0.75c1.5,-0.733 2.25,-1.8 2.25,-3.2c-0,-1.067 -0.2,-2.067 -0.6,-3c-0.167,-0.433 -0.633,-1.333 -1.4,-2.7l1.5,-3.25c0.867,1.2 1.483,1.933 1.85,2.2c0.4,0.3 1.017,0.45 1.85,0.45l1.95,0c2.781,0.013 4.464,-0.404 5.05,-1.25c-0.133,-0.567 -0.483,-1.467 -1.05,-2.7c0.367,-0.767 0.85,-1.95 1.45,-3.55l0.6,3.163Z"/><path d="M24.35,55.2l2,-2.25l-2,-2.25l-2,2.2l2,2.3Z"/><path d="M28.3,55.2l2.05,-2.3l-2.05,-2.2l-1.95,2.25l1.95,2.25Z"/><path d="M43.65,28.2c-0.633,2.433 -0.933,3.733 -0.9,3.9l1.4,8.5c-0.567,0.767 -1.483,1.417 -2.75,1.95c-1.167,0.467 -2.25,0.7 -3.25,0.7c-1.033,-0 -2,-0.517 -2.9,-1.55l0,4.45c0,0.9 0.867,1.35 2.6,1.35c1.9,-0 3.267,-0.35 4.1,-1.05c0.367,-0.367 1.217,-1.633 2.55,-3.8c0.267,0.933 0.533,1.867 0.8,2.8c0.433,1.133 1.017,1.7 1.75,1.7l2.3,-0l-0,-4.45c-0.085,0.008 -0.168,0.008 -0.25,-0c-0.433,0.047 -0.799,0.064 -1.1,0.05c-0.365,-0.016 -0.631,-0.066 -0.8,-0.15c-0.6,-0.333 -1.333,-2.567 -2.2,-6.7c-0.433,-2.033 -0.883,-4.6 -1.35,-7.7Z"/><path d="M62.55,20c-1.4,2.033 -2.083,3.267 -2.05,3.7l0.5,23.5c1.133,-1.067 1.7,-3.917 1.7,-8.55l-0.15,-18.65Z"/><path d="M94.4,20c-1.4,2.033 -2.083,3.267 -2.05,3.7l0.5,23.5c1.133,-1.067 1.7,-3.917 1.7,-8.55l-0.15,-18.65Z"/><path d="M11.6,39.05l2.3,-2.55l-2.3,-2.65l-2.3,2.65l2.3,2.55Z"/><path d="M43.3,26.05l2.3,-2.55l-2.3,-2.6l-2.3,2.6l2.3,2.55Z"/><path d="M78.25,23.95c-0.3,-0 -0.45,-0.467 -0.45,-1.4l-0.25,0.05c-0.167,0.667 -0.25,1.083 -0.25,1.25c-0,0.4 0.067,0.733 0.2,1c0.167,0.3 0.4,0.45 0.7,0.45c0.267,0 0.517,-0.117 0.75,-0.35c0.233,-0.2 0.367,-0.45 0.4,-0.75c0.233,0.167 0.467,0.25 0.7,0.25c0.8,-0 1.2,-0.717 1.2,-2.15c-0,-0.367 -0.05,-0.783 -0.15,-1.25l-0.25,0.15c-0,1.267 -0.267,1.9 -0.8,1.9c-0.233,0 -0.433,-0.417 -0.6,-1.25l-0.2,0.05c-0.1,0.633 -0.2,1.067 -0.3,1.3c-0.167,0.5 -0.4,0.75 -0.7,0.75Z"/><path d="M54.9,13.95l-0.25,0.15c0,1.267 -0.267,1.9 -0.8,1.9c-0.233,0 -0.433,-0.417 -0.6,-1.25l-0.2,0.05c-0.1,0.633 -0.2,1.067 -0.3,1.3c-0.167,0.5 -0.4,0.75 -0.7,0.75c-0.3,0 -0.45,-0.467 -0.45,-1.4l-0.25,0.05c-0.167,0.667 -0.25,1.083 -0.25,1.25c-0,0.4 0.067,0.733 0.2,1c0.167,0.3 0.4,0.45 0.7,0.45c0.267,-0 0.517,-0.117 0.75,-0.35c0.233,-0.2 0.367,-0.45 0.4,-0.75c0.233,0.167 0.467,0.25 0.7,0.25c0.8,0 1.2,-0.717 1.2,-2.15c-0,-0.367 -0.05,-0.783 -0.15,-1.25Z"/><path d="M83.35,49.3c-1.367,0.7 -2.667,1.05 -3.9,1.05c-3.033,0 -4.55,-1.45 -4.55,-4.35c0,-0.467 0.083,-1.167 0.25,-2.1c0.167,-0.933 0.25,-1.633 0.25,-2.1c-0.633,0.733 -1.133,1.767 -1.5,3.1c-0.367,1.2 -0.55,2.367 -0.55,3.5c-0,2.033 0.55,3.583 1.65,4.65c1,1 2.4,1.5 4.2,1.5c2.3,0 4.217,-0.933 5.75,-2.8c1.567,-1.867 2.35,-4.1 2.35,-6.7c-0,-3.367 -0.833,-6.217 -2.5,-8.55c-0.467,1 -0.9,2.383 -1.3,4.15c0.8,1.233 1.317,2.1 1.55,2.6c0.5,1.067 0.75,2.083 0.75,3.05c-0,1.2 -0.817,2.2 -2.45,3Z" style="fill:#f00;"/><path d="M54.05,20.1l-0.05,-0.55c-1.167,0.9 -2.083,2.433 -2.75,4.6c0.1,0.6 0.5,1.35 1.2,2.25c0.467,3.2 0.7,8.05 0.7,14.55c0,1.267 -1.033,1.867 -3.1,1.8l-0.7,-0.05l-0,4.45l1.55,-0c1.5,-0 2.567,-0.917 3.2,-2.75c0.5,-1.3 0.75,-2.933 0.75,-4.9l-0,-4.1c-0,-0.767 -0.067,-1.883 -0.2,-3.35c-0.133,-1.5 -0.2,-2.633 -0.2,-3.4c0,-0.367 0.183,-0.967 0.55,-1.8c0.367,-0.867 0.55,-1.567 0.55,-2.1c-0,-0.233 -0.3,-0.683 -0.9,-1.35c-0.6,-0.667 -0.9,-1.25 -0.9,-1.75c0,-0.167 0.05,-0.417 0.15,-0.75c0.1,-0.367 0.15,-0.633 0.15,-0.8Z" style="fill:#f00;"/><path d="M48,42.7l0,0.05c0.301,0.014 0.667,-0.003 1.1,-0.05l-1.1,-0Z" style="fill:#f00;"/><path d="M79.1,34.85l2.3,-2.6l-2.3,-2.6l-2.25,2.6l2.25,2.6Z" style="fill:#f00;"/><path d="M41.561,50.742l-4.35,3.2c-0.667,0.49 -0.81,1.43 -0.319,2.097c0.49,0.667 1.43,0.81 2.097,0.319l4.35,-3.2c0.667,-0.49 0.81,-1.43 0.319,-2.097c-0.49,-0.667 -1.43,-0.81 -2.097,-0.319Z"/><path d="M95.661,48.642l-4.35,3.2c-0.667,0.49 -0.81,1.43 -0.319,2.097c0.49,0.667 1.43,0.81 2.097,0.319l4.35,-3.2c0.667,-0.49 0.81,-1.43 0.319,-2.097c-0.49,-0.667 -1.43,-0.81 -2.097,-0.319Z"/><path d="M13.311,15.142l-4.35,3.2c-0.667,0.49 -0.81,1.43 -0.319,2.097c0.49,0.667 1.43,0.81 2.097,0.319l4.35,-3.2c0.667,-0.49 0.81,-1.43 0.319,-2.097c-0.49,-0.667 -1.43,-0.81 -2.097,-0.319Z"/><path d="M80.711,14.442l-4.35,3.2c-0.667,0.49 -0.81,1.43 -0.319,2.097c0.49,0.667 1.43,0.81 2.097,0.319l4.35,-3.2c0.667,-0.49 0.81,-1.43 0.319,-2.097c-0.49,-0.667 -1.43,-0.81 -2.097,-0.319Z"/><path d="M54.611,6.992l-4.35,3.2c-0.667,0.49 -0.81,1.43 -0.319,2.097c0.49,0.667 1.43,0.81 2.097,0.319l4.35,-3.2c0.667,-0.49 0.81,-1.43 0.319,-2.097c-0.49,-0.667 -1.43,-0.81 -2.097,-0.319Z"/></g></svg>