<?xml version="1.0" encoding="UTF-8" standalone="no"?><!DOCTYPE svg PUBLIC "-//W3C//DTD SVG 1.1//EN" "http://www.w3.org/Graphics/SVG/1.1/DTD/svg11.dtd"><svg width="100%" height="100%" viewBox="0 0 136 62" version="1.1" xmlns="http://www.w3.org/2000/svg" xmlns:xlink="http://www.w3.org/1999/xlink" xml:space="preserve" xmlns:serif="http://www.serif.com/" style="fill-rule:evenodd;clip-rule:evenodd;stroke-linejoin:round;stroke-miterlimit:2;"><g><path d="M23.9,39.65l-1.5,3.25c0.767,1.367 1.233,2.267 1.4,2.7c0.4,0.933 0.6,1.933 0.6,3c-0,1.4 -0.75,2.467 -2.25,3.2c-1.133,0.5 -2.417,0.75 -3.85,0.75c-3.833,-0 -5.75,-1.7 -5.75,-5.1c-0,-0.633 0.267,-2.15 0.8,-4.55c-0.633,0.367 -1.2,1.433 -1.7,3.2c-0.4,1.5 -0.6,2.8 -0.6,3.9c-0,4.5 1.967,6.75 5.9,6.75c2.667,-0 4.817,-0.917 6.45,-2.75c1.667,-1.833 2.5,-4.267 2.5,-7.3l3.65,0c2.111,-0.043 3.645,-0.527 4.6,-1.45c1.1,-1.067 1.65,-2.9 1.65,-5.5c-0,-0.733 -0.267,-2.383 -0.8,-4.95c-0.6,1.6 -1.083,2.783 -1.45,3.55c0.567,1.233 0.917,2.133 1.05,2.7c-0.586,0.846 -2.269,1.263 -5.05,1.25l-1.95,-0c-0.833,-0 -1.45,-0.15 -1.85,-0.45c-0.367,-0.267 -0.983,-1 -1.85,-2.2Z"/><path d="M33.15,52.5l1.95,2.25l2.05,-2.3l-2.05,-2.2l-1.95,2.25Z"/><path d="M123.85,52.45l2,2.3l2,-2.25l-2,-2.25l-2,2.2Z"/><path d="M100.35,52.5l-2,-2.25l-2,2.2l2,2.3l2,-2.25Z"/><path d="M102.3,50.25l-1.95,2.25l1.95,2.25l2.05,-2.3l-2.05,-2.2Z"/><path d="M129.8,54.75l2.05,-2.3l-2.05,-2.2l-1.95,2.25l1.95,2.25Z"/><path d="M31.15,54.75l2,-2.25l-2,-2.25l-2,2.2l2,2.3Z"/><path d="M60.85,19.65c0,0.167 -0.05,0.433 -0.15,0.8c-0.1,0.333 -0.15,0.583 -0.15,0.75c-0,0.5 0.3,1.083 0.9,1.75c0.6,0.667 0.9,1.117 0.9,1.35c0,0.533 -0.183,1.233 -0.55,2.1c-0.367,0.833 -0.55,1.433 -0.55,1.8c-0,0.767 0.067,1.9 0.2,3.4c0.133,1.467 0.2,2.583 0.2,3.35l-0,4.1c-0,1.967 -0.25,3.6 -0.75,4.9c-0.633,1.833 -1.7,2.75 -3.2,2.75l-3.85,0c-0.733,0 -1.317,-0.567 -1.75,-1.7c-0.267,-0.933 -0.533,-1.867 -0.8,-2.8c-1.333,2.167 -2.183,3.433 -2.55,3.8c-0.833,0.7 -2.2,1.05 -4.1,1.05c-1.733,-0 -2.6,-0.45 -2.6,-1.35l-0,-4.45c0.9,1.033 1.867,1.55 2.9,1.55c1,-0 2.083,-0.233 3.25,-0.7c1.267,-0.533 2.183,-1.183 2.75,-1.95l-1.4,-8.5c-0.033,-0.167 0.267,-1.467 0.9,-3.9c0.467,3.1 0.917,5.667 1.35,7.7c0.867,4.133 1.6,6.367 2.2,6.7c0.168,0.084 0.435,0.134 0.8,0.15l-0,-0.05l1.35,0l0.7,0.05c2.067,0.067 3.1,-0.533 3.1,-1.8c0,-6.5 -0.233,-11.35 -0.7,-14.55c-0.7,-0.9 -1.1,-1.65 -1.2,-2.25c0.667,-2.167 1.583,-3.7 2.75,-4.6l0.05,0.55Z"/><path d="M111.75,38.2l-0.15,-18.65c-1.4,2.033 -2.083,3.267 -2.05,3.7l0.5,23.5c1.133,-1.067 1.7,-3.917 1.7,-8.55Z"/><path d="M69.3,19.55c-1.4,2.033 -2.083,3.267 -2.05,3.7l0.5,23.5c1.133,-1.067 1.7,-3.917 1.7,-8.55l-0.15,-18.65Z"/><path d="M118.75,20.3c-0.4,0.433 -0.783,0.867 -1.15,1.3c-0.3,0.433 -0.45,1.033 -0.45,1.8c0,5.933 0.033,9.75 0.1,11.45c0.2,5.767 0.7,9.233 1.5,10.4c0.633,0.967 1.533,1.45 2.7,1.45l3.1,0c1.957,-0.087 3.39,-0.571 4.3,-1.45c1.1,-1.067 1.65,-2.9 1.65,-5.5c0,-0.733 -0.267,-2.383 -0.8,-4.95c-0.6,1.6 -1.083,2.783 -1.45,3.55c0.567,1.233 0.917,2.133 1.05,2.7c-0.565,0.816 -2.148,1.232 -4.75,1.25l-0,-0.05c-2.5,0 -4.133,-0.55 -4.9,-1.65c-0.6,-0.967 -0.9,-2.967 -0.9,-6l0,-14.3Z"/><path d="M92.263,31.931c0.524,0.863 0.787,2.119 0.787,3.769c-0,1.1 -0.317,2.3 -0.95,3.6c-0.533,1.1 -1.2,2.083 -2,2.95c0.467,0.167 1.183,0.25 2.15,0.25c0.6,-0 1.467,-0.033 2.6,-0.1c0.213,-0.018 0.413,-0.035 0.6,-0.05l0,-0.05l0.65,-0c0.488,-0.033 0.838,-0.05 1.05,-0.05l0,0.05c2.543,-0.028 4.093,-0.445 4.65,-1.25c-0.133,-0.567 -0.483,-1.467 -1.05,-2.7c0.367,-0.767 0.85,-1.95 1.45,-3.55c0.533,2.567 0.8,4.217 0.8,4.95c-0,2.6 -0.55,4.433 -1.65,5.5c-1,0.967 -2.633,1.45 -4.9,1.45l-0.5,0c-0.309,0.033 -0.643,0.05 -1,0.05c-0.8,-0 -1.667,-0.083 -2.6,-0.25c-0,0.2 0.033,0.65 0.1,1.35c0.033,0.567 0.05,1.017 0.05,1.35c0,1.333 -0.217,2.567 -0.65,3.7c-0.533,1.467 -1.283,2.2 -2.25,2.2c-1.3,0 -2.383,-1.083 -3.25,-3.25c-0.7,-1.8 -1.05,-3.517 -1.05,-5.15l-4.45,0l0,-4.45l1.45,-0c1.249,-0.035 2.132,-0.101 2.65,-0.2c0.8,-0.167 1.6,-1.2 2.4,-3.1c0.667,-1.667 1.333,-3.35 2,-5.05c0.8,-1.8 1.567,-2.7 2.3,-2.7l0.613,0.731Zm-5.263,14.969c3,0.8 4.5,1.967 4.5,3.5c0,0.133 -0.133,0.3 -0.4,0.5c-0.267,0.2 -0.45,0.3 -0.55,0.3c-0.9,0 -1.7,-0.483 -2.4,-1.45c-0.567,-0.8 -0.95,-1.75 -1.15,-2.85Zm1.85,-8.45c0.467,-1 1,-1.85 1.6,-2.55c0.567,0.667 0.85,1.267 0.85,1.8c-0,1.1 -0.367,1.95 -1.1,2.55c-0.533,0.4 -1.367,0.733 -2.5,1c0.7,-1.7 1.083,-2.633 1.15,-2.8Z"/><path d="M18.4,38.6l2.3,-2.55l-2.3,-2.65l-2.3,2.65l2.3,2.55Z"/><path d="M99.75,26.25c-0.233,0 -0.433,-0.417 -0.6,-1.25l-0.2,0.05c-0.1,0.633 -0.2,1.067 -0.3,1.3c-0.167,0.5 -0.4,0.75 -0.7,0.75c-0.3,0 -0.45,-0.467 -0.45,-1.4l-0.25,0.05c-0.167,0.667 -0.25,1.083 -0.25,1.25c0,0.4 0.067,0.733 0.2,1c0.167,0.3 0.4,0.45 0.7,0.45c0.267,0 0.517,-0.117 0.75,-0.35c0.233,-0.2 0.367,-0.45 0.4,-0.75c0.233,0.167 0.467,0.25 0.7,0.25c0.8,0 1.2,-0.717 1.2,-2.15c0,-0.367 -0.05,-0.783 -0.15,-1.25l-0.25,0.15c-0,1.267 -0.267,1.9 -0.8,1.9Z"/><path d="M50.1,25.6l2.3,-2.55l-2.3,-2.6l-2.3,2.6l2.3,2.55Z"/><path d="M61.65,14.05c-0,-0.367 -0.05,-0.783 -0.15,-1.25l-0.25,0.15c0,1.267 -0.267,1.9 -0.8,1.9c-0.233,0 -0.433,-0.417 -0.6,-1.25l-0.2,0.05c-0.1,0.633 -0.2,1.067 -0.3,1.3c-0.167,0.5 -0.4,0.75 -0.7,0.75c-0.3,0 -0.45,-0.467 -0.45,-1.4l-0.25,0.05c-0.167,0.667 -0.25,1.083 -0.25,1.25c0,0.4 0.067,0.733 0.2,1c0.167,0.3 0.4,0.45 0.7,0.45c0.267,-0 0.517,-0.117 0.75,-0.35c0.233,-0.2 0.367,-0.45 0.4,-0.75c0.233,0.167 0.467,0.25 0.7,0.25c0.8,0 1.2,-0.717 1.2,-2.15Z"/><path d="M100.05,16.8c-0.3,-0.2 -0.517,-0.35 -0.65,-0.45c0.333,-0.767 0.5,-1.383 0.5,-1.85c0,-0.9 -0.383,-1.35 -1.15,-1.35c-0.533,-0 -1.017,0.317 -1.45,0.95c-0.367,0.567 -0.55,1.117 -0.55,1.65c0,0.433 0.367,0.9 1.1,1.4c-1.3,1.067 -2.517,1.883 -3.65,2.45c0.4,0.133 0.717,0.2 0.95,0.2c0.967,-0 2.1,-0.75 3.4,-2.25c0.533,0.367 0.983,0.633 1.35,0.8l0.15,-1.55Zm-1.3,-0.9c-0.733,-0.4 -1.1,-0.783 -1.1,-1.15c0.033,-0.133 0.133,-0.217 0.3,-0.25c0.6,0.067 0.9,0.383 0.9,0.95c-0,0.133 -0.033,0.283 -0.1,0.45Z"/><path d="M122.25,12.75c0.9,0 1.983,-0.383 3.25,-1.15c1.4,-0.867 2.1,-1.75 2.1,-2.65c-1.433,0.867 -2.217,1.317 -2.35,1.35c-0.9,0.433 -1.733,0.65 -2.5,0.65c-1.433,0 -2.783,-0.5 -4.05,-1.5c-1.033,1.767 -1.75,3.333 -2.15,4.7c0.333,-0.233 0.667,-0.633 1,-1.2c0.433,-0.667 0.75,-1.1 0.95,-1.3c1,0.5 1.6,0.783 1.8,0.85c0.5,0.167 1.15,0.25 1.95,0.25Z"/><path d="M75.35,21.6c-0.3,0.433 -0.45,1.033 -0.45,1.8c-0,5.933 0.033,9.75 0.1,11.45c0.2,5.767 0.7,9.233 1.5,10.4c0.633,0.967 1.533,1.45 2.7,1.45l1.65,0l0,-4.45l1,0c-2.247,-0.067 -3.73,-0.617 -4.45,-1.65c-0.6,-0.967 -0.9,-2.967 -0.9,-6l0,-14.3c-0.4,0.433 -0.783,0.867 -1.15,1.3Z" style="fill:#f00;"/><path d="M47.611,51.892l-4.35,3.2c-0.667,0.49 -0.81,1.43 -0.319,2.097c0.49,0.667 1.43,0.81 2.097,0.319l4.35,-3.2c0.667,-0.49 0.81,-1.43 0.319,-2.097c-0.49,-0.667 -1.43,-0.81 -2.097,-0.319Z"/><path d="M19.261,19.142l-4.35,3.2c-0.667,0.49 -0.81,1.43 -0.319,2.097c0.49,0.667 1.43,0.81 2.097,0.319l4.35,-3.2c0.667,-0.49 0.81,-1.43 0.319,-2.097c-0.49,-0.667 -1.43,-0.81 -2.097,-0.319Z"/><path d="M126.111,12.892l-4.35,3.2c-0.667,0.49 -0.81,1.43 -0.319,2.097c0.49,0.667 1.43,0.81 2.097,0.319l4.35,-3.2c0.667,-0.49 0.81,-1.43 0.319,-2.097c-0.49,-0.667 -1.43,-0.81 -2.097,-0.319Z"/><path d="M84.361,12.892l-4.35,3.2c-0.667,0.49 -0.81,1.43 -0.319,2.097c0.49,0.667 1.43,0.81 2.097,0.319l4.35,-3.2c0.667,-0.49 0.81,-1.43 0.319,-2.097c-0.49,-0.667 -1.43,-0.81 -2.097,-0.319Z"/><path d="M112.311,12.192l-4.35,3.2c-0.667,0.49 -0.81,1.43 -0.319,2.097c0.49,0.667 1.43,0.81 2.097,0.319l4.35,-3.2c0.667,-0.49 0.81,-1.43 0.319,-2.097c-0.49,-0.667 -1.43,-0.81 -2.097,-0.319Z"/><path d="M60.718,6.837l-4.4,3.2c-0.67,0.487 -0.818,1.426 -0.331,2.095c0.487,0.67 1.426,0.818 2.095,0.331l4.4,-3.2c0.67,-0.487 0.818,-1.426 0.331,-2.095c-0.487,-0.67 -1.426,-0.818 -2.095,-0.331Z"/></g></svg>