<?xml version="1.0" encoding="UTF-8" standalone="no"?><!DOCTYPE svg PUBLIC "-//W3C//DTD SVG 1.1//EN" "http://www.w3.org/Graphics/SVG/1.1/DTD/svg11.dtd"><svg width="100%" height="100%" viewBox="0 0 150 78" version="1.1" xmlns="http://www.w3.org/2000/svg" xmlns:xlink="http://www.w3.org/1999/xlink" xml:space="preserve" xmlns:serif="http://www.serif.com/" style="fill-rule:evenodd;clip-rule:evenodd;stroke-linejoin:round;stroke-miterlimit:2;"><g><path d="M74.4,25.7c-1.4,2.033 -2.083,3.267 -2.05,3.7l0.5,23.5c1.133,-1.067 1.7,-3.917 1.7,-8.55l-0.15,-18.65Z"/><path d="M36.25,29.4l0.5,23.5c1.133,-1.067 1.7,-3.917 1.7,-8.55l-0.15,-18.65c-1.4,2.033 -2.083,3.267 -2.05,3.7Z"/><path d="M111.5,25.7c-1.4,2.033 -2.083,3.267 -2.05,3.7l0.5,23.5c1.133,-1.067 1.7,-3.917 1.7,-8.55l-0.15,-18.65Z"/><path d="M140.15,32.85c0.1,-0.2 0.3,-0.917 0.6,-2.15c-1.267,-0.633 -1.9,-1.5 -1.9,-2.6c-0,-0.433 0.067,-1 0.2,-1.7c-1.167,1.1 -1.983,2.633 -2.45,4.6c0.067,0.267 0.267,0.667 0.6,1.2c0.3,0.5 0.45,0.85 0.45,1.05c0,0.767 -0.167,2.283 -0.5,4.55c-0.3,2.433 -0.567,3.85 -0.8,4.25c-3.1,-4.933 -4.8,-7.617 -5.1,-8.05c-2.7,-3.867 -4.75,-5.8 -6.15,-5.8c-0.5,-0 -0.9,0.267 -1.2,0.8c-0.267,0.467 -0.4,1 -0.4,1.6c0,1.067 0.3,2.083 0.9,3.05c0.667,1.067 1.45,1.6 2.35,1.6c0.4,0 0.7,-0.1 0.9,-0.3c0.333,-0.3 0.55,-0.467 0.65,-0.5c0.667,0.467 1.917,2.017 3.75,4.65c1.433,2.033 2.583,3.767 3.45,5.2c-0.333,0.733 -0.883,1.6 -1.65,2.6c-0.8,1.133 -1.45,1.867 -1.95,2.2l-1.55,-0.6l-0,4.2c1.033,0.367 2.383,0.55 4.05,0.55c1.567,-0 2.583,-0.233 3.05,-0.7c0.533,-0.533 0.8,-1.683 0.8,-3.45c0,-2.2 -0.4,-3.95 -1.2,-5.25c0.333,-1.1 0.633,-2.75 0.9,-4.95c0.233,-2.2 0.5,-3.75 0.8,-4.65l0.3,0.35c0.467,-0.3 0.833,-0.883 1.1,-1.75Zm-3.5,14.25c0.24,0.599 0.373,0.932 0.4,1c-0.02,0.026 -0.086,0.309 -0.2,0.85c-1.633,0.1 -2.6,0.15 -2.9,0.15c1.1,-1.133 1.85,-2.233 2.25,-3.3c0,0.133 0.15,0.567 0.45,1.3Z"/><path d="M31.3,30.45c-0,-0.233 -0.3,-0.683 -0.9,-1.35c-0.6,-0.667 -0.9,-1.25 -0.9,-1.75c-0,-0.167 0.05,-0.417 0.15,-0.75c0.1,-0.367 0.15,-0.633 0.15,-0.8l-0.05,-0.55c-1.167,0.9 -2.083,2.433 -2.75,4.6c0.1,0.6 0.5,1.35 1.2,2.25c0.467,3.2 0.7,8.05 0.7,14.55c0,1.267 -1.033,1.867 -3.1,1.8l-0.8,-0.05c-1.567,-0 -2.7,-0.517 -3.4,-1.55c-0.6,-0.9 -0.9,-2.283 -0.9,-4.15c0,-2.167 -0.117,-5.033 -0.35,-8.6c-0.267,-4.367 -0.433,-7.25 -0.5,-8.65c-1.367,1.233 -2.05,2.567 -2.05,4c-0,1.733 0.133,4.35 0.4,7.85c0.3,3.5 0.45,6.133 0.45,7.9c0,1.433 -0.4,2.367 -1.2,2.8c-0.435,0.232 -1.235,0.365 -2.4,0.4l-0.25,-0c-1.255,-0.031 -1.971,-0.098 -2.15,-0.2c-0.833,-0.4 -1.533,-2.2 -2.1,-5.4c-0.433,-2.533 -0.65,-4.667 -0.65,-6.4c-0.867,1.233 -1.3,2.017 -1.3,2.35l0.25,2.95c-1.933,1.167 -3.317,2.233 -4.15,3.2c-1.233,1.433 -1.85,3.133 -1.85,5.1c0,0.733 0.7,1.1 2.1,1.1c1.333,0 2.3,-0.15 2.9,-0.45c0.7,-0.333 1.433,-1.1 2.2,-2.3c0.3,0.967 0.617,1.917 0.95,2.85c0.5,1.1 1.15,1.65 1.95,1.65l3.65,0c0.667,0 1.3,-0.5 1.9,-1.5c0.867,-1.567 1.317,-2.367 1.35,-2.4c0.4,0.833 0.783,1.667 1.15,2.5c0.533,0.933 1.183,1.4 1.95,1.4l3.7,0c1.5,0 2.567,-0.917 3.2,-2.75c0.5,-1.3 0.75,-2.933 0.75,-4.9l-0,-4.1c-0,-0.767 -0.067,-1.883 -0.2,-3.35c-0.133,-1.5 -0.2,-2.633 -0.2,-3.4c0,-0.367 0.183,-0.967 0.55,-1.8c0.367,-0.867 0.55,-1.567 0.55,-2.1Zm-24.35,16.15c-0.4,0 -0.917,-0.133 -1.55,-0.4c1.3,-1 2.5,-1.783 3.6,-2.35c0.233,1 0.35,1.583 0.35,1.75c-0,0.267 -0.35,0.5 -1.05,0.7c-0.567,0.2 -1.017,0.3 -1.35,0.3Z"/><path d="M103,25.25c-1.167,0.9 -2.083,2.433 -2.75,4.6c0.1,0.6 0.5,1.35 1.2,2.25c0.467,3.2 0.7,8.05 0.7,14.55c0,1.267 -1.033,1.867 -3.1,1.8l-0.45,0l-0,-0.05c-2.1,-0 -3.267,-0.067 -3.5,-0.2c-0.833,-0.4 -1.533,-2.2 -2.1,-5.4c-0.433,-2.533 -0.65,-4.667 -0.65,-6.4c-0.867,1.233 -1.3,2.017 -1.3,2.35l0.25,2.95c-1.933,1.167 -3.317,2.233 -4.15,3.2c-1.233,1.433 -1.85,3.133 -1.85,5.1c-0,0.733 0.7,1.1 2.1,1.1c1.333,0 2.3,-0.15 2.9,-0.45c0.7,-0.333 1.433,-1.1 2.2,-2.3c0.3,0.967 0.617,1.917 0.95,2.85c0.5,1.1 1.15,1.65 1.95,1.65l4.5,0c1.5,0 2.567,-0.917 3.2,-2.75c0.5,-1.3 0.75,-2.933 0.75,-4.9l-0,-4.1c-0,-0.767 -0.067,-1.883 -0.2,-3.35c-0.133,-1.5 -0.2,-2.633 -0.2,-3.4c0,-0.367 0.183,-0.967 0.55,-1.8c0.367,-0.867 0.55,-1.567 0.55,-2.1c-0,-0.233 -0.3,-0.683 -0.9,-1.35c-0.6,-0.667 -0.9,-1.25 -0.9,-1.75c0,-0.167 0.05,-0.417 0.15,-0.75c0.1,-0.367 0.15,-0.633 0.15,-0.8l-0.05,-0.55Zm-11.2,20.35c-0,0.267 -0.35,0.5 -1.05,0.7c-0.567,0.2 -1.017,0.3 -1.35,0.3c-0.4,0 -0.917,-0.133 -1.55,-0.4c1.3,-1 2.5,-1.783 3.6,-2.35c0.233,1 0.35,1.583 0.35,1.75Z"/><path d="M9,30.1l0.15,-1.55c-0.3,-0.2 -0.517,-0.35 -0.65,-0.45c0.333,-0.767 0.5,-1.383 0.5,-1.85c0,-0.9 -0.383,-1.35 -1.15,-1.35c-0.533,-0 -1.017,0.317 -1.45,0.95c-0.367,0.567 -0.55,1.117 -0.55,1.65c0,0.433 0.367,0.9 1.1,1.4c-1.3,1.067 -2.517,1.883 -3.65,2.45c0.4,0.133 0.717,0.2 0.95,0.2c0.967,0 2.1,-0.75 3.4,-2.25c0.533,0.367 0.983,0.633 1.35,0.8Zm-1.05,-2.9c0,0.133 -0.033,0.283 -0.1,0.45c-0.733,-0.4 -1.1,-0.783 -1.1,-1.15c0.033,-0.133 0.133,-0.217 0.3,-0.25c0.6,0.067 0.9,0.383 0.9,0.95Z"/><path d="M98.55,20.8c-0.7,0.5 -1.05,0.95 -1.05,1.35c0,0.5 0.167,1.233 0.5,2.2c0.333,0.967 0.5,1.683 0.5,2.15c0,0.333 -0.033,0.6 -0.1,0.8c0.733,-0.4 1.1,-0.95 1.1,-1.65c0,-0.567 -0.15,-1.383 -0.45,-2.45c-0.333,-1.067 -0.5,-1.867 -0.5,-2.4Z"/><path d="M61.3,23.25l-0.2,0.05c-0.1,0.633 -0.2,1.067 -0.3,1.3c-0.167,0.5 -0.4,0.75 -0.7,0.75c-0.3,0 -0.45,-0.467 -0.45,-1.4l-0.25,0.05c-0.167,0.667 -0.25,1.083 -0.25,1.25c0,0.4 0.067,0.733 0.2,1c0.167,0.3 0.4,0.45 0.7,0.45c0.267,-0 0.517,-0.117 0.75,-0.35c0.233,-0.2 0.367,-0.45 0.4,-0.75c0.233,0.167 0.467,0.25 0.7,0.25c0.8,0 1.2,-0.717 1.2,-2.15c-0,-0.367 -0.05,-0.783 -0.15,-1.25l-0.25,0.15c0,1.267 -0.267,1.9 -0.8,1.9c-0.233,0 -0.433,-0.417 -0.6,-1.25Z"/><path d="M17.35,20.95c-0,0.4 0.067,0.733 0.2,1c0.167,0.3 0.4,0.45 0.7,0.45c0.267,-0 0.517,-0.117 0.75,-0.35c0.233,-0.2 0.367,-0.45 0.4,-0.75c0.233,0.167 0.467,0.25 0.7,0.25c0.8,0 1.2,-0.717 1.2,-2.15c-0,-0.367 -0.05,-0.783 -0.15,-1.25l-0.25,0.15c0,1.267 -0.267,1.9 -0.8,1.9c-0.233,-0 -0.433,-0.417 -0.6,-1.25l-0.2,0.05c-0.1,0.633 -0.2,1.067 -0.3,1.3c-0.167,0.5 -0.4,0.75 -0.7,0.75c-0.3,0 -0.45,-0.467 -0.45,-1.4l-0.25,0.05c-0.167,0.667 -0.25,1.083 -0.25,1.25Z"/><path d="M127.15,19.05c0.433,-0.667 0.75,-1.1 0.95,-1.3c1,0.5 1.6,0.783 1.8,0.85c0.5,0.167 1.15,0.25 1.95,0.25c0.9,0 1.983,-0.383 3.25,-1.15c1.4,-0.867 2.1,-1.75 2.1,-2.65c-1.433,0.867 -2.217,1.317 -2.35,1.35c-0.9,0.433 -1.733,0.65 -2.5,0.65c-1.433,0 -2.783,-0.5 -4.05,-1.5c-1.033,1.767 -1.75,3.333 -2.15,4.7c0.333,-0.233 0.667,-0.633 1,-1.2Z"/><path d="M67.55,30.7c-1.267,-0.633 -1.9,-1.5 -1.9,-2.6c0,-0.433 0.067,-1 0.2,-1.7c-1.167,1.1 -1.983,2.633 -2.45,4.6c0.067,0.267 0.267,0.667 0.6,1.2c0.3,0.5 0.45,0.85 0.45,1.05c0,0.767 -0.167,2.283 -0.5,4.55c-0.3,2.433 -0.567,3.85 -0.8,4.25c-3.1,-4.933 -4.8,-7.617 -5.1,-8.05c-2.7,-3.867 -4.75,-5.8 -6.15,-5.8c-0.5,-0 -0.9,0.267 -1.2,0.8c-0.267,0.467 -0.4,1 -0.4,1.6c-0,1.067 0.3,2.083 0.9,3.05c0.667,1.067 1.45,1.6 2.35,1.6c0.4,0 0.7,-0.1 0.9,-0.3c0.333,-0.3 0.55,-0.467 0.65,-0.5c0.667,0.467 1.917,2.017 3.75,4.65c1.433,2.033 2.583,3.767 3.45,5.2c-0.333,0.733 -0.883,1.6 -1.65,2.6c-0.8,1.133 -1.45,1.867 -1.95,2.2l-1.55,-0.6l0,4.2c1.033,0.367 2.383,0.55 4.05,0.55c1.567,-0 2.583,-0.233 3.05,-0.7c0.533,-0.533 0.8,-1.683 0.8,-3.45c-0,-2.2 -0.4,-3.95 -1.2,-5.25c0.333,-1.1 0.633,-2.75 0.9,-4.95c0.233,-2.2 0.5,-3.75 0.8,-4.65l0.3,0.35c0.467,-0.3 0.833,-0.883 1.1,-1.75c0.1,-0.2 0.3,-0.917 0.6,-2.15Zm-4.1,16.4c0.24,0.599 0.373,0.932 0.4,1c-0.02,0.026 -0.086,0.309 -0.2,0.85c-1.633,0.1 -2.6,0.15 -2.9,0.15c1.1,-1.133 1.85,-2.233 2.25,-3.3c0,0.133 0.15,0.567 0.45,1.3Z" style="fill:#f00;"/><path d="M75.668,54.537l-4.4,3.2c-0.67,0.487 -0.818,1.426 -0.331,2.095c0.487,0.67 1.426,0.818 2.095,0.331l4.4,-3.2c0.67,-0.487 0.818,-1.426 0.331,-2.095c-0.487,-0.67 -1.426,-0.818 -2.095,-0.331Z"/><path d="M112.711,53.692l-4.35,3.2c-0.667,0.49 -0.81,1.43 -0.319,2.097c0.49,0.667 1.43,0.81 2.097,0.319l4.35,-3.2c0.667,-0.49 0.81,-1.43 0.319,-2.097c-0.49,-0.667 -1.43,-0.81 -2.097,-0.319Z"/><path d="M91.311,22.192l-4.35,3.2c-0.667,0.49 -0.81,1.43 -0.319,2.097c0.49,0.667 1.43,0.81 2.097,0.319l4.35,-3.2c0.667,-0.49 0.81,-1.43 0.319,-2.097c-0.49,-0.667 -1.43,-0.81 -2.097,-0.319Z"/><path d="M134.068,19.337l-4.4,3.2c-0.67,0.487 -0.818,1.426 -0.331,2.095c0.487,0.67 1.426,0.818 2.095,0.331l4.4,-3.2c0.67,-0.487 0.818,-1.426 0.331,-2.095c-0.487,-0.67 -1.426,-0.818 -2.095,-0.331Z"/><path d="M62.011,15.792l-4.35,3.2c-0.667,0.49 -0.81,1.43 -0.319,2.097c0.49,0.667 1.43,0.81 2.097,0.319l4.35,-3.2c0.667,-0.49 0.81,-1.43 0.319,-2.097c-0.49,-0.667 -1.43,-0.81 -2.097,-0.319Z"/><path d="M20.118,10.987l-4.4,3.2c-0.67,0.487 -0.818,1.426 -0.331,2.095c0.487,0.67 1.426,0.818 2.095,0.331l4.4,-3.2c0.67,-0.487 0.818,-1.426 0.331,-2.095c-0.487,-0.67 -1.426,-0.818 -2.095,-0.331Z"/></g></svg>