<?xml version="1.0" encoding="UTF-8" standalone="no"?><!DOCTYPE svg PUBLIC "-//W3C//DTD SVG 1.1//EN" "http://www.w3.org/Graphics/SVG/1.1/DTD/svg11.dtd"><svg width="100%" height="100%" viewBox="0 0 119 85" version="1.1" xmlns="http://www.w3.org/2000/svg" xmlns:xlink="http://www.w3.org/1999/xlink" xml:space="preserve" xmlns:serif="http://www.serif.com/" style="fill-rule:evenodd;clip-rule:evenodd;stroke-linejoin:round;stroke-miterlimit:2;"><g><path d="M16.8,36.1c0.1,-0.767 0.2,-1.533 0.3,-2.3c-0.967,-0.133 -1.583,-0.6 -1.85,-1.4c-0.133,-0.467 -0.2,-1.35 -0.2,-2.65c-0.767,1.133 -1.4,2.783 -1.9,4.95c0.5,0.767 0.9,1.317 1.2,1.65c0.067,1.233 0.3,4.467 0.7,9.7c0.333,4.067 0.5,7.333 0.5,9.8c-0,1.1 -0.683,1.967 -2.05,2.6c-1.067,0.533 -2.15,0.8 -3.25,0.8c-3.167,-0 -4.75,-1.55 -4.75,-4.65c0,-0.133 0.15,-1.45 0.45,-3.95c-0.6,0.6 -1.083,1.683 -1.45,3.25c-0.3,1.267 -0.45,2.5 -0.45,3.7c-0,2.2 0.4,3.8 1.2,4.8c0.833,1.033 2.2,1.55 4.1,1.55c5.167,-0 7.75,-4.217 7.75,-12.65c0,-4.233 -0.4,-8.683 -1.2,-13.35c0.433,-0.267 0.733,-0.883 0.9,-1.85Z"/><path d="M57.2,30.15c-1.4,2.033 -2.083,3.267 -2.05,3.7l0.5,23.5c1.133,-1.067 1.7,-3.917 1.7,-8.55l-0.15,-18.65Z"/><path d="M22.55,32.2c-0.3,0.433 -0.45,1.033 -0.45,1.8c0,5.933 0.033,9.75 0.1,11.45c0.2,5.767 0.7,9.233 1.5,10.4c0.633,0.967 1.533,1.45 2.7,1.45l3.1,0l-0,-0.1l-1.5,-0l-0,-4.45c-1.666,-0.171 -2.799,-0.688 -3.4,-1.55c-0.6,-0.967 -0.9,-2.967 -0.9,-6l0,-14.3c-0.4,0.433 -0.783,0.867 -1.15,1.3Z"/><path d="M107.65,34.9c-0,-0.233 -0.3,-0.683 -0.9,-1.35c-0.6,-0.667 -0.9,-1.25 -0.9,-1.75c0,-0.167 0.05,-0.417 0.15,-0.75c0.1,-0.367 0.15,-0.633 0.15,-0.8l-0.05,-0.55c-1.167,0.9 -2.083,2.433 -2.75,4.6c0.1,0.6 0.5,1.35 1.2,2.25c0.467,3.2 0.7,8.05 0.7,14.55c-0,1.267 -1.033,1.867 -3.1,1.8l-0.75,-0.05l-0,-0.1c-1.867,0 -3.267,-0.433 -4.2,-1.3c-0.333,-0.267 -0.883,-1.05 -1.65,-2.35c-0.5,-0.867 -1.133,-1.3 -1.9,-1.3c-0.6,0 -1.433,0.733 -2.5,2.2c-1.1,1.533 -1.95,2.383 -2.55,2.55c-0.467,0.133 -1.517,0.2 -3.15,0.2l0,4.45l3.25,-0c0.333,-0 0.667,-0.217 1,-0.65c0.233,-0.367 0.467,-0.733 0.7,-1.1c1.633,1.8 3.183,2.7 4.65,2.7c0.6,-0 1,-0.217 1.2,-0.65c0.3,-0.633 0.533,-1 0.7,-1.1c0.8,0.533 1.367,0.8 1.7,0.8l1.45,-0l0,0.1l2.9,0c1.5,0 2.567,-0.917 3.2,-2.75c0.5,-1.3 0.75,-2.933 0.75,-4.9l0,-4.1c0,-0.767 -0.067,-1.883 -0.2,-3.35c-0.133,-1.5 -0.2,-2.633 -0.2,-3.4c-0,-0.367 0.183,-0.967 0.55,-1.8c0.367,-0.867 0.55,-1.567 0.55,-2.1Zm-14.5,18.35c-0.8,-0.6 -1.2,-1.083 -1.2,-1.45c0,-0.233 0.517,-0.917 1.55,-2.05c0.4,0.567 0.717,1.233 0.95,2c0.3,1.067 0.45,1.633 0.45,1.7l-0,0.8c-0.567,-0.233 -1.15,-0.567 -1.75,-1Z"/><path d="M49.55,24.4c-0,-0.6 -0.15,-1.15 -0.45,-1.65c-0.333,-0.5 -0.75,-0.75 -1.25,-0.75c-0.667,-0 -1.183,0.333 -1.55,1c-0.3,0.567 -0.45,1.267 -0.45,2.1c0,1.333 0.517,2 1.55,2c0.6,0 1.117,-0.283 1.55,-0.85c0.4,-0.533 0.6,-1.15 0.6,-1.85Zm-3.25,0.1c-0,-0.733 0.3,-1.1 0.9,-1.1c0.267,-0 0.583,0.167 0.95,0.5c0.433,0.333 0.65,0.633 0.65,0.9c-0,0.433 -0.383,0.65 -1.15,0.65c-0.9,-0 -1.35,-0.317 -1.35,-0.95Z"/><path d="M13.65,27.5l0.15,-1.55c-0.3,-0.2 -0.517,-0.35 -0.65,-0.45c0.333,-0.767 0.5,-1.383 0.5,-1.85c-0,-0.9 -0.383,-1.35 -1.15,-1.35c-0.533,0 -1.017,0.317 -1.45,0.95c-0.367,0.567 -0.55,1.117 -0.55,1.65c0,0.433 0.367,0.9 1.1,1.4c-1.3,1.067 -2.517,1.883 -3.65,2.45c0.4,0.133 0.717,0.2 0.95,0.2c0.967,-0 2.1,-0.75 3.4,-2.25c0.533,0.367 0.983,0.633 1.35,0.8Zm-1.15,-2.45c-0.733,-0.4 -1.1,-0.783 -1.1,-1.15c0.033,-0.133 0.133,-0.217 0.3,-0.25c0.6,0.067 0.9,0.383 0.9,0.95c0,0.133 -0.033,0.283 -0.1,0.45Z"/><path d="M69.6,58.05c0,-0.633 0.267,-2.15 0.8,-4.55c-0.633,0.367 -1.2,1.433 -1.7,3.2c-0.4,1.5 -0.6,2.8 -0.6,3.9c0,4.5 1.967,6.75 5.9,6.75c2.667,0 4.817,-0.917 6.45,-2.75c1.667,-1.833 2.5,-4.267 2.5,-7.3l3.65,0l0,-0.1l-1.15,-0l0,-4.3l-0.8,-0c-0.833,-0 -1.45,-0.15 -1.85,-0.45c-0.367,-0.267 -0.983,-1 -1.85,-2.2l-1.5,3.25c0.767,1.367 1.233,2.267 1.4,2.7c0.4,0.933 0.6,1.933 0.6,3c0,1.4 -0.75,2.467 -2.25,3.2c-1.133,0.5 -2.417,0.75 -3.85,0.75c-3.833,-0 -5.75,-1.7 -5.75,-5.1Z" style="fill:#f00;"/><path d="M45.9,34.3c0.1,0.6 0.5,1.35 1.2,2.25c0.467,3.2 0.7,8.05 0.7,14.55c-0,1.267 -1.033,1.867 -3.1,1.8l-0.75,-0.05l0,-0.1c-1.867,-0 -3.267,-0.433 -4.2,-1.3c-0.333,-0.267 -0.883,-1.05 -1.65,-2.35c-0.5,-0.867 -1.133,-1.3 -1.9,-1.3c-0.6,0 -1.433,0.733 -2.5,2.2c-1.1,1.533 -1.95,2.383 -2.55,2.55c-0.467,0.133 -1.517,0.2 -3.15,0.2l-0,4.45l3.25,-0c0.333,-0 0.667,-0.217 1,-0.65c0.233,-0.367 0.467,-0.733 0.7,-1.1c1.633,1.8 3.183,2.7 4.65,2.7c0.6,-0 1,-0.217 1.2,-0.65c0.3,-0.633 0.533,-1 0.7,-1.1c0.8,0.533 1.367,0.8 1.7,0.8l1.45,-0l-0,0.1l2.9,-0c1.5,-0 2.567,-0.917 3.2,-2.75c0.5,-1.3 0.75,-2.933 0.75,-4.9l-0,-4.1c-0,-0.767 -0.067,-1.883 -0.2,-3.35c-0.133,-1.5 -0.2,-2.633 -0.2,-3.4c0,-0.367 0.183,-0.967 0.55,-1.8c0.367,-0.867 0.55,-1.567 0.55,-2.1c0,-0.233 -0.3,-0.683 -0.9,-1.35c-0.6,-0.667 -0.9,-1.25 -0.9,-1.75c-0,-0.167 0.05,-0.417 0.15,-0.75c0.1,-0.367 0.15,-0.633 0.15,-0.8l-0.05,-0.55c-1.167,0.9 -2.083,2.433 -2.75,4.6Zm-8.45,19.95c-0.567,-0.233 -1.15,-0.567 -1.75,-1c-0.8,-0.6 -1.2,-1.083 -1.2,-1.45c0,-0.233 0.517,-0.917 1.55,-2.05c0.4,0.567 0.717,1.233 0.95,2c0.3,1.067 0.45,1.633 0.45,1.7l0,0.8Z" style="fill:#f00;"/><path d="M75.45,49.2l2.3,-2.55l-2.3,-2.65l-2.3,2.65l2.3,2.55Z" style="fill:#f00;"/><path d="M77.118,68.237l-4.4,3.2c-0.67,0.487 -0.818,1.426 -0.331,2.095c0.487,0.67 1.426,0.818 2.095,0.331l4.4,-3.2c0.67,-0.487 0.818,-1.426 0.331,-2.095c-0.487,-0.67 -1.426,-0.818 -2.095,-0.331Z"/><path d="M107.111,59.092l-4.35,3.2c-0.667,0.49 -0.81,1.43 -0.319,2.097c0.49,0.667 1.43,0.81 2.097,0.319l4.35,-3.2c0.667,-0.49 0.81,-1.43 0.319,-2.097c-0.49,-0.667 -1.43,-0.81 -2.097,-0.319Z"/><path d="M32.211,25.492l-4.35,3.2c-0.667,0.49 -0.81,1.43 -0.319,2.097c0.49,0.667 1.43,0.81 2.097,0.319l4.35,-3.2c0.667,-0.49 0.81,-1.43 0.319,-2.097c-0.49,-0.667 -1.43,-0.81 -2.097,-0.319Z"/><path d="M94.611,25.492l-4.35,3.2c-0.667,0.49 -0.81,1.43 -0.319,2.097c0.49,0.667 1.43,0.81 2.097,0.319l4.35,-3.2c0.667,-0.49 0.81,-1.43 0.319,-2.097c-0.49,-0.667 -1.43,-0.81 -2.097,-0.319Z"/></g></svg>