<?xml version="1.0" encoding="UTF-8" standalone="no"?><!DOCTYPE svg PUBLIC "-//W3C//DTD SVG 1.1//EN" "http://www.w3.org/Graphics/SVG/1.1/DTD/svg11.dtd"><svg width="100%" height="100%" viewBox="0 0 158 85" version="1.1" xmlns="http://www.w3.org/2000/svg" xmlns:xlink="http://www.w3.org/1999/xlink" xml:space="preserve" xmlns:serif="http://www.serif.com/" style="fill-rule:evenodd;clip-rule:evenodd;stroke-linejoin:round;stroke-miterlimit:2;"><g><path d="M36.15,65.95l2.05,-2.3l-2.05,-2.25l-1.95,2.25l-2,-2.25l-2.05,2.25l2.05,2.3l1.95,-2.3l2,2.3Z"/><path d="M105.45,30.05c-1.4,2.033 -2.083,3.267 -2.05,3.7l0.5,23.5c1.133,-1.067 1.7,-3.917 1.7,-8.55l-0.15,-18.65Z"/><path d="M84.45,47.7c-0.6,-0 -1.433,0.733 -2.5,2.2c-1.1,1.533 -1.95,2.383 -2.55,2.55c-0.467,0.133 -1.517,0.2 -3.15,0.2l0,0.3c-0.423,0.013 -0.856,-0.004 -1.3,-0.05c-0.367,-0.867 -0.717,-1.733 -1.05,-2.6c-0.567,-1.133 -1.133,-1.7 -1.7,-1.7c-0.7,0 -1.433,0.833 -2.2,2.5c-0.7,1.533 -1.05,2.783 -1.05,3.75c0,1.2 0.5,1.95 1.5,2.25c0.933,0.167 1.867,0.333 2.8,0.5c-1.1,1.867 -2.25,3.217 -3.45,4.05c-1.333,1 -2.9,1.5 -4.7,1.5c-0.967,-0 -2.383,-0.1 -4.25,-0.3c1.733,1.967 3.75,2.95 6.05,2.95c1.967,0 3.65,-0.933 5.05,-2.8c0.967,-1.3 1.9,-3.233 2.8,-5.8l2.95,-0l0,-0.1l1.8,0c0.333,0 0.667,-0.217 1,-0.65c0.233,-0.367 0.467,-0.733 0.7,-1.1c1.633,1.8 3.183,2.7 4.65,2.7c0.6,0 1,-0.217 1.2,-0.65c0.3,-0.633 0.533,-1 0.7,-1.1c0.8,0.533 1.367,0.8 1.7,0.8l2.75,0l0,-4.45c-1.867,-0 -3.267,-0.433 -4.2,-1.3c-0.333,-0.267 -0.883,-1.05 -1.65,-2.35c-0.5,-0.867 -1.133,-1.3 -1.9,-1.3Zm-12,5.1c0.167,0.233 0.317,0.717 0.45,1.45c-0.6,-0 -1.3,-0.067 -2.1,-0.2c-0,-0.333 -0.05,-0.55 -0.15,-0.65c0.233,-0.533 0.467,-1.017 0.7,-1.45c0.6,0.3 0.967,0.583 1.1,0.85Zm13.25,0.55l0,0.8c-0.567,-0.233 -1.15,-0.567 -1.75,-1c-0.8,-0.6 -1.2,-1.083 -1.2,-1.45c0,-0.233 0.517,-0.917 1.55,-2.05c0.4,0.567 0.717,1.233 0.95,2c0.3,1.067 0.45,1.633 0.45,1.7Z"/><path d="M56.1,46.35c-0.667,1.167 -1.333,2.333 -2,3.5c-0.833,1.4 -1.583,2.25 -2.25,2.55c-0.4,0.167 -1.55,0.25 -3.45,0.25l-0,0.05c-1.072,-0.024 -1.739,-0.108 -2,-0.25c-0.733,-0.4 -1.1,-1.567 -1.1,-3.5c-0.6,0.533 -1,1.2 -1.2,2c-0.2,0.7 -0.5,1.15 -0.9,1.35c-0.7,0.3 -2.117,0.45 -4.25,0.45l0,0.1c-0.687,0.033 -1.17,0.05 -1.45,0.05c-1,-0 -1.717,-0.217 -2.15,-0.65c-0.5,-0.567 -0.767,-1.617 -0.8,-3.15c-0.933,1.733 -1.567,2.767 -1.9,3.1c-0.4,0.433 -1.083,0.65 -2.05,0.65c-0.2,0 -0.683,-0.017 -1.45,-0.05c-0.767,-0.033 -1.467,-0.05 -2.1,-0.05l-0,0.05l-0.6,0c-0.833,0 -1.45,-0.15 -1.85,-0.45c-0.367,-0.267 -0.983,-1 -1.85,-2.2l-1.5,3.25c0.767,1.367 1.233,2.267 1.4,2.7c0.4,0.933 0.6,1.933 0.6,3c0,1.4 -0.75,2.467 -2.25,3.2c-1.133,0.5 -2.417,0.75 -3.85,0.75c-3.833,0 -5.75,-1.7 -5.75,-5.1c-0,-0.633 0.267,-2.15 0.8,-4.55c-0.633,0.367 -1.2,1.433 -1.7,3.2c-0.4,1.5 -0.6,2.8 -0.6,3.9c-0,4.5 1.967,6.75 5.9,6.75c2.667,0 4.817,-0.917 6.45,-2.75c1.667,-1.833 2.5,-4.267 2.5,-7.3l5.8,-0c0.767,-0 1.383,-0.317 1.85,-0.95c0.067,-0.1 0.433,-0.8 1.1,-2.1c0.333,0.667 0.817,1.317 1.45,1.95c0.733,0.733 1.367,1.1 1.9,1.1l4.4,-0c0.767,-0 1.383,-0.317 1.85,-0.95c0.133,-0.2 0.517,-0.883 1.15,-2.05c0.733,1.267 1.117,1.933 1.15,2c0.533,0.667 1.15,1 1.85,1l2.65,-0l-0,-0.1l1.6,0c0.7,0 1.317,-0.417 1.85,-1.25c0.4,-0.767 0.8,-1.533 1.2,-2.3c1.167,0.867 1.8,1.333 1.9,1.4c0.8,0.5 1.517,0.75 2.15,0.75c1,-0 1.75,-0.533 2.25,-1.6c0.433,-0.867 0.65,-1.917 0.65,-3.15c0,-1 -0.333,-2.267 -1,-3.8c-0.7,-1.733 -1.417,-2.6 -2.15,-2.6c-0.7,0 -1.45,0.6 -2.25,1.8Zm1.2,1.75c0.6,0 1.1,0.383 1.5,1.15c0.1,0.267 0.317,0.8 0.65,1.6l0,0.95c-0.433,0.133 -0.667,0.2 -0.7,0.2c-0.4,-0 -1.367,-0.583 -2.9,-1.75c0.667,-1.433 1.15,-2.15 1.45,-2.15Z"/><path d="M137.15,52.4c-0.4,0.167 -1.55,0.25 -3.45,0.25l0,4.45l3.1,0c0.7,0 1.317,-0.417 1.85,-1.25c0.4,-0.767 0.8,-1.533 1.2,-2.3c1.167,0.867 1.8,1.333 1.9,1.4c0.8,0.5 1.517,0.75 2.15,0.75c1,-0 1.75,-0.533 2.25,-1.6c0.433,-0.867 0.65,-1.917 0.65,-3.15c-0,-1 -0.333,-2.267 -1,-3.8c-0.7,-1.733 -1.417,-2.6 -2.15,-2.6c-0.7,0 -1.45,0.6 -2.25,1.8c-0.667,1.167 -1.333,2.333 -2,3.5c-0.833,1.4 -1.583,2.25 -2.25,2.55Zm5.45,-4.3c0.6,0 1.1,0.383 1.5,1.15c0.1,0.267 0.317,0.8 0.65,1.6l0,0.95c-0.433,0.133 -0.667,0.2 -0.7,0.2c-0.4,-0 -1.367,-0.583 -2.9,-1.75c0.667,-1.433 1.15,-2.15 1.45,-2.15Z"/><path d="M17.25,49.1l2.3,-2.55l-2.3,-2.65l-2.3,2.65l2.3,2.55Z"/><path d="M44.15,39.1l-2.3,2.65l2.25,2.55l2.3,-2.55l-2.25,-2.65Z"/><path d="M69,35.3c-0.967,0.933 -1.45,1.65 -1.45,2.15c-0,0.2 0.117,0.517 0.35,0.95c0.233,0.433 0.35,0.767 0.35,1c0,0.133 -0.033,0.333 -0.1,0.6c-0.1,0.3 -0.15,0.517 -0.15,0.65c0,0.133 0.017,0.317 0.05,0.55c1.333,-1.233 2.5,-1.85 3.5,-1.85c0.833,0 1.283,-0.017 1.35,-0.05c0.2,-0.433 0.417,-0.85 0.65,-1.25c-0.2,0 -0.517,0.017 -0.95,0.05l-0.95,0c-1.167,0 -2.083,-0.283 -2.75,-0.85c0.367,-1 0.85,-1.5 1.45,-1.5c0.167,0 0.383,0.05 0.65,0.15c0.3,0.1 0.533,0.15 0.7,0.15c0.3,0 0.45,-0.35 0.45,-1.05c-0,-0.267 -0.1,-0.5 -0.3,-0.7c-0.2,-0.233 -0.417,-0.35 -0.65,-0.35c-0.467,-0 -1.2,0.45 -2.2,1.35Z"/><path d="M69.35,30c0.6,0 1.117,-0.283 1.55,-0.85c0.4,-0.533 0.6,-1.15 0.6,-1.85c0,-0.6 -0.15,-1.15 -0.45,-1.65c-0.333,-0.5 -0.75,-0.75 -1.25,-0.75c-0.667,-0 -1.183,0.333 -1.55,1c-0.3,0.567 -0.45,1.267 -0.45,2.1c-0,1.333 0.517,2 1.55,2Zm1.4,-2.3c0,0.433 -0.383,0.65 -1.15,0.65c-0.9,0 -1.35,-0.317 -1.35,-0.95c0,-0.733 0.3,-1.1 0.9,-1.1c0.267,0 0.583,0.167 0.95,0.5c0.433,0.333 0.65,0.633 0.65,0.9Z"/><path d="M85.65,23.8c-0.533,0 -1.017,0.317 -1.45,0.95c-0.367,0.567 -0.55,1.117 -0.55,1.65c-0,0.433 0.367,0.9 1.1,1.4c-1.3,1.067 -2.517,1.883 -3.65,2.45c0.4,0.133 0.717,0.2 0.95,0.2c0.967,-0 2.1,-0.75 3.4,-2.25c0.533,0.367 0.983,0.633 1.35,0.8l0.15,-1.55c-0.3,-0.2 -0.517,-0.35 -0.65,-0.45c0.333,-0.767 0.5,-1.383 0.5,-1.85c-0,-0.9 -0.383,-1.35 -1.15,-1.35Zm0.1,2.3c0,0.133 -0.033,0.283 -0.1,0.45c-0.733,-0.4 -1.1,-0.783 -1.1,-1.15c0.033,-0.133 0.133,-0.217 0.3,-0.25c0.6,0.067 0.9,0.383 0.9,0.95Z"/><path d="M97.75,26.3c0.4,-0.533 0.6,-1.15 0.6,-1.85c-0,-0.6 -0.15,-1.15 -0.45,-1.65c-0.333,-0.5 -0.75,-0.75 -1.25,-0.75c-0.667,0 -1.183,0.333 -1.55,1c-0.3,0.567 -0.45,1.267 -0.45,2.1c0,1.333 0.517,2 1.55,2c0.6,-0 1.117,-0.283 1.55,-0.85Zm-0.8,-2.35c0.433,0.333 0.65,0.633 0.65,0.9c-0,0.433 -0.383,0.65 -1.15,0.65c-0.9,0 -1.35,-0.317 -1.35,-0.95c-0,-0.733 0.3,-1.1 0.9,-1.1c0.267,-0 0.583,0.167 0.95,0.5Z"/><path d="M116.95,56.6c-0.4,1.5 -0.6,2.8 -0.6,3.9c-0,4.5 1.967,6.75 5.9,6.75c2.667,0 4.817,-0.917 6.45,-2.75c1.667,-1.833 2.5,-4.267 2.5,-7.3l3.65,-0l-0,-0.1l-1.15,0l0,-4.3l-0.8,0c-0.833,0 -1.45,-0.15 -1.85,-0.45c-0.367,-0.267 -0.983,-1 -1.85,-2.2l-1.5,3.25c0.767,1.367 1.233,2.267 1.4,2.7c0.4,0.933 0.6,1.933 0.6,3c0,1.4 -0.75,2.467 -2.25,3.2c-1.133,0.5 -2.417,0.75 -3.85,0.75c-3.833,0 -5.75,-1.7 -5.75,-5.1c-0,-0.633 0.267,-2.15 0.8,-4.55c-0.633,0.367 -1.2,1.433 -1.7,3.2Z" style="fill:#f00;"/><path d="M98.45,34.8c0,-0.233 -0.3,-0.683 -0.9,-1.35c-0.6,-0.667 -0.9,-1.25 -0.9,-1.75c0,-0.167 0.05,-0.417 0.15,-0.75c0.1,-0.367 0.15,-0.633 0.15,-0.8l-0.05,-0.55c-1.167,0.9 -2.083,2.433 -2.75,4.6c0.1,0.6 0.5,1.35 1.2,2.25c0.467,3.2 0.7,8.05 0.7,14.55c-0,1.267 -1.033,1.867 -3.1,1.8l-0.75,-0.05l0,4.35l-1.3,0l0,0.1l2.9,-0c1.5,-0 2.567,-0.917 3.2,-2.75c0.5,-1.3 0.75,-2.933 0.75,-4.9l-0,-4.1c-0,-0.767 -0.067,-1.883 -0.2,-3.35c-0.133,-1.5 -0.2,-2.633 -0.2,-3.4c-0,-0.367 0.183,-0.967 0.55,-1.8c0.367,-0.867 0.55,-1.567 0.55,-2.1Z" style="fill:#f00;"/><path d="M123.7,49.1l2.3,-2.55l-2.3,-2.65l-2.3,2.65l2.3,2.55Z" style="fill:#f00;"/><path d="M144.161,61.642l-4.35,3.2c-0.667,0.49 -0.81,1.43 -0.319,2.097c0.49,0.667 1.43,0.81 2.097,0.319l4.35,-3.2c0.667,-0.49 0.81,-1.43 0.319,-2.097c-0.49,-0.667 -1.43,-0.81 -2.097,-0.319Z"/><path d="M57.211,60.242l-4.35,3.2c-0.667,0.49 -0.81,1.43 -0.319,2.097c0.49,0.667 1.43,0.81 2.097,0.319l4.35,-3.2c0.667,-0.49 0.81,-1.43 0.319,-2.097c-0.49,-0.667 -1.43,-0.81 -2.097,-0.319Z"/><path d="M45.711,60.242l-4.35,3.2c-0.667,0.49 -0.81,1.43 -0.319,2.097c0.49,0.667 1.43,0.81 2.097,0.319l4.35,-3.2c0.667,-0.49 0.81,-1.43 0.319,-2.097c-0.49,-0.667 -1.43,-0.81 -2.097,-0.319Z"/><path d="M17.811,28.392l-4.35,3.2c-0.667,0.49 -0.81,1.43 -0.319,2.097c0.49,0.667 1.43,0.81 2.097,0.319l4.35,-3.2c0.667,-0.49 0.81,-1.43 0.319,-2.097c-0.49,-0.667 -1.43,-0.81 -2.097,-0.319Z"/><path d="M124.252,26.948l-4.35,3.25c-0.663,0.496 -0.799,1.437 -0.304,2.1c0.496,0.663 1.437,0.799 2.1,0.304l4.35,-3.25c0.663,-0.496 0.799,-1.437 0.304,-2.1c-0.496,-0.663 -1.437,-0.799 -2.1,-0.304Z"/></g></svg>