<?xml version="1.0" encoding="UTF-8" standalone="no"?><!DOCTYPE svg PUBLIC "-//W3C//DTD SVG 1.1//EN" "http://www.w3.org/Graphics/SVG/1.1/DTD/svg11.dtd"><svg width="100%" height="100%" viewBox="0 0 139 78" version="1.1" xmlns="http://www.w3.org/2000/svg" xmlns:xlink="http://www.w3.org/1999/xlink" xml:space="preserve" xmlns:serif="http://www.serif.com/" style="fill-rule:evenodd;clip-rule:evenodd;stroke-linejoin:round;stroke-miterlimit:2;"><g><path d="M55.5,62.4l2.3,-2.55l-2.3,-2.6l-2.25,2.6l2.25,2.55Z"/><path d="M43.4,59.85l-2.3,-2.6l-2.3,2.6l2.3,2.55l2.3,-2.55Z"/><path d="M11.85,53.05c0,2.2 0.4,3.8 1.2,4.8c0.833,1.033 2.2,1.55 4.1,1.55c5.167,-0 7.75,-4.217 7.75,-12.65c-0,-4.233 -0.4,-8.683 -1.2,-13.35c0.433,-0.267 0.733,-0.883 0.9,-1.85c0.1,-0.767 0.2,-1.533 0.3,-2.3c-0.967,-0.133 -1.583,-0.6 -1.85,-1.4c-0.133,-0.467 -0.2,-1.35 -0.2,-2.65c-0.767,1.133 -1.4,2.783 -1.9,4.95c0.5,0.767 0.9,1.317 1.2,1.65c0.067,1.233 0.3,4.467 0.7,9.7c0.333,4.067 0.5,7.333 0.5,9.8c0,1.1 -0.683,1.967 -2.05,2.6c-1.067,0.533 -2.15,0.8 -3.25,0.8c-3.167,0 -4.75,-1.55 -4.75,-4.65c-0,-0.133 0.15,-1.45 0.45,-3.95c-0.6,0.6 -1.083,1.683 -1.45,3.25c-0.3,1.267 -0.45,2.5 -0.45,3.7Z"/><path d="M79.75,25.6c-1.4,2.033 -2.083,3.267 -2.05,3.7l0.5,23.5c1.133,-1.067 1.7,-3.917 1.7,-8.55l-0.15,-18.65Z"/><path d="M115.85,25.6c-1.4,2.033 -2.083,3.267 -2.05,3.7l0.5,23.5c1.133,-1.067 1.7,-3.917 1.7,-8.55l-0.15,-18.65Z"/><path d="M71.9,29c-0.6,-0.667 -0.9,-1.25 -0.9,-1.75c0,-0.167 0.05,-0.417 0.15,-0.75c0.1,-0.367 0.15,-0.633 0.15,-0.8l-0.05,-0.55c-1.167,0.9 -2.083,2.433 -2.75,4.6c0.1,0.6 0.5,1.35 1.2,2.25c0.467,3.2 0.7,8.05 0.7,14.55c-0,1.267 -1.033,1.867 -3.1,1.8l-0.65,-0.05l-1.4,-0l-0,0.1c-0.557,0.067 -1.057,0.1 -1.5,0.1c-2.5,0 -3.7,-0.6 -3.6,-1.8l-0,-0.2c1.267,-0.267 2.067,-0.583 2.4,-0.95c0.133,-1.1 0.3,-2.217 0.5,-3.35c-1,0.333 -2.017,0.5 -3.05,0.5c-1.367,0 -3.017,-0.467 -4.95,-1.4c-1.933,-0.967 -3.1,-1.45 -3.5,-1.45c-0.967,0 -1.883,0.467 -2.75,1.4c-0.867,0.933 -1.3,1.967 -1.3,3.1l-0,0.6c0.567,-0.233 1.117,-0.467 1.65,-0.7c0.733,-0.333 1.283,-0.5 1.65,-0.5c0.967,0 2.2,0.533 3.7,1.6c-1.5,1.333 -2.983,2.183 -4.45,2.55c-0.854,0.22 -2.137,0.354 -3.85,0.4l-0.35,-0c-1.515,-0.027 -2.432,-0.127 -2.75,-0.3c-0.733,-0.4 -1.1,-1.567 -1.1,-3.5c-0.6,0.533 -1,1.2 -1.2,2c-0.2,0.7 -0.5,1.15 -0.9,1.35c-0.582,0.25 -1.666,0.383 -3.25,0.4c-2.134,-0.063 -3.55,-0.596 -4.25,-1.6c-0.6,-0.967 -0.9,-2.967 -0.9,-6l-0,-14.3c-0.4,0.433 -0.783,0.867 -1.15,1.3c-0.3,0.433 -0.45,1.033 -0.45,1.8c-0,5.933 0.033,9.75 0.1,11.45c0.2,5.767 0.7,9.233 1.5,10.4c0.633,0.967 1.533,1.45 2.7,1.45l3.75,0c0.767,0 1.383,-0.317 1.85,-0.95c0.133,-0.2 0.517,-0.883 1.15,-2.05c0.733,1.267 1.117,1.933 1.15,2c0.533,0.667 1.15,1 1.85,1l4.05,0c1.367,0 2.883,-0.517 4.55,-1.55c0.767,-0.467 2.067,-1.45 3.9,-2.95c1.333,-1.033 2.217,-1.55 2.65,-1.55l0.35,0.2c0,3.9 1.033,5.85 3.1,5.85l5.6,0c1.5,0 2.567,-0.917 3.2,-2.75c0.5,-1.3 0.75,-2.933 0.75,-4.9l0,-4.1c0,-0.767 -0.067,-1.883 -0.2,-3.35c-0.133,-1.5 -0.2,-2.633 -0.2,-3.4c0,-0.367 0.183,-0.967 0.55,-1.8c0.367,-0.867 0.55,-1.567 0.55,-2.1c-0,-0.233 -0.3,-0.683 -0.9,-1.35Z"/><path d="M108.9,30.35c-0,-0.233 -0.3,-0.683 -0.9,-1.35c-0.6,-0.667 -0.9,-1.25 -0.9,-1.75c0,-0.167 0.05,-0.417 0.15,-0.75c0.1,-0.367 0.15,-0.633 0.15,-0.8l-0.05,-0.55c-1.167,0.9 -2.083,2.433 -2.75,4.6c0.1,0.6 0.5,1.35 1.2,2.25c0.467,3.2 0.7,8.05 0.7,14.55c-0,1.267 -1.033,1.867 -3.1,1.8l-0.4,0l-1.65,-0.05l0,4.45l2.9,0c1.5,0 2.567,-0.917 3.2,-2.75c0.5,-1.3 0.75,-2.933 0.75,-4.9l0,-4.1c0,-0.767 -0.067,-1.883 -0.2,-3.35c-0.133,-1.5 -0.2,-2.633 -0.2,-3.4c-0,-0.367 0.183,-0.967 0.55,-1.8c0.367,-0.867 0.55,-1.567 0.55,-2.1Z"/><path d="M124.55,44.35c-0.633,1.367 -0.95,2.567 -0.95,3.6c0,1.767 0.617,2.65 1.85,2.65c0.933,0 1.817,-0.583 2.65,-1.75c0.2,0.533 0.3,1.017 0.3,1.45c-0,2.6 -1.6,4.65 -4.8,6.15c-2.5,1.167 -5.067,1.75 -7.7,1.75c1.267,0.6 2.15,0.983 2.65,1.15c0.867,0.267 1.783,0.4 2.75,0.4c2.633,0 4.7,-1.233 6.2,-3.7c1.3,-2.167 1.95,-4.833 1.95,-8c0,-1.267 -0.2,-2.483 -0.6,-3.65c-0.5,-1.6 -1.217,-2.4 -2.15,-2.4c-0.767,0 -1.483,0.783 -2.15,2.35Zm0.45,2.95c0.267,-0.8 0.55,-1.533 0.85,-2.2c0.9,0.5 1.35,1.1 1.35,1.8c0,0.267 -0.133,0.483 -0.4,0.65c-0.267,0.2 -0.533,0.3 -0.8,0.3l-1,-0.55Z"/><path d="M67.95,20.55c0,1.333 0.517,2 1.55,2c0.6,0 1.117,-0.283 1.55,-0.85c0.4,-0.533 0.6,-1.15 0.6,-1.85c-0,-0.6 -0.15,-1.15 -0.45,-1.65c-0.333,-0.5 -0.75,-0.75 -1.25,-0.75c-0.667,-0 -1.183,0.333 -1.55,1c-0.3,0.567 -0.45,1.267 -0.45,2.1Zm1.8,0.35c-0.9,-0 -1.35,-0.317 -1.35,-0.95c-0,-0.733 0.3,-1.1 0.9,-1.1c0.267,0 0.583,0.167 0.95,0.5c0.433,0.333 0.65,0.633 0.65,0.9c-0,0.433 -0.383,0.65 -1.15,0.65Z"/><path d="M95.1,59.85c-1.967,0.5 -3.567,0.75 -4.8,0.75c-2.033,0 -3.583,-0.233 -4.65,-0.7c-1.7,-0.733 -2.55,-2.067 -2.55,-4c0,-0.8 0.267,-1.85 0.8,-3.15c0.633,-1.567 1,-2.617 1.1,-3.15c-0.9,0.7 -1.783,1.9 -2.65,3.6c-0.867,1.733 -1.3,3.183 -1.3,4.35c-0,2.333 0.917,4.067 2.75,5.2c1.433,0.9 3.25,1.35 5.45,1.35c5,0 8.683,-1.717 11.05,-5.15c0.767,-1.067 1.15,-1.883 1.15,-2.45c0,-0.967 -0.833,-1.633 -2.5,-2c-1.167,-0.2 -2.317,-0.4 -3.45,-0.6c0.392,-0.694 2.476,-1.078 6.25,-1.15l-0.4,-0l0,-4.45l-1.1,-0c-1.7,-0 -3.217,0.567 -4.55,1.7c-1.433,1.233 -2.15,2.8 -2.15,4.7c-0,0.833 0.383,1.45 1.15,1.85c0.433,0.233 1.233,0.45 2.4,0.65c1.067,0.167 1.767,0.367 2.1,0.6c-0.333,0.733 -1.7,1.417 -4.1,2.05Z" style="fill:#f00;"/><path d="M101.35,48.3l1.65,0.05l-0,-0.05l-1.65,-0Z" style="fill:#f00;"/><path d="M57.011,63.342l-4.35,3.2c-0.667,0.49 -0.81,1.43 -0.319,2.097c0.49,0.667 1.43,0.81 2.097,0.319l4.35,-3.2c0.667,-0.49 0.81,-1.43 0.319,-2.097c-0.49,-0.667 -1.43,-0.81 -2.097,-0.319Z"/><path d="M20.068,62.687l-4.4,3.2c-0.67,0.487 -0.818,1.426 -0.331,2.095c0.487,0.67 1.426,0.818 2.095,0.331l4.4,-3.2c0.67,-0.487 0.818,-1.426 0.331,-2.095c-0.487,-0.67 -1.426,-0.818 -2.095,-0.331Z"/><path d="M117.168,51.887l-4.4,3.2c-0.67,0.487 -0.818,1.426 -0.331,2.095c0.487,0.67 1.426,0.818 2.095,0.331l4.4,-3.2c0.67,-0.487 0.818,-1.426 0.331,-2.095c-0.487,-0.67 -1.426,-0.818 -2.095,-0.331Z"/><path d="M39.361,20.092l-4.35,3.2c-0.667,0.49 -0.81,1.43 -0.319,2.097c0.49,0.667 1.43,0.81 2.097,0.319l4.35,-3.2c0.667,-0.49 0.81,-1.43 0.319,-2.097c-0.49,-0.667 -1.43,-0.81 -2.097,-0.319Z"/><path d="M100.818,19.387l-4.4,3.2c-0.67,0.487 -0.818,1.426 -0.331,2.095c0.487,0.67 1.426,0.818 2.095,0.331l4.4,-3.2c0.67,-0.487 0.818,-1.426 0.331,-2.095c-0.487,-0.67 -1.426,-0.818 -2.095,-0.331Z"/><path d="M126.518,19.387l-4.4,3.2c-0.67,0.487 -0.818,1.426 -0.331,2.095c0.487,0.67 1.426,0.818 2.095,0.331l4.4,-3.2c0.67,-0.487 0.818,-1.426 0.331,-2.095c-0.487,-0.67 -1.426,-0.818 -2.095,-0.331Z"/></g></svg>