<?xml version="1.0" encoding="UTF-8" standalone="no"?><!DOCTYPE svg PUBLIC "-//W3C//DTD SVG 1.1//EN" "http://www.w3.org/Graphics/SVG/1.1/DTD/svg11.dtd"><svg width="100%" height="100%" viewBox="0 0 90 85" version="1.1" xmlns="http://www.w3.org/2000/svg" xmlns:xlink="http://www.w3.org/1999/xlink" xml:space="preserve" xmlns:serif="http://www.serif.com/" style="fill-rule:evenodd;clip-rule:evenodd;stroke-linejoin:round;stroke-miterlimit:2;"><g><path d="M64.85,30.05c-1.4,2.033 -2.083,3.267 -2.05,3.7l0.5,23.5c1.133,-1.067 1.7,-3.917 1.7,-8.55l-0.15,-18.65Z"/><path d="M24.05,32.2c-0.6,0.933 -0.9,1.6 -0.9,2c0.2,2.5 0.383,4.983 0.55,7.45c0.233,3 0.35,5.483 0.35,7.45c-0,1.267 -1.067,2.483 -3.2,3.65c-1.867,1.033 -3.433,1.55 -4.7,1.55c-5.167,0 -7.75,-1.467 -7.75,-4.4c0,-1.233 0.25,-2.65 0.75,-4.25c-0.733,0.4 -1.367,1.4 -1.9,3c-0.467,1.433 -0.7,2.683 -0.7,3.75c-0,2.067 0.733,3.583 2.2,4.55c1.2,0.833 2.75,1.25 4.65,1.25c1.867,-0 3.867,-0.483 6,-1.45c2.367,-1.033 4.033,-2.317 5,-3.85c0.633,1.333 1.1,2.217 1.4,2.65c0.733,1.1 1.467,1.65 2.2,1.65l3.2,-0c0.667,-0 1.3,-0.5 1.9,-1.5c0.867,-1.567 1.317,-2.367 1.35,-2.4c0.4,0.833 0.783,1.667 1.15,2.5c0.533,0.933 1.183,1.4 1.95,1.4l3.25,-0c1,-0 2.367,-0.65 4.1,-1.95c1.4,1.3 2.55,1.95 3.45,1.95l3.3,-0l0,-4.45l-1.35,0c-0.96,0.009 -1.377,0.026 -1.25,0.05c-0.75,-0.088 -1.266,-0.288 -1.55,-0.6c1,-1.733 1.5,-3.583 1.5,-5.55c-0,-0.967 -0.183,-1.9 -0.55,-2.8c-0.433,-1.133 -1.017,-1.7 -1.75,-1.7c-1.1,-0 -2.133,1.083 -3.1,3.25c-0.833,1.9 -1.25,3.55 -1.25,4.95c-0,0.667 0.05,1.383 0.15,2.15c-1.045,0.134 -2.145,0.217 -3.3,0.25c-1.355,-0.082 -2.355,-0.598 -3,-1.55c-0.6,-0.9 -0.9,-2.283 -0.9,-4.15c-0,-2.167 -0.117,-5.033 -0.35,-8.6c-0.267,-4.367 -0.433,-7.25 -0.5,-8.65c-1.367,1.233 -2.05,2.567 -2.05,4c0,1.733 0.133,4.35 0.4,7.85c0.3,3.5 0.45,6.133 0.45,7.9c-0,1.433 -0.4,2.367 -1.2,2.8c-0.5,0.267 -1.467,0.4 -2.9,0.4c-0.286,0.014 -0.486,0.014 -0.6,0c-0.833,-0.133 -1.45,-0.517 -1.85,-1.15c-0.833,-1.5 -1.25,-8.567 -1.25,-21.2c-0.4,0.4 -0.867,1 -1.4,1.8Zm22.65,15.45c0.267,0.433 0.4,0.817 0.4,1.15c-0,0.4 -0.25,0.933 -0.75,1.6c-0.5,0.633 -0.917,0.95 -1.25,0.95c-0.233,0 -0.55,-0.217 -0.95,-0.65c-0.4,-0.433 -0.6,-0.8 -0.6,-1.1c-0,-0.667 0.233,-1.25 0.7,-1.75c0.5,-0.533 1.033,-0.8 1.6,-0.8c0.3,0 0.583,0.2 0.85,0.6Z"/><path d="M16.3,43.2c0.367,-0.467 0.717,-0.7 1.05,-0.7c0.233,0 0.467,0.1 0.7,0.3c0.667,-0.367 1,-0.983 1,-1.85c-0,-0.267 -0.1,-0.55 -0.3,-0.85c-0.233,-0.267 -0.467,-0.4 -0.7,-0.4c-0.5,-0 -1.25,0.867 -2.25,2.6c-0.9,1.667 -1.35,2.817 -1.35,3.45c0,0.6 0.417,0.9 1.25,0.9c1.1,0.033 1.817,0.25 2.15,0.65c-0.8,0.933 -1.65,1.4 -2.55,1.4c-0.467,-0 -0.983,-0.067 -1.55,-0.2c0.367,0.567 0.65,0.917 0.85,1.05c0.3,0.2 0.733,0.3 1.3,0.3c0.9,0 1.617,-0.25 2.15,-0.75c0.567,-0.533 0.85,-1.3 0.85,-2.3c0,-0.967 -0.533,-1.567 -1.6,-1.8c-1.067,-0.267 -1.6,-0.483 -1.6,-0.65c0,-0.333 0.2,-0.717 0.6,-1.15Z"/><path d="M47.35,35.4l-2.3,-2.6l-2.3,2.6l2.3,2.6l2.3,-2.6Z"/><path d="M34.75,22.1c-0.333,-0.5 -0.75,-0.75 -1.25,-0.75c-0.667,0 -1.183,0.333 -1.55,1c-0.3,0.567 -0.45,1.267 -0.45,2.1c0,1.333 0.517,2 1.55,2c0.6,-0 1.117,-0.283 1.55,-0.85c0.4,-0.533 0.6,-1.15 0.6,-1.85c0,-0.6 -0.15,-1.15 -0.45,-1.65Zm-0.3,2.05c0,0.433 -0.383,0.65 -1.15,0.65c-0.9,0 -1.35,-0.317 -1.35,-0.95c0,-0.733 0.3,-1.1 0.9,-1.1c0.267,0 0.583,0.167 0.95,0.5c0.433,0.333 0.65,0.633 0.65,0.9Z"/><path d="M19.9,26.85l0.15,-1.55c-0.3,-0.2 -0.517,-0.35 -0.65,-0.45c0.333,-0.767 0.5,-1.383 0.5,-1.85c0,-0.9 -0.383,-1.35 -1.15,-1.35c-0.533,-0 -1.017,0.317 -1.45,0.95c-0.367,0.567 -0.55,1.117 -0.55,1.65c-0,0.433 0.367,0.9 1.1,1.4c-1.3,1.067 -2.517,1.883 -3.65,2.45c0.4,0.133 0.717,0.2 0.95,0.2c0.967,0 2.1,-0.75 3.4,-2.25c0.533,0.367 0.983,0.633 1.35,0.8Zm-1.05,-2.9c-0,0.133 -0.033,0.283 -0.1,0.45c-0.733,-0.4 -1.1,-0.783 -1.1,-1.15c0.033,-0.133 0.133,-0.217 0.3,-0.25c0.6,0.067 0.9,0.383 0.9,0.95Z"/><path d="M44.15,22.6c-0.367,0.567 -0.55,1.117 -0.55,1.65c-0,0.433 0.367,0.9 1.1,1.4c-1.3,1.067 -2.517,1.883 -3.65,2.45c0.4,0.133 0.717,0.2 0.95,0.2c0.967,0 2.1,-0.75 3.4,-2.25c0.533,0.367 0.983,0.633 1.35,0.8l0.15,-1.55c-0.3,-0.2 -0.517,-0.35 -0.65,-0.45c0.333,-0.767 0.5,-1.383 0.5,-1.85c-0,-0.9 -0.383,-1.35 -1.15,-1.35c-0.533,-0 -1.017,0.317 -1.45,0.95Zm0.35,0.65c0.033,-0.133 0.133,-0.217 0.3,-0.25c0.6,0.067 0.9,0.383 0.9,0.95c0,0.133 -0.033,0.283 -0.1,0.45c-0.733,-0.4 -1.1,-0.783 -1.1,-1.15Z"/><path d="M53.8,21.65c-0.3,0.567 -0.45,1.267 -0.45,2.1c-0,1.333 0.517,2 1.55,2c0.6,-0 1.117,-0.283 1.55,-0.85c0.4,-0.533 0.6,-1.15 0.6,-1.85c-0,-0.6 -0.15,-1.15 -0.45,-1.65c-0.333,-0.5 -0.75,-0.75 -1.25,-0.75c-0.667,-0 -1.183,0.333 -1.55,1Zm-0,1.5c-0,-0.733 0.3,-1.1 0.9,-1.1c0.267,0 0.583,0.167 0.95,0.5c0.433,0.333 0.65,0.633 0.65,0.9c-0,0.433 -0.383,0.65 -1.15,0.65c-0.9,0 -1.35,-0.317 -1.35,-0.95Z"/><path d="M57.85,34.8c-0,-0.233 -0.3,-0.683 -0.9,-1.35c-0.6,-0.667 -0.9,-1.25 -0.9,-1.75c-0,-0.167 0.05,-0.417 0.15,-0.75c0.1,-0.367 0.15,-0.633 0.15,-0.8l-0.05,-0.55c-1.167,0.9 -2.083,2.433 -2.75,4.6c0.1,0.6 0.5,1.35 1.2,2.25c0.467,3.2 0.7,8.05 0.7,14.55c0,1.267 -1.033,1.867 -3.1,1.8l-0.7,-0.05l0,4.45l1.55,-0c1.5,-0 2.567,-0.917 3.2,-2.75c0.5,-1.3 0.75,-2.933 0.75,-4.9l0,-4.1c0,-0.767 -0.067,-1.883 -0.2,-3.35c-0.133,-1.5 -0.2,-2.633 -0.2,-3.4c0,-0.367 0.183,-0.967 0.55,-1.8c0.367,-0.867 0.55,-1.567 0.55,-2.1Z" style="fill:#f00;"/><path d="M75.7,46.45c-0.767,-0 -1.483,0.783 -2.15,2.35c-0.633,1.367 -0.95,2.567 -0.95,3.6c-0,1.767 0.617,2.65 1.85,2.65c0.933,0 1.817,-0.583 2.65,-1.75c0.2,0.533 0.3,1.017 0.3,1.45c0,2.6 -1.6,4.65 -4.8,6.15c-2.5,1.167 -5.067,1.75 -7.7,1.75c1.267,0.6 2.15,0.983 2.65,1.15c0.867,0.267 1.783,0.4 2.75,0.4c2.633,-0 4.7,-1.233 6.2,-3.7c1.3,-2.167 1.95,-4.833 1.95,-8c0,-1.267 -0.2,-2.483 -0.6,-3.65c-0.5,-1.6 -1.217,-2.4 -2.15,-2.4Zm-0.7,5.85l-1,-0.55c0.267,-0.8 0.55,-1.533 0.85,-2.2c0.9,0.5 1.35,1.1 1.35,1.8c0,0.267 -0.133,0.483 -0.4,0.65c-0.267,0.2 -0.533,0.3 -0.8,0.3Z" style="fill:#f00;"/><path d="M75.911,26.992l-4.35,3.2c-0.667,0.49 -0.81,1.43 -0.319,2.097c0.49,0.667 1.43,0.81 2.097,0.319l4.35,-3.2c0.667,-0.49 0.81,-1.43 0.319,-2.097c-0.49,-0.667 -1.43,-0.81 -2.097,-0.319Z"/></g></svg>