<?xml version="1.0" encoding="UTF-8" standalone="no"?><!DOCTYPE svg PUBLIC "-//W3C//DTD SVG 1.1//EN" "http://www.w3.org/Graphics/SVG/1.1/DTD/svg11.dtd"><svg width="100%" height="100%" viewBox="0 0 115 78" version="1.1" xmlns="http://www.w3.org/2000/svg" xmlns:xlink="http://www.w3.org/1999/xlink" xml:space="preserve" xmlns:serif="http://www.serif.com/" style="fill-rule:evenodd;clip-rule:evenodd;stroke-linejoin:round;stroke-miterlimit:2;"><g><path d="M55.1,62.4l2.3,-2.55l-2.3,-2.6l-2.25,2.6l2.25,2.55Z"/><path d="M20.75,25.2c-0.767,1.133 -1.4,2.783 -1.9,4.95c0.5,0.767 0.9,1.317 1.2,1.65c0.067,1.233 0.3,4.467 0.7,9.7c0.333,4.067 0.5,7.333 0.5,9.8c0,1.1 -0.683,1.967 -2.05,2.6c-1.067,0.533 -2.15,0.8 -3.25,0.8c-3.167,0 -4.75,-1.55 -4.75,-4.65c0,-0.133 0.15,-1.45 0.45,-3.95c-0.6,0.6 -1.083,1.683 -1.45,3.25c-0.3,1.267 -0.45,2.5 -0.45,3.7c0,2.2 0.4,3.8 1.2,4.8c0.833,1.033 2.2,1.55 4.1,1.55c5.167,-0 7.75,-4.217 7.75,-12.65c-0,-4.233 -0.4,-8.683 -1.2,-13.35c0.433,-0.267 0.733,-0.883 0.9,-1.85c0.1,-0.767 0.2,-1.533 0.3,-2.3c-0.967,-0.133 -1.583,-0.6 -1.85,-1.4c-0.133,-0.467 -0.2,-1.35 -0.2,-2.65Z"/><path d="M70.9,25.7l-0.05,-0.55c-1.167,0.9 -2.083,2.433 -2.75,4.6c0.1,0.6 0.5,1.35 1.2,2.25c0.467,3.2 0.7,8.05 0.7,14.55c-0,1.267 -1.033,1.867 -3.1,1.8l-0.65,-0.05l-1.4,-0l0,0.1c-0.557,0.067 -1.057,0.1 -1.5,0.1c-2.5,0 -3.7,-0.6 -3.6,-1.8l-0,-0.2c1.267,-0.267 2.067,-0.583 2.4,-0.95c0.133,-1.1 0.3,-2.217 0.5,-3.35c-1,0.333 -2.017,0.5 -3.05,0.5c-1.367,0 -3.017,-0.467 -4.95,-1.4c-1.933,-0.967 -3.1,-1.45 -3.5,-1.45c-0.967,0 -1.883,0.467 -2.75,1.4c-0.867,0.933 -1.3,1.967 -1.3,3.1l0,0.6c0.567,-0.233 1.117,-0.467 1.65,-0.7c0.733,-0.333 1.283,-0.5 1.65,-0.5c0.967,0 2.2,0.533 3.7,1.6c-1.5,1.333 -2.983,2.183 -4.45,2.55c-0.866,0.223 -2.166,0.357 -3.9,0.4l-0.3,-0c-1.096,-0.024 -1.829,-0.107 -2.2,-0.25c-1.967,-0.733 -2.95,-5.9 -2.95,-15.5c-0,-1.333 0.017,-2.75 0.05,-4.25l0.05,-2.15c-1.333,1.6 -2.183,2.7 -2.55,3.3c0,4.2 -0.033,6.8 -0.1,7.8c-0.133,2.033 -0.55,4.4 -1.25,7.1c-0.533,-2.433 -0.95,-4 -1.25,-4.7c-0.767,-1.967 -2.25,-4.25 -4.45,-6.85c-2.5,-3 -4.467,-4.5 -5.9,-4.5c-0.4,0 -0.75,0.3 -1.05,0.9c-0.267,0.5 -0.4,1 -0.4,1.5c0,2.833 1.1,4.25 3.3,4.25c0.567,0 1.233,-0.133 2,-0.4c4.033,3.4 6.383,7.117 7.05,11.15c-0.433,1.167 -1.783,2.833 -4.05,5c-2.067,1.967 -3.75,3.283 -5.05,3.95c4.233,-0 7.283,-1.383 9.15,-4.15c1.367,-2.1 2.4,-5.717 3.1,-10.85c-0.033,0.6 -0.05,1.233 -0.05,1.9c-0,2.9 0.233,5.283 0.7,7.15c0.7,2.7 1.833,4.05 3.4,4.05l4.6,0c1.367,0 2.883,-0.517 4.55,-1.55c0.767,-0.467 2.067,-1.45 3.9,-2.95c1.333,-1.033 2.217,-1.55 2.65,-1.55l0.35,0.2c-0,3.9 1.033,5.85 3.1,5.85l5.6,0c1.5,0 2.567,-0.917 3.2,-2.75c0.5,-1.3 0.75,-2.933 0.75,-4.9l0,-4.1c0,-0.767 -0.067,-1.883 -0.2,-3.35c-0.133,-1.5 -0.2,-2.633 -0.2,-3.4c-0,-0.367 0.183,-0.967 0.55,-1.8c0.367,-0.867 0.55,-1.567 0.55,-2.1c-0,-0.233 -0.3,-0.683 -0.9,-1.35c-0.6,-0.667 -0.9,-1.25 -0.9,-1.75c0,-0.167 0.05,-0.417 0.15,-0.75c0.1,-0.367 0.15,-0.633 0.15,-0.8Z"/><path d="M105,41.25c-1.033,-1.933 -2.467,-3.25 -4.3,-3.95c-0.167,0.667 -0.25,1.45 -0.25,2.35l0.05,3.15c1.067,-0 2.2,0.517 3.4,1.55c1.267,1.133 1.9,2.3 1.9,3.5c-0,0.467 -0.7,0.867 -2.1,1.2c-1.067,0.233 -1.967,0.35 -2.7,0.35c-1,-0 -2.017,-0.317 -3.05,-0.95c-0.133,1.6 -0.2,2.483 -0.2,2.65c-0,1.233 0.35,2.017 1.05,2.35c0.367,0.167 1.217,0.25 2.55,0.25c1.667,0 2.95,-0.567 3.85,-1.7c0.867,-1.1 1.3,-2.617 1.3,-4.55c0,-2.3 -0.5,-4.367 -1.5,-6.2Z"/><path d="M79.4,25.6c-1.4,2.033 -2.083,3.267 -2.05,3.7l0.5,23.5c1.133,-1.067 1.7,-3.917 1.7,-8.55l-0.15,-18.65Z"/><path d="M104.3,30.15l-2.3,-2.65l-2.3,2.65l2.3,2.55l2.3,-2.55Z"/><path d="M68.55,18.45c-0.3,0.567 -0.45,1.267 -0.45,2.1c0,1.333 0.517,2 1.55,2c0.6,0 1.117,-0.283 1.55,-0.85c0.4,-0.533 0.6,-1.15 0.6,-1.85c-0,-0.6 -0.15,-1.15 -0.45,-1.65c-0.333,-0.5 -0.75,-0.75 -1.25,-0.75c-0.667,-0 -1.183,0.333 -1.55,1Zm2.5,1.8c-0,0.433 -0.383,0.65 -1.15,0.65c-0.9,-0 -1.35,-0.317 -1.35,-0.95c-0,-0.733 0.3,-1.1 0.9,-1.1c0.267,0 0.583,0.167 0.95,0.5c0.433,0.333 0.65,0.633 0.65,0.9Z"/><path d="M95.7,18.7c-0.367,0.567 -0.55,1.117 -0.55,1.65c-0,0.433 0.367,0.9 1.1,1.4c-1.3,1.067 -2.517,1.883 -3.65,2.45c0.4,0.133 0.717,0.2 0.95,0.2c0.967,-0 2.1,-0.75 3.4,-2.25c0.533,0.367 0.983,0.633 1.35,0.8l0.15,-1.55c-0.3,-0.2 -0.517,-0.35 -0.65,-0.45c0.333,-0.767 0.5,-1.383 0.5,-1.85c-0,-0.9 -0.383,-1.35 -1.15,-1.35c-0.533,0 -1.017,0.317 -1.45,0.95Zm1.55,1.35c0,0.133 -0.033,0.283 -0.1,0.45c-0.733,-0.4 -1.1,-0.783 -1.1,-1.15c0.033,-0.133 0.133,-0.217 0.3,-0.25c0.6,0.067 0.9,0.383 0.9,0.95Z"/><path d="M92.35,44.4c-0.5,-1.6 -1.217,-2.4 -2.15,-2.4c-0.767,0 -1.483,0.783 -2.15,2.35c-0.633,1.367 -0.95,2.567 -0.95,3.6c0,1.767 0.617,2.65 1.85,2.65c0.933,0 1.817,-0.583 2.65,-1.75c0.2,0.533 0.3,1.017 0.3,1.45c-0,2.6 -1.6,4.65 -4.8,6.15c-2.5,1.167 -5.067,1.75 -7.7,1.75c1.267,0.6 2.15,0.983 2.65,1.15c0.867,0.267 1.783,0.4 2.75,0.4c2.633,0 4.7,-1.233 6.2,-3.7c1.3,-2.167 1.95,-4.833 1.95,-8c0,-1.267 -0.2,-2.483 -0.6,-3.65Zm-2.05,3.15c-0.267,0.2 -0.533,0.3 -0.8,0.3l-1,-0.55c0.267,-0.8 0.55,-1.533 0.85,-2.2c0.9,0.5 1.35,1.1 1.35,1.8c0,0.267 -0.133,0.483 -0.4,0.65Z" style="fill:#f00;"/><path d="M18.361,63.092l-4.35,3.2c-0.667,0.49 -0.81,1.43 -0.319,2.097c0.49,0.667 1.43,0.81 2.097,0.319l4.35,-3.2c0.667,-0.49 0.81,-1.43 0.319,-2.097c-0.49,-0.667 -1.43,-0.81 -2.097,-0.319Z"/><path d="M35.752,20.348l-4.35,3.25c-0.663,0.496 -0.799,1.437 -0.304,2.1c0.496,0.663 1.437,0.799 2.1,0.304l4.35,-3.25c0.663,-0.496 0.799,-1.437 0.304,-2.1c-0.496,-0.663 -1.437,-0.799 -2.1,-0.304Z"/><path d="M52.159,20.343l-4.4,3.25c-0.666,0.492 -0.807,1.432 -0.316,2.098c0.492,0.666 1.432,0.807 2.098,0.316l4.4,-3.25c0.666,-0.492 0.807,-1.432 0.316,-2.098c-0.492,-0.666 -1.432,-0.807 -2.098,-0.316Z"/></g></svg>