<?xml version="1.0" encoding="UTF-8" standalone="no"?><!DOCTYPE svg PUBLIC "-//W3C//DTD SVG 1.1//EN" "http://www.w3.org/Graphics/SVG/1.1/DTD/svg11.dtd"><svg width="100%" height="100%" viewBox="0 0 30 32" version="1.1" xmlns="http://www.w3.org/2000/svg" xmlns:xlink="http://www.w3.org/1999/xlink" xml:space="preserve" xmlns:serif="http://www.serif.com/" style="fill-rule:evenodd;clip-rule:evenodd;stroke-linejoin:round;stroke-miterlimit:2;"><g><path d="M10.25,16.05c-0.133,1.4 -0.2,2.167 -0.2,2.3c0,1.067 0.4,1.75 1.2,2.05c0.433,0.167 1.4,0.25 2.9,0.25c1.9,0 3.367,-0.5 4.4,-1.5c0.967,-0.933 1.45,-2.25 1.45,-3.95c0,-2 -0.567,-3.8 -1.7,-5.4c-1.2,-1.667 -2.85,-2.817 -4.95,-3.45c-0.167,0.6 -0.233,1.283 -0.2,2.05l-0,2.7c1.233,-0 2.533,0.467 3.9,1.4c1.433,0.967 2.15,1.983 2.15,3.05c-0,0.4 -0.8,0.75 -2.4,1.05c-1.2,0.2 -2.217,0.3 -3.05,0.3c-1.167,0 -2.333,-0.283 -3.5,-0.85Z"/><path d="M15.225,25.332l-4.25,2.8c-0.231,0.152 -0.294,0.463 -0.143,0.693c0.152,0.231 0.463,0.294 0.693,0.143l4.25,-2.8c0.231,-0.152 0.294,-0.463 0.143,-0.693c-0.152,-0.231 -0.463,-0.294 -0.693,-0.143Zm-164.656,-1.796l-4.2,2.85c-0.228,0.155 -0.288,0.466 -0.133,0.695c0.155,0.228 0.466,0.288 0.695,0.133l4.2,-2.85c0.228,-0.155 0.288,-0.466 0.133,-0.695c-0.155,-0.228 -0.466,-0.288 -0.695,-0.133Zm164.306,-0.304l-4.25,2.8c-0.231,0.152 -0.294,0.463 -0.143,0.693c0.152,0.231 0.463,0.294 0.693,0.143l4.25,-2.8c0.231,-0.152 0.294,-0.463 0.143,-0.693c-0.152,-0.231 -0.463,-0.294 -0.693,-0.143Zm-164.603,-1.797l-4.25,2.85c-0.23,0.153 -0.291,0.464 -0.137,0.693c0.153,0.23 0.464,0.291 0.693,0.137l4.25,-2.85c0.23,-0.153 0.291,-0.464 0.137,-0.693c-0.153,-0.23 -0.464,-0.291 -0.693,-0.137Zm159.008,-64.919l-4.2,3.5c-0.212,0.177 -0.241,0.492 -0.064,0.704c0.177,0.212 0.492,0.241 0.704,0.064l4.2,-3.5c0.212,-0.177 0.241,-0.492 0.064,-0.704c-0.177,-0.212 -0.492,-0.241 -0.704,-0.064Zm-158.429,-0.274l-3.6,3.5c-0.197,0.192 -0.202,0.509 -0.009,0.707c0.192,0.197 0.509,0.202 0.707,0.009l3.6,-3.5c0.197,-0.192 0.202,-0.509 0.009,-0.707c-0.192,-0.197 -0.509,-0.202 -0.707,-0.009Zm-1.002,-2.798l-3.55,3.5c-0.197,0.194 -0.199,0.511 -0.005,0.707c0.194,0.197 0.511,0.199 0.707,0.005l3.55,-3.5c0.197,-0.194 0.199,-0.511 0.005,-0.707c-0.194,-0.197 -0.511,-0.199 -0.707,-0.005Zm158.483,-0.08l-4.25,3.5c-0.213,0.175 -0.243,0.491 -0.068,0.704c0.175,0.213 0.491,0.243 0.704,0.068l4.25,-3.5c0.213,-0.175 0.243,-0.491 0.068,-0.704c-0.175,-0.213 -0.491,-0.243 -0.704,-0.068Z" style="fill:#f00;"/></g></svg>