<?xml version="1.0" encoding="UTF-8" standalone="no"?><!DOCTYPE svg PUBLIC "-//W3C//DTD SVG 1.1//EN" "http://www.w3.org/Graphics/SVG/1.1/DTD/svg11.dtd"><svg width="100%" height="100%" viewBox="0 0 30 33" version="1.1" xmlns="http://www.w3.org/2000/svg" xmlns:xlink="http://www.w3.org/1999/xlink" xml:space="preserve" xmlns:serif="http://www.serif.com/" style="fill-rule:evenodd;clip-rule:evenodd;stroke-linejoin:round;stroke-miterlimit:2;"><g><path d="M25.35,23.35c0,-2 -0.567,-3.8 -1.7,-5.4c-1.2,-1.667 -2.867,-2.817 -5,-3.45c-0.167,0.6 -0.233,1.283 -0.2,2.05l-0,2.7c1.267,-0 2.583,0.467 3.95,1.4c1.433,0.967 2.15,1.983 2.15,3.05c0,0.4 -0.8,0.75 -2.4,1.05c-1.2,0.2 -2.233,0.3 -3.1,0.3c-1.167,0 -2.35,-0.283 -3.55,-0.85c-0.133,1.4 -0.2,2.167 -0.2,2.3c0,1.067 0.4,1.75 1.2,2.05c0.433,0.167 1.417,0.25 2.95,0.25c1.933,0 3.417,-0.5 4.45,-1.5c0.967,-0.933 1.45,-2.25 1.45,-3.95Z"/><path d="M18.5,5.5c-0.4,0.667 -0.6,1.3 -0.6,1.9c-0,0.7 0.35,1.317 1.05,1.85c-0.667,0.9 -1.3,1.483 -1.9,1.75c0.033,-0.867 0.05,-1.383 0.05,-1.55c0,-1.467 -0.35,-2.2 -1.05,-2.2c-0.4,0 -0.733,0.25 -1,0.75c-0.2,0.4 -0.3,0.867 -0.3,1.4c0,0.3 0.05,0.65 0.15,1.05c0.1,-1.033 0.367,-1.55 0.8,-1.55c0.2,-0 0.367,0.117 0.5,0.35c0.167,0.233 0.25,0.483 0.25,0.75c-0,0.433 -0.233,1.283 -0.7,2.55c0.833,-0.2 1.533,-0.533 2.1,-1c0.467,-0.367 1.033,-0.983 1.7,-1.85c0.3,0.3 0.767,0.683 1.4,1.15c0.033,-0.733 0.05,-1.15 0.05,-1.25c-0,-0.467 -0.2,-0.9 -0.6,-1.3c0.333,-0.967 0.5,-1.7 0.5,-2.2c-0,-0.367 -0.117,-0.717 -0.35,-1.05c-0.2,-0.367 -0.433,-0.55 -0.7,-0.55c-0.5,0 -0.95,0.333 -1.35,1Zm0.65,0.3c0.433,0 0.65,0.35 0.65,1.05l-0.05,0.8c-0.667,-0.567 -1,-1.017 -1,-1.35l0.15,-0.35c0.1,-0.1 0.183,-0.15 0.25,-0.15Z" style="fill:#f00;"/></g></svg>