<?xml version="1.0" encoding="UTF-8" standalone="no"?><!DOCTYPE svg PUBLIC "-//W3C//DTD SVG 1.1//EN" "http://www.w3.org/Graphics/SVG/1.1/DTD/svg11.dtd"><svg width="100%" height="100%" viewBox="0 0 37 49" version="1.1" xmlns="http://www.w3.org/2000/svg" xmlns:xlink="http://www.w3.org/1999/xlink" xml:space="preserve" xmlns:serif="http://www.serif.com/" style="fill-rule:evenodd;clip-rule:evenodd;stroke-linejoin:round;stroke-miterlimit:2;"><g><path d="M16.4,42c1.767,-2.8 2.65,-5.583 2.65,-8.35c-0,-1.367 -0.233,-2.417 -0.7,-3.15c-0.4,-1.033 -1.25,-2.167 -2.55,-3.4l-1.1,4.3c0.533,0.533 1.083,1.233 1.65,2.1c0.633,0.867 0.95,1.5 0.95,1.9c-0,2.3 -1.55,4.3 -4.65,6c-2.7,1.467 -5.383,2.2 -8.05,2.2c2.167,1.967 4.267,2.95 6.3,2.95c2.4,0 4.233,-1.517 5.5,-4.55Z"/><path d="M7.4,28.85l-0.25,-19.8c-1.967,2.2 -2.933,3.517 -2.9,3.95l0.7,24.9c1.633,-1.133 2.45,-4.15 2.45,-9.05Z"/><path d="M31.95,25.15c-0.933,0 -1.8,0.867 -2.6,2.6c-0.733,1.533 -1.1,2.867 -1.1,4c0,1.933 0.733,2.9 2.2,2.9c1.133,0 2.183,-0.65 3.15,-1.95c0.267,0.6 0.4,1.15 0.4,1.65c0,2.867 -1.933,5.133 -5.8,6.8c-3,1.3 -6.067,1.95 -9.2,1.95c1.533,0.633 2.583,1.05 3.15,1.25c1.067,0.3 2.167,0.45 3.3,0.45c3.167,0 5.65,-1.367 7.45,-4.1c1.533,-2.4 2.3,-5.35 2.3,-8.85c0,-1.4 -0.217,-2.75 -0.65,-4.05c-0.633,-1.767 -1.5,-2.65 -2.6,-2.65Zm0.6,5.4c-0,0.3 -0.15,0.55 -0.45,0.75c-0.333,0.2 -0.65,0.3 -0.95,0.3c-0.033,-0 -0.45,-0.2 -1.25,-0.6c0.333,-0.9 0.683,-1.7 1.05,-2.4c1.067,0.533 1.6,1.183 1.6,1.95Z"/><path d="M17.7,19.7l-2.8,-3.1l-2.8,3.1l2.8,3l2.8,-3Z"/><path d="M260.153,355.013l-5.95,4c-0.573,0.385 -0.725,1.162 -0.34,1.734c0.385,0.573 1.162,0.725 1.734,0.34l5.95,-4c0.573,-0.385 0.725,-1.162 0.34,-1.734c-0.385,-0.573 -1.162,-0.725 -1.734,-0.34Zm-1.1,-3.5l-5.95,4c-0.573,0.385 -0.725,1.162 -0.34,1.734c0.385,0.573 1.162,0.725 1.734,0.34l5.95,-4c0.573,-0.385 0.725,-1.162 0.34,-1.734c-0.385,-0.573 -1.162,-0.725 -1.734,-0.34Zm-70.606,-0.029l-4.9,3c-0.588,0.36 -0.773,1.13 -0.413,1.719c0.36,0.588 1.13,0.773 1.719,0.413l4.9,-3c0.588,-0.36 0.773,-1.13 0.413,-1.719c-0.36,-0.588 -1.13,-0.773 -1.719,-0.413Zm-278.318,-0.57l-6.55,3c-0.627,0.287 -0.903,1.029 -0.615,1.657c0.287,0.627 1.029,0.903 1.657,0.615l6.55,-3c0.627,-0.287 0.903,-1.029 0.615,-1.657c-0.287,-0.627 -1.029,-0.903 -1.657,-0.615Zm-141.654,-2.416l-5.45,3.5c-0.581,0.373 -0.75,1.147 -0.377,1.727c0.373,0.581 1.147,0.75 1.727,0.377l5.45,-3.5c0.581,-0.373 0.75,-1.147 0.377,-1.727c-0.373,-0.581 -1.147,-0.75 -1.727,-0.377Zm243.552,-38.502l-7.05,4.5c-0.581,0.372 -0.752,1.145 -0.381,1.727c0.372,0.581 1.145,0.752 1.727,0.381l7.05,-4.5c0.581,-0.372 0.752,-1.145 0.381,-1.727c-0.372,-0.581 -1.145,-0.752 -1.727,-0.381Zm98.55,-4.5l-7.05,4.5c-0.581,0.372 -0.752,1.145 -0.381,1.727c0.372,0.581 1.145,0.752 1.727,0.381l7.05,-4.5c0.581,-0.372 0.752,-1.145 0.381,-1.727c-0.372,-0.581 -1.145,-0.752 -1.727,-0.381Zm-352.974,-37.983l-5.95,4c-0.573,0.385 -0.725,1.162 -0.34,1.734c0.385,0.573 1.162,0.725 1.734,0.34l5.95,-4c0.573,-0.385 0.725,-1.162 0.34,-1.734c-0.385,-0.573 -1.162,-0.725 -1.734,-0.34Zm-1.1,-3.5l-5.95,4c-0.573,0.385 -0.725,1.162 -0.34,1.734c0.385,0.573 1.162,0.725 1.734,0.34l5.95,-4c0.573,-0.385 0.725,-1.162 0.34,-1.734c-0.385,-0.573 -1.162,-0.725 -1.734,-0.34Zm278.652,-35.384l-5.45,5c-0.508,0.466 -0.542,1.258 -0.076,1.766c0.466,0.508 1.258,0.542 1.766,0.076l5.45,-5c0.508,-0.466 0.542,-1.258 0.076,-1.766c-0.466,-0.508 -1.258,-0.542 -1.766,-0.076Zm156.905,-5.547l-4.9,4c-0.535,0.436 -0.615,1.224 -0.178,1.758c0.436,0.535 1.224,0.615 1.758,0.178l4.9,-4c0.535,-0.436 0.615,-1.224 0.178,-1.758c-0.436,-0.535 -1.224,-0.615 -1.758,-0.178Zm-223.285,0.416l-5.45,3.5c-0.581,0.373 -0.75,1.147 -0.377,1.727c0.373,0.581 1.147,0.75 1.727,0.377l5.45,-3.5c0.581,-0.373 0.75,-1.147 0.377,-1.727c-0.373,-0.581 -1.147,-0.75 -1.727,-0.377Zm-130.419,-1.952l-5.4,4c-0.554,0.41 -0.671,1.194 -0.26,1.748c0.41,0.554 1.194,0.671 1.748,0.26l5.4,-4c0.554,-0.41 0.671,-1.194 0.26,-1.748c-0.41,-0.554 -1.194,-0.671 -1.748,-0.26Zm-0.606,-4.456l-5.4,4.5c-0.53,0.441 -0.602,1.23 -0.16,1.76c0.441,0.53 1.23,0.602 1.76,0.16l5.4,-4.5c0.53,-0.441 0.602,-1.23 0.16,-1.76c-0.441,-0.53 -1.23,-0.602 -1.76,-0.16Zm257.297,-56.148l-3.1,2.6c-0.529,0.444 -0.598,1.233 -0.155,1.761c0.444,0.529 1.233,0.598 1.761,0.155l3.1,-2.6c0.529,-0.444 0.598,-1.233 0.155,-1.761c-0.444,-0.529 -1.233,-0.598 -1.761,-0.155Zm-339.397,-109.792l-4,3c-0.552,0.414 -0.664,1.198 -0.25,1.75c0.414,0.552 1.198,0.664 1.75,0.25l4,-3c0.552,-0.414 0.664,-1.198 0.25,-1.75c-0.414,-0.552 -1.198,-0.664 -1.75,-0.25Zm393.05,-2.15l-4,3c-0.552,0.414 -0.664,1.198 -0.25,1.75c0.414,0.552 1.198,0.664 1.75,0.25l4,-3c0.552,-0.414 0.664,-1.198 0.25,-1.75c-0.414,-0.552 -1.198,-0.664 -1.75,-0.25Zm-394.55,-0.85l-4,3c-0.552,0.414 -0.664,1.198 -0.25,1.75c0.414,0.552 1.198,0.664 1.75,0.25l4,-3c0.552,-0.414 0.664,-1.198 0.25,-1.75c-0.414,-0.552 -1.198,-0.664 -1.75,-0.25Zm393.05,-2.15l-4,3c-0.552,0.414 -0.664,1.198 -0.25,1.75c0.414,0.552 1.198,0.664 1.75,0.25l4,-3c0.552,-0.414 0.664,-1.198 0.25,-1.75c-0.414,-0.552 -1.198,-0.664 -1.75,-0.25Zm-63.5,-0.4l-4,3c-0.552,0.414 -0.664,1.198 -0.25,1.75c0.414,0.552 1.198,0.664 1.75,0.25l4,-3c0.552,-0.414 0.664,-1.198 0.25,-1.75c-0.414,-0.552 -1.198,-0.664 -1.75,-0.25Zm-1.5,-3l-4,3c-0.552,0.414 -0.664,1.198 -0.25,1.75c0.414,0.552 1.198,0.664 1.75,0.25l4,-3c0.552,-0.414 0.664,-1.198 0.25,-1.75c-0.414,-0.552 -1.198,-0.664 -1.75,-0.25Zm-239.35,-30.5l-4,3c-0.552,0.414 -0.664,1.198 -0.25,1.75c0.414,0.552 1.198,0.664 1.75,0.25l4,-3c0.552,-0.414 0.664,-1.198 0.25,-1.75c-0.414,-0.552 -1.198,-0.664 -1.75,-0.25Zm-1.5,-3l-4,3c-0.552,0.414 -0.664,1.198 -0.25,1.75c0.414,0.552 1.198,0.664 1.75,0.25l4,-3c0.552,-0.414 0.664,-1.198 0.25,-1.75c-0.414,-0.552 -1.198,-0.664 -1.75,-0.25Zm173.833,-3.087l-4.5,3.5c-0.545,0.424 -0.643,1.21 -0.22,1.754c0.424,0.545 1.21,0.643 1.754,0.22l4.5,-3.5c0.545,-0.424 0.643,-1.21 0.22,-1.754c-0.424,-0.545 -1.21,-0.643 -1.754,-0.22Zm-1,-3.5l-4.5,3.5c-0.545,0.424 -0.643,1.21 -0.22,1.754c0.424,0.545 1.21,0.643 1.754,0.22l4.5,-3.5c0.545,-0.424 0.643,-1.21 0.22,-1.754c-0.424,-0.545 -1.21,-0.643 -1.754,-0.22Z" style="fill:#f00;"/><path d="M31.183,14.013l-4.5,3.5c-0.545,0.424 -0.643,1.21 -0.22,1.754c0.424,0.545 1.21,0.643 1.754,0.22l4.5,-3.5c0.545,-0.424 0.643,-1.21 0.22,-1.754c-0.424,-0.545 -1.21,-0.643 -1.754,-0.22Z"/></g></svg>