<?xml version="1.0" encoding="UTF-8" standalone="no"?><!DOCTYPE svg PUBLIC "-//W3C//DTD SVG 1.1//EN" "http://www.w3.org/Graphics/SVG/1.1/DTD/svg11.dtd"><svg width="100%" height="100%" viewBox="0 0 36 52" version="1.1" xmlns="http://www.w3.org/2000/svg" xmlns:xlink="http://www.w3.org/1999/xlink" xml:space="preserve" xmlns:serif="http://www.serif.com/" style="fill-rule:evenodd;clip-rule:evenodd;stroke-linejoin:round;stroke-miterlimit:2;"><g><path d="M28.85,36.4c1.533,-2.667 2.3,-5.367 2.3,-8.1c0,-1.333 -0.283,-2.483 -0.85,-3.45c-0.367,-0.733 -1.133,-1.667 -2.3,-2.8l-1,3.9c0.567,0.633 1.15,1.283 1.75,1.95c0.767,0.967 1.15,1.683 1.15,2.15c0,2.5 -1.817,4.65 -5.45,6.45c-3.067,1.5 -6,2.25 -8.8,2.25c2.233,1.5 4.467,2.25 6.7,2.25c2.533,0 4.7,-1.533 6.5,-4.6Z"/><path d="M10.85,17.55c-0.2,0.733 -0.283,1.567 -0.25,2.5l-0,3.3c1.3,-0 2.667,0.55 4.1,1.65c1.5,1.167 2.25,2.4 2.25,3.7c0,0.5 -0.833,0.917 -2.5,1.25c-1.267,0.267 -2.35,0.4 -3.25,0.4c-1.2,0 -2.417,-0.35 -3.65,-1.05c-0.167,1.7 -0.25,2.633 -0.25,2.8c-0,1.3 0.433,2.117 1.3,2.45c0.433,0.2 1.45,0.3 3.05,0.3c2,0 3.55,-0.6 4.65,-1.8c1,-1.133 1.5,-2.717 1.5,-4.75c-0,-2.467 -0.583,-4.65 -1.75,-6.55c-1.267,-2.033 -3,-3.433 -5.2,-4.2Z"/><path d="M12.8,5.9c-0,-0.333 -0.117,-0.65 -0.35,-0.95c-0.233,-0.333 -0.517,-0.5 -0.85,-0.5c-0.533,-0 -1.033,0.3 -1.5,0.9c-0.467,0.6 -0.7,1.183 -0.7,1.75c0,0.633 0.4,1.2 1.2,1.7c-0.8,0.833 -1.533,1.367 -2.2,1.6c0.067,-0.8 0.1,-1.283 0.1,-1.45c-0,-1.333 -0.417,-2 -1.25,-2c-0.467,-0 -0.85,0.233 -1.15,0.7c-0.233,0.367 -0.35,0.8 -0.35,1.3c-0,0.267 0.067,0.583 0.2,0.95c0.1,-0.933 0.383,-1.4 0.85,-1.4c0.267,0 0.483,0.1 0.65,0.3c0.167,0.2 0.25,0.433 0.25,0.7c0,0.367 -0.25,1.133 -0.75,2.3c0.933,-0.167 1.733,-0.467 2.4,-0.9c0.533,-0.333 1.167,-0.9 1.9,-1.7c0.367,0.3 0.917,0.65 1.65,1.05c0.033,-0.667 0.05,-1.05 0.05,-1.15c0,-0.4 -0.233,-0.783 -0.7,-1.15c0.367,-0.9 0.55,-1.583 0.55,-2.05Zm-2.3,-0.15c0.133,-0.067 0.233,-0.1 0.3,-0.1c0.5,0 0.75,0.317 0.75,0.95l-0.05,0.75c-0.767,-0.533 -1.15,-0.95 -1.15,-1.25l0.15,-0.35Z" style="fill:#f00;"/><path d="M72.153,347.013l-5.95,4c-0.573,0.385 -0.725,1.162 -0.34,1.734c0.385,0.573 1.162,0.725 1.734,0.34l5.95,-4c0.573,-0.385 0.725,-1.162 0.34,-1.734c-0.385,-0.573 -1.162,-0.725 -1.734,-0.34Zm-1.1,-3.5l-5.95,4c-0.573,0.385 -0.725,1.162 -0.34,1.734c0.385,0.573 1.162,0.725 1.734,0.34l5.95,-4c0.573,-0.385 0.725,-1.162 0.34,-1.734c-0.385,-0.573 -1.162,-0.725 -1.734,-0.34Zm-70.606,-0.029l-4.9,3c-0.588,0.36 -0.773,1.13 -0.413,1.719c0.36,0.588 1.13,0.773 1.719,0.413l4.9,-3c0.588,-0.36 0.773,-1.13 0.413,-1.719c-0.36,-0.588 -1.13,-0.773 -1.719,-0.413Zm-278.318,-0.57l-6.55,3c-0.627,0.287 -0.903,1.029 -0.615,1.657c0.287,0.627 1.029,0.903 1.657,0.615l6.55,-3c0.627,-0.287 0.903,-1.029 0.615,-1.657c-0.287,-0.627 -1.029,-0.903 -1.657,-0.615Zm-141.654,-2.416l-5.45,3.5c-0.581,0.373 -0.75,1.147 -0.377,1.727c0.373,0.581 1.147,0.75 1.727,0.377l5.45,-3.5c0.581,-0.373 0.75,-1.147 0.377,-1.727c-0.373,-0.581 -1.147,-0.75 -1.727,-0.377Zm243.552,-38.502l-7.05,4.5c-0.581,0.372 -0.752,1.145 -0.381,1.727c0.372,0.581 1.145,0.752 1.727,0.381l7.05,-4.5c0.581,-0.372 0.752,-1.145 0.381,-1.727c-0.372,-0.581 -1.145,-0.752 -1.727,-0.381Zm98.55,-4.5l-7.05,4.5c-0.581,0.372 -0.752,1.145 -0.381,1.727c0.372,0.581 1.145,0.752 1.727,0.381l7.05,-4.5c0.581,-0.372 0.752,-1.145 0.381,-1.727c-0.372,-0.581 -1.145,-0.752 -1.727,-0.381Zm-352.974,-37.983l-5.95,4c-0.573,0.385 -0.725,1.162 -0.34,1.734c0.385,0.573 1.162,0.725 1.734,0.34l5.95,-4c0.573,-0.385 0.725,-1.162 0.34,-1.734c-0.385,-0.573 -1.162,-0.725 -1.734,-0.34Zm-1.1,-3.5l-5.95,4c-0.573,0.385 -0.725,1.162 -0.34,1.734c0.385,0.573 1.162,0.725 1.734,0.34l5.95,-4c0.573,-0.385 0.725,-1.162 0.34,-1.734c-0.385,-0.573 -1.162,-0.725 -1.734,-0.34Zm278.652,-35.384l-5.45,5c-0.508,0.466 -0.542,1.258 -0.076,1.766c0.466,0.508 1.258,0.542 1.766,0.076l5.45,-5c0.508,-0.466 0.542,-1.258 0.076,-1.766c-0.466,-0.508 -1.258,-0.542 -1.766,-0.076Zm156.905,-5.547l-4.9,4c-0.535,0.436 -0.615,1.224 -0.178,1.758c0.436,0.535 1.224,0.615 1.758,0.178l4.9,-4c0.535,-0.436 0.615,-1.224 0.178,-1.758c-0.436,-0.535 -1.224,-0.615 -1.758,-0.178Zm-223.285,0.416l-5.45,3.5c-0.581,0.373 -0.75,1.147 -0.377,1.727c0.373,0.581 1.147,0.75 1.727,0.377l5.45,-3.5c0.581,-0.373 0.75,-1.147 0.377,-1.727c-0.373,-0.581 -1.147,-0.75 -1.727,-0.377Zm-130.419,-1.952l-5.4,4c-0.554,0.41 -0.671,1.194 -0.26,1.748c0.41,0.554 1.194,0.671 1.748,0.26l5.4,-4c0.554,-0.41 0.671,-1.194 0.26,-1.748c-0.41,-0.554 -1.194,-0.671 -1.748,-0.26Zm-0.606,-4.456l-5.4,4.5c-0.53,0.441 -0.602,1.23 -0.16,1.76c0.441,0.53 1.23,0.602 1.76,0.16l5.4,-4.5c0.53,-0.441 0.602,-1.23 0.16,-1.76c-0.441,-0.53 -1.23,-0.602 -1.76,-0.16Zm257.297,-56.148l-3.1,2.6c-0.529,0.444 -0.598,1.233 -0.155,1.761c0.444,0.529 1.233,0.598 1.761,0.155l3.1,-2.6c0.529,-0.444 0.598,-1.233 0.155,-1.761c-0.444,-0.529 -1.233,-0.598 -1.761,-0.155Zm-339.397,-109.792l-4,3c-0.552,0.414 -0.664,1.198 -0.25,1.75c0.414,0.552 1.198,0.664 1.75,0.25l4,-3c0.552,-0.414 0.664,-1.198 0.25,-1.75c-0.414,-0.552 -1.198,-0.664 -1.75,-0.25Zm393.05,-2.15l-4,3c-0.552,0.414 -0.664,1.198 -0.25,1.75c0.414,0.552 1.198,0.664 1.75,0.25l4,-3c0.552,-0.414 0.664,-1.198 0.25,-1.75c-0.414,-0.552 -1.198,-0.664 -1.75,-0.25Zm-394.55,-0.85l-4,3c-0.552,0.414 -0.664,1.198 -0.25,1.75c0.414,0.552 1.198,0.664 1.75,0.25l4,-3c0.552,-0.414 0.664,-1.198 0.25,-1.75c-0.414,-0.552 -1.198,-0.664 -1.75,-0.25Zm393.05,-2.15l-4,3c-0.552,0.414 -0.664,1.198 -0.25,1.75c0.414,0.552 1.198,0.664 1.75,0.25l4,-3c0.552,-0.414 0.664,-1.198 0.25,-1.75c-0.414,-0.552 -1.198,-0.664 -1.75,-0.25Zm-63.5,-0.4l-4,3c-0.552,0.414 -0.664,1.198 -0.25,1.75c0.414,0.552 1.198,0.664 1.75,0.25l4,-3c0.552,-0.414 0.664,-1.198 0.25,-1.75c-0.414,-0.552 -1.198,-0.664 -1.75,-0.25Zm-1.5,-3l-4,3c-0.552,0.414 -0.664,1.198 -0.25,1.75c0.414,0.552 1.198,0.664 1.75,0.25l4,-3c0.552,-0.414 0.664,-1.198 0.25,-1.75c-0.414,-0.552 -1.198,-0.664 -1.75,-0.25Zm-239.35,-30.5l-4,3c-0.552,0.414 -0.664,1.198 -0.25,1.75c0.414,0.552 1.198,0.664 1.75,0.25l4,-3c0.552,-0.414 0.664,-1.198 0.25,-1.75c-0.414,-0.552 -1.198,-0.664 -1.75,-0.25Zm-1.5,-3l-4,3c-0.552,0.414 -0.664,1.198 -0.25,1.75c0.414,0.552 1.198,0.664 1.75,0.25l4,-3c0.552,-0.414 0.664,-1.198 0.25,-1.75c-0.414,-0.552 -1.198,-0.664 -1.75,-0.25Zm173.833,-3.087l-4.5,3.5c-0.545,0.424 -0.643,1.21 -0.22,1.754c0.424,0.545 1.21,0.643 1.754,0.22l4.5,-3.5c0.545,-0.424 0.643,-1.21 0.22,-1.754c-0.424,-0.545 -1.21,-0.643 -1.754,-0.22Zm-1,-3.5l-4.5,3.5c-0.545,0.424 -0.643,1.21 -0.22,1.754c0.424,0.545 1.21,0.643 1.754,0.22l4.5,-3.5c0.545,-0.424 0.643,-1.21 0.22,-1.754c-0.424,-0.545 -1.21,-0.643 -1.754,-0.22Z" style="fill:#f00;"/><path d="M28.614,10.571l-5,4.5c-0.513,0.461 -0.555,1.252 -0.093,1.765c0.461,0.513 1.252,0.555 1.765,0.093l5,-4.5c0.513,-0.461 0.555,-1.252 0.093,-1.765c-0.461,-0.513 -1.252,-0.555 -1.765,-0.093Z"/></g></svg>