<?xml version="1.0" encoding="UTF-8" standalone="no"?><!DOCTYPE svg PUBLIC "-//W3C//DTD SVG 1.1//EN" "http://www.w3.org/Graphics/SVG/1.1/DTD/svg11.dtd"><svg width="100%" height="100%" viewBox="0 0 58 59" version="1.1" xmlns="http://www.w3.org/2000/svg" xmlns:xlink="http://www.w3.org/1999/xlink" xml:space="preserve" xmlns:serif="http://www.serif.com/" style="fill-rule:evenodd;clip-rule:evenodd;stroke-linejoin:round;stroke-miterlimit:2;"><g><path d="M16.9,41.85c1.667,-2.667 2.5,-5.367 2.5,-8.1c-0,-1.333 -0.283,-2.483 -0.85,-3.45c-0.433,-0.733 -1.267,-1.667 -2.5,-2.8l-1.1,3.9c0.6,0.633 1.217,1.283 1.85,1.95c0.833,0.967 1.25,1.683 1.25,2.15c-0,2.5 -1.967,4.65 -5.9,6.45c-3.333,1.5 -6.517,2.25 -9.55,2.25c2.433,1.5 4.85,2.25 7.25,2.25c2.767,0 5.117,-1.533 7.05,-4.6Z"/><path d="M39.85,46.05c1.167,0.3 2.367,0.45 3.6,0.45c3.433,-0 6.117,-1.367 8.05,-4.1c1.7,-2.4 2.55,-5.35 2.55,-8.85c-0,-1.4 -0.25,-2.75 -0.75,-4.05c-0.667,-1.767 -1.6,-2.65 -2.8,-2.65c-1,0 -1.95,0.867 -2.85,2.6c-0.8,1.533 -1.2,2.867 -1.2,4c0,1.933 0.8,2.9 2.4,2.9c1.233,0 2.383,-0.65 3.45,-1.95c0.267,0.6 0.4,1.15 0.4,1.65c0,2.867 -2.1,5.133 -6.3,6.8c-3.233,1.3 -6.55,1.95 -9.95,1.95c1.633,0.633 2.767,1.05 3.4,1.25Zm9.55,-15.75c1.167,0.533 1.75,1.183 1.75,1.95c-0,0.3 -0.167,0.55 -0.5,0.75c-0.367,0.2 -0.717,0.3 -1.05,0.3c-0.033,-0 -0.483,-0.2 -1.35,-0.6c0.367,-0.9 0.75,-1.7 1.15,-2.4Z"/><path d="M11.75,19.75c0,0.367 -0.267,1.133 -0.8,2.3c1.033,-0.167 1.9,-0.467 2.6,-0.9c0.567,-0.333 1.267,-0.9 2.1,-1.7c0.367,0.3 0.95,0.65 1.75,1.05c0.033,-0.667 0.05,-1.05 0.05,-1.15c0,-0.4 -0.25,-0.783 -0.75,-1.15c0.4,-0.9 0.6,-1.583 0.6,-2.05c-0,-0.333 -0.133,-0.65 -0.4,-0.95c-0.267,-0.333 -0.567,-0.5 -0.9,-0.5c-0.6,0 -1.15,0.3 -1.65,0.9c-0.5,0.6 -0.75,1.183 -0.75,1.75c0,0.633 0.433,1.2 1.3,1.7c-0.833,0.833 -1.633,1.367 -2.4,1.6c0.067,-0.8 0.1,-1.283 0.1,-1.45c0,-1.333 -0.45,-2 -1.35,-2c-0.5,0 -0.9,0.233 -1.2,0.7c-0.267,0.367 -0.4,0.8 -0.4,1.3c-0,0.267 0.067,0.583 0.2,0.95c0.1,-0.933 0.417,-1.4 0.95,-1.4c0.267,-0 0.5,0.1 0.7,0.3c0.167,0.2 0.25,0.433 0.25,0.7Zm2.9,-3.4l0.15,-0.35c0.167,-0.067 0.283,-0.1 0.35,-0.1c0.533,-0 0.8,0.317 0.8,0.95l-0.1,0.75c-0.8,-0.533 -1.2,-0.95 -1.2,-1.25Z"/><path d="M36.25,34.5c0,-1.333 -0.283,-2.483 -0.85,-3.45c-0.433,-0.733 -1.267,-1.667 -2.5,-2.8l-1.1,3.9c0.6,0.633 1.217,1.283 1.85,1.95c0.833,0.967 1.25,1.683 1.25,2.15c-0,2.5 -1.967,4.65 -5.9,6.45c-3.333,1.5 -6.517,2.25 -9.55,2.25c2.433,1.5 4.85,2.25 7.25,2.25c2.767,0 5.117,-1.533 7.05,-4.6c1.667,-2.667 2.5,-5.367 2.5,-8.1Z" style="fill:#f00;"/><path d="M28.6,20.35l3,2.7l3,-2.7l-3,-2.75l-3,2.75Z" style="fill:#f00;"/><path d="M30.5,10.3l-0.4,0.1c-0.167,0.9 -0.317,1.5 -0.45,1.8c-0.3,0.733 -0.733,1.1 -1.3,1.1c-0.5,-0 -0.75,-0.65 -0.75,-1.95l-0.45,0.05c-0.267,0.933 -0.4,1.517 -0.4,1.75c-0,0.533 0.117,0.983 0.35,1.35c0.267,0.433 0.667,0.65 1.2,0.65c0.467,-0 0.917,-0.15 1.35,-0.45c0.4,-0.3 0.633,-0.667 0.7,-1.1c0.367,0.267 0.783,0.4 1.25,0.4c1.333,-0 2,-1.017 2,-3.05c0,-0.5 -0.083,-1.067 -0.25,-1.7l-0.45,0.15c-0,1.8 -0.433,2.7 -1.3,2.7c-0.467,0 -0.833,-0.6 -1.1,-1.8Z" style="fill:#f00;"/><path d="M379.153,52.013l-5.95,4c-0.573,0.385 -0.725,1.162 -0.34,1.734c0.385,0.573 1.162,0.725 1.734,0.34l5.95,-4c0.573,-0.385 0.725,-1.162 0.34,-1.734c-0.385,-0.573 -1.162,-0.725 -1.734,-0.34Zm-1.1,-3.5l-5.95,4c-0.573,0.385 -0.725,1.162 -0.34,1.734c0.385,0.573 1.162,0.725 1.734,0.34l5.95,-4c0.573,-0.385 0.725,-1.162 0.34,-1.734c-0.385,-0.573 -1.162,-0.725 -1.734,-0.34Zm-70.606,-0.029l-4.9,3c-0.588,0.36 -0.773,1.13 -0.413,1.719c0.36,0.588 1.13,0.773 1.719,0.413l4.9,-3c0.588,-0.36 0.773,-1.13 0.413,-1.719c-0.36,-0.588 -1.13,-0.773 -1.719,-0.413Zm-278.318,-0.57l-6.55,3c-0.627,0.287 -0.903,1.029 -0.615,1.657c0.287,0.627 1.029,0.903 1.657,0.615l6.55,-3c0.627,-0.287 0.903,-1.029 0.615,-1.657c-0.287,-0.627 -1.029,-0.903 -1.657,-0.615Zm-141.654,-2.416l-5.45,3.5c-0.581,0.373 -0.75,1.147 -0.377,1.727c0.373,0.581 1.147,0.75 1.727,0.377l5.45,-3.5c0.581,-0.373 0.75,-1.147 0.377,-1.727c-0.373,-0.581 -1.147,-0.75 -1.727,-0.377Zm243.552,-38.502l-7.05,4.5c-0.581,0.372 -0.752,1.145 -0.381,1.727c0.372,0.581 1.145,0.752 1.727,0.381l7.05,-4.5c0.581,-0.372 0.752,-1.145 0.381,-1.727c-0.372,-0.581 -1.145,-0.752 -1.727,-0.381Zm98.55,-4.5l-7.05,4.5c-0.581,0.372 -0.752,1.145 -0.381,1.727c0.372,0.581 1.145,0.752 1.727,0.381l7.05,-4.5c0.581,-0.372 0.752,-1.145 0.381,-1.727c-0.372,-0.581 -1.145,-0.752 -1.727,-0.381Zm-352.974,-37.983l-5.95,4c-0.573,0.385 -0.725,1.162 -0.34,1.734c0.385,0.573 1.162,0.725 1.734,0.34l5.95,-4c0.573,-0.385 0.725,-1.162 0.34,-1.734c-0.385,-0.573 -1.162,-0.725 -1.734,-0.34Zm-1.1,-3.5l-5.95,4c-0.573,0.385 -0.725,1.162 -0.34,1.734c0.385,0.573 1.162,0.725 1.734,0.34l5.95,-4c0.573,-0.385 0.725,-1.162 0.34,-1.734c-0.385,-0.573 -1.162,-0.725 -1.734,-0.34Zm278.652,-35.384l-5.45,5c-0.508,0.466 -0.542,1.258 -0.076,1.766c0.466,0.508 1.258,0.542 1.766,0.076l5.45,-5c0.508,-0.466 0.542,-1.258 0.076,-1.766c-0.466,-0.508 -1.258,-0.542 -1.766,-0.076Zm156.905,-5.547l-4.9,4c-0.535,0.436 -0.615,1.224 -0.178,1.758c0.436,0.535 1.224,0.615 1.758,0.178l4.9,-4c0.535,-0.436 0.615,-1.224 0.178,-1.758c-0.436,-0.535 -1.224,-0.615 -1.758,-0.178Zm-223.285,0.416l-5.45,3.5c-0.581,0.373 -0.75,1.147 -0.377,1.727c0.373,0.581 1.147,0.75 1.727,0.377l5.45,-3.5c0.581,-0.373 0.75,-1.147 0.377,-1.727c-0.373,-0.581 -1.147,-0.75 -1.727,-0.377Zm-130.419,-1.952l-5.4,4c-0.554,0.41 -0.671,1.194 -0.26,1.748c0.41,0.554 1.194,0.671 1.748,0.26l5.4,-4c0.554,-0.41 0.671,-1.194 0.26,-1.748c-0.41,-0.554 -1.194,-0.671 -1.748,-0.26Zm-0.606,-4.456l-5.4,4.5c-0.53,0.441 -0.602,1.23 -0.16,1.76c0.441,0.53 1.23,0.602 1.76,0.16l5.4,-4.5c0.53,-0.441 0.602,-1.23 0.16,-1.76c-0.441,-0.53 -1.23,-0.602 -1.76,-0.16Zm257.297,-56.148l-3.1,2.6c-0.529,0.444 -0.598,1.233 -0.155,1.761c0.444,0.529 1.233,0.598 1.761,0.155l3.1,-2.6c0.529,-0.444 0.598,-1.233 0.155,-1.761c-0.444,-0.529 -1.233,-0.598 -1.761,-0.155Zm-339.397,-109.792l-4,3c-0.552,0.414 -0.664,1.198 -0.25,1.75c0.414,0.552 1.198,0.664 1.75,0.25l4,-3c0.552,-0.414 0.664,-1.198 0.25,-1.75c-0.414,-0.552 -1.198,-0.664 -1.75,-0.25Zm393.05,-2.15l-4,3c-0.552,0.414 -0.664,1.198 -0.25,1.75c0.414,0.552 1.198,0.664 1.75,0.25l4,-3c0.552,-0.414 0.664,-1.198 0.25,-1.75c-0.414,-0.552 -1.198,-0.664 -1.75,-0.25Zm-394.55,-0.85l-4,3c-0.552,0.414 -0.664,1.198 -0.25,1.75c0.414,0.552 1.198,0.664 1.75,0.25l4,-3c0.552,-0.414 0.664,-1.198 0.25,-1.75c-0.414,-0.552 -1.198,-0.664 -1.75,-0.25Zm393.05,-2.15l-4,3c-0.552,0.414 -0.664,1.198 -0.25,1.75c0.414,0.552 1.198,0.664 1.75,0.25l4,-3c0.552,-0.414 0.664,-1.198 0.25,-1.75c-0.414,-0.552 -1.198,-0.664 -1.75,-0.25Zm-63.5,-0.4l-4,3c-0.552,0.414 -0.664,1.198 -0.25,1.75c0.414,0.552 1.198,0.664 1.75,0.25l4,-3c0.552,-0.414 0.664,-1.198 0.25,-1.75c-0.414,-0.552 -1.198,-0.664 -1.75,-0.25Zm-1.5,-3l-4,3c-0.552,0.414 -0.664,1.198 -0.25,1.75c0.414,0.552 1.198,0.664 1.75,0.25l4,-3c0.552,-0.414 0.664,-1.198 0.25,-1.75c-0.414,-0.552 -1.198,-0.664 -1.75,-0.25Zm-239.35,-30.5l-4,3c-0.552,0.414 -0.664,1.198 -0.25,1.75c0.414,0.552 1.198,0.664 1.75,0.25l4,-3c0.552,-0.414 0.664,-1.198 0.25,-1.75c-0.414,-0.552 -1.198,-0.664 -1.75,-0.25Zm-1.5,-3l-4,3c-0.552,0.414 -0.664,1.198 -0.25,1.75c0.414,0.552 1.198,0.664 1.75,0.25l4,-3c0.552,-0.414 0.664,-1.198 0.25,-1.75c-0.414,-0.552 -1.198,-0.664 -1.75,-0.25Zm173.833,-3.087l-4.5,3.5c-0.545,0.424 -0.643,1.21 -0.22,1.754c0.424,0.545 1.21,0.643 1.754,0.22l4.5,-3.5c0.545,-0.424 0.643,-1.21 0.22,-1.754c-0.424,-0.545 -1.21,-0.643 -1.754,-0.22Zm-1,-3.5l-4.5,3.5c-0.545,0.424 -0.643,1.21 -0.22,1.754c0.424,0.545 1.21,0.643 1.754,0.22l4.5,-3.5c0.545,-0.424 0.643,-1.21 0.22,-1.754c-0.424,-0.545 -1.21,-0.643 -1.754,-0.22Z" style="fill:#f00;"/><path d="M50.075,16.048l-5.45,3.5c-0.581,0.373 -0.75,1.147 -0.377,1.727c0.373,0.581 1.147,0.75 1.727,0.377l5.45,-3.5c0.581,-0.373 0.75,-1.147 0.377,-1.727c-0.373,-0.581 -1.147,-0.75 -1.727,-0.377Z"/></g></svg>