<?xml version="1.0" encoding="UTF-8" standalone="no"?><!DOCTYPE svg PUBLIC "-//W3C//DTD SVG 1.1//EN" "http://www.w3.org/Graphics/SVG/1.1/DTD/svg11.dtd"><svg width="100%" height="100%" viewBox="0 0 28 52" version="1.1" xmlns="http://www.w3.org/2000/svg" xmlns:xlink="http://www.w3.org/1999/xlink" xml:space="preserve" xmlns:serif="http://www.serif.com/" style="fill-rule:evenodd;clip-rule:evenodd;stroke-linejoin:round;stroke-miterlimit:2;"><g><path d="M15.35,27.65l-0.15,-19.7c-1.667,2.167 -2.5,3.467 -2.5,3.9l0.6,24.8c1.367,-1.133 2.05,-4.133 2.05,-9Z" style="fill:#f00;"/><path d="M15.352,40.602l-3.5,3.5c-0.302,0.302 -0.302,0.794 -0,1.096c0.302,0.302 0.794,0.302 1.096,0l3.5,-3.5c0.302,-0.302 0.302,-0.794 0,-1.096c-0.302,-0.302 -0.794,-0.302 -1.096,-0Z" style="fill:#f00;"/><path d="M15.333,37.871l-3.5,3.75c-0.291,0.313 -0.274,0.804 0.038,1.096c0.313,0.291 0.804,0.274 1.096,-0.038l3.5,-3.75c0.291,-0.313 0.274,-0.804 -0.038,-1.096c-0.313,-0.291 -0.804,-0.274 -1.096,0.038Z" style="fill:#f00;"/></g></svg>