<?xml version="1.0" encoding="UTF-8" standalone="no"?><!DOCTYPE svg PUBLIC "-//W3C//DTD SVG 1.1//EN" "http://www.w3.org/Graphics/SVG/1.1/DTD/svg11.dtd"><svg width="100%" height="100%" viewBox="0 0 23 50" version="1.1" xmlns="http://www.w3.org/2000/svg" xmlns:xlink="http://www.w3.org/1999/xlink" xml:space="preserve" xmlns:serif="http://www.serif.com/" style="fill-rule:evenodd;clip-rule:evenodd;stroke-linejoin:round;stroke-miterlimit:2;"><g><path d="M8.75,5.75c-0.233,0.367 -0.35,0.8 -0.35,1.3c-0,0.267 0.067,0.583 0.2,0.95c0.1,-0.933 0.383,-1.4 0.85,-1.4c0.267,-0 0.483,0.1 0.65,0.3c0.167,0.2 0.25,0.433 0.25,0.7c0,0.367 -0.25,1.133 -0.75,2.3c0.933,-0.167 1.733,-0.467 2.4,-0.9c0.533,-0.333 1.167,-0.9 1.9,-1.7c0.367,0.3 0.917,0.65 1.65,1.05c0.033,-0.667 0.05,-1.05 0.05,-1.15c0,-0.4 -0.233,-0.783 -0.7,-1.15c0.367,-0.9 0.55,-1.583 0.55,-2.05c0,-0.333 -0.117,-0.65 -0.35,-0.95c-0.233,-0.333 -0.517,-0.5 -0.85,-0.5c-0.533,0 -1.033,0.3 -1.5,0.9c-0.467,0.6 -0.7,1.183 -0.7,1.75c-0,0.633 0.4,1.2 1.2,1.7c-0.8,0.833 -1.533,1.367 -2.2,1.6c0.067,-0.8 0.1,-1.283 0.1,-1.45c-0,-1.333 -0.417,-2 -1.25,-2c-0.467,0 -0.85,0.233 -1.15,0.7Zm4.25,-1.55l0.15,-0.35c0.133,-0.067 0.233,-0.1 0.3,-0.1c0.5,0 0.75,0.317 0.75,0.95l-0.05,0.75c-0.767,-0.533 -1.15,-0.95 -1.15,-1.25Z"/><path d="M11.3,43.8c1.367,-1.133 2.05,-4.133 2.05,-9l-0.15,-19.7c-1.667,2.167 -2.5,3.467 -2.5,3.9l0.6,24.8Z" style="fill:#f00;"/></g></svg>