<?xml version="1.0" encoding="UTF-8" standalone="no"?><!DOCTYPE svg PUBLIC "-//W3C//DTD SVG 1.1//EN" "http://www.w3.org/Graphics/SVG/1.1/DTD/svg11.dtd"><svg width="100%" height="100%" viewBox="0 0 37 54" version="1.1" xmlns="http://www.w3.org/2000/svg" xmlns:xlink="http://www.w3.org/1999/xlink" xml:space="preserve" xmlns:serif="http://www.serif.com/" style="fill-rule:evenodd;clip-rule:evenodd;stroke-linejoin:round;stroke-miterlimit:2;"><g><path d="M28.5,31.9c-1.267,-2.033 -3,-3.433 -5.2,-4.2c-0.2,0.733 -0.283,1.567 -0.25,2.5l-0,3.3c1.3,0 2.667,0.55 4.1,1.65c1.5,1.167 2.25,2.4 2.25,3.7c-0,0.5 -0.833,0.917 -2.5,1.25c-1.267,0.267 -2.35,0.4 -3.25,0.4c-1.2,0 -2.417,-0.35 -3.65,-1.05c-0.167,1.7 -0.25,2.633 -0.25,2.8c0,1.3 0.433,2.117 1.3,2.45c0.433,0.2 1.45,0.3 3.05,0.3c2,0 3.55,-0.6 4.65,-1.8c1,-1.133 1.5,-2.717 1.5,-4.75c0,-2.467 -0.583,-4.65 -1.75,-6.55Z"/><path d="M24.9,22.85l2.75,-2.7l-2.75,-2.75l-2.75,2.75l2.75,2.7Z"/><path d="M11.4,44.05c1.367,-1.133 2.05,-4.133 2.05,-9l-0.15,-19.7c-1.667,2.167 -2.5,3.467 -2.5,3.9l0.6,24.8Z" style="fill:#f00;"/><path d="M22.654,8.305l-6,5c-0.329,0.273 -0.373,0.763 -0.099,1.091c0.273,0.329 0.763,0.373 1.091,0.099l6,-5c0.329,-0.273 0.373,-0.763 0.099,-1.091c-0.273,-0.329 -0.763,-0.373 -1.091,-0.099Z" style="fill:#f00;"/><path d="M21.143,5.813l-5.5,4.75c-0.323,0.28 -0.359,0.77 -0.08,1.094c0.28,0.323 0.77,0.359 1.094,0.08l5.5,-4.75c0.323,-0.28 0.359,-0.77 0.08,-1.094c-0.28,-0.323 -0.77,-0.359 -1.094,-0.08Z" style="fill:#f00;"/></g></svg>