<?xml version="1.0" encoding="UTF-8" standalone="no"?><!DOCTYPE svg PUBLIC "-//W3C//DTD SVG 1.1//EN" "http://www.w3.org/Graphics/SVG/1.1/DTD/svg11.dtd"><svg width="100%" height="100%" viewBox="0 0 70 72" version="1.1" xmlns="http://www.w3.org/2000/svg" xmlns:xlink="http://www.w3.org/1999/xlink" xml:space="preserve" xmlns:serif="http://www.serif.com/" style="fill-rule:evenodd;clip-rule:evenodd;stroke-linejoin:round;stroke-miterlimit:2;"><g><path d="M37.8,46.2c-0.807,1.055 -3.057,1.605 -6.75,1.65l-0,5.7c2.786,-0.098 4.836,-0.715 6.15,-1.85c1.567,-1.4 2.35,-3.8 2.35,-7.2c-0,-0.933 -0.4,-3.067 -1.2,-6.4c-0.833,2.033 -1.517,3.567 -2.05,4.6c0.8,1.633 1.3,2.8 1.5,3.5Z" style="fill:#f00;"/><path d="M36.2,29.75l-2.8,-2.95l-2.95,2.9l2.9,3l2.85,-2.95Z" style="fill:#f00;"/><path d="M39.1,26.8l-2.9,2.95l2.9,2.95l2.9,-3l-2.9,-2.9Z" style="fill:#f00;"/><path d="M71.55,21.15c-0.433,0.567 -0.65,1.35 -0.65,2.35c0,7.767 0.05,12.75 0.15,14.95c0.3,7.5 1.017,12.033 2.15,13.6c0.933,1.233 2.25,1.85 3.95,1.85l5.45,-0c1.067,-0 1.95,-0.417 2.65,-1.25c0.2,-0.267 0.733,-1.167 1.6,-2.7c1.067,1.667 1.633,2.533 1.7,2.6c0.733,0.9 1.6,1.35 2.6,1.35l3.85,-0l0,-0.05c2.783,-0.099 4.816,-0.715 6.1,-1.85c1.567,-1.4 2.35,-3.8 2.35,-7.2c0,-0.933 -0.383,-3.067 -1.15,-6.4c-0.867,2.033 -1.567,3.567 -2.1,4.6c0.8,1.633 1.317,2.8 1.55,3.5c-0.837,1.054 -3.087,1.604 -6.75,1.65l0,-0.05c-2.833,0 -4.517,-0.133 -5.05,-0.4c-1.067,-0.533 -1.6,-2.05 -1.6,-4.55c-0.833,0.667 -1.417,1.533 -1.75,2.6c-0.233,0.9 -0.65,1.483 -1.25,1.75c-0.831,0.333 -2.398,0.516 -4.7,0.55c-3.063,-0.096 -5.097,-0.812 -6.1,-2.15c-0.9,-1.233 -1.35,-3.833 -1.35,-7.8l0,-18.65c-0.567,0.567 -1.117,1.133 -1.65,1.7Z"/><path d="M49.8,18.15c-2,2.667 -2.983,4.283 -2.95,4.85l0.7,30.65c1.667,-1.4 2.5,-5.117 2.5,-11.15l-0.25,-24.35Z"/><path d="M7.6,20.85c-0.433,0.567 -0.65,1.35 -0.65,2.35c0,7.767 0.05,12.75 0.15,14.95c0.3,7.5 1.017,12.033 2.15,13.6c0.933,1.233 2.25,1.85 3.95,1.85l5.45,0c1.067,0 1.95,-0.417 2.65,-1.25c0.2,-0.267 0.733,-1.167 1.6,-2.7c1.067,1.667 1.633,2.533 1.7,2.6c0.733,0.9 1.6,1.35 2.6,1.35l3.85,0l-0,-5.8c-2.833,0 -4.517,-0.133 -5.05,-0.4c-1.067,-0.533 -1.6,-2.05 -1.6,-4.55c-0.833,0.667 -1.417,1.533 -1.75,2.6c-0.233,0.9 -0.65,1.483 -1.25,1.75c-0.831,0.333 -2.398,0.516 -4.7,0.55c-3.063,-0.096 -5.097,-0.812 -6.1,-2.15c-0.9,-1.233 -1.35,-3.833 -1.35,-7.8l0,-18.65c-0.567,0.567 -1.117,1.133 -1.65,1.7Z"/><path d="M26,33.45l-3.25,-3.45l-3.3,3.45l3.25,3.3l3.3,-3.3Z"/><path d="M53.6,18.3c-0,-0.8 -0.25,-1.983 -0.75,-3.55c-0.533,-1.567 -0.8,-2.75 -0.8,-3.55c-1.067,0.767 -1.6,1.45 -1.6,2.05c0,0.7 0.267,1.75 0.8,3.15c0.5,1.4 0.75,2.45 0.75,3.15c0,0.467 -0.067,0.867 -0.2,1.2c1.2,-0.6 1.8,-1.417 1.8,-2.45Z"/><path d="M35.609,56.993l-6.3,4.65c-0.666,0.492 -0.807,1.432 -0.316,2.098c0.492,0.666 1.432,0.807 2.098,0.316l6.3,-4.65c0.666,-0.492 0.807,-1.432 0.316,-2.098c-0.492,-0.666 -1.432,-0.807 -2.098,-0.316Z"/><path d="M18.509,13.143l-6.3,4.65c-0.666,0.492 -0.807,1.432 -0.316,2.098c0.492,0.666 1.432,0.807 2.098,0.316l6.3,-4.65c0.666,-0.492 0.807,-1.432 0.316,-2.098c-0.492,-0.666 -1.432,-0.807 -2.098,-0.316Z"/></g></svg>