<?xml version="1.0" encoding="UTF-8" standalone="no"?><!DOCTYPE svg PUBLIC "-//W3C//DTD SVG 1.1//EN" "http://www.w3.org/Graphics/SVG/1.1/DTD/svg11.dtd"><svg width="100%" height="100%" viewBox="0 0 43 40" version="1.1" xmlns="http://www.w3.org/2000/svg" xmlns:xlink="http://www.w3.org/1999/xlink" xml:space="preserve" xmlns:serif="http://www.serif.com/" style="fill-rule:evenodd;clip-rule:evenodd;stroke-linejoin:round;stroke-miterlimit:2;"><g><path d="M9.4,5.8c-1.133,1.467 -1.683,2.333 -1.65,2.6l0.4,16.5c0.9,-0.733 1.35,-2.733 1.35,-6l-0.1,-13.1Z" style="fill:#f00;"/><path d="M20.6,21.85c-0.267,-0.6 -0.533,-1.2 -0.8,-1.8c-0.467,-0.8 -0.933,-1.2 -1.4,-1.2c-0.567,0 -1.15,0.583 -1.75,1.75c-0.567,1.1 -0.85,1.983 -0.85,2.65c-0,0.833 0.4,1.367 1.2,1.6c0.767,0.1 1.517,0.2 2.25,0.3c-0.867,1.333 -1.783,2.3 -2.75,2.9c-1.067,0.667 -2.317,1 -3.75,1c-0.8,-0 -1.933,-0.05 -3.4,-0.15c1.367,1.367 2.967,2.05 4.8,2.05c1.6,0 2.95,-0.65 4.05,-1.95c0.8,-0.933 1.567,-2.3 2.3,-4.1l1.05,-0l-0,-3c-0.305,-0.006 -0.622,-0.023 -0.95,-0.05Zm-3.3,0.85c-0,-0.233 -0.033,-0.4 -0.1,-0.5c0.167,-0.367 0.35,-0.7 0.55,-1c0.467,0.233 0.767,0.433 0.9,0.6c0.1,0.167 0.2,0.517 0.3,1.05c-0.433,0 -0.983,-0.05 -1.65,-0.15Z" style="fill:#f00;"/><path d="M26.65,29.85l-1.85,-1.8l-1.8,1.8l1.8,1.8l1.85,-1.8Z"/><path d="M34.85,20.9c0.4,0.433 0.8,0.867 1.2,1.3c0.5,0.633 0.75,1.117 0.75,1.45c-0,1.667 -1.217,3.083 -3.65,4.25c-2.033,1.033 -3.983,1.55 -5.85,1.55c1.5,1 2.983,1.5 4.45,1.5c1.7,0 3.15,-1.017 4.35,-3.05c1,-1.8 1.5,-3.617 1.5,-5.45c0,-0.867 -0.167,-1.633 -0.5,-2.3c-0.267,-0.467 -0.783,-1.083 -1.55,-1.85l-0.7,2.6Z"/><path d="M22.4,21.8l-0.85,-0l-0,3.1l1.25,-0c1.607,-0.064 2.773,-0.414 3.5,-1.05c0.867,-0.733 1.3,-2.017 1.3,-3.85c0,-0.5 -0.217,-1.65 -0.65,-3.45c-0.467,1.1 -0.85,1.933 -1.15,2.5c0.433,0.867 0.717,1.5 0.85,1.9c-0.5,0.6 -1.917,0.883 -4.25,0.85Z"/><path d="M34.545,31.018l-3,2c-0.459,0.306 -0.583,0.927 -0.277,1.387c0.306,0.459 0.927,0.583 1.387,0.277l3,-2c0.459,-0.306 0.583,-0.927 0.277,-1.387c-0.306,-0.459 -0.927,-0.583 -1.387,-0.277Z"/><path d="M18.453,3.438l-4.3,3.65c-0.421,0.357 -0.473,0.988 -0.115,1.409c0.357,0.421 0.988,0.473 1.409,0.115l4.3,-3.65c0.421,-0.357 0.473,-0.988 0.115,-1.409c-0.357,-0.421 -0.988,-0.473 -1.409,-0.115Z"/></g></svg>