<?xml version="1.0" encoding="UTF-8" standalone="no"?><!DOCTYPE svg PUBLIC "-//W3C//DTD SVG 1.1//EN" "http://www.w3.org/Graphics/SVG/1.1/DTD/svg11.dtd"><svg width="100%" height="100%" viewBox="0 0 76 82" version="1.1" xmlns="http://www.w3.org/2000/svg" xmlns:xlink="http://www.w3.org/1999/xlink" xml:space="preserve" xmlns:serif="http://www.serif.com/" style="fill-rule:evenodd;clip-rule:evenodd;stroke-linejoin:round;stroke-miterlimit:2;"><g><path d="M20.6,61.55l-3.3,3.4l3.3,3.35l3.3,-3.35l-3.3,-3.4Z"/><path d="M41.4,44.75c1.8,1.467 2.7,2.983 2.7,4.55c0,0.633 -1,1.15 -3,1.55c-1.5,0.333 -2.8,0.5 -3.9,0.5c-1.467,0 -2.933,-0.417 -4.4,-1.25c-0.2,2.067 -0.3,3.2 -0.3,3.4c-0,1.633 0.517,2.667 1.55,3.1c0.567,0.233 1.783,0.35 3.65,0.35c2.433,0 4.3,-0.75 5.6,-2.25c1.2,-1.4 1.8,-3.367 1.8,-5.9c0,-3.033 -0.7,-5.717 -2.1,-8.05c-1.5,-2.567 -3.583,-4.3 -6.25,-5.2c-0.2,0.867 -0.3,1.883 -0.3,3.05l0.05,4.1c1.567,0 3.2,0.683 4.9,2.05Z"/><path d="M53.1,55.75c1.667,-1.4 2.5,-5.117 2.5,-11.15l-0.25,-24.35c-2,2.667 -2.983,4.283 -2.95,4.85l0.7,30.65Z"/><path d="M7.05,22.95c-0.433,0.567 -0.65,1.35 -0.65,2.35c-0,7.767 0.05,12.75 0.15,14.95c0.3,7.5 1.017,12.033 2.15,13.6c0.933,1.233 2.25,1.85 3.95,1.85l4.45,0l0,-0.05c2.808,-0.092 4.858,-0.708 6.15,-1.85c1.567,-1.4 2.35,-3.8 2.35,-7.2c0,-0.933 -0.383,-3.067 -1.15,-6.4c-0.867,2.033 -1.567,3.567 -2.1,4.6c0.8,1.633 1.317,2.8 1.55,3.5c-0.841,1.059 -3.108,1.609 -6.8,1.65l0,-0.05c-3.6,-0 -5.95,-0.733 -7.05,-2.2c-0.9,-1.233 -1.35,-3.833 -1.35,-7.8l0,-18.65c-0.567,0.567 -1.117,1.133 -1.65,1.7Z"/><path d="M37,23.9c-0.333,-0 -0.633,-0.533 -0.9,-1.6l-0.3,0.1c-0.133,0.8 -0.25,1.35 -0.35,1.65c-0.267,0.667 -0.633,1 -1.1,1c-0.4,-0 -0.6,-0.6 -0.6,-1.8l-0.4,0.05c-0.233,0.867 -0.35,1.417 -0.35,1.65c0,0.467 0.1,0.883 0.3,1.25c0.233,0.4 0.567,0.6 1,0.6c0.4,-0 0.767,-0.15 1.1,-0.45c0.367,-0.3 0.567,-0.633 0.6,-1c0.3,0.233 0.633,0.35 1,0.35c1.133,0 1.7,-0.933 1.7,-2.8c0,-0.5 -0.067,-1.033 -0.2,-1.6l-0.35,0.15c-0,1.633 -0.383,2.45 -1.15,2.45Z"/><path d="M55.755,10.997l-6.25,4.65c-0.665,0.494 -0.803,1.434 -0.308,2.098c0.494,0.665 1.434,0.803 2.098,0.308l6.25,-4.65c0.665,-0.494 0.803,-1.434 0.308,-2.098c-0.494,-0.665 -1.434,-0.803 -2.098,-0.308Z"/><path d="M18.359,10.993l-6.3,4.65c-0.666,0.492 -0.807,1.432 -0.316,2.098c0.492,0.666 1.432,0.807 2.098,0.316l6.3,-4.65c0.666,-0.492 0.807,-1.432 0.316,-2.098c-0.492,-0.666 -1.432,-0.807 -2.098,-0.316Z"/><path d="M37.309,10.993l-6.3,4.65c-0.666,0.492 -0.807,1.432 -0.316,2.098c0.492,0.666 1.432,0.807 2.098,0.316l6.3,-4.65c0.666,-0.492 0.807,-1.432 0.316,-2.098c-0.492,-0.666 -1.432,-0.807 -2.098,-0.316Z"/></g></svg>