<?xml version="1.0" encoding="UTF-8" standalone="no"?><!DOCTYPE svg PUBLIC "-//W3C//DTD SVG 1.1//EN" "http://www.w3.org/Graphics/SVG/1.1/DTD/svg11.dtd"><svg width="100%" height="100%" viewBox="0 0 83 75" version="1.1" xmlns="http://www.w3.org/2000/svg" xmlns:xlink="http://www.w3.org/1999/xlink" xml:space="preserve" xmlns:serif="http://www.serif.com/" style="fill-rule:evenodd;clip-rule:evenodd;stroke-linejoin:round;stroke-miterlimit:2;"><g><path d="M6.8,53.85c2.033,1.433 4.55,2.15 7.55,2.15c5.967,0 11.967,-1.767 18,-5.3c1.433,2.867 2.9,4.3 4.4,4.3l0.05,0l-0,-5.75l2,0l-0,-0.05c-1.867,-0 -3.117,-0.3 -3.75,-0.9c-0.633,-0.6 -1.083,-1.883 -1.35,-3.85c-4.033,4.167 -9.183,6.25 -15.45,6.25c-2.867,-0 -5.483,-0.417 -7.85,-1.25c-3.3,-1.167 -4.95,-2.917 -4.95,-5.25c0,-1.033 0.5,-2.55 1.5,-4.55c-1.1,0.767 -1.983,1.833 -2.65,3.2c-0.7,1.333 -1.05,2.7 -1.05,4.1c0,2.933 1.183,5.233 3.55,6.9Z" style="fill:#f00;"/><path d="M23.9,37.4l2.9,-3l-2.9,-2.95l-2.9,3l2.9,2.95Z" style="fill:#f00;"/><path d="M15.3,34.4l2.85,3l2.85,-2.95l-2.85,-3l-2.85,2.95Z" style="fill:#f00;"/><path d="M57.95,19.55c-2,2.667 -2.983,4.283 -2.95,4.85l0.7,30.65c1.667,-1.4 2.5,-5.117 2.5,-11.15l-0.25,-24.35Z"/><path d="M47.7,45.9c0,-0.933 -0.383,-3.067 -1.15,-6.4c-0.867,2.033 -1.567,3.567 -2.1,4.6c0.8,1.633 1.317,2.8 1.55,3.5c-0.871,1.097 -3.271,1.647 -7.2,1.65l-2,0l-0,5.75l2,0c3.014,-0.071 5.198,-0.705 6.55,-1.9c1.567,-1.4 2.35,-3.8 2.35,-7.2Z"/><path d="M43.3,28.8l-3.25,3.4l3.3,3.3l3.25,-3.3l-3.3,-3.4Z"/><path d="M43.85,11.5c-0.5,-0.7 -1.117,-1.05 -1.85,-1.05c-0.967,-0 -1.7,0.45 -2.2,1.35c-0.4,0.733 -0.6,1.65 -0.6,2.75c0,1.733 0.733,2.6 2.2,2.6c0.867,-0 1.6,-0.367 2.2,-1.1c0.6,-0.7 0.9,-1.517 0.9,-2.45c0,-0.767 -0.217,-1.467 -0.65,-2.1Zm-4,2.25c-0,-0.967 0.417,-1.45 1.25,-1.45c0.367,0 0.833,0.217 1.4,0.65c0.6,0.433 0.9,0.833 0.9,1.2c0,0.567 -0.533,0.85 -1.6,0.85c-1.3,0 -1.95,-0.417 -1.95,-1.25Z"/><path d="M21.405,9.697l-6.25,4.65c-0.665,0.494 -0.803,1.434 -0.308,2.098c0.494,0.665 1.434,0.803 2.098,0.308l6.25,-4.65c0.665,-0.494 0.803,-1.434 0.308,-2.098c-0.494,-0.665 -1.434,-0.803 -2.098,-0.308Z"/><path d="M59.159,9.693l-6.3,4.65c-0.666,0.492 -0.807,1.432 -0.316,2.098c0.492,0.666 1.432,0.807 2.098,0.316l6.3,-4.65c0.666,-0.492 0.807,-1.432 0.316,-2.098c-0.492,-0.666 -1.432,-0.807 -2.098,-0.316Z"/></g></svg>