<?xml version="1.0" encoding="UTF-8" standalone="no"?><!DOCTYPE svg PUBLIC "-//W3C//DTD SVG 1.1//EN" "http://www.w3.org/Graphics/SVG/1.1/DTD/svg11.dtd"><svg width="100%" height="100%" viewBox="0 0 95 82" version="1.1" xmlns="http://www.w3.org/2000/svg" xmlns:xlink="http://www.w3.org/1999/xlink" xml:space="preserve" xmlns:serif="http://www.serif.com/" style="fill-rule:evenodd;clip-rule:evenodd;stroke-linejoin:round;stroke-miterlimit:2;"><g><path d="M61.45,68.3l3.3,-3.35l-3.3,-3.4l-3.3,3.4l3.3,3.35Z"/><path d="M24.653,44.203c1.331,2.531 1.997,5.447 1.997,8.747c-0,3.4 -1.117,6.317 -3.35,8.75c-2.233,2.433 -4.983,3.65 -8.25,3.65c-2.633,0 -4.667,-0.65 -6.1,-1.95c-1.567,-1.4 -2.35,-3.433 -2.35,-6.1c0,-1.467 0.25,-2.983 0.75,-4.55c0.567,-1.733 1.283,-3.083 2.15,-4.05l-0.7,5.5c-0,3.8 2.183,5.7 6.55,5.7c1.767,-0 3.633,-0.45 5.6,-1.35c2.4,-1.1 3.6,-2.433 3.6,-4c-0,-1.267 -0.367,-2.567 -1.1,-3.9c-0.367,-0.667 -1.133,-1.817 -2.3,-3.45c0.633,-2.3 1.283,-4.1 1.95,-5.4l1.553,2.403Z"/><path d="M76.7,20.25c-2,2.667 -2.983,4.283 -2.95,4.85l0.7,30.65c1.667,-1.4 2.5,-5.117 2.5,-11.15l-0.25,-24.35Z"/><path d="M34.55,22.95c-0.433,0.567 -0.65,1.35 -0.65,2.35c-0,7.767 0.05,12.75 0.15,14.95c0.3,7.5 1.017,12.033 2.15,13.6c0.933,1.233 2.25,1.85 3.95,1.85l5.45,0c1.067,0 1.95,-0.417 2.65,-1.25c0.2,-0.267 0.733,-1.167 1.6,-2.7c1.067,1.667 1.633,2.533 1.7,2.6c0.733,0.9 1.6,1.35 2.6,1.35l3.85,0l-0,-0.05c2.783,-0.099 4.816,-0.715 6.1,-1.85c1.567,-1.4 2.35,-3.8 2.35,-7.2c0,-0.933 -0.383,-3.067 -1.15,-6.4c-0.867,2.033 -1.567,3.567 -2.1,4.6c0.8,1.633 1.317,2.8 1.55,3.5c-0.837,1.054 -3.087,1.604 -6.75,1.65l0,-0.05c-2.833,-0 -4.517,-0.133 -5.05,-0.4c-1.067,-0.533 -1.6,-2.05 -1.6,-4.55c-0.833,0.667 -1.417,1.533 -1.75,2.6c-0.233,0.9 -0.65,1.483 -1.25,1.75c-0.831,0.333 -2.398,0.516 -4.7,0.55c-3.063,-0.096 -5.097,-0.812 -6.1,-2.15c-0.9,-1.233 -1.35,-3.833 -1.35,-7.8l0,-18.65c-0.567,0.567 -1.117,1.133 -1.65,1.7Z"/><path d="M14.9,39.65l3.3,-3.35l-3.3,-3.4l-3.3,3.4l3.3,3.35Z"/><path d="M52.95,35.55l-3.25,-3.45l-3.3,3.45l3.25,3.3l3.3,-3.3Z"/><path d="M60.95,17.4c-0.967,-0 -1.7,0.45 -2.2,1.35c-0.4,0.733 -0.6,1.65 -0.6,2.75c-0,1.733 0.733,2.6 2.2,2.6c0.867,0 1.6,-0.367 2.2,-1.1c0.6,-0.7 0.9,-1.517 0.9,-2.45c0,-0.767 -0.217,-1.467 -0.65,-2.1c-0.5,-0.7 -1.117,-1.05 -1.85,-1.05Zm-0.2,4.55c-1.3,0 -1.95,-0.417 -1.95,-1.25c-0,-0.967 0.417,-1.45 1.25,-1.45c0.367,-0 0.833,0.217 1.4,0.65c0.6,0.433 0.9,0.833 0.9,1.2c0,0.567 -0.533,0.85 -1.6,0.85Z"/><path d="M13.209,67.143l-6.3,4.65c-0.666,0.492 -0.807,1.432 -0.316,2.098c0.492,0.666 1.432,0.807 2.098,0.316l6.3,-4.65c0.666,-0.492 0.807,-1.432 0.316,-2.098c-0.492,-0.666 -1.432,-0.807 -2.098,-0.316Z"/><path d="M77.809,55.993l-6.3,4.65c-0.666,0.492 -0.807,1.432 -0.316,2.098c0.492,0.666 1.432,0.807 2.098,0.316l6.3,-4.65c0.666,-0.492 0.807,-1.432 0.316,-2.098c-0.492,-0.666 -1.432,-0.807 -2.098,-0.316Z"/><path d="M46.559,10.993l-6.3,4.65c-0.666,0.492 -0.807,1.432 -0.316,2.098c0.492,0.666 1.432,0.807 2.098,0.316l6.3,-4.65c0.666,-0.492 0.807,-1.432 0.316,-2.098c-0.492,-0.666 -1.432,-0.807 -2.098,-0.316Z"/></g></svg>