<?xml version="1.0" encoding="UTF-8" standalone="no"?><!DOCTYPE svg PUBLIC "-//W3C//DTD SVG 1.1//EN" "http://www.w3.org/Graphics/SVG/1.1/DTD/svg11.dtd"><svg width="100%" height="100%" viewBox="0 0 58 72" version="1.1" xmlns="http://www.w3.org/2000/svg" xmlns:xlink="http://www.w3.org/1999/xlink" xml:space="preserve" xmlns:serif="http://www.serif.com/" style="fill-rule:evenodd;clip-rule:evenodd;stroke-linejoin:round;stroke-miterlimit:2;"><g><path d="M27.503,42.903c1.331,2.531 1.997,5.447 1.997,8.747c0,3.4 -1.117,6.317 -3.35,8.75c-2.233,2.433 -4.983,3.65 -8.25,3.65c-2.633,0 -4.667,-0.65 -6.1,-1.95c-1.567,-1.4 -2.35,-3.433 -2.35,-6.1c0,-1.467 0.25,-2.983 0.75,-4.55c0.567,-1.733 1.283,-3.083 2.15,-4.05l-0.7,5.5c-0,3.8 2.183,5.7 6.55,5.7c1.767,0 3.633,-0.45 5.6,-1.35c2.4,-1.1 3.6,-2.433 3.6,-4c-0,-1.267 -0.367,-2.567 -1.1,-3.9c-0.367,-0.667 -1.133,-1.817 -2.3,-3.45c0.633,-2.3 1.283,-4.1 1.95,-5.4l1.553,2.403Z"/><path d="M39.8,18.95c-2,2.667 -2.983,4.283 -2.95,4.85l0.7,30.65c1.667,-1.4 2.5,-5.117 2.5,-11.15l-0.25,-24.35Z"/><path d="M17.75,38.35l3.3,-3.35l-3.3,-3.4l-3.3,3.4l3.3,3.35Z"/><path d="M18.4,18.1c-0.5,-0.7 -1.117,-1.05 -1.85,-1.05c-0.967,0 -1.7,0.45 -2.2,1.35c-0.4,0.733 -0.6,1.65 -0.6,2.75c-0,1.733 0.733,2.6 2.2,2.6c0.867,-0 1.6,-0.367 2.2,-1.1c0.6,-0.7 0.9,-1.517 0.9,-2.45c-0,-0.767 -0.217,-1.467 -0.65,-2.1Zm-0.45,2.65c0,0.567 -0.533,0.85 -1.6,0.85c-1.3,0 -1.95,-0.417 -1.95,-1.25c-0,-0.967 0.417,-1.45 1.25,-1.45c0.367,-0 0.833,0.217 1.4,0.65c0.6,0.433 0.9,0.833 0.9,1.2Z"/><path d="M40.555,56.297l-6.25,4.65c-0.665,0.494 -0.803,1.434 -0.308,2.098c0.494,0.665 1.434,0.803 2.098,0.308l6.25,-4.65c0.665,-0.494 0.803,-1.434 0.308,-2.098c-0.494,-0.665 -1.434,-0.803 -2.098,-0.308Z"/></g></svg>