<?xml version="1.0" encoding="UTF-8" standalone="no"?><!DOCTYPE svg PUBLIC "-//W3C//DTD SVG 1.1//EN" "http://www.w3.org/Graphics/SVG/1.1/DTD/svg11.dtd"><svg width="100%" height="100%" viewBox="0 0 83 75" version="1.1" xmlns="http://www.w3.org/2000/svg" xmlns:xlink="http://www.w3.org/1999/xlink" xml:space="preserve" xmlns:serif="http://www.serif.com/" style="fill-rule:evenodd;clip-rule:evenodd;stroke-linejoin:round;stroke-miterlimit:2;"><g><path d="M18.1,49.25l-2.4,0l0,5.75l1.75,0c0.231,-0.006 0.448,-0.023 0.65,-0.05c2.786,-0.098 4.836,-0.715 6.15,-1.85c1.567,-1.4 2.35,-3.8 2.35,-7.2c-0,-0.933 -0.4,-3.067 -1.2,-6.4c-0.833,2.033 -1.517,3.567 -2.05,4.6c0.8,1.633 1.3,2.8 1.5,3.5c-0.807,1.055 -3.057,1.605 -6.75,1.65Z" style="fill:#f00;"/><path d="M20.45,28.2l-2.95,2.9l2.9,3l2.85,-2.95l-2.8,-2.95Z" style="fill:#f00;"/><path d="M29.05,31.1l-2.9,-2.9l-2.9,2.95l2.9,2.95l2.9,-3Z" style="fill:#f00;"/><path d="M49.95,67.6l3.3,-3.35l-3.3,-3.35l-3.3,3.35l3.3,3.35Z"/><path d="M36.1,20.55c-0.567,0.567 -1.117,1.133 -1.65,1.7c-0.433,0.567 -0.65,1.35 -0.65,2.35c-0,7.767 0.05,12.75 0.15,14.95c0.3,7.5 1.017,12.033 2.15,13.6c0.933,1.233 2.25,1.85 3.95,1.85l5.4,-0c1.067,-0 1.95,-0.417 2.65,-1.25c0.2,-0.267 0.733,-1.167 1.6,-2.7c1.067,1.667 1.633,2.533 1.7,2.6c0.733,0.9 1.6,1.35 2.6,1.35l3.85,-0l-0,-0.05c2.783,-0.099 4.816,-0.715 6.1,-1.85c1.567,-1.4 2.35,-3.8 2.35,-7.2c-0,-0.933 -0.383,-3.067 -1.15,-6.4c-0.867,2.033 -1.567,3.567 -2.1,4.6c0.8,1.633 1.317,2.8 1.55,3.5c-0.837,1.054 -3.087,1.604 -6.75,1.65l-0,-0.05c-2.833,-0 -4.517,-0.133 -5.05,-0.4c-1.067,-0.533 -1.6,-2.05 -1.6,-4.55c-0.833,0.667 -1.417,1.533 -1.75,2.6c-0.233,0.9 -0.65,1.483 -1.25,1.75c-0.828,0.331 -2.378,0.514 -4.65,0.55c-3.065,-0.098 -5.099,-0.815 -6.1,-2.15c-0.9,-1.233 -1.35,-3.833 -1.35,-7.8l-0,-18.65Z"/><path d="M18.1,55l-0,-0.05c-0.202,0.027 -0.419,0.044 -0.65,0.05l0.65,0Z"/><path d="M8.05,22.25c-0.433,0.567 -0.65,1.35 -0.65,2.35c0,7.767 0.05,12.75 0.15,14.95c0.3,7.5 1.017,12.033 2.15,13.6c0.933,1.233 2.25,1.85 3.95,1.85l2.05,-0l0,-5.75l2.4,-0l-0,-0.05c-3.6,-0 -5.95,-0.733 -7.05,-2.2c-0.9,-1.233 -1.35,-3.833 -1.35,-7.8l0,-18.65c-0.567,0.567 -1.117,1.133 -1.65,1.7Z"/><path d="M61.9,28.8l-3.25,3.4l3.3,3.3l3.25,-3.3l-3.3,-3.4Z"/><path d="M21.948,12.882l-5.85,3.7c-0.699,0.443 -0.908,1.37 -0.466,2.07c0.443,0.699 1.37,0.908 2.07,0.466l5.85,-3.7c0.699,-0.443 0.908,-1.37 0.466,-2.07c-0.443,-0.699 -1.37,-0.908 -2.07,-0.466Z"/><path d="M45.405,9.697l-6.25,4.65c-0.665,0.494 -0.803,1.434 -0.308,2.098c0.494,0.665 1.434,0.803 2.098,0.308l6.25,-4.65c0.665,-0.494 0.803,-1.434 0.308,-2.098c-0.494,-0.665 -1.434,-0.803 -2.098,-0.308Z"/><path d="M62.859,9.693l-6.3,4.65c-0.666,0.492 -0.807,1.432 -0.316,2.098c0.492,0.666 1.432,0.807 2.098,0.316l6.3,-4.65c0.666,-0.492 0.807,-1.432 0.316,-2.098c-0.492,-0.666 -1.432,-0.807 -2.098,-0.316Z"/><path d="M21.043,9.635l-5.8,3.7c-0.698,0.446 -0.903,1.374 -0.458,2.072c0.446,0.698 1.374,0.903 2.072,0.458l5.8,-3.7c0.698,-0.446 0.903,-1.374 0.458,-2.072c-0.446,-0.698 -1.374,-0.903 -2.072,-0.458Z"/></g></svg>