<?xml version="1.0" encoding="UTF-8" standalone="no"?><!DOCTYPE svg PUBLIC "-//W3C//DTD SVG 1.1//EN" "http://www.w3.org/Graphics/SVG/1.1/DTD/svg11.dtd"><svg width="100%" height="100%" viewBox="0 0 102 71" version="1.1" xmlns="http://www.w3.org/2000/svg" xmlns:xlink="http://www.w3.org/1999/xlink" xml:space="preserve" xmlns:serif="http://www.serif.com/" style="fill-rule:evenodd;clip-rule:evenodd;stroke-linejoin:round;stroke-miterlimit:2;"><g><path d="M24.55,51.9c-2.867,0 -5.483,-0.417 -7.85,-1.25c-3.3,-1.167 -4.95,-2.917 -4.95,-5.25c0,-1.033 0.5,-2.55 1.5,-4.55c-1.1,0.767 -1.983,1.833 -2.65,3.2c-0.7,1.333 -1.05,2.7 -1.05,4.1c-0,2.933 1.183,5.233 3.55,6.9c2.033,1.433 4.55,2.15 7.55,2.15c5.967,-0 11.967,-1.767 18,-5.3c1.433,2.867 2.9,4.3 4.4,4.3l0.25,-0l-0,-5.8l1.35,0c-1.619,-0.05 -2.719,-0.35 -3.3,-0.9c-0.633,-0.6 -1.083,-1.883 -1.35,-3.85c-4.033,4.167 -9.183,6.25 -15.45,6.25Z" style="fill:#f00;"/><path d="M84.413,44.8c0.191,1.067 0.287,1.833 0.287,2.3c0,3.4 -0.783,5.8 -2.35,7.2c-1.253,1.107 -3.22,1.724 -5.9,1.85c-0.241,0.027 -0.491,0.044 -0.75,0.05l-1.9,-0l-0,-5.75l2.65,-0c3.545,-0.065 5.728,-0.615 6.55,-1.65c-0.233,-0.7 -0.75,-1.867 -1.55,-3.5c0.533,-1.033 1.233,-2.567 2.1,-4.6l0.863,4.1Z" style="fill:#f00;"/><path d="M52.75,50.5c-0.221,-0.012 -0.437,-0.029 -0.65,-0.05c-0.708,-0.021 -1.375,-0.038 -2,-0.05l-0.6,0l0,5.8l5.4,-0c1.1,-0 1.983,-0.417 2.65,-1.25c0.1,-0.133 0.633,-1.033 1.6,-2.7c0.5,0.867 1.2,1.7 2.1,2.5c1.067,0.967 1.967,1.45 2.7,1.45l3.7,-0l-0,-5.7c-0.066,0.028 -0.133,0.044 -0.2,0.05c-1.167,0.067 -1.967,0.1 -2.4,0.1c-1.467,0 -2.517,-0.3 -3.15,-0.9c-0.767,-0.733 -1.183,-2.1 -1.25,-4.1c-1.3,2.2 -2.2,3.533 -2.7,4c-0.633,0.567 -1.6,0.85 -2.9,0.85l-2.3,0Z" style="fill:#f00;"/><path d="M33.4,34.7l-2.9,-2.85l-2.85,2.95l2.85,2.9l2.9,-3Z" style="fill:#f00;"/><path d="M21.9,34.7l2.9,3l2.85,-2.9l-2.9,-2.95l-2.85,2.85Z" style="fill:#f00;"/><path d="M65.3,34.6l-2.95,-2.9l-2.85,2.95l2.85,2.95l2.95,-3Z" style="fill:#f00;"/><path d="M56.65,31.7l-2.85,2.9l2.85,3l2.85,-2.95l-2.85,-2.95Z" style="fill:#f00;"/><path d="M86.65,34.5l-2.9,-2.9l-2.9,2.95l2.9,2.95l2.9,-3Z" style="fill:#f00;"/><path d="M80.85,34.55l-2.85,-2.95l-2.85,2.9l2.85,3l2.85,-2.95Z" style="fill:#f00;"/><path d="M27.8,31.6l2.9,-3.05l-2.9,-2.95l-2.85,2.95l2.85,3.05Z" style="fill:#f00;"/><path d="M59.7,31.5l2.85,-3.05l-2.85,-2.95l-2.85,2.95l2.85,3.05Z" style="fill:#f00;"/><path d="M81,31.35l2.9,-3l-2.85,-2.95l-2.9,2.95l2.85,3Z" style="fill:#f00;"/><rect x="43.3" y="50.4" width="6.2" height="5.8"/><path d="M75.7,56.2l0.75,-0l0,-0.05c-0.241,0.027 -0.491,0.044 -0.75,0.05Z"/><path d="M67.65,50.4l-0,5.8l6.15,-0l-0,-5.75l2.65,-0l0,-0.05l-8.8,0Z"/><path d="M52.1,50.45l0,-0.05l-2,0c0.625,0.012 1.292,0.029 2,0.05Z"/><path d="M61.7,13.85c0,-0.767 -0.217,-1.467 -0.65,-2.1c-0.5,-0.7 -1.117,-1.05 -1.85,-1.05c-0.967,-0 -1.7,0.45 -2.2,1.35c-0.4,0.733 -0.6,1.65 -0.6,2.75c-0,1.733 0.733,2.6 2.2,2.6c0.867,0 1.6,-0.367 2.2,-1.1c0.6,-0.7 0.9,-1.517 0.9,-2.45Zm-1.1,0.55c0,0.567 -0.533,0.85 -1.6,0.85c-1.3,0 -1.95,-0.417 -1.95,-1.25c-0,-0.967 0.417,-1.45 1.25,-1.45c0.367,0 0.833,0.217 1.4,0.65c0.6,0.433 0.9,0.833 0.9,1.2Z"/><path d="M22.648,61.382l-5.85,3.7c-0.699,0.443 -0.908,1.37 -0.466,2.07c0.443,0.699 1.37,0.908 2.07,0.466l5.85,-3.7c0.699,-0.443 0.908,-1.37 0.466,-2.07c-0.443,-0.699 -1.37,-0.908 -2.07,-0.466Z"/><path d="M21.743,58.135l-5.8,3.7c-0.698,0.446 -0.903,1.374 -0.458,2.072c0.446,0.698 1.374,0.903 2.072,0.458l5.8,-3.7c0.698,-0.446 0.903,-1.374 0.458,-2.072c-0.446,-0.698 -1.374,-0.903 -2.072,-0.458Z"/><path d="M80.259,8.043l-6.3,4.65c-0.666,0.492 -0.807,1.432 -0.316,2.098c0.492,0.666 1.432,0.807 2.098,0.316l6.3,-4.65c0.666,-0.492 0.807,-1.432 0.316,-2.098c-0.492,-0.666 -1.432,-0.807 -2.098,-0.316Z"/></g></svg>