<?xml version="1.0" encoding="UTF-8" standalone="no"?><!DOCTYPE svg PUBLIC "-//W3C//DTD SVG 1.1//EN" "http://www.w3.org/Graphics/SVG/1.1/DTD/svg11.dtd"><svg width="100%" height="100%" viewBox="0 0 61 71" version="1.1" xmlns="http://www.w3.org/2000/svg" xmlns:xlink="http://www.w3.org/1999/xlink" xml:space="preserve" xmlns:serif="http://www.serif.com/" style="fill-rule:evenodd;clip-rule:evenodd;stroke-linejoin:round;stroke-miterlimit:2;"><g><path d="M12.4,49.75c-3.3,-1.167 -4.95,-2.917 -4.95,-5.25c0,-1.033 0.5,-2.55 1.5,-4.55c-1.1,0.767 -1.983,1.833 -2.65,3.2c-0.7,1.333 -1.05,2.7 -1.05,4.1c0,2.933 1.183,5.233 3.55,6.9c2.033,1.433 4.55,2.15 7.55,2.15c5.967,0 11.967,-1.767 18,-5.3c1.433,2.867 2.9,4.3 4.4,4.3l0.25,0l0,-5.8l1.35,-0c-1.619,-0.05 -2.719,-0.35 -3.3,-0.9c-0.633,-0.6 -1.083,-1.883 -1.35,-3.85c-4.033,4.167 -9.183,6.25 -15.45,6.25c-2.867,-0 -5.483,-0.417 -7.85,-1.25Z" style="fill:#f00;"/><path d="M26.2,30.95l-2.85,2.95l2.85,2.9l2.9,-3l-2.9,-2.85Z" style="fill:#f00;"/><path d="M20.5,36.8l2.85,-2.9l-2.9,-2.95l-2.85,2.85l2.9,3Z" style="fill:#f00;"/><path d="M23.5,24.7l-2.85,2.95l2.85,3.05l2.9,-3.05l-2.9,-2.95Z" style="fill:#f00;"/><path d="M47.8,49.5l-8.8,0l0,5.8l8.8,0l-0,-5.8Z"/><path d="M18.591,60.237l-5.85,3.75c-0.697,0.447 -0.901,1.376 -0.454,2.072c0.447,0.697 1.376,0.901 2.072,0.454l5.85,-3.75c0.697,-0.447 0.901,-1.376 0.454,-2.072c-0.447,-0.697 -1.376,-0.901 -2.072,-0.454Z"/><path d="M17.686,56.99l-5.8,3.75c-0.696,0.45 -0.895,1.379 -0.446,2.074c0.45,0.696 1.379,0.895 2.074,0.446l5.8,-3.75c0.696,-0.45 0.895,-1.379 0.446,-2.074c-0.45,-0.696 -1.379,-0.895 -2.074,-0.446Z"/></g></svg>