<?xml version="1.0" encoding="UTF-8" standalone="no"?><!DOCTYPE svg PUBLIC "-//W3C//DTD SVG 1.1//EN" "http://www.w3.org/Graphics/SVG/1.1/DTD/svg11.dtd"><svg width="100%" height="100%" viewBox="0 0 83 82" version="1.1" xmlns="http://www.w3.org/2000/svg" xmlns:xlink="http://www.w3.org/1999/xlink" xml:space="preserve" xmlns:serif="http://www.serif.com/" style="fill-rule:evenodd;clip-rule:evenodd;stroke-linejoin:round;stroke-miterlimit:2;"><g><path d="M66.5,44.8c0.8,1.633 1.317,2.8 1.55,3.5c-0.878,1.106 -3.311,1.656 -7.3,1.65l0,5.75c3.066,-0.058 5.283,-0.692 6.65,-1.9c1.567,-1.4 2.35,-3.8 2.35,-7.2c0,-0.933 -0.383,-3.067 -1.15,-6.4c-0.867,2.033 -1.567,3.567 -2.1,4.6Z" style="fill:#f00;"/><path d="M63.05,37l2.85,-2.95l-2.85,-2.95l-2.85,2.9l2.85,3Z" style="fill:#f00;"/><path d="M71.7,34l-2.9,-2.9l-2.9,2.95l2.9,2.95l2.9,-3Z" style="fill:#f00;"/><path d="M66.05,30.85l2.9,-3l-2.85,-2.95l-2.9,2.95l2.85,3Z" style="fill:#f00;"/><path d="M56,49.237c0.467,0.292 0.917,0.48 1.35,0.563c0.267,0.067 1.4,0.1 3.4,0.1l0,5.8l-1.9,0c-0.424,0.017 -0.791,0.133 -1.1,0.35c-0.267,2.267 -1.3,4.733 -3.1,7.4c-2.033,3 -4.05,4.5 -6.05,4.5c-1.467,0 -3,-0.483 -4.6,-1.45c-1.433,-0.8 -2.7,-1.85 -3.8,-3.15c0.867,0.2 1.717,0.417 2.55,0.65c1.067,0.267 1.9,0.4 2.5,0.4c1.433,-0 3.567,-1.033 6.4,-3.1c2.933,-2.133 4.4,-3.883 4.4,-5.25c-0,-0.133 -0.383,-0.8 -1.15,-2c-0.867,-1.4 -1.317,-2.133 -1.35,-2.2c0.467,-1.067 0.8,-2.333 1,-3.8l1.45,1.187Z"/><path d="M36.25,43.2c1.633,1.267 2.45,2.617 2.45,4.05c-1.1,1.267 -3.683,2.317 -7.75,3.15c-3.333,0.667 -6.25,1 -8.75,1c-2.867,-0 -5.467,-0.383 -7.8,-1.15c-3.4,-1.1 -5.1,-2.783 -5.1,-5.05c-0,-1.033 0.383,-2.533 1.15,-4.5c-2.433,2.4 -3.65,4.75 -3.65,7.05c-0,5.667 4.333,8.5 13,8.5c14.133,0 21.2,-4.05 21.2,-12.15c0,-3 -0.983,-5.167 -2.95,-6.5c-0.267,1.333 -0.867,3.2 -1.8,5.6Z"/><path d="M27.5,38.1l2.95,-3l-2.95,-2.95l-2.85,3l2.85,2.95Z"/><path d="M21.8,38.1l2.85,-2.95l-2.85,-3l-2.9,2.95l2.9,3Z"/><path d="M47.95,19.65c0,1.733 0.733,2.6 2.2,2.6c0.867,-0 1.6,-0.367 2.2,-1.1c0.6,-0.7 0.9,-1.517 0.9,-2.45c-0,-0.767 -0.217,-1.467 -0.65,-2.1c-0.5,-0.7 -1.117,-1.05 -1.85,-1.05c-0.967,-0 -1.7,0.45 -2.2,1.35c-0.4,0.733 -0.6,1.65 -0.6,2.75Zm1.9,-2.25c0.367,-0 0.833,0.217 1.4,0.65c0.6,0.433 0.9,0.833 0.9,1.2c0,0.567 -0.533,0.85 -1.6,0.85c-1.3,0 -1.95,-0.417 -1.95,-1.25c-0,-0.967 0.417,-1.45 1.25,-1.45Z"/><path d="M17.25,22.2c0.6,0.2 1.067,0.3 1.4,0.3c1.4,0 3.05,-1.183 4.95,-3.55c0.767,0.567 1.433,0.983 2,1.25l0.2,-2.45c-0.433,-0.333 -0.767,-0.583 -1,-0.75c0.533,-1.233 0.8,-2.217 0.8,-2.95c-0,-1.433 -0.567,-2.15 -1.7,-2.15c-0.767,-0 -1.467,0.5 -2.1,1.5c-0.533,0.933 -0.8,1.817 -0.8,2.65c0,0.7 0.517,1.433 1.55,2.2c-1.867,1.767 -3.633,3.083 -5.3,3.95Zm5,-7.7c0.067,-0.267 0.233,-0.417 0.5,-0.45c0.867,0.133 1.3,0.633 1.3,1.5c-0,0.2 -0.05,0.45 -0.15,0.75c-1.1,-0.633 -1.65,-1.233 -1.65,-1.8Z"/><path d="M66.759,60.643l-6.3,4.65c-0.666,0.492 -0.807,1.432 -0.316,2.098c0.492,0.666 1.432,0.807 2.098,0.316l6.3,-4.65c0.666,-0.492 0.807,-1.432 0.316,-2.098c-0.492,-0.666 -1.432,-0.807 -2.098,-0.316Z"/></g></svg>