<?xml version="1.0" encoding="UTF-8" standalone="no"?><!DOCTYPE svg PUBLIC "-//W3C//DTD SVG 1.1//EN" "http://www.w3.org/Graphics/SVG/1.1/DTD/svg11.dtd"><svg width="100%" height="100%" viewBox="0 0 24 24" version="1.1" xmlns="http://www.w3.org/2000/svg" xmlns:xlink="http://www.w3.org/1999/xlink" xml:space="preserve" xmlns:serif="http://www.serif.com/" style="fill-rule:evenodd;clip-rule:evenodd;stroke-linejoin:round;stroke-miterlimit:2;"><g><path d="M11.4,11.85c0.467,0.7 0.75,1.217 0.85,1.55c-0.467,0.5 -1.867,0.733 -4.2,0.7l-0.9,0l-0,2.55l0.8,-0c1.833,-0 3.15,-0.283 3.95,-0.85c0.867,-0.6 1.3,-1.65 1.3,-3.15c-0,-0.4 -0.217,-1.333 -0.65,-2.8c-0.467,0.9 -0.85,1.567 -1.15,2Z" style="fill:#f00;"/><path d="M12.95,4.85l-1.55,1.3l1.55,1.3l1.65,-1.3l-1.65,-1.3Z" style="fill:#f00;"/><path d="M11.4,6.15l-1.6,-1.3l-1.6,1.3l1.6,1.3l1.6,-1.3Z" style="fill:#f00;"/></g></svg>