<?xml version="1.0" encoding="UTF-8" standalone="no"?><!DOCTYPE svg PUBLIC "-//W3C//DTD SVG 1.1//EN" "http://www.w3.org/Graphics/SVG/1.1/DTD/svg11.dtd"><svg width="100%" height="100%" viewBox="0 0 24 24" version="1.1" xmlns="http://www.w3.org/2000/svg" xmlns:xlink="http://www.w3.org/1999/xlink" xml:space="preserve" xmlns:serif="http://www.serif.com/" style="fill-rule:evenodd;clip-rule:evenodd;stroke-linejoin:round;stroke-miterlimit:2;"><g><path d="M18.15,16.65l-0,-2.55c-0.433,0 -0.967,0.017 -1.6,0.05c-0.667,0.033 -1.133,0.05 -1.4,0.05c-0.8,-0 -1.383,-0.133 -1.75,-0.4c-0.4,-0.333 -0.617,-0.933 -0.65,-1.8c-0.733,0.967 -1.25,1.55 -1.55,1.75c-0.333,0.267 -0.867,0.4 -1.6,0.4c-0.167,-0 -0.583,-0.017 -1.25,-0.05l-1.85,0l0,2.55l3.05,-0c0.6,-0 1.083,-0.183 1.45,-0.55c0.067,-0.067 0.367,-0.467 0.9,-1.2c0.267,0.4 0.65,0.767 1.15,1.1c0.6,0.433 1.117,0.65 1.55,0.65l3.55,-0Z" style="fill:#f00;"/><path d="M14.35,6.25l-1.6,1.3l1.6,1.35l1.6,-1.35l-1.6,-1.3Z" style="fill:#f00;"/><path d="M12.75,7.55l-1.6,-1.3l-1.6,1.3l1.6,1.35l1.6,-1.35Z" style="fill:#f00;"/></g></svg>