<?xml version="1.0" encoding="UTF-8" standalone="no"?><!DOCTYPE svg PUBLIC "-//W3C//DTD SVG 1.1//EN" "http://www.w3.org/Graphics/SVG/1.1/DTD/svg11.dtd"><svg width="100%" height="100%" viewBox="0 0 86 82" version="1.1" xmlns="http://www.w3.org/2000/svg" xmlns:xlink="http://www.w3.org/1999/xlink" xml:space="preserve" xmlns:serif="http://www.serif.com/" style="fill-rule:evenodd;clip-rule:evenodd;stroke-linejoin:round;stroke-miterlimit:2;"><g><path d="M76.4,39.05c-0.833,2.033 -1.517,3.567 -2.05,4.6c0.8,1.633 1.3,2.8 1.5,3.5c-0.842,1.101 -3.259,1.651 -7.25,1.65l0,5.75c3.042,-0.065 5.259,-0.698 6.65,-1.9c1.567,-1.4 2.35,-3.8 2.35,-7.2c0,-0.933 -0.4,-3.067 -1.2,-6.4Z" style="fill:#f00;"/><path d="M74.25,30.7l-2.8,-2.95l-2.95,2.9l2.9,3l2.85,-2.95Z" style="fill:#f00;"/><path d="M77.15,27.75l-2.9,2.95l2.9,2.95l2.9,-3l-2.9,-2.9Z" style="fill:#f00;"/><path d="M65.2,48.65c-0.867,-0.167 -1.8,-0.75 -2.8,-1.75c-0.2,1.467 -0.533,2.733 -1,3.8c0.033,0.067 0.483,0.8 1.35,2.2c0.767,1.2 1.15,1.867 1.15,2c-0,1.367 -1.467,3.117 -4.4,5.25c-2.833,2.067 -4.967,3.1 -6.4,3.1c-0.6,0 -1.433,-0.133 -2.5,-0.4c-0.833,-0.233 -1.683,-0.45 -2.55,-0.65c1.1,1.3 2.367,2.35 3.8,3.15c1.6,0.967 3.133,1.45 4.6,1.45c2,-0 4.017,-1.5 6.05,-4.5c1.8,-2.667 2.833,-5.133 3.1,-7.4c0.309,-0.217 0.676,-0.333 1.1,-0.35l1.9,-0l0,-5.8c-2,-0 -3.133,-0.033 -3.4,-0.1Z"/><path d="M30.05,51.8c-0,-4.4 -1.183,-8.117 -3.55,-11.15c-0.667,1.3 -1.317,3.1 -1.95,5.4c1.167,1.633 1.933,2.783 2.3,3.45c0.733,1.333 1.1,2.633 1.1,3.9c0,1.567 -1.2,2.9 -3.6,4c-1.967,0.9 -3.833,1.35 -5.6,1.35c-4.367,-0 -6.55,-1.9 -6.55,-5.7c0,-0.633 0.117,-1.55 0.35,-2.75c0.233,-1.2 0.35,-2.117 0.35,-2.75c-0.867,0.967 -1.583,2.317 -2.15,4.05c-0.5,1.567 -0.75,3.083 -0.75,4.55c0,2.667 0.783,4.7 2.35,6.1c1.433,1.3 3.467,1.95 6.1,1.95c3.267,0 6.017,-1.217 8.25,-3.65c2.233,-2.433 3.35,-5.35 3.35,-8.75Z"/><path d="M29.35,61.7c1.833,0.733 3.083,1.217 3.75,1.45c1.3,0.367 2.633,0.55 4,0.55c3.8,0 6.767,-1.617 8.9,-4.85c1.867,-2.833 2.8,-6.317 2.8,-10.45c-0,-1.633 -0.267,-3.217 -0.8,-4.75c-0.733,-2.067 -1.767,-3.1 -3.1,-3.1c-1.1,0 -2.15,1.017 -3.15,3.05c-0.867,1.8 -1.3,3.367 -1.3,4.7c0,2.3 0.867,3.45 2.6,3.45c1.367,0 2.633,-0.767 3.8,-2.3c0.333,0.7 0.5,1.333 0.5,1.9c0,3.367 -2.317,6.05 -6.95,8.05c-3.6,1.533 -7.283,2.3 -11.05,2.3Zm16.25,-14.8c0,0.333 -0.183,0.633 -0.55,0.9c-0.4,0.233 -0.783,0.35 -1.15,0.35c-0.033,-0 -0.533,-0.25 -1.5,-0.75c0.433,-1.033 0.85,-1.967 1.25,-2.8c1.3,0.6 1.95,1.367 1.95,2.3Z"/><path d="M18.3,38.5l3.3,-3.35l-3.3,-3.4l-3.3,3.4l3.3,3.35Z"/><path d="M41.8,17.95c-0.967,-0 -1.7,0.45 -2.2,1.35c-0.4,0.733 -0.6,1.65 -0.6,2.75c0,1.733 0.733,2.6 2.2,2.6c0.867,-0 1.6,-0.367 2.2,-1.1c0.6,-0.7 0.9,-1.517 0.9,-2.45c-0,-0.767 -0.217,-1.467 -0.65,-2.1c-0.5,-0.7 -1.117,-1.05 -1.85,-1.05Zm-0.2,4.55c-1.3,0 -1.95,-0.417 -1.95,-1.25c-0,-0.967 0.417,-1.45 1.25,-1.45c0.367,0 0.833,0.217 1.4,0.65c0.6,0.433 0.9,0.833 0.9,1.2c0,0.567 -0.533,0.85 -1.6,0.85Z"/><path d="M18.355,12.497l-6.25,4.65c-0.665,0.494 -0.803,1.434 -0.308,2.098c0.494,0.665 1.434,0.803 2.098,0.308l6.25,-4.65c0.665,-0.494 0.803,-1.434 0.308,-2.098c-0.494,-0.665 -1.434,-0.803 -2.098,-0.308Z"/><path d="M75.309,12.493l-6.3,4.65c-0.666,0.492 -0.807,1.432 -0.316,2.098c0.492,0.666 1.432,0.807 2.098,0.316l6.3,-4.65c0.666,-0.492 0.807,-1.432 0.316,-2.098c-0.492,-0.666 -1.432,-0.807 -2.098,-0.316Z"/><path d="M60.309,12.493l-6.3,4.65c-0.666,0.492 -0.807,1.432 -0.316,2.098c0.492,0.666 1.432,0.807 2.098,0.316l6.3,-4.65c0.666,-0.492 0.807,-1.432 0.316,-2.098c-0.492,-0.666 -1.432,-0.807 -2.098,-0.316Z"/></g></svg>