<?xml version="1.0" encoding="UTF-8" standalone="no"?><!DOCTYPE svg PUBLIC "-//W3C//DTD SVG 1.1//EN" "http://www.w3.org/Graphics/SVG/1.1/DTD/svg11.dtd"><svg width="100%" height="100%" viewBox="0 0 101 82" version="1.1" xmlns="http://www.w3.org/2000/svg" xmlns:xlink="http://www.w3.org/1999/xlink" xml:space="preserve" xmlns:serif="http://www.serif.com/" style="fill-rule:evenodd;clip-rule:evenodd;stroke-linejoin:round;stroke-miterlimit:2;"><g><path d="M86.1,43.4c0.2,1.067 0.3,1.833 0.3,2.3c0,3.4 -0.783,5.8 -2.35,7.2c-1.391,1.202 -3.608,1.835 -6.65,1.9l-1.9,-0l0,-5.75l1.9,-0c3.991,0.001 6.408,-0.549 7.25,-1.65c-0.2,-0.7 -0.7,-1.867 -1.5,-3.5c0.533,-1.033 1.217,-2.567 2.05,-4.6l0.9,4.1Z" style="fill:#f00;"/><path d="M85.95,28l-2.9,2.95l2.9,2.95l2.9,-3l-2.9,-2.9Z" style="fill:#f00;"/><path d="M80.25,28l-2.95,2.9l2.9,3l2.85,-2.95l-2.8,-2.95Z" style="fill:#f00;"/><path d="M75.5,49.05l1.9,-0l0,-0.05c-2,-0 -3.133,-0.033 -3.4,-0.1c-0.867,-0.167 -1.8,-0.75 -2.8,-1.75c-0.2,1.467 -0.533,2.733 -1,3.8c0.033,0.067 0.483,0.8 1.35,2.2c0.767,1.2 1.15,1.867 1.15,2c0,1.367 -1.467,3.117 -4.4,5.25c-2.833,2.067 -4.967,3.1 -6.4,3.1c-0.6,-0 -1.433,-0.133 -2.5,-0.4c-0.833,-0.233 -1.683,-0.45 -2.55,-0.65c1.1,1.3 2.367,2.35 3.8,3.15c1.6,0.967 3.133,1.45 4.6,1.45c2,-0 4.017,-1.5 6.05,-4.5c1.8,-2.667 2.833,-5.133 3.1,-7.4c0.309,-0.217 0.676,-0.333 1.1,-0.35l0,-5.75Z"/><path d="M30.3,37.7l0.05,4.1c1.567,0 3.2,0.683 4.9,2.05c1.8,1.467 2.7,2.983 2.7,4.55c0,0.633 -1,1.15 -3,1.55c-1.5,0.333 -2.8,0.5 -3.9,0.5c-1.467,0 -2.933,-0.417 -4.4,-1.25c-0.2,2.067 -0.3,3.2 -0.3,3.4c-0,1.633 0.517,2.667 1.55,3.1c0.567,0.233 1.783,0.35 3.65,0.35c2.433,-0 4.3,-0.75 5.6,-2.25c1.2,-1.4 1.8,-3.367 1.8,-5.9c0,-3.033 -0.7,-5.717 -2.1,-8.05c-1.5,-2.567 -3.583,-4.3 -6.25,-5.2c-0.2,0.867 -0.3,1.883 -0.3,3.05Z"/><path d="M18.7,43.9c-0.733,-2.067 -1.767,-3.1 -3.1,-3.1c-1.1,0 -2.15,1.017 -3.15,3.05c-0.867,1.8 -1.3,3.367 -1.3,4.7c0,2.3 0.867,3.45 2.6,3.45c1.367,0 2.633,-0.767 3.8,-2.3c0.333,0.7 0.5,1.333 0.5,1.9c-0,3.367 -2.317,6.05 -6.95,8.05c-3.6,1.533 -7.283,2.3 -11.05,2.3c1.833,0.733 3.083,1.217 3.75,1.45c1.3,0.367 2.633,0.55 4,0.55c3.8,0 6.767,-1.617 8.9,-4.85c1.867,-2.833 2.8,-6.317 2.8,-10.45c0,-1.633 -0.267,-3.217 -0.8,-4.75Zm-2.4,3.25c-0,0.333 -0.183,0.633 -0.55,0.9c-0.4,0.233 -0.783,0.35 -1.15,0.35c-0.033,-0 -0.533,-0.25 -1.5,-0.75c0.433,-1.033 0.85,-1.967 1.25,-2.8c1.3,0.6 1.95,1.367 1.95,2.3Z"/><path d="M56.85,43.9c-0.733,-2.067 -1.767,-3.1 -3.1,-3.1c-1.1,0 -2.15,1.017 -3.15,3.05c-0.867,1.8 -1.3,3.367 -1.3,4.7c-0,2.3 0.867,3.45 2.6,3.45c1.367,0 2.633,-0.767 3.8,-2.3c0.333,0.7 0.5,1.333 0.5,1.9c0,3.367 -2.317,6.05 -6.95,8.05c-3.6,1.533 -7.283,2.3 -11.05,2.3c1.833,0.733 3.083,1.217 3.75,1.45c1.3,0.367 2.633,0.55 4,0.55c3.8,0 6.767,-1.617 8.9,-4.85c1.867,-2.833 2.8,-6.317 2.8,-10.45c0,-1.633 -0.267,-3.217 -0.8,-4.75Zm-2.4,3.25c0,0.333 -0.183,0.633 -0.55,0.9c-0.4,0.233 -0.783,0.35 -1.15,0.35c-0.033,-0 -0.533,-0.25 -1.5,-0.75c0.433,-1.033 0.85,-1.967 1.25,-2.8c1.3,0.6 1.95,1.367 1.95,2.3Z"/><path d="M67.25,37.05l3.3,3.3l3.3,-3.3l-3.3,-3.45l-3.3,3.45Z"/><path d="M52.4,26.1c-0.133,0.8 -0.25,1.35 -0.35,1.65c-0.267,0.667 -0.633,1 -1.1,1c-0.4,0 -0.6,-0.6 -0.6,-1.8l-0.4,0.05c-0.233,0.867 -0.35,1.417 -0.35,1.65c-0,0.467 0.1,0.883 0.3,1.25c0.233,0.4 0.567,0.6 1,0.6c0.4,0 0.767,-0.15 1.1,-0.45c0.367,-0.3 0.567,-0.633 0.6,-1c0.3,0.233 0.633,0.35 1,0.35c1.133,-0 1.7,-0.933 1.7,-2.8c-0,-0.5 -0.067,-1.033 -0.2,-1.6l-0.35,0.15c0,1.633 -0.383,2.45 -1.15,2.45c-0.333,0 -0.633,-0.533 -0.9,-1.6l-0.3,0.1Z"/><path d="M23.85,16.5c-0,0.7 0.517,1.433 1.55,2.2c-1.867,1.767 -3.633,3.083 -5.3,3.95c0.6,0.2 1.067,0.3 1.4,0.3c1.4,-0 3.05,-1.183 4.95,-3.55c0.767,0.567 1.433,0.983 2,1.25l0.2,-2.45c-0.433,-0.333 -0.767,-0.583 -1,-0.75c0.533,-1.233 0.8,-2.217 0.8,-2.95c0,-1.433 -0.567,-2.15 -1.7,-2.15c-0.767,0 -1.467,0.5 -2.1,1.5c-0.533,0.933 -0.8,1.817 -0.8,2.65Zm3.05,-0.5c0,0.2 -0.05,0.45 -0.15,0.75c-1.1,-0.633 -1.65,-1.233 -1.65,-1.8c0.067,-0.267 0.233,-0.417 0.5,-0.45c0.867,0.133 1.3,0.633 1.3,1.5Z"/><path d="M83.709,12.493l-6.3,4.65c-0.666,0.492 -0.807,1.432 -0.316,2.098c0.492,0.666 1.432,0.807 2.098,0.316l6.3,-4.65c0.666,-0.492 0.807,-1.432 0.316,-2.098c-0.492,-0.666 -1.432,-0.807 -2.098,-0.316Z"/><path d="M53.709,12.493l-6.3,4.65c-0.666,0.492 -0.807,1.432 -0.316,2.098c0.492,0.666 1.432,0.807 2.098,0.316l6.3,-4.65c0.666,-0.492 0.807,-1.432 0.316,-2.098c-0.492,-0.666 -1.432,-0.807 -2.098,-0.316Z"/><path d="M69.359,12.493l-6.3,4.65c-0.666,0.492 -0.807,1.432 -0.316,2.098c0.492,0.666 1.432,0.807 2.098,0.316l6.3,-4.65c0.666,-0.492 0.807,-1.432 0.316,-2.098c-0.492,-0.666 -1.432,-0.807 -2.098,-0.316Z"/></g></svg>