<?xml version="1.0" encoding="UTF-8" standalone="no"?><!DOCTYPE svg PUBLIC "-//W3C//DTD SVG 1.1//EN" "http://www.w3.org/Graphics/SVG/1.1/DTD/svg11.dtd"><svg width="100%" height="100%" viewBox="0 0 75 71" version="1.1" xmlns="http://www.w3.org/2000/svg" xmlns:xlink="http://www.w3.org/1999/xlink" xml:space="preserve" xmlns:serif="http://www.serif.com/" style="fill-rule:evenodd;clip-rule:evenodd;stroke-linejoin:round;stroke-miterlimit:2;"><g><path d="M49.65,51.4l-0,0.2c0.784,0.012 1.551,-0.021 2.3,-0.1l0,5.6c2.837,-0.085 4.92,-0.702 6.25,-1.85c1.567,-1.4 2.35,-3.8 2.35,-7.2c-0,-0.933 -0.4,-3.067 -1.2,-6.4c-0.833,2.033 -1.517,3.567 -2.05,4.6c0.8,1.633 1.3,2.8 1.5,3.5c-0.867,1.133 -3.4,1.683 -7.6,1.65l-1.55,0Z" style="fill:#f00;"/><path d="M57.2,33.3l-2.8,-2.95l-2.95,2.9l2.9,3l2.85,-2.95Z" style="fill:#f00;"/><path d="M60.1,30.35l-2.9,2.95l2.9,2.95l2.9,-3l-2.9,-2.9Z" style="fill:#f00;"/><path d="M26.9,66.4l-3.3,-3.4l-3.3,3.4l3.3,3.35l3.3,-3.35Z"/><path d="M10.05,24.4c-0.433,0.567 -0.65,1.35 -0.65,2.35c-0,7.767 0.05,12.75 0.15,14.95c0.3,7.5 1.017,12.033 2.15,13.6c0.933,1.233 2.25,1.85 3.95,1.85l4.45,0l0,-0.05c2.808,-0.092 4.858,-0.708 6.15,-1.85c1.567,-1.4 2.35,-3.8 2.35,-7.2c0,-0.933 -0.383,-3.067 -1.15,-6.4c-0.867,2.033 -1.567,3.567 -2.1,4.6c0.8,1.633 1.317,2.8 1.55,3.5c-0.841,1.059 -3.108,1.609 -6.8,1.65l0,-0.05c-3.6,-0 -5.95,-0.733 -7.05,-2.2c-0.9,-1.233 -1.35,-3.833 -1.35,-7.8l0,-18.65c-0.567,0.567 -1.117,1.133 -1.65,1.7Z"/><path d="M46.45,48.1c-0.8,-1.467 -1.617,-2.2 -2.45,-2.2c-1,0 -2.05,1.1 -3.15,3.3c-1,2 -1.5,3.633 -1.5,4.9c0,1.533 0.717,2.5 2.15,2.9c1.333,0.2 2.667,0.417 4,0.65c-1.567,2.433 -3.2,4.217 -4.9,5.35c-1.9,1.267 -4.15,1.9 -6.75,1.9c-1.4,0 -3.433,-0.117 -6.1,-0.35c2.467,2.533 5.35,3.8 8.65,3.8c2.833,0 5.25,-1.217 7.25,-3.65c1.4,-1.667 2.767,-4.183 4.1,-7.55l4.2,0l0,-5.65c-0.749,0.079 -1.516,0.112 -2.3,0.1c-0.542,-0.012 -1.092,-0.046 -1.65,-0.1c-0.533,-1.133 -1.05,-2.267 -1.55,-3.4Zm-3.65,2.15c0.867,0.433 1.4,0.817 1.6,1.15c0.233,0.3 0.433,0.933 0.6,1.9c-0.833,0 -1.817,-0.083 -2.95,-0.25c-0,-0.433 -0.083,-0.733 -0.25,-0.9c0.333,-0.7 0.667,-1.333 1,-1.9Z"/><path d="M51.6,10.95c-0.767,-0 -1.467,0.5 -2.1,1.5c-0.533,0.933 -0.8,1.817 -0.8,2.65c0,0.7 0.517,1.433 1.55,2.2c-1.867,1.767 -3.633,3.083 -5.3,3.95c0.6,0.2 1.067,0.3 1.4,0.3c1.4,0 3.05,-1.183 4.95,-3.55c0.767,0.567 1.433,0.983 2,1.25l0.2,-2.45c-0.433,-0.333 -0.767,-0.583 -1,-0.75c0.533,-1.233 0.8,-2.217 0.8,-2.95c-0,-1.433 -0.567,-2.15 -1.7,-2.15Z"/><path d="M51.6,15.35c-1.1,-0.633 -1.65,-1.233 -1.65,-1.8c0.067,-0.267 0.233,-0.417 0.5,-0.45c0.867,0.133 1.3,0.633 1.3,1.5c0,0.2 -0.05,0.45 -0.15,0.75Z"/><path d="M23.255,10.297l-6.25,4.65c-0.665,0.494 -0.803,1.434 -0.308,2.098c0.494,0.665 1.434,0.803 2.098,0.308l6.25,-4.65c0.665,-0.494 0.803,-1.434 0.308,-2.098c-0.494,-0.665 -1.434,-0.803 -2.098,-0.308Z"/></g></svg>