<?xml version="1.0" encoding="UTF-8" standalone="no"?><!DOCTYPE svg PUBLIC "-//W3C//DTD SVG 1.1//EN" "http://www.w3.org/Graphics/SVG/1.1/DTD/svg11.dtd"><svg width="100%" height="100%" viewBox="0 0 78 82" version="1.1" xmlns="http://www.w3.org/2000/svg" xmlns:xlink="http://www.w3.org/1999/xlink" xml:space="preserve" xmlns:serif="http://www.serif.com/" style="fill-rule:evenodd;clip-rule:evenodd;stroke-linejoin:round;stroke-miterlimit:2;"><g><path d="M63.65,39.4c-0.833,2.033 -1.517,3.567 -2.05,4.6c0.8,1.633 1.3,2.8 1.5,3.5c-0.842,1.101 -3.259,1.651 -7.25,1.65l0,5.75c3.042,-0.065 5.259,-0.698 6.65,-1.9c1.567,-1.4 2.35,-3.8 2.35,-7.2c0,-0.933 -0.4,-3.067 -1.2,-6.4Z" style="fill:#f00;"/><path d="M58.7,28.1l-2.95,2.9l2.9,3l2.85,-2.95l-2.8,-2.95Z" style="fill:#f00;"/><path d="M67.3,31l-2.9,-2.9l-2.9,2.95l2.9,2.95l2.9,-3Z" style="fill:#f00;"/><path d="M19.95,67.5l3.3,-3.35l-3.3,-3.4l-3.3,3.4l3.3,3.35Z"/><path d="M51.1,48.438c0.467,0.291 0.917,0.479 1.35,0.562c0.267,0.067 1.4,0.1 3.4,0.1l0,5.8l-1.9,-0c-0.424,0.017 -0.791,0.133 -1.1,0.35c-0.267,2.267 -1.3,4.733 -3.1,7.4c-2.033,3 -4.05,4.5 -6.05,4.5c-1.467,-0 -3,-0.483 -4.6,-1.45c-1.433,-0.8 -2.7,-1.85 -3.8,-3.15c0.867,0.2 1.717,0.417 2.55,0.65c1.067,0.267 1.9,0.4 2.5,0.4c1.433,0 3.567,-1.033 6.4,-3.1c2.933,-2.133 4.4,-3.883 4.4,-5.25c-0,-0.133 -0.383,-0.8 -1.15,-2c-0.867,-1.4 -1.317,-2.133 -1.35,-2.2c0.467,-1.067 0.8,-2.333 1,-3.8l1.45,1.188Z"/><path d="M35.2,19.45c-2,2.667 -2.983,4.283 -2.95,4.85l0.7,30.65c1.667,-1.4 2.5,-5.117 2.5,-11.15l-0.25,-24.35Z"/><path d="M6.4,22.15c-0.433,0.567 -0.65,1.35 -0.65,2.35c0,7.767 0.05,12.75 0.15,14.95c0.3,7.5 1.017,12.033 2.15,13.6c0.933,1.233 2.25,1.85 3.95,1.85l4.45,-0l0,-0.05c2.808,-0.092 4.858,-0.708 6.15,-1.85c1.567,-1.4 2.35,-3.8 2.35,-7.2c0,-0.933 -0.383,-3.067 -1.15,-6.4c-0.867,2.033 -1.567,3.567 -2.1,4.6c0.8,1.633 1.317,2.8 1.55,3.5c-0.841,1.059 -3.108,1.609 -6.8,1.65l0,-0.05c-3.6,0 -5.95,-0.733 -7.05,-2.2c-0.9,-1.233 -1.35,-3.833 -1.35,-7.8l-0,-18.65c-0.567,0.567 -1.117,1.133 -1.65,1.7Z"/><path d="M61.8,9.7c-0.767,-0 -1.467,0.5 -2.1,1.5c-0.533,0.933 -0.8,1.817 -0.8,2.65c-0,0.7 0.517,1.433 1.55,2.2c-1.867,1.767 -3.633,3.083 -5.3,3.95c0.6,0.2 1.067,0.3 1.4,0.3c1.4,0 3.05,-1.183 4.95,-3.55c0.767,0.567 1.433,0.983 2,1.25l0.2,-2.45c-0.433,-0.333 -0.767,-0.583 -1,-0.75c0.533,-1.233 0.8,-2.217 0.8,-2.95c-0,-1.433 -0.567,-2.15 -1.7,-2.15Zm-1.65,2.6c0.067,-0.267 0.233,-0.417 0.5,-0.45c0.867,0.133 1.3,0.633 1.3,1.5c0,0.2 -0.05,0.45 -0.15,0.75c-1.1,-0.633 -1.65,-1.233 -1.65,-1.8Z"/><path d="M17.198,15.232l-5.85,3.7c-0.699,0.443 -0.908,1.37 -0.466,2.07c0.443,0.699 1.37,0.908 2.07,0.466l5.85,-3.7c0.699,-0.443 0.908,-1.37 0.466,-2.07c-0.443,-0.699 -1.37,-0.908 -2.07,-0.466Z"/><path d="M46.059,12.493l-6.3,4.65c-0.666,0.492 -0.807,1.432 -0.316,2.098c0.492,0.666 1.432,0.807 2.098,0.316l6.3,-4.65c0.666,-0.492 0.807,-1.432 0.316,-2.098c-0.492,-0.666 -1.432,-0.807 -2.098,-0.316Z"/><path d="M16.293,11.985l-5.8,3.7c-0.698,0.446 -0.903,1.374 -0.458,2.072c0.446,0.698 1.374,0.903 2.072,0.458l5.8,-3.7c0.698,-0.446 0.903,-1.374 0.458,-2.072c-0.446,-0.698 -1.374,-0.903 -2.072,-0.458Z"/></g></svg>