<?xml version="1.0" encoding="UTF-8" standalone="no"?><!DOCTYPE svg PUBLIC "-//W3C//DTD SVG 1.1//EN" "http://www.w3.org/Graphics/SVG/1.1/DTD/svg11.dtd"><svg width="100%" height="100%" viewBox="0 0 116 82" version="1.1" xmlns="http://www.w3.org/2000/svg" xmlns:xlink="http://www.w3.org/1999/xlink" xml:space="preserve" xmlns:serif="http://www.serif.com/" style="fill-rule:evenodd;clip-rule:evenodd;stroke-linejoin:round;stroke-miterlimit:2;"><g><path d="M56.95,45.45c0,-0.933 -0.383,-3.067 -1.15,-6.4c-0.867,2.033 -1.567,3.567 -2.1,4.6c0.8,1.633 1.317,2.8 1.55,3.5c-0.9,1.133 -3.433,1.683 -7.6,1.65l-1.6,0l-0,5.75l1.65,-0c0.226,-0.004 0.443,-0.021 0.65,-0.05c2.86,-0.078 4.943,-0.695 6.25,-1.85c1.567,-1.4 2.35,-3.8 2.35,-7.2Z" style="fill:#f00;"/><path d="M56,35.85l2.9,-3l-2.9,-2.9l-2.9,2.95l2.9,2.95Z" style="fill:#f00;"/><path d="M47.4,32.85l2.85,3l2.85,-2.95l-2.85,-2.95l-2.85,2.9Z" style="fill:#f00;"/><path d="M53.3,23.75l-2.9,2.95l2.85,3l2.9,-3l-2.85,-2.95Z" style="fill:#f00;"/><path d="M74.95,50.05c0,-1.667 -0.333,-3.1 -1,-4.3c-0.467,-0.9 -1.383,-2.05 -2.75,-3.45l-1.2,4.8c0.667,0.833 1.35,1.65 2.05,2.45c0.933,1.167 1.4,2.05 1.4,2.65c0,3.1 -2.167,5.75 -6.5,7.95c-3.7,1.867 -7.217,2.8 -10.55,2.8c2.7,1.9 5.367,2.85 8,2.85c3.067,-0 5.667,-1.9 7.8,-5.7c1.833,-3.3 2.75,-6.65 2.75,-10.05Z"/><path d="M21.75,49.5c0.733,1.333 1.1,2.633 1.1,3.9c-0,1.567 -1.2,2.9 -3.6,4c-1.967,0.9 -3.833,1.35 -5.6,1.35c-4.367,0 -6.55,-1.9 -6.55,-5.7c-0,-0.633 0.117,-1.55 0.35,-2.75c0.233,-1.2 0.35,-2.117 0.35,-2.75c-0.867,0.967 -1.583,2.317 -2.15,4.05c-0.5,1.567 -0.75,3.083 -0.75,4.55c0,2.667 0.783,4.7 2.35,6.1c1.433,1.3 3.467,1.95 6.1,1.95c3.267,0 6.017,-1.217 8.25,-3.65c2.233,-2.433 3.35,-5.35 3.35,-8.75c0,-4.4 -1.183,-8.117 -3.55,-11.15c-0.667,1.3 -1.317,3.1 -1.95,5.4c1.167,1.633 1.933,2.783 2.3,3.45Z"/><path d="M85.05,19.1c-2,2.667 -2.983,4.283 -2.95,4.85l0.7,30.65c1.667,-1.4 2.5,-5.117 2.5,-11.15l-0.25,-24.35Z"/><path d="M47.7,54.55l0.65,-0l-0,-0.05c-0.207,0.029 -0.424,0.046 -0.65,0.05Z"/><path d="M37.25,46.6c-1,2 -1.5,3.633 -1.5,4.9c0,1.533 0.717,2.5 2.15,2.9c1.333,0.2 2.667,0.417 4,0.65c-1.567,2.433 -3.2,4.217 -4.9,5.35c-1.9,1.267 -4.15,1.9 -6.75,1.9c-1.4,-0 -3.433,-0.117 -6.1,-0.35c2.467,2.533 5.35,3.8 8.65,3.8c2.833,0 5.25,-1.217 7.25,-3.65c1.4,-1.667 2.767,-4.183 4.1,-7.55l1.9,-0l-0,-5.55c-0.542,-0.012 -1.092,-0.046 -1.65,-0.1c-0.533,-1.133 -1.05,-2.267 -1.55,-3.4c-0.8,-1.467 -1.617,-2.2 -2.45,-2.2c-1,0 -2.05,1.1 -3.15,3.3Zm3.55,2.2c0.233,0.3 0.433,0.933 0.6,1.9c-0.833,0 -1.817,-0.083 -2.95,-0.25c0,-0.433 -0.083,-0.733 -0.25,-0.9c0.333,-0.7 0.667,-1.333 1,-1.9c0.867,0.433 1.4,0.817 1.6,1.15Z"/><path d="M88.85,63.15c1.3,0.367 2.633,0.55 4,0.55c3.8,0 6.767,-1.617 8.9,-4.85c1.867,-2.833 2.8,-6.317 2.8,-10.45c-0,-1.633 -0.267,-3.217 -0.8,-4.75c-0.733,-2.067 -1.767,-3.1 -3.1,-3.1c-1.1,0 -2.15,1.017 -3.15,3.05c-0.867,1.8 -1.3,3.367 -1.3,4.7c0,2.3 0.867,3.45 2.6,3.45c1.367,0 2.633,-0.767 3.8,-2.3c0.333,0.7 0.5,1.333 0.5,1.9c-0,3.367 -2.317,6.05 -6.95,8.05c-3.6,1.533 -7.283,2.3 -11.05,2.3c1.833,0.733 3.083,1.217 3.75,1.45Zm9.3,-15.75c0.433,-1.033 0.85,-1.967 1.25,-2.8c1.3,0.6 1.95,1.367 1.95,2.3c-0,0.333 -0.183,0.633 -0.55,0.9c-0.4,0.233 -0.783,0.35 -1.15,0.35c-0.033,-0 -0.533,-0.25 -1.5,-0.75Z"/><path d="M13.2,38.5l3.3,-3.35l-3.3,-3.4l-3.3,3.4l3.3,3.35Z"/><path d="M50.75,13.35c0,-1.433 -0.567,-2.15 -1.7,-2.15c-0.767,-0 -1.467,0.5 -2.1,1.5c-0.533,0.933 -0.8,1.817 -0.8,2.65c0,0.7 0.517,1.433 1.55,2.2c-1.867,1.767 -3.633,3.083 -5.3,3.95c0.6,0.2 1.067,0.3 1.4,0.3c1.4,0 3.05,-1.183 4.95,-3.55c0.767,0.567 1.433,0.983 2,1.25l0.2,-2.45c-0.433,-0.333 -0.767,-0.583 -1,-0.75c0.533,-1.233 0.8,-2.217 0.8,-2.95Zm-1.55,1.5c0,0.2 -0.05,0.45 -0.15,0.75c-1.1,-0.633 -1.65,-1.233 -1.65,-1.8c0.067,-0.267 0.233,-0.417 0.5,-0.45c0.867,0.133 1.3,0.633 1.3,1.5Z"/><path d="M67.959,66.343l-6.3,4.65c-0.666,0.492 -0.807,1.432 -0.316,2.098c0.492,0.666 1.432,0.807 2.098,0.316l6.3,-4.65c0.666,-0.492 0.807,-1.432 0.316,-2.098c-0.492,-0.666 -1.432,-0.807 -2.098,-0.316Z"/><path d="M13.009,12.493l-6.3,4.65c-0.666,0.492 -0.807,1.432 -0.316,2.098c0.492,0.666 1.432,0.807 2.098,0.316l6.3,-4.65c0.666,-0.492 0.807,-1.432 0.316,-2.098c-0.492,-0.666 -1.432,-0.807 -2.098,-0.316Z"/><path d="M96.609,12.493l-6.3,4.65c-0.666,0.492 -0.807,1.432 -0.316,2.098c0.492,0.666 1.432,0.807 2.098,0.316l6.3,-4.65c0.666,-0.492 0.807,-1.432 0.316,-2.098c-0.492,-0.666 -1.432,-0.807 -2.098,-0.316Z"/></g></svg>