<?xml version="1.0" encoding="UTF-8" standalone="no"?><!DOCTYPE svg PUBLIC "-//W3C//DTD SVG 1.1//EN" "http://www.w3.org/Graphics/SVG/1.1/DTD/svg11.dtd"><svg width="100%" height="100%" viewBox="0 0 80 82" version="1.1" xmlns="http://www.w3.org/2000/svg" xmlns:xlink="http://www.w3.org/1999/xlink" xml:space="preserve" xmlns:serif="http://www.serif.com/" style="fill-rule:evenodd;clip-rule:evenodd;stroke-linejoin:round;stroke-miterlimit:2;"><g><path d="M60.15,48.35c0.667,0.833 1.35,1.65 2.05,2.45c0.933,1.167 1.4,2.05 1.4,2.65c0,3.1 -2.167,5.75 -6.5,7.95c-3.7,1.867 -7.217,2.8 -10.55,2.8c2.7,1.9 5.367,2.85 8,2.85c3.067,-0 5.667,-1.9 7.8,-5.7c1.833,-3.3 2.75,-6.65 2.75,-10.05c0,-1.667 -0.333,-3.1 -1,-4.3c-0.467,-0.9 -1.383,-2.05 -2.75,-3.45l-1.2,4.8Z"/><path d="M24.95,56.7c0.567,0.233 1.783,0.35 3.65,0.35c2.433,-0 4.3,-0.75 5.6,-2.25c1.2,-1.4 1.8,-3.367 1.8,-5.9c0,-3.033 -0.7,-5.717 -2.1,-8.05c-1.5,-2.567 -3.583,-4.3 -6.25,-5.2c-0.2,0.867 -0.3,1.883 -0.3,3.05l0.05,4.1c1.567,0 3.2,0.683 4.9,2.05c1.8,1.467 2.7,2.983 2.7,4.55c0,0.633 -1,1.15 -3,1.55c-1.5,0.333 -2.8,0.5 -3.9,0.5c-1.467,0 -2.933,-0.417 -4.4,-1.25c-0.2,2.067 -0.3,3.2 -0.3,3.4c-0,1.633 0.517,2.667 1.55,3.1Z"/><path d="M15.7,20.35c-2,2.667 -2.983,4.283 -2.95,4.85l0.7,30.65c1.667,-1.4 2.5,-5.117 2.5,-11.15l-0.25,-24.35Z"/><path d="M46.25,20.35c-2,2.667 -2.983,4.283 -2.95,4.85l0.7,30.65c1.667,-1.4 2.5,-5.117 2.5,-11.15l-0.25,-24.35Z"/><path d="M98.7,43.9c-0.733,-2.067 -1.767,-3.1 -3.1,-3.1c-1.1,0 -2.15,1.017 -3.15,3.05c-0.867,1.8 -1.3,3.367 -1.3,4.7c0,2.3 0.867,3.45 2.6,3.45c1.367,0 2.633,-0.767 3.8,-2.3c0.333,0.7 0.5,1.333 0.5,1.9c-0,3.367 -2.317,6.05 -6.95,8.05c-3.6,1.533 -7.283,2.3 -11.05,2.3c1.833,0.733 3.083,1.217 3.75,1.45c1.3,0.367 2.633,0.55 4,0.55c3.8,0 6.767,-1.617 8.9,-4.85c1.867,-2.833 2.8,-6.317 2.8,-10.45c0,-1.633 -0.267,-3.217 -0.8,-4.75Zm-2.4,3.25c-0,0.333 -0.183,0.633 -0.55,0.9c-0.4,0.233 -0.783,0.35 -1.15,0.35c-0.033,-0 -0.533,-0.25 -1.5,-0.75c0.433,-1.033 0.85,-1.967 1.25,-2.8c1.3,0.6 1.95,1.367 1.95,2.3Z"/><path d="M59.95,37.1l3.3,-3.35l-3.3,-3.4l-3.3,3.4l3.3,3.35Z"/><path d="M25.786,15.24l-5.8,3.75c-0.696,0.45 -0.895,1.379 -0.446,2.074c0.45,0.696 1.379,0.895 2.074,0.446l5.8,-3.75c0.696,-0.45 0.895,-1.379 0.446,-2.074c-0.45,-0.696 -1.379,-0.895 -2.074,-0.446Z"/><path d="M56.615,12.539l-6.3,4.6c-0.668,0.488 -0.815,1.427 -0.326,2.096c0.488,0.668 1.427,0.815 2.096,0.326l6.3,-4.6c0.668,-0.488 0.815,-1.427 0.326,-2.096c-0.488,-0.668 -1.427,-0.815 -2.096,-0.326Z"/><path d="M24.936,11.99l-5.8,3.75c-0.696,0.45 -0.895,1.379 -0.446,2.074c0.45,0.696 1.379,0.895 2.074,0.446l5.8,-3.75c0.696,-0.45 0.895,-1.379 0.446,-2.074c-0.45,-0.696 -1.379,-0.895 -2.074,-0.446Z"/></g></svg>