<?xml version="1.0" encoding="UTF-8" standalone="no"?><!DOCTYPE svg PUBLIC "-//W3C//DTD SVG 1.1//EN" "http://www.w3.org/Graphics/SVG/1.1/DTD/svg11.dtd"><svg width="100%" height="100%" viewBox="0 0 67 79" version="1.1" xmlns="http://www.w3.org/2000/svg" xmlns:xlink="http://www.w3.org/1999/xlink" xml:space="preserve" xmlns:serif="http://www.serif.com/" style="fill-rule:evenodd;clip-rule:evenodd;stroke-linejoin:round;stroke-miterlimit:2;"><g><path d="M23.15,52.2c0.6,1.167 0.9,2.3 0.9,3.4c-0,1.367 -0.967,2.517 -2.9,3.45c-1.567,0.8 -3.067,1.2 -4.5,1.2c-3.533,-0 -5.3,-1.65 -5.3,-4.95c-0,-0.533 0.1,-1.333 0.3,-2.4c0.2,-1.067 0.3,-1.867 0.3,-2.4c-0.7,0.833 -1.267,2.017 -1.7,3.55c-0.433,1.367 -0.65,2.683 -0.65,3.95c-0,2.333 0.633,4.1 1.9,5.3c1.167,1.133 2.8,1.7 4.9,1.7c2.633,0 4.85,-1.05 6.65,-3.15c1.8,-2.133 2.7,-4.683 2.7,-7.65c-0,-3.833 -0.95,-7.067 -2.85,-9.7c-0.533,1.133 -1.05,2.7 -1.55,4.7c0.933,1.4 1.533,2.4 1.8,3Z"/><path d="M56,25.75c-1.6,2.333 -2.4,3.733 -2.4,4.2l0.6,26.7c1.333,-1.233 2,-4.467 2,-9.7l-0.2,-21.2Z"/><path d="M18.95,39.7l-2.65,-2.95l-2.65,2.95l2.65,2.95l2.65,-2.95Z"/><path d="M32.85,27.8c0.867,-0.467 1.3,-1.1 1.3,-1.9c0,-0.633 -0.183,-1.55 -0.55,-2.75c-0.4,-1.233 -0.6,-2.15 -0.6,-2.75c-0.767,0.567 -1.15,1.083 -1.15,1.55c-0,0.567 0.183,1.4 0.55,2.5c0.4,1.067 0.6,1.883 0.6,2.45c0,0.367 -0.05,0.667 -0.15,0.9Z"/><path d="M56.8,19.1c-0,0.567 0.183,1.4 0.55,2.5c0.4,1.067 0.6,1.883 0.6,2.45c0,0.367 -0.05,0.667 -0.15,0.9c0.867,-0.467 1.3,-1.1 1.3,-1.9c-0,-0.633 -0.183,-1.55 -0.55,-2.75c-0.4,-1.233 -0.6,-2.15 -0.6,-2.75c-0.767,0.567 -1.15,1.083 -1.15,1.55Z"/><path d="M47.05,20.45c-0,-0.667 -0.183,-1.283 -0.55,-1.85c-0.4,-0.6 -0.9,-0.9 -1.5,-0.9c-0.767,0 -1.35,0.383 -1.75,1.15c-0.333,0.667 -0.5,1.467 -0.5,2.4c-0,1.5 0.583,2.25 1.75,2.25c0.7,0 1.3,-0.317 1.8,-0.95c0.5,-0.6 0.75,-1.3 0.75,-2.1Zm-2.287,-1.012c0.191,0.091 0.404,0.229 0.637,0.412c0.467,0.4 0.7,0.75 0.7,1.05c-0,0.25 -0.104,0.437 -0.313,0.562l-0.937,0.188c-1.067,-0 -1.6,-0.367 -1.6,-1.1c-0,-0.833 0.333,-1.25 1,-1.25l0.513,0.138Z"/><path d="M48.15,12.05c1.167,0.533 1.867,0.85 2.1,0.95c0.567,0.2 1.317,0.3 2.25,0.3c1.033,-0 2.283,-0.45 3.75,-1.35c1.633,-0.967 2.45,-1.967 2.45,-3c-1.7,0.967 -2.6,1.483 -2.7,1.55c-1.067,0.5 -2.033,0.75 -2.9,0.75c-1.667,-0 -3.233,-0.583 -4.7,-1.75c-1.233,2.033 -2.067,3.817 -2.5,5.35c0.367,-0.267 0.767,-0.717 1.2,-1.35c0.467,-0.767 0.817,-1.25 1.05,-1.45Z"/><path d="M28.55,29.55c-0.3,0.5 -0.45,1.1 -0.45,1.8c-0,1.233 0.333,2.383 1,3.45c0.767,1.2 1.667,1.8 2.7,1.8c0.5,0 0.85,-0.1 1.05,-0.3c0.433,-0.367 0.683,-0.567 0.75,-0.6c0.8,0.567 2.267,2.333 4.4,5.3c1.633,2.3 2.967,4.267 4,5.9c-0.4,0.8 -1.033,1.783 -1.9,2.95c-0.967,1.267 -1.733,2.1 -2.3,2.5l-1.75,-0.65l-0,4.75c1.167,0.4 2.733,0.6 4.7,0.6c1.8,-0 2.967,-0.267 3.5,-0.8c0.6,-0.6 0.9,-1.9 0.9,-3.9c0,-2.533 -0.467,-4.533 -1.4,-6c0.4,-1.233 0.75,-3.1 1.05,-5.6c0.3,-2.467 0.617,-4.217 0.95,-5.25l0.35,0.4c0.533,-0.333 0.967,-1 1.3,-2c0.1,-0.233 0.317,-1.033 0.65,-2.4c-1.433,-0.767 -2.15,-1.767 -2.15,-3c0,-0.5 0.067,-1.133 0.2,-1.9c-1.333,1.233 -2.267,2.967 -2.8,5.2c0.067,0.3 0.283,0.767 0.65,1.4c0.367,0.533 0.55,0.917 0.55,1.15c-0,0.867 -0.2,2.583 -0.6,5.15c-0.367,2.767 -0.667,4.383 -0.9,4.85c-3.633,-5.6 -5.617,-8.65 -5.95,-9.15c-3.133,-4.4 -5.5,-6.6 -7.1,-6.6c-0.6,0 -1.067,0.317 -1.4,0.95Zm14.75,20.5c0.273,0.697 0.423,1.08 0.45,1.15c-0.018,0.03 -0.085,0.347 -0.2,0.95l-3.35,0.2c1.3,-1.3 2.15,-2.55 2.55,-3.75l0.55,1.45Z" style="fill:#f00;"/><path d="M16.077,20.28l-5.1,3.65c-0.673,0.482 -0.829,1.42 -0.347,2.093c0.482,0.673 1.42,0.829 2.093,0.347l5.1,-3.65c0.673,-0.482 0.829,-1.42 0.347,-2.093c-0.482,-0.673 -1.42,-0.829 -2.093,-0.347Z"/></g></svg>