<?xml version="1.0" encoding="UTF-8" standalone="no"?><!DOCTYPE svg PUBLIC "-//W3C//DTD SVG 1.1//EN" "http://www.w3.org/Graphics/SVG/1.1/DTD/svg11.dtd"><svg width="100%" height="100%" viewBox="0 0 64 46" version="1.1" xmlns="http://www.w3.org/2000/svg" xmlns:xlink="http://www.w3.org/1999/xlink" xml:space="preserve" xmlns:serif="http://www.serif.com/" style="fill-rule:evenodd;clip-rule:evenodd;stroke-linecap:round;stroke-linejoin:round;"><g><path d="M15.2,26.7c-0.433,0.2 -0.817,0.783 -1.15,1.75c-0.3,0.833 -0.45,1.567 -0.45,2.2c0,1.2 0.45,2.083 1.35,2.65c0.733,0.5 1.7,0.75 2.9,0.75c1.133,-0 2.35,-0.283 3.65,-0.85c1.433,-0.633 2.45,-1.4 3.05,-2.3c0.4,0.8 0.7,1.333 0.9,1.6c0.467,0.633 0.917,0.95 1.35,0.95l2.75,0c0.467,0 0.833,-0.183 1.1,-0.55c0.067,-0.067 0.3,-0.483 0.7,-1.25c0.2,0.4 0.5,0.783 0.9,1.15c0.433,0.433 0.817,0.65 1.15,0.65l3.2,0c0.9,0 1.55,-0.533 1.95,-1.6c0.3,-0.767 0.45,-1.733 0.45,-2.9l-0,-2.4c-0,-0.433 -0.033,-1.083 -0.1,-1.95c-0.067,-0.9 -0.1,-1.567 -0.1,-2c-0,-0.2 0.1,-0.55 0.3,-1.05c0.233,-0.5 0.35,-0.917 0.35,-1.25c0,-0.133 -0.183,-0.4 -0.55,-0.8c-0.367,-0.4 -0.55,-0.733 -0.55,-1c0,-0.1 0.033,-0.25 0.1,-0.45c0.033,-0.233 0.05,-0.4 0.05,-0.5l-0,-0.3c-0.733,0.533 -1.3,1.433 -1.7,2.7c0.067,0.333 0.317,0.767 0.75,1.3c0.267,1.9 0.4,4.75 0.4,8.55c0,0.733 -0.633,1.083 -1.9,1.05l-1.25,0l-0,0.05c-0.5,0.033 -0.833,0.05 -1,0.05c-0.6,0 -1.033,-0.133 -1.3,-0.4c-0.333,-0.333 -0.5,-0.95 -0.5,-1.85c-0.567,1 -0.95,1.6 -1.15,1.8c-0.267,0.267 -0.7,0.4 -1.3,0.4c-0.1,-0 -0.4,-0.017 -0.9,-0.05l-1.55,0c-0.5,-0.1 -0.867,-0.333 -1.1,-0.7c-0.533,-0.867 -0.8,-5.017 -0.8,-12.45c-0.233,0.233 -0.517,0.583 -0.85,1.05c-0.367,0.567 -0.55,0.967 -0.55,1.2c0.133,1.467 0.25,2.933 0.35,4.4c0.133,1.767 0.2,3.217 0.2,4.35c0,0.733 -0.65,1.45 -1.95,2.15c-1.133,0.6 -2.1,0.9 -2.9,0.9c-3.167,0 -4.75,-0.867 -4.75,-2.6c-0,-0.733 0.15,-1.55 0.45,-2.45Z"/><path d="M20.65,23.2c-0.3,0 -0.75,0.5 -1.35,1.5c-0.567,1 -0.85,1.667 -0.85,2c0,0.367 0.267,0.55 0.8,0.55c0.667,0.033 1.1,0.167 1.3,0.4c-0.5,0.533 -1.017,0.8 -1.55,0.8c-0.3,0 -0.617,-0.033 -0.95,-0.1c0.2,0.333 0.367,0.533 0.5,0.6c0.2,0.133 0.467,0.2 0.8,0.2c0.533,-0 0.967,-0.15 1.3,-0.45c0.367,-0.3 0.55,-0.75 0.55,-1.35c0,-0.567 -0.317,-0.917 -0.95,-1.05c-0.667,-0.167 -1,-0.3 -1,-0.4c-0,-0.2 0.117,-0.417 0.35,-0.65c0.233,-0.267 0.45,-0.4 0.65,-0.4c0.133,0 0.267,0.05 0.4,0.15c0.433,-0.233 0.65,-0.6 0.65,-1.1c-0,-0.167 -0.067,-0.333 -0.2,-0.5c-0.133,-0.133 -0.283,-0.2 -0.45,-0.2Z"/><path d="M30.95,21.75c0.233,-0.6 0.533,-0.9 0.9,-0.9c0.1,0 0.233,0.033 0.4,0.1c0.2,0.067 0.333,0.1 0.4,0.1c0.2,-0 0.3,-0.2 0.3,-0.6c0,-0.167 -0.05,-0.317 -0.15,-0.45c-0.133,-0.133 -0.283,-0.2 -0.45,-0.2c-0.267,-0 -0.7,0.267 -1.3,0.8c-0.633,0.533 -0.95,0.95 -0.95,1.25c0,0.1 0.083,0.283 0.25,0.55c0.133,0.267 0.2,0.467 0.2,0.6c-0,0.067 -0.017,0.183 -0.05,0.35c-0.067,0.167 -0.1,0.3 -0.1,0.4c-0,0.067 0.017,0.167 0.05,0.3c0.833,-0.733 1.55,-1.1 2.15,-1.1l0.8,0c0.133,-0.267 0.267,-0.517 0.4,-0.75c-0.133,0 -0.333,0.017 -0.6,0.05l-0.55,-0c-0.7,-0 -1.267,-0.167 -1.7,-0.5Z"/><path d="M40.4,17.4c-0,0.267 -0.033,0.467 -0.1,0.6c0.433,-0.3 0.65,-0.717 0.65,-1.25c0,-0.4 -0.083,-1 -0.25,-1.8c-0.2,-0.8 -0.3,-1.4 -0.3,-1.8c-0.4,0.367 -0.6,0.717 -0.6,1.05c-0,0.367 0.1,0.9 0.3,1.6c0.2,0.7 0.3,1.233 0.3,1.6Z"/><path d="M35.05,12.05c0.367,0.067 0.817,0.1 1.35,0.1c0.667,-0 1.417,-0.183 2.25,-0.55c1.033,-0.433 1.55,-0.95 1.55,-1.55c-1.167,0.4 -1.783,0.617 -1.85,0.65c-0.6,0.2 -1.133,0.3 -1.6,0.3c-0.9,0 -1.817,-0.233 -2.75,-0.7c-0.767,0.867 -1.3,1.7 -1.6,2.5c0.5,-0.133 0.833,-0.317 1,-0.55c0.367,-0.333 0.567,-0.533 0.6,-0.6c0.567,0.233 0.917,0.367 1.05,0.4Z"/><path d="M51.65,17.5c-0.833,1.2 -1.25,1.917 -1.25,2.15l0.3,13.8c0.7,-0.6 1.05,-2.267 1.05,-5l-0.1,-10.95Z" style="fill:#f00;"/><path d="M44.3,28.5c-0.367,0.833 -0.55,1.55 -0.55,2.15c-0,1.033 0.367,1.55 1.1,1.55c0.6,0 1.15,-0.35 1.65,-1.05c0.133,0.3 0.2,0.583 0.2,0.85c0,1.533 -1,2.733 -3,3.6c-1.533,0.7 -3.1,1.05 -4.7,1.05c0.8,0.333 1.333,0.55 1.6,0.65c0.567,0.167 1.133,0.25 1.7,0.25c1.633,-0 2.9,-0.717 3.8,-2.15c0.8,-1.267 1.2,-2.833 1.2,-4.7c-0,-0.767 -0.117,-1.483 -0.35,-2.15c-0.3,-0.933 -0.733,-1.4 -1.3,-1.4c-0.467,-0 -0.917,0.45 -1.35,1.35Zm0.8,0.45c-0.055,0.131 -0.109,0.266 -0.164,0.404c-0.022,0.055 -0.043,0.11 -0.065,0.166c-0.02,0.051 -0.039,0.103 -0.059,0.154l-0.012,0.032c-0.036,0.096 -0.073,0.194 -0.11,0.294c-0.03,0.082 -0.06,0.166 -0.09,0.25l0.6,0.3l0.5,-0.15l0.016,-0.01l0.018,-0.012c0.015,-0.01 0.029,-0.02 0.042,-0.031c0.007,-0.005 0.014,-0.011 0.021,-0.017c0.016,-0.014 0.032,-0.03 0.046,-0.045l0.014,-0.017c0.007,-0.008 0.013,-0.016 0.018,-0.024l0.007,-0.01c0.005,-0.008 0.01,-0.016 0.015,-0.025l0,-0.001c0.014,-0.024 0.025,-0.049 0.033,-0.075l0.001,-0.004c0.013,-0.04 0.019,-0.083 0.019,-0.129l-0,-0.003c-0,-0.038 -0.003,-0.075 -0.008,-0.111l-0.003,-0.02c-0,-0.002 -0.001,-0.005 -0.001,-0.007c-0.002,-0.013 -0.005,-0.025 -0.007,-0.037c-0.002,-0.005 -0.003,-0.01 -0.004,-0.015l-0.004,-0.018c-0.001,-0.003 -0.002,-0.006 -0.003,-0.008c-0.003,-0.012 -0.007,-0.024 -0.011,-0.036c-0.003,-0.01 -0.006,-0.019 -0.01,-0.029c-0.011,-0.03 -0.024,-0.06 -0.038,-0.089l-0.012,-0.024c-0.004,-0.007 -0.008,-0.014 -0.012,-0.021c-0.002,-0.004 -0.005,-0.008 -0.007,-0.011c-0.011,-0.02 -0.023,-0.039 -0.036,-0.058l-0.003,-0.003c-0.009,-0.014 -0.018,-0.027 -0.028,-0.04l-0.01,-0.013c-0.005,-0.007 -0.01,-0.013 -0.015,-0.019l-0.638,-0.488Z" style="fill:#f00;"/><path d="M52.45,12.05c0,-0.567 -0.283,-0.85 -0.85,-0.85c-0.433,0 -0.8,0.2 -1.1,0.6c-0.267,0.333 -0.4,0.65 -0.4,0.95c0,0.267 0.267,0.533 0.8,0.8c-0.967,0.667 -1.883,1.15 -2.75,1.45c0.3,0.1 0.55,0.15 0.75,0.15c0.7,-0 1.533,-0.45 2.5,-1.35c0.4,0.2 0.75,0.367 1.05,0.5l0.1,-0.9c-0.233,-0.133 -0.4,-0.233 -0.5,-0.3c0.267,-0.467 0.4,-0.817 0.4,-1.05Zm-1.502,-0.049c-0.016,0.005 -0.031,0.011 -0.045,0.018l-0.013,0.007l-0.015,0.009c-0.018,0.011 -0.035,0.025 -0.05,0.04l-0.015,0.016l-0.004,0.005c-0.006,0.007 -0.011,0.014 -0.016,0.022l-0.007,0.01l-0.01,0.018l-0.007,0.014l-0.005,0.012c-0.001,0.002 -0.002,0.005 -0.003,0.007l-0.008,0.021l0,0.008c0,0.003 0,0.006 0.001,0.009l0.002,0.016c0,0.003 0.001,0.007 0.001,0.01l0.003,0.012c0.001,0.005 0.003,0.011 0.005,0.016c0.006,0.02 0.015,0.04 0.027,0.06l0.011,0.017c0.001,0.002 0.002,0.003 0.003,0.005c0.007,0.01 0.014,0.02 0.023,0.03c0.001,0.002 0.002,0.003 0.003,0.005c0.027,0.033 0.062,0.066 0.103,0.1c0.007,0.006 0.014,0.012 0.022,0.018l0.024,0.018l0.029,0.021c0.004,0.003 0.009,0.006 0.013,0.009l0.02,0.013l0.02,0.013c0.009,0.006 0.019,0.012 0.029,0.019l0.031,0.019c0.011,0.006 0.022,0.012 0.033,0.019l0.036,0.02l0.029,0.016l0.026,0.013c0.013,0.007 0.027,0.014 0.04,0.021l0.022,0.011c0.031,0.015 0.063,0.031 0.096,0.046l0.021,0.009c0.009,0.004 0.018,0.008 0.027,0.013c0.008,0.003 0.017,0.007 0.025,0.011c0.025,0.011 0.05,0.021 0.075,0.032l0.038,0.016c0.004,0.002 0.008,0.003 0.012,0.005l0.05,-0.3l-0,-0.017c-0.001,-0.01 -0.001,-0.02 -0.002,-0.029l-0.001,-0.015l-0.001,-0.009c-0.002,-0.008 -0.003,-0.017 -0.005,-0.025l-0.004,-0.023c-0.002,-0.008 -0.004,-0.015 -0.006,-0.022l-0.006,-0.018l-0.005,-0.014l-0.007,-0.016c-0.005,-0.013 -0.012,-0.025 -0.018,-0.037l-0.012,-0.02c-0.005,-0.008 -0.011,-0.016 -0.016,-0.024l-0.011,-0.014l-0.01,-0.011c-0.009,-0.012 -0.02,-0.023 -0.031,-0.033c-0.007,-0.007 -0.014,-0.014 -0.022,-0.021l-0.018,-0.014l-0.525,-0.188l-0.002,0.001Z" style="fill:#f00;"/><path d="M19.55,13.65l-2.6,1.9l2.6,-1.9Z" style="fill:none;stroke:#000;stroke-width:1px;"/></g></svg>