<?xml version="1.0" encoding="UTF-8" standalone="no"?><!DOCTYPE svg PUBLIC "-//W3C//DTD SVG 1.1//EN" "http://www.w3.org/Graphics/SVG/1.1/DTD/svg11.dtd"><svg width="100%" height="100%" viewBox="0 0 25 21" version="1.1" xmlns="http://www.w3.org/2000/svg" xmlns:xlink="http://www.w3.org/1999/xlink" xml:space="preserve" xmlns:serif="http://www.serif.com/" style="fill-rule:evenodd;clip-rule:evenodd;stroke-linejoin:round;stroke-miterlimit:2;"><g><path d="M14.75,5.35c0.333,0.367 0.6,0.65 0.8,0.85c0.033,0.6 0.183,2.233 0.45,4.9c0.233,2.067 0.35,3.717 0.35,4.95c-0,0.567 -0.45,1.017 -1.35,1.35c-0.7,0.267 -1.417,0.4 -2.15,0.4c-2.033,0 -3.05,-0.783 -3.05,-2.35c0,-0.067 0.083,-0.733 0.25,-2c-0.4,0.3 -0.717,0.833 -0.95,1.6c-0.2,0.667 -0.3,1.3 -0.3,1.9c0,1.133 0.267,1.95 0.8,2.45c0.533,0.5 1.433,0.75 2.7,0.75c3.367,0 5.05,-2.133 5.05,-6.4c-0,-2.133 -0.267,-4.383 -0.8,-6.75c0.3,-0.133 0.5,-0.45 0.6,-0.95c0.067,-0.367 0.133,-0.75 0.2,-1.15c-0.633,-0.067 -1.033,-0.3 -1.2,-0.7c-0.1,-0.233 -0.15,-0.683 -0.15,-1.35c-0.5,0.567 -0.917,1.4 -1.25,2.5Z" style="fill:#f00;"/></g></svg>