<?xml version="1.0" encoding="UTF-8" standalone="no"?><!DOCTYPE svg PUBLIC "-//W3C//DTD SVG 1.1//EN" "http://www.w3.org/Graphics/SVG/1.1/DTD/svg11.dtd"><svg width="100%" height="100%" viewBox="0 0 25 21" version="1.1" xmlns="http://www.w3.org/2000/svg" xmlns:xlink="http://www.w3.org/1999/xlink" xml:space="preserve" xmlns:serif="http://www.serif.com/" style="fill-rule:evenodd;clip-rule:evenodd;stroke-linejoin:round;stroke-miterlimit:2;"><g><path d="M15.6,7.8c0.033,1.833 0.05,3.2 0.05,4.1c0,0.633 -0.85,1.183 -2.55,1.65c-1.367,0.4 -2.55,0.6 -3.55,0.6c-2.7,0 -4.05,-0.733 -4.05,-2.2c0,-0.767 0.133,-1.483 0.4,-2.15c-0.433,0.167 -0.817,0.667 -1.15,1.5c-0.333,0.733 -0.5,1.367 -0.5,1.9c0,1.933 1.433,2.9 4.3,2.9c1.433,-0 3.1,-0.4 5,-1.2c2.233,-0.9 3.35,-1.9 3.35,-3c0,-1.1 -0.017,-2.717 -0.05,-4.85c-0.067,-2.167 -0.1,-3.8 -0.1,-4.9c-0.167,0.167 -0.4,0.433 -0.7,0.8c-0.333,0.4 -0.5,0.667 -0.5,0.8c0,0.9 0.017,2.25 0.05,4.05Z" style="fill:#f00;"/><path d="M12.2,6.95c-0.133,-0.133 -0.283,-0.2 -0.45,-0.2c-0.333,0 -0.817,0.433 -1.45,1.3c-0.6,0.867 -0.9,1.45 -0.9,1.75c0,0.3 0.267,0.45 0.8,0.45c0.733,0.033 1.217,0.15 1.45,0.35c-0.533,0.467 -1.1,0.7 -1.7,0.7c-0.3,0 -0.633,-0.033 -1,-0.1c0.233,0.267 0.417,0.45 0.55,0.55c0.2,0.1 0.483,0.15 0.85,0.15c0.567,0 1.033,-0.133 1.4,-0.4c0.367,-0.267 0.55,-0.65 0.55,-1.15c0,-0.5 -0.35,-0.817 -1.05,-0.95c-0.667,-0.1 -1,-0.2 -1,-0.3c-0,-0.167 0.117,-0.367 0.35,-0.6c0.233,-0.233 0.467,-0.35 0.7,-0.35c0.133,0 0.283,0.05 0.45,0.15c0.433,-0.2 0.65,-0.5 0.65,-0.9c0,-0.167 -0.067,-0.317 -0.2,-0.45Z" style="fill:#f00;"/></g></svg>