<?xml version="1.0" encoding="UTF-8" standalone="no"?><!DOCTYPE svg PUBLIC "-//W3C//DTD SVG 1.1//EN" "http://www.w3.org/Graphics/SVG/1.1/DTD/svg11.dtd"><svg width="100%" height="100%" viewBox="0 0 68 81" version="1.1" xmlns="http://www.w3.org/2000/svg" xmlns:xlink="http://www.w3.org/1999/xlink" xml:space="preserve" xmlns:serif="http://www.serif.com/" style="fill-rule:evenodd;clip-rule:evenodd;stroke-linejoin:round;stroke-miterlimit:2;"><g><path d="M43.9,53.85l0,5.05l-5.15,-0c-0.6,-0 -1.333,-0.417 -2.2,-1.25c-0.7,-0.7 -1.25,-1.433 -1.65,-2.2c-0.767,1.467 -1.2,2.25 -1.3,2.35c-0.533,0.733 -1.25,1.1 -2.15,1.1l-3.85,-0c-4.256,0.091 -6.622,0.524 -7.1,1.3c1.333,0.233 2.667,0.467 4,0.7c1.933,0.433 2.9,1.183 2.9,2.25c0,0.667 -0.433,1.6 -1.3,2.8c-2.767,3.9 -7.033,5.85 -12.8,5.85c-2.567,-0 -4.683,-0.517 -6.35,-1.55c-2.1,-1.3 -3.15,-3.267 -3.15,-5.9c-0,-1.333 0.5,-2.983 1.5,-4.95c1,-1.933 2.017,-3.283 3.05,-4.05c-0.1,0.6 -0.517,1.783 -1.25,3.55c-0.633,1.467 -0.95,2.667 -0.95,3.6c0,2.167 0.983,3.667 2.95,4.5c1.233,0.533 3.033,0.8 5.4,0.8c1.4,-0 3.25,-0.283 5.55,-0.85c2.767,-0.7 4.35,-1.483 4.75,-2.35c-0.367,-0.233 -1.167,-0.45 -2.4,-0.65c-1.333,-0.233 -2.267,-0.483 -2.8,-0.75c-0.867,-0.433 -1.3,-1.133 -1.3,-2.1c-0,-2.133 0.817,-3.9 2.45,-5.3c1.533,-1.3 3.283,-1.95 5.25,-1.95l3.2,0c0.18,0.027 0.364,0.044 0.55,0.05c0.967,0.033 1.567,0.05 1.8,0.05c1.067,0 1.85,-0.25 2.35,-0.75c0.4,-0.4 1.133,-1.567 2.2,-3.5c0.067,1.733 0.4,2.933 1,3.6c0.5,0.5 1.333,0.75 2.5,0.75c0.367,-0 1.033,-0.017 2,-0.05c0.051,-0.005 0.101,-0.022 0.15,-0.05l1.25,-0.1l0.9,0Z"/><path d="M58.6,28.05c-1.6,2.333 -2.4,3.733 -2.4,4.2l0.6,26.7c1.333,-1.233 2,-4.467 2,-9.7l-0.2,-21.2Z"/><path d="M36.15,41l2.25,2.6l2.35,-2.6l-2.3,-2.55l-2.3,2.55Z"/><path d="M33.85,38.45l-2.35,2.55l2.3,2.6l2.35,-2.6l-2.3,-2.55Z"/><path d="M44.8,21.35l-0.3,0.05c-0.2,0.733 -0.3,1.2 -0.3,1.4c0,0.433 0.083,0.8 0.25,1.1c0.167,0.333 0.433,0.5 0.8,0.5c0.3,-0 0.6,-0.117 0.9,-0.35c0.267,-0.267 0.417,-0.567 0.45,-0.9c0.267,0.2 0.55,0.3 0.85,0.3c0.9,-0 1.35,-0.8 1.35,-2.4c-0,-0.433 -0.067,-0.9 -0.2,-1.4l-0.3,0.1c-0,1.433 -0.283,2.15 -0.85,2.15c-0.3,-0 -0.55,-0.467 -0.75,-1.4l-0.25,0.1c-0.1,0.7 -0.2,1.167 -0.3,1.4c-0.2,0.6 -0.483,0.9 -0.85,0.9c-0.333,-0 -0.5,-0.517 -0.5,-1.55Z"/><path d="M43.9,53.9l0.25,-0c2.367,0.067 3.55,-0.6 3.55,-2c0,-7.4 -0.267,-12.917 -0.8,-16.55c-0.8,-1.033 -1.267,-1.9 -1.4,-2.6c0.8,-2.433 1.883,-4.15 3.25,-5.15l0,0.55c0.033,0.233 -0.017,0.55 -0.15,0.95c-0.1,0.4 -0.15,0.683 -0.15,0.85c0,0.567 0.35,1.233 1.05,2c0.667,0.767 1,1.267 1,1.5c0,0.633 -0.2,1.433 -0.6,2.4c-0.433,0.967 -0.65,1.65 -0.65,2.05c0,0.867 0.083,2.15 0.25,3.85c0.133,1.7 0.2,2.967 0.2,3.8l0,4.7c0,2.233 -0.283,4.083 -0.85,5.55c-0.767,2.067 -2,3.1 -3.7,3.1l-1.25,-0l0,-5Z" style="fill:#f00;"/><path d="M41.75,53.95l0,-0.1l1.25,0l-1.25,0.1Z" style="fill:#f00;"/><path d="M33.285,68.525l-5.1,3.6c-0.676,0.477 -0.838,1.414 -0.36,2.09c0.477,0.676 1.414,0.838 2.09,0.36l5.1,-3.6c0.676,-0.477 0.838,-1.414 0.36,-2.09c-0.477,-0.676 -1.414,-0.838 -2.09,-0.36Z"/><path d="M59.129,16.429l-5.05,3.6c-0.674,0.48 -0.831,1.418 -0.35,2.092c0.48,0.674 1.418,0.831 2.092,0.35l5.05,-3.6c0.674,-0.48 0.831,-1.418 0.35,-2.092c-0.48,-0.674 -1.418,-0.831 -2.092,-0.35Z"/><path d="M46.571,12.784l-5.05,3.65c-0.671,0.485 -0.822,1.424 -0.337,2.095c0.485,0.671 1.424,0.822 2.095,0.337l5.05,-3.65c0.671,-0.485 0.822,-1.424 0.337,-2.095c-0.485,-0.671 -1.424,-0.822 -2.095,-0.337Z"/></g></svg>