<?xml version="1.0" encoding="UTF-8" standalone="no"?><!DOCTYPE svg PUBLIC "-//W3C//DTD SVG 1.1//EN" "http://www.w3.org/Graphics/SVG/1.1/DTD/svg11.dtd"><svg width="100%" height="100%" viewBox="0 0 84 74" version="1.1" xmlns="http://www.w3.org/2000/svg" xmlns:xlink="http://www.w3.org/1999/xlink" xml:space="preserve" xmlns:serif="http://www.serif.com/" style="fill-rule:evenodd;clip-rule:evenodd;stroke-linejoin:round;stroke-miterlimit:2;"><g><path d="M14.35,62.2c-4.433,-0 -6.65,-1.933 -6.65,-5.8c0,-0.7 0.317,-2.417 0.95,-5.15c-0.767,0.4 -1.433,1.617 -2,3.65c-0.467,1.667 -0.7,3.133 -0.7,4.4c0,5.133 2.283,7.7 6.85,7.7c3.067,0 5.567,-1.05 7.5,-3.15c1.9,-2.1 2.85,-4.867 2.85,-8.3l4.25,0c2.452,-0.049 4.236,-0.599 5.35,-1.65c1.267,-1.233 1.9,-3.317 1.9,-6.25c0,-0.833 -0.317,-2.7 -0.95,-5.6c-0.667,1.8 -1.217,3.133 -1.65,4c0.633,1.433 1.033,2.467 1.2,3.1c-0.682,0.942 -2.632,1.409 -5.85,1.4l-2.25,0c-1,0 -1.733,-0.167 -2.2,-0.5c-0.4,-0.3 -1.1,-1.133 -2.1,-2.5l-1.75,3.65c0.9,1.6 1.45,2.633 1.65,3.1c0.433,1.067 0.65,2.2 0.65,3.4c0,1.6 -0.867,2.8 -2.6,3.6c-1.3,0.6 -2.783,0.9 -4.45,0.9Z"/><path d="M29.25,59.6l-2.3,2.5l2.3,2.6l2.3,-2.55l-2.3,-2.55Z"/><path d="M33.85,59.55l-2.3,2.6l2.3,2.55l2.35,-2.6l-2.35,-2.55Z"/><path d="M58.25,50.5l0,5.05l-2.7,0c-0.833,0 -1.5,-0.65 -2,-1.95c-0.333,-1.033 -0.65,-2.083 -0.95,-3.15c-1.533,2.467 -2.517,3.9 -2.95,4.3c-0.967,0.8 -2.55,1.2 -4.75,1.2c-2.033,-0 -3.05,-0.5 -3.05,-1.5l-0,-5.1c1.067,1.167 2.2,1.75 3.4,1.75c1.167,0 2.417,-0.267 3.75,-0.8c1.467,-0.6 2.517,-1.333 3.15,-2.2l-1.55,-9.65c-0.033,-0.167 0.3,-1.633 1,-4.4c0.567,3.5 1.083,6.4 1.55,8.7c1.033,4.733 1.9,7.267 2.6,7.6c0.184,0.1 0.484,0.167 0.9,0.2l1.3,-0.05l0.3,-0Z"/><path d="M73.5,24.7c-1.6,2.333 -2.4,3.733 -2.4,4.2l0.6,26.7c1.333,-1.233 2,-4.467 2,-9.7l-0.2,-21.2Z"/><path d="M11.85,43.45l2.65,2.9l2.65,-2.9l-2.65,-2.95l-2.65,2.95Z"/><path d="M53.85,28.7l-2.65,-2.95l-2.65,2.95l2.65,2.9l2.65,-2.9Z"/><path d="M64.2,16.7l-0.3,0.1c0,1.433 -0.283,2.15 -0.85,2.15c-0.3,-0 -0.55,-0.467 -0.75,-1.4l-0.25,0.1c-0.1,0.7 -0.2,1.167 -0.3,1.4c-0.2,0.6 -0.483,0.9 -0.85,0.9c-0.333,-0 -0.5,-0.517 -0.5,-1.55l-0.3,0.05c-0.2,0.733 -0.3,1.2 -0.3,1.4c-0,0.433 0.083,0.8 0.25,1.1c0.167,0.333 0.433,0.5 0.8,0.5c0.3,-0 0.6,-0.117 0.9,-0.35c0.267,-0.267 0.417,-0.567 0.45,-0.9c0.267,0.2 0.55,0.3 0.85,0.3c0.9,0 1.35,-0.8 1.35,-2.4c0,-0.433 -0.067,-0.9 -0.2,-1.4Z"/><path d="M59.05,50.55c2.367,0.067 3.55,-0.6 3.55,-2c-0,-7.4 -0.267,-12.917 -0.8,-16.55c-0.8,-1.033 -1.267,-1.9 -1.4,-2.6c0.8,-2.433 1.883,-4.15 3.25,-5.15l0,0.55c0.033,0.233 -0.017,0.55 -0.15,0.95c-0.1,0.4 -0.15,0.683 -0.15,0.85c-0,0.567 0.35,1.233 1.05,2c0.667,0.767 1,1.267 1,1.5c0,0.633 -0.2,1.433 -0.6,2.4c-0.433,0.967 -0.65,1.65 -0.65,2.05c0,0.867 0.083,2.15 0.25,3.85c0.133,1.7 0.2,2.967 0.2,3.8l-0,4.7c-0,2.233 -0.283,4.083 -0.85,5.55c-0.767,2.067 -2,3.1 -3.7,3.1l-1.8,0l-0,-5.05l0.8,0.05Z" style="fill:#f00;"/><path d="M56.65,50.55l0,-0.05l1.3,-0l-1.3,0.05Z" style="fill:#f00;"/><path d="M47.621,60.684l-5.05,3.65c-0.671,0.485 -0.822,1.424 -0.337,2.095c0.485,0.671 1.424,0.822 2.095,0.337l5.05,-3.65c0.671,-0.485 0.822,-1.424 0.337,-2.095c-0.485,-0.671 -1.424,-0.822 -2.095,-0.337Z"/><path d="M15.071,18.334l-5.05,3.65c-0.671,0.485 -0.822,1.424 -0.337,2.095c0.485,0.671 1.424,0.822 2.095,0.337l5.05,-3.65c0.671,-0.485 0.822,-1.424 0.337,-2.095c-0.485,-0.671 -1.424,-0.822 -2.095,-0.337Z"/><path d="M74.271,13.934l-5.05,3.65c-0.671,0.485 -0.822,1.424 -0.337,2.095c0.485,0.671 1.424,0.822 2.095,0.337l5.05,-3.65c0.671,-0.485 0.822,-1.424 0.337,-2.095c-0.485,-0.671 -1.424,-0.822 -2.095,-0.337Z"/><path d="M63.171,9.484l-5.05,3.65c-0.671,0.485 -0.822,1.424 -0.337,2.095c0.485,0.671 1.424,0.822 2.095,0.337l5.05,-3.65c0.671,-0.485 0.822,-1.424 0.337,-2.095c-0.485,-0.671 -1.424,-0.822 -2.095,-0.337Z"/></g></svg>