<?xml version="1.0" encoding="UTF-8" standalone="no"?><!DOCTYPE svg PUBLIC "-//W3C//DTD SVG 1.1//EN" "http://www.w3.org/Graphics/SVG/1.1/DTD/svg11.dtd"><svg width="100%" height="100%" viewBox="0 0 73 77" version="1.1" xmlns="http://www.w3.org/2000/svg" xmlns:xlink="http://www.w3.org/1999/xlink" xml:space="preserve" xmlns:serif="http://www.serif.com/" style="fill-rule:evenodd;clip-rule:evenodd;stroke-linejoin:round;stroke-miterlimit:2;"><g><path d="M45.3,64.6l2.3,-2.55l-2.3,-2.55l-2.3,2.5l2.3,2.6Z"/><path d="M49.9,64.6l2.35,-2.6l-2.35,-2.55l-2.3,2.6l2.3,2.55Z"/><path d="M58.25,28.8l0.6,26.7c1.333,-1.233 2,-4.467 2,-9.7l-0.2,-21.2c-1.6,2.333 -2.4,3.733 -2.4,4.2Z"/><path d="M37.1,25.5c-0.467,0.5 -0.917,1 -1.35,1.5c-0.333,0.467 -0.5,1.133 -0.5,2c0,6.767 0.033,11.1 0.1,13c0.233,6.533 0.817,10.467 1.75,11.8c0.767,1.1 1.817,1.65 3.15,1.65l3.6,-0l0,-0.05c2.247,-0.074 3.897,-0.607 4.95,-1.6c1.267,-1.233 1.9,-3.317 1.9,-6.25c0,-0.833 -0.317,-2.7 -0.95,-5.6c-0.667,1.8 -1.217,3.133 -1.65,4c0.633,1.433 1.033,2.467 1.2,3.1c-0.654,0.903 -2.47,1.369 -5.45,1.4l0,-0.05c-2.9,-0 -4.783,-0.633 -5.65,-1.9c-0.733,-1.067 -1.1,-3.333 -1.1,-6.8l0,-16.2Z"/><path d="M47.2,30.55c0,-0.433 -0.067,-0.9 -0.2,-1.4l-0.3,0.1c0,1.433 -0.283,2.15 -0.85,2.15c-0.3,-0 -0.55,-0.467 -0.75,-1.4l-0.25,0.1c-0.1,0.7 -0.2,1.167 -0.3,1.4c-0.2,0.6 -0.483,0.9 -0.85,0.9c-0.333,-0 -0.5,-0.517 -0.5,-1.55l-0.3,0.05c-0.2,0.733 -0.3,1.2 -0.3,1.4c0,0.433 0.083,0.8 0.25,1.1c0.167,0.333 0.433,0.5 0.8,0.5c0.3,-0 0.6,-0.117 0.9,-0.35c0.267,-0.267 0.417,-0.567 0.45,-0.9c0.267,0.2 0.55,0.3 0.85,0.3c0.9,-0 1.35,-0.8 1.35,-2.4Z"/><path d="M27.65,27.1c-0.6,0.933 -0.9,1.55 -0.9,1.85c-0,2 0.033,5.033 0.1,9.1c0.1,4.033 0.15,7.05 0.15,9.05c-0,1.467 -1.517,2.733 -4.55,3.8c-2.433,0.867 -4.533,1.3 -6.3,1.3c-4.8,-0 -7.2,-1.617 -7.2,-4.85c0,-1.767 0.25,-3.4 0.75,-4.9c-0.767,0.4 -1.467,1.533 -2.1,3.4c-0.6,1.633 -0.9,3.033 -0.9,4.2c0,4.367 2.567,6.55 7.7,6.55c2.533,0 5.483,-0.883 8.85,-2.65c3.933,-2.067 5.9,-4.35 5.9,-6.85c-0,-2.4 -0.033,-6.017 -0.1,-10.85c-0.067,-4.833 -0.1,-8.467 -0.1,-10.9c-0.3,0.333 -0.733,0.917 -1.3,1.75Z" style="fill:#f00;"/><path d="M20.85,36.05c-0.267,-0.3 -0.533,-0.45 -0.8,-0.45c-0.6,0 -1.467,0.983 -2.6,2.95c-1.067,1.9 -1.6,3.2 -1.6,3.9c0,0.7 0.5,1.05 1.5,1.05c1.233,0 2.067,0.233 2.5,0.7c-0.967,1.067 -1.967,1.6 -3,1.6c-0.5,0 -1.1,-0.083 -1.8,-0.25c0.433,0.633 0.783,1.05 1.05,1.25c0.3,0.2 0.783,0.3 1.45,0.3c1.033,0 1.867,-0.283 2.5,-0.85c0.667,-0.6 1,-1.467 1,-2.6c-0,-1.1 -0.617,-1.783 -1.85,-2.05c-1.233,-0.267 -1.85,-0.5 -1.85,-0.7c0,-0.4 0.217,-0.85 0.65,-1.35c0.433,-0.5 0.833,-0.75 1.2,-0.75c0.267,0 0.55,0.117 0.85,0.35c0.767,-0.467 1.15,-1.167 1.15,-2.1c0,-0.333 -0.117,-0.667 -0.35,-1Z" style="fill:#f00;"/><path d="M61.527,58.68l-5.1,3.65c-0.673,0.482 -0.829,1.42 -0.347,2.093c0.482,0.673 1.42,0.829 2.093,0.347l5.1,-3.65c0.673,-0.482 0.829,-1.42 0.347,-2.093c-0.482,-0.673 -1.42,-0.829 -2.093,-0.347Z"/><path d="M44.177,14.63l-5.1,3.65c-0.673,0.482 -0.829,1.42 -0.347,2.093c0.482,0.673 1.42,0.829 2.093,0.347l5.1,-3.65c0.673,-0.482 0.829,-1.42 0.347,-2.093c-0.482,-0.673 -1.42,-0.829 -2.093,-0.347Z"/><path d="M20.721,13.434l-5.05,3.65c-0.671,0.485 -0.822,1.424 -0.337,2.095c0.485,0.671 1.424,0.822 2.095,0.337l5.05,-3.65c0.671,-0.485 0.822,-1.424 0.337,-2.095c-0.485,-0.671 -1.424,-0.822 -2.095,-0.337Z"/></g></svg>