<?xml version="1.0" encoding="UTF-8" standalone="no"?><!DOCTYPE svg PUBLIC "-//W3C//DTD SVG 1.1//EN" "http://www.w3.org/Graphics/SVG/1.1/DTD/svg11.dtd"><svg width="100%" height="100%" viewBox="0 0 50 71" version="1.1" xmlns="http://www.w3.org/2000/svg" xmlns:xlink="http://www.w3.org/1999/xlink" xml:space="preserve" xmlns:serif="http://www.serif.com/" style="fill-rule:evenodd;clip-rule:evenodd;stroke-linejoin:round;stroke-miterlimit:2;"><g><path d="M37.05,20.35c-1.6,2.333 -2.4,3.733 -2.4,4.2l0.6,26.7c1.333,-1.233 2,-4.467 2,-9.7l-0.2,-21.2Z"/><path d="M21.6,21.5c0.9,0 1.35,-0.8 1.35,-2.4c0,-0.433 -0.067,-0.9 -0.2,-1.4l-0.3,0.1c0,1.433 -0.283,2.15 -0.85,2.15c-0.3,-0 -0.55,-0.467 -0.75,-1.4l-0.25,0.1c-0.1,0.7 -0.2,1.167 -0.3,1.4c-0.2,0.6 -0.483,0.9 -0.85,0.9c-0.333,-0 -0.5,-0.517 -0.5,-1.55l-0.3,0.05c-0.2,0.733 -0.3,1.2 -0.3,1.4c0,0.433 0.083,0.8 0.25,1.1c0.167,0.333 0.433,0.5 0.8,0.5c0.3,-0 0.6,-0.117 0.9,-0.35c0.267,-0.267 0.417,-0.567 0.45,-0.9c0.267,0.2 0.55,0.3 0.85,0.3Z"/><path d="M26.95,23.1c0,-0.5 0.067,-1.133 0.2,-1.9c-1.333,1.233 -2.267,2.967 -2.8,5.2c0.067,0.3 0.283,0.767 0.65,1.4c0.367,0.533 0.55,0.917 0.55,1.15c-0,0.867 -0.2,2.583 -0.6,5.15c-0.367,2.767 -0.667,4.383 -0.9,4.85c-3.633,-5.6 -5.617,-8.65 -5.95,-9.15c-3.133,-4.4 -5.5,-6.6 -7.1,-6.6c-0.6,-0 -1.067,0.317 -1.4,0.95c-0.3,0.5 -0.45,1.1 -0.45,1.8c-0,1.233 0.333,2.383 1,3.45c0.767,1.2 1.667,1.8 2.7,1.8c0.5,-0 0.85,-0.1 1.05,-0.3c0.433,-0.367 0.683,-0.567 0.75,-0.6c0.8,0.567 2.267,2.333 4.4,5.3c1.633,2.3 2.967,4.267 4,5.9c-0.4,0.8 -1.033,1.783 -1.9,2.95c-0.967,1.267 -1.733,2.1 -2.3,2.5l-1.75,-0.65l0,4.75c1.167,0.4 2.733,0.6 4.7,0.6c1.8,-0 2.967,-0.267 3.5,-0.8c0.6,-0.6 0.9,-1.9 0.9,-3.9c0,-2.533 -0.467,-4.533 -1.4,-6c0.4,-1.233 0.75,-3.1 1.05,-5.6c0.3,-2.467 0.617,-4.217 0.95,-5.25l0.35,0.4c0.533,-0.333 0.967,-1 1.3,-2c0.1,-0.233 0.317,-1.033 0.65,-2.4c-1.433,-0.767 -2.15,-1.767 -2.15,-3Zm-4.087,21.937l-1.613,1.913l3.35,-0.2c0.024,-0.128 0.047,-0.243 0.067,-0.345c0.02,-0.104 0.038,-0.194 0.054,-0.271c0.009,-0.045 0.018,-0.086 0.026,-0.123c0.006,-0.032 0.013,-0.061 0.019,-0.086l0.007,-0.032l0.006,-0.025l0.008,-0.031l0.007,-0.021c0.001,-0.005 0.003,-0.009 0.004,-0.012l0.002,-0.004c-0.027,-0.07 -0.177,-0.453 -0.45,-1.15l-0.55,-1.45l-0.937,1.837Zm-0.929,1.187c-0.017,0.019 -0.033,0.037 -0.05,0.056c0.017,-0.019 0.033,-0.037 0.05,-0.056Zm0.678,-0.834c-0.013,0.017 -0.025,0.033 -0.037,0.05c0.012,-0.017 0.024,-0.033 0.037,-0.05Zm0.149,-0.206c-0.016,0.022 -0.032,0.045 -0.048,0.067c0.016,-0.022 0.032,-0.045 0.048,-0.067Zm0.061,-0.088c-0.009,0.014 -0.019,0.028 -0.028,0.041c0.009,-0.014 0.019,-0.027 0.028,-0.041Zm0.08,-0.117c-0.012,0.018 -0.024,0.036 -0.036,0.054l0.016,-0.025l0.02,-0.029Zm0.275,-0.437c-0.005,0.01 -0.011,0.019 -0.017,0.029l-0.01,0.017c0.015,-0.025 0.03,-0.05 0.044,-0.075l-0.017,0.029Z" style="fill:#f00;"/><path d="M37.229,54.929l-5.05,3.6c-0.674,0.48 -0.831,1.418 -0.35,2.092c0.48,0.674 1.418,0.831 2.092,0.35l5.05,-3.6c0.674,-0.48 0.831,-1.418 0.35,-2.092c-0.48,-0.674 -1.418,-0.831 -2.092,-0.35Z"/><path d="M22.771,9.584l-5.05,3.65c-0.671,0.485 -0.822,1.424 -0.337,2.095c0.485,0.671 1.424,0.822 2.095,0.337l5.05,-3.65c0.671,-0.485 0.822,-1.424 0.337,-2.095c-0.485,-0.671 -1.424,-0.822 -2.095,-0.337Z"/></g></svg>