<?xml version="1.0" encoding="UTF-8" standalone="no"?><!DOCTYPE svg PUBLIC "-//W3C//DTD SVG 1.1//EN" "http://www.w3.org/Graphics/SVG/1.1/DTD/svg11.dtd"><svg width="100%" height="100%" viewBox="0 0 106 74" version="1.1" xmlns="http://www.w3.org/2000/svg" xmlns:xlink="http://www.w3.org/1999/xlink" xml:space="preserve" xmlns:serif="http://www.serif.com/" style="fill-rule:evenodd;clip-rule:evenodd;stroke-linejoin:round;stroke-miterlimit:2;"><g><path d="M36.15,62.8c-0.7,-0.167 -1.383,-0.35 -2.05,-0.55c0.867,1.133 1.883,2.05 3.05,2.75c1.3,0.833 2.533,1.25 3.7,1.25c1.6,0 3.217,-1.317 4.85,-3.95c1.467,-2.3 2.3,-4.433 2.5,-6.4c0.267,-0.2 0.583,-0.3 0.95,-0.3l1.45,0l0,-5.05l-1.3,0c-0.796,-0.01 -1.263,-0.027 -1.4,-0.05c-0.7,-0.167 -1.45,-0.683 -2.25,-1.55c-0.167,1.267 -0.433,2.367 -0.8,3.3c0.033,0.033 0.4,0.683 1.1,1.95c0.6,1.033 0.9,1.6 0.9,1.7c0,1.2 -1.183,2.717 -3.55,4.55c-2.267,1.8 -3.983,2.7 -5.15,2.7c-0.5,-0 -1.167,-0.117 -2,-0.35Z"/><path d="M90.9,62.2l-2.3,-2.55l-2.3,2.5l2.3,2.6l2.3,-2.55Z"/><path d="M95.55,62.15l-2.35,-2.55l-2.3,2.6l2.3,2.55l2.35,-2.6Z"/><path d="M5.2,54.3c0,-0.533 0.1,-1.333 0.3,-2.4c0.2,-1.067 0.3,-1.867 0.3,-2.4c-0.7,0.833 -1.267,2.017 -1.7,3.55c-0.433,1.367 -0.65,2.683 -0.65,3.95c0,2.333 0.633,4.1 1.9,5.3c1.167,1.133 2.8,1.7 4.9,1.7c2.633,0 4.85,-1.05 6.65,-3.15c1.8,-2.133 2.7,-4.683 2.7,-7.65c0,-3.833 -0.95,-7.067 -2.85,-9.7c-0.533,1.133 -1.05,2.7 -1.55,4.7c0.933,1.4 1.533,2.4 1.8,3c0.6,1.167 0.9,2.3 0.9,3.4c-0,1.367 -0.967,2.517 -2.9,3.45c-1.567,0.8 -3.067,1.2 -4.5,1.2c-3.533,-0 -5.3,-1.65 -5.3,-4.95Z"/><path d="M80.4,34.1c-0.7,2.767 -1.033,4.233 -1,4.4l1.55,9.65c-0.633,0.867 -1.683,1.6 -3.15,2.2c-1.333,0.533 -2.583,0.8 -3.75,0.8c-1.2,-0 -2.333,-0.583 -3.4,-1.75l-0,5.1c-0,1 1.017,1.5 3.05,1.5c2.2,0 3.783,-0.4 4.75,-1.2c0.433,-0.4 1.417,-1.833 2.95,-4.3c0.3,1.067 0.617,2.117 0.95,3.15c0.5,1.3 1.167,1.95 2,1.95l2.7,0c2.298,-0.093 3.982,-0.643 5.05,-1.65c1.267,-1.233 1.9,-3.317 1.9,-6.25c0,-0.833 -0.317,-2.7 -0.95,-5.6c-0.667,1.8 -1.217,3.133 -1.65,4c0.633,1.433 1.033,2.467 1.2,3.1c-0.661,0.913 -2.511,1.379 -5.55,1.4l-0,-0.05c-1.3,0.1 -2.133,0.05 -2.5,-0.15c-0.7,-0.333 -1.567,-2.867 -2.6,-7.6c-0.467,-2.3 -0.983,-5.2 -1.55,-8.7Z"/><path d="M29.05,46.05c-0.733,1.567 -1.1,2.933 -1.1,4.1c0,2 0.717,3 2.15,3c1.067,-0 2.083,-0.667 3.05,-2c0.233,0.6 0.35,1.167 0.35,1.7c0,2.933 -1.85,5.25 -5.55,6.95c-2.9,1.333 -5.867,2 -8.9,2c1.467,0.667 2.483,1.1 3.05,1.3c1,0.3 2.067,0.45 3.2,0.45c3.067,0 5.45,-1.4 7.15,-4.2c1.5,-2.467 2.25,-5.5 2.25,-9.1c0,-1.433 -0.217,-2.817 -0.65,-4.15c-0.6,-1.8 -1.433,-2.7 -2.5,-2.7c-0.9,-0 -1.733,0.883 -2.5,2.65Zm1.5,0.9l-0.039,0.086l-0.043,0.096l-0.035,0.079l-0.024,0.053l-0.043,0.098l-0.023,0.054l-0.027,0.063l-0.028,0.064c-0.014,0.033 -0.028,0.067 -0.043,0.101l-0.004,0.009c-0.015,0.036 -0.03,0.072 -0.045,0.108l-0.023,0.053l-0.025,0.062c-0.019,0.044 -0.037,0.088 -0.055,0.132l-0.008,0.019c-0.022,0.054 -0.044,0.108 -0.066,0.162l-0.007,0.017c-0.02,0.049 -0.039,0.098 -0.059,0.147c-0.022,0.055 -0.044,0.111 -0.066,0.167l-0.044,0.11c-0.042,0.108 -0.084,0.216 -0.125,0.324l-0.017,0.045c-0.006,0.013 -0.011,0.027 -0.016,0.041c-0.008,0.021 -0.016,0.042 -0.024,0.063c-0.006,0.016 -0.012,0.032 -0.018,0.048l-0.027,0.072c-0.012,0.032 -0.024,0.064 -0.036,0.097l-0.026,0.069c-0.001,0.004 -0.006,0.008 -0.004,0.011c0.004,0.006 0.012,0.007 0.018,0.01l0.053,0.03l0.085,0.048l0.142,0.08l0.124,0.069l0.043,0.024l0.078,0.044l0.097,0.054l0.072,0.04l0.069,0.037l0.048,0.026c0.047,0.026 0.089,0.049 0.127,0.069l0.004,0.002c0.039,0.021 0.074,0.04 0.104,0.055l0.029,0.015c0.008,0.004 0.016,0.008 0.023,0.011l0.031,0.015c0.008,0.004 0.015,0.007 0.022,0.01l0.019,0.008l0.01,0.003l0.002,0l0.45,-0.087l0.026,-0.011l0.027,-0.011l0.029,-0.013c0.007,-0.003 0.013,-0.007 0.02,-0.01l0.01,-0.005c0.006,-0.002 0.012,-0.005 0.018,-0.008c0.013,-0.007 0.027,-0.014 0.041,-0.021c0.001,-0.001 0.003,-0.002 0.005,-0.003c0.022,-0.012 0.043,-0.024 0.065,-0.037l0.002,-0.001c0.014,-0.009 0.028,-0.017 0.042,-0.026l0.031,-0.021l0.007,-0.004l0.027,-0.019l0.024,-0.016l0.023,-0.017l0.033,-0.025c0.007,-0.005 0.013,-0.01 0.02,-0.015l0.032,-0.02l0.029,-0.018c0.026,-0.018 0.052,-0.036 0.076,-0.054l0.012,-0.009c0.007,-0.006 0.015,-0.012 0.022,-0.018c0.005,-0.004 0.011,-0.008 0.016,-0.013l0.021,-0.018c0.009,-0.008 0.018,-0.016 0.026,-0.024l0.009,-0.008c0.013,-0.012 0.025,-0.025 0.037,-0.037l0.001,-0.001c0.01,-0.011 0.02,-0.021 0.029,-0.032l0.004,-0.005l0.014,-0.017l0.017,-0.022l0.009,-0.011l0.01,-0.014l0.007,-0.011c0.002,-0.003 0.005,-0.007 0.007,-0.01l0.013,-0.021l0.012,-0.02c0.011,-0.018 0.02,-0.036 0.028,-0.054l0.009,-0.018l0.006,-0.016l0.009,-0.022l0.007,-0.021c0.002,-0.004 0.003,-0.009 0.005,-0.014c0.002,-0.008 0.005,-0.016 0.007,-0.024l0.002,-0.01c0.003,-0.009 0.005,-0.019 0.007,-0.028c0.002,-0.01 0.004,-0.02 0.006,-0.03l0.002,-0.014c0.002,-0.012 0.004,-0.024 0.005,-0.036c0.001,-0.011 0.002,-0.021 0.003,-0.031l0,-0.011c0.001,-0.013 0.001,-0.025 0.001,-0.038l-0.1,-0.575l-0.1,-0.175l-0.025,-0.094l-0.075,-0.081l-0.1,-0.175l-0.5,-0.475l-0.7,-0.425Z"/><path d="M10.15,35.75l-2.65,2.95l2.65,2.95l2.65,-2.95l-2.65,-2.95Z"/><path d="M80,31.65l2.65,-2.9l-2.65,-2.95l-2.65,2.95l2.65,2.9Z"/><path d="M39.9,23.8l0.15,-1.75c-0.333,-0.267 -0.583,-0.45 -0.75,-0.55c0.4,-0.867 0.6,-1.567 0.6,-2.1c-0,-1.033 -0.433,-1.55 -1.3,-1.55c-0.633,0 -1.2,0.367 -1.7,1.1c-0.433,0.667 -0.65,1.3 -0.65,1.9c0,0.5 0.417,1.017 1.25,1.55c-1.5,1.233 -2.9,2.167 -4.2,2.8c0.467,0.133 0.833,0.2 1.1,0.2c1.1,-0 2.417,-0.85 3.95,-2.55c0.6,0.433 1.117,0.75 1.55,0.95Zm-1.335,-2.817c0.012,0.006 0.023,0.011 0.035,0.017l0.1,-0.55c0,-0.15 -0.022,-0.284 -0.066,-0.403l-0.008,-0.021c-0.004,-0.011 -0.008,-0.021 -0.013,-0.031c-0.004,-0.011 -0.009,-0.021 -0.014,-0.031c-0.002,-0.005 -0.005,-0.01 -0.007,-0.015l-0.01,-0.018c-0.01,-0.019 -0.021,-0.038 -0.033,-0.056l-0.015,-0.022c-0.007,-0.011 -0.015,-0.021 -0.023,-0.031c-0.005,-0.007 -0.01,-0.014 -0.016,-0.02l-0.014,-0.018l-0.018,-0.02c-0.004,-0.004 -0.008,-0.009 -0.013,-0.013c-0.004,-0.005 -0.008,-0.009 -0.012,-0.013l-0.788,-0.338c-0.2,0.033 -0.333,0.133 -0.4,0.3c0,0.007 0,0.014 0,0.02c0.001,0.01 0.001,0.02 0.002,0.03c0.001,0.015 0.003,0.031 0.005,0.046c0.003,0.019 0.007,0.037 0.011,0.056c0.001,0.002 0.002,0.005 0.002,0.007c0.004,0.016 0.009,0.033 0.015,0.049l0.001,0.005c0.01,0.029 0.022,0.057 0.035,0.086c0.007,0.014 0.014,0.027 0.021,0.041l0.003,0.005c0.006,0.01 0.011,0.02 0.017,0.03c0.008,0.013 0.017,0.027 0.026,0.04c0.002,0.004 0.004,0.007 0.007,0.01c0.038,0.057 0.084,0.113 0.137,0.169l0.005,0.005c0.019,0.02 0.038,0.039 0.059,0.059c0.04,0.038 0.084,0.077 0.132,0.115l0.013,0.011l0.023,0.018l0.033,0.026l0.006,0.004c0.02,0.015 0.04,0.029 0.06,0.044c0.027,0.019 0.054,0.038 0.082,0.056c0.022,0.016 0.045,0.031 0.069,0.046l0.004,0.002c0.025,0.016 0.05,0.032 0.076,0.048c0.092,0.056 0.192,0.112 0.3,0.169c0.055,0.028 0.112,0.057 0.171,0.086Z"/><path d="M78.75,12.95c-0.767,-0 -1.35,0.383 -1.75,1.15c-0.333,0.667 -0.5,1.467 -0.5,2.4c0,1.5 0.583,2.25 1.75,2.25c0.7,0 1.3,-0.317 1.8,-0.95c0.5,-0.6 0.75,-1.3 0.75,-2.1c-0,-0.667 -0.183,-1.283 -0.55,-1.85c-0.4,-0.6 -0.9,-0.9 -1.5,-0.9Zm-1.478,3.528c0.234,0.288 0.683,0.422 1.328,0.422l0.938,-0.188c0.208,-0.125 0.312,-0.312 0.312,-0.562c0,-0.3 -0.233,-0.65 -0.7,-1.05c-0.233,-0.183 -0.446,-0.321 -0.637,-0.413l-0.513,-0.137l-0.438,0.078l-0.079,0.059c-0.325,0.163 -0.483,0.539 -0.483,1.113c0,0.29 0.084,0.523 0.272,0.678Z"/><path d="M56.65,13c-0.633,0 -1.2,0.367 -1.7,1.1c-0.433,0.667 -0.65,1.3 -0.65,1.9c-0,0.5 0.417,1.017 1.25,1.55c-1.5,1.233 -2.9,2.167 -4.2,2.8c0.467,0.133 0.833,0.2 1.1,0.2c1.1,0 2.417,-0.85 3.95,-2.55c0.6,0.433 1.117,0.75 1.55,0.95l0.15,-1.75c-0.333,-0.267 -0.583,-0.45 -0.75,-0.55c0.4,-0.867 0.6,-1.567 0.6,-2.1c0,-1.033 -0.433,-1.55 -1.3,-1.55Zm-0.95,1.55c-0.2,0.033 -0.333,0.133 -0.4,0.3l0,0.02c0.001,0.006 0.001,0.012 0.001,0.017l0.001,0.012l0.003,0.03l0.003,0.022l0.002,0.011c0.001,0.006 0.002,0.013 0.004,0.02l0.003,0.013c0.002,0.01 0.005,0.02 0.007,0.03l0.008,0.026c0.005,0.016 0.011,0.032 0.017,0.047c0.001,0.002 0.001,0.003 0.002,0.005c0.006,0.015 0.013,0.03 0.02,0.045l0.005,0.01l0.011,0.022l0.014,0.025l0.012,0.022l0.019,0.029l0.012,0.019c0.008,0.011 0.016,0.022 0.024,0.033l0.002,0.003c0.009,0.013 0.019,0.025 0.029,0.038l0.01,0.013c0.006,0.007 0.012,0.014 0.018,0.021c0.001,0.001 0.003,0.003 0.004,0.005c0.01,0.011 0.02,0.022 0.03,0.034l0.016,0.017c0.006,0.006 0.012,0.013 0.019,0.02c0.013,0.013 0.027,0.027 0.041,0.041l0.008,0.008c0.018,0.016 0.035,0.032 0.054,0.049l0.004,0.003c0.009,0.008 0.018,0.016 0.028,0.024c0.01,0.009 0.021,0.018 0.031,0.027l0.016,0.012l0.025,0.02l0.022,0.018c0.033,0.025 0.068,0.051 0.105,0.077l0.002,0.002c0.048,0.033 0.097,0.066 0.15,0.099l0.003,0.002c0.052,0.033 0.107,0.066 0.164,0.099l0.046,0.026l0.049,0.027l0.043,0.023l0.054,0.029c0.003,0.001 0.005,0.003 0.008,0.004l0.057,0.03c0.006,0.003 0.011,0.005 0.016,0.008c0.012,0.006 0.025,0.012 0.037,0.019c0.026,0.012 0.052,0.025 0.079,0.038l0.012,0.006l0.1,-0.55c-0,-0.288 -0.08,-0.518 -0.241,-0.69l-0.022,-0.023l-0.787,-0.337Z"/><path d="M57.85,29.35c-4.4,3.2 -6.6,6.067 -6.6,8.6c0,1.5 0.683,2.8 2.05,3.9c1.3,0.833 2.583,1.667 3.85,2.5c1.367,1.033 2.05,2.183 2.05,3.45c0,1.9 -2.35,2.85 -7.05,2.85c-0.481,-0 -0.997,-0.017 -1.55,-0.05l0,5l3.65,0c2.033,0 3.717,-0.867 5.05,-2.6c1.267,-1.667 1.9,-3.65 1.9,-5.95c0,-1.7 -0.433,-3.217 -1.3,-4.55c-0.667,-1.033 -1.683,-2.083 -3.05,-3.15c-1.2,-0.867 -2.4,-1.75 -3.6,-2.65c0.933,-1.033 3.1,-2.5 6.5,-4.4c0.633,-0.333 3.05,-1.6 7.25,-3.8l0.75,-4.2c-2.767,0.633 -6.067,2.317 -9.9,5.05Z" style="fill:#f00;"/><path d="M12.071,15.984l-5.05,3.65c-0.671,0.485 -0.822,1.424 -0.337,2.095c0.485,0.671 1.424,0.822 2.095,0.337l5.05,-3.65c0.671,-0.485 0.822,-1.424 0.337,-2.095c-0.485,-0.671 -1.424,-0.822 -2.095,-0.337Z"/><path d="M91.235,12.375l-5.1,3.6c-0.676,0.477 -0.838,1.414 -0.36,2.09c0.477,0.676 1.414,0.838 2.09,0.36l5.1,-3.6c0.676,-0.477 0.838,-1.414 0.36,-2.09c-0.477,-0.676 -1.414,-0.838 -2.09,-0.36Z"/></g></svg>