<?xml version="1.0" encoding="UTF-8" standalone="no"?><!DOCTYPE svg PUBLIC "-//W3C//DTD SVG 1.1//EN" "http://www.w3.org/Graphics/SVG/1.1/DTD/svg11.dtd"><svg width="100%" height="100%" viewBox="0 0 57 81" version="1.1" xmlns="http://www.w3.org/2000/svg" xmlns:xlink="http://www.w3.org/1999/xlink" xml:space="preserve" xmlns:serif="http://www.serif.com/" style="fill-rule:evenodd;clip-rule:evenodd;stroke-linejoin:round;stroke-miterlimit:2;"><g><path d="M24.55,25.05c-0,-0.433 -0.067,-0.9 -0.2,-1.4l-0.3,0.1c-0,1.433 -0.283,2.15 -0.85,2.15c-0.3,-0 -0.55,-0.467 -0.75,-1.4l-0.25,0.1c-0.1,0.7 -0.2,1.167 -0.3,1.4c-0.2,0.6 -0.483,0.9 -0.85,0.9c-0.333,-0 -0.5,-0.517 -0.5,-1.55l-0.3,0.05c-0.2,0.733 -0.3,1.2 -0.3,1.4c0,0.433 0.083,0.8 0.25,1.1c0.167,0.333 0.433,0.5 0.8,0.5c0.3,-0 0.6,-0.117 0.9,-0.35c0.267,-0.267 0.417,-0.567 0.45,-0.9c0.267,0.2 0.55,0.3 0.85,0.3c0.9,-0 1.35,-0.8 1.35,-2.4Z"/><path d="M29.7,31l0.1,-2.45c-1.567,1.833 -2.567,3.083 -3,3.75c-0,4.767 -0.033,7.717 -0.1,8.85c-0.167,2.3 -0.667,4.983 -1.5,8.05c-0.6,-2.767 -1.067,-4.55 -1.4,-5.35c-0.9,-2.2 -2.617,-4.783 -5.15,-7.75c-2.9,-3.4 -5.183,-5.1 -6.85,-5.1c-0.467,0 -0.883,0.333 -1.25,1c-0.3,0.6 -0.45,1.183 -0.45,1.75c0,3.2 1.283,4.8 3.85,4.8c0.667,0 1.433,-0.15 2.3,-0.45c4.667,3.867 7.383,8.067 8.15,12.6c-0.5,1.367 -2.05,3.267 -4.65,5.7c-2.4,2.233 -4.35,3.75 -5.85,4.55c4.9,0 8.433,-1.583 10.6,-4.75c1.6,-2.367 2.8,-6.483 3.6,-12.35c-0.033,0.733 -0.05,1.467 -0.05,2.2c-0,3.267 0.267,5.967 0.8,8.1c0.8,3.067 2.1,4.6 3.9,4.6l6.95,0c2.033,0 3.717,-0.867 5.05,-2.6c1.267,-1.667 1.9,-3.65 1.9,-5.95c-0,-1.7 -0.433,-3.217 -1.3,-4.55c-0.667,-1.033 -1.683,-2.083 -3.05,-3.15c-1.2,-0.867 -2.4,-1.75 -3.6,-2.65c0.933,-1.033 3.1,-2.5 6.5,-4.4c0.633,-0.333 3.05,-1.6 7.25,-3.8l0.75,-4.2c-2.767,0.633 -6.067,2.317 -9.9,5.05c-4.4,3.2 -6.6,6.067 -6.6,8.6c0,1.5 0.683,2.8 2.05,3.9c1.3,0.833 2.583,1.667 3.85,2.5c1.367,1.033 2.05,2.183 2.05,3.45c-0,1.9 -2.35,2.85 -7.05,2.85c-0.407,-0 -0.841,-0.017 -1.3,-0.05l-0,-0.05c-1.633,0 -2.7,-0.083 -3.2,-0.25c-2.3,-0.867 -3.45,-6.75 -3.45,-17.65c-0,-1.5 0.017,-3.1 0.05,-4.8Z" style="fill:#f00;"/><path d="M43.529,14.779l-5.05,3.6c-0.674,0.48 -0.831,1.418 -0.35,2.092c0.48,0.674 1.418,0.831 2.092,0.35l5.05,-3.6c0.674,-0.48 0.831,-1.418 0.35,-2.092c-0.48,-0.674 -1.418,-0.831 -2.092,-0.35Z"/><path d="M23.729,13.979l-5.05,3.6c-0.674,0.48 -0.831,1.418 -0.35,2.092c0.48,0.674 1.418,0.831 2.092,0.35l5.05,-3.6c0.674,-0.48 0.831,-1.418 0.35,-2.092c-0.48,-0.674 -1.418,-0.831 -2.092,-0.35Z"/></g></svg>