<?xml version="1.0" encoding="UTF-8" standalone="no"?><!DOCTYPE svg PUBLIC "-//W3C//DTD SVG 1.1//EN" "http://www.w3.org/Graphics/SVG/1.1/DTD/svg11.dtd"><svg width="100%" height="100%" viewBox="0 0 56 71" version="1.1" xmlns="http://www.w3.org/2000/svg" xmlns:xlink="http://www.w3.org/1999/xlink" xml:space="preserve" xmlns:serif="http://www.serif.com/" style="fill-rule:evenodd;clip-rule:evenodd;stroke-linejoin:round;stroke-miterlimit:2;"><g><rect x="27.55" y="45.55" width="5.15" height="5.05"/><path d="M34.6,45.55l-1.9,0l1,0.05c0.311,0.015 0.611,0.015 0.9,0l0,-0.05Z"/><path d="M16.85,12.6c0,-0.667 -0.183,-1.283 -0.55,-1.85c-0.4,-0.6 -0.9,-0.9 -1.5,-0.9c-0.767,-0 -1.35,0.383 -1.75,1.15c-0.333,0.667 -0.5,1.467 -0.5,2.4c-0,1.5 0.583,2.25 1.75,2.25c0.7,0 1.3,-0.317 1.8,-0.95c0.5,-0.6 0.75,-1.3 0.75,-2.1Zm-2.8,-1.15c-0.166,-0 -0.311,0.026 -0.436,0.078l-0.056,0.025l-0.035,0.019l-0.034,0.02l-0.036,0.025l-0.031,0.023l-0.031,0.027l-0.029,0.026l-0.027,0.029l-0.026,0.029l-0.028,0.036l-0.021,0.031l-0.021,0.032l-0.02,0.034l-0.019,0.035l-0.017,0.037l-0.017,0.037l-0.015,0.04l-0.015,0.04l-0.013,0.043l-0.012,0.043l-0.011,0.045l-0.01,0.046l-0.009,0.048l-0.008,0.048l-0.006,0.051l-0.006,0.051l-0.004,0.054l-0.003,0.054l-0.003,0.056l-0.001,0.057l0,0.041c0,0.024 0.001,0.048 0.002,0.071c0.003,0.054 0.01,0.107 0.02,0.16c0.009,0.048 0.021,0.096 0.038,0.143c0.007,0.021 0.016,0.043 0.025,0.064c0.005,0.011 0.01,0.022 0.015,0.033l-0,-0l-0,0l0,0c0.132,0.271 0.393,0.453 0.785,0.544l0.015,0.006l0.018,0.002c0.196,0.045 0.423,0.067 0.682,0.067l0.937,-0.187l0.021,-0.013c0.007,-0.005 0.014,-0.009 0.02,-0.014c0.007,-0.004 0.014,-0.009 0.02,-0.014l0.014,-0.01c0.023,-0.018 0.044,-0.037 0.064,-0.057c0.02,-0.02 0.039,-0.042 0.055,-0.064l0.009,-0.012l0.013,-0.02c0.004,-0.006 0.008,-0.012 0.012,-0.019c0.001,-0.002 0.002,-0.004 0.003,-0.006c0.004,-0.005 0.007,-0.011 0.01,-0.017c0.001,-0.003 0.003,-0.006 0.005,-0.01c0.003,-0.005 0.005,-0.01 0.008,-0.016c0.006,-0.013 0.011,-0.026 0.016,-0.04c0.006,-0.015 0.011,-0.03 0.016,-0.046l0.003,-0.013l0.006,-0.023l0.003,-0.015c0.002,-0.007 0.003,-0.015 0.005,-0.023c0.001,-0.008 0.002,-0.016 0.003,-0.024c0.001,-0.003 0.001,-0.006 0.001,-0.009c0.001,-0.006 0.002,-0.013 0.002,-0.02c0.001,-0.004 0.001,-0.008 0.001,-0.012c0.001,-0.009 0.002,-0.017 0.002,-0.026c0,-0.003 0,-0.006 0,-0.008l0.001,-0.033c-0,-0.15 -0.059,-0.312 -0.175,-0.486c-0.114,-0.171 -0.283,-0.353 -0.507,-0.547l-0.018,-0.016l-0.014,-0.011c-0.011,-0.008 -0.022,-0.017 -0.032,-0.025l-0.023,-0.017l-0.033,-0.025l-0.025,-0.019l-0.029,-0.021l-0.032,-0.023l-0.033,-0.024l-0.045,-0.031l-0.033,-0.021l-0.035,-0.024c-0.017,-0.01 -0.033,-0.021 -0.05,-0.031l-0.001,-0c-0.021,-0.014 -0.043,-0.027 -0.064,-0.04l-0.035,-0.02l-0.025,-0.014l-0.031,-0.017l-0.029,-0.015l-0.022,-0.012l-0.019,-0.009l-0.028,-0.014l-0.512,-0.137Z"/><path d="M38.95,14.9c0.6,0.433 1.117,0.75 1.55,0.95l0.15,-1.75c-0.333,-0.267 -0.583,-0.45 -0.75,-0.55c0.4,-0.867 0.6,-1.567 0.6,-2.1c0,-1.033 -0.433,-1.55 -1.3,-1.55c-0.633,0 -1.2,0.367 -1.7,1.1c-0.433,0.667 -0.65,1.3 -0.65,1.9c0,0.5 0.417,1.017 1.25,1.55c-1.5,1.233 -2.9,2.167 -4.2,2.8c0.467,0.133 0.833,0.2 1.1,0.2c1.1,-0 2.417,-0.85 3.95,-2.55Zm-0.7,-3.45c-0.199,0.033 -0.332,0.133 -0.399,0.298l-0.001,0.002l0.001,0.03c0,0.015 0.002,0.03 0.004,0.045l0.002,0.019c0.001,0.006 0.002,0.012 0.003,0.019l0.005,0.023l0.003,0.016l0.004,0.013c0.002,0.008 0.004,0.015 0.006,0.023l0.003,0.009l0.011,0.031l0.009,0.025c0.001,0.003 0.002,0.005 0.003,0.008l0.01,0.023l0.01,0.021c0.002,0.004 0.004,0.007 0.006,0.011l0.011,0.022c0.003,0.005 0.005,0.01 0.008,0.014c0.002,0.003 0.003,0.006 0.005,0.008c0.004,0.007 0.007,0.014 0.011,0.02c0.003,0.005 0.006,0.01 0.01,0.015c0.007,0.011 0.014,0.022 0.021,0.033l0.014,0.02c0.008,0.011 0.016,0.021 0.024,0.032l0.015,0.019c0.006,0.008 0.013,0.016 0.02,0.024l0.012,0.015c0.005,0.006 0.011,0.012 0.016,0.018c0.005,0.006 0.01,0.012 0.016,0.017c0.01,0.012 0.021,0.024 0.033,0.036c0.019,0.019 0.038,0.038 0.058,0.057l0.032,0.029l0.009,0.008c0.007,0.007 0.015,0.013 0.022,0.02l0.021,0.018c0.038,0.032 0.079,0.064 0.123,0.097l0.017,0.013c0.017,0.012 0.034,0.025 0.052,0.037l0.023,0.016c0.01,0.007 0.02,0.014 0.031,0.021l0.029,0.02l0.031,0.02c0.003,0.002 0.006,0.004 0.01,0.006c0.023,0.015 0.046,0.03 0.07,0.045l0.023,0.014c0.008,0.005 0.017,0.01 0.026,0.015l0.035,0.021c0.005,0.003 0.009,0.005 0.013,0.008l0.04,0.023c0.011,0.006 0.021,0.012 0.032,0.018l0.054,0.03l0.048,0.026c0.021,0.011 0.043,0.023 0.065,0.034l0.003,0.002c0.024,0.012 0.048,0.025 0.073,0.037l0.031,0.015c0.019,0.01 0.038,0.019 0.058,0.029l0.025,0.012l0.1,-0.55c-0,-0.15 -0.022,-0.284 -0.065,-0.402l-0.005,-0.013c-0.005,-0.012 -0.009,-0.024 -0.015,-0.035l-0.01,-0.023c-0.002,-0.006 -0.005,-0.011 -0.008,-0.016c-0.006,-0.013 -0.012,-0.025 -0.019,-0.037l-0.011,-0.02c-0.005,-0.009 -0.011,-0.018 -0.016,-0.026l-0.012,-0.018c-0.007,-0.01 -0.014,-0.021 -0.022,-0.031l-0.009,-0.012c-0.004,-0.005 -0.008,-0.01 -0.012,-0.015l-0.008,-0.009c-0.003,-0.003 -0.005,-0.007 -0.008,-0.01c-0.005,-0.005 -0.01,-0.011 -0.015,-0.017c-0.005,-0.005 -0.009,-0.01 -0.014,-0.014l-0.013,-0.015l-0.788,-0.337Z"/><path d="M27.55,50.6l-1.3,0c-0.533,0 -1.067,-0.233 -1.6,-0.7c-0.467,-0.433 -0.917,-0.867 -1.35,-1.3c-0.867,4.567 -1.817,7.733 -2.85,9.5c-1.667,2.8 -4.25,4.2 -7.75,4.2c-2.367,0 -4.017,-0.783 -4.95,-2.35c-0.767,-1.267 -1.15,-3.283 -1.15,-6.05c0,-1.167 0.233,-2.633 0.7,-4.4c0.567,-1.967 1.183,-3.233 1.85,-3.8c-0.367,1.833 -0.55,3.8 -0.55,5.9c0,1.667 0.633,2.917 1.9,3.75c1,0.667 2.317,1 3.95,1c1.067,0 2.367,-0.283 3.9,-0.85c1.9,-0.733 2.817,-1.6 2.75,-2.6l-1.8,-28.3c-0,-0.3 0.333,-1.017 1,-2.15c0.633,-1.1 1.1,-1.783 1.4,-2.05c0.267,4.033 0.517,8.067 0.75,12.1c0.5,6.133 1.167,9.833 2,11.1c0.869,1.255 2.519,1.905 4.95,1.95l-1.85,0l-0,5.05Z" style="fill:#f00;"/><path d="M33.7,45.6c0.311,0.015 0.611,0.015 0.9,0c0.331,0.033 0.648,0.05 0.95,0.05c4.7,-0 7.05,-0.95 7.05,-2.85c0,-1.267 -0.683,-2.417 -2.05,-3.45c-1.267,-0.833 -2.55,-1.667 -3.85,-2.5c-1.367,-1.1 -2.05,-2.4 -2.05,-3.9c-0,-2.533 2.2,-5.4 6.6,-8.6c3.833,-2.733 7.133,-4.417 9.9,-5.05l-0.75,4.2c-4.2,2.2 -6.617,3.467 -7.25,3.8c-3.4,1.9 -5.567,3.367 -6.5,4.4c1.2,0.9 2.4,1.783 3.6,2.65c1.367,1.067 2.383,2.117 3.05,3.15c0.867,1.333 1.3,2.85 1.3,4.55c0,2.3 -0.633,4.283 -1.9,5.95c-1.333,1.733 -3.017,2.6 -5.05,2.6l-4.95,0l0,-5.05l1,0.05Z" style="fill:#f00;"/></g></svg>