<?xml version="1.0" encoding="UTF-8" standalone="no"?><!DOCTYPE svg PUBLIC "-//W3C//DTD SVG 1.1//EN" "http://www.w3.org/Graphics/SVG/1.1/DTD/svg11.dtd"><svg width="100%" height="100%" viewBox="0 0 56 77" version="1.1" xmlns="http://www.w3.org/2000/svg" xmlns:xlink="http://www.w3.org/1999/xlink" xml:space="preserve" xmlns:serif="http://www.serif.com/" style="fill-rule:evenodd;clip-rule:evenodd;stroke-linejoin:round;stroke-miterlimit:2;"><g><path d="M13.95,11.75c-0.633,0 -1.2,0.367 -1.7,1.1c-0.433,0.667 -0.65,1.3 -0.65,1.9c-0,0.5 0.417,1.017 1.25,1.55c-1.5,1.233 -2.9,2.167 -4.2,2.8c0.467,0.133 0.833,0.2 1.1,0.2c1.1,0 2.417,-0.85 3.95,-2.55c0.6,0.433 1.117,0.75 1.55,0.95l0.15,-1.75c-0.333,-0.267 -0.583,-0.45 -0.75,-0.55c0.4,-0.867 0.6,-1.567 0.6,-2.1c-0,-1.033 -0.433,-1.55 -1.3,-1.55Zm-0.95,1.55l-0.013,0.002l-0.024,0.005l-0.011,0.003c-0.011,0.002 -0.022,0.005 -0.033,0.008l-0.017,0.005l-0.019,0.007c-0.012,0.004 -0.024,0.009 -0.036,0.014l-0.009,0.004c-0.006,0.003 -0.012,0.006 -0.018,0.008l-0.016,0.009c-0.01,0.006 -0.02,0.012 -0.03,0.018l-0.017,0.012l-0.017,0.013c-0.005,0.004 -0.01,0.008 -0.015,0.012l-0.016,0.014l-0.011,0.011l-0.013,0.015c-0.008,0.009 -0.015,0.018 -0.022,0.027l-0.011,0.015l-0.008,0.012l-0.011,0.018l-0.011,0.019c-0.003,0.006 -0.006,0.012 -0.009,0.019c-0.003,0.007 -0.006,0.014 -0.009,0.021c-0.002,0.003 -0.003,0.006 -0.004,0.009c-0,0.011 0,0.023 0.001,0.034c0,0.005 0.001,0.011 0.001,0.016l0.002,0.025c0.003,0.02 0.006,0.04 0.011,0.061l0.004,0.018c0.001,0.006 0.003,0.012 0.005,0.018c0.001,0.005 0.002,0.01 0.004,0.014c0.001,0.006 0.003,0.011 0.005,0.016l0.007,0.021c0.001,0.004 0.003,0.009 0.005,0.014c0.002,0.005 0.004,0.01 0.006,0.016l0.013,0.03l0.01,0.022c0.01,0.021 0.022,0.042 0.034,0.063l0.005,0.008c0.013,0.021 0.027,0.043 0.042,0.064l0.012,0.017l0.019,0.025c0.013,0.018 0.028,0.036 0.043,0.054l0.023,0.025l0.016,0.018l0.013,0.014l0.015,0.016l0.02,0.02c0.005,0.005 0.01,0.009 0.014,0.014l0.021,0.02c0.008,0.007 0.017,0.015 0.025,0.023l0.009,0.008c0.013,0.012 0.027,0.024 0.041,0.036l0.016,0.014l0.025,0.02l0.036,0.029l0.024,0.019c0.015,0.012 0.03,0.023 0.046,0.035l0.022,0.016l0.02,0.014l0.018,0.013l0.032,0.023l0.032,0.021c0.019,0.013 0.038,0.025 0.056,0.037l0.026,0.016c0.006,0.004 0.011,0.008 0.017,0.011l0.028,0.018l0.032,0.019c0.011,0.007 0.022,0.013 0.033,0.02l0.019,0.011c0.009,0.005 0.017,0.01 0.026,0.015c0.034,0.02 0.07,0.04 0.107,0.06l0.052,0.029c0.043,0.023 0.086,0.045 0.131,0.068l0.042,0.021c0.025,0.012 0.05,0.025 0.076,0.037c0.003,0.001 0.005,0.003 0.008,0.004l0.1,-0.55l-0.062,-0.394l-0.003,-0.004l-0.001,-0.005l-0.002,-0.004c-0.043,-0.117 -0.108,-0.219 -0.195,-0.306l-0.787,-0.337Z"/><path d="M31.15,37.45c0,-1.5 0.017,-3.1 0.05,-4.8l0.1,-2.45c-1.567,1.833 -2.567,3.083 -3,3.75c-0,4.767 -0.033,7.717 -0.1,8.85c-0.167,2.3 -0.667,4.983 -1.5,8.05c-0.6,-2.767 -1.067,-4.55 -1.4,-5.35c-0.9,-2.2 -2.617,-4.783 -5.15,-7.75c-2.9,-3.4 -5.183,-5.1 -6.85,-5.1c-0.467,0 -0.883,0.333 -1.25,1c-0.3,0.6 -0.45,1.183 -0.45,1.75c-0,3.2 1.283,4.8 3.85,4.8c0.667,-0 1.433,-0.15 2.3,-0.45c4.667,3.867 7.383,8.067 8.15,12.6c-0.5,1.367 -2.05,3.267 -4.65,5.7c-2.4,2.233 -4.35,3.75 -5.85,4.55c4.9,-0 8.433,-1.583 10.6,-4.75c1.6,-2.367 2.8,-6.483 3.6,-12.35c-0.033,0.733 -0.05,1.467 -0.05,2.2c-0,3.267 0.267,5.967 0.8,8.1c0.8,3.067 2.1,4.6 3.9,4.6l3.55,0l-0,-5.05c-1.633,-0 -2.7,-0.083 -3.2,-0.25c-2.3,-0.867 -3.45,-6.75 -3.45,-17.65Z" style="fill:#f00;"/><path d="M17.35,22.4c0.333,0.1 0.583,0.15 0.75,0.15c0.367,0 0.55,-0.383 0.55,-1.15c0,-0.333 -0.117,-0.617 -0.35,-0.85c-0.233,-0.267 -0.483,-0.4 -0.75,-0.4c-0.533,0 -1.367,0.517 -2.5,1.55c-1.167,1.033 -1.75,1.85 -1.75,2.45c-0,0.2 0.133,0.55 0.4,1.05c0.267,0.5 0.4,0.883 0.4,1.15c-0,0.167 -0.033,0.4 -0.1,0.7c-0.1,0.333 -0.15,0.583 -0.15,0.75c-0,0.133 0.017,0.333 0.05,0.6c1.567,-1.4 2.917,-2.1 4.05,-2.1c0.967,0 1.483,-0.017 1.55,-0.05c0.233,-0.467 0.483,-0.95 0.75,-1.45c-0.233,0 -0.6,0.017 -1.1,0.05c-0.5,0.033 -0.867,0.05 -1.1,0.05c-1.333,0 -2.383,-0.317 -3.15,-0.95c0.4,-1.167 0.95,-1.75 1.65,-1.75c0.167,-0 0.433,0.067 0.8,0.2Z" style="fill:#f00;"/><path d="M31.129,15.529l-5.05,3.6c-0.674,0.48 -0.831,1.418 -0.35,2.092c0.48,0.674 1.418,0.831 2.092,0.35l5.05,-3.6c0.674,-0.48 0.831,-1.418 0.35,-2.092c-0.48,-0.674 -1.418,-0.831 -2.092,-0.35Z"/></g></svg>