<?xml version="1.0" encoding="UTF-8" standalone="no"?><!DOCTYPE svg PUBLIC "-//W3C//DTD SVG 1.1//EN" "http://www.w3.org/Graphics/SVG/1.1/DTD/svg11.dtd"><svg width="100%" height="100%" viewBox="0 0 110 77" version="1.1" xmlns="http://www.w3.org/2000/svg" xmlns:xlink="http://www.w3.org/1999/xlink" xml:space="preserve" xmlns:serif="http://www.serif.com/" style="fill-rule:evenodd;clip-rule:evenodd;stroke-linejoin:round;stroke-miterlimit:2;"><g><path d="M38.8,44.5c-0.8,0 -1.65,0.95 -2.55,2.85c-0.8,1.767 -1.2,3.2 -1.2,4.3c-0,1.333 0.583,2.183 1.75,2.55c1.067,0.167 2.133,0.35 3.2,0.55c-1.267,2.1 -2.583,3.633 -3.95,4.6c-1.533,1.133 -3.35,1.7 -5.45,1.7c-1.133,0 -2.767,-0.1 -4.9,-0.3c2,2.2 4.317,3.3 6.95,3.3c2.3,0 4.25,-1.05 5.85,-3.15c1.133,-1.467 2.233,-3.667 3.3,-6.6l8.7,0l-0,-5.05l-7.05,0l0,0.2c-0.471,0.01 -0.954,-0.006 -1.45,-0.05c-0.4,-1 -0.8,-1.983 -1.2,-2.95c-0.667,-1.3 -1.333,-1.95 -2,-1.95Zm-0.137,4.325c0.225,0.167 0.387,0.325 0.487,0.475l0.45,1.65c-0.667,-0 -1.467,-0.067 -2.4,-0.2c0,-0.4 -0.067,-0.667 -0.2,-0.8c0.267,-0.6 0.533,-1.15 0.8,-1.65l0.863,0.525Z"/><path d="M26.35,51.9c0,-3.833 -0.95,-7.067 -2.85,-9.7c-0.533,1.133 -1.05,2.7 -1.55,4.7c0.933,1.4 1.533,2.4 1.8,3c0.6,1.167 0.9,2.3 0.9,3.4c-0,1.367 -0.967,2.517 -2.9,3.45c-1.567,0.8 -3.067,1.2 -4.5,1.2c-3.533,-0 -5.3,-1.65 -5.3,-4.95c0,-0.533 0.1,-1.333 0.3,-2.4c0.2,-1.067 0.3,-1.867 0.3,-2.4c-0.7,0.833 -1.267,2.017 -1.7,3.55c-0.433,1.367 -0.65,2.683 -0.65,3.95c0,2.333 0.633,4.1 1.9,5.3c1.167,1.133 2.8,1.7 4.9,1.7c2.633,-0 4.85,-1.05 6.65,-3.15c1.8,-2.133 2.7,-4.683 2.7,-7.65Z"/><rect x="59.3" y="49.25" width="5.1" height="5.05"/><path d="M66.35,49.3l-0,-0.05l-1.95,-0l1,0.05c0.329,0.016 0.646,0.016 0.95,0Z"/><path d="M19.55,37.4l-2.65,-2.95l-2.65,2.95l2.65,2.95l2.65,-2.95Z"/><path d="M91.3,18.35c-0.4,-1.233 -0.6,-2.15 -0.6,-2.75c-0.767,0.567 -1.15,1.083 -1.15,1.55c-0,0.567 0.183,1.4 0.55,2.5c0.4,1.067 0.6,1.883 0.6,2.45c0,0.367 -0.05,0.667 -0.15,0.9c0.867,-0.467 1.3,-1.1 1.3,-1.9c-0,-0.633 -0.183,-1.55 -0.55,-2.75Z"/><path d="M48.45,14.5c0,-1.033 -0.433,-1.55 -1.3,-1.55c-0.633,-0 -1.2,0.367 -1.7,1.1c-0.433,0.667 -0.65,1.3 -0.65,1.9c-0,0.5 0.417,1.017 1.25,1.55c-1.5,1.233 -2.9,2.167 -4.2,2.8c0.467,0.133 0.833,0.2 1.1,0.2c1.1,0 2.417,-0.85 3.95,-2.55c0.6,0.433 1.117,0.75 1.55,0.95l0.15,-1.75c-0.333,-0.267 -0.583,-0.45 -0.75,-0.55c0.4,-0.867 0.6,-1.567 0.6,-2.1Zm-1.352,1.575l0.052,0.025c0.034,-0.183 0.076,-0.365 0.1,-0.55c0.004,-0.033 -0.011,-0.067 -0.016,-0.1l-0.05,-0.303l-0.197,-0.31l-0.787,-0.337l-0.006,0.001c-0.011,0.002 -0.021,0.004 -0.031,0.006l-0.025,0.006l-0.016,0.004l-0.022,0.007l-0.021,0.007c-0.009,0.004 -0.018,0.007 -0.027,0.011l-0.022,0.01l-0.016,0.008l-0.017,0.009l-0.02,0.012l-0.018,0.012l-0.008,0.006l-0.009,0.007c-0.013,0.01 -0.024,0.02 -0.035,0.031l-0.001,0c-0.009,0.01 -0.018,0.019 -0.026,0.029c-0.003,0.003 -0.005,0.006 -0.007,0.008c-0.002,0.003 -0.005,0.006 -0.007,0.009l-0.007,0.01c-0.002,0.002 -0.003,0.004 -0.005,0.006c-0.013,0.019 -0.026,0.04 -0.036,0.061l-0.009,0.018c-0,0.002 -0.001,0.003 -0.002,0.005c-0.002,0.005 -0.005,0.011 -0.007,0.017l0,0.009l0,0.014l0.002,0.027l0.002,0.024l0.003,0.021l0.002,0.011c0.002,0.012 0.005,0.025 0.007,0.037c0.003,0.01 0.005,0.021 0.008,0.031l0.009,0.028c0.004,0.015 0.01,0.03 0.016,0.045l0.005,0.013c0.005,0.013 0.011,0.025 0.016,0.037l0.007,0.013l0.009,0.019l0.014,0.024l0.008,0.015c0.002,0.003 0.004,0.007 0.006,0.01l0.017,0.027l0.007,0.011c0.003,0.004 0.006,0.008 0.009,0.013l0.012,0.017l0.012,0.016c0.008,0.012 0.017,0.024 0.027,0.036l0.012,0.015c0.01,0.012 0.021,0.025 0.031,0.037c0.012,0.013 0.024,0.026 0.036,0.039l0.009,0.009l0.024,0.025l0.019,0.018l0.007,0.008l0.021,0.019l0.03,0.028l0.008,0.007c0.027,0.025 0.056,0.049 0.086,0.073l0.011,0.009l0.027,0.021l0.033,0.026l0.024,0.017l0.03,0.022l0.023,0.016l0.027,0.019l0.018,0.012c0.023,0.016 0.047,0.032 0.072,0.048l0.035,0.023l0.014,0.009l0.043,0.027l0.04,0.024l0.039,0.022l0.044,0.026l0.031,0.018l0.035,0.019l0.05,0.027l0.037,0.02l0.038,0.02l0.051,0.026l0.049,0.025l0.046,0.023Z"/><path d="M59.3,54.3l-0.95,0c-0.9,0 -1.65,-0.533 -2.25,-1.6c-0.433,-0.933 -0.883,-1.883 -1.35,-2.85c-0.033,0.067 -0.55,0.983 -1.55,2.75c-0.667,1.133 -1.4,1.7 -2.2,1.7l-0.5,0l0,-5.05l-1.45,-0c1.426,-0.029 2.409,-0.179 2.95,-0.45c0.933,-0.5 1.4,-1.567 1.4,-3.2c-0,-2 -0.183,-4.983 -0.55,-8.95c-0.333,-4 -0.5,-6.983 -0.5,-8.95c0,-1.6 0.8,-3.1 2.4,-4.5c0.067,1.6 0.267,4.867 0.6,9.8c0.267,4.067 0.4,7.333 0.4,9.8c0,2.1 0.35,3.667 1.05,4.7c0.773,1.128 2.023,1.711 3.75,1.75l-1.25,0l-0,5.05Z" style="fill:#f00;"/><path d="M65.4,49.3c0.329,0.016 0.646,0.016 0.95,0c0.313,0.033 0.613,0.05 0.9,0.05c4.7,0 7.05,-0.95 7.05,-2.85c-0,-1.267 -0.683,-2.417 -2.05,-3.45c-1.267,-0.833 -2.55,-1.667 -3.85,-2.5c-1.367,-1.1 -2.05,-2.4 -2.05,-3.9c-0,-2.533 2.2,-5.4 6.6,-8.6c3.833,-2.733 7.133,-4.417 9.9,-5.05l-0.75,4.2c-4.2,2.2 -6.617,3.467 -7.25,3.8c-3.4,1.9 -5.567,3.367 -6.5,4.4c1.2,0.9 2.4,1.783 3.6,2.65c1.367,1.067 2.383,2.117 3.05,3.15c0.867,1.333 1.3,2.85 1.3,4.55c-0,2.3 -0.633,4.283 -1.9,5.95c-1.333,1.733 -3.017,2.6 -5.05,2.6l-4.95,0l-0,-5.05l1,0.05Z" style="fill:#f00;"/><path d="M85.8,27.25c-0.3,0.5 -0.45,1.1 -0.45,1.8c-0,1.233 0.333,2.383 1,3.45c0.767,1.2 1.667,1.8 2.7,1.8c0.5,0 0.85,-0.1 1.05,-0.3c0.433,-0.367 0.683,-0.567 0.75,-0.6c0.8,0.567 2.267,2.333 4.4,5.3c1.633,2.3 2.967,4.267 4,5.9c-0.4,0.8 -1.033,1.783 -1.9,2.95c-0.967,1.267 -1.733,2.1 -2.3,2.5l-1.75,-0.65l-0,4.75c1.167,0.4 2.733,0.6 4.7,0.6c1.8,0 2.967,-0.267 3.5,-0.8c0.6,-0.6 0.9,-1.9 0.9,-3.9c0,-2.533 -0.467,-4.533 -1.4,-6c0.4,-1.233 0.75,-3.1 1.05,-5.6c0.3,-2.467 0.617,-4.217 0.95,-5.25l0.35,0.4c0.533,-0.333 0.967,-1 1.3,-2c0.1,-0.233 0.317,-1.033 0.65,-2.4c-1.433,-0.767 -2.15,-1.767 -2.15,-3c0,-0.5 0.067,-1.133 0.2,-1.9c-1.333,1.233 -2.267,2.967 -2.8,5.2c0.067,0.3 0.283,0.767 0.65,1.4c0.367,0.533 0.55,0.917 0.55,1.15c0,0.867 -0.2,2.583 -0.6,5.15c-0.367,2.767 -0.667,4.383 -0.9,4.85c-3.633,-5.6 -5.617,-8.65 -5.95,-9.15c-3.133,-4.4 -5.5,-6.6 -7.1,-6.6c-0.6,0 -1.067,0.317 -1.4,0.95Zm12.362,22.042c-0.22,0.251 -0.457,0.503 -0.712,0.758l3.35,-0.2c0.072,-0.377 0.125,-0.642 0.159,-0.795c0.015,-0.067 0.026,-0.112 0.034,-0.137c0.003,-0.009 0.005,-0.015 0.007,-0.018c-0.027,-0.07 -0.177,-0.453 -0.45,-1.15l-0.55,-1.45c-0.008,0.024 -0.016,0.048 -0.025,0.072c-0.016,0.046 -0.032,0.092 -0.05,0.138c-0.018,0.05 -0.037,0.099 -0.058,0.149c-0.006,0.017 -0.013,0.034 -0.02,0.05c-0.064,0.156 -0.136,0.312 -0.215,0.468c-0.067,0.133 -0.139,0.266 -0.216,0.399c-0.041,0.07 -0.083,0.141 -0.126,0.211c-0.018,0.029 -0.036,0.058 -0.055,0.088c-0.079,0.124 -0.162,0.249 -0.25,0.375c-0.025,0.036 -0.05,0.071 -0.076,0.107c-0.013,0.018 -0.026,0.035 -0.039,0.053c-0.118,0.163 -0.244,0.326 -0.377,0.49l-0.003,0.004c-0.041,0.05 -0.082,0.1 -0.124,0.151l-0.025,0.029c-0.059,0.07 -0.118,0.139 -0.179,0.208Z" style="fill:#f00;"/><path d="M73.027,57.88l-5.1,3.65c-0.673,0.482 -0.829,1.42 -0.347,2.093c0.482,0.673 1.42,0.829 2.093,0.347l5.1,-3.65c0.673,-0.482 0.829,-1.42 0.347,-2.093c-0.482,-0.673 -1.42,-0.829 -2.093,-0.347Z"/><path d="M16.971,14.684l-5.05,3.65c-0.671,0.485 -0.822,1.424 -0.337,2.095c0.485,0.671 1.424,0.822 2.095,0.337l5.05,-3.65c0.671,-0.485 0.822,-1.424 0.337,-2.095c-0.485,-0.671 -1.424,-0.822 -2.095,-0.337Z"/><path d="M103.577,11.03l-5.1,3.65c-0.673,0.482 -0.829,1.42 -0.347,2.093c0.482,0.673 1.42,0.829 2.093,0.347l5.1,-3.65c0.673,-0.482 0.829,-1.42 0.347,-2.093c-0.482,-0.673 -1.42,-0.829 -2.093,-0.347Z"/></g></svg>