<?xml version="1.0" encoding="UTF-8" standalone="no"?><!DOCTYPE svg PUBLIC "-//W3C//DTD SVG 1.1//EN" "http://www.w3.org/Graphics/SVG/1.1/DTD/svg11.dtd"><svg width="100%" height="100%" viewBox="0 0 30 38" version="1.1" xmlns="http://www.w3.org/2000/svg" xmlns:xlink="http://www.w3.org/1999/xlink" xml:space="preserve" xmlns:serif="http://www.serif.com/" style="fill-rule:evenodd;clip-rule:evenodd;stroke-linejoin:round;stroke-miterlimit:2;"><g><path d="M20.1,10.15c0.1,-0.6 0.183,-1.183 0.25,-1.75c-0.833,-0.133 -1.367,-0.5 -1.6,-1.1c-0.1,-0.333 -0.15,-1.017 -0.15,-2.05c-0.667,0.867 -1.233,2.133 -1.7,3.8c0.467,0.567 0.833,0.983 1.1,1.25c0.033,0.933 0.233,3.4 0.6,7.4c0.267,3.1 0.4,5.583 0.4,7.45c-0,0.833 -0.583,1.5 -1.75,2c-0.933,0.367 -1.883,0.55 -2.85,0.55c-2.733,-0 -4.1,-1.167 -4.1,-3.5c-0,-0.1 0.133,-1.1 0.4,-3c-0.533,0.433 -0.967,1.25 -1.3,2.45c-0.267,0.967 -0.4,1.9 -0.4,2.8c-0,1.7 0.35,2.917 1.05,3.65c0.733,0.8 1.933,1.2 3.6,1.2c4.467,0 6.7,-3.2 6.7,-9.6c0,-3.233 -0.35,-6.633 -1.05,-10.2c0.4,-0.167 0.667,-0.617 0.8,-1.35Z" style="fill:#f00;"/></g></svg>