<?xml version="1.0" encoding="UTF-8" standalone="no"?><!DOCTYPE svg PUBLIC "-//W3C//DTD SVG 1.1//EN" "http://www.w3.org/Graphics/SVG/1.1/DTD/svg11.dtd"><svg width="100%" height="100%" viewBox="0 0 46 36" version="1.1" xmlns="http://www.w3.org/2000/svg" xmlns:xlink="http://www.w3.org/1999/xlink" xml:space="preserve" xmlns:serif="http://www.serif.com/" style="fill-rule:evenodd;clip-rule:evenodd;stroke-linejoin:round;stroke-miterlimit:2;"><g><rect x="29.1" y="23.7" width="5.25" height="3.4"/><path d="M29.1,27.1l-1,0c-0.6,0 -1.233,-0.417 -1.9,-1.25c-0.233,-0.333 -0.633,-1.017 -1.2,-2.05c-0.867,1.167 -2.317,2.15 -4.35,2.95c-1.867,0.733 -3.6,1.1 -5.2,1.1c-1.667,0 -3.017,-0.317 -4.05,-0.95c-1.267,-0.733 -1.9,-1.883 -1.9,-3.45c-0,-0.833 0.2,-1.783 0.6,-2.85c0.467,-1.233 1.017,-1.983 1.65,-2.25c-0.433,1.2 -0.65,2.267 -0.65,3.2c0,2.233 2.25,3.35 6.75,3.35c1.1,-0 2.45,-0.4 4.05,-1.2c1.867,-0.867 2.8,-1.783 2.8,-2.75c-0,-1.5 -0.1,-3.383 -0.3,-5.65c-0.167,-1.9 -0.317,-3.8 -0.45,-5.7c-0.033,-0.3 0.217,-0.817 0.75,-1.55c0.467,-0.6 0.867,-1.05 1.2,-1.35c-0,9.6 0.367,14.967 1.1,16.1c0.333,0.5 0.867,0.8 1.6,0.9l0.5,-0l0,3.4Z" style="fill:#f00;"/><path d="M20.35,14.75c0,-0.233 -0.083,-0.45 -0.25,-0.65c-0.2,-0.2 -0.417,-0.3 -0.65,-0.3c-0.433,0 -1.067,0.65 -1.9,1.95c-0.8,1.3 -1.2,2.183 -1.2,2.65c0,0.467 0.367,0.7 1.1,0.7c0.933,0 1.567,0.15 1.9,0.45c-0.733,0.733 -1.483,1.1 -2.25,1.1c-0.4,-0 -0.85,-0.067 -1.35,-0.2c0.3,0.433 0.55,0.717 0.75,0.85c0.267,0.133 0.633,0.2 1.1,0.2c0.767,0 1.383,-0.183 1.85,-0.55c0.533,-0.4 0.8,-0.983 0.8,-1.75c-0,-0.733 -0.467,-1.2 -1.4,-1.4c-0.933,-0.167 -1.4,-0.317 -1.4,-0.45c-0,-0.267 0.167,-0.567 0.5,-0.9c0.333,-0.333 0.633,-0.5 0.9,-0.5c0.2,-0 0.4,0.067 0.6,0.2c0.6,-0.3 0.9,-0.767 0.9,-1.4Z" style="fill:#f00;"/></g></svg>