<?xml version="1.0" encoding="UTF-8" standalone="no"?><!DOCTYPE svg PUBLIC "-//W3C//DTD SVG 1.1//EN" "http://www.w3.org/Graphics/SVG/1.1/DTD/svg11.dtd"><svg width="100%" height="100%" viewBox="0 0 46 38" version="1.1" xmlns="http://www.w3.org/2000/svg" xmlns:xlink="http://www.w3.org/1999/xlink" xml:space="preserve" xmlns:serif="http://www.serif.com/" style="fill-rule:evenodd;clip-rule:evenodd;stroke-linejoin:round;stroke-miterlimit:2;"><g><rect x="27.75" y="20.85" width="5.25" height="3.4"/><path d="M27.75,24.25l-0.95,0c-0.4,0 -0.8,-0.15 -1.2,-0.45c-0.333,-0.3 -0.667,-0.6 -1,-0.9c-0.633,3.067 -1.35,5.2 -2.15,6.4c-1.233,1.867 -3.167,2.8 -5.8,2.8c-1.767,0 -3,-0.517 -3.7,-1.55c-0.567,-0.867 -0.85,-2.233 -0.85,-4.1c0,-0.767 0.183,-1.733 0.55,-2.9c0.4,-1.367 0.85,-2.233 1.35,-2.6c-0.267,1.233 -0.4,2.55 -0.4,3.95c0,1.133 0.467,1.983 1.4,2.55c0.767,0.433 1.75,0.65 2.95,0.65c0.833,0 1.817,-0.183 2.95,-0.55c1.433,-0.5 2.117,-1.083 2.05,-1.75l-1.35,-19c0,-0.2 0.25,-0.683 0.75,-1.45c0.5,-0.733 0.85,-1.183 1.05,-1.35c0.2,2.7 0.383,5.4 0.55,8.1c0.367,4.133 0.867,6.617 1.5,7.45c0.662,0.82 1.862,1.254 3.6,1.3l-1.3,-0l-0,3.4Z" style="fill:#f00;"/></g></svg>