<?xml version="1.0" encoding="UTF-8" standalone="no"?><!DOCTYPE svg PUBLIC "-//W3C//DTD SVG 1.1//EN" "http://www.w3.org/Graphics/SVG/1.1/DTD/svg11.dtd"><svg width="100%" height="100%" viewBox="0 0 36 36" version="1.1" xmlns="http://www.w3.org/2000/svg" xmlns:xlink="http://www.w3.org/1999/xlink" xml:space="preserve" xmlns:serif="http://www.serif.com/" style="fill-rule:evenodd;clip-rule:evenodd;stroke-linejoin:round;stroke-miterlimit:2;"><g><path d="M18.6,8.5c-0.367,-0.267 -0.733,-0.533 -1.1,-0.8c-0.6,-0.433 -0.9,-0.767 -0.9,-1c0,-0.2 0.45,-0.5 1.35,-0.9c0.7,-0.3 1.617,-0.633 2.75,-1l2.85,-0.95l0,-2.4l-3.85,1.5c-1.733,0.667 -2.95,1.417 -3.65,2.25c-0.767,0.9 -1.15,2.133 -1.15,3.7c-0,0.267 0.283,0.633 0.85,1.1l1.6,1.25l0.45,-0.45c1.4,0.833 2.5,1.617 3.3,2.35c0.833,0.7 1.567,1.533 2.2,2.5l-10.4,-0l-0,2.4l12,0l-0,-2.4c-0.667,-1.333 -1.567,-2.617 -2.7,-3.85c-1.033,-1.133 -2.233,-2.233 -3.6,-3.3Z" style="fill:#f00;"/></g></svg>