<?xml version="1.0" encoding="UTF-8" standalone="no"?><!DOCTYPE svg PUBLIC "-//W3C//DTD SVG 1.1//EN" "http://www.w3.org/Graphics/SVG/1.1/DTD/svg11.dtd"><svg width="100%" height="100%" viewBox="0 0 77 81" version="1.1" xmlns="http://www.w3.org/2000/svg" xmlns:xlink="http://www.w3.org/1999/xlink" xml:space="preserve" xmlns:serif="http://www.serif.com/" style="fill-rule:evenodd;clip-rule:evenodd;stroke-linejoin:round;stroke-miterlimit:2;"><g><path d="M49.1,66.5c-0.7,-0.167 -1.383,-0.35 -2.05,-0.55c0.867,1.133 1.883,2.05 3.05,2.75c1.3,0.833 2.533,1.25 3.7,1.25c1.6,0 3.217,-1.317 4.85,-3.95c1.467,-2.3 2.3,-4.433 2.5,-6.4c0.242,-0.182 0.525,-0.282 0.85,-0.3l1.55,-0c2.459,-0.056 4.243,-0.606 5.35,-1.65c1.267,-1.233 1.9,-3.317 1.9,-6.25c-0,-0.833 -0.317,-2.7 -0.95,-5.6c-0.7,1.8 -1.267,3.133 -1.7,4c0.667,1.433 1.083,2.467 1.25,3.1c-0.682,0.942 -2.632,1.409 -5.85,1.4l-0,-0.05c-1.6,-0 -2.5,-0.017 -2.7,-0.05c-0.7,-0.167 -1.45,-0.683 -2.25,-1.55c-0.167,1.267 -0.433,2.367 -0.8,3.3c0.033,0.033 0.4,0.683 1.1,1.95c0.6,1.033 0.9,1.6 0.9,1.7c-0,1.2 -1.183,2.717 -3.55,4.55c-2.267,1.8 -3.983,2.7 -5.15,2.7c-0.5,0 -1.167,-0.117 -2,-0.35Z"/><path d="M31.7,59.3l-0.2,-0c-1.2,-0 -2.367,-1.25 -3.5,-3.75c-4.9,3.067 -9.75,4.6 -14.55,4.6c-2.4,-0 -4.417,-0.617 -6.05,-1.85c-1.9,-1.433 -2.85,-3.433 -2.85,-6c-0,-1.2 0.267,-2.4 0.8,-3.6c0.567,-1.167 1.283,-2.083 2.15,-2.75c-0.8,1.733 -1.2,3.05 -1.2,3.95c-0,2.033 1.333,3.55 4,4.55c1.9,0.733 4,1.1 6.3,1.1c5.067,-0 9.217,-1.817 12.45,-5.45c0.2,1.7 0.567,2.817 1.1,3.35c0.5,0.533 1.517,0.8 3.05,0.8l0,0.05c-0.163,0.008 -0.33,0.008 -0.5,-0l-1,-0.05l0,5.05Z"/><path d="M18.85,41.4l-2.3,-2.55l-2.3,2.55l2.3,2.6l2.3,-2.6Z"/><path d="M23.5,41.4l-2.35,-2.55l-2.3,2.55l2.3,2.6l2.35,-2.6Z"/><path d="M68.1,38.55l2.3,2.55l2.4,-2.6l-2.4,-2.5l-2.3,2.55Z"/><path d="M65.8,41.1l2.3,-2.55l-2.25,-2.55l-2.35,2.5l2.3,2.6Z"/><path d="M21.2,28.3l0.15,-1.75c-0.333,-0.267 -0.583,-0.45 -0.75,-0.55c0.4,-0.867 0.6,-1.567 0.6,-2.1c0,-1.033 -0.433,-1.55 -1.3,-1.55c-0.633,0 -1.2,0.367 -1.7,1.1c-0.433,0.667 -0.65,1.3 -0.65,1.9c-0,0.5 0.417,1.017 1.25,1.55c-1.5,1.233 -2.9,2.167 -4.2,2.8c0.467,0.133 0.833,0.2 1.1,0.2c1.1,-0 2.417,-0.85 3.95,-2.55c0.6,0.433 1.117,0.75 1.55,0.95Zm-2.25,-4.4c-0.2,0.033 -0.333,0.133 -0.4,0.299l-0,0.001l0,0.01c0,0.004 0,0.009 0,0.013l0.002,0.026c0.001,0.009 0.002,0.019 0.003,0.028l0.003,0.023l0.001,0.007c0.002,0.012 0.005,0.024 0.007,0.036c0.003,0.011 0.005,0.021 0.008,0.032l0.007,0.022c0,0.001 0.001,0.003 0.002,0.005c0.004,0.015 0.01,0.03 0.015,0.044l0.008,0.018c0.004,0.011 0.009,0.022 0.014,0.033l0.011,0.021l0.009,0.017l0.01,0.019l0.008,0.014c0.002,0.003 0.004,0.007 0.006,0.01l0.014,0.022l0.01,0.016c0.004,0.006 0.008,0.012 0.012,0.018l0.009,0.012l0.013,0.018l0.015,0.02l0.018,0.022c0.002,0.003 0.004,0.006 0.007,0.009l0.016,0.019l0.014,0.016c0.009,0.011 0.018,0.021 0.028,0.031l0.016,0.018l0.023,0.023l0.018,0.017l0.02,0.02c0.016,0.015 0.032,0.03 0.049,0.045l0.028,0.025l0.032,0.026l0.023,0.019l0.04,0.032l0.005,0.004l0.034,0.026l0.014,0.011c0.018,0.013 0.036,0.025 0.054,0.038l0.003,0.002c0.018,0.013 0.035,0.025 0.053,0.037l0.034,0.023l0.013,0.008l0.042,0.027l0.035,0.022l0.032,0.021l0.032,0.019l0.019,0.011l0.028,0.016l0.044,0.026l0.052,0.029l0.039,0.022l0.025,0.013c0.012,0.007 0.024,0.013 0.037,0.02l0.06,0.031l0.047,0.025l0.043,0.021l0.059,0.029l0.027,0.013l0.1,-0.55c-0,-0 -0.062,-0.394 -0.062,-0.394l-0.003,-0.004l-0.001,-0.005l-0.197,-0.309l-0.787,-0.338Z"/><path d="M38.85,20.05c-0.767,0 -1.35,0.383 -1.75,1.15c-0.333,0.667 -0.5,1.467 -0.5,2.4c0,1.5 0.583,2.25 1.75,2.25c0.7,0 1.3,-0.317 1.8,-0.95c0.5,-0.6 0.75,-1.3 0.75,-2.1c-0,-0.667 -0.183,-1.283 -0.55,-1.85c-0.4,-0.6 -0.9,-0.9 -1.5,-0.9Zm-1.645,3.337l-0.105,-0.487c0,-0.417 0.083,-0.729 0.25,-0.937c0.167,-0.209 0.417,-0.313 0.75,-0.313l0.512,0.137c0.192,0.092 0.405,0.23 0.638,0.413c0.467,0.4 0.7,0.75 0.7,1.05c0,0.25 -0.104,0.437 -0.312,0.563l-0.938,0.187l-0.689,-0.068l-0.487,-0.197l-0.319,-0.348Z"/><path d="M32.7,54.3c0.17,0.008 0.337,0.008 0.5,-0c0.478,0.033 0.928,0.05 1.35,0.05c4.7,0 7.05,-0.95 7.05,-2.85c0,-1.267 -0.683,-2.417 -2.05,-3.45c-1.267,-0.833 -2.55,-1.667 -3.85,-2.5c-1.367,-1.1 -2.05,-2.4 -2.05,-3.9c-0,-2.533 2.2,-5.4 6.6,-8.6c3.833,-2.733 7.133,-4.417 9.9,-5.05l-0.75,4.2c-4.2,2.2 -6.617,3.467 -7.25,3.8c-3.4,1.9 -5.567,3.367 -6.5,4.4c1.2,0.9 2.4,1.783 3.6,2.65c1.367,1.067 2.383,2.117 3.05,3.15c0.867,1.333 1.3,2.85 1.3,4.55c0,2.3 -0.633,4.283 -1.9,5.95c-1.333,1.733 -3.017,2.6 -5.05,2.6l-4.95,-0l0,-5.05l1,0.05Z" style="fill:#f00;"/><path d="M58.785,23.275l-5.1,3.6c-0.676,0.477 -0.838,1.414 -0.36,2.09c0.477,0.676 1.414,0.838 2.09,0.36l5.1,-3.6c0.676,-0.477 0.838,-1.414 0.36,-2.09c-0.477,-0.676 -1.414,-0.838 -2.09,-0.36Z"/><path d="M69.627,20.53l-5.1,3.65c-0.673,0.482 -0.829,1.42 -0.347,2.093c0.482,0.673 1.42,0.829 2.093,0.347l5.1,-3.65c0.673,-0.482 0.829,-1.42 0.347,-2.093c-0.482,-0.673 -1.42,-0.829 -2.093,-0.347Z"/></g></svg>