<?xml version="1.0" encoding="UTF-8" standalone="no"?><!DOCTYPE svg PUBLIC "-//W3C//DTD SVG 1.1//EN" "http://www.w3.org/Graphics/SVG/1.1/DTD/svg11.dtd"><svg width="100%" height="100%" viewBox="0 0 54 81" version="1.1" xmlns="http://www.w3.org/2000/svg" xmlns:xlink="http://www.w3.org/1999/xlink" xml:space="preserve" xmlns:serif="http://www.serif.com/" style="fill-rule:evenodd;clip-rule:evenodd;stroke-linejoin:round;stroke-miterlimit:2;"><g><path d="M39.65,54.25c3.188,0.004 5.121,-0.462 5.8,-1.4c-0.167,-0.633 -0.583,-1.667 -1.25,-3.1c0.433,-0.867 1,-2.2 1.7,-4c0.633,2.9 0.95,4.767 0.95,5.6c-0,2.933 -0.633,5.017 -1.9,6.25c-1.1,1.037 -2.867,1.587 -5.3,1.65l0,-5Z"/><path d="M41.85,41.05l2.3,-2.55l-2.25,-2.55l-2.35,2.5l2.3,2.6Z"/><path d="M46.45,41.05l2.4,-2.6l-2.4,-2.5l-2.3,2.55l2.3,2.55Z"/><path d="M33.35,17.4c-0.4,-0.6 -0.9,-0.9 -1.5,-0.9c-0.767,-0 -1.35,0.383 -1.75,1.15c-0.333,0.667 -0.5,1.467 -0.5,2.4c-0,1.5 0.583,2.25 1.75,2.25c0.7,0 1.3,-0.317 1.8,-0.95c0.5,-0.6 0.75,-1.3 0.75,-2.1c0,-0.667 -0.183,-1.283 -0.55,-1.85Zm-1.855,3.045c0.066,0.003 0.134,0.005 0.205,0.005l0.938,-0.188c0.197,-0.118 0.301,-0.293 0.311,-0.524l0.001,-0.019l-0,-0.028l-0.001,-0.028l-0.001,-0.009c-0.022,-0.29 -0.255,-0.624 -0.698,-1.004c-0.008,-0.006 -0.015,-0.012 -0.023,-0.018c-0.025,-0.019 -0.05,-0.038 -0.074,-0.057l-0.032,-0.023c-0.014,-0.011 -0.028,-0.021 -0.042,-0.031c-0.07,-0.05 -0.138,-0.096 -0.204,-0.138l-0.014,-0.008c-0.016,-0.01 -0.032,-0.02 -0.048,-0.03c-0.021,-0.012 -0.041,-0.023 -0.061,-0.035c-0.005,-0.003 -0.011,-0.006 -0.016,-0.009c-0.009,-0.005 -0.018,-0.009 -0.026,-0.014c-0.033,-0.018 -0.066,-0.034 -0.098,-0.049l-0.512,-0.138l-0.008,0c-0.167,0.001 -0.313,0.028 -0.437,0.081l-0.02,0.009l-0.018,0.009l-0.023,0.011l-0.027,0.015l-0.014,0.009l-0.017,0.01l-0.021,0.014l-0.023,0.017l-0.014,0.011l-0.015,0.011l-0.014,0.012l-0.013,0.012l-0.014,0.013l-0.014,0.014l-0.017,0.018l-0.007,0.007l-0.013,0.014l-0.012,0.014l-0.012,0.015l-0.011,0.015l-0.011,0.015l-0.013,0.017l-0.009,0.014l-0.01,0.017l-0.011,0.016l-0.009,0.017l-0.01,0.018l-0.009,0.017l-0.009,0.018l-0.01,0.021l-0.011,0.025l-0.014,0.032l-0.01,0.026l-0.004,0.011l-0.007,0.021l-0.007,0.02l-0.007,0.024l-0.006,0.019l-0.006,0.022l-0.006,0.022l-0.005,0.022l-0.005,0.023l-0.005,0.023l-0.005,0.024l-0.005,0.026l-0.005,0.032l-0.002,0.014l-0.004,0.028l-0.004,0.034l-0.002,0.01l-0.004,0.041l-0.001,0.011l-0.003,0.042l-0.001,0.011l-0.003,0.044l-0,0.011l-0.002,0.045l-0,0.011l-0.001,0.046l-0,0.029c-0,0.036 0.001,0.072 0.004,0.107c0.002,0.023 0.004,0.046 0.007,0.069c0.003,0.023 0.007,0.045 0.011,0.066l0.003,0.016c0.002,0.012 0.005,0.023 0.008,0.035c0.001,0.004 0.002,0.007 0.003,0.011c0.007,0.027 0.015,0.054 0.024,0.081c0.001,0.004 0.003,0.008 0.005,0.012c0.002,0.008 0.005,0.015 0.008,0.022c0.003,0.007 0.006,0.015 0.009,0.022c0.005,0.013 0.011,0.025 0.017,0.038c0.005,0.01 0.01,0.021 0.016,0.031l0.003,0.006c0.003,0.006 0.006,0.012 0.01,0.018c0.003,0.006 0.007,0.011 0.01,0.017c0.004,0.007 0.008,0.013 0.012,0.02l0.016,0.024c0.004,0.005 0.007,0.01 0.011,0.015c0.011,0.015 0.022,0.03 0.034,0.044l0.005,0.006c0.006,0.007 0.013,0.015 0.02,0.022c0.019,0.021 0.039,0.041 0.06,0.061l0.008,0.007c0.009,0.008 0.019,0.016 0.028,0.024l0.008,0.006c0.01,0.008 0.02,0.016 0.031,0.024l0.006,0.005c0.053,0.038 0.111,0.073 0.175,0.103l0.012,0.006c0.045,0.022 0.093,0.041 0.143,0.058l0.012,0.005c0.012,0.004 0.024,0.007 0.036,0.011l0.031,0.009c0.008,0.003 0.017,0.006 0.027,0.008c0.051,0.014 0.104,0.027 0.16,0.038l0.033,0.006c0.009,0.002 0.019,0.003 0.028,0.005c0.006,0.001 0.012,0.002 0.018,0.003c0.017,0.002 0.035,0.005 0.052,0.008l0.01,0.001c0.075,0.01 0.153,0.018 0.235,0.023c0.015,0.001 0.03,0.001 0.046,0.002Z"/><path d="M33.65,28.15c-1.6,1.4 -2.4,2.9 -2.4,4.5c0,1.967 0.167,4.95 0.5,8.95c0.367,3.967 0.55,6.95 0.55,8.95c-0,1.633 -0.467,2.7 -1.4,3.2c-0.6,0.3 -1.733,0.45 -3.4,0.45c-0.31,0.014 -0.527,0.014 -0.65,0c-1,-0.167 -1.7,-0.617 -2.1,-1.35c-1,-1.667 -1.5,-9.667 -1.5,-24c-0.467,0.433 -1,1.1 -1.6,2c-0.7,1.1 -1.05,1.867 -1.05,2.3c0.233,2.833 0.45,5.65 0.65,8.45c0.267,3.433 0.4,6.25 0.4,8.45c0,1.467 -1.233,2.85 -3.7,4.15c-2.167,1.167 -3.983,1.75 -5.45,1.75c-6,0 -9,-1.667 -9,-5c0,-1.4 0.283,-3 0.85,-4.8c-0.833,0.433 -1.567,1.567 -2.2,3.4c-0.533,1.6 -0.8,3.017 -0.8,4.25c-0,2.333 0.85,4.067 2.55,5.2c1.367,0.9 3.167,1.35 5.4,1.35c2.167,0 4.483,-0.533 6.95,-1.6c2.733,-1.2 4.667,-2.667 5.8,-4.4c0.733,1.533 1.283,2.55 1.65,3.05c0.833,1.233 1.667,1.85 2.5,1.85l3.7,-0c0.8,-0 1.533,-0.567 2.2,-1.7c1,-1.767 1.517,-2.683 1.55,-2.75c0.467,0.967 0.917,1.917 1.35,2.85c0.6,1.067 1.35,1.6 2.25,1.6l2.4,-0l0,-5.05c-1.833,0 -3.15,-0.583 -3.95,-1.75c-0.7,-1.033 -1.05,-2.6 -1.05,-4.7c0,-2.467 -0.133,-5.733 -0.4,-9.8c-0.333,-4.933 -0.533,-8.2 -0.6,-9.8Z" style="fill:#f00;"/><path d="M15.85,40.85c-0,-0.333 -0.133,-0.667 -0.4,-1c-0.233,-0.3 -0.5,-0.45 -0.8,-0.45c-0.567,-0 -1.417,0.983 -2.55,2.95c-1.067,1.9 -1.6,3.2 -1.6,3.9c0,0.7 0.483,1.05 1.45,1.05c1.267,-0 2.1,0.233 2.5,0.7c-0.933,1.067 -1.933,1.6 -3,1.6c-0.5,0 -1.083,-0.083 -1.75,-0.25c0.4,0.633 0.733,1.05 1,1.25c0.333,0.2 0.833,0.3 1.5,0.3c1.033,-0 1.85,-0.283 2.45,-0.85c0.7,-0.6 1.05,-1.467 1.05,-2.6c0,-1.1 -0.617,-1.783 -1.85,-2.05c-1.233,-0.267 -1.85,-0.5 -1.85,-0.7c0,-0.4 0.217,-0.85 0.65,-1.35c0.433,-0.5 0.833,-0.75 1.2,-0.75c0.267,0 0.533,0.117 0.8,0.35c0.8,-0.467 1.2,-1.167 1.2,-2.1Z" style="fill:#f00;"/><path d="M45.885,64.925l-5.1,3.6c-0.676,0.477 -0.838,1.414 -0.36,2.09c0.477,0.676 1.414,0.838 2.09,0.36l5.1,-3.6c0.676,-0.477 0.838,-1.414 0.36,-2.09c-0.477,-0.676 -1.414,-0.838 -2.09,-0.36Z"/><path d="M15.571,17.634l-5.05,3.65c-0.671,0.485 -0.822,1.424 -0.337,2.095c0.485,0.671 1.424,0.822 2.095,0.337l5.05,-3.65c0.671,-0.485 0.822,-1.424 0.337,-2.095c-0.485,-0.671 -1.424,-0.822 -2.095,-0.337Z"/></g></svg>