<?xml version="1.0" encoding="UTF-8" standalone="no"?><!DOCTYPE svg PUBLIC "-//W3C//DTD SVG 1.1//EN" "http://www.w3.org/Graphics/SVG/1.1/DTD/svg11.dtd"><svg width="100%" height="100%" viewBox="0 0 24 24" version="1.1" xmlns="http://www.w3.org/2000/svg" xmlns:xlink="http://www.w3.org/1999/xlink" xml:space="preserve" xmlns:serif="http://www.serif.com/" style="fill-rule:evenodd;clip-rule:evenodd;stroke-linejoin:round;stroke-miterlimit:2;"><g><path d="M17.7,12.7c0.2,-0.433 0.383,-1.017 0.55,-1.75l-2.1,0c-2.567,0 -3.85,-0.317 -3.85,-0.95c-0,-0.2 0.2,-0.483 0.6,-0.85c0.367,-0.367 0.667,-0.55 0.9,-0.55l0.55,0.25c0.367,0.133 0.667,0.2 0.9,0.2c0.933,-0 1.4,-0.5 1.4,-1.5c-0,-0.4 -0.25,-0.783 -0.75,-1.15c-0.467,-0.333 -0.867,-0.5 -1.2,-0.5c-1.7,0 -3.433,1.567 -5.2,4.7c0,0.6 0.183,1.183 0.55,1.75c0.367,0.6 0.55,0.95 0.55,1.05l-0.25,0.5c-0.167,0.333 -0.25,0.667 -0.25,1c0,0.3 0.083,0.767 0.25,1.4c2.533,-1.733 4.333,-2.6 5.4,-2.6c0.167,0 0.5,0.083 1,0.25c0.333,-0.2 0.65,-0.617 0.95,-1.25Z" style="fill:#f00;"/></g></svg>