<?xml version="1.0" encoding="UTF-8" standalone="no"?><!DOCTYPE svg PUBLIC "-//W3C//DTD SVG 1.1//EN" "http://www.w3.org/Graphics/SVG/1.1/DTD/svg11.dtd"><svg width="100%" height="100%" viewBox="0 0 24 24" version="1.1" xmlns="http://www.w3.org/2000/svg" xmlns:xlink="http://www.w3.org/1999/xlink" xml:space="preserve" xmlns:serif="http://www.serif.com/" style="fill-rule:evenodd;clip-rule:evenodd;stroke-linejoin:round;stroke-miterlimit:2;"><g><path d="M17.5,12.85c-1.6,0.8 -2.45,1.217 -2.55,1.25c-0.8,0.4 -1.533,0.6 -2.2,0.6c-1.233,0 -2.483,-0.467 -3.75,-1.4c-1.1,1.733 -1.833,3.383 -2.2,4.95c0.633,-0.267 1.083,-0.633 1.35,-1.1c0.5,-0.667 0.767,-1.05 0.8,-1.15c0.8,0.433 1.283,0.683 1.45,0.75c0.5,0.167 1.133,0.25 1.9,0.25c0.867,0 1.9,-0.367 3.1,-1.1c1.4,-0.833 2.1,-1.85 2.1,-3.05Z" style="fill:#f00;"/></g></svg>