<?xml version="1.0" encoding="UTF-8" standalone="no"?><!DOCTYPE svg PUBLIC "-//W3C//DTD SVG 1.1//EN" "http://www.w3.org/Graphics/SVG/1.1/DTD/svg11.dtd"><svg width="100%" height="100%" viewBox="0 0 45 79" version="1.1" xmlns="http://www.w3.org/2000/svg" xmlns:xlink="http://www.w3.org/1999/xlink" xml:space="preserve" xmlns:serif="http://www.serif.com/" style="fill-rule:evenodd;clip-rule:evenodd;stroke-linejoin:round;stroke-miterlimit:2;"><g><path d="M13.55,56.9c-0,-1.433 0.367,-3.633 1.1,-6.6c-0.9,0.5 -1.7,1.883 -2.4,4.15c-0.6,1.967 -0.9,3.683 -0.9,5.15c-0,3.367 0.717,5.967 2.15,7.8c1.433,1.867 3.567,2.8 6.4,2.8c3.033,0 6.25,-1.15 9.65,-3.45c3.867,-2.633 5.8,-5.583 5.8,-8.85c-0,-1.633 -0.767,-2.75 -2.3,-3.35c-1.467,-0.3 -2.917,-0.6 -4.35,-0.9c-1.567,-0.4 -2.35,-1.117 -2.35,-2.15c-0,-1.133 0.85,-2.483 2.55,-4.05c1.467,-1.333 2.75,-2.2 3.85,-2.6c0.467,0.233 0.8,0.45 1,0.65c0.067,0.067 0.317,0.367 0.75,0.9c0.333,-0.8 0.667,-1.583 1,-2.35c0.333,-0.933 0.5,-1.783 0.5,-2.55c0,-0.4 -0.117,-0.883 -0.35,-1.45l-0.85,-0.6c-2.1,0 -4.35,1.85 -6.75,5.55c-2.3,3.533 -3.45,6.6 -3.45,9.2c-0,1.533 0.5,2.667 1.5,3.4c0.733,0.567 1.833,0.917 3.3,1.05c1.2,0.067 2.383,0.117 3.55,0.15c-0.667,1.533 -2.483,2.9 -5.45,4.1c-2.567,1.1 -4.733,1.65 -6.5,1.65c-4.967,0 -7.45,-2.55 -7.45,-7.65Z" style="fill:#f00;"/><path d="M16.85,30.35c0.2,-0 0.483,0.067 0.85,0.2c0.367,0.133 0.633,0.2 0.8,0.2c0.4,0 0.6,-0.45 0.6,-1.35c-0,-0.367 -0.117,-0.7 -0.35,-1c-0.233,-0.3 -0.517,-0.45 -0.85,-0.45c-0.6,-0 -1.517,0.6 -2.75,1.8c-1.3,1.233 -1.95,2.183 -1.95,2.85c0,0.267 0.15,0.7 0.45,1.3c0.3,0.567 0.45,1 0.45,1.3c-0,0.167 -0.033,0.433 -0.1,0.8c-0.1,0.4 -0.15,0.683 -0.15,0.85c-0,0.2 0.017,0.45 0.05,0.75c1.733,-1.633 3.233,-2.45 4.5,-2.45c1.067,0 1.633,-0.033 1.7,-0.1c0.267,-0.533 0.533,-1.083 0.8,-1.65c-0.267,0 -0.667,0.017 -1.2,0.05c-0.567,0.033 -0.983,0.05 -1.25,0.05c-1.467,0 -2.617,-0.383 -3.45,-1.15c0.433,-1.333 1.05,-2 1.85,-2Z" style="fill:#f00;"/><path d="M17.65,22c0.033,-1 0.05,-1.55 0.05,-1.65c0,-0.6 -0.3,-1.15 -0.9,-1.65c0.5,-1.267 0.75,-2.233 0.75,-2.9c-0,-0.467 -0.167,-0.917 -0.5,-1.35c-0.3,-0.433 -0.667,-0.65 -1.1,-0.65c-0.7,0 -1.35,0.417 -1.95,1.25c-0.6,0.833 -0.9,1.65 -0.9,2.45c-0,0.933 0.517,1.733 1.55,2.4c-1,1.167 -1.95,1.917 -2.85,2.25c0.067,-1.1 0.1,-1.767 0.1,-2c0,-1.9 -0.533,-2.85 -1.6,-2.85c-0.6,0 -1.083,0.317 -1.45,0.95c-0.333,0.533 -0.5,1.15 -0.5,1.85c-0,0.367 0.083,0.817 0.25,1.35c0.167,-1.3 0.55,-1.95 1.15,-1.95c0.333,-0 0.6,0.133 0.8,0.4c0.233,0.3 0.35,0.633 0.35,1c0,0.533 -0.333,1.633 -1,3.3c1.267,-0.3 2.317,-0.733 3.15,-1.3c0.667,-0.467 1.5,-1.267 2.5,-2.4c0.467,0.4 1.167,0.9 2.1,1.5Zm-1.85,-4.15c-0.967,-0.767 -1.45,-1.367 -1.45,-1.8l0.2,-0.45c0.2,-0.1 0.333,-0.15 0.4,-0.15c0.633,-0 0.95,0.45 0.95,1.35l-0.1,1.05Z" style="fill:#f00;"/></g></svg>