<?xml version="1.0" encoding="UTF-8" standalone="no"?><!DOCTYPE svg PUBLIC "-//W3C//DTD SVG 1.1//EN" "http://www.w3.org/Graphics/SVG/1.1/DTD/svg11.dtd"><svg width="100%" height="100%" viewBox="0 0 101 82" version="1.1" xmlns="http://www.w3.org/2000/svg" xmlns:xlink="http://www.w3.org/1999/xlink" xml:space="preserve" xmlns:serif="http://www.serif.com/" style="fill-rule:evenodd;clip-rule:evenodd;stroke-linejoin:round;stroke-miterlimit:2;"><g><path d="M65,58.5l0.65,0l-0,-0.05c-0.206,0.029 -0.423,0.046 -0.65,0.05Z" style="fill:#f00;"/><path d="M58.15,23.5c-0.5,0.6 -1,1.183 -1.5,1.75c-0.367,0.567 -0.55,1.35 -0.55,2.35c0,7.9 0.033,12.967 0.1,15.2c0.267,7.633 0.917,12.233 1.95,13.8c0.833,1.267 2,1.9 3.5,1.9l1.85,-0l-0,-5.85l2.15,-0l-0,-0.05c-3.233,0 -5.333,-0.733 -6.3,-2.2c-0.8,-1.267 -1.2,-3.917 -1.2,-7.95l-0,-18.95Z" style="fill:#f00;"/><path d="M63.1,14.15c-1.6,0.967 -2.467,1.483 -2.6,1.55c-1,0.5 -1.933,0.75 -2.8,0.75c-1.6,-0 -3.1,-0.6 -4.5,-1.8c-1.2,2.067 -2.017,3.9 -2.45,5.5c0.4,-0.3 0.783,-0.767 1.15,-1.4c0.467,-0.767 0.817,-1.267 1.05,-1.5c1.133,0.567 1.8,0.9 2,1c0.567,0.2 1.3,0.3 2.2,0.3c0.967,0 2.167,-0.45 3.6,-1.35c1.567,-1 2.35,-2.017 2.35,-3.05Z" style="fill:#f00;"/><path d="M68.75,64.45l-2.9,3.45l2.9,3.4l2.95,-3.4l-2.95,-3.45Z"/><path d="M82.3,22.5c-1.767,2.7 -2.65,4.333 -2.65,4.9l0.65,31.15c1.467,-1.433 2.2,-5.217 2.2,-11.35l-0.2,-24.7Z"/><path d="M71.15,56.55c1.4,-1.4 2.1,-3.817 2.1,-7.25c0,-0.967 -0.35,-3.15 -1.05,-6.55c-0.767,2.067 -1.4,3.617 -1.9,4.65c0.733,1.667 1.2,2.867 1.4,3.6c-0.745,1.086 -2.762,1.636 -6.05,1.65l-2.15,-0l-0,5.85l1.5,-0c0.227,-0.004 0.444,-0.021 0.65,-0.05c2.496,-0.096 4.329,-0.729 5.5,-1.9Z"/><path d="M16.5,25.25c-0.367,0.567 -0.55,1.35 -0.55,2.35c0,7.9 0.033,12.967 0.1,15.2c0.267,7.633 0.917,12.233 1.95,13.8c0.833,1.267 2,1.9 3.5,1.9l4,-0l0,-0.05c2.496,-0.096 4.329,-0.729 5.5,-1.9c1.4,-1.4 2.1,-3.817 2.1,-7.25c0,-0.967 -0.35,-3.15 -1.05,-6.55c-0.767,2.067 -1.4,3.617 -1.9,4.65c0.733,1.667 1.2,2.867 1.4,3.6c-0.745,1.086 -2.762,1.636 -6.05,1.65l-0,-0.05c-3.233,0 -5.333,-0.733 -6.3,-2.2c-0.8,-1.267 -1.2,-3.917 -1.2,-7.95l-0,-18.95c-0.5,0.6 -1,1.183 -1.5,1.75Z"/><path d="M43.4,47.35c-0.767,1.833 -1.15,3.433 -1.15,4.8c0,2.333 0.783,3.5 2.35,3.5c1.2,-0 2.317,-0.783 3.35,-2.35c0.3,0.7 0.45,1.35 0.45,1.95c-0,3.433 -2.067,6.15 -6.2,8.15c-3.2,1.567 -6.483,2.35 -9.85,2.35c1.633,0.767 2.767,1.267 3.4,1.5c1.133,0.367 2.3,0.55 3.5,0.55c3.4,0 6.05,-1.633 7.95,-4.9c1.667,-2.9 2.5,-6.45 2.5,-10.65c0,-1.667 -0.25,-3.283 -0.75,-4.85c-0.633,-2.1 -1.533,-3.15 -2.7,-3.15c-1,0 -1.95,1.033 -2.85,3.1Zm3.45,3.35c0,0.367 -0.167,0.667 -0.5,0.9c-0.367,0.267 -0.7,0.4 -1,0.4c-0.033,0 -0.483,-0.25 -1.35,-0.75c0.367,-1.067 0.733,-2.033 1.1,-2.9c1.167,0.633 1.75,1.417 1.75,2.35Z"/><path d="M26.25,35.3l2.95,3.4l2.9,-3.4l-2.95,-3.45l-2.9,3.45Z"/><path d="M46.35,28.1c-0.267,-0.3 -0.55,-0.45 -0.85,-0.45c-0.6,-0 -1.533,0.617 -2.8,1.85c-1.267,1.2 -1.9,2.133 -1.9,2.8c-0,0.267 0.15,0.7 0.45,1.3c0.3,0.567 0.45,1 0.45,1.3c0,0.167 -0.05,0.433 -0.15,0.8c-0.1,0.4 -0.15,0.683 -0.15,0.85c-0,0.2 0.017,0.45 0.05,0.75c1.733,-1.633 3.233,-2.45 4.5,-2.45c1.1,0 1.667,-0.033 1.7,-0.1c0.3,-0.533 0.583,-1.083 0.85,-1.65c-0.267,0 -0.667,0.017 -1.2,0.05c-0.567,0.033 -0.983,0.05 -1.25,0.05c-1.467,0 -2.633,-0.383 -3.5,-1.15c0.467,-1.333 1.1,-2 1.9,-2c0.167,0 0.433,0.067 0.8,0.2c0.4,0.133 0.683,0.2 0.85,0.2c0.4,0 0.6,-0.45 0.6,-1.35c0,-0.367 -0.117,-0.7 -0.35,-1Z"/><path d="M86.05,25.6c0.4,2.533 0.6,4.433 0.6,5.7c-0,0.867 -0.05,1.583 -0.15,2.15c0.933,-1.1 1.4,-2.583 1.4,-4.45c-0,-1.433 -0.2,-3.567 -0.6,-6.4c-0.4,-2.833 -0.6,-4.933 -0.6,-6.3c-0.833,1.3 -1.25,2.5 -1.25,3.6c0,1.3 0.2,3.2 0.6,5.7Z"/><path d="M46.25,16.95c0,-1.467 -0.5,-2.2 -1.5,-2.2c-0.7,0 -1.333,0.517 -1.9,1.55c-0.467,0.933 -0.7,1.833 -0.7,2.7c-0,0.7 0.45,1.45 1.35,2.25c-1.633,1.767 -3.2,3.1 -4.7,4c0.533,0.2 0.95,0.3 1.25,0.3c1.233,0 2.7,-1.217 4.4,-3.65c0.7,0.567 1.3,1 1.8,1.3l0.15,-2.5c-0.367,-0.333 -0.65,-0.583 -0.85,-0.75c0.467,-1.267 0.7,-2.267 0.7,-3Zm-1.4,1.5c0,0.233 -0.033,0.5 -0.1,0.8c-1,-0.633 -1.5,-1.25 -1.5,-1.85c0.067,-0.267 0.217,-0.417 0.45,-0.45c0.767,0.133 1.15,0.633 1.15,1.5Z"/><path d="M25.843,13.205l-5.6,4.25c-0.659,0.501 -0.788,1.442 -0.288,2.102c0.501,0.659 1.442,0.788 2.102,0.288l5.6,-4.25c0.659,-0.501 0.788,-1.442 0.288,-2.102c-0.501,-0.659 -1.442,-0.788 -2.102,-0.288Z"/><path d="M66.6,17l-5.6,4.2c-0.662,0.497 -0.797,1.438 -0.3,2.1c0.497,0.662 1.438,0.797 2.1,0.3l5.6,-4.2c0.662,-0.497 0.797,-1.438 0.3,-2.1c-0.497,-0.662 -1.438,-0.797 -2.1,-0.3Z" style="fill:#f00;"/></g></svg>