<?xml version="1.0" encoding="UTF-8" standalone="no"?><!DOCTYPE svg PUBLIC "-//W3C//DTD SVG 1.1//EN" "http://www.w3.org/Graphics/SVG/1.1/DTD/svg11.dtd"><svg width="100%" height="100%" viewBox="0 0 116 88" version="1.1" xmlns="http://www.w3.org/2000/svg" xmlns:xlink="http://www.w3.org/1999/xlink" xml:space="preserve" xmlns:serif="http://www.serif.com/" style="fill-rule:evenodd;clip-rule:evenodd;stroke-linejoin:round;stroke-miterlimit:2;"><g><path d="M99.85,66.2l-0.25,-0c-2.367,-0 -3.35,0.017 -2.95,0.05c-1.1,-0.067 -2.017,-0.417 -2.75,-1.05c0.433,-1.367 1.05,-2.05 1.85,-2.05c0.2,-0 0.483,0.083 0.85,0.25c0.367,0.133 0.65,0.2 0.85,0.2c0.4,0 0.6,-0.467 0.6,-1.4c-0,-0.367 -0.117,-0.7 -0.35,-1c-0.267,-0.267 -0.55,-0.4 -0.85,-0.4c-0.6,0 -1.533,0.583 -2.8,1.75c-1.267,1.233 -1.9,2.2 -1.9,2.9c-0,0.233 0.15,0.65 0.45,1.25c0.3,0.567 0.45,1.017 0.45,1.35c-0,0.167 -0.05,0.433 -0.15,0.8c-0.1,0.367 -0.15,0.65 -0.15,0.85c0,0.167 0.017,0.4 0.05,0.7c0.933,-0.9 2.25,-1.617 3.95,-2.15c1.467,-0.467 2.5,-1.15 3.1,-2.05Z" style="fill:#f00;"/><path d="M96.55,20.95c-1.767,2.7 -2.65,4.333 -2.65,4.9l0.65,31.15c1.467,-1.433 2.2,-5.217 2.2,-11.35l-0.2,-24.7Z" style="fill:#f00;"/><path d="M87.237,45.387c0.176,1.092 0.263,1.88 0.263,2.363c0,3.433 -0.7,5.85 -2.1,7.25c-1.107,1.107 -2.807,1.741 -5.1,1.9c-0.299,0.025 -0.616,0.042 -0.95,0.05l-1.6,-0l-0,-5.85l2.55,0c3.052,-0.058 4.936,-0.608 5.65,-1.65c-0.2,-0.733 -0.667,-1.933 -1.4,-3.6c0.5,-1.033 1.133,-2.583 1.9,-4.65l0.787,4.187Z" style="fill:#f00;"/><path d="M86.05,26.1c-0.6,0 -1.517,0.6 -2.75,1.8c-1.3,1.233 -1.95,2.183 -1.95,2.85c0,0.267 0.15,0.7 0.45,1.3c0.3,0.567 0.45,1 0.45,1.3c0,0.167 -0.033,0.433 -0.1,0.8c-0.1,0.4 -0.15,0.683 -0.15,0.85c0,0.2 0.017,0.45 0.05,0.75c1.733,-1.633 3.233,-2.45 4.5,-2.45c1.067,0 1.633,-0.033 1.7,-0.1c0.267,-0.533 0.533,-1.083 0.8,-1.65c-0.267,0 -0.667,0.017 -1.2,0.05c-0.567,0.033 -0.983,0.05 -1.25,0.05c-1.467,-0 -2.617,-0.383 -3.45,-1.15c0.433,-1.333 1.05,-2 1.85,-2c0.2,0 0.483,0.067 0.85,0.2c0.367,0.133 0.633,0.2 0.8,0.2c0.4,-0 0.6,-0.45 0.6,-1.35c0,-0.367 -0.117,-0.7 -0.35,-1c-0.233,-0.3 -0.517,-0.45 -0.85,-0.45Z" style="fill:#f00;"/><path d="M86,16.8c-0.467,-0.7 -1.017,-1.05 -1.65,-1.05c-0.867,0 -1.517,0.45 -1.95,1.35c-0.4,0.767 -0.6,1.7 -0.6,2.8c-0,1.767 0.65,2.65 1.95,2.65c0.8,0 1.467,-0.367 2,-1.1c0.533,-0.733 0.8,-1.567 0.8,-2.5c-0,-0.8 -0.183,-1.517 -0.55,-2.15Zm-1.85,3.55c-1.167,0 -1.75,-0.417 -1.75,-1.25c-0,-0.967 0.367,-1.45 1.1,-1.45c0.333,0 0.75,0.217 1.25,0.65c0.533,0.433 0.8,0.833 0.8,1.2c-0,0.567 -0.467,0.85 -1.4,0.85Z" style="fill:#f00;"/><path d="M35.6,51.1l0,-0.05l-3.5,0c-2.167,0 -4.1,0.75 -5.8,2.25c-1.833,1.667 -2.75,3.733 -2.75,6.2c-0,1.133 0.483,1.967 1.45,2.5c0.567,0.3 1.6,0.583 3.1,0.85c1.367,0.233 2.25,0.5 2.65,0.8c-0.433,1 -2.183,1.9 -5.25,2.7c-2.533,0.667 -4.583,1 -6.15,1c-2.6,0 -4.583,-0.317 -5.95,-0.95c-2.167,-0.933 -3.25,-2.683 -3.25,-5.25c-0,-1.1 0.333,-2.5 1,-4.2c0.8,-2.067 1.283,-3.45 1.45,-4.15c-1.167,0.9 -2.3,2.467 -3.4,4.7c-1.1,2.3 -1.65,4.25 -1.65,5.85c-0,3.067 1.15,5.35 3.45,6.85c1.867,1.2 4.217,1.8 7.05,1.8c6.4,0 11.117,-2.267 14.15,-6.8c0.967,-1.433 1.45,-2.517 1.45,-3.25c-0,-1.3 -1.067,-2.2 -3.2,-2.7c-1.467,-0.267 -2.95,-0.533 -4.45,-0.8c0.54,-0.901 3.19,-1.401 7.95,-1.5l1.65,-0l0,-0.05c2.419,-0.119 4.203,-0.753 5.35,-1.9c1.4,-1.4 2.1,-3.817 2.1,-7.25c-0,-0.967 -0.35,-3.15 -1.05,-6.55c-0.767,2.067 -1.4,3.617 -1.9,4.65c0.733,1.667 1.2,2.867 1.4,3.6c-0.733,1.07 -2.7,1.62 -5.9,1.65Z"/><path d="M79.35,56.95l0.95,-0l-0,-0.05c-0.299,0.025 -0.616,0.042 -0.95,0.05Z"/><path d="M52.6,53.85c0,1.567 0.65,2.55 1.95,2.95c1.167,0.233 2.35,0.45 3.55,0.65c-1.4,2.467 -2.85,4.283 -4.35,5.45c-1.733,1.267 -3.75,1.9 -6.05,1.9c-1.267,0 -3.083,-0.117 -5.45,-0.35c2.233,2.6 4.8,3.9 7.7,3.9c2.533,0 4.7,-1.233 6.5,-3.7c1.233,-1.7 2.433,-4.267 3.6,-7.7l6.45,-0c1,-0 1.8,-0.417 2.4,-1.25c0.1,-0.133 0.567,-1.05 1.4,-2.75c0.467,0.867 1.083,1.717 1.85,2.55c0.967,0.967 1.783,1.45 2.45,1.45l3.15,-0l-0,-5.75l-0.05,-0c-1.067,0.067 -1.783,0.1 -2.15,0.1c-1.3,-0 -2.233,-0.3 -2.8,-0.9c-0.667,-0.767 -1.033,-2.167 -1.1,-4.2c-1.167,2.267 -1.983,3.633 -2.45,4.1c-0.567,0.6 -1.417,0.9 -2.55,0.9c-0.3,-0 -0.983,-0.017 -2.05,-0.05c-1.067,-0.067 -2.033,-0.1 -2.9,-0.1l0,0.25c-0.457,-0.015 -0.923,-0.048 -1.4,-0.1c-0.467,-1.133 -0.917,-2.283 -1.35,-3.45c-0.7,-1.5 -1.433,-2.25 -2.2,-2.25c-0.9,-0 -1.833,1.117 -2.8,3.35c-0.9,2.067 -1.35,3.733 -1.35,5Zm2.2,-1.95c0.3,-0.733 0.583,-1.383 0.85,-1.95c0.8,0.433 1.3,0.817 1.5,1.15c0.167,0.3 0.333,0.95 0.5,1.95c-0.733,0 -1.617,-0.083 -2.65,-0.25c-0,-0.467 -0.067,-0.767 -0.2,-0.9Z"/><path d="M80.3,51.1l-1.35,0c0.521,-0.033 0.971,-0.05 1.35,-0.05l-0,0.05Z"/><path d="M69.1,39.05l2.55,-3l-2.55,-3l-2.55,3l2.55,3Z"/><path d="M71.65,36.05l2.55,3l2.6,-3l-2.6,-3l-2.55,3Z"/><path d="M42.05,33.75l-2.95,-3.45l-2.9,3.45l2.95,3.4l2.9,-3.4Z"/><path d="M70.05,18.95c-0,-1.467 -0.5,-2.2 -1.5,-2.2c-0.7,0 -1.333,0.517 -1.9,1.55c-0.467,0.933 -0.7,1.833 -0.7,2.7c0,0.7 0.45,1.45 1.35,2.25c-1.633,1.767 -3.2,3.1 -4.7,4c0.533,0.2 0.95,0.3 1.25,0.3c1.233,0 2.7,-1.217 4.4,-3.65c0.7,0.567 1.3,1 1.8,1.3l0.15,-2.5c-0.367,-0.333 -0.65,-0.583 -0.85,-0.75c0.467,-1.267 0.7,-2.267 0.7,-3Zm-1.4,1.5c-0,0.233 -0.033,0.5 -0.1,0.8c-1,-0.633 -1.5,-1.25 -1.5,-1.85c0.067,-0.267 0.217,-0.417 0.45,-0.45c0.767,0.133 1.15,0.633 1.15,1.5Z"/><path d="M37.343,64.905l-5.6,4.25c-0.659,0.501 -0.788,1.442 -0.288,2.102c0.501,0.659 1.442,0.788 2.102,0.288l5.6,-4.25c0.659,-0.501 0.788,-1.442 0.288,-2.102c-0.501,-0.659 -1.442,-0.788 -2.102,-0.288Z"/><path d="M97.743,70.055l-5.6,4.25c-0.659,0.501 -0.788,1.442 -0.288,2.102c0.501,0.659 1.442,0.788 2.102,0.288l5.6,-4.25c0.659,-0.501 0.788,-1.442 0.288,-2.102c-0.501,-0.659 -1.442,-0.788 -2.102,-0.288Z" style="fill:#f00;"/></g></svg>