<?xml version="1.0" encoding="UTF-8" standalone="no"?><!DOCTYPE svg PUBLIC "-//W3C//DTD SVG 1.1//EN" "http://www.w3.org/Graphics/SVG/1.1/DTD/svg11.dtd"><svg width="100%" height="100%" viewBox="0 0 91 90" version="1.1" xmlns="http://www.w3.org/2000/svg" xmlns:xlink="http://www.w3.org/1999/xlink" xml:space="preserve" xmlns:serif="http://www.serif.com/" style="fill-rule:evenodd;clip-rule:evenodd;stroke-linejoin:round;stroke-miterlimit:2;"><g><path d="M58.1,31.55c-1.767,2.7 -2.65,4.333 -2.65,4.9l0.65,31.15c1.467,-1.433 2.2,-5.217 2.2,-11.35l-0.2,-24.7Z" style="fill:#f00;"/><path d="M56.4,20.55c-0.6,0 -1.517,0.6 -2.75,1.8c-1.3,1.2 -1.95,2.15 -1.95,2.85c0,0.267 0.15,0.683 0.45,1.25c0.3,0.567 0.45,1.017 0.45,1.35c0,0.167 -0.05,0.433 -0.15,0.8c-0.1,0.367 -0.15,0.65 -0.15,0.85c-0,0.167 0.017,0.4 0.05,0.7c1.733,-1.633 3.233,-2.45 4.5,-2.45c1.067,-0 1.633,-0.017 1.7,-0.05c0.267,-0.567 0.55,-1.117 0.85,-1.65l-1.25,-0c-0.533,0.033 -0.933,0.05 -1.2,0.05c-1.467,0 -2.633,-0.367 -3.5,-1.1c0.433,-1.367 1.05,-2.05 1.85,-2.05c0.2,0 0.483,0.083 0.85,0.25c0.367,0.133 0.65,0.2 0.85,0.2c0.4,-0 0.6,-0.467 0.6,-1.4c0,-0.367 -0.117,-0.683 -0.35,-0.95c-0.267,-0.3 -0.55,-0.45 -0.85,-0.45Z" style="fill:#f00;"/><path d="M71.6,55.1l-1.1,4.9c0.6,0.833 1.217,1.65 1.85,2.45c0.8,1.2 1.2,2.117 1.2,2.75c-0,3.1 -1.933,5.783 -5.8,8.05c-3.267,1.9 -6.383,2.85 -9.35,2.85c2.4,1.9 4.767,2.85 7.1,2.85c2.733,0 5.05,-1.933 6.95,-5.8c1.633,-3.333 2.45,-6.733 2.45,-10.2c-0,-1.667 -0.283,-3.117 -0.85,-4.35c-0.433,-0.933 -1.25,-2.1 -2.45,-3.5Z"/><path d="M41.15,78.25l2.55,-3l-2.55,-3l-2.6,2.95l2.6,3.05Z"/><path d="M43.7,75.25l2.55,3l2.6,-3.05l-2.6,-2.95l-2.55,3Z"/><path d="M13.95,61.9c-2.933,-1.167 -4.4,-2.95 -4.4,-5.35c-0,-1.033 0.433,-2.567 1.3,-4.6c-0.967,0.767 -1.75,1.85 -2.35,3.25c-0.6,1.367 -0.9,2.75 -0.9,4.15c0,3 1.033,5.35 3.1,7.05c1.833,1.433 4.083,2.15 6.75,2.15c5.3,0 10.65,-1.8 16.05,-5.4c1.267,2.933 2.567,4.4 3.9,4.4l1.85,0c2.649,-0.083 4.583,-0.733 5.8,-1.95c1.4,-1.4 2.1,-3.817 2.1,-7.25c-0,-0.967 -0.35,-3.15 -1.05,-6.55c-0.767,2.067 -1.4,3.617 -1.9,4.65c0.733,1.667 1.2,2.867 1.4,3.6c-0.767,1.119 -2.884,1.669 -6.35,1.65l0,-0.05c-1.667,0 -2.783,-0.3 -3.35,-0.9c-0.567,-0.633 -0.967,-1.95 -1.2,-3.95c-3.6,4.233 -8.2,6.35 -13.8,6.35c-2.533,0 -4.85,-0.417 -6.95,-1.25Z"/><path d="M25.95,43.65l-2.55,3l2.55,3l2.6,-3l-2.6,-3Z"/><path d="M23.4,46.65l-2.55,-3l-2.55,3l2.55,3l2.55,-3Z"/><path d="M37.35,32.1c-0.4,0.767 -0.6,1.7 -0.6,2.8c0,1.767 0.65,2.65 1.95,2.65c0.8,0 1.467,-0.367 2,-1.1c0.533,-0.733 0.8,-1.567 0.8,-2.5c0,-0.8 -0.183,-1.517 -0.55,-2.15c-0.467,-0.7 -1.017,-1.05 -1.65,-1.05c-0.867,0 -1.517,0.45 -1.95,1.35Zm3.15,2.4c0,0.567 -0.467,0.85 -1.4,0.85c-1.167,0 -1.75,-0.417 -1.75,-1.25c0,-0.967 0.367,-1.45 1.1,-1.45c0.333,0 0.75,0.217 1.25,0.65c0.533,0.433 0.8,0.833 0.8,1.2Z"/><path d="M15.2,34c0.533,0.2 0.95,0.3 1.25,0.3c1.233,0 2.7,-1.217 4.4,-3.65c0.7,0.567 1.3,1 1.8,1.3l0.15,-2.5c-0.367,-0.333 -0.65,-0.583 -0.85,-0.75c0.467,-1.267 0.7,-2.267 0.7,-3c-0,-1.467 -0.5,-2.2 -1.5,-2.2c-0.7,0 -1.333,0.517 -1.9,1.55c-0.467,0.933 -0.7,1.833 -0.7,2.7c-0,0.7 0.45,1.45 1.35,2.25c-1.633,1.767 -3.2,3.1 -4.7,4Zm5.95,-6c-1,-0.633 -1.5,-1.25 -1.5,-1.85c0.067,-0.267 0.217,-0.417 0.45,-0.45c0.767,0.133 1.15,0.633 1.15,1.5c0,0.233 -0.033,0.5 -0.1,0.8Z"/><path d="M70.95,37.75l-5.6,4.2c-0.662,0.497 -0.797,1.438 -0.3,2.1c0.497,0.662 1.438,0.797 2.1,0.3l5.6,-4.2c0.662,-0.497 0.797,-1.438 0.3,-2.1c-0.497,-0.662 -1.438,-0.797 -2.1,-0.3Z"/><path d="M56.543,10.305l-5.6,4.25c-0.659,0.501 -0.788,1.442 -0.288,2.102c0.501,0.659 1.442,0.788 2.102,0.288l5.6,-4.25c0.659,-0.501 0.788,-1.442 0.288,-2.102c-0.501,-0.659 -1.442,-0.788 -2.102,-0.288Z" style="fill:#f00;"/></g></svg>