<?xml version="1.0" encoding="UTF-8" standalone="no"?><!DOCTYPE svg PUBLIC "-//W3C//DTD SVG 1.1//EN" "http://www.w3.org/Graphics/SVG/1.1/DTD/svg11.dtd"><svg width="100%" height="100%" viewBox="0 0 75 82" version="1.1" xmlns="http://www.w3.org/2000/svg" xmlns:xlink="http://www.w3.org/1999/xlink" xml:space="preserve" xmlns:serif="http://www.serif.com/" style="fill-rule:evenodd;clip-rule:evenodd;stroke-linejoin:round;stroke-miterlimit:2;"><g><path d="M54.05,66.1l2.6,3.05l2.55,-3l-2.55,-3l-2.6,2.95Z"/><path d="M59.2,66.15l2.55,3l2.6,-3.05l-2.6,-2.95l-2.55,3Z"/><path d="M12,43.2c-2.2,2.467 -3.3,4.867 -3.3,7.2c0,5.733 3.867,8.6 11.6,8.6c12.567,-0 18.85,-4.1 18.85,-12.3c-0,-3.067 -0.867,-5.283 -2.6,-6.65c-0.267,1.367 -0.8,3.267 -1.6,5.7c1.467,1.267 2.2,2.633 2.2,4.1c-1,1.3 -3.317,2.367 -6.95,3.2c-2.933,0.667 -5.517,1 -7.75,1c-2.567,0 -4.9,-0.383 -7,-1.15c-3,-1.1 -4.5,-2.817 -4.5,-5.15c0,-1.033 0.35,-2.55 1.05,-4.55Z"/><path d="M60.55,56.5c1.4,-1.4 2.1,-3.817 2.1,-7.25c-0,-0.967 -0.35,-3.15 -1.05,-6.55c-0.767,2.067 -1.4,3.617 -1.9,4.65c0.733,1.667 1.2,2.867 1.4,3.6c-0.745,1.086 -2.762,1.636 -6.05,1.65l-0,-0.05c-3.233,0 -5.333,-0.733 -6.3,-2.2c-0.8,-1.267 -1.2,-3.917 -1.2,-7.95l-0,-18.95c-0.5,0.6 -1,1.183 -1.5,1.75c-0.367,0.567 -0.55,1.35 -0.55,2.35c-0,7.9 0.033,12.967 0.1,15.2c0.267,7.633 0.917,12.233 1.95,13.8c0.833,1.267 2,1.9 3.5,1.9l4,-0l-0,-0.05c2.496,-0.096 4.329,-0.729 5.5,-1.9Z"/><path d="M22.05,34.55l-2.55,3l2.55,3l2.55,-3l-2.55,-3Z"/><path d="M29.75,37.55l-2.6,-3l-2.55,3l2.55,3l2.6,-3Z"/><path d="M47.7,12.85c0,-0.367 -0.117,-0.683 -0.35,-0.95c-0.267,-0.3 -0.55,-0.45 -0.85,-0.45c-0.6,-0 -1.517,0.6 -2.75,1.8c-1.3,1.2 -1.95,2.15 -1.95,2.85c-0,0.267 0.15,0.683 0.45,1.25c0.3,0.567 0.45,1.017 0.45,1.35c0,0.167 -0.05,0.433 -0.15,0.8c-0.1,0.367 -0.15,0.65 -0.15,0.85c-0,0.167 0.017,0.4 0.05,0.7c1.733,-1.633 3.233,-2.45 4.5,-2.45c1.067,0 1.633,-0.017 1.7,-0.05c0.267,-0.567 0.55,-1.117 0.85,-1.65l-1.25,-0c-0.533,0.033 -0.933,0.05 -1.2,0.05c-1.467,-0 -2.633,-0.367 -3.5,-1.1c0.433,-1.367 1.05,-2.05 1.85,-2.05c0.2,0 0.483,0.083 0.85,0.25c0.367,0.133 0.65,0.2 0.85,0.2c0.4,-0 0.6,-0.467 0.6,-1.4Z"/><path d="M43,2.6c-0.4,0.767 -0.6,1.7 -0.6,2.8c-0,1.767 0.65,2.65 1.95,2.65c0.8,0 1.467,-0.367 2,-1.1c0.533,-0.733 0.8,-1.567 0.8,-2.5c-0,-0.8 -0.183,-1.517 -0.55,-2.15c-0.467,-0.7 -1.017,-1.05 -1.65,-1.05c-0.867,-0 -1.517,0.45 -1.95,1.35Zm2.35,1.2c0.533,0.433 0.8,0.833 0.8,1.2c-0,0.567 -0.467,0.85 -1.4,0.85c-1.167,0 -1.75,-0.417 -1.75,-1.25c0,-0.967 0.367,-1.45 1.1,-1.45c0.333,-0 0.75,0.217 1.25,0.65Z"/><path d="M24.793,64.605l-5.6,4.25c-0.659,0.501 -0.788,1.442 -0.288,2.102c0.501,0.659 1.442,0.788 2.102,0.288l5.6,-4.25c0.659,-0.501 0.788,-1.442 0.288,-2.102c-0.501,-0.659 -1.442,-0.788 -2.102,-0.288Z"/><path d="M58.35,23.1l-5.6,4.2c-0.662,0.497 -0.797,1.438 -0.3,2.1c0.497,0.662 1.438,0.797 2.1,0.3l5.6,-4.2c0.662,-0.497 0.797,-1.438 0.3,-2.1c-0.497,-0.662 -1.438,-0.797 -2.1,-0.3Z"/></g></svg>