<?xml version="1.0" encoding="UTF-8" standalone="no"?><!DOCTYPE svg PUBLIC "-//W3C//DTD SVG 1.1//EN" "http://www.w3.org/Graphics/SVG/1.1/DTD/svg11.dtd"><svg width="100%" height="100%" viewBox="0 0 88 82" version="1.1" xmlns="http://www.w3.org/2000/svg" xmlns:xlink="http://www.w3.org/1999/xlink" xml:space="preserve" xmlns:serif="http://www.serif.com/" style="fill-rule:evenodd;clip-rule:evenodd;stroke-linejoin:round;stroke-miterlimit:2;"><g><path d="M48.75,21.95c-1.767,2.7 -2.65,4.333 -2.65,4.9l0.65,31.15c1.467,-1.433 2.2,-5.217 2.2,-11.35l-0.2,-24.7Z" style="fill:#f00;"/><path d="M50.7,16.65c1.567,-1 2.35,-2.017 2.35,-3.05c-1.6,0.967 -2.467,1.483 -2.6,1.55c-1,0.5 -1.933,0.75 -2.8,0.75c-1.6,-0 -3.1,-0.6 -4.5,-1.8c-1.2,2.067 -2.017,3.9 -2.45,5.5c0.4,-0.3 0.783,-0.767 1.15,-1.4c0.467,-0.767 0.817,-1.267 1.05,-1.5c1.133,0.567 1.8,0.9 2,1c0.567,0.2 1.3,0.3 2.2,0.3c0.967,0 2.167,-0.45 3.6,-1.35Z" style="fill:#f00;"/><path d="M22.35,71.1l2.95,-3.4l-2.95,-3.45l-2.9,3.45l2.9,3.4Z"/><path d="M55.85,52.25c-0.167,2.1 -0.25,3.267 -0.25,3.5c-0,1.633 0.45,2.667 1.35,3.1c0.5,0.233 1.6,0.35 3.3,0.35c2.133,-0 3.783,-0.75 4.95,-2.25c1.067,-1.433 1.6,-3.433 1.6,-6c-0,-3.067 -0.617,-5.8 -1.85,-8.2c-1.367,-2.6 -3.233,-4.367 -5.6,-5.3c-0.167,0.9 -0.25,1.95 -0.25,3.15l0.05,4.15c1.367,0 2.817,0.7 4.35,2.1c1.6,1.467 2.4,3 2.4,4.6c0,0.633 -0.883,1.167 -2.65,1.6c-1.367,0.333 -2.517,0.5 -3.45,0.5c-1.3,0 -2.617,-0.433 -3.95,-1.3Z"/><path d="M12.5,42.7c-2.2,2.467 -3.3,4.867 -3.3,7.2c0,5.733 3.867,8.6 11.6,8.6c12.567,-0 18.85,-4.1 18.85,-12.3c0,-3.067 -0.867,-5.283 -2.6,-6.65c-0.267,1.367 -0.8,3.267 -1.6,5.7c1.467,1.267 2.2,2.633 2.2,4.1c-1,1.3 -3.317,2.367 -6.95,3.2c-2.933,0.667 -5.517,1 -7.75,1c-2.567,0 -4.9,-0.383 -7,-1.15c-3,-1.1 -4.5,-2.817 -4.5,-5.15c0,-1.033 0.35,-2.55 1.05,-4.55Z"/><path d="M23.65,26.6l-0.35,0.2c-0,1.667 -0.333,2.5 -1,2.5c-0.3,0 -0.567,-0.55 -0.8,-1.65l-0.25,0.1c-0.133,0.8 -0.25,1.35 -0.35,1.65c-0.233,0.7 -0.55,1.05 -0.95,1.05c-0.367,-0 -0.55,-0.617 -0.55,-1.85l-0.35,0.05c-0.2,0.9 -0.3,1.467 -0.3,1.7c0,0.467 0.083,0.883 0.25,1.25c0.2,0.4 0.5,0.6 0.9,0.6c0.333,-0 0.667,-0.15 1,-0.45c0.3,-0.267 0.467,-0.6 0.5,-1c0.267,0.233 0.567,0.35 0.9,0.35c1.033,0 1.55,-0.95 1.55,-2.85c-0,-0.5 -0.067,-1.05 -0.2,-1.65Z"/><path d="M20.343,16.505l-5.6,4.25c-0.659,0.501 -0.788,1.442 -0.288,2.102c0.501,0.659 1.442,0.788 2.102,0.288l5.6,-4.25c0.659,-0.501 0.788,-1.442 0.288,-2.102c-0.501,-0.659 -1.442,-0.788 -2.102,-0.288Z"/><path d="M58.55,15.6l-5.6,4.2c-0.662,0.497 -0.797,1.438 -0.3,2.1c0.497,0.662 1.438,0.797 2.1,0.3l5.6,-4.2c0.662,-0.497 0.797,-1.438 0.3,-2.1c-0.497,-0.662 -1.438,-0.797 -2.1,-0.3Z" style="fill:#f00;"/></g></svg>