<?xml version="1.0" encoding="UTF-8" standalone="no"?><!DOCTYPE svg PUBLIC "-//W3C//DTD SVG 1.1//EN" "http://www.w3.org/Graphics/SVG/1.1/DTD/svg11.dtd"><svg width="100%" height="100%" viewBox="0 0 81 90" version="1.1" xmlns="http://www.w3.org/2000/svg" xmlns:xlink="http://www.w3.org/1999/xlink" xml:space="preserve" xmlns:serif="http://www.serif.com/" style="fill-rule:evenodd;clip-rule:evenodd;stroke-linejoin:round;stroke-miterlimit:2;"><g><path d="M19,56.15c-0.9,0.5 -1.7,1.883 -2.4,4.15c-0.6,1.967 -0.9,3.683 -0.9,5.15c0,3.367 0.717,5.967 2.15,7.8c1.433,1.867 3.567,2.8 6.4,2.8c3.033,0 6.25,-1.15 9.65,-3.45c3.867,-2.633 5.8,-5.583 5.8,-8.85c0,-1.633 -0.767,-2.75 -2.3,-3.35c-1.467,-0.3 -2.917,-0.6 -4.35,-0.9c-1.567,-0.4 -2.35,-1.117 -2.35,-2.15c0,-1.133 0.85,-2.483 2.55,-4.05c1.467,-1.333 2.75,-2.2 3.85,-2.6c0.467,0.233 0.8,0.45 1,0.65c0.067,0.067 0.317,0.367 0.75,0.9c0.333,-0.8 0.667,-1.583 1,-2.35c0.333,-0.933 0.5,-1.783 0.5,-2.55c0,-0.4 -0.117,-0.883 -0.35,-1.45l-0.85,-0.6c-2.1,0 -4.35,1.85 -6.75,5.55c-2.3,3.533 -3.45,6.6 -3.45,9.2c0,1.533 0.5,2.667 1.5,3.4c0.733,0.567 1.833,0.917 3.3,1.05c1.2,0.067 2.383,0.117 3.55,0.15c-0.667,1.533 -2.483,2.9 -5.45,4.1c-2.567,1.1 -4.733,1.65 -6.5,1.65c-4.967,0 -7.45,-2.55 -7.45,-7.65c-0,-1.433 0.367,-3.633 1.1,-6.6Z" style="fill:#f00;"/><path d="M22.712,33.912c0.142,0.076 0.271,0.188 0.388,0.338c0.233,0.3 0.35,0.633 0.35,1c0,0.9 -0.2,1.35 -0.6,1.35c-0.167,-0 -0.433,-0.067 -0.8,-0.2c-0.367,-0.133 -0.65,-0.2 -0.85,-0.2c-0.8,-0 -1.417,0.667 -1.85,2c0.833,0.767 1.983,1.15 3.45,1.15c0.267,0 0.683,-0.017 1.25,-0.05c0.533,-0.033 0.933,-0.05 1.2,-0.05c-0.267,0.567 -0.533,1.117 -0.8,1.65c-0.067,0.067 -0.633,0.1 -1.7,0.1c-1.267,0 -2.767,0.817 -4.5,2.45c-0.033,-0.3 -0.05,-0.55 -0.05,-0.75c0,-0.167 0.05,-0.45 0.15,-0.85c0.067,-0.367 0.1,-0.633 0.1,-0.8l-0.9,-2.6c-0,-0.667 0.65,-1.617 1.95,-2.85c1.233,-1.2 2.15,-1.8 2.75,-1.8l0.462,0.112Z" style="fill:#f00;"/><path d="M65.05,74.05l2.9,3.4l2.95,-3.4l-2.95,-3.45l-2.9,3.45Z"/><path d="M59.1,49.7c1.1,5.5 2.05,8.467 2.85,8.9c0.188,0.101 0.454,0.168 0.8,0.2l1.35,0c0.192,-0.014 0.392,-0.03 0.6,-0.05l0,0.05c3.377,0.003 5.444,-0.547 6.2,-1.65c-0.2,-0.733 -0.667,-1.933 -1.4,-3.6c0.5,-1.033 1.133,-2.583 1.9,-4.65c0.7,3.4 1.05,5.583 1.05,6.55c0,3.433 -0.7,5.85 -2.1,7.25c-1.194,1.194 -3.077,1.827 -5.65,1.9l0,0.05l-2.95,0c-0.933,0 -1.683,-0.75 -2.25,-2.25c-0.333,-1.233 -0.683,-2.467 -1.05,-3.7c-1.667,2.867 -2.75,4.533 -3.25,5c-1.067,0.933 -2.817,1.4 -5.25,1.4c-2.233,-0 -3.35,-0.583 -3.35,-1.75l0,-5.95c1.167,1.367 2.417,2.05 3.75,2.05c1.267,-0 2.633,-0.317 4.1,-0.95c1.667,-0.667 2.85,-1.517 3.55,-2.55l-1.75,-11.25c-0.033,-0.2 0.333,-1.917 1.1,-5.15l1.75,10.15Z"/><path d="M62.35,34c0.533,0.2 0.95,0.3 1.25,0.3c1.233,0 2.7,-1.217 4.4,-3.65c0.7,0.567 1.3,1 1.8,1.3l0.15,-2.5c-0.367,-0.333 -0.65,-0.583 -0.85,-0.75c0.467,-1.267 0.7,-2.267 0.7,-3c-0,-1.467 -0.5,-2.2 -1.5,-2.2c-0.7,0 -1.333,0.517 -1.9,1.55c-0.467,0.933 -0.7,1.833 -0.7,2.7c0,0.7 0.45,1.45 1.35,2.25c-1.633,1.767 -3.2,3.1 -4.7,4Zm5.95,-6c-1,-0.633 -1.5,-1.25 -1.5,-1.85c0.067,-0.267 0.217,-0.417 0.45,-0.45c0.767,0.133 1.15,0.633 1.15,1.5c-0,0.233 -0.033,0.5 -0.1,0.8Z"/><path d="M51.8,69.1l-5.6,4.2c-0.662,0.497 -0.797,1.438 -0.3,2.1c0.497,0.662 1.438,0.797 2.1,0.3l5.6,-4.2c0.662,-0.497 0.797,-1.438 0.3,-2.1c-0.497,-0.662 -1.438,-0.797 -2.1,-0.3Z"/><path d="M22.143,25.605l-5.6,4.25c-0.659,0.501 -0.788,1.442 -0.288,2.102c0.501,0.659 1.442,0.788 2.102,0.288l5.6,-4.25c0.659,-0.501 0.788,-1.442 0.288,-2.102c-0.501,-0.659 -1.442,-0.788 -2.102,-0.288Z" style="fill:#f00;"/></g></svg>