<?xml version="1.0" encoding="UTF-8" standalone="no"?><!DOCTYPE svg PUBLIC "-//W3C//DTD SVG 1.1//EN" "http://www.w3.org/Graphics/SVG/1.1/DTD/svg11.dtd"><svg width="100%" height="100%" viewBox="0 0 56 82" version="1.1" xmlns="http://www.w3.org/2000/svg" xmlns:xlink="http://www.w3.org/1999/xlink" xml:space="preserve" xmlns:serif="http://www.serif.com/" style="fill-rule:evenodd;clip-rule:evenodd;stroke-linejoin:round;stroke-miterlimit:2;"><g><path d="M29.3,22.1c-1.767,2.7 -2.65,4.333 -2.65,4.9l0.65,31.15c1.467,-1.433 2.2,-5.217 2.2,-11.35l-0.2,-24.7Z" style="fill:#f00;"/><path d="M33.6,13.75c-1.6,0.967 -2.467,1.483 -2.6,1.55c-1,0.5 -1.933,0.75 -2.8,0.75c-1.6,0 -3.1,-0.6 -4.5,-1.8c-1.2,2.067 -2.017,3.9 -2.45,5.5c0.4,-0.3 0.783,-0.767 1.15,-1.4c0.467,-0.767 0.817,-1.267 1.05,-1.5c1.133,0.567 1.8,0.9 2,1c0.567,0.2 1.3,0.3 2.2,0.3c0.967,-0 2.167,-0.45 3.6,-1.35c1.567,-1 2.35,-2.017 2.35,-3.05Z" style="fill:#f00;"/><path d="M46.5,51.6c0,0.633 -0.883,1.167 -2.65,1.6c-1.367,0.333 -2.517,0.5 -3.45,0.5c-1.3,-0 -2.617,-0.433 -3.95,-1.3c-0.167,2.1 -0.25,3.267 -0.25,3.5c0,1.633 0.45,2.667 1.35,3.1c0.5,0.233 1.6,0.35 3.3,0.35c2.133,0 3.783,-0.75 4.95,-2.25c1.067,-1.433 1.6,-3.433 1.6,-6c0,-3.067 -0.617,-5.8 -1.85,-8.2c-1.367,-2.6 -3.233,-4.367 -5.6,-5.3c-0.167,0.9 -0.25,1.95 -0.25,3.15l0.05,4.15c1.367,-0 2.817,0.7 4.35,2.1c1.6,1.467 2.4,3 2.4,4.6Z"/><path d="M16.6,43.75c-0.5,-0.4 -0.917,-0.6 -1.25,-0.6c-1.933,-0 -3.917,1.917 -5.95,5.75c0,0.567 0.217,1.217 0.65,1.95c0.433,0.733 0.65,1.233 0.65,1.5c0,0.033 -0.1,0.283 -0.3,0.75c-0.2,0.433 -0.3,0.817 -0.3,1.15c-0,0.333 0.067,0.783 0.2,1.35c2.833,-2.233 4.933,-3.35 6.3,-3.35c0.267,0 0.667,0.1 1.2,0.3c0.267,-0.133 0.567,-0.567 0.9,-1.3c0.2,-0.533 0.4,-1.067 0.6,-1.6l-2.2,-0c-3.367,-0 -5.05,-0.567 -5.05,-1.7c-0,-0.4 0.267,-0.867 0.8,-1.4c0.567,-0.533 1.017,-0.8 1.35,-0.8c0.067,0 0.333,0.1 0.8,0.3c0.433,0.167 0.767,0.25 1,0.25c0.867,0 1.3,-0.483 1.3,-1.45c-0,-0.367 -0.233,-0.733 -0.7,-1.1Z"/><path d="M16.4,31.35c0,-0.467 -0.15,-0.917 -0.45,-1.35c-0.3,-0.433 -0.633,-0.65 -1,-0.65c-0.667,0 -1.283,0.417 -1.85,1.25c-0.567,0.833 -0.85,1.633 -0.85,2.4c0,0.9 0.483,1.7 1.45,2.4c-0.933,1.133 -1.833,1.85 -2.7,2.15c0.067,-1.067 0.1,-1.717 0.1,-1.95c-0,-1.867 -0.5,-2.8 -1.5,-2.8c-0.567,0 -1.017,0.317 -1.35,0.95c-0.3,0.533 -0.45,1.15 -0.45,1.85c-0,0.333 0.067,0.75 0.2,1.25c0.133,-1.267 0.5,-1.9 1.1,-1.9c0.3,-0 0.55,0.15 0.75,0.45c0.2,0.267 0.3,0.583 0.3,0.95c0,0.533 -0.3,1.6 -0.9,3.2c1.167,-0.267 2.15,-0.683 2.95,-1.25c0.633,-0.467 1.417,-1.25 2.35,-2.35c0.433,0.4 1.083,0.883 1.95,1.45c0.033,-0.933 0.05,-1.467 0.05,-1.6c-0,-0.567 -0.283,-1.1 -0.85,-1.6c0.467,-1.267 0.7,-2.217 0.7,-2.85Zm-3,0.25l0.2,-0.45c0.167,-0.1 0.3,-0.15 0.4,-0.15c0.6,-0 0.9,0.45 0.9,1.35l-0.1,1c-0.933,-0.733 -1.4,-1.317 -1.4,-1.75Z"/><path d="M39.193,16.505l-5.6,4.25c-0.659,0.501 -0.788,1.442 -0.288,2.102c0.501,0.659 1.442,0.788 2.102,0.288l5.6,-4.25c0.659,-0.501 0.788,-1.442 0.288,-2.102c-0.501,-0.659 -1.442,-0.788 -2.102,-0.288Z" style="fill:#f00;"/></g></svg>