<?xml version="1.0" encoding="UTF-8" standalone="no"?><!DOCTYPE svg PUBLIC "-//W3C//DTD SVG 1.1//EN" "http://www.w3.org/Graphics/SVG/1.1/DTD/svg11.dtd"><svg width="100%" height="100%" viewBox="0 0 83 82" version="1.1" xmlns="http://www.w3.org/2000/svg" xmlns:xlink="http://www.w3.org/1999/xlink" xml:space="preserve" xmlns:serif="http://www.serif.com/" style="fill-rule:evenodd;clip-rule:evenodd;stroke-linejoin:round;stroke-miterlimit:2;"><g><path d="M44.5,27.9l0.65,31.15c1.467,-1.433 2.2,-5.217 2.2,-11.35l-0.2,-24.7c-1.767,2.7 -2.65,4.333 -2.65,4.9Z" style="fill:#f00;"/><path d="M43.3,18.75c0.567,0.2 1.3,0.3 2.2,0.3c0.967,0 2.167,-0.45 3.6,-1.35c1.567,-1 2.35,-2.017 2.35,-3.05c-1.6,0.967 -2.467,1.483 -2.6,1.55c-1,0.5 -1.933,0.75 -2.8,0.75c-1.6,-0 -3.1,-0.6 -4.5,-1.8c-1.2,2.067 -2.017,3.9 -2.45,5.5c0.4,-0.3 0.783,-0.767 1.15,-1.4c0.467,-0.767 0.817,-1.267 1.05,-1.5c1.133,0.567 1.8,0.9 2,1Z" style="fill:#f00;"/><path d="M61.4,53.9c0.8,1.2 1.2,2.117 1.2,2.75c0,3.1 -1.933,5.783 -5.8,8.05c-3.267,1.9 -6.383,2.85 -9.35,2.85c2.4,1.9 4.767,2.85 7.1,2.85c2.733,-0 5.05,-1.933 6.95,-5.8c1.633,-3.333 2.45,-6.733 2.45,-10.2c0,-1.667 -0.283,-3.117 -0.85,-4.35c-0.433,-0.933 -1.25,-2.1 -2.45,-3.5l-1.1,4.9c0.6,0.833 1.217,1.65 1.85,2.45Z"/><path d="M24.7,44.05c1.1,5.5 2.05,8.467 2.85,8.9c0.188,0.101 0.454,0.168 0.8,0.2l1.35,-0c0.192,-0.014 0.392,-0.03 0.6,-0.05l-0,0.05c3.377,0.003 5.444,-0.547 6.2,-1.65c-0.2,-0.733 -0.667,-1.933 -1.4,-3.6c0.5,-1.033 1.133,-2.583 1.9,-4.65c0.7,3.4 1.05,5.583 1.05,6.55c-0,3.433 -0.7,5.85 -2.1,7.25c-1.194,1.194 -3.077,1.827 -5.65,1.9l-0,0.05l-2.95,0c-0.933,0 -1.683,-0.75 -2.25,-2.25c-0.333,-1.233 -0.683,-2.467 -1.05,-3.7c-1.667,2.867 -2.75,4.533 -3.25,5c-1.067,0.933 -2.817,1.4 -5.25,1.4c-2.233,-0 -3.35,-0.583 -3.35,-1.75l0,-5.95c1.167,1.367 2.417,2.05 3.75,2.05c1.267,0 2.633,-0.317 4.1,-0.95c1.667,-0.667 2.85,-1.517 3.55,-2.55l-1.75,-11.25c-0.033,-0.2 0.333,-1.917 1.1,-5.15l1.75,10.15Z"/><path d="M36.4,30.75c0.367,0.133 0.633,0.2 0.8,0.2c0.4,-0 0.6,-0.45 0.6,-1.35c-0,-0.367 -0.117,-0.7 -0.35,-1c-0.233,-0.3 -0.517,-0.45 -0.85,-0.45c-0.6,-0 -1.517,0.6 -2.75,1.8c-1.3,1.233 -1.95,2.183 -1.95,2.85c-0,0.267 0.15,0.7 0.45,1.3c0.3,0.567 0.45,1 0.45,1.3c-0,0.167 -0.033,0.433 -0.1,0.8c-0.1,0.4 -0.15,0.683 -0.15,0.85c-0,0.2 0.017,0.45 0.05,0.75c1.733,-1.633 3.233,-2.45 4.5,-2.45c1.067,0 1.633,-0.033 1.7,-0.1c0.267,-0.533 0.533,-1.083 0.8,-1.65c-0.267,0 -0.667,0.017 -1.2,0.05c-0.567,0.033 -0.983,0.05 -1.25,0.05c-1.467,0 -2.617,-0.383 -3.45,-1.15c0.433,-1.333 1.05,-2 1.85,-2c0.2,0 0.483,0.067 0.85,0.2Z"/><path d="M22,19.6c-0.3,-0.433 -0.633,-0.65 -1,-0.65c-0.667,-0 -1.283,0.417 -1.85,1.25c-0.567,0.833 -0.85,1.633 -0.85,2.4c-0,0.9 0.483,1.7 1.45,2.4c-0.933,1.133 -1.833,1.85 -2.7,2.15c0.067,-1.067 0.1,-1.717 0.1,-1.95c-0,-1.867 -0.5,-2.8 -1.5,-2.8c-0.567,-0 -1.017,0.317 -1.35,0.95c-0.3,0.533 -0.45,1.15 -0.45,1.85c0,0.333 0.067,0.75 0.2,1.25c0.133,-1.267 0.5,-1.9 1.1,-1.9c0.3,0 0.55,0.15 0.75,0.45c0.2,0.267 0.3,0.583 0.3,0.95c0,0.533 -0.3,1.6 -0.9,3.2c1.167,-0.267 2.15,-0.683 2.95,-1.25c0.633,-0.467 1.417,-1.25 2.35,-2.35c0.433,0.4 1.083,0.883 1.95,1.45c0.033,-0.933 0.05,-1.467 0.05,-1.6c0,-0.567 -0.283,-1.1 -0.85,-1.6c0.467,-1.267 0.7,-2.217 0.7,-2.85c0,-0.467 -0.15,-0.917 -0.45,-1.35Zm-1.05,2.35l-0.1,1c-0.933,-0.733 -1.4,-1.317 -1.4,-1.75l0.2,-0.45c0.167,-0.1 0.3,-0.15 0.4,-0.15c0.6,0 0.9,0.45 0.9,1.35Z"/><path d="M36.493,62.055l-5.6,4.25c-0.659,0.501 -0.788,1.442 -0.288,2.102c0.501,0.659 1.442,0.788 2.102,0.288l5.6,-4.25c0.659,-0.501 0.788,-1.442 0.288,-2.102c-0.501,-0.659 -1.442,-0.788 -2.102,-0.288Z"/><path d="M55.993,18.855l-5.6,4.25c-0.659,0.501 -0.788,1.442 -0.288,2.102c0.501,0.659 1.442,0.788 2.102,0.288l5.6,-4.25c0.659,-0.501 0.788,-1.442 0.288,-2.102c-0.501,-0.659 -1.442,-0.788 -2.102,-0.288Z" style="fill:#f00;"/></g></svg>