<?xml version="1.0" encoding="UTF-8" standalone="no"?><!DOCTYPE svg PUBLIC "-//W3C//DTD SVG 1.1//EN" "http://www.w3.org/Graphics/SVG/1.1/DTD/svg11.dtd"><svg width="100%" height="100%" viewBox="0 0 32 79" version="1.1" xmlns="http://www.w3.org/2000/svg" xmlns:xlink="http://www.w3.org/1999/xlink" xml:space="preserve" xmlns:serif="http://www.serif.com/" style="fill-rule:evenodd;clip-rule:evenodd;stroke-linejoin:round;stroke-miterlimit:2;"><g><path d="M25.7,49.15c-0.633,-2.1 -1.533,-3.15 -2.7,-3.15c-1,0 -1.95,1.033 -2.85,3.1c-0.767,1.833 -1.15,3.433 -1.15,4.8c0,2.333 0.783,3.5 2.35,3.5c1.2,0 2.317,-0.783 3.35,-2.35c0.3,0.7 0.45,1.35 0.45,1.95c0,3.433 -2.067,6.15 -6.2,8.15c-3.2,1.567 -6.483,2.35 -9.85,2.35c1.633,0.767 2.767,1.267 3.4,1.5c1.133,0.367 2.3,0.55 3.5,0.55c3.4,0 6.05,-1.633 7.95,-4.9c1.667,-2.9 2.5,-6.45 2.5,-10.65c0,-1.667 -0.25,-3.283 -0.75,-4.85Zm-3.6,4.6c-0.033,0 -0.483,-0.25 -1.35,-0.75c0.367,-1.067 0.733,-2.033 1.1,-2.9c1.167,0.633 1.75,1.417 1.75,2.35c-0,0.367 -0.167,0.667 -0.5,0.9c-0.367,0.267 -0.7,0.4 -1,0.4Z" style="fill:#f00;"/><path d="M19.3,33.8c0.467,-1.333 1.1,-2 1.9,-2c0.167,0 0.433,0.067 0.8,0.2c0.4,0.133 0.683,0.2 0.85,0.2c0.4,-0 0.6,-0.45 0.6,-1.35c0,-0.367 -0.117,-0.7 -0.35,-1c-0.267,-0.3 -0.55,-0.45 -0.85,-0.45c-0.6,0 -1.533,0.617 -2.8,1.85c-1.267,1.2 -1.9,2.133 -1.9,2.8c-0,0.267 0.15,0.7 0.45,1.3c0.3,0.567 0.45,1 0.45,1.3c0,0.167 -0.05,0.433 -0.15,0.8c-0.1,0.4 -0.15,0.683 -0.15,0.85c0,0.2 0.017,0.45 0.05,0.75c1.733,-1.633 3.233,-2.45 4.5,-2.45c1.1,0 1.667,-0.033 1.7,-0.1c0.3,-0.533 0.583,-1.083 0.85,-1.65c-0.267,0 -0.667,0.017 -1.2,0.05c-0.567,0.033 -0.983,0.05 -1.25,0.05c-1.467,0 -2.633,-0.383 -3.5,-1.15Z" style="fill:#f00;"/><path d="M19.6,16.4c-0.7,0 -1.317,0.417 -1.85,1.25c-0.467,0.767 -0.7,1.5 -0.7,2.2c-0,0.6 0.45,1.217 1.35,1.85c-1.633,1.433 -3.183,2.517 -4.65,3.25c0.5,0.167 0.917,0.25 1.25,0.25c1.2,-0 2.65,-0.983 4.35,-2.95c0.667,0.467 1.233,0.817 1.7,1.05l0.2,-2.05c-0.367,-0.267 -0.65,-0.467 -0.85,-0.6c0.433,-1.033 0.65,-1.85 0.65,-2.45c-0,-1.2 -0.483,-1.8 -1.45,-1.8Zm-1.45,2.15c0.067,-0.2 0.2,-0.333 0.4,-0.4c0.767,0.133 1.15,0.567 1.15,1.3c0,0.167 -0.033,0.367 -0.1,0.6c-0.967,-0.533 -1.45,-1.033 -1.45,-1.5Z" style="fill:#f00;"/></g></svg>