<?xml version="1.0" encoding="UTF-8" standalone="no"?><!DOCTYPE svg PUBLIC "-//W3C//DTD SVG 1.1//EN" "http://www.w3.org/Graphics/SVG/1.1/DTD/svg11.dtd"><svg width="100%" height="100%" viewBox="0 0 96 81" version="1.1" xmlns="http://www.w3.org/2000/svg" xmlns:xlink="http://www.w3.org/1999/xlink" xml:space="preserve" xmlns:serif="http://www.serif.com/" style="fill-rule:evenodd;clip-rule:evenodd;stroke-linejoin:round;stroke-miterlimit:2;"><g><path d="M31.95,71.15l2.95,-3.4l-2.95,-3.45l-2.9,3.45l2.9,3.4Z"/><path d="M74.8,69.05l2.55,-3l-2.55,-3l-2.6,2.95l2.6,3.05Z"/><path d="M79.9,69.05l2.6,-3.05l-2.6,-2.95l-2.55,3l2.55,3Z"/><path d="M33.5,47.25c0.733,1.667 1.2,2.867 1.4,3.6c-0.8,1.167 -3.067,1.717 -6.8,1.65l-1.4,0l0,0.2c-0.473,-0.013 -0.956,-0.047 -1.45,-0.1c-0.467,-1.133 -0.917,-2.283 -1.35,-3.45c-0.7,-1.5 -1.433,-2.25 -2.2,-2.25c-0.9,-0 -1.833,1.117 -2.8,3.35c-0.9,2.067 -1.35,3.733 -1.35,5c-0,1.567 0.65,2.55 1.95,2.95c1.167,0.233 2.35,0.45 3.55,0.65c-1.4,2.467 -2.85,4.283 -4.35,5.45c-1.733,1.267 -3.75,1.9 -6.05,1.9c-1.267,0 -3.083,-0.117 -5.45,-0.35c2.233,2.6 4.8,3.9 7.7,3.9c2.533,-0 4.7,-1.233 6.5,-3.7c1.233,-1.7 2.433,-4.267 3.6,-7.7l3.75,0l0,-0.05c2.547,-0.08 4.414,-0.714 5.6,-1.9c1.4,-1.4 2.1,-3.817 2.1,-7.25c0,-0.967 -0.35,-3.15 -1.05,-6.55c-0.767,2.067 -1.4,3.617 -1.9,4.65Zm-12.9,4.1c0.8,0.433 1.3,0.817 1.5,1.15c0.167,0.3 0.333,0.95 0.5,1.95c-0.733,0 -1.617,-0.083 -2.65,-0.25c0,-0.467 -0.067,-0.767 -0.2,-0.9c0.3,-0.733 0.583,-1.383 0.85,-1.95Z"/><path d="M47.3,50.25c-0.9,2.067 -1.35,3.733 -1.35,5c0,1.567 0.65,2.55 1.95,2.95c1.167,0.233 2.35,0.45 3.55,0.65c-1.4,2.467 -2.85,4.283 -4.35,5.45c-1.733,1.267 -3.75,1.9 -6.05,1.9c-1.267,0 -3.083,-0.117 -5.45,-0.35c2.233,2.6 4.8,3.9 7.7,3.9c2.533,-0 4.7,-1.233 6.5,-3.7c1.233,-1.7 2.433,-4.267 3.6,-7.7l6.5,0c1,0 1.8,-0.417 2.4,-1.25c0.1,-0.133 0.567,-1.05 1.4,-2.75c0.467,0.867 1.083,1.717 1.85,2.55c0.967,0.967 1.783,1.45 2.45,1.45l5.7,0l0,-0.05c2.242,-0.176 3.909,-0.809 5,-1.9c1.4,-1.4 2.1,-3.817 2.1,-7.25c-0,-0.967 -0.35,-3.15 -1.05,-6.55c-0.767,2.067 -1.4,3.617 -1.9,4.65c0.733,1.667 1.2,2.867 1.4,3.6c-0.706,1.03 -2.556,1.58 -5.55,1.65l0,-0.05c-0.385,0 -0.835,0.017 -1.35,0.05l-1.3,-0l-0,0.1c-1.039,0.067 -1.739,0.1 -2.1,0.1c-1.3,0 -2.233,-0.3 -2.8,-0.9c-0.667,-0.767 -1.033,-2.167 -1.1,-4.2c-1.167,2.267 -1.983,3.633 -2.45,4.1c-0.567,0.6 -1.417,0.9 -2.55,0.9c-0.3,0 -0.983,-0.017 -2.05,-0.05c-1.067,-0.067 -2.033,-0.1 -2.9,-0.1l-0,0.25c-0.473,-0.013 -0.956,-0.047 -1.45,-0.1c-0.467,-1.133 -0.917,-2.283 -1.35,-3.45c-0.7,-1.5 -1.433,-2.25 -2.2,-2.25c-0.9,-0 -1.833,1.117 -2.8,3.35Zm3.7,4.2c-0.733,0 -1.617,-0.083 -2.65,-0.25c-0,-0.467 -0.067,-0.767 -0.2,-0.9c0.3,-0.733 0.583,-1.383 0.85,-1.95c0.8,0.433 1.3,0.817 1.5,1.15c0.167,0.3 0.333,0.95 0.5,1.95Z"/><path d="M65.05,37.45l-2.55,-3l-2.55,3l2.55,3l2.55,-3Z"/><path d="M67.6,34.45l-2.55,3l2.55,3l2.6,-3l-2.6,-3Z"/><path d="M29.25,24.2l0.15,-2.5c-0.367,-0.333 -0.65,-0.583 -0.85,-0.75c0.467,-1.267 0.7,-2.267 0.7,-3c0,-1.467 -0.5,-2.2 -1.5,-2.2c-0.7,0 -1.333,0.517 -1.9,1.55c-0.467,0.933 -0.7,1.833 -0.7,2.7c-0,0.7 0.45,1.45 1.35,2.25c-1.633,1.767 -3.2,3.1 -4.7,4c0.533,0.2 0.95,0.3 1.25,0.3c1.233,-0 2.7,-1.217 4.4,-3.65c0.7,0.567 1.3,1 1.8,1.3Zm-2.55,-6.25c0.767,0.133 1.15,0.633 1.15,1.5c0,0.233 -0.033,0.5 -0.1,0.8c-1,-0.633 -1.5,-1.25 -1.5,-1.85c0.067,-0.267 0.217,-0.417 0.45,-0.45Z"/><path d="M61.2,21.4l0.15,-2.5c-0.367,-0.333 -0.65,-0.583 -0.85,-0.75c0.467,-1.267 0.7,-2.267 0.7,-3c0,-1.467 -0.5,-2.2 -1.5,-2.2c-0.7,0 -1.333,0.517 -1.9,1.55c-0.467,0.933 -0.7,1.833 -0.7,2.7c0,0.7 0.45,1.45 1.35,2.25c-1.633,1.767 -3.2,3.1 -4.7,4c0.533,0.2 0.95,0.3 1.25,0.3c1.233,-0 2.7,-1.217 4.4,-3.65c0.7,0.567 1.3,1 1.8,1.3Zm-2.55,-6.25c0.767,0.133 1.15,0.633 1.15,1.5c-0,0.233 -0.033,0.5 -0.1,0.8c-1,-0.633 -1.5,-1.25 -1.5,-1.85c0.067,-0.267 0.217,-0.417 0.45,-0.45Z"/><path d="M76.743,17.105l-5.6,4.25c-0.659,0.501 -0.788,1.442 -0.288,2.102c0.501,0.659 1.442,0.788 2.102,0.288l5.6,-4.25c0.659,-0.501 0.788,-1.442 0.288,-2.102c-0.501,-0.659 -1.442,-0.788 -2.102,-0.288Z"/></g></svg>