<?xml version="1.0" encoding="UTF-8" standalone="no"?><!DOCTYPE svg PUBLIC "-//W3C//DTD SVG 1.1//EN" "http://www.w3.org/Graphics/SVG/1.1/DTD/svg11.dtd"><svg width="100%" height="100%" viewBox="0 0 72 81" version="1.1" xmlns="http://www.w3.org/2000/svg" xmlns:xlink="http://www.w3.org/1999/xlink" xml:space="preserve" xmlns:serif="http://www.serif.com/" style="fill-rule:evenodd;clip-rule:evenodd;stroke-linejoin:round;stroke-miterlimit:2;"><g><path d="M42.2,16.25c1,0 2.2,-0.45 3.6,-1.35c1.567,-1 2.35,-2.017 2.35,-3.05c-1.6,0.967 -2.467,1.483 -2.6,1.55c-1,0.533 -1.933,0.8 -2.8,0.8c-1.6,0 -3.1,-0.6 -4.5,-1.8c-1.167,2.067 -1.967,3.883 -2.4,5.45c0.367,-0.267 0.75,-0.733 1.15,-1.4c0.467,-0.733 0.8,-1.217 1,-1.45c1.133,0.567 1.8,0.883 2,0.95c0.6,0.2 1.333,0.3 2.2,0.3Z" style="fill:#f00;"/><path d="M17.75,55.8c0,-0.633 0.117,-1.55 0.35,-2.75c0.2,-1.233 0.3,-2.167 0.3,-2.8c-0.8,0.967 -1.433,2.333 -1.9,4.1c-0.467,1.6 -0.7,3.15 -0.7,4.65c-0,2.7 0.7,4.75 2.1,6.15c1.267,1.333 3.067,2 5.4,2c2.933,-0 5.4,-1.233 7.4,-3.7c1.967,-2.467 2.95,-5.433 2.95,-8.9c0,-4.467 -1.05,-8.25 -3.15,-11.35c-0.6,1.333 -1.183,3.183 -1.75,5.55c1.067,1.633 1.75,2.783 2.05,3.45c0.633,1.4 0.95,2.733 0.95,4c-0,1.6 -1.05,2.933 -3.15,4c-1.767,0.933 -3.433,1.4 -5,1.4c-3.9,0 -5.85,-1.933 -5.85,-5.8Z"/><path d="M43.25,54.25c0,1.567 0.65,2.55 1.95,2.95c1.167,0.233 2.35,0.45 3.55,0.65c-1.4,2.467 -2.85,4.283 -4.35,5.45c-1.733,1.267 -3.75,1.9 -6.05,1.9c-1.267,0 -3.083,-0.117 -5.45,-0.35c2.233,2.6 4.8,3.9 7.7,3.9c2.533,-0 4.7,-1.233 6.5,-3.7c1.233,-1.7 2.433,-4.267 3.6,-7.7l3.75,0l0,-0.05c2.547,-0.08 4.414,-0.714 5.6,-1.9c1.4,-1.4 2.1,-3.817 2.1,-7.25c0,-0.967 -0.35,-3.15 -1.05,-6.55c-0.767,2.067 -1.4,3.617 -1.9,4.65c0.733,1.667 1.2,2.867 1.4,3.6c-0.8,1.167 -3.067,1.717 -6.8,1.65l-1.4,-0l0,0.2c-0.473,-0.013 -0.956,-0.047 -1.45,-0.1c-0.467,-1.133 -0.917,-2.283 -1.35,-3.45c-0.7,-1.5 -1.433,-2.25 -2.2,-2.25c-0.9,-0 -1.833,1.117 -2.8,3.35c-0.9,2.067 -1.35,3.733 -1.35,5Zm2.2,-1.95c0.3,-0.733 0.583,-1.383 0.85,-1.95c0.8,0.433 1.3,0.817 1.5,1.15c0.167,0.3 0.333,0.95 0.5,1.95c-0.733,0 -1.617,-0.083 -2.65,-0.25c0,-0.467 -0.067,-0.767 -0.2,-0.9Z"/><path d="M20.25,37.6l2.95,3.45l2.95,-3.45l-2.95,-3.45l-2.95,3.45Z"/><path d="M61.15,34.15l-2.95,-3.45l-2.9,3.45l2.95,3.4l2.9,-3.4Z"/><path d="M21.85,19.1c-0.867,0 -1.517,0.45 -1.95,1.35c-0.4,0.767 -0.6,1.7 -0.6,2.8c-0,1.767 0.65,2.65 1.95,2.65c0.8,-0 1.467,-0.367 2,-1.1c0.533,-0.733 0.8,-1.567 0.8,-2.5c-0,-0.8 -0.183,-1.517 -0.55,-2.15c-0.467,-0.7 -1.017,-1.05 -1.65,-1.05Zm-0.85,1.9c0.333,0 0.75,0.217 1.25,0.65c0.533,0.433 0.8,0.833 0.8,1.2c-0,0.567 -0.467,0.85 -1.4,0.85c-1.167,0 -1.75,-0.417 -1.75,-1.25c0,-0.967 0.367,-1.45 1.1,-1.45Z"/><path d="M54.75,16.7c0,0.7 0.45,1.45 1.35,2.25c-1.633,1.767 -3.2,3.1 -4.7,4c0.533,0.2 0.95,0.3 1.25,0.3c1.233,0 2.7,-1.217 4.4,-3.65c0.7,0.567 1.3,1 1.8,1.3l0.15,-2.5c-0.367,-0.333 -0.65,-0.583 -0.85,-0.75c0.467,-1.267 0.7,-2.267 0.7,-3c-0,-1.467 -0.5,-2.2 -1.5,-2.2c-0.7,0 -1.333,0.517 -1.9,1.55c-0.467,0.933 -0.7,1.833 -0.7,2.7Zm1.1,-1.6c0.067,-0.267 0.217,-0.417 0.45,-0.45c0.767,0.133 1.15,0.633 1.15,1.5c0,0.233 -0.033,0.5 -0.1,0.8c-1,-0.633 -1.5,-1.25 -1.5,-1.85Z"/></g></svg>