<?xml version="1.0" encoding="UTF-8" standalone="no"?><!DOCTYPE svg PUBLIC "-//W3C//DTD SVG 1.1//EN" "http://www.w3.org/Graphics/SVG/1.1/DTD/svg11.dtd"><svg width="100%" height="100%" viewBox="0 0 84 88" version="1.1" xmlns="http://www.w3.org/2000/svg" xmlns:xlink="http://www.w3.org/1999/xlink" xml:space="preserve" xmlns:serif="http://www.serif.com/" style="fill-rule:evenodd;clip-rule:evenodd;stroke-linejoin:round;stroke-miterlimit:2;"><g><path d="M61.4,55.45l0.55,-0l0,-0.05c-0.183,0.029 -0.366,0.046 -0.55,0.05Z" style="fill:#f00;"/><path d="M57.1,46.25c-0.7,-1.5 -1.433,-2.25 -2.2,-2.25c-0.9,0 -1.833,1.117 -2.8,3.35c-0.9,2.067 -1.35,3.733 -1.35,5c0,1.567 0.65,2.55 1.95,2.95c1.167,0.233 2.35,0.45 3.55,0.65c-1.4,2.467 -2.85,4.283 -4.35,5.45c-1.733,1.267 -3.75,1.9 -6.05,1.9c-1.267,0 -3.083,-0.117 -5.45,-0.35c2.233,2.6 4.8,3.9 7.7,3.9c2.533,0 4.7,-1.233 6.5,-3.7c1.233,-1.7 2.433,-4.267 3.6,-7.7l1.7,-0l0,-5.65c-0.473,-0.013 -0.956,-0.047 -1.45,-0.1c-0.467,-1.133 -0.917,-2.283 -1.35,-3.45Zm-1.3,5.3c-0.733,0 -1.617,-0.083 -2.65,-0.25c0,-0.467 -0.067,-0.767 -0.2,-0.9c0.3,-0.733 0.583,-1.383 0.85,-1.95c0.8,0.433 1.3,0.817 1.5,1.15c0.167,0.3 0.333,0.95 0.5,1.95Z" style="fill:#f00;"/><path d="M53.4,27.2c0.4,0.133 0.683,0.2 0.85,0.2c0.4,-0 0.6,-0.45 0.6,-1.35c-0,-0.367 -0.117,-0.7 -0.35,-1c-0.267,-0.3 -0.55,-0.45 -0.85,-0.45c-0.6,0 -1.533,0.617 -2.8,1.85c-1.267,1.2 -1.9,2.133 -1.9,2.8c0,0.267 0.15,0.7 0.45,1.3c0.3,0.567 0.45,1 0.45,1.3c-0,0.167 -0.05,0.433 -0.15,0.8c-0.1,0.4 -0.15,0.683 -0.15,0.85c-0,0.2 0.017,0.45 0.05,0.75c1.733,-1.633 3.233,-2.45 4.5,-2.45c1.1,0 1.667,-0.033 1.7,-0.1c0.3,-0.533 0.583,-1.083 0.85,-1.65c-0.267,0 -0.667,0.017 -1.2,0.05c-0.567,0.033 -0.983,0.05 -1.25,0.05c-1.467,-0 -2.633,-0.383 -3.5,-1.15c0.467,-1.333 1.1,-2 1.9,-2c0.167,-0 0.433,0.067 0.8,0.2Z" style="fill:#f00;"/><path d="M52.6,15.4c-0.467,-0.7 -1.017,-1.05 -1.65,-1.05c-0.867,-0 -1.517,0.45 -1.95,1.35c-0.4,0.767 -0.6,1.7 -0.6,2.8c0,1.767 0.65,2.65 1.95,2.65c0.8,-0 1.467,-0.367 2,-1.1c0.533,-0.733 0.8,-1.567 0.8,-2.5c0,-0.8 -0.183,-1.517 -0.55,-2.15Zm-2.5,0.85c0.333,0 0.75,0.217 1.25,0.65c0.533,0.433 0.8,0.833 0.8,1.2c0,0.567 -0.467,0.85 -1.4,0.85c-1.167,-0 -1.75,-0.417 -1.75,-1.25c0,-0.967 0.367,-1.45 1.1,-1.45Z" style="fill:#f00;"/><path d="M10.75,51.3c-1.167,0.9 -2.3,2.467 -3.4,4.7c-1.1,2.3 -1.65,4.25 -1.65,5.85c0,3.067 1.15,5.35 3.45,6.85c1.867,1.2 4.217,1.8 7.05,1.8c6.4,0 11.117,-2.267 14.15,-6.8c0.967,-1.433 1.45,-2.517 1.45,-3.25c-0,-1.3 -1.067,-2.2 -3.2,-2.7c-1.467,-0.267 -2.95,-0.533 -4.45,-0.8c0.539,-0.899 3.173,-1.399 7.9,-1.5l1.7,-0l-0,-0.05c2.421,-0.126 4.188,-0.759 5.3,-1.9c1.4,-1.4 2.1,-3.817 2.1,-7.25c0,-0.967 -0.35,-3.15 -1.05,-6.55c-0.767,2.067 -1.383,3.617 -1.85,4.65c0.733,1.667 1.183,2.867 1.35,3.6c-0.703,1.07 -2.653,1.62 -5.85,1.65l-0,-0.05l-3.5,0c-2.167,0 -4.1,0.75 -5.8,2.25c-1.833,1.667 -2.75,3.733 -2.75,6.2c0,1.133 0.483,1.967 1.45,2.5c0.567,0.3 1.6,0.583 3.1,0.85c1.367,0.233 2.25,0.5 2.65,0.8c-0.433,1 -2.183,1.9 -5.25,2.7c-2.533,0.667 -4.583,1 -6.15,1c-2.6,0 -4.583,-0.317 -5.95,-0.95c-2.167,-0.933 -3.25,-2.683 -3.25,-5.25c-0,-1.1 0.333,-2.5 1,-4.2c0.8,-2.067 1.283,-3.45 1.45,-4.15Z"/><path d="M66.2,63.15l-2.55,-3l-2.6,2.95l2.6,3.05l2.55,-3Z"/><path d="M68.75,66.15l2.6,-3.05l-2.6,-2.95l-2.55,3l2.55,3Z"/><path d="M61.3,49.6l-1.4,0l0,5.85l1.5,-0c0.184,-0.004 0.367,-0.021 0.55,-0.05c2.547,-0.08 4.414,-0.714 5.6,-1.9c1.4,-1.4 2.1,-3.817 2.1,-7.25c0,-0.967 -0.35,-3.15 -1.05,-6.55c-0.767,2.067 -1.4,3.617 -1.9,4.65c0.733,1.667 1.2,2.867 1.4,3.6c-0.8,1.167 -3.067,1.717 -6.8,1.65Z"/><path d="M40.75,28.2l-2.55,3l2.55,3l2.6,-3.05l-2.6,-2.95Z"/><path d="M38.2,31.2l-2.55,-3l-2.55,2.95l2.55,3.05l2.55,-3Z"/><path d="M36.343,62.105l-5.6,4.25c-0.659,0.501 -0.788,1.442 -0.288,2.102c0.501,0.659 1.442,0.788 2.102,0.288l5.6,-4.25c0.659,-0.501 0.788,-1.442 0.288,-2.102c-0.501,-0.659 -1.442,-0.788 -2.102,-0.288Z"/><path d="M65.543,10.655l-5.6,4.25c-0.659,0.501 -0.788,1.442 -0.288,2.102c0.501,0.659 1.442,0.788 2.102,0.288l5.6,-4.25c0.659,-0.501 0.788,-1.442 0.288,-2.102c-0.501,-0.659 -1.442,-0.788 -2.102,-0.288Z"/></g></svg>