<?xml version="1.0" encoding="UTF-8" standalone="no"?><!DOCTYPE svg PUBLIC "-//W3C//DTD SVG 1.1//EN" "http://www.w3.org/Graphics/SVG/1.1/DTD/svg11.dtd"><svg width="100%" height="100%" viewBox="0 0 73 81" version="1.1" xmlns="http://www.w3.org/2000/svg" xmlns:xlink="http://www.w3.org/1999/xlink" xml:space="preserve" xmlns:serif="http://www.serif.com/" style="fill-rule:evenodd;clip-rule:evenodd;stroke-linejoin:round;stroke-miterlimit:2;"><g><path d="M42.45,66.55l-2.9,3.45l2.9,3.4l2.95,-3.4l-2.95,-3.45Z"/><path d="M60.45,55.5c0.8,1.2 1.2,2.117 1.2,2.75c-0,3.1 -1.933,5.783 -5.8,8.05c-3.267,1.9 -6.383,2.85 -9.35,2.85c2.4,1.9 4.767,2.85 7.1,2.85c2.733,0 5.05,-1.933 6.95,-5.8c1.633,-3.333 2.45,-6.733 2.45,-10.2c-0,-1.667 -0.283,-3.117 -0.85,-4.35c-0.433,-0.933 -1.25,-2.1 -2.45,-3.5l-1.1,4.9c0.6,0.833 1.217,1.65 1.85,2.45Z"/><path d="M17.8,24.6c-1.767,2.7 -2.65,4.333 -2.65,4.9l0.65,31.15c1.467,-1.433 2.2,-5.217 2.2,-11.35l-0.2,-24.7Z"/><path d="M29.45,52.5c-0.9,2.067 -1.35,3.733 -1.35,5c0,1.567 0.65,2.55 1.95,2.95c1.167,0.233 2.35,0.45 3.55,0.65c-1.4,2.467 -2.85,4.283 -4.35,5.45c-1.733,1.267 -3.75,1.9 -6.05,1.9c-1.267,0 -3.083,-0.117 -5.45,-0.35c2.233,2.6 4.8,3.9 7.7,3.9c2.533,-0 4.7,-1.233 6.5,-3.7c1.233,-1.7 2.433,-4.267 3.6,-7.7l3.75,0l-0,-0.05c2.521,-0.088 4.371,-0.721 5.55,-1.9c1.4,-1.4 2.1,-3.817 2.1,-7.25c0,-0.967 -0.35,-3.15 -1.05,-6.55c-0.767,2.067 -1.4,3.617 -1.9,4.65c0.733,1.667 1.2,2.867 1.4,3.6c-0.8,1.167 -3.067,1.717 -6.8,1.65l-1.4,-0l0,0.2c-0.457,-0.015 -0.923,-0.048 -1.4,-0.1c-0.467,-1.133 -0.917,-2.283 -1.35,-3.45c-0.7,-1.5 -1.433,-2.25 -2.2,-2.25c-0.9,-0 -1.833,1.117 -2.8,3.35Zm3.2,2.25c0.167,0.3 0.333,0.95 0.5,1.95c-0.733,0 -1.617,-0.083 -2.65,-0.25c0,-0.467 -0.067,-0.767 -0.2,-0.9c0.3,-0.733 0.583,-1.383 0.85,-1.95c0.8,0.433 1.3,0.817 1.5,1.15Z"/><path d="M56.543,73.805l-5.6,4.25c-0.659,0.501 -0.788,1.442 -0.288,2.102c0.501,0.659 1.442,0.788 2.102,0.288l5.6,-4.25c0.659,-0.501 0.788,-1.442 0.288,-2.102c-0.501,-0.659 -1.442,-0.788 -2.102,-0.288Z"/><path d="M37.5,26.65l-5.6,4.2c-0.662,0.497 -0.797,1.438 -0.3,2.1c0.497,0.662 1.438,0.797 2.1,0.3l5.6,-4.2c0.662,-0.497 0.797,-1.438 0.3,-2.1c-0.497,-0.662 -1.438,-0.797 -2.1,-0.3Z"/></g></svg>