<?xml version="1.0" encoding="UTF-8" standalone="no"?><!DOCTYPE svg PUBLIC "-//W3C//DTD SVG 1.1//EN" "http://www.w3.org/Graphics/SVG/1.1/DTD/svg11.dtd"><svg width="100%" height="100%" viewBox="0 0 43 46" version="1.1" xmlns="http://www.w3.org/2000/svg" xmlns:xlink="http://www.w3.org/1999/xlink" xml:space="preserve" xmlns:serif="http://www.serif.com/" style="fill-rule:evenodd;clip-rule:evenodd;stroke-linecap:round;stroke-linejoin:round;"><g><path d="M21.25,37.6c1.033,-0.733 1.55,-2.75 1.55,-6.05l-0.15,-13.3c-1.267,1.467 -1.9,2.35 -1.9,2.65l0.5,16.7Z" style="fill:#f00;"/><path d="M22,12.6c0.2,0.133 0.3,0.3 0.3,0.5c0,0.5 -0.15,0.75 -0.45,0.75l-1.2,-0.2c-0.567,-0 -1,0.35 -1.3,1.05c0.6,0.4 1.417,0.6 2.45,0.6l0.85,0c0.4,-0.033 0.7,-0.05 0.9,-0.05c-0.2,0.3 -0.4,0.6 -0.6,0.9c-0.033,0.033 -0.433,0.05 -1.2,0.05c-0.9,-0 -1.967,0.433 -3.2,1.3c-0.033,-0.167 -0.05,-0.283 -0.05,-0.35c0,-0.1 0.05,-0.25 0.15,-0.45c0.067,-0.2 0.1,-0.35 0.1,-0.45c0,-0.167 -0.117,-0.417 -0.35,-0.75c-0.2,-0.3 -0.3,-0.517 -0.3,-0.65c0,-0.367 0.45,-0.883 1.35,-1.55c0.9,-0.633 1.567,-0.95 2,-0.95l0.55,0.25Z" style="fill:#f00;"/><path id="Layer0_0_6_STROKES" d="M-35.5,32.35l-5.5,3.2m6.4,-0.95l-5.5,3.15m3.35,34.7l-5.45,3.15m4.6,-5.4l-5.5,3.15m66.9,-66.05l-5.45,3.15m4.6,-5.4l-5.5,3.2m2.65,45.85l-5.4,3.1m4.5,-5.35l-5.5,3.15m117.35,-21.3l-5.5,3.15m4.05,36.2l-5.5,3.15m54.35,-22.75l-5.5,3.15m7.85,-50.4l-5.45,3.15m-42.25,106.65l-5.5,3.15m55.65,-26.65l-5.5,3.15m-152.35,-1.25l-5.5,3.15m4.65,-5.4l-5.5,3.2m-54.15,20.5l-5.5,3.15m4.6,-5.4l-5.45,3.2" style="fill:none;fill-rule:nonzero;stroke:#f00;stroke-width:1.7px;"/></g></svg>