<?xml version="1.0" encoding="UTF-8" standalone="no"?><!DOCTYPE svg PUBLIC "-//W3C//DTD SVG 1.1//EN" "http://www.w3.org/Graphics/SVG/1.1/DTD/svg11.dtd"><svg width="100%" height="100%" viewBox="0 0 43 36" version="1.1" xmlns="http://www.w3.org/2000/svg" xmlns:xlink="http://www.w3.org/1999/xlink" xml:space="preserve" xmlns:serif="http://www.serif.com/" style="fill-rule:evenodd;clip-rule:evenodd;stroke-linecap:round;stroke-linejoin:round;"><g><path d="M15.7,22.3c-0.367,0.8 -0.55,1.517 -0.55,2.15c-0,1.367 0.433,2.417 1.3,3.15c0.867,0.767 2.15,1.15 3.85,1.15c1.8,0 3.733,-0.467 5.8,-1.4c2.3,-1.067 3.45,-2.267 3.45,-3.6c0,-0.667 -0.45,-1.133 -1.35,-1.4c-0.9,-0.133 -1.783,-0.25 -2.65,-0.35c-0.933,-0.167 -1.4,-0.467 -1.4,-0.9c-0,-0.467 0.517,-1.017 1.55,-1.65c0.867,-0.533 1.633,-0.883 2.3,-1.05c0.3,0.1 0.5,0.183 0.6,0.25c0.033,0.033 0.183,0.167 0.45,0.4c0.2,-0.333 0.4,-0.667 0.6,-1c0.2,-0.367 0.3,-0.717 0.3,-1.05c-0,-0.133 -0.067,-0.317 -0.2,-0.55l-0.5,-0.25c-1.267,-0 -2.617,0.75 -4.05,2.25c-1.4,1.467 -2.1,2.717 -2.1,3.75c0,0.633 0.3,1.1 0.9,1.4c0.433,0.233 1.1,0.383 2,0.45c0.7,0 1.417,0.017 2.15,0.05c-0.433,0.633 -1.533,1.2 -3.3,1.7c-1.533,0.433 -2.833,0.65 -3.9,0.65c-3,-0 -4.5,-1.05 -4.5,-3.15c-0,-0.567 0.233,-1.467 0.7,-2.7c-0.567,0.233 -1.05,0.8 -1.45,1.7Z" style="fill:#f00;"/><path d="M16.25,13.4c0,0.1 0.1,0.267 0.3,0.5c0.167,0.233 0.25,0.417 0.25,0.55c0,0.067 -0.017,0.183 -0.05,0.35c-0.067,0.133 -0.1,0.25 -0.1,0.35l-0,0.3c1.067,-0.667 1.983,-1 2.75,-1c0.633,-0 0.967,-0.017 1,-0.05c0.167,-0.233 0.333,-0.467 0.5,-0.7c-0.167,-0 -0.417,0.017 -0.75,0.05l-0.75,-0c-0.867,-0 -1.55,-0.15 -2.05,-0.45c0.233,-0.567 0.6,-0.85 1.1,-0.85c0.1,-0 0.267,0.033 0.5,0.1c0.233,0.067 0.4,0.1 0.5,0.1c0.233,-0 0.35,-0.183 0.35,-0.55c0,-0.167 -0.067,-0.3 -0.2,-0.4c-0.133,-0.133 -0.3,-0.2 -0.5,-0.2c-0.367,-0 -0.917,0.25 -1.65,0.75c-0.8,0.5 -1.2,0.883 -1.2,1.15Z" style="fill:#f00;"/><path id="Layer0_0_6_STROKES" d="M-35.5,-13.65l-5.5,3.2m6.4,-0.95l-5.5,3.15m3.35,34.7l-5.45,3.15m4.6,-5.4l-5.5,3.15m66.9,-66.05l-5.45,3.15m4.6,-5.4l-5.5,3.2m2.65,45.85l-5.4,3.1m4.5,-5.35l-5.5,3.15m117.35,-21.3l-5.5,3.15m4.05,36.2l-5.5,3.15m54.35,-22.75l-5.5,3.15m7.85,-50.4l-5.45,3.15m-42.25,106.65l-5.5,3.15m55.65,-26.65l-5.5,3.15m-152.35,-1.25l-5.5,3.15m4.65,-5.4l-5.5,3.2m-54.15,20.5l-5.5,3.15m4.6,-5.4l-5.45,3.2" style="fill:none;fill-rule:nonzero;stroke:#f00;stroke-width:1.7px;"/></g></svg>