<?xml version="1.0" encoding="UTF-8" standalone="no"?><!DOCTYPE svg PUBLIC "-//W3C//DTD SVG 1.1//EN" "http://www.w3.org/Graphics/SVG/1.1/DTD/svg11.dtd"><svg width="100%" height="100%" viewBox="0 0 33 51" version="1.1" xmlns="http://www.w3.org/2000/svg" xmlns:xlink="http://www.w3.org/1999/xlink" xml:space="preserve" xmlns:serif="http://www.serif.com/" style="fill-rule:evenodd;clip-rule:evenodd;stroke-linecap:round;stroke-linejoin:round;"><g><path d="M19.5,26.1c-0.467,-1.067 -1.117,-1.6 -1.95,-1.6c-0.7,0 -1.367,0.533 -2,1.6c-0.533,0.933 -0.8,1.75 -0.8,2.45c0,1.2 0.55,1.8 1.65,1.8c0.833,0 1.633,-0.4 2.4,-1.2c0.2,0.367 0.3,0.717 0.3,1.05c0,1.767 -1.467,3.167 -4.4,4.2c-2.267,0.8 -4.583,1.2 -6.95,1.2c1.167,0.4 1.967,0.65 2.4,0.75c0.8,0.2 1.633,0.3 2.5,0.3c2.4,-0 4.267,-0.85 5.6,-2.55c1.167,-1.467 1.75,-3.3 1.75,-5.5c0,-0.867 -0.167,-1.7 -0.5,-2.5Zm-2.6,2.4l-0.9,-0.4c0.233,-0.567 0.483,-1.067 0.75,-1.5c0.833,0.333 1.25,0.733 1.25,1.2c0,0.2 -0.117,0.367 -0.35,0.5c-0.267,0.133 -0.517,0.2 -0.75,0.2Z" style="fill:#f00;"/><path d="M17.65,16.1c-0.2,-0.133 -0.4,-0.2 -0.6,-0.2c-0.433,-0 -1.1,0.317 -2,0.95c-0.9,0.6 -1.35,1.083 -1.35,1.45c-0,0.133 0.117,0.35 0.35,0.65c0.2,0.3 0.3,0.533 0.3,0.7c0,0.067 -0.033,0.2 -0.1,0.4c-0.067,0.2 -0.1,0.35 -0.1,0.45c-0,0.1 0.017,0.217 0.05,0.35c1.2,-0.833 2.25,-1.25 3.15,-1.25c0.767,0 1.167,-0.017 1.2,-0.05c0.2,-0.267 0.4,-0.55 0.6,-0.85c-0.167,-0 -0.45,0.017 -0.85,0.05l-0.85,0c-1.067,0 -1.9,-0.2 -2.5,-0.6c0.333,-0.7 0.783,-1.05 1.35,-1.05c0.133,0 0.333,0.05 0.6,0.15c0.233,0.067 0.417,0.1 0.55,0.1c0.3,0 0.45,-0.25 0.45,-0.75c-0,-0.167 -0.083,-0.333 -0.25,-0.5Z" style="fill:#f00;"/><path d="M17.25,8.75c0,-1.1 -0.45,-1.65 -1.35,-1.65c-0.667,0 -1.25,0.383 -1.75,1.15c-0.433,0.733 -0.65,1.417 -0.65,2.05c0,0.567 0.417,1.15 1.25,1.75c-1.533,1.333 -2.967,2.35 -4.3,3.05c0.467,0.167 0.85,0.25 1.15,0.25c1.133,0 2.483,-0.933 4.05,-2.8c0.633,0.433 1.167,0.767 1.6,1l0.15,-1.9c-0.333,-0.267 -0.6,-0.467 -0.8,-0.6c0.433,-0.967 0.65,-1.733 0.65,-2.3Zm-1.25,1.15c0,0.167 -0.033,0.367 -0.1,0.6c-0.9,-0.467 -1.35,-0.933 -1.35,-1.4c0.033,-0.2 0.15,-0.317 0.35,-0.35c0.733,0.1 1.1,0.483 1.1,1.15Z" style="fill:#f00;"/><path id="Layer0_0_6_STROKES" d="M-97.5,-49.65l-5.5,3.2m6.4,-0.95l-5.5,3.15m3.35,34.7l-5.45,3.15m4.6,-5.4l-5.5,3.15m66.9,-66.05l-5.45,3.15m4.6,-5.4l-5.5,3.2m2.65,45.85l-5.4,3.1m4.5,-5.35l-5.5,3.15m117.35,-21.3l-5.5,3.15m4.05,36.2l-5.5,3.15m54.35,-22.75l-5.5,3.15m7.85,-50.4l-5.45,3.15m-42.25,106.65l-5.5,3.15m55.65,-26.65l-5.5,3.15m-152.35,-1.25l-5.5,3.15m4.65,-5.4l-5.5,3.2m-54.15,20.5l-5.5,3.15m4.6,-5.4l-5.45,3.2" style="fill:none;fill-rule:nonzero;stroke:#f00;stroke-width:1.7px;"/></g></svg>