<?xml version="1.0" encoding="UTF-8" standalone="no"?><!DOCTYPE svg PUBLIC "-//W3C//DTD SVG 1.1//EN" "http://www.w3.org/Graphics/SVG/1.1/DTD/svg11.dtd"><svg width="100%" height="100%" viewBox="0 0 33 39" version="1.1" xmlns="http://www.w3.org/2000/svg" xmlns:xlink="http://www.w3.org/1999/xlink" xml:space="preserve" xmlns:serif="http://www.serif.com/" style="fill-rule:evenodd;clip-rule:evenodd;stroke-linecap:round;stroke-linejoin:round;"><g><path d="M13.1,29.9c-0.133,0.333 -0.2,0.617 -0.2,0.85c-0,0.233 0.033,0.55 0.1,0.95c1.9,-1.567 3.317,-2.35 4.25,-2.35c0.167,0 0.433,0.067 0.8,0.2c0.167,-0.1 0.367,-0.4 0.6,-0.9c0.133,-0.367 0.267,-0.733 0.4,-1.1l-1.45,0c-2.3,0 -3.45,-0.4 -3.45,-1.2c-0,-0.267 0.2,-0.583 0.6,-0.95c0.367,-0.367 0.667,-0.55 0.9,-0.55c0.033,0 0.2,0.067 0.5,0.2c0.3,0.1 0.533,0.15 0.7,0.15c0.6,-0 0.9,-0.333 0.9,-1c0,-0.233 -0.167,-0.483 -0.5,-0.75c-0.333,-0.267 -0.617,-0.4 -0.85,-0.4c-1.3,0 -2.633,1.317 -4,3.95c-0,0.4 0.15,0.867 0.45,1.4c0.3,0.5 0.45,0.833 0.45,1c0,0.033 -0.067,0.2 -0.2,0.5Z" style="fill:#f00;"/><path d="M13.6,14.05c-0.567,0.767 -0.85,1.517 -0.85,2.25c0,0.6 0.533,1.233 1.6,1.9c-1.967,1.5 -3.817,2.617 -5.55,3.35c0.6,0.2 1.1,0.3 1.5,0.3c1.433,0 3.167,-1.033 5.2,-3.1c0.8,0.5 1.483,0.867 2.05,1.1l0.2,-2.1c-0.433,-0.3 -0.767,-0.517 -1,-0.65c0.533,-1.067 0.8,-1.9 0.8,-2.5c0,-1.233 -0.583,-1.85 -1.75,-1.85c-0.833,-0 -1.567,0.433 -2.2,1.3Zm0.45,0.9c0.1,-0.2 0.267,-0.333 0.5,-0.4c0.933,0.133 1.4,0.567 1.4,1.3c-0,0.2 -0.05,0.417 -0.15,0.65c-1.167,-0.533 -1.75,-1.05 -1.75,-1.55Z" style="fill:#f00;"/><path id="Layer0_0_4_STROKES" d="M-36.15,17.2l-7.5,4.35m-52.55,1.5l-7.55,4.35m9,-1.65l-7.55,4.35m64.7,-15.6l-7.5,4.35m115.3,5.5l-7.55,4.35m56.9,-14.25l-7.5,4.35" style="fill:none;fill-rule:nonzero;stroke:#f00;stroke-width:2px;"/></g></svg>