<?xml version="1.0" encoding="UTF-8" standalone="no"?><!DOCTYPE svg PUBLIC "-//W3C//DTD SVG 1.1//EN" "http://www.w3.org/Graphics/SVG/1.1/DTD/svg11.dtd"><svg width="100%" height="100%" viewBox="0 0 41 39" version="1.1" xmlns="http://www.w3.org/2000/svg" xmlns:xlink="http://www.w3.org/1999/xlink" xml:space="preserve" xmlns:serif="http://www.serif.com/" style="fill-rule:evenodd;clip-rule:evenodd;stroke-linejoin:round;stroke-miterlimit:2;"><g><path d="M21.1,24.25c0.033,0 0.2,0.067 0.5,0.2c0.3,0.1 0.533,0.15 0.7,0.15c0.6,0 0.9,-0.333 0.9,-1c-0,-0.233 -0.167,-0.483 -0.5,-0.75c-0.333,-0.267 -0.617,-0.4 -0.85,-0.4c-1.3,-0 -2.633,1.317 -4,3.95c-0,0.4 0.15,0.867 0.45,1.4c0.3,0.5 0.45,0.833 0.45,1c0,0.033 -0.067,0.2 -0.2,0.5c-0.133,0.333 -0.2,0.617 -0.2,0.85c-0,0.233 0.033,0.55 0.1,0.95c1.9,-1.567 3.317,-2.35 4.25,-2.35c0.167,0 0.433,0.067 0.8,0.2c0.167,-0.1 0.367,-0.4 0.6,-0.9c0.133,-0.367 0.267,-0.733 0.4,-1.1l-1.45,-0c-2.3,-0 -3.45,-0.4 -3.45,-1.2c-0,-0.267 0.2,-0.583 0.6,-0.95c0.367,-0.367 0.667,-0.55 0.9,-0.55Z" style="fill:#f00;"/><path d="M19.4,14.55c-0.3,0.567 -0.45,1.283 -0.45,2.15c-0,1.367 0.5,2.05 1.5,2.05c0.567,0 1.067,-0.283 1.5,-0.85c0.4,-0.567 0.6,-1.217 0.6,-1.95c0,-0.6 -0.15,-1.15 -0.45,-1.65c-0.333,-0.533 -0.75,-0.8 -1.25,-0.8c-0.633,0 -1.117,0.35 -1.45,1.05Zm0,1.5c0,-0.733 0.283,-1.1 0.85,-1.1c0.233,-0 0.55,0.167 0.95,0.5c0.4,0.333 0.6,0.65 0.6,0.95c0,0.433 -0.367,0.65 -1.1,0.65c-0.867,0 -1.3,-0.333 -1.3,-1Z" style="fill:#f00;"/></g></svg>