<?xml version="1.0" encoding="UTF-8" standalone="no"?><!DOCTYPE svg PUBLIC "-//W3C//DTD SVG 1.1//EN" "http://www.w3.org/Graphics/SVG/1.1/DTD/svg11.dtd"><svg width="100%" height="100%" viewBox="0 0 63 69" version="1.1" xmlns="http://www.w3.org/2000/svg" xmlns:xlink="http://www.w3.org/1999/xlink" xml:space="preserve" xmlns:serif="http://www.serif.com/" style="fill-rule:evenodd;clip-rule:evenodd;stroke-linejoin:round;stroke-miterlimit:2;"><g><path d="M11.7,21.05c3.033,5.5 5.267,10.2 6.7,14.1c1.967,5.4 2.95,10.483 2.95,15.25c1.333,-2.467 2,-5.967 2,-10.5c0,-4.433 -0.75,-8.783 -2.25,-13.05c3.367,-1.033 5.583,-2.033 6.65,-3c1.567,-1.433 2.35,-3.733 2.35,-6.9c0,-0.567 -0.067,-1.317 -0.2,-2.25c-0.2,-1.3 -0.317,-2.067 -0.35,-2.3c-0.7,0.6 -1.4,1.583 -2.1,2.95c-0.733,1.433 -1.333,2.383 -1.8,2.85c-0.9,0.833 -2.133,1.25 -3.7,1.25c-3.133,-0 -5.883,-2.533 -8.25,-7.6l-2,9.2Z" style="fill:#f00;"/><path d="M55.05,35l-4.95,-4.75l-3.3,6.1l5,4.5l3.25,-5.85Z" style="fill:#f00;"/></g></svg>