<?xml version="1.0" encoding="UTF-8" standalone="no"?><!DOCTYPE svg PUBLIC "-//W3C//DTD SVG 1.1//EN" "http://www.w3.org/Graphics/SVG/1.1/DTD/svg11.dtd"><svg width="100%" height="100%" viewBox="0 0 115 69" version="1.1" xmlns="http://www.w3.org/2000/svg" xmlns:xlink="http://www.w3.org/1999/xlink" xml:space="preserve" xmlns:serif="http://www.serif.com/" style="fill-rule:evenodd;clip-rule:evenodd;stroke-linejoin:round;stroke-miterlimit:2;"><g><path d="M63.4,21.45l-0.85,-8.8c-2.7,2.1 -5.083,5.783 -7.15,11.05c-1.5,4.267 -2.983,8.517 -4.45,12.75c-1.4,-4.267 -2.8,-8.55 -4.2,-12.85c-1.933,-5.367 -4.233,-9.083 -6.9,-11.15l-1.05,10.05c4.867,5.833 8.8,15.3 11.8,28.4c3.1,-12 7.367,-21.817 12.8,-29.45Z" style="fill:#f00;"/><path d="M11.65,21.05c3.033,5.5 5.267,10.2 6.7,14.1c1.967,5.4 2.95,10.483 2.95,15.25c1.333,-2.467 2,-5.967 2,-10.5c-0,-4.433 -0.75,-8.783 -2.25,-13.05c3.367,-1.033 5.583,-2.033 6.65,-3c1.567,-1.433 2.35,-3.733 2.35,-6.9c-0,-0.567 -0.067,-1.317 -0.2,-2.25c-0.2,-1.3 -0.317,-2.067 -0.35,-2.3c-0.7,0.6 -1.4,1.583 -2.1,2.95c-0.733,1.433 -1.333,2.383 -1.8,2.85c-0.9,0.833 -2.133,1.25 -3.7,1.25c-3.133,-0 -5.883,-2.533 -8.25,-7.6l-2,9.2Z" style="fill:#f00;"/><path d="M87.65,34c-0.8,-4.067 -1.6,-8.117 -2.4,-12.15c-1.4,-6.2 -3.1,-9.3 -5.1,-9.3c-2.633,0 -4.767,1.817 -6.4,5.45c-1.333,2.967 -2,5.95 -2,8.95c0,4.533 2.183,6.8 6.55,6.8c1.433,0 2.95,-0.467 4.55,-1.4c0.7,1.5 1.65,4.417 2.85,8.75c0.933,3.333 2.433,6.55 4.5,9.65l1.7,-8.5c-2.233,-3.767 -3.65,-6.517 -4.25,-8.25Zm-7.7,-12.65c0.1,0.133 0.333,0.517 0.7,1.15c0.3,0.633 0.45,0.983 0.45,1.05l0,2.6c-0.9,0.167 -1.5,0.25 -1.8,0.25c-0.567,-0 -1.333,-0.217 -2.3,-0.65c-1.033,-0.467 -1.55,-0.917 -1.55,-1.35c0,-0.533 0.367,-1.333 1.1,-2.4c0.733,-1.033 1.367,-1.55 1.9,-1.55c0.533,-0 1.033,0.3 1.5,0.9Z" style="fill:#f00;"/></g></svg>