<?xml version="1.0" encoding="UTF-8" standalone="no"?><!DOCTYPE svg PUBLIC "-//W3C//DTD SVG 1.1//EN" "http://www.w3.org/Graphics/SVG/1.1/DTD/svg11.dtd"><svg width="100%" height="100%" viewBox="0 0 100 69" version="1.1" xmlns="http://www.w3.org/2000/svg" xmlns:xlink="http://www.w3.org/1999/xlink" xml:space="preserve" xmlns:serif="http://www.serif.com/" style="fill-rule:evenodd;clip-rule:evenodd;stroke-linejoin:round;stroke-miterlimit:2;"><g><path d="M47.4,21.2c1.8,3.433 3.233,5.983 4.3,7.65c3.467,6.667 5.717,13.95 6.75,21.85c0.233,-1.633 0.483,-3.25 0.75,-4.85c0.267,-1.933 0.4,-3.533 0.4,-4.8c-0,-8.9 -3.4,-18.45 -10.2,-28.65c-0.3,2.133 -0.967,5.067 -2,8.8Z" style="fill:#f00;"/><path d="M89.45,45.85c0.267,-1.933 0.4,-3.533 0.4,-4.8c-0,-8.9 -3.4,-18.45 -10.2,-28.65c-0.3,2.133 -0.967,5.067 -2,8.8c1.8,3.433 3.233,5.983 4.3,7.65c3.467,6.667 5.717,13.95 6.75,21.85c0.233,-1.633 0.483,-3.25 0.75,-4.85Z" style="fill:#f00;"/><path d="M15.45,11.75l-2.5,9.4c2.833,7.333 4.767,13.25 5.8,17.75c0.2,0.8 0.417,2.8 0.65,6c0.2,2.567 0.583,4.45 1.15,5.65c1.7,-1.733 2.55,-5.867 2.55,-12.4c-0,-3.6 -0.383,-6.6 -1.15,-9c0.5,-0.433 1.417,-1.033 2.75,-1.8c1.167,-0.733 2.05,-1.4 2.65,-2c1.567,1.133 2.8,1.7 3.7,1.7c2.267,0 4.067,-1.317 5.4,-3.95c1.1,-2.133 1.65,-4.45 1.65,-6.95c-0,-1.5 -0.367,-2.5 -1.1,-3c-0.533,1.3 -1.067,2.6 -1.6,3.9c-0.8,1.4 -1.867,2.1 -3.2,2.1c-1.333,-0 -2.3,-0.717 -2.9,-2.15c-0.367,-1.267 -0.733,-2.55 -1.1,-3.85c-0.533,1.533 -1.067,3.067 -1.6,4.6c-0.833,1.867 -1.95,2.8 -3.35,2.8c-1.967,0 -3.65,-1.033 -5.05,-3.1c-0.7,-1 -1.617,-2.9 -2.75,-5.7Z" style="fill:#f00;"/></g></svg>