<?xml version="1.0" encoding="UTF-8" standalone="no"?><!DOCTYPE svg PUBLIC "-//W3C//DTD SVG 1.1//EN" "http://www.w3.org/Graphics/SVG/1.1/DTD/svg11.dtd"><svg width="100%" height="100%" viewBox="0 0 36 61" version="1.1" xmlns="http://www.w3.org/2000/svg" xmlns:xlink="http://www.w3.org/1999/xlink" xml:space="preserve" xmlns:serif="http://www.serif.com/" style="fill-rule:evenodd;clip-rule:evenodd;stroke-linejoin:round;stroke-miterlimit:2;"><g><path d="M23.9,45.1c2.767,-1.567 4.483,-3.6 5.15,-6.1c-2.433,0.933 -5.583,1.4 -9.45,1.4c-3.533,0 -5.3,-0.8 -5.3,-2.4c-0,-0.533 0.95,-2.05 2.85,-4.55c1.9,-2.5 2.85,-4.3 2.85,-5.4c-0,-0.733 -0.817,-1.767 -2.45,-3.1c-2.067,-1.7 -3.15,-2.617 -3.25,-2.75c0.5,-1.233 1.333,-2.233 2.5,-3c1.133,-0.8 2.383,-1.2 3.75,-1.2c0.567,-2.8 1.033,-4.883 1.4,-6.25c-2.8,2.233 -5.3,4.517 -7.5,6.85c-3.3,3.567 -4.95,6.333 -4.95,8.3c-0,1.067 0.65,2.15 1.95,3.25c1.167,0.767 2.3,1.533 3.4,2.3c-3.967,5.433 -5.95,8.833 -5.95,10.2c-0,1.567 0.833,2.767 2.5,3.6c1.3,0.6 2.833,0.9 4.6,0.9c2.8,0 5.433,-0.683 7.9,-2.05Z" style="fill:#f00;"/></g></svg>