<?xml version="1.0" encoding="UTF-8" standalone="no"?><!DOCTYPE svg PUBLIC "-//W3C//DTD SVG 1.1//EN" "http://www.w3.org/Graphics/SVG/1.1/DTD/svg11.dtd"><svg width="100%" height="100%" viewBox="0 0 36 61" version="1.1" xmlns="http://www.w3.org/2000/svg" xmlns:xlink="http://www.w3.org/1999/xlink" xml:space="preserve" xmlns:serif="http://www.serif.com/" style="fill-rule:evenodd;clip-rule:evenodd;stroke-linejoin:round;stroke-miterlimit:2;"><g><path d="M20.75,16.1c-2.167,-0 -4.2,2.8 -6.1,8.4c-1.633,4.7 -2.45,8.467 -2.45,11.3c0,6.7 2.283,10.05 6.85,10.05c3.067,0 5.467,-1.467 7.2,-4.4c1.4,-2.433 2.1,-5.3 2.1,-8.6c0,-2.767 -0.65,-6.017 -1.95,-9.75c-1.567,-4.667 -3.45,-7 -5.65,-7Zm-0.75,9.35c0.3,-0 0.883,0.35 1.75,1.05c2.533,2.033 3.8,4.383 3.8,7.05c-0,1.233 -0.667,2.2 -2,2.9c-1.1,0.6 -2.317,0.9 -3.65,0.9c-1.3,0 -2.417,-0.25 -3.35,-0.75c-1.2,-0.6 -1.8,-1.483 -1.8,-2.65c0,-0.9 0.667,-2.517 2,-4.85c1.367,-2.433 2.45,-3.65 3.25,-3.65Z" style="fill:#f00;"/></g></svg>