<?xml version="1.0" encoding="UTF-8" standalone="no"?><!DOCTYPE svg PUBLIC "-//W3C//DTD SVG 1.1//EN" "http://www.w3.org/Graphics/SVG/1.1/DTD/svg11.dtd"><svg width="100%" height="100%" viewBox="0 0 45 61" version="1.1" xmlns="http://www.w3.org/2000/svg" xmlns:xlink="http://www.w3.org/1999/xlink" xml:space="preserve" xmlns:serif="http://www.serif.com/" style="fill-rule:evenodd;clip-rule:evenodd;stroke-linejoin:round;stroke-miterlimit:2;"><g><path d="M11.4,10.8l-0,5.15c-0,4.133 2.25,6.2 6.75,6.2c0.567,0 1.4,-0.067 2.5,-0.2c1.1,-0.167 1.917,-0.25 2.45,-0.25l1,0.15c0,3.7 0.7,8.083 2.1,13.15c1.567,5.7 3.417,9.617 5.55,11.75c0.1,-0.733 0.467,-2.133 1.1,-4.2c0.567,-1.833 0.85,-3.217 0.85,-4.15c0,-0.1 -0.467,-0.867 -1.4,-2.3c-1.033,-1.533 -1.617,-2.45 -1.75,-2.75c-1.067,-2.3 -1.95,-5.683 -2.65,-10.15c-0.367,-2.3 -0.783,-5.867 -1.25,-10.7c-3.4,0.933 -6.133,1.4 -8.2,1.4c-2.167,0 -3.55,-0.133 -4.15,-0.4c-0.467,-0.233 -1.433,-1.133 -2.9,-2.7Z" style="fill:#f00;"/></g></svg>