<?xml version="1.0" encoding="UTF-8" standalone="no"?><!DOCTYPE svg PUBLIC "-//W3C//DTD SVG 1.1//EN" "http://www.w3.org/Graphics/SVG/1.1/DTD/svg11.dtd"><svg width="100%" height="100%" viewBox="0 0 41 61" version="1.1" xmlns="http://www.w3.org/2000/svg" xmlns:xlink="http://www.w3.org/1999/xlink" xml:space="preserve" xmlns:serif="http://www.serif.com/" style="fill-rule:evenodd;clip-rule:evenodd;stroke-linejoin:round;stroke-miterlimit:2;"><g><path d="M19.5,9.15c-2.633,0 -4.767,1.817 -6.4,5.45c-1.333,2.967 -2,5.95 -2,8.95c-0,4.533 2.183,6.8 6.55,6.8c1.433,-0 2.95,-0.467 4.55,-1.4c0.7,1.5 1.65,4.417 2.85,8.75c0.933,3.333 2.433,6.55 4.5,9.65l1.7,-8.5c-2.233,-3.767 -3.65,-6.517 -4.25,-8.25c-0.8,-4.067 -1.6,-8.117 -2.4,-12.15c-1.4,-6.2 -3.1,-9.3 -5.1,-9.3Zm0.95,11l0,2.6c-0.9,0.167 -1.5,0.25 -1.8,0.25c-0.567,-0 -1.333,-0.217 -2.3,-0.65c-1.033,-0.467 -1.55,-0.917 -1.55,-1.35c-0,-0.533 0.367,-1.333 1.1,-2.4c0.733,-1.033 1.367,-1.55 1.9,-1.55c0.533,0 1.033,0.3 1.5,0.9c0.1,0.133 0.333,0.517 0.7,1.15c0.3,0.633 0.45,0.983 0.45,1.05Z" style="fill:#f00;"/></g></svg>