<?xml version="1.0" encoding="UTF-8" standalone="no"?><!DOCTYPE svg PUBLIC "-//W3C//DTD SVG 1.1//EN" "http://www.w3.org/Graphics/SVG/1.1/DTD/svg11.dtd"><svg width="100%" height="100%" viewBox="0 0 497 81" version="1.1" xmlns="http://www.w3.org/2000/svg" xmlns:xlink="http://www.w3.org/1999/xlink" xml:space="preserve" xmlns:serif="http://www.serif.com/" style="fill-rule:evenodd;clip-rule:evenodd;stroke-linecap:round;stroke-linejoin:round;"><g><path d="M350.25,45.65c-1.967,1.5 -2.95,3.233 -2.95,5.2l0,0.6l2.05,18.85c0.333,-0.4 0.65,-0.95 0.95,-1.65c0.367,-0.767 0.533,-1.35 0.5,-1.75l-1.5,-16.65c0.833,-1.433 2.083,-2.15 3.75,-2.15l0.7,0.25c0,1.1 0.317,2.2 0.95,3.3c0.733,1.367 1.65,2.05 2.75,2.05c1.833,-0 2.75,-1.567 2.75,-4.7c1.7,1 2.95,1.5 3.75,1.5l57.55,0c0.867,0 1.967,-0.567 3.3,-1.7c0.933,0.367 1.867,0.733 2.8,1.1c1.1,0.4 2.067,0.6 2.9,0.6c1.667,0 3.367,-0.5 5.1,-1.5c0.7,0.3 1.383,0.617 2.05,0.95c0.867,0.367 1.583,0.55 2.15,0.55c1.033,0 2.067,-0.5 3.1,-1.5c1.333,1 2.2,1.5 2.6,1.5l4.7,0l0,-0.05c2.71,-0.095 4.71,-0.612 6,-1.55c1.567,-1.2 2.35,-3.217 2.35,-6.05c-0,-0.8 -0.4,-2.6 -1.2,-5.4c-0.833,1.7 -1.517,2.983 -2.05,3.85c0.8,1.367 1.3,2.367 1.5,3c-0.796,0.857 -2.996,1.307 -6.6,1.35l0,-0.05l-1.75,0c-2.467,0 -3.7,-0.517 -3.7,-1.55c-0,-0.1 0.067,-0.3 0.2,-0.6c0.1,-0.3 0.15,-0.533 0.15,-0.7c0,-0.433 -0.117,-0.933 -0.35,-1.5c-0.567,0.967 -1.117,1.933 -1.65,2.9c-0.8,1.067 -1.767,1.6 -2.9,1.6c-1.433,-0 -2.4,-0.35 -2.9,-1.05c0.367,-1.2 0.55,-2.35 0.55,-3.45c-0.833,1.1 -1.65,2.183 -2.45,3.25c-0.9,0.833 -2.317,1.25 -4.25,1.25c-1.733,-0 -2.967,-0.233 -3.7,-0.7c-0.833,-0.533 -1.25,-1.517 -1.25,-2.95c-1.367,1.533 -2.483,2.517 -3.35,2.95c-0.8,0.367 -1.967,0.55 -3.5,0.55l-53,0c-2.198,-0.046 -3.748,-0.196 -4.65,-0.45c-0.7,-0.233 -1.333,-0.717 -1.9,-1.45c-0.767,-1 -1.617,-1.817 -2.55,-2.45c-0.5,0.4 -0.817,0.817 -0.95,1.25c0.1,0.2 0.1,0.35 -0,0.45c-2.367,0.533 -4.383,1.433 -6.05,2.7Z"/><path d="M47.4,45.65c-1.967,1.5 -2.95,3.233 -2.95,5.2l-0,0.6l2.05,18.85c0.333,-0.4 0.65,-0.95 0.95,-1.65c0.367,-0.767 0.533,-1.35 0.5,-1.75l-1.5,-16.65c0.833,-1.433 2.083,-2.15 3.75,-2.15l0.7,0.25c0,1.1 0.317,2.2 0.95,3.3c0.733,1.367 1.65,2.05 2.75,2.05c1.833,-0 2.75,-1.567 2.75,-4.7c1.7,1 2.95,1.5 3.75,1.5l5.95,0c1.1,0 2,-0.35 2.7,-1.05c0.067,-0.1 0.583,-0.867 1.55,-2.3c0.5,0.733 1.2,1.45 2.1,2.15c1.067,0.8 1.983,1.2 2.75,1.2l7.35,-0c1.567,-0 3.067,-0.35 4.5,-1.05c0.533,-0.267 1.667,-0.983 3.4,-2.15c1.3,-0.9 2.433,-1.467 3.4,-1.7c0.833,-0.167 1.85,-0.283 3.05,-0.35c1.033,-0.033 2.083,-0.05 3.15,-0.05c0.633,-1.433 1.133,-2.983 1.5,-4.65c-2.533,0 -4.933,-0.383 -7.2,-1.15c-1.033,-0.367 -2.617,-1.083 -4.75,-2.15c-1.533,-0.767 -2.717,-1.15 -3.55,-1.15c-1.533,0 -2.783,0.667 -3.75,2c-0.6,0.8 -1.183,2.05 -1.75,3.75c0.633,-0.267 1.267,-0.533 1.9,-0.8c0.733,-0.333 1.383,-0.5 1.95,-0.5c0.767,-0 1.9,0.333 3.4,1c0.067,0.033 1.15,0.567 3.25,1.6c-1.5,1.033 -2.8,1.733 -3.9,2.1c-0.933,0.3 -2.083,0.45 -3.45,0.45l-2.25,-0c-0.084,-0.005 -0.167,-0.022 -0.25,-0.05l0,-0.05l-2.7,-0l-0,0.1l-0.05,-0c-1.1,0.067 -1.867,0.1 -2.3,0.1c-1.433,-0 -2.467,-0.25 -3.1,-0.75c-0.733,-0.633 -1.133,-1.783 -1.2,-3.45c-1.3,1.9 -2.2,3.033 -2.7,3.4c-0.6,0.467 -1.583,0.7 -2.95,0.7l-2.1,-0c-0.084,-0.005 -0.167,-0.022 -0.25,-0.05l0,-0.05c-2.9,-0 -4.883,-0.15 -5.95,-0.45c-0.7,-0.233 -1.333,-0.717 -1.9,-1.45c-0.767,-1 -1.617,-1.817 -2.55,-2.45c-0.5,0.4 -0.817,0.817 -0.95,1.25c0.1,0.2 0.1,0.35 -0,0.45c-2.367,0.533 -4.383,1.433 -6.05,2.7Z"/><path d="M453.5,61.1l3.35,-2.8l-3.35,-2.9l-3.25,2.9l3.25,2.8Z"/><path d="M252.1,20.75l-0.05,-0.6c-1.667,1 -3,2.683 -4,5.05c0.167,0.633 0.75,1.467 1.75,2.5c0.667,3.533 1,8.867 1,16c0,1.367 -1.483,2.033 -4.45,2l-1.25,-0.05l0,-0.05l-1.75,0c-0.925,-0.011 -1.475,-0.028 -1.65,-0.05c-0.867,-0.133 -1.8,-0.633 -2.8,-1.5c-0.2,1.233 -0.533,2.3 -1,3.2c0.033,0.067 0.483,0.683 1.35,1.85c0.767,1.033 1.15,1.6 1.15,1.7c0,1.133 -1.467,2.6 -4.4,4.4c-2.833,1.733 -4.967,2.6 -6.4,2.6c-0.633,-0 -1.483,-0.1 -2.55,-0.3c-0.833,-0.2 -1.683,-0.383 -2.55,-0.55c1.1,1.067 2.367,1.95 3.8,2.65c1.633,0.8 3.167,1.2 4.6,1.2c2,-0 4.033,-1.267 6.1,-3.8c1.8,-2.233 2.833,-4.3 3.1,-6.2c0.333,-0.2 0.733,-0.3 1.2,-0.3l4.3,-0c2.133,-0 3.683,-1 4.65,-3c0.7,-1.433 1.05,-3.233 1.05,-5.4l0,-4.5c0,-0.833 -0.1,-2.067 -0.3,-3.7c-0.167,-1.667 -0.25,-2.917 -0.25,-3.75c0,-0.4 0.25,-1.067 0.75,-2c0.5,-0.933 0.75,-1.7 0.75,-2.3c0,-0.233 -0.417,-0.717 -1.25,-1.45c-0.867,-0.733 -1.3,-1.383 -1.3,-1.95c0,-0.167 0.083,-0.45 0.25,-0.85c0.133,-0.367 0.183,-0.65 0.15,-0.85Z"/><path d="M130.75,25.85c0,-0.233 -0.417,-0.717 -1.25,-1.45c-0.867,-0.733 -1.3,-1.383 -1.3,-1.95c0,-0.167 0.083,-0.45 0.25,-0.85c0.133,-0.367 0.183,-0.65 0.15,-0.85l-0.05,-0.6c-1.667,1 -3,2.683 -4,5.05c0.167,0.633 0.75,1.467 1.75,2.5c0.667,3.533 1,8.867 1,16c0,1.367 -1.483,2.033 -4.45,2l-1.25,-0.05l0,-0.05l-1.75,0c-0.925,-0.011 -1.475,-0.028 -1.65,-0.05c-0.867,-0.133 -1.8,-0.633 -2.8,-1.5c-0.2,1.233 -0.533,2.3 -1,3.2c0.033,0.067 0.483,0.683 1.35,1.85c0.767,1.033 1.15,1.6 1.15,1.7c0,1.133 -1.467,2.6 -4.4,4.4c-2.833,1.733 -4.967,2.6 -6.4,2.6c-0.633,-0 -1.483,-0.1 -2.55,-0.3c-0.833,-0.2 -1.683,-0.383 -2.55,-0.55c1.1,1.067 2.367,1.95 3.8,2.65c1.633,0.8 3.167,1.2 4.6,1.2c2,-0 4.033,-1.267 6.1,-3.8c1.8,-2.233 2.833,-4.3 3.1,-6.2c0.333,-0.2 0.733,-0.3 1.2,-0.3l4.3,-0c2.133,-0 3.683,-1 4.65,-3c0.7,-1.433 1.05,-3.233 1.05,-5.4l0,-4.5c0,-0.833 -0.1,-2.067 -0.3,-3.7c-0.167,-1.667 -0.25,-2.917 -0.25,-3.75c0,-0.4 0.25,-1.067 0.75,-2c0.5,-0.933 0.75,-1.7 0.75,-2.3Z"/><path d="M72.3,57.6l-2.85,-2.5l-2.95,2.5l2.95,2.5l2.85,-2.5Z"/><path d="M78.1,57.6l-2.9,-2.5l-2.9,2.5l2.85,2.5l2.95,-2.5Z"/><path d="M264.4,20.6c-2,2.267 -3,3.633 -3,4.1l0.75,25.85c1.633,-1.167 2.45,-4.3 2.45,-9.4l-0.2,-20.55Z"/><path d="M140.9,20.6c-2,2.267 -3,3.633 -3,4.1l0.75,25.85c1.633,-1.167 2.45,-4.3 2.45,-9.4l-0.2,-20.55Z"/><path d="M329.15,50.55c1.633,-1.167 2.45,-4.3 2.45,-9.4l-0.2,-20.55c-2,2.267 -3,3.633 -3,4.1l0.75,25.85Z"/><path d="M160.1,46.3c-0.967,0.4 -1.8,1.583 -2.5,3.55c-0.6,1.633 -0.9,3.067 -0.9,4.3c0,4.967 2.85,7.45 8.55,7.45c3.833,0 6.95,-1.017 9.35,-3.05c2.367,-2.033 3.55,-4.717 3.55,-8.05l5.3,0l-0,-0.15l3.05,0c0.467,0 0.933,-0.233 1.4,-0.7c0.367,-0.4 0.717,-0.8 1.05,-1.2c2.367,2 4.6,3 6.7,3c0.867,-0 1.45,-0.233 1.75,-0.7c0.467,-0.733 0.8,-1.15 1,-1.25c1.167,0.567 1.983,0.85 2.45,0.85l2.05,0l-0,0.15l4.05,0c1.567,0 3.067,-0.35 4.5,-1.05c0.533,-0.267 1.667,-0.983 3.4,-2.15c1.3,-0.9 2.433,-1.467 3.4,-1.7c0.833,-0.167 1.85,-0.283 3.05,-0.35c1.033,-0.033 2.083,-0.05 3.15,-0.05c0.633,-1.433 1.133,-2.983 1.5,-4.65c-2.533,0 -4.933,-0.383 -7.2,-1.15c-1.033,-0.367 -2.617,-1.083 -4.75,-2.15c-1.533,-0.767 -2.717,-1.15 -3.55,-1.15c-1.533,0 -2.783,0.667 -3.75,2c-0.6,0.8 -1.183,2.05 -1.75,3.75c0.633,-0.267 1.267,-0.533 1.9,-0.8c0.733,-0.333 1.383,-0.5 1.95,-0.5c0.767,0 1.9,0.333 3.4,1c0.067,0.033 1.15,0.567 3.25,1.6c-1.5,1.033 -2.8,1.733 -3.9,2.1c-0.933,0.3 -2.083,0.45 -3.45,0.45l-2.25,-0c-0.366,-0.021 -0.716,-0.038 -1.05,-0.05l-0,-0.15c-2.667,-0 -4.683,-0.467 -6.05,-1.4c-0.5,-0.333 -1.283,-1.217 -2.35,-2.65c-0.7,-0.933 -1.617,-1.4 -2.75,-1.4c-0.9,-0 -2.1,0.8 -3.6,2.4c-1.6,1.7 -2.833,2.65 -3.7,2.85c-0.667,0.133 -2.2,0.2 -4.6,0.2l-0,0.15l-1.1,-0c-1.233,-0 -2.133,-0.15 -2.7,-0.45c-0.533,-0.3 -1.417,-1.117 -2.65,-2.45l-2.2,3.55c1.1,1.533 1.783,2.517 2.05,2.95c0.567,1.067 0.85,2.167 0.85,3.3c-0,1.567 -1.083,2.75 -3.25,3.55c-1.6,0.567 -3.45,0.85 -5.55,0.85c-5.533,-0 -8.3,-1.867 -8.3,-5.6c-0,-0.7 0.4,-2.383 1.2,-5.05Zm31.1,-1.85c-0,-0.233 0.75,-0.983 2.25,-2.25c0.567,0.6 1,1.333 1.3,2.2c0.433,1.167 0.65,1.8 0.65,1.9l-0,0.85c-0.767,-0.267 -1.583,-0.65 -2.45,-1.15c-1.167,-0.633 -1.75,-1.15 -1.75,-1.55Z"/><path d="M304.7,20.35c-2,1.367 -3,2.833 -3,4.4c0,1.9 0.217,4.783 0.65,8.65c0.433,3.867 0.65,6.75 0.65,8.65c0,1.6 -0.583,2.633 -1.75,3.1c-0.666,0.261 -1.833,0.411 -3.5,0.45l-0.35,0c-1.766,-0.033 -2.799,-0.1 -3.1,-0.2c-1.2,-0.467 -2.2,-2.467 -3,-6c-0.633,-2.767 -0.95,-5.1 -0.95,-7c-1.233,1.367 -1.85,2.233 -1.85,2.6l0.35,3.25c-2.8,1.267 -4.8,2.433 -6,3.5c-1.8,1.567 -2.7,3.433 -2.7,5.6c0,0.8 1.033,1.2 3.1,1.2c1.933,0 3.317,-0.15 4.15,-0.45c1.033,-0.4 2.083,-1.25 3.15,-2.55c0.467,1.033 0.95,2.083 1.45,3.15c0.7,1.2 1.617,1.8 2.75,1.8l5.25,0c1,0 1.9,-0.55 2.7,-1.65c1.3,-1.733 1.967,-2.617 2,-2.65c0.567,0.933 1.133,1.85 1.7,2.75c0.733,1.033 1.667,1.55 2.8,1.55l5.4,0c2.133,0 3.683,-1 4.65,-3c0.7,-1.433 1.05,-3.233 1.05,-5.4l0,-4.5c0,-0.833 -0.1,-2.067 -0.3,-3.7c-0.167,-1.667 -0.25,-2.917 -0.25,-3.75c0,-0.4 0.25,-1.067 0.75,-2c0.5,-0.933 0.75,-1.7 0.75,-2.3c0,-0.233 -0.417,-0.717 -1.25,-1.45c-0.867,-0.733 -1.3,-1.383 -1.3,-1.95c0,-0.167 0.083,-0.45 0.25,-0.85c0.133,-0.367 0.183,-0.65 0.15,-0.85l-0.05,-0.6c-1.667,1 -3,2.683 -4,5.05c0.167,0.633 0.75,1.467 1.75,2.5c0.667,3.533 1,8.867 1,16c0,1.367 -1.483,2.033 -4.45,2l-1.2,-0.05l0,-0.05c-2.3,0 -3.933,-0.567 -4.9,-1.7c-0.867,-0.967 -1.3,-2.483 -1.3,-4.55c0,-2.367 -0.167,-5.533 -0.5,-9.5c-0.433,-4.8 -0.683,-7.967 -0.75,-9.5Zm-18.6,23.25c-0.567,0 -1.317,-0.133 -2.25,-0.4c1.9,-1.1 3.633,-1.967 5.2,-2.6c0.333,1.1 0.5,1.733 0.5,1.9c0,0.3 -0.5,0.567 -1.5,0.8c-0.8,0.2 -1.45,0.3 -1.95,0.3Z"/><path d="M164.05,38.8l3.3,2.8l3.3,-2.8l-3.3,-2.9l-3.3,2.9Z"/><path d="M434.8,24.6c-0.967,0 -1.717,0.367 -2.25,1.1c-0.4,0.633 -0.6,1.4 -0.6,2.3c0,1.467 0.733,2.2 2.2,2.2c0.867,-0 1.617,-0.3 2.25,-0.9c0.6,-0.6 0.9,-1.283 0.9,-2.05c0,-0.667 -0.217,-1.267 -0.65,-1.8c-0.5,-0.567 -1.117,-0.85 -1.85,-0.85Zm1.35,3.1c0,0.467 -0.533,0.7 -1.6,0.7c-1.3,-0 -1.95,-0.35 -1.95,-1.05c0,-0.8 0.417,-1.2 1.25,-1.2c0.367,-0 0.833,0.183 1.4,0.55c0.6,0.367 0.9,0.7 0.9,1Z"/><path d="M113.4,25.45c-0.433,-0 -0.65,-0.517 -0.65,-1.55l-0.35,0.05c-0.267,0.733 -0.4,1.183 -0.4,1.35c0,0.433 0.1,0.783 0.3,1.05c0.233,0.367 0.583,0.55 1.05,0.55c0.367,-0 0.733,-0.133 1.1,-0.4c0.333,-0.233 0.517,-0.517 0.55,-0.85c0.3,0.2 0.65,0.3 1.05,0.3c1.133,-0 1.7,-0.783 1.7,-2.35c0,-0.4 -0.083,-0.85 -0.25,-1.35l-0.35,0.15c0,1.367 -0.367,2.05 -1.1,2.05c-0.367,-0 -0.667,-0.45 -0.9,-1.35l-0.3,0.05c-0.167,0.7 -0.3,1.167 -0.4,1.4c-0.267,0.6 -0.617,0.9 -1.05,0.9Z"/><path d="M52.45,23.05c-0.967,0 -1.717,0.367 -2.25,1.1c-0.4,0.633 -0.6,1.4 -0.6,2.3c-0,1.467 0.733,2.2 2.2,2.2c0.867,-0 1.617,-0.3 2.25,-0.9c0.6,-0.6 0.9,-1.283 0.9,-2.05c-0,-0.667 -0.217,-1.267 -0.65,-1.8c-0.5,-0.567 -1.117,-0.85 -1.85,-0.85Zm-2.2,2.75c0,-0.8 0.417,-1.2 1.25,-1.2c0.367,0 0.833,0.183 1.4,0.55c0.6,0.367 0.9,0.7 0.9,1c0,0.467 -0.533,0.7 -1.6,0.7c-1.3,0 -1.95,-0.35 -1.95,-1.05Z"/><path d="M189.2,25.35c-0,0.367 -0.067,0.667 -0.2,0.9c1.1,-0.467 1.65,-1.083 1.65,-1.85c-0,-0.6 -0.233,-1.5 -0.7,-2.7c-0.5,-1.167 -0.75,-2.05 -0.75,-2.65c-0.967,0.567 -1.45,1.083 -1.45,1.55c-0,0.533 0.233,1.317 0.7,2.35c0.5,1.067 0.75,1.867 0.75,2.4Z"/><path d="M238.25,19.6l-0.3,0.05c-0.167,0.7 -0.3,1.167 -0.4,1.4c-0.267,0.6 -0.617,0.9 -1.05,0.9c-0.433,-0 -0.65,-0.517 -0.65,-1.55l-0.35,0.05c-0.267,0.733 -0.4,1.183 -0.4,1.35c0,0.433 0.1,0.783 0.3,1.05c0.233,0.367 0.583,0.55 1.05,0.55c0.367,-0 0.733,-0.133 1.1,-0.4c0.333,-0.233 0.517,-0.517 0.55,-0.85c0.3,0.2 0.65,0.3 1.05,0.3c1.133,-0 1.7,-0.783 1.7,-2.35c0,-0.4 -0.083,-0.85 -0.25,-1.35l-0.35,0.15c0,1.367 -0.367,2.05 -1.1,2.05c-0.367,-0 -0.667,-0.45 -0.9,-1.35Z"/><path d="M210.5,20.7c0.6,-0.6 0.9,-1.283 0.9,-2.05c-0,-0.667 -0.217,-1.267 -0.65,-1.8c-0.5,-0.567 -1.117,-0.85 -1.85,-0.85c-0.967,0 -1.717,0.367 -2.25,1.1c-0.4,0.633 -0.6,1.4 -0.6,2.3c0,1.467 0.733,2.2 2.2,2.2c0.867,0 1.617,-0.3 2.25,-0.9Zm-1.85,-0.9c-1.3,0 -1.95,-0.35 -1.95,-1.05c-0,-0.8 0.417,-1.2 1.25,-1.2c0.367,0 0.833,0.183 1.4,0.55c0.6,0.367 0.9,0.7 0.9,1c-0,0.467 -0.533,0.7 -1.6,0.7Z"/><path d="M305.75,12.65c0,-0.4 -0.083,-0.85 -0.25,-1.35l-0.35,0.15c0,1.367 -0.367,2.05 -1.1,2.05c-0.367,0 -0.667,-0.45 -0.9,-1.35l-0.3,0.05c-0.167,0.7 -0.3,1.167 -0.4,1.4c-0.267,0.6 -0.617,0.9 -1.05,0.9c-0.433,-0 -0.65,-0.517 -0.65,-1.55l-0.35,0.05c-0.267,0.733 -0.4,1.183 -0.4,1.35c0,0.433 0.1,0.783 0.3,1.05c0.233,0.367 0.583,0.55 1.05,0.55c0.367,-0 0.733,-0.133 1.1,-0.4c0.333,-0.233 0.517,-0.517 0.55,-0.85c0.3,0.2 0.65,0.3 1.05,0.3c1.133,-0 1.7,-0.783 1.7,-2.35Z"/><path id="Layer0_0_1_STROKES" d="M345.65,-126.25l-5.9,3.4m-10.15,44.75l-5.9,3.4m-45.55,-41.7l-5.9,3.4m33.75,34.9l-5.95,3.4m-59.25,85.65l-6.3,3.55m71.25,-8.25l-6.3,3.55m179.1,-131.55l-5.9,3.4m-78.9,47.45l-5.9,3.4m-164.55,-56.9l-5.9,3.45m-52.75,-0.8l-5.9,3.4m-66.25,-1.85l-5.9,3.4m54,44l-5.9,3.4m-16.95,83.1l-6.3,3.5m-37.95,-88.1l-5.9,3.4m102.45,134.05l-6.3,3.5m-71.7,-8.6l-6.3,3.5m91.55,142.1l-6.25,3.75m-19.55,48.95l-6.2,3.75m312.4,-197.35l-6.35,3.5m-89.25,-6.65l-6.3,3.55m-67.2,-7.85l-6.3,3.55m-36.6,141.45l-6.2,3.75m65.75,6.3l-6.2,3.75m30.65,-4.2l-6.2,3.8m36,-3.35l-6.25,3.75" style="fill:none;fill-rule:nonzero;stroke:#000;stroke-width:3px;"/></g></svg>