<?xml version="1.0" encoding="UTF-8" standalone="no"?><!DOCTYPE svg PUBLIC "-//W3C//DTD SVG 1.1//EN" "http://www.w3.org/Graphics/SVG/1.1/DTD/svg11.dtd"><svg width="100%" height="100%" viewBox="0 0 497 92" version="1.1" xmlns="http://www.w3.org/2000/svg" xmlns:xlink="http://www.w3.org/1999/xlink" xml:space="preserve" xmlns:serif="http://www.serif.com/" style="fill-rule:evenodd;clip-rule:evenodd;stroke-linecap:round;stroke-linejoin:round;"><g><path d="M66.6,44.8c-1.433,-0.733 -2.533,-1.1 -3.3,-1.1c-1.433,-0 -2.6,0.633 -3.5,1.9c-0.567,0.8 -1.117,2.033 -1.65,3.7c0.6,-0.267 1.183,-0.533 1.75,-0.8c0.7,-0.333 1.317,-0.5 1.85,-0.5c0.733,-0 1.783,0.333 3.15,1c0.067,-0 1.083,0.517 3.05,1.55c-1.4,1 -2.6,1.667 -3.6,2c-0.867,0.3 -1.95,0.45 -3.25,0.45l-2.3,-0l0,-0.1l-2.55,0l-0,0.1c-1.067,0.067 -1.783,0.1 -2.15,0.1c-1.367,-0 -2.333,-0.25 -2.9,-0.75c-0.7,-0.6 -1.083,-1.7 -1.15,-3.3c-1.233,1.833 -2.067,2.933 -2.5,3.3c-0.567,0.433 -1.5,0.65 -2.8,0.65l-1.95,-0c-0.084,-0.005 -0.167,-0.022 -0.25,-0.05l-0,-0.05c-2.733,-0 -4.583,-0.15 -5.55,-0.45c-0.667,-0.2 -1.267,-0.667 -1.8,-1.4c-0.7,-0.967 -1.5,-1.75 -2.4,-2.35c-0.433,0.4 -0.733,0.8 -0.9,1.2c0.133,0.2 0.133,0.35 -0,0.45c-2.2,0.5 -4.083,1.367 -5.65,2.6c-1.833,1.467 -2.75,3.133 -2.75,5l-0,0.6l1.9,18.25c0.333,-0.367 0.65,-0.883 0.95,-1.55c0.333,-0.733 0.483,-1.3 0.45,-1.7l-1.4,-16.15c0.767,-1.367 1.933,-2.05 3.5,-2.05l0.65,0.2c-0,1.067 0.283,2.15 0.85,3.25c0.7,1.3 1.567,1.95 2.6,1.95c1.733,-0 2.6,-1.533 2.6,-4.6c1.6,1 2.75,1.5 3.45,1.5l5.6,-0c1.033,-0 1.867,-0.333 2.5,-1c0.1,-0.1 0.6,-0.85 1.5,-2.25c0.467,0.733 1.117,1.433 1.95,2.1c1,0.767 1.867,1.15 2.6,1.15l6.85,-0c1.467,-0 2.867,-0.35 4.2,-1.05c0.467,-0.233 1.517,-0.917 3.15,-2.05c1.2,-0.867 2.267,-1.417 3.2,-1.65c0.767,-0.167 1.717,-0.283 2.85,-0.35c0.967,-0 1.95,-0.017 2.95,-0.05c0.6,-1.4 1.067,-2.9 1.4,-4.5c-2.4,-0 -4.65,-0.367 -6.75,-1.1c-0.967,-0.367 -2.45,-1.067 -4.45,-2.1Z"/><path d="M386.85,65.2l3.1,2.7l3.1,-2.7l-3.1,-2.8l-3.1,2.8Z"/><path d="M73.35,64.95l-3.1,-2.75l-3.1,2.75l3.1,2.75l3.1,-2.75Z"/><path d="M102.3,28.8l-0.05,-0.55c-1.6,0.967 -2.85,2.6 -3.75,4.9c0.133,0.633 0.667,1.433 1.6,2.4c0.633,3.433 0.95,8.6 0.95,15.5c0,1.333 -1.383,1.983 -4.15,1.95l-1.15,-0.05l0,-0.05l-1.65,0c-0.859,-0.012 -1.376,-0.028 -1.55,-0.05c-0.833,-0.133 -1.717,-0.617 -2.65,-1.45c-0.167,1.2 -0.467,2.233 -0.9,3.1c0.033,0.067 0.45,0.667 1.25,1.8c0.7,1 1.05,1.55 1.05,1.65c0,1.1 -1.367,2.517 -4.1,4.25c-2.667,1.7 -4.667,2.55 -6,2.55c-0.567,0 -1.35,-0.117 -2.35,-0.35c-0.8,-0.167 -1.6,-0.333 -2.4,-0.5c1.033,1.033 2.217,1.9 3.55,2.6c1.5,0.767 2.95,1.15 4.35,1.15c1.867,-0 3.75,-1.233 5.65,-3.7c1.7,-2.167 2.683,-4.183 2.95,-6.05c0.3,-0.167 0.667,-0.25 1.1,-0.25l4,-0c2,-0 3.45,-0.967 4.35,-2.9c0.667,-1.4 1,-3.15 1,-5.25l0,-4.35c0,-0.8 -0.083,-2 -0.25,-3.6c-0.2,-1.6 -0.3,-2.8 -0.3,-3.6c0,-0.4 0.25,-1.05 0.75,-1.95c0.467,-0.9 0.7,-1.65 0.7,-2.25c0,-0.2 -0.4,-0.667 -1.2,-1.4c-0.8,-0.7 -1.2,-1.317 -1.2,-1.85c0,-0.167 0.067,-0.433 0.2,-0.8c0.133,-0.4 0.2,-0.7 0.2,-0.9Z"/><path d="M195.35,64.55l2.7,2.4l2.8,-2.4l-2.75,-2.4l-2.7,2.4l-2.7,-2.45l-2.75,2.4l2.75,2.45l2.65,-2.4Z"/><path d="M55.05,64.55l-2.75,-2.4l-2.7,2.4l-2.7,-2.45l-2.75,2.4l2.75,2.45l2.65,-2.4l2.7,2.4l2.8,-2.4Z"/><path d="M147.3,55.4c0,-3.6 -1.117,-6.633 -3.35,-9.1c-0.633,1.067 -1.233,2.533 -1.8,4.4c1.1,1.333 1.817,2.267 2.15,2.8c0.667,1.133 1,2.217 1,3.25c0,1.267 -1.117,2.333 -3.35,3.2c-1.833,0.733 -3.583,1.1 -5.25,1.1c-4.133,0 -6.2,-1.55 -6.2,-4.65c-0,-0.5 0.133,-1.233 0.4,-2.2c0.2,-1 0.3,-1.75 0.3,-2.25c-0.833,0.767 -1.5,1.867 -2,3.3c-0.467,1.267 -0.7,2.5 -0.7,3.7c-0,2.2 0.717,3.85 2.15,4.95c1.367,1.067 3.283,1.6 5.75,1.6c3.067,0 5.65,-0.983 7.75,-2.95c2.1,-1.967 3.15,-4.35 3.15,-7.15Z"/><path d="M417.85,41.2c-0.2,0.7 -0.283,1.533 -0.25,2.5l0.05,3.3c1.467,0 3,0.567 4.6,1.7c1.667,1.2 2.5,2.45 2.5,3.75c-0,0.5 -0.933,0.917 -2.8,1.25c-1.4,0.267 -2.617,0.4 -3.65,0.4c-1.367,0 -2.75,-0.35 -4.15,-1.05c-0.167,1.7 -0.25,2.633 -0.25,2.8c-0,1.333 0.483,2.183 1.45,2.55c0.5,0.167 1.65,0.25 3.45,0.25c2.267,-0 4,-0.6 5.2,-1.8c1.133,-1.167 1.7,-2.783 1.7,-4.85c0,-2.467 -0.65,-4.667 -1.95,-6.6c-1.433,-2.067 -3.4,-3.467 -5.9,-4.2Z"/><path d="M251.15,28.7c-1.867,2.2 -2.783,3.517 -2.75,3.95l0.65,25.05c1.567,-1.133 2.35,-4.167 2.35,-9.1l-0.25,-19.9Z"/><path d="M113.75,28.7c-1.867,2.2 -2.783,3.517 -2.75,3.95l0.65,25.05c1.567,-1.133 2.35,-4.167 2.35,-9.1l-0.25,-19.9Z"/><path d="M476.95,28.7c-1.867,2.2 -2.783,3.517 -2.75,3.95l0.65,25.05c1.567,-1.133 2.35,-4.167 2.35,-9.1l-0.25,-19.9Z"/><path d="M369.05,28.7c-1.867,2.2 -2.783,3.517 -2.75,3.95l0.65,25.05c1.567,-1.133 2.35,-4.167 2.35,-9.1l-0.25,-19.9Z"/><path d="M376.55,32.8c0,6.367 0.05,10.45 0.15,12.25c0.267,6.133 0.95,9.817 2.05,11.05c0.867,1.033 2.1,1.55 3.7,1.55l4.15,-0l0,-0.05c2.659,-0.064 4.592,-0.564 5.8,-1.5c1.5,-1.133 2.25,-3.083 2.25,-5.85c0,-0.767 -0.367,-2.517 -1.1,-5.25c-0.8,1.667 -1.467,2.917 -2,3.75c0.767,1.333 1.25,2.3 1.45,2.9c-0.782,0.845 -2.916,1.278 -6.4,1.3l0,-0.05c-3.4,0 -5.6,-0.583 -6.6,-1.75c-0.833,-1.033 -1.25,-3.167 -1.25,-6.4l0,-15.25c-0.533,0.5 -1.067,0.967 -1.6,1.4c-0.4,0.467 -0.6,1.1 -0.6,1.9Z"/><path d="M458.65,41.6c-1.933,-0 -3.567,0.833 -4.9,2.5c-1.233,1.533 -1.85,3.2 -1.85,5c-0,1.433 0.3,2.7 0.9,3.8l-7.15,0l-0,0.2c-0.569,0.013 -1.152,-0.004 -1.75,-0.05c-0.467,-0.933 -0.933,-1.867 -1.4,-2.8c-0.767,-1.2 -1.533,-1.8 -2.3,-1.8c-0.967,-0 -1.967,0.9 -3,2.7c-0.933,1.633 -1.4,2.967 -1.4,4c-0,1.267 0.683,2.067 2.05,2.4c1.233,0.167 2.483,0.333 3.75,0.5c-1.5,2 -3.033,3.45 -4.6,4.35c-1.833,1.067 -3.967,1.6 -6.4,1.6c-1.3,-0 -3.2,-0.1 -5.7,-0.3c2.333,2.067 5.033,3.1 8.1,3.1c2.667,0 4.95,-0.983 6.85,-2.95c1.3,-1.4 2.567,-3.467 3.8,-6.2l7.1,-0c1.8,-0 4.4,-0.35 7.8,-1.05c3.733,-0.733 6.15,-1.5 7.25,-2.3c0.733,-2 1.267,-3.317 1.6,-3.95l-8.1,1.65c-0.1,0.033 -0.217,0.05 -0.35,0.05c-0.933,0 -2,-0.567 -3.2,-1.7c-1.167,-1.133 -1.75,-2.117 -1.75,-2.95c-0,-0.667 0.867,-1.3 2.6,-1.9c1.5,-0.533 2.717,-0.8 3.65,-0.8c1.4,-0 2.95,0.283 4.65,0.85c-1.2,-2.633 -3.283,-3.95 -6.25,-3.95Zm-18.1,11.35c0.2,0.233 0.383,0.75 0.55,1.55c-0.767,0 -1.683,-0.067 -2.75,-0.2c-0,-0.367 -0.083,-0.6 -0.25,-0.7c0.3,-0.567 0.6,-1.083 0.9,-1.55c0.833,0.333 1.35,0.633 1.55,0.9Z"/><path d="M239.75,28.8l-0.05,-0.55c-1.6,0.967 -2.85,2.6 -3.75,4.9c0.133,0.633 0.667,1.433 1.6,2.4c0.633,3.433 0.95,8.6 0.95,15.5c0,1.333 -1.383,1.983 -4.15,1.95l-0.55,-0.05l0,-0.05l-1.65,0c-2.3,0 -3.45,-0.5 -3.45,-1.5c0,-0.1 0.067,-0.3 0.2,-0.6c0.1,-0.3 0.15,-0.517 0.15,-0.65c0,-0.433 -0.117,-0.917 -0.35,-1.45c-0.533,0.933 -1.05,1.867 -1.55,2.8c-0.767,1.033 -1.667,1.55 -2.7,1.55c-1.333,0 -2.233,-0.35 -2.7,-1.05c0.333,-1.167 0.5,-2.267 0.5,-3.3c-0.767,1.033 -1.533,2.083 -2.3,3.15c-0.833,0.8 -2.167,1.2 -4,1.2c-1.6,0 -2.733,-0.217 -3.4,-0.65c-0.8,-0.533 -1.2,-1.5 -1.2,-2.9c-1.3,1.5 -2.35,2.45 -3.15,2.85c-0.733,0.367 -1.833,0.55 -3.3,0.55l-2.85,0l0,0.1c-1.067,0.067 -1.783,0.1 -2.15,0.1c-1.367,-0 -2.333,-0.25 -2.9,-0.75c-0.7,-0.6 -1.083,-1.7 -1.15,-3.3c-1.233,1.833 -2.067,2.933 -2.5,3.3c-0.567,0.433 -1.5,0.65 -2.8,0.65l-1.95,-0c-1.067,-0.067 -2.017,-0.1 -2.85,-0.1l0,1l-1.65,0.15c-1.8,0.3 -3.1,0.45 -3.9,0.45c0.733,-0.467 1.417,-1.017 2.05,-1.65c0.6,-0.667 1.117,-1.317 1.55,-1.95c0.433,-0.667 0.767,-1.3 1,-1.9c0.233,-0.633 0.35,-1.183 0.35,-1.65c0,-0.467 -0.183,-0.917 -0.55,-1.35c-0.333,-0.467 -0.767,-0.867 -1.3,-1.2c-0.533,-0.367 -1.1,-0.667 -1.7,-0.9c-0.6,-0.233 -1.133,-0.35 -1.6,-0.35c-0.267,0 -0.533,0.033 -0.8,0.1c-0.267,0.033 -0.583,0.133 -0.95,0.3c-0.333,0.167 -0.75,0.4 -1.25,0.7c-0.5,0.3 -1.117,0.717 -1.85,1.25c-0.7,0.5 -1.55,1.133 -2.55,1.9c-1,0.767 -2.183,1.7 -3.55,2.8l0,-2.75c-0.033,-0.867 -0.067,-1.7 -0.1,-2.5c-0.033,-0.833 -0.083,-1.683 -0.15,-2.55c-0.067,-0.867 -0.167,-1.8 -0.3,-2.8c-0.1,-0.967 -0.217,-2.05 -0.35,-3.25c-0.133,-1.2 -0.3,-2.533 -0.5,-4c0.267,-0.133 0.517,-0.333 0.75,-0.6c0.2,-0.267 0.383,-0.55 0.55,-0.85c0.133,-0.333 0.25,-0.65 0.35,-0.95c0.1,-0.3 0.15,-0.533 0.15,-0.7c-0.033,-0.267 -0.433,-0.75 -1.2,-1.45c-0.267,-0.233 -0.5,-0.45 -0.7,-0.65c-0.2,-0.233 -0.367,-0.467 -0.5,-0.7c-0.167,-0.2 -0.283,-0.417 -0.35,-0.65c-0.1,-0.267 -0.167,-0.533 -0.2,-0.8c-0.067,-0 -0.133,0.033 -0.2,0.1c-0.1,0.067 -0.217,0.233 -0.35,0.5c-0.133,0.233 -0.317,0.583 -0.55,1.05c-0.2,0.433 -0.483,1.033 -0.85,1.8c0.133,0.667 0.25,1.2 0.35,1.6c0.1,0.433 0.183,0.767 0.25,1c0.067,0.233 0.117,0.417 0.15,0.55c0.006,0.185 0.039,0.535 0.1,1.05c0.067,0.567 0.167,1.3 0.3,2.2c0.1,0.9 0.233,1.9 0.4,3c0.133,1.1 0.267,2.25 0.4,3.45c0.167,1.2 0.3,2.383 0.4,3.55c0.133,1.167 0.25,2.3 0.35,3.4c0.067,1.067 0.1,2.017 0.1,2.85l-2.55,2.2l-0.65,0.05l0,-0.85c-3.4,-0 -5.6,-0.583 -6.6,-1.75c-0.833,-1.033 -1.25,-3.167 -1.25,-6.4l0,-15.25c-0.533,0.5 -1.067,0.967 -1.6,1.4c-0.4,0.467 -0.6,1.1 -0.6,1.9c0,6.367 0.05,10.45 0.15,12.25c0.267,6.133 0.95,9.817 2.05,11.05c0.867,1.033 2.1,1.55 3.7,1.55l4.15,-0l-0,-0.05l4.8,-0.3c0.267,-0.067 0.55,-0.1 0.85,-0.1l1.1,-0c0.433,-0 0.933,0.017 1.5,0.05c0.567,0.033 1.283,0.067 2.15,0.1c0.8,0.167 1.433,0.283 1.9,0.35c0.433,0.067 0.867,0.1 1.3,0.1c0.2,0 0.433,-0.017 0.7,-0.05l0.85,-0c0.3,-0.033 0.65,-0.05 1.05,-0.05c0.367,-0.033 0.817,-0.05 1.35,-0.05l8.75,-0c1.033,-0 1.867,-0.333 2.5,-1c0.1,-0.1 0.6,-0.85 1.5,-2.25c0.467,0.733 1.117,1.433 1.95,2.1c1,0.767 1.867,1.15 2.6,1.15l7.95,-0c0.8,-0 1.833,-0.55 3.1,-1.65c0.867,0.367 1.733,0.717 2.6,1.05c1.033,0.4 1.95,0.6 2.75,0.6c1.533,-0 3.117,-0.483 4.75,-1.45c0.633,0.3 1.267,0.6 1.9,0.9c0.8,0.367 1.467,0.55 2,0.55c1,-0 1.983,-0.483 2.95,-1.45c1.233,0.967 2.033,1.45 2.4,1.45l6.1,-0c2,-0 3.45,-0.967 4.35,-2.9c0.667,-1.4 1,-3.15 1,-5.25l0,-4.35c0,-0.8 -0.083,-2 -0.25,-3.6c-0.2,-1.6 -0.3,-2.8 -0.3,-3.6c0,-0.4 0.25,-1.05 0.75,-1.95c0.467,-0.9 0.7,-1.65 0.7,-2.25c0,-0.2 -0.4,-0.667 -1.2,-1.4c-0.8,-0.7 -1.2,-1.317 -1.2,-1.85c0,-0.167 0.067,-0.433 0.2,-0.8c0.133,-0.4 0.2,-0.7 0.2,-0.9Zm-59.2,19.3c0.5,0.2 0.967,0.633 1.4,1.3c-0.4,0.7 -2.05,1.533 -4.95,2.5c-1.567,0.533 -3.017,0.917 -4.35,1.15c-1.367,0.267 -2.65,0.4 -3.85,0.4c1.167,-1.067 2.233,-1.967 3.2,-2.7c0.933,-0.733 1.767,-1.317 2.5,-1.75c0.733,-0.433 1.383,-0.75 1.95,-0.95c0.533,-0.2 1.017,-0.3 1.45,-0.3l1.05,0c0.567,0 1.1,0.117 1.6,0.35Z"/><path d="M269.1,53.6c-0.9,0.367 -1.683,1.517 -2.35,3.45c-0.567,1.567 -0.85,2.95 -0.85,4.15c0,4.8 2.667,7.2 8,7.2c3.6,-0 6.517,-0.983 8.75,-2.95c2.233,-1.967 3.35,-4.567 3.35,-7.8l4.95,-0l0,-0.1l2.6,0c0.933,0 1.767,-0.45 2.5,-1.35c0.567,-0.8 1.117,-1.6 1.65,-2.4c1.533,0.9 2.4,1.383 2.6,1.45c1.033,0.533 1.983,0.8 2.85,0.8c1.333,0 2.35,-0.567 3.05,-1.7c0.567,-0.933 0.85,-2.067 0.85,-3.4c-0,-1.067 -0.433,-2.417 -1.3,-4.05c-0.967,-1.833 -1.95,-2.75 -2.95,-2.75c-0.933,0 -1.933,0.65 -3,1.95c-0.933,1.233 -1.85,2.483 -2.75,3.75c-1.133,1.467 -2.133,2.35 -3,2.65c-0.533,0.2 -2.1,0.3 -4.7,0.3l-0,0.15l-1.05,-0c-1.133,-0 -1.967,-0.15 -2.5,-0.45c-0.5,-0.3 -1.333,-1.083 -2.5,-2.35l-2.05,3.45c1.033,1.467 1.683,2.417 1.95,2.85c0.5,1.033 0.75,2.1 0.75,3.2c-0,1.5 -1,2.633 -3,3.4c-1.533,0.567 -3.283,0.85 -5.25,0.85c-5.167,-0 -7.75,-1.817 -7.75,-5.45c-0,-0.667 0.383,-2.283 1.15,-4.85Zm35.2,-2.75l0,1.05c-0.6,0.133 -0.917,0.2 -0.95,0.2c-0.533,-0 -1.85,-0.617 -3.95,-1.85c0.9,-1.533 1.567,-2.3 2,-2.3c0.8,-0 1.467,0.417 2,1.25c0.167,0.267 0.467,0.817 0.9,1.65Z"/><path d="M357.6,28.8l-0.05,-0.55c-1.6,0.967 -2.85,2.6 -3.75,4.9c0.133,0.633 0.667,1.433 1.6,2.4c0.633,3.433 0.95,8.6 0.95,15.5c0,1.333 -1.383,1.983 -4.15,1.95l-1.1,-0.05l0,-0.05c-2.133,0 -3.667,-0.55 -4.6,-1.65c-0.8,-0.933 -1.2,-2.4 -1.2,-4.4c0,-2.3 -0.167,-5.367 -0.5,-9.2c-0.367,-4.633 -0.583,-7.7 -0.65,-9.2c-1.867,1.3 -2.8,2.717 -2.8,4.25c0,1.833 0.2,4.633 0.6,8.4c0.367,3.733 0.55,6.533 0.55,8.4c-0,1.5 -0.533,2.5 -1.6,3c-0.607,0.231 -1.691,0.365 -3.25,0.4l-0.35,0c-1.688,-0.032 -2.671,-0.098 -2.95,-0.2c-1.1,-0.433 -2.033,-2.367 -2.8,-5.8c-0.6,-2.667 -0.9,-4.917 -0.9,-6.75c-1.167,1.3 -1.733,2.133 -1.7,2.5l0.3,3.15c-2.6,1.233 -4.467,2.35 -5.6,3.35c-1.7,1.533 -2.55,3.35 -2.55,5.45c0,0.767 0.967,1.15 2.9,1.15c1.8,0 3.1,-0.15 3.9,-0.45c0.967,-0.367 1.95,-1.183 2.95,-2.45c0.433,1.033 0.883,2.05 1.35,3.05c0.667,1.167 1.533,1.75 2.6,1.75l4.95,-0c0.9,-0 1.75,-0.533 2.55,-1.6c1.2,-1.667 1.817,-2.517 1.85,-2.55c0.533,0.867 1.05,1.75 1.55,2.65c0.7,1 1.583,1.5 2.65,1.5l5,-0c2,-0 3.45,-0.967 4.35,-2.9c0.667,-1.4 1,-3.15 1,-5.25l-0,-4.35c-0,-0.8 -0.083,-2 -0.25,-3.6c-0.2,-1.6 -0.3,-2.8 -0.3,-3.6c-0,-0.4 0.25,-1.05 0.75,-1.95c0.467,-0.9 0.7,-1.65 0.7,-2.25c0,-0.2 -0.4,-0.667 -1.2,-1.4c-0.8,-0.7 -1.2,-1.317 -1.2,-1.85c-0,-0.167 0.067,-0.433 0.2,-0.8c0.133,-0.4 0.2,-0.7 0.2,-0.9Zm-27.65,21.1c-0,0.3 -0.467,0.567 -1.4,0.8c-0.8,0.167 -1.433,0.25 -1.9,0.25c-0.5,0 -1.183,-0.133 -2.05,-0.4c1.767,-1.033 3.383,-1.867 4.85,-2.5c0.333,1.067 0.5,1.683 0.5,1.85Z"/><path d="M272.8,46.3l3.1,2.7l3.1,-2.7l-3.1,-2.8l-3.1,2.8Z"/><path d="M136.25,44.55l3.1,-2.75l-3.1,-2.75l-3.1,2.75l3.1,2.75Z"/><path d="M217.8,37.85l-2.7,2.35l2.7,2.45l2.7,-2.4l-2.7,-2.4Z"/><path d="M225.9,40.2l-2.7,-2.35l-2.7,2.4l2.7,2.4l2.7,-2.45Z"/><path d="M220.6,37.65l2.75,-2.5l-2.7,-2.4l-2.7,2.4l2.65,2.5Z"/><path d="M416.6,33.55l3.05,2.7l3.15,-2.7l-3.1,-2.8l-3.1,2.8Z"/><path d="M87.95,31.9c-0.4,0 -0.6,-0.5 -0.6,-1.5l-0.3,0.05c-0.233,0.7 -0.35,1.133 -0.35,1.3c-0,0.4 0.1,0.75 0.3,1.05c0.2,0.333 0.517,0.5 0.95,0.5c0.333,0 0.667,-0.117 1,-0.35c0.333,-0.233 0.517,-0.517 0.55,-0.85c0.3,0.2 0.617,0.3 0.95,0.3c1.067,0 1.6,-0.767 1.6,-2.3c0,-0.4 -0.067,-0.833 -0.2,-1.3l-0.35,0.1c-0,1.367 -0.35,2.05 -1.05,2.05c-0.333,-0 -0.617,-0.45 -0.85,-1.35l-0.25,0.1c-0.167,0.667 -0.3,1.117 -0.4,1.35c-0.233,0.567 -0.567,0.85 -1,0.85Z"/><path d="M29.3,29.5c-0.4,0.6 -0.6,1.333 -0.6,2.2c0,1.433 0.683,2.15 2.05,2.15c0.833,-0 1.533,-0.3 2.1,-0.9c0.567,-0.6 0.85,-1.267 0.85,-2c0,-0.633 -0.2,-1.2 -0.6,-1.7c-0.467,-0.567 -1.05,-0.85 -1.75,-0.85c-0.9,0 -1.583,0.367 -2.05,1.1Zm1.2,0.4c0.333,0 0.767,0.167 1.3,0.5c0.567,0.367 0.85,0.7 0.85,1c0,0.467 -0.5,0.7 -1.5,0.7c-1.233,-0 -1.85,-0.35 -1.85,-1.05c0,-0.767 0.4,-1.15 1.2,-1.15Z"/><path d="M221.25,27.45c1.067,-0 1.6,-0.767 1.6,-2.3c0,-0.4 -0.067,-0.833 -0.2,-1.3l-0.35,0.1c0,1.367 -0.35,2.05 -1.05,2.05c-0.333,0 -0.617,-0.45 -0.85,-1.35l-0.25,0.1c-0.167,0.667 -0.3,1.117 -0.4,1.35c-0.233,0.567 -0.567,0.85 -1,0.85c-0.4,-0 -0.6,-0.5 -0.6,-1.5l-0.3,0.05c-0.233,0.7 -0.35,1.133 -0.35,1.3c0,0.4 0.1,0.75 0.3,1.05c0.2,0.333 0.517,0.5 0.95,0.5c0.333,-0 0.667,-0.117 1,-0.35c0.333,-0.233 0.517,-0.517 0.55,-0.85c0.3,0.2 0.617,0.3 0.95,0.3Z"/><path d="M345,21.6l-0.35,0.1c0,1.367 -0.35,2.05 -1.05,2.05c-0.333,-0 -0.617,-0.45 -0.85,-1.35l-0.25,0.1c-0.167,0.667 -0.3,1.117 -0.4,1.35c-0.233,0.567 -0.567,0.85 -1,0.85c-0.4,-0 -0.6,-0.5 -0.6,-1.5l-0.3,0.05c-0.233,0.7 -0.35,1.133 -0.35,1.3c0,0.4 0.1,0.75 0.3,1.05c0.2,0.333 0.517,0.5 0.95,0.5c0.333,-0 0.667,-0.117 1,-0.35c0.333,-0.233 0.517,-0.517 0.55,-0.85c0.3,0.2 0.617,0.3 0.95,0.3c1.067,-0 1.6,-0.767 1.6,-2.3c0,-0.4 -0.067,-0.833 -0.2,-1.3Z"/><path d="M420.8,25.8c-0.4,-0.233 -0.7,-0.4 -0.9,-0.5c0.467,-0.8 0.7,-1.45 0.7,-1.95c0,-0.967 -0.517,-1.45 -1.55,-1.45c-0.733,0 -1.383,0.35 -1.95,1.05c-0.5,0.6 -0.75,1.183 -0.75,1.75c0,0.467 0.483,0.95 1.45,1.45c-1.733,1.167 -3.383,2.05 -4.95,2.65c0.567,0.133 1.017,0.2 1.35,0.2c1.267,0 2.783,-0.8 4.55,-2.4c0.733,0.367 1.35,0.65 1.85,0.85l0.2,-1.65Zm-1.65,-1.45c-0,0.133 -0.033,0.3 -0.1,0.5c-1.033,-0.433 -1.55,-0.833 -1.55,-1.2c0.067,-0.167 0.217,-0.267 0.45,-0.3c0.8,0.1 1.2,0.433 1.2,1Z"/><path d="M448.85,23.2c0,0.467 0.483,0.95 1.45,1.45c-1.733,1.167 -3.383,2.05 -4.95,2.65c0.567,0.133 1.017,0.2 1.35,0.2c1.267,0 2.783,-0.8 4.55,-2.4c0.733,0.367 1.35,0.65 1.85,0.85l0.2,-1.65c-0.4,-0.233 -0.7,-0.4 -0.9,-0.5c0.467,-0.8 0.7,-1.45 0.7,-1.95c-0,-0.967 -0.517,-1.45 -1.55,-1.45c-0.733,0 -1.383,0.35 -1.95,1.05c-0.5,0.6 -0.75,1.183 -0.75,1.75Zm2.8,-0.35c-0,0.133 -0.033,0.3 -0.1,0.5c-1.033,-0.433 -1.55,-0.833 -1.55,-1.2c0.067,-0.167 0.217,-0.267 0.45,-0.3c0.8,0.1 1.2,0.433 1.2,1Z"/><path id="Layer0_0_1_STROKES" d="M345.65,16.75l-5.9,3.4m-10.15,44.75l-5.9,3.4m-45.55,-41.7l-5.9,3.4m33.75,34.9l-5.95,3.4m-59.25,85.65l-6.3,3.55m71.25,-8.25l-6.3,3.55m179.1,-131.55l-5.9,3.4m-78.9,47.45l-5.9,3.4m-164.55,-56.9l-5.9,3.45m-52.75,-0.8l-5.9,3.4m-66.25,-1.85l-5.9,3.4m54,44l-5.9,3.4m-16.95,83.1l-6.3,3.5m-37.95,-88.1l-5.9,3.4m102.45,134.05l-6.3,3.5m-71.7,-8.6l-6.3,3.5m91.55,142.1l-6.25,3.75m-19.55,48.95l-6.2,3.75m312.4,-197.35l-6.35,3.5m-89.25,-6.65l-6.3,3.55m-67.2,-7.85l-6.3,3.55m-36.6,141.45l-6.2,3.75m65.75,6.3l-6.2,3.75m30.65,-4.2l-6.2,3.8m36,-3.35l-6.25,3.75" style="fill:none;fill-rule:nonzero;stroke:#000;stroke-width:3px;"/></g></svg>