<?xml version="1.0" encoding="UTF-8" standalone="no"?><!DOCTYPE svg PUBLIC "-//W3C//DTD SVG 1.1//EN" "http://www.w3.org/Graphics/SVG/1.1/DTD/svg11.dtd"><svg width="100%" height="100%" viewBox="0 0 294 80" version="1.1" xmlns="http://www.w3.org/2000/svg" xmlns:xlink="http://www.w3.org/1999/xlink" xml:space="preserve" xmlns:serif="http://www.serif.com/" style="fill-rule:evenodd;clip-rule:evenodd;stroke-linecap:round;stroke-linejoin:round;"><g><path d="M40.6,61.15l2.85,2.65l2.9,-2.65l-2.9,-2.65l-2.8,2.65l-2.85,-2.7l-2.9,2.65l2.9,2.7l2.8,-2.65Z"/><path d="M115.95,21.65c-1.967,2.4 -2.95,3.85 -2.95,4.35l0.75,27.6c1.6,-1.267 2.4,-4.617 2.4,-10.05l-0.2,-21.9Z"/><path d="M182.15,43.55l-0.2,-21.9c-1.967,2.4 -2.95,3.85 -2.95,4.35l0.75,27.6c1.6,-1.267 2.4,-4.617 2.4,-10.05Z"/><path d="M232.55,48.95c-1.467,0 -2.85,-0.617 -4.15,-1.85l-0,5.3c-0,1.033 1.25,1.55 3.75,1.55c2.7,0 4.633,-0.417 5.8,-1.25c0.567,-0.4 1.783,-1.883 3.65,-4.45c0.367,1.1 0.75,2.2 1.15,3.3c0.633,1.333 1.467,2 2.5,2l3.3,-0l-0,-0.05c0.902,-0.044 1.485,-0.128 1.75,-0.25c0.367,-0.2 1.117,-1.083 2.25,-2.65c1.3,1.5 2.717,2.467 4.25,2.9c1.1,0.333 2.867,0.5 5.3,0.5c4.2,0 8.383,-0.85 12.55,-2.55c5.167,-2.167 7.75,-4.983 7.75,-8.45c-0,-1.067 -0.433,-2.05 -1.3,-2.95c-0.867,-0.967 -1.867,-1.45 -3,-1.45c-1.8,0 -4.033,0.733 -6.7,2.2c-1.733,0.9 -4.117,2.433 -7.15,4.6c-3,2.133 -5.017,3.483 -6.05,4.05c-1.133,0 -2.183,-0.367 -3.15,-1.1c-0.933,-0.7 -1.583,-1.567 -1.95,-2.6c-0.5,0.967 -0.95,1.633 -1.35,2c-0.533,0.5 -1.283,0.733 -2.25,0.7l-0.95,-0.05l-0,-0.05c-0.306,0.019 -0.589,0.036 -0.85,0.05l-1.25,-0.05c-0.453,-0.008 -0.786,-0.058 -1,-0.15c-0.867,-0.367 -1.917,-3 -3.15,-7.9c-0.6,-2.367 -1.25,-5.367 -1.95,-9c-0.867,2.867 -1.283,4.383 -1.25,4.55l1.95,10c-0.767,0.9 -2.067,1.65 -3.9,2.25c-1.633,0.567 -3.167,0.85 -4.6,0.85Zm43.9,-5c1.533,0.533 2.3,1.05 2.3,1.55c-0,0.867 -1.583,1.767 -4.75,2.7c-2.8,0.833 -4.883,1.25 -6.25,1.25l-6.35,0c5.433,-4.167 9.433,-6.25 12,-6.25c0.7,0 1.717,0.25 3.05,0.75Z"/><path d="M57.7,25.1c-1.767,-0.8 -2.65,-1.833 -2.65,-3.1c0,-0.533 0.083,-1.2 0.25,-2c-0.6,0.467 -1.317,1.317 -2.15,2.55c-0.867,1.333 -1.3,2.3 -1.3,2.9c-0,0.3 0.25,0.75 0.75,1.35c0.467,0.633 0.7,1.05 0.7,1.25l0,17.2c-1.467,1.367 -2.583,2.4 -3.35,3.1l-2.25,0l-0,0.1l-0.05,0c-1.1,0.033 -1.85,0.05 -2.25,0.05c-1.467,0 -2.5,-0.267 -3.1,-0.8c-0.7,-0.633 -1.083,-1.85 -1.15,-3.65c-1.333,2.033 -2.233,3.25 -2.7,3.65c-0.6,0.5 -1.567,0.75 -2.9,0.75c-0.3,0 -1,-0.017 -2.1,-0.05c-0.067,-0.002 -0.134,-0.002 -0.2,-0l-0,-0.05c-2.867,0 -4.817,-0.167 -5.85,-0.5c-0.7,-0.233 -1.333,-0.75 -1.9,-1.55c-0.733,-1.1 -1.567,-1.983 -2.5,-2.65c-0.5,0.433 -0.817,0.883 -0.95,1.35c0.133,0.233 0.133,0.4 0,0.5c-2.333,0.533 -4.317,1.483 -5.95,2.85c-1.933,1.6 -2.9,3.45 -2.9,5.55l-0,0.65l2,20.1c0.333,-0.4 0.65,-0.967 0.95,-1.7c0.367,-0.8 0.533,-1.417 0.5,-1.85l-1.5,-17.8c0.833,-1.533 2.067,-2.3 3.7,-2.3l0.7,0.25c0,1.167 0.317,2.35 0.95,3.55c0.7,1.467 1.6,2.2 2.7,2.2c1.8,-0 2.7,-1.7 2.7,-5.1c1.7,1.1 2.933,1.65 3.7,1.65l5.85,-0c1.1,-0 1.983,-0.367 2.65,-1.1c0.1,-0.133 0.617,-0.95 1.55,-2.45c0.5,0.767 1.183,1.517 2.05,2.25c1.033,0.867 1.933,1.3 2.7,1.3l34.15,-0c1.6,-0 3.117,-0.417 4.55,-1.25c1.3,-0.867 2.617,-1.75 3.95,-2.65c1.6,1.5 2.567,2.383 2.9,2.65c1.133,0.833 2.367,1.25 3.7,1.25l5.75,-0c2.1,-0 3.633,-1.067 4.6,-3.2c0.667,-1.533 1,-3.45 1,-5.75l0,-4.85c0,-0.9 -0.083,-2.217 -0.25,-3.95c-0.2,-1.767 -0.3,-3.083 -0.3,-3.95c-0,-0.433 0.267,-1.15 0.8,-2.15c0.5,-1 0.75,-1.833 0.75,-2.5c0,-0.233 -0.417,-0.75 -1.25,-1.55c-0.867,-0.8 -1.3,-1.483 -1.3,-2.05c-0,-0.2 0.067,-0.5 0.2,-0.9c0.167,-0.4 0.233,-0.717 0.2,-0.95l-0.05,-0.6c-1.667,1.067 -2.983,2.85 -3.95,5.35c0.167,0.7 0.75,1.583 1.75,2.65c0.633,3.8 0.95,9.517 0.95,17.15c0,1.467 -1.45,2.167 -4.35,2.1l-0.85,-0.05c-3.6,0 -6.05,-0.483 -7.35,-1.45c2.1,-1.6 3.15,-3.1 3.15,-4.5c-0,-1.267 -0.75,-2.3 -2.25,-3.1c-1.233,-0.633 -2.6,-0.95 -4.1,-0.95c-1.4,0 -2.9,0.517 -4.5,1.55c-1.7,1.133 -2.55,2.35 -2.55,3.65c-0,0.133 0.65,0.55 1.95,1.25c1.467,0.767 2.367,1.383 2.7,1.85c-1.767,1.233 -4.433,1.817 -8,1.75l-0.35,-0l-0,-0.05c-0.133,0.008 -0.3,0.025 -0.5,0.05l-1.65,-0l-0,0.25c-0.361,0.056 -0.761,0.123 -1.2,0.2c-1.467,0.3 -2.45,0.417 -2.95,0.35l-0.8,-0.05c2.567,-2.5 3.85,-4.6 3.85,-6.3c-0,-1.2 -0.567,-2.25 -1.7,-3.15c-1.133,-0.9 -2.35,-1.35 -3.65,-1.35c-1.433,0 -3.483,0.8 -6.15,2.4c-1.933,1.167 -3.867,2.35 -5.8,3.55l-0.2,-14.65c0.633,-0.367 1.167,-1.05 1.6,-2.05c0.1,-0.267 0.367,-1.1 0.8,-2.5Zm-2.35,24.05c-0.7,-0 -1.383,-0.067 -2.05,-0.2c4.133,-3.833 7.633,-5.75 10.5,-5.75c0.867,0 1.833,0.183 2.9,0.55c1.333,0.467 2,1.033 2,1.7c-0,1.033 -1.983,1.95 -5.95,2.75c-3.133,0.633 -5.6,0.95 -7.4,0.95Z"/><path d="M199.55,51.2c0,-1.167 0.417,-3.083 1.25,-5.75c-1.033,0.4 -1.867,1.6 -2.5,3.6c-0.467,1.567 -0.7,3.083 -0.7,4.55c0,2.8 0.817,4.983 2.45,6.55c1.633,1.533 3.95,2.3 6.95,2.3c3.533,0 6.75,-1.233 9.65,-3.7c2.933,-2.533 4.4,-5.433 4.4,-8.7c0,-1.8 -0.35,-3.667 -1.05,-5.6c-0.9,-2.533 -2.117,-3.8 -3.65,-3.8c-1.133,-0 -2.2,0.85 -3.2,2.55c-0.9,1.533 -1.35,2.9 -1.35,4.1c0,2.6 1.75,3.9 5.25,3.9c0.333,0 1.117,-0.067 2.35,-0.2l-0,1.85c-1.3,1.5 -3.033,2.65 -5.2,3.45c-1.967,0.733 -4.083,1.1 -6.35,1.1c-5.533,-0 -8.3,-2.067 -8.3,-6.2Zm16.2,-3.9c-0.233,-0 -0.9,-0.233 -2,-0.7l0,-0.7c1,-1.2 1.617,-1.8 1.85,-1.8c0.467,0 1.083,0.6 1.85,1.8l0,1.2l-1.7,0.2Z"/><path d="M131.45,50.2c0,0.833 1.017,1.25 3.05,1.25c1.9,0 3.25,-0.15 4.05,-0.45c1.033,-0.433 2.083,-1.35 3.15,-2.75c0.467,1.133 0.933,2.25 1.4,3.35c0.7,1.3 1.617,1.95 2.75,1.95l5.2,-0c0.967,-0 1.85,-0.583 2.65,-1.75c1.267,-1.867 1.917,-2.817 1.95,-2.85c0.567,1 1.117,1.983 1.65,2.95c0.767,1.1 1.7,1.65 2.8,1.65l5.3,-0c2.1,-0 3.633,-1.067 4.6,-3.2c0.667,-1.533 1,-3.45 1,-5.75l-0,-4.85c-0,-0.9 -0.083,-2.217 -0.25,-3.95c-0.2,-1.767 -0.3,-3.083 -0.3,-3.95c-0,-0.433 0.267,-1.15 0.8,-2.15c0.5,-1 0.75,-1.833 0.75,-2.5c-0,-0.233 -0.417,-0.75 -1.25,-1.55c-0.867,-0.8 -1.3,-1.483 -1.3,-2.05c-0,-0.2 0.067,-0.5 0.2,-0.9c0.167,-0.4 0.233,-0.717 0.2,-0.95l-0.05,-0.6c-1.667,1.067 -2.983,2.85 -3.95,5.35c0.167,0.7 0.75,1.583 1.75,2.65c0.633,3.8 0.95,9.517 0.95,17.15c0,1.467 -1.45,2.167 -4.35,2.1l-1.2,-0.05c-2.267,0 -3.883,-0.617 -4.85,-1.85c-0.833,-1.033 -1.25,-2.65 -1.25,-4.85c-0,-2.533 -0.183,-5.917 -0.55,-10.15c-0.4,-5.1 -0.633,-8.483 -0.7,-10.15c-1.967,1.467 -2.95,3.033 -2.95,4.7c-0,2.033 0.217,5.117 0.65,9.25c0.4,4.1 0.6,7.183 0.6,9.25c-0,1.667 -0.567,2.767 -1.7,3.3c-0.635,0.289 -1.768,0.455 -3.4,0.5l-0.35,0c-1.789,-0.04 -2.822,-0.124 -3.1,-0.25c-1.167,-0.5 -2.167,-2.633 -3,-6.4c-0.6,-2.933 -0.9,-5.417 -0.9,-7.45c-1.233,1.433 -1.833,2.35 -1.8,2.75l0.3,3.5c-2.733,1.333 -4.7,2.567 -5.9,3.7c-1.767,1.7 -2.65,3.7 -2.65,6Zm8.8,-7.2c0.333,1.167 0.5,1.85 0.5,2.05c-0,0.3 -0.5,0.567 -1.5,0.8c-0.833,0.233 -1.483,0.35 -1.95,0.35c-0.567,0 -1.3,-0.15 -2.2,-0.45c1.867,-1.167 3.583,-2.083 5.15,-2.75Z"/><path d="M217.85,34.85l2.9,-2.7l-2.9,-2.65l-2.85,2.65l-2.8,-2.65l-2.85,2.65l2.8,2.7l2.9,-2.7l2.8,2.7Z"/><path d="M67.2,30.55l-3.3,-3.1l-3.25,3.1l3.25,3l3.3,-3Z"/><path d="M134.2,24.85c-0.533,0.667 -0.8,1.317 -0.8,1.95c0,0.5 0.517,1.033 1.55,1.6c-1.833,1.3 -3.567,2.267 -5.2,2.9c0.567,0.167 1.033,0.25 1.4,0.25c1.333,-0 2.933,-0.883 4.8,-2.65c0.767,0.4 1.417,0.717 1.95,0.95l0.2,-1.8c-0.4,-0.267 -0.717,-0.45 -0.95,-0.55c0.5,-0.933 0.75,-1.667 0.75,-2.2c-0,-1.067 -0.55,-1.6 -1.65,-1.6c-0.767,0 -1.45,0.383 -2.05,1.15Zm2.2,1.55c0,0.167 -0.05,0.35 -0.15,0.55c-1.067,-0.467 -1.6,-0.9 -1.6,-1.3c0.067,-0.2 0.217,-0.317 0.45,-0.35c0.867,0.1 1.3,0.467 1.3,1.1Z"/><path d="M19.1,20.8c-0.433,0.667 -0.65,1.483 -0.65,2.45c-0,1.567 0.733,2.35 2.2,2.35c0.867,0 1.6,-0.333 2.2,-1c0.6,-0.633 0.9,-1.367 0.9,-2.2c0,-0.7 -0.217,-1.333 -0.65,-1.9c-0.5,-0.6 -1.1,-0.9 -1.8,-0.9c-0.967,0 -1.7,0.4 -2.2,1.2Zm2.65,1c0.567,0.4 0.85,0.767 0.85,1.1c-0,0.5 -0.517,0.75 -1.55,0.75c-1.3,-0 -1.95,-0.383 -1.95,-1.15c-0,-0.833 0.417,-1.25 1.25,-1.25c0.367,-0 0.833,0.183 1.4,0.55Z"/><path d="M156.75,13.95c0,-0.467 -0.067,-0.95 -0.2,-1.45l-0.4,0.15c-0,1.467 -0.367,2.2 -1.1,2.2c-0.333,0 -0.633,-0.483 -0.9,-1.45l-0.25,0.1c-0.167,0.733 -0.3,1.217 -0.4,1.45c-0.267,0.633 -0.617,0.95 -1.05,0.95c-0.433,-0 -0.65,-0.55 -0.65,-1.65l-0.35,0.05c-0.233,0.767 -0.35,1.267 -0.35,1.5c0,0.433 0.1,0.8 0.3,1.1c0.233,0.367 0.567,0.55 1,0.55c0.367,0 0.733,-0.133 1.1,-0.4c0.333,-0.267 0.517,-0.567 0.55,-0.9c0.3,0.2 0.633,0.3 1,0.3c1.133,0 1.7,-0.833 1.7,-2.5Z"/><path d="M100.4,10.75c-0.433,0.667 -0.65,1.483 -0.65,2.45c0,1.567 0.733,2.35 2.2,2.35c0.867,-0 1.6,-0.333 2.2,-1c0.6,-0.633 0.9,-1.367 0.9,-2.2c0,-0.7 -0.217,-1.333 -0.65,-1.9c-0.5,-0.6 -1.1,-0.9 -1.8,-0.9c-0.967,-0 -1.7,0.4 -2.2,1.2Zm2.65,1c0.567,0.4 0.85,0.767 0.85,1.1c-0,0.5 -0.517,0.75 -1.55,0.75c-1.3,0 -1.95,-0.383 -1.95,-1.15c-0,-0.833 0.417,-1.25 1.25,-1.25c0.367,0 0.833,0.183 1.4,0.55Z"/><path id="Layer0_0_1_STROKES" d="M256.65,-323.25l-5.9,3.4m-10.15,44.75l-5.9,3.4m-45.55,-41.7l-5.9,3.4m33.75,34.9l-5.95,3.4m-59.25,85.65l-6.3,3.55m71.25,-8.25l-6.3,3.55m179.1,-131.55l-5.9,3.4m-78.9,47.45l-5.9,3.4m-164.55,-56.9l-5.9,3.45m-52.75,-0.8l-5.9,3.4m-66.25,-1.85l-5.9,3.4m54,44l-5.9,3.4m-16.95,83.1l-6.3,3.5m-37.95,-88.1l-5.9,3.4m102.45,134.05l-6.3,3.5m-71.7,-8.6l-6.3,3.5m91.55,142.1l-6.25,3.75m-19.55,48.95l-6.2,3.75m312.4,-197.35l-6.35,3.5m-89.25,-6.65l-6.3,3.55m-67.2,-7.85l-6.3,3.55m-36.6,141.45l-6.2,3.75m65.75,6.3l-6.2,3.75m30.65,-4.2l-6.2,3.8m36,-3.35l-6.25,3.75" style="fill:none;fill-rule:nonzero;stroke:#000;stroke-width:3px;"/></g></svg>