<?xml version="1.0" encoding="UTF-8" standalone="no"?><!DOCTYPE svg PUBLIC "-//W3C//DTD SVG 1.1//EN" "http://www.w3.org/Graphics/SVG/1.1/DTD/svg11.dtd"><svg width="100%" height="100%" viewBox="0 0 22 31" version="1.1" xmlns="http://www.w3.org/2000/svg" xmlns:xlink="http://www.w3.org/1999/xlink" xml:space="preserve" xmlns:serif="http://www.serif.com/" style="fill-rule:evenodd;clip-rule:evenodd;stroke-linejoin:round;stroke-miterlimit:2;"><g><path d="M4.3,11.25c-0.233,0 -0.45,0.15 -0.65,0.45c-0.133,0.3 -0.2,0.567 -0.2,0.8c-0,1.5 0.65,2.25 1.95,2.25c0.333,0 0.733,-0.083 1.2,-0.25c2.4,1.8 3.783,3.733 4.15,5.8c-0.233,0.633 -1.033,1.5 -2.4,2.6c-1.233,1.033 -2.233,1.733 -3,2.1c2.533,-0 4.35,-0.733 5.45,-2.2c0.833,-1.067 1.45,-2.95 1.85,-5.65c-0.033,0.333 -0.05,0.683 -0.05,1.05c-0,1.5 0.15,2.733 0.45,3.7c0.4,1.4 1.067,2.1 2,2.1l1.8,-0l-0,-2.3c-0.833,-0 -1.383,-0.05 -1.65,-0.15c-1.167,-0.4 -1.75,-3.1 -1.75,-8.1c-0,-0.7 0.017,-1.433 0.05,-2.2l0,-1.1c-0.767,0.833 -1.267,1.4 -1.5,1.7c0,2.2 -0.017,3.55 -0.05,4.05c-0.1,1.067 -0.35,2.3 -0.75,3.7c-0.333,-1.267 -0.583,-2.083 -0.75,-2.45c-0.467,-1 -1.35,-2.183 -2.65,-3.55c-1.467,-1.567 -2.633,-2.35 -3.5,-2.35Z" style="fill:#f00;"/></g></svg>