<?xml version="1.0" encoding="UTF-8" standalone="no"?><!DOCTYPE svg PUBLIC "-//W3C//DTD SVG 1.1//EN" "http://www.w3.org/Graphics/SVG/1.1/DTD/svg11.dtd"><svg width="100%" height="100%" viewBox="0 0 31 31" version="1.1" xmlns="http://www.w3.org/2000/svg" xmlns:xlink="http://www.w3.org/1999/xlink" xml:space="preserve" xmlns:serif="http://www.serif.com/" style="fill-rule:evenodd;clip-rule:evenodd;stroke-linejoin:round;stroke-miterlimit:2;"><g><path d="M11.05,14.2c-1.6,-2 -2.817,-3 -3.65,-3c-0.3,-0 -0.533,0.133 -0.7,0.4c-0.167,0.233 -0.25,0.517 -0.25,0.85c0,0.567 0.183,1.1 0.55,1.6c0.367,0.533 0.817,0.8 1.35,0.8c0.267,0 0.45,-0.05 0.55,-0.15c0.2,-0.167 0.333,-0.25 0.4,-0.25c0.4,0.233 1.15,1.033 2.25,2.4c0.833,1.067 1.5,1.967 2,2.7c-0.2,0.367 -0.517,0.817 -0.95,1.35c-0.5,0.6 -0.883,0.983 -1.15,1.15l-0.95,-0.3l-0,2.2c0.633,0.167 1.45,0.25 2.45,0.25c0.9,-0 1.5,-0.117 1.8,-0.35c0.3,-0.267 0.45,-0.867 0.45,-1.8c-0,-1.133 -0.25,-2.05 -0.75,-2.75c0.233,-0.567 0.417,-1.417 0.55,-2.55c0.133,-1.133 0.3,-1.933 0.5,-2.4l0.15,0.2c0.267,-0.167 0.5,-0.483 0.7,-0.95c0.033,-0.1 0.133,-0.467 0.3,-1.1c-0.733,-0.333 -1.1,-0.783 -1.1,-1.35c0,-0.233 0.033,-0.533 0.1,-0.9c-0.667,0.567 -1.133,1.367 -1.4,2.4c0.033,0.133 0.133,0.35 0.3,0.65c0.2,0.233 0.3,0.4 0.3,0.5c-0,0.4 -0.1,1.2 -0.3,2.4c-0.2,1.233 -0.367,1.967 -0.5,2.2c-1.833,-2.567 -2.833,-3.967 -3,-4.2Zm1.865,7.601c-0.084,0.083 -0.172,0.165 -0.265,0.249l1.7,-0.1l0.1,-0.4l-0.2,-0.55l-0.3,-0.65l-0.475,0.825l-0.031,0.04l-0.005,0.007c-0.053,0.067 -0.108,0.134 -0.167,0.202l-0.029,0.033l-0.024,0.027l-0.012,0.013c-0.037,0.041 -0.074,0.082 -0.113,0.122c-0.014,0.015 -0.029,0.03 -0.043,0.045l-0.01,0.011c-0.015,0.015 -0.03,0.03 -0.045,0.045l-0.042,0.042c-0.013,0.013 -0.026,0.026 -0.039,0.039Z" style="fill:#f00;"/></g></svg>