<?xml version="1.0" encoding="UTF-8" standalone="no"?><!DOCTYPE svg PUBLIC "-//W3C//DTD SVG 1.1//EN" "http://www.w3.org/Graphics/SVG/1.1/DTD/svg11.dtd"><svg width="100%" height="100%" viewBox="0 0 60 74" version="1.1" xmlns="http://www.w3.org/2000/svg" xmlns:xlink="http://www.w3.org/1999/xlink" xml:space="preserve" xmlns:serif="http://www.serif.com/" style="fill-rule:evenodd;clip-rule:evenodd;stroke-linejoin:round;stroke-miterlimit:2;"><g><path d="M50.05,56.65l-2.65,3l2.65,2.9l2.65,-2.9l-2.65,-3Z"/><path d="M22.6,46.55c-0.796,-0.01 -1.263,-0.027 -1.4,-0.05c-0.7,-0.167 -1.45,-0.683 -2.25,-1.55c-0.167,1.267 -0.433,2.367 -0.8,3.3c0.033,0.033 0.4,0.683 1.1,1.95c0.6,1.033 0.9,1.6 0.9,1.7c-0,1.2 -1.183,2.717 -3.55,4.55c-2.267,1.8 -3.983,2.7 -5.15,2.7c-0.5,-0 -1.167,-0.117 -2,-0.35c-0.7,-0.167 -1.383,-0.35 -2.05,-0.55c0.867,1.133 1.883,2.05 3.05,2.75c1.3,0.833 2.533,1.25 3.7,1.25c1.6,-0 3.217,-1.317 4.85,-3.95c1.467,-2.3 2.3,-4.433 2.5,-6.4c0.267,-0.2 0.583,-0.3 0.95,-0.3l0.15,0l0,-5.05Z"/><path d="M49.277,46.49c1.764,-0.191 2.888,-0.621 3.373,-1.29c-0.167,-0.633 -0.567,-1.667 -1.2,-3.1c0.433,-0.867 0.983,-2.2 1.65,-4c0.633,2.9 0.95,4.767 0.95,5.6c-0,2.933 -0.633,5.017 -1.9,6.25c-0.778,0.733 -1.882,1.217 -3.311,1.45l-1.539,0.15l-0.65,0.05l-1.35,0l-0,-5l2,0l1.977,-0.11Z"/><path d="M23.9,46.55l-0,0.05l-0.35,0l-0.9,-0.05l1.25,0Z"/><path d="M17.3,22.15c-0.633,-0 -1.233,0.367 -1.8,1.1c-0.533,0.7 -0.8,1.383 -0.8,2.05c0,0.8 0.467,1.5 1.4,2.1c-0.9,1 -1.75,1.633 -2.55,1.9c0.067,-0.933 0.1,-1.5 0.1,-1.7c-0,-1.633 -0.483,-2.45 -1.45,-2.45c-0.533,-0 -0.967,0.267 -1.3,0.8c-0.3,0.467 -0.45,1 -0.45,1.6c0,0.3 0.067,0.683 0.2,1.15c0.133,-1.133 0.483,-1.7 1.05,-1.7c0.3,-0 0.533,0.133 0.7,0.4c0.2,0.233 0.3,0.5 0.3,0.8c0,0.467 -0.283,1.417 -0.85,2.85c1.1,-0.233 2.033,-0.6 2.8,-1.1c0.633,-0.4 1.383,-1.1 2.25,-2.1c0.433,0.367 1.067,0.8 1.9,1.3c0.033,-0.833 0.05,-1.3 0.05,-1.4c0,-0.5 -0.267,-0.967 -0.8,-1.4c0.433,-1.1 0.65,-1.917 0.65,-2.45c0,-0.433 -0.133,-0.833 -0.4,-1.2c-0.3,-0.367 -0.633,-0.55 -1,-0.55Zm-0.9,1.45c-0.1,0 -0.233,0.033 -0.4,0.1l-0.2,0.4l0,0.017c0.001,0.005 0.001,0.01 0.001,0.014l0.001,0.011c0.001,0.013 0.003,0.027 0.005,0.041l0.002,0.008c0.002,0.012 0.005,0.024 0.007,0.035c0.003,0.01 0.006,0.02 0.008,0.029l0.008,0.025c0.005,0.015 0.011,0.03 0.017,0.045c0.001,0.001 0.001,0.002 0.002,0.003c0.006,0.015 0.012,0.029 0.019,0.044l0.006,0.012c0.003,0.005 0.005,0.009 0.007,0.013l0.018,0.033l0.013,0.024l0.014,0.023l0.01,0.015c0.002,0.004 0.005,0.008 0.007,0.011c0.007,0.012 0.015,0.023 0.023,0.035l0.001,0.001c0.009,0.014 0.02,0.028 0.03,0.042l0.01,0.014l0.019,0.024c0.021,0.028 0.044,0.056 0.068,0.084c0.01,0.011 0.02,0.022 0.03,0.034c0.007,0.008 0.014,0.016 0.022,0.024c0.015,0.017 0.031,0.034 0.047,0.051l0.013,0.014c0.023,0.024 0.047,0.048 0.072,0.072l0.012,0.012l0.042,0.04l0.032,0.03c0.003,0.003 0.006,0.006 0.01,0.009c0.026,0.025 0.054,0.05 0.083,0.075l0.015,0.013c0.023,0.02 0.047,0.04 0.071,0.061l0.03,0.025l0.049,0.041l0.033,0.026c0.017,0.014 0.034,0.028 0.051,0.041l0.004,0.004c0.023,0.017 0.045,0.035 0.069,0.053l0.024,0.019c0.008,0.006 0.015,0.012 0.023,0.018c0.017,0.012 0.034,0.025 0.051,0.038l0.036,0.027c0.005,0.004 0.011,0.008 0.017,0.013l0.054,0.039l0.039,0.029c0.011,0.008 0.022,0.016 0.033,0.024l0.039,0.027c0.017,0.013 0.035,0.025 0.053,0.038l0.1,-0.85c-0,-0.26 -0.033,-0.476 -0.109,-0.641l-0.011,-0.06l-0.071,-0.075l-0.021,-0.086l-0.266,-0.216l-0.372,-0.072Z"/><path d="M29.75,14c0,-0.667 -0.183,-1.283 -0.55,-1.85c-0.4,-0.6 -0.9,-0.9 -1.5,-0.9c-0.767,0 -1.35,0.383 -1.75,1.15c-0.333,0.667 -0.5,1.467 -0.5,2.4c0,1.5 0.583,2.25 1.75,2.25c0.7,0 1.3,-0.317 1.8,-0.95c0.5,-0.6 0.75,-1.3 0.75,-2.1Zm-1.028,0.778l0.078,-0.328l-0.001,-0.025l-0,-0.014l-0.002,-0.02c-0.001,-0.007 -0.002,-0.015 -0.002,-0.022l-0.002,-0.009l-0.003,-0.018c-0.001,-0.008 -0.003,-0.016 -0.004,-0.023l-0.006,-0.024c-0,-0.003 -0.001,-0.005 -0.002,-0.008c-0.001,-0.006 -0.003,-0.013 -0.005,-0.019l-0.007,-0.023c-0.001,-0.005 -0.003,-0.009 -0.004,-0.014c-0.002,-0.003 -0.003,-0.007 -0.004,-0.01l-0.009,-0.026l-0.012,-0.027l-0.004,-0.011c-0.005,-0.012 -0.011,-0.024 -0.017,-0.036l-0.001,-0.002c-0.006,-0.013 -0.012,-0.025 -0.019,-0.037l-0.014,-0.027l-0.013,-0.022c-0.002,-0.003 -0.004,-0.007 -0.006,-0.01c-0.003,-0.006 -0.007,-0.012 -0.011,-0.018l-0.016,-0.026l-0.018,-0.028l-0.014,-0.019l-0.022,-0.032l-0.025,-0.032l-0.009,-0.012l-0.028,-0.035l-0.031,-0.038l-0.01,-0.011c-0.008,-0.01 -0.018,-0.02 -0.027,-0.031c-0.003,-0.004 -0.006,-0.007 -0.01,-0.011l-0.026,-0.029c-0.004,-0.004 -0.007,-0.007 -0.01,-0.01c-0.011,-0.012 -0.022,-0.024 -0.033,-0.036l-0.016,-0.016l-0.032,-0.032l-0.028,-0.028l-0.018,-0.017l-0.024,-0.023c-0.012,-0.011 -0.024,-0.023 -0.037,-0.034l-0.042,-0.039l-0.028,-0.024l-0.048,-0.042l-0.024,-0.018l-0.039,-0.03c-0.003,-0.003 -0.007,-0.006 -0.011,-0.009c-0.017,-0.013 -0.034,-0.025 -0.05,-0.038l-0.044,-0.032l-0.044,-0.031l-0.028,-0.019c-0.01,-0.008 -0.021,-0.015 -0.031,-0.022l-0.031,-0.02c-0.003,-0.002 -0.006,-0.004 -0.009,-0.006c-0.02,-0.013 -0.04,-0.026 -0.06,-0.039l-0.026,-0.016l-0.019,-0.012l-0.042,-0.025l-0.035,-0.02c-0.004,-0.002 -0.007,-0.004 -0.01,-0.006c-0.01,-0.005 -0.02,-0.011 -0.03,-0.016c-0.014,-0.008 -0.027,-0.015 -0.041,-0.022l-0.015,-0.008c-0.01,-0.005 -0.019,-0.009 -0.029,-0.014c-0.007,-0.003 -0.013,-0.006 -0.019,-0.009l-0.513,-0.138l-0.027,0c-0.019,0.001 -0.037,0.001 -0.055,0.002l-0.024,0.002l-0.011,0.001c-0.029,0.002 -0.057,0.005 -0.085,0.009c-0.017,0.003 -0.034,0.006 -0.051,0.009l-0.002,0c-0.013,0.003 -0.025,0.006 -0.038,0.009l-0.021,0.005l-0.018,0.005l-0.02,0.006l-0.013,0.004l-0.025,0.008l-0.017,0.006l-0.019,0.007l-0.009,0.004c-0.068,0.028 -0.13,0.064 -0.186,0.108l-0.004,0.003c-0.008,0.006 -0.017,0.013 -0.025,0.02l-0.019,0.018l-0.012,0.011c-0.016,0.015 -0.031,0.031 -0.046,0.048l-0.005,0.006c-0.005,0.006 -0.01,0.012 -0.015,0.018c-0.107,0.133 -0.18,0.307 -0.219,0.525l-0.001,0.001c-0.022,0.123 -0.033,0.259 -0.033,0.408l0,0.028c0,0.016 0.001,0.031 0.002,0.046l0,0.015l0.002,0.022c0.003,0.046 0.009,0.09 0.017,0.133l0.004,0.021l0.006,0.026l0.008,0.032l0.007,0.026c0.004,0.012 0.008,0.024 0.011,0.035c0.001,0.003 0.002,0.005 0.003,0.007c0.004,0.011 0.008,0.022 0.012,0.033l0.002,0.005c0.008,0.021 0.017,0.041 0.027,0.061c0.001,0.001 0.001,0.003 0.002,0.005c0.019,0.038 0.04,0.074 0.064,0.108l0.009,0.013c0.012,0.017 0.025,0.033 0.038,0.048l0.022,0.026c0.028,0.031 0.059,0.06 0.092,0.088l0.013,0.01l0.022,0.018c0.002,0.001 0.003,0.002 0.005,0.003c0.01,0.008 0.021,0.015 0.032,0.023l0.026,0.017l0.012,0.008l0.019,0.012c0.007,0.004 0.014,0.008 0.021,0.012l0.019,0.01c0.005,0.003 0.01,0.006 0.015,0.009l0.032,0.016l0.026,0.012c0.014,0.007 0.029,0.013 0.043,0.019l0.032,0.014c0.009,0.003 0.017,0.006 0.025,0.009c0.005,0.002 0.01,0.004 0.015,0.006l0.033,0.011l0.019,0.006l0.027,0.009l0.024,0.007c0.014,0.004 0.028,0.008 0.042,0.012l0.01,0.002l0.028,0.008l0.028,0.006c0.015,0.004 0.029,0.007 0.044,0.01l0.04,0.008l0.034,0.006l0.037,0.007l0.025,0.003c0.008,0.002 0.017,0.003 0.026,0.004l0.029,0.004l0.021,0.003l0.049,0.005l0.043,0.005l0.022,0.002l0.023,0.001l0.043,0.004l0.039,0.002l0.035,0.002l0.048,0.002l0.015,0l0.042,0.001l0.036,0.001l0.041,-0c0.004,-0 0.008,-0 0.012,-0l0.938,-0.188l0.234,-0.234Z"/><path d="M47.3,51.6l-0.65,0l0.65,-0.05l-0,0.05Z" style="fill:#f00;"/><path d="M45.3,51.6l-1.4,0c-0.867,0 -4.117,-3.25 -9.75,-9.75c-0.8,3.067 -1.567,5.217 -2.3,6.45c-1.233,2.2 -2.917,3.3 -5.05,3.3l-4.2,0l0,-5.05l0.05,0l0.9,0.05l1.35,0c4.7,0 7.05,-1.117 7.05,-3.35c0,-1 -0.667,-2.067 -2,-3.2c-1.233,-1.033 -2.467,-2.067 -3.7,-3.1c-1.367,-1.367 -2.05,-2.783 -2.05,-4.25c0,-1.633 0.2,-2.883 0.6,-3.75c0.467,-1.033 3.05,-2.983 7.75,-5.85c4.233,-2.567 7.217,-4.167 8.95,-4.8c-0.167,0.867 -0.45,2.2 -0.85,4c-2.633,1.5 -5.283,2.983 -7.95,4.45c-3.267,1.833 -5.767,3.6 -7.5,5.3c1.067,0.7 4.55,3.317 10.45,7.85c5.6,4.3 8.433,6.467 8.5,6.5c0.433,0.1 1.483,0.15 3.15,0.15l-0,0.05l-2,0l-0,5Z" style="fill:#f00;"/><path d="M52.121,65.284l-5.05,3.65c-0.671,0.485 -0.822,1.424 -0.337,2.095c0.485,0.671 1.424,0.822 2.095,0.337l5.05,-3.65c0.671,-0.485 0.822,-1.424 0.337,-2.095c-0.485,-0.671 -1.424,-0.822 -2.095,-0.337Z"/></g></svg>