<?xml version="1.0" encoding="UTF-8" standalone="no"?><!DOCTYPE svg PUBLIC "-//W3C//DTD SVG 1.1//EN" "http://www.w3.org/Graphics/SVG/1.1/DTD/svg11.dtd"><svg width="100%" height="100%" viewBox="0 0 76 74" version="1.1" xmlns="http://www.w3.org/2000/svg" xmlns:xlink="http://www.w3.org/1999/xlink" xml:space="preserve" xmlns:serif="http://www.serif.com/" style="fill-rule:evenodd;clip-rule:evenodd;stroke-linejoin:round;stroke-miterlimit:2;"><g><path d="M52.45,25.85c-0.467,0.5 -0.917,1 -1.35,1.5c-0.333,0.467 -0.5,1.133 -0.5,2c-0,6.767 0.033,11.1 0.1,13c0.233,6.533 0.817,10.467 1.75,11.8c0.767,1.1 1.817,1.65 3.15,1.65l3.6,0l0,-0.05c2.254,-0.08 3.904,-0.613 4.95,-1.6c1.267,-1.233 1.9,-3.317 1.9,-6.25c-0,-0.833 -0.317,-2.7 -0.95,-5.6c-0.7,1.8 -1.267,3.133 -1.7,4c0.667,1.433 1.083,2.467 1.25,3.1c-0.654,0.903 -2.47,1.369 -5.45,1.4l0,-0.05c-2.9,-0 -4.783,-0.633 -5.65,-1.9c-0.733,-1.067 -1.1,-3.333 -1.1,-6.8l0,-16.2Z"/><path d="M5.35,62.55c-1.133,0 -2.767,-0.1 -4.9,-0.3c2,2.2 4.317,3.3 6.95,3.3c2.3,0 4.25,-1.05 5.85,-3.15c1.133,-1.467 2.233,-3.667 3.3,-6.6l1.7,0l0,-4.85c-0.486,0.012 -0.986,-0.005 -1.5,-0.05c-0.4,-1 -0.8,-1.983 -1.2,-2.95c-0.667,-1.3 -1.333,-1.95 -2,-1.95c-0.8,-0 -1.65,0.95 -2.55,2.85c-0.8,1.767 -1.2,3.2 -1.2,4.3c-0,1.333 0.583,2.183 1.75,2.55c1.067,0.167 2.133,0.35 3.2,0.55c-1.267,2.1 -2.583,3.633 -3.95,4.6c-1.533,1.133 -3.35,1.7 -5.45,1.7Zm7.2,-12.75c-0.022,0.041 -0.044,0.082 -0.065,0.123c-0.033,0.062 -0.065,0.125 -0.098,0.189c-0.137,0.268 -0.275,0.549 -0.412,0.844l-0.025,0.053c-0.037,0.08 -0.074,0.16 -0.11,0.241c-0.025,0.055 -0.05,0.111 -0.075,0.166l-0.015,0.034c0.003,0.003 0.005,0.005 0.008,0.008c0.004,0.005 0.009,0.01 0.013,0.015c0.003,0.004 0.007,0.008 0.01,0.012l0.013,0.017c0.014,0.02 0.027,0.041 0.039,0.064l0.002,0.004c0.008,0.016 0.015,0.032 0.022,0.049c0.005,0.01 0.009,0.021 0.013,0.032l0.002,0.005c0.013,0.036 0.024,0.074 0.033,0.116c0.002,0.008 0.004,0.016 0.006,0.024c0.007,0.037 0.014,0.077 0.019,0.118c0.001,0.006 0.002,0.012 0.003,0.018c0.011,0.089 0.016,0.189 0.017,0.299l0,0.019c0.017,0.002 0.034,0.005 0.05,0.007c0.085,0.012 0.169,0.024 0.251,0.034l0.043,0.006c0.062,0.008 0.123,0.016 0.183,0.023l0.042,0.005c0.119,0.014 0.236,0.027 0.35,0.039l0.036,0.004c0.117,0.012 0.233,0.023 0.345,0.032c0.013,0.001 0.025,0.002 0.037,0.003l0.038,0.003c0.012,0.001 0.024,0.002 0.037,0.003l0.036,0.003c0.087,0.006 0.173,0.012 0.257,0.017c0.104,0.006 0.206,0.01 0.306,0.014c0.011,0 0.022,0.001 0.033,0.001l0.034,0.001c0.022,0.001 0.044,0.001 0.066,0.002c0.011,0 0.022,0 0.032,0.001l0.033,0c0.065,0.001 0.129,0.002 0.191,0.002l-0.45,-1.65l-0.014,-0.021l-0.005,-0.007c-0.012,-0.017 -0.025,-0.033 -0.038,-0.05c-0.029,-0.037 -0.062,-0.074 -0.099,-0.112c-0.007,-0.008 -0.014,-0.015 -0.022,-0.023c-0.042,-0.041 -0.088,-0.084 -0.139,-0.127c-0.009,-0.008 -0.018,-0.015 -0.027,-0.023c-0.017,-0.014 -0.034,-0.028 -0.052,-0.042c-0.011,-0.009 -0.022,-0.017 -0.033,-0.026c-0.019,-0.015 -0.039,-0.029 -0.058,-0.044l-0.863,-0.525Z"/><path d="M65.65,32.5l-2.3,2.55l2.3,2.55l2.4,-2.6l-2.4,-2.5Z"/><path d="M63.35,35.05l-2.25,-2.55l-2.35,2.5l2.3,2.6l2.3,-2.55Z"/><path d="M22,19.6c-0.333,-0.267 -0.583,-0.45 -0.75,-0.55c0.4,-0.867 0.6,-1.567 0.6,-2.1c-0,-1.033 -0.433,-1.55 -1.3,-1.55c-0.633,-0 -1.2,0.367 -1.7,1.1c-0.433,0.667 -0.65,1.3 -0.65,1.9c0,0.5 0.417,1.017 1.25,1.55c-1.5,1.233 -2.9,2.167 -4.2,2.8c0.467,0.133 0.833,0.2 1.1,0.2c1.1,-0 2.417,-0.85 3.95,-2.55c0.6,0.433 1.117,0.75 1.55,0.95l0.15,-1.75Zm-2.4,-2.65c-0.012,0.002 -0.024,0.004 -0.036,0.007l-0.021,0.005l-0.011,0.002c-0.041,0.012 -0.08,0.026 -0.115,0.044l-0.003,0.002l-0.02,0.011l-0.013,0.008c-0.012,0.007 -0.024,0.015 -0.035,0.024l-0.019,0.016l-0.018,0.016c-0.005,0.004 -0.009,0.009 -0.014,0.014c-0.003,0.003 -0.005,0.006 -0.008,0.009l-0.012,0.014c-0.004,0.005 -0.008,0.009 -0.011,0.013l-0.011,0.016l-0.007,0.01c-0.006,0.009 -0.011,0.018 -0.017,0.028l-0.011,0.02c-0.001,0.004 -0.003,0.007 -0.005,0.01c-0.004,0.009 -0.008,0.018 -0.011,0.027c-0.001,0.001 -0.001,0.003 -0.002,0.004l0,0.013l0,0.012c0.001,0.006 0.001,0.012 0.001,0.018c0.001,0.002 0.001,0.005 0.001,0.007c0.001,0.012 0.002,0.024 0.004,0.036l0.002,0.016l0.002,0.011c0.004,0.02 0.008,0.039 0.014,0.059l0.005,0.02l0.004,0.011c0.015,0.048 0.037,0.096 0.064,0.145l0.008,0.014l0.013,0.022l0.007,0.012l0.015,0.023l0.009,0.013c0.004,0.005 0.008,0.011 0.012,0.017l0.006,0.008c0.008,0.012 0.017,0.024 0.027,0.035c0,0.001 0.001,0.002 0.001,0.002c0.01,0.013 0.02,0.025 0.031,0.037l0.001,0.002c0.013,0.016 0.028,0.032 0.043,0.048l0.012,0.013c0.012,0.013 0.024,0.025 0.037,0.038l0.024,0.023l0.028,0.027l0.021,0.018l0.012,0.011l0.016,0.014c0.014,0.012 0.028,0.024 0.042,0.035l0.009,0.008l0.028,0.022l0.028,0.023l0.017,0.012l0.014,0.011c0.009,0.006 0.018,0.013 0.026,0.019l0.011,0.008c0.017,0.012 0.034,0.024 0.05,0.036l0.022,0.015l0.018,0.012l0.019,0.013l0.036,0.023l0.019,0.013l0.033,0.021l0.027,0.016l0.021,0.014c0.011,0.006 0.022,0.013 0.033,0.019l0.016,0.01c0.025,0.015 0.049,0.029 0.074,0.043l0.055,0.031l0.032,0.017l0.04,0.022l0.012,0.006l0.042,0.023l0.046,0.023l0.046,0.024l0.036,0.018l0.015,0.008l0.05,0.024c0.004,0.002 0.009,0.004 0.013,0.006l0.1,-0.55l-0.062,-0.394l-0.003,-0.004l-0.001,-0.005l-0.002,-0.004c-0.043,-0.117 -0.108,-0.219 -0.194,-0.305l-0.788,-0.338Z"/><path d="M35.45,15.7c-0.433,0.667 -0.65,1.3 -0.65,1.9c-0,0.5 0.417,1.017 1.25,1.55c-1.5,1.233 -2.9,2.167 -4.2,2.8c0.467,0.133 0.833,0.2 1.1,0.2c1.1,-0 2.417,-0.85 3.95,-2.55c0.6,0.433 1.117,0.75 1.55,0.95l0.15,-1.75c-0.333,-0.267 -0.583,-0.45 -0.75,-0.55c0.4,-0.867 0.6,-1.567 0.6,-2.1c0,-1.033 -0.433,-1.55 -1.3,-1.55c-0.633,0 -1.2,0.367 -1.7,1.1Zm0.75,0.45c-0.014,0.002 -0.028,0.005 -0.042,0.008c-0.034,0.008 -0.067,0.018 -0.099,0.031c-0.027,0.011 -0.054,0.024 -0.078,0.04c-0.026,0.016 -0.049,0.034 -0.071,0.055c-0.02,0.019 -0.039,0.041 -0.055,0.064c-0.016,0.023 -0.031,0.048 -0.043,0.073c-0.003,0.007 -0.006,0.014 -0.008,0.02l-0.004,0.008c0,0 0,0.001 -0,0.001c-0,0 0,0.001 0,0.001l0,0.024l0.002,0.019l0,0.006c0.001,0.012 0.002,0.023 0.004,0.035l0.002,0.017c0.002,0.011 0.004,0.023 0.007,0.035c0.003,0.012 0.006,0.024 0.009,0.036l0.006,0.019l0.007,0.024l0.005,0.013c0.007,0.019 0.015,0.038 0.023,0.057c0.009,0.019 0.019,0.039 0.03,0.058l0.01,0.018l0.013,0.023l0.014,0.021c0.019,0.029 0.039,0.058 0.062,0.087l0.002,0.002c0.016,0.02 0.032,0.039 0.049,0.059c0.031,0.035 0.064,0.069 0.098,0.101l0.002,0.003c0.013,0.012 0.026,0.023 0.039,0.035l0.037,0.033c0.013,0.012 0.027,0.023 0.041,0.034l0.008,0.007l0.029,0.023l0.045,0.035l0.017,0.013l0.022,0.016l0.023,0.017l0.038,0.027l0.032,0.022c0.02,0.013 0.04,0.027 0.061,0.041l0.052,0.033l0.019,0.011l0.037,0.023l0.02,0.013c0.021,0.012 0.041,0.024 0.062,0.036l0.05,0.029l0.054,0.03l0.038,0.021l0.035,0.019c0.016,0.008 0.031,0.016 0.047,0.024l0.031,0.016l0.024,0.013l0.03,0.015l0.028,0.014l0.029,0.014c0.019,0.009 0.038,0.019 0.057,0.028l0.1,-0.55c-0,-0 -0.062,-0.394 -0.062,-0.394l-0.003,-0.004l-0.001,-0.005l-0.002,-0.004c-0.043,-0.117 -0.108,-0.219 -0.194,-0.305l-0.788,-0.338Z"/><path d="M36.5,39.55c-1.2,-0.867 -2.4,-1.75 -3.6,-2.65c0.933,-1.033 3.1,-2.5 6.5,-4.4c0.633,-0.333 3.05,-1.6 7.25,-3.8l0.75,-4.2c-2.767,0.633 -6.067,2.317 -9.9,5.05c-4.4,3.2 -6.6,6.067 -6.6,8.6c0,1.5 0.683,2.8 2.05,3.9c1.3,0.833 2.583,1.667 3.85,2.5c1.367,1.033 2.05,2.183 2.05,3.45c-0,1.9 -2.35,2.85 -7.05,2.85c-0.437,0 -0.904,-0.017 -1.4,-0.05l0,-0.05c-1.833,-0 -3.15,-0.583 -3.95,-1.75c-0.7,-1.033 -1.05,-2.6 -1.05,-4.7c0,-2.467 -0.133,-5.733 -0.4,-9.8c-0.333,-4.933 -0.533,-8.2 -0.6,-9.8c-1.6,1.4 -2.4,2.9 -2.4,4.5c0,1.967 0.167,4.95 0.5,8.95c0.367,3.967 0.55,6.95 0.55,8.95c-0,1.633 -0.467,2.7 -1.4,3.2c-0.6,0.3 -1.733,0.45 -3.4,0.45l0,5.05l2.4,-0c0.8,-0 1.533,-0.567 2.2,-1.7c1,-1.767 1.517,-2.683 1.55,-2.75c0.467,0.967 0.917,1.917 1.35,2.85c0.6,1.067 1.35,1.6 2.25,1.6l5.9,-0c2.033,-0 3.717,-0.867 5.05,-2.6c1.267,-1.667 1.9,-3.65 1.9,-5.95c-0,-1.7 -0.433,-3.217 -1.3,-4.55c-0.667,-1.033 -1.683,-2.083 -3.05,-3.15Z" style="fill:#f00;"/><path d="M63.729,13.979l-5.05,3.6c-0.674,0.48 -0.831,1.418 -0.35,2.092c0.48,0.674 1.418,0.831 2.092,0.35l5.05,-3.6c0.674,-0.48 0.831,-1.418 0.35,-2.092c-0.48,-0.674 -1.418,-0.831 -2.092,-0.35Z"/></g></svg>