<?xml version="1.0" encoding="UTF-8" standalone="no"?><!DOCTYPE svg PUBLIC "-//W3C//DTD SVG 1.1//EN" "http://www.w3.org/Graphics/SVG/1.1/DTD/svg11.dtd"><svg width="100%" height="100%" viewBox="0 0 76 81" version="1.1" xmlns="http://www.w3.org/2000/svg" xmlns:xlink="http://www.w3.org/1999/xlink" xml:space="preserve" xmlns:serif="http://www.serif.com/" style="fill-rule:evenodd;clip-rule:evenodd;stroke-linejoin:round;stroke-miterlimit:2;"><g><path d="M10.15,54.05c-2.733,-0.933 -4.1,-2.4 -4.1,-4.4c-0,-0.867 0.317,-2.167 0.95,-3.9c-1.967,2.1 -2.95,4.15 -2.95,6.15c-0,4.933 3.483,7.4 10.45,7.4c11.367,-0 17.05,-3.517 17.05,-10.55c-0,-2.633 -0.783,-4.533 -2.35,-5.7c-0.233,1.167 -0.717,2.783 -1.45,4.85c1.333,1.1 2,2.283 2,3.55c-0.9,1.1 -3,2.017 -6.3,2.75c-2.667,0.567 -5,0.85 -7,0.85c-2.3,-0 -4.4,-0.333 -6.3,-1Z"/><path d="M60.546,53.707c1.868,-0.179 3.053,-0.615 3.554,-1.307c-0.167,-0.633 -0.567,-1.667 -1.2,-3.1c0.433,-0.867 0.983,-2.2 1.65,-4c0.633,2.9 0.95,4.767 0.95,5.6c0,2.933 -0.633,5.017 -1.9,6.25c-1.084,1.022 -2.801,1.572 -5.15,1.65l-1.7,-0l0,-5l1.7,-0l2.096,-0.093Z"/><path d="M16.2,42.75l2.3,-2.6l-2.35,-2.55l-2.25,2.5l2.3,2.65Z"/><path d="M18.5,40.15l2.3,2.6l2.35,-2.65l-2.35,-2.5l-2.3,2.55Z"/><path d="M62.4,39.95l-2.3,-2.55l-2.3,2.5l2.3,2.65l2.3,-2.6Z"/><path d="M67.05,39.9l-2.35,-2.5l-2.3,2.55l2.3,2.6l2.35,-2.65Z"/><path d="M18.6,37.4l2.35,-2.65l-2.3,-2.55l-2.3,2.55l2.25,2.65Z"/><path d="M60.25,34.55l2.3,2.65l2.3,-2.65l-2.3,-2.55l-2.3,2.55Z"/><path d="M20.95,19.55c-0.633,0 -1.233,0.367 -1.8,1.1c-0.533,0.7 -0.8,1.383 -0.8,2.05c-0,0.8 0.467,1.5 1.4,2.1c-0.9,1 -1.75,1.633 -2.55,1.9c0.067,-0.933 0.1,-1.5 0.1,-1.7c-0,-1.633 -0.483,-2.45 -1.45,-2.45c-0.533,0 -0.967,0.267 -1.3,0.8c-0.3,0.467 -0.45,1 -0.45,1.6c-0,0.3 0.067,0.683 0.2,1.15c0.133,-1.133 0.483,-1.7 1.05,-1.7c0.3,-0 0.533,0.133 0.7,0.4c0.2,0.233 0.3,0.5 0.3,0.8c-0,0.467 -0.283,1.417 -0.85,2.85c1.1,-0.233 2.033,-0.6 2.8,-1.1c0.633,-0.4 1.383,-1.1 2.25,-2.1c0.433,0.367 1.067,0.8 1.9,1.3c0.033,-0.833 0.05,-1.3 0.05,-1.4c0,-0.5 -0.267,-0.967 -0.8,-1.4c0.433,-1.1 0.65,-1.917 0.65,-2.45c-0,-0.433 -0.133,-0.833 -0.4,-1.2c-0.3,-0.367 -0.633,-0.55 -1,-0.55Zm-0.9,1.45c-0.099,-0 -0.231,0.033 -0.396,0.098l-0.004,0.002l-0.2,0.4l0,0.02c0.001,0.006 0.001,0.011 0.001,0.017c0.001,0.002 0.001,0.004 0.001,0.006c0.001,0.011 0.002,0.021 0.004,0.032c0.001,0.004 0.001,0.008 0.002,0.012c0.004,0.02 0.008,0.041 0.014,0.061l0.004,0.013c0.002,0.007 0.005,0.014 0.007,0.02c0.015,0.045 0.036,0.092 0.063,0.14l0.009,0.017l0.013,0.022c0.004,0.007 0.009,0.015 0.013,0.022l0.017,0.026c0.004,0.006 0.008,0.012 0.012,0.019c0.002,0.002 0.004,0.005 0.006,0.008c0.009,0.014 0.019,0.027 0.029,0.041c0.004,0.005 0.007,0.01 0.011,0.015l0.021,0.027c0.013,0.017 0.027,0.034 0.041,0.051l0.016,0.02l0.023,0.026l0.028,0.032c0.016,0.018 0.032,0.035 0.049,0.053l0.02,0.021c0.004,0.005 0.009,0.01 0.014,0.015c0.014,0.014 0.028,0.028 0.042,0.043l0.013,0.012l0.026,0.026c0.009,0.008 0.018,0.017 0.027,0.026l0.034,0.031l0.025,0.023c0.003,0.003 0.006,0.006 0.009,0.009c0.018,0.016 0.036,0.032 0.054,0.048c0.007,0.006 0.013,0.011 0.019,0.017l0.038,0.032c0.01,0.009 0.02,0.018 0.03,0.026l0.037,0.032l0.031,0.026c0.004,0.002 0.007,0.005 0.01,0.007c0.011,0.01 0.023,0.019 0.034,0.028c0.008,0.006 0.015,0.013 0.023,0.019c0.006,0.005 0.013,0.01 0.019,0.015c0.025,0.02 0.05,0.04 0.076,0.06l0.027,0.021c0.009,0.006 0.017,0.013 0.025,0.019l0.034,0.026l0.039,0.029l0.051,0.038c0.015,0.011 0.03,0.022 0.045,0.033l0.048,0.035l0.05,0.037l0.055,0.038c0.004,0.003 0.007,0.005 0.011,0.008l0.1,-0.85c-0,-0 -0.12,-0.701 -0.12,-0.701l-0.071,-0.075l-0.021,-0.086l-0.266,-0.216l-0.372,-0.072Z"/><path d="M56.75,58.8l-1.85,-0c-1.8,-0 -3.1,-1.533 -3.9,-4.6c-0.533,-2.133 -0.8,-4.833 -0.8,-8.1c0,-0.733 0.017,-1.467 0.05,-2.2c-0.8,5.867 -2,9.983 -3.6,12.35c-2.167,3.167 -5.7,4.75 -10.6,4.75c1.5,-0.8 3.45,-2.317 5.85,-4.55c2.6,-2.433 4.15,-4.333 4.65,-5.7c-0.767,-4.533 -3.483,-8.733 -8.15,-12.6c-0.867,0.3 -1.633,0.45 -2.3,0.45c-2.567,0 -3.85,-1.6 -3.85,-4.8c0,-0.567 0.15,-1.15 0.45,-1.75c0.367,-0.667 0.783,-1 1.25,-1c1.667,0 3.95,1.7 6.85,5.1c2.533,2.967 4.25,5.55 5.15,7.75c0.333,0.8 0.8,2.583 1.4,5.35c0.833,-3.067 1.333,-5.75 1.5,-8.05c0.067,-1.133 0.1,-4.083 0.1,-8.85c0.433,-0.667 1.433,-1.917 3,-3.75l-0.1,2.45c-0.033,1.7 -0.05,3.3 -0.05,4.8c-0,10.9 1.15,16.783 3.45,17.65c0.5,0.167 1.567,0.25 3.2,0.25l0,0.05l-1.7,-0l-0,5Z" style="fill:#f00;"/><path d="M61.979,17.629l-5.05,3.6c-0.674,0.48 -0.831,1.418 -0.35,2.092c0.48,0.674 1.418,0.831 2.092,0.35l5.05,-3.6c0.674,-0.48 0.831,-1.418 0.35,-2.092c-0.48,-0.674 -1.418,-0.831 -2.092,-0.35Z"/><path d="M45.035,16.425l-5.1,3.6c-0.676,0.477 -0.838,1.414 -0.36,2.09c0.477,0.676 1.414,0.838 2.09,0.36l5.1,-3.6c0.676,-0.477 0.838,-1.414 0.36,-2.09c-0.477,-0.676 -1.414,-0.838 -2.09,-0.36Z"/></g></svg>