<?xml version="1.0" encoding="UTF-8" standalone="no"?><!DOCTYPE svg PUBLIC "-//W3C//DTD SVG 1.1//EN" "http://www.w3.org/Graphics/SVG/1.1/DTD/svg11.dtd"><svg width="100%" height="100%" viewBox="0 0 69 81" version="1.1" xmlns="http://www.w3.org/2000/svg" xmlns:xlink="http://www.w3.org/1999/xlink" xml:space="preserve" xmlns:serif="http://www.serif.com/" style="fill-rule:evenodd;clip-rule:evenodd;stroke-linejoin:round;stroke-miterlimit:2;"><g><path d="M34,49.8c-0.6,-1.8 -1.433,-2.7 -2.5,-2.7c-0.9,0 -1.733,0.883 -2.5,2.65c-0.733,1.567 -1.1,2.933 -1.1,4.1c-0,2 0.717,3 2.15,3c1.067,0 2.083,-0.667 3.05,-2c0.233,0.6 0.35,1.167 0.35,1.7c0,2.933 -1.85,5.25 -5.55,6.95c-2.9,1.333 -5.867,2 -8.9,2c1.467,0.667 2.483,1.1 3.05,1.3c1,0.3 2.067,0.45 3.2,0.45c3.067,0 5.45,-1.4 7.15,-4.2c1.5,-2.467 2.25,-5.5 2.25,-9.1c-0,-1.433 -0.217,-2.817 -0.65,-4.15Zm-2.8,1.275l0.6,0.65l0.1,0.175l0.2,0.75c0,0.3 -0.167,0.55 -0.5,0.75c-0.15,0.117 -0.3,0.204 -0.45,0.263l-0.45,0.087c-0.033,0 -0.433,-0.217 -1.2,-0.65c0.333,-0.9 0.667,-1.717 1,-2.45l0.7,0.425Z"/><path d="M11.7,61.5c-3.667,0 -5.5,-1.75 -5.5,-5.25c0,-0.167 0.183,-1.667 0.55,-4.5c-0.733,0.667 -1.3,1.883 -1.7,3.65c-0.367,1.467 -0.55,2.867 -0.55,4.2c-0,2.533 0.467,4.35 1.4,5.45c0.967,1.2 2.567,1.8 4.8,1.8c5.967,0 8.95,-4.783 8.95,-14.35c-0,-4.8 -0.467,-9.85 -1.4,-15.15c0.5,-0.3 0.85,-1 1.05,-2.1c0.133,-0.867 0.25,-1.733 0.35,-2.6c-1.1,-0.167 -1.8,-0.7 -2.1,-1.6c-0.2,-0.533 -0.3,-1.55 -0.3,-3.05c-0.867,1.3 -1.6,3.183 -2.2,5.65c0.6,0.867 1.067,1.5 1.4,1.9c0.1,1.367 0.383,5.033 0.85,11c0.367,4.6 0.55,8.3 0.55,11.1c0,1.233 -0.783,2.233 -2.35,3c-1.233,0.567 -2.5,0.85 -3.8,0.85Z"/><path d="M63,59.35c1.333,-1.233 2,-4.467 2,-9.7l-0.2,-21.2c-1.6,2.333 -2.4,3.733 -2.4,4.2l0.6,26.7Z"/><path d="M32,52.075l0.1,0.575l-0.2,-0.75l0.1,0.175Z"/><path d="M31.8,51.725l-0.6,-0.65l0.5,0.475l0.1,0.175Z"/><path d="M31.8,51.725l0.075,0.081l-0.075,-0.081l0.1,0.175l-0.1,-0.175Z"/><path d="M31.875,51.806l0.025,0.094l-0.1,-0.175l0.075,0.081Z"/><path d="M31.8,51.725l-0.6,-0.65l0.6,0.65Z"/><path d="M29.05,30.2l-0.25,0.1c-0.1,0.7 -0.2,1.167 -0.3,1.4c-0.2,0.6 -0.483,0.9 -0.85,0.9c-0.333,0 -0.5,-0.517 -0.5,-1.55l-0.3,0.05c-0.2,0.733 -0.3,1.2 -0.3,1.4c-0,0.433 0.083,0.8 0.25,1.1c0.167,0.333 0.433,0.5 0.8,0.5c0.3,0 0.6,-0.117 0.9,-0.35c0.267,-0.267 0.417,-0.567 0.45,-0.9c0.267,0.2 0.55,0.3 0.85,0.3c0.9,-0 1.35,-0.8 1.35,-2.4c-0,-0.433 -0.067,-0.9 -0.2,-1.4l-0.3,0.1c-0,1.433 -0.283,2.15 -0.85,2.15c-0.3,0 -0.55,-0.467 -0.75,-1.4Z"/><path d="M14.15,19.15c-0.633,-0 -1.2,0.367 -1.7,1.1c-0.433,0.667 -0.65,1.3 -0.65,1.9c-0,0.5 0.417,1.017 1.25,1.55c-1.5,1.233 -2.9,2.167 -4.2,2.8c0.467,0.133 0.833,0.2 1.1,0.2c1.1,-0 2.417,-0.85 3.95,-2.55c0.6,0.433 1.117,0.75 1.55,0.95l0.15,-1.75c-0.333,-0.267 -0.583,-0.45 -0.75,-0.55c0.4,-0.867 0.6,-1.567 0.6,-2.1c0,-1.033 -0.433,-1.55 -1.3,-1.55Zm-0.955,1.551c-0.009,0.001 -0.018,0.003 -0.027,0.005l-0.022,0.005l-0.009,0.002l-0.022,0.006c-0.033,0.01 -0.065,0.023 -0.094,0.037l-0.002,0.001c-0.035,0.018 -0.066,0.039 -0.093,0.063l-0.009,0.007c-0.014,0.013 -0.027,0.026 -0.039,0.041l-0.01,0.012c-0.004,0.005 -0.008,0.01 -0.011,0.015c-0.018,0.025 -0.034,0.053 -0.047,0.082c-0.004,0.008 -0.007,0.015 -0.01,0.023c0,0.006 0,0.012 0,0.018c0,0.006 0.001,0.013 0.001,0.02c0.001,0.017 0.003,0.035 0.006,0.053c0.002,0.018 0.006,0.036 0.01,0.055c0.002,0.009 0.004,0.018 0.007,0.027l0.001,0.005c0.002,0.007 0.004,0.013 0.006,0.02c0.003,0.008 0.006,0.017 0.009,0.025l0.006,0.017c0.007,0.018 0.015,0.036 0.023,0.054c0.004,0.009 0.009,0.019 0.014,0.028c0.011,0.022 0.024,0.044 0.037,0.066l0.005,0.008c0.009,0.013 0.018,0.027 0.027,0.04l0.02,0.028l0.018,0.023l0.012,0.016l0.017,0.02l0.009,0.011c0.012,0.014 0.024,0.028 0.037,0.042c0.003,0.003 0.006,0.007 0.009,0.01c0.007,0.007 0.014,0.014 0.021,0.021c0.01,0.011 0.021,0.022 0.033,0.033c0.006,0.006 0.012,0.012 0.018,0.018l0.029,0.028l0.012,0.01c0.012,0.011 0.025,0.022 0.038,0.033c0.003,0.003 0.006,0.005 0.009,0.008c0.015,0.013 0.03,0.025 0.046,0.038c0.007,0.006 0.014,0.012 0.022,0.017l0.019,0.015c0.014,0.011 0.028,0.022 0.042,0.032l0.016,0.012l0.04,0.03c0.007,0.005 0.014,0.009 0.021,0.014c0.035,0.024 0.071,0.048 0.108,0.073c0.014,0.009 0.029,0.018 0.043,0.027l0.017,0.01c0.015,0.01 0.031,0.02 0.047,0.03c0.017,0.01 0.035,0.02 0.052,0.031c0.093,0.054 0.193,0.108 0.299,0.163l0.02,0.01c0.013,0.006 0.026,0.013 0.039,0.019c0.028,0.014 0.056,0.028 0.085,0.042l0.1,-0.55c-0,-0.022 -0,-0.043 -0.001,-0.064c-0.001,-0.024 -0.003,-0.048 -0.005,-0.071l-0.004,-0.03c-0.003,-0.031 -0.008,-0.062 -0.014,-0.092l-0.003,-0.013c-0.004,-0.016 -0.008,-0.033 -0.012,-0.048l-0.001,-0.005c-0.002,-0.009 -0.005,-0.017 -0.007,-0.025l-0.007,-0.021l-0.003,-0.011l-0.009,-0.023l-0.197,-0.309l-0.787,-0.338l-0.005,0.001Z"/><path d="M51.95,18.25c0,1.5 0.583,2.25 1.75,2.25c0.7,0 1.3,-0.317 1.8,-0.95c0.5,-0.6 0.75,-1.3 0.75,-2.1c0,-0.667 -0.183,-1.283 -0.55,-1.85c-0.4,-0.6 -0.9,-0.9 -1.5,-0.9c-0.767,-0 -1.35,0.383 -1.75,1.15c-0.333,0.667 -0.5,1.467 -0.5,2.4Zm1.5,-1.95l-0.023,0c-0.014,0 -0.028,0.001 -0.042,0.001c-0.013,0.001 -0.026,0.002 -0.039,0.003l-0.009,0c-0.021,0.002 -0.042,0.004 -0.062,0.007c-0.008,0.001 -0.016,0.002 -0.024,0.003c-0.013,0.002 -0.026,0.004 -0.039,0.006c-0.047,0.009 -0.092,0.02 -0.135,0.034l-0.02,0.007c-0.01,0.004 -0.021,0.008 -0.031,0.012l-0.008,0.003c-0.063,0.026 -0.122,0.058 -0.175,0.098l-0.016,0.012l-0.015,0.012c-0.014,0.012 -0.028,0.024 -0.041,0.037c-0.013,0.012 -0.025,0.025 -0.038,0.038c-0.004,0.005 -0.008,0.009 -0.012,0.014c-0.004,0.005 -0.009,0.01 -0.013,0.016c-0.172,0.208 -0.258,0.524 -0.258,0.947l0.001,0.052l0,0.013c0.031,0.682 0.552,1.027 1.564,1.035l0.035,-0l0.938,-0.188l0.087,-0.087l0.011,-0.008c0.004,-0.002 0.008,-0.005 0.012,-0.008c0.011,-0.009 0.023,-0.019 0.033,-0.028l0.013,-0.012c0.004,-0.004 0.007,-0.008 0.011,-0.011l0.011,-0.012c0.002,-0.003 0.005,-0.006 0.007,-0.008c0.006,-0.008 0.012,-0.015 0.018,-0.023l0.014,-0.019c0.001,-0.001 0.002,-0.002 0.003,-0.004l0.014,-0.014l0.003,-0.014l0.008,-0.014c0.002,-0.004 0.004,-0.007 0.006,-0.011c0.003,-0.007 0.007,-0.014 0.01,-0.022c0.004,-0.01 0.009,-0.02 0.013,-0.031c0,-0.002 0.001,-0.004 0.002,-0.006c0.003,-0.009 0.006,-0.019 0.009,-0.029c0.001,-0.002 0.002,-0.005 0.002,-0.008c0.003,-0.01 0.006,-0.02 0.008,-0.03l0.004,-0.019c0.001,-0.005 0.002,-0.011 0.003,-0.016c0,-0.004 0.001,-0.008 0.002,-0.011l0.003,-0.028c0.002,-0.013 0.003,-0.025 0.003,-0.038l0.002,-0.024l-0,-0.027c-0,-0.005 -0,-0.01 -0,-0.015l-0.001,-0.024l-0.002,-0.021c-0.001,-0.007 -0.002,-0.014 -0.003,-0.022l-0.004,-0.027l-0.007,-0.033l-0.005,-0.021c-0.001,-0.006 -0.003,-0.013 -0.005,-0.019c-0.002,-0.006 -0.003,-0.012 -0.005,-0.019l-0.007,-0.019c-0.001,-0.005 -0.003,-0.01 -0.005,-0.016l-0.01,-0.025c-0.002,-0.005 -0.004,-0.011 -0.006,-0.016l-0.007,-0.016c-0.005,-0.011 -0.01,-0.022 -0.015,-0.033l-0.011,-0.021l-0.011,-0.021c-0.003,-0.007 -0.007,-0.014 -0.01,-0.02c-0.002,-0.003 -0.003,-0.005 -0.004,-0.007c-0.004,-0.008 -0.009,-0.015 -0.013,-0.022c-0.002,-0.004 -0.004,-0.007 -0.006,-0.01c-0.003,-0.006 -0.007,-0.013 -0.011,-0.019l-0.014,-0.021l-0.02,-0.031l-0.013,-0.018c-0.014,-0.02 -0.028,-0.04 -0.044,-0.061l-0.013,-0.018c-0.004,-0.004 -0.008,-0.009 -0.012,-0.014l-0.012,-0.016l-0.022,-0.026c-0.003,-0.003 -0.005,-0.006 -0.007,-0.009c-0.015,-0.017 -0.03,-0.034 -0.045,-0.051l-0.008,-0.01l-0.032,-0.034c-0.014,-0.015 -0.028,-0.03 -0.043,-0.046l-0.034,-0.034l-0.019,-0.019c-0.025,-0.025 -0.051,-0.05 -0.079,-0.075l-0.027,-0.026l-0.039,-0.034c-0.008,-0.007 -0.016,-0.015 -0.024,-0.022l-0.045,-0.039l-0.005,-0.004c-0.016,-0.012 -0.031,-0.024 -0.047,-0.036l-0.005,-0.004c-0.021,-0.016 -0.042,-0.032 -0.063,-0.048c-0.015,-0.011 -0.029,-0.021 -0.044,-0.032c-0.006,-0.004 -0.013,-0.009 -0.02,-0.014c-0.004,-0.003 -0.009,-0.007 -0.014,-0.01c-0.021,-0.015 -0.042,-0.029 -0.062,-0.043l-0.033,-0.022c-0.008,-0.006 -0.016,-0.011 -0.024,-0.016c-0.013,-0.009 -0.026,-0.017 -0.039,-0.025c-0.019,-0.013 -0.038,-0.025 -0.057,-0.036l-0.005,-0.003c-0.017,-0.01 -0.034,-0.02 -0.05,-0.03l-0.029,-0.016c-0.016,-0.009 -0.031,-0.018 -0.047,-0.026l-0.01,-0.006c-0.013,-0.006 -0.026,-0.013 -0.038,-0.019c-0.008,-0.004 -0.016,-0.008 -0.024,-0.012c-0.008,-0.004 -0.015,-0.007 -0.021,-0.011l-0.513,-0.137Z"/><path d="M56.2,36.6c0.1,-0.233 0.317,-1.033 0.65,-2.4c-1.433,-0.767 -2.15,-1.767 -2.15,-3c0,-0.5 0.067,-1.133 0.2,-1.9c-1.333,1.233 -2.267,2.967 -2.8,5.2c0.067,0.3 0.283,0.767 0.65,1.4c0.367,0.533 0.55,0.917 0.55,1.15c-0,0.867 -0.2,2.583 -0.6,5.15c-0.367,2.767 -0.667,4.383 -0.9,4.85c-3.633,-5.6 -5.617,-8.65 -5.95,-9.15c-3.133,-4.4 -5.5,-6.6 -7.1,-6.6c-0.6,0 -1.067,0.317 -1.4,0.95c-0.3,0.5 -0.45,1.1 -0.45,1.8c-0,1.233 0.333,2.383 1,3.45c0.767,1.2 1.667,1.8 2.7,1.8c0.5,-0 0.85,-0.1 1.05,-0.3c0.433,-0.367 0.683,-0.567 0.75,-0.6c0.8,0.567 2.267,2.333 4.4,5.3c1.633,2.3 2.967,4.267 4,5.9c-0.4,0.8 -1.033,1.783 -1.9,2.95c-0.967,1.267 -1.733,2.1 -2.3,2.5l-1.75,-0.65l0,4.75c1.167,0.4 2.733,0.6 4.7,0.6c1.8,-0 2.967,-0.267 3.5,-0.8c0.6,-0.6 0.9,-1.9 0.9,-3.9c0,-2.533 -0.467,-4.533 -1.4,-6c0.4,-1.233 0.75,-3.1 1.05,-5.6c0.3,-2.467 0.617,-4.217 0.95,-5.25l0.35,0.4c0.533,-0.333 0.967,-1 1.3,-2Zm-5.587,16.537c-0.001,0.001 -1.613,1.913 -1.613,1.913l3.35,-0.2c0.029,-0.154 0.055,-0.289 0.078,-0.406c0.016,-0.078 0.03,-0.148 0.043,-0.21c0.009,-0.044 0.017,-0.084 0.025,-0.12c0.006,-0.03 0.012,-0.057 0.018,-0.081l0.008,-0.036c0.003,-0.012 0.006,-0.022 0.008,-0.032c0.005,-0.019 0.009,-0.034 0.012,-0.045c0.002,-0.006 0.004,-0.011 0.005,-0.015c0.001,-0.002 0.002,-0.004 0.003,-0.005c-0.027,-0.07 -0.177,-0.453 -0.45,-1.15l-0.55,-1.45l-0.937,1.837Zm-1.257,1.546c-0.013,0.015 -0.027,0.029 -0.041,0.043c0.014,-0.014 0.028,-0.028 0.041,-0.043Zm0.354,-0.388c-0.07,0.079 -0.142,0.159 -0.216,0.24c-0.031,0.034 -0.063,0.068 -0.095,0.102c0.107,-0.114 0.211,-0.229 0.311,-0.342Zm0.181,-0.211c-0.044,0.052 -0.089,0.104 -0.134,0.157c0.045,-0.053 0.09,-0.105 0.134,-0.157Zm0.22,-0.268c-0.03,0.038 -0.061,0.076 -0.092,0.114c-0.03,0.037 -0.061,0.074 -0.092,0.111c0.071,-0.085 0.14,-0.17 0.207,-0.255l-0.023,0.03Zm0.251,-0.326c-0.012,0.015 -0.023,0.031 -0.034,0.046c0.011,-0.015 0.022,-0.031 0.034,-0.046Zm0.574,-0.863c-0.008,0.014 -0.017,0.029 -0.026,0.044l0.017,-0.029l0.009,-0.015Zm0.139,-0.245l0.015,-0.029l-0.015,0.029Z" style="fill:#f00;"/><path d="M41.688,19.15c0.124,0.067 0.245,0.167 0.362,0.3c0.233,0.233 0.35,0.517 0.35,0.85c-0,0.767 -0.183,1.15 -0.55,1.15c-0.167,-0 -0.417,-0.05 -0.75,-0.15c-0.367,-0.133 -0.633,-0.2 -0.8,-0.2c-0.7,0 -1.25,0.583 -1.65,1.75c0.767,0.633 1.817,0.95 3.15,0.95l2.2,-0.1c-0.267,0.5 -0.517,0.983 -0.75,1.45c-0.067,0.033 -0.583,0.05 -1.55,0.05c-1.133,-0 -2.483,0.7 -4.05,2.1c-0.033,-0.267 -0.05,-0.467 -0.05,-0.6c0,-0.167 0.05,-0.417 0.15,-0.75c0.067,-0.3 0.1,-0.533 0.1,-0.7c0,-0.267 -0.133,-0.65 -0.4,-1.15c-0.267,-0.5 -0.4,-0.85 -0.4,-1.05c-0,-0.6 0.583,-1.417 1.75,-2.45c1.133,-1.033 1.967,-1.55 2.5,-1.55l0.388,0.1Z" style="fill:#f00;"/><path d="M28.529,17.629l-5.05,3.6c-0.674,0.48 -0.831,1.418 -0.35,2.092c0.48,0.674 1.418,0.831 2.092,0.35l5.05,-3.6c0.674,-0.48 0.831,-1.418 0.35,-2.092c-0.48,-0.674 -1.418,-0.831 -2.092,-0.35Z"/><path d="M64.977,14.78l-5.1,3.65c-0.673,0.482 -0.829,1.42 -0.347,2.093c0.482,0.673 1.42,0.829 2.093,0.347l5.1,-3.65c0.673,-0.482 0.829,-1.42 0.347,-2.093c-0.482,-0.673 -1.42,-0.829 -2.093,-0.347Z"/><path d="M39.677,9.93l-5.1,3.65c-0.673,0.482 -0.829,1.42 -0.347,2.093c0.482,0.673 1.42,0.829 2.093,0.347l5.1,-3.65c0.673,-0.482 0.829,-1.42 0.347,-2.093c-0.482,-0.673 -1.42,-0.829 -2.093,-0.347Z"/></g></svg>