<?xml version="1.0" encoding="UTF-8" standalone="no"?><!DOCTYPE svg PUBLIC "-//W3C//DTD SVG 1.1//EN" "http://www.w3.org/Graphics/SVG/1.1/DTD/svg11.dtd"><svg width="100%" height="100%" viewBox="0 0 81 74" version="1.1" xmlns="http://www.w3.org/2000/svg" xmlns:xlink="http://www.w3.org/1999/xlink" xml:space="preserve" xmlns:serif="http://www.serif.com/" style="fill-rule:evenodd;clip-rule:evenodd;stroke-linejoin:round;stroke-miterlimit:2;"><g><path d="M66.1,64.05l-2.65,-2.95l-2.65,2.95l2.65,2.95l2.65,-2.95Z"/><path d="M42.45,60.8c1.467,-2.867 2.2,-5.767 2.2,-8.7c-0,-1.467 -0.25,-2.717 -0.75,-3.75c-0.4,-0.8 -1.15,-1.817 -2.25,-3.05l-0.95,4.25c0.533,0.7 1.083,1.4 1.65,2.1c0.733,1.033 1.1,1.8 1.1,2.3c0,2.7 -1.75,5.017 -5.25,6.95c-2.933,1.633 -5.75,2.45 -8.45,2.45c2.167,1.6 4.317,2.4 6.45,2.4c2.433,-0 4.517,-1.65 6.25,-4.95Z"/><path d="M52.25,26.05c-0.467,0.5 -0.917,1 -1.35,1.5c-0.333,0.467 -0.5,1.133 -0.5,2c-0,6.767 0.033,11.1 0.1,13c0.233,6.533 0.817,10.467 1.75,11.8c0.767,1.1 1.817,1.65 3.15,1.65l4.4,0c0.867,0 1.583,-0.367 2.15,-1.1c0.133,-0.2 0.55,-0.983 1.25,-2.35c0.867,1.467 1.333,2.233 1.4,2.3c0.6,0.767 1.3,1.15 2.1,1.15l3.1,0l-0,-0.05c2.228,-0.087 3.861,-0.621 4.9,-1.6c1.267,-1.233 1.9,-3.317 1.9,-6.25c0,-0.833 -0.317,-2.7 -0.95,-5.6c-0.7,1.8 -1.267,3.133 -1.7,4c0.667,1.433 1.083,2.467 1.25,3.1c-0.65,0.898 -2.45,1.364 -5.4,1.4l-0,-0.05c-2.3,0 -3.667,-0.117 -4.1,-0.35c-0.833,-0.467 -1.25,-1.783 -1.25,-3.95c-0.7,0.567 -1.167,1.317 -1.4,2.25c-0.2,0.8 -0.55,1.317 -1.05,1.55c-0.639,0.278 -1.889,0.428 -3.75,0.45c-2.474,-0.075 -4.107,-0.691 -4.9,-1.85c-0.733,-1.067 -1.1,-3.333 -1.1,-6.8l0,-16.2Z"/><path d="M73.9,35.25l-2.25,-2.55l-2.35,2.5l2.3,2.6l2.3,-2.55Z"/><path d="M78.6,35.2l-2.4,-2.5l-2.3,2.55l2.3,2.55l2.4,-2.6Z"/><path d="M29.75,36.8c-0.067,-4.833 -0.1,-8.467 -0.1,-10.9c-0.3,0.333 -0.733,0.917 -1.3,1.75c-0.6,0.933 -0.9,1.55 -0.9,1.85c0,2 0.033,5.033 0.1,9.1c0.1,4.033 0.15,7.05 0.15,9.05c0,1.467 -1.517,2.733 -4.55,3.8c-2.433,0.867 -4.533,1.3 -6.3,1.3c-4.8,0 -7.2,-1.617 -7.2,-4.85c-0,-1.767 0.25,-3.4 0.75,-4.9c-0.767,0.4 -1.467,1.533 -2.1,3.4c-0.6,1.633 -0.9,3.033 -0.9,4.2c-0,4.367 2.567,6.55 7.7,6.55c2.533,-0 5.483,-0.883 8.85,-2.65c3.933,-2.067 5.9,-4.35 5.9,-6.85c0,-2.4 -0.033,-6.017 -0.1,-10.85Z" style="fill:#f00;"/><path d="M21.9,37.6c-0,-0.333 -0.117,-0.667 -0.35,-1c-0.267,-0.3 -0.533,-0.45 -0.8,-0.45c-0.6,-0 -1.467,0.983 -2.6,2.95c-1.067,1.9 -1.6,3.2 -1.6,3.9c-0,0.7 0.5,1.05 1.5,1.05c1.233,0 2.067,0.233 2.5,0.7c-0.967,1.067 -1.967,1.6 -3,1.6c-0.5,0 -1.1,-0.083 -1.8,-0.25c0.433,0.633 0.783,1.05 1.05,1.25c0.3,0.2 0.783,0.3 1.45,0.3c1.033,-0 1.867,-0.283 2.5,-0.85c0.667,-0.6 1,-1.467 1,-2.6c0,-1.1 -0.617,-1.783 -1.85,-2.05c-1.233,-0.267 -1.85,-0.5 -1.85,-0.7c-0,-0.4 0.217,-0.85 0.65,-1.35c0.433,-0.5 0.833,-0.75 1.2,-0.75c0.267,0 0.55,0.117 0.85,0.35c0.767,-0.467 1.15,-1.167 1.15,-2.1Z" style="fill:#f00;"/><path d="M18.529,15.179l-5.05,3.6c-0.674,0.48 -0.831,1.418 -0.35,2.092c0.48,0.674 1.418,0.831 2.092,0.35l5.05,-3.6c0.674,-0.48 0.831,-1.418 0.35,-2.092c-0.48,-0.674 -1.418,-0.831 -2.092,-0.35Z"/><path d="M39.885,14.775l-5.1,3.6c-0.676,0.477 -0.838,1.414 -0.36,2.09c0.477,0.676 1.414,0.838 2.09,0.36l5.1,-3.6c0.676,-0.477 0.838,-1.414 0.36,-2.09c-0.477,-0.676 -1.414,-0.838 -2.09,-0.36Z"/><path d="M58.971,13.534l-5.05,3.65c-0.671,0.485 -0.822,1.424 -0.337,2.095c0.485,0.671 1.424,0.822 2.095,0.337l5.05,-3.65c0.671,-0.485 0.822,-1.424 0.337,-2.095c-0.485,-0.671 -1.424,-0.822 -2.095,-0.337Z"/><path d="M73.471,13.534l-5.05,3.65c-0.671,0.485 -0.822,1.424 -0.337,2.095c0.485,0.671 1.424,0.822 2.095,0.337l5.05,-3.65c0.671,-0.485 0.822,-1.424 0.337,-2.095c-0.485,-0.671 -1.424,-0.822 -2.095,-0.337Z"/></g></svg>