<?xml version="1.0" encoding="UTF-8" standalone="no"?><!DOCTYPE svg PUBLIC "-//W3C//DTD SVG 1.1//EN" "http://www.w3.org/Graphics/SVG/1.1/DTD/svg11.dtd"><svg width="100%" height="100%" viewBox="0 0 51 71" version="1.1" xmlns="http://www.w3.org/2000/svg" xmlns:xlink="http://www.w3.org/1999/xlink" xml:space="preserve" xmlns:serif="http://www.serif.com/" style="fill-rule:evenodd;clip-rule:evenodd;stroke-linejoin:round;stroke-miterlimit:2;"><g><rect x="29.95" y="44.35" width="5.1" height="5.05"/><path d="M37,44.4l-1.95,-0.05l1.95,0l0,0.05Z"/><path d="M29.95,49.4l-1.35,-0c-0.833,-0 -1.667,-0.617 -2.5,-1.85c-0.367,-0.5 -0.917,-1.517 -1.65,-3.05c-1.133,1.733 -3.067,3.2 -5.8,4.4c-2.467,1.067 -4.783,1.6 -6.95,1.6c-2.233,0 -4.033,-0.45 -5.4,-1.35c-1.7,-1.133 -2.55,-2.867 -2.55,-5.2c0,-1.233 0.267,-2.65 0.8,-4.25c0.633,-1.833 1.367,-2.967 2.2,-3.4c-0.567,1.8 -0.85,3.4 -0.85,4.8c0,3.333 3,5 9,5c1.467,0 3.283,-0.583 5.45,-1.75c2.467,-1.3 3.7,-2.683 3.7,-4.15c-0,-2.2 -0.133,-5.017 -0.4,-8.45c-0.2,-2.8 -0.417,-5.617 -0.65,-8.45c0,-0.433 0.35,-1.2 1.05,-2.3c0.6,-0.9 1.133,-1.567 1.6,-2c0,14.333 0.5,22.333 1.5,24c0.4,0.733 1.1,1.183 2.1,1.35l0.7,0l0,5.05Z" style="fill:#f00;"/><path d="M37,44.4l0.45,-0c2.367,0.067 3.55,-0.6 3.55,-2c0,-7.4 -0.267,-12.917 -0.8,-16.55c-0.8,-1.033 -1.267,-1.9 -1.4,-2.6c0.8,-2.433 1.883,-4.15 3.25,-5.15l-0,0.55c0.033,0.233 -0.017,0.55 -0.15,0.95c-0.1,0.4 -0.15,0.683 -0.15,0.85c-0,0.567 0.35,1.233 1.05,2c0.667,0.767 1,1.267 1,1.5c-0,0.633 -0.2,1.433 -0.6,2.4c-0.433,0.967 -0.65,1.65 -0.65,2.05c-0,0.867 0.083,2.15 0.25,3.85c0.133,1.7 0.2,2.967 0.2,3.8l-0,4.7c-0,2.233 -0.283,4.083 -0.85,5.55c-0.767,2.067 -2,3.1 -3.7,3.1l-3.4,-0l-0,-5.05l1.95,0.05Z" style="fill:#f00;"/><path d="M18.25,31c0,-0.333 -0.133,-0.667 -0.4,-1c-0.233,-0.3 -0.5,-0.45 -0.8,-0.45c-0.567,0 -1.417,0.983 -2.55,2.95c-1.067,1.9 -1.6,3.2 -1.6,3.9c0,0.7 0.483,1.05 1.45,1.05c1.267,-0 2.1,0.233 2.5,0.7c-0.933,1.067 -1.933,1.6 -3,1.6c-0.5,0 -1.083,-0.083 -1.75,-0.25c0.4,0.633 0.733,1.05 1,1.25c0.333,0.2 0.833,0.3 1.5,0.3c1.033,0 1.85,-0.283 2.45,-0.85c0.7,-0.6 1.05,-1.467 1.05,-2.6c-0,-1.1 -0.617,-1.783 -1.85,-2.05c-1.233,-0.267 -1.85,-0.5 -1.85,-0.7c0,-0.4 0.217,-0.85 0.65,-1.35c0.433,-0.5 0.833,-0.75 1.2,-0.75c0.267,0 0.533,0.117 0.8,0.35c0.8,-0.467 1.2,-1.167 1.2,-2.1Z" style="fill:#f00;"/><path d="M19.821,9.234l-5.05,3.65c-0.671,0.485 -0.822,1.424 -0.337,2.095c0.485,0.671 1.424,0.822 2.095,0.337l5.05,-3.65c0.671,-0.485 0.822,-1.424 0.337,-2.095c-0.485,-0.671 -1.424,-0.822 -2.095,-0.337Z"/><path d="M40.977,9.23l-5.1,3.65c-0.673,0.482 -0.829,1.42 -0.347,2.093c0.482,0.673 1.42,0.829 2.093,0.347l5.1,-3.65c0.673,-0.482 0.829,-1.42 0.347,-2.093c-0.482,-0.673 -1.42,-0.829 -2.093,-0.347Z"/></g></svg>