<?xml version="1.0" encoding="UTF-8" standalone="no"?><!DOCTYPE svg PUBLIC "-//W3C//DTD SVG 1.1//EN" "http://www.w3.org/Graphics/SVG/1.1/DTD/svg11.dtd"><svg width="100%" height="100%" viewBox="0 0 110 79" version="1.1" xmlns="http://www.w3.org/2000/svg" xmlns:xlink="http://www.w3.org/1999/xlink" xml:space="preserve" xmlns:serif="http://www.serif.com/" style="fill-rule:evenodd;clip-rule:evenodd;stroke-linejoin:round;stroke-miterlimit:2;"><g><path d="M58.85,67.55l2.35,-2.55l-2.35,-2.6l-2.3,2.6l2.3,2.55Z"/><path d="M54.25,67.55l2.3,-2.55l-2.3,-2.6l-2.35,2.55l2.35,2.6Z"/><path d="M94.1,26.8c-1.6,2.333 -2.4,3.733 -2.4,4.2l0.6,26.7c1.333,-1.233 2,-4.467 2,-9.7l-0.2,-21.2Z"/><path d="M64.45,52.6l0,5.05l-4.8,-0c-0.633,-0 -1.367,-0.417 -2.2,-1.25c-0.733,-0.7 -1.3,-1.433 -1.7,-2.2c-0.767,1.467 -1.183,2.25 -1.25,2.35c-0.567,0.733 -1.283,1.1 -2.15,1.1l-5.7,-0c-1.333,-0 -2.383,-0.55 -3.15,-1.65c-0.933,-1.333 -1.517,-5.267 -1.75,-11.8c-0.067,-1.9 -0.1,-6.233 -0.1,-13c-0,-0.867 0.167,-1.533 0.5,-2c0.433,-0.5 0.883,-1 1.35,-1.5l0,16.2c0,3.467 0.367,5.733 1.1,6.8c0.867,1.267 2.75,1.9 5.65,1.9c0.148,0.027 0.298,0.044 0.45,0.05c0.9,0.033 1.467,0.05 1.7,0.05c1.1,0 1.9,-0.233 2.4,-0.7c0.367,-0.4 1.083,-1.583 2.15,-3.55c0.067,1.733 0.383,2.917 0.95,3.55c0.5,0.533 1.333,0.8 2.5,0.8c0.333,-0 0.95,-0.033 1.85,-0.1l1.15,-0.1l1.05,0Z"/><path d="M10.15,29.2c-0.333,0.467 -0.5,1.133 -0.5,2c-0,6.767 0.033,11.1 0.1,13c0.233,6.533 0.817,10.467 1.75,11.8c0.767,1.1 1.817,1.65 3.15,1.65l4.4,-0c0.867,-0 1.583,-0.367 2.15,-1.1c0.133,-0.2 0.55,-0.983 1.25,-2.35c0.867,1.467 1.333,2.233 1.4,2.3c0.6,0.767 1.3,1.15 2.1,1.15l3.1,-0l-0,-0.05c2.222,-0.081 3.855,-0.615 4.9,-1.6c1.267,-1.233 1.9,-3.317 1.9,-6.25c0,-0.833 -0.317,-2.7 -0.95,-5.6c-0.667,1.8 -1.217,3.133 -1.65,4c0.633,1.433 1.033,2.467 1.2,3.1c-0.65,0.898 -2.45,1.364 -5.4,1.4l-0,-0.05c-2.3,0 -3.667,-0.117 -4.1,-0.35c-0.833,-0.467 -1.25,-1.783 -1.25,-3.95c-0.7,0.567 -1.167,1.317 -1.4,2.25c-0.2,0.8 -0.55,1.317 -1.05,1.55c-0.639,0.278 -1.889,0.428 -3.75,0.45c-2.474,-0.075 -4.107,-0.691 -4.9,-1.85c-0.733,-1.067 -1.1,-3.333 -1.1,-6.8l-0,-16.2c-0.467,0.5 -0.917,1 -1.35,1.5Z"/><path d="M85.9,52.3c-0,-1.433 -0.217,-2.817 -0.65,-4.15c-0.6,-1.8 -1.433,-2.7 -2.5,-2.7c-0.9,0 -1.733,0.883 -2.5,2.65c-0.733,1.567 -1.1,2.933 -1.1,4.1c-0,2 0.717,3 2.15,3c1.067,0 2.083,-0.667 3.05,-2c0.233,0.6 0.35,1.167 0.35,1.7c0,2.933 -1.85,5.25 -5.55,6.95c-2.9,1.333 -5.867,2 -8.9,2c1.467,0.667 2.483,1.1 3.05,1.3c1,0.3 2.067,0.45 3.2,0.45c3.067,0 5.45,-1.4 7.15,-4.2c1.5,-2.467 2.25,-5.5 2.25,-9.1Zm-4.15,-3.3c-0.333,0.733 -0.667,1.55 -1,2.45l0.148,0.083l0.146,0.083l0.061,0.034l0.045,0.025l0.133,0.074c0.039,0.022 0.077,0.043 0.116,0.064l0.104,0.058l0.073,0.04l0.053,0.029l0.067,0.036l0.046,0.024l0.042,0.022l0.026,0.014l0.044,0.022l0.036,0.018l0.024,0.011l0.016,0.007l0.013,0.005l0.005,0.001c0.001,-0 0.001,0 0.002,0l0.45,-0.087l0.027,-0.011l0.021,-0.009l0.02,-0.009l0.029,-0.013l0.038,-0.019l0.026,-0.013l0.022,-0.012l0.028,-0.016l0.027,-0.016l0.028,-0.017l0.025,-0.015l0.029,-0.019l0.036,-0.025l0.024,-0.017l0.026,-0.019l0.035,-0.026l0.008,-0.006c0.001,-0.001 0.001,-0.001 0.002,-0.002l0.015,-0.008c0.005,-0.004 0.01,-0.007 0.015,-0.01l0.033,-0.021l0.028,-0.019l0.033,-0.024l0.013,-0.01l0.018,-0.014l0.023,-0.018l0.023,-0.019l0.025,-0.023l0.02,-0.018l0.026,-0.027l0.019,-0.02l0.007,-0.007l0.017,-0.02l0.014,-0.017l0.016,-0.02l0.015,-0.022l0.011,-0.015l0.014,-0.021l0.018,-0.03l0.01,-0.019l0.007,-0.013l0.013,-0.026l0.01,-0.024l0.01,-0.024l0.009,-0.028l0.006,-0.016c0.003,-0.01 0.006,-0.02 0.008,-0.03c0.003,-0.01 0.005,-0.021 0.007,-0.031l0.005,-0.023c0.001,-0.007 0.002,-0.014 0.003,-0.021c0.002,-0.012 0.003,-0.024 0.005,-0.037l0.001,-0.018c0.001,-0.01 0.001,-0.019 0.002,-0.028c-0,-0.009 -0,-0.019 0,-0.028l-0.1,-0.575l-0.1,-0.175l-0.025,-0.094l-0.075,-0.081l-0.1,-0.175l-0.5,-0.475l-0.7,-0.425Z"/><path d="M19.7,40.1l2.65,2.9l2.65,-2.9l-2.65,-2.95l-2.65,2.95Z"/><path d="M35.35,31.65c-0.233,-0.267 -0.483,-0.4 -0.75,-0.4c-0.533,-0 -1.367,0.517 -2.5,1.55c-1.167,1.033 -1.75,1.85 -1.75,2.45c0,0.2 0.133,0.55 0.4,1.05c0.267,0.5 0.4,0.883 0.4,1.15c-0,0.167 -0.033,0.4 -0.1,0.7c-0.1,0.3 -0.15,0.533 -0.15,0.7c-0,0.167 0.017,0.383 0.05,0.65c1.567,-1.4 2.917,-2.1 4.05,-2.1c0.967,-0 1.483,-0.033 1.55,-0.1c0.267,-0.467 0.517,-0.933 0.75,-1.4c-0.233,-0 -0.6,0.017 -1.1,0.05l-1.1,0c-1.333,0 -2.383,-0.3 -3.15,-0.9c0.367,-1.167 0.917,-1.75 1.65,-1.75c0.2,-0 0.467,0.05 0.8,0.15c0.333,0.133 0.583,0.2 0.75,0.2c0.333,-0 0.5,-0.4 0.5,-1.2c-0,-0.3 -0.1,-0.567 -0.3,-0.8Z"/><path d="M82.8,31.25c-0.4,-0.6 -0.9,-0.9 -1.5,-0.9c-0.767,0 -1.35,0.383 -1.75,1.15c-0.333,0.667 -0.5,1.467 -0.5,2.4c-0,1.5 0.583,2.25 1.75,2.25c0.7,-0 1.3,-0.317 1.8,-0.95c0.5,-0.6 0.75,-1.3 0.75,-2.1c0,-0.667 -0.183,-1.283 -0.55,-1.85Zm-2.25,0.7c-0.167,0 -0.312,0.026 -0.437,0.078l-0.023,0.01l-0.017,0.008l-0.025,0.012l-0.016,0.009l-0.016,0.009l-0.028,0.017l-0.019,0.013l-0.015,0.01l-0.015,0.011l-0.014,0.011l-0.025,0.02l-0.025,0.023l-0.012,0.012l-0.013,0.013l-0.013,0.013l-0.018,0.021l-0.012,0.014l-0.012,0.015l-0.012,0.015l-0.011,0.015l-0.011,0.016l-0.01,0.016l-0.011,0.016l-0.01,0.017l-0.01,0.017l-0.009,0.017l-0.009,0.018l-0.009,0.018l-0.015,0.032l-0.015,0.035l-0.013,0.033l-0.013,0.037l-0.011,0.035l-0.012,0.04l-0.005,0.021l-0.009,0.038l-0.009,0.041l-0.005,0.024l-0.007,0.041l-0.007,0.045l-0.005,0.043l-0.002,0.017l-0.003,0.026l-0.003,0.027l-0.002,0.026l-0.002,0.027l-0.001,0.028l-0.001,0.027l-0.002,0.028l-0,0.029l-0.001,0.028l0,0.038c0,0.067 0.004,0.13 0.013,0.191l0.004,0.026c0.002,0.008 0.003,0.017 0.005,0.025c0.003,0.015 0.006,0.029 0.009,0.043l0.002,0.008c0.012,0.048 0.026,0.094 0.044,0.137l0.003,0.007c0.006,0.015 0.013,0.03 0.02,0.044c0.062,0.128 0.153,0.236 0.272,0.324l0.025,0.018c0.006,0.004 0.012,0.008 0.019,0.012l0.017,0.012l0.029,0.017l0.03,0.018l0.003,0.002c0.019,0.01 0.038,0.02 0.058,0.029l0.008,0.004c0.032,0.015 0.067,0.03 0.102,0.043l0.026,0.01c0.021,0.008 0.043,0.015 0.066,0.022c0.016,0.005 0.033,0.01 0.049,0.015l0.029,0.008l0.03,0.007l0.014,0.004l0.031,0.007l0.03,0.007l0.043,0.008l0.03,0.006l0.015,0.002c0.015,0.003 0.03,0.005 0.046,0.008l0.005,0c0.049,0.008 0.1,0.014 0.153,0.019l0.037,0.004l0.045,0.003c0.014,0.001 0.028,0.002 0.042,0.003l0.046,0.002c0.006,0.001 0.012,0.001 0.018,0.001c0.024,0.001 0.047,0.002 0.071,0.003l0.007,-0c0.018,0 0.036,0.001 0.055,0.001l0.024,-0c0.008,-0 0.017,-0 0.025,-0l0.937,-0.188c0.016,-0.009 0.03,-0.018 0.044,-0.028c0.012,-0.008 0.023,-0.016 0.034,-0.024c0.023,-0.018 0.044,-0.038 0.064,-0.058c0.024,-0.024 0.045,-0.049 0.063,-0.076l0.013,-0.02c0.008,-0.012 0.015,-0.024 0.022,-0.037l0.008,-0.015c0.002,-0.005 0.004,-0.009 0.006,-0.014c0.006,-0.014 0.012,-0.028 0.018,-0.042c0.005,-0.014 0.009,-0.028 0.013,-0.042l0.005,-0.016c0.003,-0.013 0.006,-0.026 0.009,-0.04c0.002,-0.008 0.003,-0.016 0.004,-0.024c0.003,-0.016 0.005,-0.031 0.006,-0.048l0.002,-0.018c0.001,-0.019 0.002,-0.039 0.002,-0.06l-0,-0.004c-0.001,-0.149 -0.059,-0.31 -0.175,-0.483c-0.113,-0.17 -0.281,-0.352 -0.504,-0.545l-0.021,-0.018c-0.004,-0.003 -0.009,-0.007 -0.013,-0.01c-0.014,-0.011 -0.029,-0.022 -0.043,-0.033c-0.02,-0.016 -0.04,-0.031 -0.06,-0.046c-0.003,-0.002 -0.006,-0.004 -0.009,-0.007c-0.016,-0.011 -0.031,-0.022 -0.047,-0.033l-0.025,-0.018c-0.006,-0.004 -0.011,-0.008 -0.017,-0.012c-0.061,-0.043 -0.121,-0.083 -0.179,-0.118c-0.002,-0.002 -0.005,-0.004 -0.008,-0.006l-0.048,-0.029l-0.028,-0.016c-0.019,-0.011 -0.037,-0.021 -0.055,-0.031l-0.029,-0.015l-0.038,-0.02c-0.013,-0.006 -0.026,-0.012 -0.038,-0.018l-0.513,-0.138Z"/><path d="M41.5,15.9c0.467,-0.767 0.817,-1.25 1.05,-1.45c1.167,0.533 1.867,0.85 2.1,0.95c0.567,0.2 1.317,0.3 2.25,0.3c1.033,0 2.283,-0.45 3.75,-1.35c1.633,-0.967 2.45,-1.967 2.45,-3c-1.7,0.967 -2.6,1.483 -2.7,1.55c-1.067,0.5 -2.033,0.75 -2.9,0.75c-1.667,-0 -3.233,-0.583 -4.7,-1.75c-1.233,2.033 -2.067,3.817 -2.5,5.35c0.367,-0.267 0.767,-0.717 1.2,-1.35Z"/><path d="M64.45,52.65l0.2,-0c2.367,0.067 3.55,-0.6 3.55,-2c0,-7.4 -0.267,-12.917 -0.8,-16.55c-0.8,-1.033 -1.267,-1.9 -1.4,-2.6c0.8,-2.433 1.883,-4.15 3.25,-5.15l0,0.55c0.033,0.233 -0.017,0.55 -0.15,0.95c-0.1,0.4 -0.15,0.683 -0.15,0.85c0,0.567 0.35,1.233 1.05,2c0.667,0.767 1,1.267 1,1.5c0,0.633 -0.2,1.433 -0.6,2.4c-0.433,0.967 -0.65,1.65 -0.65,2.05c0,0.867 0.083,2.15 0.25,3.85c0.133,1.7 0.2,2.967 0.2,3.8l0,4.7c0,2.233 -0.283,4.083 -0.85,5.55c-0.767,2.067 -2,3.1 -3.7,3.1l-1.2,-0l0,-5Z" style="fill:#f00;"/><path d="M62.25,52.7l0,-0.1l1.15,0l-1.15,0.1Z" style="fill:#f00;"/><path d="M33.571,63.134l-5.05,3.65c-0.671,0.485 -0.822,1.424 -0.337,2.095c0.485,0.671 1.424,0.822 2.095,0.337l5.05,-3.65c0.671,-0.485 0.822,-1.424 0.337,-2.095c-0.485,-0.671 -1.424,-0.822 -2.095,-0.337Z"/><path d="M69.021,59.484l-5.05,3.65c-0.671,0.485 -0.822,1.424 -0.337,2.095c0.485,0.671 1.424,0.822 2.095,0.337l5.05,-3.65c0.671,-0.485 0.822,-1.424 0.337,-2.095c-0.485,-0.671 -1.424,-0.822 -2.095,-0.337Z"/><path d="M18.771,19.284l-5.05,3.65c-0.671,0.485 -0.822,1.424 -0.337,2.095c0.485,0.671 1.424,0.822 2.095,0.337l5.05,-3.65c0.671,-0.485 0.822,-1.424 0.337,-2.095c-0.485,-0.671 -1.424,-0.822 -2.095,-0.337Z"/><path d="M51.371,16.934l-5.05,3.65c-0.671,0.485 -0.822,1.424 -0.337,2.095c0.485,0.671 1.424,0.822 2.095,0.337l5.05,-3.65c0.671,-0.485 0.822,-1.424 0.337,-2.095c-0.485,-0.671 -1.424,-0.822 -2.095,-0.337Z"/><path d="M93.979,15.729l-5.05,3.6c-0.674,0.48 -0.831,1.418 -0.35,2.092c0.48,0.674 1.418,0.831 2.092,0.35l5.05,-3.6c0.674,-0.48 0.831,-1.418 0.35,-2.092c-0.48,-0.674 -1.418,-0.831 -2.092,-0.35Z"/></g></svg>