<?xml version="1.0" encoding="UTF-8" standalone="no"?><!DOCTYPE svg PUBLIC "-//W3C//DTD SVG 1.1//EN" "http://www.w3.org/Graphics/SVG/1.1/DTD/svg11.dtd"><svg width="100%" height="100%" viewBox="0 0 58 71" version="1.1" xmlns="http://www.w3.org/2000/svg" xmlns:xlink="http://www.w3.org/1999/xlink" xml:space="preserve" xmlns:serif="http://www.serif.com/" style="fill-rule:evenodd;clip-rule:evenodd;stroke-linejoin:round;stroke-miterlimit:2;"><g><path d="M31.9,45.65l-1.3,-0c-1.967,-0 -3.717,0.65 -5.25,1.95c-1.633,1.4 -2.45,3.167 -2.45,5.3c-0,0.967 0.433,1.667 1.3,2.1c0.533,0.267 1.467,0.517 2.8,0.75c1.233,0.2 2.033,0.417 2.4,0.65c-0.4,0.867 -1.983,1.65 -4.75,2.35c-2.3,0.567 -4.15,0.85 -5.55,0.85c-2.367,0 -4.167,-0.267 -5.4,-0.8c-1.967,-0.833 -2.95,-2.333 -2.95,-4.5c0,-0.933 0.317,-2.133 0.95,-3.6c0.733,-1.767 1.15,-2.95 1.25,-3.55c-1.033,0.767 -2.05,2.117 -3.05,4.05c-1,1.967 -1.5,3.617 -1.5,4.95c-0,2.633 1.05,4.6 3.15,5.9c1.667,1.033 3.783,1.55 6.35,1.55c5.767,0 10.033,-1.95 12.8,-5.85c0.867,-1.2 1.3,-2.133 1.3,-2.8c0,-1.067 -0.967,-1.817 -2.9,-2.25c-1.333,-0.233 -2.667,-0.467 -4,-0.7c0.483,-0.785 2.9,-1.218 7.25,-1.3l-0.45,-0l-0,-5.05Z"/><path d="M33.8,45.7l-1.9,-0.05l1.9,-0l-0,0.05Z"/><path d="M46.95,50.75c1.333,-1.233 2,-4.467 2,-9.7l-0.2,-21.2c-1.6,2.333 -2.4,3.733 -2.4,4.2l0.6,26.7Z" style="fill:#f00;"/><path d="M38.9,19.95l-0,-0.55c-1.367,1 -2.45,2.717 -3.25,5.15c0.133,0.7 0.6,1.567 1.4,2.6c0.533,3.633 0.8,9.15 0.8,16.55c0,1.4 -1.183,2.067 -3.55,2l-0.5,-0l-1.9,-0.05l-0,5.05l3.4,-0c1.7,-0 2.933,-1.033 3.7,-3.1c0.567,-1.467 0.85,-3.317 0.85,-5.55l0,-4.7c0,-0.833 -0.067,-2.1 -0.2,-3.8c-0.167,-1.7 -0.25,-2.983 -0.25,-3.85c-0,-0.4 0.217,-1.083 0.65,-2.05c0.4,-0.967 0.6,-1.767 0.6,-2.4c-0,-0.233 -0.333,-0.733 -1,-1.5c-0.7,-0.767 -1.05,-1.433 -1.05,-2c0,-0.167 0.05,-0.45 0.15,-0.85c0.133,-0.4 0.183,-0.717 0.15,-0.95Z" style="fill:#f00;"/><path d="M49.671,54.934l-5.05,3.65c-0.671,0.485 -0.822,1.424 -0.337,2.095c0.485,0.671 1.424,0.822 2.095,0.337l5.05,-3.65c0.671,-0.485 0.822,-1.424 0.337,-2.095c-0.485,-0.671 -1.424,-0.822 -2.095,-0.337Z"/><path d="M30.979,10.079l-5.05,3.6c-0.674,0.48 -0.831,1.418 -0.35,2.092c0.48,0.674 1.418,0.831 2.092,0.35l5.05,-3.6c0.674,-0.48 0.831,-1.418 0.35,-2.092c-0.48,-0.674 -1.418,-0.831 -2.092,-0.35Z"/></g></svg>