<?xml version="1.0" encoding="UTF-8" standalone="no"?><!DOCTYPE svg PUBLIC "-//W3C//DTD SVG 1.1//EN" "http://www.w3.org/Graphics/SVG/1.1/DTD/svg11.dtd"><svg width="100%" height="100%" viewBox="0 0 84 79" version="1.1" xmlns="http://www.w3.org/2000/svg" xmlns:xlink="http://www.w3.org/1999/xlink" xml:space="preserve" xmlns:serif="http://www.serif.com/" style="fill-rule:evenodd;clip-rule:evenodd;stroke-linejoin:round;stroke-miterlimit:2;"><g><path d="M39.763,50.537c0.374,0.259 0.737,0.43 1.087,0.513c0.134,0.022 0.584,0.039 1.35,0.05l1.35,0l-0,5.05l-1.45,-0c-0.367,-0 -0.683,0.1 -0.95,0.3c-0.2,1.967 -1.033,4.1 -2.5,6.4c-1.633,2.633 -3.25,3.95 -4.85,3.95c-1.167,-0 -2.4,-0.417 -3.7,-1.25c-1.167,-0.7 -2.183,-1.617 -3.05,-2.75c0.667,0.2 1.35,0.383 2.05,0.55c0.833,0.233 1.5,0.35 2,0.35c1.167,0 2.883,-0.9 5.15,-2.7c2.367,-1.833 3.55,-3.35 3.55,-4.55c-0,-0.1 -0.3,-0.667 -0.9,-1.7c-0.7,-1.267 -1.067,-1.917 -1.1,-1.95c0.367,-0.933 0.633,-2.033 0.8,-3.3l1.163,1.037Z"/><path d="M7.15,63.5c1.333,1.6 3.283,2.4 5.85,2.4c2.7,-0 5.6,-0.983 8.7,-2.95c3.5,-2.233 5.25,-4.75 5.25,-7.55c0,-1.433 -0.7,-2.4 -2.1,-2.9c-1.3,-0.267 -2.6,-0.533 -3.9,-0.8c-1.433,-0.3 -2.15,-0.9 -2.15,-1.8c-0,-0.967 0.767,-2.117 2.3,-3.45c1.333,-1.167 2.5,-1.917 3.5,-2.25c0.433,0.233 0.733,0.417 0.9,0.55c0.067,0.067 0.283,0.333 0.65,0.8c0.333,-0.667 0.633,-1.35 0.9,-2.05c0.333,-0.8 0.5,-1.517 0.5,-2.15c-0,-0.367 -0.117,-0.783 -0.35,-1.25l-0.75,-0.55c-1.9,-0 -3.933,1.583 -6.1,4.75c-2.1,3.067 -3.15,5.7 -3.15,7.9c0,1.333 0.45,2.317 1.35,2.95c0.7,0.467 1.7,0.767 3,0.9c1.067,0.033 2.15,0.067 3.25,0.1c-0.633,1.3 -2.283,2.467 -4.95,3.5c-2.3,0.933 -4.267,1.4 -5.9,1.4c-4.467,-0 -6.7,-2.183 -6.7,-6.55c-0,-1.2 0.317,-3.083 0.95,-5.65c-0.8,0.433 -1.517,1.617 -2.15,3.55c-0.533,1.7 -0.8,3.183 -0.8,4.45c-0,2.867 0.633,5.083 1.9,6.65Z"/><path d="M66.8,41.3l-0,3.55c1.267,0 2.583,0.6 3.95,1.8c1.467,1.233 2.2,2.55 2.2,3.95c0,0.533 -0.8,0.983 -2.4,1.35c-1.233,0.267 -2.283,0.4 -3.15,0.4c-1.167,0 -2.35,-0.367 -3.55,-1.1c-0.167,1.8 -0.25,2.8 -0.25,3c0,1.4 0.417,2.3 1.25,2.7c0.433,0.2 1.417,0.3 2.95,0.3c1.933,0 3.433,-0.65 4.5,-1.95c0.967,-1.233 1.45,-2.95 1.45,-5.15c0,-2.633 -0.567,-4.983 -1.7,-7.05c-1.2,-2.2 -2.883,-3.7 -5.05,-4.5c-0.167,0.767 -0.233,1.667 -0.2,2.7Z"/><path d="M68.55,33.35l2.7,-2.85l-2.65,-3l-2.7,3l2.65,2.85Z"/><path d="M31.25,17.8c-1.7,0.967 -2.6,1.483 -2.7,1.55c-1.067,0.5 -2.033,0.75 -2.9,0.75c-1.667,0 -3.233,-0.583 -4.7,-1.75c-1.233,2.033 -2.067,3.817 -2.5,5.35c0.367,-0.267 0.767,-0.717 1.2,-1.35c0.467,-0.767 0.817,-1.25 1.05,-1.45c1.167,0.533 1.867,0.85 2.1,0.95c0.567,0.2 1.317,0.3 2.25,0.3c1.033,-0 2.283,-0.45 3.75,-1.35c1.633,-0.967 2.45,-1.967 2.45,-3Z"/><path d="M50.3,20.3c-0.4,-0.6 -0.9,-0.9 -1.5,-0.9c-0.767,-0 -1.35,0.383 -1.75,1.15c-0.333,0.667 -0.5,1.467 -0.5,2.4c-0,1.5 0.583,2.25 1.75,2.25c0.7,0 1.3,-0.317 1.8,-0.95c0.5,-0.6 0.75,-1.3 0.75,-2.1c0,-0.667 -0.183,-1.283 -0.55,-1.85Zm-3.188,1.405l-0.006,0.023l-0.008,0.034l-0.007,0.034l-0.005,0.024l-0.007,0.041l-0.007,0.045l-0.005,0.043l-0.005,0.045l-0.003,0.027l-0.003,0.046l-0.002,0.035l-0.002,0.027l-0.001,0.043l-0.001,0.042l0,0.036c-0,0.066 0.004,0.13 0.013,0.19c0.001,0.005 0.002,0.01 0.002,0.015c0.001,0.004 0.002,0.008 0.002,0.012c0.002,0.009 0.003,0.017 0.005,0.025l0.003,0.017l0.008,0.032l0.005,0.022l0.005,0.018c0.002,0.008 0.005,0.016 0.007,0.025c0.002,0.004 0.003,0.008 0.004,0.011c0.007,0.021 0.014,0.041 0.022,0.06c0.001,0.003 0.003,0.007 0.004,0.01c0.006,0.015 0.013,0.03 0.02,0.044c0.062,0.128 0.153,0.236 0.272,0.324l0.025,0.018c0.006,0.004 0.012,0.008 0.019,0.013l0.021,0.013l0.027,0.017l0.032,0.018l0.019,0.01l0.012,0.006c0.012,0.006 0.023,0.012 0.035,0.018c0.017,0.007 0.034,0.015 0.051,0.022c0.009,0.004 0.018,0.008 0.028,0.012c0.03,0.012 0.062,0.023 0.095,0.034l0.019,0.006l0.04,0.012l0.027,0.008c0.004,0.001 0.009,0.002 0.013,0.003c0.031,0.008 0.063,0.016 0.096,0.023l0.021,0.005c0.03,0.006 0.06,0.011 0.091,0.016l0.034,0.005c0.022,0.004 0.044,0.007 0.067,0.01l0.022,0.002c0.012,0.002 0.025,0.003 0.037,0.005c0.011,0.001 0.021,0.002 0.032,0.003c0.011,0.001 0.023,0.002 0.034,0.003l0.045,0.003l0.046,0.003c0.002,0 0.005,0.001 0.007,0.001c0.027,0.001 0.053,0.002 0.081,0.003l0.021,0.001l0.027,0.001l0.048,0.001c0.019,-0 0.037,0 0.056,0l0.937,-0.187c0.015,-0.009 0.029,-0.018 0.043,-0.028l0.002,-0.001c0.011,-0.008 0.022,-0.016 0.032,-0.024c0.023,-0.018 0.044,-0.037 0.064,-0.057c0.024,-0.024 0.045,-0.049 0.063,-0.076l0.014,-0.02c0.008,-0.012 0.015,-0.025 0.022,-0.038c0.002,-0.005 0.005,-0.009 0.007,-0.014l0.007,-0.015c0.006,-0.013 0.012,-0.027 0.017,-0.041c0.005,-0.014 0.01,-0.028 0.014,-0.043l0.005,-0.015c0.003,-0.013 0.006,-0.027 0.009,-0.041c0.001,-0.007 0.003,-0.014 0.004,-0.022c0.003,-0.016 0.005,-0.032 0.006,-0.048l0.002,-0.018c0.001,-0.02 0.002,-0.041 0.002,-0.062c-0,-0.15 -0.058,-0.313 -0.175,-0.488c-0.009,-0.013 -0.018,-0.026 -0.028,-0.04c-0.003,-0.004 -0.005,-0.008 -0.008,-0.011c-0.012,-0.017 -0.025,-0.034 -0.038,-0.051l-0.019,-0.024l-0.018,-0.022l-0.028,-0.035c-0.004,-0.004 -0.008,-0.008 -0.011,-0.012c-0.022,-0.025 -0.045,-0.051 -0.069,-0.076l-0.024,-0.026c-0.004,-0.004 -0.008,-0.008 -0.011,-0.012c-0.011,-0.011 -0.022,-0.022 -0.033,-0.033l-0.018,-0.018c-0.013,-0.013 -0.026,-0.025 -0.039,-0.038l-0.018,-0.017c-0.011,-0.011 -0.023,-0.022 -0.035,-0.034l-0.031,-0.027l-0.025,-0.023c-0.005,-0.004 -0.01,-0.009 -0.014,-0.013l-0.047,-0.041l-0.011,-0.009l-0.012,-0.01c-0.016,-0.012 -0.032,-0.024 -0.047,-0.036l-0.015,-0.011c-0.016,-0.012 -0.031,-0.024 -0.047,-0.035l-0.03,-0.022c-0.007,-0.005 -0.014,-0.01 -0.021,-0.015c-0.008,-0.006 -0.017,-0.013 -0.025,-0.018c-0.008,-0.006 -0.016,-0.012 -0.024,-0.018l-0.021,-0.014c-0.021,-0.014 -0.041,-0.028 -0.062,-0.042l-0.031,-0.02l-0.032,-0.02l-0.018,-0.012c-0.016,-0.01 -0.031,-0.019 -0.046,-0.028c-0.01,-0.006 -0.019,-0.011 -0.029,-0.017l-0.023,-0.013c-0.031,-0.018 -0.062,-0.035 -0.092,-0.05c-0.005,-0.003 -0.01,-0.005 -0.015,-0.008l-0.03,-0.015c-0.006,-0.003 -0.012,-0.006 -0.017,-0.009l-0.513,-0.137l-0.004,0c-0.165,0 -0.309,0.026 -0.433,0.078l-0.023,0.01l-0.017,0.008l-0.017,0.008l-0.016,0.009l-0.016,0.009l-0.016,0.009l-0.016,0.01l-0.016,0.01l-0.015,0.01l-0.015,0.011l-0.014,0.011l-0.015,0.011l-0.014,0.012l-0.013,0.012l-0.014,0.012l-0.013,0.013l-0.013,0.013l-0.013,0.013l-0.019,0.021l-0.011,0.014l-0.012,0.015l-0.012,0.015l-0.011,0.015l-0.011,0.016l-0.01,0.016l-0.011,0.016l-0.01,0.017l-0.014,0.026l-0.01,0.017l-0.009,0.018l-0.009,0.018l-0.013,0.028l-0.013,0.033l-0.01,0.026l-0.015,0.041l-0.006,0.02l-0.007,0.021l-0.006,0.022l-0.006,0.021Z"/><path d="M59.9,29.05l0.75,-4.2c-2.767,0.633 -6.067,2.317 -9.9,5.05c-4.4,3.2 -6.6,6.067 -6.6,8.6c-0,1.5 0.683,2.8 2.05,3.9c1.3,0.833 2.583,1.667 3.85,2.5c1.367,1.033 2.05,2.183 2.05,3.45c0,1.9 -2.35,2.85 -7.05,2.85c-0.466,0 -0.966,-0.017 -1.5,-0.05l-0,5l3.6,-0c2.033,-0 3.717,-0.867 5.05,-2.6c1.267,-1.667 1.9,-3.65 1.9,-5.95c0,-1.7 -0.433,-3.217 -1.3,-4.55c-0.667,-1.033 -1.683,-2.083 -3.05,-3.15c-1.2,-0.867 -2.4,-1.75 -3.6,-2.65c0.933,-1.033 3.1,-2.5 6.5,-4.4c0.633,-0.333 3.05,-1.6 7.25,-3.8Z" style="fill:#f00;"/><path d="M68.371,60.634l-5.05,3.65c-0.671,0.485 -0.822,1.424 -0.337,2.095c0.485,0.671 1.424,0.822 2.095,0.337l5.05,-3.65c0.671,-0.485 0.822,-1.424 0.337,-2.095c-0.485,-0.671 -1.424,-0.822 -2.095,-0.337Z"/><path d="M29.871,24.134l-5.05,3.65c-0.671,0.485 -0.822,1.424 -0.337,2.095c0.485,0.671 1.424,0.822 2.095,0.337l5.05,-3.65c0.671,-0.485 0.822,-1.424 0.337,-2.095c-0.485,-0.671 -1.424,-0.822 -2.095,-0.337Z"/></g></svg>