<?xml version="1.0" encoding="UTF-8" standalone="no"?><!DOCTYPE svg PUBLIC "-//W3C//DTD SVG 1.1//EN" "http://www.w3.org/Graphics/SVG/1.1/DTD/svg11.dtd"><svg width="100%" height="100%" viewBox="0 0 71 77" version="1.1" xmlns="http://www.w3.org/2000/svg" xmlns:xlink="http://www.w3.org/1999/xlink" xml:space="preserve" xmlns:serif="http://www.serif.com/" style="fill-rule:evenodd;clip-rule:evenodd;stroke-linejoin:round;stroke-miterlimit:2;"><g><path d="M21,50.8c-0.766,-0.011 -1.216,-0.028 -1.35,-0.05c-0.7,-0.167 -1.45,-0.683 -2.25,-1.55c-0.167,1.267 -0.433,2.367 -0.8,3.3c0.033,0.033 0.4,0.683 1.1,1.95c0.6,1.033 0.9,1.6 0.9,1.7c0,1.2 -1.183,2.717 -3.55,4.55c-2.267,1.8 -3.983,2.7 -5.15,2.7c-0.5,-0 -1.167,-0.117 -2,-0.35c-0.7,-0.167 -1.383,-0.35 -2.05,-0.55c0.867,1.133 1.883,2.05 3.05,2.75c1.3,0.833 2.533,1.25 3.7,1.25c1.6,-0 3.217,-1.317 4.85,-3.95c1.467,-2.3 2.3,-4.433 2.5,-6.4c0.267,-0.2 0.583,-0.3 0.95,-0.3l0.1,0l0,-5.05Z"/><path d="M45.85,38.3c-0.167,0.767 -0.233,1.667 -0.2,2.7l-0,3.55c1.267,0 2.583,0.6 3.95,1.8c1.467,1.233 2.2,2.55 2.2,3.95c-0,0.533 -0.8,0.983 -2.4,1.35c-1.233,0.267 -2.283,0.4 -3.15,0.4c-1.167,0 -2.35,-0.367 -3.55,-1.1c-0.167,1.8 -0.25,2.8 -0.25,3c0,1.4 0.417,2.3 1.25,2.7c0.433,0.2 1.417,0.3 2.95,0.3c1.933,-0 3.433,-0.65 4.5,-1.95c0.967,-1.233 1.45,-2.95 1.45,-5.15c0,-2.633 -0.567,-4.983 -1.7,-7.05c-1.2,-2.2 -2.883,-3.7 -5.05,-4.5Z"/><path d="M60.85,25c-1.6,2.333 -2.4,3.733 -2.4,4.2l0.6,26.7c1.333,-1.233 2,-4.467 2,-9.7l-0.2,-21.2Z"/><path d="M22,50.85c0.118,0.006 0.235,0.006 0.35,0l0,-0.05l-1.35,0l1,0.05Z"/><path d="M47.45,27.2l-2.7,3l2.65,2.85l2.7,-2.85l-2.65,-3Z"/><path d="M15.55,21.4c0.4,-0.867 0.6,-1.567 0.6,-2.1c-0,-1.033 -0.433,-1.55 -1.3,-1.55c-0.633,0 -1.2,0.367 -1.7,1.1c-0.433,0.667 -0.65,1.3 -0.65,1.9c-0,0.5 0.417,1.017 1.25,1.55c-1.5,1.233 -2.9,2.167 -4.2,2.8c0.467,0.133 0.833,0.2 1.1,0.2c1.1,0 2.417,-0.85 3.95,-2.55c0.6,0.433 1.117,0.75 1.55,0.95l0.15,-1.75c-0.333,-0.267 -0.583,-0.45 -0.75,-0.55Zm-1.65,-2.1c-0.199,0.033 -0.332,0.133 -0.399,0.298l-0.001,0.002l0,0.01l0.001,0.015c-0,0.007 0,0.015 0.001,0.022c0,0.009 0.001,0.019 0.003,0.029l0.002,0.016c0.003,0.019 0.006,0.038 0.011,0.057c0.001,0.003 0.001,0.007 0.002,0.01c0.003,0.009 0.005,0.019 0.008,0.029l0.008,0.025c0.008,0.023 0.017,0.046 0.028,0.07c0.002,0.005 0.005,0.011 0.007,0.016c0.008,0.016 0.016,0.032 0.025,0.048c0.005,0.009 0.01,0.018 0.016,0.027l0.016,0.027c0.004,0.006 0.008,0.011 0.012,0.017l0.009,0.014c0.038,0.055 0.083,0.11 0.135,0.165l0.01,0.01l0.03,0.03l0.014,0.013c0.014,0.014 0.029,0.028 0.044,0.042l0.002,0.002c0.03,0.027 0.062,0.054 0.096,0.081c0.005,0.004 0.011,0.009 0.016,0.013c0.006,0.004 0.011,0.009 0.016,0.013c0.005,0.003 0.009,0.007 0.014,0.01l0.026,0.02c0.02,0.015 0.041,0.031 0.062,0.046l0.031,0.021l0.041,0.029c0.051,0.034 0.103,0.068 0.159,0.101c0.091,0.056 0.189,0.111 0.295,0.167c0.008,0.004 0.015,0.008 0.023,0.012c0.025,0.013 0.05,0.025 0.075,0.038c0.014,0.007 0.027,0.013 0.04,0.02l0.038,0.019l0.034,0.016l0.1,-0.55c0,-0.288 -0.08,-0.518 -0.241,-0.69l-0.021,-0.023l-0.788,-0.337Z"/><path d="M47.25,14.85c-0.4,-0.6 -0.9,-0.9 -1.5,-0.9c-0.767,-0 -1.35,0.383 -1.75,1.15c-0.333,0.667 -0.5,1.467 -0.5,2.4c0,1.5 0.583,2.25 1.75,2.25c0.7,0 1.3,-0.317 1.8,-0.95c0.5,-0.6 0.75,-1.3 0.75,-2.1c-0,-0.667 -0.183,-1.283 -0.55,-1.85Zm-2.25,0.7c-0.667,0 -1,0.417 -1,1.25l0,-0.022l0,0.035c0.002,0.169 0.032,0.318 0.095,0.443l0.005,0.025l0.025,0.029c0.001,0.001 0.002,0.003 0.003,0.005c0.074,0.144 0.19,0.258 0.347,0.343c0.114,0.073 0.253,0.129 0.415,0.169l0.01,0.004l0.013,0.002c0.196,0.045 0.425,0.067 0.687,0.067l0.938,-0.188l0.001,-0c0.207,-0.125 0.311,-0.313 0.311,-0.562l-0,-0.021l-0.001,-0.014c-0.001,-0.008 -0.001,-0.016 -0.002,-0.024l-0.003,-0.027l-0.004,-0.022l-0.004,-0.021l-0.005,-0.022l-0.006,-0.023c-0.001,-0.004 -0.002,-0.008 -0.003,-0.011l-0.005,-0.017c-0.003,-0.011 -0.007,-0.022 -0.011,-0.033l-0.003,-0.009l-0.01,-0.026l-0.008,-0.018l-0.01,-0.024l-0.014,-0.029l-0.007,-0.014c-0.007,-0.013 -0.014,-0.026 -0.022,-0.039l-0.003,-0.006l-0.016,-0.027l-0.014,-0.023l-0.014,-0.023l-0.009,-0.013c-0.013,-0.02 -0.027,-0.04 -0.042,-0.06l-0.02,-0.027l-0.015,-0.02l-0.015,-0.019l-0.026,-0.031l-0.016,-0.02l-0.021,-0.024c-0.011,-0.013 -0.022,-0.025 -0.033,-0.037l-0.001,-0.002c-0.015,-0.016 -0.03,-0.033 -0.046,-0.05l-0.01,-0.01l-0.029,-0.03l-0.032,-0.032l-0.026,-0.025l-0.018,-0.018l-0.026,-0.025l-0.028,-0.026l-0.031,-0.028l-0.011,-0.01l-0.024,-0.021l-0.025,-0.022l-0.031,-0.027l-0.029,-0.023c-0.007,-0.005 -0.014,-0.011 -0.022,-0.016l-0.029,-0.023l-0.023,-0.017l-0.033,-0.024l-0.024,-0.018l-0.036,-0.025l-0.031,-0.023c-0.021,-0.014 -0.041,-0.028 -0.061,-0.041l-0.041,-0.027c-0.019,-0.012 -0.037,-0.024 -0.056,-0.036l-0.022,-0.013l-0.054,-0.032l-0.029,-0.017c-0.008,-0.005 -0.017,-0.01 -0.026,-0.015l-0.028,-0.015l-0.02,-0.011c-0.014,-0.007 -0.029,-0.015 -0.043,-0.022l-0.03,-0.015l-0.513,-0.137Z"/><path d="M24.75,15.65c-0.433,0.667 -0.65,1.3 -0.65,1.9c0,0.5 0.417,1.017 1.25,1.55c-1.5,1.233 -2.9,2.167 -4.2,2.8c0.467,0.133 0.833,0.2 1.1,0.2c1.1,0 2.417,-0.85 3.95,-2.55c0.6,0.433 1.117,0.75 1.55,0.95l0.15,-1.75c-0.333,-0.267 -0.583,-0.45 -0.75,-0.55c0.4,-0.867 0.6,-1.567 0.6,-2.1c-0,-1.033 -0.433,-1.55 -1.3,-1.55c-0.633,0 -1.2,0.367 -1.7,1.1Zm0.75,0.45c-0.2,0.033 -0.333,0.133 -0.4,0.3l0.001,0.03c0,0.015 0.002,0.031 0.004,0.046l0.002,0.017c0.001,0.006 0.002,0.013 0.003,0.02l0.004,0.02c0.001,0.006 0.003,0.012 0.004,0.019c0.001,0.004 0.003,0.009 0.004,0.013c0.003,0.011 0.006,0.021 0.009,0.032c0.003,0.01 0.006,0.019 0.01,0.029l0.002,0.006c0.003,0.007 0.005,0.014 0.008,0.021c0.001,0.003 0.002,0.005 0.003,0.007l0.01,0.022c0.003,0.008 0.006,0.015 0.01,0.022c0.002,0.004 0.004,0.008 0.006,0.013c0.002,0.004 0.004,0.008 0.006,0.012c0.006,0.01 0.011,0.02 0.017,0.031c0.006,0.01 0.013,0.021 0.019,0.031l0.014,0.022c0.007,0.01 0.013,0.019 0.02,0.029l0.004,0.005c0.008,0.012 0.018,0.025 0.027,0.037l0.017,0.021c0.004,0.006 0.01,0.012 0.015,0.018l0.01,0.013c0.007,0.008 0.014,0.016 0.021,0.024c0.002,0.001 0.003,0.003 0.004,0.004c0.008,0.008 0.015,0.017 0.023,0.025c0.006,0.006 0.012,0.012 0.018,0.019l0.028,0.028l0.02,0.02l0.02,0.018l0.027,0.025c0.006,0.005 0.012,0.011 0.019,0.016c0.002,0.002 0.005,0.005 0.007,0.007c0.026,0.022 0.052,0.044 0.08,0.066l0.044,0.034c0.019,0.015 0.039,0.029 0.059,0.044l0.015,0.011c0.007,0.005 0.013,0.009 0.02,0.014c0.005,0.004 0.011,0.007 0.016,0.011l0.025,0.017l0.021,0.014c0.01,0.007 0.021,0.014 0.031,0.021l0.017,0.011c0.007,0.005 0.015,0.01 0.023,0.015l0.04,0.025c0.004,0.002 0.007,0.005 0.011,0.007c0.021,0.013 0.043,0.026 0.065,0.039c0.008,0.005 0.016,0.01 0.024,0.014c0.009,0.006 0.018,0.011 0.027,0.016c0.022,0.013 0.045,0.026 0.068,0.039l0.016,0.009c0.009,0.005 0.018,0.01 0.027,0.015c0.007,0.004 0.015,0.008 0.022,0.012l0.027,0.015c0.033,0.017 0.067,0.035 0.101,0.052l0.043,0.022l0.029,0.014c0.01,0.005 0.019,0.01 0.029,0.015l0.054,0.026l0.1,-0.55c-0,-0.15 -0.022,-0.284 -0.066,-0.403c-0.04,-0.109 -0.098,-0.205 -0.176,-0.288l-0.02,-0.021l-0.788,-0.338Z"/><path d="M38.7,28.75l0.75,-4.2c-2.767,0.633 -6.067,2.317 -9.9,5.05c-4.4,3.2 -6.6,6.067 -6.6,8.6c0,1.5 0.683,2.8 2.05,3.9c1.3,0.833 2.583,1.667 3.85,2.5c1.367,1.033 2.05,2.183 2.05,3.45c-0,1.9 -2.35,2.85 -7.05,2.85c-0.466,-0 -0.966,-0.017 -1.5,-0.05c-0.115,0.006 -0.232,0.006 -0.35,0l-1,-0.05l-0,5.05l4.95,0c2.033,0 3.717,-0.867 5.05,-2.6c1.267,-1.667 1.9,-3.65 1.9,-5.95c-0,-1.7 -0.433,-3.217 -1.3,-4.55c-0.667,-1.033 -1.683,-2.083 -3.05,-3.15c-1.2,-0.867 -2.4,-1.75 -3.6,-2.65c0.933,-1.033 3.1,-2.5 6.5,-4.4c0.633,-0.333 3.05,-1.6 7.25,-3.8Z" style="fill:#f00;"/><path d="M61.621,12.634l-5.05,3.65c-0.671,0.485 -0.822,1.424 -0.337,2.095c0.485,0.671 1.424,0.822 2.095,0.337l5.05,-3.65c0.671,-0.485 0.822,-1.424 0.337,-2.095c-0.485,-0.671 -1.424,-0.822 -2.095,-0.337Z"/></g></svg>