<?xml version="1.0" encoding="UTF-8" standalone="no"?><!DOCTYPE svg PUBLIC "-//W3C//DTD SVG 1.1//EN" "http://www.w3.org/Graphics/SVG/1.1/DTD/svg11.dtd"><svg width="100%" height="100%" viewBox="0 0 60 77" version="1.1" xmlns="http://www.w3.org/2000/svg" xmlns:xlink="http://www.w3.org/1999/xlink" xml:space="preserve" xmlns:serif="http://www.serif.com/" style="fill-rule:evenodd;clip-rule:evenodd;stroke-linejoin:round;stroke-miterlimit:2;"><g><path d="M12.2,48.95c-0.8,1.767 -1.2,3.2 -1.2,4.3c-0,1.333 0.583,2.183 1.75,2.55c1.067,0.167 2.133,0.35 3.2,0.55c-1.267,2.1 -2.583,3.633 -3.95,4.6c-1.533,1.133 -3.35,1.7 -5.45,1.7c-1.133,-0 -2.767,-0.1 -4.9,-0.3c2,2.2 4.317,3.3 6.95,3.3c2.3,-0 4.25,-1.05 5.85,-3.15c1.133,-1.467 2.233,-3.667 3.3,-6.6l1.75,-0l-0,-4.85c-0.502,0.014 -1.019,-0.003 -1.55,-0.05c-0.4,-1 -0.8,-1.983 -1.2,-2.95c-0.667,-1.3 -1.333,-1.95 -2,-1.95c-0.8,0 -1.65,0.95 -2.55,2.85Zm2.412,1.475c0.225,0.167 0.388,0.325 0.488,0.475l0.45,1.65c-0.667,0 -1.467,-0.067 -2.4,-0.2c-0,-0.4 -0.067,-0.667 -0.2,-0.8c0.267,-0.6 0.533,-1.15 0.8,-1.65l0.862,0.525Z"/><path d="M42.45,48.05c-0.667,-1.3 -1.333,-1.95 -2,-1.95c-0.8,0 -1.65,0.95 -2.55,2.85c-0.8,1.767 -1.2,3.2 -1.2,4.3c0,1.333 0.583,2.183 1.75,2.55c1.067,0.167 2.133,0.35 3.2,0.55c-1.267,2.1 -2.583,3.633 -3.95,4.6c-1.533,1.133 -3.35,1.7 -5.45,1.7c-1.133,-0 -2.767,-0.1 -4.9,-0.3c2,2.2 4.317,3.3 6.95,3.3c2.3,-0 4.25,-1.05 5.85,-3.15c1.133,-1.467 2.233,-3.667 3.3,-6.6l1.7,-0l-0,-4.85c-0.486,0.012 -0.986,-0.005 -1.5,-0.05c-0.4,-1 -0.8,-1.983 -1.2,-2.95Zm-2.138,2.375c0.225,0.167 0.388,0.325 0.488,0.475l0.45,1.65c-0.667,0 -1.467,-0.067 -2.4,-0.2c0,-0.4 -0.067,-0.667 -0.2,-0.8c0.267,-0.6 0.533,-1.15 0.8,-1.65l0.862,0.525Z"/><path d="M40.4,30.7c-0,-0.3 -0.117,-0.567 -0.35,-0.8c-0.2,-0.267 -0.45,-0.4 -0.75,-0.4c-0.533,0 -1.367,0.517 -2.5,1.55c-1.167,1.033 -1.75,1.85 -1.75,2.45c-0,0.2 0.15,0.55 0.45,1.05c0.233,0.5 0.35,0.883 0.35,1.15c0,0.167 -0.033,0.4 -0.1,0.7c-0.1,0.3 -0.15,0.533 -0.15,0.7c0,0.167 0.017,0.383 0.05,0.65c1.567,-1.4 2.933,-2.1 4.1,-2.1c0.967,-0 1.467,-0.033 1.5,-0.1c0.267,-0.467 0.533,-0.933 0.8,-1.4c-0.267,-0 -0.65,0.017 -1.15,0.05l-1.1,-0c-1.333,-0 -2.383,-0.3 -3.15,-0.9c0.4,-1.167 0.967,-1.75 1.7,-1.75c0.167,0 0.417,0.05 0.75,0.15c0.333,0.133 0.583,0.2 0.75,0.2c0.367,-0 0.55,-0.4 0.55,-1.2Z"/><path d="M14.7,30.7c0,-0.3 -0.117,-0.567 -0.35,-0.8c-0.2,-0.267 -0.45,-0.4 -0.75,-0.4c-0.533,0 -1.367,0.517 -2.5,1.55c-1.167,1.033 -1.75,1.85 -1.75,2.45c0,0.2 0.15,0.55 0.45,1.05c0.233,0.5 0.35,0.883 0.35,1.15c-0,0.167 -0.033,0.4 -0.1,0.7c-0.1,0.3 -0.15,0.533 -0.15,0.7c-0,0.167 0.017,0.383 0.05,0.65c1.567,-1.4 2.933,-2.1 4.1,-2.1c0.967,-0 1.467,-0.033 1.5,-0.1c0.267,-0.467 0.533,-0.933 0.8,-1.4c-0.267,-0 -0.65,0.017 -1.15,0.05l-1.1,-0c-1.333,-0 -2.383,-0.3 -3.15,-0.9c0.4,-1.167 0.967,-1.75 1.7,-1.75c0.167,0 0.417,0.05 0.75,0.15c0.333,0.133 0.583,0.2 0.75,0.2c0.367,-0 0.55,-0.4 0.55,-1.2Z"/><path d="M9.45,24.55c0.067,-0.933 0.1,-1.5 0.1,-1.7c-0,-1.633 -0.483,-2.45 -1.45,-2.45c-0.533,-0 -0.967,0.267 -1.3,0.8c-0.3,0.467 -0.45,1 -0.45,1.6c0,0.3 0.067,0.683 0.2,1.15c0.133,-1.133 0.483,-1.7 1.05,-1.7c0.3,-0 0.533,0.133 0.7,0.4c0.2,0.233 0.3,0.5 0.3,0.8c0,0.467 -0.283,1.417 -0.85,2.85c1.1,-0.233 2.033,-0.6 2.8,-1.1c0.633,-0.4 1.383,-1.1 2.25,-2.1c0.433,0.367 1.067,0.8 1.9,1.3c0.033,-0.833 0.05,-1.3 0.05,-1.4c-0,-0.5 -0.267,-0.967 -0.8,-1.4c0.433,-1.1 0.65,-1.917 0.65,-2.45c0,-0.433 -0.133,-0.833 -0.4,-1.2c-0.3,-0.367 -0.633,-0.55 -1,-0.55c-0.633,-0 -1.233,0.367 -1.8,1.1c-0.533,0.7 -0.8,1.383 -0.8,2.05c0,0.8 0.467,1.5 1.4,2.1c-0.9,1 -1.75,1.633 -2.55,1.9Zm2.85,-5.7c-0.1,0 -0.233,0.033 -0.4,0.1l-0.2,0.4l0,0.017l0.002,0.022c0,0.008 0.001,0.016 0.002,0.024c0.001,0.005 0.002,0.009 0.002,0.014c0.001,0.003 0.001,0.005 0.002,0.008c0.002,0.015 0.005,0.029 0.009,0.043c0.001,0.005 0.003,0.01 0.004,0.015c0.002,0.009 0.005,0.017 0.008,0.026c0.001,0.003 0.002,0.006 0.003,0.009c0.001,0.004 0.003,0.009 0.004,0.013c0.008,0.023 0.018,0.046 0.029,0.07c0.01,0.021 0.021,0.042 0.033,0.064c0.005,0.01 0.011,0.019 0.016,0.029l0.01,0.016c0.002,0.003 0.003,0.006 0.005,0.009c0.02,0.032 0.042,0.064 0.066,0.097c0.003,0.004 0.006,0.008 0.009,0.012l0.021,0.028c0.018,0.023 0.037,0.046 0.057,0.07l0.012,0.015l0.028,0.031l0.023,0.026c0.004,0.005 0.009,0.01 0.014,0.015l0.03,0.033l0.025,0.026c0.006,0.006 0.012,0.012 0.018,0.018c0.012,0.012 0.024,0.025 0.037,0.037l0.012,0.012l0.03,0.029l0.028,0.027c0.004,0.004 0.008,0.008 0.013,0.012c0.014,0.013 0.028,0.026 0.042,0.039l0.021,0.018c0.004,0.004 0.008,0.008 0.012,0.012l0.037,0.032c0.004,0.004 0.008,0.007 0.012,0.011c0.014,0.012 0.029,0.025 0.043,0.037c0.008,0.007 0.016,0.013 0.023,0.02c0.009,0.007 0.018,0.014 0.027,0.022l0.039,0.032l0.029,0.024l0.027,0.022l0.034,0.027c0.009,0.007 0.018,0.014 0.027,0.021c0.018,0.015 0.037,0.03 0.056,0.045l0.006,0.004c0.029,0.023 0.059,0.045 0.09,0.068c0.023,0.018 0.047,0.036 0.071,0.053l0.034,0.025l0.041,0.03l0.03,0.022c0.011,0.008 0.022,0.015 0.033,0.023c0.021,0.015 0.042,0.031 0.064,0.046l0.1,-0.85l-0.12,-0.701l-0.071,-0.075l-0.022,-0.086l-0.265,-0.216l-0.372,-0.072Z"/><path d="M38.6,15.2c-0.4,-0.6 -0.9,-0.9 -1.5,-0.9c-0.767,0 -1.35,0.383 -1.75,1.15c-0.333,0.667 -0.5,1.467 -0.5,2.4c0,1.5 0.583,2.25 1.75,2.25c0.7,0 1.3,-0.317 1.8,-0.95c0.5,-0.6 0.75,-1.3 0.75,-2.1c-0,-0.667 -0.183,-1.283 -0.55,-1.85Zm-2.252,0.7c-0.083,0 -0.16,0.007 -0.233,0.02c-0.025,0.004 -0.05,0.01 -0.074,0.016l-0.023,0.006l-0.016,0.004c-0.007,0.002 -0.012,0.004 -0.018,0.006l-0.025,0.008c-0.005,0.002 -0.01,0.004 -0.015,0.006l-0.017,0.006c-0.005,0.002 -0.01,0.004 -0.014,0.006c-0.125,0.052 -0.229,0.13 -0.312,0.233l-0.001,0.001c-0.017,0.022 -0.033,0.044 -0.048,0.067c-0.001,0.001 -0.002,0.003 -0.003,0.004c-0.01,0.016 -0.02,0.033 -0.029,0.049l-0.001,0.002c-0.013,0.022 -0.024,0.044 -0.035,0.068l-0.01,0.023l-0.01,0.023c-0.002,0.005 -0.004,0.011 -0.006,0.016l-0.007,0.019l-0.008,0.021c-0.002,0.006 -0.004,0.011 -0.006,0.017c-0.005,0.015 -0.01,0.03 -0.014,0.046l-0.01,0.036c-0.004,0.013 -0.007,0.027 -0.011,0.041l-0.002,0.011c-0.006,0.026 -0.012,0.052 -0.016,0.078l-0.005,0.03c-0.001,0.003 -0.001,0.006 -0.002,0.009c-0.008,0.054 -0.015,0.111 -0.019,0.17l-0.001,0.011c-0.005,0.066 -0.007,0.133 -0.007,0.199l0,0.013c0.002,0.176 0.035,0.331 0.099,0.465l0.016,0.03l0.008,0.015c0.004,0.008 0.009,0.017 0.014,0.025c0.001,0.001 0.002,0.002 0.002,0.003c0.008,0.013 0.016,0.026 0.025,0.038l0.016,0.023l0.012,0.016c0.006,0.008 0.013,0.016 0.02,0.025l0.001,0.001c0.011,0.013 0.022,0.026 0.033,0.038l0.015,0.015l0.023,0.022l0.015,0.015l0.007,0.006c0.008,0.006 0.015,0.013 0.023,0.019l0.016,0.014c0.006,0.004 0.012,0.009 0.018,0.013c0.005,0.004 0.01,0.008 0.015,0.012l0.015,0.01c0.111,0.077 0.244,0.138 0.4,0.184c0.027,0.008 0.056,0.015 0.085,0.022l0.022,0.005c0.193,0.045 0.418,0.067 0.673,0.069l0.027,0l0.938,-0.188l0.019,-0.011l0.022,-0.015c0.007,-0.005 0.013,-0.009 0.02,-0.014l0.012,-0.01c0.024,-0.018 0.045,-0.037 0.065,-0.057c0.02,-0.02 0.038,-0.041 0.055,-0.064l0.01,-0.013l0.012,-0.019c0.004,-0.006 0.008,-0.012 0.012,-0.019l0.007,-0.012c0.052,-0.094 0.078,-0.203 0.078,-0.328l-0,-0.001c-0,-0.15 -0.059,-0.312 -0.175,-0.486l-0.014,-0.021l-0.009,-0.012l-0.013,-0.019c-0.006,-0.009 -0.012,-0.017 -0.019,-0.026l-0.013,-0.017l-0.019,-0.024l-0.012,-0.015c-0.063,-0.079 -0.138,-0.161 -0.224,-0.244c-0.006,-0.007 -0.013,-0.014 -0.02,-0.02l-0.031,-0.029l-0.025,-0.024l-0.024,-0.022l-0.025,-0.023l-0.019,-0.016l-0.028,-0.025l-0.031,-0.026l-0.041,-0.032l-0.03,-0.024c-0.036,-0.027 -0.072,-0.053 -0.107,-0.079l-0.039,-0.027l-0.029,-0.02l-0.031,-0.022c-0.008,-0.005 -0.016,-0.01 -0.023,-0.015l-0.022,-0.014l-0.045,-0.029l-0.029,-0.018c-0.028,-0.018 -0.056,-0.034 -0.083,-0.05l-0.025,-0.014l-0.035,-0.019l-0.016,-0.008l-0.03,-0.016l-0.024,-0.012l-0.028,-0.014l-0.512,-0.137l-0.002,0Z"/><path d="M25.15,17.15c-0.333,-0.267 -0.583,-0.45 -0.75,-0.55c0.4,-0.867 0.6,-1.567 0.6,-2.1c-0,-1.033 -0.433,-1.55 -1.3,-1.55c-0.633,-0 -1.2,0.367 -1.7,1.1c-0.433,0.667 -0.65,1.3 -0.65,1.9c0,0.5 0.417,1.017 1.25,1.55c-1.5,1.233 -2.9,2.167 -4.2,2.8c0.467,0.133 0.833,0.2 1.1,0.2c1.1,0 2.417,-0.85 3.95,-2.55c0.6,0.433 1.117,0.75 1.55,0.95l0.15,-1.75Zm-2.4,-2.65c-0.199,0.033 -0.332,0.133 -0.399,0.298l-0.001,0.002l0.001,0.03c0,0.016 0.002,0.031 0.004,0.046l0.002,0.016c0.001,0.007 0.002,0.014 0.003,0.021c0.001,0.005 0.002,0.009 0.003,0.014l0.004,0.018l0.003,0.014c0.003,0.013 0.007,0.026 0.011,0.039c0.003,0.01 0.007,0.02 0.011,0.03l0.009,0.025c0.002,0.006 0.005,0.012 0.008,0.018l0.005,0.012c0.007,0.015 0.014,0.03 0.022,0.045l0.003,0.007c0.004,0.005 0.007,0.011 0.01,0.017c0.001,0.002 0.003,0.005 0.004,0.007c0.004,0.007 0.008,0.014 0.012,0.021c0.003,0.005 0.006,0.01 0.01,0.015l0.02,0.032l0.016,0.022c0.008,0.011 0.016,0.022 0.025,0.033l0.013,0.017c0.007,0.009 0.014,0.018 0.022,0.027l0.01,0.011c0.009,0.012 0.019,0.023 0.03,0.034l0.006,0.007c0.009,0.01 0.019,0.02 0.029,0.031l0.007,0.007c0.008,0.008 0.016,0.016 0.024,0.023l0.024,0.024l0.027,0.025l0.026,0.023c0.063,0.055 0.133,0.111 0.211,0.167l0.007,0.005c0.019,0.013 0.037,0.025 0.056,0.038l0.035,0.024l0.038,0.025l0.022,0.014c0.019,0.012 0.038,0.024 0.057,0.035l0.016,0.01l0.028,0.017l0.043,0.025l0.035,0.021l0.025,0.014l0.047,0.026c0.01,0.005 0.019,0.011 0.028,0.016c0.01,0.005 0.021,0.011 0.032,0.017c0.007,0.004 0.014,0.007 0.021,0.011c0.035,0.019 0.07,0.037 0.106,0.055l0.013,0.007c0.03,0.015 0.06,0.03 0.091,0.045l0.035,0.017l0.1,-0.55c-0,-0.288 -0.08,-0.518 -0.241,-0.69l-0.021,-0.023l-0.788,-0.337Z"/><path d="M48.7,14.05c-0.433,0.667 -0.65,1.3 -0.65,1.9c-0,0.5 0.417,1.017 1.25,1.55c-1.5,1.233 -2.9,2.167 -4.2,2.8c0.467,0.133 0.833,0.2 1.1,0.2c1.1,0 2.417,-0.85 3.95,-2.55c0.6,0.433 1.117,0.75 1.55,0.95l0.15,-1.75c-0.333,-0.267 -0.583,-0.45 -0.75,-0.55c0.4,-0.867 0.6,-1.567 0.6,-2.1c0,-1.033 -0.433,-1.55 -1.3,-1.55c-0.633,-0 -1.2,0.367 -1.7,1.1Zm1.8,1.5l-0.041,-0.25c-0.003,-0.031 -0.008,-0.061 -0.014,-0.09l-0.011,-0.063c-0.042,-0.115 -0.105,-0.215 -0.188,-0.301l-0.009,-0.009l-0.787,-0.337l-0.006,0.001c-0.011,0.002 -0.021,0.004 -0.031,0.006l-0.025,0.006l-0.016,0.004l-0.022,0.007l-0.021,0.007c-0.009,0.004 -0.018,0.007 -0.027,0.011l-0.022,0.01l-0.016,0.008l-0.017,0.009l-0.02,0.012l-0.018,0.012l-0.008,0.006l-0.009,0.007c-0.013,0.01 -0.024,0.02 -0.035,0.031l-0.001,0c-0.009,0.01 -0.018,0.019 -0.026,0.029c-0.003,0.003 -0.005,0.005 -0.007,0.008c-0.002,0.003 -0.005,0.006 -0.007,0.009l-0.007,0.01c-0.002,0.002 -0.003,0.004 -0.005,0.006c-0.013,0.019 -0.025,0.04 -0.036,0.061l-0.009,0.018c-0,0.002 -0.001,0.003 -0.002,0.005c-0.002,0.005 -0.005,0.011 -0.007,0.017l0,0.009l0,0.014l0.002,0.026l0.001,0.009l0.002,0.023l0.004,0.025c0.002,0.012 0.005,0.025 0.007,0.037c0.003,0.01 0.005,0.021 0.008,0.031l0.008,0.027c0.005,0.015 0.011,0.031 0.017,0.046l0.005,0.013c0.005,0.013 0.011,0.025 0.016,0.037l0.007,0.013l0.009,0.019l0.014,0.024l0.008,0.015c0.002,0.003 0.004,0.007 0.006,0.01l0.017,0.027l0.007,0.011l0.009,0.013l0.012,0.017l0.012,0.016c0.008,0.012 0.018,0.024 0.027,0.036l0.012,0.015c0.01,0.012 0.021,0.025 0.031,0.037c0.012,0.013 0.024,0.026 0.036,0.039l0.009,0.009c0.008,0.008 0.016,0.017 0.024,0.025l0.019,0.018l0.007,0.008l0.021,0.019l0.03,0.028l0.008,0.007c0.027,0.025 0.056,0.049 0.086,0.073l0.011,0.009l0.027,0.021l0.033,0.026l0.024,0.017l0.03,0.022l0.023,0.016l0.027,0.019l0.018,0.012c0.023,0.016 0.047,0.032 0.072,0.048l0.035,0.023l0.014,0.009l0.043,0.027l0.04,0.024l0.039,0.022l0.044,0.026l0.031,0.018l0.035,0.019l0.05,0.027l0.037,0.02l0.038,0.02l0.051,0.026l0.049,0.025l0.046,0.023l0.052,0.025c0.034,-0.183 0.067,-0.367 0.1,-0.55Z"/><path d="M28.25,30.45c0,-0.233 -0.333,-0.733 -1,-1.5c-0.7,-0.767 -1.05,-1.433 -1.05,-2c0,-0.167 0.05,-0.45 0.15,-0.85c0.133,-0.4 0.183,-0.717 0.15,-0.95l0,-0.55c-1.367,1 -2.45,2.717 -3.25,5.15c0.133,0.7 0.6,1.567 1.4,2.6c0.533,3.633 0.8,9.15 0.8,16.55c0,1.4 -1.183,2.067 -3.55,2l-2.4,-0.05l0,5.05l3.4,-0c1.7,-0 2.933,-1.033 3.7,-3.1c0.567,-1.467 0.85,-3.317 0.85,-5.55l0,-4.7c0,-0.833 -0.067,-2.1 -0.2,-3.8c-0.167,-1.7 -0.25,-2.983 -0.25,-3.85c0,-0.4 0.217,-1.083 0.65,-2.05c0.4,-0.967 0.6,-1.767 0.6,-2.4Z" style="fill:#f00;"/><path d="M53.9,30.45c-0,-0.233 -0.333,-0.733 -1,-1.5c-0.7,-0.767 -1.05,-1.433 -1.05,-2c0,-0.167 0.05,-0.45 0.15,-0.85c0.133,-0.4 0.183,-0.717 0.15,-0.95l-0,-0.55c-1.367,1 -2.45,2.717 -3.25,5.15c0.133,0.7 0.6,1.567 1.4,2.6c0.533,3.633 0.8,9.15 0.8,16.55c0,1.4 -1.183,2.067 -3.55,2l-2.4,-0.05l-0,5.05l3.4,-0c1.7,-0 2.933,-1.033 3.7,-3.1c0.567,-1.467 0.85,-3.317 0.85,-5.55l0,-4.7c0,-0.833 -0.067,-2.1 -0.2,-3.8c-0.167,-1.7 -0.25,-2.983 -0.25,-3.85c-0,-0.4 0.217,-1.083 0.65,-2.05c0.4,-0.967 0.6,-1.767 0.6,-2.4Z" style="fill:#f00;"/></g></svg>