<?xml version="1.0" encoding="UTF-8" standalone="no"?><!DOCTYPE svg PUBLIC "-//W3C//DTD SVG 1.1//EN" "http://www.w3.org/Graphics/SVG/1.1/DTD/svg11.dtd"><svg width="100%" height="100%" viewBox="0 0 42 71" version="1.1" xmlns="http://www.w3.org/2000/svg" xmlns:xlink="http://www.w3.org/1999/xlink" xml:space="preserve" xmlns:serif="http://www.serif.com/" style="fill-rule:evenodd;clip-rule:evenodd;stroke-linejoin:round;stroke-miterlimit:2;"><g><path d="M32.3,51.5c1.333,-1.233 2,-4.467 2,-9.7l-0.2,-21.2c-1.6,2.333 -2.4,3.733 -2.4,4.2l0.6,26.7Z"/><path d="M10.95,31.15c0.433,-0.367 0.683,-0.567 0.75,-0.6c0.8,0.567 2.267,2.333 4.4,5.3c1.633,2.3 2.967,4.267 4,5.9c-0.4,0.8 -1.033,1.783 -1.9,2.95c-0.967,1.267 -1.733,2.1 -2.3,2.5l-1.75,-0.65l-0,4.75c1.167,0.4 2.733,0.6 4.7,0.6c1.8,-0 2.967,-0.267 3.5,-0.8c0.6,-0.6 0.9,-1.9 0.9,-3.9c0,-2.533 -0.467,-4.533 -1.4,-6c0.4,-1.233 0.75,-3.1 1.05,-5.6c0.3,-2.467 0.617,-4.217 0.95,-5.25l0.35,0.4c0.533,-0.333 0.967,-1 1.3,-2c0.1,-0.233 0.317,-1.033 0.65,-2.4c-1.433,-0.767 -2.15,-1.767 -2.15,-3c-0,-0.5 0.067,-1.133 0.2,-1.9c-1.333,1.233 -2.267,2.967 -2.8,5.2c0.067,0.3 0.283,0.767 0.65,1.4c0.367,0.533 0.55,0.917 0.55,1.15c0,0.867 -0.2,2.583 -0.6,5.15c-0.367,2.767 -0.667,4.383 -0.9,4.85c-3.633,-5.6 -5.617,-8.65 -5.95,-9.15c-3.133,-4.4 -5.5,-6.6 -7.1,-6.6c-0.6,-0 -1.067,0.317 -1.4,0.95c-0.3,0.5 -0.45,1.1 -0.45,1.8c0,1.233 0.333,2.383 1,3.45c0.767,1.2 1.667,1.8 2.7,1.8c0.5,-0 0.85,-0.1 1.05,-0.3Zm8.963,14.137l-1.613,1.913l3.35,-0.2c0.012,-0.064 0.024,-0.124 0.035,-0.182c0.028,-0.145 0.052,-0.269 0.073,-0.374c0.009,-0.043 0.018,-0.083 0.025,-0.12c0.006,-0.028 0.011,-0.053 0.017,-0.077l0.009,-0.042l0.011,-0.05c0.006,-0.025 0.011,-0.046 0.016,-0.062c0.003,-0.011 0.005,-0.02 0.007,-0.026l0.001,-0.003c0.002,-0.007 0.004,-0.011 0.006,-0.014c-0.027,-0.07 -0.177,-0.453 -0.45,-1.15l-0.55,-1.45l-0.937,1.837Zm-0.109,0.157l-0.014,0.02c-0.007,0.009 -0.014,0.019 -0.021,0.029l-0.021,0.029c-0.009,0.013 -0.018,0.026 -0.028,0.038c-0.012,0.017 -0.024,0.034 -0.037,0.051l-0.021,0.029c0.048,-0.065 0.096,-0.131 0.142,-0.196Zm0.048,-0.069l-0.03,0.043c0.01,-0.014 0.02,-0.028 0.03,-0.043Zm0.273,-0.414l0.015,-0.024l-0.015,0.024Zm0.17,-0.285c-0.038,0.066 -0.077,0.133 -0.117,0.199c0.017,-0.028 0.034,-0.057 0.051,-0.085c0.028,-0.048 0.055,-0.095 0.082,-0.143l-0.016,0.029Z" style="fill:#f00;"/><path d="M16.579,10.029l-5.05,3.6c-0.674,0.48 -0.831,1.418 -0.35,2.092c0.48,0.674 1.418,0.831 2.092,0.35l5.05,-3.6c0.674,-0.48 0.831,-1.418 0.35,-2.092c-0.48,-0.674 -1.418,-0.831 -2.092,-0.35Z"/><path d="M34.685,9.575l-5.1,3.6c-0.676,0.477 -0.838,1.414 -0.36,2.09c0.477,0.676 1.414,0.838 2.09,0.36l5.1,-3.6c0.676,-0.477 0.838,-1.414 0.36,-2.09c-0.477,-0.676 -1.414,-0.838 -2.09,-0.36Z"/></g></svg>