<?xml version="1.0" encoding="UTF-8" standalone="no"?><!DOCTYPE svg PUBLIC "-//W3C//DTD SVG 1.1//EN" "http://www.w3.org/Graphics/SVG/1.1/DTD/svg11.dtd"><svg width="100%" height="100%" viewBox="0 0 51 77" version="1.1" xmlns="http://www.w3.org/2000/svg" xmlns:xlink="http://www.w3.org/1999/xlink" xml:space="preserve" xmlns:serif="http://www.serif.com/" style="fill-rule:evenodd;clip-rule:evenodd;stroke-linejoin:round;stroke-miterlimit:2;"><g><path d="M22.1,61.85c0.367,0.1 0.633,0.15 0.8,0.15c0.333,0 0.5,-0.4 0.5,-1.2c-0,-0.3 -0.1,-0.567 -0.3,-0.8c-0.233,-0.267 -0.5,-0.4 -0.8,-0.4c-0.533,-0 -1.367,0.517 -2.5,1.55c-1.133,1.033 -1.7,1.85 -1.7,2.45c0,0.2 0.133,0.55 0.4,1.05c0.267,0.5 0.4,0.883 0.4,1.15c-0,0.167 -0.05,0.4 -0.15,0.7c-0.067,0.333 -0.1,0.567 -0.1,0.7c-0,0.167 0.017,0.383 0.05,0.65c1.533,-1.4 2.883,-2.1 4.05,-2.1c0.967,-0 1.467,-0.033 1.5,-0.1c0.267,-0.467 0.533,-0.933 0.8,-1.4l-2.9,-0c-0.967,-0.067 -1.783,-0.367 -2.45,-0.9c0.367,-1.133 0.917,-1.7 1.65,-1.7c0.167,-0 0.417,0.067 0.75,0.2Z" style="fill:#f00;"/><path d="M29.4,25.85c-0,-0.5 0.067,-1.133 0.2,-1.9c-1.333,1.233 -2.267,2.967 -2.8,5.2c0.067,0.3 0.283,0.767 0.65,1.4c0.367,0.533 0.55,0.917 0.55,1.15c0,0.867 -0.2,2.583 -0.6,5.15c-0.367,2.767 -0.667,4.383 -0.9,4.85c-3.633,-5.6 -5.617,-8.65 -5.95,-9.15c-3.133,-4.4 -5.5,-6.6 -7.1,-6.6c-0.6,-0 -1.067,0.317 -1.4,0.95c-0.3,0.5 -0.45,1.1 -0.45,1.8c0,1.233 0.333,2.383 1,3.45c0.767,1.2 1.667,1.8 2.7,1.8c0.5,-0 0.85,-0.1 1.05,-0.3c0.433,-0.367 0.683,-0.567 0.75,-0.6c0.8,0.567 2.267,2.333 4.4,5.3c1.633,2.3 2.967,4.267 4,5.9c-0.4,0.8 -1.033,1.783 -1.9,2.95c-0.967,1.267 -1.733,2.1 -2.3,2.5l-1.75,-0.65l-0,4.75c1.167,0.4 2.733,0.6 4.7,0.6c1.8,0 2.967,-0.267 3.5,-0.8c0.6,-0.6 0.9,-1.9 0.9,-3.9c-0,-2.533 -0.467,-4.533 -1.4,-6c0.4,-1.233 0.75,-3.1 1.05,-5.6c0.3,-2.467 0.617,-4.217 0.95,-5.25l0.35,0.4c0.533,-0.333 0.967,-1 1.3,-2c0.1,-0.233 0.317,-1.033 0.65,-2.4c-1.433,-0.767 -2.15,-1.767 -2.15,-3Zm-3.161,20.133l-0.008,0.023l-0.014,0.039c-0.058,0.167 -0.126,0.335 -0.202,0.504l-0.011,0.024c-0.004,0.01 -0.009,0.019 -0.013,0.029l-0.007,0.015c-0.036,0.078 -0.074,0.156 -0.114,0.234c-0.043,0.085 -0.088,0.17 -0.136,0.255l-0.011,0.019c-0.101,0.181 -0.212,0.363 -0.332,0.545l-0.019,0.03l-0.02,0.029c-0.007,0.01 -0.013,0.019 -0.02,0.029l-0.018,0.027c-0.05,0.073 -0.101,0.147 -0.155,0.222c-0.04,0.055 -0.081,0.111 -0.122,0.167c-0.033,0.044 -0.067,0.088 -0.101,0.133c-0.012,0.015 -0.024,0.03 -0.036,0.046c-0.066,0.084 -0.134,0.169 -0.203,0.254c-0.023,0.028 -0.046,0.055 -0.069,0.083c-0.06,0.072 -0.122,0.144 -0.185,0.217c-0.011,0.012 -0.022,0.025 -0.033,0.037c-0.079,0.09 -0.16,0.18 -0.243,0.27l-0.028,0.031c-0.036,0.038 -0.073,0.077 -0.11,0.116c-0.037,0.04 -0.075,0.08 -0.114,0.12c-0.015,0.016 -0.031,0.032 -0.047,0.049c-0.055,0.056 -0.111,0.113 -0.168,0.17l3.35,-0.2c0.01,-0.053 0.02,-0.104 0.029,-0.153l0.012,-0.06c0.006,-0.032 0.012,-0.064 0.019,-0.096l0.013,-0.067c0.024,-0.125 0.045,-0.23 0.063,-0.314l0.006,-0.029c0.004,-0.016 0.007,-0.031 0.01,-0.045c0.008,-0.036 0.015,-0.067 0.021,-0.093l0.004,-0.017c0.007,-0.026 0.012,-0.046 0.016,-0.059c0.003,-0.009 0.005,-0.014 0.007,-0.017c-0.027,-0.07 -0.177,-0.453 -0.45,-1.15l-0.55,-1.45l-0.011,0.033Z" style="fill:#f00;"/><path d="M23.571,66.884l-5.05,3.65c-0.671,0.485 -0.822,1.424 -0.337,2.095c0.485,0.671 1.424,0.822 2.095,0.337l5.05,-3.65c0.671,-0.485 0.822,-1.424 0.337,-2.095c-0.485,-0.671 -1.424,-0.822 -2.095,-0.337Z"/><path d="M29.027,13.13l-5.1,3.65c-0.673,0.482 -0.829,1.42 -0.347,2.093c0.482,0.673 1.42,0.829 2.093,0.347l5.1,-3.65c0.673,-0.482 0.829,-1.42 0.347,-2.093c-0.482,-0.673 -1.42,-0.829 -2.093,-0.347Z"/></g></svg>