<?xml version="1.0" encoding="UTF-8" standalone="no"?><!DOCTYPE svg PUBLIC "-//W3C//DTD SVG 1.1//EN" "http://www.w3.org/Graphics/SVG/1.1/DTD/svg11.dtd"><svg width="100%" height="100%" viewBox="0 0 33 77" version="1.1" xmlns="http://www.w3.org/2000/svg" xmlns:xlink="http://www.w3.org/1999/xlink" xml:space="preserve" xmlns:serif="http://www.serif.com/" style="fill-rule:evenodd;clip-rule:evenodd;stroke-linejoin:round;stroke-miterlimit:2;"><g><path d="M27.7,23.85c-1.6,2.333 -2.4,3.733 -2.4,4.2l0.6,26.7c1.333,-1.233 2,-4.467 2,-9.7l-0.2,-21.2Z"/><path d="M17.55,53.05c1.267,-1.233 1.9,-3.317 1.9,-6.25c0,-0.833 -0.317,-2.7 -0.95,-5.6c-0.667,1.8 -1.217,3.133 -1.65,4c0.633,1.433 1.033,2.467 1.2,3.1c-0.654,0.903 -2.47,1.369 -5.45,1.4l0,-0.05c-2.9,-0 -4.783,-0.633 -5.65,-1.9c-0.733,-1.067 -1.1,-3.333 -1.1,-6.8l0,-16.2c-0.467,0.5 -0.917,1 -1.35,1.5c-0.333,0.467 -0.5,1.133 -0.5,2c-0,6.767 0.033,11.1 0.1,13c0.233,6.533 0.817,10.467 1.75,11.8c0.767,1.1 1.817,1.65 3.15,1.65l3.6,-0l0,-0.05c2.247,-0.074 3.897,-0.607 4.95,-1.6Z"/><path d="M15.95,37.75l2.65,-2.9l-2.7,-2.95l-2.65,2.95l2.7,2.9Z"/><path d="M27.621,11.034l-5.05,3.65c-0.671,0.485 -0.822,1.424 -0.337,2.095c0.485,0.671 1.424,0.822 2.095,0.337l5.05,-3.65c0.671,-0.485 0.822,-1.424 0.337,-2.095c-0.485,-0.671 -1.424,-0.822 -2.095,-0.337Z"/><path d="M10.571,11.034l-5.05,3.65c-0.671,0.485 -0.822,1.424 -0.337,2.095c0.485,0.671 1.424,0.822 2.095,0.337l5.05,-3.65c0.671,-0.485 0.822,-1.424 0.337,-2.095c-0.485,-0.671 -1.424,-0.822 -2.095,-0.337Z"/></g></svg>