<?xml version="1.0" encoding="UTF-8" standalone="no"?><!DOCTYPE svg PUBLIC "-//W3C//DTD SVG 1.1//EN" "http://www.w3.org/Graphics/SVG/1.1/DTD/svg11.dtd"><svg width="100%" height="100%" viewBox="0 0 59 77" version="1.1" xmlns="http://www.w3.org/2000/svg" xmlns:xlink="http://www.w3.org/1999/xlink" xml:space="preserve" xmlns:serif="http://www.serif.com/" style="fill-rule:evenodd;clip-rule:evenodd;stroke-linejoin:round;stroke-miterlimit:2;"><g><path d="M48.1,63.35l2.65,-2.9l-2.65,-3l-2.65,3l2.65,2.9Z"/><path d="M47.116,47.309c1.885,-0.177 3.08,-0.613 3.584,-1.309c-0.167,-0.633 -0.567,-1.667 -1.2,-3.1c0.433,-0.867 0.983,-2.2 1.65,-4c0.633,2.9 0.95,4.767 0.95,5.6c-0,2.933 -0.633,5.017 -1.9,6.25c-1.092,1.029 -2.825,1.579 -5.2,1.65l-1.65,-0l-0,-5l1.65,-0l2.116,-0.091Z"/><path d="M11.4,42.5c0.5,-0.467 0.917,-0.7 1.25,-0.7c0.033,0 0.267,0.083 0.7,0.25c0.4,0.167 0.7,0.25 0.9,0.25c0.8,0 1.2,-0.417 1.2,-1.25c0,-0.3 -0.217,-0.617 -0.65,-0.95c-0.467,-0.333 -0.85,-0.5 -1.15,-0.5c-1.733,0 -3.533,1.633 -5.4,4.9c0,0.5 0.2,1.067 0.6,1.7c0.4,0.633 0.6,1.05 0.6,1.25c0,0.033 -0.083,0.25 -0.25,0.65c-0.167,0.367 -0.25,0.7 -0.25,1c0,0.3 0.05,0.7 0.15,1.2c2.567,-1.933 4.467,-2.9 5.7,-2.9c0.233,-0 0.6,0.083 1.1,0.25c0.233,-0.133 0.483,-0.5 0.75,-1.1c0.2,-0.467 0.4,-0.933 0.6,-1.4l-2,-0c-3.067,-0 -4.6,-0.483 -4.6,-1.45c0,-0.333 0.25,-0.733 0.75,-1.2Z"/><path d="M13.45,27.1c-0.633,0 -1.233,0.367 -1.8,1.1c-0.533,0.7 -0.8,1.383 -0.8,2.05c-0,0.8 0.467,1.5 1.4,2.1c-0.9,1 -1.75,1.633 -2.55,1.9c0.067,-0.933 0.1,-1.5 0.1,-1.7c-0,-1.633 -0.483,-2.45 -1.45,-2.45c-0.533,0 -0.967,0.267 -1.3,0.8c-0.3,0.467 -0.45,1 -0.45,1.6c-0,0.3 0.067,0.683 0.2,1.15c0.133,-1.133 0.483,-1.7 1.05,-1.7c0.3,-0 0.533,0.133 0.7,0.4c0.2,0.233 0.3,0.5 0.3,0.8c-0,0.467 -0.283,1.417 -0.85,2.85c1.1,-0.233 2.033,-0.6 2.8,-1.1c0.633,-0.4 1.383,-1.1 2.25,-2.1c0.433,0.367 1.067,0.8 1.9,1.3c0.033,-0.833 0.05,-1.3 0.05,-1.4c-0,-0.5 -0.267,-0.967 -0.8,-1.4c0.433,-1.1 0.65,-1.917 0.65,-2.45c-0,-0.433 -0.133,-0.833 -0.4,-1.2c-0.3,-0.367 -0.633,-0.55 -1,-0.55Zm-0.9,1.45c-0.1,0 -0.233,0.033 -0.4,0.1l-0.2,0.4l0,0.02c0.001,0.006 0.001,0.011 0.001,0.017c0.001,0.002 0.001,0.004 0.001,0.006c0.001,0.011 0.002,0.021 0.004,0.032c0.001,0.004 0.001,0.008 0.002,0.012c0.004,0.021 0.009,0.042 0.015,0.063l0.003,0.011l0.007,0.021c0.015,0.045 0.036,0.091 0.063,0.14l0.009,0.015l0.013,0.024l0.014,0.022l0.017,0.026l0.017,0.026c0.009,0.013 0.018,0.026 0.028,0.039l0.011,0.015l0.022,0.029l0.011,0.014l0.018,0.023l0.021,0.025l0.017,0.021l0.032,0.037c0.003,0.003 0.006,0.005 0.008,0.008c0.015,0.017 0.03,0.034 0.046,0.05c0.008,0.009 0.016,0.017 0.024,0.025l0.014,0.015c0.015,0.015 0.03,0.031 0.045,0.046c0.004,0.003 0.007,0.006 0.01,0.009l0.027,0.026c0.009,0.009 0.018,0.018 0.027,0.027l0.033,0.03l0.032,0.03c0.018,0.017 0.037,0.034 0.057,0.051l0.018,0.016l0.038,0.033c0.006,0.005 0.012,0.01 0.018,0.015l0.052,0.044l0.031,0.026l0.037,0.03c0.01,0.008 0.019,0.016 0.029,0.023c0.005,0.004 0.01,0.008 0.014,0.012c0.026,0.02 0.052,0.041 0.078,0.061l0.003,0.003c0.02,0.015 0.04,0.031 0.061,0.046l0.039,0.03l0.035,0.026l0.044,0.033c0.011,0.008 0.023,0.017 0.034,0.025c0.031,0.023 0.063,0.046 0.095,0.069l0.06,0.042c0.005,0.004 0.01,0.007 0.015,0.011l0.1,-0.85l-0.12,-0.701l-0.071,-0.075l-0.021,-0.087l-0.266,-0.215l-0.372,-0.072Z"/><path d="M27.6,9.4c-1.667,-0 -3.233,-0.583 -4.7,-1.75c-1.233,2.033 -2.067,3.817 -2.5,5.35c0.367,-0.267 0.767,-0.717 1.2,-1.35c0.467,-0.767 0.817,-1.25 1.05,-1.45c1.167,0.533 1.867,0.85 2.1,0.95c0.567,0.2 1.317,0.3 2.25,0.3c1.033,-0 2.283,-0.45 3.75,-1.35c1.633,-0.967 2.45,-1.967 2.45,-3c-1.7,0.967 -2.6,1.483 -2.7,1.55c-1.067,0.5 -2.033,0.75 -2.9,0.75Z"/><path d="M43.35,52.4l-1.9,-0c-1.8,-0 -3.1,-1.533 -3.9,-4.6c-0.533,-2.133 -0.8,-4.833 -0.8,-8.1c-0,-0.733 0.017,-1.467 0.05,-2.2c-0.8,5.867 -2,9.983 -3.6,12.35c-2.167,3.167 -5.7,4.75 -10.6,4.75c1.5,-0.8 3.45,-2.317 5.85,-4.55c2.6,-2.433 4.15,-4.333 4.65,-5.7c-0.767,-4.533 -3.483,-8.733 -8.15,-12.6c-0.867,0.3 -1.633,0.45 -2.3,0.45c-2.567,-0 -3.85,-1.6 -3.85,-4.8c-0,-0.567 0.15,-1.15 0.45,-1.75c0.367,-0.667 0.783,-1 1.25,-1c1.667,-0 3.95,1.7 6.85,5.1c2.533,2.967 4.25,5.55 5.15,7.75c0.333,0.8 0.8,2.583 1.4,5.35c0.833,-3.067 1.333,-5.75 1.5,-8.05c0.067,-1.133 0.1,-4.083 0.1,-8.85c0.433,-0.667 1.433,-1.917 3,-3.75l-0.1,2.45c-0.033,1.7 -0.05,3.3 -0.05,4.8c-0,10.9 1.15,16.783 3.45,17.65c0.5,0.167 1.567,0.25 3.2,0.25l-0,0.05l-1.65,-0l-0,5Z" style="fill:#f00;"/><path d="M30.985,12.675l-5.1,3.6c-0.676,0.477 -0.838,1.414 -0.36,2.09c0.477,0.676 1.414,0.838 2.09,0.36l5.1,-3.6c0.676,-0.477 0.838,-1.414 0.36,-2.09c-0.477,-0.676 -1.414,-0.838 -2.09,-0.36Z"/><path d="M49.021,11.034l-5.05,3.65c-0.671,0.485 -0.822,1.424 -0.337,2.095c0.485,0.671 1.424,0.822 2.095,0.337l5.05,-3.65c0.671,-0.485 0.822,-1.424 0.337,-2.095c-0.485,-0.671 -1.424,-0.822 -2.095,-0.337Z"/></g></svg>