<?xml version="1.0" encoding="UTF-8" standalone="no"?><!DOCTYPE svg PUBLIC "-//W3C//DTD SVG 1.1//EN" "http://www.w3.org/Graphics/SVG/1.1/DTD/svg11.dtd"><svg width="100%" height="100%" viewBox="0 0 68 71" version="1.1" xmlns="http://www.w3.org/2000/svg" xmlns:xlink="http://www.w3.org/1999/xlink" xml:space="preserve" xmlns:serif="http://www.serif.com/" style="fill-rule:evenodd;clip-rule:evenodd;stroke-linejoin:round;stroke-miterlimit:2;"><g><path d="M41.5,58l-2.35,-2.6l-2.3,2.6l2.3,2.55l2.35,-2.55Z"/><path d="M34.55,55.4l-2.35,2.55l2.35,2.6l2.3,-2.55l-2.3,-2.6Z"/><path d="M29.9,45.6c0.243,0.018 0.493,0.035 0.75,0.05c0.115,-0.005 0.232,-0.005 0.35,-0c0.9,0.033 1.467,0.05 1.7,0.05c1.1,-0 1.9,-0.233 2.4,-0.7c0.367,-0.4 1.083,-1.583 2.15,-3.55c0.067,1.733 0.383,2.917 0.95,3.55c0.5,0.533 1.333,0.8 2.5,0.8c0.333,0 0.95,-0.033 1.85,-0.1l0.05,0l-0,4.95l-2.65,-0c-0.633,-0 -1.367,-0.417 -2.2,-1.25c-0.733,-0.7 -1.3,-1.433 -1.7,-2.2c-0.767,1.467 -1.183,2.25 -1.25,2.35c-0.567,0.733 -1.283,1.1 -2.15,1.1l-4.05,-0l-0,-5.05l1.3,0Z"/><path d="M44.75,45.65l-1,-0.05l1,0l0,0.05Z"/><path d="M36.45,17.95c0.5,-0.6 0.75,-1.3 0.75,-2.1c0,-0.667 -0.183,-1.283 -0.55,-1.85c-0.4,-0.6 -0.9,-0.9 -1.5,-0.9c-0.767,-0 -1.35,0.383 -1.75,1.15c-0.333,0.667 -0.5,1.467 -0.5,2.4c0,1.5 0.583,2.25 1.75,2.25c0.7,0 1.3,-0.317 1.8,-0.95Zm-2.058,-3.25c-0.167,0.001 -0.313,0.028 -0.437,0.081l-0.02,0.009l-0.017,0.008l-0.016,0.008l-0.017,0.009l-0.016,0.009l-0.016,0.01l-0.015,0.009l-0.016,0.01l-0.015,0.011l-0.015,0.011l-0.014,0.011l-0.015,0.011l-0.014,0.012l-0.013,0.012l-0.014,0.013l-0.013,0.012l-0.013,0.014l-0.012,0.013l-0.013,0.014l-0.012,0.014l-0.012,0.015l-0.011,0.015l-0.011,0.015l-0.011,0.015l-0.011,0.016l-0.01,0.017l-0.011,0.016l-0.009,0.017l-0.01,0.018l-0.009,0.017l-0.009,0.018l-0.009,0.019l-0.009,0.018l-0.008,0.019l-0.008,0.02l-0.008,0.019l-0.007,0.02l-0.007,0.021l-0.007,0.02l-0.007,0.022l-0.006,0.021l-0.006,0.022l-0.006,0.022l-0.005,0.022l-0.005,0.023l-0.005,0.023l-0.005,0.024l-0.004,0.023l-0.004,0.025l-0.004,0.024l-0.004,0.028l-0.004,0.034l-0.002,0.01l-0.004,0.041l-0.001,0.011l-0.003,0.042l-0.001,0.011l-0.003,0.044l-0,0.011l-0.002,0.045l-0,0.011l-0.001,0.046l0,0.029c0,0.023 0.001,0.046 0.002,0.068l-0,0.008c0,0.008 0.001,0.016 0.001,0.024c0.005,0.063 0.014,0.122 0.027,0.179c0.001,0.008 0.004,0.016 0.006,0.025l0.002,0.01c0.006,0.02 0.012,0.04 0.018,0.059c0.004,0.013 0.009,0.025 0.013,0.038c0.005,0.012 0.01,0.023 0.015,0.035c0.004,0.009 0.008,0.018 0.012,0.027c0.01,0.02 0.019,0.039 0.03,0.058c0.059,0.104 0.139,0.193 0.239,0.269l0.01,0.007c0.048,0.036 0.102,0.068 0.16,0.097l0.007,0.004c0.007,0.003 0.015,0.007 0.022,0.01c0.01,0.005 0.02,0.01 0.03,0.014l0.018,0.008c0.03,0.013 0.061,0.024 0.093,0.036c0.004,0.001 0.009,0.003 0.014,0.004c0.011,0.004 0.023,0.008 0.034,0.012c0.016,0.005 0.032,0.009 0.049,0.014c0.016,0.005 0.033,0.009 0.05,0.014l0.029,0.007l0.014,0.003c0.073,0.017 0.151,0.031 0.234,0.042l0.031,0.004c0.006,0 0.013,0.001 0.019,0.002c0.015,0.002 0.03,0.003 0.045,0.005l0.034,0.003l0.011,0.001c0.096,0.008 0.197,0.012 0.303,0.013c0.009,-0 0.019,0 0.028,0l0.938,-0.187c0.106,-0.064 0.185,-0.144 0.237,-0.241c0.05,-0.092 0.075,-0.2 0.075,-0.322c0,-0.013 -0,-0.027 -0.001,-0.04c-0.001,-0.015 -0.003,-0.03 -0.005,-0.046l-0.001,-0.007c-0.002,-0.008 -0.003,-0.017 -0.005,-0.025l-0.003,-0.019l-0.003,-0.01c-0.006,-0.028 -0.015,-0.058 -0.026,-0.087l-0.003,-0.008c-0.002,-0.008 -0.005,-0.016 -0.009,-0.024c-0.015,-0.038 -0.033,-0.077 -0.055,-0.116l-0.005,-0.008c-0.021,-0.038 -0.045,-0.077 -0.071,-0.116c-0.013,-0.017 -0.025,-0.035 -0.038,-0.053c-0.016,-0.02 -0.032,-0.041 -0.048,-0.062c-0.088,-0.109 -0.196,-0.222 -0.325,-0.339c-0.033,-0.03 -0.067,-0.06 -0.102,-0.09l-0.032,-0.025c-0.02,-0.016 -0.04,-0.031 -0.06,-0.046c-0.007,-0.005 -0.014,-0.01 -0.02,-0.015c-0.024,-0.018 -0.048,-0.035 -0.072,-0.052l-0.029,-0.02c-0.076,-0.054 -0.149,-0.102 -0.22,-0.144c-0.042,-0.025 -0.083,-0.048 -0.122,-0.069l-0.01,-0.005c-0.02,-0.01 -0.039,-0.02 -0.059,-0.03c-0.005,-0.002 -0.009,-0.004 -0.014,-0.007l-0.512,-0.137l-0.008,0Z"/><path d="M28.6,50.65l-1.15,-0c-0.833,-0 -1.667,-0.617 -2.5,-1.85c-0.367,-0.5 -0.917,-1.517 -1.65,-3.05c-1.133,1.733 -3.067,3.2 -5.8,4.4c-2.467,1.067 -4.783,1.6 -6.95,1.6c-2.233,0 -4.033,-0.45 -5.4,-1.35c-1.7,-1.133 -2.55,-2.867 -2.55,-5.2c0,-1.233 0.267,-2.65 0.8,-4.25c0.633,-1.833 1.367,-2.967 2.2,-3.4c-0.567,1.8 -0.85,3.4 -0.85,4.8c-0,3.333 3,5 9,5c1.467,0 3.283,-0.583 5.45,-1.75c2.467,-1.3 3.7,-2.683 3.7,-4.15c0,-2.2 -0.133,-5.017 -0.4,-8.45c-0.2,-2.8 -0.417,-5.617 -0.65,-8.45c-0,-0.433 0.35,-1.2 1.05,-2.3c0.6,-0.9 1.133,-1.567 1.6,-2c-0,14.333 0.5,22.333 1.5,24c0.4,0.733 1.1,1.183 2.1,1.35l0.5,0l-0,5.05Z" style="fill:#f00;"/><path d="M59.45,19.8c-1.6,2.333 -2.4,3.733 -2.4,4.2l0.6,26.7c1.333,-1.233 2,-4.467 2,-9.7l-0.2,-21.2Z" style="fill:#f00;"/><path d="M49.6,19.9l-0,-0.55c-1.367,1 -2.45,2.717 -3.25,5.15c0.133,0.7 0.6,1.567 1.4,2.6c0.533,3.633 0.8,9.15 0.8,16.55c-0,1.4 -1.183,2.067 -3.55,2l-0.25,-0l-1,-0.05l-1.15,0l-0,5.05l3.4,-0c1.7,-0 2.933,-1.033 3.7,-3.1c0.567,-1.467 0.85,-3.317 0.85,-5.55l-0,-4.7c-0,-0.833 -0.067,-2.1 -0.2,-3.8c-0.167,-1.7 -0.25,-2.983 -0.25,-3.85c-0,-0.4 0.217,-1.083 0.65,-2.05c0.4,-0.967 0.6,-1.767 0.6,-2.4c-0,-0.233 -0.333,-0.733 -1,-1.5c-0.7,-0.767 -1.05,-1.433 -1.05,-2c-0,-0.167 0.05,-0.45 0.15,-0.85c0.133,-0.4 0.183,-0.717 0.15,-0.95Z" style="fill:#f00;"/><path d="M30.65,45.6c-0.273,0.007 -0.523,0.007 -0.75,0c0.243,0.018 0.493,0.035 0.75,0.05l0,-0.05Z" style="fill:#f00;"/><path d="M13.9,34.75c0.433,-0.5 0.833,-0.75 1.2,-0.75c0.267,0 0.533,0.117 0.8,0.35c0.8,-0.467 1.2,-1.167 1.2,-2.1c-0,-0.333 -0.133,-0.667 -0.4,-1c-0.233,-0.3 -0.5,-0.45 -0.8,-0.45c-0.567,0 -1.417,0.983 -2.55,2.95c-1.067,1.9 -1.6,3.2 -1.6,3.9c-0,0.7 0.483,1.05 1.45,1.05c1.267,-0 2.1,0.233 2.5,0.7c-0.933,1.067 -1.933,1.6 -3,1.6c-0.5,0 -1.083,-0.083 -1.75,-0.25c0.4,0.633 0.733,1.05 1,1.25c0.333,0.2 0.833,0.3 1.5,0.3c1.033,0 1.85,-0.283 2.45,-0.85c0.7,-0.6 1.05,-1.467 1.05,-2.6c0,-1.1 -0.617,-1.783 -1.85,-2.05c-1.233,-0.267 -1.85,-0.5 -1.85,-0.7c-0,-0.4 0.217,-0.85 0.65,-1.35Z" style="fill:#f00;"/><path d="M59.921,54.134l-5.05,3.65c-0.671,0.485 -0.822,1.424 -0.337,2.095c0.485,0.671 1.424,0.822 2.095,0.337l5.05,-3.65c0.671,-0.485 0.822,-1.424 0.337,-2.095c-0.485,-0.671 -1.424,-0.822 -2.095,-0.337Z"/><path d="M19.071,9.284l-5.05,3.65c-0.671,0.485 -0.822,1.424 -0.337,2.095c0.485,0.671 1.424,0.822 2.095,0.337l5.05,-3.65c0.671,-0.485 0.822,-1.424 0.337,-2.095c-0.485,-0.671 -1.424,-0.822 -2.095,-0.337Z"/><path d="M50.377,9.28l-5.1,3.65c-0.673,0.482 -0.829,1.42 -0.347,2.093c0.482,0.673 1.42,0.829 2.093,0.347l5.1,-3.65c0.673,-0.482 0.829,-1.42 0.347,-2.093c-0.482,-0.673 -1.42,-0.829 -2.093,-0.347Z"/></g></svg>