<?xml version="1.0" encoding="UTF-8" standalone="no"?><!DOCTYPE svg PUBLIC "-//W3C//DTD SVG 1.1//EN" "http://www.w3.org/Graphics/SVG/1.1/DTD/svg11.dtd"><svg width="100%" height="100%" viewBox="0 0 34 74" version="1.1" xmlns="http://www.w3.org/2000/svg" xmlns:xlink="http://www.w3.org/1999/xlink" xml:space="preserve" xmlns:serif="http://www.serif.com/" style="fill-rule:evenodd;clip-rule:evenodd;stroke-linejoin:round;stroke-miterlimit:2;"><g><path d="M25.65,32.4c-0.067,-4.833 -0.1,-8.467 -0.1,-10.9c-0.3,0.333 -0.733,0.917 -1.3,1.75c-0.6,0.933 -0.9,1.55 -0.9,1.85c-0,2 0.033,5.033 0.1,9.1c0.1,4.033 0.15,7.05 0.15,9.05c-0,1.467 -1.517,2.733 -4.55,3.8c-2.433,0.867 -4.533,1.3 -6.3,1.3c-4.8,0 -7.2,-1.617 -7.2,-4.85c-0,-1.767 0.25,-3.4 0.75,-4.9c-0.767,0.4 -1.467,1.533 -2.1,3.4c-0.6,1.633 -0.9,3.033 -0.9,4.2c-0,4.367 2.567,6.55 7.7,6.55c2.533,0 5.483,-0.883 8.85,-2.65c3.933,-2.067 5.9,-4.35 5.9,-6.85c0,-2.4 -0.033,-6.017 -0.1,-10.85Z" style="fill:#f00;"/><path d="M17.8,33.2c-0,-0.333 -0.117,-0.667 -0.35,-1c-0.267,-0.3 -0.533,-0.45 -0.8,-0.45c-0.6,-0 -1.467,0.983 -2.6,2.95c-1.067,1.9 -1.6,3.2 -1.6,3.9c0,0.7 0.5,1.05 1.5,1.05c1.233,0 2.067,0.233 2.5,0.7c-0.967,1.067 -1.967,1.6 -3,1.6c-0.5,-0 -1.1,-0.083 -1.8,-0.25c0.433,0.633 0.783,1.05 1.05,1.25c0.3,0.2 0.783,0.3 1.45,0.3c1.033,0 1.867,-0.283 2.5,-0.85c0.667,-0.6 1,-1.467 1,-2.6c0,-1.1 -0.617,-1.783 -1.85,-2.05c-1.233,-0.267 -1.85,-0.5 -1.85,-0.7c0,-0.4 0.217,-0.85 0.65,-1.35c0.433,-0.5 0.833,-0.75 1.2,-0.75c0.267,-0 0.55,0.117 0.85,0.35c0.767,-0.467 1.15,-1.167 1.15,-2.1Z" style="fill:#f00;"/><path d="M19.779,12.279l-5.05,3.6c-0.674,0.48 -0.831,1.418 -0.35,2.092c0.48,0.674 1.418,0.831 2.092,0.35l5.05,-3.6c0.674,-0.48 0.831,-1.418 0.35,-2.092c-0.48,-0.674 -1.418,-0.831 -2.092,-0.35Z"/></g></svg>