<?xml version="1.0" encoding="UTF-8" standalone="no"?><!DOCTYPE svg PUBLIC "-//W3C//DTD SVG 1.1//EN" "http://www.w3.org/Graphics/SVG/1.1/DTD/svg11.dtd"><svg width="100%" height="100%" viewBox="0 0 41 77" version="1.1" xmlns="http://www.w3.org/2000/svg" xmlns:xlink="http://www.w3.org/1999/xlink" xml:space="preserve" xmlns:serif="http://www.serif.com/" style="fill-rule:evenodd;clip-rule:evenodd;stroke-linejoin:round;stroke-miterlimit:2;"><g><path d="M33.2,22.65c-1.6,2.333 -2.4,3.733 -2.4,4.2l0.6,26.7c1.333,-1.233 2,-4.467 2,-9.7l-0.2,-21.2Z"/><path d="M16.3,20.05c-0.1,0.7 -0.2,1.167 -0.3,1.4c-0.2,0.6 -0.483,0.9 -0.85,0.9c-0.333,0 -0.5,-0.517 -0.5,-1.55l-0.3,0.05c-0.2,0.733 -0.3,1.2 -0.3,1.4c-0,0.433 0.083,0.8 0.25,1.1c0.167,0.333 0.433,0.5 0.8,0.5c0.3,0 0.6,-0.117 0.9,-0.35c0.267,-0.267 0.417,-0.567 0.45,-0.9c0.267,0.2 0.55,0.3 0.85,0.3c0.9,-0 1.35,-0.8 1.35,-2.4c0,-0.433 -0.067,-0.9 -0.2,-1.4l-0.3,0.1c0,1.433 -0.283,2.15 -0.85,2.15c-0.3,0 -0.55,-0.467 -0.75,-1.4l-0.25,0.1Z"/><path d="M7.15,25.5c-0.6,0 -1.067,0.317 -1.4,0.95c-0.3,0.5 -0.45,1.1 -0.45,1.8c-0,1.233 0.333,2.383 1,3.45c0.767,1.2 1.667,1.8 2.7,1.8c0.5,0 0.85,-0.1 1.05,-0.3c0.433,-0.367 0.683,-0.567 0.75,-0.6c0.8,0.567 2.267,2.333 4.4,5.3c1.633,2.3 2.967,4.267 4,5.9c-0.4,0.8 -1.033,1.783 -1.9,2.95c-0.967,1.267 -1.733,2.1 -2.3,2.5l-1.75,-0.65l-0,4.75c1.167,0.4 2.733,0.6 4.7,0.6c1.8,-0 2.967,-0.267 3.5,-0.8c0.6,-0.6 0.9,-1.9 0.9,-3.9c-0,-2.533 -0.467,-4.533 -1.4,-6c0.4,-1.233 0.75,-3.1 1.05,-5.6c0.3,-2.467 0.617,-4.217 0.95,-5.25l0.35,0.4c0.533,-0.333 0.967,-1 1.3,-2c0.1,-0.233 0.317,-1.033 0.65,-2.4c-1.433,-0.767 -2.15,-1.767 -2.15,-3c-0,-0.5 0.067,-1.133 0.2,-1.9c-1.333,1.233 -2.267,2.967 -2.8,5.2c0.067,0.3 0.283,0.767 0.65,1.4c0.367,0.533 0.55,0.917 0.55,1.15c0,0.867 -0.2,2.583 -0.6,5.15c-0.367,2.767 -0.667,4.383 -0.9,4.85c-3.633,-5.6 -5.617,-8.65 -5.95,-9.15c-3.133,-4.4 -5.5,-6.6 -7.1,-6.6Zm13.35,21.45c0.273,0.697 0.423,1.08 0.45,1.15c-0.018,0.03 -0.085,0.347 -0.2,0.95l-3.35,0.2c1.3,-1.3 2.15,-2.55 2.55,-3.75l0.55,1.45Z" style="fill:#f00;"/><path d="M17.021,11.034l-5.05,3.65c-0.671,0.485 -0.822,1.424 -0.337,2.095c0.485,0.671 1.424,0.822 2.095,0.337l5.05,-3.65c0.671,-0.485 0.822,-1.424 0.337,-2.095c-0.485,-0.671 -1.424,-0.822 -2.095,-0.337Z"/><path d="M32.821,11.034l-5.05,3.65c-0.671,0.485 -0.822,1.424 -0.337,2.095c0.485,0.671 1.424,0.822 2.095,0.337l5.05,-3.65c0.671,-0.485 0.822,-1.424 0.337,-2.095c-0.485,-0.671 -1.424,-0.822 -2.095,-0.337Z"/></g></svg>