<?xml version="1.0" encoding="UTF-8" standalone="no"?><!DOCTYPE svg PUBLIC "-//W3C//DTD SVG 1.1//EN" "http://www.w3.org/Graphics/SVG/1.1/DTD/svg11.dtd"><svg width="100%" height="100%" viewBox="0 0 35 74" version="1.1" xmlns="http://www.w3.org/2000/svg" xmlns:xlink="http://www.w3.org/1999/xlink" xml:space="preserve" xmlns:serif="http://www.serif.com/" style="fill-rule:evenodd;clip-rule:evenodd;stroke-linejoin:round;stroke-miterlimit:2;"><g><path d="M21.8,23.65c0.133,-0.867 0.25,-1.733 0.35,-2.6c-1.1,-0.167 -1.8,-0.7 -2.1,-1.6c-0.2,-0.533 -0.3,-1.55 -0.3,-3.05c-0.867,1.3 -1.6,3.183 -2.2,5.65c0.6,0.867 1.067,1.5 1.4,1.9c0.1,1.367 0.383,5.033 0.85,11c0.367,4.6 0.55,8.3 0.55,11.1c-0,1.233 -0.783,2.233 -2.35,3c-1.233,0.567 -2.5,0.85 -3.8,0.85c-3.667,-0 -5.5,-1.75 -5.5,-5.25c0,-0.167 0.183,-1.667 0.55,-4.5c-0.733,0.667 -1.3,1.883 -1.7,3.65c-0.367,1.467 -0.55,2.867 -0.55,4.2c0,2.533 0.467,4.35 1.4,5.45c0.967,1.2 2.567,1.8 4.8,1.8c5.967,0 8.95,-4.783 8.95,-14.35c0,-4.8 -0.467,-9.85 -1.4,-15.15c0.5,-0.3 0.85,-1 1.05,-2.1Z" style="fill:#f00;"/><path d="M19.171,9.034l-5.05,3.65c-0.671,0.485 -0.822,1.424 -0.337,2.095c0.485,0.671 1.424,0.822 2.095,0.337l5.05,-3.65c0.671,-0.485 0.822,-1.424 0.337,-2.095c-0.485,-0.671 -1.424,-0.822 -2.095,-0.337Z"/></g></svg>