<?xml version="1.0" encoding="UTF-8" standalone="no"?><!DOCTYPE svg PUBLIC "-//W3C//DTD SVG 1.1//EN" "http://www.w3.org/Graphics/SVG/1.1/DTD/svg11.dtd"><svg width="100%" height="100%" viewBox="0 0 45 77" version="1.1" xmlns="http://www.w3.org/2000/svg" xmlns:xlink="http://www.w3.org/1999/xlink" xml:space="preserve" xmlns:serif="http://www.serif.com/" style="fill-rule:evenodd;clip-rule:evenodd;stroke-linejoin:round;stroke-miterlimit:2;"><g><path d="M16.1,27.05c0,-0.633 -0.183,-1.55 -0.55,-2.75c-0.4,-1.233 -0.6,-2.15 -0.6,-2.75c-0.767,0.567 -1.15,1.083 -1.15,1.55c-0,0.567 0.183,1.4 0.55,2.5c0.4,1.067 0.6,1.883 0.6,2.45c0,0.367 -0.05,0.667 -0.15,0.9c0.867,-0.467 1.3,-1.1 1.3,-1.9Z"/><path d="M12.6,32.85c-0.6,-0 -1.067,0.317 -1.4,0.95c-0.3,0.5 -0.45,1.1 -0.45,1.8c0,1.233 0.333,2.383 1,3.45c0.767,1.2 1.667,1.8 2.7,1.8c0.5,-0 0.85,-0.1 1.05,-0.3c0.433,-0.367 0.683,-0.567 0.75,-0.6c0.8,0.567 2.267,2.333 4.4,5.3c1.633,2.3 2.967,4.267 4,5.9c-0.4,0.8 -1.033,1.783 -1.9,2.95c-0.967,1.267 -1.733,2.1 -2.3,2.5l-1.75,-0.65l0,4.75c1.167,0.4 2.733,0.6 4.7,0.6c1.8,0 2.967,-0.267 3.5,-0.8c0.6,-0.6 0.9,-1.9 0.9,-3.9c-0,-2.533 -0.467,-4.533 -1.4,-6c0.4,-1.233 0.75,-3.1 1.05,-5.6c0.3,-2.467 0.617,-4.217 0.95,-5.25l0.35,0.4c0.533,-0.333 0.967,-1 1.3,-2c0.1,-0.233 0.317,-1.033 0.65,-2.4c-1.433,-0.767 -2.15,-1.767 -2.15,-3c-0,-0.5 0.067,-1.133 0.2,-1.9c-1.333,1.233 -2.267,2.967 -2.8,5.2c0.067,0.3 0.283,0.767 0.65,1.4c0.367,0.533 0.55,0.917 0.55,1.15c-0,0.867 -0.2,2.583 -0.6,5.15c-0.367,2.767 -0.667,4.383 -0.9,4.85c-3.633,-5.6 -5.617,-8.65 -5.95,-9.15c-3.133,-4.4 -5.5,-6.6 -7.1,-6.6Zm11.862,21.837c-0.176,0.26 -0.371,0.521 -0.586,0.785l-0.011,0.013c-0.009,0.01 -0.017,0.02 -0.025,0.03l-0.025,0.03c-0.113,0.137 -0.232,0.275 -0.357,0.414c-0.019,0.022 -0.039,0.043 -0.059,0.065l-0.027,0.031c-0.05,0.054 -0.101,0.11 -0.153,0.165c-0.062,0.065 -0.125,0.131 -0.189,0.198c-0.047,0.047 -0.094,0.095 -0.141,0.143c-0.013,0.013 -0.026,0.026 -0.039,0.039l3.35,-0.2l0.004,-0.019c0.035,-0.187 0.066,-0.346 0.092,-0.477c0.021,-0.104 0.039,-0.19 0.054,-0.258c0.005,-0.023 0.01,-0.044 0.014,-0.063l0.005,-0.021c0.015,-0.065 0.025,-0.103 0.031,-0.112c-0.027,-0.07 -0.177,-0.453 -0.45,-1.15l-0.55,-1.45l-0.938,1.837Z" style="fill:#f00;"/><path d="M28.279,19.179l-5.05,3.6c-0.674,0.48 -0.831,1.418 -0.35,2.092c0.48,0.674 1.418,0.831 2.092,0.35l5.05,-3.6c0.674,-0.48 0.831,-1.418 0.35,-2.092c-0.48,-0.674 -1.418,-0.831 -2.092,-0.35Z"/></g></svg>