<?xml version="1.0" encoding="UTF-8" standalone="no"?><!DOCTYPE svg PUBLIC "-//W3C//DTD SVG 1.1//EN" "http://www.w3.org/Graphics/SVG/1.1/DTD/svg11.dtd"><svg width="100%" height="100%" viewBox="0 0 52 77" version="1.1" xmlns="http://www.w3.org/2000/svg" xmlns:xlink="http://www.w3.org/1999/xlink" xml:space="preserve" xmlns:serif="http://www.serif.com/" style="fill-rule:evenodd;clip-rule:evenodd;stroke-linejoin:round;stroke-miterlimit:2;"><g><path d="M19.85,40.1c0.433,-0.367 0.683,-0.567 0.75,-0.6c0.8,0.567 2.267,2.333 4.4,5.3c1.633,2.3 2.967,4.267 4,5.9c-0.4,0.8 -1.033,1.783 -1.9,2.95c-0.967,1.267 -1.733,2.1 -2.3,2.5l-1.75,-0.65l-0,4.75c1.167,0.4 2.733,0.6 4.7,0.6c1.8,-0 2.967,-0.267 3.5,-0.8c0.6,-0.6 0.9,-1.9 0.9,-3.9c0,-2.533 -0.467,-4.533 -1.4,-6c0.4,-1.233 0.75,-3.1 1.05,-5.6c0.3,-2.467 0.617,-4.217 0.95,-5.25l0.35,0.4c0.533,-0.333 0.967,-1 1.3,-2c0.1,-0.233 0.317,-1.033 0.65,-2.4c-1.433,-0.767 -2.15,-1.767 -2.15,-3c0,-0.5 0.067,-1.133 0.2,-1.9c-1.333,1.233 -2.267,2.967 -2.8,5.2c0.067,0.3 0.283,0.767 0.65,1.4c0.367,0.533 0.55,0.917 0.55,1.15c0,0.867 -0.2,2.583 -0.6,5.15c-0.367,2.767 -0.667,4.383 -0.9,4.85c-3.633,-5.6 -5.617,-8.65 -5.95,-9.15c-3.133,-4.4 -5.5,-6.6 -7.1,-6.6c-0.6,0 -1.067,0.317 -1.4,0.95c-0.3,0.5 -0.45,1.1 -0.45,1.8c-0,1.233 0.333,2.383 1,3.45c0.767,1.2 1.667,1.8 2.7,1.8c0.5,0 0.85,-0.1 1.05,-0.3Zm7.693,15.697c-0.111,0.118 -0.225,0.235 -0.343,0.353l3.35,-0.2c0.072,-0.379 0.125,-0.646 0.16,-0.798c0.014,-0.066 0.026,-0.111 0.033,-0.135c0.003,-0.008 0.005,-0.014 0.007,-0.017c-0.027,-0.07 -0.177,-0.453 -0.45,-1.15l-0.55,-1.45l-0.009,0.028c-0.021,0.061 -0.043,0.122 -0.066,0.182c-0.012,0.033 -0.025,0.066 -0.038,0.099c-0.019,0.05 -0.04,0.101 -0.061,0.151c-0.06,0.14 -0.125,0.28 -0.196,0.421c-0.048,0.095 -0.099,0.191 -0.153,0.288c-0.052,0.093 -0.107,0.187 -0.164,0.281c-0.02,0.032 -0.04,0.064 -0.06,0.095l-0.018,0.03c-0.024,0.037 -0.048,0.074 -0.072,0.112c-0.083,0.127 -0.171,0.254 -0.263,0.382c-0.01,0.014 -0.02,0.028 -0.03,0.041c-0.135,0.187 -0.281,0.374 -0.436,0.563c-0.078,0.095 -0.159,0.19 -0.242,0.285c-0.044,0.05 -0.088,0.1 -0.134,0.151c-0.086,0.096 -0.174,0.192 -0.265,0.288Z" style="fill:#f00;"/><path d="M17.629,19.179l-5.05,3.6c-0.674,0.48 -0.831,1.418 -0.35,2.092c0.48,0.674 1.418,0.831 2.092,0.35l5.05,-3.6c0.674,-0.48 0.831,-1.418 0.35,-2.092c-0.48,-0.674 -1.418,-0.831 -2.092,-0.35Z"/><path d="M33.871,18.334l-5.05,3.65c-0.671,0.485 -0.822,1.424 -0.337,2.095c0.485,0.671 1.424,0.822 2.095,0.337l5.05,-3.65c0.671,-0.485 0.822,-1.424 0.337,-2.095c-0.485,-0.671 -1.424,-0.822 -2.095,-0.337Z"/></g></svg>