<?xml version="1.0" encoding="UTF-8" standalone="no"?><!DOCTYPE svg PUBLIC "-//W3C//DTD SVG 1.1//EN" "http://www.w3.org/Graphics/SVG/1.1/DTD/svg11.dtd"><svg width="100%" height="100%" viewBox="0 0 53 77" version="1.1" xmlns="http://www.w3.org/2000/svg" xmlns:xlink="http://www.w3.org/1999/xlink" xml:space="preserve" xmlns:serif="http://www.serif.com/" style="fill-rule:evenodd;clip-rule:evenodd;stroke-linejoin:round;stroke-miterlimit:2;"><g><path d="M8.1,48.7c-1.033,0.767 -2.05,2.117 -3.05,4.05c-1,1.967 -1.5,3.617 -1.5,4.95c-0,2.633 1.05,4.6 3.15,5.9c1.667,1.033 3.783,1.55 6.35,1.55c5.767,-0 10.033,-1.95 12.8,-5.85c0.867,-1.2 1.3,-2.133 1.3,-2.8c0,-1.067 -0.967,-1.817 -2.9,-2.25c-1.333,-0.233 -2.667,-0.467 -4,-0.7c0.483,-0.785 2.9,-1.218 7.25,-1.3l-0.45,-0l-0,-5.05l-1.3,-0c-1.967,-0 -3.717,0.65 -5.25,1.95c-1.633,1.4 -2.45,3.167 -2.45,5.3c-0,0.967 0.433,1.667 1.3,2.1c0.533,0.267 1.467,0.517 2.8,0.75c1.233,0.2 2.033,0.417 2.4,0.65c-0.4,0.867 -1.983,1.65 -4.75,2.35c-2.3,0.567 -4.15,0.85 -5.55,0.85c-2.367,-0 -4.167,-0.267 -5.4,-0.8c-1.967,-0.833 -2.95,-2.333 -2.95,-4.5c0,-0.933 0.317,-2.133 0.95,-3.6c0.733,-1.767 1.15,-2.95 1.25,-3.55Z"/><path d="M42.3,63.2l2.65,-2.9l-2.65,-3l-2.65,3l2.65,2.9Z"/><path d="M41.316,47.159c1.885,-0.177 3.08,-0.613 3.584,-1.309c-0.167,-0.633 -0.567,-1.667 -1.2,-3.1c0.433,-0.867 0.983,-2.2 1.65,-4c0.633,2.9 0.95,4.767 0.95,5.6c-0,2.933 -0.633,5.017 -1.9,6.25c-1.092,1.029 -2.825,1.579 -5.2,1.65l-1.65,0l-0,-5l1.65,0l2.116,-0.091Z"/><path d="M37.55,52.25l-0.75,0c-0.9,0 -1.65,-0.533 -2.25,-1.6c-0.433,-0.933 -0.883,-1.883 -1.35,-2.85c-0.033,0.067 -0.55,0.983 -1.55,2.75c-0.667,1.133 -1.4,1.7 -2.2,1.7l-2.4,0l-0,-5.05l0.45,-0c1.426,-0.029 2.409,-0.179 2.95,-0.45c0.933,-0.5 1.4,-1.567 1.4,-3.2c-0,-2 -0.183,-4.983 -0.55,-8.95c-0.333,-4 -0.5,-6.983 -0.5,-8.95c-0,-1.6 0.8,-3.1 2.4,-4.5c0.067,1.6 0.267,4.867 0.6,9.8c0.267,4.067 0.4,7.333 0.4,9.8c0,2.1 0.35,3.667 1.05,4.7c0.8,1.167 2.117,1.75 3.95,1.75l0,0.05l-1.65,0l-0,5Z" style="fill:#f00;"/><path d="M43.129,12.279l-5.05,3.6c-0.674,0.48 -0.831,1.418 -0.35,2.092c0.48,0.674 1.418,0.831 2.092,0.35l5.05,-3.6c0.674,-0.48 0.831,-1.418 0.35,-2.092c-0.48,-0.674 -1.418,-0.831 -2.092,-0.35Z"/><path d="M21.621,11.034l-5.05,3.65c-0.671,0.485 -0.822,1.424 -0.337,2.095c0.485,0.671 1.424,0.822 2.095,0.337l5.05,-3.65c0.671,-0.485 0.822,-1.424 0.337,-2.095c-0.485,-0.671 -1.424,-0.822 -2.095,-0.337Z"/></g></svg>