<?xml version="1.0" encoding="UTF-8" standalone="no"?><!DOCTYPE svg PUBLIC "-//W3C//DTD SVG 1.1//EN" "http://www.w3.org/Graphics/SVG/1.1/DTD/svg11.dtd"><svg width="100%" height="100%" viewBox="0 0 58 81" version="1.1" xmlns="http://www.w3.org/2000/svg" xmlns:xlink="http://www.w3.org/1999/xlink" xml:space="preserve" xmlns:serif="http://www.serif.com/" style="fill-rule:evenodd;clip-rule:evenodd;stroke-linejoin:round;stroke-miterlimit:2;"><g><path d="M32.35,67.35l2.65,2.9l2.65,-2.9l-2.65,-3l-2.65,3Z"/><path d="M38.6,66.65c2.167,1.6 4.317,2.4 6.45,2.4c2.433,-0 4.517,-1.65 6.25,-4.95c1.467,-2.867 2.2,-5.767 2.2,-8.7c-0,-1.467 -0.25,-2.717 -0.75,-3.75c-0.4,-0.8 -1.15,-1.817 -2.25,-3.05l-0.95,4.25c0.533,0.7 1.083,1.4 1.65,2.1c0.733,1.033 1.1,1.8 1.1,2.3c-0,2.7 -1.75,5.017 -5.25,6.95c-2.933,1.633 -5.75,2.45 -8.45,2.45Z"/><path d="M34.257,54.187c1.747,-0.192 2.861,-0.621 3.343,-1.287c-0.167,-0.633 -0.567,-1.667 -1.2,-3.1c0.433,-0.867 0.983,-2.2 1.65,-4c0.633,2.9 0.95,4.767 0.95,5.6c0,2.933 -0.633,5.017 -1.9,6.25c-0.772,0.728 -1.865,1.21 -3.279,1.446l-1.521,0.154l-0.7,0.05l-1.35,-0l0,-5l2.05,-0l1.957,-0.113Z"/><path d="M32.2,34.2c-0.333,-0 -0.5,-0.517 -0.5,-1.55l-0.3,0.05c-0.2,0.733 -0.3,1.2 -0.3,1.4c0,0.433 0.083,0.8 0.25,1.1c0.167,0.333 0.433,0.5 0.8,0.5c0.3,-0 0.6,-0.117 0.9,-0.35c0.267,-0.267 0.417,-0.567 0.45,-0.9c0.267,0.2 0.55,0.3 0.85,0.3c0.9,0 1.35,-0.8 1.35,-2.4c0,-0.433 -0.067,-0.9 -0.2,-1.4l-0.3,0.1c0,1.433 -0.283,2.15 -0.85,2.15c-0.3,-0 -0.55,-0.467 -0.75,-1.4l-0.25,0.1c-0.1,0.7 -0.2,1.167 -0.3,1.4c-0.2,0.6 -0.483,0.9 -0.85,0.9Z"/><path d="M30.25,59.3l-1.15,-0c-0.833,-0 -1.667,-0.617 -2.5,-1.85c-0.367,-0.5 -0.917,-1.517 -1.65,-3.05c-1.133,1.733 -3.067,3.2 -5.8,4.4c-2.467,1.067 -4.783,1.6 -6.95,1.6c-2.233,-0 -4.033,-0.45 -5.4,-1.35c-1.7,-1.133 -2.55,-2.867 -2.55,-5.2c-0,-1.233 0.267,-2.65 0.8,-4.25c0.633,-1.833 1.367,-2.967 2.2,-3.4c-0.567,1.8 -0.85,3.4 -0.85,4.8c-0,3.333 3,5 9,5c1.467,0 3.283,-0.583 5.45,-1.75c2.467,-1.3 3.7,-2.683 3.7,-4.15c-0,-2.2 -0.133,-5.017 -0.4,-8.45c-0.2,-2.8 -0.417,-5.617 -0.65,-8.45c-0,-0.433 0.35,-1.2 1.05,-2.3c0.6,-0.9 1.133,-1.567 1.6,-2c-0,14.333 0.5,22.333 1.5,24c0.4,0.733 1.1,1.183 2.1,1.35c0.3,0.033 1.15,0.033 2.55,-0l-0,0.05l-2.05,-0l-0,5Z" style="fill:#f00;"/><path d="M32.3,59.3l-0.7,-0l0.7,-0.05l-0,0.05Z" style="fill:#f00;"/><path d="M15.55,43.4c0.433,-0.5 0.833,-0.75 1.2,-0.75c0.267,-0 0.533,0.117 0.8,0.35c0.8,-0.467 1.2,-1.167 1.2,-2.1c0,-0.333 -0.133,-0.667 -0.4,-1c-0.233,-0.3 -0.5,-0.45 -0.8,-0.45c-0.567,0 -1.417,0.983 -2.55,2.95c-1.067,1.9 -1.6,3.2 -1.6,3.9c-0,0.7 0.483,1.05 1.45,1.05c1.267,0 2.1,0.233 2.5,0.7c-0.933,1.067 -1.933,1.6 -3,1.6c-0.5,-0 -1.083,-0.083 -1.75,-0.25c0.4,0.633 0.733,1.05 1,1.25c0.333,0.2 0.833,0.3 1.5,0.3c1.033,0 1.85,-0.283 2.45,-0.85c0.7,-0.6 1.05,-1.467 1.05,-2.6c0,-1.1 -0.617,-1.783 -1.85,-2.05c-1.233,-0.267 -1.85,-0.5 -1.85,-0.7c-0,-0.4 0.217,-0.85 0.65,-1.35Z" style="fill:#f00;"/><path d="M34.871,20.034l-5.05,3.65c-0.671,0.485 -0.822,1.424 -0.337,2.095c0.485,0.671 1.424,0.822 2.095,0.337l5.05,-3.65c0.671,-0.485 0.822,-1.424 0.337,-2.095c-0.485,-0.671 -1.424,-0.822 -2.095,-0.337Z"/><path d="M47.821,20.034l-5.05,3.65c-0.671,0.485 -0.822,1.424 -0.337,2.095c0.485,0.671 1.424,0.822 2.095,0.337l5.05,-3.65c0.671,-0.485 0.822,-1.424 0.337,-2.095c-0.485,-0.671 -1.424,-0.822 -2.095,-0.337Z"/><path d="M17.071,18.434l-5.05,3.65c-0.671,0.485 -0.822,1.424 -0.337,2.095c0.485,0.671 1.424,0.822 2.095,0.337l5.05,-3.65c0.671,-0.485 0.822,-1.424 0.337,-2.095c-0.485,-0.671 -1.424,-0.822 -2.095,-0.337Z"/></g></svg>