<?xml version="1.0" encoding="UTF-8" standalone="no"?><!DOCTYPE svg PUBLIC "-//W3C//DTD SVG 1.1//EN" "http://www.w3.org/Graphics/SVG/1.1/DTD/svg11.dtd"><svg width="100%" height="100%" viewBox="0 0 47 74" version="1.1" xmlns="http://www.w3.org/2000/svg" xmlns:xlink="http://www.w3.org/1999/xlink" xml:space="preserve" xmlns:serif="http://www.serif.com/" style="fill-rule:evenodd;clip-rule:evenodd;stroke-linejoin:round;stroke-miterlimit:2;"><g><path d="M10.35,35.25c0.433,-0.367 0.683,-0.567 0.75,-0.6c0.8,0.567 2.267,2.333 4.4,5.3c1.633,2.3 2.967,4.267 4,5.9c-0.4,0.8 -1.033,1.783 -1.9,2.95c-0.967,1.267 -1.733,2.1 -2.3,2.5l-1.75,-0.65l-0,4.75c1.167,0.4 2.733,0.6 4.7,0.6c1.8,0 2.967,-0.267 3.5,-0.8c0.6,-0.6 0.9,-1.9 0.9,-3.9c0,-2.533 -0.467,-4.533 -1.4,-6c0.4,-1.233 0.75,-3.1 1.05,-5.6c0.3,-2.467 0.617,-4.217 0.95,-5.25l0.35,0.4c0.533,-0.333 0.967,-1 1.3,-2c0.1,-0.233 0.317,-1.033 0.65,-2.4c-1.433,-0.767 -2.15,-1.767 -2.15,-3c0,-0.5 0.067,-1.133 0.2,-1.9c-1.333,1.233 -2.267,2.967 -2.8,5.2c0.067,0.3 0.283,0.767 0.65,1.4c0.367,0.533 0.55,0.917 0.55,1.15c0,0.867 -0.2,2.583 -0.6,5.15c-0.367,2.767 -0.667,4.383 -0.9,4.85c-3.633,-5.6 -5.617,-8.65 -5.95,-9.15c-3.133,-4.4 -5.5,-6.6 -7.1,-6.6c-0.6,0 -1.067,0.317 -1.4,0.95c-0.3,0.5 -0.45,1.1 -0.45,1.8c-0,1.233 0.333,2.383 1,3.45c0.767,1.2 1.667,1.8 2.7,1.8c0.5,0 0.85,-0.1 1.05,-0.3Zm10.45,13.75c0.273,0.697 0.423,1.08 0.45,1.15c-0.018,0.03 -0.085,0.347 -0.2,0.95l-3.35,0.2c1.3,-1.3 2.15,-2.55 2.55,-3.75l0.55,1.45Z"/><path d="M36.771,17.134l-5.05,3.65c-0.671,0.485 -0.822,1.424 -0.337,2.095c0.485,0.671 1.424,0.822 2.095,0.337l5.05,-3.65c0.671,-0.485 0.822,-1.424 0.337,-2.095c-0.485,-0.671 -1.424,-0.822 -2.095,-0.337Z"/><path d="M17.979,15.129l-5.05,3.6c-0.674,0.48 -0.831,1.418 -0.35,2.092c0.48,0.674 1.418,0.831 2.092,0.35l5.05,-3.6c0.674,-0.48 0.831,-1.418 0.35,-2.092c-0.48,-0.674 -1.418,-0.831 -2.092,-0.35Z"/><path d="M39.7,46.05c-0.6,-1.8 -1.433,-2.7 -2.5,-2.7c-0.9,0 -1.733,0.883 -2.5,2.65c-0.733,1.567 -1.1,2.933 -1.1,4.1c-0,2 0.717,3 2.15,3c1.067,0 2.083,-0.667 3.05,-2c0.233,0.6 0.35,1.167 0.35,1.7c0,2.933 -1.85,5.25 -5.55,6.95c-2.9,1.333 -5.867,2 -8.9,2c1.467,0.667 2.483,1.1 3.05,1.3c1,0.3 2.067,0.45 3.2,0.45c3.067,-0 5.45,-1.4 7.15,-4.2c1.5,-2.467 2.25,-5.5 2.25,-9.1c-0,-1.433 -0.217,-2.817 -0.65,-4.15Zm-3.5,0.85c-0.333,0.733 -0.667,1.55 -1,2.45c0.116,0.065 0.223,0.126 0.322,0.181l0.011,0.006c0.043,0.024 0.084,0.048 0.124,0.07l0.099,0.055c0.041,0.023 0.079,0.044 0.115,0.064l0.033,0.018c0.015,0.008 0.029,0.016 0.043,0.024l0.059,0.032c0.011,0.006 0.023,0.012 0.033,0.018l0.064,0.034l0.042,0.023l0.059,0.032c0.03,0.016 0.057,0.03 0.081,0.042l0.035,0.017l0.018,0.009c0.012,0.006 0.022,0.01 0.031,0.014l0.001,0.001c0.009,0.004 0.017,0.007 0.022,0.008l0.007,0.002c0,-0 0.001,-0 0.001,-0l0.45,-0.087l0.034,-0.014l0.027,-0.012l0.02,-0.009l0.023,-0.01l0.032,-0.016l0.021,-0.011l0.034,-0.018l0.024,-0.014l0.022,-0.013l0.026,-0.016l0.013,-0.008l0.022,-0.014l0.023,-0.015l0.027,-0.018l0.028,-0.02l0.028,-0.02l0.023,-0.018l0.023,-0.017l0.001,-0c0.09,-0.055 0.168,-0.113 0.234,-0.175c0.037,-0.034 0.069,-0.069 0.098,-0.105l0.001,-0.001c0.013,-0.016 0.025,-0.032 0.036,-0.049c0.008,-0.012 0.016,-0.024 0.024,-0.037c0.071,-0.117 0.106,-0.245 0.106,-0.383l-0.1,-0.575l-0.1,-0.175l-0.025,-0.094l-0.075,-0.081l-0.1,-0.175l-0.5,-0.475l-0.7,-0.425Z"/></g></svg>