<?xml version="1.0" encoding="UTF-8" standalone="no"?><!DOCTYPE svg PUBLIC "-//W3C//DTD SVG 1.1//EN" "http://www.w3.org/Graphics/SVG/1.1/DTD/svg11.dtd"><svg width="100%" height="100%" viewBox="0 0 74 71" version="1.1" xmlns="http://www.w3.org/2000/svg" xmlns:xlink="http://www.w3.org/1999/xlink" xml:space="preserve" xmlns:serif="http://www.serif.com/" style="fill-rule:evenodd;clip-rule:evenodd;stroke-linejoin:round;stroke-miterlimit:2;"><g><rect x="53.9" y="45.65" width="5.1" height="5.05"/><rect x="25.95" y="45.65" width="5.1" height="5.05"/><path d="M33,45.65l0,0.05l-1,-0l-0.9,-0.05l1.9,-0Z"/><path d="M60.95,45.7l-1.95,-0.05l1.95,-0l0,0.05Z"/><path d="M20.6,14.3c0,-0.433 -0.067,-0.9 -0.2,-1.4l-0.3,0.1c0,1.433 -0.283,2.15 -0.85,2.15c-0.3,0 -0.55,-0.467 -0.75,-1.4l-0.25,0.1c-0.1,0.7 -0.2,1.167 -0.3,1.4c-0.2,0.6 -0.483,0.9 -0.85,0.9c-0.333,0 -0.5,-0.517 -0.5,-1.55l-0.3,0.05c-0.2,0.733 -0.3,1.2 -0.3,1.4c0,0.433 0.083,0.8 0.25,1.1c0.167,0.333 0.433,0.5 0.8,0.5c0.3,0 0.6,-0.117 0.9,-0.35c0.267,-0.267 0.417,-0.567 0.45,-0.9c0.267,0.2 0.55,0.3 0.85,0.3c0.9,-0 1.35,-0.8 1.35,-2.4Z"/><path d="M40.4,15.95l0.15,-1.75c-0.333,-0.267 -0.583,-0.45 -0.75,-0.55c0.4,-0.867 0.6,-1.567 0.6,-2.1c-0,-1.033 -0.433,-1.55 -1.3,-1.55c-0.633,0 -1.2,0.367 -1.7,1.1c-0.433,0.667 -0.65,1.3 -0.65,1.9c0,0.5 0.417,1.017 1.25,1.55c-1.5,1.233 -2.9,2.167 -4.2,2.8c0.467,0.133 0.833,0.2 1.1,0.2c1.1,0 2.417,-0.85 3.95,-2.55c0.6,0.433 1.117,0.75 1.55,0.95Zm-1.2,-3.354c-0,-0.049 -0.003,-0.096 -0.007,-0.142c-0.004,-0.035 -0.009,-0.068 -0.015,-0.101l-0.004,-0.016c-0.008,-0.038 -0.017,-0.074 -0.029,-0.109l-0.009,-0.028c-0.008,-0.02 -0.016,-0.04 -0.025,-0.059c-0.001,-0.003 -0.002,-0.006 -0.004,-0.009c-0.008,-0.018 -0.017,-0.036 -0.026,-0.053l-0.015,-0.026c-0.005,-0.008 -0.01,-0.017 -0.015,-0.025l-0.016,-0.024c-0.016,-0.023 -0.033,-0.045 -0.051,-0.066l-0.015,-0.017l-0.004,-0.005c-0.009,-0.01 -0.018,-0.019 -0.027,-0.029l-0.788,-0.337l-0.012,0.002c-0.007,0.001 -0.014,0.003 -0.02,0.004c-0.058,0.012 -0.11,0.03 -0.155,0.055c-0.008,0.004 -0.016,0.008 -0.023,0.012c-0.01,0.006 -0.019,0.012 -0.027,0.018c-0.007,0.004 -0.013,0.009 -0.019,0.014l-0.006,0.005c-0.006,0.004 -0.011,0.008 -0.016,0.013c-0.012,0.01 -0.023,0.021 -0.034,0.033c-0.005,0.006 -0.011,0.013 -0.016,0.019c-0.003,0.004 -0.006,0.007 -0.008,0.011c-0.006,0.008 -0.012,0.016 -0.017,0.024l-0.009,0.013c-0.001,0.003 -0.003,0.006 -0.005,0.008c-0.012,0.022 -0.023,0.045 -0.033,0.069c0,0.006 0,0.013 0,0.019c0.001,0.01 0.001,0.021 0.002,0.031c0.001,0.015 0.003,0.031 0.005,0.046c0.003,0.019 0.007,0.037 0.011,0.056l0.003,0.01c0.004,0.015 0.008,0.029 0.013,0.043c0.011,0.034 0.025,0.069 0.042,0.103c0.002,0.004 0.003,0.007 0.005,0.01c0.01,0.019 0.02,0.038 0.031,0.057c0.008,0.012 0.015,0.024 0.023,0.036l0.01,0.015c0.042,0.063 0.095,0.125 0.156,0.188c0.009,0.009 0.017,0.017 0.026,0.026c0.042,0.04 0.087,0.081 0.136,0.122c0.01,0.008 0.021,0.016 0.031,0.024c0.013,0.011 0.026,0.021 0.04,0.032l0.019,0.014c0.014,0.01 0.028,0.021 0.043,0.031c0.03,0.022 0.061,0.044 0.094,0.066l0.007,0.005c0.044,0.03 0.091,0.059 0.139,0.089c0.093,0.057 0.194,0.114 0.303,0.171c0.046,0.024 0.095,0.049 0.144,0.073c0.022,0.011 0.044,0.022 0.067,0.033l0.1,-0.55l-0,-0.004Z"/><path d="M25.95,50.7l-1.35,-0c-0.533,-0 -1.067,-0.233 -1.6,-0.7c-0.467,-0.433 -0.917,-0.867 -1.35,-1.3c-0.867,4.567 -1.817,7.733 -2.85,9.5c-1.667,2.8 -4.25,4.2 -7.75,4.2c-2.367,-0 -4.017,-0.783 -4.95,-2.35c-0.767,-1.267 -1.15,-3.283 -1.15,-6.05c0,-1.167 0.233,-2.633 0.7,-4.4c0.567,-1.967 1.183,-3.233 1.85,-3.8c-0.367,1.833 -0.55,3.8 -0.55,5.9c0,1.667 0.633,2.917 1.9,3.75c1,0.667 2.317,1 3.95,1c1.067,-0 2.367,-0.283 3.9,-0.85c1.9,-0.733 2.817,-1.6 2.75,-2.6l-1.8,-28.3c-0,-0.3 0.333,-1.017 1,-2.15c0.633,-1.1 1.1,-1.783 1.4,-2.05c0.267,4.033 0.517,8.067 0.75,12.1c0.5,6.133 1.167,9.833 2,11.1c0.87,1.256 2.52,1.906 4.95,1.95l-1.8,-0l0,5.05Z" style="fill:#f00;"/><path d="M60.95,45.7l0.45,-0c2.367,0.067 3.55,-0.6 3.55,-2c0,-7.4 -0.267,-12.917 -0.8,-16.55c-0.8,-1.033 -1.267,-1.9 -1.4,-2.6c0.8,-2.433 1.883,-4.15 3.25,-5.15l0,0.55c0.033,0.233 -0.017,0.55 -0.15,0.95c-0.1,0.4 -0.15,0.683 -0.15,0.85c0,0.567 0.35,1.233 1.05,2c0.667,0.767 1,1.267 1,1.5c0,0.633 -0.2,1.433 -0.6,2.4c-0.433,0.967 -0.65,1.65 -0.65,2.05c0,0.867 0.083,2.15 0.25,3.85c0.133,1.7 0.2,2.967 0.2,3.8l0,4.7c0,2.233 -0.283,4.083 -0.85,5.55c-0.767,2.067 -2,3.1 -3.7,3.1l-3.4,-0l0,-5.05l1.95,0.05Z" style="fill:#f00;"/><path d="M53.9,50.7l-1.55,-0c-0.867,-0 -4.117,-3.25 -9.75,-9.75c-0.8,3.067 -1.567,5.217 -2.3,6.45c-1.233,2.2 -2.917,3.3 -5.05,3.3l-4.2,-0l-0,-5.05l0.05,-0l0.9,0.05l1.35,-0c4.7,-0 7.05,-1.117 7.05,-3.35c-0,-1 -0.667,-2.067 -2,-3.2c-1.233,-1.033 -2.467,-2.067 -3.7,-3.1c-1.367,-1.367 -2.05,-2.783 -2.05,-4.25c-0,-1.633 0.2,-2.883 0.6,-3.75c0.467,-1.033 3.05,-2.983 7.75,-5.85c4.233,-2.567 7.217,-4.167 8.95,-4.8c-0.167,0.867 -0.45,2.2 -0.85,4c-2.633,1.5 -5.283,2.983 -7.95,4.45c-3.267,1.833 -5.767,3.6 -7.5,5.3c1.067,0.7 4.55,3.317 10.45,7.85c5.6,4.3 8.433,6.467 8.5,6.5l2.2,0.15l-0.9,-0l-0,5.05Z" style="fill:#f00;"/><path d="M15.171,64.184l-5.05,3.65c-0.671,0.485 -0.822,1.424 -0.337,2.095c0.485,0.671 1.424,0.822 2.095,0.337l5.05,-3.65c0.671,-0.485 0.822,-1.424 0.337,-2.095c-0.485,-0.671 -1.424,-0.822 -2.095,-0.337Z"/><path d="M66.371,54.134l-5.05,3.65c-0.671,0.485 -0.822,1.424 -0.337,2.095c0.485,0.671 1.424,0.822 2.095,0.337l5.05,-3.65c0.671,-0.485 0.822,-1.424 0.337,-2.095c-0.485,-0.671 -1.424,-0.822 -2.095,-0.337Z"/></g></svg>