<?xml version="1.0" encoding="UTF-8" standalone="no"?><!DOCTYPE svg PUBLIC "-//W3C//DTD SVG 1.1//EN" "http://www.w3.org/Graphics/SVG/1.1/DTD/svg11.dtd"><svg width="100%" height="100%" viewBox="0 0 37 38" version="1.1" xmlns="http://www.w3.org/2000/svg" xmlns:xlink="http://www.w3.org/1999/xlink" xml:space="preserve" xmlns:serif="http://www.serif.com/" style="fill-rule:evenodd;clip-rule:evenodd;stroke-linejoin:round;stroke-miterlimit:2;"><g><rect x="14.2" y="25.85" width="3.85" height="3.4"/><path d="M19.45,25.9l-1.4,-0.05l1.4,-0l-0,0.05Z"/><path d="M19.45,25.9l0.4,0c1.767,0.033 2.65,-0.417 2.65,-1.35c0,-4.933 -0.2,-8.633 -0.6,-11.1c-0.6,-0.7 -0.95,-1.267 -1.05,-1.7c0.6,-1.633 1.4,-2.8 2.4,-3.5l0.05,0.4c0,0.133 -0.033,0.333 -0.1,0.6c-0.1,0.267 -0.15,0.467 -0.15,0.6c0,0.367 0.267,0.817 0.8,1.35c0.5,0.5 0.75,0.833 0.75,1c0,0.4 -0.15,0.933 -0.45,1.6c-0.333,0.633 -0.5,1.1 -0.5,1.4c-0,0.567 0.067,1.417 0.2,2.55c0.1,1.133 0.15,1.983 0.15,2.55l0,3.15c0,1.5 -0.217,2.733 -0.65,3.7c-0.567,1.4 -1.483,2.1 -2.75,2.1l-2.55,0l0,-3.4l1.4,0.05Z" style="fill:#f00;"/></g></svg>