<?xml version="1.0" encoding="UTF-8" standalone="no"?><!DOCTYPE svg PUBLIC "-//W3C//DTD SVG 1.1//EN" "http://www.w3.org/Graphics/SVG/1.1/DTD/svg11.dtd"><svg width="100%" height="100%" viewBox="0 0 39 38" version="1.1" xmlns="http://www.w3.org/2000/svg" xmlns:xlink="http://www.w3.org/1999/xlink" xml:space="preserve" xmlns:serif="http://www.serif.com/" style="fill-rule:evenodd;clip-rule:evenodd;stroke-linejoin:round;stroke-miterlimit:2;"><g><rect x="22.2" y="25.85" width="5.25" height="3.4"/><rect x="10.4" y="25.85" width="3.85" height="3.4"/><path d="M22.2,29.25l-0.65,0c-0.667,0 -1.233,-0.35 -1.7,-1.05c-0.333,-0.633 -0.667,-1.267 -1,-1.9c-0.033,0 -0.433,0.6 -1.2,1.8c-0.5,0.767 -1.033,1.15 -1.6,1.15l-1.8,0l0,-3.4l0.35,-0c1.046,-0.02 1.779,-0.12 2.2,-0.3c0.667,-0.333 1,-1.05 1,-2.15c0,-1.333 -0.117,-3.333 -0.35,-6c-0.267,-2.667 -0.4,-4.65 -0.4,-5.95c0,-1.1 0.6,-2.117 1.8,-3.05c0.033,1.067 0.183,3.25 0.45,6.55c0.2,2.733 0.3,4.933 0.3,6.6c0,1.4 0.267,2.45 0.8,3.15c0.547,0.74 1.48,1.123 2.8,1.15l-1,-0l-0,3.4Z" style="fill:#f00;"/></g></svg>