<?xml version="1.0" encoding="UTF-8" standalone="no"?><!DOCTYPE svg PUBLIC "-//W3C//DTD SVG 1.1//EN" "http://www.w3.org/Graphics/SVG/1.1/DTD/svg11.dtd"><svg width="100%" height="100%" viewBox="0 0 30 36" version="1.1" xmlns="http://www.w3.org/2000/svg" xmlns:xlink="http://www.w3.org/1999/xlink" xml:space="preserve" xmlns:serif="http://www.serif.com/" style="fill-rule:evenodd;clip-rule:evenodd;stroke-linejoin:round;stroke-miterlimit:2;"><g><path d="M18.4,9.35c-0,1.333 0.017,3.35 0.05,6.05c0.067,2.733 0.1,4.767 0.1,6.1c-0,1 -1.133,1.85 -3.4,2.55c-1.8,0.567 -3.367,0.85 -4.7,0.85c-3.633,-0 -5.45,-1.083 -5.45,-3.25c-0,-1.167 0.2,-2.25 0.6,-3.25c-0.567,0.267 -1.1,1.017 -1.6,2.25c-0.433,1.1 -0.65,2.05 -0.65,2.85c0,2.933 1.917,4.4 5.75,4.4c1.9,-0 4.117,-0.6 6.65,-1.8c2.933,-1.4 4.4,-2.933 4.4,-4.6c-0,-1.6 -0.017,-4.017 -0.05,-7.25c-0.067,-3.267 -0.1,-5.7 -0.1,-7.3c-0.233,0.2 -0.55,0.583 -0.95,1.15c-0.433,0.6 -0.65,1.017 -0.65,1.25Z" style="fill:#f00;"/><path d="M13.35,16.15c0.567,-0.3 0.85,-0.767 0.85,-1.4c0,-0.233 -0.083,-0.45 -0.25,-0.65c-0.2,-0.2 -0.4,-0.3 -0.6,-0.3c-0.433,0 -1.083,0.65 -1.95,1.95c-0.8,1.3 -1.2,2.183 -1.2,2.65c0,0.467 0.367,0.7 1.1,0.7c0.933,0 1.567,0.15 1.9,0.45c-0.7,0.733 -1.45,1.1 -2.25,1.1c-0.367,-0 -0.817,-0.067 -1.35,-0.2c0.333,0.433 0.6,0.717 0.8,0.85c0.233,0.133 0.6,0.2 1.1,0.2c0.767,0 1.383,-0.183 1.85,-0.55c0.5,-0.4 0.75,-0.983 0.75,-1.75c0,-0.733 -0.467,-1.2 -1.4,-1.4c-0.9,-0.167 -1.35,-0.317 -1.35,-0.45c0,-0.267 0.15,-0.567 0.45,-0.9c0.333,-0.333 0.633,-0.5 0.9,-0.5c0.233,-0 0.45,0.067 0.65,0.2Z" style="fill:#f00;"/></g></svg>