<?xml version="1.0" encoding="UTF-8" standalone="no"?><!DOCTYPE svg PUBLIC "-//W3C//DTD SVG 1.1//EN" "http://www.w3.org/Graphics/SVG/1.1/DTD/svg11.dtd"><svg width="100%" height="100%" viewBox="0 0 42 36" version="1.1" xmlns="http://www.w3.org/2000/svg" xmlns:xlink="http://www.w3.org/1999/xlink" xml:space="preserve" xmlns:serif="http://www.serif.com/" style="fill-rule:evenodd;clip-rule:evenodd;stroke-linejoin:round;stroke-miterlimit:2;"><g><rect x="10.3" y="23.75" width="3.85" height="3.4"/><path d="M15.55,23.75l-1.4,0l0.75,0.05c0.227,0.015 0.444,0.015 0.65,0l-0,-0.05Z"/><path d="M14.9,23.8c0.227,0.015 0.444,0.015 0.65,0c0.248,0.033 0.482,0.05 0.7,0.05c3.533,0 5.3,-0.633 5.3,-1.9c-0,-0.867 -0.517,-1.65 -1.55,-2.35c-0.933,-0.567 -1.883,-1.117 -2.85,-1.65c-1.033,-0.733 -1.55,-1.617 -1.55,-2.65c0,-1.7 1.65,-3.617 4.95,-5.75c2.867,-1.833 5.333,-2.967 7.4,-3.4l-0.55,2.85c-3.133,1.467 -4.95,2.317 -5.45,2.55c-2.533,1.267 -4.15,2.25 -4.85,2.95c0.9,0.6 1.8,1.183 2.7,1.75c1.033,0.733 1.8,1.45 2.3,2.15c0.633,0.867 0.95,1.867 0.95,3c-0,1.567 -0.467,2.9 -1.4,4c-1,1.167 -2.267,1.75 -3.8,1.75l-3.7,-0l-0,-3.4l0.75,0.05Z" style="fill:#f00;"/></g></svg>