<?xml version="1.0" encoding="UTF-8" standalone="no"?><!DOCTYPE svg PUBLIC "-//W3C//DTD SVG 1.1//EN" "http://www.w3.org/Graphics/SVG/1.1/DTD/svg11.dtd"><svg width="100%" height="100%" viewBox="0 0 40 36" version="1.1" xmlns="http://www.w3.org/2000/svg" xmlns:xlink="http://www.w3.org/1999/xlink" xml:space="preserve" xmlns:serif="http://www.serif.com/" style="fill-rule:evenodd;clip-rule:evenodd;stroke-linejoin:round;stroke-miterlimit:2;"><g><rect x="26.95" y="23.7" width="5.25" height="3.4"/><rect x="6" y="23.7" width="3.85" height="3.4"/><path d="M9.85,23.7l1.4,-0l0,0.05l-0.7,0l-0.7,-0.05Z"/><path d="M26.95,27.1l-1.15,0c-0.667,0 -3.1,-2.183 -7.3,-6.55c-0.6,2.067 -1.167,3.517 -1.7,4.35c-0.933,1.467 -2.217,2.2 -3.85,2.2l-3.1,0l0,-3.4l0.7,0.05l1.05,-0c3.5,-0 5.25,-0.75 5.25,-2.25c0,-0.667 -0.5,-1.383 -1.5,-2.15c-0.933,-0.7 -1.867,-1.4 -2.8,-2.1c-1,-0.9 -1.5,-1.833 -1.5,-2.8c0,-1.133 0.15,-1.983 0.45,-2.55c0.333,-0.7 2.267,-2 5.8,-3.9c3.167,-1.733 5.4,-2.817 6.7,-3.25c-0.133,0.6 -0.35,1.5 -0.65,2.7c-1.967,1 -3.95,2 -5.95,3c-2.433,1.233 -4.3,2.417 -5.6,3.55c0.8,0.467 3.4,2.217 7.8,5.25c4.2,2.9 6.317,4.35 6.35,4.35l1.3,0.1l-0.3,-0l-0,3.4Z" style="fill:#f00;"/></g></svg>