<?xml version="1.0" encoding="UTF-8" standalone="no"?><!DOCTYPE svg PUBLIC "-//W3C//DTD SVG 1.1//EN" "http://www.w3.org/Graphics/SVG/1.1/DTD/svg11.dtd"><svg width="100%" height="100%" viewBox="0 0 58 72" version="1.1" xmlns="http://www.w3.org/2000/svg" xmlns:xlink="http://www.w3.org/1999/xlink" xml:space="preserve" xmlns:serif="http://www.serif.com/" style="fill-rule:evenodd;clip-rule:evenodd;stroke-linejoin:round;stroke-miterlimit:2;"><g><path d="M31.6,37.3c1.667,0 3.417,0.65 5.25,1.95c1.933,1.4 2.9,2.85 2.9,4.35c0,0.6 -1.067,1.1 -3.2,1.5c-1.633,0.3 -3.033,0.45 -4.2,0.45c-1.567,0 -3.15,-0.4 -4.75,-1.2c-0.2,1.967 -0.3,3.05 -0.3,3.25c-0,1.567 0.55,2.55 1.65,2.95c0.6,0.233 1.917,0.35 3.95,0.35c2.6,-0 4.6,-0.717 6,-2.15c1.3,-1.333 1.95,-3.217 1.95,-5.65c0,-2.867 -0.75,-5.433 -2.25,-7.7c-1.633,-2.4 -3.883,-4.033 -6.75,-4.9c-0.233,0.833 -0.333,1.8 -0.3,2.9l0.05,3.9Z"/><path d="M19,15.9c-2.167,2.567 -3.233,4.1 -3.2,4.6l0.8,29.25c1.767,-1.333 2.65,-4.883 2.65,-10.65l-0.25,-23.2Z"/><path d="M31.242,9.205l-6.75,3.95c-0.714,0.419 -0.955,1.338 -0.537,2.053c0.419,0.714 1.338,0.955 2.053,0.537l6.75,-3.95c0.714,-0.419 0.955,-1.338 0.537,-2.053c-0.419,-0.714 -1.338,-0.955 -2.053,-0.537Z"/></g></svg>