<?xml version="1.0" encoding="UTF-8" standalone="no"?><!DOCTYPE svg PUBLIC "-//W3C//DTD SVG 1.1//EN" "http://www.w3.org/Graphics/SVG/1.1/DTD/svg11.dtd"><svg width="100%" height="100%" viewBox="0 0 57 72" version="1.1" xmlns="http://www.w3.org/2000/svg" xmlns:xlink="http://www.w3.org/1999/xlink" xml:space="preserve" xmlns:serif="http://www.serif.com/" style="fill-rule:evenodd;clip-rule:evenodd;stroke-linejoin:round;stroke-miterlimit:2;"><g><path d="M20.75,15.9c-2.167,2.567 -3.233,4.1 -3.2,4.6l0.8,29.25c1.767,-1.333 2.65,-4.883 2.65,-10.65l-0.25,-23.2Z" style="fill:#f00;"/><path d="M13.65,11c1.367,0.533 2.167,0.833 2.4,0.9c0.7,0.2 1.583,0.3 2.65,0.3c1.2,-0 2.65,-0.417 4.35,-1.25c1.9,-0.967 2.85,-1.933 2.85,-2.9c-1.933,0.933 -2.983,1.417 -3.15,1.45c-1.2,0.5 -2.317,0.75 -3.35,0.75c-1.967,0 -3.8,-0.567 -5.5,-1.7c-1.4,1.933 -2.367,3.65 -2.9,5.15c0.467,-0.267 0.933,-0.7 1.4,-1.3c0.567,-0.7 0.983,-1.167 1.25,-1.4Z" style="fill:#f00;"/><path d="M38.6,39.25c1.933,1.4 2.9,2.85 2.9,4.35c0,0.6 -1.067,1.1 -3.2,1.5c-1.633,0.3 -3.033,0.45 -4.2,0.45c-1.567,0 -3.15,-0.4 -4.75,-1.2c-0.2,1.967 -0.3,3.05 -0.3,3.25c-0,1.567 0.55,2.55 1.65,2.95c0.6,0.233 1.917,0.35 3.95,0.35c2.6,-0 4.6,-0.717 6,-2.15c1.3,-1.333 1.95,-3.217 1.95,-5.65c0,-2.867 -0.75,-5.433 -2.25,-7.7c-1.633,-2.4 -3.883,-4.033 -6.75,-4.9c-0.233,0.833 -0.333,1.8 -0.3,2.9l0.05,3.9c1.667,0 3.417,0.65 5.25,1.95Z"/><path d="M33.739,13.507l-6.8,4c-0.713,0.42 -0.952,1.34 -0.532,2.054c0.42,0.713 1.34,0.952 2.054,0.532l6.8,-4c0.713,-0.42 0.952,-1.34 0.532,-2.054c-0.42,-0.713 -1.34,-0.952 -2.054,-0.532Z" style="fill:#f00;"/></g></svg>