<?xml version="1.0" encoding="UTF-8" standalone="no"?><!DOCTYPE svg PUBLIC "-//W3C//DTD SVG 1.1//EN" "http://www.w3.org/Graphics/SVG/1.1/DTD/svg11.dtd"><svg width="100%" height="100%" viewBox="0 0 50 72" version="1.1" xmlns="http://www.w3.org/2000/svg" xmlns:xlink="http://www.w3.org/1999/xlink" xml:space="preserve" xmlns:serif="http://www.serif.com/" style="fill-rule:evenodd;clip-rule:evenodd;stroke-linejoin:round;stroke-miterlimit:2;"><g><path d="M24.15,28.9c-0.233,0.833 -0.333,1.8 -0.3,2.9l0.05,3.9c1.667,-0 3.417,0.65 5.25,1.95c1.933,1.4 2.9,2.85 2.9,4.35c-0,0.6 -1.067,1.1 -3.2,1.5c-1.633,0.3 -3.033,0.45 -4.2,0.45c-1.567,-0 -3.15,-0.4 -4.75,-1.2c-0.2,1.967 -0.3,3.05 -0.3,3.25c-0,1.567 0.55,2.55 1.65,2.95c0.6,0.233 1.917,0.35 3.95,0.35c2.6,0 4.6,-0.717 6,-2.15c1.3,-1.333 1.95,-3.217 1.95,-5.65c0,-2.867 -0.75,-5.433 -2.25,-7.7c-1.633,-2.4 -3.883,-4.033 -6.75,-4.9Z"/><path d="M25.635,15.81l-6.75,4c-0.712,0.422 -0.947,1.342 -0.525,2.055c0.422,0.712 1.342,0.947 2.055,0.525l6.75,-4c0.712,-0.422 0.947,-1.342 0.525,-2.055c-0.422,-0.712 -1.342,-0.947 -2.055,-0.525Z"/></g></svg>