<?xml version="1.0" encoding="UTF-8" standalone="no"?><!DOCTYPE svg PUBLIC "-//W3C//DTD SVG 1.1//EN" "http://www.w3.org/Graphics/SVG/1.1/DTD/svg11.dtd"><svg width="100%" height="100%" viewBox="0 0 101 88" version="1.1" xmlns="http://www.w3.org/2000/svg" xmlns:xlink="http://www.w3.org/1999/xlink" xml:space="preserve" xmlns:serif="http://www.serif.com/" style="fill-rule:evenodd;clip-rule:evenodd;stroke-linejoin:round;stroke-miterlimit:2;"><g><path d="M98.7,44.65c-0.5,-0.4 -0.917,-0.6 -1.25,-0.6c-1.933,0 -3.917,1.917 -5.95,5.75c0,0.567 0.217,1.217 0.65,1.95c0.433,0.733 0.65,1.233 0.65,1.5c-0,0.033 -0.1,0.283 -0.3,0.75c-0.2,0.433 -0.3,0.817 -0.3,1.15c0,0.333 0.067,0.783 0.2,1.35c2.833,-2.233 4.933,-3.35 6.3,-3.35c0.267,-0 0.667,0.1 1.2,0.3c0.267,-0.133 0.567,-0.567 0.9,-1.3c0.2,-0.533 0.4,-1.067 0.6,-1.6l-2.2,0c-3.367,0 -5.05,-0.567 -5.05,-1.7c-0,-0.4 0.267,-0.867 0.8,-1.4c0.567,-0.533 1.017,-0.8 1.35,-0.8c0.067,-0 0.333,0.1 0.8,0.3c0.433,0.167 0.767,0.25 1,0.25c0.867,-0 1.3,-0.483 1.3,-1.45c-0,-0.367 -0.233,-0.733 -0.7,-1.1Z" style="fill:#f00;"/><path d="M31.35,67.55c2.4,1.9 4.767,2.85 7.1,2.85c2.733,-0 5.05,-1.933 6.95,-5.8c1.633,-3.333 2.45,-6.733 2.45,-10.2c0,-1.667 -0.283,-3.117 -0.85,-4.35c-0.433,-0.933 -1.25,-2.1 -2.45,-3.5l-1.1,4.9c0.6,0.833 1.217,1.65 1.85,2.45c0.8,1.2 1.2,2.117 1.2,2.75c-0,3.1 -1.933,5.783 -5.8,8.05c-3.267,1.9 -6.383,2.85 -9.35,2.85Z"/><path d="M8.15,53.45c-3,-1.1 -4.5,-2.817 -4.5,-5.15c-0,-1.033 0.35,-2.55 1.05,-4.55c-2.2,2.467 -3.3,4.867 -3.3,7.2c-0,5.733 3.867,8.6 11.6,8.6c12.567,0 18.85,-4.1 18.85,-12.3c0,-3.067 -0.867,-5.283 -2.6,-6.65c-0.267,1.367 -0.8,3.267 -1.6,5.7c1.467,1.267 2.2,2.633 2.2,4.1c-1,1.3 -3.317,2.367 -6.95,3.2c-2.933,0.667 -5.517,1 -7.75,1c-2.567,0 -4.9,-0.383 -7,-1.15Z"/><path d="M66.4,44.05c1.1,5.5 2.05,8.467 2.85,8.9c0.188,0.101 0.454,0.168 0.8,0.2l1.35,-0c0.192,-0.014 0.392,-0.03 0.6,-0.05l0,0.05c3.377,0.003 5.444,-0.547 6.2,-1.65c-0.2,-0.733 -0.667,-1.933 -1.4,-3.6c0.5,-1.033 1.133,-2.583 1.9,-4.65c0.7,3.4 1.05,5.583 1.05,6.55c0,3.433 -0.7,5.85 -2.1,7.25c-1.194,1.194 -3.077,1.827 -5.65,1.9l0,0.05l-2.95,0c-0.933,0 -1.683,-0.75 -2.25,-2.25c-0.333,-1.233 -0.683,-2.467 -1.05,-3.7c-1.667,2.867 -2.75,4.533 -3.25,5c-1.067,0.933 -2.817,1.4 -5.25,1.4c-2.233,-0 -3.35,-0.583 -3.35,-1.75l-0,-5.95c1.167,1.367 2.417,2.05 3.75,2.05c1.267,0 2.633,-0.317 4.1,-0.95c1.667,-0.667 2.85,-1.517 3.55,-2.55l-1.75,-11.25c-0.033,-0.2 0.333,-1.917 1.1,-5.15l1.75,10.15Z"/><path d="M88.85,23c-1.767,2.7 -2.65,4.333 -2.65,4.9l0.65,31.15c1.467,-1.433 2.2,-5.217 2.2,-11.35l-0.2,-24.7Z"/><path d="M19.85,35.1l-2.55,3l2.55,3l2.6,-3l-2.6,-3Z"/><path d="M17.3,38.1l-2.55,-3l-2.55,3l2.55,3l2.55,-3Z"/><path d="M75.85,39.2l2.9,-3.4l-2.95,-3.45l-2.9,3.45l2.95,3.4Z"/><path d="M67.15,27.65l-2.95,-3.45l-2.9,3.45l2.95,3.4l2.9,-3.4Z"/><path d="M40.4,24.95c-0.4,0.767 -0.6,1.7 -0.6,2.8c-0,1.767 0.65,2.65 1.95,2.65c0.8,-0 1.467,-0.367 2,-1.1c0.533,-0.733 0.8,-1.567 0.8,-2.5c-0,-0.8 -0.183,-1.517 -0.55,-2.15c-0.467,-0.7 -1.017,-1.05 -1.65,-1.05c-0.867,0 -1.517,0.45 -1.95,1.35Zm2.35,1.2c0.533,0.433 0.8,0.833 0.8,1.2c-0,0.567 -0.467,0.85 -1.4,0.85c-1.167,-0 -1.75,-0.417 -1.75,-1.25c-0,-0.967 0.367,-1.45 1.1,-1.45c0.333,0 0.75,0.217 1.25,0.65Z"/><path d="M75,17.95c-0.867,-0 -1.517,0.45 -1.95,1.35c-0.4,0.767 -0.6,1.7 -0.6,2.8c0,1.767 0.65,2.65 1.95,2.65c0.8,0 1.467,-0.367 2,-1.1c0.533,-0.733 0.8,-1.567 0.8,-2.5c0,-0.8 -0.183,-1.517 -0.55,-2.15c-0.467,-0.7 -1.017,-1.05 -1.65,-1.05Zm0.4,2.55c0.533,0.433 0.8,0.833 0.8,1.2c0,0.567 -0.467,0.85 -1.4,0.85c-1.167,0 -1.75,-0.417 -1.75,-1.25c-0,-0.967 0.367,-1.45 1.1,-1.45c0.333,0 0.75,0.217 1.25,0.65Z"/><path d="M18.9,19.6c0.467,-1.267 0.7,-2.267 0.7,-3c0,-1.467 -0.5,-2.2 -1.5,-2.2c-0.7,0 -1.333,0.517 -1.9,1.55c-0.467,0.933 -0.7,1.833 -0.7,2.7c-0,0.7 0.45,1.45 1.35,2.25c-1.633,1.767 -3.2,3.1 -4.7,4c0.533,0.2 0.95,0.3 1.25,0.3c1.233,-0 2.7,-1.217 4.4,-3.65c0.7,0.567 1.3,1 1.8,1.3l0.15,-2.5c-0.367,-0.333 -0.65,-0.583 -0.85,-0.75Zm-0.7,-1.5c0,0.233 -0.033,0.5 -0.1,0.8c-1,-0.633 -1.5,-1.25 -1.5,-1.85c0.067,-0.267 0.217,-0.417 0.45,-0.45c0.767,0.133 1.15,0.633 1.15,1.5Z"/><path d="M88.943,12.555l-5.6,4.25c-0.659,0.501 -0.788,1.442 -0.288,2.102c0.501,0.659 1.442,0.788 2.102,0.288l5.6,-4.25c0.659,-0.501 0.788,-1.442 0.288,-2.102c-0.501,-0.659 -1.442,-0.788 -2.102,-0.288Z"/><path d="M64.943,10.705l-5.6,4.25c-0.659,0.501 -0.788,1.442 -0.288,2.102c0.501,0.659 1.442,0.788 2.102,0.288l5.6,-4.25c0.659,-0.501 0.788,-1.442 0.288,-2.102c-0.501,-0.659 -1.442,-0.788 -2.102,-0.288Z"/><path d="M96.95,34.25l-5.6,4.2c-0.662,0.497 -0.797,1.438 -0.3,2.1c0.497,0.662 1.438,0.797 2.1,0.3l5.6,-4.2c0.662,-0.497 0.797,-1.438 0.3,-2.1c-0.497,-0.662 -1.438,-0.797 -2.1,-0.3Z" style="fill:#f00;"/></g></svg>