<?xml version="1.0" encoding="UTF-8" standalone="no"?><!DOCTYPE svg PUBLIC "-//W3C//DTD SVG 1.1//EN" "http://www.w3.org/Graphics/SVG/1.1/DTD/svg11.dtd"><svg width="100%" height="100%" viewBox="0 0 67 90" version="1.1" xmlns="http://www.w3.org/2000/svg" xmlns:xlink="http://www.w3.org/1999/xlink" xml:space="preserve" xmlns:serif="http://www.serif.com/" style="fill-rule:evenodd;clip-rule:evenodd;stroke-linejoin:round;stroke-miterlimit:2;"><g><path d="M43.6,75.9l-0.25,0c-2.367,0 -3.35,0.017 -2.95,0.05c-1.1,-0.067 -2.017,-0.417 -2.75,-1.05c0.433,-1.367 1.05,-2.05 1.85,-2.05c0.2,-0 0.483,0.083 0.85,0.25c0.367,0.133 0.65,0.2 0.85,0.2c0.4,0 0.6,-0.467 0.6,-1.4c-0,-0.367 -0.117,-0.7 -0.35,-1c-0.267,-0.267 -0.55,-0.4 -0.85,-0.4c-0.6,0 -1.533,0.583 -2.8,1.75c-1.267,1.233 -1.9,2.2 -1.9,2.9c-0,0.233 0.15,0.65 0.45,1.25c0.3,0.567 0.45,1.017 0.45,1.35c-0,0.167 -0.05,0.433 -0.15,0.8c-0.1,0.367 -0.15,0.65 -0.15,0.85c-0,0.167 0.017,0.4 0.05,0.7c0.933,-0.9 2.25,-1.617 3.95,-2.15c1.467,-0.467 2.5,-1.15 3.1,-2.05Z" style="fill:#f00;"/><path d="M40.3,30.65c-1.767,2.7 -2.65,4.333 -2.65,4.9l0.65,31.15c1.467,-1.433 2.2,-5.217 2.2,-11.35l-0.2,-24.7Z" style="fill:#f00;"/><path d="M46.6,60.9c0,0.033 -0.1,0.283 -0.3,0.75c-0.2,0.433 -0.3,0.817 -0.3,1.15c-0,0.333 0.067,0.783 0.2,1.35c2.833,-2.233 4.933,-3.35 6.3,-3.35c0.267,0 0.667,0.1 1.2,0.3c0.267,-0.133 0.567,-0.567 0.9,-1.3c0.2,-0.533 0.4,-1.067 0.6,-1.6l-2.2,0c-3.367,0 -5.05,-0.567 -5.05,-1.7c0,-0.4 0.267,-0.867 0.8,-1.4c0.567,-0.533 1.017,-0.8 1.35,-0.8c0.067,0 0.333,0.1 0.8,0.3c0.433,0.167 0.767,0.25 1,0.25c0.867,0 1.3,-0.483 1.3,-1.45c0,-0.367 -0.233,-0.733 -0.7,-1.1c-0.5,-0.4 -0.917,-0.6 -1.25,-0.6c-1.933,0 -3.917,1.917 -5.95,5.75c-0,0.567 0.217,1.217 0.65,1.95c0.433,0.733 0.65,1.233 0.65,1.5Z" style="fill:#f00;"/><path d="M30.2,50.9c-0.767,2.067 -1.4,3.617 -1.9,4.65c0.733,1.667 1.2,2.867 1.4,3.6c-0.745,1.086 -2.762,1.636 -6.05,1.65l-0,-0.05c-3.233,0 -5.333,-0.733 -6.3,-2.2c-0.8,-1.267 -1.2,-3.917 -1.2,-7.95l-0,-18.95c-0.5,0.6 -1,1.183 -1.5,1.75c-0.367,0.567 -0.55,1.35 -0.55,2.35c0,7.9 0.033,12.967 0.1,15.2c0.267,7.633 0.917,12.233 1.95,13.8c0.833,1.267 2,1.9 3.5,1.9l4,0l-0,-0.05c2.496,-0.096 4.329,-0.729 5.5,-1.9c1.4,-1.4 2.1,-3.817 2.1,-7.25c0,-0.967 -0.35,-3.15 -1.05,-6.55Z"/><path d="M30.25,43.45l-2.95,-3.45l-2.9,3.45l2.95,3.4l2.9,-3.4Z"/><path d="M25.85,31.05c0,-0.5 -0.067,-1.05 -0.2,-1.65l-0.35,0.2c-0,1.667 -0.333,2.5 -1,2.5c-0.3,-0 -0.567,-0.55 -0.8,-1.65l-0.25,0.1c-0.133,0.8 -0.25,1.35 -0.35,1.65c-0.233,0.7 -0.55,1.05 -0.95,1.05c-0.367,0 -0.55,-0.617 -0.55,-1.85l-0.35,0.05c-0.2,0.9 -0.3,1.467 -0.3,1.7c0,0.467 0.083,0.883 0.25,1.25c0.2,0.4 0.5,0.6 0.9,0.6c0.333,0 0.667,-0.15 1,-0.45c0.3,-0.267 0.467,-0.6 0.5,-1c0.267,0.233 0.567,0.35 0.9,0.35c1.033,0 1.55,-0.95 1.55,-2.85Z"/><path d="M24.143,20.405l-5.6,4.25c-0.659,0.501 -0.788,1.442 -0.288,2.102c0.501,0.659 1.442,0.788 2.102,0.288l5.6,-4.25c0.659,-0.501 0.788,-1.442 0.288,-2.102c-0.501,-0.659 -1.442,-0.788 -2.102,-0.288Z"/><path d="M41.75,79.45l-5.6,4.2c-0.662,0.497 -0.797,1.438 -0.3,2.1c0.497,0.662 1.438,0.797 2.1,0.3l5.6,-4.2c0.662,-0.497 0.797,-1.438 0.3,-2.1c-0.497,-0.662 -1.438,-0.797 -2.1,-0.3Z" style="fill:#f00;"/><path d="M50.893,43.205l-5.6,4.25c-0.659,0.501 -0.788,1.442 -0.288,2.102c0.501,0.659 1.442,0.788 2.102,0.288l5.6,-4.25c0.659,-0.501 0.788,-1.442 0.288,-2.102c-0.501,-0.659 -1.442,-0.788 -2.102,-0.288Z" style="fill:#f00;"/></g></svg>