<?xml version="1.0" encoding="UTF-8" standalone="no"?><!DOCTYPE svg PUBLIC "-//W3C//DTD SVG 1.1//EN" "http://www.w3.org/Graphics/SVG/1.1/DTD/svg11.dtd"><svg width="100%" height="100%" viewBox="0 0 47 81" version="1.1" xmlns="http://www.w3.org/2000/svg" xmlns:xlink="http://www.w3.org/1999/xlink" xml:space="preserve" xmlns:serif="http://www.serif.com/" style="fill-rule:evenodd;clip-rule:evenodd;stroke-linejoin:round;stroke-miterlimit:2;"><g><path d="M9.15,56.75c-0,-0.633 0.117,-1.55 0.35,-2.75c0.2,-1.233 0.3,-2.167 0.3,-2.8c-0.8,0.967 -1.433,2.333 -1.9,4.1c-0.467,1.6 -0.7,3.15 -0.7,4.65c0,2.7 0.7,4.75 2.1,6.15c1.267,1.333 3.067,2 5.4,2c2.933,0 5.4,-1.233 7.4,-3.7c1.967,-2.467 2.95,-5.433 2.95,-8.9c-0,-4.467 -1.05,-8.25 -3.15,-11.35c-0.6,1.333 -1.183,3.183 -1.75,5.55c1.067,1.633 1.75,2.783 2.05,3.45c0.633,1.4 0.95,2.733 0.95,4c-0,1.6 -1.05,2.933 -3.15,4c-1.767,0.933 -3.433,1.4 -5,1.4c-3.9,-0 -5.85,-1.933 -5.85,-5.8Z"/><path d="M34.2,22.3c-1.767,2.7 -2.65,4.333 -2.65,4.9l0.65,31.15c1.467,-1.433 2.2,-5.217 2.2,-11.35l-0.2,-24.7Z"/><path d="M17.55,38.55l-2.95,-3.45l-2.95,3.45l2.95,3.45l2.95,-3.45Z"/><path d="M11.2,24.15c-0.4,0.767 -0.6,1.7 -0.6,2.8c0,1.767 0.65,2.65 1.95,2.65c0.8,0 1.467,-0.367 2,-1.1c0.533,-0.733 0.8,-1.567 0.8,-2.5c0,-0.8 -0.183,-1.517 -0.55,-2.15c-0.467,-0.7 -1.017,-1.05 -1.65,-1.05c-0.867,-0 -1.517,0.45 -1.95,1.35Zm3.15,2.4c0,0.567 -0.467,0.85 -1.4,0.85c-1.167,-0 -1.75,-0.417 -1.75,-1.25c0,-0.967 0.367,-1.45 1.1,-1.45c0.333,0 0.75,0.217 1.25,0.65c0.533,0.433 0.8,0.833 0.8,1.2Z"/><path d="M34.593,12.405l-5.6,4.25c-0.659,0.501 -0.788,1.442 -0.288,2.102c0.501,0.659 1.442,0.788 2.102,0.288l5.6,-4.25c0.659,-0.501 0.788,-1.442 0.288,-2.102c-0.501,-0.659 -1.442,-0.788 -2.102,-0.288Z"/></g></svg>