<?xml version="1.0" encoding="UTF-8" standalone="no"?><!DOCTYPE svg PUBLIC "-//W3C//DTD SVG 1.1//EN" "http://www.w3.org/Graphics/SVG/1.1/DTD/svg11.dtd"><svg width="100%" height="100%" viewBox="0 0 75 88" version="1.1" xmlns="http://www.w3.org/2000/svg" xmlns:xlink="http://www.w3.org/1999/xlink" xml:space="preserve" xmlns:serif="http://www.serif.com/" style="fill-rule:evenodd;clip-rule:evenodd;stroke-linejoin:round;stroke-miterlimit:2;"><g><path d="M57.2,62.25c0.2,0 0.483,0.083 0.85,0.25c0.367,0.133 0.65,0.2 0.85,0.2c0.4,-0 0.6,-0.467 0.6,-1.4c-0,-0.367 -0.117,-0.7 -0.35,-1c-0.267,-0.267 -0.55,-0.4 -0.85,-0.4c-0.6,-0 -1.533,0.583 -2.8,1.75c-1.267,1.233 -1.9,2.2 -1.9,2.9c-0,0.233 0.15,0.65 0.45,1.25c0.3,0.567 0.45,1.017 0.45,1.35c-0,0.167 -0.05,0.433 -0.15,0.8c-0.1,0.367 -0.15,0.65 -0.15,0.85c0,0.167 0.017,0.4 0.05,0.7c0.933,-0.9 2.25,-1.617 3.95,-2.15c1.467,-0.467 2.5,-1.15 3.1,-2.05l-0.25,0c-2.367,0 -3.35,0.017 -2.95,0.05c-1.1,-0.067 -2.017,-0.417 -2.75,-1.05c0.433,-1.367 1.05,-2.05 1.85,-2.05Z" style="fill:#f00;"/><path d="M58,20.05c-1.767,2.7 -2.65,4.333 -2.65,4.9l0.65,31.15c1.467,-1.433 2.2,-5.217 2.2,-11.35l-0.2,-24.7Z" style="fill:#f00;"/><path d="M41,50.2l-1.8,-0l0,5.85l1.8,0c2.675,-0.075 4.625,-0.725 5.85,-1.95c1.4,-1.4 2.1,-3.817 2.1,-7.25c0,-0.967 -0.35,-3.15 -1.05,-6.55c-0.767,2.067 -1.4,3.617 -1.9,4.65c0.733,1.667 1.2,2.867 1.4,3.6c-0.771,1.124 -2.904,1.674 -6.4,1.65Z" style="fill:#f00;"/><path d="M47.3,27.8c0.367,0.133 0.633,0.2 0.8,0.2c0.4,0 0.6,-0.45 0.6,-1.35c0,-0.367 -0.117,-0.7 -0.35,-1c-0.233,-0.3 -0.517,-0.45 -0.85,-0.45c-0.6,-0 -1.517,0.6 -2.75,1.8c-1.3,1.233 -1.95,2.183 -1.95,2.85c-0,0.267 0.15,0.7 0.45,1.3c0.3,0.567 0.45,1 0.45,1.3c0,0.167 -0.033,0.433 -0.1,0.8c-0.1,0.4 -0.15,0.683 -0.15,0.85c0,0.2 0.017,0.45 0.05,0.75c1.733,-1.633 3.233,-2.45 4.5,-2.45c1.067,-0 1.633,-0.033 1.7,-0.1c0.267,-0.533 0.533,-1.083 0.8,-1.65c-0.267,-0 -0.667,0.017 -1.2,0.05c-0.567,0.033 -0.983,0.05 -1.25,0.05c-1.467,0 -2.617,-0.383 -3.45,-1.15c0.433,-1.333 1.05,-2 1.85,-2c0.2,0 0.483,0.067 0.85,0.2Z" style="fill:#f00;"/><path d="M42.85,16.7c-0.4,0.767 -0.6,1.7 -0.6,2.8c0,1.767 0.65,2.65 1.95,2.65c0.8,-0 1.467,-0.367 2,-1.1c0.533,-0.733 0.8,-1.567 0.8,-2.5c0,-0.8 -0.183,-1.517 -0.55,-2.15c-0.467,-0.7 -1.017,-1.05 -1.65,-1.05c-0.867,-0 -1.517,0.45 -1.95,1.35Zm1.75,3.25c-1.167,-0 -1.75,-0.417 -1.75,-1.25c-0,-0.967 0.367,-1.45 1.1,-1.45c0.333,0 0.75,0.217 1.25,0.65c0.533,0.433 0.8,0.833 0.8,1.2c0,0.567 -0.467,0.85 -1.4,0.85Z" style="fill:#f00;"/><path d="M12.45,54.9c1.833,1.433 4.083,2.15 6.75,2.15c5.3,0 10.65,-1.8 16.05,-5.4c1.267,2.933 2.567,4.4 3.9,4.4l0.05,0l0,-5.85l1.8,-0l0,-0.05c-1.667,-0 -2.783,-0.3 -3.35,-0.9c-0.567,-0.633 -0.967,-1.95 -1.2,-3.95c-3.6,4.233 -8.2,6.35 -13.8,6.35c-2.533,-0 -4.85,-0.417 -6.95,-1.25c-2.933,-1.167 -4.4,-2.95 -4.4,-5.35c-0,-1.033 0.433,-2.567 1.3,-4.6c-0.967,0.767 -1.75,1.85 -2.35,3.25c-0.6,1.367 -0.9,2.75 -0.9,4.15c0,3 1.033,5.35 3.1,7.05Z"/><path d="M25.15,35.15l2.55,3l2.6,-3l-2.6,-3l-2.55,3Z"/><path d="M22.6,38.15l2.55,-3l-2.55,-3l-2.55,3l2.55,3Z"/><path d="M21.8,63.05l-5.6,4.2c-0.662,0.497 -0.797,1.438 -0.3,2.1c0.497,0.662 1.438,0.797 2.1,0.3l5.6,-4.2c0.662,-0.497 0.797,-1.438 0.3,-2.1c-0.497,-0.662 -1.438,-0.797 -2.1,-0.3Z"/><path d="M58.993,69.205l-5.6,4.25c-0.659,0.501 -0.788,1.442 -0.288,2.102c0.501,0.659 1.442,0.788 2.102,0.288l5.6,-4.25c0.659,-0.501 0.788,-1.442 0.288,-2.102c-0.501,-0.659 -1.442,-0.788 -2.102,-0.288Z" style="fill:#f00;"/></g></svg>