<?xml version="1.0" encoding="UTF-8" standalone="no"?><!DOCTYPE svg PUBLIC "-//W3C//DTD SVG 1.1//EN" "http://www.w3.org/Graphics/SVG/1.1/DTD/svg11.dtd"><svg width="100%" height="100%" viewBox="0 0 79 90" version="1.1" xmlns="http://www.w3.org/2000/svg" xmlns:xlink="http://www.w3.org/1999/xlink" xml:space="preserve" xmlns:serif="http://www.serif.com/" style="fill-rule:evenodd;clip-rule:evenodd;stroke-linejoin:round;stroke-miterlimit:2;"><g><path d="M61.6,73c0.2,0 0.483,0.083 0.85,0.25c0.367,0.133 0.65,0.2 0.85,0.2c0.4,-0 0.6,-0.467 0.6,-1.4c0,-0.367 -0.117,-0.7 -0.35,-1c-0.267,-0.267 -0.55,-0.4 -0.85,-0.4c-0.6,0 -1.533,0.583 -2.8,1.75c-1.267,1.233 -1.9,2.2 -1.9,2.9c-0,0.233 0.15,0.65 0.45,1.25c0.3,0.567 0.45,1.017 0.45,1.35c0,0.167 -0.05,0.433 -0.15,0.8c-0.1,0.367 -0.15,0.65 -0.15,0.85c-0,0.167 0.017,0.4 0.05,0.7c0.933,-0.9 2.25,-1.617 3.95,-2.15c1.467,-0.467 2.5,-1.15 3.1,-2.05l-0.25,0c-2.367,0 -3.35,0.017 -2.95,0.05c-1.1,-0.067 -2.017,-0.417 -2.75,-1.05c0.433,-1.367 1.05,-2.05 1.85,-2.05Z" style="fill:#f00;"/><path d="M20.55,30.8c-1.767,2.7 -2.65,4.333 -2.65,4.9l0.65,31.15c1.467,-1.433 2.2,-5.217 2.2,-11.35l-0.2,-24.7Z" style="fill:#f00;"/><path d="M62.4,30.8c-1.767,2.7 -2.65,4.333 -2.65,4.9l0.65,31.15c1.467,-1.433 2.2,-5.217 2.2,-11.35l-0.2,-24.7Z" style="fill:#f00;"/><path d="M15.9,24.2c0.433,-1.367 1.05,-2.05 1.85,-2.05c0.2,0 0.483,0.083 0.85,0.25c0.367,0.133 0.65,0.2 0.85,0.2c0.4,-0 0.6,-0.467 0.6,-1.4c-0,-0.367 -0.117,-0.683 -0.35,-0.95c-0.267,-0.3 -0.55,-0.45 -0.85,-0.45c-0.6,0 -1.517,0.6 -2.75,1.8c-1.3,1.2 -1.95,2.15 -1.95,2.85c0,0.267 0.15,0.683 0.45,1.25c0.3,0.567 0.45,1.017 0.45,1.35c-0,0.167 -0.05,0.433 -0.15,0.8c-0.1,0.367 -0.15,0.65 -0.15,0.85c0,0.167 0.017,0.4 0.05,0.7c1.733,-1.633 3.233,-2.45 4.5,-2.45c1.067,-0 1.633,-0.017 1.7,-0.05c0.267,-0.567 0.55,-1.117 0.85,-1.65l-1.25,-0c-0.533,0.033 -0.933,0.05 -1.2,0.05c-1.467,0 -2.633,-0.367 -3.5,-1.1Z" style="fill:#f00;"/><path d="M16.8,8.3c-0.867,0 -1.517,0.45 -1.95,1.35c-0.4,0.767 -0.6,1.7 -0.6,2.8c-0,1.767 0.65,2.65 1.95,2.65c0.8,-0 1.467,-0.367 2,-1.1c0.533,-0.733 0.8,-1.567 0.8,-2.5c-0,-0.8 -0.183,-1.517 -0.55,-2.15c-0.467,-0.7 -1.017,-1.05 -1.65,-1.05Zm0.4,2.55c0.533,0.433 0.8,0.833 0.8,1.2c-0,0.567 -0.467,0.85 -1.4,0.85c-1.167,0 -1.75,-0.417 -1.75,-1.25c-0,-0.967 0.367,-1.45 1.1,-1.45c0.333,-0 0.75,0.217 1.25,0.65Z" style="fill:#f00;"/><path d="M48.8,72.75l-2.9,3.45l2.9,3.4l2.95,-3.4l-2.95,-3.45Z"/><path d="M39.95,51.85c1.1,5.5 2.05,8.467 2.85,8.9c0.188,0.101 0.454,0.168 0.8,0.2l1.35,-0c0.192,-0.014 0.392,-0.03 0.6,-0.05l-0,0.05c3.377,0.003 5.444,-0.547 6.2,-1.65c-0.2,-0.733 -0.667,-1.933 -1.4,-3.6c0.5,-1.033 1.133,-2.583 1.9,-4.65c0.7,3.4 1.05,5.583 1.05,6.55c-0,3.433 -0.7,5.85 -2.1,7.25c-1.194,1.194 -3.077,1.827 -5.65,1.9l-0,0.05l-2.95,0c-0.933,0 -1.683,-0.75 -2.25,-2.25c-0.333,-1.233 -0.683,-2.467 -1.05,-3.7c-1.667,2.867 -2.75,4.533 -3.25,5c-1.067,0.933 -2.817,1.4 -5.25,1.4c-2.233,0 -3.35,-0.583 -3.35,-1.75l0,-5.95c1.167,1.367 2.417,2.05 3.75,2.05c1.267,0 2.633,-0.317 4.1,-0.95c1.667,-0.667 2.85,-1.517 3.55,-2.55l-1.75,-11.25c-0.033,-0.2 0.333,-1.917 1.1,-5.15l1.75,10.15Z"/><path d="M44.85,28.8c-0.4,0.767 -0.6,1.7 -0.6,2.8c0,1.767 0.65,2.65 1.95,2.65c0.8,0 1.467,-0.367 2,-1.1c0.533,-0.733 0.8,-1.567 0.8,-2.5c0,-0.8 -0.183,-1.517 -0.55,-2.15c-0.467,-0.7 -1.017,-1.05 -1.65,-1.05c-0.867,-0 -1.517,0.45 -1.95,1.35Zm2.35,1.2c0.533,0.433 0.8,0.833 0.8,1.2c0,0.567 -0.467,0.85 -1.4,0.85c-1.167,0 -1.75,-0.417 -1.75,-1.25c-0,-0.967 0.367,-1.45 1.1,-1.45c0.333,-0 0.75,0.217 1.25,0.65Z"/><path d="M35.143,21.805l-5.6,4.25c-0.659,0.501 -0.788,1.442 -0.288,2.102c0.501,0.659 1.442,0.788 2.102,0.288l5.6,-4.25c0.659,-0.501 0.788,-1.442 0.288,-2.102c-0.501,-0.659 -1.442,-0.788 -2.102,-0.288Z"/><path d="M64.093,79.455l-5.6,4.25c-0.659,0.501 -0.788,1.442 -0.288,2.102c0.501,0.659 1.442,0.788 2.102,0.288l5.6,-4.25c0.659,-0.501 0.788,-1.442 0.288,-2.102c-0.501,-0.659 -1.442,-0.788 -2.102,-0.288Z" style="fill:#f00;"/></g></svg>