<?xml version="1.0" encoding="UTF-8" standalone="no"?><!DOCTYPE svg PUBLIC "-//W3C//DTD SVG 1.1//EN" "http://www.w3.org/Graphics/SVG/1.1/DTD/svg11.dtd"><svg width="100%" height="100%" viewBox="0 0 54 81" version="1.1" xmlns="http://www.w3.org/2000/svg" xmlns:xlink="http://www.w3.org/1999/xlink" xml:space="preserve" xmlns:serif="http://www.serif.com/" style="fill-rule:evenodd;clip-rule:evenodd;stroke-linejoin:round;stroke-miterlimit:2;"><g><path d="M15.05,57.1c-0,-0.633 0.117,-1.55 0.35,-2.75c0.2,-1.233 0.3,-2.167 0.3,-2.8c-0.8,0.967 -1.433,2.333 -1.9,4.1c-0.467,1.6 -0.7,3.15 -0.7,4.65c0,2.7 0.7,4.75 2.1,6.15c1.267,1.333 3.067,2 5.4,2c2.933,0 5.4,-1.233 7.4,-3.7c1.967,-2.467 2.95,-5.433 2.95,-8.9c0,-4.467 -1.05,-8.25 -3.15,-11.35c-0.6,1.333 -1.183,3.183 -1.75,5.55c1.067,1.633 1.75,2.783 2.05,3.45c0.633,1.4 0.95,2.733 0.95,4c-0,1.6 -1.05,2.933 -3.15,4c-1.767,0.933 -3.433,1.4 -5,1.4c-3.9,-0 -5.85,-1.933 -5.85,-5.8Z"/><path d="M40.1,22.65c-1.767,2.7 -2.65,4.333 -2.65,4.9l0.65,31.15c1.467,-1.433 2.2,-5.217 2.2,-11.35l-0.2,-24.7Z"/><path d="M20.5,35.45l-2.95,3.45l2.95,3.45l2.95,-3.45l-2.95,-3.45Z"/><path d="M21.85,26.75l-0.35,0.2c0,1.667 -0.333,2.5 -1,2.5c-0.3,0 -0.567,-0.55 -0.8,-1.65l-0.25,0.1c-0.133,0.8 -0.25,1.35 -0.35,1.65c-0.233,0.7 -0.55,1.05 -0.95,1.05c-0.367,0 -0.55,-0.617 -0.55,-1.85l-0.35,0.05c-0.2,0.9 -0.3,1.467 -0.3,1.7c0,0.467 0.083,0.883 0.25,1.25c0.2,0.4 0.5,0.6 0.9,0.6c0.333,0 0.667,-0.15 1,-0.45c0.3,-0.267 0.467,-0.6 0.5,-1c0.267,0.233 0.567,0.35 0.9,0.35c1.033,-0 1.55,-0.95 1.55,-2.85c-0,-0.5 -0.067,-1.05 -0.2,-1.65Z"/><path d="M41.143,61.955l-5.6,4.25c-0.659,0.501 -0.788,1.442 -0.288,2.102c0.501,0.659 1.442,0.788 2.102,0.288l5.6,-4.25c0.659,-0.501 0.788,-1.442 0.288,-2.102c-0.501,-0.659 -1.442,-0.788 -2.102,-0.288Z"/><path d="M21.543,19.005l-5.6,4.25c-0.659,0.501 -0.788,1.442 -0.288,2.102c0.501,0.659 1.442,0.788 2.102,0.288l5.6,-4.25c0.659,-0.501 0.788,-1.442 0.288,-2.102c-0.501,-0.659 -1.442,-0.788 -2.102,-0.288Z"/></g></svg>