<?xml version="1.0" encoding="UTF-8" standalone="no"?><!DOCTYPE svg PUBLIC "-//W3C//DTD SVG 1.1//EN" "http://www.w3.org/Graphics/SVG/1.1/DTD/svg11.dtd"><svg width="100%" height="100%" viewBox="0 0 61 81" version="1.1" xmlns="http://www.w3.org/2000/svg" xmlns:xlink="http://www.w3.org/1999/xlink" xml:space="preserve" xmlns:serif="http://www.serif.com/" style="fill-rule:evenodd;clip-rule:evenodd;stroke-linejoin:round;stroke-miterlimit:2;"><g><path d="M42,47.55c0,-0.967 -0.35,-3.15 -1.05,-6.55c-0.767,2.067 -1.4,3.617 -1.9,4.65c0.733,1.667 1.2,2.867 1.4,3.6c-0.733,1.07 -2.7,1.62 -5.9,1.65l-0,-0.05l-3.5,0c-2.167,0 -4.1,0.75 -5.8,2.25c-1.833,1.667 -2.75,3.733 -2.75,6.2c-0,1.133 0.483,1.967 1.45,2.5c0.567,0.3 1.6,0.583 3.1,0.85c1.367,0.233 2.25,0.5 2.65,0.8c-0.433,1 -2.183,1.9 -5.25,2.7c-2.533,0.667 -4.583,1 -6.15,1c-2.6,-0 -4.583,-0.317 -5.95,-0.95c-2.167,-0.933 -3.25,-2.683 -3.25,-5.25c-0,-1.1 0.333,-2.5 1,-4.2c0.8,-2.067 1.283,-3.45 1.45,-4.15c-1.167,0.9 -2.3,2.467 -3.4,4.7c-1.1,2.3 -1.65,4.25 -1.65,5.85c-0,3.067 1.15,5.35 3.45,6.85c1.867,1.2 4.217,1.8 7.05,1.8c6.4,-0 11.117,-2.267 14.15,-6.8c0.967,-1.433 1.45,-2.517 1.45,-3.25c-0,-1.3 -1.067,-2.2 -3.2,-2.7c-1.467,-0.267 -2.95,-0.533 -4.45,-0.8c0.54,-0.901 3.19,-1.401 7.95,-1.5l1.65,0l-0,-0.05c2.419,-0.119 4.203,-0.753 5.35,-1.9c1.4,-1.4 2.1,-3.817 2.1,-7.25Z"/><path d="M51.1,20.75c-1.767,2.7 -2.65,4.333 -2.65,4.9l0.65,31.15c1.467,-1.433 2.2,-5.217 2.2,-11.35l-0.2,-24.7Z"/><path d="M41,33.55l-2.95,-3.45l-2.9,3.45l2.95,3.4l2.9,-3.4Z"/><path d="M39.5,22.7c0,-0.5 -0.067,-1.05 -0.2,-1.65l-0.35,0.2c0,1.667 -0.333,2.5 -1,2.5c-0.3,0 -0.567,-0.55 -0.8,-1.65l-0.25,0.1c-0.133,0.8 -0.25,1.35 -0.35,1.65c-0.233,0.7 -0.55,1.05 -0.95,1.05c-0.367,-0 -0.55,-0.617 -0.55,-1.85l-0.35,0.05c-0.2,0.9 -0.3,1.467 -0.3,1.7c0,0.467 0.083,0.883 0.25,1.25c0.2,0.4 0.5,0.6 0.9,0.6c0.333,-0 0.667,-0.15 1,-0.45c0.3,-0.267 0.467,-0.6 0.5,-1c0.267,0.233 0.567,0.35 0.9,0.35c1.033,-0 1.55,-0.95 1.55,-2.85Z"/><path d="M37.443,62.755l-5.6,4.25c-0.659,0.501 -0.788,1.442 -0.288,2.102c0.501,0.659 1.442,0.788 2.102,0.288l5.6,-4.25c0.659,-0.501 0.788,-1.442 0.288,-2.102c-0.501,-0.659 -1.442,-0.788 -2.102,-0.288Z"/><path d="M52.443,58.505l-5.6,4.25c-0.659,0.501 -0.788,1.442 -0.288,2.102c0.501,0.659 1.442,0.788 2.102,0.288l5.6,-4.25c0.659,-0.501 0.788,-1.442 0.288,-2.102c-0.501,-0.659 -1.442,-0.788 -2.102,-0.288Z"/></g></svg>