<?xml version="1.0" encoding="UTF-8" standalone="no"?><!DOCTYPE svg PUBLIC "-//W3C//DTD SVG 1.1//EN" "http://www.w3.org/Graphics/SVG/1.1/DTD/svg11.dtd"><svg width="100%" height="100%" viewBox="0 0 114 88" version="1.1" xmlns="http://www.w3.org/2000/svg" xmlns:xlink="http://www.w3.org/1999/xlink" xml:space="preserve" xmlns:serif="http://www.serif.com/" style="fill-rule:evenodd;clip-rule:evenodd;stroke-linejoin:round;stroke-miterlimit:2;"><g><path d="M16.1,56.1c0,-1.433 0.367,-3.633 1.1,-6.6c-0.9,0.5 -1.7,1.883 -2.4,4.15c-0.6,1.967 -0.9,3.683 -0.9,5.15c-0,3.367 0.717,5.967 2.15,7.8c1.433,1.867 3.567,2.8 6.4,2.8c3.033,-0 6.25,-1.15 9.65,-3.45c3.867,-2.633 5.8,-5.583 5.8,-8.85c-0,-1.633 -0.767,-2.75 -2.3,-3.35c-1.467,-0.3 -2.917,-0.6 -4.35,-0.9c-1.567,-0.4 -2.35,-1.117 -2.35,-2.15c-0,-1.133 0.85,-2.483 2.55,-4.05c1.467,-1.333 2.75,-2.2 3.85,-2.6c0.467,0.233 0.8,0.45 1,0.65c0.067,0.067 0.317,0.367 0.75,0.9c0.333,-0.8 0.667,-1.583 1,-2.35c0.333,-0.933 0.5,-1.783 0.5,-2.55c-0,-0.4 -0.117,-0.883 -0.35,-1.45l-0.85,-0.6c-2.1,-0 -4.35,1.85 -6.75,5.55c-2.3,3.533 -3.45,6.6 -3.45,9.2c-0,1.533 0.5,2.667 1.5,3.4c0.733,0.567 1.833,0.917 3.3,1.05c1.2,0.067 2.383,0.117 3.55,0.15c-0.667,1.533 -2.483,2.9 -5.45,4.1c-2.567,1.1 -4.733,1.65 -6.5,1.65c-4.967,0 -7.45,-2.55 -7.45,-7.65Z" style="fill:#f00;"/><path d="M21.3,27.6c-0.233,-0.3 -0.517,-0.45 -0.85,-0.45c-0.6,-0 -1.517,0.6 -2.75,1.8c-1.3,1.233 -1.95,2.183 -1.95,2.85c0,0.267 0.15,0.7 0.45,1.3c0.3,0.567 0.45,1 0.45,1.3c-0,0.167 -0.033,0.433 -0.1,0.8c-0.1,0.4 -0.15,0.683 -0.15,0.85c-0,0.2 0.017,0.45 0.05,0.75c1.733,-1.633 3.233,-2.45 4.5,-2.45c1.067,0 1.633,-0.033 1.7,-0.1c0.267,-0.533 0.533,-1.083 0.8,-1.65c-0.267,0 -0.667,0.017 -1.2,0.05c-0.567,0.033 -0.983,0.05 -1.25,0.05c-1.467,0 -2.617,-0.383 -3.45,-1.15c0.433,-1.333 1.05,-2 1.85,-2c0.2,0 0.483,0.067 0.85,0.2c0.367,0.133 0.633,0.2 0.8,0.2c0.4,0 0.6,-0.45 0.6,-1.35c-0,-0.367 -0.117,-0.7 -0.35,-1Z" style="fill:#f00;"/><path d="M16.1,19.1c0,0.6 0.45,1.217 1.35,1.85c-1.633,1.433 -3.183,2.517 -4.65,3.25c0.5,0.167 0.917,0.25 1.25,0.25c1.2,-0 2.65,-0.983 4.35,-2.95c0.667,0.467 1.233,0.817 1.7,1.05l0.2,-2.05c-0.367,-0.267 -0.65,-0.467 -0.85,-0.6c0.433,-1.033 0.65,-1.85 0.65,-2.45c0,-1.2 -0.483,-1.8 -1.45,-1.8c-0.7,0 -1.317,0.417 -1.85,1.25c-0.467,0.767 -0.7,1.5 -0.7,2.2Zm1.1,-1.3c0.067,-0.2 0.2,-0.333 0.4,-0.4c0.767,0.133 1.15,0.567 1.15,1.3c0,0.167 -0.033,0.367 -0.1,0.6c-0.967,-0.533 -1.45,-1.033 -1.45,-1.5Z" style="fill:#f00;"/><path d="M70.7,67.4l2.9,3.4l2.95,-3.4l-2.95,-3.45l-2.9,3.45Z"/><path d="M52.1,52.9c0.8,1.2 1.2,2.117 1.2,2.75c-0,3.1 -1.933,5.783 -5.8,8.05c-3.267,1.9 -6.383,2.85 -9.35,2.85c2.4,1.9 4.767,2.85 7.1,2.85c2.733,-0 5.05,-1.933 6.95,-5.8c1.633,-3.333 2.45,-6.733 2.45,-10.2c-0,-1.667 -0.283,-3.117 -0.85,-4.35c-0.433,-0.933 -1.25,-2.1 -2.45,-3.5l-1.1,4.9c0.6,0.833 1.217,1.65 1.85,2.45Z"/><path d="M95.65,68.7l2.55,-3l-2.55,-3l-2.6,2.95l2.6,3.05Z"/><path d="M100.75,68.7l2.6,-3.05l-2.6,-2.95l-2.55,3l2.55,3Z"/><path d="M76,56.05c1.4,-1.4 2.1,-3.817 2.1,-7.25c0,-0.967 -0.35,-3.15 -1.05,-6.55c-0.767,2.067 -1.4,3.617 -1.9,4.65c0.733,1.667 1.2,2.867 1.4,3.6c-0.745,1.086 -2.762,1.636 -6.05,1.65l0,-0.05c-3.233,0 -5.333,-0.733 -6.3,-2.2c-0.8,-1.267 -1.2,-3.917 -1.2,-7.95l0,-18.95c-0.5,0.6 -1,1.183 -1.5,1.75c-0.367,0.567 -0.55,1.35 -0.55,2.35c0,7.9 0.033,12.967 0.1,15.2c0.267,7.633 0.917,12.233 1.95,13.8c0.833,1.267 2,1.9 3.5,1.9l4,-0l0,-0.05c2.496,-0.096 4.329,-0.729 5.5,-1.9Z"/><path d="M85.05,24.75c-0.367,0.567 -0.55,1.35 -0.55,2.35c0,7.9 0.033,12.967 0.1,15.2c0.267,7.633 0.917,12.233 1.95,13.8c0.833,1.267 2,1.9 3.5,1.9l4,-0l-0,-0.05c2.496,-0.096 4.329,-0.729 5.5,-1.9c1.4,-1.4 2.1,-3.817 2.1,-7.25c-0,-0.967 -0.35,-3.15 -1.05,-6.55c-0.767,2.067 -1.4,3.617 -1.9,4.65c0.733,1.667 1.2,2.867 1.4,3.6c-0.745,1.086 -2.762,1.636 -6.05,1.65l-0,-0.05c-3.233,0 -5.333,-0.733 -6.3,-2.2c-0.8,-1.267 -1.2,-3.917 -1.2,-7.95l-0,-18.95c-0.5,0.6 -1,1.183 -1.5,1.75Z"/><path d="M49.743,69.155l-5.6,4.25c-0.659,0.501 -0.788,1.442 -0.288,2.102c0.501,0.659 1.442,0.788 2.102,0.288l5.6,-4.25c0.659,-0.501 0.788,-1.442 0.288,-2.102c-0.501,-0.659 -1.442,-0.788 -2.102,-0.288Z"/><path d="M94.543,12.555l-5.6,4.25c-0.659,0.501 -0.788,1.442 -0.288,2.102c0.501,0.659 1.442,0.788 2.102,0.288l5.6,-4.25c0.659,-0.501 0.788,-1.442 0.288,-2.102c-0.501,-0.659 -1.442,-0.788 -2.102,-0.288Z"/><path d="M70.143,12.555l-5.6,4.25c-0.659,0.501 -0.788,1.442 -0.288,2.102c0.501,0.659 1.442,0.788 2.102,0.288l5.6,-4.25c0.659,-0.501 0.788,-1.442 0.288,-2.102c-0.501,-0.659 -1.442,-0.788 -2.102,-0.288Z"/></g></svg>