<?xml version="1.0" encoding="UTF-8" standalone="no"?><!DOCTYPE svg PUBLIC "-//W3C//DTD SVG 1.1//EN" "http://www.w3.org/Graphics/SVG/1.1/DTD/svg11.dtd"><svg width="100%" height="100%" viewBox="0 0 43 46" version="1.1" xmlns="http://www.w3.org/2000/svg" xmlns:xlink="http://www.w3.org/1999/xlink" xml:space="preserve" xmlns:serif="http://www.serif.com/" style="fill-rule:evenodd;clip-rule:evenodd;stroke-linejoin:round;stroke-miterlimit:2;"><g><path d="M21.25,37.6c1.033,-0.733 1.55,-2.75 1.55,-6.05l-0.15,-13.3c-1.267,1.467 -1.9,2.35 -1.9,2.65l0.5,16.7Z" style="fill:#f00;"/><path d="M22,12.6c0.2,0.133 0.3,0.3 0.3,0.5c0,0.5 -0.15,0.75 -0.45,0.75l-1.2,-0.2c-0.567,0 -1,0.35 -1.3,1.05c0.6,0.4 1.417,0.6 2.45,0.6l0.85,0c0.4,-0.033 0.7,-0.05 0.9,-0.05c-0.2,0.3 -0.4,0.6 -0.6,0.9c-0.033,0.033 -0.433,0.05 -1.2,0.05c-0.9,0 -1.967,0.433 -3.2,1.3c-0.033,-0.167 -0.05,-0.283 -0.05,-0.35c0,-0.1 0.05,-0.25 0.15,-0.45c0.067,-0.2 0.1,-0.35 0.1,-0.45c0,-0.167 -0.117,-0.417 -0.35,-0.75c-0.2,-0.3 -0.3,-0.517 -0.3,-0.65c0,-0.367 0.45,-0.883 1.35,-1.55c0.9,-0.633 1.567,-0.95 2,-0.95l0.55,0.25Z" style="fill:#f00;"/><path d="M23.375,6.564l-5.45,3.15c-0.407,0.235 -0.546,0.755 -0.311,1.161c0.235,0.407 0.755,0.546 1.161,0.311l5.45,-3.15c0.407,-0.235 0.546,-0.755 0.311,-1.161c-0.235,-0.407 -0.755,-0.546 -1.161,-0.311Z" style="fill:#f00;"/><path d="M22.523,4.315l-5.5,3.2c-0.406,0.236 -0.544,0.757 -0.308,1.162c0.236,0.406 0.757,0.544 1.162,0.308l5.5,-3.2c0.406,-0.236 0.544,-0.757 0.308,-1.162c-0.236,-0.406 -0.757,-0.544 -1.162,-0.308Z" style="fill:#f00;"/></g></svg>