<?xml version="1.0" encoding="UTF-8" standalone="no"?><!DOCTYPE svg PUBLIC "-//W3C//DTD SVG 1.1//EN" "http://www.w3.org/Graphics/SVG/1.1/DTD/svg11.dtd"><svg width="100%" height="100%" viewBox="0 0 41 46" version="1.1" xmlns="http://www.w3.org/2000/svg" xmlns:xlink="http://www.w3.org/1999/xlink" xml:space="preserve" xmlns:serif="http://www.serif.com/" style="fill-rule:evenodd;clip-rule:evenodd;stroke-linejoin:round;stroke-miterlimit:2;"><g><path d="M22.85,19.4c-1.267,1.467 -1.9,2.35 -1.9,2.65l0.5,16.7c1.033,-0.733 1.55,-2.75 1.55,-6.05l-0.15,-13.3Z" style="fill:#f00;"/><path d="M18.3,16c0,0.133 0.1,0.35 0.3,0.65c0.233,0.333 0.35,0.583 0.35,0.75c-0,0.1 -0.033,0.25 -0.1,0.45c-0.1,0.2 -0.15,0.35 -0.15,0.45c-0,0.067 0.017,0.183 0.05,0.35c1.233,-0.867 2.3,-1.3 3.2,-1.3c0.767,0 1.167,-0.017 1.2,-0.05c0.2,-0.3 0.4,-0.6 0.6,-0.9c-0.2,-0 -0.5,0.017 -0.9,0.05l-0.85,-0c-1.033,-0 -1.85,-0.2 -2.45,-0.6c0.3,-0.7 0.733,-1.05 1.3,-1.05c0.133,0 0.333,0.033 0.6,0.1c0.267,0.067 0.467,0.1 0.6,0.1c0.3,0 0.45,-0.25 0.45,-0.75c-0,-0.2 -0.1,-0.367 -0.3,-0.5c-0.167,-0.167 -0.35,-0.25 -0.55,-0.25c-0.433,0 -1.1,0.317 -2,0.95c-0.9,0.667 -1.35,1.183 -1.35,1.55Z" style="fill:#f00;"/><path d="M22.55,7.4c0,-0.567 -0.15,-1.083 -0.45,-1.55c-0.367,-0.5 -0.817,-0.75 -1.35,-0.75c-0.7,0 -1.233,0.333 -1.6,1c-0.3,0.533 -0.45,1.2 -0.45,2c-0,1.267 0.533,1.9 1.6,1.9c0.633,-0 1.167,-0.267 1.6,-0.8c0.433,-0.533 0.65,-1.133 0.65,-1.8Zm-1.45,-0.45c0.433,0.3 0.65,0.583 0.65,0.85c0,0.433 -0.383,0.65 -1.15,0.65c-0.933,-0 -1.4,-0.317 -1.4,-0.95c-0,-0.7 0.3,-1.05 0.9,-1.05c0.267,-0 0.6,0.167 1,0.5Z" style="fill:#f00;"/></g></svg>