<?xml version="1.0" encoding="UTF-8" standalone="no"?><!DOCTYPE svg PUBLIC "-//W3C//DTD SVG 1.1//EN" "http://www.w3.org/Graphics/SVG/1.1/DTD/svg11.dtd"><svg width="100%" height="100%" viewBox="0 0 44 39" version="1.1" xmlns="http://www.w3.org/2000/svg" xmlns:xlink="http://www.w3.org/1999/xlink" xml:space="preserve" xmlns:serif="http://www.serif.com/" style="fill-rule:evenodd;clip-rule:evenodd;stroke-linejoin:round;stroke-miterlimit:2;"><g><path d="M22.526,12.146c0.422,0.139 0.749,0.208 0.983,0.208c0.843,0 1.264,-0.463 1.264,-1.39c-0,-0.324 -0.235,-0.671 -0.702,-1.043c-0.468,-0.371 -0.866,-0.556 -1.194,-0.556c-1.825,0 -3.696,1.831 -5.615,5.492c-0,0.556 0.21,1.205 0.631,1.946c0.422,0.695 0.632,1.158 0.632,1.39c0,0.046 -0.094,0.278 -0.281,0.695c-0.186,0.463 -0.28,0.858 -0.28,1.182c-0,0.324 0.046,0.765 0.14,1.321c2.668,-2.179 4.657,-3.267 5.967,-3.267c0.234,-0 0.608,0.093 1.123,0.278c0.235,-0.139 0.515,-0.556 0.842,-1.251c0.187,-0.511 0.375,-1.019 0.562,-1.53l-2.036,0c-3.229,0 -4.843,-0.556 -4.843,-1.668c-0,-0.371 0.28,-0.81 0.842,-1.321c0.515,-0.51 0.936,-0.764 1.264,-0.764c0.046,-0 0.28,0.093 0.701,0.278Z" style="fill:#f00;"/><path d="M26.599,20.742l-10.6,6.048c-0.671,0.383 -0.902,1.234 -0.516,1.898c0.387,0.665 1.246,0.894 1.918,0.511l10.6,-6.047c0.671,-0.384 0.902,-1.234 0.516,-1.899c-0.387,-0.665 -1.246,-0.894 -1.918,-0.511Z" style="fill:#f00;"/></g></svg>