<?xml version="1.0" encoding="UTF-8" standalone="no"?><!DOCTYPE svg PUBLIC "-//W3C//DTD SVG 1.1//EN" "http://www.w3.org/Graphics/SVG/1.1/DTD/svg11.dtd"><svg width="100%" height="100%" viewBox="0 0 35 39" version="1.1" xmlns="http://www.w3.org/2000/svg" xmlns:xlink="http://www.w3.org/1999/xlink" xml:space="preserve" xmlns:serif="http://www.serif.com/" style="fill-rule:evenodd;clip-rule:evenodd;stroke-linejoin:round;stroke-miterlimit:2;"><g><path d="M16.65,29.75c-0,0.033 -0.067,0.2 -0.2,0.5c-0.133,0.333 -0.2,0.617 -0.2,0.85c0,0.233 0.033,0.55 0.1,0.95c1.9,-1.567 3.317,-2.35 4.25,-2.35c0.167,-0 0.433,0.067 0.8,0.2c0.167,-0.1 0.367,-0.4 0.6,-0.9c0.133,-0.367 0.267,-0.733 0.4,-1.1l-1.45,-0c-2.3,-0 -3.45,-0.4 -3.45,-1.2c-0,-0.267 0.2,-0.583 0.6,-0.95c0.367,-0.367 0.667,-0.55 0.9,-0.55c0.033,-0 0.2,0.067 0.5,0.2c0.3,0.1 0.533,0.15 0.7,0.15c0.6,0 0.9,-0.333 0.9,-1c0,-0.233 -0.167,-0.483 -0.5,-0.75c-0.333,-0.267 -0.617,-0.4 -0.85,-0.4c-1.3,-0 -2.633,1.317 -4,3.95c0,0.4 0.15,0.867 0.45,1.4c0.3,0.5 0.45,0.833 0.45,1Z" style="fill:#f00;"/><path d="M21.35,12.5c-0.333,-0.433 -0.717,-0.65 -1.15,-0.65c-0.7,0 -1.367,0.417 -2,1.25c-0.6,0.8 -0.9,1.567 -0.9,2.3c0,0.9 0.533,1.683 1.6,2.35c-1.033,1.1 -2.017,1.8 -2.95,2.1c0.1,-1.033 0.15,-1.667 0.15,-1.9c0,-1.8 -0.55,-2.7 -1.65,-2.7c-0.633,-0 -1.133,0.3 -1.5,0.9c-0.333,0.5 -0.5,1.083 -0.5,1.75c-0,0.367 0.083,0.8 0.25,1.3c0.167,-1.267 0.567,-1.9 1.2,-1.9c0.333,0 0.6,0.15 0.8,0.45c0.233,0.267 0.35,0.567 0.35,0.9c0,0.533 -0.333,1.6 -1,3.2c1.267,-0.267 2.317,-0.683 3.15,-1.25c0.7,-0.467 1.567,-1.233 2.6,-2.3c0.467,0.367 1.167,0.85 2.1,1.45c0.033,-0.967 0.05,-1.5 0.05,-1.6c-0,-0.567 -0.3,-1.1 -0.9,-1.6c0.533,-1.2 0.8,-2.117 0.8,-2.75c0,-0.467 -0.167,-0.9 -0.5,-1.3Zm-2.15,0.95c0.633,-0 0.95,0.433 0.95,1.3l-0.1,1c-1,-0.733 -1.5,-1.3 -1.5,-1.7l0.2,-0.45c0.2,-0.1 0.35,-0.15 0.45,-0.15Z" style="fill:#f00;"/></g></svg>