<?xml version="1.0" encoding="UTF-8" standalone="no"?><!DOCTYPE svg PUBLIC "-//W3C//DTD SVG 1.1//EN" "http://www.w3.org/Graphics/SVG/1.1/DTD/svg11.dtd"><svg width="100%" height="100%" viewBox="0 0 44 46" version="1.1" xmlns="http://www.w3.org/2000/svg" xmlns:xlink="http://www.w3.org/1999/xlink" xml:space="preserve" xmlns:serif="http://www.serif.com/" style="fill-rule:evenodd;clip-rule:evenodd;stroke-linejoin:round;stroke-miterlimit:2;"><g><path d="M15.9,28.05c-0.167,-0.167 -0.333,-0.25 -0.5,-0.25c-0.4,0 -0.983,0.317 -1.75,0.95c-0.8,0.667 -1.2,1.183 -1.2,1.55c0,0.133 0.083,0.367 0.25,0.7c0.2,0.3 0.3,0.533 0.3,0.7c0,0.1 -0.033,0.25 -0.1,0.45c-0.067,0.2 -0.1,0.35 -0.1,0.45c0,0.1 0.017,0.217 0.05,0.35c0.567,-0.467 1.383,-0.85 2.45,-1.15c0.933,-0.233 1.583,-0.583 1.95,-1.05l-2,0c-0.667,-0.033 -1.233,-0.217 -1.7,-0.55c0.267,-0.733 0.65,-1.1 1.15,-1.1c0.1,0 0.267,0.033 0.5,0.1c0.267,0.067 0.45,0.1 0.55,0.1c0.267,0 0.4,-0.25 0.4,-0.75c0,-0.2 -0.083,-0.367 -0.25,-0.5Z" style="fill:#f00;"/><path d="M15.2,6.4c-1.1,1.467 -1.65,2.35 -1.65,2.65l0.4,16.7c0.933,-0.733 1.4,-2.75 1.4,-6.05l-0.15,-13.3Z" style="fill:#f00;"/><path d="M16.628,32.962l-5.5,3.15c-0.408,0.234 -0.549,0.753 -0.316,1.16c0.234,0.408 0.753,0.549 1.16,0.316l5.5,-3.15c0.408,-0.234 0.549,-0.753 0.316,-1.16c-0.234,-0.408 -0.753,-0.549 -1.16,-0.316Z" style="fill:#f00;"/></g></svg>