<?xml version="1.0" encoding="UTF-8" standalone="no"?><!DOCTYPE svg PUBLIC "-//W3C//DTD SVG 1.1//EN" "http://www.w3.org/Graphics/SVG/1.1/DTD/svg11.dtd"><svg width="100%" height="100%" viewBox="0 0 84 81" version="1.1" xmlns="http://www.w3.org/2000/svg" xmlns:xlink="http://www.w3.org/1999/xlink" xml:space="preserve" xmlns:serif="http://www.serif.com/" style="fill-rule:evenodd;clip-rule:evenodd;stroke-linejoin:round;stroke-miterlimit:2;"><g><path d="M47.6,71.55l2.95,-3.45l-2.95,-3.45l-2.95,3.45l2.95,3.45Z"/><path d="M21.15,22.7c-1.767,2.7 -2.65,4.333 -2.65,4.9l0.65,31.15c1.467,-1.433 2.2,-5.217 2.2,-11.35l-0.2,-24.7Z"/><path d="M32.8,50.6c-0.9,2.067 -1.35,3.733 -1.35,5c0,1.567 0.65,2.55 1.95,2.95c1.167,0.233 2.35,0.45 3.55,0.65c-1.4,2.467 -2.85,4.283 -4.35,5.45c-1.733,1.267 -3.75,1.9 -6.05,1.9c-1.267,-0 -3.083,-0.117 -5.45,-0.35c2.233,2.6 4.8,3.9 7.7,3.9c2.533,0 4.7,-1.233 6.5,-3.7c1.233,-1.7 2.433,-4.267 3.6,-7.7l4.65,0c0.967,0 1.767,-0.433 2.4,-1.3c0.167,-0.233 0.633,-1.133 1.4,-2.7c0.967,1.7 1.467,2.583 1.5,2.65c0.7,0.9 1.483,1.35 2.35,1.35l3.4,0l0,-0.05c2.499,-0.102 4.315,-0.736 5.45,-1.9c1.4,-1.4 2.1,-3.817 2.1,-7.25c-0,-0.967 -0.35,-3.15 -1.05,-6.55c-0.767,2.067 -1.383,3.617 -1.85,4.65c0.733,1.667 1.183,2.867 1.35,3.6c-0.714,1.086 -2.714,1.636 -6,1.65l0,-0.05c-2.533,-0 -4.033,-0.133 -4.5,-0.4c-0.933,-0.533 -1.4,-2.083 -1.4,-4.65c-0.733,0.7 -1.25,1.6 -1.55,2.7c-0.2,0.9 -0.583,1.483 -1.15,1.75c-0.867,0.4 -2.683,0.6 -5.45,0.6l-0,0.25c-0.457,-0.015 -0.923,-0.048 -1.4,-0.1c-0.467,-1.133 -0.917,-2.283 -1.35,-3.45c-0.7,-1.5 -1.433,-2.25 -2.2,-2.25c-0.9,-0 -1.833,1.117 -2.8,3.35Zm3.7,4.2c-0.733,-0 -1.617,-0.083 -2.65,-0.25c0,-0.467 -0.067,-0.767 -0.2,-0.9c0.3,-0.733 0.583,-1.383 0.85,-1.95c0.8,0.433 1.3,0.817 1.5,1.15c0.167,0.3 0.333,0.95 0.5,1.95Z"/><path d="M56.65,37.45l2.55,-3l-2.55,-3l-2.55,2.95l2.55,3.05Z"/><path d="M59.2,34.45l2.55,3l2.6,-3.05l-2.6,-2.95l-2.55,3Z"/><path d="M20.3,12.15c-0.267,-0.3 -0.55,-0.45 -0.85,-0.45c-0.6,0 -1.517,0.6 -2.75,1.8c-1.3,1.2 -1.95,2.15 -1.95,2.85c0,0.267 0.15,0.683 0.45,1.25c0.3,0.567 0.45,1.017 0.45,1.35c-0,0.167 -0.05,0.433 -0.15,0.8c-0.1,0.367 -0.15,0.65 -0.15,0.85c0,0.167 0.017,0.4 0.05,0.7c1.733,-1.633 3.233,-2.45 4.5,-2.45c1.067,0 1.633,-0.017 1.7,-0.05c0.267,-0.567 0.55,-1.117 0.85,-1.65l-1.25,-0c-0.533,0.033 -0.933,0.05 -1.2,0.05c-1.467,0 -2.633,-0.367 -3.5,-1.1c0.433,-1.367 1.05,-2.05 1.85,-2.05c0.2,-0 0.483,0.083 0.85,0.25c0.367,0.133 0.65,0.2 0.85,0.2c0.4,-0 0.6,-0.467 0.6,-1.4c-0,-0.367 -0.117,-0.683 -0.35,-0.95Z"/><path d="M44.2,20.75l0.15,-2.5c-0.367,-0.333 -0.65,-0.583 -0.85,-0.75c0.467,-1.267 0.7,-2.267 0.7,-3c0,-1.467 -0.5,-2.2 -1.5,-2.2c-0.7,-0 -1.333,0.517 -1.9,1.55c-0.467,0.933 -0.7,1.833 -0.7,2.7c0,0.7 0.45,1.45 1.35,2.25c-1.633,1.767 -3.2,3.1 -4.7,4c0.533,0.2 0.95,0.3 1.25,0.3c1.233,0 2.7,-1.217 4.4,-3.65c0.7,0.567 1.3,1 1.8,1.3Zm-2.55,-6.25c0.767,0.133 1.15,0.633 1.15,1.5c-0,0.233 -0.033,0.5 -0.1,0.8c-1,-0.633 -1.5,-1.25 -1.5,-1.85c0.067,-0.267 0.217,-0.417 0.45,-0.45Z"/><path d="M60.293,14.805l-5.6,4.25c-0.659,0.501 -0.788,1.442 -0.288,2.102c0.501,0.659 1.442,0.788 2.102,0.288l5.6,-4.25c0.659,-0.501 0.788,-1.442 0.288,-2.102c-0.501,-0.659 -1.442,-0.788 -2.102,-0.288Z"/><path d="M19.543,3.505l-5.6,4.25c-0.659,0.501 -0.788,1.442 -0.288,2.102c0.501,0.659 1.442,0.788 2.102,0.288l5.6,-4.25c0.659,-0.501 0.788,-1.442 0.288,-2.102c-0.501,-0.659 -1.442,-0.788 -2.102,-0.288Z"/></g></svg>