<?xml version="1.0" encoding="UTF-8" standalone="no"?><!DOCTYPE svg PUBLIC "-//W3C//DTD SVG 1.1//EN" "http://www.w3.org/Graphics/SVG/1.1/DTD/svg11.dtd"><svg width="100%" height="100%" viewBox="0 0 67 90" version="1.1" xmlns="http://www.w3.org/2000/svg" xmlns:xlink="http://www.w3.org/1999/xlink" xml:space="preserve" xmlns:serif="http://www.serif.com/" style="fill-rule:evenodd;clip-rule:evenodd;stroke-linejoin:round;stroke-miterlimit:2;"><g><path d="M38.537,53.088c0.175,1.091 0.263,1.879 0.263,2.362c-0,3.433 -0.7,5.85 -2.1,7.25c-1.171,1.171 -3.004,1.804 -5.5,1.9c-0.206,0.029 -0.423,0.046 -0.65,0.05l-1.5,0l-0,-5.85l2.15,0c3.288,-0.014 5.305,-0.564 6.05,-1.65c-0.2,-0.733 -0.667,-1.933 -1.4,-3.6c0.5,-1.033 1.133,-2.583 1.9,-4.65l0.787,4.188Z" style="fill:#f00;"/><path d="M32.65,38.45c-0,0.267 0.15,0.7 0.45,1.3c0.3,0.567 0.45,1 0.45,1.3c-0,0.167 -0.033,0.433 -0.1,0.8c-0.1,0.4 -0.15,0.683 -0.15,0.85c-0,0.2 0.017,0.45 0.05,0.75c1.733,-1.633 3.233,-2.45 4.5,-2.45c1.067,0 1.633,-0.033 1.7,-0.1c0.267,-0.533 0.533,-1.083 0.8,-1.65c-0.267,0 -0.667,0.017 -1.2,0.05c-0.567,0.033 -0.983,0.05 -1.25,0.05c-1.467,0 -2.617,-0.383 -3.45,-1.15c0.433,-1.333 1.05,-2 1.85,-2c0.2,0 0.483,0.067 0.85,0.2c0.367,0.133 0.633,0.2 0.8,0.2c0.4,0 0.6,-0.45 0.6,-1.35c-0,-0.367 -0.117,-0.7 -0.35,-1c-0.233,-0.3 -0.517,-0.45 -0.85,-0.45c-0.6,0 -1.517,0.6 -2.75,1.8c-1.3,1.233 -1.95,2.183 -1.95,2.85Z" style="fill:#f00;"/><path d="M33.35,23.2c-0.4,0.767 -0.6,1.7 -0.6,2.8c0,1.767 0.65,2.65 1.95,2.65c0.8,0 1.467,-0.367 2,-1.1c0.533,-0.733 0.8,-1.567 0.8,-2.5c0,-0.8 -0.183,-1.517 -0.55,-2.15c-0.467,-0.7 -1.017,-1.05 -1.65,-1.05c-0.867,-0 -1.517,0.45 -1.95,1.35Zm1.1,0.55c0.333,0 0.75,0.217 1.25,0.65c0.533,0.433 0.8,0.833 0.8,1.2c0,0.567 -0.467,0.85 -1.4,0.85c-1.167,-0 -1.75,-0.417 -1.75,-1.25c0,-0.967 0.367,-1.45 1.1,-1.45Z" style="fill:#f00;"/><path d="M27.15,74.05l-2.95,-3.45l-2.95,3.45l2.95,3.45l2.95,-3.45Z"/><path d="M48.65,44.15c-0.167,0.9 -0.25,1.95 -0.25,3.15l0.05,4.15c1.367,-0 2.817,0.7 4.35,2.1c1.6,1.467 2.4,3 2.4,4.6c0,0.633 -0.883,1.167 -2.65,1.6c-1.367,0.333 -2.517,0.5 -3.45,0.5c-1.3,0 -2.617,-0.433 -3.95,-1.3c-0.167,2.1 -0.25,3.267 -0.25,3.5c-0,1.633 0.45,2.667 1.35,3.1c0.5,0.233 1.6,0.35 3.3,0.35c2.133,0 3.783,-0.75 4.95,-2.25c1.067,-1.433 1.6,-3.433 1.6,-6c0,-3.067 -0.617,-5.8 -1.85,-8.2c-1.367,-2.6 -3.233,-4.367 -5.6,-5.3Z"/><path d="M11.8,29.65c-0.5,0.6 -1,1.183 -1.5,1.75c-0.367,0.567 -0.55,1.35 -0.55,2.35c0,7.9 0.033,12.967 0.1,15.2c0.267,7.633 0.917,12.233 1.95,13.8c0.833,1.267 2,1.9 3.5,1.9l4.85,0c0.967,0 1.767,-0.433 2.4,-1.3c0.167,-0.233 0.633,-1.133 1.4,-2.7c0.967,1.7 1.467,2.583 1.5,2.65c0.7,0.9 1.483,1.35 2.35,1.35l1.25,0l-0,-5.85l2.15,0l0,-0.05c-2.533,-0 -4.033,-0.133 -4.5,-0.4c-0.933,-0.533 -1.4,-2.083 -1.4,-4.65c-0.733,0.7 -1.25,1.6 -1.55,2.7c-0.2,0.9 -0.583,1.483 -1.15,1.75c-0.72,0.332 -2.103,0.516 -4.15,0.55c-2.752,-0.096 -4.568,-0.813 -5.45,-2.15c-0.8,-1.267 -1.2,-3.917 -1.2,-7.95l-0,-18.95Z"/><path d="M31.2,64.65l0,-0.05c-0.206,0.029 -0.423,0.046 -0.65,0.05l0.65,0Z"/><path d="M53.3,34.65l-2.9,-3.45l-2.95,3.45l2.9,3.4l2.95,-3.4Z"/><path d="M50.343,69.605l-5.6,4.25c-0.659,0.501 -0.788,1.442 -0.288,2.102c0.501,0.659 1.442,0.788 2.102,0.288l5.6,-4.25c0.659,-0.501 0.788,-1.442 0.288,-2.102c-0.501,-0.659 -1.442,-0.788 -2.102,-0.288Z"/><path d="M20.75,22.3l-5.6,4.2c-0.662,0.497 -0.797,1.438 -0.3,2.1c0.497,0.662 1.438,0.797 2.1,0.3l5.6,-4.2c0.662,-0.497 0.797,-1.438 0.3,-2.1c-0.497,-0.662 -1.438,-0.797 -2.1,-0.3Z"/><path d="M19.95,18l-5.6,4.2c-0.662,0.497 -0.797,1.438 -0.3,2.1c0.497,0.662 1.438,0.797 2.1,0.3l5.6,-4.2c0.662,-0.497 0.797,-1.438 0.3,-2.1c-0.497,-0.662 -1.438,-0.797 -2.1,-0.3Z"/></g></svg>