<?xml version="1.0" encoding="UTF-8" standalone="no"?><!DOCTYPE svg PUBLIC "-//W3C//DTD SVG 1.1//EN" "http://www.w3.org/Graphics/SVG/1.1/DTD/svg11.dtd"><svg width="100%" height="100%" viewBox="0 0 24 24" version="1.1" xmlns="http://www.w3.org/2000/svg" xmlns:xlink="http://www.w3.org/1999/xlink" xml:space="preserve" xmlns:serif="http://www.serif.com/" style="fill-rule:evenodd;clip-rule:evenodd;stroke-linejoin:round;stroke-miterlimit:2;"><g><path d="M13.25,14c0,-0.4 -0.217,-1.333 -0.65,-2.8c-0.5,0.9 -0.9,1.567 -1.2,2c0.467,0.7 0.767,1.217 0.9,1.55c-0.5,0.5 -1.917,0.733 -4.25,0.7l-0.85,-0l-0,2.55l0.75,0c1.833,0 3.15,-0.283 3.95,-0.85c0.9,-0.6 1.35,-1.65 1.35,-3.15Z" style="fill:#f00;"/><path d="M11.1,8.45l-1.6,-1.3l-1.6,1.3l1.6,1.3l1.6,-1.3Z" style="fill:#f00;"/><path d="M12.7,7.15l-1.6,1.3l1.6,1.3l1.6,-1.3l-1.6,-1.3Z" style="fill:#f00;"/><path d="M11.2,7.05l1.6,-1.3l-1.6,-1.3l-1.6,1.3l1.6,1.3Z" style="fill:#f00;"/></g></svg>