<?xml version="1.0" encoding="UTF-8" standalone="no"?><!DOCTYPE svg PUBLIC "-//W3C//DTD SVG 1.1//EN" "http://www.w3.org/Graphics/SVG/1.1/DTD/svg11.dtd"><svg width="100%" height="100%" viewBox="0 0 24 24" version="1.1" xmlns="http://www.w3.org/2000/svg" xmlns:xlink="http://www.w3.org/1999/xlink" xml:space="preserve" xmlns:serif="http://www.serif.com/" style="fill-rule:evenodd;clip-rule:evenodd;stroke-linejoin:round;stroke-miterlimit:2;"><g><path d="M22.45,17.15l-0,-2.55c-1.067,0 -1.767,-0.133 -2.1,-0.4c-0.367,-0.267 -0.633,-0.833 -0.8,-1.7c-2.233,1.833 -5.1,2.75 -8.6,2.75c-1.567,-0 -3.017,-0.183 -4.35,-0.55c-1.833,-0.5 -2.75,-1.283 -2.75,-2.35c0,-0.433 0.267,-1.1 0.8,-2c-0.6,0.333 -1.083,0.817 -1.45,1.45c-0.367,0.567 -0.55,1.167 -0.55,1.8c-0,1.3 0.65,2.317 1.95,3.05c1.133,0.633 2.533,0.95 4.2,0.95c3.333,0 6.683,-0.783 10.05,-2.35c0.8,1.267 1.6,1.9 2.4,1.9l1.2,-0Z" style="fill:#f00;"/><path d="M12.7,7.7l1.6,1.3l1.6,-1.35l-1.6,-1.25l-1.6,1.3Z" style="fill:#f00;"/><path d="M11.1,9l1.6,-1.3l-1.6,-1.3l-1.6,1.25l1.6,1.35Z" style="fill:#f00;"/><path d="M12.8,6.3l1.6,-1.35l-1.6,-1.3l-1.6,1.3l1.6,1.35Z" style="fill:#f00;"/></g></svg>