<?xml version="1.0" encoding="UTF-8" standalone="no"?><!DOCTYPE svg PUBLIC "-//W3C//DTD SVG 1.1//EN" "http://www.w3.org/Graphics/SVG/1.1/DTD/svg11.dtd"><svg width="100%" height="100%" viewBox="0 0 102 82" version="1.1" xmlns="http://www.w3.org/2000/svg" xmlns:xlink="http://www.w3.org/1999/xlink" xml:space="preserve" xmlns:serif="http://www.serif.com/" style="fill-rule:evenodd;clip-rule:evenodd;stroke-linejoin:round;stroke-miterlimit:2;"><g><path d="M49.8,50l-2.3,0c-0.29,-0.016 -0.574,-0.033 -0.85,-0.05l-0,5.75l3,0c1.1,0 1.983,-0.417 2.65,-1.25c0.1,-0.133 0.633,-1.033 1.6,-2.7c0.5,0.867 1.2,1.7 2.1,2.5c1.067,0.967 1.967,1.45 2.7,1.45l3.55,0l-0,-5.65l-0.05,-0c-1.167,0.067 -1.967,0.1 -2.4,0.1c-1.467,-0 -2.517,-0.3 -3.15,-0.9c-0.767,-0.733 -1.183,-2.1 -1.25,-4.1c-1.3,2.2 -2.2,3.533 -2.7,4c-0.633,0.567 -1.6,0.85 -2.9,0.85Z" style="fill:#f00;"/><path d="M58.3,38.1l2.9,-3l-2.9,-2.95l-2.85,3l2.85,2.95Z" style="fill:#f00;"/><path d="M52.55,38.1l2.9,-2.95l-2.85,-3l-2.9,2.95l2.85,3Z" style="fill:#f00;"/><path d="M81.5,68.3l3.3,-3.35l-3.3,-3.4l-3.3,3.4l3.3,3.35Z"/><path d="M25.15,41.8c-0.667,1.3 -1.317,3.1 -1.95,5.4c1.167,1.633 1.933,2.783 2.3,3.45c0.733,1.333 1.1,2.633 1.1,3.9c0,1.567 -1.2,2.9 -3.6,4c-1.967,0.9 -3.833,1.35 -5.6,1.35c-4.367,-0 -6.55,-1.9 -6.55,-5.7c0,-0.633 0.117,-1.55 0.35,-2.75c0.233,-1.2 0.35,-2.117 0.35,-2.75c-0.867,0.967 -1.583,2.317 -2.15,4.05c-0.5,1.567 -0.75,3.083 -0.75,4.55c-0,2.667 0.783,4.7 2.35,6.1c1.433,1.3 3.467,1.95 6.1,1.95c3.267,0 6.017,-1.217 8.25,-3.65c2.233,-2.433 3.35,-5.35 3.35,-8.75c0,-4.4 -1.183,-8.117 -3.55,-11.15Z"/><path d="M69.65,47.55c-0.233,0.9 -0.65,1.483 -1.25,1.75c-1,0.4 -3.05,0.6 -6.15,0.6l-0,5.8l3.4,0c1.067,0 1.95,-0.417 2.65,-1.25c0.2,-0.267 0.733,-1.167 1.6,-2.7c1.067,1.667 1.633,2.533 1.7,2.6c0.733,0.9 1.6,1.35 2.6,1.35l3.85,0l-0,-0.05c2.783,-0.099 4.816,-0.715 6.1,-1.85c1.567,-1.4 2.35,-3.8 2.35,-7.2c0,-0.933 -0.383,-3.067 -1.15,-6.4c-0.867,2.033 -1.567,3.567 -2.1,4.6c0.8,1.633 1.317,2.8 1.55,3.5c-0.837,1.054 -3.087,1.604 -6.75,1.65l-0,-0.05c-2.833,-0 -4.517,-0.133 -5.05,-0.4c-1.067,-0.533 -1.6,-2.05 -1.6,-4.55c-0.833,0.667 -1.417,1.533 -1.75,2.6Z"/><path d="M36.6,22.95c-0.433,0.567 -0.65,1.35 -0.65,2.35c0,7.767 0.05,12.75 0.15,14.95c0.3,7.5 1.017,12.033 2.15,13.6c0.933,1.233 2.25,1.85 3.95,1.85l4.45,0l-0,-5.8c-3.6,-0 -5.95,-0.733 -7.05,-2.2c-0.9,-1.233 -1.35,-3.833 -1.35,-7.8l-0,-18.65c-0.567,0.567 -1.117,1.133 -1.65,1.7Z"/><path d="M20.25,36.3l-3.3,-3.4l-3.3,3.4l3.3,3.35l3.3,-3.35Z"/><path d="M73,35.55l-3.25,-3.45l-3.3,3.45l3.25,3.3l3.3,-3.3Z"/><path d="M67.15,14.6c-0.4,0.733 -0.6,1.65 -0.6,2.75c-0,1.733 0.733,2.6 2.2,2.6c0.867,0 1.6,-0.367 2.2,-1.1c0.6,-0.7 0.9,-1.517 0.9,-2.45c0,-0.767 -0.217,-1.467 -0.65,-2.1c-0.5,-0.7 -1.117,-1.05 -1.85,-1.05c-0.967,-0 -1.7,0.45 -2.2,1.35Zm3.6,2.35c-0,0.567 -0.533,0.85 -1.6,0.85c-1.3,-0 -1.95,-0.417 -1.95,-1.25c0,-0.967 0.417,-1.45 1.25,-1.45c0.367,0 0.833,0.217 1.4,0.65c0.6,0.433 0.9,0.833 0.9,1.2Z"/><path d="M83.709,68.993l-6.3,4.65c-0.666,0.492 -0.807,1.432 -0.316,2.098c0.492,0.666 1.432,0.807 2.098,0.316l6.3,-4.65c0.666,-0.492 0.807,-1.432 0.316,-2.098c-0.492,-0.666 -1.432,-0.807 -2.098,-0.316Z"/><path d="M16.059,66.693l-6.3,4.65c-0.666,0.492 -0.807,1.432 -0.316,2.098c0.492,0.666 1.432,0.807 2.098,0.316l6.3,-4.65c0.666,-0.492 0.807,-1.432 0.316,-2.098c-0.492,-0.666 -1.432,-0.807 -2.098,-0.316Z"/><path d="M49.009,10.993l-6.3,4.65c-0.666,0.492 -0.807,1.432 -0.316,2.098c0.492,0.666 1.432,0.807 2.098,0.316l6.3,-4.65c0.666,-0.492 0.807,-1.432 0.316,-2.098c-0.492,-0.666 -1.432,-0.807 -2.098,-0.316Z"/></g></svg>