<?xml version="1.0" encoding="UTF-8" standalone="no"?><!DOCTYPE svg PUBLIC "-//W3C//DTD SVG 1.1//EN" "http://www.w3.org/Graphics/SVG/1.1/DTD/svg11.dtd"><svg width="100%" height="100%" viewBox="0 0 101 75" version="1.1" xmlns="http://www.w3.org/2000/svg" xmlns:xlink="http://www.w3.org/1999/xlink" xml:space="preserve" xmlns:serif="http://www.serif.com/" style="fill-rule:evenodd;clip-rule:evenodd;stroke-linejoin:round;stroke-miterlimit:2;"><g><path d="M22.05,50.7c-2.867,-0 -5.483,-0.417 -7.85,-1.25c-3.3,-1.167 -4.95,-2.917 -4.95,-5.25c0,-1.033 0.5,-2.55 1.5,-4.55c-1.1,0.767 -1.983,1.833 -2.65,3.2c-0.7,1.333 -1.05,2.7 -1.05,4.1c-0,2.933 1.183,5.233 3.55,6.9c2.033,1.433 4.55,2.15 7.55,2.15c5.967,-0 11.967,-1.767 18,-5.3c1.433,2.867 2.9,4.3 4.4,4.3l0.05,-0l0,-5.75l2,-0l0,-0.05c-1.867,-0 -3.117,-0.3 -3.75,-0.9c-0.633,-0.6 -1.083,-1.883 -1.35,-3.85c-4.033,4.167 -9.183,6.25 -15.45,6.25Z" style="fill:#f00;"/><path d="M76.75,39.5c-0.867,2.033 -1.567,3.567 -2.1,4.6c0.8,1.633 1.317,2.8 1.55,3.5c-0.841,1.059 -3.108,1.609 -6.8,1.65l-0,5.7c2.808,-0.092 4.858,-0.708 6.15,-1.85c1.567,-1.4 2.35,-3.8 2.35,-7.2c-0,-0.933 -0.383,-3.067 -1.15,-6.4Z" style="fill:#f00;"/><path d="M19.1,34.4l2.85,3l2.85,-2.95l-2.85,-3l-2.85,2.95Z" style="fill:#f00;"/><path d="M24.8,34.45l2.9,2.95l2.9,-3l-2.9,-2.95l-2.9,3Z" style="fill:#f00;"/><path d="M71.2,36.3l2.85,-2.95l-2.85,-2.95l-2.85,2.9l2.85,3Z" style="fill:#f00;"/><path d="M76.95,36.3l2.9,-3l-2.9,-2.9l-2.9,2.95l2.9,2.95Z" style="fill:#f00;"/><path d="M74.2,30.15l2.9,-3l-2.85,-2.95l-2.9,2.95l2.85,3Z" style="fill:#f00;"/><path d="M46.5,62.6l3.3,-3.35l-3.3,-3.4l-3.3,3.4l3.3,3.35Z"/><path d="M42.6,49.25l-2,0l0,5.75l2,0c3.014,-0.071 5.198,-0.705 6.55,-1.9c1.567,-1.4 2.35,-3.8 2.35,-7.2c0,-0.933 -0.383,-3.067 -1.15,-6.4c-0.867,2.033 -1.567,3.567 -2.1,4.6c0.8,1.633 1.317,2.8 1.55,3.5c-0.871,1.097 -3.271,1.647 -7.2,1.65Z"/><path d="M61,39.2c0,3.967 0.45,6.567 1.35,7.8c1.1,1.467 3.45,2.2 7.05,2.2l-0,5.8l-4.45,0c-1.7,0 -3.017,-0.617 -3.95,-1.85c-1.133,-1.567 -1.85,-6.1 -2.15,-13.6c-0.1,-2.2 -0.15,-7.183 -0.15,-14.95c0,-1 0.217,-1.783 0.65,-2.35c0.533,-0.567 1.083,-1.133 1.65,-1.7l0,18.65Z"/><path d="M22,19.75c0.067,-1.067 0.1,-1.7 0.1,-1.9c0,-1.833 -0.567,-2.75 -1.7,-2.75c-0.633,-0 -1.133,0.3 -1.5,0.9c-0.367,0.533 -0.55,1.133 -0.55,1.8c0,0.333 0.083,0.75 0.25,1.25c0.167,-1.233 0.583,-1.85 1.25,-1.85c0.333,-0 0.617,0.133 0.85,0.4c0.2,0.3 0.3,0.617 0.3,0.95c-0,0.533 -0.333,1.583 -1,3.15c1.3,-0.233 2.4,-0.633 3.3,-1.2c0.7,-0.467 1.583,-1.25 2.65,-2.35c0.467,0.4 1.2,0.883 2.2,1.45c0.033,-0.933 0.05,-1.45 0.05,-1.55c0,-0.6 -0.317,-1.133 -0.95,-1.6c0.533,-1.233 0.8,-2.167 0.8,-2.8c-0,-0.467 -0.167,-0.917 -0.5,-1.35c-0.333,-0.4 -0.717,-0.6 -1.15,-0.6c-0.767,-0 -1.467,0.4 -2.1,1.2c-0.633,0.833 -0.95,1.617 -0.95,2.35c0,0.9 0.55,1.683 1.65,2.35c-1.067,1.133 -2.067,1.85 -3,2.15Zm2.9,-6.3c0.2,-0.1 0.333,-0.15 0.4,-0.15c0.667,0 1,0.433 1,1.3l-0.05,1c-1.067,-0.733 -1.6,-1.3 -1.6,-1.7l0.25,-0.45Z"/><path d="M48.011,63.942l-6.25,4.6c-0.667,0.491 -0.81,1.43 -0.319,2.097c0.491,0.667 1.43,0.81 2.097,0.319l6.25,-4.6c0.667,-0.491 0.81,-1.43 0.319,-2.097c-0.491,-0.667 -1.43,-0.81 -2.097,-0.319Z"/><path d="M71.459,9.693l-6.3,4.65c-0.666,0.492 -0.807,1.432 -0.316,2.098c0.492,0.666 1.432,0.807 2.098,0.316l6.3,-4.65c0.666,-0.492 0.807,-1.432 0.316,-2.098c-0.492,-0.666 -1.432,-0.807 -2.098,-0.316Z"/></g></svg>