<?xml version="1.0" encoding="UTF-8" standalone="no"?><!DOCTYPE svg PUBLIC "-//W3C//DTD SVG 1.1//EN" "http://www.w3.org/Graphics/SVG/1.1/DTD/svg11.dtd"><svg width="100%" height="100%" viewBox="0 0 85 72" version="1.1" xmlns="http://www.w3.org/2000/svg" xmlns:xlink="http://www.w3.org/1999/xlink" xml:space="preserve" xmlns:serif="http://www.serif.com/" style="fill-rule:evenodd;clip-rule:evenodd;stroke-linejoin:round;stroke-miterlimit:2;"><g><path d="M61.75,48.15l-1.6,-0l0,5.75l1.65,-0c0.248,-0.004 0.481,-0.021 0.7,-0.05c2.834,-0.085 4.901,-0.702 6.2,-1.85c1.567,-1.4 2.35,-3.8 2.35,-7.2c-0,-0.933 -0.383,-3.067 -1.15,-6.4c-0.867,2.033 -1.567,3.567 -2.1,4.6c0.8,1.633 1.317,2.8 1.55,3.5c-0.9,1.133 -3.433,1.683 -7.6,1.65Z" style="fill:#f00;"/><path d="M67.2,32.25l-2.85,-2.95l-2.85,2.9l2.85,3l2.85,-2.95Z" style="fill:#f00;"/><path d="M70.1,29.3l-2.9,2.95l2.9,2.95l2.9,-3l-2.9,-2.9Z" style="fill:#f00;"/><path d="M67.35,29.05l2.9,-3l-2.85,-2.95l-2.9,2.95l2.85,3Z" style="fill:#f00;"/><path d="M23.05,59.75l-3.3,3.4l3.3,3.35l3.3,-3.35l-3.3,-3.4Z"/><path d="M38.3,18.45c-2,2.667 -2.983,4.283 -2.95,4.85l0.7,30.65c1.667,-1.4 2.5,-5.117 2.5,-11.15l-0.25,-24.35Z"/><path d="M61.8,53.9l0.7,-0l-0,-0.05c-0.219,0.029 -0.452,0.046 -0.7,0.05Z"/><path d="M9.5,21.15c-0.433,0.567 -0.65,1.35 -0.65,2.35c-0,7.767 0.05,12.75 0.15,14.95c0.3,7.5 1.017,12.033 2.15,13.6c0.933,1.233 2.25,1.85 3.95,1.85l4.45,-0l-0,-0.05c2.808,-0.092 4.858,-0.708 6.15,-1.85c1.567,-1.4 2.35,-3.8 2.35,-7.2c-0,-0.933 -0.383,-3.067 -1.15,-6.4c-0.867,2.033 -1.567,3.567 -2.1,4.6c0.8,1.633 1.317,2.8 1.55,3.5c-0.841,1.059 -3.108,1.609 -6.8,1.65l-0,-0.05c-3.6,0 -5.95,-0.733 -7.05,-2.2c-0.9,-1.233 -1.35,-3.833 -1.35,-7.8l0,-18.65c-0.567,0.567 -1.117,1.133 -1.65,1.7Z"/><path d="M57,44.85c-0.8,-1.467 -1.617,-2.2 -2.45,-2.2c-1,-0 -2.05,1.1 -3.15,3.3c-1,2 -1.5,3.633 -1.5,4.9c0,1.533 0.717,2.5 2.15,2.9c1.333,0.2 2.667,0.417 4,0.65c-1.567,2.433 -3.2,4.217 -4.9,5.35c-1.9,1.267 -4.15,1.9 -6.75,1.9c-1.4,-0 -3.433,-0.117 -6.1,-0.35c2.467,2.533 5.35,3.8 8.65,3.8c2.833,0 5.25,-1.217 7.25,-3.65c1.4,-1.667 2.767,-4.183 4.1,-7.55l1.85,-0l0,-5.55c-0.526,-0.014 -1.059,-0.047 -1.6,-0.1c-0.533,-1.133 -1.05,-2.267 -1.55,-3.4Zm-4.4,4.95c-0,-0.433 -0.083,-0.733 -0.25,-0.9c0.333,-0.7 0.667,-1.333 1,-1.9c0.867,0.433 1.4,0.817 1.6,1.15c0.233,0.3 0.433,0.933 0.6,1.9c-0.833,0 -1.817,-0.083 -2.95,-0.25Z"/><path d="M22.098,16.332l-5.85,3.7c-0.699,0.443 -0.908,1.37 -0.466,2.07c0.443,0.699 1.37,0.908 2.07,0.466l5.85,-3.7c0.699,-0.443 0.908,-1.37 0.466,-2.07c-0.443,-0.699 -1.37,-0.908 -2.07,-0.466Z"/><path d="M67.505,13.147l-6.25,4.65c-0.665,0.494 -0.803,1.434 -0.308,2.098c0.494,0.665 1.434,0.803 2.098,0.308l6.25,-4.65c0.665,-0.494 0.803,-1.434 0.308,-2.098c-0.494,-0.665 -1.434,-0.803 -2.098,-0.308Z"/><path d="M50.009,13.143l-6.3,4.65c-0.666,0.492 -0.807,1.432 -0.316,2.098c0.492,0.666 1.432,0.807 2.098,0.316l6.3,-4.65c0.666,-0.492 0.807,-1.432 0.316,-2.098c-0.492,-0.666 -1.432,-0.807 -2.098,-0.316Z"/><path d="M21.193,13.085l-5.8,3.7c-0.698,0.446 -0.903,1.374 -0.458,2.072c0.446,0.698 1.374,0.903 2.072,0.458l5.8,-3.7c0.698,-0.446 0.903,-1.374 0.458,-2.072c-0.446,-0.698 -1.374,-0.903 -2.072,-0.458Z"/></g></svg>