<?xml version="1.0" encoding="UTF-8" standalone="no"?><!DOCTYPE svg PUBLIC "-//W3C//DTD SVG 1.1//EN" "http://www.w3.org/Graphics/SVG/1.1/DTD/svg11.dtd"><svg width="100%" height="100%" viewBox="0 0 97 82" version="1.1" xmlns="http://www.w3.org/2000/svg" xmlns:xlink="http://www.w3.org/1999/xlink" xml:space="preserve" xmlns:serif="http://www.serif.com/" style="fill-rule:evenodd;clip-rule:evenodd;stroke-linejoin:round;stroke-miterlimit:2;"><g><path d="M38.7,49.95c0.469,0 0.903,-0.017 1.3,-0.05c-1.478,-0.041 -2.495,-0.324 -3.05,-0.85c-0.633,-0.6 -1.083,-1.883 -1.35,-3.85c-4.033,4.167 -9.183,6.25 -15.45,6.25c-2.867,0 -5.483,-0.417 -7.85,-1.25c-3.3,-1.167 -4.95,-2.917 -4.95,-5.25c0,-1.033 0.5,-2.55 1.5,-4.55c-1.1,0.767 -1.983,1.833 -2.65,3.2c-0.7,1.333 -1.05,2.7 -1.05,4.1c-0,2.933 1.183,5.233 3.55,6.9c2.033,1.433 4.55,2.15 7.55,2.15c5.967,-0 11.967,-1.767 18,-5.3c1.433,2.867 2.9,4.3 4.4,4.3l0.05,-0l0,-5.8Z" style="fill:#f00;"/><path d="M59.7,44.85c0.8,1.633 1.3,2.8 1.5,3.5c-0.803,1.05 -3.036,1.6 -6.7,1.65l-2.45,0l-0,5.75l1.8,0c0.221,-0.006 0.438,-0.023 0.65,-0.05c2.76,-0.105 4.794,-0.722 6.1,-1.85c1.567,-1.4 2.35,-3.8 2.35,-7.2c0,-0.933 -0.4,-3.067 -1.2,-6.4c-0.833,2.033 -1.517,3.567 -2.05,4.6Z" style="fill:#f00;"/><path d="M28.7,35.15l-2.9,-2.95l-2.9,3l2.9,2.95l2.9,-3Z" style="fill:#f00;"/><path d="M22.9,35.2l-2.85,-3l-2.85,2.95l2.85,3l2.85,-2.95Z" style="fill:#f00;"/><path d="M56.8,28.95l-2.95,2.9l2.9,3l2.85,-2.95l-2.8,-2.95Z" style="fill:#f00;"/><path d="M62.5,34.85l2.9,-3l-2.9,-2.9l-2.9,2.95l2.9,2.95Z" style="fill:#f00;"/><path d="M43.3,65l3.3,3.35l3.3,-3.35l-3.3,-3.35l-3.3,3.35Z"/><path d="M46.1,47.6c-0.233,0.9 -0.65,1.483 -1.25,1.75c-0.849,0.339 -2.465,0.523 -4.85,0.55c-0.397,0.033 -0.831,0.05 -1.3,0.05l0,5.8l3.4,0c1.067,0 1.95,-0.417 2.65,-1.25c0.2,-0.267 0.733,-1.167 1.6,-2.7c1.067,1.667 1.633,2.533 1.7,2.6c0.733,0.9 1.6,1.35 2.6,1.35l1.4,0l-0,-5.75l2.45,0l-0,-0.05c-2.833,0 -4.517,-0.133 -5.05,-0.4c-1.067,-0.533 -1.6,-2.05 -1.6,-4.55c-0.833,0.667 -1.417,1.533 -1.75,2.6Z"/><path d="M53.85,55.75l0.65,0l0,-0.05c-0.212,0.027 -0.429,0.044 -0.65,0.05Z"/><path d="M81.65,49.6c0,-1.633 -0.267,-3.217 -0.8,-4.75c-0.733,-2.067 -1.767,-3.1 -3.1,-3.1c-1.1,0 -2.15,1.017 -3.15,3.05c-0.867,1.8 -1.3,3.367 -1.3,4.7c-0,2.3 0.867,3.45 2.6,3.45c1.367,0 2.633,-0.767 3.8,-2.3c0.333,0.7 0.5,1.333 0.5,1.9c0,3.367 -2.317,6.05 -6.95,8.05c-3.6,1.533 -7.283,2.3 -11.05,2.3c1.833,0.733 3.083,1.217 3.75,1.45c1.3,0.367 2.633,0.55 4,0.55c3.8,-0 6.767,-1.617 8.9,-4.85c1.867,-2.833 2.8,-6.317 2.8,-10.45Zm-6.4,-1c0.433,-1.033 0.85,-1.967 1.25,-2.8c1.3,0.6 1.95,1.367 1.95,2.3c0,0.333 -0.183,0.633 -0.55,0.9c-0.4,0.233 -0.783,0.35 -1.15,0.35c-0.033,0 -0.533,-0.25 -1.5,-0.75Z"/><path d="M47.3,17.9c-0,-0.767 -0.217,-1.467 -0.65,-2.1c-0.5,-0.7 -1.117,-1.05 -1.85,-1.05c-0.967,-0 -1.7,0.45 -2.2,1.35c-0.4,0.733 -0.6,1.65 -0.6,2.75c0,1.733 0.733,2.6 2.2,2.6c0.867,0 1.6,-0.367 2.2,-1.1c0.6,-0.7 0.9,-1.517 0.9,-2.45Zm-3.4,-1.3c0.367,0 0.833,0.217 1.4,0.65c0.6,0.433 0.9,0.833 0.9,1.2c0,0.567 -0.533,0.85 -1.6,0.85c-1.3,-0 -1.95,-0.417 -1.95,-1.25c0,-0.967 0.417,-1.45 1.25,-1.45Z"/><path d="M53.45,20.55c0.6,0.2 1.067,0.3 1.4,0.3c1.4,0 3.05,-1.183 4.95,-3.55c0.767,0.567 1.433,0.983 2,1.25l0.2,-2.45c-0.433,-0.333 -0.767,-0.583 -1,-0.75c0.533,-1.233 0.8,-2.217 0.8,-2.95c-0,-1.433 -0.567,-2.15 -1.7,-2.15c-0.767,-0 -1.467,0.5 -2.1,1.5c-0.533,0.933 -0.8,1.817 -0.8,2.65c0,0.7 0.517,1.433 1.55,2.2c-1.867,1.767 -3.633,3.083 -5.3,3.95Zm5,-7.7c0.067,-0.267 0.233,-0.417 0.5,-0.45c0.867,0.133 1.3,0.633 1.3,1.5c0,0.2 -0.05,0.45 -0.15,0.75c-1.1,-0.633 -1.65,-1.233 -1.65,-1.8Z"/><path d="M24.6,11.85c0,-1.433 -0.567,-2.15 -1.7,-2.15c-0.767,0 -1.467,0.5 -2.1,1.5c-0.533,0.933 -0.8,1.817 -0.8,2.65c0,0.7 0.517,1.433 1.55,2.2c-1.867,1.767 -3.633,3.083 -5.3,3.95c0.6,0.2 1.067,0.3 1.4,0.3c1.4,-0 3.05,-1.183 4.95,-3.55c0.767,0.567 1.433,0.983 2,1.25l0.2,-2.45c-0.433,-0.333 -0.767,-0.583 -1,-0.75c0.533,-1.233 0.8,-2.217 0.8,-2.95Zm-3.35,0.45c0.067,-0.267 0.233,-0.417 0.5,-0.45c0.867,0.133 1.3,0.633 1.3,1.5c-0,0.2 -0.05,0.45 -0.15,0.75c-1.1,-0.633 -1.65,-1.233 -1.65,-1.8Z"/><path d="M76.759,10.993l-6.3,4.65c-0.666,0.492 -0.807,1.432 -0.316,2.098c0.492,0.666 1.432,0.807 2.098,0.316l6.3,-4.65c0.666,-0.492 0.807,-1.432 0.316,-2.098c-0.492,-0.666 -1.432,-0.807 -2.098,-0.316Z"/></g></svg>