<?xml version="1.0" encoding="UTF-8" standalone="no"?><!DOCTYPE svg PUBLIC "-//W3C//DTD SVG 1.1//EN" "http://www.w3.org/Graphics/SVG/1.1/DTD/svg11.dtd"><svg width="100%" height="100%" viewBox="0 0 36 71" version="1.1" xmlns="http://www.w3.org/2000/svg" xmlns:xlink="http://www.w3.org/1999/xlink" xml:space="preserve" xmlns:serif="http://www.serif.com/" style="fill-rule:evenodd;clip-rule:evenodd;stroke-linejoin:round;stroke-miterlimit:2;"><g><path d="M22.2,43.9c0.8,1.633 1.3,2.8 1.5,3.5c-0.788,1.031 -2.955,1.581 -6.5,1.65l-2.65,0l-0,5.75l1.85,0c0.283,-0.006 0.549,-0.023 0.8,-0.05c2.659,-0.133 4.626,-0.749 5.9,-1.85c1.567,-1.4 2.35,-3.8 2.35,-7.2c0,-0.933 -0.4,-3.067 -1.2,-6.4c-0.833,2.033 -1.517,3.567 -2.05,4.6Z" style="fill:#f00;"/><path d="M25,33.9l2.9,-3l-2.9,-2.9l-2.9,2.95l2.9,2.95Z" style="fill:#f00;"/><path d="M19.25,33.9l2.85,-2.95l-2.8,-2.95l-2.95,2.9l2.9,3Z" style="fill:#f00;"/><path d="M17.2,54.8l0,-0.05c-0.251,0.027 -0.517,0.044 -0.8,0.05l0.8,0Z"/><path d="M17.2,49.05l0,-0.05l-8.8,-0l0,5.8l6.15,0l-0,-5.75l2.65,0Z"/><path d="M21.909,8.043l-6.3,4.65c-0.666,0.492 -0.807,1.432 -0.316,2.098c0.492,0.666 1.432,0.807 2.098,0.316l6.3,-4.65c0.666,-0.492 0.807,-1.432 0.316,-2.098c-0.492,-0.666 -1.432,-0.807 -2.098,-0.316Z"/></g></svg>