<?xml version="1.0" encoding="UTF-8" standalone="no"?><!DOCTYPE svg PUBLIC "-//W3C//DTD SVG 1.1//EN" "http://www.w3.org/Graphics/SVG/1.1/DTD/svg11.dtd"><svg width="100%" height="100%" viewBox="0 0 96 82" version="1.1" xmlns="http://www.w3.org/2000/svg" xmlns:xlink="http://www.w3.org/1999/xlink" xml:space="preserve" xmlns:serif="http://www.serif.com/" style="fill-rule:evenodd;clip-rule:evenodd;stroke-linejoin:round;stroke-miterlimit:2;"><g><path d="M76.2,54.5c-0.346,0.025 -0.713,0.042 -1.1,0.05l1.1,-0l0,-0.05Z" style="fill:#f00;"/><path d="M73.3,48.9c-1.167,0.067 -1.967,0.1 -2.4,0.1c-1.467,0 -2.517,-0.3 -3.15,-0.9c-0.767,-0.733 -1.183,-2.1 -1.25,-4.1c-1.3,2.2 -2.2,3.533 -2.7,4c-0.633,0.567 -1.6,0.85 -2.9,0.85l-2.3,0c-0.29,-0.016 -0.574,-0.033 -0.85,-0.05l0,5.75l3,-0c1.1,-0 1.983,-0.417 2.65,-1.25c0.1,-0.133 0.633,-1.033 1.6,-2.7c0.5,0.867 1.2,1.7 2.1,2.5c1.067,0.967 1.967,1.45 2.7,1.45l3.5,-0l-0,-5.65Z" style="fill:#f00;"/><path d="M76.2,48.8l-1.5,0c0.576,-0.033 1.076,-0.05 1.5,-0.05l0,0.05Z" style="fill:#f00;"/><path d="M65.35,33l2.85,2.95l2.95,-3l-2.95,-2.9l-2.85,2.95Z" style="fill:#f00;"/><path d="M62.5,35.95l2.85,-2.95l-2.85,-2.95l-2.85,2.9l2.85,3Z" style="fill:#f00;"/><path d="M65.55,29.85l2.85,-3.05l-2.85,-2.95l-2.85,2.95l2.85,3.05Z" style="fill:#f00;"/><path d="M53.15,63.8l-3.3,-3.35l-3.3,3.35l3.3,3.35l3.3,-3.35Z"/><path d="M79.2,67.15l3.3,-3.35l-3.3,-3.4l-3.3,3.4l3.3,3.35Z"/><path d="M21.1,50.05c0,-1.667 -0.333,-3.1 -1,-4.3c-0.467,-0.9 -1.383,-2.05 -2.75,-3.45l-1.2,4.8c0.667,0.833 1.35,1.65 2.05,2.45c0.933,1.167 1.4,2.05 1.4,2.65c0,3.1 -2.167,5.75 -6.5,7.95c-3.7,1.867 -7.217,2.8 -10.55,2.8c2.7,1.9 5.367,2.85 8,2.85c3.067,-0 5.667,-1.9 7.8,-5.7c1.833,-3.3 2.75,-6.65 2.75,-10.05Z"/><path d="M83.05,39.05c-0.867,2.033 -1.567,3.567 -2.1,4.6c0.8,1.633 1.317,2.8 1.55,3.5c-0.802,1.01 -2.902,1.56 -6.3,1.65l-2.9,0l-0,5.75l1.8,-0c0.387,-0.008 0.754,-0.025 1.1,-0.05c2.553,-0.161 4.436,-0.777 5.65,-1.85c1.567,-1.4 2.35,-3.8 2.35,-7.2c0,-0.933 -0.383,-3.067 -1.15,-6.4Z"/><path d="M36.972,43.438c0.619,0.275 1.228,0.962 1.828,2.062c0.5,1.133 1.017,2.267 1.55,3.4c0.541,0.053 1.074,0.086 1.6,0.1l0,-0.25c3.1,0 5.15,-0.2 6.15,-0.6c0.6,-0.267 1.017,-0.85 1.25,-1.75c0.333,-1.067 0.917,-1.933 1.75,-2.6c0,2.5 0.533,4.017 1.6,4.55c0.533,0.267 2.217,0.4 5.05,0.4l0,5.8l-3.85,-0c-1,-0 -1.867,-0.45 -2.6,-1.35c-0.067,-0.067 -0.633,-0.933 -1.7,-2.6c-0.867,1.533 -1.4,2.433 -1.6,2.7c-0.7,0.833 -1.583,1.25 -2.65,1.25l-5.25,-0c-1.333,3.367 -2.7,5.883 -4.1,7.55c-2,2.433 -4.417,3.65 -7.25,3.65c-3.3,0 -6.183,-1.267 -8.65,-3.8c2.667,0.233 4.7,0.35 6.1,0.35c2.6,-0 4.85,-0.633 6.75,-1.9c1.7,-1.133 3.333,-2.917 4.9,-5.35c-1.333,-0.233 -2.667,-0.45 -4,-0.65c-1.433,-0.4 -2.15,-1.367 -2.15,-2.9c0,-1.267 0.5,-2.9 1.5,-4.9c1.1,-2.2 2.15,-3.3 3.15,-3.3l0.622,0.138Zm0.378,7.262c-0.833,0 -1.817,-0.083 -2.95,-0.25c-0,-0.433 -0.083,-0.733 -0.25,-0.9c0.333,-0.7 0.667,-1.333 1,-1.9c0.867,0.433 1.4,0.817 1.6,1.15c0.233,0.3 0.433,0.933 0.6,1.9Z"/><path d="M43.2,11.05c-0.767,0 -1.467,0.5 -2.1,1.5c-0.533,0.933 -0.8,1.817 -0.8,2.65c-0,0.7 0.517,1.433 1.55,2.2c-1.867,1.767 -3.633,3.083 -5.3,3.95c0.6,0.2 1.067,0.3 1.4,0.3c1.4,-0 3.05,-1.183 4.95,-3.55c0.767,0.567 1.433,0.983 2,1.25l0.2,-2.45c-0.433,-0.333 -0.767,-0.583 -1,-0.75c0.533,-1.233 0.8,-2.217 0.8,-2.95c-0,-1.433 -0.567,-2.15 -1.7,-2.15Zm0.15,3.65c0,0.2 -0.05,0.45 -0.15,0.75c-1.1,-0.633 -1.65,-1.233 -1.65,-1.8c0.067,-0.267 0.233,-0.417 0.5,-0.45c0.867,0.133 1.3,0.633 1.3,1.5Z"/><path d="M62.6,10.25c-0.767,0 -1.467,0.5 -2.1,1.5c-0.533,0.933 -0.8,1.817 -0.8,2.65c0,0.7 0.517,1.433 1.55,2.2c-1.867,1.767 -3.633,3.083 -5.3,3.95c0.6,0.2 1.067,0.3 1.4,0.3c1.4,0 3.05,-1.183 4.95,-3.55c0.767,0.567 1.433,0.983 2,1.25l0.2,-2.45c-0.433,-0.333 -0.767,-0.583 -1,-0.75c0.533,-1.233 0.8,-2.217 0.8,-2.95c-0,-1.433 -0.567,-2.15 -1.7,-2.15Zm-1.65,2.6c0.067,-0.267 0.233,-0.417 0.5,-0.45c0.867,0.133 1.3,0.633 1.3,1.5c-0,0.2 -0.05,0.45 -0.15,0.75c-1.1,-0.633 -1.65,-1.233 -1.65,-1.8Z"/><path d="M10.748,69.982l-5.85,3.7c-0.699,0.443 -0.908,1.37 -0.466,2.07c0.443,0.699 1.37,0.908 2.07,0.466l5.85,-3.7c0.699,-0.443 0.908,-1.37 0.466,-2.07c-0.443,-0.699 -1.37,-0.908 -2.07,-0.466Z"/><path d="M81.059,67.743l-6.3,4.65c-0.666,0.492 -0.807,1.432 -0.316,2.098c0.492,0.666 1.432,0.807 2.098,0.316l6.3,-4.65c0.666,-0.492 0.807,-1.432 0.316,-2.098c-0.492,-0.666 -1.432,-0.807 -2.098,-0.316Z"/><path d="M9.843,66.735l-5.8,3.7c-0.698,0.446 -0.903,1.374 -0.458,2.072c0.446,0.698 1.374,0.903 2.072,0.458l5.8,-3.7c0.698,-0.446 0.903,-1.374 0.458,-2.072c-0.446,-0.698 -1.374,-0.903 -2.072,-0.458Z"/></g></svg>