<?xml version="1.0" encoding="UTF-8" standalone="no"?><!DOCTYPE svg PUBLIC "-//W3C//DTD SVG 1.1//EN" "http://www.w3.org/Graphics/SVG/1.1/DTD/svg11.dtd"><svg width="100%" height="100%" viewBox="0 0 88 72" version="1.1" xmlns="http://www.w3.org/2000/svg" xmlns:xlink="http://www.w3.org/1999/xlink" xml:space="preserve" xmlns:serif="http://www.serif.com/" style="fill-rule:evenodd;clip-rule:evenodd;stroke-linejoin:round;stroke-miterlimit:2;"><g><path d="M65.85,47.85l0,5.75l1.6,0c0.248,-0.004 0.481,-0.021 0.7,-0.05c2.837,-0.085 4.92,-0.702 6.25,-1.85c1.567,-1.4 2.35,-3.8 2.35,-7.2c0,-0.933 -0.4,-3.067 -1.2,-6.4c-0.833,2.033 -1.517,3.567 -2.05,4.6c0.8,1.633 1.3,2.8 1.5,3.5c-0.867,1.133 -3.4,1.683 -7.6,1.65l-1.55,0Z" style="fill:#f00;"/><path d="M36.8,53.6l-0,-0.05c-0.346,0.025 -0.713,0.042 -1.1,0.05l1.1,0Z" style="fill:#f00;"/><path d="M21.5,47.9l-2.3,-0c-0.308,-0.017 -0.608,-0.034 -0.9,-0.05c-0.848,-0.033 -1.631,-0.05 -2.35,-0.05l0,5.8l5.4,0c1.1,0 1.983,-0.417 2.65,-1.25c0.1,-0.133 0.633,-1.033 1.6,-2.7c0.5,0.867 1.2,1.7 2.1,2.5c1.067,0.967 1.967,1.45 2.7,1.45l3.5,0l-0,-5.65c-1.167,0.067 -1.967,0.1 -2.4,0.1c-1.467,0 -2.517,-0.3 -3.15,-0.9c-0.767,-0.733 -1.183,-2.1 -1.25,-4.1c-1.3,2.2 -2.2,3.533 -2.7,4c-0.633,0.567 -1.6,0.85 -2.9,0.85Z" style="fill:#f00;"/><path d="M36.8,47.85l-1.5,0c0.576,-0.033 1.076,-0.05 1.5,-0.05l-0,0.05Z" style="fill:#f00;"/><path d="M32.9,33l-2.9,-2.95l-2.85,3l2.85,2.95l2.9,-3Z" style="fill:#f00;"/><path d="M27.15,33.05l-2.85,-3l-2.9,2.95l2.85,3l2.9,-2.95Z" style="fill:#f00;"/><path d="M73.4,29.75l2.9,2.95l2.9,-3l-2.9,-2.9l-2.9,2.95Z" style="fill:#f00;"/><path d="M70.55,32.7l2.85,-2.95l-2.8,-2.95l-2.95,2.9l2.9,3Z" style="fill:#f00;"/><path d="M39.8,66.2l3.3,-3.35l-3.3,-3.4l-3.3,3.4l3.3,3.35Z"/><path d="M7.6,23.2c0,7.767 0.05,12.75 0.15,14.95c0.3,7.5 1.017,12.033 2.15,13.6c0.933,1.233 2.25,1.85 3.95,1.85l2.1,0l0,-5.8c0.719,0 1.502,0.017 2.35,0.05l-0,-0.05c-3.6,0 -5.95,-0.733 -7.05,-2.2c-0.9,-1.233 -1.35,-3.833 -1.35,-7.8l-0,-18.65c-0.567,0.567 -1.117,1.133 -1.65,1.7c-0.433,0.567 -0.65,1.35 -0.65,2.35Z"/><path d="M68.15,53.6l-0,-0.05c-0.219,0.029 -0.452,0.046 -0.7,0.05l0.7,0Z"/><path d="M36.8,47.85l-2.9,0l-0,5.75l1.8,0c0.387,-0.008 0.754,-0.025 1.1,-0.05c2.553,-0.161 4.436,-0.777 5.65,-1.85c1.567,-1.4 2.35,-3.8 2.35,-7.2c-0,-0.933 -0.383,-3.067 -1.15,-6.4c-0.867,2.033 -1.567,3.567 -2.1,4.6c0.8,1.633 1.317,2.8 1.55,3.5c-0.802,1.01 -2.902,1.56 -6.3,1.65Z"/><path d="M65.85,48.05c-0.542,-0.012 -1.092,-0.046 -1.65,-0.1c-0.533,-1.133 -1.05,-2.267 -1.55,-3.4c-0.8,-1.467 -1.617,-2.2 -2.45,-2.2c-1,0 -2.05,1.1 -3.15,3.3c-1,2 -1.5,3.633 -1.5,4.9c-0,1.533 0.717,2.5 2.15,2.9c1.333,0.2 2.667,0.417 4,0.65c-1.567,2.433 -3.2,4.217 -4.9,5.35c-1.9,1.267 -4.15,1.9 -6.75,1.9c-1.4,0 -3.433,-0.117 -6.1,-0.35c2.467,2.533 5.35,3.8 8.65,3.8c2.833,0 5.25,-1.217 7.25,-3.65c1.4,-1.667 2.767,-4.183 4.1,-7.55l1.9,0l0,-5.55Zm-7.6,1.45c0,-0.433 -0.083,-0.733 -0.25,-0.9c0.333,-0.7 0.667,-1.333 1,-1.9c0.867,0.433 1.4,0.817 1.6,1.15c0.233,0.3 0.433,0.933 0.6,1.9c-0.833,-0 -1.817,-0.083 -2.95,-0.25Z"/><path d="M57.05,19.1c-0.967,0 -1.7,0.45 -2.2,1.35c-0.4,0.733 -0.6,1.65 -0.6,2.75c0,1.733 0.733,2.6 2.2,2.6c0.867,0 1.6,-0.367 2.2,-1.1c0.6,-0.7 0.9,-1.517 0.9,-2.45c-0,-0.767 -0.217,-1.467 -0.65,-2.1c-0.5,-0.7 -1.117,-1.05 -1.85,-1.05Zm1.4,3.7c0,0.567 -0.533,0.85 -1.6,0.85c-1.3,-0 -1.95,-0.417 -1.95,-1.25c-0,-0.967 0.417,-1.45 1.25,-1.45c0.367,-0 0.833,0.217 1.4,0.65c0.6,0.433 0.9,0.833 0.9,1.2Z"/><path d="M20.741,16.337l-5.85,3.75c-0.697,0.447 -0.901,1.376 -0.454,2.072c0.447,0.697 1.376,0.901 2.072,0.454l5.85,-3.75c0.697,-0.447 0.901,-1.376 0.454,-2.072c-0.447,-0.697 -1.376,-0.901 -2.072,-0.454Z"/><path d="M42.459,13.143l-6.3,4.65c-0.666,0.492 -0.807,1.432 -0.316,2.098c0.492,0.666 1.432,0.807 2.098,0.316l6.3,-4.65c0.666,-0.492 0.807,-1.432 0.316,-2.098c-0.492,-0.666 -1.432,-0.807 -2.098,-0.316Z"/><path d="M73.359,13.143l-6.3,4.65c-0.666,0.492 -0.807,1.432 -0.316,2.098c0.492,0.666 1.432,0.807 2.098,0.316l6.3,-4.65c0.666,-0.492 0.807,-1.432 0.316,-2.098c-0.492,-0.666 -1.432,-0.807 -2.098,-0.316Z"/><path d="M19.836,13.09l-5.8,3.75c-0.696,0.45 -0.895,1.379 -0.446,2.074c0.45,0.696 1.379,0.895 2.074,0.446l5.8,-3.75c0.696,-0.45 0.895,-1.379 0.446,-2.074c-0.45,-0.696 -1.379,-0.895 -2.074,-0.446Z"/></g></svg>