<?xml version="1.0" encoding="UTF-8" standalone="no"?><!DOCTYPE svg PUBLIC "-//W3C//DTD SVG 1.1//EN" "http://www.w3.org/Graphics/SVG/1.1/DTD/svg11.dtd"><svg width="100%" height="100%" viewBox="0 0 62 75" version="1.1" xmlns="http://www.w3.org/2000/svg" xmlns:xlink="http://www.w3.org/1999/xlink" xml:space="preserve" xmlns:serif="http://www.serif.com/" style="fill-rule:evenodd;clip-rule:evenodd;stroke-linejoin:round;stroke-miterlimit:2;"><g><path d="M42.1,49.25l-0,-0.05c-1.867,-0 -3.117,-0.3 -3.75,-0.9c-0.633,-0.6 -1.083,-1.883 -1.35,-3.85c-4.033,4.167 -9.183,6.25 -15.45,6.25c-2.867,-0 -5.483,-0.417 -7.85,-1.25c-3.3,-1.167 -4.95,-2.917 -4.95,-5.25c0,-1.033 0.5,-2.55 1.5,-4.55c-1.1,0.767 -1.983,1.833 -2.65,3.2c-0.7,1.333 -1.05,2.7 -1.05,4.1c-0,2.933 1.183,5.233 3.55,6.9c2.033,1.433 4.55,2.15 7.55,2.15c5.967,-0 11.967,-1.767 18,-5.3c1.433,2.867 2.9,4.3 4.4,4.3l0.05,-0l-0,-5.75l2,-0Z" style="fill:#f00;"/><path d="M21.8,36.5l2.85,-2.9l-2.9,-2.95l-2.85,2.85l2.9,3Z" style="fill:#f00;"/><path d="M24.65,33.6l2.85,2.9l2.9,-3l-2.9,-2.85l-2.85,2.95Z" style="fill:#f00;"/><path d="M24.8,30.4l2.9,-3.05l-2.9,-2.95l-2.85,2.95l2.85,3.05Z" style="fill:#f00;"/><path d="M46,67.6l3.3,-3.35l-3.3,-3.4l-3.3,3.4l3.3,3.35Z"/><path d="M49.85,39.5c-0.867,2.033 -1.567,3.567 -2.1,4.6c0.8,1.633 1.317,2.8 1.55,3.5c-0.871,1.097 -3.271,1.647 -7.2,1.65l-2,0l-0,5.75l2,0c3.014,-0.071 5.198,-0.705 6.55,-1.9c1.567,-1.4 2.35,-3.8 2.35,-7.2c0,-0.933 -0.383,-3.067 -1.15,-6.4Z"/><path d="M23.9,16.5l-0.3,0.1c-0.133,0.8 -0.25,1.35 -0.35,1.65c-0.267,0.667 -0.633,1 -1.1,1c-0.4,0 -0.6,-0.6 -0.6,-1.8l-0.4,0.05c-0.233,0.867 -0.35,1.417 -0.35,1.65c-0,0.467 0.1,0.883 0.3,1.25c0.233,0.4 0.567,0.6 1,0.6c0.4,0 0.767,-0.15 1.1,-0.45c0.367,-0.3 0.567,-0.633 0.6,-1c0.3,0.233 0.633,0.35 1,0.35c1.133,-0 1.7,-0.933 1.7,-2.8c0,-0.5 -0.067,-1.033 -0.2,-1.6l-0.35,0.15c0,1.633 -0.383,2.45 -1.15,2.45c-0.333,0 -0.633,-0.533 -0.9,-1.6Z"/><path d="M47.159,9.693l-6.3,4.65c-0.666,0.492 -0.807,1.432 -0.316,2.098c0.492,0.666 1.432,0.807 2.098,0.316l6.3,-4.65c0.666,-0.492 0.807,-1.432 0.316,-2.098c-0.492,-0.666 -1.432,-0.807 -2.098,-0.316Z"/><path d="M25.005,7.347l-6.25,4.65c-0.665,0.494 -0.803,1.434 -0.308,2.098c0.494,0.665 1.434,0.803 2.098,0.308l6.25,-4.65c0.665,-0.494 0.803,-1.434 0.308,-2.098c-0.494,-0.665 -1.434,-0.803 -2.098,-0.308Z"/></g></svg>