<?xml version="1.0" encoding="UTF-8" standalone="no"?><!DOCTYPE svg PUBLIC "-//W3C//DTD SVG 1.1//EN" "http://www.w3.org/Graphics/SVG/1.1/DTD/svg11.dtd"><svg width="100%" height="100%" viewBox="0 0 40 82" version="1.1" xmlns="http://www.w3.org/2000/svg" xmlns:xlink="http://www.w3.org/1999/xlink" xml:space="preserve" xmlns:serif="http://www.serif.com/" style="fill-rule:evenodd;clip-rule:evenodd;stroke-linejoin:round;stroke-miterlimit:2;"><g><path d="M22.45,53.1c0,-4.4 -1.183,-8.117 -3.55,-11.15c-0.667,1.3 -1.317,3.1 -1.95,5.4c1.167,1.633 1.933,2.783 2.3,3.45c0.733,1.333 1.1,2.633 1.1,3.9c0,1.567 -1.2,2.9 -3.6,4c-1.967,0.9 -3.833,1.35 -5.6,1.35c-4.367,-0 -6.55,-1.9 -6.55,-5.7c0,-0.633 0.117,-1.55 0.35,-2.75c0.233,-1.2 0.35,-2.117 0.35,-2.75c-0.867,0.967 -1.583,2.317 -2.15,4.05c-0.5,1.567 -0.75,3.083 -0.75,4.55c-0,2.667 0.783,4.7 2.35,6.1c1.433,1.3 3.467,1.95 6.1,1.95c3.267,0 6.017,-1.217 8.25,-3.65c2.233,-2.433 3.35,-5.35 3.35,-8.75Z"/><path d="M32.75,20.4c-2,2.667 -2.983,4.283 -2.95,4.85l0.7,30.65c1.667,-1.4 2.5,-5.117 2.5,-11.15l-0.25,-24.35Z"/><path d="M7.4,36.45l3.3,3.35l3.3,-3.35l-3.3,-3.4l-3.3,3.4Z"/><path d="M12.55,23.85c-0,-0.5 -0.067,-1.033 -0.2,-1.6l-0.35,0.15c-0,1.633 -0.383,2.45 -1.15,2.45c-0.333,0 -0.633,-0.533 -0.9,-1.6l-0.3,0.1c-0.133,0.8 -0.25,1.35 -0.35,1.65c-0.267,0.667 -0.633,1 -1.1,1c-0.4,0 -0.6,-0.6 -0.6,-1.8l-0.4,0.05c-0.233,0.867 -0.35,1.417 -0.35,1.65c0,0.467 0.1,0.883 0.3,1.25c0.233,0.4 0.567,0.6 1,0.6c0.4,0 0.767,-0.15 1.1,-0.45c0.367,-0.3 0.567,-0.633 0.6,-1c0.3,0.233 0.633,0.35 1,0.35c1.133,-0 1.7,-0.933 1.7,-2.8Z"/><path d="M32.959,12.043l-6.3,4.65c-0.666,0.492 -0.807,1.432 -0.316,2.098c0.492,0.666 1.432,0.807 2.098,0.316l6.3,-4.65c0.666,-0.492 0.807,-1.432 0.316,-2.098c-0.492,-0.666 -1.432,-0.807 -2.098,-0.316Z"/><path d="M10.409,12.043l-6.3,4.65c-0.666,0.492 -0.807,1.432 -0.316,2.098c0.492,0.666 1.432,0.807 2.098,0.316l6.3,-4.65c0.666,-0.492 0.807,-1.432 0.316,-2.098c-0.492,-0.666 -1.432,-0.807 -2.098,-0.316Z"/></g></svg>