<?xml version="1.0" encoding="UTF-8" standalone="no"?><!DOCTYPE svg PUBLIC "-//W3C//DTD SVG 1.1//EN" "http://www.w3.org/Graphics/SVG/1.1/DTD/svg11.dtd"><svg width="100%" height="100%" viewBox="0 0 89 71" version="1.1" xmlns="http://www.w3.org/2000/svg" xmlns:xlink="http://www.w3.org/1999/xlink" xml:space="preserve" xmlns:serif="http://www.serif.com/" style="fill-rule:evenodd;clip-rule:evenodd;stroke-linejoin:round;stroke-miterlimit:2;"><g><path d="M10,43.15c-0.7,1.333 -1.05,2.7 -1.05,4.1c0,2.933 1.183,5.233 3.55,6.9c2.033,1.433 4.55,2.15 7.55,2.15c5.967,0 11.967,-1.767 18,-5.3c1.433,2.867 2.9,4.3 4.4,4.3l0.25,0l0,-5.8l1.35,0c-1.619,-0.05 -2.719,-0.35 -3.3,-0.9c-0.633,-0.6 -1.083,-1.883 -1.35,-3.85c-4.033,4.167 -9.183,6.25 -15.45,6.25c-2.867,0 -5.483,-0.417 -7.85,-1.25c-3.3,-1.167 -4.95,-2.917 -4.95,-5.25c-0,-1.033 0.5,-2.55 1.5,-4.55c-1.1,0.767 -1.983,1.833 -2.65,3.2Z" style="fill:#f00;"/><path d="M75.85,49.55l-2.65,0l0,5.75l1.85,0c0.283,-0.006 0.549,-0.023 0.8,-0.05c2.659,-0.133 4.626,-0.749 5.9,-1.85c1.567,-1.4 2.35,-3.8 2.35,-7.2c-0,-0.933 -0.4,-3.067 -1.2,-6.4c-0.833,2.033 -1.517,3.567 -2.05,4.6c0.8,1.633 1.3,2.8 1.5,3.5c-0.788,1.031 -2.955,1.581 -6.5,1.65Z" style="fill:#f00;"/><path d="M51.5,49.55c-0.708,-0.021 -1.375,-0.037 -2,-0.05l-0.6,-0l0,5.8l5.4,0c1.1,0 1.983,-0.417 2.65,-1.25c0.1,-0.133 0.633,-1.033 1.6,-2.7c0.5,0.867 1.2,1.7 2.1,2.5c1.067,0.967 1.967,1.45 2.7,1.45l3.7,0l-0,-5.7c-0.066,0.028 -0.133,0.044 -0.2,0.05c-1.167,0.067 -1.967,0.1 -2.4,0.1c-1.467,0 -2.517,-0.3 -3.15,-0.9c-0.767,-0.733 -1.183,-2.1 -1.25,-4.1c-1.3,2.2 -2.2,3.533 -2.7,4c-0.633,0.567 -1.6,0.85 -2.9,0.85l-2.3,-0c-0.221,-0.012 -0.437,-0.029 -0.65,-0.05Z" style="fill:#f00;"/><path d="M23.85,37.7l2.85,-2.95l-2.85,-3l-2.85,2.95l2.85,3Z" style="fill:#f00;"/><path d="M32.5,34.7l-2.9,-2.95l-2.9,3l2.9,2.95l2.9,-3Z" style="fill:#f00;"/><path d="M62.95,31.75l-2.85,3l2.85,2.95l2.9,-3l-2.9,-2.95Z" style="fill:#f00;"/><path d="M54.35,34.7l2.85,3l2.9,-2.95l-2.85,-3l-2.9,2.95Z" style="fill:#f00;"/><path d="M77.95,28.5l-2.95,2.9l2.9,3l2.85,-2.95l-2.8,-2.95Z" style="fill:#f00;"/><path d="M83.65,34.4l2.9,-3l-2.9,-2.9l-2.9,2.95l2.9,2.95Z" style="fill:#f00;"/><path d="M67.05,49.5l-0,5.8l6.15,0l0,-5.75l2.65,0l-0,-0.05l-8.8,0Z"/><rect x="42.7" y="49.5" width="6.2" height="5.8"/><path d="M75.85,55.3l-0,-0.05c-0.251,0.027 -0.517,0.044 -0.8,0.05l0.8,0Z"/><path d="M49.5,49.5c0.625,0.013 1.292,0.029 2,0.05l0,-0.05l-2,0Z"/><path d="M62,14.35c0,-0.767 -0.217,-1.467 -0.65,-2.1c-0.5,-0.7 -1.117,-1.05 -1.85,-1.05c-0.967,-0 -1.7,0.45 -2.2,1.35c-0.4,0.733 -0.6,1.65 -0.6,2.75c0,1.733 0.733,2.6 2.2,2.6c0.867,0 1.6,-0.367 2.2,-1.1c0.6,-0.7 0.9,-1.517 0.9,-2.45Z"/><path d="M60.9,14.9c0,0.567 -0.533,0.85 -1.6,0.85c-1.3,0 -1.95,-0.417 -1.95,-1.25c-0,-0.967 0.417,-1.45 1.25,-1.45c0.367,0 0.833,0.217 1.4,0.65c0.6,0.433 0.9,0.833 0.9,1.2Z"/><path d="M27.2,7.95c-0.767,-0 -1.467,0.4 -2.1,1.2c-0.633,0.833 -0.95,1.617 -0.95,2.35c-0,0.9 0.55,1.683 1.65,2.35c-1.067,1.133 -2.067,1.85 -3,2.15c0.067,-1.067 0.1,-1.7 0.1,-1.9c-0,-1.833 -0.567,-2.75 -1.7,-2.75c-0.633,-0 -1.133,0.3 -1.5,0.9c-0.367,0.533 -0.55,1.133 -0.55,1.8c-0,0.333 0.083,0.75 0.25,1.25c0.167,-1.233 0.583,-1.85 1.25,-1.85c0.333,-0 0.617,0.133 0.85,0.4c0.2,0.3 0.3,0.617 0.3,0.95c-0,0.533 -0.333,1.583 -1,3.15c1.3,-0.233 2.4,-0.633 3.3,-1.2c0.7,-0.467 1.583,-1.25 2.65,-2.35c0.467,0.4 1.2,0.883 2.2,1.45c0.033,-0.933 0.05,-1.45 0.05,-1.55c0,-0.6 -0.317,-1.133 -0.95,-1.6c0.533,-1.233 0.8,-2.167 0.8,-2.8c0,-0.467 -0.167,-0.917 -0.5,-1.35c-0.333,-0.4 -0.717,-0.6 -1.15,-0.6Zm-1.75,2.2l0.25,-0.45c0.2,-0.1 0.333,-0.15 0.4,-0.15c0.667,0 1,0.433 1,1.3l-0.05,1c-1.067,-0.733 -1.6,-1.3 -1.6,-1.7Z"/><path d="M81.459,8.093l-6.3,4.65c-0.666,0.492 -0.807,1.432 -0.316,2.098c0.492,0.666 1.432,0.807 2.098,0.316l6.3,-4.65c0.666,-0.492 0.807,-1.432 0.316,-2.098c-0.492,-0.666 -1.432,-0.807 -2.098,-0.316Z"/></g></svg>