<?xml version="1.0" encoding="UTF-8" standalone="no"?><!DOCTYPE svg PUBLIC "-//W3C//DTD SVG 1.1//EN" "http://www.w3.org/Graphics/SVG/1.1/DTD/svg11.dtd"><svg width="100%" height="100%" viewBox="0 0 108 75" version="1.1" xmlns="http://www.w3.org/2000/svg" xmlns:xlink="http://www.w3.org/1999/xlink" xml:space="preserve" xmlns:serif="http://www.serif.com/" style="fill-rule:evenodd;clip-rule:evenodd;stroke-linejoin:round;stroke-miterlimit:2;"><g><path d="M21.3,50.7c-2.867,-0 -5.467,-0.383 -7.8,-1.15c-3.4,-1.1 -5.1,-2.783 -5.1,-5.05c-0,-1.033 0.383,-2.533 1.15,-4.5c-2.433,2.4 -3.65,4.75 -3.65,7.05c-0,5.667 4.333,8.5 13,8.5c14.133,0 21.2,-4.05 21.2,-12.15c0,-3 -0.983,-5.167 -2.95,-6.5c-0.267,1.333 -0.867,3.2 -1.8,5.6c1.633,1.267 2.45,2.617 2.45,4.05c-1.1,1.267 -3.683,2.317 -7.75,3.15c-3.333,0.667 -6.25,1 -8.75,1Z" style="fill:#f00;"/><path d="M26.75,36.5l2.9,-3l-2.9,-2.85l-2.9,2.95l2.9,2.9Z" style="fill:#f00;"/><path d="M18.15,33.5l2.85,3l2.85,-2.9l-2.85,-2.95l-2.85,2.85Z" style="fill:#f00;"/><path d="M26.9,27.35l-2.85,-2.95l-2.9,2.95l2.85,3.05l2.9,-3.05Z" style="fill:#f00;"/><path d="M55.2,50c0.933,1.167 1.4,2.05 1.4,2.65c0,3.1 -2.167,5.75 -6.5,7.95c-3.7,1.867 -7.217,2.8 -10.55,2.8c2.7,1.9 5.367,2.85 8,2.85c3.067,0 5.667,-1.9 7.8,-5.7c1.833,-3.3 2.75,-6.65 2.75,-10.05c0,-1.667 -0.333,-3.1 -1,-4.3c-0.467,-0.9 -1.383,-2.05 -2.75,-3.45l-1.2,4.8c0.667,0.833 1.35,1.65 2.05,2.45Z"/><path d="M68.2,19.55c-2,2.667 -2.983,4.283 -2.95,4.85l0.7,30.65c1.667,-1.4 2.5,-5.117 2.5,-11.15l-0.25,-24.35Z"/><path d="M79.35,48.75c0,2.3 0.867,3.45 2.6,3.45c1.367,-0 2.633,-0.767 3.8,-2.3c0.333,0.7 0.5,1.333 0.5,1.9c0,3.367 -2.317,6.05 -6.95,8.05c-3.6,1.533 -7.283,2.3 -11.05,2.3c1.833,0.733 3.083,1.217 3.75,1.45c1.3,0.367 2.633,0.55 4,0.55c3.8,-0 6.767,-1.617 8.9,-4.85c1.867,-2.833 2.8,-6.317 2.8,-10.45c0,-1.633 -0.267,-3.217 -0.8,-4.75c-0.733,-2.067 -1.767,-3.1 -3.1,-3.1c-1.1,0 -2.15,1.017 -3.15,3.05c-0.867,1.8 -1.3,3.367 -1.3,4.7Zm1.95,-0.9c0.433,-1.033 0.85,-1.967 1.25,-2.8c1.3,0.6 1.95,1.367 1.95,2.3c-0,0.333 -0.183,0.633 -0.55,0.9c-0.4,0.233 -0.783,0.35 -1.15,0.35c-0.033,0 -0.533,-0.25 -1.5,-0.75Z"/><path d="M26.3,10.95c-0.333,-0.4 -0.717,-0.6 -1.15,-0.6c-0.767,-0 -1.467,0.4 -2.1,1.2c-0.633,0.833 -0.95,1.617 -0.95,2.35c0,0.9 0.55,1.683 1.65,2.35c-1.067,1.133 -2.067,1.85 -3,2.15c0.067,-1.067 0.1,-1.7 0.1,-1.9c0,-1.833 -0.567,-2.75 -1.7,-2.75c-0.633,0 -1.133,0.3 -1.5,0.9c-0.367,0.533 -0.55,1.133 -0.55,1.8c0,0.333 0.083,0.75 0.25,1.25c0.167,-1.233 0.583,-1.85 1.25,-1.85c0.333,-0 0.617,0.133 0.85,0.4c0.2,0.3 0.3,0.617 0.3,0.95c-0,0.533 -0.333,1.583 -1,3.15c1.3,-0.233 2.4,-0.633 3.3,-1.2c0.7,-0.467 1.583,-1.25 2.65,-2.35c0.467,0.4 1.2,0.883 2.2,1.45c0.033,-0.933 0.05,-1.45 0.05,-1.55c0,-0.6 -0.317,-1.133 -0.95,-1.6c0.533,-1.233 0.8,-2.167 0.8,-2.8c-0,-0.467 -0.167,-0.917 -0.5,-1.35Zm-2.25,1c0.667,-0 1,0.433 1,1.3l-0.05,1c-1.067,-0.733 -1.6,-1.3 -1.6,-1.7l0.25,-0.45c0.2,-0.1 0.333,-0.15 0.4,-0.15Z"/><path d="M46.905,67.047l-6.25,4.65c-0.665,0.494 -0.803,1.434 -0.308,2.098c0.494,0.665 1.434,0.803 2.098,0.308l6.25,-4.65c0.665,-0.494 0.803,-1.434 0.308,-2.098c-0.494,-0.665 -1.434,-0.803 -2.098,-0.308Z"/><path d="M80.759,9.693l-6.3,4.65c-0.666,0.492 -0.807,1.432 -0.316,2.098c0.492,0.666 1.432,0.807 2.098,0.316l6.3,-4.65c0.666,-0.492 0.807,-1.432 0.316,-2.098c-0.492,-0.666 -1.432,-0.807 -2.098,-0.316Z"/></g></svg>