<?xml version="1.0" encoding="UTF-8" standalone="no"?><!DOCTYPE svg PUBLIC "-//W3C//DTD SVG 1.1//EN" "http://www.w3.org/Graphics/SVG/1.1/DTD/svg11.dtd"><svg width="100%" height="100%" viewBox="0 0 58 71" version="1.1" xmlns="http://www.w3.org/2000/svg" xmlns:xlink="http://www.w3.org/1999/xlink" xml:space="preserve" xmlns:serif="http://www.serif.com/" style="fill-rule:evenodd;clip-rule:evenodd;stroke-linejoin:round;stroke-miterlimit:2;"><g><path d="M11.6,44.05c-0,-1.033 0.5,-2.55 1.5,-4.55c-1.1,0.767 -1.983,1.833 -2.65,3.2c-0.7,1.333 -1.05,2.7 -1.05,4.1c0,2.933 1.183,5.233 3.55,6.9c2.033,1.433 4.55,2.15 7.55,2.15c5.967,-0 11.967,-1.767 18,-5.3c1.433,2.867 2.9,4.3 4.4,4.3l0.25,-0l0,-5.8l1.35,0c-1.619,-0.05 -2.719,-0.35 -3.3,-0.9c-0.633,-0.6 -1.083,-1.883 -1.35,-3.85c-4.033,4.167 -9.183,6.25 -15.45,6.25c-2.867,0 -5.483,-0.417 -7.85,-1.25c-3.3,-1.167 -4.95,-2.917 -4.95,-5.25Z" style="fill:#f00;"/><path d="M32.95,34.25l-2.9,-2.95l-2.9,3l2.9,2.95l2.9,-3Z" style="fill:#f00;"/><path d="M24.3,31.3l-2.85,2.95l2.85,3l2.85,-2.95l-2.85,-3Z" style="fill:#f00;"/><rect x="43.15" y="49.05" width="8.8" height="5.8"/><path d="M28.75,7.9c-0.767,0 -1.467,0.4 -2.1,1.2c-0.633,0.833 -0.95,1.617 -0.95,2.35c0,0.9 0.55,1.683 1.65,2.35c-1.067,1.133 -2.067,1.85 -3,2.15c0.067,-1.067 0.1,-1.7 0.1,-1.9c0,-1.833 -0.567,-2.75 -1.7,-2.75c-0.633,0 -1.133,0.3 -1.5,0.9c-0.367,0.533 -0.55,1.133 -0.55,1.8c0,0.333 0.083,0.75 0.25,1.25c0.167,-1.233 0.583,-1.85 1.25,-1.85c0.333,0 0.617,0.133 0.85,0.4c0.2,0.3 0.3,0.617 0.3,0.95c-0,0.533 -0.333,1.583 -1,3.15c1.3,-0.233 2.4,-0.633 3.3,-1.2c0.7,-0.467 1.583,-1.25 2.65,-2.35c0.467,0.4 1.2,0.883 2.2,1.45c0.033,-0.933 0.05,-1.45 0.05,-1.55c-0,-0.6 -0.317,-1.133 -0.95,-1.6c0.533,-1.233 0.8,-2.167 0.8,-2.8c0,-0.467 -0.167,-0.917 -0.5,-1.35c-0.333,-0.4 -0.717,-0.6 -1.15,-0.6Zm-1.5,1.75c0.2,-0.1 0.333,-0.15 0.4,-0.15c0.667,0 1,0.433 1,1.3l-0.05,1c-1.067,-0.733 -1.6,-1.3 -1.6,-1.7l0.25,-0.45Z"/></g></svg>