<?xml version="1.0" encoding="UTF-8" standalone="no"?><!DOCTYPE svg PUBLIC "-//W3C//DTD SVG 1.1//EN" "http://www.w3.org/Graphics/SVG/1.1/DTD/svg11.dtd"><svg width="100%" height="100%" viewBox="0 0 75 75" version="1.1" xmlns="http://www.w3.org/2000/svg" xmlns:xlink="http://www.w3.org/1999/xlink" xml:space="preserve" xmlns:serif="http://www.serif.com/" style="fill-rule:evenodd;clip-rule:evenodd;stroke-linejoin:round;stroke-miterlimit:2;"><g><path d="M36.2,38.55c-0.867,2.033 -1.567,3.567 -2.1,4.6c0.8,1.633 1.317,2.8 1.55,3.5c-0.874,1.101 -3.291,1.651 -7.25,1.65l-1.95,0l0,5.75l1.95,0c3.04,-0.065 5.24,-0.698 6.6,-1.9c1.567,-1.4 2.35,-3.8 2.35,-7.2c0,-0.933 -0.383,-3.067 -1.15,-6.4Z" style="fill:#f00;"/><path d="M36.4,29.45l-2.9,2.95l2.9,2.95l2.9,-3l-2.9,-2.9Z" style="fill:#f00;"/><path d="M30.65,29.45l-2.85,2.9l2.85,3l2.85,-2.95l-2.85,-2.95Z" style="fill:#f00;"/><path d="M36.55,26.2l-2.85,-2.95l-2.9,2.95l2.85,3l2.9,-3Z" style="fill:#f00;"/><path d="M26.45,48.3l1.95,0l-0,-0.05c-2,-0 -3.133,-0.033 -3.4,-0.1c-0.867,-0.167 -1.8,-0.75 -2.8,-1.75c-0.2,1.467 -0.533,2.733 -1,3.8c0.033,0.067 0.483,0.8 1.35,2.2c0.767,1.2 1.15,1.867 1.15,2c0,1.367 -1.467,3.117 -4.4,5.25c-2.833,2.067 -4.967,3.1 -6.4,3.1c-0.6,-0 -1.433,-0.133 -2.5,-0.4c-0.833,-0.233 -1.683,-0.45 -2.55,-0.65c1.1,1.3 2.367,2.35 3.8,3.15c1.6,0.967 3.133,1.45 4.6,1.45c2,0 4.017,-1.5 6.05,-4.5c1.8,-2.667 2.833,-5.133 3.1,-7.4c0.297,-0.208 0.647,-0.325 1.05,-0.35l0,-5.75Z"/><path d="M48.2,36.95l0.05,4.1c1.567,0 3.2,0.683 4.9,2.05c1.8,1.467 2.7,2.983 2.7,4.55c0,0.633 -1,1.15 -3,1.55c-1.5,0.333 -2.8,0.5 -3.9,0.5c-1.467,-0 -2.933,-0.417 -4.4,-1.25c-0.2,2.067 -0.3,3.2 -0.3,3.4c-0,1.633 0.517,2.667 1.55,3.1c0.567,0.233 1.783,0.35 3.65,0.35c2.433,0 4.3,-0.75 5.6,-2.25c1.2,-1.4 1.8,-3.367 1.8,-5.9c0,-3.033 -0.7,-5.717 -2.1,-8.05c-1.5,-2.567 -3.583,-4.3 -6.25,-5.2c-0.2,0.867 -0.3,1.883 -0.3,3.05Z"/><path d="M18.35,25.65c0.6,-0.7 0.9,-1.517 0.9,-2.45c0,-0.767 -0.217,-1.467 -0.65,-2.1c-0.5,-0.7 -1.117,-1.05 -1.85,-1.05c-0.967,0 -1.7,0.45 -2.2,1.35c-0.4,0.733 -0.6,1.65 -0.6,2.75c0,1.733 0.733,2.6 2.2,2.6c0.867,-0 1.6,-0.367 2.2,-1.1Zm-0.2,-1.9c-0,0.567 -0.533,0.85 -1.6,0.85c-1.3,0 -1.95,-0.417 -1.95,-1.25c0,-0.967 0.417,-1.45 1.25,-1.45c0.367,-0 0.833,0.217 1.4,0.65c0.6,0.433 0.9,0.833 0.9,1.2Z"/><path d="M35.25,14.1l-0.35,0.15c-0,1.633 -0.383,2.45 -1.15,2.45c-0.333,-0 -0.633,-0.533 -0.9,-1.6l-0.3,0.1c-0.133,0.8 -0.25,1.35 -0.35,1.65c-0.267,0.667 -0.633,1 -1.1,1c-0.4,0 -0.6,-0.6 -0.6,-1.8l-0.4,0.05c-0.233,0.867 -0.35,1.417 -0.35,1.65c0,0.467 0.1,0.883 0.3,1.25c0.233,0.4 0.567,0.6 1,0.6c0.4,0 0.767,-0.15 1.1,-0.45c0.367,-0.3 0.567,-0.633 0.6,-1c0.3,0.233 0.633,0.35 1,0.35c1.133,0 1.7,-0.933 1.7,-2.8c0,-0.5 -0.067,-1.033 -0.2,-1.6Z"/><path d="M32.659,59.143l-6.3,4.65c-0.666,0.492 -0.807,1.432 -0.316,2.098c0.492,0.666 1.432,0.807 2.098,0.316l6.3,-4.65c0.666,-0.492 0.807,-1.432 0.316,-2.098c-0.492,-0.666 -1.432,-0.807 -2.098,-0.316Z"/><path d="M51.659,9.643l-6.3,4.65c-0.666,0.492 -0.807,1.432 -0.316,2.098c0.492,0.666 1.432,0.807 2.098,0.316l6.3,-4.65c0.666,-0.492 0.807,-1.432 0.316,-2.098c-0.492,-0.666 -1.432,-0.807 -2.098,-0.316Z"/></g></svg>