<?xml version="1.0" encoding="UTF-8" standalone="no"?><!DOCTYPE svg PUBLIC "-//W3C//DTD SVG 1.1//EN" "http://www.w3.org/Graphics/SVG/1.1/DTD/svg11.dtd"><svg width="100%" height="100%" viewBox="0 0 42 71" version="1.1" xmlns="http://www.w3.org/2000/svg" xmlns:xlink="http://www.w3.org/1999/xlink" xml:space="preserve" xmlns:serif="http://www.serif.com/" style="fill-rule:evenodd;clip-rule:evenodd;stroke-linejoin:round;stroke-miterlimit:2;"><g><path d="M16.2,49l-0.6,0l-0,5.8l5.4,0c1.1,0 1.983,-0.417 2.65,-1.25c0.1,-0.133 0.633,-1.033 1.6,-2.7c0.5,0.867 1.2,1.7 2.1,2.5c1.067,0.967 1.967,1.45 2.7,1.45l3.7,0l0,-5.7c-0.066,0.028 -0.133,0.044 -0.2,0.05c-1.167,0.067 -1.967,0.1 -2.4,0.1c-1.467,0 -2.517,-0.3 -3.15,-0.9c-0.767,-0.733 -1.183,-2.1 -1.25,-4.1c-1.3,2.2 -2.2,3.533 -2.7,4c-0.633,0.567 -1.6,0.85 -2.9,0.85l-2.3,0c-0.203,-0.011 -0.403,-0.028 -0.6,-0.05c-0.723,-0.021 -1.406,-0.037 -2.05,-0.05Z" style="fill:#f00;"/><path d="M29.65,31.25l-2.85,3l2.85,2.95l2.9,-3l-2.9,-2.95Z" style="fill:#f00;"/><path d="M26.8,34.25l-2.85,-3l-2.9,2.95l2.85,3l2.9,-2.95Z" style="fill:#f00;"/><rect x="9.45" y="49" width="6.15" height="5.8"/><rect x="33.75" y="49" width="8.8" height="5.8"/><path d="M16.2,49c0.644,0.013 1.327,0.029 2.05,0.05l0,-0.05l-2.05,0Z"/><path d="M28.45,14c-0.5,-0.7 -1.117,-1.05 -1.85,-1.05c-0.967,-0 -1.7,0.45 -2.2,1.35c-0.4,0.733 -0.6,1.65 -0.6,2.75c-0,1.733 0.733,2.6 2.2,2.6c0.867,0 1.6,-0.367 2.2,-1.1c0.6,-0.7 0.9,-1.517 0.9,-2.45c-0,-0.767 -0.217,-1.467 -0.65,-2.1Zm-2.75,0.8c0.367,0 0.833,0.217 1.4,0.65c0.6,0.433 0.9,0.833 0.9,1.2c0,0.567 -0.533,0.85 -1.6,0.85c-1.3,0 -1.95,-0.417 -1.95,-1.25c0,-0.967 0.417,-1.45 1.25,-1.45Z"/></g></svg>