<?xml version="1.0" encoding="UTF-8" standalone="no"?><!DOCTYPE svg PUBLIC "-//W3C//DTD SVG 1.1//EN" "http://www.w3.org/Graphics/SVG/1.1/DTD/svg11.dtd"><svg width="100%" height="100%" viewBox="0 0 68 72" version="1.1" xmlns="http://www.w3.org/2000/svg" xmlns:xlink="http://www.w3.org/1999/xlink" xml:space="preserve" xmlns:serif="http://www.serif.com/" style="fill-rule:evenodd;clip-rule:evenodd;stroke-linejoin:round;stroke-miterlimit:2;"><g><path d="M32.7,63l3.3,-3.35l-3.3,-3.4l-3.3,3.4l3.3,3.35Z"/><path d="M50.8,42.95c0.667,0.833 1.35,1.65 2.05,2.45c0.933,1.167 1.4,2.05 1.4,2.65c0,3.1 -2.167,5.75 -6.5,7.95c-3.7,1.867 -7.217,2.8 -10.55,2.8c2.7,1.9 5.367,2.85 8,2.85c3.067,-0 5.667,-1.9 7.8,-5.7c1.833,-3.3 2.75,-6.65 2.75,-10.05c0,-1.667 -0.333,-3.1 -1,-4.3c-0.467,-0.9 -1.383,-2.05 -2.75,-3.45l-1.2,4.8Z"/><path d="M5.8,17.65c-0.433,0.567 -0.65,1.35 -0.65,2.35c-0,7.767 0.05,12.75 0.15,14.95c0.3,7.5 1.017,12.033 2.15,13.6c0.933,1.233 2.25,1.85 3.95,1.85l5.45,-0c1.067,-0 1.95,-0.417 2.65,-1.25c0.2,-0.267 0.733,-1.167 1.6,-2.7c1.067,1.667 1.633,2.533 1.7,2.6c0.733,0.9 1.6,1.35 2.6,1.35l3.85,-0l0,-0.05c2.783,-0.099 4.816,-0.715 6.1,-1.85c1.567,-1.4 2.35,-3.8 2.35,-7.2c0,-0.933 -0.383,-3.067 -1.15,-6.4c-0.867,2.033 -1.567,3.567 -2.1,4.6c0.8,1.633 1.317,2.8 1.55,3.5c-0.837,1.054 -3.087,1.604 -6.75,1.65l0,-0.05c-2.833,0 -4.517,-0.133 -5.05,-0.4c-1.067,-0.533 -1.6,-2.05 -1.6,-4.55c-0.833,0.667 -1.417,1.533 -1.75,2.6c-0.233,0.9 -0.65,1.483 -1.25,1.75c-0.831,0.333 -2.398,0.516 -4.7,0.55c-3.063,-0.096 -5.097,-0.812 -6.1,-2.15c-0.9,-1.233 -1.35,-3.833 -1.35,-7.8l0,-18.65c-0.567,0.567 -1.117,1.133 -1.65,1.7Z"/><path d="M17.65,30.25l3.25,3.3l3.3,-3.3l-3.25,-3.45l-3.3,3.45Z"/><path d="M33.6,20.75c-0.333,0 -0.633,-0.533 -0.9,-1.6l-0.3,0.1c-0.133,0.8 -0.25,1.35 -0.35,1.65c-0.267,0.667 -0.633,1 -1.1,1c-0.4,-0 -0.6,-0.6 -0.6,-1.8l-0.4,0.05c-0.233,0.867 -0.35,1.417 -0.35,1.65c0,0.467 0.1,0.883 0.3,1.25c0.233,0.4 0.567,0.6 1,0.6c0.4,-0 0.767,-0.15 1.1,-0.45c0.367,-0.3 0.567,-0.633 0.6,-1c0.3,0.233 0.633,0.35 1,0.35c1.133,0 1.7,-0.933 1.7,-2.8c-0,-0.5 -0.067,-1.033 -0.2,-1.6l-0.35,0.15c0,1.633 -0.383,2.45 -1.15,2.45Z"/><path d="M34.959,64.343l-6.3,4.65c-0.666,0.492 -0.807,1.432 -0.316,2.098c0.492,0.666 1.432,0.807 2.098,0.316l6.3,-4.65c0.666,-0.492 0.807,-1.432 0.316,-2.098c-0.492,-0.666 -1.432,-0.807 -2.098,-0.316Z"/><path d="M51.659,11.943l-6.3,4.65c-0.666,0.492 -0.807,1.432 -0.316,2.098c0.492,0.666 1.432,0.807 2.098,0.316l6.3,-4.65c0.666,-0.492 0.807,-1.432 0.316,-2.098c-0.492,-0.666 -1.432,-0.807 -2.098,-0.316Z"/><path d="M16.905,9.147l-6.25,4.65c-0.665,0.494 -0.803,1.434 -0.308,2.098c0.494,0.665 1.434,0.803 2.098,0.308l6.25,-4.65c0.665,-0.494 0.803,-1.434 0.308,-2.098c-0.494,-0.665 -1.434,-0.803 -2.098,-0.308Z"/></g></svg>