<?xml version="1.0" encoding="UTF-8" standalone="no"?><!DOCTYPE svg PUBLIC "-//W3C//DTD SVG 1.1//EN" "http://www.w3.org/Graphics/SVG/1.1/DTD/svg11.dtd"><svg width="100%" height="100%" viewBox="0 0 87 72" version="1.1" xmlns="http://www.w3.org/2000/svg" xmlns:xlink="http://www.w3.org/1999/xlink" xml:space="preserve" xmlns:serif="http://www.serif.com/" style="fill-rule:evenodd;clip-rule:evenodd;stroke-linejoin:round;stroke-miterlimit:2;"><g><path d="M62.9,57.3l3.3,3.35l3.3,-3.35l-3.3,-3.4l-3.3,3.4Z"/><path d="M23.253,36.553c1.331,2.531 1.997,5.447 1.997,8.747c0,3.4 -1.117,6.317 -3.35,8.75c-2.233,2.433 -4.983,3.65 -8.25,3.65c-2.633,-0 -4.667,-0.65 -6.1,-1.95c-1.567,-1.4 -2.35,-3.433 -2.35,-6.1c0,-1.467 0.25,-2.983 0.75,-4.55c0.567,-1.733 1.283,-3.083 2.15,-4.05l-0.7,5.5c-0,3.8 2.183,5.7 6.55,5.7c1.767,0 3.633,-0.45 5.6,-1.35c2.4,-1.1 3.6,-2.433 3.6,-4c-0,-1.267 -0.367,-2.567 -1.1,-3.9c-0.367,-0.667 -1.133,-1.817 -2.3,-3.45c0.633,-2.3 1.283,-4.1 1.95,-5.4l1.553,2.403Z"/><path d="M36.15,30.95l0.05,4.1c1.567,0 3.2,0.683 4.9,2.05c1.8,1.467 2.7,2.983 2.7,4.55c-0,0.633 -1,1.15 -3,1.55c-1.5,0.333 -2.8,0.5 -3.9,0.5c-1.467,0 -2.933,-0.417 -4.4,-1.25c-0.2,2.067 -0.3,3.2 -0.3,3.4c0,1.633 0.517,2.667 1.55,3.1c0.567,0.233 1.783,0.35 3.65,0.35c2.433,0 4.3,-0.75 5.6,-2.25c1.2,-1.4 1.8,-3.367 1.8,-5.9c-0,-3.033 -0.7,-5.717 -2.1,-8.05c-1.5,-2.567 -3.583,-4.3 -6.25,-5.2c-0.2,0.867 -0.3,1.883 -0.3,3.05Z"/><path d="M52.65,15.3c-0.433,0.567 -0.65,1.35 -0.65,2.35c0,7.767 0.05,12.75 0.15,14.95c0.3,7.5 1.017,12.033 2.15,13.6c0.933,1.233 2.25,1.85 3.95,1.85l4.45,0l0,-0.05c2.808,-0.092 4.858,-0.708 6.15,-1.85c1.567,-1.4 2.35,-3.8 2.35,-7.2c0,-0.933 -0.383,-3.067 -1.15,-6.4c-0.867,2.033 -1.567,3.567 -2.1,4.6c0.8,1.633 1.317,2.8 1.55,3.5c-0.841,1.059 -3.108,1.609 -6.8,1.65l0,-0.05c-3.6,-0 -5.95,-0.733 -7.05,-2.2c-0.9,-1.233 -1.35,-3.833 -1.35,-7.8l-0,-18.65c-0.567,0.567 -1.117,1.133 -1.65,1.7Z"/><path d="M10.2,28.65l3.3,3.35l3.3,-3.35l-3.3,-3.4l-3.3,3.4Z"/><path d="M41.65,18.55l-3.25,-3.45l-3.3,3.45l3.25,3.3l3.3,-3.3Z"/><path d="M37,3.5c-0.967,0 -1.7,0.45 -2.2,1.35c-0.4,0.733 -0.6,1.65 -0.6,2.75c0,1.733 0.733,2.6 2.2,2.6c0.867,-0 1.6,-0.367 2.2,-1.1c0.6,-0.7 0.9,-1.517 0.9,-2.45c0,-0.767 -0.217,-1.467 -0.65,-2.1c-0.5,-0.7 -1.117,-1.05 -1.85,-1.05Zm-2.15,3.3c0,-0.967 0.417,-1.45 1.25,-1.45c0.367,0 0.833,0.217 1.4,0.65c0.6,0.433 0.9,0.833 0.9,1.2c-0,0.567 -0.533,0.85 -1.6,0.85c-1.3,0 -1.95,-0.417 -1.95,-1.25Z"/><path d="M68.859,61.493l-6.3,4.65c-0.666,0.492 -0.807,1.432 -0.316,2.098c0.492,0.666 1.432,0.807 2.098,0.316l6.3,-4.65c0.666,-0.492 0.807,-1.432 0.316,-2.098c-0.492,-0.666 -1.432,-0.807 -2.098,-0.316Z"/><path d="M11.805,60.497l-6.25,4.65c-0.665,0.494 -0.803,1.434 -0.308,2.098c0.494,0.665 1.434,0.803 2.098,0.308l6.25,-4.65c0.665,-0.494 0.803,-1.434 0.308,-2.098c-0.494,-0.665 -1.434,-0.803 -2.098,-0.308Z"/><path d="M55.409,57.693l-6.3,4.65c-0.666,0.492 -0.807,1.432 -0.316,2.098c0.492,0.666 1.432,0.807 2.098,0.316l6.3,-4.65c0.666,-0.492 0.807,-1.432 0.316,-2.098c-0.492,-0.666 -1.432,-0.807 -2.098,-0.316Z"/></g></svg>