<?xml version="1.0" encoding="UTF-8" standalone="no"?><!DOCTYPE svg PUBLIC "-//W3C//DTD SVG 1.1//EN" "http://www.w3.org/Graphics/SVG/1.1/DTD/svg11.dtd"><svg width="100%" height="100%" viewBox="0 0 61 93" version="1.1" xmlns="http://www.w3.org/2000/svg" xmlns:xlink="http://www.w3.org/1999/xlink" xml:space="preserve" xmlns:serif="http://www.serif.com/" style="fill-rule:evenodd;clip-rule:evenodd;stroke-linecap:round;stroke-linejoin:round;"><g><g id="Layer0_0_FILL"><path d="M31.85,61.15l-2,-0l0,6.75l18.3,-0l-0,-6.75l-16.3,-0m153.15,1.55l-2,0l0,6.75l18.3,0l-0,-6.75l-16.3,0m165.4,7.65l0,-6.75l-18.3,0l0,6.75l18.3,0m-286.7,-120.8l0,2.4l8.75,-0l0,-2.4l-8.75,0m28.25,-6l0,0.6c1.033,-0 1.717,0.15 2.05,0.45c0.3,0.3 0.45,0.85 0.45,1.65l0,8.2c-0.833,0.8 -1.567,1.35 -2.2,1.65c-0.6,0.267 -1.15,0.4 -1.65,0.4c-0.7,-0 -1.3,-0.217 -1.8,-0.65c-0.5,-0.4 -0.75,-1.283 -0.75,-2.65l0,-9.65l-5.45,-0l0,0.6c0.8,-0.033 1.367,0.033 1.7,0.2c0.3,0.133 0.517,0.333 0.65,0.6c0.167,0.267 0.25,0.733 0.25,1.4l0,6.45c0,1.367 0.133,2.417 0.4,3.15c0.233,0.733 0.667,1.333 1.3,1.8c0.633,0.467 1.4,0.7 2.3,0.7c0.767,-0 1.5,-0.183 2.2,-0.55c0.7,-0.333 1.717,-1.167 3.05,-2.5l0,3.05l0.75,-0l4.65,-1.8l-0.25,-0.55c-0.433,0.2 -0.817,0.3 -1.15,0.3c-0.267,-0 -0.483,-0.083 -0.65,-0.25c-0.2,-0.133 -0.333,-0.383 -0.4,-0.75c-0.1,-0.4 -0.15,-1.433 -0.15,-3.1l0,-8.75l-5.3,-0m91.8,-1.75l-0.75,-0l-4.7,1.75l0.25,0.55c0.467,-0.133 0.85,-0.2 1.15,-0.2c0.3,-0 0.533,0.067 0.7,0.2c0.167,0.1 0.3,0.333 0.4,0.7c0.1,0.433 0.15,1.433 0.15,3l0,5.6c0,0.9 -0.083,1.5 -0.25,1.8c-0.167,0.3 -0.367,0.533 -0.6,0.7c-0.267,0.133 -0.783,0.2 -1.55,0.2l0,0.55l7.55,-0l0,-0.55c-0.733,-0 -1.233,-0.083 -1.5,-0.25c-0.3,-0.133 -0.517,-0.35 -0.65,-0.65c-0.133,-0.3 -0.2,-0.9 -0.2,-1.8l0,-11.6m-16.55,6.4l-8.75,-0l0,2.4l8.75,-0l0,-2.4m16.35,-13.5c-0.333,-0.3 -0.733,-0.45 -1.2,-0.45c-0.5,-0 -0.917,0.15 -1.25,0.45c-0.333,0.3 -0.5,0.667 -0.5,1.1c0,0.467 0.167,0.85 0.5,1.15c0.333,0.333 0.75,0.5 1.25,0.5c0.467,-0 0.867,-0.167 1.2,-0.5c0.333,-0.3 0.5,-0.683 0.5,-1.15c-0,-0.433 -0.167,-0.8 -0.5,-1.1m89.85,14.85l-8.75,-0l0,2.4l8.75,-0l0,-2.4m22.85,-4.85c-1.133,-1.067 -2.567,-1.6 -4.3,-1.6c-2.067,-0 -3.767,0.7 -5.1,2.1c-1.367,1.367 -2.05,3.283 -2.05,5.75c0,2.3 0.667,4.117 2,5.45c1.3,1.367 2.883,2.05 4.75,2.05c1.733,-0 3.167,-0.583 4.3,-1.75c1.133,-1.2 1.833,-2.517 2.1,-3.95l-0.55,-0.35c-0.5,1.267 -1.133,2.167 -1.9,2.7c-0.733,0.5 -1.617,0.75 -2.65,0.75c-1.533,-0 -2.867,-0.6 -4,-1.8c-1.1,-1.233 -1.65,-2.917 -1.65,-5.05l10.75,-0c0,-1.8 -0.567,-3.233 -1.7,-4.3m-7.75,0.55c0.733,-0.667 1.567,-1 2.5,-1c0.633,-0 1.217,0.167 1.75,0.5c0.567,0.333 1,0.8 1.3,1.4c0.167,0.367 0.283,1.017 0.35,1.95l-7.2,-0c0.133,-1.233 0.567,-2.183 1.3,-2.85m-390.75,-170.65l-0,0.25l0.35,0c0.233,0 0.467,0.05 0.7,0.15c0.167,0.067 0.267,0.15 0.3,0.25c0.067,0.133 0.1,0.417 0.1,0.85l-0,5.45c-0,0.5 -0.05,0.817 -0.15,0.95c-0.2,0.2 -0.517,0.3 -0.95,0.3l-0.35,0l-0,0.25l4.4,0l-0,-0.25l-0.4,0c-0.233,0 -0.45,-0.05 -0.65,-0.15c-0.167,-0.067 -0.283,-0.15 -0.35,-0.25c-0.067,-0.133 -0.1,-0.417 -0.1,-0.85l-0,-5.45c-0,-0.5 0.067,-0.817 0.2,-0.95c0.2,-0.2 0.5,-0.3 0.9,-0.3l0.4,0l-0,-0.25l-4.4,0m17,0.55c0.167,-0.2 0.467,-0.3 0.9,-0.3l0.4,0l-0,-0.25l-2.95,0l-3.65,6.6l-3.75,-6.6l-2.9,0l-0,0.25c0.433,0 0.733,0.033 0.9,0.1c0.2,0.1 0.333,0.2 0.4,0.3c0.1,0.167 0.15,0.45 0.15,0.85l-0,5.5c-0,0.467 -0.05,0.767 -0.15,0.9c-0.2,0.2 -0.517,0.3 -0.95,0.3l-0.35,-0l-0,0.25l3.6,-0l-0,-0.25l-0.4,-0c-0.4,-0 -0.683,-0.083 -0.85,-0.25c-0.133,-0.133 -0.2,-0.45 -0.2,-0.95l-0,-5.65l3.95,7.1l0.25,-0l3.95,-7.1l-0,5.65c-0,0.467 -0.05,0.767 -0.15,0.9c-0.167,0.2 -0.467,0.3 -0.9,0.3l-0.4,-0l-0,0.25l4.4,-0l-0,-0.25l-0.4,-0c-0.4,-0 -0.683,-0.083 -0.85,-0.25c-0.167,-0.133 -0.25,-0.45 -0.25,-0.95l-0,-5.5c-0,-0.5 0.067,-0.817 0.2,-0.95m8.75,-0c0.233,0.1 0.417,0.233 0.55,0.4c0.133,0.167 0.25,0.467 0.35,0.9l0.3,-0l-0.1,-1.85l-7.95,-0l-0,0.25l0.4,-0c0.4,-0 0.7,0.083 0.9,0.25c0.133,0.133 0.2,0.467 0.2,1l-0,5.45c-0,0.433 -0.033,0.717 -0.1,0.85c-0.067,0.133 -0.183,0.233 -0.35,0.3c-0.2,0.067 -0.417,0.1 -0.65,0.1l-0.4,-0l-0,0.25l7.95,-0l0.9,-2.1l-0.35,-0c-0.3,0.5 -0.617,0.883 -0.95,1.15c-0.233,0.2 -0.483,0.333 -0.75,0.4c-0.267,0.067 -0.683,0.1 -1.25,0.1l-1.75,-0c-0.3,-0 -0.5,-0.033 -0.6,-0.1c-0.1,-0.033 -0.167,-0.083 -0.2,-0.15c-0.033,-0.1 -0.05,-0.333 -0.05,-0.7l-0,-2.8l2.25,-0c0.433,-0 0.75,0.05 0.95,0.15c0.2,0.067 0.35,0.183 0.45,0.35c0.067,0.1 0.133,0.35 0.2,0.75l0.3,-0l-0,-2.9l-0.3,-0c-0.033,0.467 -0.167,0.8 -0.4,1c-0.2,0.133 -0.6,0.2 -1.2,0.2l-2.25,-0l-0,-3.3l2.8,-0c0.533,-0 0.9,0.017 1.1,0.05m361.15,-0.7l-0.25,-0l-3.65,6.9c-0.3,0.633 -0.583,1.05 -0.85,1.25c-0.133,0.1 -0.417,0.167 -0.85,0.2l-0,0.25l3.25,-0l-0,-0.25c-0.5,-0 -0.817,-0.05 -0.95,-0.15c-0.167,-0.1 -0.25,-0.217 -0.25,-0.35c-0,-0.167 0.1,-0.417 0.3,-0.75l0.65,-1.3l4,-0l0.6,1.2c0.233,0.4 0.35,0.683 0.35,0.85c-0,0.133 -0.083,0.25 -0.25,0.35c-0.133,0.1 -0.4,0.15 -0.8,0.15l-0,0.25l4.05,-0l-0,-0.25c-0.433,-0 -0.767,-0.083 -1,-0.25c-0.233,-0.167 -0.5,-0.533 -0.8,-1.1l-3.55,-7m-0.55,1.9l1.75,3.4l-3.55,-0l1.8,-3.4m17.45,6.7l-0,-0.25c-0.433,-0 -0.883,-0.1 -1.35,-0.3c-0.433,-0.167 -0.95,-0.517 -1.55,-1.05l-3.8,-3.05l1.55,-1.3c0.933,-0.767 1.45,-1.2 1.55,-1.3c0.367,-0.267 0.683,-0.467 0.95,-0.6c0.267,-0.133 0.5,-0.217 0.7,-0.25c0.167,-0.067 0.367,-0.1 0.6,-0.1l-0,-0.25l-3.8,0l-0,0.25l0.25,0c0.267,0 0.45,0.033 0.55,0.1c0.1,0.067 0.15,0.15 0.15,0.25c-0,0.133 -0.067,0.283 -0.2,0.45c-0.333,0.367 -1.25,1.117 -2.75,2.25c-0.567,0.433 -0.9,0.7 -1,0.8l-0,-2.6c-0,-0.4 0.017,-0.667 0.05,-0.8c0.067,-0.133 0.183,-0.233 0.35,-0.3c0.233,-0.1 0.467,-0.15 0.7,-0.15l0.35,0l-0,-0.25l-4.4,0l-0,0.25l0.35,0c0.267,0 0.5,0.05 0.7,0.15c0.167,0.067 0.283,0.15 0.35,0.25c0.067,0.133 0.1,0.417 0.1,0.85l-0,5.45c-0,0.5 -0.067,0.817 -0.2,0.95c-0.2,0.2 -0.517,0.3 -0.95,0.3l-0.35,0l-0,0.25l4.4,0l-0,-0.25l-0.35,0c-0.233,0 -0.467,-0.05 -0.7,-0.15c-0.167,-0.067 -0.267,-0.15 -0.3,-0.25c-0.067,-0.133 -0.1,-0.417 -0.1,-0.85l-0,-2.7l3.55,2.85c0.267,0.233 0.417,0.383 0.45,0.45c0.067,0.1 0.1,0.2 0.1,0.3c-0,0.1 -0.067,0.183 -0.2,0.25c-0.133,0.067 -0.35,0.1 -0.65,0.1l-0,0.25l4.9,0m-62.95,-7.4c-0.367,-0.367 -0.817,-0.633 -1.35,-0.8c-0.533,-0.167 -1.25,-0.25 -2.15,-0.25l-3.8,0l-0,0.25l0.4,0c0.4,0 0.683,0.083 0.85,0.25c0.167,0.133 0.25,0.467 0.25,1l-0,5.45c-0,0.5 -0.05,0.8 -0.15,0.9c-0.2,0.233 -0.517,0.35 -0.95,0.35l-0.4,0l-0,0.25l4.4,0l-0,-0.25l-0.4,0c-0.367,0 -0.65,-0.083 -0.85,-0.25c-0.133,-0.133 -0.2,-0.467 -0.2,-1l-0,-2.45c0.333,0.067 0.633,0.117 0.9,0.15c0.3,0.033 0.567,0.05 0.8,0.05c1.033,0 1.817,-0.217 2.35,-0.65c0.567,-0.433 0.85,-1 0.85,-1.7c-0,-0.5 -0.183,-0.933 -0.55,-1.3m-1.45,0.4c0.167,0.333 0.25,0.683 0.25,1.05c-0,0.5 -0.183,0.933 -0.55,1.3c-0.4,0.3 -0.85,0.45 -1.35,0.45l-0.55,0c-0.2,-0.033 -0.433,-0.067 -0.7,-0.1l-0,-3.5c0.4,-0.1 0.733,-0.15 1,-0.15c0.4,0 0.767,0.083 1.1,0.25c0.333,0.167 0.6,0.4 0.8,0.7m8.25,-1.6c-1.367,0 -2.533,0.367 -3.5,1.1c-1.1,0.833 -1.65,1.917 -1.65,3.25c-0,1.3 0.483,2.367 1.45,3.2c0.967,0.833 2.15,1.25 3.55,1.25c1.4,0 2.6,-0.433 3.6,-1.3c0.967,-0.833 1.45,-1.883 1.45,-3.15c-0,-1.267 -0.483,-2.3 -1.45,-3.1c-0.967,-0.833 -2.117,-1.25 -3.45,-1.25m-2.4,1.25c0.567,-0.533 1.317,-0.8 2.25,-0.8c0.967,0 1.733,0.283 2.3,0.85c0.7,0.7 1.05,1.767 1.05,3.2c-0,1.333 -0.317,2.317 -0.95,2.95c-0.633,0.6 -1.433,0.9 -2.4,0.9c-0.9,0 -1.633,-0.283 -2.2,-0.85c-0.7,-0.733 -1.05,-1.783 -1.05,-3.15c-0,-1.367 0.333,-2.4 1,-3.1m17,-1.25c-0.067,0.2 -0.167,0.35 -0.3,0.45c-0.1,0.067 -0.217,0.1 -0.35,0.1c-0.1,0 -0.25,-0.033 -0.45,-0.1c-0.733,-0.3 -1.467,-0.45 -2.2,-0.45c-0.967,0 -1.85,0.183 -2.65,0.55c-0.8,0.4 -1.433,0.95 -1.9,1.65c-0.467,0.7 -0.7,1.467 -0.7,2.3c-0,1.067 0.35,1.983 1.05,2.75c0.933,1.033 2.25,1.55 3.95,1.55c0.967,0 1.783,-0.183 2.45,-0.55c0.7,-0.333 1.3,-0.883 1.8,-1.65l-0.2,-0.1c-0.633,0.7 -1.2,1.167 -1.7,1.4c-0.5,0.233 -1.083,0.35 -1.75,0.35c-0.767,0 -1.45,-0.15 -2.05,-0.45c-0.6,-0.3 -1.05,-0.733 -1.35,-1.3c-0.3,-0.567 -0.45,-1.217 -0.45,-1.95c-0,-0.933 0.15,-1.717 0.45,-2.35c0.333,-0.6 0.767,-1.05 1.3,-1.35c0.567,-0.267 1.183,-0.4 1.85,-0.4c0.833,0 1.533,0.183 2.1,0.55c0.6,0.367 1.05,0.983 1.35,1.85l0.25,0l-0.25,-2.85l-0.25,0m-2.65,-0.5l1.45,-2.05l-0.25,0l-1.75,1.3l-2.05,-1.3l-0.25,0l1.45,2.05l1.4,0m11.05,1.2c0.233,0.1 0.417,0.233 0.55,0.4c0.133,0.167 0.25,0.467 0.35,0.9l0.3,0l-0.1,-1.85l-7.95,0l-0,0.25l0.4,0c0.4,0 0.7,0.083 0.9,0.25c0.133,0.133 0.2,0.467 0.2,1l-0,5.45c-0,0.433 -0.033,0.717 -0.1,0.85c-0.067,0.133 -0.183,0.233 -0.35,0.3c-0.2,0.067 -0.417,0.1 -0.65,0.1l-0.4,0l-0,0.25l7.95,0l0.9,-2.1l-0.35,0c-0.3,0.5 -0.617,0.883 -0.95,1.15c-0.233,0.2 -0.483,0.333 -0.75,0.4c-0.267,0.067 -0.683,0.1 -1.25,0.1l-1.75,0c-0.3,0 -0.5,-0.033 -0.6,-0.1c-0.1,-0.033 -0.167,-0.083 -0.2,-0.15c-0.033,-0.1 -0.05,-0.333 -0.05,-0.7l-0,-2.8l2.25,0c0.433,0 0.75,0.05 0.95,0.15c0.2,0.067 0.35,0.183 0.45,0.35c0.067,0.1 0.133,0.35 0.2,0.75l0.3,0l-0,-2.9l-0.3,0c-0.033,0.467 -0.167,0.8 -0.4,1c-0.2,0.133 -0.6,0.2 -1.2,0.2l-2.25,0l-0,-3.3l2.8,0c0.533,0 0.9,0.017 1.1,0.05m3.45,0.55c0.167,-0.233 0.383,-0.383 0.65,-0.45c0.2,-0.067 0.55,-0.1 1.05,-0.1l1.25,-0l-0,6.45c-0,0.467 -0.067,0.767 -0.2,0.9c-0.167,0.2 -0.467,0.3 -0.9,0.3l-0.4,0l-0,0.25l4.4,0l-0,-0.25l-0.4,0c-0.4,0 -0.683,-0.083 -0.85,-0.25c-0.133,-0.133 -0.2,-0.45 -0.2,-0.95l-0,-6.45l1.45,-0c0.4,-0 0.733,0.05 1,0.15c0.267,0.133 0.483,0.317 0.65,0.55c0.1,0.167 0.167,0.417 0.2,0.75l0.3,-0l-0.1,-2l-8.4,-0l-0.15,2l0.3,-0c0.033,-0.367 0.15,-0.667 0.35,-0.9m-363.65,28.8l-0,-0.25l-4.65,-0l-0,0.25l0.4,-0c0.4,-0 0.7,0.083 0.9,0.25c0.133,0.133 0.2,0.467 0.2,1l-0,5.45c-0,0.467 -0.05,0.767 -0.15,0.9c-0.2,0.233 -0.517,0.35 -0.95,0.35l-0.4,-0l-0,0.25l7.95,-0l0.9,-2.3l-0.25,-0.05c-0.267,0.533 -0.533,0.917 -0.8,1.15c-0.267,0.267 -0.55,0.433 -0.85,0.5c-0.333,0.1 -0.883,0.15 -1.65,0.15l-0.75,-0c-0.667,-0 -1.067,-0.017 -1.2,-0.05c-0.133,-0.033 -0.233,-0.1 -0.3,-0.2c-0.067,-0.133 -0.1,-0.367 -0.1,-0.7l-0,-5.3c-0,-0.5 0.033,-0.817 0.1,-0.95c0.1,-0.133 0.25,-0.25 0.45,-0.35c0.233,-0.067 0.617,-0.1 1.15,-0.1m-6.1,1.6l-0.1,-1.85l-7.95,-0l-0,0.25l0.4,-0c0.4,-0 0.7,0.083 0.9,0.25c0.133,0.133 0.2,0.467 0.2,1l-0,5.45c-0,0.433 -0.033,0.717 -0.1,0.85c-0.067,0.133 -0.183,0.233 -0.35,0.3c-0.2,0.067 -0.417,0.1 -0.65,0.1l-0.4,-0l-0,0.25l7.95,-0l0.9,-2.1l-0.35,-0c-0.3,0.5 -0.617,0.883 -0.95,1.15c-0.233,0.2 -0.483,0.333 -0.75,0.4c-0.267,0.067 -0.683,0.1 -1.25,0.1l-1.75,-0c-0.3,-0 -0.5,-0.033 -0.6,-0.1c-0.1,-0.033 -0.167,-0.083 -0.2,-0.15c-0.033,-0.1 -0.05,-0.333 -0.05,-0.7l-0,-2.8l2.25,-0c0.433,-0 0.75,0.05 0.95,0.15c0.2,0.067 0.35,0.183 0.45,0.35c0.067,0.1 0.133,0.35 0.2,0.75l0.3,-0l-0,-2.9l-0.3,-0c-0.033,0.467 -0.167,0.8 -0.4,1c-0.2,0.133 -0.6,0.2 -1.2,0.2l-2.25,-0l-0,-3.3l2.8,-0c0.533,-0 0.9,0.017 1.1,0.05c0.233,0.1 0.417,0.233 0.55,0.4c0.133,0.167 0.25,0.467 0.35,0.9l0.3,-0m11.05,-1.85l-0,0.25l0.35,-0c0.233,-0 0.467,0.05 0.7,0.15c0.167,0.067 0.267,0.15 0.3,0.25c0.067,0.133 0.1,0.417 0.1,0.85l-0,5.45c-0,0.5 -0.05,0.817 -0.15,0.95c-0.2,0.2 -0.517,0.3 -0.95,0.3l-0.35,-0l-0,0.25l4.4,-0l-0,-0.25l-0.4,-0c-0.233,-0 -0.45,-0.05 -0.65,-0.15c-0.167,-0.067 -0.283,-0.15 -0.35,-0.25c-0.067,-0.133 -0.1,-0.417 -0.1,-0.85l-0,-5.45c-0,-0.5 0.067,-0.817 0.2,-0.95c0.2,-0.2 0.5,-0.3 0.9,-0.3l0.4,-0l-0,-0.25l-4.4,-0m6.35,0.65c0.067,0.133 0.1,0.417 0.1,0.85l-0,5.45c-0,0.5 -0.05,0.817 -0.15,0.95c-0.2,0.2 -0.517,0.3 -0.95,0.3l-0.35,-0l-0,0.25l4.4,-0l-0,-0.25l-0.35,-0c-0.233,-0 -0.467,-0.05 -0.7,-0.15c-0.167,-0.067 -0.283,-0.15 -0.35,-0.25c-0.033,-0.133 -0.05,-0.417 -0.05,-0.85l-0,-2.65l1.85,-0c0.333,-0 0.6,0.05 0.8,0.15c0.167,0.067 0.3,0.167 0.4,0.3c0.1,0.167 0.15,0.417 0.15,0.75l0.25,-0l-0,-2.85l-0.25,-0c-0.067,0.467 -0.2,0.767 -0.4,0.9c-0.2,0.167 -0.517,0.25 -0.95,0.25l-1.85,-0l-0,-3.3l2.25,-0c0.533,-0 0.933,0.033 1.2,0.1c0.233,0.1 0.45,0.233 0.65,0.4c0.167,0.2 0.317,0.483 0.45,0.85l0.25,-0l-0.1,-1.85l-7.65,-0l-0,0.25l0.35,-0c0.267,-0 0.5,0.05 0.7,0.15c0.167,0.067 0.267,0.15 0.3,0.25m255.1,15.9l-0,-3.65l-5.75,-0l-0,3.65l5.75,-0m-87.5,-1l-0,-3.65l-5.75,-0l-0,3.65l5.75,-0m-129,-45.2l-0,0.25l0.35,-0c0.233,-0 0.467,0.05 0.7,0.15c0.167,0.067 0.267,0.15 0.3,0.25c0.067,0.133 0.1,0.417 0.1,0.85l-0,5.45c-0,0.5 -0.05,0.817 -0.15,0.95c-0.2,0.2 -0.517,0.3 -0.95,0.3l-0.35,-0l-0,0.25l4.4,-0l-0,-0.25l-0.4,-0c-0.233,-0 -0.45,-0.05 -0.65,-0.15c-0.167,-0.067 -0.283,-0.15 -0.35,-0.25c-0.067,-0.133 -0.1,-0.417 -0.1,-0.85l-0,-5.45c-0,-0.5 0.067,-0.817 0.2,-0.95c0.2,-0.2 0.5,-0.3 0.9,-0.3l0.4,-0l-0,-0.25l-4.4,-0m8.3,0.5l3.3,-0l-6.6,7.7l-0,0.25l8.35,-0l0.5,-2.25l-0.25,-0c-0.267,0.7 -0.567,1.167 -0.9,1.4c-0.367,0.233 -0.867,0.35 -1.5,0.35l-4.2,-0l6.75,-7.95l-7.6,-0l-0.25,2.15l0.3,-0c0.1,-0.533 0.217,-0.883 0.35,-1.05c0.133,-0.2 0.317,-0.35 0.55,-0.45c0.267,-0.1 0.667,-0.15 1.2,-0.15m15.5,-0.65l-0.3,-0c-0,0.2 -0.033,0.333 -0.1,0.4c-0.1,0.067 -0.183,0.1 -0.25,0.1c-0.1,-0 -0.3,-0.033 -0.6,-0.1c-0.567,-0.167 -1,-0.283 -1.3,-0.35c-0.3,-0.033 -0.633,-0.05 -1,-0.05c-1.033,-0 -1.933,0.167 -2.7,0.5c-0.9,0.433 -1.6,1.067 -2.1,1.9c-0.433,0.667 -0.65,1.367 -0.65,2.1c-0,1.033 0.383,1.95 1.15,2.75c1.033,1.033 2.55,1.55 4.55,1.55c0.667,-0 1.283,-0.067 1.85,-0.2c0.567,-0.1 1.15,-0.283 1.75,-0.55l-0,-2.6c-0,-0.433 0.05,-0.733 0.15,-0.9c0.133,-0.2 0.4,-0.3 0.8,-0.3l0.2,-0l-0,-0.25l-4,-0l-0,0.25c0.433,-0 0.733,0.033 0.9,0.1c0.167,0.067 0.283,0.167 0.35,0.3c0.067,0.133 0.1,0.4 0.1,0.8l-0,2.45c-0.333,0.167 -0.667,0.283 -1,0.35c-0.367,0.067 -0.733,0.1 -1.1,0.1c-0.667,-0 -1.3,-0.15 -1.9,-0.45c-0.6,-0.3 -1.1,-0.783 -1.5,-1.45c-0.367,-0.667 -0.55,-1.4 -0.55,-2.2c-0,-1 0.283,-1.85 0.85,-2.55c0.667,-0.867 1.667,-1.3 3,-1.3c0.933,-0 1.717,0.25 2.35,0.75c0.433,0.333 0.783,0.833 1.05,1.5l0.25,-0l-0.25,-2.65m7.4,-0c-1.367,-0 -2.533,0.367 -3.5,1.1c-1.1,0.833 -1.65,1.917 -1.65,3.25c-0,1.3 0.483,2.367 1.45,3.2c0.967,0.833 2.15,1.25 3.55,1.25c1.4,-0 2.6,-0.433 3.6,-1.3c0.967,-0.833 1.45,-1.883 1.45,-3.15c-0,-1.267 -0.483,-2.3 -1.45,-3.1c-0.967,-0.833 -2.117,-1.25 -3.45,-1.25m-0.15,0.45c0.967,-0 1.733,0.283 2.3,0.85c0.7,0.7 1.05,1.767 1.05,3.2c-0,1.333 -0.317,2.317 -0.95,2.95c-0.633,0.6 -1.433,0.9 -2.4,0.9c-0.9,0 -1.633,-0.283 -2.2,-0.85c-0.7,-0.733 -1.05,-1.783 -1.05,-3.15c-0,-1.367 0.333,-2.4 1,-3.1c0.567,-0.533 1.317,-0.8 2.25,-0.8m16.65,-0.05l-0,-0.25l-3.15,0l-0,0.25l0.15,0c0.333,0.067 0.583,0.15 0.75,0.25c0.133,0.1 0.2,0.217 0.2,0.35c-0,0.2 -0.117,0.533 -0.35,1l-2.45,4.9l-2.6,-4.95c-0.233,-0.433 -0.35,-0.767 -0.35,-1c-0,-0.133 0.067,-0.25 0.2,-0.35c0.133,-0.1 0.45,-0.167 0.95,-0.2l-0,-0.25l-4.2,0l-0,0.25c0.3,0.033 0.55,0.083 0.75,0.15c0.167,0.067 0.317,0.167 0.45,0.3c0.067,0.067 0.2,0.3 0.4,0.7l3.85,7.25l0.3,-0l3.6,-7.2c0.2,-0.4 0.433,-0.7 0.7,-0.9c0.2,-0.133 0.467,-0.233 0.8,-0.3m9.35,7.1c0.967,-0.833 1.45,-1.883 1.45,-3.15c-0,-1.267 -0.483,-2.3 -1.45,-3.1c-0.967,-0.833 -2.117,-1.25 -3.45,-1.25c-1.367,-0 -2.533,0.367 -3.5,1.1c-1.1,0.833 -1.65,1.917 -1.65,3.25c-0,1.3 0.483,2.367 1.45,3.2c0.967,0.833 2.15,1.25 3.55,1.25c1.4,0 2.6,-0.433 3.6,-1.3m-5.85,-6.25c0.567,-0.533 1.317,-0.8 2.25,-0.8c0.967,0 1.733,0.283 2.3,0.85c0.7,0.7 1.05,1.767 1.05,3.2c-0,1.333 -0.317,2.317 -0.95,2.95c-0.633,0.6 -1.433,0.9 -2.4,0.9c-0.9,0 -1.633,-0.283 -2.2,-0.85c-0.7,-0.733 -1.05,-1.783 -1.05,-3.15c-0,-1.367 0.333,-2.4 1,-3.1m8.55,-0.85c0.4,0 0.7,0.083 0.9,0.25c0.133,0.133 0.2,0.467 0.2,1l-0,5.45c-0,0.5 -0.05,0.8 -0.15,0.9c-0.2,0.233 -0.517,0.35 -0.95,0.35l-0.4,0l-0,0.25l4.4,0l-0,-0.25l-0.4,0c-0.367,0 -0.65,-0.083 -0.85,-0.25c-0.133,-0.133 -0.2,-0.467 -0.2,-1l-0,-2.45l1.05,0l3.5,3.95l2.75,0l-0,-0.25c-0.567,-0.033 -1.017,-0.15 -1.35,-0.35c-0.367,-0.167 -0.783,-0.533 -1.25,-1.1l-2.15,-2.4c0.867,-0.167 1.5,-0.433 1.9,-0.8c0.433,-0.4 0.65,-0.85 0.65,-1.35c-0,-0.5 -0.183,-0.917 -0.55,-1.25c-0.367,-0.367 -0.8,-0.617 -1.3,-0.75c-0.533,-0.133 -1.35,-0.2 -2.45,-0.2l-3.75,0l-0,0.25l0.4,0m3.75,0.25c0.633,0 1.167,0.167 1.6,0.5c0.4,0.333 0.6,0.75 0.6,1.25c-0,0.567 -0.25,1.017 -0.75,1.35c-0.5,0.333 -1.25,0.5 -2.25,0.5l-0.4,0l-0,-3.5c0.5,-0.067 0.9,-0.1 1.2,-0.1m151,-0.05c-0.8,-0.3 -1.967,-0.45 -3.5,-0.45l-4.2,0l-0,0.25l0.4,0c0.4,0 0.7,0.083 0.9,0.25c0.133,0.133 0.2,0.467 0.2,1l-0,5.45c-0,0.467 -0.05,0.783 -0.15,0.95c-0.2,0.2 -0.517,0.3 -0.95,0.3l-0.4,0l-0,0.25l4.6,0c2,0 3.483,-0.433 4.45,-1.3c0.867,-0.8 1.3,-1.783 1.3,-2.95c-0,-0.867 -0.233,-1.633 -0.7,-2.3c-0.5,-0.667 -1.15,-1.15 -1.95,-1.45m-4.75,0.2c0.567,-0.1 1.083,-0.15 1.55,-0.15c1.2,0 2.2,0.333 3,1c0.767,0.667 1.15,1.583 1.15,2.75c-0,1.167 -0.383,2.083 -1.15,2.75c-0.8,0.667 -1.783,1 -2.95,1c-0.433,0 -0.967,-0.05 -1.6,-0.15l-0,-7.2m26.85,6.3l0.65,-1.3l4,0l0.6,1.2c0.233,0.4 0.35,0.683 0.35,0.85c-0,0.133 -0.083,0.25 -0.25,0.35c-0.133,0.1 -0.4,0.15 -0.8,0.15l-0,0.25l4.05,0l-0,-0.25c-0.433,0 -0.767,-0.083 -1,-0.25c-0.233,-0.167 -0.5,-0.533 -0.8,-1.1l-3.55,-7l-0.25,0l-3.65,6.9c-0.3,0.633 -0.583,1.05 -0.85,1.25c-0.133,0.1 -0.417,0.167 -0.85,0.2l-0,0.25l3.25,0l-0,-0.25c-0.5,0 -0.817,-0.05 -0.95,-0.15c-0.167,-0.1 -0.25,-0.217 -0.25,-0.35c-0,-0.167 0.1,-0.417 0.3,-0.75m2.7,-5.2l1.75,3.4l-3.55,0l1.8,-3.4m-20.05,-1.35c0.167,0.067 0.267,0.15 0.3,0.25c0.067,0.133 0.1,0.417 0.1,0.85l-0,5.45c-0,0.5 -0.05,0.817 -0.15,0.95c-0.2,0.2 -0.517,0.3 -0.95,0.3l-0.35,0l-0,0.25l4.4,0l-0,-0.25l-0.4,0c-0.233,0 -0.45,-0.05 -0.65,-0.15c-0.167,-0.067 -0.283,-0.15 -0.35,-0.25c-0.067,-0.133 -0.1,-0.417 -0.1,-0.85l-0,-5.45c-0,-0.5 0.067,-0.817 0.2,-0.95c0.2,-0.2 0.5,-0.3 0.9,-0.3l0.4,0l-0,-0.25l-4.4,0l-0,0.25l0.35,0c0.233,0 0.467,0.05 0.7,0.15m13.4,0.15c0.2,-0.2 0.517,-0.3 0.95,-0.3l0.35,0l-0,-0.25l-3.6,0l-0,0.25l0.35,0c0.433,0 0.733,0.083 0.9,0.25c0.133,0.133 0.2,0.467 0.2,1l-0,4.85l-6.25,-6.35l-2.8,0l-0,0.25c0.3,0 0.517,0.017 0.65,0.05c0.3,0.067 0.533,0.15 0.7,0.25c0.133,0.1 0.35,0.3 0.65,0.6l-0,5.85c-0,0.467 -0.05,0.767 -0.15,0.9c-0.167,0.2 -0.483,0.3 -0.95,0.3l-0.35,0l-0,0.25l3.6,0l-0,-0.25l-0.35,0c-0.4,0 -0.7,-0.083 -0.9,-0.25c-0.133,-0.133 -0.2,-0.45 -0.2,-0.95l-0,-5.2l6.75,6.8l0.3,0l-0,-7.1c-0,-0.5 0.05,-0.817 0.15,-0.95m-51.85,0.15c0.333,-0.233 0.767,-0.35 1.3,-0.35c0.467,-0 0.917,0.083 1.35,0.25c0.433,0.2 0.767,0.467 1,0.8c0.233,0.333 0.4,0.783 0.5,1.35l0.25,0l-0,-2.9l-0.25,-0c-0.067,0.167 -0.133,0.283 -0.2,0.35c-0.1,0.067 -0.217,0.1 -0.35,0.1c-0.1,-0 -0.3,-0.05 -0.6,-0.15c-0.6,-0.2 -1.167,-0.3 -1.7,-0.3c-0.9,0 -1.633,0.217 -2.2,0.65c-0.567,0.433 -0.85,0.95 -0.85,1.55c-0,0.333 0.1,0.65 0.3,0.95c0.2,0.3 0.483,0.567 0.85,0.8c0.367,0.233 1,0.55 1.9,0.95c0.867,0.4 1.4,0.667 1.6,0.8c0.3,0.2 0.517,0.4 0.65,0.6c0.133,0.2 0.2,0.417 0.2,0.65c-0,0.367 -0.183,0.683 -0.55,0.95c-0.367,0.267 -0.867,0.4 -1.5,0.4c-0.533,0 -1.033,-0.1 -1.5,-0.3c-0.467,-0.2 -0.8,-0.45 -1,-0.75c-0.233,-0.3 -0.417,-0.75 -0.55,-1.35l-0.3,0l-0,2.9l0.3,0c0.033,-0.2 0.083,-0.333 0.15,-0.4c0.067,-0.067 0.167,-0.1 0.3,-0.1c0.133,0 0.45,0.067 0.95,0.2c0.5,0.133 0.817,0.217 0.95,0.25c0.267,0.033 0.55,0.05 0.85,0.05c0.967,0 1.75,-0.233 2.35,-0.7c0.6,-0.467 0.9,-1.017 0.9,-1.65c-0,-0.333 -0.1,-0.65 -0.3,-0.95c-0.167,-0.3 -0.433,-0.567 -0.8,-0.8c-0.333,-0.233 -0.983,-0.567 -1.95,-1c-1.2,-0.5 -1.95,-0.917 -2.25,-1.25c-0.2,-0.2 -0.3,-0.433 -0.3,-0.7c-0,-0.333 0.167,-0.633 0.5,-0.9m13.7,0.25c-0.367,-0.367 -0.8,-0.617 -1.3,-0.75c-0.533,-0.133 -1.35,-0.2 -2.45,-0.2l-3.75,0l-0,0.25l0.4,0c0.4,0 0.7,0.083 0.9,0.25c0.133,0.133 0.2,0.467 0.2,1l-0,5.45c-0,0.5 -0.05,0.8 -0.15,0.9c-0.2,0.233 -0.517,0.35 -0.95,0.35l-0.4,0l-0,0.25l4.4,0l-0,-0.25l-0.4,0c-0.367,0 -0.65,-0.083 -0.85,-0.25c-0.133,-0.133 -0.2,-0.467 -0.2,-1l-0,-2.45l1.05,0l3.5,3.95l2.75,0l-0,-0.25c-0.567,-0.033 -1.017,-0.15 -1.35,-0.35c-0.367,-0.167 -0.783,-0.533 -1.25,-1.1l-2.15,-2.4c0.867,-0.167 1.5,-0.433 1.9,-0.8c0.433,-0.4 0.65,-0.85 0.65,-1.35c-0,-0.5 -0.183,-0.917 -0.55,-1.25m-4.55,-0.35c0.5,-0.067 0.9,-0.1 1.2,-0.1c0.633,0 1.167,0.167 1.6,0.5c0.4,0.333 0.6,0.75 0.6,1.25c-0,0.567 -0.25,1.017 -0.75,1.35c-0.5,0.333 -1.25,0.5 -2.25,0.5l-0.4,-0l-0,-3.5m7.45,-0.6l-0,0.25l0.4,0c0.4,0 0.7,0.083 0.9,0.25c0.133,0.133 0.2,0.467 0.2,1l-0,5.45c-0,0.433 -0.033,0.717 -0.1,0.85c-0.067,0.133 -0.183,0.233 -0.35,0.3c-0.2,0.067 -0.417,0.1 -0.65,0.1l-0.4,0l-0,0.25l7.95,0l0.9,-2.1l-0.35,-0c-0.3,0.5 -0.617,0.883 -0.95,1.15c-0.233,0.2 -0.483,0.333 -0.75,0.4c-0.267,0.067 -0.683,0.1 -1.25,0.1l-1.75,0c-0.3,0 -0.5,-0.033 -0.6,-0.1c-0.1,-0.033 -0.167,-0.083 -0.2,-0.15c-0.033,-0.1 -0.05,-0.333 -0.05,-0.7l-0,-2.8l2.25,0c0.433,0 0.75,0.05 0.95,0.15c0.2,0.067 0.35,0.183 0.45,0.35c0.067,0.1 0.133,0.35 0.2,0.75l0.3,0l-0,-2.9l-0.3,-0c-0.033,0.467 -0.167,0.8 -0.4,1c-0.2,0.133 -0.6,0.2 -1.2,0.2l-2.25,-0l-0,-3.3l2.8,0c0.533,0 0.9,0.017 1.1,0.05c0.233,0.1 0.417,0.233 0.55,0.4c0.133,0.167 0.25,0.467 0.35,0.9l0.3,-0l-0.1,-1.85l-7.95,0m-87.8,0.25l-0,-0.25l-3.8,0l-0,0.25l0.25,0c0.267,0 0.45,0.033 0.55,0.1c0.1,0.067 0.15,0.15 0.15,0.25c-0,0.133 -0.067,0.283 -0.2,0.45c-0.333,0.367 -1.25,1.117 -2.75,2.25c-0.567,0.433 -0.9,0.7 -1,0.8l-0,-2.6c-0,-0.4 0.017,-0.667 0.05,-0.8c0.067,-0.133 0.183,-0.233 0.35,-0.3c0.233,-0.1 0.467,-0.15 0.7,-0.15l0.35,0l-0,-0.25l-4.4,0l-0,0.25l0.35,0c0.267,0 0.5,0.05 0.7,0.15c0.167,0.067 0.283,0.15 0.35,0.25c0.067,0.133 0.1,0.417 0.1,0.85l-0,5.45c-0,0.5 -0.067,0.817 -0.2,0.95c-0.2,0.2 -0.517,0.3 -0.95,0.3l-0.35,0l-0,0.25l4.4,0l-0,-0.25l-0.35,0c-0.233,0 -0.467,-0.05 -0.7,-0.15c-0.167,-0.067 -0.267,-0.15 -0.3,-0.25c-0.067,-0.133 -0.1,-0.417 -0.1,-0.85l-0,-2.7l3.55,2.85c0.267,0.233 0.417,0.383 0.45,0.45c0.067,0.1 0.1,0.2 0.1,0.3c-0,0.1 -0.067,0.183 -0.2,0.25c-0.133,0.067 -0.35,0.1 -0.65,0.1l-0,0.25l4.9,0l-0,-0.25c-0.433,0 -0.883,-0.1 -1.35,-0.3c-0.433,-0.167 -0.95,-0.517 -1.55,-1.05l-3.8,-3.05l1.55,-1.3c0.933,-0.767 1.45,-1.2 1.55,-1.3c0.367,-0.267 0.683,-0.467 0.95,-0.6c0.267,-0.133 0.5,-0.217 0.7,-0.25c0.167,-0.067 0.367,-0.1 0.6,-0.1m8.95,0.7c-0.367,-0.367 -0.8,-0.617 -1.3,-0.75c-0.533,-0.133 -1.35,-0.2 -2.45,-0.2l-3.75,0l-0,0.25l0.4,0c0.4,0 0.7,0.083 0.9,0.25c0.133,0.133 0.2,0.467 0.2,1l-0,5.45c-0,0.5 -0.05,0.8 -0.15,0.9c-0.2,0.233 -0.517,0.35 -0.95,0.35l-0.4,0l-0,0.25l4.4,0l-0,-0.25l-0.4,0c-0.367,0 -0.65,-0.083 -0.85,-0.25c-0.133,-0.133 -0.2,-0.467 -0.2,-1l-0,-2.45l1.05,0l3.5,3.95l5.95,0l-0,-0.25c-0.5,0 -0.817,-0.05 -0.95,-0.15c-0.167,-0.1 -0.25,-0.217 -0.25,-0.35c-0,-0.167 0.1,-0.417 0.3,-0.75l0.65,-1.3l4,0l0.6,1.2c0.233,0.4 0.35,0.683 0.35,0.85c-0,0.133 -0.083,0.25 -0.25,0.35c-0.133,0.1 -0.4,0.15 -0.8,0.15l-0,0.25l4.05,0l-0,-0.25c-0.433,0 -0.767,-0.083 -1,-0.25c-0.233,-0.167 -0.5,-0.533 -0.8,-1.1l-3.55,-7l-0.25,0l-3.65,6.9c-0.3,0.633 -0.583,1.05 -0.85,1.25c-0.128,0.096 -0.395,0.163 -0.8,0.2l-0.05,0c-0.544,-0.04 -0.977,-0.156 -1.3,-0.35c-0.367,-0.167 -0.783,-0.533 -1.25,-1.1l-2.15,-2.4c0.867,-0.167 1.5,-0.433 1.9,-0.8c0.433,-0.4 0.65,-0.85 0.65,-1.35c-0,-0.5 -0.183,-0.917 -0.55,-1.25m5.95,4.2l1.8,-3.4l1.75,3.4l-3.55,0m-10.5,-4.55c0.5,-0.067 0.9,-0.1 1.2,-0.1c0.633,0 1.167,0.167 1.6,0.5c0.4,0.333 0.6,0.75 0.6,1.25c-0,0.567 -0.25,1.017 -0.75,1.35c-0.5,0.333 -1.25,0.5 -2.25,0.5l-0.4,0l-0,-3.5m24,-0.35l0.35,0l-0,-0.25l-4.4,0l-0,0.25l0.35,0c0.267,0 0.5,0.05 0.7,0.15c0.167,0.067 0.283,0.15 0.35,0.25c0.033,0.133 0.05,0.417 0.05,0.85l-0,5.75c-0,0.367 -0.05,0.617 -0.15,0.75c-0.133,0.133 -0.267,0.2 -0.4,0.2c-0.167,0 -0.317,-0.117 -0.45,-0.35c-0.2,-0.367 -0.35,-0.6 -0.45,-0.7c-0.133,-0.067 -0.283,-0.1 -0.45,-0.1c-0.233,0 -0.433,0.067 -0.6,0.2c-0.133,0.1 -0.2,0.25 -0.2,0.45c-0,0.233 0.15,0.45 0.45,0.65c0.267,0.2 0.633,0.3 1.1,0.3c0.6,0 1.1,-0.15 1.5,-0.45c0.4,-0.3 0.7,-0.633 0.9,-1c0.167,-0.4 0.25,-0.917 0.25,-1.55l-0,-4.15c-0,-0.5 0.05,-0.817 0.15,-0.95c0.2,-0.2 0.517,-0.3 0.95,-0.3m277.5,0.3c0.167,-0.2 0.467,-0.3 0.9,-0.3l0.4,0l-0,-0.25l-2.95,0l-3.65,6.6l-3.75,-6.6l-2.9,0l-0,0.25c0.433,0 0.733,0.033 0.9,0.1c0.2,0.1 0.333,0.2 0.4,0.3c0.1,0.167 0.15,0.45 0.15,0.85l-0,5.5c-0,0.467 -0.05,0.767 -0.15,0.9c-0.2,0.2 -0.517,0.3 -0.95,0.3l-0.35,0l-0,0.25l3.6,0l-0,-0.25l-0.4,0c-0.4,0 -0.683,-0.083 -0.85,-0.25c-0.133,-0.133 -0.2,-0.45 -0.2,-0.95l-0,-5.65l3.95,7.1l0.25,0l3.95,-7.1l-0,5.65c-0,0.467 -0.05,0.767 -0.15,0.9c-0.167,0.2 -0.467,0.3 -0.9,0.3l-0.4,0l-0,0.25l4.4,0l-0,-0.25l-0.4,0c-0.4,0 -0.683,-0.083 -0.85,-0.25c-0.167,-0.133 -0.25,-0.45 -0.25,-0.95l-0,-5.5c-0,-0.5 0.067,-0.817 0.2,-0.95m6.4,7.9l-0,-0.25l-0.4,0c-0.233,0 -0.45,-0.05 -0.65,-0.15c-0.167,-0.067 -0.283,-0.15 -0.35,-0.25c-0.067,-0.133 -0.1,-0.417 -0.1,-0.85l-0,-5.45c-0,-0.5 0.067,-0.817 0.2,-0.95c0.2,-0.2 0.5,-0.3 0.9,-0.3l0.4,0l-0,-0.25l-4.4,0l-0,0.25l0.35,0c0.233,0 0.467,0.05 0.7,0.15c0.167,0.067 0.267,0.15 0.3,0.25c0.067,0.133 0.1,0.417 0.1,0.85l-0,5.45c-0,0.5 -0.05,0.817 -0.15,0.95c-0.2,0.2 -0.517,0.3 -0.95,0.3l-0.35,0l-0,0.25l4.4,0m-31.35,-8.6l-0.25,0c-0.067,0.167 -0.133,0.283 -0.2,0.35c-0.1,0.067 -0.217,0.1 -0.35,0.1c-0.1,0 -0.3,-0.05 -0.6,-0.15c-0.6,-0.2 -1.167,-0.3 -1.7,-0.3c-0.9,0 -1.633,0.217 -2.2,0.65c-0.567,0.433 -0.85,0.95 -0.85,1.55c-0,0.333 0.1,0.65 0.3,0.95c0.2,0.3 0.483,0.567 0.85,0.8c0.367,0.233 1,0.55 1.9,0.95c0.867,0.4 1.4,0.667 1.6,0.8c0.3,0.2 0.517,0.4 0.65,0.6c0.133,0.2 0.2,0.417 0.2,0.65c-0,0.367 -0.183,0.683 -0.55,0.95c-0.367,0.267 -0.867,0.4 -1.5,0.4c-0.533,0 -1.033,-0.1 -1.5,-0.3c-0.467,-0.2 -0.8,-0.45 -1,-0.75c-0.233,-0.3 -0.417,-0.75 -0.55,-1.35l-0.3,0l-0,2.9l0.3,0c0.033,-0.2 0.083,-0.333 0.15,-0.4c0.067,-0.067 0.167,-0.1 0.3,-0.1c0.133,0 0.45,0.067 0.95,0.2c0.5,0.133 0.817,0.217 0.95,0.25c0.267,0.033 0.55,0.05 0.85,0.05c0.967,0 1.75,-0.233 2.35,-0.7c0.6,-0.467 0.9,-1.017 0.9,-1.65c-0,-0.333 -0.1,-0.65 -0.3,-0.95c-0.167,-0.3 -0.433,-0.567 -0.8,-0.8c-0.333,-0.233 -0.983,-0.567 -1.95,-1c-1.2,-0.5 -1.95,-0.917 -2.25,-1.25c-0.2,-0.2 -0.3,-0.433 -0.3,-0.7c-0,-0.333 0.167,-0.633 0.5,-0.9c0.333,-0.233 0.767,-0.35 1.3,-0.35c0.467,0 0.917,0.083 1.35,0.25c0.433,0.2 0.767,0.467 1,0.8c0.233,0.333 0.4,0.783 0.5,1.35l0.25,0l-0,-2.9m7.25,0l-0.25,0l-3.65,6.9c-0.3,0.633 -0.583,1.05 -0.85,1.25c-0.133,0.1 -0.417,0.167 -0.85,0.2l-0,0.25l3.25,0l-0,-0.25c-0.5,0 -0.817,-0.05 -0.95,-0.15c-0.167,-0.1 -0.25,-0.217 -0.25,-0.35c-0,-0.167 0.1,-0.417 0.3,-0.75l0.65,-1.3l4,0l0.6,1.2c0.233,0.4 0.35,0.683 0.35,0.85c-0,0.133 -0.083,0.25 -0.25,0.35c-0.133,0.1 -0.4,0.15 -0.8,0.15l-0,0.25l4.05,0l-0,-0.25c-0.433,0 -0.767,-0.083 -1,-0.25c-0.233,-0.167 -0.5,-0.533 -0.8,-1.1l-3.55,-7m1.2,5.3l-3.55,0l1.8,-3.4l1.75,3.4Z" style="fill-rule:nonzero;"/><path d="M19.65,32.4c-0,9.067 0.05,14.883 0.15,17.45c0.367,8.8 1.233,14.083 2.6,15.85c1.133,1.467 2.717,2.2 4.75,2.2l2.7,-0l0,-6.75l2,-0c-3.968,-0.089 -6.568,-0.939 -7.8,-2.55c-1.1,-1.467 -1.65,-4.517 -1.65,-9.15l-0,-21.75c-0.667,0.667 -1.333,1.333 -2,2c-0.5,0.667 -0.75,1.567 -0.75,2.7m153.9,-1.15c-0.5,0.667 -0.75,1.567 -0.75,2.7c0,9.067 0.05,14.883 0.15,17.45c0.367,8.8 1.233,14.083 2.6,15.85c1.133,1.467 2.717,2.2 4.75,2.2l2.7,0l0,-6.75l2,0c-3.968,-0.089 -6.568,-0.939 -7.8,-2.55c-1.1,-1.467 -1.65,-4.517 -1.65,-9.15l0,-21.75c-0.667,0.667 -1.333,1.333 -2,2m149.1,0.9c-0.5,0.667 -0.75,1.567 -0.75,2.7c0,9.067 0.05,14.883 0.15,17.45c0.367,8.8 1.233,14.083 2.6,15.85c1.133,1.467 2.717,2.2 4.75,2.2l2.7,0l0,-6.75l2,0c-3.968,-0.089 -6.568,-0.939 -7.8,-2.55c-1.1,-1.467 -1.65,-4.517 -1.65,-9.15l0,-21.75c-0.667,0.667 -1.333,1.333 -2,2m-278.3,-121.25c-0.667,-0 -1.183,0.35 -1.55,1.05c-0.567,0.767 -0.85,1.467 -0.85,2.1c0,0.6 0.383,1.117 1.15,1.55c-1.267,1.067 -2.55,2 -3.85,2.8c0.567,0.267 1,0.4 1.3,0.4c1.1,0 2.317,-0.833 3.65,-2.5c0.4,0.367 0.933,0.667 1.6,0.9l0.2,-2.05c-0.4,-0.333 -0.633,-0.5 -0.7,-0.5c0.367,-0.767 0.55,-1.417 0.55,-1.95c0,-1.2 -0.5,-1.8 -1.5,-1.8m-0.2,2.8c0,0.133 0.017,0.217 0.05,0.25c-0.5,-0.333 -0.75,-0.65 -0.75,-0.95l0.05,-0.05c0.433,0.067 0.65,0.317 0.65,0.75m63.3,117.85c-2.4,3.1 -3.6,4.967 -3.6,5.6l0.9,35.75c1.967,-1.633 2.95,-5.967 2.95,-13l-0.25,-28.35m-62.45,-85.15l-0.25,-25.5c-2.333,2.8 -3.483,4.483 -3.45,5.05l0.85,32.1c1.9,-1.467 2.85,-5.35 2.85,-11.65m94.75,-1.35l-0.25,-25.5c-2.333,2.8 -3.483,4.483 -3.45,5.05l0.85,32.1c1.9,-1.467 2.85,-5.35 2.85,-11.65m118.5,85.35c-2.167,2.733 -3.25,4.383 -3.25,4.95l0.8,31.4c1.8,-1.433 2.7,-5.233 2.7,-11.4l-0.25,-24.95m-81.1,-12.2c-0.433,-0.367 -0.7,-0.567 -0.8,-0.6c0.433,-0.9 0.65,-1.667 0.65,-2.3c0,-1.433 -0.583,-2.15 -1.75,-2.15c-0.767,-0 -1.367,0.433 -1.8,1.3c-0.633,0.9 -0.95,1.733 -0.95,2.5c0,0.7 0.433,1.317 1.3,1.85c-1.467,1.233 -2.95,2.333 -4.45,3.3c0.667,0.333 1.167,0.5 1.5,0.5c1.267,-0 2.667,-0.983 4.2,-2.95c0.5,0.433 1.133,0.783 1.9,1.05l0.2,-2.5m-2.9,-2.6c0.533,0.1 0.8,0.417 0.8,0.95l0,0.3c-0.567,-0.433 -0.85,-0.817 -0.85,-1.15l0.05,-0.1m71.45,-94.7c-2.333,2.8 -3.483,4.483 -3.45,5.05l0.85,32.1c1.9,-1.467 2.85,-5.35 2.85,-11.65l-0.25,-25.5m-298.6,137.45l-0.25,-24.95c-2.167,2.733 -3.25,4.383 -3.25,4.95l0.8,31.4c1.8,-1.433 2.7,-5.233 2.7,-11.4m-6.1,-26.3c0.567,0.3 1,0.45 1.3,0.45c1.033,-0 2.2,-0.883 3.5,-2.65c0.4,0.4 0.933,0.717 1.6,0.95l0.15,-2.2c-0.367,-0.333 -0.6,-0.517 -0.7,-0.55c0.367,-0.8 0.55,-1.483 0.55,-2.05c0,-1.233 -0.483,-1.85 -1.45,-1.85c-0.667,-0 -1.167,0.367 -1.5,1.1c-0.533,0.8 -0.8,1.55 -0.8,2.25c0,0.6 0.367,1.133 1.1,1.6c-1.233,1.1 -2.483,2.083 -3.75,2.95m4.1,-5.7l0,-0.1c0.433,0.1 0.65,0.383 0.65,0.85c0,0.133 0.017,0.233 0.05,0.3c-0.467,-0.4 -0.7,-0.75 -0.7,-1.05m320.95,-227.1c-1.3,1.667 -1.933,2.667 -1.9,3l0.45,19.3c1.067,-0.9 1.6,-3.233 1.6,-7l-0.15,-15.3m-275.05,6.5c0,-0.5 0.067,-0.817 0.2,-0.95c0.2,-0.2 0.5,-0.3 0.9,-0.3l0.4,-0l0,-0.25l-4.4,-0l0,0.25l0.35,-0c0.233,-0 0.467,0.05 0.7,0.15c0.167,0.067 0.267,0.15 0.3,0.25c0.067,0.133 0.1,0.417 0.1,0.85l0,5.45c0,0.5 -0.05,0.817 -0.15,0.95c-0.2,0.2 -0.517,0.3 -0.95,0.3l-0.35,-0l0,0.25l4.4,-0l0,-0.25l-0.4,-0c-0.233,-0 -0.45,-0.05 -0.65,-0.15c-0.167,-0.067 -0.283,-0.15 -0.35,-0.25c-0.067,-0.133 -0.1,-0.417 -0.1,-0.85l0,-5.45m-9.95,5.9c-0.167,0.167 -0.25,0.35 -0.25,0.55c0,0.2 0.067,0.367 0.2,0.5c0.133,0.1 0.333,0.15 0.6,0.15c0.1,-0 0.2,-0.017 0.3,-0.05c0.167,-0.067 0.283,-0.1 0.35,-0.1c0.033,-0 0.067,0.017 0.1,0.05c0.033,0.067 0.05,0.133 0.05,0.2c-0,0.333 -0.133,0.65 -0.4,0.95c-0.3,0.3 -0.7,0.517 -1.2,0.65l0,0.25c0.767,-0.2 1.333,-0.483 1.7,-0.85c0.367,-0.367 0.55,-0.767 0.55,-1.2c0,-0.4 -0.133,-0.717 -0.4,-0.95c-0.267,-0.233 -0.567,-0.35 -0.9,-0.35c-0.267,-0 -0.5,0.067 -0.7,0.2m-9,-6.9c0.133,0.133 0.2,0.467 0.2,1l-0,5.45c-0,0.433 -0.033,0.717 -0.1,0.85c-0.067,0.133 -0.183,0.233 -0.35,0.3c-0.2,0.067 -0.417,0.1 -0.65,0.1l-0.4,-0l-0,0.25l7.95,-0l0.9,-2.1l-0.35,-0c-0.3,0.5 -0.617,0.883 -0.95,1.15c-0.233,0.2 -0.483,0.333 -0.75,0.4c-0.267,0.067 -0.683,0.1 -1.25,0.1l-1.75,-0c-0.3,-0 -0.5,-0.033 -0.6,-0.1c-0.1,-0.033 -0.167,-0.083 -0.2,-0.15c-0.033,-0.1 -0.05,-0.333 -0.05,-0.7l-0,-2.8l2.25,-0c0.433,-0 0.75,0.05 0.95,0.15c0.2,0.067 0.35,0.183 0.45,0.35c0.067,0.1 0.133,0.35 0.2,0.75l0.3,-0l0,-2.9l-0.3,-0c-0.033,0.467 -0.167,0.8 -0.4,1c-0.2,0.133 -0.6,0.2 -1.2,0.2l-2.25,-0l-0,-3.3l2.8,-0c0.533,-0 0.9,0.017 1.1,0.05c0.233,0.1 0.417,0.233 0.55,0.4c0.133,0.167 0.25,0.467 0.35,0.9l0.3,-0l-0.1,-1.85l-7.95,-0l-0,0.25l0.4,-0c0.4,-0 0.7,0.083 0.9,0.25m192.8,6.1l0,-11.75c-0.367,0.367 -0.733,0.733 -1.1,1.1c-0.267,0.367 -0.4,0.85 -0.4,1.45c0,4.9 0.033,8.05 0.1,9.45c0.167,4.7 0.633,7.533 1.4,8.5c0.6,0.8 1.45,1.2 2.55,1.2l1.45,-0l0,-3.65l1.05,-0c-2.105,-0.049 -3.505,-0.516 -4.2,-1.4c-0.567,-0.767 -0.85,-2.4 -0.85,-4.9m-168.85,1.9c-0,-0.4 -0.133,-0.717 -0.4,-0.95c-0.267,-0.233 -0.567,-0.35 -0.9,-0.35c-0.267,-0 -0.5,0.067 -0.7,0.2c-0.167,0.167 -0.25,0.35 -0.25,0.55c-0,0.2 0.067,0.367 0.2,0.5c0.133,0.1 0.333,0.15 0.6,0.15c0.1,-0 0.2,-0.017 0.3,-0.05c0.167,-0.067 0.283,-0.1 0.35,-0.1c0.033,-0 0.067,0.017 0.1,0.05c0.033,0.067 0.05,0.133 0.05,0.2c-0,0.333 -0.133,0.65 -0.4,0.95c-0.3,0.3 -0.7,0.517 -1.2,0.65l-0,0.25c0.767,-0.2 1.333,-0.483 1.7,-0.85c0.367,-0.367 0.55,-0.767 0.55,-1.2m5.1,-8.25c0.4,-0 0.683,0.083 0.85,0.25c0.2,0.167 0.3,0.5 0.3,1l-0,3.3c-0,1.033 0.067,1.733 0.2,2.1c0.267,0.533 0.683,0.95 1.25,1.25c0.6,0.333 1.45,0.5 2.55,0.5c1.033,-0 1.85,-0.167 2.45,-0.5c0.6,-0.333 1,-0.733 1.2,-1.2c0.2,-0.467 0.3,-1.117 0.3,-1.95l-0,-3.45c-0,-0.467 0.067,-0.767 0.2,-0.9c0.2,-0.267 0.5,-0.4 0.9,-0.4l0.4,-0l-0,-0.25l-3.65,-0l-0,0.25l0.4,-0c0.4,-0 0.683,0.083 0.85,0.25c0.167,0.133 0.25,0.467 0.25,1l-0,3.45c-0,0.867 -0.1,1.5 -0.3,1.9c-0.2,0.367 -0.567,0.667 -1.1,0.9c-0.533,0.233 -1.133,0.35 -1.8,0.35c-0.533,-0 -0.983,-0.067 -1.35,-0.2c-0.333,-0.167 -0.6,-0.367 -0.8,-0.6c-0.2,-0.233 -0.333,-0.567 -0.4,-1c-0.067,-0.4 -0.1,-0.767 -0.1,-1.1l-0,-3.7c-0,-0.467 0.05,-0.767 0.15,-0.9c0.2,-0.233 0.517,-0.35 0.95,-0.35l0.4,-0l-0,-0.25l-4.45,-0l-0,0.25l0.35,-0m74.75,-3.85c-0,4.9 0.033,8.05 0.1,9.45c0.167,4.7 0.633,7.533 1.4,8.5c0.6,0.8 1.45,1.2 2.55,1.2l1.45,-0l-0,-3.65l1.05,-0c-2.105,-0.049 -3.505,-0.516 -4.2,-1.4c-0.567,-0.767 -0.85,-2.4 -0.85,-4.9l-0,-11.75c-0.367,0.367 -0.733,0.733 -1.1,1.1c-0.267,0.367 -0.4,0.85 -0.4,1.45m250.25,215.55c0,-1.433 -0.583,-2.15 -1.75,-2.15c-0.767,-0 -1.367,0.433 -1.8,1.3c-0.633,0.9 -0.95,1.733 -0.95,2.5c0,0.7 0.433,1.317 1.3,1.85c-1.467,1.233 -2.95,2.333 -4.45,3.3c0.667,0.333 1.167,0.5 1.5,0.5c1.267,-0 2.667,-0.983 4.2,-2.95c0.5,0.433 1.133,0.783 1.9,1.05l0.2,-2.5c-0.433,-0.367 -0.7,-0.567 -0.8,-0.6c0.433,-0.9 0.65,-1.667 0.65,-2.3m-2.8,0.4l0.05,-0.1c0.533,0.1 0.8,0.417 0.8,0.95l0,0.3c-0.567,-0.433 -0.85,-0.817 -0.85,-1.15m44.75,-217.1c-1.3,1.667 -1.933,2.667 -1.9,3l0.45,19.3c1.067,-0.9 1.6,-3.233 1.6,-7l-0.15,-15.3Z" style="fill:#f00;fill-rule:nonzero;"/></g><path id="Layer0_0_1_STROKES" d="M246.65,-87.9l-5.8,6.5m17.85,150.55l-6.75,6.6m-111.45,-115.9l-5.3,5.15m-106,110.35l-8.25,6.25m87.85,-59.75l-8.5,8" style="fill:none;fill-rule:nonzero;stroke:#f00;stroke-width:2.5px;"/></g></svg>