<?xml version="1.0" encoding="UTF-8" standalone="no"?><!DOCTYPE svg PUBLIC "-//W3C//DTD SVG 1.1//EN" "http://www.w3.org/Graphics/SVG/1.1/DTD/svg11.dtd"><svg width="100%" height="100%" viewBox="0 0 5 5" version="1.1" xmlns="http://www.w3.org/2000/svg" xmlns:xlink="http://www.w3.org/1999/xlink" xml:space="preserve" xmlns:serif="http://www.serif.com/" style="fill-rule:evenodd;clip-rule:evenodd;stroke-linejoin:round;stroke-miterlimit:2;"><path d="M2.71,3.555l-0.022,-2.256c-0.206,0.248 -0.308,0.397 -0.305,0.447l0.075,2.839c0.168,-0.13 0.252,-0.473 0.252,-1.03Zm-0.057,-3.14c-0.059,0 -0.105,0.031 -0.138,0.093c-0.05,0.068 -0.075,0.13 -0.075,0.186c0,0.053 0.034,0.098 0.102,0.137c-0.112,0.094 -0.226,0.177 -0.34,0.247c0.05,0.024 0.088,0.036 0.114,0.036c0.098,0 0.205,-0.074 0.323,-0.221c0.036,0.032 0.083,0.059 0.142,0.079l0.017,-0.181c-0.035,-0.03 -0.056,-0.044 -0.061,-0.044c0.032,-0.068 0.048,-0.126 0.048,-0.173c0,-0.106 -0.044,-0.159 -0.132,-0.159Zm-0.018,0.248c0,0.011 0.001,0.019 0.004,0.022c-0.044,-0.03 -0.066,-0.058 -0.066,-0.084l0.004,-0.005c0.039,0.006 0.058,0.028 0.058,0.067Z" style="fill:#f00;fill-rule:nonzero;"/></svg>